<?xml version="1.0" encoding="UTF-8" standalone="no"?>
<!DOCTYPE svg PUBLIC "-//W3C//DTD SVG 1.1//EN"
 "http://www.w3.org/Graphics/SVG/1.1/DTD/svg11.dtd">
<!-- Generated by graphviz version 2.43.0 (0)
 -->
<!-- Title: largeRelationshipsDiagram Pages: 1 -->
<svg width="736pt" height="854pt"
 viewBox="0.00 0.00 736.00 854.00" xmlns="http://www.w3.org/2000/svg" xmlns:xlink="http://www.w3.org/1999/xlink">
<g id="graph0" class="graph" transform="scale(1 1) rotate(0) translate(4 850)">
<title>largeRelationshipsDiagram</title>
<polygon fill="#ffffff" stroke="transparent" points="-4,4 -4,-850 732,-850 732,4 -4,4"/>
<text text-anchor="middle" x="71.5" y="-7.2" font-family="Helvetica,sans-Serif" font-size="11.00">Generated by SchemaSpy</text>
<!-- syst_perms -->
<g id="node1" class="node">
<title>syst_perms</title>
<g id="a_node1"><a xlink:href="../../tables/syst_perms.html" xlink:title="syst_perms" target="_top">
<polygon fill="#ffffff" stroke="transparent" points="283,-37 283,-473 477,-473 477,-37 283,-37"/>
<polygon fill="#f5f5f5" stroke="transparent" points="283,-451 283,-473 477,-473 477,-451 283,-451"/>
<polygon fill="none" stroke="black" points="283,-451 283,-473 477,-473 477,-451 283,-451"/>
<text text-anchor="start" x="288" y="-460.2" font-family="Helvetica,sans-Serif" font-weight="bold" font-size="11.00">syst_perms</text>
<text text-anchor="start" x="442" y="-459.2" font-family="Helvetica,sans-Serif" font-size="11.00">[table]</text>
<polygon fill="none" stroke="black" points="283,-429 283,-451 477,-451 477,-429 283,-429"/>
<image xlink:href="../../images/primaryKeys.png" width="11px" height="12px" preserveAspectRatio="xMinYMin meet" x="288" y="-446"/>
<text text-anchor="start" x="303" y="-437.2" font-family="Helvetica,sans-Serif" font-size="11.00">id</text>
<polygon fill="#ffffff" stroke="transparent" points="283,-407 283,-429 477,-429 477,-407 283,-407"/>
<polygon fill="none" stroke="black" points="283,-407 283,-429 477,-429 477,-407 283,-407"/>
<text text-anchor="start" x="303" y="-415.2" font-family="Helvetica,sans-Serif" font-size="11.00">internal_name</text>
<polygon fill="#ffffff" stroke="transparent" points="283,-385 283,-407 477,-407 477,-385 283,-385"/>
<polygon fill="none" stroke="black" points="283,-385 283,-407 477,-407 477,-385 283,-385"/>
<text text-anchor="start" x="303" y="-393.2" font-family="Helvetica,sans-Serif" font-size="11.00">display_name</text>
<polygon fill="none" stroke="black" points="283,-363 283,-385 477,-385 477,-363 283,-363"/>
<image xlink:href="../../images/foreignKeys.png" width="11px" height="12px" preserveAspectRatio="xMinYMin meet" x="288" y="-380"/>
<text text-anchor="start" x="303" y="-371.2" font-family="Helvetica,sans-Serif" font-size="11.00">perm_functional_type_id</text>
<polygon fill="none" stroke="black" points="283,-341 283,-363 477,-363 477,-341 283,-341"/>
<text text-anchor="start" x="303" y="-349.2" font-family="Helvetica,sans-Serif" font-size="11.00">syst_defined</text>
<polygon fill="none" stroke="black" points="283,-319 283,-341 477,-341 477,-319 283,-319"/>
<text text-anchor="start" x="303" y="-327.2" font-family="Helvetica,sans-Serif" font-size="11.00">syst_description</text>
<polygon fill="none" stroke="black" points="283,-297 283,-319 477,-319 477,-297 283,-297"/>
<text text-anchor="start" x="303" y="-305.2" font-family="Helvetica,sans-Serif" font-size="11.00">user_description</text>
<polygon fill="none" stroke="black" points="283,-275 283,-297 477,-297 477,-275 283,-275"/>
<text text-anchor="start" x="303" y="-283.2" font-family="Helvetica,sans-Serif" font-size="11.00">view_scope_options</text>
<polygon fill="none" stroke="black" points="283,-253 283,-275 477,-275 477,-253 283,-253"/>
<text text-anchor="start" x="303" y="-261.2" font-family="Helvetica,sans-Serif" font-size="11.00">maint_scope_options</text>
<polygon fill="none" stroke="black" points="283,-231 283,-253 477,-253 477,-231 283,-231"/>
<text text-anchor="start" x="303" y="-239.2" font-family="Helvetica,sans-Serif" font-size="11.00">admin_scope_options</text>
<polygon fill="none" stroke="black" points="283,-209 283,-231 477,-231 477,-209 283,-209"/>
<text text-anchor="start" x="303" y="-217.2" font-family="Helvetica,sans-Serif" font-size="11.00">ops_scope_options</text>
<polygon fill="none" stroke="black" points="283,-187 283,-209 477,-209 477,-187 283,-187"/>
<text text-anchor="start" x="303" y="-195.2" font-family="Helvetica,sans-Serif" font-size="11.00">diag_timestamp_created</text>
<polygon fill="none" stroke="black" points="283,-165 283,-187 477,-187 477,-165 283,-165"/>
<text text-anchor="start" x="303" y="-173.2" font-family="Helvetica,sans-Serif" font-size="11.00">diag_role_created</text>
<polygon fill="none" stroke="black" points="283,-143 283,-165 477,-165 477,-143 283,-143"/>
<text text-anchor="start" x="303" y="-151.2" font-family="Helvetica,sans-Serif" font-size="11.00">diag_timestamp_modified</text>
<polygon fill="none" stroke="black" points="283,-121 283,-143 477,-143 477,-121 283,-121"/>
<text text-anchor="start" x="303" y="-129.2" font-family="Helvetica,sans-Serif" font-size="11.00">diag_wallclock_modified</text>
<polygon fill="none" stroke="black" points="283,-99 283,-121 477,-121 477,-99 283,-99"/>
<text text-anchor="start" x="303" y="-107.2" font-family="Helvetica,sans-Serif" font-size="11.00">diag_role_modified</text>
<polygon fill="none" stroke="black" points="283,-77 283,-99 477,-99 477,-77 283,-77"/>
<text text-anchor="start" x="303" y="-85.2" font-family="Helvetica,sans-Serif" font-size="11.00">diag_row_version</text>
<polygon fill="none" stroke="black" points="283,-55 283,-77 477,-77 477,-55 283,-55"/>
<text text-anchor="start" x="303" y="-63.2" font-family="Helvetica,sans-Serif" font-size="11.00">diag_update_count</text>
<polygon fill="#ffffff" stroke="transparent" points="283,-37 283,-55 373,-55 373,-37 283,-37"/>
<polygon fill="none" stroke="black" points="283,-37 283,-55 373,-55 373,-37 283,-37"/>
<text text-anchor="start" x="286" y="-43.2" font-family="Helvetica,sans-Serif" font-size="11.00">&lt; 1</text>
<polygon fill="#ffffff" stroke="transparent" points="373,-37 373,-55 420,-55 420,-37 373,-37"/>
<polygon fill="none" stroke="black" points="373,-37 373,-55 420,-55 420,-37 373,-37"/>
<text text-anchor="start" x="410" y="-43.2" font-family="Helvetica,sans-Serif" font-size="11.00"> &#160;</text>
<polygon fill="#ffffff" stroke="transparent" points="420,-37 420,-55 477,-55 477,-37 420,-37"/>
<polygon fill="none" stroke="black" points="420,-37 420,-55 477,-55 477,-37 420,-37"/>
<text text-anchor="start" x="458" y="-43.2" font-family="Helvetica,sans-Serif" font-size="11.00">1 &gt;</text>
</a>
</g>
</g>
<!-- syst_perm_functional_types -->
<g id="node2" class="node">
<title>syst_perm_functional_types</title>
<g id="a_node2"><a xlink:href="../../tables/syst_perm_functional_types.html" xlink:title="syst_perm_functional_types" target="_top">
<polygon fill="#ffffff" stroke="transparent" points="8,-287 8,-591 234,-591 234,-287 8,-287"/>
<polygon fill="#f5f5f5" stroke="transparent" points="8,-569 8,-591 234,-591 234,-569 8,-569"/>
<polygon fill="none" stroke="black" points="8,-569 8,-591 234,-591 234,-569 8,-569"/>
<text text-anchor="start" x="13" y="-578.2" font-family="Helvetica,sans-Serif" font-weight="bold" font-size="11.00">syst_perm_functional_types</text>
<text text-anchor="start" x="199" y="-577.2" font-family="Helvetica,sans-Serif" font-size="11.00">[table]</text>
<polygon fill="none" stroke="black" points="8,-547 8,-569 234,-569 234,-547 8,-547"/>
<image xlink:href="../../images/primaryKeys.png" width="11px" height="12px" preserveAspectRatio="xMinYMin meet" x="13" y="-564"/>
<text text-anchor="start" x="38" y="-555.2" font-family="Helvetica,sans-Serif" font-size="11.00">id</text>
<polygon fill="#ffffff" stroke="transparent" points="8,-525 8,-547 234,-547 234,-525 8,-525"/>
<polygon fill="none" stroke="black" points="8,-525 8,-547 234,-547 234,-525 8,-525"/>
<text text-anchor="start" x="38" y="-533.2" font-family="Helvetica,sans-Serif" font-size="11.00">internal_name</text>
<polygon fill="#ffffff" stroke="transparent" points="8,-503 8,-525 234,-525 234,-503 8,-503"/>
<polygon fill="none" stroke="black" points="8,-503 8,-525 234,-525 234,-503 8,-503"/>
<text text-anchor="start" x="38" y="-511.2" font-family="Helvetica,sans-Serif" font-size="11.00">display_name</text>
<polygon fill="none" stroke="black" points="8,-481 8,-503 234,-503 234,-481 8,-481"/>
<text text-anchor="start" x="38" y="-489.2" font-family="Helvetica,sans-Serif" font-size="11.00">syst_description</text>
<polygon fill="none" stroke="black" points="8,-459 8,-481 234,-481 234,-459 8,-459"/>
<text text-anchor="start" x="38" y="-467.2" font-family="Helvetica,sans-Serif" font-size="11.00">user_description</text>
<polygon fill="none" stroke="black" points="8,-437 8,-459 234,-459 234,-437 8,-437"/>
<text text-anchor="start" x="38" y="-445.2" font-family="Helvetica,sans-Serif" font-size="11.00">diag_timestamp_created</text>
<polygon fill="none" stroke="black" points="8,-415 8,-437 234,-437 234,-415 8,-415"/>
<text text-anchor="start" x="38" y="-423.2" font-family="Helvetica,sans-Serif" font-size="11.00">diag_role_created</text>
<polygon fill="none" stroke="black" points="8,-393 8,-415 234,-415 234,-393 8,-393"/>
<text text-anchor="start" x="38" y="-401.2" font-family="Helvetica,sans-Serif" font-size="11.00">diag_timestamp_modified</text>
<polygon fill="none" stroke="black" points="8,-371 8,-393 234,-393 234,-371 8,-371"/>
<text text-anchor="start" x="38" y="-379.2" font-family="Helvetica,sans-Serif" font-size="11.00">diag_wallclock_modified</text>
<polygon fill="none" stroke="black" points="8,-349 8,-371 234,-371 234,-349 8,-349"/>
<text text-anchor="start" x="38" y="-357.2" font-family="Helvetica,sans-Serif" font-size="11.00">diag_role_modified</text>
<polygon fill="none" stroke="black" points="8,-327 8,-349 234,-349 234,-327 8,-327"/>
<text text-anchor="start" x="38" y="-335.2" font-family="Helvetica,sans-Serif" font-size="11.00">diag_row_version</text>
<polygon fill="none" stroke="black" points="8,-305 8,-327 234,-327 234,-305 8,-305"/>
<text text-anchor="start" x="38" y="-313.2" font-family="Helvetica,sans-Serif" font-size="11.00">diag_update_count</text>
<polygon fill="#ffffff" stroke="transparent" points="8,-287 8,-305 110,-305 110,-287 8,-287"/>
<polygon fill="none" stroke="black" points="8,-287 8,-305 110,-305 110,-287 8,-287"/>
<text text-anchor="start" x="11" y="-293.2" font-family="Helvetica,sans-Serif" font-size="11.00"> &#160;</text>
<polygon fill="#ffffff" stroke="transparent" points="110,-287 110,-305 167,-305 167,-287 110,-287"/>
<polygon fill="none" stroke="black" points="110,-287 110,-305 167,-305 167,-287 110,-287"/>
<text text-anchor="start" x="157" y="-293.2" font-family="Helvetica,sans-Serif" font-size="11.00"> &#160;</text>
<polygon fill="#ffffff" stroke="transparent" points="167,-287 167,-305 234,-305 234,-287 167,-287"/>
<polygon fill="none" stroke="black" points="167,-287 167,-305 234,-305 234,-287 167,-287"/>
<text text-anchor="start" x="215" y="-293.2" font-family="Helvetica,sans-Serif" font-size="11.00">2 &gt;</text>
</a>
</g>
</g>
<!-- syst_perms&#45;&gt;syst_perm_functional_types -->
<g id="edge4" class="edge">
<title>syst_perms:w&#45;&gt;syst_perm_functional_types:e</title>
<path fill="none" stroke="black" d="M267.45,-376.46C213.29,-398.3 313.63,-558 235,-558"/>
<polygon fill="black" stroke="black" points="274.11,-375.33 282.6,-377.55 278.06,-374.67 282,-374 282,-374 282,-374 278.06,-374.67 281.4,-370.45 274.11,-375.33 274.11,-375.33"/>
<ellipse fill="none" stroke="black" cx="270.96" cy="-375.87" rx="3.2" ry="3.2"/>
</g>
<!-- syst_perm_role_grants -->
<g id="node3" class="node">
<title>syst_perm_role_grants</title>
<g id="a_node3"><a xlink:href="../../tables/syst_perm_role_grants.html" xlink:title="syst_perm_role_grants" target="_top">
<polygon fill="#ffffff" stroke="transparent" points="526,-342 526,-690 720,-690 720,-342 526,-342"/>
<polygon fill="#f5f5f5" stroke="transparent" points="526,-668 526,-690 720,-690 720,-668 526,-668"/>
<polygon fill="none" stroke="black" points="526,-668 526,-690 720,-690 720,-668 526,-668"/>
<text text-anchor="start" x="531" y="-677.2" font-family="Helvetica,sans-Serif" font-weight="bold" font-size="11.00">syst_perm_role_grants</text>
<text text-anchor="start" x="685" y="-676.2" font-family="Helvetica,sans-Serif" font-size="11.00">[table]</text>
<polygon fill="none" stroke="black" points="526,-646 526,-668 720,-668 720,-646 526,-646"/>
<image xlink:href="../../images/primaryKeys.png" width="11px" height="12px" preserveAspectRatio="xMinYMin meet" x="531" y="-663"/>
<text text-anchor="start" x="546" y="-654.2" font-family="Helvetica,sans-Serif" font-size="11.00">id</text>
<polygon fill="#ffffff" stroke="transparent" points="526,-624 526,-646 720,-646 720,-624 526,-624"/>
<polygon fill="none" stroke="black" points="526,-624 526,-646 720,-646 720,-624 526,-624"/>
<image xlink:href="../../images/foreignKeys.png" width="11px" height="12px" preserveAspectRatio="xMinYMin meet" x="531" y="-641"/>
<text text-anchor="start" x="546" y="-632.2" font-family="Helvetica,sans-Serif" font-size="11.00">perm_role_id</text>
<polygon fill="#ffffff" stroke="transparent" points="526,-602 526,-624 720,-624 720,-602 526,-602"/>
<polygon fill="none" stroke="black" points="526,-602 526,-624 720,-624 720,-602 526,-602"/>
<image xlink:href="../../images/foreignKeys.png" width="11px" height="12px" preserveAspectRatio="xMinYMin meet" x="531" y="-619"/>
<text text-anchor="start" x="546" y="-610.2" font-family="Helvetica,sans-Serif" font-size="11.00">perm_id</text>
<polygon fill="none" stroke="black" points="526,-580 526,-602 720,-602 720,-580 526,-580"/>
<text text-anchor="start" x="546" y="-588.2" font-family="Helvetica,sans-Serif" font-size="11.00">view_scope</text>
<polygon fill="none" stroke="black" points="526,-558 526,-580 720,-580 720,-558 526,-558"/>
<text text-anchor="start" x="546" y="-566.2" font-family="Helvetica,sans-Serif" font-size="11.00">maint_scope</text>
<polygon fill="none" stroke="black" points="526,-536 526,-558 720,-558 720,-536 526,-536"/>
<text text-anchor="start" x="546" y="-544.2" font-family="Helvetica,sans-Serif" font-size="11.00">admin_scope</text>
<polygon fill="none" stroke="black" points="526,-514 526,-536 720,-536 720,-514 526,-514"/>
<text text-anchor="start" x="546" y="-522.2" font-family="Helvetica,sans-Serif" font-size="11.00">ops_scope</text>
<polygon fill="none" stroke="black" points="526,-492 526,-514 720,-514 720,-492 526,-492"/>
<text text-anchor="start" x="546" y="-500.2" font-family="Helvetica,sans-Serif" font-size="11.00">diag_timestamp_created</text>
<polygon fill="none" stroke="black" points="526,-470 526,-492 720,-492 720,-470 526,-470"/>
<text text-anchor="start" x="546" y="-478.2" font-family="Helvetica,sans-Serif" font-size="11.00">diag_role_created</text>
<polygon fill="none" stroke="black" points="526,-448 526,-470 720,-470 720,-448 526,-448"/>
<text text-anchor="start" x="546" y="-456.2" font-family="Helvetica,sans-Serif" font-size="11.00">diag_timestamp_modified</text>
<polygon fill="none" stroke="black" points="526,-426 526,-448 720,-448 720,-426 526,-426"/>
<text text-anchor="start" x="546" y="-434.2" font-family="Helvetica,sans-Serif" font-size="11.00">diag_wallclock_modified</text>
<polygon fill="none" stroke="black" points="526,-404 526,-426 720,-426 720,-404 526,-404"/>
<text text-anchor="start" x="546" y="-412.2" font-family="Helvetica,sans-Serif" font-size="11.00">diag_role_modified</text>
<polygon fill="none" stroke="black" points="526,-382 526,-404 720,-404 720,-382 526,-382"/>
<text text-anchor="start" x="546" y="-390.2" font-family="Helvetica,sans-Serif" font-size="11.00">diag_row_version</text>
<polygon fill="none" stroke="black" points="526,-360 526,-382 720,-382 720,-360 526,-360"/>
<text text-anchor="start" x="546" y="-368.2" font-family="Helvetica,sans-Serif" font-size="11.00">diag_update_count</text>
<polygon fill="#ffffff" stroke="transparent" points="526,-342 526,-360 621,-360 621,-342 526,-342"/>
<polygon fill="none" stroke="black" points="526,-342 526,-360 621,-360 621,-342 526,-342"/>
<text text-anchor="start" x="529" y="-348.2" font-family="Helvetica,sans-Serif" font-size="11.00">&lt; 2</text>
<polygon fill="#ffffff" stroke="transparent" points="621,-342 621,-360 670,-360 670,-342 621,-342"/>
<polygon fill="none" stroke="black" points="621,-342 621,-360 670,-360 670,-342 621,-342"/>
<text text-anchor="start" x="660" y="-348.2" font-family="Helvetica,sans-Serif" font-size="11.00"> &#160;</text>
<polygon fill="#ffffff" stroke="transparent" points="670,-342 670,-360 720,-360 720,-342 670,-342"/>
<polygon fill="none" stroke="black" points="670,-342 670,-360 720,-360 720,-342 670,-342"/>
<text text-anchor="start" x="710" y="-348.2" font-family="Helvetica,sans-Serif" font-size="11.00"> &#160;</text>
</a>
</g>
</g>
<!-- syst_perm_role_grants&#45;&gt;syst_perms -->
<g id="edge1" class="edge">
<title>syst_perm_role_grants:w&#45;&gt;syst_perms:e</title>
<path fill="none" stroke="black" d="M510.59,-610.42C460.56,-588.9 551.92,-440 478,-440"/>
<polygon fill="black" stroke="black" points="517.13,-611.59 524.37,-616.54 521.06,-612.3 525,-613 525,-613 525,-613 521.06,-612.3 525.63,-609.46 517.13,-611.59 517.13,-611.59"/>
<ellipse fill="none" stroke="black" cx="513.98" cy="-611.03" rx="3.2" ry="3.2"/>
</g>
<!-- syst_perm_roles -->
<g id="node4" class="node">
<title>syst_perm_roles</title>
<g id="a_node4"><a xlink:href="../../tables/syst_perm_roles.html" xlink:title="syst_perm_roles" target="_top">
<polygon fill="#ffffff" stroke="transparent" points="283,-494 283,-842 477,-842 477,-494 283,-494"/>
<polygon fill="#f5f5f5" stroke="transparent" points="283,-820 283,-842 477,-842 477,-820 283,-820"/>
<polygon fill="none" stroke="black" points="283,-820 283,-842 477,-842 477,-820 283,-820"/>
<text text-anchor="start" x="288" y="-829.2" font-family="Helvetica,sans-Serif" font-weight="bold" font-size="11.00">syst_perm_roles</text>
<text text-anchor="start" x="442" y="-828.2" font-family="Helvetica,sans-Serif" font-size="11.00">[table]</text>
<polygon fill="none" stroke="black" points="283,-798 283,-820 477,-820 477,-798 283,-798"/>
<image xlink:href="../../images/primaryKeys.png" width="11px" height="12px" preserveAspectRatio="xMinYMin meet" x="288" y="-815"/>
<text text-anchor="start" x="303" y="-806.2" font-family="Helvetica,sans-Serif" font-size="11.00">id</text>
<polygon fill="#ffffff" stroke="transparent" points="283,-776 283,-798 477,-798 477,-776 283,-776"/>
<polygon fill="none" stroke="black" points="283,-776 283,-798 477,-798 477,-776 283,-776"/>
<text text-anchor="start" x="303" y="-784.2" font-family="Helvetica,sans-Serif" font-size="11.00">internal_name</text>
<polygon fill="#ffffff" stroke="transparent" points="283,-754 283,-776 477,-776 477,-754 283,-754"/>
<polygon fill="none" stroke="black" points="283,-754 283,-776 477,-776 477,-754 283,-754"/>
<text text-anchor="start" x="303" y="-762.2" font-family="Helvetica,sans-Serif" font-size="11.00">display_name</text>
<polygon fill="none" stroke="black" points="283,-732 283,-754 477,-754 477,-732 283,-732"/>
<image xlink:href="../../images/foreignKeys.png" width="11px" height="12px" preserveAspectRatio="xMinYMin meet" x="288" y="-749"/>
<text text-anchor="start" x="303" y="-740.2" font-family="Helvetica,sans-Serif" font-size="11.00">perm_functional_type_id</text>
<polygon fill="none" stroke="black" points="283,-710 283,-732 477,-732 477,-710 283,-710"/>
<text text-anchor="start" x="303" y="-718.2" font-family="Helvetica,sans-Serif" font-size="11.00">syst_defined</text>
<polygon fill="none" stroke="black" points="283,-688 283,-710 477,-710 477,-688 283,-688"/>
<text text-anchor="start" x="303" y="-696.2" font-family="Helvetica,sans-Serif" font-size="11.00">syst_description</text>
<polygon fill="none" stroke="black" points="283,-666 283,-688 477,-688 477,-666 283,-666"/>
<text text-anchor="start" x="303" y="-674.2" font-family="Helvetica,sans-Serif" font-size="11.00">user_description</text>
<polygon fill="none" stroke="black" points="283,-644 283,-666 477,-666 477,-644 283,-644"/>
<text text-anchor="start" x="303" y="-652.2" font-family="Helvetica,sans-Serif" font-size="11.00">diag_timestamp_created</text>
<polygon fill="none" stroke="black" points="283,-622 283,-644 477,-644 477,-622 283,-622"/>
<text text-anchor="start" x="303" y="-630.2" font-family="Helvetica,sans-Serif" font-size="11.00">diag_role_created</text>
<polygon fill="none" stroke="black" points="283,-600 283,-622 477,-622 477,-600 283,-600"/>
<text text-anchor="start" x="303" y="-608.2" font-family="Helvetica,sans-Serif" font-size="11.00">diag_timestamp_modified</text>
<polygon fill="none" stroke="black" points="283,-578 283,-600 477,-600 477,-578 283,-578"/>
<text text-anchor="start" x="303" y="-586.2" font-family="Helvetica,sans-Serif" font-size="11.00">diag_wallclock_modified</text>
<polygon fill="none" stroke="black" points="283,-556 283,-578 477,-578 477,-556 283,-556"/>
<text text-anchor="start" x="303" y="-564.2" font-family="Helvetica,sans-Serif" font-size="11.00">diag_role_modified</text>
<polygon fill="none" stroke="black" points="283,-534 283,-556 477,-556 477,-534 283,-534"/>
<text text-anchor="start" x="303" y="-542.2" font-family="Helvetica,sans-Serif" font-size="11.00">diag_row_version</text>
<polygon fill="none" stroke="black" points="283,-512 283,-534 477,-534 477,-512 283,-512"/>
<text text-anchor="start" x="303" y="-520.2" font-family="Helvetica,sans-Serif" font-size="11.00">diag_update_count</text>
<polygon fill="#ffffff" stroke="transparent" points="283,-494 283,-512 373,-512 373,-494 283,-494"/>
<polygon fill="none" stroke="black" points="283,-494 283,-512 373,-512 373,-494 283,-494"/>
<text text-anchor="start" x="286" y="-500.2" font-family="Helvetica,sans-Serif" font-size="11.00">&lt; 1</text>
<polygon fill="#ffffff" stroke="transparent" points="373,-494 373,-512 420,-512 420,-494 373,-494"/>
<polygon fill="none" stroke="black" points="373,-494 373,-512 420,-512 420,-494 373,-494"/>
<text text-anchor="start" x="410" y="-500.2" font-family="Helvetica,sans-Serif" font-size="11.00"> &#160;</text>
<polygon fill="#ffffff" stroke="transparent" points="420,-494 420,-512 477,-512 477,-494 420,-494"/>
<polygon fill="none" stroke="black" points="420,-494 420,-512 477,-512 477,-494 420,-494"/>
<text text-anchor="start" x="458" y="-500.2" font-family="Helvetica,sans-Serif" font-size="11.00">1 &gt;</text>
</a>
</g>
</g>
<!-- syst_perm_role_grants&#45;&gt;syst_perm_roles -->
<g id="edge2" class="edge">
<title>syst_perm_role_grants:w&#45;&gt;syst_perm_roles:e</title>
<path fill="none" stroke="black" d="M510.52,-637.59C460.25,-659.24 552.32,-809 478,-809"/>
<polygon fill="black" stroke="black" points="517.13,-636.41 525.63,-638.54 521.06,-635.71 525,-635 525,-635 525,-635 521.06,-635.71 524.37,-631.46 517.13,-636.41 517.13,-636.41"/>
<ellipse fill="none" stroke="black" cx="513.98" cy="-636.98" rx="3.2" ry="3.2"/>
</g>
<!-- syst_perm_roles&#45;&gt;syst_perm_functional_types -->
<g id="edge3" class="edge">
<title>syst_perm_roles:w&#45;&gt;syst_perm_functional_types:e</title>
<path fill="none" stroke="black" d="M267.72,-740.66C212.54,-719.25 314.2,-558 235,-558"/>
<polygon fill="black" stroke="black" points="274.11,-741.71 281.42,-746.55 278.05,-742.35 282,-743 282,-743 282,-743 278.05,-742.35 282.58,-739.45 274.11,-741.71 274.11,-741.71"/>
<ellipse fill="none" stroke="black" cx="270.95" cy="-741.19" rx="3.2" ry="3.2"/>
</g>
</g>
</svg>
