<?xml version="1.0" encoding="UTF-8" standalone="no"?>
<!DOCTYPE svg PUBLIC "-//W3C//DTD SVG 1.1//EN"
 "http://www.w3.org/Graphics/SVG/1.1/DTD/svg11.dtd">
<!-- Generated by graphviz version 2.43.0 (0)
 -->
<!-- Title: compactRelationshipsDiagram Pages: 1 -->
<svg width="736pt" height="362pt"
 viewBox="0.00 0.00 736.00 362.00" xmlns="http://www.w3.org/2000/svg" xmlns:xlink="http://www.w3.org/1999/xlink">
<g id="graph0" class="graph" transform="scale(1 1) rotate(0) translate(4 358)">
<title>compactRelationshipsDiagram</title>
<polygon fill="#ffffff" stroke="transparent" points="-4,4 -4,-358 732,-358 732,4 -4,4"/>
<text text-anchor="middle" x="71.5" y="-7.2" font-family="Helvetica,sans-Serif" font-size="11.00">Generated by SchemaSpy</text>
<!-- syst_perms -->
<g id="node1" class="node">
<title>syst_perms</title>
<g id="a_node1"><a xlink:href="../../tables/syst_perms.html" xlink:title="syst_perms" target="_top">
<polygon fill="#ffffff" stroke="transparent" points="283,-37 283,-183 477,-183 477,-37 283,-37"/>
<polygon fill="#f5f5f5" stroke="transparent" points="283,-161 283,-183 477,-183 477,-161 283,-161"/>
<polygon fill="none" stroke="black" points="283,-161 283,-183 477,-183 477,-161 283,-161"/>
<text text-anchor="start" x="288" y="-170.2" font-family="Helvetica,sans-Serif" font-weight="bold" font-size="11.00">syst_perms</text>
<text text-anchor="start" x="442" y="-169.2" font-family="Helvetica,sans-Serif" font-size="11.00">[table]</text>
<polygon fill="none" stroke="black" points="283,-139 283,-161 477,-161 477,-139 283,-139"/>
<image xlink:href="../../images/primaryKeys.png" width="11px" height="12px" preserveAspectRatio="xMinYMin meet" x="288" y="-156"/>
<text text-anchor="start" x="303" y="-147.2" font-family="Helvetica,sans-Serif" font-size="11.00">id</text>
<polygon fill="#ffffff" stroke="transparent" points="283,-117 283,-139 477,-139 477,-117 283,-117"/>
<polygon fill="none" stroke="black" points="283,-117 283,-139 477,-139 477,-117 283,-117"/>
<text text-anchor="start" x="303" y="-125.2" font-family="Helvetica,sans-Serif" font-size="11.00">internal_name</text>
<polygon fill="#ffffff" stroke="transparent" points="283,-95 283,-117 477,-117 477,-95 283,-95"/>
<polygon fill="none" stroke="black" points="283,-95 283,-117 477,-117 477,-95 283,-95"/>
<text text-anchor="start" x="303" y="-103.2" font-family="Helvetica,sans-Serif" font-size="11.00">display_name</text>
<polygon fill="none" stroke="black" points="283,-73 283,-95 477,-95 477,-73 283,-73"/>
<image xlink:href="../../images/foreignKeys.png" width="11px" height="12px" preserveAspectRatio="xMinYMin meet" x="288" y="-90"/>
<text text-anchor="start" x="303" y="-81.2" font-family="Helvetica,sans-Serif" font-size="11.00">perm_functional_type_id</text>
<polygon fill="none" stroke="black" points="283,-55 283,-73 477,-73 477,-55 283,-55"/>
<text text-anchor="start" x="286" y="-61.2" font-family="Helvetica,sans-Serif" font-size="11.00">...</text>
<polygon fill="#ffffff" stroke="transparent" points="283,-37 283,-55 373,-55 373,-37 283,-37"/>
<polygon fill="none" stroke="black" points="283,-37 283,-55 373,-55 373,-37 283,-37"/>
<text text-anchor="start" x="286" y="-43.2" font-family="Helvetica,sans-Serif" font-size="11.00">&lt; 1</text>
<polygon fill="#ffffff" stroke="transparent" points="373,-37 373,-55 420,-55 420,-37 373,-37"/>
<polygon fill="none" stroke="black" points="373,-37 373,-55 420,-55 420,-37 373,-37"/>
<text text-anchor="start" x="410" y="-43.2" font-family="Helvetica,sans-Serif" font-size="11.00"> &#160;</text>
<polygon fill="#ffffff" stroke="transparent" points="420,-37 420,-55 477,-55 477,-37 420,-37"/>
<polygon fill="none" stroke="black" points="420,-37 420,-55 477,-55 477,-37 420,-37"/>
<text text-anchor="start" x="458" y="-43.2" font-family="Helvetica,sans-Serif" font-size="11.00">1 &gt;</text>
</a>
</g>
</g>
<!-- syst_perm_functional_types -->
<g id="node2" class="node">
<title>syst_perm_functional_types</title>
<g id="a_node2"><a xlink:href="../../tables/syst_perm_functional_types.html" xlink:title="syst_perm_functional_types" target="_top">
<polygon fill="#ffffff" stroke="transparent" points="8,-76 8,-200 234,-200 234,-76 8,-76"/>
<polygon fill="#f5f5f5" stroke="transparent" points="8,-178 8,-200 234,-200 234,-178 8,-178"/>
<polygon fill="none" stroke="black" points="8,-178 8,-200 234,-200 234,-178 8,-178"/>
<text text-anchor="start" x="13" y="-187.2" font-family="Helvetica,sans-Serif" font-weight="bold" font-size="11.00">syst_perm_functional_types</text>
<text text-anchor="start" x="199" y="-186.2" font-family="Helvetica,sans-Serif" font-size="11.00">[table]</text>
<polygon fill="none" stroke="black" points="8,-156 8,-178 234,-178 234,-156 8,-156"/>
<image xlink:href="../../images/primaryKeys.png" width="11px" height="12px" preserveAspectRatio="xMinYMin meet" x="13" y="-173"/>
<text text-anchor="start" x="38" y="-164.2" font-family="Helvetica,sans-Serif" font-size="11.00">id</text>
<polygon fill="#ffffff" stroke="transparent" points="8,-134 8,-156 234,-156 234,-134 8,-134"/>
<polygon fill="none" stroke="black" points="8,-134 8,-156 234,-156 234,-134 8,-134"/>
<text text-anchor="start" x="38" y="-142.2" font-family="Helvetica,sans-Serif" font-size="11.00">internal_name</text>
<polygon fill="#ffffff" stroke="transparent" points="8,-112 8,-134 234,-134 234,-112 8,-112"/>
<polygon fill="none" stroke="black" points="8,-112 8,-134 234,-134 234,-112 8,-112"/>
<text text-anchor="start" x="38" y="-120.2" font-family="Helvetica,sans-Serif" font-size="11.00">display_name</text>
<polygon fill="none" stroke="black" points="8,-94 8,-112 234,-112 234,-94 8,-94"/>
<text text-anchor="start" x="11" y="-100.2" font-family="Helvetica,sans-Serif" font-size="11.00">...</text>
<polygon fill="#ffffff" stroke="transparent" points="8,-76 8,-94 110,-94 110,-76 8,-76"/>
<polygon fill="none" stroke="black" points="8,-76 8,-94 110,-94 110,-76 8,-76"/>
<text text-anchor="start" x="11" y="-82.2" font-family="Helvetica,sans-Serif" font-size="11.00"> &#160;</text>
<polygon fill="#ffffff" stroke="transparent" points="110,-76 110,-94 167,-94 167,-76 110,-76"/>
<polygon fill="none" stroke="black" points="110,-76 110,-94 167,-94 167,-76 110,-76"/>
<text text-anchor="start" x="157" y="-82.2" font-family="Helvetica,sans-Serif" font-size="11.00"> &#160;</text>
<polygon fill="#ffffff" stroke="transparent" points="167,-76 167,-94 234,-94 234,-76 167,-76"/>
<polygon fill="none" stroke="black" points="167,-76 167,-94 234,-94 234,-76 167,-76"/>
<text text-anchor="start" x="215" y="-82.2" font-family="Helvetica,sans-Serif" font-size="11.00">2 &gt;</text>
</a>
</g>
</g>
<!-- syst_perms&#45;&gt;syst_perm_functional_types -->
<g id="edge4" class="edge">
<title>syst_perms:w&#45;&gt;syst_perm_functional_types:e</title>
<path fill="none" stroke="black" d="M268.16,-88.7C248.85,-106.26 271.27,-167 235,-167"/>
<polygon fill="black" stroke="black" points="274.42,-86.57 283.16,-87.41 278.21,-85.29 282,-84 282,-84 282,-84 278.21,-85.29 280.84,-80.59 274.42,-86.57 274.42,-86.57"/>
<ellipse fill="none" stroke="black" cx="271.39" cy="-87.6" rx="3.2" ry="3.2"/>
</g>
<!-- syst_perm_role_grants -->
<g id="node3" class="node">
<title>syst_perm_role_grants</title>
<g id="a_node3"><a xlink:href="../../tables/syst_perm_role_grants.html" xlink:title="syst_perm_role_grants" target="_top">
<polygon fill="#ffffff" stroke="transparent" points="526,-175 526,-299 720,-299 720,-175 526,-175"/>
<polygon fill="#f5f5f5" stroke="transparent" points="526,-277 526,-299 720,-299 720,-277 526,-277"/>
<polygon fill="none" stroke="black" points="526,-277 526,-299 720,-299 720,-277 526,-277"/>
<text text-anchor="start" x="531" y="-286.2" font-family="Helvetica,sans-Serif" font-weight="bold" font-size="11.00">syst_perm_role_grants</text>
<text text-anchor="start" x="685" y="-285.2" font-family="Helvetica,sans-Serif" font-size="11.00">[table]</text>
<polygon fill="none" stroke="black" points="526,-255 526,-277 720,-277 720,-255 526,-255"/>
<image xlink:href="../../images/primaryKeys.png" width="11px" height="12px" preserveAspectRatio="xMinYMin meet" x="531" y="-272"/>
<text text-anchor="start" x="546" y="-263.2" font-family="Helvetica,sans-Serif" font-size="11.00">id</text>
<polygon fill="#ffffff" stroke="transparent" points="526,-233 526,-255 720,-255 720,-233 526,-233"/>
<polygon fill="none" stroke="black" points="526,-233 526,-255 720,-255 720,-233 526,-233"/>
<image xlink:href="../../images/foreignKeys.png" width="11px" height="12px" preserveAspectRatio="xMinYMin meet" x="531" y="-250"/>
<text text-anchor="start" x="546" y="-241.2" font-family="Helvetica,sans-Serif" font-size="11.00">perm_role_id</text>
<polygon fill="#ffffff" stroke="transparent" points="526,-211 526,-233 720,-233 720,-211 526,-211"/>
<polygon fill="none" stroke="black" points="526,-211 526,-233 720,-233 720,-211 526,-211"/>
<image xlink:href="../../images/foreignKeys.png" width="11px" height="12px" preserveAspectRatio="xMinYMin meet" x="531" y="-228"/>
<text text-anchor="start" x="546" y="-219.2" font-family="Helvetica,sans-Serif" font-size="11.00">perm_id</text>
<polygon fill="none" stroke="black" points="526,-193 526,-211 720,-211 720,-193 526,-193"/>
<text text-anchor="start" x="529" y="-199.2" font-family="Helvetica,sans-Serif" font-size="11.00">...</text>
<polygon fill="#ffffff" stroke="transparent" points="526,-175 526,-193 621,-193 621,-175 526,-175"/>
<polygon fill="none" stroke="black" points="526,-175 526,-193 621,-193 621,-175 526,-175"/>
<text text-anchor="start" x="529" y="-181.2" font-family="Helvetica,sans-Serif" font-size="11.00">&lt; 2</text>
<polygon fill="#ffffff" stroke="transparent" points="621,-175 621,-193 670,-193 670,-175 621,-175"/>
<polygon fill="none" stroke="black" points="621,-175 621,-193 670,-193 670,-175 621,-175"/>
<text text-anchor="start" x="660" y="-181.2" font-family="Helvetica,sans-Serif" font-size="11.00"> &#160;</text>
<polygon fill="#ffffff" stroke="transparent" points="670,-175 670,-193 720,-193 720,-175 670,-175"/>
<polygon fill="none" stroke="black" points="670,-175 670,-193 720,-193 720,-175 670,-175"/>
<text text-anchor="start" x="710" y="-181.2" font-family="Helvetica,sans-Serif" font-size="11.00"> &#160;</text>
</a>
</g>
</g>
<!-- syst_perm_role_grants&#45;&gt;syst_perms -->
<g id="edge1" class="edge">
<title>syst_perm_role_grants:w&#45;&gt;syst_perms:e</title>
<path fill="none" stroke="black" d="M511.06,-216.82C494.62,-200.31 509.94,-150 478,-150"/>
<polygon fill="black" stroke="black" points="517.5,-219.21 523.75,-225.37 521.25,-220.61 525,-222 525,-222 525,-222 521.25,-220.61 526.25,-218.63 517.5,-219.21 517.5,-219.21"/>
<ellipse fill="none" stroke="black" cx="514.5" cy="-218.1" rx="3.2" ry="3.2"/>
</g>
<!-- syst_perm_roles -->
<g id="node4" class="node">
<title>syst_perm_roles</title>
<g id="a_node4"><a xlink:href="../../tables/syst_perm_roles.html" xlink:title="syst_perm_roles" target="_top">
<polygon fill="#ffffff" stroke="transparent" points="283,-204 283,-350 477,-350 477,-204 283,-204"/>
<polygon fill="#f5f5f5" stroke="transparent" points="283,-328 283,-350 477,-350 477,-328 283,-328"/>
<polygon fill="none" stroke="black" points="283,-328 283,-350 477,-350 477,-328 283,-328"/>
<text text-anchor="start" x="288" y="-337.2" font-family="Helvetica,sans-Serif" font-weight="bold" font-size="11.00">syst_perm_roles</text>
<text text-anchor="start" x="442" y="-336.2" font-family="Helvetica,sans-Serif" font-size="11.00">[table]</text>
<polygon fill="none" stroke="black" points="283,-306 283,-328 477,-328 477,-306 283,-306"/>
<image xlink:href="../../images/primaryKeys.png" width="11px" height="12px" preserveAspectRatio="xMinYMin meet" x="288" y="-323"/>
<text text-anchor="start" x="303" y="-314.2" font-family="Helvetica,sans-Serif" font-size="11.00">id</text>
<polygon fill="#ffffff" stroke="transparent" points="283,-284 283,-306 477,-306 477,-284 283,-284"/>
<polygon fill="none" stroke="black" points="283,-284 283,-306 477,-306 477,-284 283,-284"/>
<text text-anchor="start" x="303" y="-292.2" font-family="Helvetica,sans-Serif" font-size="11.00">internal_name</text>
<polygon fill="#ffffff" stroke="transparent" points="283,-262 283,-284 477,-284 477,-262 283,-262"/>
<polygon fill="none" stroke="black" points="283,-262 283,-284 477,-284 477,-262 283,-262"/>
<text text-anchor="start" x="303" y="-270.2" font-family="Helvetica,sans-Serif" font-size="11.00">display_name</text>
<polygon fill="none" stroke="black" points="283,-240 283,-262 477,-262 477,-240 283,-240"/>
<image xlink:href="../../images/foreignKeys.png" width="11px" height="12px" preserveAspectRatio="xMinYMin meet" x="288" y="-257"/>
<text text-anchor="start" x="303" y="-248.2" font-family="Helvetica,sans-Serif" font-size="11.00">perm_functional_type_id</text>
<polygon fill="none" stroke="black" points="283,-222 283,-240 477,-240 477,-222 283,-222"/>
<text text-anchor="start" x="286" y="-228.2" font-family="Helvetica,sans-Serif" font-size="11.00">...</text>
<polygon fill="#ffffff" stroke="transparent" points="283,-204 283,-222 373,-222 373,-204 283,-204"/>
<polygon fill="none" stroke="black" points="283,-204 283,-222 373,-222 373,-204 283,-204"/>
<text text-anchor="start" x="286" y="-210.2" font-family="Helvetica,sans-Serif" font-size="11.00">&lt; 1</text>
<polygon fill="#ffffff" stroke="transparent" points="373,-204 373,-222 420,-222 420,-204 373,-204"/>
<polygon fill="none" stroke="black" points="373,-204 373,-222 420,-222 420,-204 373,-204"/>
<text text-anchor="start" x="410" y="-210.2" font-family="Helvetica,sans-Serif" font-size="11.00"> &#160;</text>
<polygon fill="#ffffff" stroke="transparent" points="420,-204 420,-222 477,-222 477,-204 420,-204"/>
<polygon fill="none" stroke="black" points="420,-204 420,-222 477,-222 477,-204 420,-204"/>
<text text-anchor="start" x="458" y="-210.2" font-family="Helvetica,sans-Serif" font-size="11.00">1 &gt;</text>
</a>
</g>
</g>
<!-- syst_perm_role_grants&#45;&gt;syst_perm_roles -->
<g id="edge2" class="edge">
<title>syst_perm_role_grants:w&#45;&gt;syst_perm_roles:e</title>
<path fill="none" stroke="black" d="M510.95,-249.25C494.46,-265.99 510.26,-317 478,-317"/>
<polygon fill="black" stroke="black" points="517.51,-246.8 526.26,-247.37 521.25,-245.4 525,-244 525,-244 525,-244 521.25,-245.4 523.74,-240.63 517.51,-246.8 517.51,-246.8"/>
<ellipse fill="none" stroke="black" cx="514.51" cy="-247.92" rx="3.2" ry="3.2"/>
</g>
<!-- syst_perm_roles&#45;&gt;syst_perm_functional_types -->
<g id="edge3" class="edge">
<title>syst_perm_roles:w&#45;&gt;syst_perm_functional_types:e</title>
<path fill="none" stroke="black" d="M268.33,-246.48C248.46,-229.04 271.76,-167 235,-167"/>
<polygon fill="black" stroke="black" points="274.4,-248.49 280.87,-254.42 278.2,-249.75 282,-251 282,-251 282,-251 278.2,-249.75 283.13,-247.58 274.4,-248.49 274.4,-248.49"/>
<ellipse fill="none" stroke="black" cx="271.36" cy="-247.49" rx="3.2" ry="3.2"/>
</g>
</g>
</svg>
