<?xml version="1.0" encoding="UTF-8" standalone="no"?>
<!DOCTYPE svg PUBLIC "-//W3C//DTD SVG 1.1//EN"
 "http://www.w3.org/Graphics/SVG/1.1/DTD/svg11.dtd">
<!-- Generated by graphviz version 2.43.0 (0)
 -->
<!-- Title: twoDegreesRelationshipsDiagram Pages: 1 -->
<svg width="928pt" height="504pt"
 viewBox="0.00 0.00 928.00 504.00" xmlns="http://www.w3.org/2000/svg" xmlns:xlink="http://www.w3.org/1999/xlink">
<g id="graph0" class="graph" transform="scale(1 1) rotate(0) translate(4 500)">
<title>twoDegreesRelationshipsDiagram</title>
<polygon fill="#ffffff" stroke="transparent" points="-4,4 -4,-500 924,-500 924,4 -4,4"/>
<text text-anchor="middle" x="71.5" y="-7.2" font-family="Helvetica,sans-Serif" font-size="11.00">Generated by SchemaSpy</text>
<!-- syst_access_account_perm_role_assigns -->
<g id="node1" class="node">
<title>syst_access_account_perm_role_assigns</title>
<g id="a_node1"><a xlink:href="../../tables/syst_access_account_perm_role_assigns.html" xlink:title="syst_access_account_perm_role_assigns" target="_top">
<polygon fill="#ffffff" stroke="transparent" points="604,-432 604,-490 912,-490 912,-432 604,-432"/>
<polygon fill="#f5f5f5" stroke="transparent" points="604,-468 604,-490 912,-490 912,-468 604,-468"/>
<polygon fill="none" stroke="black" points="604,-468 604,-490 912,-490 912,-468 604,-468"/>
<text text-anchor="start" x="609" y="-477.2" font-family="Helvetica,sans-Serif" font-weight="bold" font-size="11.00">syst_access_account_perm_role_assigns</text>
<text text-anchor="start" x="877" y="-476.2" font-family="Helvetica,sans-Serif" font-size="11.00">[table]</text>
<polygon fill="none" stroke="black" points="604,-450 604,-468 912,-468 912,-450 604,-450"/>
<text text-anchor="start" x="607" y="-456.2" font-family="Helvetica,sans-Serif" font-size="11.00">...</text>
<polygon fill="#ffffff" stroke="transparent" points="604,-432 604,-450 756,-450 756,-432 604,-432"/>
<polygon fill="none" stroke="black" points="604,-432 604,-450 756,-450 756,-432 604,-432"/>
<text text-anchor="start" x="607" y="-438.2" font-family="Helvetica,sans-Serif" font-size="11.00">&lt; 2</text>
<polygon fill="#ffffff" stroke="transparent" points="756,-432 756,-450 834,-450 834,-432 756,-432"/>
<polygon fill="none" stroke="black" points="756,-432 756,-450 834,-450 834,-432 756,-432"/>
<text text-anchor="start" x="824" y="-438.2" font-family="Helvetica,sans-Serif" font-size="11.00"> &#160;</text>
<polygon fill="#ffffff" stroke="transparent" points="834,-432 834,-450 912,-450 912,-432 834,-432"/>
<polygon fill="none" stroke="black" points="834,-432 834,-450 912,-450 912,-432 834,-432"/>
<text text-anchor="start" x="902" y="-438.2" font-family="Helvetica,sans-Serif" font-size="11.00"> &#160;</text>
</a>
</g>
</g>
<!-- syst_perm_roles -->
<g id="node2" class="node">
<title>syst_perm_roles</title>
<g id="a_node2"><a xlink:href="../../tables/syst_perm_roles.html" xlink:title="syst_perm_roles" target="_top">
<polygon fill="#ffffff" stroke="transparent" points="361,-346 361,-492 555,-492 555,-346 361,-346"/>
<polygon fill="#f5f5f5" stroke="transparent" points="361,-470 361,-492 555,-492 555,-470 361,-470"/>
<polygon fill="none" stroke="black" points="361,-470 361,-492 555,-492 555,-470 361,-470"/>
<text text-anchor="start" x="366" y="-479.2" font-family="Helvetica,sans-Serif" font-weight="bold" font-size="11.00">syst_perm_roles</text>
<text text-anchor="start" x="520" y="-478.2" font-family="Helvetica,sans-Serif" font-size="11.00">[table]</text>
<polygon fill="none" stroke="black" points="361,-448 361,-470 555,-470 555,-448 361,-448"/>
<image xlink:href="../../images/primaryKeys.png" width="11px" height="12px" preserveAspectRatio="xMinYMin meet" x="366" y="-465"/>
<text text-anchor="start" x="381" y="-456.2" font-family="Helvetica,sans-Serif" font-size="11.00">id</text>
<polygon fill="#ffffff" stroke="transparent" points="361,-426 361,-448 555,-448 555,-426 361,-426"/>
<polygon fill="none" stroke="black" points="361,-426 361,-448 555,-448 555,-426 361,-426"/>
<text text-anchor="start" x="381" y="-434.2" font-family="Helvetica,sans-Serif" font-size="11.00">internal_name</text>
<polygon fill="#ffffff" stroke="transparent" points="361,-404 361,-426 555,-426 555,-404 361,-404"/>
<polygon fill="none" stroke="black" points="361,-404 361,-426 555,-426 555,-404 361,-404"/>
<text text-anchor="start" x="381" y="-412.2" font-family="Helvetica,sans-Serif" font-size="11.00">display_name</text>
<polygon fill="none" stroke="black" points="361,-382 361,-404 555,-404 555,-382 361,-382"/>
<image xlink:href="../../images/foreignKeys.png" width="11px" height="12px" preserveAspectRatio="xMinYMin meet" x="366" y="-399"/>
<text text-anchor="start" x="381" y="-390.2" font-family="Helvetica,sans-Serif" font-size="11.00">perm_functional_type_id</text>
<polygon fill="none" stroke="black" points="361,-364 361,-382 555,-382 555,-364 361,-364"/>
<text text-anchor="start" x="364" y="-370.2" font-family="Helvetica,sans-Serif" font-size="11.00">...</text>
<polygon fill="#ffffff" stroke="transparent" points="361,-346 361,-364 451,-364 451,-346 361,-346"/>
<polygon fill="none" stroke="black" points="361,-346 361,-364 451,-364 451,-346 361,-346"/>
<text text-anchor="start" x="364" y="-352.2" font-family="Helvetica,sans-Serif" font-size="11.00">&lt; 1</text>
<polygon fill="#ffffff" stroke="transparent" points="451,-346 451,-364 498,-364 498,-346 451,-346"/>
<polygon fill="none" stroke="black" points="451,-346 451,-364 498,-364 498,-346 451,-346"/>
<text text-anchor="start" x="488" y="-352.2" font-family="Helvetica,sans-Serif" font-size="11.00"> &#160;</text>
<polygon fill="#ffffff" stroke="transparent" points="498,-346 498,-364 555,-364 555,-346 498,-346"/>
<polygon fill="none" stroke="black" points="498,-346 498,-364 555,-364 555,-346 498,-346"/>
<text text-anchor="start" x="536" y="-352.2" font-family="Helvetica,sans-Serif" font-size="11.00">2 &gt;</text>
</a>
</g>
</g>
<!-- syst_access_account_perm_role_assigns&#45;&gt;syst_perm_roles -->
<g id="edge1" class="edge">
<title>syst_access_account_perm_role_assigns:w&#45;&gt;syst_perm_roles:e</title>
<path fill="none" stroke="black" d="M588.4,-459C577.93,-459 571.01,-459 556,-459"/>
<polygon fill="black" stroke="black" points="595,-459 603,-462.6 599,-459 603,-459 603,-459 603,-459 599,-459 603,-455.4 595,-459 595,-459"/>
<ellipse fill="none" stroke="black" cx="591.8" cy="-459" rx="3.2" ry="3.2"/>
</g>
<!-- syst_perm_functional_types -->
<g id="node5" class="node">
<title>syst_perm_functional_types</title>
<g id="a_node5"><a xlink:href="../../tables/syst_perm_functional_types.html" xlink:title="syst_perm_functional_types" target="_top">
<polygon fill="#ffffff" stroke="transparent" points="8,-37 8,-345 312,-345 312,-37 8,-37"/>
<polygon fill="#f5f5f5" stroke="transparent" points="10,-321 10,-343 310,-343 310,-321 10,-321"/>
<polygon fill="none" stroke="black" points="10,-321 10,-343 310,-343 310,-321 10,-321"/>
<text text-anchor="start" x="15" y="-330.2" font-family="Helvetica,sans-Serif" font-weight="bold" font-size="11.00">syst_perm_functional_types</text>
<text text-anchor="start" x="275" y="-329.2" font-family="Helvetica,sans-Serif" font-size="11.00">[table]</text>
<polygon fill="none" stroke="black" points="10,-299 10,-321 217,-321 217,-299 10,-299"/>
<image xlink:href="../../images/primaryKeys.png" width="11px" height="12px" preserveAspectRatio="xMinYMin meet" x="15" y="-316"/>
<text text-anchor="start" x="30" y="-307.2" font-family="Helvetica,sans-Serif" font-size="11.00">id</text>
<polygon fill="none" stroke="black" points="217,-299 217,-321 310,-321 310,-299 217,-299"/>
<text text-anchor="start" x="220" y="-307.2" font-family="Helvetica,sans-Serif" font-size="11.00">uuid[2147483647]</text>
<polygon fill="#ffffff" stroke="transparent" points="10,-277 10,-299 217,-299 217,-277 10,-277"/>
<polygon fill="none" stroke="black" points="10,-277 10,-299 217,-299 217,-277 10,-277"/>
<text text-anchor="start" x="30" y="-285.2" font-family="Helvetica,sans-Serif" font-size="11.00">internal_name</text>
<polygon fill="none" stroke="black" points="217,-277 217,-299 310,-299 310,-277 217,-277"/>
<text text-anchor="start" x="220" y="-285.2" font-family="Helvetica,sans-Serif" font-size="11.00">text[2147483647]</text>
<polygon fill="#ffffff" stroke="transparent" points="10,-255 10,-277 217,-277 217,-255 10,-255"/>
<polygon fill="none" stroke="black" points="10,-255 10,-277 217,-277 217,-255 10,-255"/>
<text text-anchor="start" x="30" y="-263.2" font-family="Helvetica,sans-Serif" font-size="11.00">display_name</text>
<polygon fill="none" stroke="black" points="217,-255 217,-277 310,-277 310,-255 217,-255"/>
<text text-anchor="start" x="220" y="-263.2" font-family="Helvetica,sans-Serif" font-size="11.00">text[2147483647]</text>
<polygon fill="none" stroke="black" points="10,-233 10,-255 217,-255 217,-233 10,-233"/>
<text text-anchor="start" x="30" y="-241.2" font-family="Helvetica,sans-Serif" font-size="11.00">syst_description</text>
<polygon fill="none" stroke="black" points="217,-233 217,-255 310,-255 310,-233 217,-233"/>
<text text-anchor="start" x="220" y="-241.2" font-family="Helvetica,sans-Serif" font-size="11.00">text[2147483647]</text>
<polygon fill="none" stroke="black" points="10,-211 10,-233 217,-233 217,-211 10,-211"/>
<text text-anchor="start" x="30" y="-219.2" font-family="Helvetica,sans-Serif" font-size="11.00">user_description</text>
<polygon fill="none" stroke="black" points="217,-211 217,-233 310,-233 310,-211 217,-211"/>
<text text-anchor="start" x="220" y="-219.2" font-family="Helvetica,sans-Serif" font-size="11.00">text[2147483647]</text>
<polygon fill="none" stroke="black" points="10,-189 10,-211 217,-211 217,-189 10,-189"/>
<text text-anchor="start" x="30" y="-197.2" font-family="Helvetica,sans-Serif" font-size="11.00">diag_timestamp_created</text>
<polygon fill="none" stroke="black" points="217,-189 217,-211 310,-211 310,-189 217,-189"/>
<text text-anchor="start" x="220" y="-197.2" font-family="Helvetica,sans-Serif" font-size="11.00">timestamptz[35,6]</text>
<polygon fill="none" stroke="black" points="10,-167 10,-189 217,-189 217,-167 10,-167"/>
<text text-anchor="start" x="30" y="-175.2" font-family="Helvetica,sans-Serif" font-size="11.00">diag_role_created</text>
<polygon fill="none" stroke="black" points="217,-167 217,-189 310,-189 310,-167 217,-167"/>
<text text-anchor="start" x="220" y="-175.2" font-family="Helvetica,sans-Serif" font-size="11.00">text[2147483647]</text>
<polygon fill="none" stroke="black" points="10,-145 10,-167 217,-167 217,-145 10,-145"/>
<text text-anchor="start" x="30" y="-153.2" font-family="Helvetica,sans-Serif" font-size="11.00">diag_timestamp_modified</text>
<polygon fill="none" stroke="black" points="217,-145 217,-167 310,-167 310,-145 217,-145"/>
<text text-anchor="start" x="220" y="-153.2" font-family="Helvetica,sans-Serif" font-size="11.00">timestamptz[35,6]</text>
<polygon fill="none" stroke="black" points="10,-123 10,-145 217,-145 217,-123 10,-123"/>
<text text-anchor="start" x="30" y="-131.2" font-family="Helvetica,sans-Serif" font-size="11.00">diag_wallclock_modified</text>
<polygon fill="none" stroke="black" points="217,-123 217,-145 310,-145 310,-123 217,-123"/>
<text text-anchor="start" x="220" y="-131.2" font-family="Helvetica,sans-Serif" font-size="11.00">timestamptz[35,6]</text>
<polygon fill="none" stroke="black" points="10,-101 10,-123 217,-123 217,-101 10,-101"/>
<text text-anchor="start" x="30" y="-109.2" font-family="Helvetica,sans-Serif" font-size="11.00">diag_role_modified</text>
<polygon fill="none" stroke="black" points="217,-101 217,-123 310,-123 310,-101 217,-101"/>
<text text-anchor="start" x="220" y="-109.2" font-family="Helvetica,sans-Serif" font-size="11.00">text[2147483647]</text>
<polygon fill="none" stroke="black" points="10,-79 10,-101 217,-101 217,-79 10,-79"/>
<text text-anchor="start" x="30" y="-87.2" font-family="Helvetica,sans-Serif" font-size="11.00">diag_row_version</text>
<polygon fill="none" stroke="black" points="217,-79 217,-101 310,-101 310,-79 217,-79"/>
<text text-anchor="start" x="220" y="-87.2" font-family="Helvetica,sans-Serif" font-size="11.00">int8[19]</text>
<polygon fill="none" stroke="black" points="10,-57 10,-79 217,-79 217,-57 10,-57"/>
<text text-anchor="start" x="30" y="-65.2" font-family="Helvetica,sans-Serif" font-size="11.00">diag_update_count</text>
<polygon fill="none" stroke="black" points="217,-57 217,-79 310,-79 310,-57 217,-57"/>
<text text-anchor="start" x="220" y="-65.2" font-family="Helvetica,sans-Serif" font-size="11.00">int8[19]</text>
<polygon fill="#ffffff" stroke="transparent" points="10,-39 10,-57 118,-57 118,-39 10,-39"/>
<polygon fill="none" stroke="black" points="10,-39 10,-57 118,-57 118,-39 10,-39"/>
<text text-anchor="start" x="13" y="-45.2" font-family="Helvetica,sans-Serif" font-size="11.00">&lt; 0</text>
<polygon fill="#ffffff" stroke="transparent" points="118,-39 118,-57 217,-57 217,-39 118,-39"/>
<polygon fill="none" stroke="black" points="118,-39 118,-57 217,-57 217,-39 118,-39"/>
<text text-anchor="start" x="207" y="-45.2" font-family="Helvetica,sans-Serif" font-size="11.00"> &#160;</text>
<polygon fill="#ffffff" stroke="transparent" points="217,-39 217,-57 310,-57 310,-39 217,-39"/>
<polygon fill="none" stroke="black" points="217,-39 217,-57 310,-57 310,-39 217,-39"/>
<text text-anchor="start" x="291" y="-45.2" font-family="Helvetica,sans-Serif" font-size="11.00">2 &gt;</text>
<polygon fill="none" stroke="black" stroke-width="2" points="9,-38 9,-344 311,-344 311,-38 9,-38"/>
</a>
</g>
</g>
<!-- syst_perm_roles&#45;&gt;syst_perm_functional_types -->
<g id="edge4" class="edge">
<title>syst_perm_roles:w&#45;&gt;syst_perm_functional_types:e</title>
<path fill="none" stroke="black" d="M346.2,-388.54C325.9,-371.3 347.81,-310 311,-310"/>
<polygon fill="black" stroke="black" points="352.39,-390.54 358.89,-396.43 356.19,-391.77 360,-393 360,-393 360,-393 356.19,-391.77 361.11,-389.57 352.39,-390.54 352.39,-390.54"/>
<ellipse fill="none" stroke="black" cx="349.34" cy="-389.55" rx="3.2" ry="3.2"/>
</g>
<!-- syst_perm_role_grants -->
<g id="node3" class="node">
<title>syst_perm_role_grants</title>
<g id="a_node3"><a xlink:href="../../tables/syst_perm_role_grants.html" xlink:title="syst_perm_role_grants" target="_top">
<polygon fill="#ffffff" stroke="transparent" points="662.5,-309 662.5,-367 853.5,-367 853.5,-309 662.5,-309"/>
<polygon fill="#f5f5f5" stroke="transparent" points="663,-345 663,-367 854,-367 854,-345 663,-345"/>
<polygon fill="none" stroke="black" points="663,-345 663,-367 854,-367 854,-345 663,-345"/>
<text text-anchor="start" x="668" y="-354.2" font-family="Helvetica,sans-Serif" font-weight="bold" font-size="11.00">syst_perm_role_grants</text>
<text text-anchor="start" x="819" y="-353.2" font-family="Helvetica,sans-Serif" font-size="11.00">[table]</text>
<polygon fill="none" stroke="black" points="663,-327 663,-345 854,-345 854,-327 663,-327"/>
<text text-anchor="start" x="666" y="-333.2" font-family="Helvetica,sans-Serif" font-size="11.00">...</text>
<polygon fill="#ffffff" stroke="transparent" points="663,-309 663,-327 756,-327 756,-309 663,-309"/>
<polygon fill="none" stroke="black" points="663,-309 663,-327 756,-327 756,-309 663,-309"/>
<text text-anchor="start" x="666" y="-315.2" font-family="Helvetica,sans-Serif" font-size="11.00">&lt; 2</text>
<polygon fill="#ffffff" stroke="transparent" points="756,-309 756,-327 805,-327 805,-309 756,-309"/>
<polygon fill="none" stroke="black" points="756,-309 756,-327 805,-327 805,-309 756,-309"/>
<text text-anchor="start" x="795" y="-315.2" font-family="Helvetica,sans-Serif" font-size="11.00"> &#160;</text>
<polygon fill="#ffffff" stroke="transparent" points="805,-309 805,-327 854,-327 854,-309 805,-309"/>
<polygon fill="none" stroke="black" points="805,-309 805,-327 854,-327 854,-309 805,-309"/>
<text text-anchor="start" x="844" y="-315.2" font-family="Helvetica,sans-Serif" font-size="11.00"> &#160;</text>
</a>
</g>
</g>
<!-- syst_perm_role_grants&#45;&gt;syst_perm_roles -->
<g id="edge3" class="edge">
<title>syst_perm_role_grants:w&#45;&gt;syst_perm_roles:e</title>
<path fill="none" stroke="black" d="M648.57,-341.29C617.42,-364.83 587.57,-459 556,-459"/>
<polygon fill="black" stroke="black" points="654.56,-338.93 663.32,-339.35 658.28,-337.46 662,-336 662,-336 662,-336 658.28,-337.46 660.68,-332.65 654.56,-338.93 654.56,-338.93"/>
<ellipse fill="none" stroke="black" cx="651.58" cy="-340.1" rx="3.2" ry="3.2"/>
</g>
<!-- syst_perms -->
<g id="node4" class="node">
<title>syst_perms</title>
<g id="a_node4"><a xlink:href="../../tables/syst_perms.html" xlink:title="syst_perms" target="_top">
<polygon fill="#ffffff" stroke="transparent" points="361,-179 361,-325 555,-325 555,-179 361,-179"/>
<polygon fill="#f5f5f5" stroke="transparent" points="361,-303 361,-325 555,-325 555,-303 361,-303"/>
<polygon fill="none" stroke="black" points="361,-303 361,-325 555,-325 555,-303 361,-303"/>
<text text-anchor="start" x="366" y="-312.2" font-family="Helvetica,sans-Serif" font-weight="bold" font-size="11.00">syst_perms</text>
<text text-anchor="start" x="520" y="-311.2" font-family="Helvetica,sans-Serif" font-size="11.00">[table]</text>
<polygon fill="none" stroke="black" points="361,-281 361,-303 555,-303 555,-281 361,-281"/>
<image xlink:href="../../images/primaryKeys.png" width="11px" height="12px" preserveAspectRatio="xMinYMin meet" x="366" y="-298"/>
<text text-anchor="start" x="381" y="-289.2" font-family="Helvetica,sans-Serif" font-size="11.00">id</text>
<polygon fill="#ffffff" stroke="transparent" points="361,-259 361,-281 555,-281 555,-259 361,-259"/>
<polygon fill="none" stroke="black" points="361,-259 361,-281 555,-281 555,-259 361,-259"/>
<text text-anchor="start" x="381" y="-267.2" font-family="Helvetica,sans-Serif" font-size="11.00">internal_name</text>
<polygon fill="#ffffff" stroke="transparent" points="361,-237 361,-259 555,-259 555,-237 361,-237"/>
<polygon fill="none" stroke="black" points="361,-237 361,-259 555,-259 555,-237 361,-237"/>
<text text-anchor="start" x="381" y="-245.2" font-family="Helvetica,sans-Serif" font-size="11.00">display_name</text>
<polygon fill="none" stroke="black" points="361,-215 361,-237 555,-237 555,-215 361,-215"/>
<image xlink:href="../../images/foreignKeys.png" width="11px" height="12px" preserveAspectRatio="xMinYMin meet" x="366" y="-232"/>
<text text-anchor="start" x="381" y="-223.2" font-family="Helvetica,sans-Serif" font-size="11.00">perm_functional_type_id</text>
<polygon fill="none" stroke="black" points="361,-197 361,-215 555,-215 555,-197 361,-197"/>
<text text-anchor="start" x="364" y="-203.2" font-family="Helvetica,sans-Serif" font-size="11.00">...</text>
<polygon fill="#ffffff" stroke="transparent" points="361,-179 361,-197 451,-197 451,-179 361,-179"/>
<polygon fill="none" stroke="black" points="361,-179 361,-197 451,-197 451,-179 361,-179"/>
<text text-anchor="start" x="364" y="-185.2" font-family="Helvetica,sans-Serif" font-size="11.00">&lt; 1</text>
<polygon fill="#ffffff" stroke="transparent" points="451,-179 451,-197 498,-197 498,-179 451,-179"/>
<polygon fill="none" stroke="black" points="451,-179 451,-197 498,-197 498,-179 451,-179"/>
<text text-anchor="start" x="488" y="-185.2" font-family="Helvetica,sans-Serif" font-size="11.00"> &#160;</text>
<polygon fill="#ffffff" stroke="transparent" points="498,-179 498,-197 555,-197 555,-179 498,-179"/>
<polygon fill="none" stroke="black" points="498,-179 498,-197 555,-197 555,-179 498,-179"/>
<text text-anchor="start" x="536" y="-185.2" font-family="Helvetica,sans-Serif" font-size="11.00">1 &gt;</text>
</a>
</g>
</g>
<!-- syst_perm_role_grants&#45;&gt;syst_perms -->
<g id="edge2" class="edge">
<title>syst_perm_role_grants:w&#45;&gt;syst_perms:e</title>
<path fill="none" stroke="black" d="M647.32,-334.63C609.63,-327.21 601.63,-292 556,-292"/>
<polygon fill="black" stroke="black" points="654.03,-335.26 661.67,-339.58 658.02,-335.63 662,-336 662,-336 662,-336 658.02,-335.63 662.33,-332.42 654.03,-335.26 654.03,-335.26"/>
<ellipse fill="none" stroke="black" cx="650.85" cy="-334.96" rx="3.2" ry="3.2"/>
</g>
<!-- syst_perms&#45;&gt;syst_perm_functional_types -->
<g id="edge5" class="edge">
<title>syst_perms:w&#45;&gt;syst_perm_functional_types:e</title>
<path fill="none" stroke="black" d="M346.1,-230.52C325.71,-247.96 348.14,-310 311,-310"/>
<polygon fill="black" stroke="black" points="352.39,-228.47 361.11,-229.42 356.2,-227.24 360,-226 360,-226 360,-226 356.2,-227.24 358.89,-222.58 352.39,-228.47 352.39,-228.47"/>
<ellipse fill="none" stroke="black" cx="349.35" cy="-229.46" rx="3.2" ry="3.2"/>
</g>
</g>
</svg>
