<?xml version="1.0" encoding="UTF-8" standalone="no"?>
<!DOCTYPE svg PUBLIC "-//W3C//DTD SVG 1.1//EN"
 "http://www.w3.org/Graphics/SVG/1.1/DTD/svg11.dtd">
<!-- Generated by graphviz version 2.43.0 (0)
 -->
<!-- Title: twoDegreesRelationshipsDiagram Pages: 1 -->
<svg width="1165pt" height="595pt"
 viewBox="0.00 0.00 1165.00 595.00" xmlns="http://www.w3.org/2000/svg" xmlns:xlink="http://www.w3.org/1999/xlink">
<g id="graph0" class="graph" transform="scale(1 1) rotate(0) translate(4 591)">
<title>twoDegreesRelationshipsDiagram</title>
<polygon fill="#ffffff" stroke="transparent" points="-4,4 -4,-591 1161,-591 1161,4 -4,4"/>
<text text-anchor="middle" x="71.5" y="-7.2" font-family="Helvetica,sans-Serif" font-size="11.00">Generated by SchemaSpy</text>
<!-- syst_access_account_instance_assocs -->
<g id="node1" class="node">
<title>syst_access_account_instance_assocs</title>
<g id="a_node1"><a xlink:href="../../tables/syst_access_account_instance_assocs.html" xlink:title="syst_access_account_instance_assocs" target="_top">
<polygon fill="#ffffff" stroke="transparent" points="857,-173 857,-231 1149,-231 1149,-173 857,-173"/>
<polygon fill="#f5f5f5" stroke="transparent" points="857,-209 857,-231 1149,-231 1149,-209 857,-209"/>
<polygon fill="none" stroke="black" points="857,-209 857,-231 1149,-231 1149,-209 857,-209"/>
<text text-anchor="start" x="862" y="-218.2" font-family="Helvetica,sans-Serif" font-weight="bold" font-size="11.00">syst_access_account_instance_assocs</text>
<text text-anchor="start" x="1114" y="-217.2" font-family="Helvetica,sans-Serif" font-size="11.00">[table]</text>
<polygon fill="none" stroke="black" points="857,-191 857,-209 1149,-209 1149,-191 857,-191"/>
<text text-anchor="start" x="860" y="-197.2" font-family="Helvetica,sans-Serif" font-size="11.00">...</text>
<polygon fill="#ffffff" stroke="transparent" points="857,-173 857,-191 1001,-191 1001,-173 857,-173"/>
<polygon fill="none" stroke="black" points="857,-173 857,-191 1001,-191 1001,-173 857,-173"/>
<text text-anchor="start" x="860" y="-179.2" font-family="Helvetica,sans-Serif" font-size="11.00">&lt; 2</text>
<polygon fill="#ffffff" stroke="transparent" points="1001,-173 1001,-191 1075,-191 1075,-173 1001,-173"/>
<polygon fill="none" stroke="black" points="1001,-173 1001,-191 1075,-191 1075,-173 1001,-173"/>
<text text-anchor="start" x="1065" y="-179.2" font-family="Helvetica,sans-Serif" font-size="11.00"> &#160;</text>
<polygon fill="#ffffff" stroke="transparent" points="1075,-173 1075,-191 1149,-191 1149,-173 1075,-173"/>
<polygon fill="none" stroke="black" points="1075,-173 1075,-191 1149,-191 1149,-173 1075,-173"/>
<text text-anchor="start" x="1139" y="-179.2" font-family="Helvetica,sans-Serif" font-size="11.00"> &#160;</text>
</a>
</g>
</g>
<!-- syst_instances -->
<g id="node2" class="node">
<title>syst_instances</title>
<g id="a_node2"><a xlink:href="../../tables/syst_instances.html" xlink:title="syst_instances" target="_top">
<polygon fill="#ffffff" stroke="transparent" points="583,-37 583,-271 777,-271 777,-37 583,-37"/>
<polygon fill="#f5f5f5" stroke="transparent" points="583,-249 583,-271 777,-271 777,-249 583,-249"/>
<polygon fill="none" stroke="black" points="583,-249 583,-271 777,-271 777,-249 583,-249"/>
<text text-anchor="start" x="588" y="-258.2" font-family="Helvetica,sans-Serif" font-weight="bold" font-size="11.00">syst_instances</text>
<text text-anchor="start" x="742" y="-257.2" font-family="Helvetica,sans-Serif" font-size="11.00">[table]</text>
<polygon fill="none" stroke="black" points="583,-227 583,-249 777,-249 777,-227 583,-227"/>
<image xlink:href="../../images/primaryKeys.png" width="11px" height="12px" preserveAspectRatio="xMinYMin meet" x="588" y="-244"/>
<text text-anchor="start" x="603" y="-235.2" font-family="Helvetica,sans-Serif" font-size="11.00">id</text>
<polygon fill="#ffffff" stroke="transparent" points="583,-205 583,-227 777,-227 777,-205 583,-205"/>
<polygon fill="none" stroke="black" points="583,-205 583,-227 777,-227 777,-205 583,-205"/>
<text text-anchor="start" x="603" y="-213.2" font-family="Helvetica,sans-Serif" font-size="11.00">internal_name</text>
<polygon fill="#ffffff" stroke="transparent" points="583,-183 583,-205 777,-205 777,-183 583,-183"/>
<polygon fill="none" stroke="black" points="583,-183 583,-205 777,-205 777,-183 583,-183"/>
<text text-anchor="start" x="603" y="-191.2" font-family="Helvetica,sans-Serif" font-size="11.00">display_name</text>
<polygon fill="none" stroke="black" points="583,-161 583,-183 777,-183 777,-161 583,-161"/>
<image xlink:href="../../images/foreignKeys.png" width="11px" height="12px" preserveAspectRatio="xMinYMin meet" x="588" y="-178"/>
<text text-anchor="start" x="603" y="-169.2" font-family="Helvetica,sans-Serif" font-size="11.00">application_id</text>
<polygon fill="none" stroke="black" points="583,-139 583,-161 777,-161 777,-139 583,-139"/>
<image xlink:href="../../images/foreignKeys.png" width="11px" height="12px" preserveAspectRatio="xMinYMin meet" x="588" y="-156"/>
<text text-anchor="start" x="603" y="-147.2" font-family="Helvetica,sans-Serif" font-size="11.00">instance_type_id</text>
<polygon fill="none" stroke="black" points="583,-117 583,-139 777,-139 777,-117 583,-117"/>
<image xlink:href="../../images/foreignKeys.png" width="11px" height="12px" preserveAspectRatio="xMinYMin meet" x="588" y="-134"/>
<text text-anchor="start" x="603" y="-125.2" font-family="Helvetica,sans-Serif" font-size="11.00">instance_state_id</text>
<polygon fill="none" stroke="black" points="583,-95 583,-117 777,-117 777,-95 583,-95"/>
<image xlink:href="../../images/foreignKeys.png" width="11px" height="12px" preserveAspectRatio="xMinYMin meet" x="588" y="-112"/>
<text text-anchor="start" x="603" y="-103.2" font-family="Helvetica,sans-Serif" font-size="11.00">owner_id</text>
<polygon fill="none" stroke="black" points="583,-73 583,-95 777,-95 777,-73 583,-73"/>
<image xlink:href="../../images/foreignKeys.png" width="11px" height="12px" preserveAspectRatio="xMinYMin meet" x="588" y="-90"/>
<text text-anchor="start" x="603" y="-81.2" font-family="Helvetica,sans-Serif" font-size="11.00">owning_instance_id</text>
<polygon fill="none" stroke="black" points="583,-55 583,-73 777,-73 777,-55 583,-55"/>
<text text-anchor="start" x="586" y="-61.2" font-family="Helvetica,sans-Serif" font-size="11.00">...</text>
<polygon fill="#ffffff" stroke="transparent" points="583,-37 583,-55 673,-55 673,-37 583,-37"/>
<polygon fill="none" stroke="black" points="583,-37 583,-55 673,-55 673,-37 583,-37"/>
<text text-anchor="start" x="586" y="-43.2" font-family="Helvetica,sans-Serif" font-size="11.00">&lt; 5</text>
<polygon fill="#ffffff" stroke="transparent" points="673,-37 673,-55 720,-55 720,-37 673,-37"/>
<polygon fill="none" stroke="black" points="673,-37 673,-55 720,-55 720,-37 673,-37"/>
<text text-anchor="start" x="710" y="-43.2" font-family="Helvetica,sans-Serif" font-size="11.00"> &#160;</text>
<polygon fill="#ffffff" stroke="transparent" points="720,-37 720,-55 777,-55 777,-37 720,-37"/>
<polygon fill="none" stroke="black" points="720,-37 720,-55 777,-55 777,-37 720,-37"/>
<text text-anchor="start" x="758" y="-43.2" font-family="Helvetica,sans-Serif" font-size="11.00">4 &gt;</text>
</a>
</g>
</g>
<!-- syst_access_account_instance_assocs&#45;&gt;syst_instances -->
<g id="edge1" class="edge">
<title>syst_access_account_instance_assocs:w&#45;&gt;syst_instances:e</title>
<path fill="none" stroke="black" d="M841.41,-202.15C816.4,-210.19 810.99,-238 778,-238"/>
<polygon fill="black" stroke="black" points="848.09,-201.17 856.53,-203.56 852.04,-200.58 856,-200 856,-200 856,-200 852.04,-200.58 855.47,-196.44 848.09,-201.17 848.09,-201.17"/>
<ellipse fill="none" stroke="black" cx="844.92" cy="-201.63" rx="3.2" ry="3.2"/>
</g>
<!-- syst_applications -->
<g id="node4" class="node">
<title>syst_applications</title>
<g id="a_node4"><a xlink:href="../../tables/syst_applications.html" xlink:title="syst_applications" target="_top">
<polygon fill="#ffffff" stroke="transparent" points="212,-179 212,-465 503,-465 503,-179 212,-179"/>
<polygon fill="#f5f5f5" stroke="transparent" points="214.5,-441 214.5,-463 501.5,-463 501.5,-441 214.5,-441"/>
<polygon fill="none" stroke="black" points="214.5,-441 214.5,-463 501.5,-463 501.5,-441 214.5,-441"/>
<text text-anchor="start" x="219.5" y="-450.2" font-family="Helvetica,sans-Serif" font-weight="bold" font-size="11.00">syst_applications</text>
<text text-anchor="start" x="466.5" y="-449.2" font-family="Helvetica,sans-Serif" font-size="11.00">[table]</text>
<polygon fill="none" stroke="black" points="214.5,-419 214.5,-441 408.5,-441 408.5,-419 214.5,-419"/>
<image xlink:href="../../images/primaryKeys.png" width="11px" height="12px" preserveAspectRatio="xMinYMin meet" x="219.5" y="-436"/>
<text text-anchor="start" x="234.5" y="-427.2" font-family="Helvetica,sans-Serif" font-size="11.00">id</text>
<polygon fill="none" stroke="black" points="408.5,-419 408.5,-441 501.5,-441 501.5,-419 408.5,-419"/>
<text text-anchor="start" x="411.5" y="-427.2" font-family="Helvetica,sans-Serif" font-size="11.00">uuid[2147483647]</text>
<polygon fill="#ffffff" stroke="transparent" points="214.5,-397 214.5,-419 408.5,-419 408.5,-397 214.5,-397"/>
<polygon fill="none" stroke="black" points="214.5,-397 214.5,-419 408.5,-419 408.5,-397 214.5,-397"/>
<text text-anchor="start" x="234.5" y="-405.2" font-family="Helvetica,sans-Serif" font-size="11.00">internal_name</text>
<polygon fill="none" stroke="black" points="408.5,-397 408.5,-419 501.5,-419 501.5,-397 408.5,-397"/>
<text text-anchor="start" x="411.5" y="-405.2" font-family="Helvetica,sans-Serif" font-size="11.00">text[2147483647]</text>
<polygon fill="#ffffff" stroke="transparent" points="214.5,-375 214.5,-397 408.5,-397 408.5,-375 214.5,-375"/>
<polygon fill="none" stroke="black" points="214.5,-375 214.5,-397 408.5,-397 408.5,-375 214.5,-375"/>
<text text-anchor="start" x="234.5" y="-383.2" font-family="Helvetica,sans-Serif" font-size="11.00">display_name</text>
<polygon fill="none" stroke="black" points="408.5,-375 408.5,-397 501.5,-397 501.5,-375 408.5,-375"/>
<text text-anchor="start" x="411.5" y="-383.2" font-family="Helvetica,sans-Serif" font-size="11.00">text[2147483647]</text>
<polygon fill="none" stroke="black" points="214.5,-353 214.5,-375 408.5,-375 408.5,-353 214.5,-353"/>
<text text-anchor="start" x="234.5" y="-361.2" font-family="Helvetica,sans-Serif" font-size="11.00">syst_description</text>
<polygon fill="none" stroke="black" points="408.5,-353 408.5,-375 501.5,-375 501.5,-353 408.5,-353"/>
<text text-anchor="start" x="411.5" y="-361.2" font-family="Helvetica,sans-Serif" font-size="11.00">text[2147483647]</text>
<polygon fill="none" stroke="black" points="214.5,-331 214.5,-353 408.5,-353 408.5,-331 214.5,-331"/>
<text text-anchor="start" x="234.5" y="-339.2" font-family="Helvetica,sans-Serif" font-size="11.00">diag_timestamp_created</text>
<polygon fill="none" stroke="black" points="408.5,-331 408.5,-353 501.5,-353 501.5,-331 408.5,-331"/>
<text text-anchor="start" x="411.5" y="-339.2" font-family="Helvetica,sans-Serif" font-size="11.00">timestamptz[35,6]</text>
<polygon fill="none" stroke="black" points="214.5,-309 214.5,-331 408.5,-331 408.5,-309 214.5,-309"/>
<text text-anchor="start" x="234.5" y="-317.2" font-family="Helvetica,sans-Serif" font-size="11.00">diag_role_created</text>
<polygon fill="none" stroke="black" points="408.5,-309 408.5,-331 501.5,-331 501.5,-309 408.5,-309"/>
<text text-anchor="start" x="411.5" y="-317.2" font-family="Helvetica,sans-Serif" font-size="11.00">text[2147483647]</text>
<polygon fill="none" stroke="black" points="214.5,-287 214.5,-309 408.5,-309 408.5,-287 214.5,-287"/>
<text text-anchor="start" x="234.5" y="-295.2" font-family="Helvetica,sans-Serif" font-size="11.00">diag_timestamp_modified</text>
<polygon fill="none" stroke="black" points="408.5,-287 408.5,-309 501.5,-309 501.5,-287 408.5,-287"/>
<text text-anchor="start" x="411.5" y="-295.2" font-family="Helvetica,sans-Serif" font-size="11.00">timestamptz[35,6]</text>
<polygon fill="none" stroke="black" points="214.5,-265 214.5,-287 408.5,-287 408.5,-265 214.5,-265"/>
<text text-anchor="start" x="234.5" y="-273.2" font-family="Helvetica,sans-Serif" font-size="11.00">diag_wallclock_modified</text>
<polygon fill="none" stroke="black" points="408.5,-265 408.5,-287 501.5,-287 501.5,-265 408.5,-265"/>
<text text-anchor="start" x="411.5" y="-273.2" font-family="Helvetica,sans-Serif" font-size="11.00">timestamptz[35,6]</text>
<polygon fill="none" stroke="black" points="214.5,-243 214.5,-265 408.5,-265 408.5,-243 214.5,-243"/>
<text text-anchor="start" x="234.5" y="-251.2" font-family="Helvetica,sans-Serif" font-size="11.00">diag_role_modified</text>
<polygon fill="none" stroke="black" points="408.5,-243 408.5,-265 501.5,-265 501.5,-243 408.5,-243"/>
<text text-anchor="start" x="411.5" y="-251.2" font-family="Helvetica,sans-Serif" font-size="11.00">text[2147483647]</text>
<polygon fill="none" stroke="black" points="214.5,-221 214.5,-243 408.5,-243 408.5,-221 214.5,-221"/>
<text text-anchor="start" x="234.5" y="-229.2" font-family="Helvetica,sans-Serif" font-size="11.00">diag_row_version</text>
<polygon fill="none" stroke="black" points="408.5,-221 408.5,-243 501.5,-243 501.5,-221 408.5,-221"/>
<text text-anchor="start" x="411.5" y="-229.2" font-family="Helvetica,sans-Serif" font-size="11.00">int8[19]</text>
<polygon fill="none" stroke="black" points="214.5,-199 214.5,-221 408.5,-221 408.5,-199 214.5,-199"/>
<text text-anchor="start" x="234.5" y="-207.2" font-family="Helvetica,sans-Serif" font-size="11.00">diag_update_count</text>
<polygon fill="none" stroke="black" points="408.5,-199 408.5,-221 501.5,-221 501.5,-199 408.5,-199"/>
<text text-anchor="start" x="411.5" y="-207.2" font-family="Helvetica,sans-Serif" font-size="11.00">int8[19]</text>
<polygon fill="#ffffff" stroke="transparent" points="214.5,-181 214.5,-199 315.5,-199 315.5,-181 214.5,-181"/>
<polygon fill="none" stroke="black" points="214.5,-181 214.5,-199 315.5,-199 315.5,-181 214.5,-181"/>
<text text-anchor="start" x="217.5" y="-187.2" font-family="Helvetica,sans-Serif" font-size="11.00">&lt; 0</text>
<polygon fill="#ffffff" stroke="transparent" points="315.5,-181 315.5,-199 408.5,-199 408.5,-181 315.5,-181"/>
<polygon fill="none" stroke="black" points="315.5,-181 315.5,-199 408.5,-199 408.5,-181 315.5,-181"/>
<text text-anchor="start" x="398.5" y="-187.2" font-family="Helvetica,sans-Serif" font-size="11.00"> &#160;</text>
<polygon fill="#ffffff" stroke="transparent" points="408.5,-181 408.5,-199 501.5,-199 501.5,-181 408.5,-181"/>
<polygon fill="none" stroke="black" points="408.5,-181 408.5,-199 501.5,-199 501.5,-181 408.5,-181"/>
<text text-anchor="start" x="482.5" y="-187.2" font-family="Helvetica,sans-Serif" font-size="11.00">3 &gt;</text>
<polygon fill="none" stroke="black" stroke-width="2" points="213,-180 213,-464 502,-464 502,-180 213,-180"/>
</a>
</g>
</g>
<!-- syst_instances&#45;&gt;syst_applications -->
<g id="edge10" class="edge">
<title>syst_instances:w&#45;&gt;syst_applications:e</title>
<path fill="none" stroke="black" d="M568.63,-177.39C528.22,-214.44 557.34,-430 502.5,-430"/>
<polygon fill="black" stroke="black" points="574.58,-174.99 583.35,-175.34 578.29,-173.5 582,-172 582,-172 582,-172 578.29,-173.5 580.65,-168.66 574.58,-174.99 574.58,-174.99"/>
<ellipse fill="none" stroke="black" cx="571.61" cy="-176.19" rx="3.2" ry="3.2"/>
</g>
<!-- syst_enum_items -->
<g id="node8" class="node">
<title>syst_enum_items</title>
<g id="a_node8"><a xlink:href="../../tables/syst_enum_items.html" xlink:title="syst_enum_items" target="_top">
<polygon fill="#ffffff" stroke="transparent" points="8,-114 8,-172 163,-172 163,-114 8,-114"/>
<polygon fill="#f5f5f5" stroke="transparent" points="8.5,-150 8.5,-172 163.5,-172 163.5,-150 8.5,-150"/>
<polygon fill="none" stroke="black" points="8.5,-150 8.5,-172 163.5,-172 163.5,-150 8.5,-150"/>
<text text-anchor="start" x="13.5" y="-159.2" font-family="Helvetica,sans-Serif" font-weight="bold" font-size="11.00">syst_enum_items</text>
<text text-anchor="start" x="128.5" y="-158.2" font-family="Helvetica,sans-Serif" font-size="11.00">[table]</text>
<polygon fill="none" stroke="black" points="8.5,-132 8.5,-150 163.5,-150 163.5,-132 8.5,-132"/>
<text text-anchor="start" x="11.5" y="-138.2" font-family="Helvetica,sans-Serif" font-size="11.00">...</text>
<polygon fill="#ffffff" stroke="transparent" points="8.5,-114 8.5,-132 76.5,-132 76.5,-114 8.5,-114"/>
<polygon fill="none" stroke="black" points="8.5,-114 8.5,-132 76.5,-132 76.5,-114 8.5,-114"/>
<text text-anchor="start" x="11.5" y="-120.2" font-family="Helvetica,sans-Serif" font-size="11.00">&lt; 2</text>
<polygon fill="#ffffff" stroke="transparent" points="76.5,-114 76.5,-132 112.5,-132 112.5,-114 76.5,-114"/>
<polygon fill="none" stroke="black" points="76.5,-114 76.5,-132 112.5,-132 112.5,-114 76.5,-114"/>
<text text-anchor="start" x="102.5" y="-120.2" font-family="Helvetica,sans-Serif" font-size="11.00"> &#160;</text>
<polygon fill="#ffffff" stroke="transparent" points="112.5,-114 112.5,-132 163.5,-132 163.5,-114 112.5,-114"/>
<polygon fill="none" stroke="black" points="112.5,-114 112.5,-132 163.5,-132 163.5,-114 112.5,-114"/>
<text text-anchor="start" x="138.5" y="-120.2" font-family="Helvetica,sans-Serif" font-size="11.00">10 &gt;</text>
</a>
</g>
</g>
<!-- syst_instances&#45;&gt;syst_enum_items -->
<g id="edge11" class="edge">
<title>syst_instances:w&#45;&gt;syst_enum_items:e</title>
<path fill="none" stroke="black" d="M567.34,-128.03C393.77,-128.69 345.16,-141 164.5,-141"/>
<polygon fill="black" stroke="black" points="574,-128.02 582.01,-131.6 578,-128.01 582,-128 582,-128 582,-128 578,-128.01 581.99,-124.4 574,-128.02 574,-128.02"/>
<ellipse fill="none" stroke="black" cx="570.8" cy="-128.02" rx="3.2" ry="3.2"/>
</g>
<!-- syst_instances&#45;&gt;syst_enum_items -->
<g id="edge12" class="edge">
<title>syst_instances:w&#45;&gt;syst_enum_items:e</title>
<path fill="none" stroke="black" d="M567.55,-150C411.4,-150.09 366.93,-151.47 204,-144 186.41,-143.19 182.11,-141 164.5,-141"/>
<polygon fill="black" stroke="black" points="574,-150 582,-153.6 578,-150 582,-150 582,-150 582,-150 578,-150 582,-146.4 574,-150 574,-150"/>
<ellipse fill="none" stroke="black" cx="570.8" cy="-150" rx="3.2" ry="3.2"/>
</g>
<!-- syst_owners -->
<g id="node10" class="node">
<title>syst_owners</title>
<g id="a_node10"><a xlink:href="../../tables/syst_owners.html" xlink:title="syst_owners" target="_top">
<polygon fill="#ffffff" stroke="transparent" points="296.5,-46 296.5,-104 418.5,-104 418.5,-46 296.5,-46"/>
<polygon fill="#f5f5f5" stroke="transparent" points="296.5,-82 296.5,-104 418.5,-104 418.5,-82 296.5,-82"/>
<polygon fill="none" stroke="black" points="296.5,-82 296.5,-104 418.5,-104 418.5,-82 296.5,-82"/>
<text text-anchor="start" x="301.5" y="-91.2" font-family="Helvetica,sans-Serif" font-weight="bold" font-size="11.00">syst_owners</text>
<text text-anchor="start" x="383.5" y="-90.2" font-family="Helvetica,sans-Serif" font-size="11.00">[table]</text>
<polygon fill="none" stroke="black" points="296.5,-64 296.5,-82 418.5,-82 418.5,-64 296.5,-64"/>
<text text-anchor="start" x="299.5" y="-70.2" font-family="Helvetica,sans-Serif" font-size="11.00">...</text>
<polygon fill="#ffffff" stroke="transparent" points="296.5,-46 296.5,-64 350.5,-64 350.5,-46 296.5,-46"/>
<polygon fill="none" stroke="black" points="296.5,-46 296.5,-64 350.5,-64 350.5,-46 296.5,-46"/>
<text text-anchor="start" x="299.5" y="-52.2" font-family="Helvetica,sans-Serif" font-size="11.00">&lt; 1</text>
<polygon fill="#ffffff" stroke="transparent" points="350.5,-46 350.5,-64 379.5,-64 379.5,-46 350.5,-46"/>
<polygon fill="none" stroke="black" points="350.5,-46 350.5,-64 379.5,-64 379.5,-46 350.5,-46"/>
<text text-anchor="start" x="369.5" y="-52.2" font-family="Helvetica,sans-Serif" font-size="11.00"> &#160;</text>
<polygon fill="#ffffff" stroke="transparent" points="379.5,-46 379.5,-64 418.5,-64 418.5,-46 379.5,-46"/>
<polygon fill="none" stroke="black" points="379.5,-46 379.5,-64 418.5,-64 418.5,-46 379.5,-46"/>
<text text-anchor="start" x="399.5" y="-52.2" font-family="Helvetica,sans-Serif" font-size="11.00">4 &gt;</text>
</a>
</g>
</g>
<!-- syst_instances&#45;&gt;syst_owners -->
<g id="edge13" class="edge">
<title>syst_instances:w&#45;&gt;syst_owners:e</title>
<path fill="none" stroke="black" d="M567.28,-105.53C505.89,-101.52 488.01,-73 419.5,-73"/>
<polygon fill="black" stroke="black" points="574,-105.75 581.89,-109.6 578,-105.87 582,-106 582,-106 582,-106 578,-105.87 582.11,-102.4 574,-105.75 574,-105.75"/>
<ellipse fill="none" stroke="black" cx="570.81" cy="-105.65" rx="3.2" ry="3.2"/>
</g>
<!-- syst_application_contexts -->
<g id="node3" class="node">
<title>syst_application_contexts</title>
<g id="a_node3"><a xlink:href="../../tables/syst_application_contexts.html" xlink:title="syst_application_contexts" target="_top">
<polygon fill="#ffffff" stroke="transparent" points="573.5,-292 573.5,-438 786.5,-438 786.5,-292 573.5,-292"/>
<polygon fill="#f5f5f5" stroke="transparent" points="574,-416 574,-438 787,-438 787,-416 574,-416"/>
<polygon fill="none" stroke="black" points="574,-416 574,-438 787,-438 787,-416 574,-416"/>
<text text-anchor="start" x="579" y="-425.2" font-family="Helvetica,sans-Serif" font-weight="bold" font-size="11.00">syst_application_contexts</text>
<text text-anchor="start" x="752" y="-424.2" font-family="Helvetica,sans-Serif" font-size="11.00">[table]</text>
<polygon fill="none" stroke="black" points="574,-394 574,-416 787,-416 787,-394 574,-394"/>
<image xlink:href="../../images/primaryKeys.png" width="11px" height="12px" preserveAspectRatio="xMinYMin meet" x="579" y="-411"/>
<text text-anchor="start" x="604" y="-402.2" font-family="Helvetica,sans-Serif" font-size="11.00">id</text>
<polygon fill="#ffffff" stroke="transparent" points="574,-372 574,-394 787,-394 787,-372 574,-372"/>
<polygon fill="none" stroke="black" points="574,-372 574,-394 787,-394 787,-372 574,-372"/>
<text text-anchor="start" x="604" y="-380.2" font-family="Helvetica,sans-Serif" font-size="11.00">internal_name</text>
<polygon fill="#ffffff" stroke="transparent" points="574,-350 574,-372 787,-372 787,-350 574,-350"/>
<polygon fill="none" stroke="black" points="574,-350 574,-372 787,-372 787,-350 574,-350"/>
<text text-anchor="start" x="604" y="-358.2" font-family="Helvetica,sans-Serif" font-size="11.00">display_name</text>
<polygon fill="none" stroke="black" points="574,-328 574,-350 787,-350 787,-328 574,-328"/>
<image xlink:href="../../images/foreignKeys.png" width="11px" height="12px" preserveAspectRatio="xMinYMin meet" x="579" y="-345"/>
<text text-anchor="start" x="604" y="-336.2" font-family="Helvetica,sans-Serif" font-size="11.00">application_id</text>
<polygon fill="none" stroke="black" points="574,-310 574,-328 787,-328 787,-310 574,-310"/>
<text text-anchor="start" x="577" y="-316.2" font-family="Helvetica,sans-Serif" font-size="11.00">...</text>
<polygon fill="#ffffff" stroke="transparent" points="574,-292 574,-310 674,-310 674,-292 574,-292"/>
<polygon fill="none" stroke="black" points="574,-292 574,-310 674,-310 674,-292 574,-292"/>
<text text-anchor="start" x="577" y="-298.2" font-family="Helvetica,sans-Serif" font-size="11.00">&lt; 1</text>
<polygon fill="#ffffff" stroke="transparent" points="674,-292 674,-310 726,-310 726,-292 674,-292"/>
<polygon fill="none" stroke="black" points="674,-292 674,-310 726,-310 726,-292 674,-292"/>
<text text-anchor="start" x="716" y="-298.2" font-family="Helvetica,sans-Serif" font-size="11.00"> &#160;</text>
<polygon fill="#ffffff" stroke="transparent" points="726,-292 726,-310 787,-310 787,-292 726,-292"/>
<polygon fill="none" stroke="black" points="726,-292 726,-310 787,-310 787,-292 726,-292"/>
<text text-anchor="start" x="768" y="-298.2" font-family="Helvetica,sans-Serif" font-size="11.00">2 &gt;</text>
</a>
</g>
</g>
<!-- syst_application_contexts&#45;&gt;syst_applications -->
<g id="edge2" class="edge">
<title>syst_application_contexts:w&#45;&gt;syst_applications:e</title>
<path fill="none" stroke="black" d="M558.57,-342.24C527.98,-358.45 547.87,-430 502.5,-430"/>
<polygon fill="black" stroke="black" points="565.19,-340.75 573.79,-342.51 569.1,-339.88 573,-339 573,-339 573,-339 569.1,-339.88 572.21,-335.49 565.19,-340.75 565.19,-340.75"/>
<ellipse fill="none" stroke="black" cx="562.07" cy="-341.45" rx="3.2" ry="3.2"/>
</g>
<!-- syst_instance_contexts -->
<g id="node5" class="node">
<title>syst_instance_contexts</title>
<g id="a_node5"><a xlink:href="../../tables/syst_instance_contexts.html" xlink:title="syst_instance_contexts" target="_top">
<polygon fill="#ffffff" stroke="transparent" points="905.5,-335 905.5,-393 1100.5,-393 1100.5,-335 905.5,-335"/>
<polygon fill="#f5f5f5" stroke="transparent" points="906,-371 906,-393 1101,-393 1101,-371 906,-371"/>
<polygon fill="none" stroke="black" points="906,-371 906,-393 1101,-393 1101,-371 906,-371"/>
<text text-anchor="start" x="911" y="-380.2" font-family="Helvetica,sans-Serif" font-weight="bold" font-size="11.00">syst_instance_contexts</text>
<text text-anchor="start" x="1066" y="-379.2" font-family="Helvetica,sans-Serif" font-size="11.00">[table]</text>
<polygon fill="none" stroke="black" points="906,-353 906,-371 1101,-371 1101,-353 906,-353"/>
<text text-anchor="start" x="909" y="-359.2" font-family="Helvetica,sans-Serif" font-size="11.00">...</text>
<polygon fill="#ffffff" stroke="transparent" points="906,-335 906,-353 1001,-353 1001,-335 906,-335"/>
<polygon fill="none" stroke="black" points="906,-335 906,-353 1001,-353 1001,-335 906,-335"/>
<text text-anchor="start" x="909" y="-341.2" font-family="Helvetica,sans-Serif" font-size="11.00">&lt; 2</text>
<polygon fill="#ffffff" stroke="transparent" points="1001,-335 1001,-353 1051,-353 1051,-335 1001,-335"/>
<polygon fill="none" stroke="black" points="1001,-335 1001,-353 1051,-353 1051,-335 1001,-335"/>
<text text-anchor="start" x="1041" y="-341.2" font-family="Helvetica,sans-Serif" font-size="11.00"> &#160;</text>
<polygon fill="#ffffff" stroke="transparent" points="1051,-335 1051,-353 1101,-353 1101,-335 1051,-335"/>
<polygon fill="none" stroke="black" points="1051,-335 1051,-353 1101,-353 1101,-335 1051,-335"/>
<text text-anchor="start" x="1091" y="-341.2" font-family="Helvetica,sans-Serif" font-size="11.00"> &#160;</text>
</a>
</g>
</g>
<!-- syst_instance_contexts&#45;&gt;syst_instances -->
<g id="edge4" class="edge">
<title>syst_instance_contexts:w&#45;&gt;syst_instances:e</title>
<path fill="none" stroke="black" d="M890.57,-360.86C851.23,-354.11 847.12,-318.4 816,-282 799.21,-262.36 803.84,-238 778,-238"/>
<polygon fill="black" stroke="black" points="897.02,-361.37 904.72,-365.59 901.01,-361.69 905,-362 905,-362 905,-362 901.01,-361.69 905.28,-358.41 897.02,-361.37 897.02,-361.37"/>
<ellipse fill="none" stroke="black" cx="893.83" cy="-361.12" rx="3.2" ry="3.2"/>
</g>
<!-- syst_instance_contexts&#45;&gt;syst_application_contexts -->
<g id="edge3" class="edge">
<title>syst_instance_contexts:w&#45;&gt;syst_application_contexts:e</title>
<path fill="none" stroke="black" d="M890.63,-363.06C848,-369.68 838.21,-405 788,-405"/>
<polygon fill="black" stroke="black" points="897.02,-362.59 905.27,-365.59 901.01,-362.3 905,-362 905,-362 905,-362 901.01,-362.3 904.73,-358.41 897.02,-362.59 897.02,-362.59"/>
<ellipse fill="none" stroke="black" cx="893.83" cy="-362.83" rx="3.2" ry="3.2"/>
</g>
<!-- syst_instance_network_rules -->
<g id="node6" class="node">
<title>syst_instance_network_rules</title>
<g id="a_node6"><a xlink:href="../../tables/syst_instance_network_rules.html" xlink:title="syst_instance_network_rules" target="_top">
<polygon fill="#ffffff" stroke="transparent" points="887,-252 887,-310 1119,-310 1119,-252 887,-252"/>
<polygon fill="#f5f5f5" stroke="transparent" points="887,-288 887,-310 1119,-310 1119,-288 887,-288"/>
<polygon fill="none" stroke="black" points="887,-288 887,-310 1119,-310 1119,-288 887,-288"/>
<text text-anchor="start" x="892" y="-297.2" font-family="Helvetica,sans-Serif" font-weight="bold" font-size="11.00">syst_instance_network_rules</text>
<text text-anchor="start" x="1084" y="-296.2" font-family="Helvetica,sans-Serif" font-size="11.00">[table]</text>
<polygon fill="none" stroke="black" points="887,-270 887,-288 1119,-288 1119,-270 887,-270"/>
<text text-anchor="start" x="890" y="-276.2" font-family="Helvetica,sans-Serif" font-size="11.00">...</text>
<polygon fill="#ffffff" stroke="transparent" points="887,-252 887,-270 1001,-270 1001,-252 887,-252"/>
<polygon fill="none" stroke="black" points="887,-252 887,-270 1001,-270 1001,-252 887,-252"/>
<text text-anchor="start" x="890" y="-258.2" font-family="Helvetica,sans-Serif" font-size="11.00">&lt; 1</text>
<polygon fill="#ffffff" stroke="transparent" points="1001,-252 1001,-270 1060,-270 1060,-252 1001,-252"/>
<polygon fill="none" stroke="black" points="1001,-252 1001,-270 1060,-270 1060,-252 1001,-252"/>
<text text-anchor="start" x="1050" y="-258.2" font-family="Helvetica,sans-Serif" font-size="11.00"> &#160;</text>
<polygon fill="#ffffff" stroke="transparent" points="1060,-252 1060,-270 1119,-270 1119,-252 1060,-252"/>
<polygon fill="none" stroke="black" points="1060,-252 1060,-270 1119,-270 1119,-252 1060,-252"/>
<text text-anchor="start" x="1109" y="-258.2" font-family="Helvetica,sans-Serif" font-size="11.00"> &#160;</text>
</a>
</g>
</g>
<!-- syst_instance_network_rules&#45;&gt;syst_instances -->
<g id="edge5" class="edge">
<title>syst_instance_network_rules:w&#45;&gt;syst_instances:e</title>
<path fill="none" stroke="black" d="M871.43,-277.77C833.06,-270.95 824.03,-238 778,-238"/>
<polygon fill="black" stroke="black" points="878.03,-278.33 885.7,-282.59 882.01,-278.66 886,-279 886,-279 886,-279 882.01,-278.66 886.3,-275.41 878.03,-278.33 878.03,-278.33"/>
<ellipse fill="none" stroke="black" cx="874.84" cy="-278.06" rx="3.2" ry="3.2"/>
</g>
<!-- syst_instance_type_applications -->
<g id="node7" class="node">
<title>syst_instance_type_applications</title>
<g id="a_node7"><a xlink:href="../../tables/syst_instance_type_applications.html" xlink:title="syst_instance_type_applications" target="_top">
<polygon fill="#ffffff" stroke="transparent" points="552,-459 552,-583 808,-583 808,-459 552,-459"/>
<polygon fill="#f5f5f5" stroke="transparent" points="552,-561 552,-583 808,-583 808,-561 552,-561"/>
<polygon fill="none" stroke="black" points="552,-561 552,-583 808,-583 808,-561 552,-561"/>
<text text-anchor="start" x="557" y="-570.2" font-family="Helvetica,sans-Serif" font-weight="bold" font-size="11.00">syst_instance_type_applications</text>
<text text-anchor="start" x="773" y="-569.2" font-family="Helvetica,sans-Serif" font-size="11.00">[table]</text>
<polygon fill="none" stroke="black" points="552,-539 552,-561 808,-561 808,-539 552,-539"/>
<image xlink:href="../../images/primaryKeys.png" width="11px" height="12px" preserveAspectRatio="xMinYMin meet" x="557" y="-556"/>
<text text-anchor="start" x="582" y="-547.2" font-family="Helvetica,sans-Serif" font-size="11.00">id</text>
<polygon fill="#ffffff" stroke="transparent" points="552,-517 552,-539 808,-539 808,-517 552,-517"/>
<polygon fill="none" stroke="black" points="552,-517 552,-539 808,-539 808,-517 552,-517"/>
<image xlink:href="../../images/foreignKeys.png" width="11px" height="12px" preserveAspectRatio="xMinYMin meet" x="557" y="-534"/>
<text text-anchor="start" x="582" y="-525.2" font-family="Helvetica,sans-Serif" font-size="11.00">instance_type_id</text>
<polygon fill="#ffffff" stroke="transparent" points="552,-495 552,-517 808,-517 808,-495 552,-495"/>
<polygon fill="none" stroke="black" points="552,-495 552,-517 808,-517 808,-495 552,-495"/>
<image xlink:href="../../images/foreignKeys.png" width="11px" height="12px" preserveAspectRatio="xMinYMin meet" x="557" y="-512"/>
<text text-anchor="start" x="582" y="-503.2" font-family="Helvetica,sans-Serif" font-size="11.00">application_id</text>
<polygon fill="none" stroke="black" points="552,-477 552,-495 808,-495 808,-477 552,-477"/>
<text text-anchor="start" x="555" y="-483.2" font-family="Helvetica,sans-Serif" font-size="11.00">...</text>
<polygon fill="#ffffff" stroke="transparent" points="552,-459 552,-477 673,-477 673,-459 552,-459"/>
<polygon fill="none" stroke="black" points="552,-459 552,-477 673,-477 673,-459 552,-459"/>
<text text-anchor="start" x="555" y="-465.2" font-family="Helvetica,sans-Serif" font-size="11.00">&lt; 2</text>
<polygon fill="#ffffff" stroke="transparent" points="673,-459 673,-477 736,-477 736,-459 673,-459"/>
<polygon fill="none" stroke="black" points="673,-459 673,-477 736,-477 736,-459 673,-459"/>
<text text-anchor="start" x="726" y="-465.2" font-family="Helvetica,sans-Serif" font-size="11.00"> &#160;</text>
<polygon fill="#ffffff" stroke="transparent" points="736,-459 736,-477 808,-477 808,-459 736,-459"/>
<polygon fill="none" stroke="black" points="736,-459 736,-477 808,-477 808,-459 736,-459"/>
<text text-anchor="start" x="789" y="-465.2" font-family="Helvetica,sans-Serif" font-size="11.00">1 &gt;</text>
</a>
</g>
</g>
<!-- syst_instance_type_applications&#45;&gt;syst_applications -->
<g id="edge6" class="edge">
<title>syst_instance_type_applications:w&#45;&gt;syst_applications:e</title>
<path fill="none" stroke="black" d="M537.17,-501.25C518.91,-484.61 536.47,-430 502.5,-430"/>
<polygon fill="black" stroke="black" points="543.43,-503.4 549.83,-509.4 547.22,-504.7 551,-506 551,-506 551,-506 547.22,-504.7 552.17,-502.6 543.43,-503.4 543.43,-503.4"/>
<ellipse fill="none" stroke="black" cx="540.41" cy="-502.36" rx="3.2" ry="3.2"/>
</g>
<!-- syst_instance_type_applications&#45;&gt;syst_enum_items -->
<g id="edge7" class="edge">
<title>syst_instance_type_applications:w&#45;&gt;syst_enum_items:e</title>
<path fill="none" stroke="black" d="M536.59,-528.17C389.87,-531.58 309.13,-584.49 204,-476 151.83,-422.17 239.46,-141 164.5,-141"/>
<polygon fill="black" stroke="black" points="543,-528.09 551.04,-531.6 547,-528.05 551,-528 551,-528 551,-528 547,-528.05 550.96,-524.4 543,-528.09 543,-528.09"/>
<ellipse fill="none" stroke="black" cx="539.8" cy="-528.13" rx="3.2" ry="3.2"/>
</g>
<!-- syst_instance_type_contexts -->
<g id="node9" class="node">
<title>syst_instance_type_contexts</title>
<g id="a_node9"><a xlink:href="../../tables/syst_instance_type_contexts.html" xlink:title="syst_instance_type_contexts" target="_top">
<polygon fill="#ffffff" stroke="transparent" points="887.5,-416 887.5,-474 1118.5,-474 1118.5,-416 887.5,-416"/>
<polygon fill="#f5f5f5" stroke="transparent" points="888,-452 888,-474 1119,-474 1119,-452 888,-452"/>
<polygon fill="none" stroke="black" points="888,-452 888,-474 1119,-474 1119,-452 888,-452"/>
<text text-anchor="start" x="893" y="-461.2" font-family="Helvetica,sans-Serif" font-weight="bold" font-size="11.00">syst_instance_type_contexts</text>
<text text-anchor="start" x="1084" y="-460.2" font-family="Helvetica,sans-Serif" font-size="11.00">[table]</text>
<polygon fill="none" stroke="black" points="888,-434 888,-452 1119,-452 1119,-434 888,-434"/>
<text text-anchor="start" x="891" y="-440.2" font-family="Helvetica,sans-Serif" font-size="11.00">...</text>
<polygon fill="#ffffff" stroke="transparent" points="888,-416 888,-434 1001,-434 1001,-416 888,-416"/>
<polygon fill="none" stroke="black" points="888,-416 888,-434 1001,-434 1001,-416 888,-416"/>
<text text-anchor="start" x="891" y="-422.2" font-family="Helvetica,sans-Serif" font-size="11.00">&lt; 2</text>
<polygon fill="#ffffff" stroke="transparent" points="1001,-416 1001,-434 1060,-434 1060,-416 1001,-416"/>
<polygon fill="none" stroke="black" points="1001,-416 1001,-434 1060,-434 1060,-416 1001,-416"/>
<text text-anchor="start" x="1050" y="-422.2" font-family="Helvetica,sans-Serif" font-size="11.00"> &#160;</text>
<polygon fill="#ffffff" stroke="transparent" points="1060,-416 1060,-434 1119,-434 1119,-416 1060,-416"/>
<polygon fill="none" stroke="black" points="1060,-416 1060,-434 1119,-434 1119,-416 1060,-416"/>
<text text-anchor="start" x="1109" y="-422.2" font-family="Helvetica,sans-Serif" font-size="11.00"> &#160;</text>
</a>
</g>
</g>
<!-- syst_instance_type_contexts&#45;&gt;syst_application_contexts -->
<g id="edge8" class="edge">
<title>syst_instance_type_contexts:w&#45;&gt;syst_application_contexts:e</title>
<path fill="none" stroke="black" d="M872.49,-441.65C838.25,-434.88 829.79,-405 788,-405"/>
<polygon fill="black" stroke="black" points="879.03,-442.26 886.67,-446.58 883.02,-442.63 887,-443 887,-443 887,-443 883.02,-442.63 887.33,-439.42 879.03,-442.26 879.03,-442.26"/>
<ellipse fill="none" stroke="black" cx="875.85" cy="-441.96" rx="3.2" ry="3.2"/>
</g>
<!-- syst_instance_type_contexts&#45;&gt;syst_instance_type_applications -->
<g id="edge9" class="edge">
<title>syst_instance_type_contexts:w&#45;&gt;syst_instance_type_applications:e</title>
<path fill="none" stroke="black" d="M872.39,-445.86C834.96,-462.88 862.1,-550 809,-550"/>
<polygon fill="black" stroke="black" points="879.15,-444.54 887.69,-446.53 883.07,-443.77 887,-443 887,-443 887,-443 883.07,-443.77 886.31,-439.47 879.15,-444.54 879.15,-444.54"/>
<ellipse fill="none" stroke="black" cx="876.01" cy="-445.15" rx="3.2" ry="3.2"/>
</g>
<!-- syst_owners&#45;&gt;syst_enum_items -->
<g id="edge14" class="edge">
<title>syst_owners:w&#45;&gt;syst_enum_items:e</title>
<path fill="none" stroke="black" d="M281.06,-73.93C248.26,-78.5 239.26,-99.09 204,-118 186.1,-127.6 184.81,-141 164.5,-141"/>
<polygon fill="black" stroke="black" points="287.52,-73.51 295.73,-76.59 291.51,-73.26 295.5,-73 295.5,-73 295.5,-73 291.51,-73.26 295.27,-69.41 287.52,-73.51 287.52,-73.51"/>
<ellipse fill="none" stroke="black" cx="284.32" cy="-73.72" rx="3.2" ry="3.2"/>
</g>
</g>
</svg>
