<?xml version="1.0" encoding="UTF-8" standalone="no"?>
<!DOCTYPE svg PUBLIC "-//W3C//DTD SVG 1.1//EN"
 "http://www.w3.org/Graphics/SVG/1.1/DTD/svg11.dtd">
<!-- Generated by graphviz version 2.43.0 (0)
 -->
<!-- Title: twoDegreesRelationshipsDiagram Pages: 1 -->
<svg width="809pt" height="514pt"
 viewBox="0.00 0.00 809.17 514.00" xmlns="http://www.w3.org/2000/svg" xmlns:xlink="http://www.w3.org/1999/xlink">
<g id="graph0" class="graph" transform="scale(1 1) rotate(0) translate(4 510)">
<title>twoDegreesRelationshipsDiagram</title>
<polygon fill="#ffffff" stroke="transparent" points="-4,4 -4,-510 805.17,-510 805.17,4 -4,4"/>
<text text-anchor="middle" x="71.5" y="-7.2" font-family="Helvetica,sans-Serif" font-size="11.00">Generated by SchemaSpy</text>
<!-- syst_actions -->
<g id="node1" class="node">
<title>syst_actions</title>
<g id="a_node1"><a xlink:href="../../tables/syst_actions.html" xlink:title="syst_actions" target="_top">
<polygon fill="#ffffff" stroke="transparent" points="225,-37 225,-227 419,-227 419,-37 225,-37"/>
<polygon fill="#f5f5f5" stroke="transparent" points="225,-205 225,-227 419,-227 419,-205 225,-205"/>
<polygon fill="none" stroke="black" points="225,-205 225,-227 419,-227 419,-205 225,-205"/>
<text text-anchor="start" x="230" y="-214.2" font-family="Helvetica,sans-Serif" font-weight="bold" font-size="11.00">syst_actions</text>
<text text-anchor="start" x="384" y="-213.2" font-family="Helvetica,sans-Serif" font-size="11.00">[table]</text>
<polygon fill="none" stroke="black" points="225,-183 225,-205 419,-205 419,-183 225,-183"/>
<image xlink:href="../../images/primaryKeys.png" width="11px" height="12px" preserveAspectRatio="xMinYMin meet" x="230" y="-200"/>
<text text-anchor="start" x="245" y="-191.2" font-family="Helvetica,sans-Serif" font-size="11.00">id</text>
<polygon fill="#ffffff" stroke="transparent" points="225,-161 225,-183 419,-183 419,-161 225,-161"/>
<polygon fill="none" stroke="black" points="225,-161 225,-183 419,-183 419,-161 225,-161"/>
<text text-anchor="start" x="245" y="-169.2" font-family="Helvetica,sans-Serif" font-size="11.00">internal_name</text>
<polygon fill="#ffffff" stroke="transparent" points="225,-139 225,-161 419,-161 419,-139 225,-139"/>
<polygon fill="none" stroke="black" points="225,-139 225,-161 419,-161 419,-139 225,-139"/>
<text text-anchor="start" x="245" y="-147.2" font-family="Helvetica,sans-Serif" font-size="11.00">display_name</text>
<polygon fill="#ffffff" stroke="transparent" points="225,-117 225,-139 419,-139 419,-117 225,-117"/>
<polygon fill="none" stroke="black" points="225,-117 225,-139 419,-139 419,-117 225,-117"/>
<image xlink:href="../../images/foreignKeys.png" width="11px" height="12px" preserveAspectRatio="xMinYMin meet" x="230" y="-134"/>
<text text-anchor="start" x="245" y="-125.2" font-family="Helvetica,sans-Serif" font-size="11.00">action_group_id</text>
<polygon fill="#ffffff" stroke="transparent" points="225,-95 225,-117 419,-117 419,-95 225,-95"/>
<polygon fill="none" stroke="black" points="225,-95 225,-117 419,-117 419,-95 225,-95"/>
<text text-anchor="start" x="245" y="-103.2" font-family="Helvetica,sans-Serif" font-size="11.00">command</text>
<polygon fill="#ffffff" stroke="transparent" points="225,-73 225,-95 419,-95 419,-73 225,-73"/>
<polygon fill="none" stroke="black" points="225,-73 225,-95 419,-95 419,-73 225,-73"/>
<text text-anchor="start" x="245" y="-81.2" font-family="Helvetica,sans-Serif" font-size="11.00">command_search</text>
<polygon fill="none" stroke="black" points="225,-55 225,-73 419,-73 419,-55 225,-55"/>
<text text-anchor="start" x="228" y="-61.2" font-family="Helvetica,sans-Serif" font-size="11.00">...</text>
<polygon fill="#ffffff" stroke="transparent" points="225,-37 225,-55 315,-55 315,-37 225,-37"/>
<polygon fill="none" stroke="black" points="225,-37 225,-55 315,-55 315,-37 225,-37"/>
<text text-anchor="start" x="228" y="-43.2" font-family="Helvetica,sans-Serif" font-size="11.00">&lt; 1</text>
<polygon fill="#ffffff" stroke="transparent" points="315,-37 315,-55 362,-55 362,-37 315,-37"/>
<polygon fill="none" stroke="black" points="315,-37 315,-55 362,-55 362,-37 315,-37"/>
<text text-anchor="start" x="352" y="-43.2" font-family="Helvetica,sans-Serif" font-size="11.00"> &#160;</text>
<polygon fill="#ffffff" stroke="transparent" points="362,-37 362,-55 419,-55 419,-37 362,-37"/>
<polygon fill="none" stroke="black" points="362,-37 362,-55 419,-55 419,-37 362,-37"/>
<text text-anchor="start" x="400" y="-43.2" font-family="Helvetica,sans-Serif" font-size="11.00">1 &gt;</text>
</a>
</g>
</g>
<!-- syst_action_groups -->
<g id="node2" class="node">
<title>syst_action_groups</title>
<g id="a_node2"><a xlink:href="../../tables/syst_action_groups.html" xlink:title="syst_action_groups" target="_top">
<polygon fill="#ffffff" stroke="transparent" points="8,-101 8,-159 176,-159 176,-101 8,-101"/>
<polygon fill="#f5f5f5" stroke="transparent" points="8,-137 8,-159 176,-159 176,-137 8,-137"/>
<polygon fill="none" stroke="black" points="8,-137 8,-159 176,-159 176,-137 8,-137"/>
<text text-anchor="start" x="13" y="-146.2" font-family="Helvetica,sans-Serif" font-weight="bold" font-size="11.00">syst_action_groups</text>
<text text-anchor="start" x="141" y="-145.2" font-family="Helvetica,sans-Serif" font-size="11.00">[table]</text>
<polygon fill="none" stroke="black" points="8,-119 8,-137 176,-137 176,-119 8,-119"/>
<text text-anchor="start" x="11" y="-125.2" font-family="Helvetica,sans-Serif" font-size="11.00">...</text>
<polygon fill="#ffffff" stroke="transparent" points="8,-101 8,-119 81,-119 81,-101 8,-101"/>
<polygon fill="none" stroke="black" points="8,-101 8,-119 81,-119 81,-101 8,-101"/>
<text text-anchor="start" x="11" y="-107.2" font-family="Helvetica,sans-Serif" font-size="11.00"> &#160;</text>
<polygon fill="#ffffff" stroke="transparent" points="81,-101 81,-119 124,-119 124,-101 81,-101"/>
<polygon fill="none" stroke="black" points="81,-101 81,-119 124,-119 124,-101 81,-101"/>
<text text-anchor="start" x="114" y="-107.2" font-family="Helvetica,sans-Serif" font-size="11.00"> &#160;</text>
<polygon fill="#ffffff" stroke="transparent" points="124,-101 124,-119 176,-119 176,-101 124,-101"/>
<polygon fill="none" stroke="black" points="124,-101 124,-119 176,-119 176,-101 124,-101"/>
<text text-anchor="start" x="157" y="-107.2" font-family="Helvetica,sans-Serif" font-size="11.00">1 &gt;</text>
</a>
</g>
</g>
<!-- syst_actions&#45;&gt;syst_action_groups -->
<g id="edge1" class="edge">
<title>syst_actions:w&#45;&gt;syst_action_groups:e</title>
<path fill="none" stroke="black" d="M209.4,-128C198.93,-128 192.01,-128 177,-128"/>
<polygon fill="black" stroke="black" points="216,-128 224,-131.6 220,-128 224,-128 224,-128 224,-128 220,-128 224,-124.4 216,-128 216,-128"/>
<ellipse fill="none" stroke="black" cx="212.8" cy="-128" rx="3.2" ry="3.2"/>
</g>
<!-- syst_menu_items -->
<g id="node3" class="node">
<title>syst_menu_items</title>
<g id="a_node3"><a xlink:href="../../tables/syst_menu_items.html" xlink:title="syst_menu_items" target="_top">
<polygon fill="#ffffff" stroke="transparent" points="468,-44 468,-484 759,-484 759,-44 468,-44"/>
<polygon fill="#f5f5f5" stroke="transparent" points="470.5,-460 470.5,-482 757.5,-482 757.5,-460 470.5,-460"/>
<polygon fill="none" stroke="black" points="470.5,-460 470.5,-482 757.5,-482 757.5,-460 470.5,-460"/>
<text text-anchor="start" x="475.5" y="-469.2" font-family="Helvetica,sans-Serif" font-weight="bold" font-size="11.00">syst_menu_items</text>
<text text-anchor="start" x="722.5" y="-468.2" font-family="Helvetica,sans-Serif" font-size="11.00">[table]</text>
<polygon fill="none" stroke="black" points="470.5,-438 470.5,-460 664.5,-460 664.5,-438 470.5,-438"/>
<image xlink:href="../../images/primaryKeys.png" width="11px" height="12px" preserveAspectRatio="xMinYMin meet" x="475.5" y="-455"/>
<text text-anchor="start" x="490.5" y="-446.2" font-family="Helvetica,sans-Serif" font-size="11.00">id</text>
<polygon fill="none" stroke="black" points="664.5,-438 664.5,-460 757.5,-460 757.5,-438 664.5,-438"/>
<text text-anchor="start" x="667.5" y="-446.2" font-family="Helvetica,sans-Serif" font-size="11.00">uuid[2147483647]</text>
<polygon fill="#ffffff" stroke="transparent" points="470.5,-416 470.5,-438 664.5,-438 664.5,-416 470.5,-416"/>
<polygon fill="none" stroke="black" points="470.5,-416 470.5,-438 664.5,-438 664.5,-416 470.5,-416"/>
<text text-anchor="start" x="490.5" y="-424.2" font-family="Helvetica,sans-Serif" font-size="11.00">internal_name</text>
<polygon fill="none" stroke="black" points="664.5,-416 664.5,-438 757.5,-438 757.5,-416 664.5,-416"/>
<text text-anchor="start" x="667.5" y="-424.2" font-family="Helvetica,sans-Serif" font-size="11.00">text[2147483647]</text>
<polygon fill="#ffffff" stroke="transparent" points="470.5,-394 470.5,-416 664.5,-416 664.5,-394 470.5,-394"/>
<polygon fill="none" stroke="black" points="470.5,-394 470.5,-416 664.5,-416 664.5,-394 470.5,-394"/>
<text text-anchor="start" x="490.5" y="-402.2" font-family="Helvetica,sans-Serif" font-size="11.00">display_name</text>
<polygon fill="none" stroke="black" points="664.5,-394 664.5,-416 757.5,-416 757.5,-394 664.5,-394"/>
<text text-anchor="start" x="667.5" y="-402.2" font-family="Helvetica,sans-Serif" font-size="11.00">text[2147483647]</text>
<polygon fill="none" stroke="black" points="470.5,-372 470.5,-394 664.5,-394 664.5,-372 470.5,-372"/>
<text text-anchor="start" x="490.5" y="-380.2" font-family="Helvetica,sans-Serif" font-size="11.00">external_name</text>
<polygon fill="none" stroke="black" points="664.5,-372 664.5,-394 757.5,-394 757.5,-372 664.5,-372"/>
<text text-anchor="start" x="667.5" y="-380.2" font-family="Helvetica,sans-Serif" font-size="11.00">text[2147483647]</text>
<polygon fill="#ffffff" stroke="transparent" points="470.5,-350 470.5,-372 664.5,-372 664.5,-350 470.5,-350"/>
<polygon fill="none" stroke="black" points="470.5,-350 470.5,-372 664.5,-372 664.5,-350 470.5,-350"/>
<image xlink:href="../../images/foreignKeys.png" width="11px" height="12px" preserveAspectRatio="xMinYMin meet" x="475.5" y="-367"/>
<text text-anchor="start" x="490.5" y="-358.2" font-family="Helvetica,sans-Serif" font-size="11.00">menu_id</text>
<polygon fill="none" stroke="black" points="664.5,-350 664.5,-372 757.5,-372 757.5,-350 664.5,-350"/>
<text text-anchor="start" x="667.5" y="-358.2" font-family="Helvetica,sans-Serif" font-size="11.00">uuid[2147483647]</text>
<polygon fill="#ffffff" stroke="transparent" points="470.5,-328 470.5,-350 664.5,-350 664.5,-328 470.5,-328"/>
<polygon fill="none" stroke="black" points="470.5,-328 470.5,-350 664.5,-350 664.5,-328 470.5,-328"/>
<image xlink:href="../../images/foreignKeys.png" width="11px" height="12px" preserveAspectRatio="xMinYMin meet" x="475.5" y="-345"/>
<text text-anchor="start" x="490.5" y="-336.2" font-family="Helvetica,sans-Serif" font-size="11.00">parent_menu_item_id</text>
<polygon fill="none" stroke="black" points="664.5,-328 664.5,-350 757.5,-350 757.5,-328 664.5,-328"/>
<text text-anchor="start" x="667.5" y="-336.2" font-family="Helvetica,sans-Serif" font-size="11.00">uuid[2147483647]</text>
<polygon fill="#ffffff" stroke="transparent" points="470.5,-306 470.5,-328 664.5,-328 664.5,-306 470.5,-306"/>
<polygon fill="none" stroke="black" points="470.5,-306 470.5,-328 664.5,-328 664.5,-306 470.5,-306"/>
<text text-anchor="start" x="490.5" y="-314.2" font-family="Helvetica,sans-Serif" font-size="11.00">sort_order</text>
<polygon fill="none" stroke="black" points="664.5,-306 664.5,-328 757.5,-328 757.5,-306 664.5,-306"/>
<text text-anchor="start" x="667.5" y="-314.2" font-family="Helvetica,sans-Serif" font-size="11.00">int2[5]</text>
<polygon fill="none" stroke="black" points="470.5,-284 470.5,-306 664.5,-306 664.5,-284 470.5,-284"/>
<image xlink:href="../../images/foreignKeys.png" width="11px" height="12px" preserveAspectRatio="xMinYMin meet" x="475.5" y="-301"/>
<text text-anchor="start" x="490.5" y="-292.2" font-family="Helvetica,sans-Serif" font-size="11.00">submenu_menu_id</text>
<polygon fill="none" stroke="black" points="664.5,-284 664.5,-306 757.5,-306 757.5,-284 664.5,-284"/>
<text text-anchor="start" x="667.5" y="-292.2" font-family="Helvetica,sans-Serif" font-size="11.00">uuid[2147483647]</text>
<polygon fill="none" stroke="black" points="470.5,-262 470.5,-284 664.5,-284 664.5,-262 470.5,-262"/>
<image xlink:href="../../images/foreignKeys.png" width="11px" height="12px" preserveAspectRatio="xMinYMin meet" x="475.5" y="-279"/>
<text text-anchor="start" x="490.5" y="-270.2" font-family="Helvetica,sans-Serif" font-size="11.00">action_id</text>
<polygon fill="none" stroke="black" points="664.5,-262 664.5,-284 757.5,-284 757.5,-262 664.5,-262"/>
<text text-anchor="start" x="667.5" y="-270.2" font-family="Helvetica,sans-Serif" font-size="11.00">uuid[2147483647]</text>
<polygon fill="none" stroke="black" points="470.5,-240 470.5,-262 664.5,-262 664.5,-240 470.5,-240"/>
<text text-anchor="start" x="490.5" y="-248.2" font-family="Helvetica,sans-Serif" font-size="11.00">syst_description</text>
<polygon fill="none" stroke="black" points="664.5,-240 664.5,-262 757.5,-262 757.5,-240 664.5,-240"/>
<text text-anchor="start" x="667.5" y="-248.2" font-family="Helvetica,sans-Serif" font-size="11.00">text[2147483647]</text>
<polygon fill="none" stroke="black" points="470.5,-218 470.5,-240 664.5,-240 664.5,-218 470.5,-218"/>
<text text-anchor="start" x="490.5" y="-226.2" font-family="Helvetica,sans-Serif" font-size="11.00">user_description</text>
<polygon fill="none" stroke="black" points="664.5,-218 664.5,-240 757.5,-240 757.5,-218 664.5,-218"/>
<text text-anchor="start" x="667.5" y="-226.2" font-family="Helvetica,sans-Serif" font-size="11.00">text[2147483647]</text>
<polygon fill="none" stroke="black" points="470.5,-196 470.5,-218 664.5,-218 664.5,-196 470.5,-196"/>
<text text-anchor="start" x="490.5" y="-204.2" font-family="Helvetica,sans-Serif" font-size="11.00">diag_timestamp_created</text>
<polygon fill="none" stroke="black" points="664.5,-196 664.5,-218 757.5,-218 757.5,-196 664.5,-196"/>
<text text-anchor="start" x="667.5" y="-204.2" font-family="Helvetica,sans-Serif" font-size="11.00">timestamptz[35,6]</text>
<polygon fill="none" stroke="black" points="470.5,-174 470.5,-196 664.5,-196 664.5,-174 470.5,-174"/>
<text text-anchor="start" x="490.5" y="-182.2" font-family="Helvetica,sans-Serif" font-size="11.00">diag_role_created</text>
<polygon fill="none" stroke="black" points="664.5,-174 664.5,-196 757.5,-196 757.5,-174 664.5,-174"/>
<text text-anchor="start" x="667.5" y="-182.2" font-family="Helvetica,sans-Serif" font-size="11.00">text[2147483647]</text>
<polygon fill="none" stroke="black" points="470.5,-152 470.5,-174 664.5,-174 664.5,-152 470.5,-152"/>
<text text-anchor="start" x="490.5" y="-160.2" font-family="Helvetica,sans-Serif" font-size="11.00">diag_timestamp_modified</text>
<polygon fill="none" stroke="black" points="664.5,-152 664.5,-174 757.5,-174 757.5,-152 664.5,-152"/>
<text text-anchor="start" x="667.5" y="-160.2" font-family="Helvetica,sans-Serif" font-size="11.00">timestamptz[35,6]</text>
<polygon fill="none" stroke="black" points="470.5,-130 470.5,-152 664.5,-152 664.5,-130 470.5,-130"/>
<text text-anchor="start" x="490.5" y="-138.2" font-family="Helvetica,sans-Serif" font-size="11.00">diag_wallclock_modified</text>
<polygon fill="none" stroke="black" points="664.5,-130 664.5,-152 757.5,-152 757.5,-130 664.5,-130"/>
<text text-anchor="start" x="667.5" y="-138.2" font-family="Helvetica,sans-Serif" font-size="11.00">timestamptz[35,6]</text>
<polygon fill="none" stroke="black" points="470.5,-108 470.5,-130 664.5,-130 664.5,-108 470.5,-108"/>
<text text-anchor="start" x="490.5" y="-116.2" font-family="Helvetica,sans-Serif" font-size="11.00">diag_role_modified</text>
<polygon fill="none" stroke="black" points="664.5,-108 664.5,-130 757.5,-130 757.5,-108 664.5,-108"/>
<text text-anchor="start" x="667.5" y="-116.2" font-family="Helvetica,sans-Serif" font-size="11.00">text[2147483647]</text>
<polygon fill="none" stroke="black" points="470.5,-86 470.5,-108 664.5,-108 664.5,-86 470.5,-86"/>
<text text-anchor="start" x="490.5" y="-94.2" font-family="Helvetica,sans-Serif" font-size="11.00">diag_row_version</text>
<polygon fill="none" stroke="black" points="664.5,-86 664.5,-108 757.5,-108 757.5,-86 664.5,-86"/>
<text text-anchor="start" x="667.5" y="-94.2" font-family="Helvetica,sans-Serif" font-size="11.00">int8[19]</text>
<polygon fill="none" stroke="black" points="470.5,-64 470.5,-86 664.5,-86 664.5,-64 470.5,-64"/>
<text text-anchor="start" x="490.5" y="-72.2" font-family="Helvetica,sans-Serif" font-size="11.00">diag_update_count</text>
<polygon fill="none" stroke="black" points="664.5,-64 664.5,-86 757.5,-86 757.5,-64 664.5,-64"/>
<text text-anchor="start" x="667.5" y="-72.2" font-family="Helvetica,sans-Serif" font-size="11.00">int8[19]</text>
<polygon fill="#ffffff" stroke="transparent" points="470.5,-46 470.5,-64 571.5,-64 571.5,-46 470.5,-46"/>
<polygon fill="none" stroke="black" points="470.5,-46 470.5,-64 571.5,-64 571.5,-46 470.5,-46"/>
<text text-anchor="start" x="473.5" y="-52.2" font-family="Helvetica,sans-Serif" font-size="11.00">&lt; 4</text>
<polygon fill="#ffffff" stroke="transparent" points="571.5,-46 571.5,-64 664.5,-64 664.5,-46 571.5,-46"/>
<polygon fill="none" stroke="black" points="571.5,-46 571.5,-64 664.5,-64 664.5,-46 571.5,-46"/>
<text text-anchor="start" x="654.5" y="-52.2" font-family="Helvetica,sans-Serif" font-size="11.00"> &#160;</text>
<polygon fill="#ffffff" stroke="transparent" points="664.5,-46 664.5,-64 757.5,-64 757.5,-46 664.5,-46"/>
<polygon fill="none" stroke="black" points="664.5,-46 664.5,-64 757.5,-64 757.5,-46 664.5,-46"/>
<text text-anchor="start" x="738.5" y="-52.2" font-family="Helvetica,sans-Serif" font-size="11.00">1 &gt;</text>
<polygon fill="none" stroke="black" stroke-width="2" points="469,-45 469,-483 758,-483 758,-45 469,-45"/>
</a>
</g>
</g>
<!-- syst_menu_items&#45;&gt;syst_actions -->
<g id="edge2" class="edge">
<title>syst_menu_items:w&#45;&gt;syst_actions:e</title>
<path fill="none" stroke="black" d="M455.77,-268.53C436.15,-251.81 455.45,-194 420,-194"/>
<polygon fill="black" stroke="black" points="461.89,-270.52 468.38,-276.42 465.7,-271.76 469.5,-273 469.5,-273 469.5,-273 465.7,-271.76 470.62,-269.58 461.89,-270.52 461.89,-270.52"/>
<ellipse fill="none" stroke="black" cx="458.85" cy="-269.53" rx="3.2" ry="3.2"/>
</g>
<!-- syst_menu_items&#45;&gt;syst_menu_items -->
<g id="edge4" class="edge">
<title>syst_menu_items:w&#45;&gt;syst_menu_items:e</title>
<path fill="none" stroke="black" d="M460.8,-350.13C398.47,-425.6 408.12,-501 614,-501 830,-501 830,-492.33 757.5,-449"/>
<polygon fill="black" stroke="black" points="465.24,-345.03 473.21,-341.37 467.87,-342.01 470.5,-339 470.5,-339 470.5,-339 467.87,-342.01 467.79,-336.63 465.24,-345.03 465.24,-345.03"/>
<ellipse fill="none" stroke="black" cx="463.14" cy="-347.44" rx="3.2" ry="3.2"/>
</g>
<!-- syst_menus -->
<g id="node4" class="node">
<title>syst_menus</title>
<g id="a_node4"><a xlink:href="../../tables/syst_menus.html" xlink:title="syst_menus" target="_top">
<polygon fill="#ffffff" stroke="transparent" points="225,-248 225,-394 419,-394 419,-248 225,-248"/>
<polygon fill="#f5f5f5" stroke="transparent" points="225,-372 225,-394 419,-394 419,-372 225,-372"/>
<polygon fill="none" stroke="black" points="225,-372 225,-394 419,-394 419,-372 225,-372"/>
<text text-anchor="start" x="230" y="-381.2" font-family="Helvetica,sans-Serif" font-weight="bold" font-size="11.00">syst_menus</text>
<text text-anchor="start" x="384" y="-380.2" font-family="Helvetica,sans-Serif" font-size="11.00">[table]</text>
<polygon fill="none" stroke="black" points="225,-350 225,-372 419,-372 419,-350 225,-350"/>
<image xlink:href="../../images/primaryKeys.png" width="11px" height="12px" preserveAspectRatio="xMinYMin meet" x="230" y="-367"/>
<text text-anchor="start" x="245" y="-358.2" font-family="Helvetica,sans-Serif" font-size="11.00">id</text>
<polygon fill="#ffffff" stroke="transparent" points="225,-328 225,-350 419,-350 419,-328 225,-328"/>
<polygon fill="none" stroke="black" points="225,-328 225,-350 419,-350 419,-328 225,-328"/>
<text text-anchor="start" x="245" y="-336.2" font-family="Helvetica,sans-Serif" font-size="11.00">internal_name</text>
<polygon fill="#ffffff" stroke="transparent" points="225,-306 225,-328 419,-328 419,-306 225,-306"/>
<polygon fill="none" stroke="black" points="225,-306 225,-328 419,-328 419,-306 225,-306"/>
<text text-anchor="start" x="245" y="-314.2" font-family="Helvetica,sans-Serif" font-size="11.00">display_name</text>
<polygon fill="none" stroke="black" points="225,-284 225,-306 419,-306 419,-284 225,-284"/>
<image xlink:href="../../images/foreignKeys.png" width="11px" height="12px" preserveAspectRatio="xMinYMin meet" x="230" y="-301"/>
<text text-anchor="start" x="245" y="-292.2" font-family="Helvetica,sans-Serif" font-size="11.00">menu_state_id</text>
<polygon fill="none" stroke="black" points="225,-266 225,-284 419,-284 419,-266 225,-266"/>
<text text-anchor="start" x="228" y="-272.2" font-family="Helvetica,sans-Serif" font-size="11.00">...</text>
<polygon fill="#ffffff" stroke="transparent" points="225,-248 225,-266 315,-266 315,-248 225,-248"/>
<polygon fill="none" stroke="black" points="225,-248 225,-266 315,-266 315,-248 225,-248"/>
<text text-anchor="start" x="228" y="-254.2" font-family="Helvetica,sans-Serif" font-size="11.00">&lt; 1</text>
<polygon fill="#ffffff" stroke="transparent" points="315,-248 315,-266 362,-266 362,-248 315,-248"/>
<polygon fill="none" stroke="black" points="315,-248 315,-266 362,-266 362,-248 315,-248"/>
<text text-anchor="start" x="352" y="-254.2" font-family="Helvetica,sans-Serif" font-size="11.00"> &#160;</text>
<polygon fill="#ffffff" stroke="transparent" points="362,-248 362,-266 419,-266 419,-248 362,-248"/>
<polygon fill="none" stroke="black" points="362,-248 362,-266 419,-266 419,-248 362,-248"/>
<text text-anchor="start" x="400" y="-254.2" font-family="Helvetica,sans-Serif" font-size="11.00">2 &gt;</text>
</a>
</g>
</g>
<!-- syst_menu_items&#45;&gt;syst_menus -->
<g id="edge3" class="edge">
<title>syst_menu_items:w&#45;&gt;syst_menus:e</title>
<path fill="none" stroke="black" d="M454.84,-361C443.41,-361 436.16,-361 420,-361"/>
<polygon fill="black" stroke="black" points="461.5,-361 469.5,-364.6 465.5,-361 469.5,-361 469.5,-361 469.5,-361 465.5,-361 469.5,-357.4 461.5,-361 461.5,-361"/>
<ellipse fill="none" stroke="black" cx="458.3" cy="-361" rx="3.2" ry="3.2"/>
</g>
<!-- syst_menu_items&#45;&gt;syst_menus -->
<g id="edge5" class="edge">
<title>syst_menu_items:w&#45;&gt;syst_menus:e</title>
<path fill="none" stroke="black" d="M455.8,-299.75C439.03,-314.88 450.65,-361 420,-361"/>
<polygon fill="black" stroke="black" points="461.94,-297.62 470.68,-298.4 465.72,-296.31 469.5,-295 469.5,-295 469.5,-295 465.72,-296.31 468.32,-291.6 461.94,-297.62 461.94,-297.62"/>
<ellipse fill="none" stroke="black" cx="458.92" cy="-298.67" rx="3.2" ry="3.2"/>
</g>
<!-- syst_enum_items -->
<g id="node5" class="node">
<title>syst_enum_items</title>
<g id="a_node5"><a xlink:href="../../tables/syst_enum_items.html" xlink:title="syst_enum_items" target="_top">
<polygon fill="#ffffff" stroke="transparent" points="14.5,-268 14.5,-326 169.5,-326 169.5,-268 14.5,-268"/>
<polygon fill="#f5f5f5" stroke="transparent" points="15,-304 15,-326 170,-326 170,-304 15,-304"/>
<polygon fill="none" stroke="black" points="15,-304 15,-326 170,-326 170,-304 15,-304"/>
<text text-anchor="start" x="20" y="-313.2" font-family="Helvetica,sans-Serif" font-weight="bold" font-size="11.00">syst_enum_items</text>
<text text-anchor="start" x="135" y="-312.2" font-family="Helvetica,sans-Serif" font-size="11.00">[table]</text>
<polygon fill="none" stroke="black" points="15,-286 15,-304 170,-304 170,-286 15,-286"/>
<text text-anchor="start" x="18" y="-292.2" font-family="Helvetica,sans-Serif" font-size="11.00">...</text>
<polygon fill="#ffffff" stroke="transparent" points="15,-268 15,-286 83,-286 83,-268 15,-268"/>
<polygon fill="none" stroke="black" points="15,-268 15,-286 83,-286 83,-268 15,-268"/>
<text text-anchor="start" x="18" y="-274.2" font-family="Helvetica,sans-Serif" font-size="11.00">&lt; 2</text>
<polygon fill="#ffffff" stroke="transparent" points="83,-268 83,-286 119,-286 119,-268 83,-268"/>
<polygon fill="none" stroke="black" points="83,-268 83,-286 119,-286 119,-268 83,-268"/>
<text text-anchor="start" x="109" y="-274.2" font-family="Helvetica,sans-Serif" font-size="11.00"> &#160;</text>
<polygon fill="#ffffff" stroke="transparent" points="119,-268 119,-286 170,-286 170,-268 119,-268"/>
<polygon fill="none" stroke="black" points="119,-268 119,-286 170,-286 170,-268 119,-268"/>
<text text-anchor="start" x="145" y="-274.2" font-family="Helvetica,sans-Serif" font-size="11.00">10 &gt;</text>
</a>
</g>
</g>
<!-- syst_menus&#45;&gt;syst_enum_items -->
<g id="edge6" class="edge">
<title>syst_menus:w&#45;&gt;syst_enum_items:e</title>
<path fill="none" stroke="black" d="M209.49,-295C196.56,-295 188.85,-295 171,-295"/>
<polygon fill="black" stroke="black" points="216,-295 224,-298.6 220,-295 224,-295 224,-295 224,-295 220,-295 224,-291.4 216,-295 216,-295"/>
<ellipse fill="none" stroke="black" cx="212.8" cy="-295" rx="3.2" ry="3.2"/>
</g>
</g>
</svg>
