<?xml version="1.0" encoding="UTF-8" standalone="no"?>
<!DOCTYPE svg PUBLIC "-//W3C//DTD SVG 1.1//EN"
 "http://www.w3.org/Graphics/SVG/1.1/DTD/svg11.dtd">
<!-- Generated by graphviz version 2.43.0 (0)
 -->
<!-- Title: twoDegreesRelationshipsDiagram Pages: 1 -->
<svg width="1626pt" height="508pt"
 viewBox="0.00 0.00 1626.00 508.00" xmlns="http://www.w3.org/2000/svg" xmlns:xlink="http://www.w3.org/1999/xlink">
<g id="graph0" class="graph" transform="scale(1 1) rotate(0) translate(4 504)">
<title>twoDegreesRelationshipsDiagram</title>
<polygon fill="#ffffff" stroke="transparent" points="-4,4 -4,-504 1622,-504 1622,4 -4,4"/>
<text text-anchor="middle" x="71.5" y="-7.2" font-family="Helvetica,sans-Serif" font-size="11.00">Generated by SchemaSpy</text>
<!-- syst_access_accounts -->
<g id="node1" class="node">
<title>syst_access_accounts</title>
<g id="a_node1"><a xlink:href="../../tables/syst_access_accounts.html" xlink:title="syst_access_accounts" target="_top">
<polygon fill="#ffffff" stroke="transparent" points="1040,-333 1040,-391 1225,-391 1225,-333 1040,-333"/>
<polygon fill="#f5f5f5" stroke="transparent" points="1040.5,-369 1040.5,-391 1225.5,-391 1225.5,-369 1040.5,-369"/>
<polygon fill="none" stroke="black" points="1040.5,-369 1040.5,-391 1225.5,-391 1225.5,-369 1040.5,-369"/>
<text text-anchor="start" x="1045.5" y="-378.2" font-family="Helvetica,sans-Serif" font-weight="bold" font-size="11.00">syst_access_accounts</text>
<text text-anchor="start" x="1190.5" y="-377.2" font-family="Helvetica,sans-Serif" font-size="11.00">[table]</text>
<polygon fill="none" stroke="black" points="1040.5,-351 1040.5,-369 1225.5,-369 1225.5,-351 1040.5,-351"/>
<text text-anchor="start" x="1043.5" y="-357.2" font-family="Helvetica,sans-Serif" font-size="11.00">...</text>
<polygon fill="#ffffff" stroke="transparent" points="1040.5,-333 1040.5,-351 1126.5,-351 1126.5,-333 1040.5,-333"/>
<polygon fill="none" stroke="black" points="1040.5,-333 1040.5,-351 1126.5,-351 1126.5,-333 1040.5,-333"/>
<text text-anchor="start" x="1043.5" y="-339.2" font-family="Helvetica,sans-Serif" font-size="11.00">&lt; 2</text>
<polygon fill="#ffffff" stroke="transparent" points="1126.5,-333 1126.5,-351 1171.5,-351 1171.5,-333 1126.5,-333"/>
<polygon fill="none" stroke="black" points="1126.5,-333 1126.5,-351 1171.5,-351 1171.5,-333 1126.5,-333"/>
<text text-anchor="start" x="1161.5" y="-339.2" font-family="Helvetica,sans-Serif" font-size="11.00"> &#160;</text>
<polygon fill="#ffffff" stroke="transparent" points="1171.5,-333 1171.5,-351 1225.5,-351 1225.5,-333 1171.5,-333"/>
<polygon fill="none" stroke="black" points="1171.5,-333 1171.5,-351 1225.5,-351 1225.5,-333 1171.5,-333"/>
<text text-anchor="start" x="1206.5" y="-339.2" font-family="Helvetica,sans-Serif" font-size="11.00">5 &gt;</text>
</a>
</g>
</g>
<!-- syst_enum_items -->
<g id="node2" class="node">
<title>syst_enum_items</title>
<g id="a_node2"><a xlink:href="../../tables/syst_enum_items.html" xlink:title="syst_enum_items" target="_top">
<polygon fill="#ffffff" stroke="transparent" points="531,-261 531,-319 686,-319 686,-261 531,-261"/>
<polygon fill="#f5f5f5" stroke="transparent" points="531.5,-297 531.5,-319 686.5,-319 686.5,-297 531.5,-297"/>
<polygon fill="none" stroke="black" points="531.5,-297 531.5,-319 686.5,-319 686.5,-297 531.5,-297"/>
<text text-anchor="start" x="536.5" y="-306.2" font-family="Helvetica,sans-Serif" font-weight="bold" font-size="11.00">syst_enum_items</text>
<text text-anchor="start" x="651.5" y="-305.2" font-family="Helvetica,sans-Serif" font-size="11.00">[table]</text>
<polygon fill="none" stroke="black" points="531.5,-279 531.5,-297 686.5,-297 686.5,-279 531.5,-279"/>
<text text-anchor="start" x="534.5" y="-285.2" font-family="Helvetica,sans-Serif" font-size="11.00">...</text>
<polygon fill="#ffffff" stroke="transparent" points="531.5,-261 531.5,-279 599.5,-279 599.5,-261 531.5,-261"/>
<polygon fill="none" stroke="black" points="531.5,-261 531.5,-279 599.5,-279 599.5,-261 531.5,-261"/>
<text text-anchor="start" x="534.5" y="-267.2" font-family="Helvetica,sans-Serif" font-size="11.00">&lt; 2</text>
<polygon fill="#ffffff" stroke="transparent" points="599.5,-261 599.5,-279 635.5,-279 635.5,-261 599.5,-261"/>
<polygon fill="none" stroke="black" points="599.5,-261 599.5,-279 635.5,-279 635.5,-261 599.5,-261"/>
<text text-anchor="start" x="625.5" y="-267.2" font-family="Helvetica,sans-Serif" font-size="11.00"> &#160;</text>
<polygon fill="#ffffff" stroke="transparent" points="635.5,-261 635.5,-279 686.5,-279 686.5,-261 635.5,-261"/>
<polygon fill="none" stroke="black" points="635.5,-261 635.5,-279 686.5,-279 686.5,-261 635.5,-261"/>
<text text-anchor="start" x="661.5" y="-267.2" font-family="Helvetica,sans-Serif" font-size="11.00">10 &gt;</text>
</a>
</g>
</g>
<!-- syst_access_accounts&#45;&gt;syst_enum_items -->
<g id="edge1" class="edge">
<title>syst_access_accounts:w&#45;&gt;syst_enum_items:e</title>
<path fill="none" stroke="black" d="M1025.08,-357.3C1016.97,-353.87 1011.69,-348.03 999,-345 880.65,-316.78 847.17,-333.08 727,-314 716.31,-312.3 705.11,-310.3 694.06,-308.2"/>
<polygon fill="black" stroke="black" points="1031.64,-358.53 1038.84,-363.54 1035.57,-359.26 1039.5,-360 1039.5,-360 1039.5,-360 1035.57,-359.26 1040.16,-356.46 1031.64,-358.53 1031.64,-358.53"/>
<ellipse fill="none" stroke="black" cx="1028.49" cy="-357.94" rx="3.2" ry="3.2"/>
</g>
<!-- syst_owners -->
<g id="node3" class="node">
<title>syst_owners</title>
<g id="a_node3"><a xlink:href="../../tables/syst_owners.html" xlink:title="syst_owners" target="_top">
<polygon fill="#ffffff" stroke="transparent" points="802,-355 802,-413 924,-413 924,-355 802,-355"/>
<polygon fill="#f5f5f5" stroke="transparent" points="802,-391 802,-413 924,-413 924,-391 802,-391"/>
<polygon fill="none" stroke="black" points="802,-391 802,-413 924,-413 924,-391 802,-391"/>
<text text-anchor="start" x="807" y="-400.2" font-family="Helvetica,sans-Serif" font-weight="bold" font-size="11.00">syst_owners</text>
<text text-anchor="start" x="889" y="-399.2" font-family="Helvetica,sans-Serif" font-size="11.00">[table]</text>
<polygon fill="none" stroke="black" points="802,-373 802,-391 924,-391 924,-373 802,-373"/>
<text text-anchor="start" x="805" y="-379.2" font-family="Helvetica,sans-Serif" font-size="11.00">...</text>
<polygon fill="#ffffff" stroke="transparent" points="802,-355 802,-373 856,-373 856,-355 802,-355"/>
<polygon fill="none" stroke="black" points="802,-355 802,-373 856,-373 856,-355 802,-355"/>
<text text-anchor="start" x="805" y="-361.2" font-family="Helvetica,sans-Serif" font-size="11.00">&lt; 1</text>
<polygon fill="#ffffff" stroke="transparent" points="856,-355 856,-373 885,-373 885,-355 856,-355"/>
<polygon fill="none" stroke="black" points="856,-355 856,-373 885,-373 885,-355 856,-355"/>
<text text-anchor="start" x="875" y="-361.2" font-family="Helvetica,sans-Serif" font-size="11.00"> &#160;</text>
<polygon fill="#ffffff" stroke="transparent" points="885,-355 885,-373 924,-373 924,-355 885,-355"/>
<polygon fill="none" stroke="black" points="885,-355 885,-373 924,-373 924,-355 885,-355"/>
<text text-anchor="start" x="905" y="-361.2" font-family="Helvetica,sans-Serif" font-size="11.00">4 &gt;</text>
</a>
</g>
</g>
<!-- syst_access_accounts&#45;&gt;syst_owners -->
<g id="edge2" class="edge">
<title>syst_access_accounts:w&#45;&gt;syst_owners:e</title>
<path fill="none" stroke="black" d="M1024.89,-360.63C985.05,-364.24 971.56,-382 925,-382"/>
<polygon fill="black" stroke="black" points="1031.51,-360.35 1039.66,-363.6 1035.5,-360.17 1039.5,-360 1039.5,-360 1039.5,-360 1035.5,-360.17 1039.34,-356.4 1031.51,-360.35 1031.51,-360.35"/>
<ellipse fill="none" stroke="black" cx="1028.31" cy="-360.49" rx="3.2" ry="3.2"/>
</g>
<!-- syst_enum_functional_types -->
<g id="node6" class="node">
<title>syst_enum_functional_types</title>
<g id="a_node6"><a xlink:href="../../tables/syst_enum_functional_types.html" xlink:title="syst_enum_functional_types" target="_top">
<polygon fill="#ffffff" stroke="transparent" points="175,-144 175,-496 482,-496 482,-144 175,-144"/>
<polygon fill="#f5f5f5" stroke="transparent" points="177.5,-472 177.5,-494 480.5,-494 480.5,-472 177.5,-472"/>
<polygon fill="none" stroke="black" points="177.5,-472 177.5,-494 480.5,-494 480.5,-472 177.5,-472"/>
<text text-anchor="start" x="182.5" y="-481.2" font-family="Helvetica,sans-Serif" font-weight="bold" font-size="11.00">syst_enum_functional_types</text>
<text text-anchor="start" x="445.5" y="-480.2" font-family="Helvetica,sans-Serif" font-size="11.00">[table]</text>
<polygon fill="none" stroke="black" points="177.5,-450 177.5,-472 387.5,-472 387.5,-450 177.5,-450"/>
<image xlink:href="../../images/primaryKeys.png" width="11px" height="12px" preserveAspectRatio="xMinYMin meet" x="182.5" y="-467"/>
<text text-anchor="start" x="197.5" y="-458.2" font-family="Helvetica,sans-Serif" font-size="11.00">id</text>
<polygon fill="none" stroke="black" points="387.5,-450 387.5,-472 480.5,-472 480.5,-450 387.5,-450"/>
<text text-anchor="start" x="390.5" y="-458.2" font-family="Helvetica,sans-Serif" font-size="11.00">uuid[2147483647]</text>
<polygon fill="#ffffff" stroke="transparent" points="177.5,-428 177.5,-450 387.5,-450 387.5,-428 177.5,-428"/>
<polygon fill="none" stroke="black" points="177.5,-428 177.5,-450 387.5,-450 387.5,-428 177.5,-428"/>
<text text-anchor="start" x="197.5" y="-436.2" font-family="Helvetica,sans-Serif" font-size="11.00">internal_name</text>
<polygon fill="none" stroke="black" points="387.5,-428 387.5,-450 480.5,-450 480.5,-428 387.5,-428"/>
<text text-anchor="start" x="390.5" y="-436.2" font-family="Helvetica,sans-Serif" font-size="11.00">text[2147483647]</text>
<polygon fill="#ffffff" stroke="transparent" points="177.5,-406 177.5,-428 387.5,-428 387.5,-406 177.5,-406"/>
<polygon fill="none" stroke="black" points="177.5,-406 177.5,-428 387.5,-428 387.5,-406 177.5,-406"/>
<text text-anchor="start" x="197.5" y="-414.2" font-family="Helvetica,sans-Serif" font-size="11.00">display_name</text>
<polygon fill="none" stroke="black" points="387.5,-406 387.5,-428 480.5,-428 480.5,-406 387.5,-406"/>
<text text-anchor="start" x="390.5" y="-414.2" font-family="Helvetica,sans-Serif" font-size="11.00">text[2147483647]</text>
<polygon fill="none" stroke="black" points="177.5,-384 177.5,-406 387.5,-406 387.5,-384 177.5,-384"/>
<text text-anchor="start" x="197.5" y="-392.2" font-family="Helvetica,sans-Serif" font-size="11.00">external_name</text>
<polygon fill="none" stroke="black" points="387.5,-384 387.5,-406 480.5,-406 480.5,-384 387.5,-384"/>
<text text-anchor="start" x="390.5" y="-392.2" font-family="Helvetica,sans-Serif" font-size="11.00">text[2147483647]</text>
<polygon fill="none" stroke="black" points="177.5,-362 177.5,-384 387.5,-384 387.5,-362 177.5,-362"/>
<image xlink:href="../../images/foreignKeys.png" width="11px" height="12px" preserveAspectRatio="xMinYMin meet" x="182.5" y="-379"/>
<text text-anchor="start" x="197.5" y="-370.2" font-family="Helvetica,sans-Serif" font-size="11.00">enum_id</text>
<polygon fill="none" stroke="black" points="387.5,-362 387.5,-384 480.5,-384 480.5,-362 387.5,-362"/>
<text text-anchor="start" x="390.5" y="-370.2" font-family="Helvetica,sans-Serif" font-size="11.00">uuid[2147483647]</text>
<polygon fill="none" stroke="black" points="177.5,-340 177.5,-362 387.5,-362 387.5,-340 177.5,-340"/>
<text text-anchor="start" x="197.5" y="-348.2" font-family="Helvetica,sans-Serif" font-size="11.00">syst_description</text>
<polygon fill="none" stroke="black" points="387.5,-340 387.5,-362 480.5,-362 480.5,-340 387.5,-340"/>
<text text-anchor="start" x="390.5" y="-348.2" font-family="Helvetica,sans-Serif" font-size="11.00">text[2147483647]</text>
<polygon fill="none" stroke="black" points="177.5,-318 177.5,-340 387.5,-340 387.5,-318 177.5,-318"/>
<text text-anchor="start" x="197.5" y="-326.2" font-family="Helvetica,sans-Serif" font-size="11.00">user_description</text>
<polygon fill="none" stroke="black" points="387.5,-318 387.5,-340 480.5,-340 480.5,-318 387.5,-318"/>
<text text-anchor="start" x="390.5" y="-326.2" font-family="Helvetica,sans-Serif" font-size="11.00">text[2147483647]</text>
<polygon fill="none" stroke="black" points="177.5,-296 177.5,-318 387.5,-318 387.5,-296 177.5,-296"/>
<text text-anchor="start" x="197.5" y="-304.2" font-family="Helvetica,sans-Serif" font-size="11.00">diag_timestamp_created</text>
<polygon fill="none" stroke="black" points="387.5,-296 387.5,-318 480.5,-318 480.5,-296 387.5,-296"/>
<text text-anchor="start" x="390.5" y="-304.2" font-family="Helvetica,sans-Serif" font-size="11.00">timestamptz[35,6]</text>
<polygon fill="none" stroke="black" points="177.5,-274 177.5,-296 387.5,-296 387.5,-274 177.5,-274"/>
<text text-anchor="start" x="197.5" y="-282.2" font-family="Helvetica,sans-Serif" font-size="11.00">diag_role_created</text>
<polygon fill="none" stroke="black" points="387.5,-274 387.5,-296 480.5,-296 480.5,-274 387.5,-274"/>
<text text-anchor="start" x="390.5" y="-282.2" font-family="Helvetica,sans-Serif" font-size="11.00">text[2147483647]</text>
<polygon fill="none" stroke="black" points="177.5,-252 177.5,-274 387.5,-274 387.5,-252 177.5,-252"/>
<text text-anchor="start" x="197.5" y="-260.2" font-family="Helvetica,sans-Serif" font-size="11.00">diag_timestamp_modified</text>
<polygon fill="none" stroke="black" points="387.5,-252 387.5,-274 480.5,-274 480.5,-252 387.5,-252"/>
<text text-anchor="start" x="390.5" y="-260.2" font-family="Helvetica,sans-Serif" font-size="11.00">timestamptz[35,6]</text>
<polygon fill="none" stroke="black" points="177.5,-230 177.5,-252 387.5,-252 387.5,-230 177.5,-230"/>
<text text-anchor="start" x="197.5" y="-238.2" font-family="Helvetica,sans-Serif" font-size="11.00">diag_wallclock_modified</text>
<polygon fill="none" stroke="black" points="387.5,-230 387.5,-252 480.5,-252 480.5,-230 387.5,-230"/>
<text text-anchor="start" x="390.5" y="-238.2" font-family="Helvetica,sans-Serif" font-size="11.00">timestamptz[35,6]</text>
<polygon fill="none" stroke="black" points="177.5,-208 177.5,-230 387.5,-230 387.5,-208 177.5,-208"/>
<text text-anchor="start" x="197.5" y="-216.2" font-family="Helvetica,sans-Serif" font-size="11.00">diag_role_modified</text>
<polygon fill="none" stroke="black" points="387.5,-208 387.5,-230 480.5,-230 480.5,-208 387.5,-208"/>
<text text-anchor="start" x="390.5" y="-216.2" font-family="Helvetica,sans-Serif" font-size="11.00">text[2147483647]</text>
<polygon fill="none" stroke="black" points="177.5,-186 177.5,-208 387.5,-208 387.5,-186 177.5,-186"/>
<text text-anchor="start" x="197.5" y="-194.2" font-family="Helvetica,sans-Serif" font-size="11.00">diag_row_version</text>
<polygon fill="none" stroke="black" points="387.5,-186 387.5,-208 480.5,-208 480.5,-186 387.5,-186"/>
<text text-anchor="start" x="390.5" y="-194.2" font-family="Helvetica,sans-Serif" font-size="11.00">int8[19]</text>
<polygon fill="none" stroke="black" points="177.5,-164 177.5,-186 387.5,-186 387.5,-164 177.5,-164"/>
<text text-anchor="start" x="197.5" y="-172.2" font-family="Helvetica,sans-Serif" font-size="11.00">diag_update_count</text>
<polygon fill="none" stroke="black" points="387.5,-164 387.5,-186 480.5,-186 480.5,-164 387.5,-164"/>
<text text-anchor="start" x="390.5" y="-172.2" font-family="Helvetica,sans-Serif" font-size="11.00">int8[19]</text>
<polygon fill="#ffffff" stroke="transparent" points="177.5,-146 177.5,-164 286.5,-164 286.5,-146 177.5,-146"/>
<polygon fill="none" stroke="black" points="177.5,-146 177.5,-164 286.5,-164 286.5,-146 177.5,-146"/>
<text text-anchor="start" x="180.5" y="-152.2" font-family="Helvetica,sans-Serif" font-size="11.00">&lt; 1</text>
<polygon fill="#ffffff" stroke="transparent" points="286.5,-146 286.5,-164 387.5,-164 387.5,-146 286.5,-146"/>
<polygon fill="none" stroke="black" points="286.5,-146 286.5,-164 387.5,-164 387.5,-146 286.5,-146"/>
<text text-anchor="start" x="377.5" y="-152.2" font-family="Helvetica,sans-Serif" font-size="11.00"> &#160;</text>
<polygon fill="#ffffff" stroke="transparent" points="387.5,-146 387.5,-164 480.5,-164 480.5,-146 387.5,-146"/>
<polygon fill="none" stroke="black" points="387.5,-146 387.5,-164 480.5,-164 480.5,-146 387.5,-146"/>
<text text-anchor="start" x="461.5" y="-152.2" font-family="Helvetica,sans-Serif" font-size="11.00">1 &gt;</text>
<polygon fill="none" stroke="black" stroke-width="2" points="176,-145 176,-495 481,-495 481,-145 176,-145"/>
</a>
</g>
</g>
<!-- syst_enum_items&#45;&gt;syst_enum_functional_types -->
<g id="edge8" class="edge">
<title>syst_enum_items:w&#45;&gt;syst_enum_functional_types:e</title>
<path fill="none" stroke="black" d="M594.84,-337.3C578.09,-387.91 543.22,-461 481.5,-461"/>
<polygon fill="black" stroke="black" points="596.8,-331.01 602.63,-324.45 598,-327.19 599.19,-323.38 599.19,-323.38 599.19,-323.38 598,-327.19 595.75,-322.3 596.8,-331.01 596.8,-331.01"/>
<ellipse fill="none" stroke="black" cx="595.85" cy="-334.07" rx="3.2" ry="3.2"/>
</g>
<!-- syst_enums -->
<g id="node7" class="node">
<title>syst_enums</title>
<g id="a_node7"><a xlink:href="../../tables/syst_enums.html" xlink:title="syst_enums" target="_top">
<polygon fill="#ffffff" stroke="transparent" points="8,-217 8,-275 126,-275 126,-217 8,-217"/>
<polygon fill="#f5f5f5" stroke="transparent" points="8,-253 8,-275 126,-275 126,-253 8,-253"/>
<polygon fill="none" stroke="black" points="8,-253 8,-275 126,-275 126,-253 8,-253"/>
<text text-anchor="start" x="13" y="-262.2" font-family="Helvetica,sans-Serif" font-weight="bold" font-size="11.00">syst_enums</text>
<text text-anchor="start" x="91" y="-261.2" font-family="Helvetica,sans-Serif" font-size="11.00">[table]</text>
<polygon fill="none" stroke="black" points="8,-235 8,-253 126,-253 126,-235 8,-235"/>
<text text-anchor="start" x="11" y="-241.2" font-family="Helvetica,sans-Serif" font-size="11.00">...</text>
<polygon fill="#ffffff" stroke="transparent" points="8,-217 8,-235 56,-235 56,-217 8,-217"/>
<polygon fill="none" stroke="black" points="8,-217 8,-235 56,-235 56,-217 8,-217"/>
<text text-anchor="start" x="11" y="-223.2" font-family="Helvetica,sans-Serif" font-size="11.00"> &#160;</text>
<polygon fill="#ffffff" stroke="transparent" points="56,-217 56,-235 86,-235 86,-217 56,-217"/>
<polygon fill="none" stroke="black" points="56,-217 56,-235 86,-235 86,-217 56,-217"/>
<text text-anchor="start" x="76" y="-223.2" font-family="Helvetica,sans-Serif" font-size="11.00"> &#160;</text>
<polygon fill="#ffffff" stroke="transparent" points="86,-217 86,-235 126,-235 126,-217 86,-217"/>
<polygon fill="none" stroke="black" points="86,-217 86,-235 126,-235 126,-217 86,-217"/>
<text text-anchor="start" x="107" y="-223.2" font-family="Helvetica,sans-Serif" font-size="11.00">2 &gt;</text>
</a>
</g>
</g>
<!-- syst_enum_items&#45;&gt;syst_enums -->
<g id="edge7" class="edge">
<title>syst_enum_items:w&#45;&gt;syst_enums:e</title>
<path fill="none" stroke="black" d="M587.18,-243.64C568.06,-206.4 535.53,-156.71 490,-134 361.53,-69.93 297.88,-75.01 167,-134 131.39,-150.05 103.44,-185.94 86.44,-212.79"/>
<polygon fill="black" stroke="black" points="590.09,-249.54 590.39,-258.31 591.86,-253.13 593.62,-256.72 593.62,-256.72 593.62,-256.72 591.86,-253.13 596.85,-255.13 590.09,-249.54 590.09,-249.54"/>
<ellipse fill="none" stroke="black" cx="588.68" cy="-246.67" rx="3.2" ry="3.2"/>
</g>
<!-- syst_owners&#45;&gt;syst_enum_items -->
<g id="edge18" class="edge">
<title>syst_owners:w&#45;&gt;syst_enum_items:e</title>
<path fill="none" stroke="black" d="M786.54,-381.31C735.29,-376.47 684.75,-347.3 650.88,-323.21"/>
<polygon fill="black" stroke="black" points="793.01,-381.62 800.83,-385.6 797,-381.81 801,-382 801,-382 801,-382 797,-381.81 801.17,-378.4 793.01,-381.62 793.01,-381.62"/>
<ellipse fill="none" stroke="black" cx="789.81" cy="-381.46" rx="3.2" ry="3.2"/>
</g>
<!-- syst_credentials -->
<g id="node4" class="node">
<title>syst_credentials</title>
<g id="a_node4"><a xlink:href="../../tables/syst_credentials.html" xlink:title="syst_credentials" target="_top">
<polygon fill="#ffffff" stroke="transparent" points="1461,-301 1461,-359 1610,-359 1610,-301 1461,-301"/>
<polygon fill="#f5f5f5" stroke="transparent" points="1461.5,-337 1461.5,-359 1610.5,-359 1610.5,-337 1461.5,-337"/>
<polygon fill="none" stroke="black" points="1461.5,-337 1461.5,-359 1610.5,-359 1610.5,-337 1461.5,-337"/>
<text text-anchor="start" x="1466.5" y="-346.2" font-family="Helvetica,sans-Serif" font-weight="bold" font-size="11.00">syst_credentials</text>
<text text-anchor="start" x="1575.5" y="-345.2" font-family="Helvetica,sans-Serif" font-size="11.00">[table]</text>
<polygon fill="none" stroke="black" points="1461.5,-319 1461.5,-337 1610.5,-337 1610.5,-319 1461.5,-319"/>
<text text-anchor="start" x="1464.5" y="-325.2" font-family="Helvetica,sans-Serif" font-size="11.00">...</text>
<polygon fill="#ffffff" stroke="transparent" points="1461.5,-301 1461.5,-319 1533.5,-319 1533.5,-301 1461.5,-301"/>
<polygon fill="none" stroke="black" points="1461.5,-301 1461.5,-319 1533.5,-319 1533.5,-301 1461.5,-301"/>
<text text-anchor="start" x="1464.5" y="-307.2" font-family="Helvetica,sans-Serif" font-size="11.00">&lt; 3</text>
<polygon fill="#ffffff" stroke="transparent" points="1533.5,-301 1533.5,-319 1571.5,-319 1571.5,-301 1533.5,-301"/>
<polygon fill="none" stroke="black" points="1533.5,-301 1533.5,-319 1571.5,-319 1571.5,-301 1533.5,-301"/>
<text text-anchor="start" x="1561.5" y="-307.2" font-family="Helvetica,sans-Serif" font-size="11.00"> &#160;</text>
<polygon fill="#ffffff" stroke="transparent" points="1571.5,-301 1571.5,-319 1610.5,-319 1610.5,-301 1571.5,-301"/>
<polygon fill="none" stroke="black" points="1571.5,-301 1571.5,-319 1610.5,-319 1610.5,-301 1571.5,-301"/>
<text text-anchor="start" x="1600.5" y="-307.2" font-family="Helvetica,sans-Serif" font-size="11.00"> &#160;</text>
</a>
</g>
</g>
<!-- syst_credentials&#45;&gt;syst_access_accounts -->
<g id="edge3" class="edge">
<title>syst_credentials:w&#45;&gt;syst_access_accounts:e</title>
<path fill="none" stroke="black" d="M1446.89,-332.84C1437.13,-342.16 1438.09,-362.32 1420,-370 1357.01,-396.77 1333.92,-378.46 1266,-370 1248.03,-367.76 1244.61,-360 1226.5,-360"/>
<polygon fill="black" stroke="black" points="1452.96,-330.68 1461.71,-331.39 1456.73,-329.34 1460.5,-328 1460.5,-328 1460.5,-328 1456.73,-329.34 1459.29,-324.61 1452.96,-330.68 1452.96,-330.68"/>
<ellipse fill="none" stroke="black" cx="1449.95" cy="-331.76" rx="3.2" ry="3.2"/>
</g>
<!-- syst_credentials&#45;&gt;syst_enum_items -->
<g id="edge5" class="edge">
<title>syst_credentials:w&#45;&gt;syst_enum_items:e</title>
<path fill="none" stroke="black" d="M1446.79,-323.2C1437.57,-314.77 1436.86,-297.57 1420,-291 1245.64,-223.11 1186.11,-290.22 999,-290 894.02,-289.88 773.12,-289.9 694.22,-289.94"/>
<polygon fill="black" stroke="black" points="1452.95,-325.36 1459.31,-331.4 1456.72,-326.68 1460.5,-328 1460.5,-328 1460.5,-328 1456.72,-326.68 1461.69,-324.6 1452.95,-325.36 1452.95,-325.36"/>
<ellipse fill="none" stroke="black" cx="1449.93" cy="-324.3" rx="3.2" ry="3.2"/>
</g>
<!-- syst_identities -->
<g id="node5" class="node">
<title>syst_identities</title>
<g id="a_node5"><a xlink:href="../../tables/syst_identities.html" xlink:title="syst_identities" target="_top">
<polygon fill="#ffffff" stroke="transparent" points="1274,-301 1274,-359 1412,-359 1412,-301 1274,-301"/>
<polygon fill="#f5f5f5" stroke="transparent" points="1274,-337 1274,-359 1412,-359 1412,-337 1274,-337"/>
<polygon fill="none" stroke="black" points="1274,-337 1274,-359 1412,-359 1412,-337 1274,-337"/>
<text text-anchor="start" x="1279" y="-346.2" font-family="Helvetica,sans-Serif" font-weight="bold" font-size="11.00">syst_identities</text>
<text text-anchor="start" x="1377" y="-345.2" font-family="Helvetica,sans-Serif" font-size="11.00">[table]</text>
<polygon fill="none" stroke="black" points="1274,-319 1274,-337 1412,-337 1412,-319 1274,-319"/>
<text text-anchor="start" x="1277" y="-325.2" font-family="Helvetica,sans-Serif" font-size="11.00">...</text>
<polygon fill="#ffffff" stroke="transparent" points="1274,-301 1274,-319 1336,-319 1336,-301 1274,-301"/>
<polygon fill="none" stroke="black" points="1274,-301 1274,-319 1336,-319 1336,-301 1274,-301"/>
<text text-anchor="start" x="1277" y="-307.2" font-family="Helvetica,sans-Serif" font-size="11.00">&lt; 3</text>
<polygon fill="#ffffff" stroke="transparent" points="1336,-301 1336,-319 1369,-319 1369,-301 1336,-301"/>
<polygon fill="none" stroke="black" points="1336,-301 1336,-319 1369,-319 1369,-301 1336,-301"/>
<text text-anchor="start" x="1359" y="-307.2" font-family="Helvetica,sans-Serif" font-size="11.00"> &#160;</text>
<polygon fill="#ffffff" stroke="transparent" points="1369,-301 1369,-319 1412,-319 1412,-301 1369,-301"/>
<polygon fill="none" stroke="black" points="1369,-301 1369,-319 1412,-319 1412,-301 1369,-301"/>
<text text-anchor="start" x="1393" y="-307.2" font-family="Helvetica,sans-Serif" font-size="11.00">2 &gt;</text>
</a>
</g>
</g>
<!-- syst_credentials&#45;&gt;syst_identities -->
<g id="edge4" class="edge">
<title>syst_credentials:w&#45;&gt;syst_identities:e</title>
<path fill="none" stroke="black" d="M1446.09,-328C1435.32,-328 1428.34,-328 1413,-328"/>
<polygon fill="black" stroke="black" points="1452.5,-328 1460.5,-331.6 1456.5,-328 1460.5,-328 1460.5,-328 1460.5,-328 1456.5,-328 1460.5,-324.4 1452.5,-328 1452.5,-328"/>
<ellipse fill="none" stroke="black" cx="1449.3" cy="-328" rx="3.2" ry="3.2"/>
</g>
<!-- syst_identities&#45;&gt;syst_access_accounts -->
<g id="edge11" class="edge">
<title>syst_identities:w&#45;&gt;syst_access_accounts:e</title>
<path fill="none" stroke="black" d="M1259.02,-332.72C1248.01,-341.62 1245.51,-360 1226.5,-360"/>
<polygon fill="black" stroke="black" points="1265.42,-330.56 1274.15,-331.41 1269.21,-329.28 1273,-328 1273,-328 1273,-328 1269.21,-329.28 1271.85,-324.59 1265.42,-330.56 1265.42,-330.56"/>
<ellipse fill="none" stroke="black" cx="1262.39" cy="-331.58" rx="3.2" ry="3.2"/>
</g>
<!-- syst_identities&#45;&gt;syst_enum_items -->
<g id="edge12" class="edge">
<title>syst_identities:w&#45;&gt;syst_enum_items:e</title>
<path fill="none" stroke="black" d="M1258.54,-327.04C1250.7,-325.91 1244.85,-324.05 1233,-323 1040.67,-305.91 814.13,-296.63 694.1,-292.56"/>
<polygon fill="black" stroke="black" points="1265.02,-327.47 1272.76,-331.59 1269.01,-327.74 1273,-328 1273,-328 1273,-328 1269.01,-327.74 1273.24,-324.41 1265.02,-327.47 1265.02,-327.47"/>
<ellipse fill="none" stroke="black" cx="1261.82" cy="-327.26" rx="3.2" ry="3.2"/>
</g>
<!-- syst_enum_functional_types&#45;&gt;syst_enums -->
<g id="edge6" class="edge">
<title>syst_enum_functional_types:w&#45;&gt;syst_enums:e</title>
<path fill="none" stroke="black" d="M161.98,-371.34C120.78,-361.75 93.75,-312.84 79.68,-279.04"/>
<polygon fill="black" stroke="black" points="168.55,-372.09 176.09,-376.58 172.53,-372.54 176.5,-373 176.5,-373 176.5,-373 172.53,-372.54 176.91,-369.42 168.55,-372.09 168.55,-372.09"/>
<ellipse fill="none" stroke="black" cx="165.37" cy="-371.72" rx="3.2" ry="3.2"/>
</g>
<!-- syst_hierarchies -->
<g id="node8" class="node">
<title>syst_hierarchies</title>
<g id="a_node8"><a xlink:href="../../tables/syst_hierarchies.html" xlink:title="syst_hierarchies" target="_top">
<polygon fill="#ffffff" stroke="transparent" points="788.5,-195 788.5,-253 937.5,-253 937.5,-195 788.5,-195"/>
<polygon fill="#f5f5f5" stroke="transparent" points="789,-231 789,-253 938,-253 938,-231 789,-231"/>
<polygon fill="none" stroke="black" points="789,-231 789,-253 938,-253 938,-231 789,-231"/>
<text text-anchor="start" x="794" y="-240.2" font-family="Helvetica,sans-Serif" font-weight="bold" font-size="11.00">syst_hierarchies</text>
<text text-anchor="start" x="903" y="-239.2" font-family="Helvetica,sans-Serif" font-size="11.00">[table]</text>
<polygon fill="none" stroke="black" points="789,-213 789,-231 938,-231 938,-213 789,-213"/>
<text text-anchor="start" x="792" y="-219.2" font-family="Helvetica,sans-Serif" font-size="11.00">...</text>
<polygon fill="#ffffff" stroke="transparent" points="789,-195 789,-213 857,-213 857,-195 789,-195"/>
<polygon fill="none" stroke="black" points="789,-195 789,-213 857,-213 857,-195 789,-195"/>
<text text-anchor="start" x="792" y="-201.2" font-family="Helvetica,sans-Serif" font-size="11.00">&lt; 2</text>
<polygon fill="#ffffff" stroke="transparent" points="857,-195 857,-213 893,-213 893,-195 857,-195"/>
<polygon fill="none" stroke="black" points="857,-195 857,-213 893,-213 893,-195 857,-195"/>
<text text-anchor="start" x="883" y="-201.2" font-family="Helvetica,sans-Serif" font-size="11.00"> &#160;</text>
<polygon fill="#ffffff" stroke="transparent" points="893,-195 893,-213 938,-213 938,-195 893,-195"/>
<polygon fill="none" stroke="black" points="893,-195 893,-213 938,-213 938,-195 893,-195"/>
<text text-anchor="start" x="919" y="-201.2" font-family="Helvetica,sans-Serif" font-size="11.00">1 &gt;</text>
</a>
</g>
</g>
<!-- syst_hierarchies&#45;&gt;syst_enum_items -->
<g id="edge9" class="edge">
<title>syst_hierarchies:w&#45;&gt;syst_enum_items:e</title>
<path fill="none" stroke="black" d="M773.36,-221.67C730.97,-222.67 687.87,-239.94 656.52,-256.91"/>
<polygon fill="black" stroke="black" points="780,-221.82 787.92,-225.6 784,-221.91 788,-222 788,-222 788,-222 784,-221.91 788.08,-218.4 780,-221.82 780,-221.82"/>
<ellipse fill="none" stroke="black" cx="776.8" cy="-221.75" rx="3.2" ry="3.2"/>
</g>
<!-- syst_hierarchies&#45;&gt;syst_enum_items -->
<g id="edge10" class="edge">
<title>syst_hierarchies:w&#45;&gt;syst_enum_items:e</title>
<path fill="none" stroke="black" d="M773.38,-223.77C739.17,-229.18 704.5,-243.1 675.91,-256.84"/>
<polygon fill="black" stroke="black" points="780.06,-222.96 788.43,-225.57 784.03,-222.48 788,-222 788,-222 788,-222 784.03,-222.48 787.57,-218.43 780.06,-222.96 780.06,-222.96"/>
<ellipse fill="none" stroke="black" cx="776.88" cy="-223.35" rx="3.2" ry="3.2"/>
</g>
<!-- syst_instance_type_applications -->
<g id="node9" class="node">
<title>syst_instance_type_applications</title>
<g id="a_node9"><a xlink:href="../../tables/syst_instance_type_applications.html" xlink:title="syst_instance_type_applications" target="_top">
<polygon fill="#ffffff" stroke="transparent" points="735,-116 735,-174 991,-174 991,-116 735,-116"/>
<polygon fill="#f5f5f5" stroke="transparent" points="735,-152 735,-174 991,-174 991,-152 735,-152"/>
<polygon fill="none" stroke="black" points="735,-152 735,-174 991,-174 991,-152 735,-152"/>
<text text-anchor="start" x="740" y="-161.2" font-family="Helvetica,sans-Serif" font-weight="bold" font-size="11.00">syst_instance_type_applications</text>
<text text-anchor="start" x="956" y="-160.2" font-family="Helvetica,sans-Serif" font-size="11.00">[table]</text>
<polygon fill="none" stroke="black" points="735,-134 735,-152 991,-152 991,-134 735,-134"/>
<text text-anchor="start" x="738" y="-140.2" font-family="Helvetica,sans-Serif" font-size="11.00">...</text>
<polygon fill="#ffffff" stroke="transparent" points="735,-116 735,-134 856,-134 856,-116 735,-116"/>
<polygon fill="none" stroke="black" points="735,-116 735,-134 856,-134 856,-116 735,-116"/>
<text text-anchor="start" x="738" y="-122.2" font-family="Helvetica,sans-Serif" font-size="11.00">&lt; 2</text>
<polygon fill="#ffffff" stroke="transparent" points="856,-116 856,-134 919,-134 919,-116 856,-116"/>
<polygon fill="none" stroke="black" points="856,-116 856,-134 919,-134 919,-116 856,-116"/>
<text text-anchor="start" x="909" y="-122.2" font-family="Helvetica,sans-Serif" font-size="11.00"> &#160;</text>
<polygon fill="#ffffff" stroke="transparent" points="919,-116 919,-134 991,-134 991,-116 919,-116"/>
<polygon fill="none" stroke="black" points="919,-116 919,-134 991,-134 991,-116 919,-116"/>
<text text-anchor="start" x="972" y="-122.2" font-family="Helvetica,sans-Serif" font-size="11.00">1 &gt;</text>
</a>
</g>
</g>
<!-- syst_instance_type_applications&#45;&gt;syst_enum_items -->
<g id="edge13" class="edge">
<title>syst_instance_type_applications:w&#45;&gt;syst_enum_items:e</title>
<path fill="none" stroke="black" d="M719.56,-144.43C668.75,-154.61 636.51,-216.91 620.84,-256.64"/>
<polygon fill="black" stroke="black" points="726.04,-143.79 734.35,-146.58 730.02,-143.39 734,-143 734,-143 734,-143 730.02,-143.39 733.65,-139.42 726.04,-143.79 726.04,-143.79"/>
<ellipse fill="none" stroke="black" cx="722.85" cy="-144.1" rx="3.2" ry="3.2"/>
</g>
<!-- syst_instances -->
<g id="node10" class="node">
<title>syst_instances</title>
<g id="a_node10"><a xlink:href="../../tables/syst_instances.html" xlink:title="syst_instances" target="_top">
<polygon fill="#ffffff" stroke="transparent" points="1063.5,-416 1063.5,-474 1201.5,-474 1201.5,-416 1063.5,-416"/>
<polygon fill="#f5f5f5" stroke="transparent" points="1063.5,-452 1063.5,-474 1201.5,-474 1201.5,-452 1063.5,-452"/>
<polygon fill="none" stroke="black" points="1063.5,-452 1063.5,-474 1201.5,-474 1201.5,-452 1063.5,-452"/>
<text text-anchor="start" x="1068.5" y="-461.2" font-family="Helvetica,sans-Serif" font-weight="bold" font-size="11.00">syst_instances</text>
<text text-anchor="start" x="1166.5" y="-460.2" font-family="Helvetica,sans-Serif" font-size="11.00">[table]</text>
<polygon fill="none" stroke="black" points="1063.5,-434 1063.5,-452 1201.5,-452 1201.5,-434 1063.5,-434"/>
<text text-anchor="start" x="1066.5" y="-440.2" font-family="Helvetica,sans-Serif" font-size="11.00">...</text>
<polygon fill="#ffffff" stroke="transparent" points="1063.5,-416 1063.5,-434 1125.5,-434 1125.5,-416 1063.5,-416"/>
<polygon fill="none" stroke="black" points="1063.5,-416 1063.5,-434 1125.5,-434 1125.5,-416 1063.5,-416"/>
<text text-anchor="start" x="1066.5" y="-422.2" font-family="Helvetica,sans-Serif" font-size="11.00">&lt; 5</text>
<polygon fill="#ffffff" stroke="transparent" points="1125.5,-416 1125.5,-434 1158.5,-434 1158.5,-416 1125.5,-416"/>
<polygon fill="none" stroke="black" points="1125.5,-416 1125.5,-434 1158.5,-434 1158.5,-416 1125.5,-416"/>
<text text-anchor="start" x="1148.5" y="-422.2" font-family="Helvetica,sans-Serif" font-size="11.00"> &#160;</text>
<polygon fill="#ffffff" stroke="transparent" points="1158.5,-416 1158.5,-434 1201.5,-434 1201.5,-416 1158.5,-416"/>
<polygon fill="none" stroke="black" points="1158.5,-416 1158.5,-434 1201.5,-434 1201.5,-416 1158.5,-416"/>
<text text-anchor="start" x="1182.5" y="-422.2" font-family="Helvetica,sans-Serif" font-size="11.00">4 &gt;</text>
</a>
</g>
</g>
<!-- syst_instances&#45;&gt;syst_enum_items -->
<g id="edge14" class="edge">
<title>syst_instances:w&#45;&gt;syst_enum_items:e</title>
<path fill="none" stroke="black" d="M1047.94,-442.57C909.61,-439.96 856.78,-481.29 727,-418 684.59,-397.32 651.01,-353.72 630.79,-323.12"/>
<polygon fill="black" stroke="black" points="1054.5,-442.76 1062.39,-446.6 1058.5,-442.88 1062.5,-443 1062.5,-443 1062.5,-443 1058.5,-442.88 1062.61,-439.4 1054.5,-442.76 1054.5,-442.76"/>
<ellipse fill="none" stroke="black" cx="1051.3" cy="-442.67" rx="3.2" ry="3.2"/>
</g>
<!-- syst_instances&#45;&gt;syst_enum_items -->
<g id="edge15" class="edge">
<title>syst_instances:w&#45;&gt;syst_enum_items:e</title>
<path fill="none" stroke="black" d="M1047.94,-443.82C909.61,-452.96 856.78,-494.29 727,-431 680.14,-408.15 644.06,-357.33 624.87,-323.26"/>
<polygon fill="black" stroke="black" points="1054.51,-443.45 1062.7,-446.59 1058.51,-443.23 1062.5,-443 1062.5,-443 1062.5,-443 1058.51,-443.23 1062.3,-439.41 1054.51,-443.45 1054.51,-443.45"/>
<ellipse fill="none" stroke="black" cx="1051.32" cy="-443.63" rx="3.2" ry="3.2"/>
</g>
<!-- syst_instances&#45;&gt;syst_owners -->
<g id="edge16" class="edge">
<title>syst_instances:w&#45;&gt;syst_owners:e</title>
<path fill="none" stroke="black" d="M1047.93,-441.94C994.67,-433.84 986.63,-382 925,-382"/>
<polygon fill="black" stroke="black" points="1054.52,-442.42 1062.24,-446.59 1058.51,-442.71 1062.5,-443 1062.5,-443 1062.5,-443 1058.51,-442.71 1062.76,-439.41 1054.52,-442.42 1054.52,-442.42"/>
<ellipse fill="none" stroke="black" cx="1051.33" cy="-442.19" rx="3.2" ry="3.2"/>
</g>
<!-- syst_menus -->
<g id="node11" class="node">
<title>syst_menus</title>
<g id="a_node11"><a xlink:href="../../tables/syst_menus.html" xlink:title="syst_menus" target="_top">
<polygon fill="#ffffff" stroke="transparent" points="804,-37 804,-95 922,-95 922,-37 804,-37"/>
<polygon fill="#f5f5f5" stroke="transparent" points="804,-73 804,-95 922,-95 922,-73 804,-73"/>
<polygon fill="none" stroke="black" points="804,-73 804,-95 922,-95 922,-73 804,-73"/>
<text text-anchor="start" x="809" y="-82.2" font-family="Helvetica,sans-Serif" font-weight="bold" font-size="11.00">syst_menus</text>
<text text-anchor="start" x="887" y="-81.2" font-family="Helvetica,sans-Serif" font-size="11.00">[table]</text>
<polygon fill="none" stroke="black" points="804,-55 804,-73 922,-73 922,-55 804,-55"/>
<text text-anchor="start" x="807" y="-61.2" font-family="Helvetica,sans-Serif" font-size="11.00">...</text>
<polygon fill="#ffffff" stroke="transparent" points="804,-37 804,-55 856,-55 856,-37 804,-37"/>
<polygon fill="none" stroke="black" points="804,-37 804,-55 856,-55 856,-37 804,-37"/>
<text text-anchor="start" x="807" y="-43.2" font-family="Helvetica,sans-Serif" font-size="11.00">&lt; 1</text>
<polygon fill="#ffffff" stroke="transparent" points="856,-37 856,-55 884,-55 884,-37 856,-37"/>
<polygon fill="none" stroke="black" points="856,-37 856,-55 884,-55 884,-37 856,-37"/>
<text text-anchor="start" x="874" y="-43.2" font-family="Helvetica,sans-Serif" font-size="11.00"> &#160;</text>
<polygon fill="#ffffff" stroke="transparent" points="884,-37 884,-55 922,-55 922,-37 884,-37"/>
<polygon fill="none" stroke="black" points="884,-37 884,-55 922,-55 922,-37 884,-37"/>
<text text-anchor="start" x="903" y="-43.2" font-family="Helvetica,sans-Serif" font-size="11.00">2 &gt;</text>
</a>
</g>
</g>
<!-- syst_menus&#45;&gt;syst_enum_items -->
<g id="edge17" class="edge">
<title>syst_menus:w&#45;&gt;syst_enum_items:e</title>
<path fill="none" stroke="black" d="M788.61,-64.91C697.07,-76.51 642.22,-196.86 620.42,-256.65"/>
<polygon fill="black" stroke="black" points="795.02,-64.5 803.23,-67.59 799.01,-64.25 803,-64 803,-64 803,-64 799.01,-64.25 802.77,-60.41 795.02,-64.5 795.02,-64.5"/>
<ellipse fill="none" stroke="black" cx="791.82" cy="-64.7" rx="3.2" ry="3.2"/>
</g>
</g>
</svg>
