<?xml version="1.0" encoding="UTF-8" standalone="no"?>
<!DOCTYPE svg PUBLIC "-//W3C//DTD SVG 1.1//EN"
 "http://www.w3.org/Graphics/SVG/1.1/DTD/svg11.dtd">
<!-- Generated by graphviz version 2.43.0 (0)
 -->
<!-- Title: oneDegreeRelationshipsDiagram Pages: 1 -->
<svg width="558pt" height="423pt"
 viewBox="0.00 0.00 558.00 423.00" xmlns="http://www.w3.org/2000/svg" xmlns:xlink="http://www.w3.org/1999/xlink">
<g id="graph0" class="graph" transform="scale(1 1) rotate(0) translate(4 419)">
<title>oneDegreeRelationshipsDiagram</title>
<polygon fill="#ffffff" stroke="transparent" points="-4,4 -4,-419 554,-419 554,4 -4,4"/>
<text text-anchor="middle" x="71.5" y="-7.2" font-family="Helvetica,sans-Serif" font-size="11.00">Generated by SchemaSpy</text>
<!-- syst_hierarchy_items -->
<g id="node1" class="node">
<title>syst_hierarchy_items</title>
<g id="a_node1"><a xlink:href="../../tables/syst_hierarchy_items.html" xlink:title="syst_hierarchy_items" target="_top">
<polygon fill="#ffffff" stroke="transparent" points="251,-37 251,-411 542,-411 542,-37 251,-37"/>
<polygon fill="#f5f5f5" stroke="transparent" points="253.5,-387 253.5,-409 540.5,-409 540.5,-387 253.5,-387"/>
<polygon fill="none" stroke="black" points="253.5,-387 253.5,-409 540.5,-409 540.5,-387 253.5,-387"/>
<text text-anchor="start" x="258.5" y="-396.2" font-family="Helvetica,sans-Serif" font-weight="bold" font-size="11.00">syst_hierarchy_items</text>
<text text-anchor="start" x="505.5" y="-395.2" font-family="Helvetica,sans-Serif" font-size="11.00">[table]</text>
<polygon fill="none" stroke="black" points="253.5,-365 253.5,-387 447.5,-387 447.5,-365 253.5,-365"/>
<image xlink:href="../../images/primaryKeys.png" width="11px" height="12px" preserveAspectRatio="xMinYMin meet" x="258.5" y="-382"/>
<text text-anchor="start" x="273.5" y="-373.2" font-family="Helvetica,sans-Serif" font-size="11.00">id</text>
<polygon fill="none" stroke="black" points="447.5,-365 447.5,-387 540.5,-387 540.5,-365 447.5,-365"/>
<text text-anchor="start" x="450.5" y="-373.2" font-family="Helvetica,sans-Serif" font-size="11.00">uuid[2147483647]</text>
<polygon fill="#ffffff" stroke="transparent" points="253.5,-343 253.5,-365 447.5,-365 447.5,-343 253.5,-343"/>
<polygon fill="none" stroke="black" points="253.5,-343 253.5,-365 447.5,-365 447.5,-343 253.5,-343"/>
<text text-anchor="start" x="273.5" y="-351.2" font-family="Helvetica,sans-Serif" font-size="11.00">internal_name</text>
<polygon fill="none" stroke="black" points="447.5,-343 447.5,-365 540.5,-365 540.5,-343 447.5,-343"/>
<text text-anchor="start" x="450.5" y="-351.2" font-family="Helvetica,sans-Serif" font-size="11.00">text[2147483647]</text>
<polygon fill="#ffffff" stroke="transparent" points="253.5,-321 253.5,-343 447.5,-343 447.5,-321 253.5,-321"/>
<polygon fill="none" stroke="black" points="253.5,-321 253.5,-343 447.5,-343 447.5,-321 253.5,-321"/>
<text text-anchor="start" x="273.5" y="-329.2" font-family="Helvetica,sans-Serif" font-size="11.00">display_name</text>
<polygon fill="none" stroke="black" points="447.5,-321 447.5,-343 540.5,-343 540.5,-321 447.5,-321"/>
<text text-anchor="start" x="450.5" y="-329.2" font-family="Helvetica,sans-Serif" font-size="11.00">text[2147483647]</text>
<polygon fill="none" stroke="black" points="253.5,-299 253.5,-321 447.5,-321 447.5,-299 253.5,-299"/>
<text text-anchor="start" x="273.5" y="-307.2" font-family="Helvetica,sans-Serif" font-size="11.00">external_name</text>
<polygon fill="none" stroke="black" points="447.5,-299 447.5,-321 540.5,-321 540.5,-299 447.5,-299"/>
<text text-anchor="start" x="450.5" y="-307.2" font-family="Helvetica,sans-Serif" font-size="11.00">text[2147483647]</text>
<polygon fill="#ffffff" stroke="transparent" points="253.5,-277 253.5,-299 447.5,-299 447.5,-277 253.5,-277"/>
<polygon fill="none" stroke="black" points="253.5,-277 253.5,-299 447.5,-299 447.5,-277 253.5,-277"/>
<image xlink:href="../../images/foreignKeys.png" width="11px" height="12px" preserveAspectRatio="xMinYMin meet" x="258.5" y="-294"/>
<text text-anchor="start" x="273.5" y="-285.2" font-family="Helvetica,sans-Serif" font-size="11.00">hierarchy_id</text>
<polygon fill="none" stroke="black" points="447.5,-277 447.5,-299 540.5,-299 540.5,-277 447.5,-277"/>
<text text-anchor="start" x="450.5" y="-285.2" font-family="Helvetica,sans-Serif" font-size="11.00">uuid[2147483647]</text>
<polygon fill="#ffffff" stroke="transparent" points="253.5,-255 253.5,-277 447.5,-277 447.5,-255 253.5,-255"/>
<polygon fill="none" stroke="black" points="253.5,-255 253.5,-277 447.5,-277 447.5,-255 253.5,-255"/>
<text text-anchor="start" x="273.5" y="-263.2" font-family="Helvetica,sans-Serif" font-size="11.00">hierarchy_depth</text>
<polygon fill="none" stroke="black" points="447.5,-255 447.5,-277 540.5,-277 540.5,-255 447.5,-255"/>
<text text-anchor="start" x="450.5" y="-263.2" font-family="Helvetica,sans-Serif" font-size="11.00">int2[5]</text>
<polygon fill="none" stroke="black" points="253.5,-233 253.5,-255 447.5,-255 447.5,-233 253.5,-233"/>
<text text-anchor="start" x="273.5" y="-241.2" font-family="Helvetica,sans-Serif" font-size="11.00">required</text>
<polygon fill="none" stroke="black" points="447.5,-233 447.5,-255 540.5,-255 540.5,-233 447.5,-233"/>
<text text-anchor="start" x="450.5" y="-241.2" font-family="Helvetica,sans-Serif" font-size="11.00">bool[1]</text>
<polygon fill="none" stroke="black" points="253.5,-211 253.5,-233 447.5,-233 447.5,-211 253.5,-211"/>
<text text-anchor="start" x="273.5" y="-219.2" font-family="Helvetica,sans-Serif" font-size="11.00">allow_leaf_nodes</text>
<polygon fill="none" stroke="black" points="447.5,-211 447.5,-233 540.5,-233 540.5,-211 447.5,-211"/>
<text text-anchor="start" x="450.5" y="-219.2" font-family="Helvetica,sans-Serif" font-size="11.00">bool[1]</text>
<polygon fill="none" stroke="black" points="253.5,-189 253.5,-211 447.5,-211 447.5,-189 253.5,-189"/>
<text text-anchor="start" x="273.5" y="-197.2" font-family="Helvetica,sans-Serif" font-size="11.00">diag_timestamp_created</text>
<polygon fill="none" stroke="black" points="447.5,-189 447.5,-211 540.5,-211 540.5,-189 447.5,-189"/>
<text text-anchor="start" x="450.5" y="-197.2" font-family="Helvetica,sans-Serif" font-size="11.00">timestamptz[35,6]</text>
<polygon fill="none" stroke="black" points="253.5,-167 253.5,-189 447.5,-189 447.5,-167 253.5,-167"/>
<text text-anchor="start" x="273.5" y="-175.2" font-family="Helvetica,sans-Serif" font-size="11.00">diag_role_created</text>
<polygon fill="none" stroke="black" points="447.5,-167 447.5,-189 540.5,-189 540.5,-167 447.5,-167"/>
<text text-anchor="start" x="450.5" y="-175.2" font-family="Helvetica,sans-Serif" font-size="11.00">text[2147483647]</text>
<polygon fill="none" stroke="black" points="253.5,-145 253.5,-167 447.5,-167 447.5,-145 253.5,-145"/>
<text text-anchor="start" x="273.5" y="-153.2" font-family="Helvetica,sans-Serif" font-size="11.00">diag_timestamp_modified</text>
<polygon fill="none" stroke="black" points="447.5,-145 447.5,-167 540.5,-167 540.5,-145 447.5,-145"/>
<text text-anchor="start" x="450.5" y="-153.2" font-family="Helvetica,sans-Serif" font-size="11.00">timestamptz[35,6]</text>
<polygon fill="none" stroke="black" points="253.5,-123 253.5,-145 447.5,-145 447.5,-123 253.5,-123"/>
<text text-anchor="start" x="273.5" y="-131.2" font-family="Helvetica,sans-Serif" font-size="11.00">diag_wallclock_modified</text>
<polygon fill="none" stroke="black" points="447.5,-123 447.5,-145 540.5,-145 540.5,-123 447.5,-123"/>
<text text-anchor="start" x="450.5" y="-131.2" font-family="Helvetica,sans-Serif" font-size="11.00">timestamptz[35,6]</text>
<polygon fill="none" stroke="black" points="253.5,-101 253.5,-123 447.5,-123 447.5,-101 253.5,-101"/>
<text text-anchor="start" x="273.5" y="-109.2" font-family="Helvetica,sans-Serif" font-size="11.00">diag_role_modified</text>
<polygon fill="none" stroke="black" points="447.5,-101 447.5,-123 540.5,-123 540.5,-101 447.5,-101"/>
<text text-anchor="start" x="450.5" y="-109.2" font-family="Helvetica,sans-Serif" font-size="11.00">text[2147483647]</text>
<polygon fill="none" stroke="black" points="253.5,-79 253.5,-101 447.5,-101 447.5,-79 253.5,-79"/>
<text text-anchor="start" x="273.5" y="-87.2" font-family="Helvetica,sans-Serif" font-size="11.00">diag_row_version</text>
<polygon fill="none" stroke="black" points="447.5,-79 447.5,-101 540.5,-101 540.5,-79 447.5,-79"/>
<text text-anchor="start" x="450.5" y="-87.2" font-family="Helvetica,sans-Serif" font-size="11.00">int8[19]</text>
<polygon fill="none" stroke="black" points="253.5,-57 253.5,-79 447.5,-79 447.5,-57 253.5,-57"/>
<text text-anchor="start" x="273.5" y="-65.2" font-family="Helvetica,sans-Serif" font-size="11.00">diag_update_count</text>
<polygon fill="none" stroke="black" points="447.5,-57 447.5,-79 540.5,-79 540.5,-57 447.5,-57"/>
<text text-anchor="start" x="450.5" y="-65.2" font-family="Helvetica,sans-Serif" font-size="11.00">int8[19]</text>
<polygon fill="#ffffff" stroke="transparent" points="253.5,-39 253.5,-57 354.5,-57 354.5,-39 253.5,-39"/>
<polygon fill="none" stroke="black" points="253.5,-39 253.5,-57 354.5,-57 354.5,-39 253.5,-39"/>
<text text-anchor="start" x="256.5" y="-45.2" font-family="Helvetica,sans-Serif" font-size="11.00">&lt; 1</text>
<polygon fill="#ffffff" stroke="transparent" points="354.5,-39 354.5,-57 447.5,-57 447.5,-39 354.5,-39"/>
<polygon fill="none" stroke="black" points="354.5,-39 354.5,-57 447.5,-57 447.5,-39 354.5,-39"/>
<text text-anchor="start" x="437.5" y="-45.2" font-family="Helvetica,sans-Serif" font-size="11.00"> &#160;</text>
<polygon fill="#ffffff" stroke="transparent" points="447.5,-39 447.5,-57 540.5,-57 540.5,-39 447.5,-39"/>
<polygon fill="none" stroke="black" points="447.5,-39 447.5,-57 540.5,-57 540.5,-39 447.5,-39"/>
<text text-anchor="start" x="521.5" y="-45.2" font-family="Helvetica,sans-Serif" font-size="11.00">0 &gt;</text>
<polygon fill="none" stroke="black" stroke-width="2" points="252,-38 252,-410 541,-410 541,-38 252,-38"/>
</a>
</g>
</g>
<!-- syst_hierarchies -->
<g id="node2" class="node">
<title>syst_hierarchies</title>
<g id="a_node2"><a xlink:href="../../tables/syst_hierarchies.html" xlink:title="syst_hierarchies" target="_top">
<polygon fill="#ffffff" stroke="transparent" points="8,-153 8,-321 202,-321 202,-153 8,-153"/>
<polygon fill="#f5f5f5" stroke="transparent" points="8,-299 8,-321 202,-321 202,-299 8,-299"/>
<polygon fill="none" stroke="black" points="8,-299 8,-321 202,-321 202,-299 8,-299"/>
<text text-anchor="start" x="13" y="-308.2" font-family="Helvetica,sans-Serif" font-weight="bold" font-size="11.00">syst_hierarchies</text>
<text text-anchor="start" x="167" y="-307.2" font-family="Helvetica,sans-Serif" font-size="11.00">[table]</text>
<polygon fill="none" stroke="black" points="8,-277 8,-299 202,-299 202,-277 8,-277"/>
<image xlink:href="../../images/primaryKeys.png" width="11px" height="12px" preserveAspectRatio="xMinYMin meet" x="13" y="-294"/>
<text text-anchor="start" x="28" y="-285.2" font-family="Helvetica,sans-Serif" font-size="11.00">id</text>
<polygon fill="#ffffff" stroke="transparent" points="8,-255 8,-277 202,-277 202,-255 8,-255"/>
<polygon fill="none" stroke="black" points="8,-255 8,-277 202,-277 202,-255 8,-255"/>
<text text-anchor="start" x="28" y="-263.2" font-family="Helvetica,sans-Serif" font-size="11.00">internal_name</text>
<polygon fill="#ffffff" stroke="transparent" points="8,-233 8,-255 202,-255 202,-233 8,-233"/>
<polygon fill="none" stroke="black" points="8,-233 8,-255 202,-255 202,-233 8,-233"/>
<text text-anchor="start" x="28" y="-241.2" font-family="Helvetica,sans-Serif" font-size="11.00">display_name</text>
<polygon fill="none" stroke="black" points="8,-211 8,-233 202,-233 202,-211 8,-211"/>
<image xlink:href="../../images/foreignKeys.png" width="11px" height="12px" preserveAspectRatio="xMinYMin meet" x="13" y="-228"/>
<text text-anchor="start" x="28" y="-219.2" font-family="Helvetica,sans-Serif" font-size="11.00">hierarchy_type_id</text>
<polygon fill="none" stroke="black" points="8,-189 8,-211 202,-211 202,-189 8,-189"/>
<image xlink:href="../../images/foreignKeys.png" width="11px" height="12px" preserveAspectRatio="xMinYMin meet" x="13" y="-206"/>
<text text-anchor="start" x="28" y="-197.2" font-family="Helvetica,sans-Serif" font-size="11.00">hierarchy_state_id</text>
<polygon fill="none" stroke="black" points="8,-171 8,-189 202,-189 202,-171 8,-171"/>
<text text-anchor="start" x="11" y="-177.2" font-family="Helvetica,sans-Serif" font-size="11.00">...</text>
<polygon fill="#ffffff" stroke="transparent" points="8,-153 8,-171 98,-171 98,-153 8,-153"/>
<polygon fill="none" stroke="black" points="8,-153 8,-171 98,-171 98,-153 8,-153"/>
<text text-anchor="start" x="11" y="-159.2" font-family="Helvetica,sans-Serif" font-size="11.00">&lt; 2</text>
<polygon fill="#ffffff" stroke="transparent" points="98,-153 98,-171 145,-171 145,-153 98,-153"/>
<polygon fill="none" stroke="black" points="98,-153 98,-171 145,-171 145,-153 98,-153"/>
<text text-anchor="start" x="135" y="-159.2" font-family="Helvetica,sans-Serif" font-size="11.00"> &#160;</text>
<polygon fill="#ffffff" stroke="transparent" points="145,-153 145,-171 202,-171 202,-153 145,-153"/>
<polygon fill="none" stroke="black" points="145,-153 145,-171 202,-171 202,-153 145,-153"/>
<text text-anchor="start" x="183" y="-159.2" font-family="Helvetica,sans-Serif" font-size="11.00">1 &gt;</text>
</a>
</g>
</g>
<!-- syst_hierarchy_items&#45;&gt;syst_hierarchies -->
<g id="edge1" class="edge">
<title>syst_hierarchy_items:w&#45;&gt;syst_hierarchies:e</title>
<path fill="none" stroke="black" d="M237.84,-288C226.41,-288 219.16,-288 203,-288"/>
<polygon fill="black" stroke="black" points="244.5,-288 252.5,-291.6 248.5,-288 252.5,-288 252.5,-288 252.5,-288 248.5,-288 252.5,-284.4 244.5,-288 244.5,-288"/>
<ellipse fill="none" stroke="black" cx="241.3" cy="-288" rx="3.2" ry="3.2"/>
</g>
</g>
</svg>
