<?xml version="1.0" encoding="UTF-8" standalone="no"?>
<!DOCTYPE svg PUBLIC "-//W3C//DTD SVG 1.1//EN"
 "http://www.w3.org/Graphics/SVG/1.1/DTD/svg11.dtd">
<!-- Generated by graphviz version 2.43.0 (0)
 -->
<!-- Title: twoDegreesRelationshipsDiagram Pages: 1 -->
<svg width="762pt" height="423pt"
 viewBox="0.00 0.00 762.00 423.00" xmlns="http://www.w3.org/2000/svg" xmlns:xlink="http://www.w3.org/1999/xlink">
<g id="graph0" class="graph" transform="scale(1 1) rotate(0) translate(4 419)">
<title>twoDegreesRelationshipsDiagram</title>
<polygon fill="#ffffff" stroke="transparent" points="-4,4 -4,-419 758,-419 758,4 -4,4"/>
<text text-anchor="middle" x="71.5" y="-7.2" font-family="Helvetica,sans-Serif" font-size="11.00">Generated by SchemaSpy</text>
<!-- syst_hierarchies -->
<g id="node1" class="node">
<title>syst_hierarchies</title>
<g id="a_node1"><a xlink:href="../../tables/syst_hierarchies.html" xlink:title="syst_hierarchies" target="_top">
<polygon fill="#ffffff" stroke="transparent" points="212,-153 212,-321 406,-321 406,-153 212,-153"/>
<polygon fill="#f5f5f5" stroke="transparent" points="212,-299 212,-321 406,-321 406,-299 212,-299"/>
<polygon fill="none" stroke="black" points="212,-299 212,-321 406,-321 406,-299 212,-299"/>
<text text-anchor="start" x="217" y="-308.2" font-family="Helvetica,sans-Serif" font-weight="bold" font-size="11.00">syst_hierarchies</text>
<text text-anchor="start" x="371" y="-307.2" font-family="Helvetica,sans-Serif" font-size="11.00">[table]</text>
<polygon fill="none" stroke="black" points="212,-277 212,-299 406,-299 406,-277 212,-277"/>
<image xlink:href="../../images/primaryKeys.png" width="11px" height="12px" preserveAspectRatio="xMinYMin meet" x="217" y="-294"/>
<text text-anchor="start" x="232" y="-285.2" font-family="Helvetica,sans-Serif" font-size="11.00">id</text>
<polygon fill="#ffffff" stroke="transparent" points="212,-255 212,-277 406,-277 406,-255 212,-255"/>
<polygon fill="none" stroke="black" points="212,-255 212,-277 406,-277 406,-255 212,-255"/>
<text text-anchor="start" x="232" y="-263.2" font-family="Helvetica,sans-Serif" font-size="11.00">internal_name</text>
<polygon fill="#ffffff" stroke="transparent" points="212,-233 212,-255 406,-255 406,-233 212,-233"/>
<polygon fill="none" stroke="black" points="212,-233 212,-255 406,-255 406,-233 212,-233"/>
<text text-anchor="start" x="232" y="-241.2" font-family="Helvetica,sans-Serif" font-size="11.00">display_name</text>
<polygon fill="none" stroke="black" points="212,-211 212,-233 406,-233 406,-211 212,-211"/>
<image xlink:href="../../images/foreignKeys.png" width="11px" height="12px" preserveAspectRatio="xMinYMin meet" x="217" y="-228"/>
<text text-anchor="start" x="232" y="-219.2" font-family="Helvetica,sans-Serif" font-size="11.00">hierarchy_type_id</text>
<polygon fill="none" stroke="black" points="212,-189 212,-211 406,-211 406,-189 212,-189"/>
<image xlink:href="../../images/foreignKeys.png" width="11px" height="12px" preserveAspectRatio="xMinYMin meet" x="217" y="-206"/>
<text text-anchor="start" x="232" y="-197.2" font-family="Helvetica,sans-Serif" font-size="11.00">hierarchy_state_id</text>
<polygon fill="none" stroke="black" points="212,-171 212,-189 406,-189 406,-171 212,-171"/>
<text text-anchor="start" x="215" y="-177.2" font-family="Helvetica,sans-Serif" font-size="11.00">...</text>
<polygon fill="#ffffff" stroke="transparent" points="212,-153 212,-171 302,-171 302,-153 212,-153"/>
<polygon fill="none" stroke="black" points="212,-153 212,-171 302,-171 302,-153 212,-153"/>
<text text-anchor="start" x="215" y="-159.2" font-family="Helvetica,sans-Serif" font-size="11.00">&lt; 2</text>
<polygon fill="#ffffff" stroke="transparent" points="302,-153 302,-171 349,-171 349,-153 302,-153"/>
<polygon fill="none" stroke="black" points="302,-153 302,-171 349,-171 349,-153 302,-153"/>
<text text-anchor="start" x="339" y="-159.2" font-family="Helvetica,sans-Serif" font-size="11.00"> &#160;</text>
<polygon fill="#ffffff" stroke="transparent" points="349,-153 349,-171 406,-171 406,-153 349,-153"/>
<polygon fill="none" stroke="black" points="349,-153 349,-171 406,-171 406,-153 349,-153"/>
<text text-anchor="start" x="387" y="-159.2" font-family="Helvetica,sans-Serif" font-size="11.00">1 &gt;</text>
</a>
</g>
</g>
<!-- syst_enum_items -->
<g id="node2" class="node">
<title>syst_enum_items</title>
<g id="a_node2"><a xlink:href="../../tables/syst_enum_items.html" xlink:title="syst_enum_items" target="_top">
<polygon fill="#ffffff" stroke="transparent" points="8,-184 8,-242 163,-242 163,-184 8,-184"/>
<polygon fill="#f5f5f5" stroke="transparent" points="8.5,-220 8.5,-242 163.5,-242 163.5,-220 8.5,-220"/>
<polygon fill="none" stroke="black" points="8.5,-220 8.5,-242 163.5,-242 163.5,-220 8.5,-220"/>
<text text-anchor="start" x="13.5" y="-229.2" font-family="Helvetica,sans-Serif" font-weight="bold" font-size="11.00">syst_enum_items</text>
<text text-anchor="start" x="128.5" y="-228.2" font-family="Helvetica,sans-Serif" font-size="11.00">[table]</text>
<polygon fill="none" stroke="black" points="8.5,-202 8.5,-220 163.5,-220 163.5,-202 8.5,-202"/>
<text text-anchor="start" x="11.5" y="-208.2" font-family="Helvetica,sans-Serif" font-size="11.00">...</text>
<polygon fill="#ffffff" stroke="transparent" points="8.5,-184 8.5,-202 76.5,-202 76.5,-184 8.5,-184"/>
<polygon fill="none" stroke="black" points="8.5,-184 8.5,-202 76.5,-202 76.5,-184 8.5,-184"/>
<text text-anchor="start" x="11.5" y="-190.2" font-family="Helvetica,sans-Serif" font-size="11.00">&lt; 2</text>
<polygon fill="#ffffff" stroke="transparent" points="76.5,-184 76.5,-202 112.5,-202 112.5,-184 76.5,-184"/>
<polygon fill="none" stroke="black" points="76.5,-184 76.5,-202 112.5,-202 112.5,-184 76.5,-184"/>
<text text-anchor="start" x="102.5" y="-190.2" font-family="Helvetica,sans-Serif" font-size="11.00"> &#160;</text>
<polygon fill="#ffffff" stroke="transparent" points="112.5,-184 112.5,-202 163.5,-202 163.5,-184 112.5,-184"/>
<polygon fill="none" stroke="black" points="112.5,-184 112.5,-202 163.5,-202 163.5,-184 112.5,-184"/>
<text text-anchor="start" x="138.5" y="-190.2" font-family="Helvetica,sans-Serif" font-size="11.00">10 &gt;</text>
</a>
</g>
</g>
<!-- syst_hierarchies&#45;&gt;syst_enum_items -->
<g id="edge1" class="edge">
<title>syst_hierarchies:w&#45;&gt;syst_enum_items:e</title>
<path fill="none" stroke="black" d="M196.74,-202.02C186.27,-205.19 179.93,-211 164.5,-211"/>
<polygon fill="black" stroke="black" points="203.08,-201.12 211.5,-203.56 207.04,-200.56 211,-200 211,-200 211,-200 207.04,-200.56 210.5,-196.44 203.08,-201.12 203.08,-201.12"/>
<ellipse fill="none" stroke="black" cx="199.91" cy="-201.57" rx="3.2" ry="3.2"/>
</g>
<!-- syst_hierarchies&#45;&gt;syst_enum_items -->
<g id="edge2" class="edge">
<title>syst_hierarchies:w&#45;&gt;syst_enum_items:e</title>
<path fill="none" stroke="black" d="M196.74,-219.98C186.27,-216.81 179.93,-211 164.5,-211"/>
<polygon fill="black" stroke="black" points="203.08,-220.88 210.5,-225.56 207.04,-221.44 211,-222 211,-222 211,-222 207.04,-221.44 211.5,-218.44 203.08,-220.88 203.08,-220.88"/>
<ellipse fill="none" stroke="black" cx="199.91" cy="-220.43" rx="3.2" ry="3.2"/>
</g>
<!-- syst_hierarchy_items -->
<g id="node3" class="node">
<title>syst_hierarchy_items</title>
<g id="a_node3"><a xlink:href="../../tables/syst_hierarchy_items.html" xlink:title="syst_hierarchy_items" target="_top">
<polygon fill="#ffffff" stroke="transparent" points="455,-37 455,-411 746,-411 746,-37 455,-37"/>
<polygon fill="#f5f5f5" stroke="transparent" points="457.5,-387 457.5,-409 744.5,-409 744.5,-387 457.5,-387"/>
<polygon fill="none" stroke="black" points="457.5,-387 457.5,-409 744.5,-409 744.5,-387 457.5,-387"/>
<text text-anchor="start" x="462.5" y="-396.2" font-family="Helvetica,sans-Serif" font-weight="bold" font-size="11.00">syst_hierarchy_items</text>
<text text-anchor="start" x="709.5" y="-395.2" font-family="Helvetica,sans-Serif" font-size="11.00">[table]</text>
<polygon fill="none" stroke="black" points="457.5,-365 457.5,-387 651.5,-387 651.5,-365 457.5,-365"/>
<image xlink:href="../../images/primaryKeys.png" width="11px" height="12px" preserveAspectRatio="xMinYMin meet" x="462.5" y="-382"/>
<text text-anchor="start" x="477.5" y="-373.2" font-family="Helvetica,sans-Serif" font-size="11.00">id</text>
<polygon fill="none" stroke="black" points="651.5,-365 651.5,-387 744.5,-387 744.5,-365 651.5,-365"/>
<text text-anchor="start" x="654.5" y="-373.2" font-family="Helvetica,sans-Serif" font-size="11.00">uuid[2147483647]</text>
<polygon fill="#ffffff" stroke="transparent" points="457.5,-343 457.5,-365 651.5,-365 651.5,-343 457.5,-343"/>
<polygon fill="none" stroke="black" points="457.5,-343 457.5,-365 651.5,-365 651.5,-343 457.5,-343"/>
<text text-anchor="start" x="477.5" y="-351.2" font-family="Helvetica,sans-Serif" font-size="11.00">internal_name</text>
<polygon fill="none" stroke="black" points="651.5,-343 651.5,-365 744.5,-365 744.5,-343 651.5,-343"/>
<text text-anchor="start" x="654.5" y="-351.2" font-family="Helvetica,sans-Serif" font-size="11.00">text[2147483647]</text>
<polygon fill="#ffffff" stroke="transparent" points="457.5,-321 457.5,-343 651.5,-343 651.5,-321 457.5,-321"/>
<polygon fill="none" stroke="black" points="457.5,-321 457.5,-343 651.5,-343 651.5,-321 457.5,-321"/>
<text text-anchor="start" x="477.5" y="-329.2" font-family="Helvetica,sans-Serif" font-size="11.00">display_name</text>
<polygon fill="none" stroke="black" points="651.5,-321 651.5,-343 744.5,-343 744.5,-321 651.5,-321"/>
<text text-anchor="start" x="654.5" y="-329.2" font-family="Helvetica,sans-Serif" font-size="11.00">text[2147483647]</text>
<polygon fill="none" stroke="black" points="457.5,-299 457.5,-321 651.5,-321 651.5,-299 457.5,-299"/>
<text text-anchor="start" x="477.5" y="-307.2" font-family="Helvetica,sans-Serif" font-size="11.00">external_name</text>
<polygon fill="none" stroke="black" points="651.5,-299 651.5,-321 744.5,-321 744.5,-299 651.5,-299"/>
<text text-anchor="start" x="654.5" y="-307.2" font-family="Helvetica,sans-Serif" font-size="11.00">text[2147483647]</text>
<polygon fill="#ffffff" stroke="transparent" points="457.5,-277 457.5,-299 651.5,-299 651.5,-277 457.5,-277"/>
<polygon fill="none" stroke="black" points="457.5,-277 457.5,-299 651.5,-299 651.5,-277 457.5,-277"/>
<image xlink:href="../../images/foreignKeys.png" width="11px" height="12px" preserveAspectRatio="xMinYMin meet" x="462.5" y="-294"/>
<text text-anchor="start" x="477.5" y="-285.2" font-family="Helvetica,sans-Serif" font-size="11.00">hierarchy_id</text>
<polygon fill="none" stroke="black" points="651.5,-277 651.5,-299 744.5,-299 744.5,-277 651.5,-277"/>
<text text-anchor="start" x="654.5" y="-285.2" font-family="Helvetica,sans-Serif" font-size="11.00">uuid[2147483647]</text>
<polygon fill="#ffffff" stroke="transparent" points="457.5,-255 457.5,-277 651.5,-277 651.5,-255 457.5,-255"/>
<polygon fill="none" stroke="black" points="457.5,-255 457.5,-277 651.5,-277 651.5,-255 457.5,-255"/>
<text text-anchor="start" x="477.5" y="-263.2" font-family="Helvetica,sans-Serif" font-size="11.00">hierarchy_depth</text>
<polygon fill="none" stroke="black" points="651.5,-255 651.5,-277 744.5,-277 744.5,-255 651.5,-255"/>
<text text-anchor="start" x="654.5" y="-263.2" font-family="Helvetica,sans-Serif" font-size="11.00">int2[5]</text>
<polygon fill="none" stroke="black" points="457.5,-233 457.5,-255 651.5,-255 651.5,-233 457.5,-233"/>
<text text-anchor="start" x="477.5" y="-241.2" font-family="Helvetica,sans-Serif" font-size="11.00">required</text>
<polygon fill="none" stroke="black" points="651.5,-233 651.5,-255 744.5,-255 744.5,-233 651.5,-233"/>
<text text-anchor="start" x="654.5" y="-241.2" font-family="Helvetica,sans-Serif" font-size="11.00">bool[1]</text>
<polygon fill="none" stroke="black" points="457.5,-211 457.5,-233 651.5,-233 651.5,-211 457.5,-211"/>
<text text-anchor="start" x="477.5" y="-219.2" font-family="Helvetica,sans-Serif" font-size="11.00">allow_leaf_nodes</text>
<polygon fill="none" stroke="black" points="651.5,-211 651.5,-233 744.5,-233 744.5,-211 651.5,-211"/>
<text text-anchor="start" x="654.5" y="-219.2" font-family="Helvetica,sans-Serif" font-size="11.00">bool[1]</text>
<polygon fill="none" stroke="black" points="457.5,-189 457.5,-211 651.5,-211 651.5,-189 457.5,-189"/>
<text text-anchor="start" x="477.5" y="-197.2" font-family="Helvetica,sans-Serif" font-size="11.00">diag_timestamp_created</text>
<polygon fill="none" stroke="black" points="651.5,-189 651.5,-211 744.5,-211 744.5,-189 651.5,-189"/>
<text text-anchor="start" x="654.5" y="-197.2" font-family="Helvetica,sans-Serif" font-size="11.00">timestamptz[35,6]</text>
<polygon fill="none" stroke="black" points="457.5,-167 457.5,-189 651.5,-189 651.5,-167 457.5,-167"/>
<text text-anchor="start" x="477.5" y="-175.2" font-family="Helvetica,sans-Serif" font-size="11.00">diag_role_created</text>
<polygon fill="none" stroke="black" points="651.5,-167 651.5,-189 744.5,-189 744.5,-167 651.5,-167"/>
<text text-anchor="start" x="654.5" y="-175.2" font-family="Helvetica,sans-Serif" font-size="11.00">text[2147483647]</text>
<polygon fill="none" stroke="black" points="457.5,-145 457.5,-167 651.5,-167 651.5,-145 457.5,-145"/>
<text text-anchor="start" x="477.5" y="-153.2" font-family="Helvetica,sans-Serif" font-size="11.00">diag_timestamp_modified</text>
<polygon fill="none" stroke="black" points="651.5,-145 651.5,-167 744.5,-167 744.5,-145 651.5,-145"/>
<text text-anchor="start" x="654.5" y="-153.2" font-family="Helvetica,sans-Serif" font-size="11.00">timestamptz[35,6]</text>
<polygon fill="none" stroke="black" points="457.5,-123 457.5,-145 651.5,-145 651.5,-123 457.5,-123"/>
<text text-anchor="start" x="477.5" y="-131.2" font-family="Helvetica,sans-Serif" font-size="11.00">diag_wallclock_modified</text>
<polygon fill="none" stroke="black" points="651.5,-123 651.5,-145 744.5,-145 744.5,-123 651.5,-123"/>
<text text-anchor="start" x="654.5" y="-131.2" font-family="Helvetica,sans-Serif" font-size="11.00">timestamptz[35,6]</text>
<polygon fill="none" stroke="black" points="457.5,-101 457.5,-123 651.5,-123 651.5,-101 457.5,-101"/>
<text text-anchor="start" x="477.5" y="-109.2" font-family="Helvetica,sans-Serif" font-size="11.00">diag_role_modified</text>
<polygon fill="none" stroke="black" points="651.5,-101 651.5,-123 744.5,-123 744.5,-101 651.5,-101"/>
<text text-anchor="start" x="654.5" y="-109.2" font-family="Helvetica,sans-Serif" font-size="11.00">text[2147483647]</text>
<polygon fill="none" stroke="black" points="457.5,-79 457.5,-101 651.5,-101 651.5,-79 457.5,-79"/>
<text text-anchor="start" x="477.5" y="-87.2" font-family="Helvetica,sans-Serif" font-size="11.00">diag_row_version</text>
<polygon fill="none" stroke="black" points="651.5,-79 651.5,-101 744.5,-101 744.5,-79 651.5,-79"/>
<text text-anchor="start" x="654.5" y="-87.2" font-family="Helvetica,sans-Serif" font-size="11.00">int8[19]</text>
<polygon fill="none" stroke="black" points="457.5,-57 457.5,-79 651.5,-79 651.5,-57 457.5,-57"/>
<text text-anchor="start" x="477.5" y="-65.2" font-family="Helvetica,sans-Serif" font-size="11.00">diag_update_count</text>
<polygon fill="none" stroke="black" points="651.5,-57 651.5,-79 744.5,-79 744.5,-57 651.5,-57"/>
<text text-anchor="start" x="654.5" y="-65.2" font-family="Helvetica,sans-Serif" font-size="11.00">int8[19]</text>
<polygon fill="#ffffff" stroke="transparent" points="457.5,-39 457.5,-57 558.5,-57 558.5,-39 457.5,-39"/>
<polygon fill="none" stroke="black" points="457.5,-39 457.5,-57 558.5,-57 558.5,-39 457.5,-39"/>
<text text-anchor="start" x="460.5" y="-45.2" font-family="Helvetica,sans-Serif" font-size="11.00">&lt; 1</text>
<polygon fill="#ffffff" stroke="transparent" points="558.5,-39 558.5,-57 651.5,-57 651.5,-39 558.5,-39"/>
<polygon fill="none" stroke="black" points="558.5,-39 558.5,-57 651.5,-57 651.5,-39 558.5,-39"/>
<text text-anchor="start" x="641.5" y="-45.2" font-family="Helvetica,sans-Serif" font-size="11.00"> &#160;</text>
<polygon fill="#ffffff" stroke="transparent" points="651.5,-39 651.5,-57 744.5,-57 744.5,-39 651.5,-39"/>
<polygon fill="none" stroke="black" points="651.5,-39 651.5,-57 744.5,-57 744.5,-39 651.5,-39"/>
<text text-anchor="start" x="725.5" y="-45.2" font-family="Helvetica,sans-Serif" font-size="11.00">0 &gt;</text>
<polygon fill="none" stroke="black" stroke-width="2" points="456,-38 456,-410 745,-410 745,-38 456,-38"/>
</a>
</g>
</g>
<!-- syst_hierarchy_items&#45;&gt;syst_hierarchies -->
<g id="edge3" class="edge">
<title>syst_hierarchy_items:w&#45;&gt;syst_hierarchies:e</title>
<path fill="none" stroke="black" d="M441.84,-288C430.41,-288 423.16,-288 407,-288"/>
<polygon fill="black" stroke="black" points="448.5,-288 456.5,-291.6 452.5,-288 456.5,-288 456.5,-288 456.5,-288 452.5,-288 456.5,-284.4 448.5,-288 448.5,-288"/>
<ellipse fill="none" stroke="black" cx="445.3" cy="-288" rx="3.2" ry="3.2"/>
</g>
</g>
</svg>
