<?xml version="1.0" encoding="UTF-8" standalone="no"?>
<!DOCTYPE svg PUBLIC "-//W3C//DTD SVG 1.1//EN"
 "http://www.w3.org/Graphics/SVG/1.1/DTD/svg11.dtd">
<!-- Generated by graphviz version 2.43.0 (0)
 -->
<!-- Title: oneDegreeRelationshipsDiagram Pages: 1 -->
<svg width="596pt" height="511pt"
 viewBox="0.00 0.00 596.00 511.00" xmlns="http://www.w3.org/2000/svg" xmlns:xlink="http://www.w3.org/1999/xlink">
<g id="graph0" class="graph" transform="scale(1 1) rotate(0) translate(4 507)">
<title>oneDegreeRelationshipsDiagram</title>
<polygon fill="#ffffff" stroke="transparent" points="-4,4 -4,-507 592,-507 592,4 -4,4"/>
<text text-anchor="middle" x="71.5" y="-7.2" font-family="Helvetica,sans-Serif" font-size="11.00">Generated by SchemaSpy</text>
<!-- syst_owner_password_rules -->
<g id="node1" class="node">
<title>syst_owner_password_rules</title>
<g id="a_node1"><a xlink:href="../../tables/syst_owner_password_rules.html" xlink:title="syst_owner_password_rules" target="_top">
<polygon fill="#ffffff" stroke="transparent" points="251,-37 251,-499 580,-499 580,-37 251,-37"/>
<polygon fill="#f5f5f5" stroke="transparent" points="253.5,-475 253.5,-497 578.5,-497 578.5,-475 253.5,-475"/>
<polygon fill="none" stroke="black" points="253.5,-475 253.5,-497 578.5,-497 578.5,-475 253.5,-475"/>
<text text-anchor="start" x="258.5" y="-484.2" font-family="Helvetica,sans-Serif" font-weight="bold" font-size="11.00">syst_owner_password_rules</text>
<text text-anchor="start" x="543.5" y="-483.2" font-family="Helvetica,sans-Serif" font-size="11.00">[table]</text>
<polygon fill="none" stroke="black" points="253.5,-453 253.5,-475 460.5,-475 460.5,-453 253.5,-453"/>
<image xlink:href="../../images/primaryKeys.png" width="11px" height="12px" preserveAspectRatio="xMinYMin meet" x="258.5" y="-470"/>
<text text-anchor="start" x="273.5" y="-461.2" font-family="Helvetica,sans-Serif" font-size="11.00">id</text>
<polygon fill="none" stroke="black" points="460.5,-453 460.5,-475 578.5,-475 578.5,-453 460.5,-453"/>
<text text-anchor="start" x="463.5" y="-461.2" font-family="Helvetica,sans-Serif" font-size="11.00">uuid[2147483647]</text>
<polygon fill="#ffffff" stroke="transparent" points="253.5,-431 253.5,-453 460.5,-453 460.5,-431 253.5,-431"/>
<polygon fill="none" stroke="black" points="253.5,-431 253.5,-453 460.5,-453 460.5,-431 253.5,-431"/>
<image xlink:href="../../images/foreignKeys.png" width="11px" height="12px" preserveAspectRatio="xMinYMin meet" x="258.5" y="-448"/>
<text text-anchor="start" x="273.5" y="-439.2" font-family="Helvetica,sans-Serif" font-size="11.00">owner_id</text>
<polygon fill="none" stroke="black" points="460.5,-431 460.5,-453 578.5,-453 578.5,-431 460.5,-431"/>
<text text-anchor="start" x="463.5" y="-439.2" font-family="Helvetica,sans-Serif" font-size="11.00">uuid[2147483647]</text>
<polygon fill="none" stroke="black" points="253.5,-409 253.5,-431 460.5,-431 460.5,-409 253.5,-409"/>
<text text-anchor="start" x="273.5" y="-417.2" font-family="Helvetica,sans-Serif" font-size="11.00">password_length</text>
<polygon fill="none" stroke="black" points="460.5,-409 460.5,-431 578.5,-431 578.5,-409 460.5,-409"/>
<text text-anchor="start" x="463.5" y="-417.2" font-family="Helvetica,sans-Serif" font-size="11.00">int4range[2147483647]</text>
<polygon fill="none" stroke="black" points="253.5,-387 253.5,-409 460.5,-409 460.5,-387 253.5,-387"/>
<text text-anchor="start" x="273.5" y="-395.2" font-family="Helvetica,sans-Serif" font-size="11.00">max_age</text>
<polygon fill="none" stroke="black" points="460.5,-387 460.5,-409 578.5,-409 578.5,-387 460.5,-387"/>
<text text-anchor="start" x="463.5" y="-395.2" font-family="Helvetica,sans-Serif" font-size="11.00">interval[49,6]</text>
<polygon fill="none" stroke="black" points="253.5,-365 253.5,-387 460.5,-387 460.5,-365 253.5,-365"/>
<text text-anchor="start" x="273.5" y="-373.2" font-family="Helvetica,sans-Serif" font-size="11.00">require_upper_case</text>
<polygon fill="none" stroke="black" points="460.5,-365 460.5,-387 578.5,-387 578.5,-365 460.5,-365"/>
<text text-anchor="start" x="463.5" y="-373.2" font-family="Helvetica,sans-Serif" font-size="11.00">int4[10]</text>
<polygon fill="none" stroke="black" points="253.5,-343 253.5,-365 460.5,-365 460.5,-343 253.5,-343"/>
<text text-anchor="start" x="273.5" y="-351.2" font-family="Helvetica,sans-Serif" font-size="11.00">require_lower_case</text>
<polygon fill="none" stroke="black" points="460.5,-343 460.5,-365 578.5,-365 578.5,-343 460.5,-343"/>
<text text-anchor="start" x="463.5" y="-351.2" font-family="Helvetica,sans-Serif" font-size="11.00">int4[10]</text>
<polygon fill="none" stroke="black" points="253.5,-321 253.5,-343 460.5,-343 460.5,-321 253.5,-321"/>
<text text-anchor="start" x="273.5" y="-329.2" font-family="Helvetica,sans-Serif" font-size="11.00">require_numbers</text>
<polygon fill="none" stroke="black" points="460.5,-321 460.5,-343 578.5,-343 578.5,-321 460.5,-321"/>
<text text-anchor="start" x="463.5" y="-329.2" font-family="Helvetica,sans-Serif" font-size="11.00">int4[10]</text>
<polygon fill="none" stroke="black" points="253.5,-299 253.5,-321 460.5,-321 460.5,-299 253.5,-299"/>
<text text-anchor="start" x="273.5" y="-307.2" font-family="Helvetica,sans-Serif" font-size="11.00">require_symbols</text>
<polygon fill="none" stroke="black" points="460.5,-299 460.5,-321 578.5,-321 578.5,-299 460.5,-299"/>
<text text-anchor="start" x="463.5" y="-307.2" font-family="Helvetica,sans-Serif" font-size="11.00">int4[10]</text>
<polygon fill="none" stroke="black" points="253.5,-277 253.5,-299 460.5,-299 460.5,-277 253.5,-277"/>
<text text-anchor="start" x="273.5" y="-285.2" font-family="Helvetica,sans-Serif" font-size="11.00">disallow_recently_used</text>
<polygon fill="none" stroke="black" points="460.5,-277 460.5,-299 578.5,-299 578.5,-277 460.5,-277"/>
<text text-anchor="start" x="463.5" y="-285.2" font-family="Helvetica,sans-Serif" font-size="11.00">int4[10]</text>
<polygon fill="none" stroke="black" points="253.5,-255 253.5,-277 460.5,-277 460.5,-255 253.5,-255"/>
<text text-anchor="start" x="273.5" y="-263.2" font-family="Helvetica,sans-Serif" font-size="11.00">disallow_compromised</text>
<polygon fill="none" stroke="black" points="460.5,-255 460.5,-277 578.5,-277 578.5,-255 460.5,-255"/>
<text text-anchor="start" x="463.5" y="-263.2" font-family="Helvetica,sans-Serif" font-size="11.00">bool[1]</text>
<polygon fill="none" stroke="black" points="253.5,-233 253.5,-255 460.5,-255 460.5,-233 253.5,-233"/>
<text text-anchor="start" x="273.5" y="-241.2" font-family="Helvetica,sans-Serif" font-size="11.00">require_mfa</text>
<polygon fill="none" stroke="black" points="460.5,-233 460.5,-255 578.5,-255 578.5,-233 460.5,-233"/>
<text text-anchor="start" x="463.5" y="-241.2" font-family="Helvetica,sans-Serif" font-size="11.00">bool[1]</text>
<polygon fill="none" stroke="black" points="253.5,-211 253.5,-233 460.5,-233 460.5,-211 253.5,-211"/>
<text text-anchor="start" x="273.5" y="-219.2" font-family="Helvetica,sans-Serif" font-size="11.00">allowed_mfa_types</text>
<polygon fill="none" stroke="black" points="460.5,-211 460.5,-233 578.5,-233 578.5,-211 460.5,-211"/>
<text text-anchor="start" x="463.5" y="-219.2" font-family="Helvetica,sans-Serif" font-size="11.00">_text[2147483647]</text>
<polygon fill="none" stroke="black" points="253.5,-189 253.5,-211 460.5,-211 460.5,-189 253.5,-189"/>
<text text-anchor="start" x="273.5" y="-197.2" font-family="Helvetica,sans-Serif" font-size="11.00">diag_timestamp_created</text>
<polygon fill="none" stroke="black" points="460.5,-189 460.5,-211 578.5,-211 578.5,-189 460.5,-189"/>
<text text-anchor="start" x="463.5" y="-197.2" font-family="Helvetica,sans-Serif" font-size="11.00">timestamptz[35,6]</text>
<polygon fill="none" stroke="black" points="253.5,-167 253.5,-189 460.5,-189 460.5,-167 253.5,-167"/>
<text text-anchor="start" x="273.5" y="-175.2" font-family="Helvetica,sans-Serif" font-size="11.00">diag_role_created</text>
<polygon fill="none" stroke="black" points="460.5,-167 460.5,-189 578.5,-189 578.5,-167 460.5,-167"/>
<text text-anchor="start" x="463.5" y="-175.2" font-family="Helvetica,sans-Serif" font-size="11.00">text[2147483647]</text>
<polygon fill="none" stroke="black" points="253.5,-145 253.5,-167 460.5,-167 460.5,-145 253.5,-145"/>
<text text-anchor="start" x="273.5" y="-153.2" font-family="Helvetica,sans-Serif" font-size="11.00">diag_timestamp_modified</text>
<polygon fill="none" stroke="black" points="460.5,-145 460.5,-167 578.5,-167 578.5,-145 460.5,-145"/>
<text text-anchor="start" x="463.5" y="-153.2" font-family="Helvetica,sans-Serif" font-size="11.00">timestamptz[35,6]</text>
<polygon fill="none" stroke="black" points="253.5,-123 253.5,-145 460.5,-145 460.5,-123 253.5,-123"/>
<text text-anchor="start" x="273.5" y="-131.2" font-family="Helvetica,sans-Serif" font-size="11.00">diag_wallclock_modified</text>
<polygon fill="none" stroke="black" points="460.5,-123 460.5,-145 578.5,-145 578.5,-123 460.5,-123"/>
<text text-anchor="start" x="463.5" y="-131.2" font-family="Helvetica,sans-Serif" font-size="11.00">timestamptz[35,6]</text>
<polygon fill="none" stroke="black" points="253.5,-101 253.5,-123 460.5,-123 460.5,-101 253.5,-101"/>
<text text-anchor="start" x="273.5" y="-109.2" font-family="Helvetica,sans-Serif" font-size="11.00">diag_role_modified</text>
<polygon fill="none" stroke="black" points="460.5,-101 460.5,-123 578.5,-123 578.5,-101 460.5,-101"/>
<text text-anchor="start" x="463.5" y="-109.2" font-family="Helvetica,sans-Serif" font-size="11.00">text[2147483647]</text>
<polygon fill="none" stroke="black" points="253.5,-79 253.5,-101 460.5,-101 460.5,-79 253.5,-79"/>
<text text-anchor="start" x="273.5" y="-87.2" font-family="Helvetica,sans-Serif" font-size="11.00">diag_row_version</text>
<polygon fill="none" stroke="black" points="460.5,-79 460.5,-101 578.5,-101 578.5,-79 460.5,-79"/>
<text text-anchor="start" x="463.5" y="-87.2" font-family="Helvetica,sans-Serif" font-size="11.00">int8[19]</text>
<polygon fill="none" stroke="black" points="253.5,-57 253.5,-79 460.5,-79 460.5,-57 253.5,-57"/>
<text text-anchor="start" x="273.5" y="-65.2" font-family="Helvetica,sans-Serif" font-size="11.00">diag_update_count</text>
<polygon fill="none" stroke="black" points="460.5,-57 460.5,-79 578.5,-79 578.5,-57 460.5,-57"/>
<text text-anchor="start" x="463.5" y="-65.2" font-family="Helvetica,sans-Serif" font-size="11.00">int8[19]</text>
<polygon fill="#ffffff" stroke="transparent" points="253.5,-39 253.5,-57 361.5,-57 361.5,-39 253.5,-39"/>
<polygon fill="none" stroke="black" points="253.5,-39 253.5,-57 361.5,-57 361.5,-39 253.5,-39"/>
<text text-anchor="start" x="256.5" y="-45.2" font-family="Helvetica,sans-Serif" font-size="11.00">&lt; 1</text>
<polygon fill="#ffffff" stroke="transparent" points="361.5,-39 361.5,-57 460.5,-57 460.5,-39 361.5,-39"/>
<polygon fill="none" stroke="black" points="361.5,-39 361.5,-57 460.5,-57 460.5,-39 361.5,-39"/>
<text text-anchor="start" x="450.5" y="-45.2" font-family="Helvetica,sans-Serif" font-size="11.00"> &#160;</text>
<polygon fill="#ffffff" stroke="transparent" points="460.5,-39 460.5,-57 578.5,-57 578.5,-39 460.5,-39"/>
<polygon fill="none" stroke="black" points="460.5,-39 460.5,-57 578.5,-57 578.5,-39 460.5,-39"/>
<text text-anchor="start" x="559.5" y="-45.2" font-family="Helvetica,sans-Serif" font-size="11.00">0 &gt;</text>
<polygon fill="none" stroke="black" stroke-width="2" points="252,-38 252,-498 579,-498 579,-38 252,-38"/>
</a>
</g>
</g>
<!-- syst_owners -->
<g id="node2" class="node">
<title>syst_owners</title>
<g id="a_node2"><a xlink:href="../../tables/syst_owners.html" xlink:title="syst_owners" target="_top">
<polygon fill="#ffffff" stroke="transparent" points="8,-329 8,-475 202,-475 202,-329 8,-329"/>
<polygon fill="#f5f5f5" stroke="transparent" points="8,-453 8,-475 202,-475 202,-453 8,-453"/>
<polygon fill="none" stroke="black" points="8,-453 8,-475 202,-475 202,-453 8,-453"/>
<text text-anchor="start" x="13" y="-462.2" font-family="Helvetica,sans-Serif" font-weight="bold" font-size="11.00">syst_owners</text>
<text text-anchor="start" x="167" y="-461.2" font-family="Helvetica,sans-Serif" font-size="11.00">[table]</text>
<polygon fill="none" stroke="black" points="8,-431 8,-453 202,-453 202,-431 8,-431"/>
<image xlink:href="../../images/primaryKeys.png" width="11px" height="12px" preserveAspectRatio="xMinYMin meet" x="13" y="-448"/>
<text text-anchor="start" x="28" y="-439.2" font-family="Helvetica,sans-Serif" font-size="11.00">id</text>
<polygon fill="#ffffff" stroke="transparent" points="8,-409 8,-431 202,-431 202,-409 8,-409"/>
<polygon fill="none" stroke="black" points="8,-409 8,-431 202,-431 202,-409 8,-409"/>
<text text-anchor="start" x="28" y="-417.2" font-family="Helvetica,sans-Serif" font-size="11.00">internal_name</text>
<polygon fill="#ffffff" stroke="transparent" points="8,-387 8,-409 202,-409 202,-387 8,-387"/>
<polygon fill="none" stroke="black" points="8,-387 8,-409 202,-409 202,-387 8,-387"/>
<text text-anchor="start" x="28" y="-395.2" font-family="Helvetica,sans-Serif" font-size="11.00">display_name</text>
<polygon fill="none" stroke="black" points="8,-365 8,-387 202,-387 202,-365 8,-365"/>
<image xlink:href="../../images/foreignKeys.png" width="11px" height="12px" preserveAspectRatio="xMinYMin meet" x="13" y="-382"/>
<text text-anchor="start" x="28" y="-373.2" font-family="Helvetica,sans-Serif" font-size="11.00">owner_state_id</text>
<polygon fill="none" stroke="black" points="8,-347 8,-365 202,-365 202,-347 8,-347"/>
<text text-anchor="start" x="11" y="-353.2" font-family="Helvetica,sans-Serif" font-size="11.00">...</text>
<polygon fill="#ffffff" stroke="transparent" points="8,-329 8,-347 98,-347 98,-329 8,-329"/>
<polygon fill="none" stroke="black" points="8,-329 8,-347 98,-347 98,-329 8,-329"/>
<text text-anchor="start" x="11" y="-335.2" font-family="Helvetica,sans-Serif" font-size="11.00">&lt; 1</text>
<polygon fill="#ffffff" stroke="transparent" points="98,-329 98,-347 145,-347 145,-329 98,-329"/>
<polygon fill="none" stroke="black" points="98,-329 98,-347 145,-347 145,-329 98,-329"/>
<text text-anchor="start" x="135" y="-335.2" font-family="Helvetica,sans-Serif" font-size="11.00"> &#160;</text>
<polygon fill="#ffffff" stroke="transparent" points="145,-329 145,-347 202,-347 202,-329 145,-329"/>
<polygon fill="none" stroke="black" points="145,-329 145,-347 202,-347 202,-329 145,-329"/>
<text text-anchor="start" x="183" y="-335.2" font-family="Helvetica,sans-Serif" font-size="11.00">4 &gt;</text>
</a>
</g>
</g>
<!-- syst_owner_password_rules&#45;&gt;syst_owners -->
<g id="edge1" class="edge">
<title>syst_owner_password_rules:w&#45;&gt;syst_owners:e</title>
<path fill="none" stroke="black" d="M242.05,-442C227.99,-442 221.05,-442 203,-442"/>
<polygon fill="black" stroke="black" points="251.7,-438 251.7,-446 250.1,-446 250.1,-438 251.7,-438"/>
<polyline fill="none" stroke="black" points="252.5,-442 248.5,-442 "/>
<ellipse fill="none" stroke="black" cx="245.3" cy="-442" rx="3.2" ry="3.2"/>
</g>
</g>
</svg>
