<?xml version="1.0" encoding="UTF-8" standalone="no"?>
<!DOCTYPE svg PUBLIC "-//W3C//DTD SVG 1.1//EN"
 "http://www.w3.org/Graphics/SVG/1.1/DTD/svg11.dtd">
<!-- Generated by graphviz version 2.43.0 (0)
 -->
<!-- Title: twoDegreesRelationshipsDiagram Pages: 1 -->
<svg width="786pt" height="575pt"
 viewBox="0.00 0.00 786.00 575.00" xmlns="http://www.w3.org/2000/svg" xmlns:xlink="http://www.w3.org/1999/xlink">
<g id="graph0" class="graph" transform="scale(1 1) rotate(0) translate(4 571)">
<title>twoDegreesRelationshipsDiagram</title>
<polygon fill="#ffffff" stroke="transparent" points="-4,4 -4,-571 782,-571 782,4 -4,4"/>
<text text-anchor="middle" x="71.5" y="-7.2" font-family="Helvetica,sans-Serif" font-size="11.00">Generated by SchemaSpy</text>
<!-- syst_actions -->
<g id="node1" class="node">
<title>syst_actions</title>
<g id="a_node1"><a xlink:href="../../tables/syst_actions.html" xlink:title="syst_actions" target="_top">
<polygon fill="#ffffff" stroke="transparent" points="372,-373 372,-563 566,-563 566,-373 372,-373"/>
<polygon fill="#f5f5f5" stroke="transparent" points="372,-541 372,-563 566,-563 566,-541 372,-541"/>
<polygon fill="none" stroke="black" points="372,-541 372,-563 566,-563 566,-541 372,-541"/>
<text text-anchor="start" x="377" y="-550.2" font-family="Helvetica,sans-Serif" font-weight="bold" font-size="11.00">syst_actions</text>
<text text-anchor="start" x="531" y="-549.2" font-family="Helvetica,sans-Serif" font-size="11.00">[table]</text>
<polygon fill="none" stroke="black" points="372,-519 372,-541 566,-541 566,-519 372,-519"/>
<image xlink:href="../../images/primaryKeys.png" width="11px" height="12px" preserveAspectRatio="xMinYMin meet" x="377" y="-536"/>
<text text-anchor="start" x="392" y="-527.2" font-family="Helvetica,sans-Serif" font-size="11.00">id</text>
<polygon fill="#ffffff" stroke="transparent" points="372,-497 372,-519 566,-519 566,-497 372,-497"/>
<polygon fill="none" stroke="black" points="372,-497 372,-519 566,-519 566,-497 372,-497"/>
<text text-anchor="start" x="392" y="-505.2" font-family="Helvetica,sans-Serif" font-size="11.00">internal_name</text>
<polygon fill="#ffffff" stroke="transparent" points="372,-475 372,-497 566,-497 566,-475 372,-475"/>
<polygon fill="none" stroke="black" points="372,-475 372,-497 566,-497 566,-475 372,-475"/>
<text text-anchor="start" x="392" y="-483.2" font-family="Helvetica,sans-Serif" font-size="11.00">display_name</text>
<polygon fill="#ffffff" stroke="transparent" points="372,-453 372,-475 566,-475 566,-453 372,-453"/>
<polygon fill="none" stroke="black" points="372,-453 372,-475 566,-475 566,-453 372,-453"/>
<image xlink:href="../../images/foreignKeys.png" width="11px" height="12px" preserveAspectRatio="xMinYMin meet" x="377" y="-470"/>
<text text-anchor="start" x="392" y="-461.2" font-family="Helvetica,sans-Serif" font-size="11.00">action_group_id</text>
<polygon fill="#ffffff" stroke="transparent" points="372,-431 372,-453 566,-453 566,-431 372,-431"/>
<polygon fill="none" stroke="black" points="372,-431 372,-453 566,-453 566,-431 372,-431"/>
<text text-anchor="start" x="392" y="-439.2" font-family="Helvetica,sans-Serif" font-size="11.00">command</text>
<polygon fill="#ffffff" stroke="transparent" points="372,-409 372,-431 566,-431 566,-409 372,-409"/>
<polygon fill="none" stroke="black" points="372,-409 372,-431 566,-431 566,-409 372,-409"/>
<text text-anchor="start" x="392" y="-417.2" font-family="Helvetica,sans-Serif" font-size="11.00">command_search</text>
<polygon fill="none" stroke="black" points="372,-391 372,-409 566,-409 566,-391 372,-391"/>
<text text-anchor="start" x="375" y="-397.2" font-family="Helvetica,sans-Serif" font-size="11.00">...</text>
<polygon fill="#ffffff" stroke="transparent" points="372,-373 372,-391 462,-391 462,-373 372,-373"/>
<polygon fill="none" stroke="black" points="372,-373 372,-391 462,-391 462,-373 372,-373"/>
<text text-anchor="start" x="375" y="-379.2" font-family="Helvetica,sans-Serif" font-size="11.00">&lt; 1</text>
<polygon fill="#ffffff" stroke="transparent" points="462,-373 462,-391 509,-391 509,-373 462,-373"/>
<polygon fill="none" stroke="black" points="462,-373 462,-391 509,-391 509,-373 462,-373"/>
<text text-anchor="start" x="499" y="-379.2" font-family="Helvetica,sans-Serif" font-size="11.00"> &#160;</text>
<polygon fill="#ffffff" stroke="transparent" points="509,-373 509,-391 566,-391 566,-373 509,-373"/>
<polygon fill="none" stroke="black" points="509,-373 509,-391 566,-391 566,-373 509,-373"/>
<text text-anchor="start" x="547" y="-379.2" font-family="Helvetica,sans-Serif" font-size="11.00">1 &gt;</text>
</a>
</g>
</g>
<!-- syst_action_groups -->
<g id="node2" class="node">
<title>syst_action_groups</title>
<g id="a_node2"><a xlink:href="../../tables/syst_action_groups.html" xlink:title="syst_action_groups" target="_top">
<polygon fill="#ffffff" stroke="transparent" points="8,-37 8,-499 323,-499 323,-37 8,-37"/>
<polygon fill="#f5f5f5" stroke="transparent" points="10.5,-475 10.5,-497 321.5,-497 321.5,-475 10.5,-475"/>
<polygon fill="none" stroke="black" points="10.5,-475 10.5,-497 321.5,-497 321.5,-475 10.5,-475"/>
<text text-anchor="start" x="15.5" y="-484.2" font-family="Helvetica,sans-Serif" font-weight="bold" font-size="11.00">syst_action_groups</text>
<text text-anchor="start" x="286.5" y="-483.2" font-family="Helvetica,sans-Serif" font-size="11.00">[table]</text>
<polygon fill="none" stroke="black" points="10.5,-453 10.5,-475 204.5,-475 204.5,-453 10.5,-453"/>
<image xlink:href="../../images/primaryKeys.png" width="11px" height="12px" preserveAspectRatio="xMinYMin meet" x="15.5" y="-470"/>
<text text-anchor="start" x="30.5" y="-461.2" font-family="Helvetica,sans-Serif" font-size="11.00">id</text>
<polygon fill="none" stroke="black" points="204.5,-453 204.5,-475 321.5,-475 321.5,-453 204.5,-453"/>
<text text-anchor="start" x="207.5" y="-461.2" font-family="Helvetica,sans-Serif" font-size="11.00">uuid[2147483647]</text>
<polygon fill="#ffffff" stroke="transparent" points="10.5,-431 10.5,-453 204.5,-453 204.5,-431 10.5,-431"/>
<polygon fill="none" stroke="black" points="10.5,-431 10.5,-453 204.5,-453 204.5,-431 10.5,-431"/>
<text text-anchor="start" x="30.5" y="-439.2" font-family="Helvetica,sans-Serif" font-size="11.00">internal_name</text>
<polygon fill="none" stroke="black" points="204.5,-431 204.5,-453 321.5,-453 321.5,-431 204.5,-431"/>
<text text-anchor="start" x="207.5" y="-439.2" font-family="Helvetica,sans-Serif" font-size="11.00">text[2147483647]</text>
<polygon fill="#ffffff" stroke="transparent" points="10.5,-409 10.5,-431 204.5,-431 204.5,-409 10.5,-409"/>
<polygon fill="none" stroke="black" points="10.5,-409 10.5,-431 204.5,-431 204.5,-409 10.5,-409"/>
<text text-anchor="start" x="30.5" y="-417.2" font-family="Helvetica,sans-Serif" font-size="11.00">display_name</text>
<polygon fill="none" stroke="black" points="204.5,-409 204.5,-431 321.5,-431 321.5,-409 204.5,-409"/>
<text text-anchor="start" x="207.5" y="-417.2" font-family="Helvetica,sans-Serif" font-size="11.00">text[2147483647]</text>
<polygon fill="none" stroke="black" points="10.5,-387 10.5,-409 204.5,-409 204.5,-387 10.5,-387"/>
<text text-anchor="start" x="30.5" y="-395.2" font-family="Helvetica,sans-Serif" font-size="11.00">external_name</text>
<polygon fill="none" stroke="black" points="204.5,-387 204.5,-409 321.5,-409 321.5,-387 204.5,-387"/>
<text text-anchor="start" x="207.5" y="-395.2" font-family="Helvetica,sans-Serif" font-size="11.00">text[2147483647]</text>
<polygon fill="#ffffff" stroke="transparent" points="10.5,-365 10.5,-387 204.5,-387 204.5,-365 10.5,-365"/>
<polygon fill="none" stroke="black" points="10.5,-365 10.5,-387 204.5,-387 204.5,-365 10.5,-365"/>
<text text-anchor="start" x="30.5" y="-373.2" font-family="Helvetica,sans-Serif" font-size="11.00">command</text>
<polygon fill="none" stroke="black" points="204.5,-365 204.5,-387 321.5,-387 321.5,-365 204.5,-365"/>
<text text-anchor="start" x="207.5" y="-373.2" font-family="Helvetica,sans-Serif" font-size="11.00">text[2147483647]</text>
<polygon fill="none" stroke="black" points="10.5,-343 10.5,-365 204.5,-365 204.5,-343 10.5,-343"/>
<text text-anchor="start" x="30.5" y="-351.2" font-family="Helvetica,sans-Serif" font-size="11.00">command_config</text>
<polygon fill="none" stroke="black" points="204.5,-343 204.5,-365 321.5,-365 321.5,-343 204.5,-343"/>
<text text-anchor="start" x="207.5" y="-351.2" font-family="Helvetica,sans-Serif" font-size="11.00">regconfig[2147483647]</text>
<polygon fill="none" stroke="black" points="10.5,-321 10.5,-343 204.5,-343 204.5,-321 10.5,-321"/>
<text text-anchor="start" x="30.5" y="-329.2" font-family="Helvetica,sans-Serif" font-size="11.00">command_aliases</text>
<polygon fill="none" stroke="black" points="204.5,-321 204.5,-343 321.5,-343 321.5,-321 204.5,-321"/>
<text text-anchor="start" x="207.5" y="-329.2" font-family="Helvetica,sans-Serif" font-size="11.00">_text[2147483647]</text>
<polygon fill="#ffffff" stroke="transparent" points="10.5,-299 10.5,-321 204.5,-321 204.5,-299 10.5,-299"/>
<polygon fill="none" stroke="black" points="10.5,-299 10.5,-321 204.5,-321 204.5,-299 10.5,-299"/>
<text text-anchor="start" x="30.5" y="-307.2" font-family="Helvetica,sans-Serif" font-size="11.00">command_search</text>
<polygon fill="none" stroke="black" points="204.5,-299 204.5,-321 321.5,-321 321.5,-299 204.5,-299"/>
<text text-anchor="start" x="207.5" y="-307.2" font-family="Helvetica,sans-Serif" font-size="11.00">tsvector[2147483647]</text>
<polygon fill="none" stroke="black" points="10.5,-277 10.5,-299 204.5,-299 204.5,-277 10.5,-277"/>
<text text-anchor="start" x="30.5" y="-285.2" font-family="Helvetica,sans-Serif" font-size="11.00">syst_defined</text>
<polygon fill="none" stroke="black" points="204.5,-277 204.5,-299 321.5,-299 321.5,-277 204.5,-277"/>
<text text-anchor="start" x="207.5" y="-285.2" font-family="Helvetica,sans-Serif" font-size="11.00">bool[1]</text>
<polygon fill="none" stroke="black" points="10.5,-255 10.5,-277 204.5,-277 204.5,-255 10.5,-255"/>
<text text-anchor="start" x="30.5" y="-263.2" font-family="Helvetica,sans-Serif" font-size="11.00">user_maintainable</text>
<polygon fill="none" stroke="black" points="204.5,-255 204.5,-277 321.5,-277 321.5,-255 204.5,-255"/>
<text text-anchor="start" x="207.5" y="-263.2" font-family="Helvetica,sans-Serif" font-size="11.00">bool[1]</text>
<polygon fill="none" stroke="black" points="10.5,-233 10.5,-255 204.5,-255 204.5,-233 10.5,-233"/>
<text text-anchor="start" x="30.5" y="-241.2" font-family="Helvetica,sans-Serif" font-size="11.00">syst_description</text>
<polygon fill="none" stroke="black" points="204.5,-233 204.5,-255 321.5,-255 321.5,-233 204.5,-233"/>
<text text-anchor="start" x="207.5" y="-241.2" font-family="Helvetica,sans-Serif" font-size="11.00">text[2147483647]</text>
<polygon fill="none" stroke="black" points="10.5,-211 10.5,-233 204.5,-233 204.5,-211 10.5,-211"/>
<text text-anchor="start" x="30.5" y="-219.2" font-family="Helvetica,sans-Serif" font-size="11.00">user_description</text>
<polygon fill="none" stroke="black" points="204.5,-211 204.5,-233 321.5,-233 321.5,-211 204.5,-211"/>
<text text-anchor="start" x="207.5" y="-219.2" font-family="Helvetica,sans-Serif" font-size="11.00">text[2147483647]</text>
<polygon fill="none" stroke="black" points="10.5,-189 10.5,-211 204.5,-211 204.5,-189 10.5,-189"/>
<text text-anchor="start" x="30.5" y="-197.2" font-family="Helvetica,sans-Serif" font-size="11.00">diag_timestamp_created</text>
<polygon fill="none" stroke="black" points="204.5,-189 204.5,-211 321.5,-211 321.5,-189 204.5,-189"/>
<text text-anchor="start" x="207.5" y="-197.2" font-family="Helvetica,sans-Serif" font-size="11.00">timestamptz[35,6]</text>
<polygon fill="none" stroke="black" points="10.5,-167 10.5,-189 204.5,-189 204.5,-167 10.5,-167"/>
<text text-anchor="start" x="30.5" y="-175.2" font-family="Helvetica,sans-Serif" font-size="11.00">diag_role_created</text>
<polygon fill="none" stroke="black" points="204.5,-167 204.5,-189 321.5,-189 321.5,-167 204.5,-167"/>
<text text-anchor="start" x="207.5" y="-175.2" font-family="Helvetica,sans-Serif" font-size="11.00">text[2147483647]</text>
<polygon fill="none" stroke="black" points="10.5,-145 10.5,-167 204.5,-167 204.5,-145 10.5,-145"/>
<text text-anchor="start" x="30.5" y="-153.2" font-family="Helvetica,sans-Serif" font-size="11.00">diag_timestamp_modified</text>
<polygon fill="none" stroke="black" points="204.5,-145 204.5,-167 321.5,-167 321.5,-145 204.5,-145"/>
<text text-anchor="start" x="207.5" y="-153.2" font-family="Helvetica,sans-Serif" font-size="11.00">timestamptz[35,6]</text>
<polygon fill="none" stroke="black" points="10.5,-123 10.5,-145 204.5,-145 204.5,-123 10.5,-123"/>
<text text-anchor="start" x="30.5" y="-131.2" font-family="Helvetica,sans-Serif" font-size="11.00">diag_wallclock_modified</text>
<polygon fill="none" stroke="black" points="204.5,-123 204.5,-145 321.5,-145 321.5,-123 204.5,-123"/>
<text text-anchor="start" x="207.5" y="-131.2" font-family="Helvetica,sans-Serif" font-size="11.00">timestamptz[35,6]</text>
<polygon fill="none" stroke="black" points="10.5,-101 10.5,-123 204.5,-123 204.5,-101 10.5,-101"/>
<text text-anchor="start" x="30.5" y="-109.2" font-family="Helvetica,sans-Serif" font-size="11.00">diag_role_modified</text>
<polygon fill="none" stroke="black" points="204.5,-101 204.5,-123 321.5,-123 321.5,-101 204.5,-101"/>
<text text-anchor="start" x="207.5" y="-109.2" font-family="Helvetica,sans-Serif" font-size="11.00">text[2147483647]</text>
<polygon fill="none" stroke="black" points="10.5,-79 10.5,-101 204.5,-101 204.5,-79 10.5,-79"/>
<text text-anchor="start" x="30.5" y="-87.2" font-family="Helvetica,sans-Serif" font-size="11.00">diag_row_version</text>
<polygon fill="none" stroke="black" points="204.5,-79 204.5,-101 321.5,-101 321.5,-79 204.5,-79"/>
<text text-anchor="start" x="207.5" y="-87.2" font-family="Helvetica,sans-Serif" font-size="11.00">int8[19]</text>
<polygon fill="none" stroke="black" points="10.5,-57 10.5,-79 204.5,-79 204.5,-57 10.5,-57"/>
<text text-anchor="start" x="30.5" y="-65.2" font-family="Helvetica,sans-Serif" font-size="11.00">diag_update_count</text>
<polygon fill="none" stroke="black" points="204.5,-57 204.5,-79 321.5,-79 321.5,-57 204.5,-57"/>
<text text-anchor="start" x="207.5" y="-65.2" font-family="Helvetica,sans-Serif" font-size="11.00">int8[19]</text>
<polygon fill="#ffffff" stroke="transparent" points="10.5,-39 10.5,-57 111.5,-57 111.5,-39 10.5,-39"/>
<polygon fill="none" stroke="black" points="10.5,-39 10.5,-57 111.5,-57 111.5,-39 10.5,-39"/>
<text text-anchor="start" x="13.5" y="-45.2" font-family="Helvetica,sans-Serif" font-size="11.00">&lt; 0</text>
<polygon fill="#ffffff" stroke="transparent" points="111.5,-39 111.5,-57 204.5,-57 204.5,-39 111.5,-39"/>
<polygon fill="none" stroke="black" points="111.5,-39 111.5,-57 204.5,-57 204.5,-39 111.5,-39"/>
<text text-anchor="start" x="194.5" y="-45.2" font-family="Helvetica,sans-Serif" font-size="11.00"> &#160;</text>
<polygon fill="#ffffff" stroke="transparent" points="204.5,-39 204.5,-57 321.5,-57 321.5,-39 204.5,-39"/>
<polygon fill="none" stroke="black" points="204.5,-39 204.5,-57 321.5,-57 321.5,-39 204.5,-39"/>
<text text-anchor="start" x="302.5" y="-45.2" font-family="Helvetica,sans-Serif" font-size="11.00">1 &gt;</text>
<polygon fill="none" stroke="black" stroke-width="2" points="9,-38 9,-498 322,-498 322,-38 9,-38"/>
</a>
</g>
</g>
<!-- syst_actions&#45;&gt;syst_action_groups -->
<g id="edge1" class="edge">
<title>syst_actions:w&#45;&gt;syst_action_groups:e</title>
<path fill="none" stroke="black" d="M356.28,-464C345.29,-464 338.16,-464 322.5,-464"/>
<polygon fill="black" stroke="black" points="363,-464 371,-467.6 367,-464 371,-464 371,-464 371,-464 367,-464 371,-460.4 363,-464 363,-464"/>
<ellipse fill="none" stroke="black" cx="359.8" cy="-464" rx="3.2" ry="3.2"/>
</g>
<!-- syst_menu_items -->
<g id="node3" class="node">
<title>syst_menu_items</title>
<g id="a_node3"><a xlink:href="../../tables/syst_menu_items.html" xlink:title="syst_menu_items" target="_top">
<polygon fill="#ffffff" stroke="transparent" points="615,-503 615,-561 770,-561 770,-503 615,-503"/>
<polygon fill="#f5f5f5" stroke="transparent" points="615.5,-539 615.5,-561 770.5,-561 770.5,-539 615.5,-539"/>
<polygon fill="none" stroke="black" points="615.5,-539 615.5,-561 770.5,-561 770.5,-539 615.5,-539"/>
<text text-anchor="start" x="620.5" y="-548.2" font-family="Helvetica,sans-Serif" font-weight="bold" font-size="11.00">syst_menu_items</text>
<text text-anchor="start" x="735.5" y="-547.2" font-family="Helvetica,sans-Serif" font-size="11.00">[table]</text>
<polygon fill="none" stroke="black" points="615.5,-521 615.5,-539 770.5,-539 770.5,-521 615.5,-521"/>
<text text-anchor="start" x="618.5" y="-527.2" font-family="Helvetica,sans-Serif" font-size="11.00">...</text>
<polygon fill="#ffffff" stroke="transparent" points="615.5,-503 615.5,-521 686.5,-521 686.5,-503 615.5,-503"/>
<polygon fill="none" stroke="black" points="615.5,-503 615.5,-521 686.5,-521 686.5,-503 615.5,-503"/>
<text text-anchor="start" x="618.5" y="-509.2" font-family="Helvetica,sans-Serif" font-size="11.00">&lt; 4</text>
<polygon fill="#ffffff" stroke="transparent" points="686.5,-503 686.5,-521 723.5,-521 723.5,-503 686.5,-503"/>
<polygon fill="none" stroke="black" points="686.5,-503 686.5,-521 723.5,-521 723.5,-503 686.5,-503"/>
<text text-anchor="start" x="713.5" y="-509.2" font-family="Helvetica,sans-Serif" font-size="11.00"> &#160;</text>
<polygon fill="#ffffff" stroke="transparent" points="723.5,-503 723.5,-521 770.5,-521 770.5,-503 723.5,-503"/>
<polygon fill="none" stroke="black" points="723.5,-503 723.5,-521 770.5,-521 770.5,-503 723.5,-503"/>
<text text-anchor="start" x="751.5" y="-509.2" font-family="Helvetica,sans-Serif" font-size="11.00">1 &gt;</text>
</a>
</g>
</g>
<!-- syst_menu_items&#45;&gt;syst_actions -->
<g id="edge2" class="edge">
<title>syst_menu_items:w&#45;&gt;syst_actions:e</title>
<path fill="none" stroke="black" d="M600.09,-530C589.32,-530 582.34,-530 567,-530"/>
<polygon fill="black" stroke="black" points="606.5,-530 614.5,-533.6 610.5,-530 614.5,-530 614.5,-530 614.5,-530 610.5,-530 614.5,-526.4 606.5,-530 606.5,-530"/>
<ellipse fill="none" stroke="black" cx="603.3" cy="-530" rx="3.2" ry="3.2"/>
</g>
</g>
</svg>
