<?xml version="1.0" encoding="UTF-8" standalone="no"?>
<!DOCTYPE svg PUBLIC "-//W3C//DTD SVG 1.1//EN"
 "http://www.w3.org/Graphics/SVG/1.1/DTD/svg11.dtd">
<!-- Generated by graphviz version 2.43.0 (0)
 -->
<!-- Title: twoDegreesRelationshipsDiagram Pages: 1 -->
<svg width="1711pt" height="828pt"
 viewBox="0.00 0.00 1711.00 828.00" xmlns="http://www.w3.org/2000/svg" xmlns:xlink="http://www.w3.org/1999/xlink">
<g id="graph0" class="graph" transform="scale(1 1) rotate(0) translate(4 824)">
<title>twoDegreesRelationshipsDiagram</title>
<polygon fill="#ffffff" stroke="transparent" points="-4,4 -4,-824 1707,-824 1707,4 -4,4"/>
<text text-anchor="middle" x="71.5" y="-7.2" font-family="Helvetica,sans-Serif" font-size="11.00">Generated by SchemaSpy</text>
<!-- syst_access_accounts -->
<g id="node1" class="node">
<title>syst_access_accounts</title>
<g id="a_node1"><a xlink:href="../../tables/syst_access_accounts.html" xlink:title="syst_access_accounts" target="_top">
<polygon fill="#ffffff" stroke="transparent" points="1102,-758 1102,-816 1287,-816 1287,-758 1102,-758"/>
<polygon fill="#f5f5f5" stroke="transparent" points="1102.5,-794 1102.5,-816 1287.5,-816 1287.5,-794 1102.5,-794"/>
<polygon fill="none" stroke="black" points="1102.5,-794 1102.5,-816 1287.5,-816 1287.5,-794 1102.5,-794"/>
<text text-anchor="start" x="1107.5" y="-803.2" font-family="Helvetica,sans-Serif" font-weight="bold" font-size="11.00">syst_access_accounts</text>
<text text-anchor="start" x="1252.5" y="-802.2" font-family="Helvetica,sans-Serif" font-size="11.00">[table]</text>
<polygon fill="none" stroke="black" points="1102.5,-776 1102.5,-794 1287.5,-794 1287.5,-776 1102.5,-776"/>
<text text-anchor="start" x="1105.5" y="-782.2" font-family="Helvetica,sans-Serif" font-size="11.00">...</text>
<polygon fill="#ffffff" stroke="transparent" points="1102.5,-758 1102.5,-776 1188.5,-776 1188.5,-758 1102.5,-758"/>
<polygon fill="none" stroke="black" points="1102.5,-758 1102.5,-776 1188.5,-776 1188.5,-758 1102.5,-758"/>
<text text-anchor="start" x="1105.5" y="-764.2" font-family="Helvetica,sans-Serif" font-size="11.00">&lt; 2</text>
<polygon fill="#ffffff" stroke="transparent" points="1188.5,-758 1188.5,-776 1233.5,-776 1233.5,-758 1188.5,-758"/>
<polygon fill="none" stroke="black" points="1188.5,-758 1188.5,-776 1233.5,-776 1233.5,-758 1188.5,-758"/>
<text text-anchor="start" x="1223.5" y="-764.2" font-family="Helvetica,sans-Serif" font-size="11.00"> &#160;</text>
<polygon fill="#ffffff" stroke="transparent" points="1233.5,-758 1233.5,-776 1287.5,-776 1287.5,-758 1233.5,-758"/>
<polygon fill="none" stroke="black" points="1233.5,-758 1233.5,-776 1287.5,-776 1287.5,-758 1233.5,-758"/>
<text text-anchor="start" x="1268.5" y="-764.2" font-family="Helvetica,sans-Serif" font-size="11.00">5 &gt;</text>
</a>
</g>
</g>
<!-- syst_enum_items -->
<g id="node2" class="node">
<title>syst_enum_items</title>
<g id="a_node2"><a xlink:href="../../tables/syst_enum_items.html" xlink:title="syst_enum_items" target="_top">
<polygon fill="#ffffff" stroke="transparent" points="453,-439 453,-607 647,-607 647,-439 453,-439"/>
<polygon fill="#f5f5f5" stroke="transparent" points="453,-585 453,-607 647,-607 647,-585 453,-585"/>
<polygon fill="none" stroke="black" points="453,-585 453,-607 647,-607 647,-585 453,-585"/>
<text text-anchor="start" x="458" y="-594.2" font-family="Helvetica,sans-Serif" font-weight="bold" font-size="11.00">syst_enum_items</text>
<text text-anchor="start" x="612" y="-593.2" font-family="Helvetica,sans-Serif" font-size="11.00">[table]</text>
<polygon fill="none" stroke="black" points="453,-563 453,-585 647,-585 647,-563 453,-563"/>
<image xlink:href="../../images/primaryKeys.png" width="11px" height="12px" preserveAspectRatio="xMinYMin meet" x="458" y="-580"/>
<text text-anchor="start" x="473" y="-571.2" font-family="Helvetica,sans-Serif" font-size="11.00">id</text>
<polygon fill="#ffffff" stroke="transparent" points="453,-541 453,-563 647,-563 647,-541 453,-541"/>
<polygon fill="none" stroke="black" points="453,-541 453,-563 647,-563 647,-541 453,-541"/>
<text text-anchor="start" x="473" y="-549.2" font-family="Helvetica,sans-Serif" font-size="11.00">internal_name</text>
<polygon fill="#ffffff" stroke="transparent" points="453,-519 453,-541 647,-541 647,-519 453,-519"/>
<polygon fill="none" stroke="black" points="453,-519 453,-541 647,-541 647,-519 453,-519"/>
<text text-anchor="start" x="473" y="-527.2" font-family="Helvetica,sans-Serif" font-size="11.00">display_name</text>
<polygon fill="none" stroke="black" points="453,-497 453,-519 647,-519 647,-497 453,-497"/>
<image xlink:href="../../images/foreignKeys.png" width="11px" height="12px" preserveAspectRatio="xMinYMin meet" x="458" y="-514"/>
<text text-anchor="start" x="473" y="-505.2" font-family="Helvetica,sans-Serif" font-size="11.00">enum_id</text>
<polygon fill="none" stroke="black" points="453,-475 453,-497 647,-497 647,-475 453,-475"/>
<image xlink:href="../../images/foreignKeys.png" width="11px" height="12px" preserveAspectRatio="xMinYMin meet" x="458" y="-492"/>
<text text-anchor="start" x="473" y="-483.2" font-family="Helvetica,sans-Serif" font-size="11.00">functional_type_id</text>
<polygon fill="none" stroke="black" points="453,-457 453,-475 647,-475 647,-457 453,-457"/>
<text text-anchor="start" x="456" y="-463.2" font-family="Helvetica,sans-Serif" font-size="11.00">...</text>
<polygon fill="#ffffff" stroke="transparent" points="453,-439 453,-457 540,-457 540,-439 453,-439"/>
<polygon fill="none" stroke="black" points="453,-439 453,-457 540,-457 540,-439 453,-439"/>
<text text-anchor="start" x="456" y="-445.2" font-family="Helvetica,sans-Serif" font-size="11.00">&lt; 2</text>
<polygon fill="#ffffff" stroke="transparent" points="540,-439 540,-457 586,-457 586,-439 540,-439"/>
<polygon fill="none" stroke="black" points="540,-439 540,-457 586,-457 586,-439 540,-439"/>
<text text-anchor="start" x="576" y="-445.2" font-family="Helvetica,sans-Serif" font-size="11.00"> &#160;</text>
<polygon fill="#ffffff" stroke="transparent" points="586,-439 586,-457 647,-457 647,-439 586,-439"/>
<polygon fill="none" stroke="black" points="586,-439 586,-457 647,-457 647,-439 586,-439"/>
<text text-anchor="start" x="622" y="-445.2" font-family="Helvetica,sans-Serif" font-size="11.00">10 &gt;</text>
</a>
</g>
</g>
<!-- syst_access_accounts&#45;&gt;syst_enum_items -->
<g id="edge1" class="edge">
<title>syst_access_accounts:w&#45;&gt;syst_enum_items:e</title>
<path fill="none" stroke="black" d="M1087.09,-785.16C912.05,-789.11 823.27,-862.46 688,-744 629.61,-692.86 725.62,-574 648,-574"/>
<polygon fill="black" stroke="black" points="1093.5,-785.09 1101.54,-788.6 1097.5,-785.05 1101.5,-785 1101.5,-785 1101.5,-785 1097.5,-785.05 1101.46,-781.4 1093.5,-785.09 1093.5,-785.09"/>
<ellipse fill="none" stroke="black" cx="1090.3" cy="-785.13" rx="3.2" ry="3.2"/>
</g>
<!-- syst_owners -->
<g id="node3" class="node">
<title>syst_owners</title>
<g id="a_node3"><a xlink:href="../../tables/syst_owners.html" xlink:title="syst_owners" target="_top">
<polygon fill="#ffffff" stroke="transparent" points="802,-652 802,-710 924,-710 924,-652 802,-652"/>
<polygon fill="#f5f5f5" stroke="transparent" points="802,-688 802,-710 924,-710 924,-688 802,-688"/>
<polygon fill="none" stroke="black" points="802,-688 802,-710 924,-710 924,-688 802,-688"/>
<text text-anchor="start" x="807" y="-697.2" font-family="Helvetica,sans-Serif" font-weight="bold" font-size="11.00">syst_owners</text>
<text text-anchor="start" x="889" y="-696.2" font-family="Helvetica,sans-Serif" font-size="11.00">[table]</text>
<polygon fill="none" stroke="black" points="802,-670 802,-688 924,-688 924,-670 802,-670"/>
<text text-anchor="start" x="805" y="-676.2" font-family="Helvetica,sans-Serif" font-size="11.00">...</text>
<polygon fill="#ffffff" stroke="transparent" points="802,-652 802,-670 856,-670 856,-652 802,-652"/>
<polygon fill="none" stroke="black" points="802,-652 802,-670 856,-670 856,-652 802,-652"/>
<text text-anchor="start" x="805" y="-658.2" font-family="Helvetica,sans-Serif" font-size="11.00">&lt; 1</text>
<polygon fill="#ffffff" stroke="transparent" points="856,-652 856,-670 885,-670 885,-652 856,-652"/>
<polygon fill="none" stroke="black" points="856,-652 856,-670 885,-670 885,-652 856,-652"/>
<text text-anchor="start" x="875" y="-658.2" font-family="Helvetica,sans-Serif" font-size="11.00"> &#160;</text>
<polygon fill="#ffffff" stroke="transparent" points="885,-652 885,-670 924,-670 924,-652 885,-652"/>
<polygon fill="none" stroke="black" points="885,-652 885,-670 924,-670 924,-652 885,-652"/>
<text text-anchor="start" x="905" y="-658.2" font-family="Helvetica,sans-Serif" font-size="11.00">4 &gt;</text>
</a>
</g>
</g>
<!-- syst_access_accounts&#45;&gt;syst_owners -->
<g id="edge2" class="edge">
<title>syst_access_accounts:w&#45;&gt;syst_owners:e</title>
<path fill="none" stroke="black" d="M1086.86,-784.02C1010.42,-773.33 1011.32,-679 925,-679"/>
<polygon fill="black" stroke="black" points="1093.52,-784.46 1101.26,-788.59 1097.51,-784.73 1101.5,-785 1101.5,-785 1101.5,-785 1097.51,-784.73 1101.74,-781.41 1093.52,-784.46 1093.52,-784.46"/>
<ellipse fill="none" stroke="black" cx="1090.33" cy="-784.25" rx="3.2" ry="3.2"/>
</g>
<!-- syst_enum_functional_types -->
<g id="node8" class="node">
<title>syst_enum_functional_types</title>
<g id="a_node8"><a xlink:href="../../tables/syst_enum_functional_types.html" xlink:title="syst_enum_functional_types" target="_top">
<polygon fill="#ffffff" stroke="transparent" points="175,-442 175,-500 404,-500 404,-442 175,-442"/>
<polygon fill="#f5f5f5" stroke="transparent" points="175.5,-478 175.5,-500 404.5,-500 404.5,-478 175.5,-478"/>
<polygon fill="none" stroke="black" points="175.5,-478 175.5,-500 404.5,-500 404.5,-478 175.5,-478"/>
<text text-anchor="start" x="180.5" y="-487.2" font-family="Helvetica,sans-Serif" font-weight="bold" font-size="11.00">syst_enum_functional_types</text>
<text text-anchor="start" x="369.5" y="-486.2" font-family="Helvetica,sans-Serif" font-size="11.00">[table]</text>
<polygon fill="none" stroke="black" points="175.5,-460 175.5,-478 404.5,-478 404.5,-460 175.5,-460"/>
<text text-anchor="start" x="178.5" y="-466.2" font-family="Helvetica,sans-Serif" font-size="11.00">...</text>
<polygon fill="#ffffff" stroke="transparent" points="175.5,-442 175.5,-460 283.5,-460 283.5,-442 175.5,-442"/>
<polygon fill="none" stroke="black" points="175.5,-442 175.5,-460 283.5,-460 283.5,-442 175.5,-442"/>
<text text-anchor="start" x="178.5" y="-448.2" font-family="Helvetica,sans-Serif" font-size="11.00">&lt; 1</text>
<polygon fill="#ffffff" stroke="transparent" points="283.5,-442 283.5,-460 339.5,-460 339.5,-442 283.5,-442"/>
<polygon fill="none" stroke="black" points="283.5,-442 283.5,-460 339.5,-460 339.5,-442 283.5,-442"/>
<text text-anchor="start" x="329.5" y="-448.2" font-family="Helvetica,sans-Serif" font-size="11.00"> &#160;</text>
<polygon fill="#ffffff" stroke="transparent" points="339.5,-442 339.5,-460 404.5,-460 404.5,-442 339.5,-442"/>
<polygon fill="none" stroke="black" points="339.5,-442 339.5,-460 404.5,-460 404.5,-442 339.5,-442"/>
<text text-anchor="start" x="385.5" y="-448.2" font-family="Helvetica,sans-Serif" font-size="11.00">1 &gt;</text>
</a>
</g>
</g>
<!-- syst_enum_items&#45;&gt;syst_enum_functional_types -->
<g id="edge9" class="edge">
<title>syst_enum_items:w&#45;&gt;syst_enum_functional_types:e</title>
<path fill="none" stroke="black" d="M437.86,-483.04C427.3,-478.17 421.66,-469 405.5,-469"/>
<polygon fill="black" stroke="black" points="444.17,-484.36 451.26,-489.52 448.08,-485.18 452,-486 452,-486 452,-486 448.08,-485.18 452.74,-482.48 444.17,-484.36 444.17,-484.36"/>
<ellipse fill="none" stroke="black" cx="441.04" cy="-483.7" rx="3.2" ry="3.2"/>
</g>
<!-- syst_enums -->
<g id="node9" class="node">
<title>syst_enums</title>
<g id="a_node9"><a xlink:href="../../tables/syst_enums.html" xlink:title="syst_enums" target="_top">
<polygon fill="#ffffff" stroke="transparent" points="8,-469 8,-527 126,-527 126,-469 8,-469"/>
<polygon fill="#f5f5f5" stroke="transparent" points="8,-505 8,-527 126,-527 126,-505 8,-505"/>
<polygon fill="none" stroke="black" points="8,-505 8,-527 126,-527 126,-505 8,-505"/>
<text text-anchor="start" x="13" y="-514.2" font-family="Helvetica,sans-Serif" font-weight="bold" font-size="11.00">syst_enums</text>
<text text-anchor="start" x="91" y="-513.2" font-family="Helvetica,sans-Serif" font-size="11.00">[table]</text>
<polygon fill="none" stroke="black" points="8,-487 8,-505 126,-505 126,-487 8,-487"/>
<text text-anchor="start" x="11" y="-493.2" font-family="Helvetica,sans-Serif" font-size="11.00">...</text>
<polygon fill="#ffffff" stroke="transparent" points="8,-469 8,-487 56,-487 56,-469 8,-469"/>
<polygon fill="none" stroke="black" points="8,-469 8,-487 56,-487 56,-469 8,-469"/>
<text text-anchor="start" x="11" y="-475.2" font-family="Helvetica,sans-Serif" font-size="11.00"> &#160;</text>
<polygon fill="#ffffff" stroke="transparent" points="56,-469 56,-487 86,-487 86,-469 56,-469"/>
<polygon fill="none" stroke="black" points="56,-469 56,-487 86,-487 86,-469 56,-469"/>
<text text-anchor="start" x="76" y="-475.2" font-family="Helvetica,sans-Serif" font-size="11.00"> &#160;</text>
<polygon fill="#ffffff" stroke="transparent" points="86,-469 86,-487 126,-487 126,-469 86,-469"/>
<polygon fill="none" stroke="black" points="86,-469 86,-487 126,-487 126,-469 86,-469"/>
<text text-anchor="start" x="107" y="-475.2" font-family="Helvetica,sans-Serif" font-size="11.00">2 &gt;</text>
</a>
</g>
</g>
<!-- syst_enum_items&#45;&gt;syst_enums -->
<g id="edge8" class="edge">
<title>syst_enum_items:w&#45;&gt;syst_enums:e</title>
<path fill="none" stroke="black" d="M437.57,-508.64C429.73,-509.38 423.83,-510.56 412,-511 303.19,-515.07 274.14,-530.43 167,-511 148.32,-507.61 145.99,-496 127,-496"/>
<polygon fill="black" stroke="black" points="444.01,-508.35 452.16,-511.6 448,-508.18 452,-508 452,-508 452,-508 448,-508.18 451.84,-504.4 444.01,-508.35 444.01,-508.35"/>
<ellipse fill="none" stroke="black" cx="440.81" cy="-508.5" rx="3.2" ry="3.2"/>
</g>
<!-- syst_owners&#45;&gt;syst_enum_items -->
<g id="edge23" class="edge">
<title>syst_owners:w&#45;&gt;syst_enum_items:e</title>
<path fill="none" stroke="black" d="M786.43,-678.87C744.23,-677.97 725.15,-671.9 688,-642 660.69,-620.01 683.06,-574 648,-574"/>
<polygon fill="black" stroke="black" points="793,-678.93 800.97,-682.6 797,-678.96 801,-679 801,-679 801,-679 797,-678.96 801.03,-675.4 793,-678.93 793,-678.93"/>
<ellipse fill="none" stroke="black" cx="789.8" cy="-678.9" rx="3.2" ry="3.2"/>
</g>
<!-- syst_application_contexts -->
<g id="node4" class="node">
<title>syst_application_contexts</title>
<g id="a_node4"><a xlink:href="../../tables/syst_application_contexts.html" xlink:title="syst_application_contexts" target="_top">
<polygon fill="#ffffff" stroke="transparent" points="756.5,-37 756.5,-95 969.5,-95 969.5,-37 756.5,-37"/>
<polygon fill="#f5f5f5" stroke="transparent" points="757,-73 757,-95 970,-95 970,-73 757,-73"/>
<polygon fill="none" stroke="black" points="757,-73 757,-95 970,-95 970,-73 757,-73"/>
<text text-anchor="start" x="762" y="-82.2" font-family="Helvetica,sans-Serif" font-weight="bold" font-size="11.00">syst_application_contexts</text>
<text text-anchor="start" x="935" y="-81.2" font-family="Helvetica,sans-Serif" font-size="11.00">[table]</text>
<polygon fill="none" stroke="black" points="757,-55 757,-73 970,-73 970,-55 757,-55"/>
<text text-anchor="start" x="760" y="-61.2" font-family="Helvetica,sans-Serif" font-size="11.00">...</text>
<polygon fill="#ffffff" stroke="transparent" points="757,-37 757,-55 857,-55 857,-37 757,-37"/>
<polygon fill="none" stroke="black" points="757,-37 757,-55 857,-55 857,-37 757,-37"/>
<text text-anchor="start" x="760" y="-43.2" font-family="Helvetica,sans-Serif" font-size="11.00">&lt; 1</text>
<polygon fill="#ffffff" stroke="transparent" points="857,-37 857,-55 909,-55 909,-37 857,-37"/>
<polygon fill="none" stroke="black" points="857,-37 857,-55 909,-55 909,-37 857,-37"/>
<text text-anchor="start" x="899" y="-43.2" font-family="Helvetica,sans-Serif" font-size="11.00"> &#160;</text>
<polygon fill="#ffffff" stroke="transparent" points="909,-37 909,-55 970,-55 970,-37 909,-37"/>
<polygon fill="none" stroke="black" points="909,-37 909,-55 970,-55 970,-37 909,-37"/>
<text text-anchor="start" x="951" y="-43.2" font-family="Helvetica,sans-Serif" font-size="11.00">2 &gt;</text>
</a>
</g>
</g>
<!-- syst_applications -->
<g id="node5" class="node">
<title>syst_applications</title>
<g id="a_node5"><a xlink:href="../../tables/syst_applications.html" xlink:title="syst_applications" target="_top">
<polygon fill="#ffffff" stroke="transparent" points="453,-210 453,-334 647,-334 647,-210 453,-210"/>
<polygon fill="#f5f5f5" stroke="transparent" points="453,-312 453,-334 647,-334 647,-312 453,-312"/>
<polygon fill="none" stroke="black" points="453,-312 453,-334 647,-334 647,-312 453,-312"/>
<text text-anchor="start" x="458" y="-321.2" font-family="Helvetica,sans-Serif" font-weight="bold" font-size="11.00">syst_applications</text>
<text text-anchor="start" x="612" y="-320.2" font-family="Helvetica,sans-Serif" font-size="11.00">[table]</text>
<polygon fill="none" stroke="black" points="453,-290 453,-312 647,-312 647,-290 453,-290"/>
<image xlink:href="../../images/primaryKeys.png" width="11px" height="12px" preserveAspectRatio="xMinYMin meet" x="458" y="-307"/>
<text text-anchor="start" x="473" y="-298.2" font-family="Helvetica,sans-Serif" font-size="11.00">id</text>
<polygon fill="#ffffff" stroke="transparent" points="453,-268 453,-290 647,-290 647,-268 453,-268"/>
<polygon fill="none" stroke="black" points="453,-268 453,-290 647,-290 647,-268 453,-268"/>
<text text-anchor="start" x="473" y="-276.2" font-family="Helvetica,sans-Serif" font-size="11.00">internal_name</text>
<polygon fill="#ffffff" stroke="transparent" points="453,-246 453,-268 647,-268 647,-246 453,-246"/>
<polygon fill="none" stroke="black" points="453,-246 453,-268 647,-268 647,-246 453,-246"/>
<text text-anchor="start" x="473" y="-254.2" font-family="Helvetica,sans-Serif" font-size="11.00">display_name</text>
<polygon fill="none" stroke="black" points="453,-228 453,-246 647,-246 647,-228 453,-228"/>
<text text-anchor="start" x="456" y="-234.2" font-family="Helvetica,sans-Serif" font-size="11.00">...</text>
<polygon fill="#ffffff" stroke="transparent" points="453,-210 453,-228 539,-228 539,-210 453,-210"/>
<polygon fill="none" stroke="black" points="453,-210 453,-228 539,-228 539,-210 453,-210"/>
<text text-anchor="start" x="456" y="-216.2" font-family="Helvetica,sans-Serif" font-size="11.00"> &#160;</text>
<polygon fill="#ffffff" stroke="transparent" points="539,-210 539,-228 588,-228 588,-210 539,-210"/>
<polygon fill="none" stroke="black" points="539,-210 539,-228 588,-228 588,-210 539,-210"/>
<text text-anchor="start" x="578" y="-216.2" font-family="Helvetica,sans-Serif" font-size="11.00"> &#160;</text>
<polygon fill="#ffffff" stroke="transparent" points="588,-210 588,-228 647,-228 647,-210 588,-210"/>
<polygon fill="none" stroke="black" points="588,-210 588,-228 647,-228 647,-210 588,-210"/>
<text text-anchor="start" x="628" y="-216.2" font-family="Helvetica,sans-Serif" font-size="11.00">3 &gt;</text>
</a>
</g>
</g>
<!-- syst_application_contexts&#45;&gt;syst_applications -->
<g id="edge3" class="edge">
<title>syst_application_contexts:w&#45;&gt;syst_applications:e</title>
<path fill="none" stroke="black" d="M741.36,-64.86C716.76,-68.09 705.25,-80.56 688,-105 636.72,-177.63 736.91,-301 648,-301"/>
<polygon fill="black" stroke="black" points="748.01,-64.47 756.21,-67.59 752.01,-64.24 756,-64 756,-64 756,-64 752.01,-64.24 755.79,-60.41 748.01,-64.47 748.01,-64.47"/>
<ellipse fill="none" stroke="black" cx="744.82" cy="-64.66" rx="3.2" ry="3.2"/>
</g>
<!-- syst_credentials -->
<g id="node6" class="node">
<title>syst_credentials</title>
<g id="a_node6"><a xlink:href="../../tables/syst_credentials.html" xlink:title="syst_credentials" target="_top">
<polygon fill="#ffffff" stroke="transparent" points="1546,-705 1546,-763 1695,-763 1695,-705 1546,-705"/>
<polygon fill="#f5f5f5" stroke="transparent" points="1546.5,-741 1546.5,-763 1695.5,-763 1695.5,-741 1546.5,-741"/>
<polygon fill="none" stroke="black" points="1546.5,-741 1546.5,-763 1695.5,-763 1695.5,-741 1546.5,-741"/>
<text text-anchor="start" x="1551.5" y="-750.2" font-family="Helvetica,sans-Serif" font-weight="bold" font-size="11.00">syst_credentials</text>
<text text-anchor="start" x="1660.5" y="-749.2" font-family="Helvetica,sans-Serif" font-size="11.00">[table]</text>
<polygon fill="none" stroke="black" points="1546.5,-723 1546.5,-741 1695.5,-741 1695.5,-723 1546.5,-723"/>
<text text-anchor="start" x="1549.5" y="-729.2" font-family="Helvetica,sans-Serif" font-size="11.00">...</text>
<polygon fill="#ffffff" stroke="transparent" points="1546.5,-705 1546.5,-723 1618.5,-723 1618.5,-705 1546.5,-705"/>
<polygon fill="none" stroke="black" points="1546.5,-705 1546.5,-723 1618.5,-723 1618.5,-705 1546.5,-705"/>
<text text-anchor="start" x="1549.5" y="-711.2" font-family="Helvetica,sans-Serif" font-size="11.00">&lt; 3</text>
<polygon fill="#ffffff" stroke="transparent" points="1618.5,-705 1618.5,-723 1656.5,-723 1656.5,-705 1618.5,-705"/>
<polygon fill="none" stroke="black" points="1618.5,-705 1618.5,-723 1656.5,-723 1656.5,-705 1618.5,-705"/>
<text text-anchor="start" x="1646.5" y="-711.2" font-family="Helvetica,sans-Serif" font-size="11.00"> &#160;</text>
<polygon fill="#ffffff" stroke="transparent" points="1656.5,-705 1656.5,-723 1695.5,-723 1695.5,-705 1656.5,-705"/>
<polygon fill="none" stroke="black" points="1656.5,-705 1656.5,-723 1695.5,-723 1695.5,-705 1656.5,-705"/>
<text text-anchor="start" x="1685.5" y="-711.2" font-family="Helvetica,sans-Serif" font-size="11.00"> &#160;</text>
</a>
</g>
</g>
<!-- syst_credentials&#45;&gt;syst_access_accounts -->
<g id="edge4" class="edge">
<title>syst_credentials:w&#45;&gt;syst_access_accounts:e</title>
<path fill="none" stroke="black" d="M1531.85,-736.76C1522.03,-745.94 1522.89,-765.86 1505,-774 1417.31,-813.92 1384.85,-785 1288.5,-785"/>
<polygon fill="black" stroke="black" points="1537.95,-734.64 1546.69,-735.4 1541.72,-733.32 1545.5,-732 1545.5,-732 1545.5,-732 1541.72,-733.32 1544.31,-728.6 1537.95,-734.64 1537.95,-734.64"/>
<ellipse fill="none" stroke="black" cx="1534.93" cy="-735.69" rx="3.2" ry="3.2"/>
</g>
<!-- syst_credentials&#45;&gt;syst_enum_items -->
<g id="edge6" class="edge">
<title>syst_credentials:w&#45;&gt;syst_enum_items:e</title>
<path fill="none" stroke="black" d="M1531.58,-727.64C1522.03,-719.92 1520.81,-703.8 1505,-695 1316.54,-590.11 1251.64,-592.61 1038,-563 883.92,-541.64 842.16,-542.19 688,-563 669.73,-565.47 666.44,-574 648,-574"/>
<polygon fill="black" stroke="black" points="1537.86,-729.61 1544.43,-735.44 1541.68,-730.81 1545.5,-732 1545.5,-732 1545.5,-732 1541.68,-730.81 1546.57,-728.56 1537.86,-729.61 1537.86,-729.61"/>
<ellipse fill="none" stroke="black" cx="1534.81" cy="-728.66" rx="3.2" ry="3.2"/>
</g>
<!-- syst_identities -->
<g id="node7" class="node">
<title>syst_identities</title>
<g id="a_node7"><a xlink:href="../../tables/syst_identities.html" xlink:title="syst_identities" target="_top">
<polygon fill="#ffffff" stroke="transparent" points="1359,-705 1359,-763 1497,-763 1497,-705 1359,-705"/>
<polygon fill="#f5f5f5" stroke="transparent" points="1359,-741 1359,-763 1497,-763 1497,-741 1359,-741"/>
<polygon fill="none" stroke="black" points="1359,-741 1359,-763 1497,-763 1497,-741 1359,-741"/>
<text text-anchor="start" x="1364" y="-750.2" font-family="Helvetica,sans-Serif" font-weight="bold" font-size="11.00">syst_identities</text>
<text text-anchor="start" x="1462" y="-749.2" font-family="Helvetica,sans-Serif" font-size="11.00">[table]</text>
<polygon fill="none" stroke="black" points="1359,-723 1359,-741 1497,-741 1497,-723 1359,-723"/>
<text text-anchor="start" x="1362" y="-729.2" font-family="Helvetica,sans-Serif" font-size="11.00">...</text>
<polygon fill="#ffffff" stroke="transparent" points="1359,-705 1359,-723 1421,-723 1421,-705 1359,-705"/>
<polygon fill="none" stroke="black" points="1359,-705 1359,-723 1421,-723 1421,-705 1359,-705"/>
<text text-anchor="start" x="1362" y="-711.2" font-family="Helvetica,sans-Serif" font-size="11.00">&lt; 3</text>
<polygon fill="#ffffff" stroke="transparent" points="1421,-705 1421,-723 1454,-723 1454,-705 1421,-705"/>
<polygon fill="none" stroke="black" points="1421,-705 1421,-723 1454,-723 1454,-705 1421,-705"/>
<text text-anchor="start" x="1444" y="-711.2" font-family="Helvetica,sans-Serif" font-size="11.00"> &#160;</text>
<polygon fill="#ffffff" stroke="transparent" points="1454,-705 1454,-723 1497,-723 1497,-705 1454,-705"/>
<polygon fill="none" stroke="black" points="1454,-705 1454,-723 1497,-723 1497,-705 1454,-705"/>
<text text-anchor="start" x="1478" y="-711.2" font-family="Helvetica,sans-Serif" font-size="11.00">2 &gt;</text>
</a>
</g>
</g>
<!-- syst_credentials&#45;&gt;syst_identities -->
<g id="edge5" class="edge">
<title>syst_credentials:w&#45;&gt;syst_identities:e</title>
<path fill="none" stroke="black" d="M1531.09,-732C1520.32,-732 1513.34,-732 1498,-732"/>
<polygon fill="black" stroke="black" points="1537.5,-732 1545.5,-735.6 1541.5,-732 1545.5,-732 1545.5,-732 1545.5,-732 1541.5,-732 1545.5,-728.4 1537.5,-732 1537.5,-732"/>
<ellipse fill="none" stroke="black" cx="1534.3" cy="-732" rx="3.2" ry="3.2"/>
</g>
<!-- syst_identities&#45;&gt;syst_access_accounts -->
<g id="edge12" class="edge">
<title>syst_identities:w&#45;&gt;syst_access_accounts:e</title>
<path fill="none" stroke="black" d="M1343.82,-735C1320.54,-746.21 1321.73,-785 1288.5,-785"/>
<polygon fill="black" stroke="black" points="1350.17,-733.66 1358.75,-735.52 1354.09,-732.83 1358,-732 1358,-732 1358,-732 1354.09,-732.83 1357.25,-728.48 1350.17,-733.66 1350.17,-733.66"/>
<ellipse fill="none" stroke="black" cx="1347.04" cy="-734.32" rx="3.2" ry="3.2"/>
</g>
<!-- syst_identities&#45;&gt;syst_enum_items -->
<g id="edge13" class="edge">
<title>syst_identities:w&#45;&gt;syst_enum_items:e</title>
<path fill="none" stroke="black" d="M1343.55,-732.24C1231.26,-735.26 743.86,-764.42 688,-721 634.54,-679.45 715.71,-574 648,-574"/>
<polygon fill="black" stroke="black" points="1350,-732.14 1358.06,-735.6 1354,-732.07 1358,-732 1358,-732 1358,-732 1354,-732.07 1357.94,-728.4 1350,-732.14 1350,-732.14"/>
<ellipse fill="none" stroke="black" cx="1346.8" cy="-732.19" rx="3.2" ry="3.2"/>
</g>
<!-- syst_enum_functional_types&#45;&gt;syst_enums -->
<g id="edge7" class="edge">
<title>syst_enum_functional_types:w&#45;&gt;syst_enums:e</title>
<path fill="none" stroke="black" d="M160.6,-472.98C149.25,-480.49 145.4,-496 127,-496"/>
<polygon fill="black" stroke="black" points="166.81,-471.2 175.49,-472.46 170.65,-470.1 174.5,-469 174.5,-469 174.5,-469 170.65,-470.1 173.51,-465.54 166.81,-471.2 166.81,-471.2"/>
<ellipse fill="none" stroke="black" cx="163.73" cy="-472.09" rx="3.2" ry="3.2"/>
</g>
<!-- syst_hierarchies -->
<g id="node10" class="node">
<title>syst_hierarchies</title>
<g id="a_node10"><a xlink:href="../../tables/syst_hierarchies.html" xlink:title="syst_hierarchies" target="_top">
<polygon fill="#ffffff" stroke="transparent" points="788.5,-573 788.5,-631 937.5,-631 937.5,-573 788.5,-573"/>
<polygon fill="#f5f5f5" stroke="transparent" points="789,-609 789,-631 938,-631 938,-609 789,-609"/>
<polygon fill="none" stroke="black" points="789,-609 789,-631 938,-631 938,-609 789,-609"/>
<text text-anchor="start" x="794" y="-618.2" font-family="Helvetica,sans-Serif" font-weight="bold" font-size="11.00">syst_hierarchies</text>
<text text-anchor="start" x="903" y="-617.2" font-family="Helvetica,sans-Serif" font-size="11.00">[table]</text>
<polygon fill="none" stroke="black" points="789,-591 789,-609 938,-609 938,-591 789,-591"/>
<text text-anchor="start" x="792" y="-597.2" font-family="Helvetica,sans-Serif" font-size="11.00">...</text>
<polygon fill="#ffffff" stroke="transparent" points="789,-573 789,-591 857,-591 857,-573 789,-573"/>
<polygon fill="none" stroke="black" points="789,-573 789,-591 857,-591 857,-573 789,-573"/>
<text text-anchor="start" x="792" y="-579.2" font-family="Helvetica,sans-Serif" font-size="11.00">&lt; 2</text>
<polygon fill="#ffffff" stroke="transparent" points="857,-573 857,-591 893,-591 893,-573 857,-573"/>
<polygon fill="none" stroke="black" points="857,-573 857,-591 893,-591 893,-573 857,-573"/>
<text text-anchor="start" x="883" y="-579.2" font-family="Helvetica,sans-Serif" font-size="11.00"> &#160;</text>
<polygon fill="#ffffff" stroke="transparent" points="893,-573 893,-591 938,-591 938,-573 893,-573"/>
<polygon fill="none" stroke="black" points="893,-573 893,-591 938,-591 938,-573 893,-573"/>
<text text-anchor="start" x="919" y="-579.2" font-family="Helvetica,sans-Serif" font-size="11.00">1 &gt;</text>
</a>
</g>
</g>
<!-- syst_hierarchies&#45;&gt;syst_enum_items -->
<g id="edge10" class="edge">
<title>syst_hierarchies:w&#45;&gt;syst_enum_items:e</title>
<path fill="none" stroke="black" d="M773.7,-598.2C722.24,-590.04 706.22,-568.48 648,-574"/>
<polygon fill="black" stroke="black" points="780.06,-599 787.55,-603.57 784.03,-599.5 788,-600 788,-600 788,-600 784.03,-599.5 788.45,-596.43 780.06,-599 780.06,-599"/>
<ellipse fill="none" stroke="black" cx="776.89" cy="-598.6" rx="3.2" ry="3.2"/>
</g>
<!-- syst_hierarchies&#45;&gt;syst_enum_items -->
<g id="edge11" class="edge">
<title>syst_hierarchies:w&#45;&gt;syst_enum_items:e</title>
<path fill="none" stroke="black" d="M773.38,-601.09C722.18,-602.86 706.09,-580.43 648,-574"/>
<polygon fill="black" stroke="black" points="780.02,-600.59 788.27,-603.59 784.01,-600.3 788,-600 788,-600 788,-600 784.01,-600.3 787.73,-596.41 780.02,-600.59 780.02,-600.59"/>
<ellipse fill="none" stroke="black" cx="776.83" cy="-600.83" rx="3.2" ry="3.2"/>
</g>
<!-- syst_instance_type_applications -->
<g id="node11" class="node">
<title>syst_instance_type_applications</title>
<g id="a_node11"><a xlink:href="../../tables/syst_instance_type_applications.html" xlink:title="syst_instance_type_applications" target="_top">
<polygon fill="#ffffff" stroke="transparent" points="696,-116 696,-380 1030,-380 1030,-116 696,-116"/>
<polygon fill="#f5f5f5" stroke="transparent" points="698,-356 698,-378 1028,-378 1028,-356 698,-356"/>
<polygon fill="none" stroke="black" points="698,-356 698,-378 1028,-378 1028,-356 698,-356"/>
<text text-anchor="start" x="703" y="-365.2" font-family="Helvetica,sans-Serif" font-weight="bold" font-size="11.00">syst_instance_type_applications</text>
<text text-anchor="start" x="993" y="-364.2" font-family="Helvetica,sans-Serif" font-size="11.00">[table]</text>
<polygon fill="none" stroke="black" points="698,-334 698,-356 935,-356 935,-334 698,-334"/>
<image xlink:href="../../images/primaryKeys.png" width="11px" height="12px" preserveAspectRatio="xMinYMin meet" x="703" y="-351"/>
<text text-anchor="start" x="718" y="-342.2" font-family="Helvetica,sans-Serif" font-size="11.00">id</text>
<polygon fill="none" stroke="black" points="935,-334 935,-356 1028,-356 1028,-334 935,-334"/>
<text text-anchor="start" x="938" y="-342.2" font-family="Helvetica,sans-Serif" font-size="11.00">uuid[2147483647]</text>
<polygon fill="#ffffff" stroke="transparent" points="698,-312 698,-334 935,-334 935,-312 698,-312"/>
<polygon fill="none" stroke="black" points="698,-312 698,-334 935,-334 935,-312 698,-312"/>
<image xlink:href="../../images/foreignKeys.png" width="11px" height="12px" preserveAspectRatio="xMinYMin meet" x="703" y="-329"/>
<text text-anchor="start" x="718" y="-320.2" font-family="Helvetica,sans-Serif" font-size="11.00">instance_type_id</text>
<polygon fill="none" stroke="black" points="935,-312 935,-334 1028,-334 1028,-312 935,-312"/>
<text text-anchor="start" x="938" y="-320.2" font-family="Helvetica,sans-Serif" font-size="11.00">uuid[2147483647]</text>
<polygon fill="#ffffff" stroke="transparent" points="698,-290 698,-312 935,-312 935,-290 698,-290"/>
<polygon fill="none" stroke="black" points="698,-290 698,-312 935,-312 935,-290 698,-290"/>
<image xlink:href="../../images/foreignKeys.png" width="11px" height="12px" preserveAspectRatio="xMinYMin meet" x="703" y="-307"/>
<text text-anchor="start" x="718" y="-298.2" font-family="Helvetica,sans-Serif" font-size="11.00">application_id</text>
<polygon fill="none" stroke="black" points="935,-290 935,-312 1028,-312 1028,-290 935,-290"/>
<text text-anchor="start" x="938" y="-298.2" font-family="Helvetica,sans-Serif" font-size="11.00">uuid[2147483647]</text>
<polygon fill="none" stroke="black" points="698,-268 698,-290 935,-290 935,-268 698,-268"/>
<text text-anchor="start" x="718" y="-276.2" font-family="Helvetica,sans-Serif" font-size="11.00">diag_timestamp_created</text>
<polygon fill="none" stroke="black" points="935,-268 935,-290 1028,-290 1028,-268 935,-268"/>
<text text-anchor="start" x="938" y="-276.2" font-family="Helvetica,sans-Serif" font-size="11.00">timestamptz[35,6]</text>
<polygon fill="none" stroke="black" points="698,-246 698,-268 935,-268 935,-246 698,-246"/>
<text text-anchor="start" x="718" y="-254.2" font-family="Helvetica,sans-Serif" font-size="11.00">diag_role_created</text>
<polygon fill="none" stroke="black" points="935,-246 935,-268 1028,-268 1028,-246 935,-246"/>
<text text-anchor="start" x="938" y="-254.2" font-family="Helvetica,sans-Serif" font-size="11.00">text[2147483647]</text>
<polygon fill="none" stroke="black" points="698,-224 698,-246 935,-246 935,-224 698,-224"/>
<text text-anchor="start" x="718" y="-232.2" font-family="Helvetica,sans-Serif" font-size="11.00">diag_timestamp_modified</text>
<polygon fill="none" stroke="black" points="935,-224 935,-246 1028,-246 1028,-224 935,-224"/>
<text text-anchor="start" x="938" y="-232.2" font-family="Helvetica,sans-Serif" font-size="11.00">timestamptz[35,6]</text>
<polygon fill="none" stroke="black" points="698,-202 698,-224 935,-224 935,-202 698,-202"/>
<text text-anchor="start" x="718" y="-210.2" font-family="Helvetica,sans-Serif" font-size="11.00">diag_wallclock_modified</text>
<polygon fill="none" stroke="black" points="935,-202 935,-224 1028,-224 1028,-202 935,-202"/>
<text text-anchor="start" x="938" y="-210.2" font-family="Helvetica,sans-Serif" font-size="11.00">timestamptz[35,6]</text>
<polygon fill="none" stroke="black" points="698,-180 698,-202 935,-202 935,-180 698,-180"/>
<text text-anchor="start" x="718" y="-188.2" font-family="Helvetica,sans-Serif" font-size="11.00">diag_role_modified</text>
<polygon fill="none" stroke="black" points="935,-180 935,-202 1028,-202 1028,-180 935,-180"/>
<text text-anchor="start" x="938" y="-188.2" font-family="Helvetica,sans-Serif" font-size="11.00">text[2147483647]</text>
<polygon fill="none" stroke="black" points="698,-158 698,-180 935,-180 935,-158 698,-158"/>
<text text-anchor="start" x="718" y="-166.2" font-family="Helvetica,sans-Serif" font-size="11.00">diag_row_version</text>
<polygon fill="none" stroke="black" points="935,-158 935,-180 1028,-180 1028,-158 935,-158"/>
<text text-anchor="start" x="938" y="-166.2" font-family="Helvetica,sans-Serif" font-size="11.00">int8[19]</text>
<polygon fill="none" stroke="black" points="698,-136 698,-158 935,-158 935,-136 698,-136"/>
<text text-anchor="start" x="718" y="-144.2" font-family="Helvetica,sans-Serif" font-size="11.00">diag_update_count</text>
<polygon fill="none" stroke="black" points="935,-136 935,-158 1028,-158 1028,-136 935,-136"/>
<text text-anchor="start" x="938" y="-144.2" font-family="Helvetica,sans-Serif" font-size="11.00">int8[19]</text>
<polygon fill="#ffffff" stroke="transparent" points="698,-118 698,-136 821,-136 821,-118 698,-118"/>
<polygon fill="none" stroke="black" points="698,-118 698,-136 821,-136 821,-118 698,-118"/>
<text text-anchor="start" x="701" y="-124.2" font-family="Helvetica,sans-Serif" font-size="11.00">&lt; 2</text>
<polygon fill="#ffffff" stroke="transparent" points="821,-118 821,-136 935,-136 935,-118 821,-118"/>
<polygon fill="none" stroke="black" points="821,-118 821,-136 935,-136 935,-118 821,-118"/>
<text text-anchor="start" x="925" y="-124.2" font-family="Helvetica,sans-Serif" font-size="11.00"> &#160;</text>
<polygon fill="#ffffff" stroke="transparent" points="935,-118 935,-136 1028,-136 1028,-118 935,-118"/>
<polygon fill="none" stroke="black" points="935,-118 935,-136 1028,-136 1028,-118 935,-118"/>
<text text-anchor="start" x="1009" y="-124.2" font-family="Helvetica,sans-Serif" font-size="11.00">1 &gt;</text>
<polygon fill="none" stroke="black" stroke-width="2" points="697,-117 697,-379 1029,-379 1029,-117 697,-117"/>
</a>
</g>
</g>
<!-- syst_instance_type_applications&#45;&gt;syst_enum_items -->
<g id="edge15" class="edge">
<title>syst_instance_type_applications:w&#45;&gt;syst_enum_items:e</title>
<path fill="none" stroke="black" d="M682.63,-324.67C599.74,-346.45 756.22,-574 648,-574"/>
<polygon fill="black" stroke="black" points="689.05,-323.92 697.42,-326.58 693.03,-323.46 697,-323 697,-323 697,-323 693.03,-323.46 696.58,-319.42 689.05,-323.92 689.05,-323.92"/>
<ellipse fill="none" stroke="black" cx="685.87" cy="-324.29" rx="3.2" ry="3.2"/>
</g>
<!-- syst_instance_type_applications&#45;&gt;syst_applications -->
<g id="edge14" class="edge">
<title>syst_instance_type_applications:w&#45;&gt;syst_applications:e</title>
<path fill="none" stroke="black" d="M682.49,-301C671.18,-301 663.99,-301 648,-301"/>
<polygon fill="black" stroke="black" points="689,-301 697,-304.6 693,-301 697,-301 697,-301 697,-301 693,-301 697,-297.4 689,-301 689,-301"/>
<ellipse fill="none" stroke="black" cx="685.8" cy="-301" rx="3.2" ry="3.2"/>
</g>
<!-- syst_instance_type_contexts -->
<g id="node12" class="node">
<title>syst_instance_type_contexts</title>
<g id="a_node12"><a xlink:href="../../tables/syst_instance_type_contexts.html" xlink:title="syst_instance_type_contexts" target="_top">
<polygon fill="#ffffff" stroke="transparent" points="1079,-141 1079,-265 1310,-265 1310,-141 1079,-141"/>
<polygon fill="#f5f5f5" stroke="transparent" points="1079.5,-243 1079.5,-265 1310.5,-265 1310.5,-243 1079.5,-243"/>
<polygon fill="none" stroke="black" points="1079.5,-243 1079.5,-265 1310.5,-265 1310.5,-243 1079.5,-243"/>
<text text-anchor="start" x="1084.5" y="-252.2" font-family="Helvetica,sans-Serif" font-weight="bold" font-size="11.00">syst_instance_type_contexts</text>
<text text-anchor="start" x="1275.5" y="-251.2" font-family="Helvetica,sans-Serif" font-size="11.00">[table]</text>
<polygon fill="none" stroke="black" points="1079.5,-221 1079.5,-243 1310.5,-243 1310.5,-221 1079.5,-221"/>
<image xlink:href="../../images/primaryKeys.png" width="11px" height="12px" preserveAspectRatio="xMinYMin meet" x="1084.5" y="-238"/>
<text text-anchor="start" x="1108.5" y="-229.2" font-family="Helvetica,sans-Serif" font-size="11.00">id</text>
<polygon fill="#ffffff" stroke="transparent" points="1079.5,-199 1079.5,-221 1310.5,-221 1310.5,-199 1079.5,-199"/>
<polygon fill="none" stroke="black" points="1079.5,-199 1079.5,-221 1310.5,-221 1310.5,-199 1079.5,-199"/>
<image xlink:href="../../images/foreignKeys.png" width="11px" height="12px" preserveAspectRatio="xMinYMin meet" x="1084.5" y="-216"/>
<text text-anchor="start" x="1108.5" y="-207.2" font-family="Helvetica,sans-Serif" font-size="11.00">instance_type_application_id</text>
<polygon fill="#ffffff" stroke="transparent" points="1079.5,-177 1079.5,-199 1310.5,-199 1310.5,-177 1079.5,-177"/>
<polygon fill="none" stroke="black" points="1079.5,-177 1079.5,-199 1310.5,-199 1310.5,-177 1079.5,-177"/>
<image xlink:href="../../images/foreignKeys.png" width="11px" height="12px" preserveAspectRatio="xMinYMin meet" x="1084.5" y="-194"/>
<text text-anchor="start" x="1108.5" y="-185.2" font-family="Helvetica,sans-Serif" font-size="11.00">application_context_id</text>
<polygon fill="none" stroke="black" points="1079.5,-159 1079.5,-177 1310.5,-177 1310.5,-159 1079.5,-159"/>
<text text-anchor="start" x="1082.5" y="-165.2" font-family="Helvetica,sans-Serif" font-size="11.00">...</text>
<polygon fill="#ffffff" stroke="transparent" points="1079.5,-141 1079.5,-159 1192.5,-159 1192.5,-141 1079.5,-141"/>
<polygon fill="none" stroke="black" points="1079.5,-141 1079.5,-159 1192.5,-159 1192.5,-141 1079.5,-141"/>
<text text-anchor="start" x="1082.5" y="-147.2" font-family="Helvetica,sans-Serif" font-size="11.00">&lt; 2</text>
<polygon fill="#ffffff" stroke="transparent" points="1192.5,-141 1192.5,-159 1251.5,-159 1251.5,-141 1192.5,-141"/>
<polygon fill="none" stroke="black" points="1192.5,-141 1192.5,-159 1251.5,-159 1251.5,-141 1192.5,-141"/>
<text text-anchor="start" x="1241.5" y="-147.2" font-family="Helvetica,sans-Serif" font-size="11.00"> &#160;</text>
<polygon fill="#ffffff" stroke="transparent" points="1251.5,-141 1251.5,-159 1310.5,-159 1310.5,-141 1251.5,-141"/>
<polygon fill="none" stroke="black" points="1251.5,-141 1251.5,-159 1310.5,-159 1310.5,-141 1251.5,-141"/>
<text text-anchor="start" x="1300.5" y="-147.2" font-family="Helvetica,sans-Serif" font-size="11.00"> &#160;</text>
</a>
</g>
</g>
<!-- syst_instance_type_contexts&#45;&gt;syst_application_contexts -->
<g id="edge16" class="edge">
<title>syst_instance_type_contexts:w&#45;&gt;syst_application_contexts:e</title>
<path fill="none" stroke="black" d="M1064.39,-184.77C1044.58,-172.87 1061.51,-130.86 1038,-105 1014.52,-79.17 1005.91,-64 971,-64"/>
<polygon fill="black" stroke="black" points="1070.7,-186.21 1077.7,-191.51 1074.6,-187.11 1078.5,-188 1078.5,-188 1078.5,-188 1074.6,-187.11 1079.3,-184.49 1070.7,-186.21 1070.7,-186.21"/>
<ellipse fill="none" stroke="black" cx="1067.58" cy="-185.5" rx="3.2" ry="3.2"/>
</g>
<!-- syst_instance_type_contexts&#45;&gt;syst_instance_type_applications -->
<g id="edge17" class="edge">
<title>syst_instance_type_contexts:w&#45;&gt;syst_instance_type_applications:e</title>
<path fill="none" stroke="black" d="M1064.04,-213.34C1028.03,-234.13 1086.91,-345 1029,-345"/>
<polygon fill="black" stroke="black" points="1070.7,-211.8 1079.31,-213.51 1074.6,-210.9 1078.5,-210 1078.5,-210 1078.5,-210 1074.6,-210.9 1077.69,-206.49 1070.7,-211.8 1070.7,-211.8"/>
<ellipse fill="none" stroke="black" cx="1067.59" cy="-212.52" rx="3.2" ry="3.2"/>
</g>
<!-- syst_instances -->
<g id="node13" class="node">
<title>syst_instances</title>
<g id="a_node13"><a xlink:href="../../tables/syst_instances.html" xlink:title="syst_instances" target="_top">
<polygon fill="#ffffff" stroke="transparent" points="1125.5,-410 1125.5,-468 1263.5,-468 1263.5,-410 1125.5,-410"/>
<polygon fill="#f5f5f5" stroke="transparent" points="1125.5,-446 1125.5,-468 1263.5,-468 1263.5,-446 1125.5,-446"/>
<polygon fill="none" stroke="black" points="1125.5,-446 1125.5,-468 1263.5,-468 1263.5,-446 1125.5,-446"/>
<text text-anchor="start" x="1130.5" y="-455.2" font-family="Helvetica,sans-Serif" font-weight="bold" font-size="11.00">syst_instances</text>
<text text-anchor="start" x="1228.5" y="-454.2" font-family="Helvetica,sans-Serif" font-size="11.00">[table]</text>
<polygon fill="none" stroke="black" points="1125.5,-428 1125.5,-446 1263.5,-446 1263.5,-428 1125.5,-428"/>
<text text-anchor="start" x="1128.5" y="-434.2" font-family="Helvetica,sans-Serif" font-size="11.00">...</text>
<polygon fill="#ffffff" stroke="transparent" points="1125.5,-410 1125.5,-428 1187.5,-428 1187.5,-410 1125.5,-410"/>
<polygon fill="none" stroke="black" points="1125.5,-410 1125.5,-428 1187.5,-428 1187.5,-410 1125.5,-410"/>
<text text-anchor="start" x="1128.5" y="-416.2" font-family="Helvetica,sans-Serif" font-size="11.00">&lt; 5</text>
<polygon fill="#ffffff" stroke="transparent" points="1187.5,-410 1187.5,-428 1220.5,-428 1220.5,-410 1187.5,-410"/>
<polygon fill="none" stroke="black" points="1187.5,-410 1187.5,-428 1220.5,-428 1220.5,-410 1187.5,-410"/>
<text text-anchor="start" x="1210.5" y="-416.2" font-family="Helvetica,sans-Serif" font-size="11.00"> &#160;</text>
<polygon fill="#ffffff" stroke="transparent" points="1220.5,-410 1220.5,-428 1263.5,-428 1263.5,-410 1220.5,-410"/>
<polygon fill="none" stroke="black" points="1220.5,-410 1220.5,-428 1263.5,-428 1263.5,-410 1220.5,-410"/>
<text text-anchor="start" x="1244.5" y="-416.2" font-family="Helvetica,sans-Serif" font-size="11.00">4 &gt;</text>
</a>
</g>
</g>
<!-- syst_instances&#45;&gt;syst_enum_items -->
<g id="edge19" class="edge">
<title>syst_instances:w&#45;&gt;syst_enum_items:e</title>
<path fill="none" stroke="black" d="M1109.8,-436.76C1003.27,-433.62 762.04,-401.46 688,-457 644.04,-489.98 702.95,-574 648,-574"/>
<polygon fill="black" stroke="black" points="1116.5,-436.87 1124.44,-440.6 1120.5,-436.94 1124.5,-437 1124.5,-437 1124.5,-437 1120.5,-436.94 1124.56,-433.4 1116.5,-436.87 1116.5,-436.87"/>
<ellipse fill="none" stroke="black" cx="1113.3" cy="-436.82" rx="3.2" ry="3.2"/>
</g>
<!-- syst_instances&#45;&gt;syst_enum_items -->
<g id="edge20" class="edge">
<title>syst_instances:w&#45;&gt;syst_enum_items:e</title>
<path fill="none" stroke="black" d="M1109.79,-436.79C1003.23,-433.99 762.12,-405.5 688,-461 645.36,-492.93 701.28,-574 648,-574"/>
<polygon fill="black" stroke="black" points="1116.5,-436.88 1124.45,-440.6 1120.5,-436.94 1124.5,-437 1124.5,-437 1124.5,-437 1120.5,-436.94 1124.55,-433.4 1116.5,-436.88 1116.5,-436.88"/>
<ellipse fill="none" stroke="black" cx="1113.3" cy="-436.84" rx="3.2" ry="3.2"/>
</g>
<!-- syst_instances&#45;&gt;syst_owners -->
<g id="edge21" class="edge">
<title>syst_instances:w&#45;&gt;syst_owners:e</title>
<path fill="none" stroke="black" d="M1109.87,-438.2C1034.45,-451.88 1106.78,-578.69 1038,-642 999.12,-677.79 977.85,-679 925,-679"/>
<polygon fill="black" stroke="black" points="1116.53,-437.66 1124.8,-440.59 1120.51,-437.33 1124.5,-437 1124.5,-437 1124.5,-437 1120.51,-437.33 1124.2,-433.41 1116.53,-437.66 1116.53,-437.66"/>
<ellipse fill="none" stroke="black" cx="1113.34" cy="-437.92" rx="3.2" ry="3.2"/>
</g>
<!-- syst_instances&#45;&gt;syst_applications -->
<g id="edge18" class="edge">
<title>syst_instances:w&#45;&gt;syst_applications:e</title>
<path fill="none" stroke="black" d="M1110.08,-436.57C1082.6,-434.8 1071.31,-428.07 1038,-424 960.45,-414.52 751.43,-436.6 688,-391 652.46,-365.45 691.77,-301 648,-301"/>
<polygon fill="black" stroke="black" points="1116.5,-436.76 1124.39,-440.6 1120.5,-436.88 1124.5,-437 1124.5,-437 1124.5,-437 1120.5,-436.88 1124.61,-433.4 1116.5,-436.76 1116.5,-436.76"/>
<ellipse fill="none" stroke="black" cx="1113.31" cy="-436.66" rx="3.2" ry="3.2"/>
</g>
<!-- syst_menus -->
<g id="node14" class="node">
<title>syst_menus</title>
<g id="a_node14"><a xlink:href="../../tables/syst_menus.html" xlink:title="syst_menus" target="_top">
<polygon fill="#ffffff" stroke="transparent" points="804,-467 804,-525 922,-525 922,-467 804,-467"/>
<polygon fill="#f5f5f5" stroke="transparent" points="804,-503 804,-525 922,-525 922,-503 804,-503"/>
<polygon fill="none" stroke="black" points="804,-503 804,-525 922,-525 922,-503 804,-503"/>
<text text-anchor="start" x="809" y="-512.2" font-family="Helvetica,sans-Serif" font-weight="bold" font-size="11.00">syst_menus</text>
<text text-anchor="start" x="887" y="-511.2" font-family="Helvetica,sans-Serif" font-size="11.00">[table]</text>
<polygon fill="none" stroke="black" points="804,-485 804,-503 922,-503 922,-485 804,-485"/>
<text text-anchor="start" x="807" y="-491.2" font-family="Helvetica,sans-Serif" font-size="11.00">...</text>
<polygon fill="#ffffff" stroke="transparent" points="804,-467 804,-485 856,-485 856,-467 804,-467"/>
<polygon fill="none" stroke="black" points="804,-467 804,-485 856,-485 856,-467 804,-467"/>
<text text-anchor="start" x="807" y="-473.2" font-family="Helvetica,sans-Serif" font-size="11.00">&lt; 1</text>
<polygon fill="#ffffff" stroke="transparent" points="856,-467 856,-485 884,-485 884,-467 856,-467"/>
<polygon fill="none" stroke="black" points="856,-467 856,-485 884,-485 884,-467 856,-467"/>
<text text-anchor="start" x="874" y="-473.2" font-family="Helvetica,sans-Serif" font-size="11.00"> &#160;</text>
<polygon fill="#ffffff" stroke="transparent" points="884,-467 884,-485 922,-485 922,-467 884,-467"/>
<polygon fill="none" stroke="black" points="884,-467 884,-485 922,-485 922,-467 884,-467"/>
<text text-anchor="start" x="903" y="-473.2" font-family="Helvetica,sans-Serif" font-size="11.00">2 &gt;</text>
</a>
</g>
</g>
<!-- syst_menus&#45;&gt;syst_enum_items -->
<g id="edge22" class="edge">
<title>syst_menus:w&#45;&gt;syst_enum_items:e</title>
<path fill="none" stroke="black" d="M788.6,-494.43C745.34,-497.2 730.51,-513.18 688,-539 667.81,-551.26 671.62,-574 648,-574"/>
<polygon fill="black" stroke="black" points="795,-494.24 803.11,-497.6 799,-494.12 803,-494 803,-494 803,-494 799,-494.12 802.89,-490.4 795,-494.24 795,-494.24"/>
<ellipse fill="none" stroke="black" cx="791.81" cy="-494.34" rx="3.2" ry="3.2"/>
</g>
</g>
</svg>
