<?xml version="1.0" encoding="UTF-8" standalone="no"?>
<!DOCTYPE svg PUBLIC "-//W3C//DTD SVG 1.1//EN"
 "http://www.w3.org/Graphics/SVG/1.1/DTD/svg11.dtd">
<!-- Generated by graphviz version 2.43.0 (0)
 -->
<!-- Title: twoDegreesRelationshipsDiagram Pages: 1 -->
<svg width="947pt" height="559pt"
 viewBox="0.00 0.00 947.00 559.00" xmlns="http://www.w3.org/2000/svg" xmlns:xlink="http://www.w3.org/1999/xlink">
<g id="graph0" class="graph" transform="scale(1 1) rotate(0) translate(4 555)">
<title>twoDegreesRelationshipsDiagram</title>
<polygon fill="#ffffff" stroke="transparent" points="-4,4 -4,-555 943,-555 943,4 -4,4"/>
<text text-anchor="middle" x="71.5" y="-7.2" font-family="Helvetica,sans-Serif" font-size="11.00">Generated by SchemaSpy</text>
<!-- syst_access_account_perm_role_assigns -->
<g id="node1" class="node">
<title>syst_access_account_perm_role_assigns</title>
<g id="a_node1"><a xlink:href="../../tables/syst_access_account_perm_role_assigns.html" xlink:title="syst_access_account_perm_role_assigns" target="_top">
<polygon fill="#ffffff" stroke="transparent" points="623,-416 623,-540 931,-540 931,-416 623,-416"/>
<polygon fill="#f5f5f5" stroke="transparent" points="623,-518 623,-540 931,-540 931,-518 623,-518"/>
<polygon fill="none" stroke="black" points="623,-518 623,-540 931,-540 931,-518 623,-518"/>
<text text-anchor="start" x="628" y="-527.2" font-family="Helvetica,sans-Serif" font-weight="bold" font-size="11.00">syst_access_account_perm_role_assigns</text>
<text text-anchor="start" x="896" y="-526.2" font-family="Helvetica,sans-Serif" font-size="11.00">[table]</text>
<polygon fill="none" stroke="black" points="623,-496 623,-518 931,-518 931,-496 623,-496"/>
<image xlink:href="../../images/primaryKeys.png" width="11px" height="12px" preserveAspectRatio="xMinYMin meet" x="628" y="-513"/>
<text text-anchor="start" x="653" y="-504.2" font-family="Helvetica,sans-Serif" font-size="11.00">id</text>
<polygon fill="#ffffff" stroke="transparent" points="623,-474 623,-496 931,-496 931,-474 623,-474"/>
<polygon fill="none" stroke="black" points="623,-474 623,-496 931,-496 931,-474 623,-474"/>
<image xlink:href="../../images/foreignKeys.png" width="11px" height="12px" preserveAspectRatio="xMinYMin meet" x="628" y="-491"/>
<text text-anchor="start" x="653" y="-482.2" font-family="Helvetica,sans-Serif" font-size="11.00">access_account_id</text>
<polygon fill="#ffffff" stroke="transparent" points="623,-452 623,-474 931,-474 931,-452 623,-452"/>
<polygon fill="none" stroke="black" points="623,-452 623,-474 931,-474 931,-452 623,-452"/>
<image xlink:href="../../images/foreignKeys.png" width="11px" height="12px" preserveAspectRatio="xMinYMin meet" x="628" y="-469"/>
<text text-anchor="start" x="653" y="-460.2" font-family="Helvetica,sans-Serif" font-size="11.00">perm_role_id</text>
<polygon fill="none" stroke="black" points="623,-434 623,-452 931,-452 931,-434 623,-434"/>
<text text-anchor="start" x="626" y="-440.2" font-family="Helvetica,sans-Serif" font-size="11.00">...</text>
<polygon fill="#ffffff" stroke="transparent" points="623,-416 623,-434 775,-434 775,-416 623,-416"/>
<polygon fill="none" stroke="black" points="623,-416 623,-434 775,-434 775,-416 623,-416"/>
<text text-anchor="start" x="626" y="-422.2" font-family="Helvetica,sans-Serif" font-size="11.00">&lt; 2</text>
<polygon fill="#ffffff" stroke="transparent" points="775,-416 775,-434 853,-434 853,-416 775,-416"/>
<polygon fill="none" stroke="black" points="775,-416 775,-434 853,-434 853,-416 775,-416"/>
<text text-anchor="start" x="843" y="-422.2" font-family="Helvetica,sans-Serif" font-size="11.00"> &#160;</text>
<polygon fill="#ffffff" stroke="transparent" points="853,-416 853,-434 931,-434 931,-416 853,-416"/>
<polygon fill="none" stroke="black" points="853,-416 853,-434 931,-434 931,-416 853,-416"/>
<text text-anchor="start" x="921" y="-422.2" font-family="Helvetica,sans-Serif" font-size="11.00"> &#160;</text>
</a>
</g>
</g>
<!-- syst_access_accounts -->
<g id="node2" class="node">
<title>syst_access_accounts</title>
<g id="a_node2"><a xlink:href="../../tables/syst_access_accounts.html" xlink:title="syst_access_accounts" target="_top">
<polygon fill="#ffffff" stroke="transparent" points="336,-489 336,-547 521,-547 521,-489 336,-489"/>
<polygon fill="#f5f5f5" stroke="transparent" points="336.5,-525 336.5,-547 521.5,-547 521.5,-525 336.5,-525"/>
<polygon fill="none" stroke="black" points="336.5,-525 336.5,-547 521.5,-547 521.5,-525 336.5,-525"/>
<text text-anchor="start" x="341.5" y="-534.2" font-family="Helvetica,sans-Serif" font-weight="bold" font-size="11.00">syst_access_accounts</text>
<text text-anchor="start" x="486.5" y="-533.2" font-family="Helvetica,sans-Serif" font-size="11.00">[table]</text>
<polygon fill="none" stroke="black" points="336.5,-507 336.5,-525 521.5,-525 521.5,-507 336.5,-507"/>
<text text-anchor="start" x="339.5" y="-513.2" font-family="Helvetica,sans-Serif" font-size="11.00">...</text>
<polygon fill="#ffffff" stroke="transparent" points="336.5,-489 336.5,-507 422.5,-507 422.5,-489 336.5,-489"/>
<polygon fill="none" stroke="black" points="336.5,-489 336.5,-507 422.5,-507 422.5,-489 336.5,-489"/>
<text text-anchor="start" x="339.5" y="-495.2" font-family="Helvetica,sans-Serif" font-size="11.00">&lt; 2</text>
<polygon fill="#ffffff" stroke="transparent" points="422.5,-489 422.5,-507 467.5,-507 467.5,-489 422.5,-489"/>
<polygon fill="none" stroke="black" points="422.5,-489 422.5,-507 467.5,-507 467.5,-489 422.5,-489"/>
<text text-anchor="start" x="457.5" y="-495.2" font-family="Helvetica,sans-Serif" font-size="11.00"> &#160;</text>
<polygon fill="#ffffff" stroke="transparent" points="467.5,-489 467.5,-507 521.5,-507 521.5,-489 467.5,-489"/>
<polygon fill="none" stroke="black" points="467.5,-489 467.5,-507 521.5,-507 521.5,-489 467.5,-489"/>
<text text-anchor="start" x="502.5" y="-495.2" font-family="Helvetica,sans-Serif" font-size="11.00">5 &gt;</text>
</a>
</g>
</g>
<!-- syst_access_account_perm_role_assigns&#45;&gt;syst_access_accounts -->
<g id="edge1" class="edge">
<title>syst_access_account_perm_role_assigns:w&#45;&gt;syst_access_accounts:e</title>
<path fill="none" stroke="black" d="M607.21,-486.18C573.53,-491.84 563.39,-516 522.5,-516"/>
<polygon fill="black" stroke="black" points="614.03,-485.64 622.29,-488.59 618.01,-485.32 622,-485 622,-485 622,-485 618.01,-485.32 621.71,-481.41 614.03,-485.64 614.03,-485.64"/>
<ellipse fill="none" stroke="black" cx="610.84" cy="-485.89" rx="3.2" ry="3.2"/>
</g>
<!-- syst_perm_roles -->
<g id="node3" class="node">
<title>syst_perm_roles</title>
<g id="a_node3"><a xlink:href="../../tables/syst_perm_roles.html" xlink:title="syst_perm_roles" target="_top">
<polygon fill="#ffffff" stroke="transparent" points="283,-116 283,-468 574,-468 574,-116 283,-116"/>
<polygon fill="#f5f5f5" stroke="transparent" points="285.5,-444 285.5,-466 572.5,-466 572.5,-444 285.5,-444"/>
<polygon fill="none" stroke="black" points="285.5,-444 285.5,-466 572.5,-466 572.5,-444 285.5,-444"/>
<text text-anchor="start" x="290.5" y="-453.2" font-family="Helvetica,sans-Serif" font-weight="bold" font-size="11.00">syst_perm_roles</text>
<text text-anchor="start" x="537.5" y="-452.2" font-family="Helvetica,sans-Serif" font-size="11.00">[table]</text>
<polygon fill="none" stroke="black" points="285.5,-422 285.5,-444 479.5,-444 479.5,-422 285.5,-422"/>
<image xlink:href="../../images/primaryKeys.png" width="11px" height="12px" preserveAspectRatio="xMinYMin meet" x="290.5" y="-439"/>
<text text-anchor="start" x="305.5" y="-430.2" font-family="Helvetica,sans-Serif" font-size="11.00">id</text>
<polygon fill="none" stroke="black" points="479.5,-422 479.5,-444 572.5,-444 572.5,-422 479.5,-422"/>
<text text-anchor="start" x="482.5" y="-430.2" font-family="Helvetica,sans-Serif" font-size="11.00">uuid[2147483647]</text>
<polygon fill="#ffffff" stroke="transparent" points="285.5,-400 285.5,-422 479.5,-422 479.5,-400 285.5,-400"/>
<polygon fill="none" stroke="black" points="285.5,-400 285.5,-422 479.5,-422 479.5,-400 285.5,-400"/>
<text text-anchor="start" x="305.5" y="-408.2" font-family="Helvetica,sans-Serif" font-size="11.00">internal_name</text>
<polygon fill="none" stroke="black" points="479.5,-400 479.5,-422 572.5,-422 572.5,-400 479.5,-400"/>
<text text-anchor="start" x="482.5" y="-408.2" font-family="Helvetica,sans-Serif" font-size="11.00">text[2147483647]</text>
<polygon fill="#ffffff" stroke="transparent" points="285.5,-378 285.5,-400 479.5,-400 479.5,-378 285.5,-378"/>
<polygon fill="none" stroke="black" points="285.5,-378 285.5,-400 479.5,-400 479.5,-378 285.5,-378"/>
<text text-anchor="start" x="305.5" y="-386.2" font-family="Helvetica,sans-Serif" font-size="11.00">display_name</text>
<polygon fill="none" stroke="black" points="479.5,-378 479.5,-400 572.5,-400 572.5,-378 479.5,-378"/>
<text text-anchor="start" x="482.5" y="-386.2" font-family="Helvetica,sans-Serif" font-size="11.00">text[2147483647]</text>
<polygon fill="none" stroke="black" points="285.5,-356 285.5,-378 479.5,-378 479.5,-356 285.5,-356"/>
<image xlink:href="../../images/foreignKeys.png" width="11px" height="12px" preserveAspectRatio="xMinYMin meet" x="290.5" y="-373"/>
<text text-anchor="start" x="305.5" y="-364.2" font-family="Helvetica,sans-Serif" font-size="11.00">perm_functional_type_id</text>
<polygon fill="none" stroke="black" points="479.5,-356 479.5,-378 572.5,-378 572.5,-356 479.5,-356"/>
<text text-anchor="start" x="482.5" y="-364.2" font-family="Helvetica,sans-Serif" font-size="11.00">uuid[2147483647]</text>
<polygon fill="none" stroke="black" points="285.5,-334 285.5,-356 479.5,-356 479.5,-334 285.5,-334"/>
<text text-anchor="start" x="305.5" y="-342.2" font-family="Helvetica,sans-Serif" font-size="11.00">syst_defined</text>
<polygon fill="none" stroke="black" points="479.5,-334 479.5,-356 572.5,-356 572.5,-334 479.5,-334"/>
<text text-anchor="start" x="482.5" y="-342.2" font-family="Helvetica,sans-Serif" font-size="11.00">bool[1]</text>
<polygon fill="none" stroke="black" points="285.5,-312 285.5,-334 479.5,-334 479.5,-312 285.5,-312"/>
<text text-anchor="start" x="305.5" y="-320.2" font-family="Helvetica,sans-Serif" font-size="11.00">syst_description</text>
<polygon fill="none" stroke="black" points="479.5,-312 479.5,-334 572.5,-334 572.5,-312 479.5,-312"/>
<text text-anchor="start" x="482.5" y="-320.2" font-family="Helvetica,sans-Serif" font-size="11.00">text[2147483647]</text>
<polygon fill="none" stroke="black" points="285.5,-290 285.5,-312 479.5,-312 479.5,-290 285.5,-290"/>
<text text-anchor="start" x="305.5" y="-298.2" font-family="Helvetica,sans-Serif" font-size="11.00">user_description</text>
<polygon fill="none" stroke="black" points="479.5,-290 479.5,-312 572.5,-312 572.5,-290 479.5,-290"/>
<text text-anchor="start" x="482.5" y="-298.2" font-family="Helvetica,sans-Serif" font-size="11.00">text[2147483647]</text>
<polygon fill="none" stroke="black" points="285.5,-268 285.5,-290 479.5,-290 479.5,-268 285.5,-268"/>
<text text-anchor="start" x="305.5" y="-276.2" font-family="Helvetica,sans-Serif" font-size="11.00">diag_timestamp_created</text>
<polygon fill="none" stroke="black" points="479.5,-268 479.5,-290 572.5,-290 572.5,-268 479.5,-268"/>
<text text-anchor="start" x="482.5" y="-276.2" font-family="Helvetica,sans-Serif" font-size="11.00">timestamptz[35,6]</text>
<polygon fill="none" stroke="black" points="285.5,-246 285.5,-268 479.5,-268 479.5,-246 285.5,-246"/>
<text text-anchor="start" x="305.5" y="-254.2" font-family="Helvetica,sans-Serif" font-size="11.00">diag_role_created</text>
<polygon fill="none" stroke="black" points="479.5,-246 479.5,-268 572.5,-268 572.5,-246 479.5,-246"/>
<text text-anchor="start" x="482.5" y="-254.2" font-family="Helvetica,sans-Serif" font-size="11.00">text[2147483647]</text>
<polygon fill="none" stroke="black" points="285.5,-224 285.5,-246 479.5,-246 479.5,-224 285.5,-224"/>
<text text-anchor="start" x="305.5" y="-232.2" font-family="Helvetica,sans-Serif" font-size="11.00">diag_timestamp_modified</text>
<polygon fill="none" stroke="black" points="479.5,-224 479.5,-246 572.5,-246 572.5,-224 479.5,-224"/>
<text text-anchor="start" x="482.5" y="-232.2" font-family="Helvetica,sans-Serif" font-size="11.00">timestamptz[35,6]</text>
<polygon fill="none" stroke="black" points="285.5,-202 285.5,-224 479.5,-224 479.5,-202 285.5,-202"/>
<text text-anchor="start" x="305.5" y="-210.2" font-family="Helvetica,sans-Serif" font-size="11.00">diag_wallclock_modified</text>
<polygon fill="none" stroke="black" points="479.5,-202 479.5,-224 572.5,-224 572.5,-202 479.5,-202"/>
<text text-anchor="start" x="482.5" y="-210.2" font-family="Helvetica,sans-Serif" font-size="11.00">timestamptz[35,6]</text>
<polygon fill="none" stroke="black" points="285.5,-180 285.5,-202 479.5,-202 479.5,-180 285.5,-180"/>
<text text-anchor="start" x="305.5" y="-188.2" font-family="Helvetica,sans-Serif" font-size="11.00">diag_role_modified</text>
<polygon fill="none" stroke="black" points="479.5,-180 479.5,-202 572.5,-202 572.5,-180 479.5,-180"/>
<text text-anchor="start" x="482.5" y="-188.2" font-family="Helvetica,sans-Serif" font-size="11.00">text[2147483647]</text>
<polygon fill="none" stroke="black" points="285.5,-158 285.5,-180 479.5,-180 479.5,-158 285.5,-158"/>
<text text-anchor="start" x="305.5" y="-166.2" font-family="Helvetica,sans-Serif" font-size="11.00">diag_row_version</text>
<polygon fill="none" stroke="black" points="479.5,-158 479.5,-180 572.5,-180 572.5,-158 479.5,-158"/>
<text text-anchor="start" x="482.5" y="-166.2" font-family="Helvetica,sans-Serif" font-size="11.00">int8[19]</text>
<polygon fill="none" stroke="black" points="285.5,-136 285.5,-158 479.5,-158 479.5,-136 285.5,-136"/>
<text text-anchor="start" x="305.5" y="-144.2" font-family="Helvetica,sans-Serif" font-size="11.00">diag_update_count</text>
<polygon fill="none" stroke="black" points="479.5,-136 479.5,-158 572.5,-158 572.5,-136 479.5,-136"/>
<text text-anchor="start" x="482.5" y="-144.2" font-family="Helvetica,sans-Serif" font-size="11.00">int8[19]</text>
<polygon fill="#ffffff" stroke="transparent" points="285.5,-118 285.5,-136 386.5,-136 386.5,-118 285.5,-118"/>
<polygon fill="none" stroke="black" points="285.5,-118 285.5,-136 386.5,-136 386.5,-118 285.5,-118"/>
<text text-anchor="start" x="288.5" y="-124.2" font-family="Helvetica,sans-Serif" font-size="11.00">&lt; 1</text>
<polygon fill="#ffffff" stroke="transparent" points="386.5,-118 386.5,-136 479.5,-136 479.5,-118 386.5,-118"/>
<polygon fill="none" stroke="black" points="386.5,-118 386.5,-136 479.5,-136 479.5,-118 386.5,-118"/>
<text text-anchor="start" x="469.5" y="-124.2" font-family="Helvetica,sans-Serif" font-size="11.00"> &#160;</text>
<polygon fill="#ffffff" stroke="transparent" points="479.5,-118 479.5,-136 572.5,-136 572.5,-118 479.5,-118"/>
<polygon fill="none" stroke="black" points="479.5,-118 479.5,-136 572.5,-136 572.5,-118 479.5,-118"/>
<text text-anchor="start" x="553.5" y="-124.2" font-family="Helvetica,sans-Serif" font-size="11.00">2 &gt;</text>
<polygon fill="none" stroke="black" stroke-width="2" points="284,-117 284,-467 573,-467 573,-117 284,-117"/>
</a>
</g>
</g>
<!-- syst_access_account_perm_role_assigns&#45;&gt;syst_perm_roles -->
<g id="edge2" class="edge">
<title>syst_access_account_perm_role_assigns:w&#45;&gt;syst_perm_roles:e</title>
<path fill="none" stroke="black" d="M608.01,-458.83C596.17,-450.59 592.91,-433 573.5,-433"/>
<polygon fill="black" stroke="black" points="614.33,-460.71 620.97,-466.45 618.17,-461.86 622,-463 622,-463 622,-463 618.17,-461.86 623.03,-459.55 614.33,-460.71 614.33,-460.71"/>
<ellipse fill="none" stroke="black" cx="611.27" cy="-459.8" rx="3.2" ry="3.2"/>
</g>
<!-- syst_perm_functional_types -->
<g id="node6" class="node">
<title>syst_perm_functional_types</title>
<g id="a_node6"><a xlink:href="../../tables/syst_perm_functional_types.html" xlink:title="syst_perm_functional_types" target="_top">
<polygon fill="#ffffff" stroke="transparent" points="8,-124 8,-248 234,-248 234,-124 8,-124"/>
<polygon fill="#f5f5f5" stroke="transparent" points="8,-226 8,-248 234,-248 234,-226 8,-226"/>
<polygon fill="none" stroke="black" points="8,-226 8,-248 234,-248 234,-226 8,-226"/>
<text text-anchor="start" x="13" y="-235.2" font-family="Helvetica,sans-Serif" font-weight="bold" font-size="11.00">syst_perm_functional_types</text>
<text text-anchor="start" x="199" y="-234.2" font-family="Helvetica,sans-Serif" font-size="11.00">[table]</text>
<polygon fill="none" stroke="black" points="8,-204 8,-226 234,-226 234,-204 8,-204"/>
<image xlink:href="../../images/primaryKeys.png" width="11px" height="12px" preserveAspectRatio="xMinYMin meet" x="13" y="-221"/>
<text text-anchor="start" x="38" y="-212.2" font-family="Helvetica,sans-Serif" font-size="11.00">id</text>
<polygon fill="#ffffff" stroke="transparent" points="8,-182 8,-204 234,-204 234,-182 8,-182"/>
<polygon fill="none" stroke="black" points="8,-182 8,-204 234,-204 234,-182 8,-182"/>
<text text-anchor="start" x="38" y="-190.2" font-family="Helvetica,sans-Serif" font-size="11.00">internal_name</text>
<polygon fill="#ffffff" stroke="transparent" points="8,-160 8,-182 234,-182 234,-160 8,-160"/>
<polygon fill="none" stroke="black" points="8,-160 8,-182 234,-182 234,-160 8,-160"/>
<text text-anchor="start" x="38" y="-168.2" font-family="Helvetica,sans-Serif" font-size="11.00">display_name</text>
<polygon fill="none" stroke="black" points="8,-142 8,-160 234,-160 234,-142 8,-142"/>
<text text-anchor="start" x="11" y="-148.2" font-family="Helvetica,sans-Serif" font-size="11.00">...</text>
<polygon fill="#ffffff" stroke="transparent" points="8,-124 8,-142 110,-142 110,-124 8,-124"/>
<polygon fill="none" stroke="black" points="8,-124 8,-142 110,-142 110,-124 8,-124"/>
<text text-anchor="start" x="11" y="-130.2" font-family="Helvetica,sans-Serif" font-size="11.00"> &#160;</text>
<polygon fill="#ffffff" stroke="transparent" points="110,-124 110,-142 167,-142 167,-124 110,-124"/>
<polygon fill="none" stroke="black" points="110,-124 110,-142 167,-142 167,-124 110,-124"/>
<text text-anchor="start" x="157" y="-130.2" font-family="Helvetica,sans-Serif" font-size="11.00"> &#160;</text>
<polygon fill="#ffffff" stroke="transparent" points="167,-124 167,-142 234,-142 234,-124 167,-124"/>
<polygon fill="none" stroke="black" points="167,-124 167,-142 234,-142 234,-124 167,-124"/>
<text text-anchor="start" x="215" y="-130.2" font-family="Helvetica,sans-Serif" font-size="11.00">2 &gt;</text>
</a>
</g>
</g>
<!-- syst_perm_roles&#45;&gt;syst_perm_functional_types -->
<g id="edge5" class="edge">
<title>syst_perm_roles:w&#45;&gt;syst_perm_functional_types:e</title>
<path fill="none" stroke="black" d="M270.14,-364.1C227.54,-343.09 300.22,-215 235,-215"/>
<polygon fill="black" stroke="black" points="276.66,-365.42 283.79,-370.53 280.58,-366.21 284.5,-367 284.5,-367 284.5,-367 280.58,-366.21 285.21,-363.47 276.66,-365.42 276.66,-365.42"/>
<ellipse fill="none" stroke="black" cx="273.52" cy="-364.78" rx="3.2" ry="3.2"/>
</g>
<!-- syst_perm_role_grants -->
<g id="node4" class="node">
<title>syst_perm_role_grants</title>
<g id="a_node4"><a xlink:href="../../tables/syst_perm_role_grants.html" xlink:title="syst_perm_role_grants" target="_top">
<polygon fill="#ffffff" stroke="transparent" points="680,-159 680,-283 874,-283 874,-159 680,-159"/>
<polygon fill="#f5f5f5" stroke="transparent" points="680,-261 680,-283 874,-283 874,-261 680,-261"/>
<polygon fill="none" stroke="black" points="680,-261 680,-283 874,-283 874,-261 680,-261"/>
<text text-anchor="start" x="685" y="-270.2" font-family="Helvetica,sans-Serif" font-weight="bold" font-size="11.00">syst_perm_role_grants</text>
<text text-anchor="start" x="839" y="-269.2" font-family="Helvetica,sans-Serif" font-size="11.00">[table]</text>
<polygon fill="none" stroke="black" points="680,-239 680,-261 874,-261 874,-239 680,-239"/>
<image xlink:href="../../images/primaryKeys.png" width="11px" height="12px" preserveAspectRatio="xMinYMin meet" x="685" y="-256"/>
<text text-anchor="start" x="700" y="-247.2" font-family="Helvetica,sans-Serif" font-size="11.00">id</text>
<polygon fill="#ffffff" stroke="transparent" points="680,-217 680,-239 874,-239 874,-217 680,-217"/>
<polygon fill="none" stroke="black" points="680,-217 680,-239 874,-239 874,-217 680,-217"/>
<image xlink:href="../../images/foreignKeys.png" width="11px" height="12px" preserveAspectRatio="xMinYMin meet" x="685" y="-234"/>
<text text-anchor="start" x="700" y="-225.2" font-family="Helvetica,sans-Serif" font-size="11.00">perm_role_id</text>
<polygon fill="#ffffff" stroke="transparent" points="680,-195 680,-217 874,-217 874,-195 680,-195"/>
<polygon fill="none" stroke="black" points="680,-195 680,-217 874,-217 874,-195 680,-195"/>
<image xlink:href="../../images/foreignKeys.png" width="11px" height="12px" preserveAspectRatio="xMinYMin meet" x="685" y="-212"/>
<text text-anchor="start" x="700" y="-203.2" font-family="Helvetica,sans-Serif" font-size="11.00">perm_id</text>
<polygon fill="none" stroke="black" points="680,-177 680,-195 874,-195 874,-177 680,-177"/>
<text text-anchor="start" x="683" y="-183.2" font-family="Helvetica,sans-Serif" font-size="11.00">...</text>
<polygon fill="#ffffff" stroke="transparent" points="680,-159 680,-177 775,-177 775,-159 680,-159"/>
<polygon fill="none" stroke="black" points="680,-159 680,-177 775,-177 775,-159 680,-159"/>
<text text-anchor="start" x="683" y="-165.2" font-family="Helvetica,sans-Serif" font-size="11.00">&lt; 2</text>
<polygon fill="#ffffff" stroke="transparent" points="775,-159 775,-177 824,-177 824,-159 775,-159"/>
<polygon fill="none" stroke="black" points="775,-159 775,-177 824,-177 824,-159 775,-159"/>
<text text-anchor="start" x="814" y="-165.2" font-family="Helvetica,sans-Serif" font-size="11.00"> &#160;</text>
<polygon fill="#ffffff" stroke="transparent" points="824,-159 824,-177 874,-177 874,-159 824,-159"/>
<polygon fill="none" stroke="black" points="824,-159 824,-177 874,-177 874,-159 824,-159"/>
<text text-anchor="start" x="864" y="-165.2" font-family="Helvetica,sans-Serif" font-size="11.00"> &#160;</text>
</a>
</g>
</g>
<!-- syst_perm_role_grants&#45;&gt;syst_perm_roles -->
<g id="edge4" class="edge">
<title>syst_perm_role_grants:w&#45;&gt;syst_perm_roles:e</title>
<path fill="none" stroke="black" d="M665.28,-233.48C626.71,-266.08 619.73,-433 573.5,-433"/>
<polygon fill="black" stroke="black" points="671.57,-230.97 680.34,-231.34 675.29,-229.48 679,-228 679,-228 679,-228 675.29,-229.48 677.66,-224.66 671.57,-230.97 671.57,-230.97"/>
<ellipse fill="none" stroke="black" cx="668.6" cy="-232.16" rx="3.2" ry="3.2"/>
</g>
<!-- syst_perms -->
<g id="node5" class="node">
<title>syst_perms</title>
<g id="a_node5"><a xlink:href="../../tables/syst_perms.html" xlink:title="syst_perms" target="_top">
<polygon fill="#ffffff" stroke="transparent" points="370.5,-37 370.5,-95 486.5,-95 486.5,-37 370.5,-37"/>
<polygon fill="#f5f5f5" stroke="transparent" points="370.5,-73 370.5,-95 486.5,-95 486.5,-73 370.5,-73"/>
<polygon fill="none" stroke="black" points="370.5,-73 370.5,-95 486.5,-95 486.5,-73 370.5,-73"/>
<text text-anchor="start" x="375.5" y="-82.2" font-family="Helvetica,sans-Serif" font-weight="bold" font-size="11.00">syst_perms</text>
<text text-anchor="start" x="451.5" y="-81.2" font-family="Helvetica,sans-Serif" font-size="11.00">[table]</text>
<polygon fill="none" stroke="black" points="370.5,-55 370.5,-73 486.5,-73 486.5,-55 370.5,-55"/>
<text text-anchor="start" x="373.5" y="-61.2" font-family="Helvetica,sans-Serif" font-size="11.00">...</text>
<polygon fill="#ffffff" stroke="transparent" points="370.5,-37 370.5,-55 421.5,-55 421.5,-37 370.5,-37"/>
<polygon fill="none" stroke="black" points="370.5,-37 370.5,-55 421.5,-55 421.5,-37 370.5,-37"/>
<text text-anchor="start" x="373.5" y="-43.2" font-family="Helvetica,sans-Serif" font-size="11.00">&lt; 1</text>
<polygon fill="#ffffff" stroke="transparent" points="421.5,-37 421.5,-55 449.5,-55 449.5,-37 421.5,-37"/>
<polygon fill="none" stroke="black" points="421.5,-37 421.5,-55 449.5,-55 449.5,-37 421.5,-37"/>
<text text-anchor="start" x="439.5" y="-43.2" font-family="Helvetica,sans-Serif" font-size="11.00"> &#160;</text>
<polygon fill="#ffffff" stroke="transparent" points="449.5,-37 449.5,-55 486.5,-55 486.5,-37 449.5,-37"/>
<polygon fill="none" stroke="black" points="449.5,-37 449.5,-55 486.5,-55 486.5,-37 449.5,-37"/>
<text text-anchor="start" x="467.5" y="-43.2" font-family="Helvetica,sans-Serif" font-size="11.00">1 &gt;</text>
</a>
</g>
</g>
<!-- syst_perm_role_grants&#45;&gt;syst_perms -->
<g id="edge3" class="edge">
<title>syst_perm_role_grants:w&#45;&gt;syst_perms:e</title>
<path fill="none" stroke="black" d="M664.66,-204.63C619.29,-195.12 628.41,-138.4 582,-106 544.31,-79.69 533.46,-64 487.5,-64"/>
<polygon fill="black" stroke="black" points="671.04,-205.24 678.66,-209.58 675.02,-205.62 679,-206 679,-206 679,-206 675.02,-205.62 679.34,-202.42 671.04,-205.24 671.04,-205.24"/>
<ellipse fill="none" stroke="black" cx="667.85" cy="-204.93" rx="3.2" ry="3.2"/>
</g>
<!-- syst_perms&#45;&gt;syst_perm_functional_types -->
<g id="edge6" class="edge">
<title>syst_perms:w&#45;&gt;syst_perm_functional_types:e</title>
<path fill="none" stroke="black" d="M354.93,-64.35C319.47,-66.23 302.84,-76.24 275,-106 239.74,-143.68 286.6,-215 235,-215"/>
<polygon fill="black" stroke="black" points="361.5,-64.19 369.59,-67.6 365.5,-64.1 369.5,-64 369.5,-64 369.5,-64 365.5,-64.1 369.41,-60.4 361.5,-64.19 361.5,-64.19"/>
<ellipse fill="none" stroke="black" cx="358.3" cy="-64.27" rx="3.2" ry="3.2"/>
</g>
</g>
</svg>
