<?xml version="1.0" encoding="UTF-8" standalone="no"?>
<!DOCTYPE svg PUBLIC "-//W3C//DTD SVG 1.1//EN"
 "http://www.w3.org/Graphics/SVG/1.1/DTD/svg11.dtd">
<!-- Generated by graphviz version 2.43.0 (0)
 -->
<!-- Title: twoDegreesRelationshipsDiagram Pages: 1 -->
<svg width="1726pt" height="593pt"
 viewBox="0.00 0.00 1726.00 593.00" xmlns="http://www.w3.org/2000/svg" xmlns:xlink="http://www.w3.org/1999/xlink">
<g id="graph0" class="graph" transform="scale(1 1) rotate(0) translate(4 589)">
<title>twoDegreesRelationshipsDiagram</title>
<polygon fill="#ffffff" stroke="transparent" points="-4,4 -4,-589 1722,-589 1722,4 -4,4"/>
<text text-anchor="middle" x="71.5" y="-7.2" font-family="Helvetica,sans-Serif" font-size="11.00">Generated by SchemaSpy</text>
<!-- syst_access_accounts -->
<g id="node1" class="node">
<title>syst_access_accounts</title>
<g id="a_node1"><a xlink:href="../../tables/syst_access_accounts.html" xlink:title="syst_access_accounts" target="_top">
<polygon fill="#ffffff" stroke="transparent" points="1140,-440 1140,-498 1325,-498 1325,-440 1140,-440"/>
<polygon fill="#f5f5f5" stroke="transparent" points="1140.5,-476 1140.5,-498 1325.5,-498 1325.5,-476 1140.5,-476"/>
<polygon fill="none" stroke="black" points="1140.5,-476 1140.5,-498 1325.5,-498 1325.5,-476 1140.5,-476"/>
<text text-anchor="start" x="1145.5" y="-485.2" font-family="Helvetica,sans-Serif" font-weight="bold" font-size="11.00">syst_access_accounts</text>
<text text-anchor="start" x="1290.5" y="-484.2" font-family="Helvetica,sans-Serif" font-size="11.00">[table]</text>
<polygon fill="none" stroke="black" points="1140.5,-458 1140.5,-476 1325.5,-476 1325.5,-458 1140.5,-458"/>
<text text-anchor="start" x="1143.5" y="-464.2" font-family="Helvetica,sans-Serif" font-size="11.00">...</text>
<polygon fill="#ffffff" stroke="transparent" points="1140.5,-440 1140.5,-458 1226.5,-458 1226.5,-440 1140.5,-440"/>
<polygon fill="none" stroke="black" points="1140.5,-440 1140.5,-458 1226.5,-458 1226.5,-440 1140.5,-440"/>
<text text-anchor="start" x="1143.5" y="-446.2" font-family="Helvetica,sans-Serif" font-size="11.00">&lt; 2</text>
<polygon fill="#ffffff" stroke="transparent" points="1226.5,-440 1226.5,-458 1271.5,-458 1271.5,-440 1226.5,-440"/>
<polygon fill="none" stroke="black" points="1226.5,-440 1226.5,-458 1271.5,-458 1271.5,-440 1226.5,-440"/>
<text text-anchor="start" x="1261.5" y="-446.2" font-family="Helvetica,sans-Serif" font-size="11.00"> &#160;</text>
<polygon fill="#ffffff" stroke="transparent" points="1271.5,-440 1271.5,-458 1325.5,-458 1325.5,-440 1271.5,-440"/>
<polygon fill="none" stroke="black" points="1271.5,-440 1271.5,-458 1325.5,-458 1325.5,-440 1271.5,-440"/>
<text text-anchor="start" x="1306.5" y="-446.2" font-family="Helvetica,sans-Serif" font-size="11.00">5 &gt;</text>
</a>
</g>
</g>
<!-- syst_enum_items -->
<g id="node2" class="node">
<title>syst_enum_items</title>
<g id="a_node2"><a xlink:href="../../tables/syst_enum_items.html" xlink:title="syst_enum_items" target="_top">
<polygon fill="#ffffff" stroke="transparent" points="631,-368 631,-426 786,-426 786,-368 631,-368"/>
<polygon fill="#f5f5f5" stroke="transparent" points="631.5,-404 631.5,-426 786.5,-426 786.5,-404 631.5,-404"/>
<polygon fill="none" stroke="black" points="631.5,-404 631.5,-426 786.5,-426 786.5,-404 631.5,-404"/>
<text text-anchor="start" x="636.5" y="-413.2" font-family="Helvetica,sans-Serif" font-weight="bold" font-size="11.00">syst_enum_items</text>
<text text-anchor="start" x="751.5" y="-412.2" font-family="Helvetica,sans-Serif" font-size="11.00">[table]</text>
<polygon fill="none" stroke="black" points="631.5,-386 631.5,-404 786.5,-404 786.5,-386 631.5,-386"/>
<text text-anchor="start" x="634.5" y="-392.2" font-family="Helvetica,sans-Serif" font-size="11.00">...</text>
<polygon fill="#ffffff" stroke="transparent" points="631.5,-368 631.5,-386 699.5,-386 699.5,-368 631.5,-368"/>
<polygon fill="none" stroke="black" points="631.5,-368 631.5,-386 699.5,-386 699.5,-368 631.5,-368"/>
<text text-anchor="start" x="634.5" y="-374.2" font-family="Helvetica,sans-Serif" font-size="11.00">&lt; 2</text>
<polygon fill="#ffffff" stroke="transparent" points="699.5,-368 699.5,-386 735.5,-386 735.5,-368 699.5,-368"/>
<polygon fill="none" stroke="black" points="699.5,-368 699.5,-386 735.5,-386 735.5,-368 699.5,-368"/>
<text text-anchor="start" x="725.5" y="-374.2" font-family="Helvetica,sans-Serif" font-size="11.00"> &#160;</text>
<polygon fill="#ffffff" stroke="transparent" points="735.5,-368 735.5,-386 786.5,-386 786.5,-368 735.5,-368"/>
<polygon fill="none" stroke="black" points="735.5,-368 735.5,-386 786.5,-386 786.5,-368 735.5,-368"/>
<text text-anchor="start" x="761.5" y="-374.2" font-family="Helvetica,sans-Serif" font-size="11.00">10 &gt;</text>
</a>
</g>
</g>
<!-- syst_access_accounts&#45;&gt;syst_enum_items -->
<g id="edge1" class="edge">
<title>syst_access_accounts:w&#45;&gt;syst_enum_items:e</title>
<path fill="none" stroke="black" d="M1125.08,-464.3C1116.97,-460.87 1111.69,-455.03 1099,-452 980.65,-423.78 947.17,-440.08 827,-421 816.31,-419.3 805.11,-417.3 794.06,-415.2"/>
<polygon fill="black" stroke="black" points="1131.64,-465.53 1138.84,-470.54 1135.57,-466.26 1139.5,-467 1139.5,-467 1139.5,-467 1135.57,-466.26 1140.16,-463.46 1131.64,-465.53 1131.64,-465.53"/>
<ellipse fill="none" stroke="black" cx="1128.49" cy="-464.94" rx="3.2" ry="3.2"/>
</g>
<!-- syst_owners -->
<g id="node3" class="node">
<title>syst_owners</title>
<g id="a_node3"><a xlink:href="../../tables/syst_owners.html" xlink:title="syst_owners" target="_top">
<polygon fill="#ffffff" stroke="transparent" points="902,-462 902,-520 1024,-520 1024,-462 902,-462"/>
<polygon fill="#f5f5f5" stroke="transparent" points="902,-498 902,-520 1024,-520 1024,-498 902,-498"/>
<polygon fill="none" stroke="black" points="902,-498 902,-520 1024,-520 1024,-498 902,-498"/>
<text text-anchor="start" x="907" y="-507.2" font-family="Helvetica,sans-Serif" font-weight="bold" font-size="11.00">syst_owners</text>
<text text-anchor="start" x="989" y="-506.2" font-family="Helvetica,sans-Serif" font-size="11.00">[table]</text>
<polygon fill="none" stroke="black" points="902,-480 902,-498 1024,-498 1024,-480 902,-480"/>
<text text-anchor="start" x="905" y="-486.2" font-family="Helvetica,sans-Serif" font-size="11.00">...</text>
<polygon fill="#ffffff" stroke="transparent" points="902,-462 902,-480 956,-480 956,-462 902,-462"/>
<polygon fill="none" stroke="black" points="902,-462 902,-480 956,-480 956,-462 902,-462"/>
<text text-anchor="start" x="905" y="-468.2" font-family="Helvetica,sans-Serif" font-size="11.00">&lt; 1</text>
<polygon fill="#ffffff" stroke="transparent" points="956,-462 956,-480 985,-480 985,-462 956,-462"/>
<polygon fill="none" stroke="black" points="956,-462 956,-480 985,-480 985,-462 956,-462"/>
<text text-anchor="start" x="975" y="-468.2" font-family="Helvetica,sans-Serif" font-size="11.00"> &#160;</text>
<polygon fill="#ffffff" stroke="transparent" points="985,-462 985,-480 1024,-480 1024,-462 985,-462"/>
<polygon fill="none" stroke="black" points="985,-462 985,-480 1024,-480 1024,-462 985,-462"/>
<text text-anchor="start" x="1005" y="-468.2" font-family="Helvetica,sans-Serif" font-size="11.00">4 &gt;</text>
</a>
</g>
</g>
<!-- syst_access_accounts&#45;&gt;syst_owners -->
<g id="edge2" class="edge">
<title>syst_access_accounts:w&#45;&gt;syst_owners:e</title>
<path fill="none" stroke="black" d="M1124.89,-467.63C1085.05,-471.24 1071.56,-489 1025,-489"/>
<polygon fill="black" stroke="black" points="1131.51,-467.35 1139.66,-470.6 1135.5,-467.17 1139.5,-467 1139.5,-467 1139.5,-467 1135.5,-467.17 1139.34,-463.4 1131.51,-467.35 1131.51,-467.35"/>
<ellipse fill="none" stroke="black" cx="1128.31" cy="-467.49" rx="3.2" ry="3.2"/>
</g>
<!-- syst_enum_functional_types -->
<g id="node6" class="node">
<title>syst_enum_functional_types</title>
<g id="a_node6"><a xlink:href="../../tables/syst_enum_functional_types.html" xlink:title="syst_enum_functional_types" target="_top">
<polygon fill="#ffffff" stroke="transparent" points="353,-395 353,-453 582,-453 582,-395 353,-395"/>
<polygon fill="#f5f5f5" stroke="transparent" points="353.5,-431 353.5,-453 582.5,-453 582.5,-431 353.5,-431"/>
<polygon fill="none" stroke="black" points="353.5,-431 353.5,-453 582.5,-453 582.5,-431 353.5,-431"/>
<text text-anchor="start" x="358.5" y="-440.2" font-family="Helvetica,sans-Serif" font-weight="bold" font-size="11.00">syst_enum_functional_types</text>
<text text-anchor="start" x="547.5" y="-439.2" font-family="Helvetica,sans-Serif" font-size="11.00">[table]</text>
<polygon fill="none" stroke="black" points="353.5,-413 353.5,-431 582.5,-431 582.5,-413 353.5,-413"/>
<text text-anchor="start" x="356.5" y="-419.2" font-family="Helvetica,sans-Serif" font-size="11.00">...</text>
<polygon fill="#ffffff" stroke="transparent" points="353.5,-395 353.5,-413 461.5,-413 461.5,-395 353.5,-395"/>
<polygon fill="none" stroke="black" points="353.5,-395 353.5,-413 461.5,-413 461.5,-395 353.5,-395"/>
<text text-anchor="start" x="356.5" y="-401.2" font-family="Helvetica,sans-Serif" font-size="11.00">&lt; 1</text>
<polygon fill="#ffffff" stroke="transparent" points="461.5,-395 461.5,-413 517.5,-413 517.5,-395 461.5,-395"/>
<polygon fill="none" stroke="black" points="461.5,-395 461.5,-413 517.5,-413 517.5,-395 461.5,-395"/>
<text text-anchor="start" x="507.5" y="-401.2" font-family="Helvetica,sans-Serif" font-size="11.00"> &#160;</text>
<polygon fill="#ffffff" stroke="transparent" points="517.5,-395 517.5,-413 582.5,-413 582.5,-395 517.5,-395"/>
<polygon fill="none" stroke="black" points="517.5,-395 517.5,-413 582.5,-413 582.5,-395 517.5,-395"/>
<text text-anchor="start" x="563.5" y="-401.2" font-family="Helvetica,sans-Serif" font-size="11.00">1 &gt;</text>
</a>
</g>
</g>
<!-- syst_enum_items&#45;&gt;syst_enum_functional_types -->
<g id="edge8" class="edge">
<title>syst_enum_items:w&#45;&gt;syst_enum_functional_types:e</title>
<path fill="none" stroke="black" d="M608.52,-408.18C602.48,-408.86 596.37,-409.55 590.25,-410.25"/>
<polygon fill="black" stroke="black" points="614.95,-407.46 623.31,-410.13 618.93,-407.01 622.9,-406.56 622.9,-406.56 622.9,-406.56 618.93,-407.01 622.5,-402.98 614.95,-407.46 614.95,-407.46"/>
<ellipse fill="none" stroke="black" cx="611.77" cy="-407.81" rx="3.2" ry="3.2"/>
</g>
<!-- syst_enums -->
<g id="node7" class="node">
<title>syst_enums</title>
<g id="a_node7"><a xlink:href="../../tables/syst_enums.html" xlink:title="syst_enums" target="_top">
<polygon fill="#ffffff" stroke="transparent" points="8,-37 8,-433 304,-433 304,-37 8,-37"/>
<polygon fill="#f5f5f5" stroke="transparent" points="10,-409 10,-431 302,-431 302,-409 10,-409"/>
<polygon fill="none" stroke="black" points="10,-409 10,-431 302,-431 302,-409 10,-409"/>
<text text-anchor="start" x="15" y="-418.2" font-family="Helvetica,sans-Serif" font-weight="bold" font-size="11.00">syst_enums</text>
<text text-anchor="start" x="267" y="-417.2" font-family="Helvetica,sans-Serif" font-size="11.00">[table]</text>
<polygon fill="none" stroke="black" points="10,-387 10,-409 204,-409 204,-387 10,-387"/>
<image xlink:href="../../images/primaryKeys.png" width="11px" height="12px" preserveAspectRatio="xMinYMin meet" x="15" y="-404"/>
<text text-anchor="start" x="30" y="-395.2" font-family="Helvetica,sans-Serif" font-size="11.00">id</text>
<polygon fill="none" stroke="black" points="204,-387 204,-409 302,-409 302,-387 204,-387"/>
<text text-anchor="start" x="207" y="-395.2" font-family="Helvetica,sans-Serif" font-size="11.00">uuid[2147483647]</text>
<polygon fill="#ffffff" stroke="transparent" points="10,-365 10,-387 204,-387 204,-365 10,-365"/>
<polygon fill="none" stroke="black" points="10,-365 10,-387 204,-387 204,-365 10,-365"/>
<text text-anchor="start" x="30" y="-373.2" font-family="Helvetica,sans-Serif" font-size="11.00">internal_name</text>
<polygon fill="none" stroke="black" points="204,-365 204,-387 302,-387 302,-365 204,-365"/>
<text text-anchor="start" x="207" y="-373.2" font-family="Helvetica,sans-Serif" font-size="11.00">text[2147483647]</text>
<polygon fill="#ffffff" stroke="transparent" points="10,-343 10,-365 204,-365 204,-343 10,-343"/>
<polygon fill="none" stroke="black" points="10,-343 10,-365 204,-365 204,-343 10,-343"/>
<text text-anchor="start" x="30" y="-351.2" font-family="Helvetica,sans-Serif" font-size="11.00">display_name</text>
<polygon fill="none" stroke="black" points="204,-343 204,-365 302,-365 302,-343 204,-343"/>
<text text-anchor="start" x="207" y="-351.2" font-family="Helvetica,sans-Serif" font-size="11.00">text[2147483647]</text>
<polygon fill="none" stroke="black" points="10,-321 10,-343 204,-343 204,-321 10,-321"/>
<text text-anchor="start" x="30" y="-329.2" font-family="Helvetica,sans-Serif" font-size="11.00">syst_description</text>
<polygon fill="none" stroke="black" points="204,-321 204,-343 302,-343 302,-321 204,-321"/>
<text text-anchor="start" x="207" y="-329.2" font-family="Helvetica,sans-Serif" font-size="11.00">text[2147483647]</text>
<polygon fill="none" stroke="black" points="10,-299 10,-321 204,-321 204,-299 10,-299"/>
<text text-anchor="start" x="30" y="-307.2" font-family="Helvetica,sans-Serif" font-size="11.00">user_description</text>
<polygon fill="none" stroke="black" points="204,-299 204,-321 302,-321 302,-299 204,-299"/>
<text text-anchor="start" x="207" y="-307.2" font-family="Helvetica,sans-Serif" font-size="11.00">text[2147483647]</text>
<polygon fill="none" stroke="black" points="10,-277 10,-299 204,-299 204,-277 10,-277"/>
<text text-anchor="start" x="30" y="-285.2" font-family="Helvetica,sans-Serif" font-size="11.00">syst_defined</text>
<polygon fill="none" stroke="black" points="204,-277 204,-299 302,-299 302,-277 204,-277"/>
<text text-anchor="start" x="207" y="-285.2" font-family="Helvetica,sans-Serif" font-size="11.00">bool[1]</text>
<polygon fill="none" stroke="black" points="10,-255 10,-277 204,-277 204,-255 10,-255"/>
<text text-anchor="start" x="30" y="-263.2" font-family="Helvetica,sans-Serif" font-size="11.00">user_maintainable</text>
<polygon fill="none" stroke="black" points="204,-255 204,-277 302,-277 302,-255 204,-255"/>
<text text-anchor="start" x="207" y="-263.2" font-family="Helvetica,sans-Serif" font-size="11.00">bool[1]</text>
<polygon fill="none" stroke="black" points="10,-233 10,-255 204,-255 204,-233 10,-233"/>
<text text-anchor="start" x="30" y="-241.2" font-family="Helvetica,sans-Serif" font-size="11.00">default_syst_options</text>
<polygon fill="none" stroke="black" points="204,-233 204,-255 302,-255 302,-233 204,-233"/>
<text text-anchor="start" x="207" y="-241.2" font-family="Helvetica,sans-Serif" font-size="11.00">jsonb[2147483647]</text>
<polygon fill="none" stroke="black" points="10,-211 10,-233 204,-233 204,-211 10,-211"/>
<text text-anchor="start" x="30" y="-219.2" font-family="Helvetica,sans-Serif" font-size="11.00">default_user_options</text>
<polygon fill="none" stroke="black" points="204,-211 204,-233 302,-233 302,-211 204,-211"/>
<text text-anchor="start" x="207" y="-219.2" font-family="Helvetica,sans-Serif" font-size="11.00">jsonb[2147483647]</text>
<polygon fill="none" stroke="black" points="10,-189 10,-211 204,-211 204,-189 10,-189"/>
<text text-anchor="start" x="30" y="-197.2" font-family="Helvetica,sans-Serif" font-size="11.00">diag_timestamp_created</text>
<polygon fill="none" stroke="black" points="204,-189 204,-211 302,-211 302,-189 204,-189"/>
<text text-anchor="start" x="207" y="-197.2" font-family="Helvetica,sans-Serif" font-size="11.00">timestamptz[35,6]</text>
<polygon fill="none" stroke="black" points="10,-167 10,-189 204,-189 204,-167 10,-167"/>
<text text-anchor="start" x="30" y="-175.2" font-family="Helvetica,sans-Serif" font-size="11.00">diag_role_created</text>
<polygon fill="none" stroke="black" points="204,-167 204,-189 302,-189 302,-167 204,-167"/>
<text text-anchor="start" x="207" y="-175.2" font-family="Helvetica,sans-Serif" font-size="11.00">text[2147483647]</text>
<polygon fill="none" stroke="black" points="10,-145 10,-167 204,-167 204,-145 10,-145"/>
<text text-anchor="start" x="30" y="-153.2" font-family="Helvetica,sans-Serif" font-size="11.00">diag_timestamp_modified</text>
<polygon fill="none" stroke="black" points="204,-145 204,-167 302,-167 302,-145 204,-145"/>
<text text-anchor="start" x="207" y="-153.2" font-family="Helvetica,sans-Serif" font-size="11.00">timestamptz[35,6]</text>
<polygon fill="none" stroke="black" points="10,-123 10,-145 204,-145 204,-123 10,-123"/>
<text text-anchor="start" x="30" y="-131.2" font-family="Helvetica,sans-Serif" font-size="11.00">diag_wallclock_modified</text>
<polygon fill="none" stroke="black" points="204,-123 204,-145 302,-145 302,-123 204,-123"/>
<text text-anchor="start" x="207" y="-131.2" font-family="Helvetica,sans-Serif" font-size="11.00">timestamptz[35,6]</text>
<polygon fill="none" stroke="black" points="10,-101 10,-123 204,-123 204,-101 10,-101"/>
<text text-anchor="start" x="30" y="-109.2" font-family="Helvetica,sans-Serif" font-size="11.00">diag_role_modified</text>
<polygon fill="none" stroke="black" points="204,-101 204,-123 302,-123 302,-101 204,-101"/>
<text text-anchor="start" x="207" y="-109.2" font-family="Helvetica,sans-Serif" font-size="11.00">text[2147483647]</text>
<polygon fill="none" stroke="black" points="10,-79 10,-101 204,-101 204,-79 10,-79"/>
<text text-anchor="start" x="30" y="-87.2" font-family="Helvetica,sans-Serif" font-size="11.00">diag_row_version</text>
<polygon fill="none" stroke="black" points="204,-79 204,-101 302,-101 302,-79 204,-79"/>
<text text-anchor="start" x="207" y="-87.2" font-family="Helvetica,sans-Serif" font-size="11.00">int8[19]</text>
<polygon fill="none" stroke="black" points="10,-57 10,-79 204,-79 204,-57 10,-57"/>
<text text-anchor="start" x="30" y="-65.2" font-family="Helvetica,sans-Serif" font-size="11.00">diag_update_count</text>
<polygon fill="none" stroke="black" points="204,-57 204,-79 302,-79 302,-57 204,-57"/>
<text text-anchor="start" x="207" y="-65.2" font-family="Helvetica,sans-Serif" font-size="11.00">int8[19]</text>
<polygon fill="#ffffff" stroke="transparent" points="10,-39 10,-57 111,-57 111,-39 10,-39"/>
<polygon fill="none" stroke="black" points="10,-39 10,-57 111,-57 111,-39 10,-39"/>
<text text-anchor="start" x="13" y="-45.2" font-family="Helvetica,sans-Serif" font-size="11.00">&lt; 0</text>
<polygon fill="#ffffff" stroke="transparent" points="111,-39 111,-57 204,-57 204,-39 111,-39"/>
<polygon fill="none" stroke="black" points="111,-39 111,-57 204,-57 204,-39 111,-39"/>
<text text-anchor="start" x="194" y="-45.2" font-family="Helvetica,sans-Serif" font-size="11.00"> &#160;</text>
<polygon fill="#ffffff" stroke="transparent" points="204,-39 204,-57 302,-57 302,-39 204,-39"/>
<polygon fill="none" stroke="black" points="204,-39 204,-57 302,-57 302,-39 204,-39"/>
<text text-anchor="start" x="283" y="-45.2" font-family="Helvetica,sans-Serif" font-size="11.00">2 &gt;</text>
<polygon fill="none" stroke="black" stroke-width="2" points="9,-38 9,-432 303,-432 303,-38 9,-38"/>
</a>
</g>
</g>
<!-- syst_enum_items&#45;&gt;syst_enums -->
<g id="edge7" class="edge">
<title>syst_enum_items:w&#45;&gt;syst_enums:e</title>
<path fill="none" stroke="black" d="M608.35,-386.15C602.15,-385.7 595.99,-385.31 590,-385 481.25,-379.46 452.66,-368.72 345,-385 325.68,-387.92 322.54,-398 303,-398"/>
<polygon fill="black" stroke="black" points="614.89,-386.68 622.57,-390.91 618.87,-387 622.86,-387.32 622.86,-387.32 622.86,-387.32 618.87,-387 623.15,-383.73 614.89,-386.68 614.89,-386.68"/>
<ellipse fill="none" stroke="black" cx="611.7" cy="-386.42" rx="3.2" ry="3.2"/>
</g>
<!-- syst_owners&#45;&gt;syst_enum_items -->
<g id="edge18" class="edge">
<title>syst_owners:w&#45;&gt;syst_enum_items:e</title>
<path fill="none" stroke="black" d="M886.54,-488.31C835.29,-483.47 784.75,-454.3 750.88,-430.21"/>
<polygon fill="black" stroke="black" points="893.01,-488.62 900.83,-492.6 897,-488.81 901,-489 901,-489 901,-489 897,-488.81 901.17,-485.4 893.01,-488.62 893.01,-488.62"/>
<ellipse fill="none" stroke="black" cx="889.81" cy="-488.46" rx="3.2" ry="3.2"/>
</g>
<!-- syst_credentials -->
<g id="node4" class="node">
<title>syst_credentials</title>
<g id="a_node4"><a xlink:href="../../tables/syst_credentials.html" xlink:title="syst_credentials" target="_top">
<polygon fill="#ffffff" stroke="transparent" points="1561,-408 1561,-466 1710,-466 1710,-408 1561,-408"/>
<polygon fill="#f5f5f5" stroke="transparent" points="1561.5,-444 1561.5,-466 1710.5,-466 1710.5,-444 1561.5,-444"/>
<polygon fill="none" stroke="black" points="1561.5,-444 1561.5,-466 1710.5,-466 1710.5,-444 1561.5,-444"/>
<text text-anchor="start" x="1566.5" y="-453.2" font-family="Helvetica,sans-Serif" font-weight="bold" font-size="11.00">syst_credentials</text>
<text text-anchor="start" x="1675.5" y="-452.2" font-family="Helvetica,sans-Serif" font-size="11.00">[table]</text>
<polygon fill="none" stroke="black" points="1561.5,-426 1561.5,-444 1710.5,-444 1710.5,-426 1561.5,-426"/>
<text text-anchor="start" x="1564.5" y="-432.2" font-family="Helvetica,sans-Serif" font-size="11.00">...</text>
<polygon fill="#ffffff" stroke="transparent" points="1561.5,-408 1561.5,-426 1633.5,-426 1633.5,-408 1561.5,-408"/>
<polygon fill="none" stroke="black" points="1561.5,-408 1561.5,-426 1633.5,-426 1633.5,-408 1561.5,-408"/>
<text text-anchor="start" x="1564.5" y="-414.2" font-family="Helvetica,sans-Serif" font-size="11.00">&lt; 3</text>
<polygon fill="#ffffff" stroke="transparent" points="1633.5,-408 1633.5,-426 1671.5,-426 1671.5,-408 1633.5,-408"/>
<polygon fill="none" stroke="black" points="1633.5,-408 1633.5,-426 1671.5,-426 1671.5,-408 1633.5,-408"/>
<text text-anchor="start" x="1661.5" y="-414.2" font-family="Helvetica,sans-Serif" font-size="11.00"> &#160;</text>
<polygon fill="#ffffff" stroke="transparent" points="1671.5,-408 1671.5,-426 1710.5,-426 1710.5,-408 1671.5,-408"/>
<polygon fill="none" stroke="black" points="1671.5,-408 1671.5,-426 1710.5,-426 1710.5,-408 1671.5,-408"/>
<text text-anchor="start" x="1700.5" y="-414.2" font-family="Helvetica,sans-Serif" font-size="11.00"> &#160;</text>
</a>
</g>
</g>
<!-- syst_credentials&#45;&gt;syst_access_accounts -->
<g id="edge3" class="edge">
<title>syst_credentials:w&#45;&gt;syst_access_accounts:e</title>
<path fill="none" stroke="black" d="M1546.89,-439.84C1537.13,-449.16 1538.09,-469.32 1520,-477 1457.01,-503.77 1433.92,-485.46 1366,-477 1348.03,-474.76 1344.61,-467 1326.5,-467"/>
<polygon fill="black" stroke="black" points="1552.96,-437.68 1561.71,-438.39 1556.73,-436.34 1560.5,-435 1560.5,-435 1560.5,-435 1556.73,-436.34 1559.29,-431.61 1552.96,-437.68 1552.96,-437.68"/>
<ellipse fill="none" stroke="black" cx="1549.95" cy="-438.76" rx="3.2" ry="3.2"/>
</g>
<!-- syst_credentials&#45;&gt;syst_enum_items -->
<g id="edge5" class="edge">
<title>syst_credentials:w&#45;&gt;syst_enum_items:e</title>
<path fill="none" stroke="black" d="M1546.79,-430.2C1537.57,-421.77 1536.86,-404.57 1520,-398 1345.64,-330.11 1286.11,-397.22 1099,-397 994.02,-396.88 873.12,-396.9 794.22,-396.94"/>
<polygon fill="black" stroke="black" points="1552.95,-432.36 1559.31,-438.4 1556.72,-433.68 1560.5,-435 1560.5,-435 1560.5,-435 1556.72,-433.68 1561.69,-431.6 1552.95,-432.36 1552.95,-432.36"/>
<ellipse fill="none" stroke="black" cx="1549.93" cy="-431.3" rx="3.2" ry="3.2"/>
</g>
<!-- syst_identities -->
<g id="node5" class="node">
<title>syst_identities</title>
<g id="a_node5"><a xlink:href="../../tables/syst_identities.html" xlink:title="syst_identities" target="_top">
<polygon fill="#ffffff" stroke="transparent" points="1374,-408 1374,-466 1512,-466 1512,-408 1374,-408"/>
<polygon fill="#f5f5f5" stroke="transparent" points="1374,-444 1374,-466 1512,-466 1512,-444 1374,-444"/>
<polygon fill="none" stroke="black" points="1374,-444 1374,-466 1512,-466 1512,-444 1374,-444"/>
<text text-anchor="start" x="1379" y="-453.2" font-family="Helvetica,sans-Serif" font-weight="bold" font-size="11.00">syst_identities</text>
<text text-anchor="start" x="1477" y="-452.2" font-family="Helvetica,sans-Serif" font-size="11.00">[table]</text>
<polygon fill="none" stroke="black" points="1374,-426 1374,-444 1512,-444 1512,-426 1374,-426"/>
<text text-anchor="start" x="1377" y="-432.2" font-family="Helvetica,sans-Serif" font-size="11.00">...</text>
<polygon fill="#ffffff" stroke="transparent" points="1374,-408 1374,-426 1436,-426 1436,-408 1374,-408"/>
<polygon fill="none" stroke="black" points="1374,-408 1374,-426 1436,-426 1436,-408 1374,-408"/>
<text text-anchor="start" x="1377" y="-414.2" font-family="Helvetica,sans-Serif" font-size="11.00">&lt; 3</text>
<polygon fill="#ffffff" stroke="transparent" points="1436,-408 1436,-426 1469,-426 1469,-408 1436,-408"/>
<polygon fill="none" stroke="black" points="1436,-408 1436,-426 1469,-426 1469,-408 1436,-408"/>
<text text-anchor="start" x="1459" y="-414.2" font-family="Helvetica,sans-Serif" font-size="11.00"> &#160;</text>
<polygon fill="#ffffff" stroke="transparent" points="1469,-408 1469,-426 1512,-426 1512,-408 1469,-408"/>
<polygon fill="none" stroke="black" points="1469,-408 1469,-426 1512,-426 1512,-408 1469,-408"/>
<text text-anchor="start" x="1493" y="-414.2" font-family="Helvetica,sans-Serif" font-size="11.00">2 &gt;</text>
</a>
</g>
</g>
<!-- syst_credentials&#45;&gt;syst_identities -->
<g id="edge4" class="edge">
<title>syst_credentials:w&#45;&gt;syst_identities:e</title>
<path fill="none" stroke="black" d="M1546.09,-435C1535.32,-435 1528.34,-435 1513,-435"/>
<polygon fill="black" stroke="black" points="1552.5,-435 1560.5,-438.6 1556.5,-435 1560.5,-435 1560.5,-435 1560.5,-435 1556.5,-435 1560.5,-431.4 1552.5,-435 1552.5,-435"/>
<ellipse fill="none" stroke="black" cx="1549.3" cy="-435" rx="3.2" ry="3.2"/>
</g>
<!-- syst_identities&#45;&gt;syst_access_accounts -->
<g id="edge11" class="edge">
<title>syst_identities:w&#45;&gt;syst_access_accounts:e</title>
<path fill="none" stroke="black" d="M1359.02,-439.72C1348.01,-448.62 1345.51,-467 1326.5,-467"/>
<polygon fill="black" stroke="black" points="1365.42,-437.56 1374.15,-438.41 1369.21,-436.28 1373,-435 1373,-435 1373,-435 1369.21,-436.28 1371.85,-431.59 1365.42,-437.56 1365.42,-437.56"/>
<ellipse fill="none" stroke="black" cx="1362.39" cy="-438.58" rx="3.2" ry="3.2"/>
</g>
<!-- syst_identities&#45;&gt;syst_enum_items -->
<g id="edge12" class="edge">
<title>syst_identities:w&#45;&gt;syst_enum_items:e</title>
<path fill="none" stroke="black" d="M1358.54,-434.04C1350.7,-432.91 1344.85,-431.05 1333,-430 1140.67,-412.91 914.13,-403.63 794.1,-399.56"/>
<polygon fill="black" stroke="black" points="1365.02,-434.47 1372.76,-438.59 1369.01,-434.74 1373,-435 1373,-435 1373,-435 1369.01,-434.74 1373.24,-431.41 1365.02,-434.47 1365.02,-434.47"/>
<ellipse fill="none" stroke="black" cx="1361.82" cy="-434.26" rx="3.2" ry="3.2"/>
</g>
<!-- syst_enum_functional_types&#45;&gt;syst_enums -->
<g id="edge6" class="edge">
<title>syst_enum_functional_types:w&#45;&gt;syst_enums:e</title>
<path fill="none" stroke="black" d="M330.41,-399.06C321.16,-398.39 311.96,-398 303,-398"/>
<polygon fill="black" stroke="black" points="337,-399.65 344.65,-403.94 340.98,-400 344.97,-400.35 344.97,-400.35 344.97,-400.35 340.98,-400 345.28,-396.77 337,-399.65 337,-399.65"/>
<ellipse fill="none" stroke="black" cx="333.81" cy="-399.36" rx="3.2" ry="3.2"/>
</g>
<!-- syst_hierarchies -->
<g id="node8" class="node">
<title>syst_hierarchies</title>
<g id="a_node8"><a xlink:href="../../tables/syst_hierarchies.html" xlink:title="syst_hierarchies" target="_top">
<polygon fill="#ffffff" stroke="transparent" points="888.5,-302 888.5,-360 1037.5,-360 1037.5,-302 888.5,-302"/>
<polygon fill="#f5f5f5" stroke="transparent" points="889,-338 889,-360 1038,-360 1038,-338 889,-338"/>
<polygon fill="none" stroke="black" points="889,-338 889,-360 1038,-360 1038,-338 889,-338"/>
<text text-anchor="start" x="894" y="-347.2" font-family="Helvetica,sans-Serif" font-weight="bold" font-size="11.00">syst_hierarchies</text>
<text text-anchor="start" x="1003" y="-346.2" font-family="Helvetica,sans-Serif" font-size="11.00">[table]</text>
<polygon fill="none" stroke="black" points="889,-320 889,-338 1038,-338 1038,-320 889,-320"/>
<text text-anchor="start" x="892" y="-326.2" font-family="Helvetica,sans-Serif" font-size="11.00">...</text>
<polygon fill="#ffffff" stroke="transparent" points="889,-302 889,-320 957,-320 957,-302 889,-302"/>
<polygon fill="none" stroke="black" points="889,-302 889,-320 957,-320 957,-302 889,-302"/>
<text text-anchor="start" x="892" y="-308.2" font-family="Helvetica,sans-Serif" font-size="11.00">&lt; 2</text>
<polygon fill="#ffffff" stroke="transparent" points="957,-302 957,-320 993,-320 993,-302 957,-302"/>
<polygon fill="none" stroke="black" points="957,-302 957,-320 993,-320 993,-302 957,-302"/>
<text text-anchor="start" x="983" y="-308.2" font-family="Helvetica,sans-Serif" font-size="11.00"> &#160;</text>
<polygon fill="#ffffff" stroke="transparent" points="993,-302 993,-320 1038,-320 1038,-302 993,-302"/>
<polygon fill="none" stroke="black" points="993,-302 993,-320 1038,-320 1038,-302 993,-302"/>
<text text-anchor="start" x="1019" y="-308.2" font-family="Helvetica,sans-Serif" font-size="11.00">1 &gt;</text>
</a>
</g>
</g>
<!-- syst_hierarchies&#45;&gt;syst_enum_items -->
<g id="edge9" class="edge">
<title>syst_hierarchies:w&#45;&gt;syst_enum_items:e</title>
<path fill="none" stroke="black" d="M873.36,-328.67C830.97,-329.67 787.87,-346.94 756.52,-363.91"/>
<polygon fill="black" stroke="black" points="880,-328.82 887.92,-332.6 884,-328.91 888,-329 888,-329 888,-329 884,-328.91 888.08,-325.4 880,-328.82 880,-328.82"/>
<ellipse fill="none" stroke="black" cx="876.8" cy="-328.75" rx="3.2" ry="3.2"/>
</g>
<!-- syst_hierarchies&#45;&gt;syst_enum_items -->
<g id="edge10" class="edge">
<title>syst_hierarchies:w&#45;&gt;syst_enum_items:e</title>
<path fill="none" stroke="black" d="M873.38,-330.77C839.17,-336.18 804.5,-350.1 775.91,-363.84"/>
<polygon fill="black" stroke="black" points="880.06,-329.96 888.43,-332.57 884.03,-329.48 888,-329 888,-329 888,-329 884.03,-329.48 887.57,-325.43 880.06,-329.96 880.06,-329.96"/>
<ellipse fill="none" stroke="black" cx="876.88" cy="-330.35" rx="3.2" ry="3.2"/>
</g>
<!-- syst_instance_type_applications -->
<g id="node9" class="node">
<title>syst_instance_type_applications</title>
<g id="a_node9"><a xlink:href="../../tables/syst_instance_type_applications.html" xlink:title="syst_instance_type_applications" target="_top">
<polygon fill="#ffffff" stroke="transparent" points="835,-223 835,-281 1091,-281 1091,-223 835,-223"/>
<polygon fill="#f5f5f5" stroke="transparent" points="835,-259 835,-281 1091,-281 1091,-259 835,-259"/>
<polygon fill="none" stroke="black" points="835,-259 835,-281 1091,-281 1091,-259 835,-259"/>
<text text-anchor="start" x="840" y="-268.2" font-family="Helvetica,sans-Serif" font-weight="bold" font-size="11.00">syst_instance_type_applications</text>
<text text-anchor="start" x="1056" y="-267.2" font-family="Helvetica,sans-Serif" font-size="11.00">[table]</text>
<polygon fill="none" stroke="black" points="835,-241 835,-259 1091,-259 1091,-241 835,-241"/>
<text text-anchor="start" x="838" y="-247.2" font-family="Helvetica,sans-Serif" font-size="11.00">...</text>
<polygon fill="#ffffff" stroke="transparent" points="835,-223 835,-241 956,-241 956,-223 835,-223"/>
<polygon fill="none" stroke="black" points="835,-223 835,-241 956,-241 956,-223 835,-223"/>
<text text-anchor="start" x="838" y="-229.2" font-family="Helvetica,sans-Serif" font-size="11.00">&lt; 2</text>
<polygon fill="#ffffff" stroke="transparent" points="956,-223 956,-241 1019,-241 1019,-223 956,-223"/>
<polygon fill="none" stroke="black" points="956,-223 956,-241 1019,-241 1019,-223 956,-223"/>
<text text-anchor="start" x="1009" y="-229.2" font-family="Helvetica,sans-Serif" font-size="11.00"> &#160;</text>
<polygon fill="#ffffff" stroke="transparent" points="1019,-223 1019,-241 1091,-241 1091,-223 1019,-223"/>
<polygon fill="none" stroke="black" points="1019,-223 1019,-241 1091,-241 1091,-223 1019,-223"/>
<text text-anchor="start" x="1072" y="-229.2" font-family="Helvetica,sans-Serif" font-size="11.00">1 &gt;</text>
</a>
</g>
</g>
<!-- syst_instance_type_applications&#45;&gt;syst_enum_items -->
<g id="edge13" class="edge">
<title>syst_instance_type_applications:w&#45;&gt;syst_enum_items:e</title>
<path fill="none" stroke="black" d="M819.56,-251.43C768.75,-261.61 736.51,-323.91 720.84,-363.64"/>
<polygon fill="black" stroke="black" points="826.04,-250.79 834.35,-253.58 830.02,-250.39 834,-250 834,-250 834,-250 830.02,-250.39 833.65,-246.42 826.04,-250.79 826.04,-250.79"/>
<ellipse fill="none" stroke="black" cx="822.85" cy="-251.1" rx="3.2" ry="3.2"/>
</g>
<!-- syst_instances -->
<g id="node10" class="node">
<title>syst_instances</title>
<g id="a_node10"><a xlink:href="../../tables/syst_instances.html" xlink:title="syst_instances" target="_top">
<polygon fill="#ffffff" stroke="transparent" points="1163.5,-523 1163.5,-581 1301.5,-581 1301.5,-523 1163.5,-523"/>
<polygon fill="#f5f5f5" stroke="transparent" points="1163.5,-559 1163.5,-581 1301.5,-581 1301.5,-559 1163.5,-559"/>
<polygon fill="none" stroke="black" points="1163.5,-559 1163.5,-581 1301.5,-581 1301.5,-559 1163.5,-559"/>
<text text-anchor="start" x="1168.5" y="-568.2" font-family="Helvetica,sans-Serif" font-weight="bold" font-size="11.00">syst_instances</text>
<text text-anchor="start" x="1266.5" y="-567.2" font-family="Helvetica,sans-Serif" font-size="11.00">[table]</text>
<polygon fill="none" stroke="black" points="1163.5,-541 1163.5,-559 1301.5,-559 1301.5,-541 1163.5,-541"/>
<text text-anchor="start" x="1166.5" y="-547.2" font-family="Helvetica,sans-Serif" font-size="11.00">...</text>
<polygon fill="#ffffff" stroke="transparent" points="1163.5,-523 1163.5,-541 1225.5,-541 1225.5,-523 1163.5,-523"/>
<polygon fill="none" stroke="black" points="1163.5,-523 1163.5,-541 1225.5,-541 1225.5,-523 1163.5,-523"/>
<text text-anchor="start" x="1166.5" y="-529.2" font-family="Helvetica,sans-Serif" font-size="11.00">&lt; 5</text>
<polygon fill="#ffffff" stroke="transparent" points="1225.5,-523 1225.5,-541 1258.5,-541 1258.5,-523 1225.5,-523"/>
<polygon fill="none" stroke="black" points="1225.5,-523 1225.5,-541 1258.5,-541 1258.5,-523 1225.5,-523"/>
<text text-anchor="start" x="1248.5" y="-529.2" font-family="Helvetica,sans-Serif" font-size="11.00"> &#160;</text>
<polygon fill="#ffffff" stroke="transparent" points="1258.5,-523 1258.5,-541 1301.5,-541 1301.5,-523 1258.5,-523"/>
<polygon fill="none" stroke="black" points="1258.5,-523 1258.5,-541 1301.5,-541 1301.5,-523 1258.5,-523"/>
<text text-anchor="start" x="1282.5" y="-529.2" font-family="Helvetica,sans-Serif" font-size="11.00">4 &gt;</text>
</a>
</g>
</g>
<!-- syst_instances&#45;&gt;syst_enum_items -->
<g id="edge14" class="edge">
<title>syst_instances:w&#45;&gt;syst_enum_items:e</title>
<path fill="none" stroke="black" d="M1147.94,-549.57C1009.61,-546.96 956.78,-588.29 827,-525 784.59,-504.32 751.01,-460.72 730.79,-430.12"/>
<polygon fill="black" stroke="black" points="1154.5,-549.76 1162.39,-553.6 1158.5,-549.88 1162.5,-550 1162.5,-550 1162.5,-550 1158.5,-549.88 1162.61,-546.4 1154.5,-549.76 1154.5,-549.76"/>
<ellipse fill="none" stroke="black" cx="1151.3" cy="-549.67" rx="3.2" ry="3.2"/>
</g>
<!-- syst_instances&#45;&gt;syst_enum_items -->
<g id="edge15" class="edge">
<title>syst_instances:w&#45;&gt;syst_enum_items:e</title>
<path fill="none" stroke="black" d="M1147.94,-550.82C1009.61,-559.96 956.78,-601.29 827,-538 780.14,-515.15 744.06,-464.33 724.87,-430.26"/>
<polygon fill="black" stroke="black" points="1154.51,-550.45 1162.7,-553.59 1158.51,-550.23 1162.5,-550 1162.5,-550 1162.5,-550 1158.51,-550.23 1162.3,-546.41 1154.51,-550.45 1154.51,-550.45"/>
<ellipse fill="none" stroke="black" cx="1151.32" cy="-550.63" rx="3.2" ry="3.2"/>
</g>
<!-- syst_instances&#45;&gt;syst_owners -->
<g id="edge16" class="edge">
<title>syst_instances:w&#45;&gt;syst_owners:e</title>
<path fill="none" stroke="black" d="M1147.93,-548.94C1094.67,-540.84 1086.63,-489 1025,-489"/>
<polygon fill="black" stroke="black" points="1154.52,-549.42 1162.24,-553.59 1158.51,-549.71 1162.5,-550 1162.5,-550 1162.5,-550 1158.51,-549.71 1162.76,-546.41 1154.52,-549.42 1154.52,-549.42"/>
<ellipse fill="none" stroke="black" cx="1151.33" cy="-549.19" rx="3.2" ry="3.2"/>
</g>
<!-- syst_menus -->
<g id="node11" class="node">
<title>syst_menus</title>
<g id="a_node11"><a xlink:href="../../tables/syst_menus.html" xlink:title="syst_menus" target="_top">
<polygon fill="#ffffff" stroke="transparent" points="904,-144 904,-202 1022,-202 1022,-144 904,-144"/>
<polygon fill="#f5f5f5" stroke="transparent" points="904,-180 904,-202 1022,-202 1022,-180 904,-180"/>
<polygon fill="none" stroke="black" points="904,-180 904,-202 1022,-202 1022,-180 904,-180"/>
<text text-anchor="start" x="909" y="-189.2" font-family="Helvetica,sans-Serif" font-weight="bold" font-size="11.00">syst_menus</text>
<text text-anchor="start" x="987" y="-188.2" font-family="Helvetica,sans-Serif" font-size="11.00">[table]</text>
<polygon fill="none" stroke="black" points="904,-162 904,-180 1022,-180 1022,-162 904,-162"/>
<text text-anchor="start" x="907" y="-168.2" font-family="Helvetica,sans-Serif" font-size="11.00">...</text>
<polygon fill="#ffffff" stroke="transparent" points="904,-144 904,-162 956,-162 956,-144 904,-144"/>
<polygon fill="none" stroke="black" points="904,-144 904,-162 956,-162 956,-144 904,-144"/>
<text text-anchor="start" x="907" y="-150.2" font-family="Helvetica,sans-Serif" font-size="11.00">&lt; 1</text>
<polygon fill="#ffffff" stroke="transparent" points="956,-144 956,-162 984,-162 984,-144 956,-144"/>
<polygon fill="none" stroke="black" points="956,-144 956,-162 984,-162 984,-144 956,-144"/>
<text text-anchor="start" x="974" y="-150.2" font-family="Helvetica,sans-Serif" font-size="11.00"> &#160;</text>
<polygon fill="#ffffff" stroke="transparent" points="984,-144 984,-162 1022,-162 1022,-144 984,-144"/>
<polygon fill="none" stroke="black" points="984,-144 984,-162 1022,-162 1022,-144 984,-144"/>
<text text-anchor="start" x="1003" y="-150.2" font-family="Helvetica,sans-Serif" font-size="11.00">2 &gt;</text>
</a>
</g>
</g>
<!-- syst_menus&#45;&gt;syst_enum_items -->
<g id="edge17" class="edge">
<title>syst_menus:w&#45;&gt;syst_enum_items:e</title>
<path fill="none" stroke="black" d="M888.61,-171.91C797.07,-183.51 742.22,-303.86 720.42,-363.65"/>
<polygon fill="black" stroke="black" points="895.02,-171.5 903.23,-174.59 899.01,-171.25 903,-171 903,-171 903,-171 899.01,-171.25 902.77,-167.41 895.02,-171.5 895.02,-171.5"/>
<ellipse fill="none" stroke="black" cx="891.82" cy="-171.7" rx="3.2" ry="3.2"/>
</g>
</g>
</svg>
