<?xml version="1.0" encoding="UTF-8" standalone="no"?>
<!DOCTYPE svg PUBLIC "-//W3C//DTD SVG 1.1//EN"
 "http://www.w3.org/Graphics/SVG/1.1/DTD/svg11.dtd">
<!-- Generated by graphviz version 2.43.0 (0)
 -->
<!-- Title: oneDegreeRelationshipsDiagram Pages: 1 -->
<svg width="577pt" height="401pt"
 viewBox="0.00 0.00 577.00 401.00" xmlns="http://www.w3.org/2000/svg" xmlns:xlink="http://www.w3.org/1999/xlink">
<g id="graph0" class="graph" transform="scale(1 1) rotate(0) translate(4 397)">
<title>oneDegreeRelationshipsDiagram</title>
<polygon fill="#ffffff" stroke="transparent" points="-4,4 -4,-397 573,-397 573,4 -4,4"/>
<text text-anchor="middle" x="71.5" y="-7.2" font-family="Helvetica,sans-Serif" font-size="11.00">Generated by SchemaSpy</text>
<!-- syst_instance_network_rules -->
<g id="node1" class="node">
<title>syst_instance_network_rules</title>
<g id="a_node1"><a xlink:href="../../tables/syst_instance_network_rules.html" xlink:title="syst_instance_network_rules" target="_top">
<polygon fill="#ffffff" stroke="transparent" points="251,-37 251,-389 561,-389 561,-37 251,-37"/>
<polygon fill="#f5f5f5" stroke="transparent" points="253,-365 253,-387 559,-387 559,-365 253,-365"/>
<polygon fill="none" stroke="black" points="253,-365 253,-387 559,-387 559,-365 253,-365"/>
<text text-anchor="start" x="258" y="-374.2" font-family="Helvetica,sans-Serif" font-weight="bold" font-size="11.00">syst_instance_network_rules</text>
<text text-anchor="start" x="524" y="-373.2" font-family="Helvetica,sans-Serif" font-size="11.00">[table]</text>
<polygon fill="none" stroke="black" points="253,-343 253,-365 466,-365 466,-343 253,-343"/>
<image xlink:href="../../images/primaryKeys.png" width="11px" height="12px" preserveAspectRatio="xMinYMin meet" x="258" y="-360"/>
<text text-anchor="start" x="273" y="-351.2" font-family="Helvetica,sans-Serif" font-size="11.00">id</text>
<polygon fill="none" stroke="black" points="466,-343 466,-365 559,-365 559,-343 466,-343"/>
<text text-anchor="start" x="469" y="-351.2" font-family="Helvetica,sans-Serif" font-size="11.00">uuid[2147483647]</text>
<polygon fill="#ffffff" stroke="transparent" points="253,-321 253,-343 466,-343 466,-321 253,-321"/>
<polygon fill="none" stroke="black" points="253,-321 253,-343 466,-343 466,-321 253,-321"/>
<image xlink:href="../../images/foreignKeys.png" width="11px" height="12px" preserveAspectRatio="xMinYMin meet" x="258" y="-338"/>
<text text-anchor="start" x="273" y="-329.2" font-family="Helvetica,sans-Serif" font-size="11.00">instance_id</text>
<polygon fill="none" stroke="black" points="466,-321 466,-343 559,-343 559,-321 466,-321"/>
<text text-anchor="start" x="469" y="-329.2" font-family="Helvetica,sans-Serif" font-size="11.00">uuid[2147483647]</text>
<polygon fill="#ffffff" stroke="transparent" points="253,-299 253,-321 466,-321 466,-299 253,-299"/>
<polygon fill="none" stroke="black" points="253,-299 253,-321 466,-321 466,-299 253,-299"/>
<text text-anchor="start" x="273" y="-307.2" font-family="Helvetica,sans-Serif" font-size="11.00">ordering</text>
<polygon fill="none" stroke="black" points="466,-299 466,-321 559,-321 559,-299 466,-299"/>
<text text-anchor="start" x="469" y="-307.2" font-family="Helvetica,sans-Serif" font-size="11.00">int4[10]</text>
<polygon fill="none" stroke="black" points="253,-277 253,-299 466,-299 466,-277 253,-277"/>
<text text-anchor="start" x="273" y="-285.2" font-family="Helvetica,sans-Serif" font-size="11.00">functional_type</text>
<polygon fill="none" stroke="black" points="466,-277 466,-299 559,-299 559,-277 466,-277"/>
<text text-anchor="start" x="469" y="-285.2" font-family="Helvetica,sans-Serif" font-size="11.00">text[2147483647]</text>
<polygon fill="none" stroke="black" points="253,-255 253,-277 466,-277 466,-255 253,-255"/>
<text text-anchor="start" x="273" y="-263.2" font-family="Helvetica,sans-Serif" font-size="11.00">ip_host_or_network</text>
<polygon fill="none" stroke="black" points="466,-255 466,-277 559,-277 559,-255 466,-255"/>
<text text-anchor="start" x="469" y="-263.2" font-family="Helvetica,sans-Serif" font-size="11.00">inet[2147483647]</text>
<polygon fill="none" stroke="black" points="253,-233 253,-255 466,-255 466,-233 253,-233"/>
<text text-anchor="start" x="273" y="-241.2" font-family="Helvetica,sans-Serif" font-size="11.00">ip_host_range_lower</text>
<polygon fill="none" stroke="black" points="466,-233 466,-255 559,-255 559,-233 466,-233"/>
<text text-anchor="start" x="469" y="-241.2" font-family="Helvetica,sans-Serif" font-size="11.00">inet[2147483647]</text>
<polygon fill="none" stroke="black" points="253,-211 253,-233 466,-233 466,-211 253,-211"/>
<text text-anchor="start" x="273" y="-219.2" font-family="Helvetica,sans-Serif" font-size="11.00">ip_host_range_upper</text>
<polygon fill="none" stroke="black" points="466,-211 466,-233 559,-233 559,-211 466,-211"/>
<text text-anchor="start" x="469" y="-219.2" font-family="Helvetica,sans-Serif" font-size="11.00">inet[2147483647]</text>
<polygon fill="none" stroke="black" points="253,-189 253,-211 466,-211 466,-189 253,-189"/>
<text text-anchor="start" x="273" y="-197.2" font-family="Helvetica,sans-Serif" font-size="11.00">diag_timestamp_created</text>
<polygon fill="none" stroke="black" points="466,-189 466,-211 559,-211 559,-189 466,-189"/>
<text text-anchor="start" x="469" y="-197.2" font-family="Helvetica,sans-Serif" font-size="11.00">timestamptz[35,6]</text>
<polygon fill="none" stroke="black" points="253,-167 253,-189 466,-189 466,-167 253,-167"/>
<text text-anchor="start" x="273" y="-175.2" font-family="Helvetica,sans-Serif" font-size="11.00">diag_role_created</text>
<polygon fill="none" stroke="black" points="466,-167 466,-189 559,-189 559,-167 466,-167"/>
<text text-anchor="start" x="469" y="-175.2" font-family="Helvetica,sans-Serif" font-size="11.00">text[2147483647]</text>
<polygon fill="none" stroke="black" points="253,-145 253,-167 466,-167 466,-145 253,-145"/>
<text text-anchor="start" x="273" y="-153.2" font-family="Helvetica,sans-Serif" font-size="11.00">diag_timestamp_modified</text>
<polygon fill="none" stroke="black" points="466,-145 466,-167 559,-167 559,-145 466,-145"/>
<text text-anchor="start" x="469" y="-153.2" font-family="Helvetica,sans-Serif" font-size="11.00">timestamptz[35,6]</text>
<polygon fill="none" stroke="black" points="253,-123 253,-145 466,-145 466,-123 253,-123"/>
<text text-anchor="start" x="273" y="-131.2" font-family="Helvetica,sans-Serif" font-size="11.00">diag_wallclock_modified</text>
<polygon fill="none" stroke="black" points="466,-123 466,-145 559,-145 559,-123 466,-123"/>
<text text-anchor="start" x="469" y="-131.2" font-family="Helvetica,sans-Serif" font-size="11.00">timestamptz[35,6]</text>
<polygon fill="none" stroke="black" points="253,-101 253,-123 466,-123 466,-101 253,-101"/>
<text text-anchor="start" x="273" y="-109.2" font-family="Helvetica,sans-Serif" font-size="11.00">diag_role_modified</text>
<polygon fill="none" stroke="black" points="466,-101 466,-123 559,-123 559,-101 466,-101"/>
<text text-anchor="start" x="469" y="-109.2" font-family="Helvetica,sans-Serif" font-size="11.00">text[2147483647]</text>
<polygon fill="none" stroke="black" points="253,-79 253,-101 466,-101 466,-79 253,-79"/>
<text text-anchor="start" x="273" y="-87.2" font-family="Helvetica,sans-Serif" font-size="11.00">diag_row_version</text>
<polygon fill="none" stroke="black" points="466,-79 466,-101 559,-101 559,-79 466,-79"/>
<text text-anchor="start" x="469" y="-87.2" font-family="Helvetica,sans-Serif" font-size="11.00">int8[19]</text>
<polygon fill="none" stroke="black" points="253,-57 253,-79 466,-79 466,-57 253,-57"/>
<text text-anchor="start" x="273" y="-65.2" font-family="Helvetica,sans-Serif" font-size="11.00">diag_update_count</text>
<polygon fill="none" stroke="black" points="466,-57 466,-79 559,-79 559,-57 466,-57"/>
<text text-anchor="start" x="469" y="-65.2" font-family="Helvetica,sans-Serif" font-size="11.00">int8[19]</text>
<polygon fill="#ffffff" stroke="transparent" points="253,-39 253,-57 364,-57 364,-39 253,-39"/>
<polygon fill="none" stroke="black" points="253,-39 253,-57 364,-57 364,-39 253,-39"/>
<text text-anchor="start" x="256" y="-45.2" font-family="Helvetica,sans-Serif" font-size="11.00">&lt; 1</text>
<polygon fill="#ffffff" stroke="transparent" points="364,-39 364,-57 466,-57 466,-39 364,-39"/>
<polygon fill="none" stroke="black" points="364,-39 364,-57 466,-57 466,-39 364,-39"/>
<text text-anchor="start" x="456" y="-45.2" font-family="Helvetica,sans-Serif" font-size="11.00"> &#160;</text>
<polygon fill="#ffffff" stroke="transparent" points="466,-39 466,-57 559,-57 559,-39 466,-39"/>
<polygon fill="none" stroke="black" points="466,-39 466,-57 559,-57 559,-39 466,-39"/>
<text text-anchor="start" x="540" y="-45.2" font-family="Helvetica,sans-Serif" font-size="11.00">0 &gt;</text>
<polygon fill="none" stroke="black" stroke-width="2" points="252,-38 252,-388 560,-388 560,-38 252,-38"/>
</a>
</g>
</g>
<!-- syst_instances -->
<g id="node2" class="node">
<title>syst_instances</title>
<g id="a_node2"><a xlink:href="../../tables/syst_instances.html" xlink:title="syst_instances" target="_top">
<polygon fill="#ffffff" stroke="transparent" points="8,-131 8,-365 202,-365 202,-131 8,-131"/>
<polygon fill="#f5f5f5" stroke="transparent" points="8,-343 8,-365 202,-365 202,-343 8,-343"/>
<polygon fill="none" stroke="black" points="8,-343 8,-365 202,-365 202,-343 8,-343"/>
<text text-anchor="start" x="13" y="-352.2" font-family="Helvetica,sans-Serif" font-weight="bold" font-size="11.00">syst_instances</text>
<text text-anchor="start" x="167" y="-351.2" font-family="Helvetica,sans-Serif" font-size="11.00">[table]</text>
<polygon fill="none" stroke="black" points="8,-321 8,-343 202,-343 202,-321 8,-321"/>
<image xlink:href="../../images/primaryKeys.png" width="11px" height="12px" preserveAspectRatio="xMinYMin meet" x="13" y="-338"/>
<text text-anchor="start" x="28" y="-329.2" font-family="Helvetica,sans-Serif" font-size="11.00">id</text>
<polygon fill="#ffffff" stroke="transparent" points="8,-299 8,-321 202,-321 202,-299 8,-299"/>
<polygon fill="none" stroke="black" points="8,-299 8,-321 202,-321 202,-299 8,-299"/>
<text text-anchor="start" x="28" y="-307.2" font-family="Helvetica,sans-Serif" font-size="11.00">internal_name</text>
<polygon fill="#ffffff" stroke="transparent" points="8,-277 8,-299 202,-299 202,-277 8,-277"/>
<polygon fill="none" stroke="black" points="8,-277 8,-299 202,-299 202,-277 8,-277"/>
<text text-anchor="start" x="28" y="-285.2" font-family="Helvetica,sans-Serif" font-size="11.00">display_name</text>
<polygon fill="none" stroke="black" points="8,-255 8,-277 202,-277 202,-255 8,-255"/>
<image xlink:href="../../images/foreignKeys.png" width="11px" height="12px" preserveAspectRatio="xMinYMin meet" x="13" y="-272"/>
<text text-anchor="start" x="28" y="-263.2" font-family="Helvetica,sans-Serif" font-size="11.00">application_id</text>
<polygon fill="none" stroke="black" points="8,-233 8,-255 202,-255 202,-233 8,-233"/>
<image xlink:href="../../images/foreignKeys.png" width="11px" height="12px" preserveAspectRatio="xMinYMin meet" x="13" y="-250"/>
<text text-anchor="start" x="28" y="-241.2" font-family="Helvetica,sans-Serif" font-size="11.00">instance_type_id</text>
<polygon fill="none" stroke="black" points="8,-211 8,-233 202,-233 202,-211 8,-211"/>
<image xlink:href="../../images/foreignKeys.png" width="11px" height="12px" preserveAspectRatio="xMinYMin meet" x="13" y="-228"/>
<text text-anchor="start" x="28" y="-219.2" font-family="Helvetica,sans-Serif" font-size="11.00">instance_state_id</text>
<polygon fill="none" stroke="black" points="8,-189 8,-211 202,-211 202,-189 8,-189"/>
<image xlink:href="../../images/foreignKeys.png" width="11px" height="12px" preserveAspectRatio="xMinYMin meet" x="13" y="-206"/>
<text text-anchor="start" x="28" y="-197.2" font-family="Helvetica,sans-Serif" font-size="11.00">owner_id</text>
<polygon fill="none" stroke="black" points="8,-167 8,-189 202,-189 202,-167 8,-167"/>
<image xlink:href="../../images/foreignKeys.png" width="11px" height="12px" preserveAspectRatio="xMinYMin meet" x="13" y="-184"/>
<text text-anchor="start" x="28" y="-175.2" font-family="Helvetica,sans-Serif" font-size="11.00">owning_instance_id</text>
<polygon fill="none" stroke="black" points="8,-149 8,-167 202,-167 202,-149 8,-149"/>
<text text-anchor="start" x="11" y="-155.2" font-family="Helvetica,sans-Serif" font-size="11.00">...</text>
<polygon fill="#ffffff" stroke="transparent" points="8,-131 8,-149 98,-149 98,-131 8,-131"/>
<polygon fill="none" stroke="black" points="8,-131 8,-149 98,-149 98,-131 8,-131"/>
<text text-anchor="start" x="11" y="-137.2" font-family="Helvetica,sans-Serif" font-size="11.00">&lt; 5</text>
<polygon fill="#ffffff" stroke="transparent" points="98,-131 98,-149 145,-149 145,-131 98,-131"/>
<polygon fill="none" stroke="black" points="98,-131 98,-149 145,-149 145,-131 98,-131"/>
<text text-anchor="start" x="135" y="-137.2" font-family="Helvetica,sans-Serif" font-size="11.00"> &#160;</text>
<polygon fill="#ffffff" stroke="transparent" points="145,-131 145,-149 202,-149 202,-131 145,-131"/>
<polygon fill="none" stroke="black" points="145,-131 145,-149 202,-149 202,-131 145,-131"/>
<text text-anchor="start" x="183" y="-137.2" font-family="Helvetica,sans-Serif" font-size="11.00">4 &gt;</text>
</a>
</g>
</g>
<!-- syst_instance_network_rules&#45;&gt;syst_instances -->
<g id="edge1" class="edge">
<title>syst_instance_network_rules:w&#45;&gt;syst_instances:e</title>
<path fill="none" stroke="black" d="M237.49,-332C226.18,-332 218.99,-332 203,-332"/>
<polygon fill="black" stroke="black" points="244,-332 252,-335.6 248,-332 252,-332 252,-332 252,-332 248,-332 252,-328.4 244,-332 244,-332"/>
<ellipse fill="none" stroke="black" cx="240.8" cy="-332" rx="3.2" ry="3.2"/>
</g>
</g>
</svg>
