<?xml version="1.0" encoding="UTF-8" standalone="no"?>
<!DOCTYPE svg PUBLIC "-//W3C//DTD SVG 1.1//EN"
 "http://www.w3.org/Graphics/SVG/1.1/DTD/svg11.dtd">
<!-- Generated by graphviz version 2.43.0 (0)
 -->
<!-- Title: oneDegreeRelationshipsDiagram Pages: 1 -->
<svg width="801pt" height="531pt"
 viewBox="0.00 0.00 801.00 531.00" xmlns="http://www.w3.org/2000/svg" xmlns:xlink="http://www.w3.org/1999/xlink">
<g id="graph0" class="graph" transform="scale(1 1) rotate(0) translate(4 527)">
<title>oneDegreeRelationshipsDiagram</title>
<polygon fill="#ffffff" stroke="transparent" points="-4,4 -4,-527 797,-527 797,4 -4,4"/>
<text text-anchor="middle" x="71.5" y="-7.2" font-family="Helvetica,sans-Serif" font-size="11.00">Generated by SchemaSpy</text>
<!-- syst_hierarchies -->
<g id="node1" class="node">
<title>syst_hierarchies</title>
<g id="a_node1"><a xlink:href="../../tables/syst_hierarchies.html" xlink:title="syst_hierarchies" target="_top">
<polygon fill="#ffffff" stroke="transparent" points="251,-37 251,-455 542,-455 542,-37 251,-37"/>
<polygon fill="#f5f5f5" stroke="transparent" points="253.5,-431 253.5,-453 540.5,-453 540.5,-431 253.5,-431"/>
<polygon fill="none" stroke="black" points="253.5,-431 253.5,-453 540.5,-453 540.5,-431 253.5,-431"/>
<text text-anchor="start" x="258.5" y="-440.2" font-family="Helvetica,sans-Serif" font-weight="bold" font-size="11.00">syst_hierarchies</text>
<text text-anchor="start" x="505.5" y="-439.2" font-family="Helvetica,sans-Serif" font-size="11.00">[table]</text>
<polygon fill="none" stroke="black" points="253.5,-409 253.5,-431 447.5,-431 447.5,-409 253.5,-409"/>
<image xlink:href="../../images/primaryKeys.png" width="11px" height="12px" preserveAspectRatio="xMinYMin meet" x="258.5" y="-426"/>
<text text-anchor="start" x="273.5" y="-417.2" font-family="Helvetica,sans-Serif" font-size="11.00">id</text>
<polygon fill="none" stroke="black" points="447.5,-409 447.5,-431 540.5,-431 540.5,-409 447.5,-409"/>
<text text-anchor="start" x="450.5" y="-417.2" font-family="Helvetica,sans-Serif" font-size="11.00">uuid[2147483647]</text>
<polygon fill="#ffffff" stroke="transparent" points="253.5,-387 253.5,-409 447.5,-409 447.5,-387 253.5,-387"/>
<polygon fill="none" stroke="black" points="253.5,-387 253.5,-409 447.5,-409 447.5,-387 253.5,-387"/>
<text text-anchor="start" x="273.5" y="-395.2" font-family="Helvetica,sans-Serif" font-size="11.00">internal_name</text>
<polygon fill="none" stroke="black" points="447.5,-387 447.5,-409 540.5,-409 540.5,-387 447.5,-387"/>
<text text-anchor="start" x="450.5" y="-395.2" font-family="Helvetica,sans-Serif" font-size="11.00">text[2147483647]</text>
<polygon fill="#ffffff" stroke="transparent" points="253.5,-365 253.5,-387 447.5,-387 447.5,-365 253.5,-365"/>
<polygon fill="none" stroke="black" points="253.5,-365 253.5,-387 447.5,-387 447.5,-365 253.5,-365"/>
<text text-anchor="start" x="273.5" y="-373.2" font-family="Helvetica,sans-Serif" font-size="11.00">display_name</text>
<polygon fill="none" stroke="black" points="447.5,-365 447.5,-387 540.5,-387 540.5,-365 447.5,-365"/>
<text text-anchor="start" x="450.5" y="-373.2" font-family="Helvetica,sans-Serif" font-size="11.00">text[2147483647]</text>
<polygon fill="none" stroke="black" points="253.5,-343 253.5,-365 447.5,-365 447.5,-343 253.5,-343"/>
<image xlink:href="../../images/foreignKeys.png" width="11px" height="12px" preserveAspectRatio="xMinYMin meet" x="258.5" y="-360"/>
<text text-anchor="start" x="273.5" y="-351.2" font-family="Helvetica,sans-Serif" font-size="11.00">hierarchy_type_id</text>
<polygon fill="none" stroke="black" points="447.5,-343 447.5,-365 540.5,-365 540.5,-343 447.5,-343"/>
<text text-anchor="start" x="450.5" y="-351.2" font-family="Helvetica,sans-Serif" font-size="11.00">uuid[2147483647]</text>
<polygon fill="none" stroke="black" points="253.5,-321 253.5,-343 447.5,-343 447.5,-321 253.5,-321"/>
<image xlink:href="../../images/foreignKeys.png" width="11px" height="12px" preserveAspectRatio="xMinYMin meet" x="258.5" y="-338"/>
<text text-anchor="start" x="273.5" y="-329.2" font-family="Helvetica,sans-Serif" font-size="11.00">hierarchy_state_id</text>
<polygon fill="none" stroke="black" points="447.5,-321 447.5,-343 540.5,-343 540.5,-321 447.5,-321"/>
<text text-anchor="start" x="450.5" y="-329.2" font-family="Helvetica,sans-Serif" font-size="11.00">uuid[2147483647]</text>
<polygon fill="none" stroke="black" points="253.5,-299 253.5,-321 447.5,-321 447.5,-299 253.5,-299"/>
<text text-anchor="start" x="273.5" y="-307.2" font-family="Helvetica,sans-Serif" font-size="11.00">syst_defined</text>
<polygon fill="none" stroke="black" points="447.5,-299 447.5,-321 540.5,-321 540.5,-299 447.5,-299"/>
<text text-anchor="start" x="450.5" y="-307.2" font-family="Helvetica,sans-Serif" font-size="11.00">bool[1]</text>
<polygon fill="none" stroke="black" points="253.5,-277 253.5,-299 447.5,-299 447.5,-277 253.5,-277"/>
<text text-anchor="start" x="273.5" y="-285.2" font-family="Helvetica,sans-Serif" font-size="11.00">user_maintainable</text>
<polygon fill="none" stroke="black" points="447.5,-277 447.5,-299 540.5,-299 540.5,-277 447.5,-277"/>
<text text-anchor="start" x="450.5" y="-285.2" font-family="Helvetica,sans-Serif" font-size="11.00">bool[1]</text>
<polygon fill="none" stroke="black" points="253.5,-255 253.5,-277 447.5,-277 447.5,-255 253.5,-255"/>
<text text-anchor="start" x="273.5" y="-263.2" font-family="Helvetica,sans-Serif" font-size="11.00">structured</text>
<polygon fill="none" stroke="black" points="447.5,-255 447.5,-277 540.5,-277 540.5,-255 447.5,-255"/>
<text text-anchor="start" x="450.5" y="-263.2" font-family="Helvetica,sans-Serif" font-size="11.00">bool[1]</text>
<polygon fill="none" stroke="black" points="253.5,-233 253.5,-255 447.5,-255 447.5,-233 253.5,-233"/>
<text text-anchor="start" x="273.5" y="-241.2" font-family="Helvetica,sans-Serif" font-size="11.00">syst_description</text>
<polygon fill="none" stroke="black" points="447.5,-233 447.5,-255 540.5,-255 540.5,-233 447.5,-233"/>
<text text-anchor="start" x="450.5" y="-241.2" font-family="Helvetica,sans-Serif" font-size="11.00">text[2147483647]</text>
<polygon fill="none" stroke="black" points="253.5,-211 253.5,-233 447.5,-233 447.5,-211 253.5,-211"/>
<text text-anchor="start" x="273.5" y="-219.2" font-family="Helvetica,sans-Serif" font-size="11.00">user_description</text>
<polygon fill="none" stroke="black" points="447.5,-211 447.5,-233 540.5,-233 540.5,-211 447.5,-211"/>
<text text-anchor="start" x="450.5" y="-219.2" font-family="Helvetica,sans-Serif" font-size="11.00">text[2147483647]</text>
<polygon fill="none" stroke="black" points="253.5,-189 253.5,-211 447.5,-211 447.5,-189 253.5,-189"/>
<text text-anchor="start" x="273.5" y="-197.2" font-family="Helvetica,sans-Serif" font-size="11.00">diag_timestamp_created</text>
<polygon fill="none" stroke="black" points="447.5,-189 447.5,-211 540.5,-211 540.5,-189 447.5,-189"/>
<text text-anchor="start" x="450.5" y="-197.2" font-family="Helvetica,sans-Serif" font-size="11.00">timestamptz[35,6]</text>
<polygon fill="none" stroke="black" points="253.5,-167 253.5,-189 447.5,-189 447.5,-167 253.5,-167"/>
<text text-anchor="start" x="273.5" y="-175.2" font-family="Helvetica,sans-Serif" font-size="11.00">diag_role_created</text>
<polygon fill="none" stroke="black" points="447.5,-167 447.5,-189 540.5,-189 540.5,-167 447.5,-167"/>
<text text-anchor="start" x="450.5" y="-175.2" font-family="Helvetica,sans-Serif" font-size="11.00">text[2147483647]</text>
<polygon fill="none" stroke="black" points="253.5,-145 253.5,-167 447.5,-167 447.5,-145 253.5,-145"/>
<text text-anchor="start" x="273.5" y="-153.2" font-family="Helvetica,sans-Serif" font-size="11.00">diag_timestamp_modified</text>
<polygon fill="none" stroke="black" points="447.5,-145 447.5,-167 540.5,-167 540.5,-145 447.5,-145"/>
<text text-anchor="start" x="450.5" y="-153.2" font-family="Helvetica,sans-Serif" font-size="11.00">timestamptz[35,6]</text>
<polygon fill="none" stroke="black" points="253.5,-123 253.5,-145 447.5,-145 447.5,-123 253.5,-123"/>
<text text-anchor="start" x="273.5" y="-131.2" font-family="Helvetica,sans-Serif" font-size="11.00">diag_wallclock_modified</text>
<polygon fill="none" stroke="black" points="447.5,-123 447.5,-145 540.5,-145 540.5,-123 447.5,-123"/>
<text text-anchor="start" x="450.5" y="-131.2" font-family="Helvetica,sans-Serif" font-size="11.00">timestamptz[35,6]</text>
<polygon fill="none" stroke="black" points="253.5,-101 253.5,-123 447.5,-123 447.5,-101 253.5,-101"/>
<text text-anchor="start" x="273.5" y="-109.2" font-family="Helvetica,sans-Serif" font-size="11.00">diag_role_modified</text>
<polygon fill="none" stroke="black" points="447.5,-101 447.5,-123 540.5,-123 540.5,-101 447.5,-101"/>
<text text-anchor="start" x="450.5" y="-109.2" font-family="Helvetica,sans-Serif" font-size="11.00">text[2147483647]</text>
<polygon fill="none" stroke="black" points="253.5,-79 253.5,-101 447.5,-101 447.5,-79 253.5,-79"/>
<text text-anchor="start" x="273.5" y="-87.2" font-family="Helvetica,sans-Serif" font-size="11.00">diag_row_version</text>
<polygon fill="none" stroke="black" points="447.5,-79 447.5,-101 540.5,-101 540.5,-79 447.5,-79"/>
<text text-anchor="start" x="450.5" y="-87.2" font-family="Helvetica,sans-Serif" font-size="11.00">int8[19]</text>
<polygon fill="none" stroke="black" points="253.5,-57 253.5,-79 447.5,-79 447.5,-57 253.5,-57"/>
<text text-anchor="start" x="273.5" y="-65.2" font-family="Helvetica,sans-Serif" font-size="11.00">diag_update_count</text>
<polygon fill="none" stroke="black" points="447.5,-57 447.5,-79 540.5,-79 540.5,-57 447.5,-57"/>
<text text-anchor="start" x="450.5" y="-65.2" font-family="Helvetica,sans-Serif" font-size="11.00">int8[19]</text>
<polygon fill="#ffffff" stroke="transparent" points="253.5,-39 253.5,-57 354.5,-57 354.5,-39 253.5,-39"/>
<polygon fill="none" stroke="black" points="253.5,-39 253.5,-57 354.5,-57 354.5,-39 253.5,-39"/>
<text text-anchor="start" x="256.5" y="-45.2" font-family="Helvetica,sans-Serif" font-size="11.00">&lt; 2</text>
<polygon fill="#ffffff" stroke="transparent" points="354.5,-39 354.5,-57 447.5,-57 447.5,-39 354.5,-39"/>
<polygon fill="none" stroke="black" points="354.5,-39 354.5,-57 447.5,-57 447.5,-39 354.5,-39"/>
<text text-anchor="start" x="437.5" y="-45.2" font-family="Helvetica,sans-Serif" font-size="11.00"> &#160;</text>
<polygon fill="#ffffff" stroke="transparent" points="447.5,-39 447.5,-57 540.5,-57 540.5,-39 447.5,-39"/>
<polygon fill="none" stroke="black" points="447.5,-39 447.5,-57 540.5,-57 540.5,-39 447.5,-39"/>
<text text-anchor="start" x="521.5" y="-45.2" font-family="Helvetica,sans-Serif" font-size="11.00">1 &gt;</text>
<polygon fill="none" stroke="black" stroke-width="2" points="252,-38 252,-454 541,-454 541,-38 252,-38"/>
</a>
</g>
</g>
<!-- syst_enum_items -->
<g id="node2" class="node">
<title>syst_enum_items</title>
<g id="a_node2"><a xlink:href="../../tables/syst_enum_items.html" xlink:title="syst_enum_items" target="_top">
<polygon fill="#ffffff" stroke="transparent" points="8,-208 8,-376 202,-376 202,-208 8,-208"/>
<polygon fill="#f5f5f5" stroke="transparent" points="8,-354 8,-376 202,-376 202,-354 8,-354"/>
<polygon fill="none" stroke="black" points="8,-354 8,-376 202,-376 202,-354 8,-354"/>
<text text-anchor="start" x="13" y="-363.2" font-family="Helvetica,sans-Serif" font-weight="bold" font-size="11.00">syst_enum_items</text>
<text text-anchor="start" x="167" y="-362.2" font-family="Helvetica,sans-Serif" font-size="11.00">[table]</text>
<polygon fill="none" stroke="black" points="8,-332 8,-354 202,-354 202,-332 8,-332"/>
<image xlink:href="../../images/primaryKeys.png" width="11px" height="12px" preserveAspectRatio="xMinYMin meet" x="13" y="-349"/>
<text text-anchor="start" x="28" y="-340.2" font-family="Helvetica,sans-Serif" font-size="11.00">id</text>
<polygon fill="#ffffff" stroke="transparent" points="8,-310 8,-332 202,-332 202,-310 8,-310"/>
<polygon fill="none" stroke="black" points="8,-310 8,-332 202,-332 202,-310 8,-310"/>
<text text-anchor="start" x="28" y="-318.2" font-family="Helvetica,sans-Serif" font-size="11.00">internal_name</text>
<polygon fill="#ffffff" stroke="transparent" points="8,-288 8,-310 202,-310 202,-288 8,-288"/>
<polygon fill="none" stroke="black" points="8,-288 8,-310 202,-310 202,-288 8,-288"/>
<text text-anchor="start" x="28" y="-296.2" font-family="Helvetica,sans-Serif" font-size="11.00">display_name</text>
<polygon fill="none" stroke="black" points="8,-266 8,-288 202,-288 202,-266 8,-266"/>
<image xlink:href="../../images/foreignKeys.png" width="11px" height="12px" preserveAspectRatio="xMinYMin meet" x="13" y="-283"/>
<text text-anchor="start" x="28" y="-274.2" font-family="Helvetica,sans-Serif" font-size="11.00">enum_id</text>
<polygon fill="none" stroke="black" points="8,-244 8,-266 202,-266 202,-244 8,-244"/>
<image xlink:href="../../images/foreignKeys.png" width="11px" height="12px" preserveAspectRatio="xMinYMin meet" x="13" y="-261"/>
<text text-anchor="start" x="28" y="-252.2" font-family="Helvetica,sans-Serif" font-size="11.00">functional_type_id</text>
<polygon fill="none" stroke="black" points="8,-226 8,-244 202,-244 202,-226 8,-226"/>
<text text-anchor="start" x="11" y="-232.2" font-family="Helvetica,sans-Serif" font-size="11.00">...</text>
<polygon fill="#ffffff" stroke="transparent" points="8,-208 8,-226 95,-226 95,-208 8,-208"/>
<polygon fill="none" stroke="black" points="8,-208 8,-226 95,-226 95,-208 8,-208"/>
<text text-anchor="start" x="11" y="-214.2" font-family="Helvetica,sans-Serif" font-size="11.00">&lt; 2</text>
<polygon fill="#ffffff" stroke="transparent" points="95,-208 95,-226 141,-226 141,-208 95,-208"/>
<polygon fill="none" stroke="black" points="95,-208 95,-226 141,-226 141,-208 95,-208"/>
<text text-anchor="start" x="131" y="-214.2" font-family="Helvetica,sans-Serif" font-size="11.00"> &#160;</text>
<polygon fill="#ffffff" stroke="transparent" points="141,-208 141,-226 202,-226 202,-208 141,-208"/>
<polygon fill="none" stroke="black" points="141,-208 141,-226 202,-226 202,-208 141,-208"/>
<text text-anchor="start" x="177" y="-214.2" font-family="Helvetica,sans-Serif" font-size="11.00">10 &gt;</text>
</a>
</g>
</g>
<!-- syst_hierarchies&#45;&gt;syst_enum_items -->
<g id="edge1" class="edge">
<title>syst_hierarchies:w&#45;&gt;syst_enum_items:e</title>
<path fill="none" stroke="black" d="M238.06,-333.82C226.48,-336.94 219.73,-343 203,-343"/>
<polygon fill="black" stroke="black" points="244.56,-333 252.95,-335.57 248.53,-332.5 252.5,-332 252.5,-332 252.5,-332 248.53,-332.5 252.05,-328.43 244.56,-333 244.56,-333"/>
<ellipse fill="none" stroke="black" cx="241.39" cy="-333.4" rx="3.2" ry="3.2"/>
</g>
<!-- syst_hierarchies&#45;&gt;syst_enum_items -->
<g id="edge2" class="edge">
<title>syst_hierarchies:w&#45;&gt;syst_enum_items:e</title>
<path fill="none" stroke="black" d="M238.06,-352.18C226.48,-349.06 219.73,-343 203,-343"/>
<polygon fill="black" stroke="black" points="244.56,-353 252.05,-357.57 248.53,-353.5 252.5,-354 252.5,-354 252.5,-354 248.53,-353.5 252.95,-350.43 244.56,-353 244.56,-353"/>
<ellipse fill="none" stroke="black" cx="241.39" cy="-352.6" rx="3.2" ry="3.2"/>
</g>
<!-- syst_hierarchy_items -->
<g id="node3" class="node">
<title>syst_hierarchy_items</title>
<g id="a_node3"><a xlink:href="../../tables/syst_hierarchy_items.html" xlink:title="syst_hierarchy_items" target="_top">
<polygon fill="#ffffff" stroke="transparent" points="591,-351 591,-519 785,-519 785,-351 591,-351"/>
<polygon fill="#f5f5f5" stroke="transparent" points="591,-497 591,-519 785,-519 785,-497 591,-497"/>
<polygon fill="none" stroke="black" points="591,-497 591,-519 785,-519 785,-497 591,-497"/>
<text text-anchor="start" x="596" y="-506.2" font-family="Helvetica,sans-Serif" font-weight="bold" font-size="11.00">syst_hierarchy_items</text>
<text text-anchor="start" x="750" y="-505.2" font-family="Helvetica,sans-Serif" font-size="11.00">[table]</text>
<polygon fill="none" stroke="black" points="591,-475 591,-497 785,-497 785,-475 591,-475"/>
<image xlink:href="../../images/primaryKeys.png" width="11px" height="12px" preserveAspectRatio="xMinYMin meet" x="596" y="-492"/>
<text text-anchor="start" x="611" y="-483.2" font-family="Helvetica,sans-Serif" font-size="11.00">id</text>
<polygon fill="#ffffff" stroke="transparent" points="591,-453 591,-475 785,-475 785,-453 591,-453"/>
<polygon fill="none" stroke="black" points="591,-453 591,-475 785,-475 785,-453 591,-453"/>
<text text-anchor="start" x="611" y="-461.2" font-family="Helvetica,sans-Serif" font-size="11.00">internal_name</text>
<polygon fill="#ffffff" stroke="transparent" points="591,-431 591,-453 785,-453 785,-431 591,-431"/>
<polygon fill="none" stroke="black" points="591,-431 591,-453 785,-453 785,-431 591,-431"/>
<text text-anchor="start" x="611" y="-439.2" font-family="Helvetica,sans-Serif" font-size="11.00">display_name</text>
<polygon fill="#ffffff" stroke="transparent" points="591,-409 591,-431 785,-431 785,-409 591,-409"/>
<polygon fill="none" stroke="black" points="591,-409 591,-431 785,-431 785,-409 591,-409"/>
<image xlink:href="../../images/foreignKeys.png" width="11px" height="12px" preserveAspectRatio="xMinYMin meet" x="596" y="-426"/>
<text text-anchor="start" x="611" y="-417.2" font-family="Helvetica,sans-Serif" font-size="11.00">hierarchy_id</text>
<polygon fill="#ffffff" stroke="transparent" points="591,-387 591,-409 785,-409 785,-387 591,-387"/>
<polygon fill="none" stroke="black" points="591,-387 591,-409 785,-409 785,-387 591,-387"/>
<text text-anchor="start" x="611" y="-395.2" font-family="Helvetica,sans-Serif" font-size="11.00">hierarchy_depth</text>
<polygon fill="none" stroke="black" points="591,-369 591,-387 785,-387 785,-369 591,-369"/>
<text text-anchor="start" x="594" y="-375.2" font-family="Helvetica,sans-Serif" font-size="11.00">...</text>
<polygon fill="#ffffff" stroke="transparent" points="591,-351 591,-369 686,-369 686,-351 591,-351"/>
<polygon fill="none" stroke="black" points="591,-351 591,-369 686,-369 686,-351 591,-351"/>
<text text-anchor="start" x="594" y="-357.2" font-family="Helvetica,sans-Serif" font-size="11.00">&lt; 1</text>
<polygon fill="#ffffff" stroke="transparent" points="686,-351 686,-369 735,-369 735,-351 686,-351"/>
<polygon fill="none" stroke="black" points="686,-351 686,-369 735,-369 735,-351 686,-351"/>
<text text-anchor="start" x="725" y="-357.2" font-family="Helvetica,sans-Serif" font-size="11.00"> &#160;</text>
<polygon fill="#ffffff" stroke="transparent" points="735,-351 735,-369 785,-369 785,-351 735,-351"/>
<polygon fill="none" stroke="black" points="735,-351 735,-369 785,-369 785,-351 735,-351"/>
<text text-anchor="start" x="775" y="-357.2" font-family="Helvetica,sans-Serif" font-size="11.00"> &#160;</text>
</a>
</g>
</g>
<!-- syst_hierarchy_items&#45;&gt;syst_hierarchies -->
<g id="edge3" class="edge">
<title>syst_hierarchy_items:w&#45;&gt;syst_hierarchies:e</title>
<path fill="none" stroke="black" d="M575.28,-420C564.29,-420 557.16,-420 541.5,-420"/>
<polygon fill="black" stroke="black" points="582,-420 590,-423.6 586,-420 590,-420 590,-420 590,-420 586,-420 590,-416.4 582,-420 582,-420"/>
<ellipse fill="none" stroke="black" cx="578.8" cy="-420" rx="3.2" ry="3.2"/>
</g>
</g>
</svg>
