<?xml version="1.0" encoding="UTF-8" standalone="no"?>
<!DOCTYPE svg PUBLIC "-//W3C//DTD SVG 1.1//EN"
 "http://www.w3.org/Graphics/SVG/1.1/DTD/svg11.dtd">
<!-- Generated by graphviz version 2.43.0 (0)
 -->
<!-- Title: oneDegreeRelationshipsDiagram Pages: 1 -->
<svg width="332pt" height="115pt"
 viewBox="0.00 0.00 332.00 115.00" xmlns="http://www.w3.org/2000/svg" xmlns:xlink="http://www.w3.org/1999/xlink">
<g id="graph0" class="graph" transform="scale(1 1) rotate(0) translate(4 111)">
<title>oneDegreeRelationshipsDiagram</title>
<polygon fill="#ffffff" stroke="transparent" points="-4,4 -4,-111 328,-111 328,4 -4,4"/>
<text text-anchor="middle" x="71.5" y="-7.2" font-family="Helvetica,sans-Serif" font-size="11.00">Generated by SchemaSpy</text>
<!-- syst_disallowed_passwords -->
<g id="node1" class="node">
<title>syst_disallowed_passwords</title>
<g id="a_node1"><a xlink:href="../../tables/syst_disallowed_passwords.html" xlink:title="syst_disallowed_passwords" target="_top">
<polygon fill="#ffffff" stroke="transparent" points="8,-37 8,-103 316,-103 316,-37 8,-37"/>
<polygon fill="#f5f5f5" stroke="transparent" points="10,-79 10,-101 314,-101 314,-79 10,-79"/>
<polygon fill="none" stroke="black" points="10,-79 10,-101 314,-101 314,-79 10,-79"/>
<text text-anchor="start" x="15" y="-88.2" font-family="Helvetica,sans-Serif" font-weight="bold" font-size="11.00">syst_disallowed_passwords</text>
<text text-anchor="start" x="279" y="-87.2" font-family="Helvetica,sans-Serif" font-size="11.00">[table]</text>
<polygon fill="none" stroke="black" points="10,-57 10,-79 215,-79 215,-57 10,-57"/>
<image xlink:href="../../images/primaryKeys.png" width="11px" height="12px" preserveAspectRatio="xMinYMin meet" x="15" y="-74"/>
<text text-anchor="start" x="30" y="-65.2" font-family="Helvetica,sans-Serif" font-size="11.00">password_hash</text>
<polygon fill="none" stroke="black" points="215,-57 215,-79 314,-79 314,-57 215,-57"/>
<text text-anchor="start" x="218" y="-65.2" font-family="Helvetica,sans-Serif" font-size="11.00">bytea[2147483647]</text>
<polygon fill="#ffffff" stroke="transparent" points="10,-39 10,-57 117,-57 117,-39 10,-39"/>
<polygon fill="none" stroke="black" points="10,-39 10,-57 117,-57 117,-39 10,-39"/>
<text text-anchor="start" x="13" y="-45.2" font-family="Helvetica,sans-Serif" font-size="11.00">&lt; 0</text>
<polygon fill="#ffffff" stroke="transparent" points="117,-39 117,-57 215,-57 215,-39 117,-39"/>
<polygon fill="none" stroke="black" points="117,-39 117,-57 215,-57 215,-39 117,-39"/>
<text text-anchor="start" x="205" y="-45.2" font-family="Helvetica,sans-Serif" font-size="11.00"> &#160;</text>
<polygon fill="#ffffff" stroke="transparent" points="215,-39 215,-57 314,-57 314,-39 215,-39"/>
<polygon fill="none" stroke="black" points="215,-39 215,-57 314,-57 314,-39 215,-39"/>
<text text-anchor="start" x="295" y="-45.2" font-family="Helvetica,sans-Serif" font-size="11.00">0 &gt;</text>
<polygon fill="none" stroke="black" stroke-width="2" points="9,-38 9,-102 315,-102 315,-38 9,-38"/>
</a>
</g>
</g>
</g>
</svg>
