<?xml version="1.0" encoding="UTF-8" standalone="no"?>
<!DOCTYPE svg PUBLIC "-//W3C//DTD SVG 1.1//EN"
 "http://www.w3.org/Graphics/SVG/1.1/DTD/svg11.dtd">
<!-- Generated by graphviz version 2.43.0 (0)
 -->
<!-- Title: twoDegreesRelationshipsDiagram Pages: 1 -->
<svg width="1631pt" height="846pt"
 viewBox="0.00 0.00 1631.00 846.00" xmlns="http://www.w3.org/2000/svg" xmlns:xlink="http://www.w3.org/1999/xlink">
<g id="graph0" class="graph" transform="scale(1 1) rotate(0) translate(4 842)">
<title>twoDegreesRelationshipsDiagram</title>
<polygon fill="#ffffff" stroke="transparent" points="-4,4 -4,-842 1627,-842 1627,4 -4,4"/>
<text text-anchor="middle" x="71.5" y="-7.2" font-family="Helvetica,sans-Serif" font-size="11.00">Generated by SchemaSpy</text>
<!-- syst_access_accounts -->
<g id="node1" class="node">
<title>syst_access_accounts</title>
<g id="a_node1"><a xlink:href="../../tables/syst_access_accounts.html" xlink:title="syst_access_accounts" target="_top">
<polygon fill="#ffffff" stroke="transparent" points="1040.5,-693 1040.5,-751 1225.5,-751 1225.5,-693 1040.5,-693"/>
<polygon fill="#f5f5f5" stroke="transparent" points="1041,-729 1041,-751 1226,-751 1226,-729 1041,-729"/>
<polygon fill="none" stroke="black" points="1041,-729 1041,-751 1226,-751 1226,-729 1041,-729"/>
<text text-anchor="start" x="1046" y="-738.2" font-family="Helvetica,sans-Serif" font-weight="bold" font-size="11.00">syst_access_accounts</text>
<text text-anchor="start" x="1191" y="-737.2" font-family="Helvetica,sans-Serif" font-size="11.00">[table]</text>
<polygon fill="none" stroke="black" points="1041,-711 1041,-729 1226,-729 1226,-711 1041,-711"/>
<text text-anchor="start" x="1044" y="-717.2" font-family="Helvetica,sans-Serif" font-size="11.00">...</text>
<polygon fill="#ffffff" stroke="transparent" points="1041,-693 1041,-711 1127,-711 1127,-693 1041,-693"/>
<polygon fill="none" stroke="black" points="1041,-693 1041,-711 1127,-711 1127,-693 1041,-693"/>
<text text-anchor="start" x="1044" y="-699.2" font-family="Helvetica,sans-Serif" font-size="11.00">&lt; 2</text>
<polygon fill="#ffffff" stroke="transparent" points="1127,-693 1127,-711 1172,-711 1172,-693 1127,-693"/>
<polygon fill="none" stroke="black" points="1127,-693 1127,-711 1172,-711 1172,-693 1127,-693"/>
<text text-anchor="start" x="1162" y="-699.2" font-family="Helvetica,sans-Serif" font-size="11.00"> &#160;</text>
<polygon fill="#ffffff" stroke="transparent" points="1172,-693 1172,-711 1226,-711 1226,-693 1172,-693"/>
<polygon fill="none" stroke="black" points="1172,-693 1172,-711 1226,-711 1226,-693 1172,-693"/>
<text text-anchor="start" x="1207" y="-699.2" font-family="Helvetica,sans-Serif" font-size="11.00">5 &gt;</text>
</a>
</g>
</g>
<!-- syst_enum_items -->
<g id="node2" class="node">
<title>syst_enum_items</title>
<g id="a_node2"><a xlink:href="../../tables/syst_enum_items.html" xlink:title="syst_enum_items" target="_top">
<polygon fill="#ffffff" stroke="transparent" points="453,-515 453,-683 647,-683 647,-515 453,-515"/>
<polygon fill="#f5f5f5" stroke="transparent" points="453,-661 453,-683 647,-683 647,-661 453,-661"/>
<polygon fill="none" stroke="black" points="453,-661 453,-683 647,-683 647,-661 453,-661"/>
<text text-anchor="start" x="458" y="-670.2" font-family="Helvetica,sans-Serif" font-weight="bold" font-size="11.00">syst_enum_items</text>
<text text-anchor="start" x="612" y="-669.2" font-family="Helvetica,sans-Serif" font-size="11.00">[table]</text>
<polygon fill="none" stroke="black" points="453,-639 453,-661 647,-661 647,-639 453,-639"/>
<image xlink:href="../../images/primaryKeys.png" width="11px" height="12px" preserveAspectRatio="xMinYMin meet" x="458" y="-656"/>
<text text-anchor="start" x="473" y="-647.2" font-family="Helvetica,sans-Serif" font-size="11.00">id</text>
<polygon fill="#ffffff" stroke="transparent" points="453,-617 453,-639 647,-639 647,-617 453,-617"/>
<polygon fill="none" stroke="black" points="453,-617 453,-639 647,-639 647,-617 453,-617"/>
<text text-anchor="start" x="473" y="-625.2" font-family="Helvetica,sans-Serif" font-size="11.00">internal_name</text>
<polygon fill="#ffffff" stroke="transparent" points="453,-595 453,-617 647,-617 647,-595 453,-595"/>
<polygon fill="none" stroke="black" points="453,-595 453,-617 647,-617 647,-595 453,-595"/>
<text text-anchor="start" x="473" y="-603.2" font-family="Helvetica,sans-Serif" font-size="11.00">display_name</text>
<polygon fill="none" stroke="black" points="453,-573 453,-595 647,-595 647,-573 453,-573"/>
<image xlink:href="../../images/foreignKeys.png" width="11px" height="12px" preserveAspectRatio="xMinYMin meet" x="458" y="-590"/>
<text text-anchor="start" x="473" y="-581.2" font-family="Helvetica,sans-Serif" font-size="11.00">enum_id</text>
<polygon fill="none" stroke="black" points="453,-551 453,-573 647,-573 647,-551 453,-551"/>
<image xlink:href="../../images/foreignKeys.png" width="11px" height="12px" preserveAspectRatio="xMinYMin meet" x="458" y="-568"/>
<text text-anchor="start" x="473" y="-559.2" font-family="Helvetica,sans-Serif" font-size="11.00">functional_type_id</text>
<polygon fill="none" stroke="black" points="453,-533 453,-551 647,-551 647,-533 453,-533"/>
<text text-anchor="start" x="456" y="-539.2" font-family="Helvetica,sans-Serif" font-size="11.00">...</text>
<polygon fill="#ffffff" stroke="transparent" points="453,-515 453,-533 540,-533 540,-515 453,-515"/>
<polygon fill="none" stroke="black" points="453,-515 453,-533 540,-533 540,-515 453,-515"/>
<text text-anchor="start" x="456" y="-521.2" font-family="Helvetica,sans-Serif" font-size="11.00">&lt; 2</text>
<polygon fill="#ffffff" stroke="transparent" points="540,-515 540,-533 586,-533 586,-515 540,-515"/>
<polygon fill="none" stroke="black" points="540,-515 540,-533 586,-533 586,-515 540,-515"/>
<text text-anchor="start" x="576" y="-521.2" font-family="Helvetica,sans-Serif" font-size="11.00"> &#160;</text>
<polygon fill="#ffffff" stroke="transparent" points="586,-515 586,-533 647,-533 647,-515 586,-515"/>
<polygon fill="none" stroke="black" points="586,-515 586,-533 647,-533 647,-515 586,-515"/>
<text text-anchor="start" x="622" y="-521.2" font-family="Helvetica,sans-Serif" font-size="11.00">10 &gt;</text>
</a>
</g>
</g>
<!-- syst_access_accounts&#45;&gt;syst_enum_items -->
<g id="edge1" class="edge">
<title>syst_access_accounts:w&#45;&gt;syst_enum_items:e</title>
<path fill="none" stroke="black" d="M1025.65,-717.86C1015.69,-714.54 1009.82,-708.18 995,-705 860.91,-676.25 818.15,-717.21 688,-674 668.32,-667.47 668.73,-650 648,-650"/>
<polygon fill="black" stroke="black" points="1032.09,-718.82 1039.47,-723.56 1036.04,-719.41 1040,-720 1040,-720 1040,-720 1036.04,-719.41 1040.53,-716.44 1032.09,-718.82 1032.09,-718.82"/>
<ellipse fill="none" stroke="black" cx="1028.92" cy="-718.35" rx="3.2" ry="3.2"/>
</g>
<!-- syst_owners -->
<g id="node3" class="node">
<title>syst_owners</title>
<g id="a_node3"><a xlink:href="../../tables/syst_owners.html" xlink:title="syst_owners" target="_top">
<polygon fill="#ffffff" stroke="transparent" points="780.5,-715 780.5,-773 902.5,-773 902.5,-715 780.5,-715"/>
<polygon fill="#f5f5f5" stroke="transparent" points="780.5,-751 780.5,-773 902.5,-773 902.5,-751 780.5,-751"/>
<polygon fill="none" stroke="black" points="780.5,-751 780.5,-773 902.5,-773 902.5,-751 780.5,-751"/>
<text text-anchor="start" x="785.5" y="-760.2" font-family="Helvetica,sans-Serif" font-weight="bold" font-size="11.00">syst_owners</text>
<text text-anchor="start" x="867.5" y="-759.2" font-family="Helvetica,sans-Serif" font-size="11.00">[table]</text>
<polygon fill="none" stroke="black" points="780.5,-733 780.5,-751 902.5,-751 902.5,-733 780.5,-733"/>
<text text-anchor="start" x="783.5" y="-739.2" font-family="Helvetica,sans-Serif" font-size="11.00">...</text>
<polygon fill="#ffffff" stroke="transparent" points="780.5,-715 780.5,-733 834.5,-733 834.5,-715 780.5,-715"/>
<polygon fill="none" stroke="black" points="780.5,-715 780.5,-733 834.5,-733 834.5,-715 780.5,-715"/>
<text text-anchor="start" x="783.5" y="-721.2" font-family="Helvetica,sans-Serif" font-size="11.00">&lt; 1</text>
<polygon fill="#ffffff" stroke="transparent" points="834.5,-715 834.5,-733 863.5,-733 863.5,-715 834.5,-715"/>
<polygon fill="none" stroke="black" points="834.5,-715 834.5,-733 863.5,-733 863.5,-715 834.5,-715"/>
<text text-anchor="start" x="853.5" y="-721.2" font-family="Helvetica,sans-Serif" font-size="11.00"> &#160;</text>
<polygon fill="#ffffff" stroke="transparent" points="863.5,-715 863.5,-733 902.5,-733 902.5,-715 863.5,-715"/>
<polygon fill="none" stroke="black" points="863.5,-715 863.5,-733 902.5,-733 902.5,-715 863.5,-715"/>
<text text-anchor="start" x="883.5" y="-721.2" font-family="Helvetica,sans-Serif" font-size="11.00">4 &gt;</text>
</a>
</g>
</g>
<!-- syst_access_accounts&#45;&gt;syst_owners -->
<g id="edge2" class="edge">
<title>syst_access_accounts:w&#45;&gt;syst_owners:e</title>
<path fill="none" stroke="black" d="M1025.47,-720.44C975.93,-723.54 959.79,-742 903.5,-742"/>
<polygon fill="black" stroke="black" points="1032,-720.24 1040.11,-723.6 1036,-720.12 1040,-720 1040,-720 1040,-720 1036,-720.12 1039.89,-716.4 1032,-720.24 1032,-720.24"/>
<ellipse fill="none" stroke="black" cx="1028.81" cy="-720.34" rx="3.2" ry="3.2"/>
</g>
<!-- syst_enum_functional_types -->
<g id="node6" class="node">
<title>syst_enum_functional_types</title>
<g id="a_node6"><a xlink:href="../../tables/syst_enum_functional_types.html" xlink:title="syst_enum_functional_types" target="_top">
<polygon fill="#ffffff" stroke="transparent" points="175,-518 175,-576 404,-576 404,-518 175,-518"/>
<polygon fill="#f5f5f5" stroke="transparent" points="175.5,-554 175.5,-576 404.5,-576 404.5,-554 175.5,-554"/>
<polygon fill="none" stroke="black" points="175.5,-554 175.5,-576 404.5,-576 404.5,-554 175.5,-554"/>
<text text-anchor="start" x="180.5" y="-563.2" font-family="Helvetica,sans-Serif" font-weight="bold" font-size="11.00">syst_enum_functional_types</text>
<text text-anchor="start" x="369.5" y="-562.2" font-family="Helvetica,sans-Serif" font-size="11.00">[table]</text>
<polygon fill="none" stroke="black" points="175.5,-536 175.5,-554 404.5,-554 404.5,-536 175.5,-536"/>
<text text-anchor="start" x="178.5" y="-542.2" font-family="Helvetica,sans-Serif" font-size="11.00">...</text>
<polygon fill="#ffffff" stroke="transparent" points="175.5,-518 175.5,-536 283.5,-536 283.5,-518 175.5,-518"/>
<polygon fill="none" stroke="black" points="175.5,-518 175.5,-536 283.5,-536 283.5,-518 175.5,-518"/>
<text text-anchor="start" x="178.5" y="-524.2" font-family="Helvetica,sans-Serif" font-size="11.00">&lt; 1</text>
<polygon fill="#ffffff" stroke="transparent" points="283.5,-518 283.5,-536 339.5,-536 339.5,-518 283.5,-518"/>
<polygon fill="none" stroke="black" points="283.5,-518 283.5,-536 339.5,-536 339.5,-518 283.5,-518"/>
<text text-anchor="start" x="329.5" y="-524.2" font-family="Helvetica,sans-Serif" font-size="11.00"> &#160;</text>
<polygon fill="#ffffff" stroke="transparent" points="339.5,-518 339.5,-536 404.5,-536 404.5,-518 339.5,-518"/>
<polygon fill="none" stroke="black" points="339.5,-518 339.5,-536 404.5,-536 404.5,-518 339.5,-518"/>
<text text-anchor="start" x="385.5" y="-524.2" font-family="Helvetica,sans-Serif" font-size="11.00">1 &gt;</text>
</a>
</g>
</g>
<!-- syst_enum_items&#45;&gt;syst_enum_functional_types -->
<g id="edge8" class="edge">
<title>syst_enum_items:w&#45;&gt;syst_enum_functional_types:e</title>
<path fill="none" stroke="black" d="M437.86,-559.04C427.3,-554.17 421.66,-545 405.5,-545"/>
<polygon fill="black" stroke="black" points="444.17,-560.36 451.26,-565.52 448.08,-561.18 452,-562 452,-562 452,-562 448.08,-561.18 452.74,-558.48 444.17,-560.36 444.17,-560.36"/>
<ellipse fill="none" stroke="black" cx="441.04" cy="-559.7" rx="3.2" ry="3.2"/>
</g>
<!-- syst_enums -->
<g id="node7" class="node">
<title>syst_enums</title>
<g id="a_node7"><a xlink:href="../../tables/syst_enums.html" xlink:title="syst_enums" target="_top">
<polygon fill="#ffffff" stroke="transparent" points="8,-545 8,-603 126,-603 126,-545 8,-545"/>
<polygon fill="#f5f5f5" stroke="transparent" points="8,-581 8,-603 126,-603 126,-581 8,-581"/>
<polygon fill="none" stroke="black" points="8,-581 8,-603 126,-603 126,-581 8,-581"/>
<text text-anchor="start" x="13" y="-590.2" font-family="Helvetica,sans-Serif" font-weight="bold" font-size="11.00">syst_enums</text>
<text text-anchor="start" x="91" y="-589.2" font-family="Helvetica,sans-Serif" font-size="11.00">[table]</text>
<polygon fill="none" stroke="black" points="8,-563 8,-581 126,-581 126,-563 8,-563"/>
<text text-anchor="start" x="11" y="-569.2" font-family="Helvetica,sans-Serif" font-size="11.00">...</text>
<polygon fill="#ffffff" stroke="transparent" points="8,-545 8,-563 56,-563 56,-545 8,-545"/>
<polygon fill="none" stroke="black" points="8,-545 8,-563 56,-563 56,-545 8,-545"/>
<text text-anchor="start" x="11" y="-551.2" font-family="Helvetica,sans-Serif" font-size="11.00"> &#160;</text>
<polygon fill="#ffffff" stroke="transparent" points="56,-545 56,-563 86,-563 86,-545 56,-545"/>
<polygon fill="none" stroke="black" points="56,-545 56,-563 86,-563 86,-545 56,-545"/>
<text text-anchor="start" x="76" y="-551.2" font-family="Helvetica,sans-Serif" font-size="11.00"> &#160;</text>
<polygon fill="#ffffff" stroke="transparent" points="86,-545 86,-563 126,-563 126,-545 86,-545"/>
<polygon fill="none" stroke="black" points="86,-545 86,-563 126,-563 126,-545 86,-545"/>
<text text-anchor="start" x="107" y="-551.2" font-family="Helvetica,sans-Serif" font-size="11.00">2 &gt;</text>
</a>
</g>
</g>
<!-- syst_enum_items&#45;&gt;syst_enums -->
<g id="edge7" class="edge">
<title>syst_enum_items:w&#45;&gt;syst_enums:e</title>
<path fill="none" stroke="black" d="M437.57,-584.64C429.73,-585.38 423.83,-586.56 412,-587 303.19,-591.07 274.14,-606.43 167,-587 148.32,-583.61 145.99,-572 127,-572"/>
<polygon fill="black" stroke="black" points="444.01,-584.35 452.16,-587.6 448,-584.18 452,-584 452,-584 452,-584 448,-584.18 451.84,-580.4 444.01,-584.35 444.01,-584.35"/>
<ellipse fill="none" stroke="black" cx="440.81" cy="-584.5" rx="3.2" ry="3.2"/>
</g>
<!-- syst_owners&#45;&gt;syst_enum_items -->
<g id="edge19" class="edge">
<title>syst_owners:w&#45;&gt;syst_enum_items:e</title>
<path fill="none" stroke="black" d="M765.09,-741.44C731.85,-738.63 718.99,-725.23 688,-701 665.3,-683.26 676.81,-650 648,-650"/>
<polygon fill="black" stroke="black" points="771.51,-741.69 779.36,-745.6 775.5,-741.84 779.5,-742 779.5,-742 779.5,-742 775.5,-741.84 779.64,-738.4 771.51,-741.69 771.51,-741.69"/>
<ellipse fill="none" stroke="black" cx="768.31" cy="-741.57" rx="3.2" ry="3.2"/>
</g>
<!-- syst_credentials -->
<g id="node4" class="node">
<title>syst_credentials</title>
<g id="a_node4"><a xlink:href="../../tables/syst_credentials.html" xlink:title="syst_credentials" target="_top">
<polygon fill="#ffffff" stroke="transparent" points="1466,-661 1466,-719 1615,-719 1615,-661 1466,-661"/>
<polygon fill="#f5f5f5" stroke="transparent" points="1466.5,-697 1466.5,-719 1615.5,-719 1615.5,-697 1466.5,-697"/>
<polygon fill="none" stroke="black" points="1466.5,-697 1466.5,-719 1615.5,-719 1615.5,-697 1466.5,-697"/>
<text text-anchor="start" x="1471.5" y="-706.2" font-family="Helvetica,sans-Serif" font-weight="bold" font-size="11.00">syst_credentials</text>
<text text-anchor="start" x="1580.5" y="-705.2" font-family="Helvetica,sans-Serif" font-size="11.00">[table]</text>
<polygon fill="none" stroke="black" points="1466.5,-679 1466.5,-697 1615.5,-697 1615.5,-679 1466.5,-679"/>
<text text-anchor="start" x="1469.5" y="-685.2" font-family="Helvetica,sans-Serif" font-size="11.00">...</text>
<polygon fill="#ffffff" stroke="transparent" points="1466.5,-661 1466.5,-679 1538.5,-679 1538.5,-661 1466.5,-661"/>
<polygon fill="none" stroke="black" points="1466.5,-661 1466.5,-679 1538.5,-679 1538.5,-661 1466.5,-661"/>
<text text-anchor="start" x="1469.5" y="-667.2" font-family="Helvetica,sans-Serif" font-size="11.00">&lt; 3</text>
<polygon fill="#ffffff" stroke="transparent" points="1538.5,-661 1538.5,-679 1576.5,-679 1576.5,-661 1538.5,-661"/>
<polygon fill="none" stroke="black" points="1538.5,-661 1538.5,-679 1576.5,-679 1576.5,-661 1538.5,-661"/>
<text text-anchor="start" x="1566.5" y="-667.2" font-family="Helvetica,sans-Serif" font-size="11.00"> &#160;</text>
<polygon fill="#ffffff" stroke="transparent" points="1576.5,-661 1576.5,-679 1615.5,-679 1615.5,-661 1576.5,-661"/>
<polygon fill="none" stroke="black" points="1576.5,-661 1576.5,-679 1615.5,-679 1615.5,-661 1576.5,-661"/>
<text text-anchor="start" x="1605.5" y="-667.2" font-family="Helvetica,sans-Serif" font-size="11.00"> &#160;</text>
</a>
</g>
</g>
<!-- syst_credentials&#45;&gt;syst_access_accounts -->
<g id="edge3" class="edge">
<title>syst_credentials:w&#45;&gt;syst_access_accounts:e</title>
<path fill="none" stroke="black" d="M1451.89,-692.84C1442.13,-702.16 1443.09,-722.32 1425,-730 1362.01,-756.77 1339.02,-737.63 1271,-730 1251.07,-727.76 1247.05,-720 1227,-720"/>
<polygon fill="black" stroke="black" points="1457.96,-690.68 1466.71,-691.39 1461.73,-689.34 1465.5,-688 1465.5,-688 1465.5,-688 1461.73,-689.34 1464.29,-684.61 1457.96,-690.68 1457.96,-690.68"/>
<ellipse fill="none" stroke="black" cx="1454.95" cy="-691.76" rx="3.2" ry="3.2"/>
</g>
<!-- syst_credentials&#45;&gt;syst_enum_items -->
<g id="edge5" class="edge">
<title>syst_credentials:w&#45;&gt;syst_enum_items:e</title>
<path fill="none" stroke="black" d="M1451.78,-683.21C1442.57,-674.79 1441.85,-657.6 1425,-651 1348.76,-621.11 769.86,-645.95 688,-648 670.21,-648.44 665.8,-650 648,-650"/>
<polygon fill="black" stroke="black" points="1457.95,-685.36 1464.31,-691.4 1461.72,-686.68 1465.5,-688 1465.5,-688 1465.5,-688 1461.72,-686.68 1466.69,-684.6 1457.95,-685.36 1457.95,-685.36"/>
<ellipse fill="none" stroke="black" cx="1454.93" cy="-684.31" rx="3.2" ry="3.2"/>
</g>
<!-- syst_identities -->
<g id="node5" class="node">
<title>syst_identities</title>
<g id="a_node5"><a xlink:href="../../tables/syst_identities.html" xlink:title="syst_identities" target="_top">
<polygon fill="#ffffff" stroke="transparent" points="1279,-661 1279,-719 1417,-719 1417,-661 1279,-661"/>
<polygon fill="#f5f5f5" stroke="transparent" points="1279,-697 1279,-719 1417,-719 1417,-697 1279,-697"/>
<polygon fill="none" stroke="black" points="1279,-697 1279,-719 1417,-719 1417,-697 1279,-697"/>
<text text-anchor="start" x="1284" y="-706.2" font-family="Helvetica,sans-Serif" font-weight="bold" font-size="11.00">syst_identities</text>
<text text-anchor="start" x="1382" y="-705.2" font-family="Helvetica,sans-Serif" font-size="11.00">[table]</text>
<polygon fill="none" stroke="black" points="1279,-679 1279,-697 1417,-697 1417,-679 1279,-679"/>
<text text-anchor="start" x="1282" y="-685.2" font-family="Helvetica,sans-Serif" font-size="11.00">...</text>
<polygon fill="#ffffff" stroke="transparent" points="1279,-661 1279,-679 1341,-679 1341,-661 1279,-661"/>
<polygon fill="none" stroke="black" points="1279,-661 1279,-679 1341,-679 1341,-661 1279,-661"/>
<text text-anchor="start" x="1282" y="-667.2" font-family="Helvetica,sans-Serif" font-size="11.00">&lt; 3</text>
<polygon fill="#ffffff" stroke="transparent" points="1341,-661 1341,-679 1374,-679 1374,-661 1341,-661"/>
<polygon fill="none" stroke="black" points="1341,-661 1341,-679 1374,-679 1374,-661 1341,-661"/>
<text text-anchor="start" x="1364" y="-667.2" font-family="Helvetica,sans-Serif" font-size="11.00"> &#160;</text>
<polygon fill="#ffffff" stroke="transparent" points="1374,-661 1374,-679 1417,-679 1417,-661 1374,-661"/>
<polygon fill="none" stroke="black" points="1374,-661 1374,-679 1417,-679 1417,-661 1374,-661"/>
<text text-anchor="start" x="1398" y="-667.2" font-family="Helvetica,sans-Serif" font-size="11.00">2 &gt;</text>
</a>
</g>
</g>
<!-- syst_credentials&#45;&gt;syst_identities -->
<g id="edge4" class="edge">
<title>syst_credentials:w&#45;&gt;syst_identities:e</title>
<path fill="none" stroke="black" d="M1451.09,-688C1440.32,-688 1433.34,-688 1418,-688"/>
<polygon fill="black" stroke="black" points="1457.5,-688 1465.5,-691.6 1461.5,-688 1465.5,-688 1465.5,-688 1465.5,-688 1461.5,-688 1465.5,-684.4 1457.5,-688 1457.5,-688"/>
<ellipse fill="none" stroke="black" cx="1454.3" cy="-688" rx="3.2" ry="3.2"/>
</g>
<!-- syst_identities&#45;&gt;syst_access_accounts -->
<g id="edge12" class="edge">
<title>syst_identities:w&#45;&gt;syst_access_accounts:e</title>
<path fill="none" stroke="black" d="M1264.03,-691.92C1250.94,-700.47 1247.91,-720 1227,-720"/>
<polygon fill="black" stroke="black" points="1270.3,-690.16 1278.97,-691.47 1274.15,-689.08 1278,-688 1278,-688 1278,-688 1274.15,-689.08 1277.03,-684.53 1270.3,-690.16 1270.3,-690.16"/>
<ellipse fill="none" stroke="black" cx="1267.22" cy="-691.03" rx="3.2" ry="3.2"/>
</g>
<!-- syst_identities&#45;&gt;syst_enum_items -->
<g id="edge13" class="edge">
<title>syst_identities:w&#45;&gt;syst_enum_items:e</title>
<path fill="none" stroke="black" d="M1263.54,-687.05C1255.7,-685.92 1249.85,-684.07 1238,-683 976.43,-659.37 910.63,-650 648,-650"/>
<polygon fill="black" stroke="black" points="1270.02,-687.47 1277.76,-691.59 1274.01,-687.74 1278,-688 1278,-688 1278,-688 1274.01,-687.74 1278.24,-684.41 1270.02,-687.47 1270.02,-687.47"/>
<ellipse fill="none" stroke="black" cx="1266.82" cy="-687.26" rx="3.2" ry="3.2"/>
</g>
<!-- syst_enum_functional_types&#45;&gt;syst_enums -->
<g id="edge6" class="edge">
<title>syst_enum_functional_types:w&#45;&gt;syst_enums:e</title>
<path fill="none" stroke="black" d="M160.6,-548.98C149.25,-556.49 145.4,-572 127,-572"/>
<polygon fill="black" stroke="black" points="166.81,-547.2 175.49,-548.46 170.65,-546.1 174.5,-545 174.5,-545 174.5,-545 170.65,-546.1 173.51,-541.54 166.81,-547.2 166.81,-547.2"/>
<ellipse fill="none" stroke="black" cx="163.73" cy="-548.09" rx="3.2" ry="3.2"/>
</g>
<!-- syst_hierarchies -->
<g id="node8" class="node">
<title>syst_hierarchies</title>
<g id="a_node8"><a xlink:href="../../tables/syst_hierarchies.html" xlink:title="syst_hierarchies" target="_top">
<polygon fill="#ffffff" stroke="transparent" points="696,-195 696,-613 987,-613 987,-195 696,-195"/>
<polygon fill="#f5f5f5" stroke="transparent" points="698.5,-589 698.5,-611 985.5,-611 985.5,-589 698.5,-589"/>
<polygon fill="none" stroke="black" points="698.5,-589 698.5,-611 985.5,-611 985.5,-589 698.5,-589"/>
<text text-anchor="start" x="703.5" y="-598.2" font-family="Helvetica,sans-Serif" font-weight="bold" font-size="11.00">syst_hierarchies</text>
<text text-anchor="start" x="950.5" y="-597.2" font-family="Helvetica,sans-Serif" font-size="11.00">[table]</text>
<polygon fill="none" stroke="black" points="698.5,-567 698.5,-589 892.5,-589 892.5,-567 698.5,-567"/>
<image xlink:href="../../images/primaryKeys.png" width="11px" height="12px" preserveAspectRatio="xMinYMin meet" x="703.5" y="-584"/>
<text text-anchor="start" x="718.5" y="-575.2" font-family="Helvetica,sans-Serif" font-size="11.00">id</text>
<polygon fill="none" stroke="black" points="892.5,-567 892.5,-589 985.5,-589 985.5,-567 892.5,-567"/>
<text text-anchor="start" x="895.5" y="-575.2" font-family="Helvetica,sans-Serif" font-size="11.00">uuid[2147483647]</text>
<polygon fill="#ffffff" stroke="transparent" points="698.5,-545 698.5,-567 892.5,-567 892.5,-545 698.5,-545"/>
<polygon fill="none" stroke="black" points="698.5,-545 698.5,-567 892.5,-567 892.5,-545 698.5,-545"/>
<text text-anchor="start" x="718.5" y="-553.2" font-family="Helvetica,sans-Serif" font-size="11.00">internal_name</text>
<polygon fill="none" stroke="black" points="892.5,-545 892.5,-567 985.5,-567 985.5,-545 892.5,-545"/>
<text text-anchor="start" x="895.5" y="-553.2" font-family="Helvetica,sans-Serif" font-size="11.00">text[2147483647]</text>
<polygon fill="#ffffff" stroke="transparent" points="698.5,-523 698.5,-545 892.5,-545 892.5,-523 698.5,-523"/>
<polygon fill="none" stroke="black" points="698.5,-523 698.5,-545 892.5,-545 892.5,-523 698.5,-523"/>
<text text-anchor="start" x="718.5" y="-531.2" font-family="Helvetica,sans-Serif" font-size="11.00">display_name</text>
<polygon fill="none" stroke="black" points="892.5,-523 892.5,-545 985.5,-545 985.5,-523 892.5,-523"/>
<text text-anchor="start" x="895.5" y="-531.2" font-family="Helvetica,sans-Serif" font-size="11.00">text[2147483647]</text>
<polygon fill="none" stroke="black" points="698.5,-501 698.5,-523 892.5,-523 892.5,-501 698.5,-501"/>
<image xlink:href="../../images/foreignKeys.png" width="11px" height="12px" preserveAspectRatio="xMinYMin meet" x="703.5" y="-518"/>
<text text-anchor="start" x="718.5" y="-509.2" font-family="Helvetica,sans-Serif" font-size="11.00">hierarchy_type_id</text>
<polygon fill="none" stroke="black" points="892.5,-501 892.5,-523 985.5,-523 985.5,-501 892.5,-501"/>
<text text-anchor="start" x="895.5" y="-509.2" font-family="Helvetica,sans-Serif" font-size="11.00">uuid[2147483647]</text>
<polygon fill="none" stroke="black" points="698.5,-479 698.5,-501 892.5,-501 892.5,-479 698.5,-479"/>
<image xlink:href="../../images/foreignKeys.png" width="11px" height="12px" preserveAspectRatio="xMinYMin meet" x="703.5" y="-496"/>
<text text-anchor="start" x="718.5" y="-487.2" font-family="Helvetica,sans-Serif" font-size="11.00">hierarchy_state_id</text>
<polygon fill="none" stroke="black" points="892.5,-479 892.5,-501 985.5,-501 985.5,-479 892.5,-479"/>
<text text-anchor="start" x="895.5" y="-487.2" font-family="Helvetica,sans-Serif" font-size="11.00">uuid[2147483647]</text>
<polygon fill="none" stroke="black" points="698.5,-457 698.5,-479 892.5,-479 892.5,-457 698.5,-457"/>
<text text-anchor="start" x="718.5" y="-465.2" font-family="Helvetica,sans-Serif" font-size="11.00">syst_defined</text>
<polygon fill="none" stroke="black" points="892.5,-457 892.5,-479 985.5,-479 985.5,-457 892.5,-457"/>
<text text-anchor="start" x="895.5" y="-465.2" font-family="Helvetica,sans-Serif" font-size="11.00">bool[1]</text>
<polygon fill="none" stroke="black" points="698.5,-435 698.5,-457 892.5,-457 892.5,-435 698.5,-435"/>
<text text-anchor="start" x="718.5" y="-443.2" font-family="Helvetica,sans-Serif" font-size="11.00">user_maintainable</text>
<polygon fill="none" stroke="black" points="892.5,-435 892.5,-457 985.5,-457 985.5,-435 892.5,-435"/>
<text text-anchor="start" x="895.5" y="-443.2" font-family="Helvetica,sans-Serif" font-size="11.00">bool[1]</text>
<polygon fill="none" stroke="black" points="698.5,-413 698.5,-435 892.5,-435 892.5,-413 698.5,-413"/>
<text text-anchor="start" x="718.5" y="-421.2" font-family="Helvetica,sans-Serif" font-size="11.00">structured</text>
<polygon fill="none" stroke="black" points="892.5,-413 892.5,-435 985.5,-435 985.5,-413 892.5,-413"/>
<text text-anchor="start" x="895.5" y="-421.2" font-family="Helvetica,sans-Serif" font-size="11.00">bool[1]</text>
<polygon fill="none" stroke="black" points="698.5,-391 698.5,-413 892.5,-413 892.5,-391 698.5,-391"/>
<text text-anchor="start" x="718.5" y="-399.2" font-family="Helvetica,sans-Serif" font-size="11.00">syst_description</text>
<polygon fill="none" stroke="black" points="892.5,-391 892.5,-413 985.5,-413 985.5,-391 892.5,-391"/>
<text text-anchor="start" x="895.5" y="-399.2" font-family="Helvetica,sans-Serif" font-size="11.00">text[2147483647]</text>
<polygon fill="none" stroke="black" points="698.5,-369 698.5,-391 892.5,-391 892.5,-369 698.5,-369"/>
<text text-anchor="start" x="718.5" y="-377.2" font-family="Helvetica,sans-Serif" font-size="11.00">user_description</text>
<polygon fill="none" stroke="black" points="892.5,-369 892.5,-391 985.5,-391 985.5,-369 892.5,-369"/>
<text text-anchor="start" x="895.5" y="-377.2" font-family="Helvetica,sans-Serif" font-size="11.00">text[2147483647]</text>
<polygon fill="none" stroke="black" points="698.5,-347 698.5,-369 892.5,-369 892.5,-347 698.5,-347"/>
<text text-anchor="start" x="718.5" y="-355.2" font-family="Helvetica,sans-Serif" font-size="11.00">diag_timestamp_created</text>
<polygon fill="none" stroke="black" points="892.5,-347 892.5,-369 985.5,-369 985.5,-347 892.5,-347"/>
<text text-anchor="start" x="895.5" y="-355.2" font-family="Helvetica,sans-Serif" font-size="11.00">timestamptz[35,6]</text>
<polygon fill="none" stroke="black" points="698.5,-325 698.5,-347 892.5,-347 892.5,-325 698.5,-325"/>
<text text-anchor="start" x="718.5" y="-333.2" font-family="Helvetica,sans-Serif" font-size="11.00">diag_role_created</text>
<polygon fill="none" stroke="black" points="892.5,-325 892.5,-347 985.5,-347 985.5,-325 892.5,-325"/>
<text text-anchor="start" x="895.5" y="-333.2" font-family="Helvetica,sans-Serif" font-size="11.00">text[2147483647]</text>
<polygon fill="none" stroke="black" points="698.5,-303 698.5,-325 892.5,-325 892.5,-303 698.5,-303"/>
<text text-anchor="start" x="718.5" y="-311.2" font-family="Helvetica,sans-Serif" font-size="11.00">diag_timestamp_modified</text>
<polygon fill="none" stroke="black" points="892.5,-303 892.5,-325 985.5,-325 985.5,-303 892.5,-303"/>
<text text-anchor="start" x="895.5" y="-311.2" font-family="Helvetica,sans-Serif" font-size="11.00">timestamptz[35,6]</text>
<polygon fill="none" stroke="black" points="698.5,-281 698.5,-303 892.5,-303 892.5,-281 698.5,-281"/>
<text text-anchor="start" x="718.5" y="-289.2" font-family="Helvetica,sans-Serif" font-size="11.00">diag_wallclock_modified</text>
<polygon fill="none" stroke="black" points="892.5,-281 892.5,-303 985.5,-303 985.5,-281 892.5,-281"/>
<text text-anchor="start" x="895.5" y="-289.2" font-family="Helvetica,sans-Serif" font-size="11.00">timestamptz[35,6]</text>
<polygon fill="none" stroke="black" points="698.5,-259 698.5,-281 892.5,-281 892.5,-259 698.5,-259"/>
<text text-anchor="start" x="718.5" y="-267.2" font-family="Helvetica,sans-Serif" font-size="11.00">diag_role_modified</text>
<polygon fill="none" stroke="black" points="892.5,-259 892.5,-281 985.5,-281 985.5,-259 892.5,-259"/>
<text text-anchor="start" x="895.5" y="-267.2" font-family="Helvetica,sans-Serif" font-size="11.00">text[2147483647]</text>
<polygon fill="none" stroke="black" points="698.5,-237 698.5,-259 892.5,-259 892.5,-237 698.5,-237"/>
<text text-anchor="start" x="718.5" y="-245.2" font-family="Helvetica,sans-Serif" font-size="11.00">diag_row_version</text>
<polygon fill="none" stroke="black" points="892.5,-237 892.5,-259 985.5,-259 985.5,-237 892.5,-237"/>
<text text-anchor="start" x="895.5" y="-245.2" font-family="Helvetica,sans-Serif" font-size="11.00">int8[19]</text>
<polygon fill="none" stroke="black" points="698.5,-215 698.5,-237 892.5,-237 892.5,-215 698.5,-215"/>
<text text-anchor="start" x="718.5" y="-223.2" font-family="Helvetica,sans-Serif" font-size="11.00">diag_update_count</text>
<polygon fill="none" stroke="black" points="892.5,-215 892.5,-237 985.5,-237 985.5,-215 892.5,-215"/>
<text text-anchor="start" x="895.5" y="-223.2" font-family="Helvetica,sans-Serif" font-size="11.00">int8[19]</text>
<polygon fill="#ffffff" stroke="transparent" points="698.5,-197 698.5,-215 799.5,-215 799.5,-197 698.5,-197"/>
<polygon fill="none" stroke="black" points="698.5,-197 698.5,-215 799.5,-215 799.5,-197 698.5,-197"/>
<text text-anchor="start" x="701.5" y="-203.2" font-family="Helvetica,sans-Serif" font-size="11.00">&lt; 2</text>
<polygon fill="#ffffff" stroke="transparent" points="799.5,-197 799.5,-215 892.5,-215 892.5,-197 799.5,-197"/>
<polygon fill="none" stroke="black" points="799.5,-197 799.5,-215 892.5,-215 892.5,-197 799.5,-197"/>
<text text-anchor="start" x="882.5" y="-203.2" font-family="Helvetica,sans-Serif" font-size="11.00"> &#160;</text>
<polygon fill="#ffffff" stroke="transparent" points="892.5,-197 892.5,-215 985.5,-215 985.5,-197 892.5,-197"/>
<polygon fill="none" stroke="black" points="892.5,-197 892.5,-215 985.5,-215 985.5,-197 892.5,-197"/>
<text text-anchor="start" x="966.5" y="-203.2" font-family="Helvetica,sans-Serif" font-size="11.00">1 &gt;</text>
<polygon fill="none" stroke="black" stroke-width="2" points="697,-196 697,-612 986,-612 986,-196 697,-196"/>
</a>
</g>
</g>
<!-- syst_hierarchies&#45;&gt;syst_enum_items -->
<g id="edge9" class="edge">
<title>syst_hierarchies:w&#45;&gt;syst_enum_items:e</title>
<path fill="none" stroke="black" d="M683.07,-492.78C637.53,-514.02 716.62,-650 648,-650"/>
<polygon fill="black" stroke="black" points="689.64,-491.51 698.18,-493.54 693.57,-490.76 697.5,-490 697.5,-490 697.5,-490 693.57,-490.76 696.82,-486.46 689.64,-491.51 689.64,-491.51"/>
<ellipse fill="none" stroke="black" cx="686.5" cy="-492.12" rx="3.2" ry="3.2"/>
</g>
<!-- syst_hierarchies&#45;&gt;syst_enum_items -->
<g id="edge10" class="edge">
<title>syst_hierarchies:w&#45;&gt;syst_enum_items:e</title>
<path fill="none" stroke="black" d="M683.26,-515.14C645.68,-535.68 707.31,-650 648,-650"/>
<polygon fill="black" stroke="black" points="689.69,-513.72 698.28,-515.52 693.59,-512.86 697.5,-512 697.5,-512 697.5,-512 693.59,-512.86 696.72,-508.48 689.69,-513.72 689.69,-513.72"/>
<ellipse fill="none" stroke="black" cx="686.56" cy="-514.41" rx="3.2" ry="3.2"/>
</g>
<!-- syst_hierarchy_items -->
<g id="node9" class="node">
<title>syst_hierarchy_items</title>
<g id="a_node9"><a xlink:href="../../tables/syst_hierarchy_items.html" xlink:title="syst_hierarchy_items" target="_top">
<polygon fill="#ffffff" stroke="transparent" points="1036,-445 1036,-613 1230,-613 1230,-445 1036,-445"/>
<polygon fill="#f5f5f5" stroke="transparent" points="1036,-591 1036,-613 1230,-613 1230,-591 1036,-591"/>
<polygon fill="none" stroke="black" points="1036,-591 1036,-613 1230,-613 1230,-591 1036,-591"/>
<text text-anchor="start" x="1041" y="-600.2" font-family="Helvetica,sans-Serif" font-weight="bold" font-size="11.00">syst_hierarchy_items</text>
<text text-anchor="start" x="1195" y="-599.2" font-family="Helvetica,sans-Serif" font-size="11.00">[table]</text>
<polygon fill="none" stroke="black" points="1036,-569 1036,-591 1230,-591 1230,-569 1036,-569"/>
<image xlink:href="../../images/primaryKeys.png" width="11px" height="12px" preserveAspectRatio="xMinYMin meet" x="1041" y="-586"/>
<text text-anchor="start" x="1056" y="-577.2" font-family="Helvetica,sans-Serif" font-size="11.00">id</text>
<polygon fill="#ffffff" stroke="transparent" points="1036,-547 1036,-569 1230,-569 1230,-547 1036,-547"/>
<polygon fill="none" stroke="black" points="1036,-547 1036,-569 1230,-569 1230,-547 1036,-547"/>
<text text-anchor="start" x="1056" y="-555.2" font-family="Helvetica,sans-Serif" font-size="11.00">internal_name</text>
<polygon fill="#ffffff" stroke="transparent" points="1036,-525 1036,-547 1230,-547 1230,-525 1036,-525"/>
<polygon fill="none" stroke="black" points="1036,-525 1036,-547 1230,-547 1230,-525 1036,-525"/>
<text text-anchor="start" x="1056" y="-533.2" font-family="Helvetica,sans-Serif" font-size="11.00">display_name</text>
<polygon fill="#ffffff" stroke="transparent" points="1036,-503 1036,-525 1230,-525 1230,-503 1036,-503"/>
<polygon fill="none" stroke="black" points="1036,-503 1036,-525 1230,-525 1230,-503 1036,-503"/>
<image xlink:href="../../images/foreignKeys.png" width="11px" height="12px" preserveAspectRatio="xMinYMin meet" x="1041" y="-520"/>
<text text-anchor="start" x="1056" y="-511.2" font-family="Helvetica,sans-Serif" font-size="11.00">hierarchy_id</text>
<polygon fill="#ffffff" stroke="transparent" points="1036,-481 1036,-503 1230,-503 1230,-481 1036,-481"/>
<polygon fill="none" stroke="black" points="1036,-481 1036,-503 1230,-503 1230,-481 1036,-481"/>
<text text-anchor="start" x="1056" y="-489.2" font-family="Helvetica,sans-Serif" font-size="11.00">hierarchy_depth</text>
<polygon fill="none" stroke="black" points="1036,-463 1036,-481 1230,-481 1230,-463 1036,-463"/>
<text text-anchor="start" x="1039" y="-469.2" font-family="Helvetica,sans-Serif" font-size="11.00">...</text>
<polygon fill="#ffffff" stroke="transparent" points="1036,-445 1036,-463 1131,-463 1131,-445 1036,-445"/>
<polygon fill="none" stroke="black" points="1036,-445 1036,-463 1131,-463 1131,-445 1036,-445"/>
<text text-anchor="start" x="1039" y="-451.2" font-family="Helvetica,sans-Serif" font-size="11.00">&lt; 1</text>
<polygon fill="#ffffff" stroke="transparent" points="1131,-445 1131,-463 1180,-463 1180,-445 1131,-445"/>
<polygon fill="none" stroke="black" points="1131,-445 1131,-463 1180,-463 1180,-445 1131,-445"/>
<text text-anchor="start" x="1170" y="-451.2" font-family="Helvetica,sans-Serif" font-size="11.00"> &#160;</text>
<polygon fill="#ffffff" stroke="transparent" points="1180,-445 1180,-463 1230,-463 1230,-445 1180,-445"/>
<polygon fill="none" stroke="black" points="1180,-445 1180,-463 1230,-463 1230,-445 1180,-445"/>
<text text-anchor="start" x="1220" y="-451.2" font-family="Helvetica,sans-Serif" font-size="11.00"> &#160;</text>
</a>
</g>
</g>
<!-- syst_hierarchy_items&#45;&gt;syst_hierarchies -->
<g id="edge11" class="edge">
<title>syst_hierarchy_items:w&#45;&gt;syst_hierarchies:e</title>
<path fill="none" stroke="black" d="M1021.19,-519.02C1005.45,-534.11 1016.06,-578 986.5,-578"/>
<polygon fill="black" stroke="black" points="1027.48,-516.73 1036.23,-517.38 1031.24,-515.37 1035,-514 1035,-514 1035,-514 1031.24,-515.37 1033.77,-510.62 1027.48,-516.73 1027.48,-516.73"/>
<ellipse fill="none" stroke="black" cx="1024.47" cy="-517.83" rx="3.2" ry="3.2"/>
</g>
<!-- syst_instance_type_applications -->
<g id="node10" class="node">
<title>syst_instance_type_applications</title>
<g id="a_node10"><a xlink:href="../../tables/syst_instance_type_applications.html" xlink:title="syst_instance_type_applications" target="_top">
<polygon fill="#ffffff" stroke="transparent" points="713.5,-116 713.5,-174 969.5,-174 969.5,-116 713.5,-116"/>
<polygon fill="#f5f5f5" stroke="transparent" points="713.5,-152 713.5,-174 969.5,-174 969.5,-152 713.5,-152"/>
<polygon fill="none" stroke="black" points="713.5,-152 713.5,-174 969.5,-174 969.5,-152 713.5,-152"/>
<text text-anchor="start" x="718.5" y="-161.2" font-family="Helvetica,sans-Serif" font-weight="bold" font-size="11.00">syst_instance_type_applications</text>
<text text-anchor="start" x="934.5" y="-160.2" font-family="Helvetica,sans-Serif" font-size="11.00">[table]</text>
<polygon fill="none" stroke="black" points="713.5,-134 713.5,-152 969.5,-152 969.5,-134 713.5,-134"/>
<text text-anchor="start" x="716.5" y="-140.2" font-family="Helvetica,sans-Serif" font-size="11.00">...</text>
<polygon fill="#ffffff" stroke="transparent" points="713.5,-116 713.5,-134 834.5,-134 834.5,-116 713.5,-116"/>
<polygon fill="none" stroke="black" points="713.5,-116 713.5,-134 834.5,-134 834.5,-116 713.5,-116"/>
<text text-anchor="start" x="716.5" y="-122.2" font-family="Helvetica,sans-Serif" font-size="11.00">&lt; 2</text>
<polygon fill="#ffffff" stroke="transparent" points="834.5,-116 834.5,-134 897.5,-134 897.5,-116 834.5,-116"/>
<polygon fill="none" stroke="black" points="834.5,-116 834.5,-134 897.5,-134 897.5,-116 834.5,-116"/>
<text text-anchor="start" x="887.5" y="-122.2" font-family="Helvetica,sans-Serif" font-size="11.00"> &#160;</text>
<polygon fill="#ffffff" stroke="transparent" points="897.5,-116 897.5,-134 969.5,-134 969.5,-116 897.5,-116"/>
<polygon fill="none" stroke="black" points="897.5,-116 897.5,-134 969.5,-134 969.5,-116 897.5,-116"/>
<text text-anchor="start" x="950.5" y="-122.2" font-family="Helvetica,sans-Serif" font-size="11.00">1 &gt;</text>
</a>
</g>
</g>
<!-- syst_instance_type_applications&#45;&gt;syst_enum_items -->
<g id="edge14" class="edge">
<title>syst_instance_type_applications:w&#45;&gt;syst_enum_items:e</title>
<path fill="none" stroke="black" d="M699,-148.08C692.15,-155.64 692.59,-170.52 688,-185 672.33,-234.43 699.86,-650 648,-650"/>
<polygon fill="black" stroke="black" points="705.01,-145.82 713.77,-146.37 708.76,-144.41 712.5,-143 712.5,-143 712.5,-143 708.76,-144.41 711.23,-139.63 705.01,-145.82 705.01,-145.82"/>
<ellipse fill="none" stroke="black" cx="702.02" cy="-146.94" rx="3.2" ry="3.2"/>
</g>
<!-- syst_instances -->
<g id="node11" class="node">
<title>syst_instances</title>
<g id="a_node11"><a xlink:href="../../tables/syst_instances.html" xlink:title="syst_instances" target="_top">
<polygon fill="#ffffff" stroke="transparent" points="1064,-776 1064,-834 1202,-834 1202,-776 1064,-776"/>
<polygon fill="#f5f5f5" stroke="transparent" points="1064,-812 1064,-834 1202,-834 1202,-812 1064,-812"/>
<polygon fill="none" stroke="black" points="1064,-812 1064,-834 1202,-834 1202,-812 1064,-812"/>
<text text-anchor="start" x="1069" y="-821.2" font-family="Helvetica,sans-Serif" font-weight="bold" font-size="11.00">syst_instances</text>
<text text-anchor="start" x="1167" y="-820.2" font-family="Helvetica,sans-Serif" font-size="11.00">[table]</text>
<polygon fill="none" stroke="black" points="1064,-794 1064,-812 1202,-812 1202,-794 1064,-794"/>
<text text-anchor="start" x="1067" y="-800.2" font-family="Helvetica,sans-Serif" font-size="11.00">...</text>
<polygon fill="#ffffff" stroke="transparent" points="1064,-776 1064,-794 1126,-794 1126,-776 1064,-776"/>
<polygon fill="none" stroke="black" points="1064,-776 1064,-794 1126,-794 1126,-776 1064,-776"/>
<text text-anchor="start" x="1067" y="-782.2" font-family="Helvetica,sans-Serif" font-size="11.00">&lt; 5</text>
<polygon fill="#ffffff" stroke="transparent" points="1126,-776 1126,-794 1159,-794 1159,-776 1126,-776"/>
<polygon fill="none" stroke="black" points="1126,-776 1126,-794 1159,-794 1159,-776 1126,-776"/>
<text text-anchor="start" x="1149" y="-782.2" font-family="Helvetica,sans-Serif" font-size="11.00"> &#160;</text>
<polygon fill="#ffffff" stroke="transparent" points="1159,-776 1159,-794 1202,-794 1202,-776 1159,-776"/>
<polygon fill="none" stroke="black" points="1159,-776 1159,-794 1202,-794 1202,-776 1159,-776"/>
<text text-anchor="start" x="1183" y="-782.2" font-family="Helvetica,sans-Serif" font-size="11.00">4 &gt;</text>
</a>
</g>
</g>
<!-- syst_instances&#45;&gt;syst_enum_items -->
<g id="edge15" class="edge">
<title>syst_instances:w&#45;&gt;syst_enum_items:e</title>
<path fill="none" stroke="black" d="M1048.56,-803.21C891.57,-807.76 815.41,-884.04 688,-784 639.12,-745.62 710.15,-650 648,-650"/>
<polygon fill="black" stroke="black" points="1055,-803.12 1063.05,-806.6 1059,-803.06 1063,-803 1063,-803 1063,-803 1059,-803.06 1062.95,-799.4 1055,-803.12 1055,-803.12"/>
<ellipse fill="none" stroke="black" cx="1051.8" cy="-803.16" rx="3.2" ry="3.2"/>
</g>
<!-- syst_instances&#45;&gt;syst_enum_items -->
<g id="edge16" class="edge">
<title>syst_instances:w&#45;&gt;syst_enum_items:e</title>
<path fill="none" stroke="black" d="M1048.55,-803.2C891.47,-807.55 815.37,-880.24 688,-780 640.5,-742.61 708.45,-650 648,-650"/>
<polygon fill="black" stroke="black" points="1055,-803.11 1063.05,-806.6 1059,-803.06 1063,-803 1063,-803 1063,-803 1059,-803.06 1062.95,-799.4 1055,-803.11 1055,-803.11"/>
<ellipse fill="none" stroke="black" cx="1051.8" cy="-803.16" rx="3.2" ry="3.2"/>
</g>
<!-- syst_instances&#45;&gt;syst_owners -->
<g id="edge17" class="edge">
<title>syst_instances:w&#45;&gt;syst_owners:e</title>
<path fill="none" stroke="black" d="M1048.35,-802.18C985.73,-794.95 974.21,-742 903.5,-742"/>
<polygon fill="black" stroke="black" points="1055.01,-802.56 1062.8,-806.59 1059.01,-802.78 1063,-803 1063,-803 1063,-803 1059.01,-802.78 1063.2,-799.41 1055.01,-802.56 1055.01,-802.56"/>
<ellipse fill="none" stroke="black" cx="1051.82" cy="-802.38" rx="3.2" ry="3.2"/>
</g>
<!-- syst_menus -->
<g id="node12" class="node">
<title>syst_menus</title>
<g id="a_node12"><a xlink:href="../../tables/syst_menus.html" xlink:title="syst_menus" target="_top">
<polygon fill="#ffffff" stroke="transparent" points="782.5,-37 782.5,-95 900.5,-95 900.5,-37 782.5,-37"/>
<polygon fill="#f5f5f5" stroke="transparent" points="782.5,-73 782.5,-95 900.5,-95 900.5,-73 782.5,-73"/>
<polygon fill="none" stroke="black" points="782.5,-73 782.5,-95 900.5,-95 900.5,-73 782.5,-73"/>
<text text-anchor="start" x="787.5" y="-82.2" font-family="Helvetica,sans-Serif" font-weight="bold" font-size="11.00">syst_menus</text>
<text text-anchor="start" x="865.5" y="-81.2" font-family="Helvetica,sans-Serif" font-size="11.00">[table]</text>
<polygon fill="none" stroke="black" points="782.5,-55 782.5,-73 900.5,-73 900.5,-55 782.5,-55"/>
<text text-anchor="start" x="785.5" y="-61.2" font-family="Helvetica,sans-Serif" font-size="11.00">...</text>
<polygon fill="#ffffff" stroke="transparent" points="782.5,-37 782.5,-55 834.5,-55 834.5,-37 782.5,-37"/>
<polygon fill="none" stroke="black" points="782.5,-37 782.5,-55 834.5,-55 834.5,-37 782.5,-37"/>
<text text-anchor="start" x="785.5" y="-43.2" font-family="Helvetica,sans-Serif" font-size="11.00">&lt; 1</text>
<polygon fill="#ffffff" stroke="transparent" points="834.5,-37 834.5,-55 862.5,-55 862.5,-37 834.5,-37"/>
<polygon fill="none" stroke="black" points="834.5,-37 834.5,-55 862.5,-55 862.5,-37 834.5,-37"/>
<text text-anchor="start" x="852.5" y="-43.2" font-family="Helvetica,sans-Serif" font-size="11.00"> &#160;</text>
<polygon fill="#ffffff" stroke="transparent" points="862.5,-37 862.5,-55 900.5,-55 900.5,-37 862.5,-37"/>
<polygon fill="none" stroke="black" points="862.5,-37 862.5,-55 900.5,-55 900.5,-37 862.5,-37"/>
<text text-anchor="start" x="881.5" y="-43.2" font-family="Helvetica,sans-Serif" font-size="11.00">2 &gt;</text>
</a>
</g>
</g>
<!-- syst_menus&#45;&gt;syst_enum_items -->
<g id="edge18" class="edge">
<title>syst_menus:w&#45;&gt;syst_enum_items:e</title>
<path fill="none" stroke="black" d="M766.89,-64.22C730.95,-65.48 711.17,-72.91 688,-106 653.23,-155.64 708.61,-650 648,-650"/>
<polygon fill="black" stroke="black" points="773.5,-64.12 781.55,-67.6 777.5,-64.06 781.5,-64 781.5,-64 781.5,-64 777.5,-64.06 781.45,-60.4 773.5,-64.12 773.5,-64.12"/>
<ellipse fill="none" stroke="black" cx="770.3" cy="-64.17" rx="3.2" ry="3.2"/>
</g>
</g>
</svg>
