<?xml version="1.0" encoding="UTF-8" standalone="no"?>
<!DOCTYPE svg PUBLIC "-//W3C//DTD SVG 1.1//EN"
 "http://www.w3.org/Graphics/SVG/1.1/DTD/svg11.dtd">
<!-- Generated by graphviz version 2.43.0 (0)
 -->
<!-- Title: twoDegreesRelationshipsDiagram Pages: 1 -->
<svg width="1244pt" height="892pt"
 viewBox="0.00 0.00 1244.00 892.12" xmlns="http://www.w3.org/2000/svg" xmlns:xlink="http://www.w3.org/1999/xlink">
<g id="graph0" class="graph" transform="scale(1 1) rotate(0) translate(4 888.12)">
<title>twoDegreesRelationshipsDiagram</title>
<polygon fill="#ffffff" stroke="transparent" points="-4,4 -4,-888.12 1240,-888.12 1240,4 -4,4"/>
<text text-anchor="middle" x="71.5" y="-7.2" font-family="Helvetica,sans-Serif" font-size="11.00">Generated by SchemaSpy</text>
<!-- syst_access_account_instance_assocs -->
<g id="node1" class="node">
<title>syst_access_account_instance_assocs</title>
<g id="a_node1"><a xlink:href="../../tables/syst_access_account_instance_assocs.html" xlink:title="syst_access_account_instance_assocs" target="_top">
<polygon fill="#ffffff" stroke="transparent" points="660,-264.12 660,-616.12 1030,-616.12 1030,-264.12 660,-264.12"/>
<polygon fill="#f5f5f5" stroke="transparent" points="662,-592.12 662,-614.12 1028,-614.12 1028,-592.12 662,-592.12"/>
<polygon fill="none" stroke="black" points="662,-592.12 662,-614.12 1028,-614.12 1028,-592.12 662,-592.12"/>
<text text-anchor="start" x="667" y="-601.32" font-family="Helvetica,sans-Serif" font-weight="bold" font-size="11.00">syst_access_account_instance_assocs</text>
<text text-anchor="start" x="993" y="-600.32" font-family="Helvetica,sans-Serif" font-size="11.00">[table]</text>
<polygon fill="none" stroke="black" points="662,-570.12 662,-592.12 935,-592.12 935,-570.12 662,-570.12"/>
<image xlink:href="../../images/primaryKeys.png" width="11px" height="12px" preserveAspectRatio="xMinYMin meet" x="667" y="-587.12"/>
<text text-anchor="start" x="682" y="-578.32" font-family="Helvetica,sans-Serif" font-size="11.00">id</text>
<polygon fill="none" stroke="black" points="935,-570.12 935,-592.12 1028,-592.12 1028,-570.12 935,-570.12"/>
<text text-anchor="start" x="938" y="-578.32" font-family="Helvetica,sans-Serif" font-size="11.00">uuid[2147483647]</text>
<polygon fill="#ffffff" stroke="transparent" points="662,-548.12 662,-570.12 935,-570.12 935,-548.12 662,-548.12"/>
<polygon fill="none" stroke="black" points="662,-548.12 662,-570.12 935,-570.12 935,-548.12 662,-548.12"/>
<image xlink:href="../../images/foreignKeys.png" width="11px" height="12px" preserveAspectRatio="xMinYMin meet" x="667" y="-565.12"/>
<text text-anchor="start" x="682" y="-556.32" font-family="Helvetica,sans-Serif" font-size="11.00">access_account_id</text>
<polygon fill="none" stroke="black" points="935,-548.12 935,-570.12 1028,-570.12 1028,-548.12 935,-548.12"/>
<text text-anchor="start" x="938" y="-556.32" font-family="Helvetica,sans-Serif" font-size="11.00">uuid[2147483647]</text>
<polygon fill="#ffffff" stroke="transparent" points="662,-526.12 662,-548.12 935,-548.12 935,-526.12 662,-526.12"/>
<polygon fill="none" stroke="black" points="662,-526.12 662,-548.12 935,-548.12 935,-526.12 662,-526.12"/>
<image xlink:href="../../images/foreignKeys.png" width="11px" height="12px" preserveAspectRatio="xMinYMin meet" x="667" y="-543.12"/>
<text text-anchor="start" x="682" y="-534.32" font-family="Helvetica,sans-Serif" font-size="11.00">instance_id</text>
<polygon fill="none" stroke="black" points="935,-526.12 935,-548.12 1028,-548.12 1028,-526.12 935,-526.12"/>
<text text-anchor="start" x="938" y="-534.32" font-family="Helvetica,sans-Serif" font-size="11.00">uuid[2147483647]</text>
<polygon fill="none" stroke="black" points="662,-504.12 662,-526.12 935,-526.12 935,-504.12 662,-504.12"/>
<text text-anchor="start" x="682" y="-512.32" font-family="Helvetica,sans-Serif" font-size="11.00">access_granted</text>
<polygon fill="none" stroke="black" points="935,-504.12 935,-526.12 1028,-526.12 1028,-504.12 935,-504.12"/>
<text text-anchor="start" x="938" y="-512.32" font-family="Helvetica,sans-Serif" font-size="11.00">timestamptz[35,6]</text>
<polygon fill="none" stroke="black" points="662,-482.12 662,-504.12 935,-504.12 935,-482.12 662,-482.12"/>
<text text-anchor="start" x="682" y="-490.32" font-family="Helvetica,sans-Serif" font-size="11.00">invitation_issued</text>
<polygon fill="none" stroke="black" points="935,-482.12 935,-504.12 1028,-504.12 1028,-482.12 935,-482.12"/>
<text text-anchor="start" x="938" y="-490.32" font-family="Helvetica,sans-Serif" font-size="11.00">timestamptz[35,6]</text>
<polygon fill="none" stroke="black" points="662,-460.12 662,-482.12 935,-482.12 935,-460.12 662,-460.12"/>
<text text-anchor="start" x="682" y="-468.32" font-family="Helvetica,sans-Serif" font-size="11.00">invitation_expires</text>
<polygon fill="none" stroke="black" points="935,-460.12 935,-482.12 1028,-482.12 1028,-460.12 935,-460.12"/>
<text text-anchor="start" x="938" y="-468.32" font-family="Helvetica,sans-Serif" font-size="11.00">timestamptz[35,6]</text>
<polygon fill="none" stroke="black" points="662,-438.12 662,-460.12 935,-460.12 935,-438.12 662,-438.12"/>
<text text-anchor="start" x="682" y="-446.32" font-family="Helvetica,sans-Serif" font-size="11.00">invitation_declined</text>
<polygon fill="none" stroke="black" points="935,-438.12 935,-460.12 1028,-460.12 1028,-438.12 935,-438.12"/>
<text text-anchor="start" x="938" y="-446.32" font-family="Helvetica,sans-Serif" font-size="11.00">timestamptz[35,6]</text>
<polygon fill="none" stroke="black" points="662,-416.12 662,-438.12 935,-438.12 935,-416.12 662,-416.12"/>
<text text-anchor="start" x="682" y="-424.32" font-family="Helvetica,sans-Serif" font-size="11.00">diag_timestamp_created</text>
<polygon fill="none" stroke="black" points="935,-416.12 935,-438.12 1028,-438.12 1028,-416.12 935,-416.12"/>
<text text-anchor="start" x="938" y="-424.32" font-family="Helvetica,sans-Serif" font-size="11.00">timestamptz[35,6]</text>
<polygon fill="none" stroke="black" points="662,-394.12 662,-416.12 935,-416.12 935,-394.12 662,-394.12"/>
<text text-anchor="start" x="682" y="-402.32" font-family="Helvetica,sans-Serif" font-size="11.00">diag_role_created</text>
<polygon fill="none" stroke="black" points="935,-394.12 935,-416.12 1028,-416.12 1028,-394.12 935,-394.12"/>
<text text-anchor="start" x="938" y="-402.32" font-family="Helvetica,sans-Serif" font-size="11.00">text[2147483647]</text>
<polygon fill="none" stroke="black" points="662,-372.12 662,-394.12 935,-394.12 935,-372.12 662,-372.12"/>
<text text-anchor="start" x="682" y="-380.32" font-family="Helvetica,sans-Serif" font-size="11.00">diag_timestamp_modified</text>
<polygon fill="none" stroke="black" points="935,-372.12 935,-394.12 1028,-394.12 1028,-372.12 935,-372.12"/>
<text text-anchor="start" x="938" y="-380.32" font-family="Helvetica,sans-Serif" font-size="11.00">timestamptz[35,6]</text>
<polygon fill="none" stroke="black" points="662,-350.12 662,-372.12 935,-372.12 935,-350.12 662,-350.12"/>
<text text-anchor="start" x="682" y="-358.32" font-family="Helvetica,sans-Serif" font-size="11.00">diag_wallclock_modified</text>
<polygon fill="none" stroke="black" points="935,-350.12 935,-372.12 1028,-372.12 1028,-350.12 935,-350.12"/>
<text text-anchor="start" x="938" y="-358.32" font-family="Helvetica,sans-Serif" font-size="11.00">timestamptz[35,6]</text>
<polygon fill="none" stroke="black" points="662,-328.12 662,-350.12 935,-350.12 935,-328.12 662,-328.12"/>
<text text-anchor="start" x="682" y="-336.32" font-family="Helvetica,sans-Serif" font-size="11.00">diag_role_modified</text>
<polygon fill="none" stroke="black" points="935,-328.12 935,-350.12 1028,-350.12 1028,-328.12 935,-328.12"/>
<text text-anchor="start" x="938" y="-336.32" font-family="Helvetica,sans-Serif" font-size="11.00">text[2147483647]</text>
<polygon fill="none" stroke="black" points="662,-306.12 662,-328.12 935,-328.12 935,-306.12 662,-306.12"/>
<text text-anchor="start" x="682" y="-314.32" font-family="Helvetica,sans-Serif" font-size="11.00">diag_row_version</text>
<polygon fill="none" stroke="black" points="935,-306.12 935,-328.12 1028,-328.12 1028,-306.12 935,-306.12"/>
<text text-anchor="start" x="938" y="-314.32" font-family="Helvetica,sans-Serif" font-size="11.00">int8[19]</text>
<polygon fill="none" stroke="black" points="662,-284.12 662,-306.12 935,-306.12 935,-284.12 662,-284.12"/>
<text text-anchor="start" x="682" y="-292.32" font-family="Helvetica,sans-Serif" font-size="11.00">diag_update_count</text>
<polygon fill="none" stroke="black" points="935,-284.12 935,-306.12 1028,-306.12 1028,-284.12 935,-284.12"/>
<text text-anchor="start" x="938" y="-292.32" font-family="Helvetica,sans-Serif" font-size="11.00">int8[19]</text>
<polygon fill="#ffffff" stroke="transparent" points="662,-266.12 662,-284.12 803,-284.12 803,-266.12 662,-266.12"/>
<polygon fill="none" stroke="black" points="662,-266.12 662,-284.12 803,-284.12 803,-266.12 662,-266.12"/>
<text text-anchor="start" x="665" y="-272.32" font-family="Helvetica,sans-Serif" font-size="11.00">&lt; 2</text>
<polygon fill="#ffffff" stroke="transparent" points="803,-266.12 803,-284.12 935,-284.12 935,-266.12 803,-266.12"/>
<polygon fill="none" stroke="black" points="803,-266.12 803,-284.12 935,-284.12 935,-266.12 803,-266.12"/>
<text text-anchor="start" x="925" y="-272.32" font-family="Helvetica,sans-Serif" font-size="11.00"> &#160;</text>
<polygon fill="#ffffff" stroke="transparent" points="935,-266.12 935,-284.12 1028,-284.12 1028,-266.12 935,-266.12"/>
<polygon fill="none" stroke="black" points="935,-266.12 935,-284.12 1028,-284.12 1028,-266.12 935,-266.12"/>
<text text-anchor="start" x="1009" y="-272.32" font-family="Helvetica,sans-Serif" font-size="11.00">0 &gt;</text>
<polygon fill="none" stroke="black" stroke-width="2" points="661,-265.12 661,-615.12 1029,-615.12 1029,-265.12 661,-265.12"/>
</a>
</g>
</g>
<!-- syst_access_accounts -->
<g id="node2" class="node">
<title>syst_access_accounts</title>
<g id="a_node2"><a xlink:href="../../tables/syst_access_accounts.html" xlink:title="syst_access_accounts" target="_top">
<polygon fill="#ffffff" stroke="transparent" points="417,-552.12 417,-698.12 611,-698.12 611,-552.12 417,-552.12"/>
<polygon fill="#f5f5f5" stroke="transparent" points="417,-676.12 417,-698.12 611,-698.12 611,-676.12 417,-676.12"/>
<polygon fill="none" stroke="black" points="417,-676.12 417,-698.12 611,-698.12 611,-676.12 417,-676.12"/>
<text text-anchor="start" x="422" y="-685.32" font-family="Helvetica,sans-Serif" font-weight="bold" font-size="11.00">syst_access_accounts</text>
<text text-anchor="start" x="576" y="-684.32" font-family="Helvetica,sans-Serif" font-size="11.00">[table]</text>
<polygon fill="none" stroke="black" points="417,-654.12 417,-676.12 611,-676.12 611,-654.12 417,-654.12"/>
<image xlink:href="../../images/primaryKeys.png" width="11px" height="12px" preserveAspectRatio="xMinYMin meet" x="422" y="-671.12"/>
<text text-anchor="start" x="437" y="-662.32" font-family="Helvetica,sans-Serif" font-size="11.00">id</text>
<polygon fill="#ffffff" stroke="transparent" points="417,-632.12 417,-654.12 611,-654.12 611,-632.12 417,-632.12"/>
<polygon fill="none" stroke="black" points="417,-632.12 417,-654.12 611,-654.12 611,-632.12 417,-632.12"/>
<text text-anchor="start" x="437" y="-640.32" font-family="Helvetica,sans-Serif" font-size="11.00">internal_name</text>
<polygon fill="none" stroke="black" points="417,-610.12 417,-632.12 611,-632.12 611,-610.12 417,-610.12"/>
<image xlink:href="../../images/foreignKeys.png" width="11px" height="12px" preserveAspectRatio="xMinYMin meet" x="422" y="-627.12"/>
<text text-anchor="start" x="437" y="-618.32" font-family="Helvetica,sans-Serif" font-size="11.00">owning_owner_id</text>
<polygon fill="none" stroke="black" points="417,-588.12 417,-610.12 611,-610.12 611,-588.12 417,-588.12"/>
<image xlink:href="../../images/foreignKeys.png" width="11px" height="12px" preserveAspectRatio="xMinYMin meet" x="422" y="-605.12"/>
<text text-anchor="start" x="437" y="-596.32" font-family="Helvetica,sans-Serif" font-size="11.00">access_account_state_id</text>
<polygon fill="none" stroke="black" points="417,-570.12 417,-588.12 611,-588.12 611,-570.12 417,-570.12"/>
<text text-anchor="start" x="420" y="-576.32" font-family="Helvetica,sans-Serif" font-size="11.00">...</text>
<polygon fill="#ffffff" stroke="transparent" points="417,-552.12 417,-570.12 507,-570.12 507,-552.12 417,-552.12"/>
<polygon fill="none" stroke="black" points="417,-552.12 417,-570.12 507,-570.12 507,-552.12 417,-552.12"/>
<text text-anchor="start" x="420" y="-558.32" font-family="Helvetica,sans-Serif" font-size="11.00">&lt; 2</text>
<polygon fill="#ffffff" stroke="transparent" points="507,-552.12 507,-570.12 554,-570.12 554,-552.12 507,-552.12"/>
<polygon fill="none" stroke="black" points="507,-552.12 507,-570.12 554,-570.12 554,-552.12 507,-552.12"/>
<text text-anchor="start" x="544" y="-558.32" font-family="Helvetica,sans-Serif" font-size="11.00"> &#160;</text>
<polygon fill="#ffffff" stroke="transparent" points="554,-552.12 554,-570.12 611,-570.12 611,-552.12 554,-552.12"/>
<polygon fill="none" stroke="black" points="554,-552.12 554,-570.12 611,-570.12 611,-552.12 554,-552.12"/>
<text text-anchor="start" x="592" y="-558.32" font-family="Helvetica,sans-Serif" font-size="11.00">5 &gt;</text>
</a>
</g>
</g>
<!-- syst_access_account_instance_assocs&#45;&gt;syst_access_accounts -->
<g id="edge1" class="edge">
<title>syst_access_account_instance_assocs:w&#45;&gt;syst_access_accounts:e</title>
<path fill="none" stroke="black" d="M646.81,-563.15C620.48,-582.51 657.82,-665.12 612,-665.12"/>
<polygon fill="black" stroke="black" points="653.3,-561.3 661.98,-562.58 657.15,-560.21 661,-559.12 661,-559.12 661,-559.12 657.15,-560.21 660.02,-555.66 653.3,-561.3 653.3,-561.3"/>
<ellipse fill="none" stroke="black" cx="650.23" cy="-562.18" rx="3.2" ry="3.2"/>
</g>
<!-- syst_instances -->
<g id="node3" class="node">
<title>syst_instances</title>
<g id="a_node3"><a xlink:href="../../tables/syst_instances.html" xlink:title="syst_instances" target="_top">
<polygon fill="#ffffff" stroke="transparent" points="417,-297.12 417,-531.12 611,-531.12 611,-297.12 417,-297.12"/>
<polygon fill="#f5f5f5" stroke="transparent" points="417,-509.12 417,-531.12 611,-531.12 611,-509.12 417,-509.12"/>
<polygon fill="none" stroke="black" points="417,-509.12 417,-531.12 611,-531.12 611,-509.12 417,-509.12"/>
<text text-anchor="start" x="422" y="-518.32" font-family="Helvetica,sans-Serif" font-weight="bold" font-size="11.00">syst_instances</text>
<text text-anchor="start" x="576" y="-517.32" font-family="Helvetica,sans-Serif" font-size="11.00">[table]</text>
<polygon fill="none" stroke="black" points="417,-487.12 417,-509.12 611,-509.12 611,-487.12 417,-487.12"/>
<image xlink:href="../../images/primaryKeys.png" width="11px" height="12px" preserveAspectRatio="xMinYMin meet" x="422" y="-504.12"/>
<text text-anchor="start" x="437" y="-495.32" font-family="Helvetica,sans-Serif" font-size="11.00">id</text>
<polygon fill="#ffffff" stroke="transparent" points="417,-465.12 417,-487.12 611,-487.12 611,-465.12 417,-465.12"/>
<polygon fill="none" stroke="black" points="417,-465.12 417,-487.12 611,-487.12 611,-465.12 417,-465.12"/>
<text text-anchor="start" x="437" y="-473.32" font-family="Helvetica,sans-Serif" font-size="11.00">internal_name</text>
<polygon fill="#ffffff" stroke="transparent" points="417,-443.12 417,-465.12 611,-465.12 611,-443.12 417,-443.12"/>
<polygon fill="none" stroke="black" points="417,-443.12 417,-465.12 611,-465.12 611,-443.12 417,-443.12"/>
<text text-anchor="start" x="437" y="-451.32" font-family="Helvetica,sans-Serif" font-size="11.00">display_name</text>
<polygon fill="none" stroke="black" points="417,-421.12 417,-443.12 611,-443.12 611,-421.12 417,-421.12"/>
<image xlink:href="../../images/foreignKeys.png" width="11px" height="12px" preserveAspectRatio="xMinYMin meet" x="422" y="-438.12"/>
<text text-anchor="start" x="437" y="-429.32" font-family="Helvetica,sans-Serif" font-size="11.00">application_id</text>
<polygon fill="none" stroke="black" points="417,-399.12 417,-421.12 611,-421.12 611,-399.12 417,-399.12"/>
<image xlink:href="../../images/foreignKeys.png" width="11px" height="12px" preserveAspectRatio="xMinYMin meet" x="422" y="-416.12"/>
<text text-anchor="start" x="437" y="-407.32" font-family="Helvetica,sans-Serif" font-size="11.00">instance_type_id</text>
<polygon fill="none" stroke="black" points="417,-377.12 417,-399.12 611,-399.12 611,-377.12 417,-377.12"/>
<image xlink:href="../../images/foreignKeys.png" width="11px" height="12px" preserveAspectRatio="xMinYMin meet" x="422" y="-394.12"/>
<text text-anchor="start" x="437" y="-385.32" font-family="Helvetica,sans-Serif" font-size="11.00">instance_state_id</text>
<polygon fill="none" stroke="black" points="417,-355.12 417,-377.12 611,-377.12 611,-355.12 417,-355.12"/>
<image xlink:href="../../images/foreignKeys.png" width="11px" height="12px" preserveAspectRatio="xMinYMin meet" x="422" y="-372.12"/>
<text text-anchor="start" x="437" y="-363.32" font-family="Helvetica,sans-Serif" font-size="11.00">owner_id</text>
<polygon fill="none" stroke="black" points="417,-333.12 417,-355.12 611,-355.12 611,-333.12 417,-333.12"/>
<image xlink:href="../../images/foreignKeys.png" width="11px" height="12px" preserveAspectRatio="xMinYMin meet" x="422" y="-350.12"/>
<text text-anchor="start" x="437" y="-341.32" font-family="Helvetica,sans-Serif" font-size="11.00">owning_instance_id</text>
<polygon fill="none" stroke="black" points="417,-315.12 417,-333.12 611,-333.12 611,-315.12 417,-315.12"/>
<text text-anchor="start" x="420" y="-321.32" font-family="Helvetica,sans-Serif" font-size="11.00">...</text>
<polygon fill="#ffffff" stroke="transparent" points="417,-297.12 417,-315.12 507,-315.12 507,-297.12 417,-297.12"/>
<polygon fill="none" stroke="black" points="417,-297.12 417,-315.12 507,-315.12 507,-297.12 417,-297.12"/>
<text text-anchor="start" x="420" y="-303.32" font-family="Helvetica,sans-Serif" font-size="11.00">&lt; 5</text>
<polygon fill="#ffffff" stroke="transparent" points="507,-297.12 507,-315.12 554,-315.12 554,-297.12 507,-297.12"/>
<polygon fill="none" stroke="black" points="507,-297.12 507,-315.12 554,-315.12 554,-297.12 507,-297.12"/>
<text text-anchor="start" x="544" y="-303.32" font-family="Helvetica,sans-Serif" font-size="11.00"> &#160;</text>
<polygon fill="#ffffff" stroke="transparent" points="554,-297.12 554,-315.12 611,-315.12 611,-297.12 554,-297.12"/>
<polygon fill="none" stroke="black" points="554,-297.12 554,-315.12 611,-315.12 611,-297.12 554,-297.12"/>
<text text-anchor="start" x="592" y="-303.32" font-family="Helvetica,sans-Serif" font-size="11.00">4 &gt;</text>
</a>
</g>
</g>
<!-- syst_access_account_instance_assocs&#45;&gt;syst_instances -->
<g id="edge2" class="edge">
<title>syst_access_account_instance_assocs:w&#45;&gt;syst_instances:e</title>
<path fill="none" stroke="black" d="M646.96,-532.34C634.43,-521.92 633.75,-498.12 612,-498.12"/>
<polygon fill="black" stroke="black" points="653.43,-534.54 659.84,-540.53 657.21,-535.83 661,-537.12 661,-537.12 661,-537.12 657.21,-535.83 662.16,-533.71 653.43,-534.54 653.43,-534.54"/>
<ellipse fill="none" stroke="black" cx="650.4" cy="-533.51" rx="3.2" ry="3.2"/>
</g>
<!-- syst_enum_items -->
<g id="node5" class="node">
<title>syst_enum_items</title>
<g id="a_node5"><a xlink:href="../../tables/syst_enum_items.html" xlink:title="syst_enum_items" target="_top">
<polygon fill="#ffffff" stroke="transparent" points="8,-384.12 8,-442.12 163,-442.12 163,-384.12 8,-384.12"/>
<polygon fill="#f5f5f5" stroke="transparent" points="8.5,-420.12 8.5,-442.12 163.5,-442.12 163.5,-420.12 8.5,-420.12"/>
<polygon fill="none" stroke="black" points="8.5,-420.12 8.5,-442.12 163.5,-442.12 163.5,-420.12 8.5,-420.12"/>
<text text-anchor="start" x="13.5" y="-429.32" font-family="Helvetica,sans-Serif" font-weight="bold" font-size="11.00">syst_enum_items</text>
<text text-anchor="start" x="128.5" y="-428.32" font-family="Helvetica,sans-Serif" font-size="11.00">[table]</text>
<polygon fill="none" stroke="black" points="8.5,-402.12 8.5,-420.12 163.5,-420.12 163.5,-402.12 8.5,-402.12"/>
<text text-anchor="start" x="11.5" y="-408.32" font-family="Helvetica,sans-Serif" font-size="11.00">...</text>
<polygon fill="#ffffff" stroke="transparent" points="8.5,-384.12 8.5,-402.12 76.5,-402.12 76.5,-384.12 8.5,-384.12"/>
<polygon fill="none" stroke="black" points="8.5,-384.12 8.5,-402.12 76.5,-402.12 76.5,-384.12 8.5,-384.12"/>
<text text-anchor="start" x="11.5" y="-390.32" font-family="Helvetica,sans-Serif" font-size="11.00">&lt; 2</text>
<polygon fill="#ffffff" stroke="transparent" points="76.5,-384.12 76.5,-402.12 112.5,-402.12 112.5,-384.12 76.5,-384.12"/>
<polygon fill="none" stroke="black" points="76.5,-384.12 76.5,-402.12 112.5,-402.12 112.5,-384.12 76.5,-384.12"/>
<text text-anchor="start" x="102.5" y="-390.32" font-family="Helvetica,sans-Serif" font-size="11.00"> &#160;</text>
<polygon fill="#ffffff" stroke="transparent" points="112.5,-384.12 112.5,-402.12 163.5,-402.12 163.5,-384.12 112.5,-384.12"/>
<polygon fill="none" stroke="black" points="112.5,-384.12 112.5,-402.12 163.5,-402.12 163.5,-384.12 112.5,-384.12"/>
<text text-anchor="start" x="138.5" y="-390.32" font-family="Helvetica,sans-Serif" font-size="11.00">10 &gt;</text>
</a>
</g>
</g>
<!-- syst_access_accounts&#45;&gt;syst_enum_items -->
<g id="edge4" class="edge">
<title>syst_access_accounts:w&#45;&gt;syst_enum_items:e</title>
<path fill="none" stroke="black" d="M401.37,-599.13C312.75,-599.19 270.64,-598.13 204,-532.12 163.81,-492.31 221.07,-411.12 164.5,-411.12"/>
<polygon fill="black" stroke="black" points="408,-599.13 416,-602.72 412,-599.12 416,-599.12 416,-599.12 416,-599.12 412,-599.12 416,-595.52 408,-599.13 408,-599.13"/>
<ellipse fill="none" stroke="black" cx="404.8" cy="-599.13" rx="3.2" ry="3.2"/>
</g>
<!-- syst_owners -->
<g id="node6" class="node">
<title>syst_owners</title>
<g id="a_node6"><a xlink:href="../../tables/syst_owners.html" xlink:title="syst_owners" target="_top">
<polygon fill="#ffffff" stroke="transparent" points="229,-357.12 229,-415.12 351,-415.12 351,-357.12 229,-357.12"/>
<polygon fill="#f5f5f5" stroke="transparent" points="229,-393.12 229,-415.12 351,-415.12 351,-393.12 229,-393.12"/>
<polygon fill="none" stroke="black" points="229,-393.12 229,-415.12 351,-415.12 351,-393.12 229,-393.12"/>
<text text-anchor="start" x="234" y="-402.32" font-family="Helvetica,sans-Serif" font-weight="bold" font-size="11.00">syst_owners</text>
<text text-anchor="start" x="316" y="-401.32" font-family="Helvetica,sans-Serif" font-size="11.00">[table]</text>
<polygon fill="none" stroke="black" points="229,-375.12 229,-393.12 351,-393.12 351,-375.12 229,-375.12"/>
<text text-anchor="start" x="232" y="-381.32" font-family="Helvetica,sans-Serif" font-size="11.00">...</text>
<polygon fill="#ffffff" stroke="transparent" points="229,-357.12 229,-375.12 283,-375.12 283,-357.12 229,-357.12"/>
<polygon fill="none" stroke="black" points="229,-357.12 229,-375.12 283,-375.12 283,-357.12 229,-357.12"/>
<text text-anchor="start" x="232" y="-363.32" font-family="Helvetica,sans-Serif" font-size="11.00">&lt; 1</text>
<polygon fill="#ffffff" stroke="transparent" points="283,-357.12 283,-375.12 312,-375.12 312,-357.12 283,-357.12"/>
<polygon fill="none" stroke="black" points="283,-357.12 283,-375.12 312,-375.12 312,-357.12 283,-357.12"/>
<text text-anchor="start" x="302" y="-363.32" font-family="Helvetica,sans-Serif" font-size="11.00"> &#160;</text>
<polygon fill="#ffffff" stroke="transparent" points="312,-357.12 312,-375.12 351,-375.12 351,-357.12 312,-357.12"/>
<polygon fill="none" stroke="black" points="312,-357.12 312,-375.12 351,-375.12 351,-357.12 312,-357.12"/>
<text text-anchor="start" x="332" y="-363.32" font-family="Helvetica,sans-Serif" font-size="11.00">4 &gt;</text>
</a>
</g>
</g>
<!-- syst_access_accounts&#45;&gt;syst_owners -->
<g id="edge5" class="edge">
<title>syst_access_accounts:w&#45;&gt;syst_owners:e</title>
<path fill="none" stroke="black" d="M402.68,-614.78C369.31,-577.09 401.23,-384.12 352,-384.12"/>
<polygon fill="black" stroke="black" points="408.78,-617.68 414.45,-624.37 412.39,-619.4 416,-621.12 416,-621.12 416,-621.12 412.39,-619.4 417.55,-617.87 408.78,-617.68 408.78,-617.68"/>
<ellipse fill="none" stroke="black" cx="405.89" cy="-616.31" rx="3.2" ry="3.2"/>
</g>
<!-- syst_instances&#45;&gt;syst_enum_items -->
<g id="edge14" class="edge">
<title>syst_instances:w&#45;&gt;syst_enum_items:e</title>
<path fill="none" stroke="black" d="M402.31,-383.1C392.98,-373.89 393.59,-354.54 376,-347.12 305.56,-317.43 270.76,-309.87 204,-347.12 174.81,-363.41 197.93,-411.12 164.5,-411.12"/>
<polygon fill="black" stroke="black" points="408.49,-385.37 414.76,-391.5 412.24,-386.74 416,-388.12 416,-388.12 416,-388.12 412.24,-386.74 417.24,-384.74 408.49,-385.37 408.49,-385.37"/>
<ellipse fill="none" stroke="black" cx="405.48" cy="-384.27" rx="3.2" ry="3.2"/>
</g>
<!-- syst_instances&#45;&gt;syst_enum_items -->
<g id="edge15" class="edge">
<title>syst_instances:w&#45;&gt;syst_enum_items:e</title>
<path fill="none" stroke="black" d="M401.75,-413.24C393.82,-417.15 388.78,-423.66 376,-426.12 300.93,-440.58 279.19,-439.92 204,-426.12 185.53,-422.73 183.28,-411.12 164.5,-411.12"/>
<polygon fill="black" stroke="black" points="408.18,-411.83 416.77,-413.64 412.09,-410.97 416,-410.12 416,-410.12 416,-410.12 412.09,-410.97 415.23,-406.6 408.18,-411.83 408.18,-411.83"/>
<ellipse fill="none" stroke="black" cx="405.06" cy="-412.51" rx="3.2" ry="3.2"/>
</g>
<!-- syst_instances&#45;&gt;syst_owners -->
<g id="edge16" class="edge">
<title>syst_instances:w&#45;&gt;syst_owners:e</title>
<path fill="none" stroke="black" d="M401.65,-367.78C383.75,-372.24 376.01,-384.12 352,-384.12"/>
<polygon fill="black" stroke="black" points="408.05,-367.04 416.41,-369.7 412.03,-366.58 416,-366.12 416,-366.12 416,-366.12 412.03,-366.58 415.59,-362.54 408.05,-367.04 408.05,-367.04"/>
<ellipse fill="none" stroke="black" cx="404.87" cy="-367.41" rx="3.2" ry="3.2"/>
</g>
<!-- syst_applications -->
<g id="node11" class="node">
<title>syst_applications</title>
<g id="a_node11"><a xlink:href="../../tables/syst_applications.html" xlink:title="syst_applications" target="_top">
<polygon fill="#ffffff" stroke="transparent" points="212,-463.12 212,-521.12 368,-521.12 368,-463.12 212,-463.12"/>
<polygon fill="#f5f5f5" stroke="transparent" points="212,-499.12 212,-521.12 368,-521.12 368,-499.12 212,-499.12"/>
<polygon fill="none" stroke="black" points="212,-499.12 212,-521.12 368,-521.12 368,-499.12 212,-499.12"/>
<text text-anchor="start" x="217" y="-508.32" font-family="Helvetica,sans-Serif" font-weight="bold" font-size="11.00">syst_applications</text>
<text text-anchor="start" x="333" y="-507.32" font-family="Helvetica,sans-Serif" font-size="11.00">[table]</text>
<polygon fill="none" stroke="black" points="212,-481.12 212,-499.12 368,-499.12 368,-481.12 212,-481.12"/>
<text text-anchor="start" x="215" y="-487.32" font-family="Helvetica,sans-Serif" font-size="11.00">...</text>
<polygon fill="#ffffff" stroke="transparent" points="212,-463.12 212,-481.12 279,-481.12 279,-463.12 212,-463.12"/>
<polygon fill="none" stroke="black" points="212,-463.12 212,-481.12 279,-481.12 279,-463.12 212,-463.12"/>
<text text-anchor="start" x="215" y="-469.32" font-family="Helvetica,sans-Serif" font-size="11.00"> &#160;</text>
<polygon fill="#ffffff" stroke="transparent" points="279,-463.12 279,-481.12 319,-481.12 319,-463.12 279,-463.12"/>
<polygon fill="none" stroke="black" points="279,-463.12 279,-481.12 319,-481.12 319,-463.12 279,-463.12"/>
<text text-anchor="start" x="309" y="-469.32" font-family="Helvetica,sans-Serif" font-size="11.00"> &#160;</text>
<polygon fill="#ffffff" stroke="transparent" points="319,-463.12 319,-481.12 368,-481.12 368,-463.12 319,-463.12"/>
<polygon fill="none" stroke="black" points="319,-463.12 319,-481.12 368,-481.12 368,-463.12 319,-463.12"/>
<text text-anchor="start" x="349" y="-469.32" font-family="Helvetica,sans-Serif" font-size="11.00">3 &gt;</text>
</a>
</g>
</g>
<!-- syst_instances&#45;&gt;syst_applications -->
<g id="edge13" class="edge">
<title>syst_instances:w&#45;&gt;syst_applications:e</title>
<path fill="none" stroke="black" d="M402.19,-437.47C388.23,-451.83 395.96,-490.12 369,-490.12"/>
<polygon fill="black" stroke="black" points="408.54,-435.01 417.3,-435.48 412.27,-433.57 416,-432.12 416,-432.12 416,-432.12 412.27,-433.57 414.7,-428.76 408.54,-435.01 408.54,-435.01"/>
<ellipse fill="none" stroke="black" cx="405.56" cy="-436.17" rx="3.2" ry="3.2"/>
</g>
<!-- syst_access_account_perm_role_assigns -->
<g id="node4" class="node">
<title>syst_access_account_perm_role_assigns</title>
<g id="a_node4"><a xlink:href="../../tables/syst_access_account_perm_role_assigns.html" xlink:title="syst_access_account_perm_role_assigns" target="_top">
<polygon fill="#ffffff" stroke="transparent" points="691,-743.12 691,-801.12 999,-801.12 999,-743.12 691,-743.12"/>
<polygon fill="#f5f5f5" stroke="transparent" points="691,-779.12 691,-801.12 999,-801.12 999,-779.12 691,-779.12"/>
<polygon fill="none" stroke="black" points="691,-779.12 691,-801.12 999,-801.12 999,-779.12 691,-779.12"/>
<text text-anchor="start" x="696" y="-788.32" font-family="Helvetica,sans-Serif" font-weight="bold" font-size="11.00">syst_access_account_perm_role_assigns</text>
<text text-anchor="start" x="964" y="-787.32" font-family="Helvetica,sans-Serif" font-size="11.00">[table]</text>
<polygon fill="none" stroke="black" points="691,-761.12 691,-779.12 999,-779.12 999,-761.12 691,-761.12"/>
<text text-anchor="start" x="694" y="-767.32" font-family="Helvetica,sans-Serif" font-size="11.00">...</text>
<polygon fill="#ffffff" stroke="transparent" points="691,-743.12 691,-761.12 843,-761.12 843,-743.12 691,-743.12"/>
<polygon fill="none" stroke="black" points="691,-743.12 691,-761.12 843,-761.12 843,-743.12 691,-743.12"/>
<text text-anchor="start" x="694" y="-749.32" font-family="Helvetica,sans-Serif" font-size="11.00">&lt; 2</text>
<polygon fill="#ffffff" stroke="transparent" points="843,-743.12 843,-761.12 921,-761.12 921,-743.12 843,-743.12"/>
<polygon fill="none" stroke="black" points="843,-743.12 843,-761.12 921,-761.12 921,-743.12 843,-743.12"/>
<text text-anchor="start" x="911" y="-749.32" font-family="Helvetica,sans-Serif" font-size="11.00"> &#160;</text>
<polygon fill="#ffffff" stroke="transparent" points="921,-743.12 921,-761.12 999,-761.12 999,-743.12 921,-743.12"/>
<polygon fill="none" stroke="black" points="921,-743.12 921,-761.12 999,-761.12 999,-743.12 921,-743.12"/>
<text text-anchor="start" x="989" y="-749.32" font-family="Helvetica,sans-Serif" font-size="11.00"> &#160;</text>
</a>
</g>
</g>
<!-- syst_access_account_perm_role_assigns&#45;&gt;syst_access_accounts -->
<g id="edge3" class="edge">
<title>syst_access_account_perm_role_assigns:w&#45;&gt;syst_access_accounts:e</title>
<path fill="none" stroke="black" d="M675.84,-766.75C665.52,-760.6 662.8,-746.88 652,-733.12 630.36,-705.53 647.06,-665.12 612,-665.12"/>
<polygon fill="black" stroke="black" points="682.22,-768.27 689.17,-773.62 686.11,-769.2 690,-770.12 690,-770.12 690,-770.12 686.11,-769.2 690.83,-766.62 682.22,-768.27 682.22,-768.27"/>
<ellipse fill="none" stroke="black" cx="679.1" cy="-767.53" rx="3.2" ry="3.2"/>
</g>
<!-- syst_owners&#45;&gt;syst_enum_items -->
<g id="edge17" class="edge">
<title>syst_owners:w&#45;&gt;syst_enum_items:e</title>
<path fill="none" stroke="black" d="M213.64,-386.52C195.58,-393.12 189.54,-411.12 164.5,-411.12"/>
<polygon fill="black" stroke="black" points="220.11,-385.44 228.59,-387.67 224.05,-384.78 228,-384.12 228,-384.12 228,-384.12 224.05,-384.78 227.41,-380.57 220.11,-385.44 220.11,-385.44"/>
<ellipse fill="none" stroke="black" cx="216.95" cy="-385.96" rx="3.2" ry="3.2"/>
</g>
<!-- syst_credentials -->
<g id="node7" class="node">
<title>syst_credentials</title>
<g id="a_node7"><a xlink:href="../../tables/syst_credentials.html" xlink:title="syst_credentials" target="_top">
<polygon fill="#ffffff" stroke="transparent" points="1079,-613.12 1079,-671.12 1228,-671.12 1228,-613.12 1079,-613.12"/>
<polygon fill="#f5f5f5" stroke="transparent" points="1079.5,-649.12 1079.5,-671.12 1228.5,-671.12 1228.5,-649.12 1079.5,-649.12"/>
<polygon fill="none" stroke="black" points="1079.5,-649.12 1079.5,-671.12 1228.5,-671.12 1228.5,-649.12 1079.5,-649.12"/>
<text text-anchor="start" x="1084.5" y="-658.32" font-family="Helvetica,sans-Serif" font-weight="bold" font-size="11.00">syst_credentials</text>
<text text-anchor="start" x="1193.5" y="-657.32" font-family="Helvetica,sans-Serif" font-size="11.00">[table]</text>
<polygon fill="none" stroke="black" points="1079.5,-631.12 1079.5,-649.12 1228.5,-649.12 1228.5,-631.12 1079.5,-631.12"/>
<text text-anchor="start" x="1082.5" y="-637.32" font-family="Helvetica,sans-Serif" font-size="11.00">...</text>
<polygon fill="#ffffff" stroke="transparent" points="1079.5,-613.12 1079.5,-631.12 1151.5,-631.12 1151.5,-613.12 1079.5,-613.12"/>
<polygon fill="none" stroke="black" points="1079.5,-613.12 1079.5,-631.12 1151.5,-631.12 1151.5,-613.12 1079.5,-613.12"/>
<text text-anchor="start" x="1082.5" y="-619.32" font-family="Helvetica,sans-Serif" font-size="11.00">&lt; 3</text>
<polygon fill="#ffffff" stroke="transparent" points="1151.5,-613.12 1151.5,-631.12 1189.5,-631.12 1189.5,-613.12 1151.5,-613.12"/>
<polygon fill="none" stroke="black" points="1151.5,-613.12 1151.5,-631.12 1189.5,-631.12 1189.5,-613.12 1151.5,-613.12"/>
<text text-anchor="start" x="1179.5" y="-619.32" font-family="Helvetica,sans-Serif" font-size="11.00"> &#160;</text>
<polygon fill="#ffffff" stroke="transparent" points="1189.5,-613.12 1189.5,-631.12 1228.5,-631.12 1228.5,-613.12 1189.5,-613.12"/>
<polygon fill="none" stroke="black" points="1189.5,-613.12 1189.5,-631.12 1228.5,-631.12 1228.5,-613.12 1189.5,-613.12"/>
<text text-anchor="start" x="1218.5" y="-619.32" font-family="Helvetica,sans-Serif" font-size="11.00"> &#160;</text>
</a>
</g>
</g>
<!-- syst_credentials&#45;&gt;syst_access_accounts -->
<g id="edge6" class="edge">
<title>syst_credentials:w&#45;&gt;syst_access_accounts:e</title>
<path fill="none" stroke="black" d="M1064.05,-640.09C886.2,-639.4 834.66,-626.4 652,-654.12 633.77,-656.89 630.44,-665.12 612,-665.12"/>
<polygon fill="black" stroke="black" points="1070.5,-640.1 1078.49,-643.72 1074.5,-640.11 1078.5,-640.12 1078.5,-640.12 1078.5,-640.12 1074.5,-640.11 1078.51,-636.52 1070.5,-640.1 1070.5,-640.1"/>
<ellipse fill="none" stroke="black" cx="1067.3" cy="-640.1" rx="3.2" ry="3.2"/>
</g>
<!-- syst_credentials&#45;&gt;syst_enum_items -->
<g id="edge8" class="edge">
<title>syst_credentials:w&#45;&gt;syst_enum_items:e</title>
<path fill="none" stroke="black" d="M1066.7,-631.78C1027,-566.07 1079.11,-133.29 1038,-95.12 912.28,21.61 819,-55.85 652,-95.12 435.49,-146.03 356.47,-156.19 204,-318.12 173.22,-350.82 209.41,-411.12 164.5,-411.12"/>
<polygon fill="black" stroke="black" points="1071.97,-635.5 1076.42,-643.06 1075.23,-637.81 1078.5,-640.12 1078.5,-640.12 1078.5,-640.12 1075.23,-637.81 1080.58,-637.18 1071.97,-635.5 1071.97,-635.5"/>
<ellipse fill="none" stroke="black" cx="1069.35" cy="-633.65" rx="3.2" ry="3.2"/>
</g>
<!-- syst_identities -->
<g id="node8" class="node">
<title>syst_identities</title>
<g id="a_node8"><a xlink:href="../../tables/syst_identities.html" xlink:title="syst_identities" target="_top">
<polygon fill="#ffffff" stroke="transparent" points="776,-822.12 776,-880.12 914,-880.12 914,-822.12 776,-822.12"/>
<polygon fill="#f5f5f5" stroke="transparent" points="776,-858.12 776,-880.12 914,-880.12 914,-858.12 776,-858.12"/>
<polygon fill="none" stroke="black" points="776,-858.12 776,-880.12 914,-880.12 914,-858.12 776,-858.12"/>
<text text-anchor="start" x="781" y="-867.32" font-family="Helvetica,sans-Serif" font-weight="bold" font-size="11.00">syst_identities</text>
<text text-anchor="start" x="879" y="-866.32" font-family="Helvetica,sans-Serif" font-size="11.00">[table]</text>
<polygon fill="none" stroke="black" points="776,-840.12 776,-858.12 914,-858.12 914,-840.12 776,-840.12"/>
<text text-anchor="start" x="779" y="-846.32" font-family="Helvetica,sans-Serif" font-size="11.00">...</text>
<polygon fill="#ffffff" stroke="transparent" points="776,-822.12 776,-840.12 838,-840.12 838,-822.12 776,-822.12"/>
<polygon fill="none" stroke="black" points="776,-822.12 776,-840.12 838,-840.12 838,-822.12 776,-822.12"/>
<text text-anchor="start" x="779" y="-828.32" font-family="Helvetica,sans-Serif" font-size="11.00">&lt; 3</text>
<polygon fill="#ffffff" stroke="transparent" points="838,-822.12 838,-840.12 871,-840.12 871,-822.12 838,-822.12"/>
<polygon fill="none" stroke="black" points="838,-822.12 838,-840.12 871,-840.12 871,-822.12 838,-822.12"/>
<text text-anchor="start" x="861" y="-828.32" font-family="Helvetica,sans-Serif" font-size="11.00"> &#160;</text>
<polygon fill="#ffffff" stroke="transparent" points="871,-822.12 871,-840.12 914,-840.12 914,-822.12 871,-822.12"/>
<polygon fill="none" stroke="black" points="871,-822.12 871,-840.12 914,-840.12 914,-822.12 871,-822.12"/>
<text text-anchor="start" x="895" y="-828.32" font-family="Helvetica,sans-Serif" font-size="11.00">2 &gt;</text>
</a>
</g>
</g>
<!-- syst_credentials&#45;&gt;syst_identities -->
<g id="edge7" class="edge">
<title>syst_credentials:w&#45;&gt;syst_identities:e</title>
<path fill="none" stroke="black" d="M1064.02,-641.85C1012.48,-656.41 1087.93,-759.05 1038,-812.12 998.88,-853.7 972.09,-849.12 915,-849.12"/>
<polygon fill="black" stroke="black" points="1070.56,-641.07 1078.93,-643.69 1074.53,-640.6 1078.5,-640.12 1078.5,-640.12 1078.5,-640.12 1074.53,-640.6 1078.07,-636.55 1070.56,-641.07 1070.56,-641.07"/>
<ellipse fill="none" stroke="black" cx="1067.38" cy="-641.45" rx="3.2" ry="3.2"/>
</g>
<!-- syst_identities&#45;&gt;syst_access_accounts -->
<g id="edge9" class="edge">
<title>syst_identities:w&#45;&gt;syst_access_accounts:e</title>
<path fill="none" stroke="black" d="M760.33,-849.18C713.12,-849.46 688.25,-849.34 652,-812.12 604.76,-763.61 679.71,-665.12 612,-665.12"/>
<polygon fill="black" stroke="black" points="767,-849.15 775.01,-852.72 771,-849.14 775,-849.12 775,-849.12 775,-849.12 771,-849.14 774.99,-845.52 767,-849.15 767,-849.15"/>
<ellipse fill="none" stroke="black" cx="763.8" cy="-849.17" rx="3.2" ry="3.2"/>
</g>
<!-- syst_identities&#45;&gt;syst_enum_items -->
<g id="edge10" class="edge">
<title>syst_identities:w&#45;&gt;syst_enum_items:e</title>
<path fill="none" stroke="black" d="M760.3,-849.08C489.03,-847.52 363.35,-801.13 204,-575.12 160.8,-513.84 239.47,-411.12 164.5,-411.12"/>
<polygon fill="black" stroke="black" points="767,-849.1 774.99,-852.72 771,-849.11 775,-849.12 775,-849.12 775,-849.12 771,-849.11 775.01,-845.52 767,-849.1 767,-849.1"/>
<ellipse fill="none" stroke="black" cx="763.8" cy="-849.09" rx="3.2" ry="3.2"/>
</g>
<!-- syst_instance_contexts -->
<g id="node9" class="node">
<title>syst_instance_contexts</title>
<g id="a_node9"><a xlink:href="../../tables/syst_instance_contexts.html" xlink:title="syst_instance_contexts" target="_top">
<polygon fill="#ffffff" stroke="transparent" points="747.5,-106.12 747.5,-164.12 942.5,-164.12 942.5,-106.12 747.5,-106.12"/>
<polygon fill="#f5f5f5" stroke="transparent" points="748,-142.12 748,-164.12 943,-164.12 943,-142.12 748,-142.12"/>
<polygon fill="none" stroke="black" points="748,-142.12 748,-164.12 943,-164.12 943,-142.12 748,-142.12"/>
<text text-anchor="start" x="753" y="-151.32" font-family="Helvetica,sans-Serif" font-weight="bold" font-size="11.00">syst_instance_contexts</text>
<text text-anchor="start" x="908" y="-150.32" font-family="Helvetica,sans-Serif" font-size="11.00">[table]</text>
<polygon fill="none" stroke="black" points="748,-124.12 748,-142.12 943,-142.12 943,-124.12 748,-124.12"/>
<text text-anchor="start" x="751" y="-130.32" font-family="Helvetica,sans-Serif" font-size="11.00">...</text>
<polygon fill="#ffffff" stroke="transparent" points="748,-106.12 748,-124.12 843,-124.12 843,-106.12 748,-106.12"/>
<polygon fill="none" stroke="black" points="748,-106.12 748,-124.12 843,-124.12 843,-106.12 748,-106.12"/>
<text text-anchor="start" x="751" y="-112.32" font-family="Helvetica,sans-Serif" font-size="11.00">&lt; 2</text>
<polygon fill="#ffffff" stroke="transparent" points="843,-106.12 843,-124.12 893,-124.12 893,-106.12 843,-106.12"/>
<polygon fill="none" stroke="black" points="843,-106.12 843,-124.12 893,-124.12 893,-106.12 843,-106.12"/>
<text text-anchor="start" x="883" y="-112.32" font-family="Helvetica,sans-Serif" font-size="11.00"> &#160;</text>
<polygon fill="#ffffff" stroke="transparent" points="893,-106.12 893,-124.12 943,-124.12 943,-106.12 893,-106.12"/>
<polygon fill="none" stroke="black" points="893,-106.12 893,-124.12 943,-124.12 943,-106.12 893,-106.12"/>
<text text-anchor="start" x="933" y="-112.32" font-family="Helvetica,sans-Serif" font-size="11.00"> &#160;</text>
</a>
</g>
</g>
<!-- syst_instance_contexts&#45;&gt;syst_instances -->
<g id="edge11" class="edge">
<title>syst_instance_contexts:w&#45;&gt;syst_instances:e</title>
<path fill="none" stroke="black" d="M732.27,-133.32C696.08,-134.49 676.45,-141.49 652,-174.12 608.5,-232.17 684.55,-498.12 612,-498.12"/>
<polygon fill="black" stroke="black" points="739,-133.23 747.05,-136.72 743,-133.18 747,-133.12 747,-133.12 747,-133.12 743,-133.18 746.95,-129.52 739,-133.23 739,-133.23"/>
<ellipse fill="none" stroke="black" cx="735.8" cy="-133.27" rx="3.2" ry="3.2"/>
</g>
<!-- syst_instance_network_rules -->
<g id="node10" class="node">
<title>syst_instance_network_rules</title>
<g id="a_node10"><a xlink:href="../../tables/syst_instance_network_rules.html" xlink:title="syst_instance_network_rules" target="_top">
<polygon fill="#ffffff" stroke="transparent" points="729,-185.12 729,-243.12 961,-243.12 961,-185.12 729,-185.12"/>
<polygon fill="#f5f5f5" stroke="transparent" points="729,-221.12 729,-243.12 961,-243.12 961,-221.12 729,-221.12"/>
<polygon fill="none" stroke="black" points="729,-221.12 729,-243.12 961,-243.12 961,-221.12 729,-221.12"/>
<text text-anchor="start" x="734" y="-230.32" font-family="Helvetica,sans-Serif" font-weight="bold" font-size="11.00">syst_instance_network_rules</text>
<text text-anchor="start" x="926" y="-229.32" font-family="Helvetica,sans-Serif" font-size="11.00">[table]</text>
<polygon fill="none" stroke="black" points="729,-203.12 729,-221.12 961,-221.12 961,-203.12 729,-203.12"/>
<text text-anchor="start" x="732" y="-209.32" font-family="Helvetica,sans-Serif" font-size="11.00">...</text>
<polygon fill="#ffffff" stroke="transparent" points="729,-185.12 729,-203.12 843,-203.12 843,-185.12 729,-185.12"/>
<polygon fill="none" stroke="black" points="729,-185.12 729,-203.12 843,-203.12 843,-185.12 729,-185.12"/>
<text text-anchor="start" x="732" y="-191.32" font-family="Helvetica,sans-Serif" font-size="11.00">&lt; 1</text>
<polygon fill="#ffffff" stroke="transparent" points="843,-185.12 843,-203.12 902,-203.12 902,-185.12 843,-185.12"/>
<polygon fill="none" stroke="black" points="843,-185.12 843,-203.12 902,-203.12 902,-185.12 843,-185.12"/>
<text text-anchor="start" x="892" y="-191.32" font-family="Helvetica,sans-Serif" font-size="11.00"> &#160;</text>
<polygon fill="#ffffff" stroke="transparent" points="902,-185.12 902,-203.12 961,-203.12 961,-185.12 902,-185.12"/>
<polygon fill="none" stroke="black" points="902,-185.12 902,-203.12 961,-203.12 961,-185.12 902,-185.12"/>
<text text-anchor="start" x="951" y="-191.32" font-family="Helvetica,sans-Serif" font-size="11.00"> &#160;</text>
</a>
</g>
</g>
<!-- syst_instance_network_rules&#45;&gt;syst_instances -->
<g id="edge12" class="edge">
<title>syst_instance_network_rules:w&#45;&gt;syst_instances:e</title>
<path fill="none" stroke="black" d="M713.47,-212.7C685.29,-215.19 671.22,-226.13 652,-253.12 619.99,-298.05 667.17,-498.12 612,-498.12"/>
<polygon fill="black" stroke="black" points="720.01,-212.44 728.14,-215.72 724,-212.28 728,-212.12 728,-212.12 728,-212.12 724,-212.28 727.86,-208.52 720.01,-212.44 720.01,-212.44"/>
<ellipse fill="none" stroke="black" cx="716.81" cy="-212.56" rx="3.2" ry="3.2"/>
</g>
<!-- syst_password_history -->
<g id="node12" class="node">
<title>syst_password_history</title>
<g id="a_node12"><a xlink:href="../../tables/syst_password_history.html" xlink:title="syst_password_history" target="_top">
<polygon fill="#ffffff" stroke="transparent" points="749,-664.12 749,-722.12 941,-722.12 941,-664.12 749,-664.12"/>
<polygon fill="#f5f5f5" stroke="transparent" points="749,-700.12 749,-722.12 941,-722.12 941,-700.12 749,-700.12"/>
<polygon fill="none" stroke="black" points="749,-700.12 749,-722.12 941,-722.12 941,-700.12 749,-700.12"/>
<text text-anchor="start" x="754" y="-709.32" font-family="Helvetica,sans-Serif" font-weight="bold" font-size="11.00">syst_password_history</text>
<text text-anchor="start" x="906" y="-708.32" font-family="Helvetica,sans-Serif" font-size="11.00">[table]</text>
<polygon fill="none" stroke="black" points="749,-682.12 749,-700.12 941,-700.12 941,-682.12 749,-682.12"/>
<text text-anchor="start" x="752" y="-688.32" font-family="Helvetica,sans-Serif" font-size="11.00">...</text>
<polygon fill="#ffffff" stroke="transparent" points="749,-664.12 749,-682.12 843,-682.12 843,-664.12 749,-664.12"/>
<polygon fill="none" stroke="black" points="749,-664.12 749,-682.12 843,-682.12 843,-664.12 749,-664.12"/>
<text text-anchor="start" x="752" y="-670.32" font-family="Helvetica,sans-Serif" font-size="11.00">&lt; 1</text>
<polygon fill="#ffffff" stroke="transparent" points="843,-664.12 843,-682.12 892,-682.12 892,-664.12 843,-664.12"/>
<polygon fill="none" stroke="black" points="843,-664.12 843,-682.12 892,-682.12 892,-664.12 843,-664.12"/>
<text text-anchor="start" x="882" y="-670.32" font-family="Helvetica,sans-Serif" font-size="11.00"> &#160;</text>
<polygon fill="#ffffff" stroke="transparent" points="892,-664.12 892,-682.12 941,-682.12 941,-664.12 892,-664.12"/>
<polygon fill="none" stroke="black" points="892,-664.12 892,-682.12 941,-682.12 941,-664.12 892,-664.12"/>
<text text-anchor="start" x="931" y="-670.32" font-family="Helvetica,sans-Serif" font-size="11.00"> &#160;</text>
</a>
</g>
</g>
<!-- syst_password_history&#45;&gt;syst_access_accounts -->
<g id="edge18" class="edge">
<title>syst_password_history:w&#45;&gt;syst_access_accounts:e</title>
<path fill="none" stroke="black" d="M733.47,-690.6C683.95,-686.94 668.37,-665.12 612,-665.12"/>
<polygon fill="black" stroke="black" points="740.01,-690.83 747.87,-694.72 744,-690.98 748,-691.12 748,-691.12 748,-691.12 744,-690.98 748.13,-687.52 740.01,-690.83 740.01,-690.83"/>
<ellipse fill="none" stroke="black" cx="736.81" cy="-690.72" rx="3.2" ry="3.2"/>
</g>
</g>
</svg>
