<?xml version="1.0" encoding="UTF-8" standalone="no"?>
<!DOCTYPE svg PUBLIC "-//W3C//DTD SVG 1.1//EN"
 "http://www.w3.org/Graphics/SVG/1.1/DTD/svg11.dtd">
<!-- Generated by graphviz version 2.43.0 (0)
 -->
<!-- Title: oneDegreeRelationshipsDiagram Pages: 1 -->
<svg width="881pt" height="373pt"
 viewBox="0.00 0.00 881.00 373.00" xmlns="http://www.w3.org/2000/svg" xmlns:xlink="http://www.w3.org/1999/xlink">
<g id="graph0" class="graph" transform="scale(1 1) rotate(0) translate(4 369)">
<title>oneDegreeRelationshipsDiagram</title>
<polygon fill="#ffffff" stroke="transparent" points="-4,4 -4,-369 877,-369 877,4 -4,4"/>
<text text-anchor="middle" x="71.5" y="-7.2" font-family="Helvetica,sans-Serif" font-size="11.00">Generated by SchemaSpy</text>
<!-- syst_instance_type_applications -->
<g id="node1" class="node">
<title>syst_instance_type_applications</title>
<g id="a_node1"><a xlink:href="../../tables/syst_instance_type_applications.html" xlink:title="syst_instance_type_applications" target="_top">
<polygon fill="#ffffff" stroke="transparent" points="251,-37 251,-301 585,-301 585,-37 251,-37"/>
<polygon fill="#f5f5f5" stroke="transparent" points="253,-277 253,-299 583,-299 583,-277 253,-277"/>
<polygon fill="none" stroke="black" points="253,-277 253,-299 583,-299 583,-277 253,-277"/>
<text text-anchor="start" x="258" y="-286.2" font-family="Helvetica,sans-Serif" font-weight="bold" font-size="11.00">syst_instance_type_applications</text>
<text text-anchor="start" x="548" y="-285.2" font-family="Helvetica,sans-Serif" font-size="11.00">[table]</text>
<polygon fill="none" stroke="black" points="253,-255 253,-277 490,-277 490,-255 253,-255"/>
<image xlink:href="../../images/primaryKeys.png" width="11px" height="12px" preserveAspectRatio="xMinYMin meet" x="258" y="-272"/>
<text text-anchor="start" x="273" y="-263.2" font-family="Helvetica,sans-Serif" font-size="11.00">id</text>
<polygon fill="none" stroke="black" points="490,-255 490,-277 583,-277 583,-255 490,-255"/>
<text text-anchor="start" x="493" y="-263.2" font-family="Helvetica,sans-Serif" font-size="11.00">uuid[2147483647]</text>
<polygon fill="#ffffff" stroke="transparent" points="253,-233 253,-255 490,-255 490,-233 253,-233"/>
<polygon fill="none" stroke="black" points="253,-233 253,-255 490,-255 490,-233 253,-233"/>
<image xlink:href="../../images/foreignKeys.png" width="11px" height="12px" preserveAspectRatio="xMinYMin meet" x="258" y="-250"/>
<text text-anchor="start" x="273" y="-241.2" font-family="Helvetica,sans-Serif" font-size="11.00">instance_type_id</text>
<polygon fill="none" stroke="black" points="490,-233 490,-255 583,-255 583,-233 490,-233"/>
<text text-anchor="start" x="493" y="-241.2" font-family="Helvetica,sans-Serif" font-size="11.00">uuid[2147483647]</text>
<polygon fill="#ffffff" stroke="transparent" points="253,-211 253,-233 490,-233 490,-211 253,-211"/>
<polygon fill="none" stroke="black" points="253,-211 253,-233 490,-233 490,-211 253,-211"/>
<image xlink:href="../../images/foreignKeys.png" width="11px" height="12px" preserveAspectRatio="xMinYMin meet" x="258" y="-228"/>
<text text-anchor="start" x="273" y="-219.2" font-family="Helvetica,sans-Serif" font-size="11.00">application_id</text>
<polygon fill="none" stroke="black" points="490,-211 490,-233 583,-233 583,-211 490,-211"/>
<text text-anchor="start" x="493" y="-219.2" font-family="Helvetica,sans-Serif" font-size="11.00">uuid[2147483647]</text>
<polygon fill="none" stroke="black" points="253,-189 253,-211 490,-211 490,-189 253,-189"/>
<text text-anchor="start" x="273" y="-197.2" font-family="Helvetica,sans-Serif" font-size="11.00">diag_timestamp_created</text>
<polygon fill="none" stroke="black" points="490,-189 490,-211 583,-211 583,-189 490,-189"/>
<text text-anchor="start" x="493" y="-197.2" font-family="Helvetica,sans-Serif" font-size="11.00">timestamptz[35,6]</text>
<polygon fill="none" stroke="black" points="253,-167 253,-189 490,-189 490,-167 253,-167"/>
<text text-anchor="start" x="273" y="-175.2" font-family="Helvetica,sans-Serif" font-size="11.00">diag_role_created</text>
<polygon fill="none" stroke="black" points="490,-167 490,-189 583,-189 583,-167 490,-167"/>
<text text-anchor="start" x="493" y="-175.2" font-family="Helvetica,sans-Serif" font-size="11.00">text[2147483647]</text>
<polygon fill="none" stroke="black" points="253,-145 253,-167 490,-167 490,-145 253,-145"/>
<text text-anchor="start" x="273" y="-153.2" font-family="Helvetica,sans-Serif" font-size="11.00">diag_timestamp_modified</text>
<polygon fill="none" stroke="black" points="490,-145 490,-167 583,-167 583,-145 490,-145"/>
<text text-anchor="start" x="493" y="-153.2" font-family="Helvetica,sans-Serif" font-size="11.00">timestamptz[35,6]</text>
<polygon fill="none" stroke="black" points="253,-123 253,-145 490,-145 490,-123 253,-123"/>
<text text-anchor="start" x="273" y="-131.2" font-family="Helvetica,sans-Serif" font-size="11.00">diag_wallclock_modified</text>
<polygon fill="none" stroke="black" points="490,-123 490,-145 583,-145 583,-123 490,-123"/>
<text text-anchor="start" x="493" y="-131.2" font-family="Helvetica,sans-Serif" font-size="11.00">timestamptz[35,6]</text>
<polygon fill="none" stroke="black" points="253,-101 253,-123 490,-123 490,-101 253,-101"/>
<text text-anchor="start" x="273" y="-109.2" font-family="Helvetica,sans-Serif" font-size="11.00">diag_role_modified</text>
<polygon fill="none" stroke="black" points="490,-101 490,-123 583,-123 583,-101 490,-101"/>
<text text-anchor="start" x="493" y="-109.2" font-family="Helvetica,sans-Serif" font-size="11.00">text[2147483647]</text>
<polygon fill="none" stroke="black" points="253,-79 253,-101 490,-101 490,-79 253,-79"/>
<text text-anchor="start" x="273" y="-87.2" font-family="Helvetica,sans-Serif" font-size="11.00">diag_row_version</text>
<polygon fill="none" stroke="black" points="490,-79 490,-101 583,-101 583,-79 490,-79"/>
<text text-anchor="start" x="493" y="-87.2" font-family="Helvetica,sans-Serif" font-size="11.00">int8[19]</text>
<polygon fill="none" stroke="black" points="253,-57 253,-79 490,-79 490,-57 253,-57"/>
<text text-anchor="start" x="273" y="-65.2" font-family="Helvetica,sans-Serif" font-size="11.00">diag_update_count</text>
<polygon fill="none" stroke="black" points="490,-57 490,-79 583,-79 583,-57 490,-57"/>
<text text-anchor="start" x="493" y="-65.2" font-family="Helvetica,sans-Serif" font-size="11.00">int8[19]</text>
<polygon fill="#ffffff" stroke="transparent" points="253,-39 253,-57 376,-57 376,-39 253,-39"/>
<polygon fill="none" stroke="black" points="253,-39 253,-57 376,-57 376,-39 253,-39"/>
<text text-anchor="start" x="256" y="-45.2" font-family="Helvetica,sans-Serif" font-size="11.00">&lt; 2</text>
<polygon fill="#ffffff" stroke="transparent" points="376,-39 376,-57 490,-57 490,-39 376,-39"/>
<polygon fill="none" stroke="black" points="376,-39 376,-57 490,-57 490,-39 376,-39"/>
<text text-anchor="start" x="480" y="-45.2" font-family="Helvetica,sans-Serif" font-size="11.00"> &#160;</text>
<polygon fill="#ffffff" stroke="transparent" points="490,-39 490,-57 583,-57 583,-39 490,-39"/>
<polygon fill="none" stroke="black" points="490,-39 490,-57 583,-57 583,-39 490,-39"/>
<text text-anchor="start" x="564" y="-45.2" font-family="Helvetica,sans-Serif" font-size="11.00">1 &gt;</text>
<polygon fill="none" stroke="black" stroke-width="2" points="252,-38 252,-300 584,-300 584,-38 252,-38"/>
</a>
</g>
</g>
<!-- syst_applications -->
<g id="node2" class="node">
<title>syst_applications</title>
<g id="a_node2"><a xlink:href="../../tables/syst_applications.html" xlink:title="syst_applications" target="_top">
<polygon fill="#ffffff" stroke="transparent" points="8,-48 8,-172 202,-172 202,-48 8,-48"/>
<polygon fill="#f5f5f5" stroke="transparent" points="8,-150 8,-172 202,-172 202,-150 8,-150"/>
<polygon fill="none" stroke="black" points="8,-150 8,-172 202,-172 202,-150 8,-150"/>
<text text-anchor="start" x="13" y="-159.2" font-family="Helvetica,sans-Serif" font-weight="bold" font-size="11.00">syst_applications</text>
<text text-anchor="start" x="167" y="-158.2" font-family="Helvetica,sans-Serif" font-size="11.00">[table]</text>
<polygon fill="none" stroke="black" points="8,-128 8,-150 202,-150 202,-128 8,-128"/>
<image xlink:href="../../images/primaryKeys.png" width="11px" height="12px" preserveAspectRatio="xMinYMin meet" x="13" y="-145"/>
<text text-anchor="start" x="28" y="-136.2" font-family="Helvetica,sans-Serif" font-size="11.00">id</text>
<polygon fill="#ffffff" stroke="transparent" points="8,-106 8,-128 202,-128 202,-106 8,-106"/>
<polygon fill="none" stroke="black" points="8,-106 8,-128 202,-128 202,-106 8,-106"/>
<text text-anchor="start" x="28" y="-114.2" font-family="Helvetica,sans-Serif" font-size="11.00">internal_name</text>
<polygon fill="#ffffff" stroke="transparent" points="8,-84 8,-106 202,-106 202,-84 8,-84"/>
<polygon fill="none" stroke="black" points="8,-84 8,-106 202,-106 202,-84 8,-84"/>
<text text-anchor="start" x="28" y="-92.2" font-family="Helvetica,sans-Serif" font-size="11.00">display_name</text>
<polygon fill="none" stroke="black" points="8,-66 8,-84 202,-84 202,-66 8,-66"/>
<text text-anchor="start" x="11" y="-72.2" font-family="Helvetica,sans-Serif" font-size="11.00">...</text>
<polygon fill="#ffffff" stroke="transparent" points="8,-48 8,-66 94,-66 94,-48 8,-48"/>
<polygon fill="none" stroke="black" points="8,-48 8,-66 94,-66 94,-48 8,-48"/>
<text text-anchor="start" x="11" y="-54.2" font-family="Helvetica,sans-Serif" font-size="11.00"> &#160;</text>
<polygon fill="#ffffff" stroke="transparent" points="94,-48 94,-66 143,-66 143,-48 94,-48"/>
<polygon fill="none" stroke="black" points="94,-48 94,-66 143,-66 143,-48 94,-48"/>
<text text-anchor="start" x="133" y="-54.2" font-family="Helvetica,sans-Serif" font-size="11.00"> &#160;</text>
<polygon fill="#ffffff" stroke="transparent" points="143,-48 143,-66 202,-66 202,-48 143,-48"/>
<polygon fill="none" stroke="black" points="143,-48 143,-66 202,-66 202,-48 143,-48"/>
<text text-anchor="start" x="183" y="-54.2" font-family="Helvetica,sans-Serif" font-size="11.00">3 &gt;</text>
</a>
</g>
</g>
<!-- syst_instance_type_applications&#45;&gt;syst_applications -->
<g id="edge1" class="edge">
<title>syst_instance_type_applications:w&#45;&gt;syst_applications:e</title>
<path fill="none" stroke="black" d="M238.2,-217.54C217.9,-200.3 239.81,-139 203,-139"/>
<polygon fill="black" stroke="black" points="244.39,-219.54 250.89,-225.43 248.19,-220.77 252,-222 252,-222 252,-222 248.19,-220.77 253.11,-218.57 244.39,-219.54 244.39,-219.54"/>
<ellipse fill="none" stroke="black" cx="241.34" cy="-218.55" rx="3.2" ry="3.2"/>
</g>
<!-- syst_enum_items -->
<g id="node3" class="node">
<title>syst_enum_items</title>
<g id="a_node3"><a xlink:href="../../tables/syst_enum_items.html" xlink:title="syst_enum_items" target="_top">
<polygon fill="#ffffff" stroke="transparent" points="8,-193 8,-361 202,-361 202,-193 8,-193"/>
<polygon fill="#f5f5f5" stroke="transparent" points="8,-339 8,-361 202,-361 202,-339 8,-339"/>
<polygon fill="none" stroke="black" points="8,-339 8,-361 202,-361 202,-339 8,-339"/>
<text text-anchor="start" x="13" y="-348.2" font-family="Helvetica,sans-Serif" font-weight="bold" font-size="11.00">syst_enum_items</text>
<text text-anchor="start" x="167" y="-347.2" font-family="Helvetica,sans-Serif" font-size="11.00">[table]</text>
<polygon fill="none" stroke="black" points="8,-317 8,-339 202,-339 202,-317 8,-317"/>
<image xlink:href="../../images/primaryKeys.png" width="11px" height="12px" preserveAspectRatio="xMinYMin meet" x="13" y="-334"/>
<text text-anchor="start" x="28" y="-325.2" font-family="Helvetica,sans-Serif" font-size="11.00">id</text>
<polygon fill="#ffffff" stroke="transparent" points="8,-295 8,-317 202,-317 202,-295 8,-295"/>
<polygon fill="none" stroke="black" points="8,-295 8,-317 202,-317 202,-295 8,-295"/>
<text text-anchor="start" x="28" y="-303.2" font-family="Helvetica,sans-Serif" font-size="11.00">internal_name</text>
<polygon fill="#ffffff" stroke="transparent" points="8,-273 8,-295 202,-295 202,-273 8,-273"/>
<polygon fill="none" stroke="black" points="8,-273 8,-295 202,-295 202,-273 8,-273"/>
<text text-anchor="start" x="28" y="-281.2" font-family="Helvetica,sans-Serif" font-size="11.00">display_name</text>
<polygon fill="none" stroke="black" points="8,-251 8,-273 202,-273 202,-251 8,-251"/>
<image xlink:href="../../images/foreignKeys.png" width="11px" height="12px" preserveAspectRatio="xMinYMin meet" x="13" y="-268"/>
<text text-anchor="start" x="28" y="-259.2" font-family="Helvetica,sans-Serif" font-size="11.00">enum_id</text>
<polygon fill="none" stroke="black" points="8,-229 8,-251 202,-251 202,-229 8,-229"/>
<image xlink:href="../../images/foreignKeys.png" width="11px" height="12px" preserveAspectRatio="xMinYMin meet" x="13" y="-246"/>
<text text-anchor="start" x="28" y="-237.2" font-family="Helvetica,sans-Serif" font-size="11.00">functional_type_id</text>
<polygon fill="none" stroke="black" points="8,-211 8,-229 202,-229 202,-211 8,-211"/>
<text text-anchor="start" x="11" y="-217.2" font-family="Helvetica,sans-Serif" font-size="11.00">...</text>
<polygon fill="#ffffff" stroke="transparent" points="8,-193 8,-211 95,-211 95,-193 8,-193"/>
<polygon fill="none" stroke="black" points="8,-193 8,-211 95,-211 95,-193 8,-193"/>
<text text-anchor="start" x="11" y="-199.2" font-family="Helvetica,sans-Serif" font-size="11.00">&lt; 2</text>
<polygon fill="#ffffff" stroke="transparent" points="95,-193 95,-211 141,-211 141,-193 95,-193"/>
<polygon fill="none" stroke="black" points="95,-193 95,-211 141,-211 141,-193 95,-193"/>
<text text-anchor="start" x="131" y="-199.2" font-family="Helvetica,sans-Serif" font-size="11.00"> &#160;</text>
<polygon fill="#ffffff" stroke="transparent" points="141,-193 141,-211 202,-211 202,-193 141,-193"/>
<polygon fill="none" stroke="black" points="141,-193 141,-211 202,-211 202,-193 141,-193"/>
<text text-anchor="start" x="177" y="-199.2" font-family="Helvetica,sans-Serif" font-size="11.00">10 &gt;</text>
</a>
</g>
</g>
<!-- syst_instance_type_applications&#45;&gt;syst_enum_items -->
<g id="edge2" class="edge">
<title>syst_instance_type_applications:w&#45;&gt;syst_enum_items:e</title>
<path fill="none" stroke="black" d="M238.1,-248.52C217.71,-265.96 240.14,-328 203,-328"/>
<polygon fill="black" stroke="black" points="244.39,-246.47 253.11,-247.42 248.2,-245.24 252,-244 252,-244 252,-244 248.2,-245.24 250.89,-240.58 244.39,-246.47 244.39,-246.47"/>
<ellipse fill="none" stroke="black" cx="241.35" cy="-247.46" rx="3.2" ry="3.2"/>
</g>
<!-- syst_instance_type_contexts -->
<g id="node4" class="node">
<title>syst_instance_type_contexts</title>
<g id="a_node4"><a xlink:href="../../tables/syst_instance_type_contexts.html" xlink:title="syst_instance_type_contexts" target="_top">
<polygon fill="#ffffff" stroke="transparent" points="634,-197 634,-321 865,-321 865,-197 634,-197"/>
<polygon fill="#f5f5f5" stroke="transparent" points="634.5,-299 634.5,-321 865.5,-321 865.5,-299 634.5,-299"/>
<polygon fill="none" stroke="black" points="634.5,-299 634.5,-321 865.5,-321 865.5,-299 634.5,-299"/>
<text text-anchor="start" x="639.5" y="-308.2" font-family="Helvetica,sans-Serif" font-weight="bold" font-size="11.00">syst_instance_type_contexts</text>
<text text-anchor="start" x="830.5" y="-307.2" font-family="Helvetica,sans-Serif" font-size="11.00">[table]</text>
<polygon fill="none" stroke="black" points="634.5,-277 634.5,-299 865.5,-299 865.5,-277 634.5,-277"/>
<image xlink:href="../../images/primaryKeys.png" width="11px" height="12px" preserveAspectRatio="xMinYMin meet" x="639.5" y="-294"/>
<text text-anchor="start" x="663.5" y="-285.2" font-family="Helvetica,sans-Serif" font-size="11.00">id</text>
<polygon fill="#ffffff" stroke="transparent" points="634.5,-255 634.5,-277 865.5,-277 865.5,-255 634.5,-255"/>
<polygon fill="none" stroke="black" points="634.5,-255 634.5,-277 865.5,-277 865.5,-255 634.5,-255"/>
<image xlink:href="../../images/foreignKeys.png" width="11px" height="12px" preserveAspectRatio="xMinYMin meet" x="639.5" y="-272"/>
<text text-anchor="start" x="663.5" y="-263.2" font-family="Helvetica,sans-Serif" font-size="11.00">instance_type_application_id</text>
<polygon fill="#ffffff" stroke="transparent" points="634.5,-233 634.5,-255 865.5,-255 865.5,-233 634.5,-233"/>
<polygon fill="none" stroke="black" points="634.5,-233 634.5,-255 865.5,-255 865.5,-233 634.5,-233"/>
<image xlink:href="../../images/foreignKeys.png" width="11px" height="12px" preserveAspectRatio="xMinYMin meet" x="639.5" y="-250"/>
<text text-anchor="start" x="663.5" y="-241.2" font-family="Helvetica,sans-Serif" font-size="11.00">application_context_id</text>
<polygon fill="none" stroke="black" points="634.5,-215 634.5,-233 865.5,-233 865.5,-215 634.5,-215"/>
<text text-anchor="start" x="637.5" y="-221.2" font-family="Helvetica,sans-Serif" font-size="11.00">...</text>
<polygon fill="#ffffff" stroke="transparent" points="634.5,-197 634.5,-215 747.5,-215 747.5,-197 634.5,-197"/>
<polygon fill="none" stroke="black" points="634.5,-197 634.5,-215 747.5,-215 747.5,-197 634.5,-197"/>
<text text-anchor="start" x="637.5" y="-203.2" font-family="Helvetica,sans-Serif" font-size="11.00">&lt; 2</text>
<polygon fill="#ffffff" stroke="transparent" points="747.5,-197 747.5,-215 806.5,-215 806.5,-197 747.5,-197"/>
<polygon fill="none" stroke="black" points="747.5,-197 747.5,-215 806.5,-215 806.5,-197 747.5,-197"/>
<text text-anchor="start" x="796.5" y="-203.2" font-family="Helvetica,sans-Serif" font-size="11.00"> &#160;</text>
<polygon fill="#ffffff" stroke="transparent" points="806.5,-197 806.5,-215 865.5,-215 865.5,-197 806.5,-197"/>
<polygon fill="none" stroke="black" points="806.5,-197 806.5,-215 865.5,-215 865.5,-197 806.5,-197"/>
<text text-anchor="start" x="855.5" y="-203.2" font-family="Helvetica,sans-Serif" font-size="11.00"> &#160;</text>
</a>
</g>
</g>
<!-- syst_instance_type_contexts&#45;&gt;syst_instance_type_applications -->
<g id="edge3" class="edge">
<title>syst_instance_type_contexts:w&#45;&gt;syst_instance_type_applications:e</title>
<path fill="none" stroke="black" d="M618.84,-266C607.41,-266 600.16,-266 584,-266"/>
<polygon fill="black" stroke="black" points="625.5,-266 633.5,-269.6 629.5,-266 633.5,-266 633.5,-266 633.5,-266 629.5,-266 633.5,-262.4 625.5,-266 625.5,-266"/>
<ellipse fill="none" stroke="black" cx="622.3" cy="-266" rx="3.2" ry="3.2"/>
</g>
</g>
</svg>
