<?xml version="1.0" encoding="UTF-8" standalone="no"?>
<!DOCTYPE svg PUBLIC "-//W3C//DTD SVG 1.1//EN"
 "http://www.w3.org/Graphics/SVG/1.1/DTD/svg11.dtd">
<!-- Generated by graphviz version 2.43.0 (0)
 -->
<!-- Title: oneDegreeRelationshipsDiagram Pages: 1 -->
<svg width="836pt" height="531pt"
 viewBox="0.00 0.00 836.00 531.00" xmlns="http://www.w3.org/2000/svg" xmlns:xlink="http://www.w3.org/1999/xlink">
<g id="graph0" class="graph" transform="scale(1 1) rotate(0) translate(4 527)">
<title>oneDegreeRelationshipsDiagram</title>
<polygon fill="#ffffff" stroke="transparent" points="-4,4 -4,-527 832,-527 832,4 -4,4"/>
<text text-anchor="middle" x="71.5" y="-7.2" font-family="Helvetica,sans-Serif" font-size="11.00">Generated by SchemaSpy</text>
<!-- syst_perm_role_grants -->
<g id="node1" class="node">
<title>syst_perm_role_grants</title>
<g id="a_node1"><a xlink:href="../../tables/syst_perm_role_grants.html" xlink:title="syst_perm_role_grants" target="_top">
<polygon fill="#ffffff" stroke="transparent" points="626,-395 626,-519 820,-519 820,-395 626,-395"/>
<polygon fill="#f5f5f5" stroke="transparent" points="626,-497 626,-519 820,-519 820,-497 626,-497"/>
<polygon fill="none" stroke="black" points="626,-497 626,-519 820,-519 820,-497 626,-497"/>
<text text-anchor="start" x="631" y="-506.2" font-family="Helvetica,sans-Serif" font-weight="bold" font-size="11.00">syst_perm_role_grants</text>
<text text-anchor="start" x="785" y="-505.2" font-family="Helvetica,sans-Serif" font-size="11.00">[table]</text>
<polygon fill="none" stroke="black" points="626,-475 626,-497 820,-497 820,-475 626,-475"/>
<image xlink:href="../../images/primaryKeys.png" width="11px" height="12px" preserveAspectRatio="xMinYMin meet" x="631" y="-492"/>
<text text-anchor="start" x="646" y="-483.2" font-family="Helvetica,sans-Serif" font-size="11.00">id</text>
<polygon fill="#ffffff" stroke="transparent" points="626,-453 626,-475 820,-475 820,-453 626,-453"/>
<polygon fill="none" stroke="black" points="626,-453 626,-475 820,-475 820,-453 626,-453"/>
<image xlink:href="../../images/foreignKeys.png" width="11px" height="12px" preserveAspectRatio="xMinYMin meet" x="631" y="-470"/>
<text text-anchor="start" x="646" y="-461.2" font-family="Helvetica,sans-Serif" font-size="11.00">perm_role_id</text>
<polygon fill="#ffffff" stroke="transparent" points="626,-431 626,-453 820,-453 820,-431 626,-431"/>
<polygon fill="none" stroke="black" points="626,-431 626,-453 820,-453 820,-431 626,-431"/>
<image xlink:href="../../images/foreignKeys.png" width="11px" height="12px" preserveAspectRatio="xMinYMin meet" x="631" y="-448"/>
<text text-anchor="start" x="646" y="-439.2" font-family="Helvetica,sans-Serif" font-size="11.00">perm_id</text>
<polygon fill="none" stroke="black" points="626,-413 626,-431 820,-431 820,-413 626,-413"/>
<text text-anchor="start" x="629" y="-419.2" font-family="Helvetica,sans-Serif" font-size="11.00">...</text>
<polygon fill="#ffffff" stroke="transparent" points="626,-395 626,-413 721,-413 721,-395 626,-395"/>
<polygon fill="none" stroke="black" points="626,-395 626,-413 721,-413 721,-395 626,-395"/>
<text text-anchor="start" x="629" y="-401.2" font-family="Helvetica,sans-Serif" font-size="11.00">&lt; 2</text>
<polygon fill="#ffffff" stroke="transparent" points="721,-395 721,-413 770,-413 770,-395 721,-395"/>
<polygon fill="none" stroke="black" points="721,-395 721,-413 770,-413 770,-395 721,-395"/>
<text text-anchor="start" x="760" y="-401.2" font-family="Helvetica,sans-Serif" font-size="11.00"> &#160;</text>
<polygon fill="#ffffff" stroke="transparent" points="770,-395 770,-413 820,-413 820,-395 770,-395"/>
<polygon fill="none" stroke="black" points="770,-395 770,-413 820,-413 820,-395 770,-395"/>
<text text-anchor="start" x="810" y="-401.2" font-family="Helvetica,sans-Serif" font-size="11.00"> &#160;</text>
</a>
</g>
</g>
<!-- syst_perms -->
<g id="node2" class="node">
<title>syst_perms</title>
<g id="a_node2"><a xlink:href="../../tables/syst_perms.html" xlink:title="syst_perms" target="_top">
<polygon fill="#ffffff" stroke="transparent" points="283,-37 283,-477 577,-477 577,-37 283,-37"/>
<polygon fill="#f5f5f5" stroke="transparent" points="285,-453 285,-475 575,-475 575,-453 285,-453"/>
<polygon fill="none" stroke="black" points="285,-453 285,-475 575,-475 575,-453 285,-453"/>
<text text-anchor="start" x="290" y="-462.2" font-family="Helvetica,sans-Serif" font-weight="bold" font-size="11.00">syst_perms</text>
<text text-anchor="start" x="540" y="-461.2" font-family="Helvetica,sans-Serif" font-size="11.00">[table]</text>
<polygon fill="none" stroke="black" points="285,-431 285,-453 479,-453 479,-431 285,-431"/>
<image xlink:href="../../images/primaryKeys.png" width="11px" height="12px" preserveAspectRatio="xMinYMin meet" x="290" y="-448"/>
<text text-anchor="start" x="305" y="-439.2" font-family="Helvetica,sans-Serif" font-size="11.00">id</text>
<polygon fill="none" stroke="black" points="479,-431 479,-453 575,-453 575,-431 479,-431"/>
<text text-anchor="start" x="482" y="-439.2" font-family="Helvetica,sans-Serif" font-size="11.00">uuid[2147483647]</text>
<polygon fill="#ffffff" stroke="transparent" points="285,-409 285,-431 479,-431 479,-409 285,-409"/>
<polygon fill="none" stroke="black" points="285,-409 285,-431 479,-431 479,-409 285,-409"/>
<text text-anchor="start" x="305" y="-417.2" font-family="Helvetica,sans-Serif" font-size="11.00">internal_name</text>
<polygon fill="none" stroke="black" points="479,-409 479,-431 575,-431 575,-409 479,-409"/>
<text text-anchor="start" x="482" y="-417.2" font-family="Helvetica,sans-Serif" font-size="11.00">text[2147483647]</text>
<polygon fill="#ffffff" stroke="transparent" points="285,-387 285,-409 479,-409 479,-387 285,-387"/>
<polygon fill="none" stroke="black" points="285,-387 285,-409 479,-409 479,-387 285,-387"/>
<text text-anchor="start" x="305" y="-395.2" font-family="Helvetica,sans-Serif" font-size="11.00">display_name</text>
<polygon fill="none" stroke="black" points="479,-387 479,-409 575,-409 575,-387 479,-387"/>
<text text-anchor="start" x="482" y="-395.2" font-family="Helvetica,sans-Serif" font-size="11.00">text[2147483647]</text>
<polygon fill="none" stroke="black" points="285,-365 285,-387 479,-387 479,-365 285,-365"/>
<image xlink:href="../../images/foreignKeys.png" width="11px" height="12px" preserveAspectRatio="xMinYMin meet" x="290" y="-382"/>
<text text-anchor="start" x="305" y="-373.2" font-family="Helvetica,sans-Serif" font-size="11.00">perm_functional_type_id</text>
<polygon fill="none" stroke="black" points="479,-365 479,-387 575,-387 575,-365 479,-365"/>
<text text-anchor="start" x="482" y="-373.2" font-family="Helvetica,sans-Serif" font-size="11.00">uuid[2147483647]</text>
<polygon fill="none" stroke="black" points="285,-343 285,-365 479,-365 479,-343 285,-343"/>
<text text-anchor="start" x="305" y="-351.2" font-family="Helvetica,sans-Serif" font-size="11.00">syst_defined</text>
<polygon fill="none" stroke="black" points="479,-343 479,-365 575,-365 575,-343 479,-343"/>
<text text-anchor="start" x="482" y="-351.2" font-family="Helvetica,sans-Serif" font-size="11.00">bool[1]</text>
<polygon fill="none" stroke="black" points="285,-321 285,-343 479,-343 479,-321 285,-321"/>
<text text-anchor="start" x="305" y="-329.2" font-family="Helvetica,sans-Serif" font-size="11.00">syst_description</text>
<polygon fill="none" stroke="black" points="479,-321 479,-343 575,-343 575,-321 479,-321"/>
<text text-anchor="start" x="482" y="-329.2" font-family="Helvetica,sans-Serif" font-size="11.00">text[2147483647]</text>
<polygon fill="none" stroke="black" points="285,-299 285,-321 479,-321 479,-299 285,-299"/>
<text text-anchor="start" x="305" y="-307.2" font-family="Helvetica,sans-Serif" font-size="11.00">user_description</text>
<polygon fill="none" stroke="black" points="479,-299 479,-321 575,-321 575,-299 479,-299"/>
<text text-anchor="start" x="482" y="-307.2" font-family="Helvetica,sans-Serif" font-size="11.00">text[2147483647]</text>
<polygon fill="none" stroke="black" points="285,-277 285,-299 479,-299 479,-277 285,-277"/>
<text text-anchor="start" x="305" y="-285.2" font-family="Helvetica,sans-Serif" font-size="11.00">view_scope_options</text>
<polygon fill="none" stroke="black" points="479,-277 479,-299 575,-299 575,-277 479,-277"/>
<text text-anchor="start" x="482" y="-285.2" font-family="Helvetica,sans-Serif" font-size="11.00">_text[2147483647]</text>
<polygon fill="none" stroke="black" points="285,-255 285,-277 479,-277 479,-255 285,-255"/>
<text text-anchor="start" x="305" y="-263.2" font-family="Helvetica,sans-Serif" font-size="11.00">maint_scope_options</text>
<polygon fill="none" stroke="black" points="479,-255 479,-277 575,-277 575,-255 479,-255"/>
<text text-anchor="start" x="482" y="-263.2" font-family="Helvetica,sans-Serif" font-size="11.00">_text[2147483647]</text>
<polygon fill="none" stroke="black" points="285,-233 285,-255 479,-255 479,-233 285,-233"/>
<text text-anchor="start" x="305" y="-241.2" font-family="Helvetica,sans-Serif" font-size="11.00">admin_scope_options</text>
<polygon fill="none" stroke="black" points="479,-233 479,-255 575,-255 575,-233 479,-233"/>
<text text-anchor="start" x="482" y="-241.2" font-family="Helvetica,sans-Serif" font-size="11.00">_text[2147483647]</text>
<polygon fill="none" stroke="black" points="285,-211 285,-233 479,-233 479,-211 285,-211"/>
<text text-anchor="start" x="305" y="-219.2" font-family="Helvetica,sans-Serif" font-size="11.00">ops_scope_options</text>
<polygon fill="none" stroke="black" points="479,-211 479,-233 575,-233 575,-211 479,-211"/>
<text text-anchor="start" x="482" y="-219.2" font-family="Helvetica,sans-Serif" font-size="11.00">_text[2147483647]</text>
<polygon fill="none" stroke="black" points="285,-189 285,-211 479,-211 479,-189 285,-189"/>
<text text-anchor="start" x="305" y="-197.2" font-family="Helvetica,sans-Serif" font-size="11.00">diag_timestamp_created</text>
<polygon fill="none" stroke="black" points="479,-189 479,-211 575,-211 575,-189 479,-189"/>
<text text-anchor="start" x="482" y="-197.2" font-family="Helvetica,sans-Serif" font-size="11.00">timestamptz[35,6]</text>
<polygon fill="none" stroke="black" points="285,-167 285,-189 479,-189 479,-167 285,-167"/>
<text text-anchor="start" x="305" y="-175.2" font-family="Helvetica,sans-Serif" font-size="11.00">diag_role_created</text>
<polygon fill="none" stroke="black" points="479,-167 479,-189 575,-189 575,-167 479,-167"/>
<text text-anchor="start" x="482" y="-175.2" font-family="Helvetica,sans-Serif" font-size="11.00">text[2147483647]</text>
<polygon fill="none" stroke="black" points="285,-145 285,-167 479,-167 479,-145 285,-145"/>
<text text-anchor="start" x="305" y="-153.2" font-family="Helvetica,sans-Serif" font-size="11.00">diag_timestamp_modified</text>
<polygon fill="none" stroke="black" points="479,-145 479,-167 575,-167 575,-145 479,-145"/>
<text text-anchor="start" x="482" y="-153.2" font-family="Helvetica,sans-Serif" font-size="11.00">timestamptz[35,6]</text>
<polygon fill="none" stroke="black" points="285,-123 285,-145 479,-145 479,-123 285,-123"/>
<text text-anchor="start" x="305" y="-131.2" font-family="Helvetica,sans-Serif" font-size="11.00">diag_wallclock_modified</text>
<polygon fill="none" stroke="black" points="479,-123 479,-145 575,-145 575,-123 479,-123"/>
<text text-anchor="start" x="482" y="-131.2" font-family="Helvetica,sans-Serif" font-size="11.00">timestamptz[35,6]</text>
<polygon fill="none" stroke="black" points="285,-101 285,-123 479,-123 479,-101 285,-101"/>
<text text-anchor="start" x="305" y="-109.2" font-family="Helvetica,sans-Serif" font-size="11.00">diag_role_modified</text>
<polygon fill="none" stroke="black" points="479,-101 479,-123 575,-123 575,-101 479,-101"/>
<text text-anchor="start" x="482" y="-109.2" font-family="Helvetica,sans-Serif" font-size="11.00">text[2147483647]</text>
<polygon fill="none" stroke="black" points="285,-79 285,-101 479,-101 479,-79 285,-79"/>
<text text-anchor="start" x="305" y="-87.2" font-family="Helvetica,sans-Serif" font-size="11.00">diag_row_version</text>
<polygon fill="none" stroke="black" points="479,-79 479,-101 575,-101 575,-79 479,-79"/>
<text text-anchor="start" x="482" y="-87.2" font-family="Helvetica,sans-Serif" font-size="11.00">int8[19]</text>
<polygon fill="none" stroke="black" points="285,-57 285,-79 479,-79 479,-57 285,-57"/>
<text text-anchor="start" x="305" y="-65.2" font-family="Helvetica,sans-Serif" font-size="11.00">diag_update_count</text>
<polygon fill="none" stroke="black" points="479,-57 479,-79 575,-79 575,-57 479,-57"/>
<text text-anchor="start" x="482" y="-65.2" font-family="Helvetica,sans-Serif" font-size="11.00">int8[19]</text>
<polygon fill="#ffffff" stroke="transparent" points="285,-39 285,-57 386,-57 386,-39 285,-39"/>
<polygon fill="none" stroke="black" points="285,-39 285,-57 386,-57 386,-39 285,-39"/>
<text text-anchor="start" x="288" y="-45.2" font-family="Helvetica,sans-Serif" font-size="11.00">&lt; 1</text>
<polygon fill="#ffffff" stroke="transparent" points="386,-39 386,-57 479,-57 479,-39 386,-39"/>
<polygon fill="none" stroke="black" points="386,-39 386,-57 479,-57 479,-39 386,-39"/>
<text text-anchor="start" x="469" y="-45.2" font-family="Helvetica,sans-Serif" font-size="11.00"> &#160;</text>
<polygon fill="#ffffff" stroke="transparent" points="479,-39 479,-57 575,-57 575,-39 479,-39"/>
<polygon fill="none" stroke="black" points="479,-39 479,-57 575,-57 575,-39 479,-39"/>
<text text-anchor="start" x="556" y="-45.2" font-family="Helvetica,sans-Serif" font-size="11.00">1 &gt;</text>
<polygon fill="none" stroke="black" stroke-width="2" points="284,-38 284,-476 576,-476 576,-38 284,-38"/>
</a>
</g>
</g>
<!-- syst_perm_role_grants&#45;&gt;syst_perms -->
<g id="edge1" class="edge">
<title>syst_perm_role_grants:w&#45;&gt;syst_perms:e</title>
<path fill="none" stroke="black" d="M610.49,-442C599.18,-442 591.99,-442 576,-442"/>
<polygon fill="black" stroke="black" points="617,-442 625,-445.6 621,-442 625,-442 625,-442 625,-442 621,-442 625,-438.4 617,-442 617,-442"/>
<ellipse fill="none" stroke="black" cx="613.8" cy="-442" rx="3.2" ry="3.2"/>
</g>
<!-- syst_perm_functional_types -->
<g id="node3" class="node">
<title>syst_perm_functional_types</title>
<g id="a_node3"><a xlink:href="../../tables/syst_perm_functional_types.html" xlink:title="syst_perm_functional_types" target="_top">
<polygon fill="#ffffff" stroke="transparent" points="8,-285 8,-409 234,-409 234,-285 8,-285"/>
<polygon fill="#f5f5f5" stroke="transparent" points="8,-387 8,-409 234,-409 234,-387 8,-387"/>
<polygon fill="none" stroke="black" points="8,-387 8,-409 234,-409 234,-387 8,-387"/>
<text text-anchor="start" x="13" y="-396.2" font-family="Helvetica,sans-Serif" font-weight="bold" font-size="11.00">syst_perm_functional_types</text>
<text text-anchor="start" x="199" y="-395.2" font-family="Helvetica,sans-Serif" font-size="11.00">[table]</text>
<polygon fill="none" stroke="black" points="8,-365 8,-387 234,-387 234,-365 8,-365"/>
<image xlink:href="../../images/primaryKeys.png" width="11px" height="12px" preserveAspectRatio="xMinYMin meet" x="13" y="-382"/>
<text text-anchor="start" x="38" y="-373.2" font-family="Helvetica,sans-Serif" font-size="11.00">id</text>
<polygon fill="#ffffff" stroke="transparent" points="8,-343 8,-365 234,-365 234,-343 8,-343"/>
<polygon fill="none" stroke="black" points="8,-343 8,-365 234,-365 234,-343 8,-343"/>
<text text-anchor="start" x="38" y="-351.2" font-family="Helvetica,sans-Serif" font-size="11.00">internal_name</text>
<polygon fill="#ffffff" stroke="transparent" points="8,-321 8,-343 234,-343 234,-321 8,-321"/>
<polygon fill="none" stroke="black" points="8,-321 8,-343 234,-343 234,-321 8,-321"/>
<text text-anchor="start" x="38" y="-329.2" font-family="Helvetica,sans-Serif" font-size="11.00">display_name</text>
<polygon fill="none" stroke="black" points="8,-303 8,-321 234,-321 234,-303 8,-303"/>
<text text-anchor="start" x="11" y="-309.2" font-family="Helvetica,sans-Serif" font-size="11.00">...</text>
<polygon fill="#ffffff" stroke="transparent" points="8,-285 8,-303 110,-303 110,-285 8,-285"/>
<polygon fill="none" stroke="black" points="8,-285 8,-303 110,-303 110,-285 8,-285"/>
<text text-anchor="start" x="11" y="-291.2" font-family="Helvetica,sans-Serif" font-size="11.00"> &#160;</text>
<polygon fill="#ffffff" stroke="transparent" points="110,-285 110,-303 167,-303 167,-285 110,-285"/>
<polygon fill="none" stroke="black" points="110,-285 110,-303 167,-303 167,-285 110,-285"/>
<text text-anchor="start" x="157" y="-291.2" font-family="Helvetica,sans-Serif" font-size="11.00"> &#160;</text>
<polygon fill="#ffffff" stroke="transparent" points="167,-285 167,-303 234,-303 234,-285 167,-285"/>
<polygon fill="none" stroke="black" points="167,-285 167,-303 234,-303 234,-285 167,-285"/>
<text text-anchor="start" x="215" y="-291.2" font-family="Helvetica,sans-Serif" font-size="11.00">2 &gt;</text>
</a>
</g>
</g>
<!-- syst_perms&#45;&gt;syst_perm_functional_types -->
<g id="edge2" class="edge">
<title>syst_perms:w&#45;&gt;syst_perm_functional_types:e</title>
<path fill="none" stroke="black" d="M269.49,-376C258.18,-376 250.99,-376 235,-376"/>
<polygon fill="black" stroke="black" points="276,-376 284,-379.6 280,-376 284,-376 284,-376 284,-376 280,-376 284,-372.4 276,-376 276,-376"/>
<ellipse fill="none" stroke="black" cx="272.8" cy="-376" rx="3.2" ry="3.2"/>
</g>
</g>
</svg>
