<?xml version="1.0" encoding="UTF-8" standalone="no"?>
<!DOCTYPE svg PUBLIC "-//W3C//DTD SVG 1.1//EN"
 "http://www.w3.org/Graphics/SVG/1.1/DTD/svg11.dtd">
<!-- Generated by graphviz version 2.43.0 (0)
 -->
<!-- Title: orphans Pages: 1 -->
<svg width="315pt" height="368pt"
 viewBox="0.00 0.00 315.00 368.00" xmlns="http://www.w3.org/2000/svg" xmlns:xlink="http://www.w3.org/1999/xlink">
<g id="graph0" class="graph" transform="scale(1 1) rotate(0) translate(4 364)">
<title>orphans</title>
<polygon fill="#ffffff" stroke="transparent" points="-4,4 -4,-364 311,-364 311,4 -4,4"/>
<!-- migrations -->
<g id="node1" class="node">
<title>migrations</title>
<g id="a_node1"><a xlink:href="../../tables/migrations.html" xlink:title="migrations" target="_top">
<polygon fill="#ffffff" stroke="transparent" points="8,-4 8,-356 299,-356 299,-4 8,-4"/>
<polygon fill="#f5f5f5" stroke="transparent" points="10.5,-332 10.5,-354 297.5,-354 297.5,-332 10.5,-332"/>
<polygon fill="none" stroke="black" points="10.5,-332 10.5,-354 297.5,-354 297.5,-332 10.5,-332"/>
<text text-anchor="start" x="15.5" y="-341.2" font-family="Helvetica,sans-Serif" font-weight="bold" font-size="11.00">migrations</text>
<text text-anchor="start" x="262.5" y="-340.2" font-family="Helvetica,sans-Serif" font-size="11.00">[table]</text>
<polygon fill="none" stroke="black" points="10.5,-310 10.5,-332 204.5,-332 204.5,-310 10.5,-310"/>
<image xlink:href="../../images/primaryKeys.png" width="11px" height="12px" preserveAspectRatio="xMinYMin meet" x="15.5" y="-327"/>
<text text-anchor="start" x="30.5" y="-318.2" font-family="Helvetica,sans-Serif" font-size="11.00">id</text>
<polygon fill="none" stroke="black" points="204.5,-310 204.5,-332 297.5,-332 297.5,-310 204.5,-310"/>
<text text-anchor="start" x="207.5" y="-318.2" font-family="Helvetica,sans-Serif" font-size="11.00">uuid[2147483647]</text>
<polygon fill="none" stroke="black" points="10.5,-288 10.5,-310 204.5,-310 204.5,-288 10.5,-288"/>
<text text-anchor="start" x="30.5" y="-296.2" font-family="Helvetica,sans-Serif" font-size="11.00">release</text>
<polygon fill="none" stroke="black" points="204.5,-288 204.5,-310 297.5,-310 297.5,-288 204.5,-288"/>
<text text-anchor="start" x="207.5" y="-296.2" font-family="Helvetica,sans-Serif" font-size="11.00">int2[5]</text>
<polygon fill="none" stroke="black" points="10.5,-266 10.5,-288 204.5,-288 204.5,-266 10.5,-266"/>
<text text-anchor="start" x="30.5" y="-274.2" font-family="Helvetica,sans-Serif" font-size="11.00">version</text>
<polygon fill="none" stroke="black" points="204.5,-266 204.5,-288 297.5,-288 297.5,-266 204.5,-266"/>
<text text-anchor="start" x="207.5" y="-274.2" font-family="Helvetica,sans-Serif" font-size="11.00">int2[5]</text>
<polygon fill="none" stroke="black" points="10.5,-244 10.5,-266 204.5,-266 204.5,-244 10.5,-244"/>
<text text-anchor="start" x="30.5" y="-252.2" font-family="Helvetica,sans-Serif" font-size="11.00">update</text>
<polygon fill="none" stroke="black" points="204.5,-244 204.5,-266 297.5,-266 297.5,-244 204.5,-244"/>
<text text-anchor="start" x="207.5" y="-252.2" font-family="Helvetica,sans-Serif" font-size="11.00">int4[10]</text>
<polygon fill="none" stroke="black" points="10.5,-222 10.5,-244 204.5,-244 204.5,-222 10.5,-222"/>
<text text-anchor="start" x="30.5" y="-230.2" font-family="Helvetica,sans-Serif" font-size="11.00">sponsor</text>
<polygon fill="none" stroke="black" points="204.5,-222 204.5,-244 297.5,-244 297.5,-222 204.5,-222"/>
<text text-anchor="start" x="207.5" y="-230.2" font-family="Helvetica,sans-Serif" font-size="11.00">int8[19]</text>
<polygon fill="none" stroke="black" points="10.5,-200 10.5,-222 204.5,-222 204.5,-200 10.5,-200"/>
<text text-anchor="start" x="30.5" y="-208.2" font-family="Helvetica,sans-Serif" font-size="11.00">sponsor_modification</text>
<polygon fill="none" stroke="black" points="204.5,-200 204.5,-222 297.5,-222 297.5,-200 204.5,-200"/>
<text text-anchor="start" x="207.5" y="-208.2" font-family="Helvetica,sans-Serif" font-size="11.00">int4[10]</text>
<polygon fill="#ffffff" stroke="transparent" points="10.5,-178 10.5,-200 204.5,-200 204.5,-178 10.5,-178"/>
<polygon fill="none" stroke="black" points="10.5,-178 10.5,-200 204.5,-200 204.5,-178 10.5,-178"/>
<text text-anchor="start" x="30.5" y="-186.2" font-family="Helvetica,sans-Serif" font-size="11.00">migration_version</text>
<polygon fill="none" stroke="black" points="204.5,-178 204.5,-200 297.5,-200 297.5,-178 204.5,-178"/>
<text text-anchor="start" x="207.5" y="-186.2" font-family="Helvetica,sans-Serif" font-size="11.00">text[2147483647]</text>
<polygon fill="none" stroke="black" points="10.5,-156 10.5,-178 204.5,-178 204.5,-156 10.5,-156"/>
<text text-anchor="start" x="30.5" y="-164.2" font-family="Helvetica,sans-Serif" font-size="11.00">diag_timestamp_created</text>
<polygon fill="none" stroke="black" points="204.5,-156 204.5,-178 297.5,-178 297.5,-156 204.5,-156"/>
<text text-anchor="start" x="207.5" y="-164.2" font-family="Helvetica,sans-Serif" font-size="11.00">timestamptz[35,6]</text>
<polygon fill="none" stroke="black" points="10.5,-134 10.5,-156 204.5,-156 204.5,-134 10.5,-134"/>
<text text-anchor="start" x="30.5" y="-142.2" font-family="Helvetica,sans-Serif" font-size="11.00">diag_role_created</text>
<polygon fill="none" stroke="black" points="204.5,-134 204.5,-156 297.5,-156 297.5,-134 204.5,-134"/>
<text text-anchor="start" x="207.5" y="-142.2" font-family="Helvetica,sans-Serif" font-size="11.00">text[2147483647]</text>
<polygon fill="none" stroke="black" points="10.5,-112 10.5,-134 204.5,-134 204.5,-112 10.5,-112"/>
<text text-anchor="start" x="30.5" y="-120.2" font-family="Helvetica,sans-Serif" font-size="11.00">diag_timestamp_modified</text>
<polygon fill="none" stroke="black" points="204.5,-112 204.5,-134 297.5,-134 297.5,-112 204.5,-112"/>
<text text-anchor="start" x="207.5" y="-120.2" font-family="Helvetica,sans-Serif" font-size="11.00">timestamptz[35,6]</text>
<polygon fill="none" stroke="black" points="10.5,-90 10.5,-112 204.5,-112 204.5,-90 10.5,-90"/>
<text text-anchor="start" x="30.5" y="-98.2" font-family="Helvetica,sans-Serif" font-size="11.00">diag_wallclock_modified</text>
<polygon fill="none" stroke="black" points="204.5,-90 204.5,-112 297.5,-112 297.5,-90 204.5,-90"/>
<text text-anchor="start" x="207.5" y="-98.2" font-family="Helvetica,sans-Serif" font-size="11.00">timestamptz[35,6]</text>
<polygon fill="none" stroke="black" points="10.5,-68 10.5,-90 204.5,-90 204.5,-68 10.5,-68"/>
<text text-anchor="start" x="30.5" y="-76.2" font-family="Helvetica,sans-Serif" font-size="11.00">diag_role_modified</text>
<polygon fill="none" stroke="black" points="204.5,-68 204.5,-90 297.5,-90 297.5,-68 204.5,-68"/>
<text text-anchor="start" x="207.5" y="-76.2" font-family="Helvetica,sans-Serif" font-size="11.00">text[2147483647]</text>
<polygon fill="none" stroke="black" points="10.5,-46 10.5,-68 204.5,-68 204.5,-46 10.5,-46"/>
<text text-anchor="start" x="30.5" y="-54.2" font-family="Helvetica,sans-Serif" font-size="11.00">diag_row_version</text>
<polygon fill="none" stroke="black" points="204.5,-46 204.5,-68 297.5,-68 297.5,-46 204.5,-46"/>
<text text-anchor="start" x="207.5" y="-54.2" font-family="Helvetica,sans-Serif" font-size="11.00">int8[19]</text>
<polygon fill="none" stroke="black" points="10.5,-24 10.5,-46 204.5,-46 204.5,-24 10.5,-24"/>
<text text-anchor="start" x="30.5" y="-32.2" font-family="Helvetica,sans-Serif" font-size="11.00">diag_update_count</text>
<polygon fill="none" stroke="black" points="204.5,-24 204.5,-46 297.5,-46 297.5,-24 204.5,-24"/>
<text text-anchor="start" x="207.5" y="-32.2" font-family="Helvetica,sans-Serif" font-size="11.00">int8[19]</text>
<polygon fill="#ffffff" stroke="transparent" points="10.5,-6 10.5,-24 111.5,-24 111.5,-6 10.5,-6"/>
<polygon fill="none" stroke="black" points="10.5,-6 10.5,-24 111.5,-24 111.5,-6 10.5,-6"/>
<text text-anchor="start" x="13.5" y="-12.2" font-family="Helvetica,sans-Serif" font-size="11.00">&lt; 0</text>
<polygon fill="#ffffff" stroke="transparent" points="111.5,-6 111.5,-24 204.5,-24 204.5,-6 111.5,-6"/>
<polygon fill="none" stroke="black" points="111.5,-6 111.5,-24 204.5,-24 204.5,-6 111.5,-6"/>
<text text-anchor="start" x="194.5" y="-12.2" font-family="Helvetica,sans-Serif" font-size="11.00"> &#160;</text>
<polygon fill="#ffffff" stroke="transparent" points="204.5,-6 204.5,-24 297.5,-24 297.5,-6 204.5,-6"/>
<polygon fill="none" stroke="black" points="204.5,-6 204.5,-24 297.5,-24 297.5,-6 204.5,-6"/>
<text text-anchor="start" x="278.5" y="-12.2" font-family="Helvetica,sans-Serif" font-size="11.00">0 &gt;</text>
<polygon fill="none" stroke="black" stroke-width="2" points="9,-5 9,-355 298,-355 298,-5 9,-5"/>
</a>
</g>
</g>
</g>
</svg>
