<?xml version="1.0" encoding="UTF-8" standalone="no"?>
<!DOCTYPE svg PUBLIC "-//W3C//DTD SVG 1.1//EN"
 "http://www.w3.org/Graphics/SVG/1.1/DTD/svg11.dtd">
<!-- Generated by graphviz version 2.43.0 (0)
 -->
<!-- Title: orphans Pages: 1 -->
<svg width="320pt" height="302pt"
 viewBox="0.00 0.00 320.00 302.00" xmlns="http://www.w3.org/2000/svg" xmlns:xlink="http://www.w3.org/1999/xlink">
<g id="graph0" class="graph" transform="scale(1 1) rotate(0) translate(4 298)">
<title>orphans</title>
<polygon fill="#ffffff" stroke="transparent" points="-4,4 -4,-298 316,-298 316,4 -4,4"/>
<!-- syst_sessions -->
<g id="node1" class="node">
<title>syst_sessions</title>
<g id="a_node1"><a xlink:href="../../tables/syst_sessions.html" xlink:title="syst_sessions" target="_top">
<polygon fill="#ffffff" stroke="transparent" points="8,-4 8,-290 304,-290 304,-4 8,-4"/>
<polygon fill="#f5f5f5" stroke="transparent" points="10,-266 10,-288 302,-288 302,-266 10,-266"/>
<polygon fill="none" stroke="black" points="10,-266 10,-288 302,-288 302,-266 10,-266"/>
<text text-anchor="start" x="15" y="-275.2" font-family="Helvetica,sans-Serif" font-weight="bold" font-size="11.00">syst_sessions</text>
<text text-anchor="start" x="267" y="-274.2" font-family="Helvetica,sans-Serif" font-size="11.00">[table]</text>
<polygon fill="none" stroke="black" points="10,-244 10,-266 204,-266 204,-244 10,-244"/>
<image xlink:href="../../images/primaryKeys.png" width="11px" height="12px" preserveAspectRatio="xMinYMin meet" x="15" y="-261"/>
<text text-anchor="start" x="30" y="-252.2" font-family="Helvetica,sans-Serif" font-size="11.00">id</text>
<polygon fill="none" stroke="black" points="204,-244 204,-266 302,-266 302,-244 204,-244"/>
<text text-anchor="start" x="207" y="-252.2" font-family="Helvetica,sans-Serif" font-size="11.00">uuid[2147483647]</text>
<polygon fill="#ffffff" stroke="transparent" points="10,-222 10,-244 204,-244 204,-222 10,-222"/>
<polygon fill="none" stroke="black" points="10,-222 10,-244 204,-244 204,-222 10,-222"/>
<text text-anchor="start" x="30" y="-230.2" font-family="Helvetica,sans-Serif" font-size="11.00">internal_name</text>
<polygon fill="none" stroke="black" points="204,-222 204,-244 302,-244 302,-222 204,-222"/>
<text text-anchor="start" x="207" y="-230.2" font-family="Helvetica,sans-Serif" font-size="11.00">text[2147483647]</text>
<polygon fill="none" stroke="black" points="10,-200 10,-222 204,-222 204,-200 10,-200"/>
<text text-anchor="start" x="30" y="-208.2" font-family="Helvetica,sans-Serif" font-size="11.00">session_data</text>
<polygon fill="none" stroke="black" points="204,-200 204,-222 302,-222 302,-200 204,-200"/>
<text text-anchor="start" x="207" y="-208.2" font-family="Helvetica,sans-Serif" font-size="11.00">jsonb[2147483647]</text>
<polygon fill="none" stroke="black" points="10,-178 10,-200 204,-200 204,-178 10,-178"/>
<text text-anchor="start" x="30" y="-186.2" font-family="Helvetica,sans-Serif" font-size="11.00">session_expires</text>
<polygon fill="none" stroke="black" points="204,-178 204,-200 302,-200 302,-178 204,-178"/>
<text text-anchor="start" x="207" y="-186.2" font-family="Helvetica,sans-Serif" font-size="11.00">timestamptz[35,6]</text>
<polygon fill="none" stroke="black" points="10,-156 10,-178 204,-178 204,-156 10,-156"/>
<text text-anchor="start" x="30" y="-164.2" font-family="Helvetica,sans-Serif" font-size="11.00">diag_timestamp_created</text>
<polygon fill="none" stroke="black" points="204,-156 204,-178 302,-178 302,-156 204,-156"/>
<text text-anchor="start" x="207" y="-164.2" font-family="Helvetica,sans-Serif" font-size="11.00">timestamptz[35,6]</text>
<polygon fill="none" stroke="black" points="10,-134 10,-156 204,-156 204,-134 10,-134"/>
<text text-anchor="start" x="30" y="-142.2" font-family="Helvetica,sans-Serif" font-size="11.00">diag_role_created</text>
<polygon fill="none" stroke="black" points="204,-134 204,-156 302,-156 302,-134 204,-134"/>
<text text-anchor="start" x="207" y="-142.2" font-family="Helvetica,sans-Serif" font-size="11.00">text[2147483647]</text>
<polygon fill="none" stroke="black" points="10,-112 10,-134 204,-134 204,-112 10,-112"/>
<text text-anchor="start" x="30" y="-120.2" font-family="Helvetica,sans-Serif" font-size="11.00">diag_timestamp_modified</text>
<polygon fill="none" stroke="black" points="204,-112 204,-134 302,-134 302,-112 204,-112"/>
<text text-anchor="start" x="207" y="-120.2" font-family="Helvetica,sans-Serif" font-size="11.00">timestamptz[35,6]</text>
<polygon fill="none" stroke="black" points="10,-90 10,-112 204,-112 204,-90 10,-90"/>
<text text-anchor="start" x="30" y="-98.2" font-family="Helvetica,sans-Serif" font-size="11.00">diag_wallclock_modified</text>
<polygon fill="none" stroke="black" points="204,-90 204,-112 302,-112 302,-90 204,-90"/>
<text text-anchor="start" x="207" y="-98.2" font-family="Helvetica,sans-Serif" font-size="11.00">timestamptz[35,6]</text>
<polygon fill="none" stroke="black" points="10,-68 10,-90 204,-90 204,-68 10,-68"/>
<text text-anchor="start" x="30" y="-76.2" font-family="Helvetica,sans-Serif" font-size="11.00">diag_role_modified</text>
<polygon fill="none" stroke="black" points="204,-68 204,-90 302,-90 302,-68 204,-68"/>
<text text-anchor="start" x="207" y="-76.2" font-family="Helvetica,sans-Serif" font-size="11.00">text[2147483647]</text>
<polygon fill="none" stroke="black" points="10,-46 10,-68 204,-68 204,-46 10,-46"/>
<text text-anchor="start" x="30" y="-54.2" font-family="Helvetica,sans-Serif" font-size="11.00">diag_row_version</text>
<polygon fill="none" stroke="black" points="204,-46 204,-68 302,-68 302,-46 204,-46"/>
<text text-anchor="start" x="207" y="-54.2" font-family="Helvetica,sans-Serif" font-size="11.00">int8[19]</text>
<polygon fill="none" stroke="black" points="10,-24 10,-46 204,-46 204,-24 10,-24"/>
<text text-anchor="start" x="30" y="-32.2" font-family="Helvetica,sans-Serif" font-size="11.00">diag_update_count</text>
<polygon fill="none" stroke="black" points="204,-24 204,-46 302,-46 302,-24 204,-24"/>
<text text-anchor="start" x="207" y="-32.2" font-family="Helvetica,sans-Serif" font-size="11.00">int8[19]</text>
<polygon fill="#ffffff" stroke="transparent" points="10,-6 10,-24 111,-24 111,-6 10,-6"/>
<polygon fill="none" stroke="black" points="10,-6 10,-24 111,-24 111,-6 10,-6"/>
<text text-anchor="start" x="13" y="-12.2" font-family="Helvetica,sans-Serif" font-size="11.00">&lt; 0</text>
<polygon fill="#ffffff" stroke="transparent" points="111,-6 111,-24 204,-24 204,-6 111,-6"/>
<polygon fill="none" stroke="black" points="111,-6 111,-24 204,-24 204,-6 111,-6"/>
<text text-anchor="start" x="194" y="-12.2" font-family="Helvetica,sans-Serif" font-size="11.00"> &#160;</text>
<polygon fill="#ffffff" stroke="transparent" points="204,-6 204,-24 302,-24 302,-6 204,-6"/>
<polygon fill="none" stroke="black" points="204,-6 204,-24 302,-24 302,-6 204,-6"/>
<text text-anchor="start" x="283" y="-12.2" font-family="Helvetica,sans-Serif" font-size="11.00">0 &gt;</text>
<polygon fill="none" stroke="black" stroke-width="2" points="9,-5 9,-289 303,-289 303,-5 9,-5"/>
</a>
</g>
</g>
</g>
</svg>
