<?xml version="1.0" encoding="UTF-8" standalone="no"?>
<!DOCTYPE svg PUBLIC "-//W3C//DTD SVG 1.1//EN"
 "http://www.w3.org/Graphics/SVG/1.1/DTD/svg11.dtd">
<!-- Generated by graphviz version 2.43.0 (0)
 -->
<!-- Title: twoDegreesRelationshipsDiagram Pages: 1 -->
<svg width="845pt" height="414pt"
 viewBox="0.00 0.00 845.00 414.00" xmlns="http://www.w3.org/2000/svg" xmlns:xlink="http://www.w3.org/1999/xlink">
<g id="graph0" class="graph" transform="scale(1 1) rotate(0) translate(4 410)">
<title>twoDegreesRelationshipsDiagram</title>
<polygon fill="#ffffff" stroke="transparent" points="-4,4 -4,-410 841,-410 841,4 -4,4"/>
<text text-anchor="middle" x="71.5" y="-7.2" font-family="Helvetica,sans-Serif" font-size="11.00">Generated by SchemaSpy</text>
<!-- syst_application_contexts -->
<g id="node1" class="node">
<title>syst_application_contexts</title>
<g id="a_node1"><a xlink:href="../../tables/syst_application_contexts.html" xlink:title="syst_application_contexts" target="_top">
<polygon fill="#ffffff" stroke="transparent" points="234.5,-87 234.5,-233 447.5,-233 447.5,-87 234.5,-87"/>
<polygon fill="#f5f5f5" stroke="transparent" points="235,-211 235,-233 448,-233 448,-211 235,-211"/>
<polygon fill="none" stroke="black" points="235,-211 235,-233 448,-233 448,-211 235,-211"/>
<text text-anchor="start" x="240" y="-220.2" font-family="Helvetica,sans-Serif" font-weight="bold" font-size="11.00">syst_application_contexts</text>
<text text-anchor="start" x="413" y="-219.2" font-family="Helvetica,sans-Serif" font-size="11.00">[table]</text>
<polygon fill="none" stroke="black" points="235,-189 235,-211 448,-211 448,-189 235,-189"/>
<image xlink:href="../../images/primaryKeys.png" width="11px" height="12px" preserveAspectRatio="xMinYMin meet" x="240" y="-206"/>
<text text-anchor="start" x="265" y="-197.2" font-family="Helvetica,sans-Serif" font-size="11.00">id</text>
<polygon fill="#ffffff" stroke="transparent" points="235,-167 235,-189 448,-189 448,-167 235,-167"/>
<polygon fill="none" stroke="black" points="235,-167 235,-189 448,-189 448,-167 235,-167"/>
<text text-anchor="start" x="265" y="-175.2" font-family="Helvetica,sans-Serif" font-size="11.00">internal_name</text>
<polygon fill="#ffffff" stroke="transparent" points="235,-145 235,-167 448,-167 448,-145 235,-145"/>
<polygon fill="none" stroke="black" points="235,-145 235,-167 448,-167 448,-145 235,-145"/>
<text text-anchor="start" x="265" y="-153.2" font-family="Helvetica,sans-Serif" font-size="11.00">display_name</text>
<polygon fill="none" stroke="black" points="235,-123 235,-145 448,-145 448,-123 235,-123"/>
<image xlink:href="../../images/foreignKeys.png" width="11px" height="12px" preserveAspectRatio="xMinYMin meet" x="240" y="-140"/>
<text text-anchor="start" x="265" y="-131.2" font-family="Helvetica,sans-Serif" font-size="11.00">application_id</text>
<polygon fill="none" stroke="black" points="235,-105 235,-123 448,-123 448,-105 235,-105"/>
<text text-anchor="start" x="238" y="-111.2" font-family="Helvetica,sans-Serif" font-size="11.00">...</text>
<polygon fill="#ffffff" stroke="transparent" points="235,-87 235,-105 335,-105 335,-87 235,-87"/>
<polygon fill="none" stroke="black" points="235,-87 235,-105 335,-105 335,-87 235,-87"/>
<text text-anchor="start" x="238" y="-93.2" font-family="Helvetica,sans-Serif" font-size="11.00">&lt; 1</text>
<polygon fill="#ffffff" stroke="transparent" points="335,-87 335,-105 387,-105 387,-87 335,-87"/>
<polygon fill="none" stroke="black" points="335,-87 335,-105 387,-105 387,-87 335,-87"/>
<text text-anchor="start" x="377" y="-93.2" font-family="Helvetica,sans-Serif" font-size="11.00"> &#160;</text>
<polygon fill="#ffffff" stroke="transparent" points="387,-87 387,-105 448,-105 448,-87 387,-87"/>
<polygon fill="none" stroke="black" points="387,-87 387,-105 448,-105 448,-87 387,-87"/>
<text text-anchor="start" x="429" y="-93.2" font-family="Helvetica,sans-Serif" font-size="11.00">2 &gt;</text>
</a>
</g>
</g>
<!-- syst_applications -->
<g id="node2" class="node">
<title>syst_applications</title>
<g id="a_node2"><a xlink:href="../../tables/syst_applications.html" xlink:title="syst_applications" target="_top">
<polygon fill="#ffffff" stroke="transparent" points="8,-162 8,-220 164,-220 164,-162 8,-162"/>
<polygon fill="#f5f5f5" stroke="transparent" points="8,-198 8,-220 164,-220 164,-198 8,-198"/>
<polygon fill="none" stroke="black" points="8,-198 8,-220 164,-220 164,-198 8,-198"/>
<text text-anchor="start" x="13" y="-207.2" font-family="Helvetica,sans-Serif" font-weight="bold" font-size="11.00">syst_applications</text>
<text text-anchor="start" x="129" y="-206.2" font-family="Helvetica,sans-Serif" font-size="11.00">[table]</text>
<polygon fill="none" stroke="black" points="8,-180 8,-198 164,-198 164,-180 8,-180"/>
<text text-anchor="start" x="11" y="-186.2" font-family="Helvetica,sans-Serif" font-size="11.00">...</text>
<polygon fill="#ffffff" stroke="transparent" points="8,-162 8,-180 75,-180 75,-162 8,-162"/>
<polygon fill="none" stroke="black" points="8,-162 8,-180 75,-180 75,-162 8,-162"/>
<text text-anchor="start" x="11" y="-168.2" font-family="Helvetica,sans-Serif" font-size="11.00"> &#160;</text>
<polygon fill="#ffffff" stroke="transparent" points="75,-162 75,-180 115,-180 115,-162 75,-162"/>
<polygon fill="none" stroke="black" points="75,-162 75,-180 115,-180 115,-162 75,-162"/>
<text text-anchor="start" x="105" y="-168.2" font-family="Helvetica,sans-Serif" font-size="11.00"> &#160;</text>
<polygon fill="#ffffff" stroke="transparent" points="115,-162 115,-180 164,-180 164,-162 115,-162"/>
<polygon fill="none" stroke="black" points="115,-162 115,-180 164,-180 164,-162 115,-162"/>
<text text-anchor="start" x="145" y="-168.2" font-family="Helvetica,sans-Serif" font-size="11.00">3 &gt;</text>
</a>
</g>
</g>
<!-- syst_application_contexts&#45;&gt;syst_applications -->
<g id="edge1" class="edge">
<title>syst_application_contexts:w&#45;&gt;syst_applications:e</title>
<path fill="none" stroke="black" d="M219.75,-137.11C196.49,-148.75 198.55,-189 165,-189"/>
<polygon fill="black" stroke="black" points="226.18,-135.71 234.77,-137.52 230.09,-134.85 234,-134 234,-134 234,-134 230.09,-134.85 233.23,-130.48 226.18,-135.71 226.18,-135.71"/>
<ellipse fill="none" stroke="black" cx="223.06" cy="-136.39" rx="3.2" ry="3.2"/>
</g>
<!-- syst_instance_contexts -->
<g id="node3" class="node">
<title>syst_instance_contexts</title>
<g id="a_node3"><a xlink:href="../../tables/syst_instance_contexts.html" xlink:title="syst_instance_contexts" target="_top">
<polygon fill="#ffffff" stroke="transparent" points="576,-37 576,-95 771,-95 771,-37 576,-37"/>
<polygon fill="#f5f5f5" stroke="transparent" points="576.5,-73 576.5,-95 771.5,-95 771.5,-73 576.5,-73"/>
<polygon fill="none" stroke="black" points="576.5,-73 576.5,-95 771.5,-95 771.5,-73 576.5,-73"/>
<text text-anchor="start" x="581.5" y="-82.2" font-family="Helvetica,sans-Serif" font-weight="bold" font-size="11.00">syst_instance_contexts</text>
<text text-anchor="start" x="736.5" y="-81.2" font-family="Helvetica,sans-Serif" font-size="11.00">[table]</text>
<polygon fill="none" stroke="black" points="576.5,-55 576.5,-73 771.5,-73 771.5,-55 576.5,-55"/>
<text text-anchor="start" x="579.5" y="-61.2" font-family="Helvetica,sans-Serif" font-size="11.00">...</text>
<polygon fill="#ffffff" stroke="transparent" points="576.5,-37 576.5,-55 671.5,-55 671.5,-37 576.5,-37"/>
<polygon fill="none" stroke="black" points="576.5,-37 576.5,-55 671.5,-55 671.5,-37 576.5,-37"/>
<text text-anchor="start" x="579.5" y="-43.2" font-family="Helvetica,sans-Serif" font-size="11.00">&lt; 2</text>
<polygon fill="#ffffff" stroke="transparent" points="671.5,-37 671.5,-55 721.5,-55 721.5,-37 671.5,-37"/>
<polygon fill="none" stroke="black" points="671.5,-37 671.5,-55 721.5,-55 721.5,-37 671.5,-37"/>
<text text-anchor="start" x="711.5" y="-43.2" font-family="Helvetica,sans-Serif" font-size="11.00"> &#160;</text>
<polygon fill="#ffffff" stroke="transparent" points="721.5,-37 721.5,-55 771.5,-55 771.5,-37 721.5,-37"/>
<polygon fill="none" stroke="black" points="721.5,-37 721.5,-55 771.5,-55 771.5,-37 721.5,-37"/>
<text text-anchor="start" x="761.5" y="-43.2" font-family="Helvetica,sans-Serif" font-size="11.00"> &#160;</text>
</a>
</g>
</g>
<!-- syst_instance_contexts&#45;&gt;syst_application_contexts -->
<g id="edge2" class="edge">
<title>syst_instance_contexts:w&#45;&gt;syst_application_contexts:e</title>
<path fill="none" stroke="black" d="M560.86,-65.31C538.4,-69.82 530.59,-85.52 510,-106 474.69,-141.12 498.8,-200 449,-200"/>
<polygon fill="black" stroke="black" points="567.53,-64.71 575.82,-67.59 571.52,-64.36 575.5,-64 575.5,-64 575.5,-64 571.52,-64.36 575.18,-60.41 567.53,-64.71 567.53,-64.71"/>
<ellipse fill="none" stroke="black" cx="564.34" cy="-65" rx="3.2" ry="3.2"/>
</g>
<!-- syst_instance_type_applications -->
<g id="node4" class="node">
<title>syst_instance_type_applications</title>
<g id="a_node4"><a xlink:href="../../tables/syst_instance_type_applications.html" xlink:title="syst_instance_type_applications" target="_top">
<polygon fill="#ffffff" stroke="transparent" points="213,-254 213,-378 469,-378 469,-254 213,-254"/>
<polygon fill="#f5f5f5" stroke="transparent" points="213,-356 213,-378 469,-378 469,-356 213,-356"/>
<polygon fill="none" stroke="black" points="213,-356 213,-378 469,-378 469,-356 213,-356"/>
<text text-anchor="start" x="218" y="-365.2" font-family="Helvetica,sans-Serif" font-weight="bold" font-size="11.00">syst_instance_type_applications</text>
<text text-anchor="start" x="434" y="-364.2" font-family="Helvetica,sans-Serif" font-size="11.00">[table]</text>
<polygon fill="none" stroke="black" points="213,-334 213,-356 469,-356 469,-334 213,-334"/>
<image xlink:href="../../images/primaryKeys.png" width="11px" height="12px" preserveAspectRatio="xMinYMin meet" x="218" y="-351"/>
<text text-anchor="start" x="243" y="-342.2" font-family="Helvetica,sans-Serif" font-size="11.00">id</text>
<polygon fill="#ffffff" stroke="transparent" points="213,-312 213,-334 469,-334 469,-312 213,-312"/>
<polygon fill="none" stroke="black" points="213,-312 213,-334 469,-334 469,-312 213,-312"/>
<image xlink:href="../../images/foreignKeys.png" width="11px" height="12px" preserveAspectRatio="xMinYMin meet" x="218" y="-329"/>
<text text-anchor="start" x="243" y="-320.2" font-family="Helvetica,sans-Serif" font-size="11.00">instance_type_id</text>
<polygon fill="#ffffff" stroke="transparent" points="213,-290 213,-312 469,-312 469,-290 213,-290"/>
<polygon fill="none" stroke="black" points="213,-290 213,-312 469,-312 469,-290 213,-290"/>
<image xlink:href="../../images/foreignKeys.png" width="11px" height="12px" preserveAspectRatio="xMinYMin meet" x="218" y="-307"/>
<text text-anchor="start" x="243" y="-298.2" font-family="Helvetica,sans-Serif" font-size="11.00">application_id</text>
<polygon fill="none" stroke="black" points="213,-272 213,-290 469,-290 469,-272 213,-272"/>
<text text-anchor="start" x="216" y="-278.2" font-family="Helvetica,sans-Serif" font-size="11.00">...</text>
<polygon fill="#ffffff" stroke="transparent" points="213,-254 213,-272 334,-272 334,-254 213,-254"/>
<polygon fill="none" stroke="black" points="213,-254 213,-272 334,-272 334,-254 213,-254"/>
<text text-anchor="start" x="216" y="-260.2" font-family="Helvetica,sans-Serif" font-size="11.00">&lt; 2</text>
<polygon fill="#ffffff" stroke="transparent" points="334,-254 334,-272 397,-272 397,-254 334,-254"/>
<polygon fill="none" stroke="black" points="334,-254 334,-272 397,-272 397,-254 334,-254"/>
<text text-anchor="start" x="387" y="-260.2" font-family="Helvetica,sans-Serif" font-size="11.00"> &#160;</text>
<polygon fill="#ffffff" stroke="transparent" points="397,-254 397,-272 469,-272 469,-254 397,-254"/>
<polygon fill="none" stroke="black" points="397,-254 397,-272 469,-272 469,-254 397,-254"/>
<text text-anchor="start" x="450" y="-260.2" font-family="Helvetica,sans-Serif" font-size="11.00">1 &gt;</text>
</a>
</g>
</g>
<!-- syst_instance_type_applications&#45;&gt;syst_applications -->
<g id="edge3" class="edge">
<title>syst_instance_type_applications:w&#45;&gt;syst_applications:e</title>
<path fill="none" stroke="black" d="M197.75,-297.01C170.35,-277.06 212.87,-189 165,-189"/>
<polygon fill="black" stroke="black" points="204.3,-298.85 211.03,-304.47 208.15,-299.92 212,-301 212,-301 212,-301 208.15,-299.92 212.97,-297.53 204.3,-298.85 204.3,-298.85"/>
<ellipse fill="none" stroke="black" cx="201.21" cy="-297.98" rx="3.2" ry="3.2"/>
</g>
<!-- syst_enum_items -->
<g id="node5" class="node">
<title>syst_enum_items</title>
<g id="a_node5"><a xlink:href="../../tables/syst_enum_items.html" xlink:title="syst_enum_items" target="_top">
<polygon fill="#ffffff" stroke="transparent" points="8.5,-296 8.5,-354 163.5,-354 163.5,-296 8.5,-296"/>
<polygon fill="#f5f5f5" stroke="transparent" points="9,-332 9,-354 164,-354 164,-332 9,-332"/>
<polygon fill="none" stroke="black" points="9,-332 9,-354 164,-354 164,-332 9,-332"/>
<text text-anchor="start" x="14" y="-341.2" font-family="Helvetica,sans-Serif" font-weight="bold" font-size="11.00">syst_enum_items</text>
<text text-anchor="start" x="129" y="-340.2" font-family="Helvetica,sans-Serif" font-size="11.00">[table]</text>
<polygon fill="none" stroke="black" points="9,-314 9,-332 164,-332 164,-314 9,-314"/>
<text text-anchor="start" x="12" y="-320.2" font-family="Helvetica,sans-Serif" font-size="11.00">...</text>
<polygon fill="#ffffff" stroke="transparent" points="9,-296 9,-314 80,-314 80,-296 9,-296"/>
<polygon fill="none" stroke="black" points="9,-296 9,-314 80,-314 80,-296 9,-296"/>
<text text-anchor="start" x="12" y="-302.2" font-family="Helvetica,sans-Serif" font-size="11.00">&lt; 2</text>
<polygon fill="#ffffff" stroke="transparent" points="80,-296 80,-314 117,-314 117,-296 80,-296"/>
<polygon fill="none" stroke="black" points="80,-296 80,-314 117,-314 117,-296 80,-296"/>
<text text-anchor="start" x="107" y="-302.2" font-family="Helvetica,sans-Serif" font-size="11.00"> &#160;</text>
<polygon fill="#ffffff" stroke="transparent" points="117,-296 117,-314 164,-314 164,-296 117,-296"/>
<polygon fill="none" stroke="black" points="117,-296 117,-314 164,-314 164,-296 117,-296"/>
<text text-anchor="start" x="145" y="-302.2" font-family="Helvetica,sans-Serif" font-size="11.00">7 &gt;</text>
</a>
</g>
</g>
<!-- syst_instance_type_applications&#45;&gt;syst_enum_items -->
<g id="edge4" class="edge">
<title>syst_instance_type_applications:w&#45;&gt;syst_enum_items:e</title>
<path fill="none" stroke="black" d="M197.4,-323C186.93,-323 180.01,-323 165,-323"/>
<polygon fill="black" stroke="black" points="204,-323 212,-326.6 208,-323 212,-323 212,-323 212,-323 208,-323 212,-319.4 204,-323 204,-323"/>
<ellipse fill="none" stroke="black" cx="200.8" cy="-323" rx="3.2" ry="3.2"/>
</g>
<!-- syst_instance_type_contexts -->
<g id="node6" class="node">
<title>syst_instance_type_contexts</title>
<g id="a_node6"><a xlink:href="../../tables/syst_instance_type_contexts.html" xlink:title="syst_instance_type_contexts" target="_top">
<polygon fill="#ffffff" stroke="transparent" points="518,-116 518,-402 829,-402 829,-116 518,-116"/>
<polygon fill="#f5f5f5" stroke="transparent" points="520.5,-378 520.5,-400 827.5,-400 827.5,-378 520.5,-378"/>
<polygon fill="none" stroke="black" points="520.5,-378 520.5,-400 827.5,-400 827.5,-378 520.5,-378"/>
<text text-anchor="start" x="525.5" y="-387.2" font-family="Helvetica,sans-Serif" font-weight="bold" font-size="11.00">syst_instance_type_contexts</text>
<text text-anchor="start" x="792.5" y="-386.2" font-family="Helvetica,sans-Serif" font-size="11.00">[table]</text>
<polygon fill="none" stroke="black" points="520.5,-356 520.5,-378 734.5,-378 734.5,-356 520.5,-356"/>
<image xlink:href="../../images/primaryKeys.png" width="11px" height="12px" preserveAspectRatio="xMinYMin meet" x="525.5" y="-373"/>
<text text-anchor="start" x="540.5" y="-364.2" font-family="Helvetica,sans-Serif" font-size="11.00">id</text>
<polygon fill="none" stroke="black" points="734.5,-356 734.5,-378 827.5,-378 827.5,-356 734.5,-356"/>
<text text-anchor="start" x="737.5" y="-364.2" font-family="Helvetica,sans-Serif" font-size="11.00">uuid[2147483647]</text>
<polygon fill="#ffffff" stroke="transparent" points="520.5,-334 520.5,-356 734.5,-356 734.5,-334 520.5,-334"/>
<polygon fill="none" stroke="black" points="520.5,-334 520.5,-356 734.5,-356 734.5,-334 520.5,-334"/>
<image xlink:href="../../images/foreignKeys.png" width="11px" height="12px" preserveAspectRatio="xMinYMin meet" x="525.5" y="-351"/>
<text text-anchor="start" x="540.5" y="-342.2" font-family="Helvetica,sans-Serif" font-size="11.00">instance_type_application_id</text>
<polygon fill="none" stroke="black" points="734.5,-334 734.5,-356 827.5,-356 827.5,-334 734.5,-334"/>
<text text-anchor="start" x="737.5" y="-342.2" font-family="Helvetica,sans-Serif" font-size="11.00">uuid[2147483647]</text>
<polygon fill="#ffffff" stroke="transparent" points="520.5,-312 520.5,-334 734.5,-334 734.5,-312 520.5,-312"/>
<polygon fill="none" stroke="black" points="520.5,-312 520.5,-334 734.5,-334 734.5,-312 520.5,-312"/>
<image xlink:href="../../images/foreignKeys.png" width="11px" height="12px" preserveAspectRatio="xMinYMin meet" x="525.5" y="-329"/>
<text text-anchor="start" x="540.5" y="-320.2" font-family="Helvetica,sans-Serif" font-size="11.00">application_context_id</text>
<polygon fill="none" stroke="black" points="734.5,-312 734.5,-334 827.5,-334 827.5,-312 734.5,-312"/>
<text text-anchor="start" x="737.5" y="-320.2" font-family="Helvetica,sans-Serif" font-size="11.00">uuid[2147483647]</text>
<polygon fill="none" stroke="black" points="520.5,-290 520.5,-312 734.5,-312 734.5,-290 520.5,-290"/>
<text text-anchor="start" x="540.5" y="-298.2" font-family="Helvetica,sans-Serif" font-size="11.00">default_db_pool_size</text>
<polygon fill="none" stroke="black" points="734.5,-290 734.5,-312 827.5,-312 827.5,-290 734.5,-290"/>
<text text-anchor="start" x="737.5" y="-298.2" font-family="Helvetica,sans-Serif" font-size="11.00">int4[10]</text>
<polygon fill="none" stroke="black" points="520.5,-268 520.5,-290 734.5,-290 734.5,-268 520.5,-268"/>
<text text-anchor="start" x="540.5" y="-276.2" font-family="Helvetica,sans-Serif" font-size="11.00">diag_timestamp_created</text>
<polygon fill="none" stroke="black" points="734.5,-268 734.5,-290 827.5,-290 827.5,-268 734.5,-268"/>
<text text-anchor="start" x="737.5" y="-276.2" font-family="Helvetica,sans-Serif" font-size="11.00">timestamptz[35,6]</text>
<polygon fill="none" stroke="black" points="520.5,-246 520.5,-268 734.5,-268 734.5,-246 520.5,-246"/>
<text text-anchor="start" x="540.5" y="-254.2" font-family="Helvetica,sans-Serif" font-size="11.00">diag_role_created</text>
<polygon fill="none" stroke="black" points="734.5,-246 734.5,-268 827.5,-268 827.5,-246 734.5,-246"/>
<text text-anchor="start" x="737.5" y="-254.2" font-family="Helvetica,sans-Serif" font-size="11.00">text[2147483647]</text>
<polygon fill="none" stroke="black" points="520.5,-224 520.5,-246 734.5,-246 734.5,-224 520.5,-224"/>
<text text-anchor="start" x="540.5" y="-232.2" font-family="Helvetica,sans-Serif" font-size="11.00">diag_timestamp_modified</text>
<polygon fill="none" stroke="black" points="734.5,-224 734.5,-246 827.5,-246 827.5,-224 734.5,-224"/>
<text text-anchor="start" x="737.5" y="-232.2" font-family="Helvetica,sans-Serif" font-size="11.00">timestamptz[35,6]</text>
<polygon fill="none" stroke="black" points="520.5,-202 520.5,-224 734.5,-224 734.5,-202 520.5,-202"/>
<text text-anchor="start" x="540.5" y="-210.2" font-family="Helvetica,sans-Serif" font-size="11.00">diag_wallclock_modified</text>
<polygon fill="none" stroke="black" points="734.5,-202 734.5,-224 827.5,-224 827.5,-202 734.5,-202"/>
<text text-anchor="start" x="737.5" y="-210.2" font-family="Helvetica,sans-Serif" font-size="11.00">timestamptz[35,6]</text>
<polygon fill="none" stroke="black" points="520.5,-180 520.5,-202 734.5,-202 734.5,-180 520.5,-180"/>
<text text-anchor="start" x="540.5" y="-188.2" font-family="Helvetica,sans-Serif" font-size="11.00">diag_role_modified</text>
<polygon fill="none" stroke="black" points="734.5,-180 734.5,-202 827.5,-202 827.5,-180 734.5,-180"/>
<text text-anchor="start" x="737.5" y="-188.2" font-family="Helvetica,sans-Serif" font-size="11.00">text[2147483647]</text>
<polygon fill="none" stroke="black" points="520.5,-158 520.5,-180 734.5,-180 734.5,-158 520.5,-158"/>
<text text-anchor="start" x="540.5" y="-166.2" font-family="Helvetica,sans-Serif" font-size="11.00">diag_row_version</text>
<polygon fill="none" stroke="black" points="734.5,-158 734.5,-180 827.5,-180 827.5,-158 734.5,-158"/>
<text text-anchor="start" x="737.5" y="-166.2" font-family="Helvetica,sans-Serif" font-size="11.00">int8[19]</text>
<polygon fill="none" stroke="black" points="520.5,-136 520.5,-158 734.5,-158 734.5,-136 520.5,-136"/>
<text text-anchor="start" x="540.5" y="-144.2" font-family="Helvetica,sans-Serif" font-size="11.00">diag_update_count</text>
<polygon fill="none" stroke="black" points="734.5,-136 734.5,-158 827.5,-158 827.5,-136 734.5,-136"/>
<text text-anchor="start" x="737.5" y="-144.2" font-family="Helvetica,sans-Serif" font-size="11.00">int8[19]</text>
<polygon fill="#ffffff" stroke="transparent" points="520.5,-118 520.5,-136 631.5,-136 631.5,-118 520.5,-118"/>
<polygon fill="none" stroke="black" points="520.5,-118 520.5,-136 631.5,-136 631.5,-118 520.5,-118"/>
<text text-anchor="start" x="523.5" y="-124.2" font-family="Helvetica,sans-Serif" font-size="11.00">&lt; 2</text>
<polygon fill="#ffffff" stroke="transparent" points="631.5,-118 631.5,-136 734.5,-136 734.5,-118 631.5,-118"/>
<polygon fill="none" stroke="black" points="631.5,-118 631.5,-136 734.5,-136 734.5,-118 631.5,-118"/>
<text text-anchor="start" x="724.5" y="-124.2" font-family="Helvetica,sans-Serif" font-size="11.00"> &#160;</text>
<polygon fill="#ffffff" stroke="transparent" points="734.5,-118 734.5,-136 827.5,-136 827.5,-118 734.5,-118"/>
<polygon fill="none" stroke="black" points="734.5,-118 734.5,-136 827.5,-136 827.5,-118 734.5,-118"/>
<text text-anchor="start" x="808.5" y="-124.2" font-family="Helvetica,sans-Serif" font-size="11.00">0 &gt;</text>
<polygon fill="none" stroke="black" stroke-width="2" points="519,-117 519,-401 828,-401 828,-117 519,-117"/>
</a>
</g>
</g>
<!-- syst_instance_type_contexts&#45;&gt;syst_application_contexts -->
<g id="edge5" class="edge">
<title>syst_instance_type_contexts:w&#45;&gt;syst_application_contexts:e</title>
<path fill="none" stroke="black" d="M505.22,-320.2C465.51,-301.89 506.35,-200 449,-200"/>
<polygon fill="black" stroke="black" points="511.65,-321.46 518.81,-326.53 515.57,-322.23 519.5,-323 519.5,-323 519.5,-323 515.57,-322.23 520.19,-319.47 511.65,-321.46 511.65,-321.46"/>
<ellipse fill="none" stroke="black" cx="508.51" cy="-320.85" rx="3.2" ry="3.2"/>
</g>
<!-- syst_instance_type_contexts&#45;&gt;syst_instance_type_applications -->
<g id="edge6" class="edge">
<title>syst_instance_type_contexts:w&#45;&gt;syst_instance_type_applications:e</title>
<path fill="none" stroke="black" d="M504.84,-345C493.41,-345 486.16,-345 470,-345"/>
<polygon fill="black" stroke="black" points="511.5,-345 519.5,-348.6 515.5,-345 519.5,-345 519.5,-345 519.5,-345 515.5,-345 519.5,-341.4 511.5,-345 511.5,-345"/>
<ellipse fill="none" stroke="black" cx="508.3" cy="-345" rx="3.2" ry="3.2"/>
</g>
</g>
</svg>
