<?xml version="1.0" encoding="UTF-8" standalone="no"?>
<!DOCTYPE svg PUBLIC "-//W3C//DTD SVG 1.1//EN"
 "http://www.w3.org/Graphics/SVG/1.1/DTD/svg11.dtd">
<!-- Generated by graphviz version 2.43.0 (0)
 -->
<!-- Title: twoDegreesRelationshipsDiagram Pages: 1 -->
<svg width="986pt" height="559pt"
 viewBox="0.00 0.00 986.00 559.00" xmlns="http://www.w3.org/2000/svg" xmlns:xlink="http://www.w3.org/1999/xlink">
<g id="graph0" class="graph" transform="scale(1 1) rotate(0) translate(4 555)">
<title>twoDegreesRelationshipsDiagram</title>
<polygon fill="#ffffff" stroke="transparent" points="-4,4 -4,-555 982,-555 982,4 -4,4"/>
<text text-anchor="middle" x="71.5" y="-7.2" font-family="Helvetica,sans-Serif" font-size="11.00">Generated by SchemaSpy</text>
<!-- syst_access_account_instance_assocs -->
<g id="node1" class="node">
<title>syst_access_account_instance_assocs</title>
<g id="a_node1"><a xlink:href="../../tables/syst_access_account_instance_assocs.html" xlink:title="syst_access_account_instance_assocs" target="_top">
<polygon fill="#ffffff" stroke="transparent" points="669,-489 669,-547 961,-547 961,-489 669,-489"/>
<polygon fill="#f5f5f5" stroke="transparent" points="669,-525 669,-547 961,-547 961,-525 669,-525"/>
<polygon fill="none" stroke="black" points="669,-525 669,-547 961,-547 961,-525 669,-525"/>
<text text-anchor="start" x="674" y="-534.2" font-family="Helvetica,sans-Serif" font-weight="bold" font-size="11.00">syst_access_account_instance_assocs</text>
<text text-anchor="start" x="926" y="-533.2" font-family="Helvetica,sans-Serif" font-size="11.00">[table]</text>
<polygon fill="none" stroke="black" points="669,-507 669,-525 961,-525 961,-507 669,-507"/>
<text text-anchor="start" x="672" y="-513.2" font-family="Helvetica,sans-Serif" font-size="11.00">...</text>
<polygon fill="#ffffff" stroke="transparent" points="669,-489 669,-507 813,-507 813,-489 669,-489"/>
<polygon fill="none" stroke="black" points="669,-489 669,-507 813,-507 813,-489 669,-489"/>
<text text-anchor="start" x="672" y="-495.2" font-family="Helvetica,sans-Serif" font-size="11.00">&lt; 2</text>
<polygon fill="#ffffff" stroke="transparent" points="813,-489 813,-507 887,-507 887,-489 813,-489"/>
<polygon fill="none" stroke="black" points="813,-489 813,-507 887,-507 887,-489 813,-489"/>
<text text-anchor="start" x="877" y="-495.2" font-family="Helvetica,sans-Serif" font-size="11.00"> &#160;</text>
<polygon fill="#ffffff" stroke="transparent" points="887,-489 887,-507 961,-507 961,-489 887,-489"/>
<polygon fill="none" stroke="black" points="887,-489 887,-507 961,-507 961,-489 887,-489"/>
<text text-anchor="start" x="951" y="-495.2" font-family="Helvetica,sans-Serif" font-size="11.00"> &#160;</text>
</a>
</g>
</g>
<!-- syst_instances -->
<g id="node2" class="node">
<title>syst_instances</title>
<g id="a_node2"><a xlink:href="../../tables/syst_instances.html" xlink:title="syst_instances" target="_top">
<polygon fill="#ffffff" stroke="transparent" points="417,-236 417,-470 611,-470 611,-236 417,-236"/>
<polygon fill="#f5f5f5" stroke="transparent" points="417,-448 417,-470 611,-470 611,-448 417,-448"/>
<polygon fill="none" stroke="black" points="417,-448 417,-470 611,-470 611,-448 417,-448"/>
<text text-anchor="start" x="422" y="-457.2" font-family="Helvetica,sans-Serif" font-weight="bold" font-size="11.00">syst_instances</text>
<text text-anchor="start" x="576" y="-456.2" font-family="Helvetica,sans-Serif" font-size="11.00">[table]</text>
<polygon fill="none" stroke="black" points="417,-426 417,-448 611,-448 611,-426 417,-426"/>
<image xlink:href="../../images/primaryKeys.png" width="11px" height="12px" preserveAspectRatio="xMinYMin meet" x="422" y="-443"/>
<text text-anchor="start" x="437" y="-434.2" font-family="Helvetica,sans-Serif" font-size="11.00">id</text>
<polygon fill="#ffffff" stroke="transparent" points="417,-404 417,-426 611,-426 611,-404 417,-404"/>
<polygon fill="none" stroke="black" points="417,-404 417,-426 611,-426 611,-404 417,-404"/>
<text text-anchor="start" x="437" y="-412.2" font-family="Helvetica,sans-Serif" font-size="11.00">internal_name</text>
<polygon fill="#ffffff" stroke="transparent" points="417,-382 417,-404 611,-404 611,-382 417,-382"/>
<polygon fill="none" stroke="black" points="417,-382 417,-404 611,-404 611,-382 417,-382"/>
<text text-anchor="start" x="437" y="-390.2" font-family="Helvetica,sans-Serif" font-size="11.00">display_name</text>
<polygon fill="none" stroke="black" points="417,-360 417,-382 611,-382 611,-360 417,-360"/>
<image xlink:href="../../images/foreignKeys.png" width="11px" height="12px" preserveAspectRatio="xMinYMin meet" x="422" y="-377"/>
<text text-anchor="start" x="437" y="-368.2" font-family="Helvetica,sans-Serif" font-size="11.00">application_id</text>
<polygon fill="none" stroke="black" points="417,-338 417,-360 611,-360 611,-338 417,-338"/>
<image xlink:href="../../images/foreignKeys.png" width="11px" height="12px" preserveAspectRatio="xMinYMin meet" x="422" y="-355"/>
<text text-anchor="start" x="437" y="-346.2" font-family="Helvetica,sans-Serif" font-size="11.00">instance_type_id</text>
<polygon fill="none" stroke="black" points="417,-316 417,-338 611,-338 611,-316 417,-316"/>
<image xlink:href="../../images/foreignKeys.png" width="11px" height="12px" preserveAspectRatio="xMinYMin meet" x="422" y="-333"/>
<text text-anchor="start" x="437" y="-324.2" font-family="Helvetica,sans-Serif" font-size="11.00">instance_state_id</text>
<polygon fill="none" stroke="black" points="417,-294 417,-316 611,-316 611,-294 417,-294"/>
<image xlink:href="../../images/foreignKeys.png" width="11px" height="12px" preserveAspectRatio="xMinYMin meet" x="422" y="-311"/>
<text text-anchor="start" x="437" y="-302.2" font-family="Helvetica,sans-Serif" font-size="11.00">owner_id</text>
<polygon fill="none" stroke="black" points="417,-272 417,-294 611,-294 611,-272 417,-272"/>
<image xlink:href="../../images/foreignKeys.png" width="11px" height="12px" preserveAspectRatio="xMinYMin meet" x="422" y="-289"/>
<text text-anchor="start" x="437" y="-280.2" font-family="Helvetica,sans-Serif" font-size="11.00">owning_instance_id</text>
<polygon fill="none" stroke="black" points="417,-254 417,-272 611,-272 611,-254 417,-254"/>
<text text-anchor="start" x="420" y="-260.2" font-family="Helvetica,sans-Serif" font-size="11.00">...</text>
<polygon fill="#ffffff" stroke="transparent" points="417,-236 417,-254 507,-254 507,-236 417,-236"/>
<polygon fill="none" stroke="black" points="417,-236 417,-254 507,-254 507,-236 417,-236"/>
<text text-anchor="start" x="420" y="-242.2" font-family="Helvetica,sans-Serif" font-size="11.00">&lt; 5</text>
<polygon fill="#ffffff" stroke="transparent" points="507,-236 507,-254 554,-254 554,-236 507,-236"/>
<polygon fill="none" stroke="black" points="507,-236 507,-254 554,-254 554,-236 507,-236"/>
<text text-anchor="start" x="544" y="-242.2" font-family="Helvetica,sans-Serif" font-size="11.00"> &#160;</text>
<polygon fill="#ffffff" stroke="transparent" points="554,-236 554,-254 611,-254 611,-236 554,-236"/>
<polygon fill="none" stroke="black" points="554,-236 554,-254 611,-254 611,-236 554,-236"/>
<text text-anchor="start" x="592" y="-242.2" font-family="Helvetica,sans-Serif" font-size="11.00">4 &gt;</text>
</a>
</g>
</g>
<!-- syst_access_account_instance_assocs&#45;&gt;syst_instances -->
<g id="edge1" class="edge">
<title>syst_access_account_instance_assocs:w&#45;&gt;syst_instances:e</title>
<path fill="none" stroke="black" d="M654.07,-511.97C631.82,-495.88 649.15,-437 612,-437"/>
<polygon fill="black" stroke="black" points="660.31,-513.78 667,-519.46 664.16,-514.89 668,-516 668,-516 668,-516 664.16,-514.89 669,-512.54 660.31,-513.78 660.31,-513.78"/>
<ellipse fill="none" stroke="black" cx="657.24" cy="-512.89" rx="3.2" ry="3.2"/>
</g>
<!-- syst_applications -->
<g id="node5" class="node">
<title>syst_applications</title>
<g id="a_node5"><a xlink:href="../../tables/syst_applications.html" xlink:title="syst_applications" target="_top">
<polygon fill="#ffffff" stroke="transparent" points="212,-376 212,-434 368,-434 368,-376 212,-376"/>
<polygon fill="#f5f5f5" stroke="transparent" points="212,-412 212,-434 368,-434 368,-412 212,-412"/>
<polygon fill="none" stroke="black" points="212,-412 212,-434 368,-434 368,-412 212,-412"/>
<text text-anchor="start" x="217" y="-421.2" font-family="Helvetica,sans-Serif" font-weight="bold" font-size="11.00">syst_applications</text>
<text text-anchor="start" x="333" y="-420.2" font-family="Helvetica,sans-Serif" font-size="11.00">[table]</text>
<polygon fill="none" stroke="black" points="212,-394 212,-412 368,-412 368,-394 212,-394"/>
<text text-anchor="start" x="215" y="-400.2" font-family="Helvetica,sans-Serif" font-size="11.00">...</text>
<polygon fill="#ffffff" stroke="transparent" points="212,-376 212,-394 279,-394 279,-376 212,-376"/>
<polygon fill="none" stroke="black" points="212,-376 212,-394 279,-394 279,-376 212,-376"/>
<text text-anchor="start" x="215" y="-382.2" font-family="Helvetica,sans-Serif" font-size="11.00"> &#160;</text>
<polygon fill="#ffffff" stroke="transparent" points="279,-376 279,-394 319,-394 319,-376 279,-376"/>
<polygon fill="none" stroke="black" points="279,-376 279,-394 319,-394 319,-376 279,-376"/>
<text text-anchor="start" x="309" y="-382.2" font-family="Helvetica,sans-Serif" font-size="11.00"> &#160;</text>
<polygon fill="#ffffff" stroke="transparent" points="319,-376 319,-394 368,-394 368,-376 319,-376"/>
<polygon fill="none" stroke="black" points="319,-376 319,-394 368,-394 368,-376 319,-376"/>
<text text-anchor="start" x="349" y="-382.2" font-family="Helvetica,sans-Serif" font-size="11.00">3 &gt;</text>
</a>
</g>
</g>
<!-- syst_instances&#45;&gt;syst_applications -->
<g id="edge4" class="edge">
<title>syst_instances:w&#45;&gt;syst_applications:e</title>
<path fill="none" stroke="black" d="M402.24,-375.45C390.81,-384.24 388.35,-403 369,-403"/>
<polygon fill="black" stroke="black" points="408.39,-373.46 417.11,-374.43 412.19,-372.23 416,-371 416,-371 416,-371 412.19,-372.23 414.89,-367.57 408.39,-373.46 408.39,-373.46"/>
<ellipse fill="none" stroke="black" cx="405.34" cy="-374.45" rx="3.2" ry="3.2"/>
</g>
<!-- syst_enum_items -->
<g id="node6" class="node">
<title>syst_enum_items</title>
<g id="a_node6"><a xlink:href="../../tables/syst_enum_items.html" xlink:title="syst_enum_items" target="_top">
<polygon fill="#ffffff" stroke="transparent" points="8,-298 8,-356 163,-356 163,-298 8,-298"/>
<polygon fill="#f5f5f5" stroke="transparent" points="8.5,-334 8.5,-356 163.5,-356 163.5,-334 8.5,-334"/>
<polygon fill="none" stroke="black" points="8.5,-334 8.5,-356 163.5,-356 163.5,-334 8.5,-334"/>
<text text-anchor="start" x="13.5" y="-343.2" font-family="Helvetica,sans-Serif" font-weight="bold" font-size="11.00">syst_enum_items</text>
<text text-anchor="start" x="128.5" y="-342.2" font-family="Helvetica,sans-Serif" font-size="11.00">[table]</text>
<polygon fill="none" stroke="black" points="8.5,-316 8.5,-334 163.5,-334 163.5,-316 8.5,-316"/>
<text text-anchor="start" x="11.5" y="-322.2" font-family="Helvetica,sans-Serif" font-size="11.00">...</text>
<polygon fill="#ffffff" stroke="transparent" points="8.5,-298 8.5,-316 79.5,-316 79.5,-298 8.5,-298"/>
<polygon fill="none" stroke="black" points="8.5,-298 8.5,-316 79.5,-316 79.5,-298 8.5,-298"/>
<text text-anchor="start" x="11.5" y="-304.2" font-family="Helvetica,sans-Serif" font-size="11.00">&lt; 2</text>
<polygon fill="#ffffff" stroke="transparent" points="79.5,-298 79.5,-316 116.5,-316 116.5,-298 79.5,-298"/>
<polygon fill="none" stroke="black" points="79.5,-298 79.5,-316 116.5,-316 116.5,-298 79.5,-298"/>
<text text-anchor="start" x="106.5" y="-304.2" font-family="Helvetica,sans-Serif" font-size="11.00"> &#160;</text>
<polygon fill="#ffffff" stroke="transparent" points="116.5,-298 116.5,-316 163.5,-316 163.5,-298 116.5,-298"/>
<polygon fill="none" stroke="black" points="116.5,-298 116.5,-316 163.5,-316 163.5,-298 116.5,-298"/>
<text text-anchor="start" x="144.5" y="-304.2" font-family="Helvetica,sans-Serif" font-size="11.00">7 &gt;</text>
</a>
</g>
</g>
<!-- syst_instances&#45;&gt;syst_enum_items -->
<g id="edge5" class="edge">
<title>syst_instances:w&#45;&gt;syst_enum_items:e</title>
<path fill="none" stroke="black" d="M401.43,-326.99C301.54,-326.82 271.26,-325 164.5,-325"/>
<polygon fill="black" stroke="black" points="408,-326.99 416,-330.6 412,-327 416,-327 416,-327 416,-327 412,-327 416,-323.4 408,-326.99 408,-326.99"/>
<ellipse fill="none" stroke="black" cx="404.8" cy="-326.99" rx="3.2" ry="3.2"/>
</g>
<!-- syst_instances&#45;&gt;syst_enum_items -->
<g id="edge6" class="edge">
<title>syst_instances:w&#45;&gt;syst_enum_items:e</title>
<path fill="none" stroke="black" d="M401.37,-349.02C318.77,-349.23 292.09,-350.8 204,-336 186.03,-332.98 182.72,-325 164.5,-325"/>
<polygon fill="black" stroke="black" points="408,-349.01 416,-352.6 412,-349.01 416,-349 416,-349 416,-349 412,-349.01 416,-345.4 408,-349.01 408,-349.01"/>
<ellipse fill="none" stroke="black" cx="404.8" cy="-349.02" rx="3.2" ry="3.2"/>
</g>
<!-- syst_owners -->
<g id="node7" class="node">
<title>syst_owners</title>
<g id="a_node7"><a xlink:href="../../tables/syst_owners.html" xlink:title="syst_owners" target="_top">
<polygon fill="#ffffff" stroke="transparent" points="229,-243 229,-301 351,-301 351,-243 229,-243"/>
<polygon fill="#f5f5f5" stroke="transparent" points="229,-279 229,-301 351,-301 351,-279 229,-279"/>
<polygon fill="none" stroke="black" points="229,-279 229,-301 351,-301 351,-279 229,-279"/>
<text text-anchor="start" x="234" y="-288.2" font-family="Helvetica,sans-Serif" font-weight="bold" font-size="11.00">syst_owners</text>
<text text-anchor="start" x="316" y="-287.2" font-family="Helvetica,sans-Serif" font-size="11.00">[table]</text>
<polygon fill="none" stroke="black" points="229,-261 229,-279 351,-279 351,-261 229,-261"/>
<text text-anchor="start" x="232" y="-267.2" font-family="Helvetica,sans-Serif" font-size="11.00">...</text>
<polygon fill="#ffffff" stroke="transparent" points="229,-243 229,-261 283,-261 283,-243 229,-243"/>
<polygon fill="none" stroke="black" points="229,-243 229,-261 283,-261 283,-243 229,-243"/>
<text text-anchor="start" x="232" y="-249.2" font-family="Helvetica,sans-Serif" font-size="11.00">&lt; 1</text>
<polygon fill="#ffffff" stroke="transparent" points="283,-243 283,-261 312,-261 312,-243 283,-243"/>
<polygon fill="none" stroke="black" points="283,-243 283,-261 312,-261 312,-243 283,-243"/>
<text text-anchor="start" x="302" y="-249.2" font-family="Helvetica,sans-Serif" font-size="11.00"> &#160;</text>
<polygon fill="#ffffff" stroke="transparent" points="312,-243 312,-261 351,-261 351,-243 312,-243"/>
<polygon fill="none" stroke="black" points="312,-243 312,-261 351,-261 351,-243 312,-243"/>
<text text-anchor="start" x="332" y="-249.2" font-family="Helvetica,sans-Serif" font-size="11.00">4 &gt;</text>
</a>
</g>
</g>
<!-- syst_instances&#45;&gt;syst_owners -->
<g id="edge7" class="edge">
<title>syst_instances:w&#45;&gt;syst_owners:e</title>
<path fill="none" stroke="black" d="M401.63,-302.14C382.85,-293.78 378.72,-270 352,-270"/>
<polygon fill="black" stroke="black" points="408.15,-303.44 415.3,-308.53 412.08,-304.22 416,-305 416,-305 416,-305 412.08,-304.22 416.7,-301.47 408.15,-303.44 408.15,-303.44"/>
<ellipse fill="none" stroke="black" cx="405.02" cy="-302.81" rx="3.2" ry="3.2"/>
</g>
<!-- syst_instance_contexts -->
<g id="node3" class="node">
<title>syst_instance_contexts</title>
<g id="a_node3"><a xlink:href="../../tables/syst_instance_contexts.html" xlink:title="syst_instance_contexts" target="_top">
<polygon fill="#ffffff" stroke="transparent" points="717.5,-410 717.5,-468 912.5,-468 912.5,-410 717.5,-410"/>
<polygon fill="#f5f5f5" stroke="transparent" points="718,-446 718,-468 913,-468 913,-446 718,-446"/>
<polygon fill="none" stroke="black" points="718,-446 718,-468 913,-468 913,-446 718,-446"/>
<text text-anchor="start" x="723" y="-455.2" font-family="Helvetica,sans-Serif" font-weight="bold" font-size="11.00">syst_instance_contexts</text>
<text text-anchor="start" x="878" y="-454.2" font-family="Helvetica,sans-Serif" font-size="11.00">[table]</text>
<polygon fill="none" stroke="black" points="718,-428 718,-446 913,-446 913,-428 718,-428"/>
<text text-anchor="start" x="721" y="-434.2" font-family="Helvetica,sans-Serif" font-size="11.00">...</text>
<polygon fill="#ffffff" stroke="transparent" points="718,-410 718,-428 813,-428 813,-410 718,-410"/>
<polygon fill="none" stroke="black" points="718,-410 718,-428 813,-428 813,-410 718,-410"/>
<text text-anchor="start" x="721" y="-416.2" font-family="Helvetica,sans-Serif" font-size="11.00">&lt; 2</text>
<polygon fill="#ffffff" stroke="transparent" points="813,-410 813,-428 863,-428 863,-410 813,-410"/>
<polygon fill="none" stroke="black" points="813,-410 813,-428 863,-428 863,-410 813,-410"/>
<text text-anchor="start" x="853" y="-416.2" font-family="Helvetica,sans-Serif" font-size="11.00"> &#160;</text>
<polygon fill="#ffffff" stroke="transparent" points="863,-410 863,-428 913,-428 913,-410 863,-410"/>
<polygon fill="none" stroke="black" points="863,-410 863,-428 913,-428 913,-410 863,-410"/>
<text text-anchor="start" x="903" y="-416.2" font-family="Helvetica,sans-Serif" font-size="11.00"> &#160;</text>
</a>
</g>
</g>
<!-- syst_instance_contexts&#45;&gt;syst_instances -->
<g id="edge2" class="edge">
<title>syst_instance_contexts:w&#45;&gt;syst_instances:e</title>
<path fill="none" stroke="black" d="M702.39,-437C667.24,-437 653.38,-437 612,-437"/>
<polygon fill="black" stroke="black" points="709,-437 717,-440.6 713,-437 717,-437 717,-437 717,-437 713,-437 717,-433.4 709,-437 709,-437"/>
<ellipse fill="none" stroke="black" cx="705.8" cy="-437" rx="3.2" ry="3.2"/>
</g>
<!-- syst_instance_network_rules -->
<g id="node4" class="node">
<title>syst_instance_network_rules</title>
<g id="a_node4"><a xlink:href="../../tables/syst_instance_network_rules.html" xlink:title="syst_instance_network_rules" target="_top">
<polygon fill="#ffffff" stroke="transparent" points="660,-37 660,-389 970,-389 970,-37 660,-37"/>
<polygon fill="#f5f5f5" stroke="transparent" points="662,-365 662,-387 968,-387 968,-365 662,-365"/>
<polygon fill="none" stroke="black" points="662,-365 662,-387 968,-387 968,-365 662,-365"/>
<text text-anchor="start" x="667" y="-374.2" font-family="Helvetica,sans-Serif" font-weight="bold" font-size="11.00">syst_instance_network_rules</text>
<text text-anchor="start" x="933" y="-373.2" font-family="Helvetica,sans-Serif" font-size="11.00">[table]</text>
<polygon fill="none" stroke="black" points="662,-343 662,-365 875,-365 875,-343 662,-343"/>
<image xlink:href="../../images/primaryKeys.png" width="11px" height="12px" preserveAspectRatio="xMinYMin meet" x="667" y="-360"/>
<text text-anchor="start" x="682" y="-351.2" font-family="Helvetica,sans-Serif" font-size="11.00">id</text>
<polygon fill="none" stroke="black" points="875,-343 875,-365 968,-365 968,-343 875,-343"/>
<text text-anchor="start" x="878" y="-351.2" font-family="Helvetica,sans-Serif" font-size="11.00">uuid[2147483647]</text>
<polygon fill="#ffffff" stroke="transparent" points="662,-321 662,-343 875,-343 875,-321 662,-321"/>
<polygon fill="none" stroke="black" points="662,-321 662,-343 875,-343 875,-321 662,-321"/>
<image xlink:href="../../images/foreignKeys.png" width="11px" height="12px" preserveAspectRatio="xMinYMin meet" x="667" y="-338"/>
<text text-anchor="start" x="682" y="-329.2" font-family="Helvetica,sans-Serif" font-size="11.00">instance_id</text>
<polygon fill="none" stroke="black" points="875,-321 875,-343 968,-343 968,-321 875,-321"/>
<text text-anchor="start" x="878" y="-329.2" font-family="Helvetica,sans-Serif" font-size="11.00">uuid[2147483647]</text>
<polygon fill="#ffffff" stroke="transparent" points="662,-299 662,-321 875,-321 875,-299 662,-299"/>
<polygon fill="none" stroke="black" points="662,-299 662,-321 875,-321 875,-299 662,-299"/>
<text text-anchor="start" x="682" y="-307.2" font-family="Helvetica,sans-Serif" font-size="11.00">ordering</text>
<polygon fill="none" stroke="black" points="875,-299 875,-321 968,-321 968,-299 875,-299"/>
<text text-anchor="start" x="878" y="-307.2" font-family="Helvetica,sans-Serif" font-size="11.00">int4[10]</text>
<polygon fill="none" stroke="black" points="662,-277 662,-299 875,-299 875,-277 662,-277"/>
<text text-anchor="start" x="682" y="-285.2" font-family="Helvetica,sans-Serif" font-size="11.00">functional_type</text>
<polygon fill="none" stroke="black" points="875,-277 875,-299 968,-299 968,-277 875,-277"/>
<text text-anchor="start" x="878" y="-285.2" font-family="Helvetica,sans-Serif" font-size="11.00">text[2147483647]</text>
<polygon fill="none" stroke="black" points="662,-255 662,-277 875,-277 875,-255 662,-255"/>
<text text-anchor="start" x="682" y="-263.2" font-family="Helvetica,sans-Serif" font-size="11.00">ip_host_or_network</text>
<polygon fill="none" stroke="black" points="875,-255 875,-277 968,-277 968,-255 875,-255"/>
<text text-anchor="start" x="878" y="-263.2" font-family="Helvetica,sans-Serif" font-size="11.00">inet[2147483647]</text>
<polygon fill="none" stroke="black" points="662,-233 662,-255 875,-255 875,-233 662,-233"/>
<text text-anchor="start" x="682" y="-241.2" font-family="Helvetica,sans-Serif" font-size="11.00">ip_host_range_lower</text>
<polygon fill="none" stroke="black" points="875,-233 875,-255 968,-255 968,-233 875,-233"/>
<text text-anchor="start" x="878" y="-241.2" font-family="Helvetica,sans-Serif" font-size="11.00">inet[2147483647]</text>
<polygon fill="none" stroke="black" points="662,-211 662,-233 875,-233 875,-211 662,-211"/>
<text text-anchor="start" x="682" y="-219.2" font-family="Helvetica,sans-Serif" font-size="11.00">ip_host_range_upper</text>
<polygon fill="none" stroke="black" points="875,-211 875,-233 968,-233 968,-211 875,-211"/>
<text text-anchor="start" x="878" y="-219.2" font-family="Helvetica,sans-Serif" font-size="11.00">inet[2147483647]</text>
<polygon fill="none" stroke="black" points="662,-189 662,-211 875,-211 875,-189 662,-189"/>
<text text-anchor="start" x="682" y="-197.2" font-family="Helvetica,sans-Serif" font-size="11.00">diag_timestamp_created</text>
<polygon fill="none" stroke="black" points="875,-189 875,-211 968,-211 968,-189 875,-189"/>
<text text-anchor="start" x="878" y="-197.2" font-family="Helvetica,sans-Serif" font-size="11.00">timestamptz[35,6]</text>
<polygon fill="none" stroke="black" points="662,-167 662,-189 875,-189 875,-167 662,-167"/>
<text text-anchor="start" x="682" y="-175.2" font-family="Helvetica,sans-Serif" font-size="11.00">diag_role_created</text>
<polygon fill="none" stroke="black" points="875,-167 875,-189 968,-189 968,-167 875,-167"/>
<text text-anchor="start" x="878" y="-175.2" font-family="Helvetica,sans-Serif" font-size="11.00">text[2147483647]</text>
<polygon fill="none" stroke="black" points="662,-145 662,-167 875,-167 875,-145 662,-145"/>
<text text-anchor="start" x="682" y="-153.2" font-family="Helvetica,sans-Serif" font-size="11.00">diag_timestamp_modified</text>
<polygon fill="none" stroke="black" points="875,-145 875,-167 968,-167 968,-145 875,-145"/>
<text text-anchor="start" x="878" y="-153.2" font-family="Helvetica,sans-Serif" font-size="11.00">timestamptz[35,6]</text>
<polygon fill="none" stroke="black" points="662,-123 662,-145 875,-145 875,-123 662,-123"/>
<text text-anchor="start" x="682" y="-131.2" font-family="Helvetica,sans-Serif" font-size="11.00">diag_wallclock_modified</text>
<polygon fill="none" stroke="black" points="875,-123 875,-145 968,-145 968,-123 875,-123"/>
<text text-anchor="start" x="878" y="-131.2" font-family="Helvetica,sans-Serif" font-size="11.00">timestamptz[35,6]</text>
<polygon fill="none" stroke="black" points="662,-101 662,-123 875,-123 875,-101 662,-101"/>
<text text-anchor="start" x="682" y="-109.2" font-family="Helvetica,sans-Serif" font-size="11.00">diag_role_modified</text>
<polygon fill="none" stroke="black" points="875,-101 875,-123 968,-123 968,-101 875,-101"/>
<text text-anchor="start" x="878" y="-109.2" font-family="Helvetica,sans-Serif" font-size="11.00">text[2147483647]</text>
<polygon fill="none" stroke="black" points="662,-79 662,-101 875,-101 875,-79 662,-79"/>
<text text-anchor="start" x="682" y="-87.2" font-family="Helvetica,sans-Serif" font-size="11.00">diag_row_version</text>
<polygon fill="none" stroke="black" points="875,-79 875,-101 968,-101 968,-79 875,-79"/>
<text text-anchor="start" x="878" y="-87.2" font-family="Helvetica,sans-Serif" font-size="11.00">int8[19]</text>
<polygon fill="none" stroke="black" points="662,-57 662,-79 875,-79 875,-57 662,-57"/>
<text text-anchor="start" x="682" y="-65.2" font-family="Helvetica,sans-Serif" font-size="11.00">diag_update_count</text>
<polygon fill="none" stroke="black" points="875,-57 875,-79 968,-79 968,-57 875,-57"/>
<text text-anchor="start" x="878" y="-65.2" font-family="Helvetica,sans-Serif" font-size="11.00">int8[19]</text>
<polygon fill="#ffffff" stroke="transparent" points="662,-39 662,-57 773,-57 773,-39 662,-39"/>
<polygon fill="none" stroke="black" points="662,-39 662,-57 773,-57 773,-39 662,-39"/>
<text text-anchor="start" x="665" y="-45.2" font-family="Helvetica,sans-Serif" font-size="11.00">&lt; 1</text>
<polygon fill="#ffffff" stroke="transparent" points="773,-39 773,-57 875,-57 875,-39 773,-39"/>
<polygon fill="none" stroke="black" points="773,-39 773,-57 875,-57 875,-39 773,-39"/>
<text text-anchor="start" x="865" y="-45.2" font-family="Helvetica,sans-Serif" font-size="11.00"> &#160;</text>
<polygon fill="#ffffff" stroke="transparent" points="875,-39 875,-57 968,-57 968,-39 875,-39"/>
<polygon fill="none" stroke="black" points="875,-39 875,-57 968,-57 968,-39 875,-39"/>
<text text-anchor="start" x="949" y="-45.2" font-family="Helvetica,sans-Serif" font-size="11.00">0 &gt;</text>
<polygon fill="none" stroke="black" stroke-width="2" points="661,-38 661,-388 969,-388 969,-38 661,-38"/>
</a>
</g>
</g>
<!-- syst_instance_network_rules&#45;&gt;syst_instances -->
<g id="edge3" class="edge">
<title>syst_instance_network_rules:w&#45;&gt;syst_instances:e</title>
<path fill="none" stroke="black" d="M646.9,-335.99C620.71,-355.17 657.46,-437 612,-437"/>
<polygon fill="black" stroke="black" points="653.3,-334.18 661.98,-335.46 657.15,-333.09 661,-332 661,-332 661,-332 657.15,-333.09 660.02,-328.54 653.3,-334.18 653.3,-334.18"/>
<ellipse fill="none" stroke="black" cx="650.22" cy="-335.05" rx="3.2" ry="3.2"/>
</g>
<!-- syst_owners&#45;&gt;syst_enum_items -->
<g id="edge8" class="edge">
<title>syst_owners:w&#45;&gt;syst_enum_items:e</title>
<path fill="none" stroke="black" d="M213.97,-273.44C192.94,-285.48 196.15,-325 164.5,-325"/>
<polygon fill="black" stroke="black" points="220.23,-271.91 228.86,-273.5 224.12,-270.95 228,-270 228,-270 228,-270 224.12,-270.95 227.14,-266.5 220.23,-271.91 220.23,-271.91"/>
<ellipse fill="none" stroke="black" cx="217.12" cy="-272.67" rx="3.2" ry="3.2"/>
</g>
</g>
</svg>
