<?xml version="1.0" encoding="UTF-8" standalone="no"?>
<!DOCTYPE svg PUBLIC "-//W3C//DTD SVG 1.1//EN"
 "http://www.w3.org/Graphics/SVG/1.1/DTD/svg11.dtd">
<!-- Generated by graphviz version 2.43.0 (0)
 -->
<!-- Title: twoDegreesRelationshipsDiagram Pages: 1 -->
<svg width="1860pt" height="589pt"
 viewBox="0.00 0.00 1860.00 589.00" xmlns="http://www.w3.org/2000/svg" xmlns:xlink="http://www.w3.org/1999/xlink">
<g id="graph0" class="graph" transform="scale(1 1) rotate(0) translate(4 585)">
<title>twoDegreesRelationshipsDiagram</title>
<polygon fill="#ffffff" stroke="transparent" points="-4,4 -4,-585 1856,-585 1856,4 -4,4"/>
<text text-anchor="middle" x="71.5" y="-7.2" font-family="Helvetica,sans-Serif" font-size="11.00">Generated by SchemaSpy</text>
<!-- syst_access_account_instance_assocs -->
<g id="node1" class="node">
<title>syst_access_account_instance_assocs</title>
<g id="a_node1"><a xlink:href="../../tables/syst_access_account_instance_assocs.html" xlink:title="syst_access_account_instance_assocs" target="_top">
<polygon fill="#ffffff" stroke="transparent" points="1204,-519 1204,-577 1496,-577 1496,-519 1204,-519"/>
<polygon fill="#f5f5f5" stroke="transparent" points="1204,-555 1204,-577 1496,-577 1496,-555 1204,-555"/>
<polygon fill="none" stroke="black" points="1204,-555 1204,-577 1496,-577 1496,-555 1204,-555"/>
<text text-anchor="start" x="1209" y="-564.2" font-family="Helvetica,sans-Serif" font-weight="bold" font-size="11.00">syst_access_account_instance_assocs</text>
<text text-anchor="start" x="1461" y="-563.2" font-family="Helvetica,sans-Serif" font-size="11.00">[table]</text>
<polygon fill="none" stroke="black" points="1204,-537 1204,-555 1496,-555 1496,-537 1204,-537"/>
<text text-anchor="start" x="1207" y="-543.2" font-family="Helvetica,sans-Serif" font-size="11.00">...</text>
<polygon fill="#ffffff" stroke="transparent" points="1204,-519 1204,-537 1348,-537 1348,-519 1204,-519"/>
<polygon fill="none" stroke="black" points="1204,-519 1204,-537 1348,-537 1348,-519 1204,-519"/>
<text text-anchor="start" x="1207" y="-525.2" font-family="Helvetica,sans-Serif" font-size="11.00">&lt; 2</text>
<polygon fill="#ffffff" stroke="transparent" points="1348,-519 1348,-537 1422,-537 1422,-519 1348,-519"/>
<polygon fill="none" stroke="black" points="1348,-519 1348,-537 1422,-537 1422,-519 1348,-519"/>
<text text-anchor="start" x="1412" y="-525.2" font-family="Helvetica,sans-Serif" font-size="11.00"> &#160;</text>
<polygon fill="#ffffff" stroke="transparent" points="1422,-519 1422,-537 1496,-537 1496,-519 1422,-519"/>
<polygon fill="none" stroke="black" points="1422,-519 1422,-537 1496,-537 1496,-519 1422,-519"/>
<text text-anchor="start" x="1486" y="-525.2" font-family="Helvetica,sans-Serif" font-size="11.00"> &#160;</text>
</a>
</g>
</g>
<!-- syst_access_accounts -->
<g id="node2" class="node">
<title>syst_access_accounts</title>
<g id="a_node2"><a xlink:href="../../tables/syst_access_accounts.html" xlink:title="syst_access_accounts" target="_top">
<polygon fill="#ffffff" stroke="transparent" points="962,-343 962,-401 1147,-401 1147,-343 962,-343"/>
<polygon fill="#f5f5f5" stroke="transparent" points="962.5,-379 962.5,-401 1147.5,-401 1147.5,-379 962.5,-379"/>
<polygon fill="none" stroke="black" points="962.5,-379 962.5,-401 1147.5,-401 1147.5,-379 962.5,-379"/>
<text text-anchor="start" x="967.5" y="-388.2" font-family="Helvetica,sans-Serif" font-weight="bold" font-size="11.00">syst_access_accounts</text>
<text text-anchor="start" x="1112.5" y="-387.2" font-family="Helvetica,sans-Serif" font-size="11.00">[table]</text>
<polygon fill="none" stroke="black" points="962.5,-361 962.5,-379 1147.5,-379 1147.5,-361 962.5,-361"/>
<text text-anchor="start" x="965.5" y="-367.2" font-family="Helvetica,sans-Serif" font-size="11.00">...</text>
<polygon fill="#ffffff" stroke="transparent" points="962.5,-343 962.5,-361 1048.5,-361 1048.5,-343 962.5,-343"/>
<polygon fill="none" stroke="black" points="962.5,-343 962.5,-361 1048.5,-361 1048.5,-343 962.5,-343"/>
<text text-anchor="start" x="965.5" y="-349.2" font-family="Helvetica,sans-Serif" font-size="11.00">&lt; 2</text>
<polygon fill="#ffffff" stroke="transparent" points="1048.5,-343 1048.5,-361 1093.5,-361 1093.5,-343 1048.5,-343"/>
<polygon fill="none" stroke="black" points="1048.5,-343 1048.5,-361 1093.5,-361 1093.5,-343 1048.5,-343"/>
<text text-anchor="start" x="1083.5" y="-349.2" font-family="Helvetica,sans-Serif" font-size="11.00"> &#160;</text>
<polygon fill="#ffffff" stroke="transparent" points="1093.5,-343 1093.5,-361 1147.5,-361 1147.5,-343 1093.5,-343"/>
<polygon fill="none" stroke="black" points="1093.5,-343 1093.5,-361 1147.5,-361 1147.5,-343 1093.5,-343"/>
<text text-anchor="start" x="1128.5" y="-349.2" font-family="Helvetica,sans-Serif" font-size="11.00">5 &gt;</text>
</a>
</g>
</g>
<!-- syst_access_account_instance_assocs&#45;&gt;syst_access_accounts -->
<g id="edge1" class="edge">
<title>syst_access_account_instance_assocs:w&#45;&gt;syst_access_accounts:e</title>
<path fill="none" stroke="black" d="M1188.74,-543.96C1149.47,-530.52 1194.59,-453.8 1155,-412 1152.7,-409.57 1150.22,-407.28 1147.62,-405.13"/>
<polygon fill="black" stroke="black" points="1195.08,-544.87 1202.49,-549.56 1199.04,-545.43 1203,-546 1203,-546 1203,-546 1199.04,-545.43 1203.51,-542.44 1195.08,-544.87 1195.08,-544.87"/>
<ellipse fill="none" stroke="black" cx="1191.91" cy="-544.42" rx="3.2" ry="3.2"/>
</g>
<!-- syst_instances -->
<g id="node3" class="node">
<title>syst_instances</title>
<g id="a_node3"><a xlink:href="../../tables/syst_instances.html" xlink:title="syst_instances" target="_top">
<polygon fill="#ffffff" stroke="transparent" points="985.5,-422 985.5,-480 1123.5,-480 1123.5,-422 985.5,-422"/>
<polygon fill="#f5f5f5" stroke="transparent" points="985.5,-458 985.5,-480 1123.5,-480 1123.5,-458 985.5,-458"/>
<polygon fill="none" stroke="black" points="985.5,-458 985.5,-480 1123.5,-480 1123.5,-458 985.5,-458"/>
<text text-anchor="start" x="990.5" y="-467.2" font-family="Helvetica,sans-Serif" font-weight="bold" font-size="11.00">syst_instances</text>
<text text-anchor="start" x="1088.5" y="-466.2" font-family="Helvetica,sans-Serif" font-size="11.00">[table]</text>
<polygon fill="none" stroke="black" points="985.5,-440 985.5,-458 1123.5,-458 1123.5,-440 985.5,-440"/>
<text text-anchor="start" x="988.5" y="-446.2" font-family="Helvetica,sans-Serif" font-size="11.00">...</text>
<polygon fill="#ffffff" stroke="transparent" points="985.5,-422 985.5,-440 1047.5,-440 1047.5,-422 985.5,-422"/>
<polygon fill="none" stroke="black" points="985.5,-422 985.5,-440 1047.5,-440 1047.5,-422 985.5,-422"/>
<text text-anchor="start" x="988.5" y="-428.2" font-family="Helvetica,sans-Serif" font-size="11.00">&lt; 5</text>
<polygon fill="#ffffff" stroke="transparent" points="1047.5,-422 1047.5,-440 1080.5,-440 1080.5,-422 1047.5,-422"/>
<polygon fill="none" stroke="black" points="1047.5,-422 1047.5,-440 1080.5,-440 1080.5,-422 1047.5,-422"/>
<text text-anchor="start" x="1070.5" y="-428.2" font-family="Helvetica,sans-Serif" font-size="11.00"> &#160;</text>
<polygon fill="#ffffff" stroke="transparent" points="1080.5,-422 1080.5,-440 1123.5,-440 1123.5,-422 1080.5,-422"/>
<polygon fill="none" stroke="black" points="1080.5,-422 1080.5,-440 1123.5,-440 1123.5,-422 1080.5,-422"/>
<text text-anchor="start" x="1104.5" y="-428.2" font-family="Helvetica,sans-Serif" font-size="11.00">4 &gt;</text>
</a>
</g>
</g>
<!-- syst_access_account_instance_assocs&#45;&gt;syst_instances -->
<g id="edge2" class="edge">
<title>syst_access_account_instance_assocs:w&#45;&gt;syst_instances:e</title>
<path fill="none" stroke="black" d="M1188.64,-543.2C1153.22,-527.3 1174.33,-449 1124.5,-449"/>
<polygon fill="black" stroke="black" points="1195.15,-544.47 1202.31,-549.53 1199.07,-545.24 1203,-546 1203,-546 1203,-546 1199.07,-545.24 1203.69,-542.47 1195.15,-544.47 1195.15,-544.47"/>
<ellipse fill="none" stroke="black" cx="1192.01" cy="-543.86" rx="3.2" ry="3.2"/>
</g>
<!-- syst_enum_items -->
<g id="node5" class="node">
<title>syst_enum_items</title>
<g id="a_node5"><a xlink:href="../../tables/syst_enum_items.html" xlink:title="syst_enum_items" target="_top">
<polygon fill="#ffffff" stroke="transparent" points="453,-308 453,-366 608,-366 608,-308 453,-308"/>
<polygon fill="#f5f5f5" stroke="transparent" points="453.5,-344 453.5,-366 608.5,-366 608.5,-344 453.5,-344"/>
<polygon fill="none" stroke="black" points="453.5,-344 453.5,-366 608.5,-366 608.5,-344 453.5,-344"/>
<text text-anchor="start" x="458.5" y="-353.2" font-family="Helvetica,sans-Serif" font-weight="bold" font-size="11.00">syst_enum_items</text>
<text text-anchor="start" x="573.5" y="-352.2" font-family="Helvetica,sans-Serif" font-size="11.00">[table]</text>
<polygon fill="none" stroke="black" points="453.5,-326 453.5,-344 608.5,-344 608.5,-326 453.5,-326"/>
<text text-anchor="start" x="456.5" y="-332.2" font-family="Helvetica,sans-Serif" font-size="11.00">...</text>
<polygon fill="#ffffff" stroke="transparent" points="453.5,-308 453.5,-326 524.5,-326 524.5,-308 453.5,-308"/>
<polygon fill="none" stroke="black" points="453.5,-308 453.5,-326 524.5,-326 524.5,-308 453.5,-308"/>
<text text-anchor="start" x="456.5" y="-314.2" font-family="Helvetica,sans-Serif" font-size="11.00">&lt; 2</text>
<polygon fill="#ffffff" stroke="transparent" points="524.5,-308 524.5,-326 561.5,-326 561.5,-308 524.5,-308"/>
<polygon fill="none" stroke="black" points="524.5,-308 524.5,-326 561.5,-326 561.5,-308 524.5,-308"/>
<text text-anchor="start" x="551.5" y="-314.2" font-family="Helvetica,sans-Serif" font-size="11.00"> &#160;</text>
<polygon fill="#ffffff" stroke="transparent" points="561.5,-308 561.5,-326 608.5,-326 608.5,-308 561.5,-308"/>
<polygon fill="none" stroke="black" points="561.5,-308 561.5,-326 608.5,-326 608.5,-308 561.5,-308"/>
<text text-anchor="start" x="589.5" y="-314.2" font-family="Helvetica,sans-Serif" font-size="11.00">7 &gt;</text>
</a>
</g>
</g>
<!-- syst_access_accounts&#45;&gt;syst_enum_items -->
<g id="edge4" class="edge">
<title>syst_access_accounts:w&#45;&gt;syst_enum_items:e</title>
<path fill="none" stroke="black" d="M939.33,-353.01C933.14,-352.26 927,-351.58 921,-351 816.27,-340.86 695.06,-337.87 616.03,-337.09"/>
<polygon fill="black" stroke="black" points="945.89,-353.85 953.36,-358.45 949.86,-354.36 953.82,-354.88 953.82,-354.88 953.82,-354.88 949.86,-354.36 954.28,-351.31 945.89,-353.85 945.89,-353.85"/>
<ellipse fill="none" stroke="black" cx="942.72" cy="-353.44" rx="3.2" ry="3.2"/>
</g>
<!-- syst_owners -->
<g id="node6" class="node">
<title>syst_owners</title>
<g id="a_node6"><a xlink:href="../../tables/syst_owners.html" xlink:title="syst_owners" target="_top">
<polygon fill="#ffffff" stroke="transparent" points="724,-361 724,-419 846,-419 846,-361 724,-361"/>
<polygon fill="#f5f5f5" stroke="transparent" points="724,-397 724,-419 846,-419 846,-397 724,-397"/>
<polygon fill="none" stroke="black" points="724,-397 724,-419 846,-419 846,-397 724,-397"/>
<text text-anchor="start" x="729" y="-406.2" font-family="Helvetica,sans-Serif" font-weight="bold" font-size="11.00">syst_owners</text>
<text text-anchor="start" x="811" y="-405.2" font-family="Helvetica,sans-Serif" font-size="11.00">[table]</text>
<polygon fill="none" stroke="black" points="724,-379 724,-397 846,-397 846,-379 724,-379"/>
<text text-anchor="start" x="727" y="-385.2" font-family="Helvetica,sans-Serif" font-size="11.00">...</text>
<polygon fill="#ffffff" stroke="transparent" points="724,-361 724,-379 778,-379 778,-361 724,-361"/>
<polygon fill="none" stroke="black" points="724,-361 724,-379 778,-379 778,-361 724,-361"/>
<text text-anchor="start" x="727" y="-367.2" font-family="Helvetica,sans-Serif" font-size="11.00">&lt; 1</text>
<polygon fill="#ffffff" stroke="transparent" points="778,-361 778,-379 807,-379 807,-361 778,-361"/>
<polygon fill="none" stroke="black" points="778,-361 778,-379 807,-379 807,-361 778,-361"/>
<text text-anchor="start" x="797" y="-367.2" font-family="Helvetica,sans-Serif" font-size="11.00"> &#160;</text>
<polygon fill="#ffffff" stroke="transparent" points="807,-361 807,-379 846,-379 846,-361 807,-361"/>
<polygon fill="none" stroke="black" points="807,-361 807,-379 846,-379 846,-361 807,-361"/>
<text text-anchor="start" x="827" y="-367.2" font-family="Helvetica,sans-Serif" font-size="11.00">4 &gt;</text>
</a>
</g>
</g>
<!-- syst_access_accounts&#45;&gt;syst_owners -->
<g id="edge5" class="edge">
<title>syst_access_accounts:w&#45;&gt;syst_owners:e</title>
<path fill="none" stroke="black" d="M939.32,-384.02C909.32,-386.3 876.97,-388 847,-388"/>
<polygon fill="black" stroke="black" points="945.87,-383.49 954.13,-386.44 949.85,-383.17 953.84,-382.85 953.84,-382.85 953.84,-382.85 949.85,-383.17 953.55,-379.26 945.87,-383.49 945.87,-383.49"/>
<ellipse fill="none" stroke="black" cx="942.68" cy="-383.75" rx="3.2" ry="3.2"/>
</g>
<!-- syst_instances&#45;&gt;syst_enum_items -->
<g id="edge15" class="edge">
<title>syst_instances:w&#45;&gt;syst_enum_items:e</title>
<path fill="none" stroke="black" d="M969.96,-448.53C831.96,-445.16 783.98,-475.28 649,-424 618.24,-412.31 589.18,-389.47 567.67,-370.07"/>
<polygon fill="black" stroke="black" points="976.5,-448.74 984.38,-452.6 980.5,-448.87 984.5,-449 984.5,-449 984.5,-449 980.5,-448.87 984.62,-445.4 976.5,-448.74 976.5,-448.74"/>
<ellipse fill="none" stroke="black" cx="973.31" cy="-448.64" rx="3.2" ry="3.2"/>
</g>
<!-- syst_instances&#45;&gt;syst_enum_items -->
<g id="edge16" class="edge">
<title>syst_instances:w&#45;&gt;syst_enum_items:e</title>
<path fill="none" stroke="black" d="M969.96,-449.78C831.96,-458.16 783.98,-488.28 649,-437 612.52,-423.14 578.45,-393.59 556.49,-370.09"/>
<polygon fill="black" stroke="black" points="976.51,-449.43 984.69,-452.59 980.51,-449.21 984.5,-449 984.5,-449 984.5,-449 980.51,-449.21 984.31,-445.41 976.51,-449.43 976.51,-449.43"/>
<ellipse fill="none" stroke="black" cx="973.32" cy="-449.6" rx="3.2" ry="3.2"/>
</g>
<!-- syst_instances&#45;&gt;syst_owners -->
<g id="edge17" class="edge">
<title>syst_instances:w&#45;&gt;syst_owners:e</title>
<path fill="none" stroke="black" d="M969.93,-447.94C916.67,-439.84 908.63,-388 847,-388"/>
<polygon fill="black" stroke="black" points="976.52,-448.42 984.24,-452.59 980.51,-448.71 984.5,-449 984.5,-449 984.5,-449 980.51,-448.71 984.76,-445.41 976.52,-448.42 976.52,-448.42"/>
<ellipse fill="none" stroke="black" cx="973.33" cy="-448.19" rx="3.2" ry="3.2"/>
</g>
<!-- syst_access_account_perm_role_assigns -->
<g id="node4" class="node">
<title>syst_access_account_perm_role_assigns</title>
<g id="a_node4"><a xlink:href="../../tables/syst_access_account_perm_role_assigns.html" xlink:title="syst_access_account_perm_role_assigns" target="_top">
<polygon fill="#ffffff" stroke="transparent" points="1196,-440 1196,-498 1504,-498 1504,-440 1196,-440"/>
<polygon fill="#f5f5f5" stroke="transparent" points="1196,-476 1196,-498 1504,-498 1504,-476 1196,-476"/>
<polygon fill="none" stroke="black" points="1196,-476 1196,-498 1504,-498 1504,-476 1196,-476"/>
<text text-anchor="start" x="1201" y="-485.2" font-family="Helvetica,sans-Serif" font-weight="bold" font-size="11.00">syst_access_account_perm_role_assigns</text>
<text text-anchor="start" x="1469" y="-484.2" font-family="Helvetica,sans-Serif" font-size="11.00">[table]</text>
<polygon fill="none" stroke="black" points="1196,-458 1196,-476 1504,-476 1504,-458 1196,-458"/>
<text text-anchor="start" x="1199" y="-464.2" font-family="Helvetica,sans-Serif" font-size="11.00">...</text>
<polygon fill="#ffffff" stroke="transparent" points="1196,-440 1196,-458 1348,-458 1348,-440 1196,-440"/>
<polygon fill="none" stroke="black" points="1196,-440 1196,-458 1348,-458 1348,-440 1196,-440"/>
<text text-anchor="start" x="1199" y="-446.2" font-family="Helvetica,sans-Serif" font-size="11.00">&lt; 2</text>
<polygon fill="#ffffff" stroke="transparent" points="1348,-440 1348,-458 1426,-458 1426,-440 1348,-440"/>
<polygon fill="none" stroke="black" points="1348,-440 1348,-458 1426,-458 1426,-440 1348,-440"/>
<text text-anchor="start" x="1416" y="-446.2" font-family="Helvetica,sans-Serif" font-size="11.00"> &#160;</text>
<polygon fill="#ffffff" stroke="transparent" points="1426,-440 1426,-458 1504,-458 1504,-440 1426,-440"/>
<polygon fill="none" stroke="black" points="1426,-440 1426,-458 1504,-458 1504,-440 1426,-440"/>
<text text-anchor="start" x="1494" y="-446.2" font-family="Helvetica,sans-Serif" font-size="11.00"> &#160;</text>
</a>
</g>
</g>
<!-- syst_access_account_perm_role_assigns&#45;&gt;syst_access_accounts -->
<g id="edge3" class="edge">
<title>syst_access_account_perm_role_assigns:w&#45;&gt;syst_access_accounts:e</title>
<path fill="none" stroke="black" d="M1181.01,-462.65C1169.02,-452.43 1173.81,-426.66 1155,-412 1151.92,-409.6 1148.67,-407.32 1145.31,-405.16"/>
<polygon fill="black" stroke="black" points="1187.36,-464.62 1193.93,-470.44 1191.18,-465.81 1195,-467 1195,-467 1195,-467 1191.18,-465.81 1196.07,-463.56 1187.36,-464.62 1187.36,-464.62"/>
<ellipse fill="none" stroke="black" cx="1184.31" cy="-463.67" rx="3.2" ry="3.2"/>
</g>
<!-- syst_enum_functional_types -->
<g id="node9" class="node">
<title>syst_enum_functional_types</title>
<g id="a_node9"><a xlink:href="../../tables/syst_enum_functional_types.html" xlink:title="syst_enum_functional_types" target="_top">
<polygon fill="#ffffff" stroke="transparent" points="175,-283 175,-341 404,-341 404,-283 175,-283"/>
<polygon fill="#f5f5f5" stroke="transparent" points="175.5,-319 175.5,-341 404.5,-341 404.5,-319 175.5,-319"/>
<polygon fill="none" stroke="black" points="175.5,-319 175.5,-341 404.5,-341 404.5,-319 175.5,-319"/>
<text text-anchor="start" x="180.5" y="-328.2" font-family="Helvetica,sans-Serif" font-weight="bold" font-size="11.00">syst_enum_functional_types</text>
<text text-anchor="start" x="369.5" y="-327.2" font-family="Helvetica,sans-Serif" font-size="11.00">[table]</text>
<polygon fill="none" stroke="black" points="175.5,-301 175.5,-319 404.5,-319 404.5,-301 175.5,-301"/>
<text text-anchor="start" x="178.5" y="-307.2" font-family="Helvetica,sans-Serif" font-size="11.00">...</text>
<polygon fill="#ffffff" stroke="transparent" points="175.5,-283 175.5,-301 283.5,-301 283.5,-283 175.5,-283"/>
<polygon fill="none" stroke="black" points="175.5,-283 175.5,-301 283.5,-301 283.5,-283 175.5,-283"/>
<text text-anchor="start" x="178.5" y="-289.2" font-family="Helvetica,sans-Serif" font-size="11.00">&lt; 1</text>
<polygon fill="#ffffff" stroke="transparent" points="283.5,-283 283.5,-301 339.5,-301 339.5,-283 283.5,-283"/>
<polygon fill="none" stroke="black" points="283.5,-283 283.5,-301 339.5,-301 339.5,-283 283.5,-283"/>
<text text-anchor="start" x="329.5" y="-289.2" font-family="Helvetica,sans-Serif" font-size="11.00"> &#160;</text>
<polygon fill="#ffffff" stroke="transparent" points="339.5,-283 339.5,-301 404.5,-301 404.5,-283 339.5,-283"/>
<polygon fill="none" stroke="black" points="339.5,-283 339.5,-301 404.5,-301 404.5,-283 339.5,-283"/>
<text text-anchor="start" x="385.5" y="-289.2" font-family="Helvetica,sans-Serif" font-size="11.00">1 &gt;</text>
</a>
</g>
</g>
<!-- syst_enum_items&#45;&gt;syst_enum_functional_types -->
<g id="edge11" class="edge">
<title>syst_enum_items:w&#45;&gt;syst_enum_functional_types:e</title>
<path fill="none" stroke="black" d="M430.43,-311.53C422.05,-310.56 413.66,-310 405.5,-310"/>
<polygon fill="black" stroke="black" points="437.06,-312.47 444.48,-317.15 441.02,-313.03 444.98,-313.59 444.98,-313.59 444.98,-313.59 441.02,-313.03 445.48,-310.02 437.06,-312.47 437.06,-312.47"/>
<ellipse fill="none" stroke="black" cx="433.89" cy="-312.02" rx="3.2" ry="3.2"/>
</g>
<!-- syst_enums -->
<g id="node10" class="node">
<title>syst_enums</title>
<g id="a_node10"><a xlink:href="../../tables/syst_enums.html" xlink:title="syst_enums" target="_top">
<polygon fill="#ffffff" stroke="transparent" points="8,-310 8,-368 126,-368 126,-310 8,-310"/>
<polygon fill="#f5f5f5" stroke="transparent" points="8,-346 8,-368 126,-368 126,-346 8,-346"/>
<polygon fill="none" stroke="black" points="8,-346 8,-368 126,-368 126,-346 8,-346"/>
<text text-anchor="start" x="13" y="-355.2" font-family="Helvetica,sans-Serif" font-weight="bold" font-size="11.00">syst_enums</text>
<text text-anchor="start" x="91" y="-354.2" font-family="Helvetica,sans-Serif" font-size="11.00">[table]</text>
<polygon fill="none" stroke="black" points="8,-328 8,-346 126,-346 126,-328 8,-328"/>
<text text-anchor="start" x="11" y="-334.2" font-family="Helvetica,sans-Serif" font-size="11.00">...</text>
<polygon fill="#ffffff" stroke="transparent" points="8,-310 8,-328 56,-328 56,-310 8,-310"/>
<polygon fill="none" stroke="black" points="8,-310 8,-328 56,-328 56,-310 8,-310"/>
<text text-anchor="start" x="11" y="-316.2" font-family="Helvetica,sans-Serif" font-size="11.00"> &#160;</text>
<polygon fill="#ffffff" stroke="transparent" points="56,-310 56,-328 86,-328 86,-310 56,-310"/>
<polygon fill="none" stroke="black" points="56,-310 56,-328 86,-328 86,-310 56,-310"/>
<text text-anchor="start" x="76" y="-316.2" font-family="Helvetica,sans-Serif" font-size="11.00"> &#160;</text>
<polygon fill="#ffffff" stroke="transparent" points="86,-310 86,-328 126,-328 126,-310 86,-310"/>
<polygon fill="none" stroke="black" points="86,-310 86,-328 126,-328 126,-310 86,-310"/>
<text text-anchor="start" x="107" y="-316.2" font-family="Helvetica,sans-Serif" font-size="11.00">2 &gt;</text>
</a>
</g>
</g>
<!-- syst_enum_items&#45;&gt;syst_enums -->
<g id="edge10" class="edge">
<title>syst_enum_items:w&#45;&gt;syst_enums:e</title>
<path fill="none" stroke="black" d="M430.38,-350.56C424.17,-351.13 418,-351.62 412,-352 303.33,-358.91 274.14,-371.43 167,-352 148.32,-348.61 145.99,-337 127,-337"/>
<polygon fill="black" stroke="black" points="436.95,-349.9 445.26,-352.68 440.93,-349.5 444.91,-349.1 444.91,-349.1 444.91,-349.1 440.93,-349.5 444.55,-345.52 436.95,-349.9 436.95,-349.9"/>
<ellipse fill="none" stroke="black" cx="433.76" cy="-350.22" rx="3.2" ry="3.2"/>
</g>
<!-- syst_owners&#45;&gt;syst_enum_items -->
<g id="edge18" class="edge">
<title>syst_owners:w&#45;&gt;syst_enum_items:e</title>
<path fill="none" stroke="black" d="M708.2,-387.55C676.84,-385.67 644.41,-378.22 616.02,-369.59"/>
<polygon fill="black" stroke="black" points="715,-387.75 722.89,-391.6 719,-387.88 723,-388 723,-388 723,-388 719,-387.88 723.11,-384.4 715,-387.75 715,-387.75"/>
<ellipse fill="none" stroke="black" cx="711.81" cy="-387.66" rx="3.2" ry="3.2"/>
</g>
<!-- syst_credentials -->
<g id="node7" class="node">
<title>syst_credentials</title>
<g id="a_node7"><a xlink:href="../../tables/syst_credentials.html" xlink:title="syst_credentials" target="_top">
<polygon fill="#ffffff" stroke="transparent" points="1553,-37 1553,-389 1844,-389 1844,-37 1553,-37"/>
<polygon fill="#f5f5f5" stroke="transparent" points="1555.5,-365 1555.5,-387 1842.5,-387 1842.5,-365 1555.5,-365"/>
<polygon fill="none" stroke="black" points="1555.5,-365 1555.5,-387 1842.5,-387 1842.5,-365 1555.5,-365"/>
<text text-anchor="start" x="1560.5" y="-374.2" font-family="Helvetica,sans-Serif" font-weight="bold" font-size="11.00">syst_credentials</text>
<text text-anchor="start" x="1807.5" y="-373.2" font-family="Helvetica,sans-Serif" font-size="11.00">[table]</text>
<polygon fill="none" stroke="black" points="1555.5,-343 1555.5,-365 1749.5,-365 1749.5,-343 1555.5,-343"/>
<image xlink:href="../../images/primaryKeys.png" width="11px" height="12px" preserveAspectRatio="xMinYMin meet" x="1560.5" y="-360"/>
<text text-anchor="start" x="1575.5" y="-351.2" font-family="Helvetica,sans-Serif" font-size="11.00">id</text>
<polygon fill="none" stroke="black" points="1749.5,-343 1749.5,-365 1842.5,-365 1842.5,-343 1749.5,-343"/>
<text text-anchor="start" x="1752.5" y="-351.2" font-family="Helvetica,sans-Serif" font-size="11.00">uuid[2147483647]</text>
<polygon fill="#ffffff" stroke="transparent" points="1555.5,-321 1555.5,-343 1749.5,-343 1749.5,-321 1555.5,-321"/>
<polygon fill="none" stroke="black" points="1555.5,-321 1555.5,-343 1749.5,-343 1749.5,-321 1555.5,-321"/>
<image xlink:href="../../images/foreignKeys.png" width="11px" height="12px" preserveAspectRatio="xMinYMin meet" x="1560.5" y="-338"/>
<text text-anchor="start" x="1575.5" y="-329.2" font-family="Helvetica,sans-Serif" font-size="11.00">access_account_id</text>
<polygon fill="none" stroke="black" points="1749.5,-321 1749.5,-343 1842.5,-343 1842.5,-321 1749.5,-321"/>
<text text-anchor="start" x="1752.5" y="-329.2" font-family="Helvetica,sans-Serif" font-size="11.00">uuid[2147483647]</text>
<polygon fill="#ffffff" stroke="transparent" points="1555.5,-299 1555.5,-321 1749.5,-321 1749.5,-299 1555.5,-299"/>
<polygon fill="none" stroke="black" points="1555.5,-299 1555.5,-321 1749.5,-321 1749.5,-299 1555.5,-299"/>
<image xlink:href="../../images/foreignKeys.png" width="11px" height="12px" preserveAspectRatio="xMinYMin meet" x="1560.5" y="-316"/>
<text text-anchor="start" x="1575.5" y="-307.2" font-family="Helvetica,sans-Serif" font-size="11.00">credential_type_id</text>
<polygon fill="none" stroke="black" points="1749.5,-299 1749.5,-321 1842.5,-321 1842.5,-299 1749.5,-299"/>
<text text-anchor="start" x="1752.5" y="-307.2" font-family="Helvetica,sans-Serif" font-size="11.00">uuid[2147483647]</text>
<polygon fill="#ffffff" stroke="transparent" points="1555.5,-277 1555.5,-299 1749.5,-299 1749.5,-277 1555.5,-277"/>
<polygon fill="none" stroke="black" points="1555.5,-277 1555.5,-299 1749.5,-299 1749.5,-277 1555.5,-277"/>
<image xlink:href="../../images/foreignKeys.png" width="11px" height="12px" preserveAspectRatio="xMinYMin meet" x="1560.5" y="-294"/>
<text text-anchor="start" x="1575.5" y="-285.2" font-family="Helvetica,sans-Serif" font-size="11.00">credential_for_identity_id</text>
<polygon fill="none" stroke="black" points="1749.5,-277 1749.5,-299 1842.5,-299 1842.5,-277 1749.5,-277"/>
<text text-anchor="start" x="1752.5" y="-285.2" font-family="Helvetica,sans-Serif" font-size="11.00">uuid[2147483647]</text>
<polygon fill="none" stroke="black" points="1555.5,-255 1555.5,-277 1749.5,-277 1749.5,-255 1555.5,-255"/>
<text text-anchor="start" x="1575.5" y="-263.2" font-family="Helvetica,sans-Serif" font-size="11.00">credential_data</text>
<polygon fill="none" stroke="black" points="1749.5,-255 1749.5,-277 1842.5,-277 1842.5,-255 1749.5,-255"/>
<text text-anchor="start" x="1752.5" y="-263.2" font-family="Helvetica,sans-Serif" font-size="11.00">text[2147483647]</text>
<polygon fill="none" stroke="black" points="1555.5,-233 1555.5,-255 1749.5,-255 1749.5,-233 1555.5,-233"/>
<text text-anchor="start" x="1575.5" y="-241.2" font-family="Helvetica,sans-Serif" font-size="11.00">last_updated</text>
<polygon fill="none" stroke="black" points="1749.5,-233 1749.5,-255 1842.5,-255 1842.5,-233 1749.5,-233"/>
<text text-anchor="start" x="1752.5" y="-241.2" font-family="Helvetica,sans-Serif" font-size="11.00">timestamptz[35,6]</text>
<polygon fill="none" stroke="black" points="1555.5,-211 1555.5,-233 1749.5,-233 1749.5,-211 1555.5,-211"/>
<text text-anchor="start" x="1575.5" y="-219.2" font-family="Helvetica,sans-Serif" font-size="11.00">force_reset</text>
<polygon fill="none" stroke="black" points="1749.5,-211 1749.5,-233 1842.5,-233 1842.5,-211 1749.5,-211"/>
<text text-anchor="start" x="1752.5" y="-219.2" font-family="Helvetica,sans-Serif" font-size="11.00">timestamptz[35,6]</text>
<polygon fill="none" stroke="black" points="1555.5,-189 1555.5,-211 1749.5,-211 1749.5,-189 1555.5,-189"/>
<text text-anchor="start" x="1575.5" y="-197.2" font-family="Helvetica,sans-Serif" font-size="11.00">diag_timestamp_created</text>
<polygon fill="none" stroke="black" points="1749.5,-189 1749.5,-211 1842.5,-211 1842.5,-189 1749.5,-189"/>
<text text-anchor="start" x="1752.5" y="-197.2" font-family="Helvetica,sans-Serif" font-size="11.00">timestamptz[35,6]</text>
<polygon fill="none" stroke="black" points="1555.5,-167 1555.5,-189 1749.5,-189 1749.5,-167 1555.5,-167"/>
<text text-anchor="start" x="1575.5" y="-175.2" font-family="Helvetica,sans-Serif" font-size="11.00">diag_role_created</text>
<polygon fill="none" stroke="black" points="1749.5,-167 1749.5,-189 1842.5,-189 1842.5,-167 1749.5,-167"/>
<text text-anchor="start" x="1752.5" y="-175.2" font-family="Helvetica,sans-Serif" font-size="11.00">text[2147483647]</text>
<polygon fill="none" stroke="black" points="1555.5,-145 1555.5,-167 1749.5,-167 1749.5,-145 1555.5,-145"/>
<text text-anchor="start" x="1575.5" y="-153.2" font-family="Helvetica,sans-Serif" font-size="11.00">diag_timestamp_modified</text>
<polygon fill="none" stroke="black" points="1749.5,-145 1749.5,-167 1842.5,-167 1842.5,-145 1749.5,-145"/>
<text text-anchor="start" x="1752.5" y="-153.2" font-family="Helvetica,sans-Serif" font-size="11.00">timestamptz[35,6]</text>
<polygon fill="none" stroke="black" points="1555.5,-123 1555.5,-145 1749.5,-145 1749.5,-123 1555.5,-123"/>
<text text-anchor="start" x="1575.5" y="-131.2" font-family="Helvetica,sans-Serif" font-size="11.00">diag_wallclock_modified</text>
<polygon fill="none" stroke="black" points="1749.5,-123 1749.5,-145 1842.5,-145 1842.5,-123 1749.5,-123"/>
<text text-anchor="start" x="1752.5" y="-131.2" font-family="Helvetica,sans-Serif" font-size="11.00">timestamptz[35,6]</text>
<polygon fill="none" stroke="black" points="1555.5,-101 1555.5,-123 1749.5,-123 1749.5,-101 1555.5,-101"/>
<text text-anchor="start" x="1575.5" y="-109.2" font-family="Helvetica,sans-Serif" font-size="11.00">diag_role_modified</text>
<polygon fill="none" stroke="black" points="1749.5,-101 1749.5,-123 1842.5,-123 1842.5,-101 1749.5,-101"/>
<text text-anchor="start" x="1752.5" y="-109.2" font-family="Helvetica,sans-Serif" font-size="11.00">text[2147483647]</text>
<polygon fill="none" stroke="black" points="1555.5,-79 1555.5,-101 1749.5,-101 1749.5,-79 1555.5,-79"/>
<text text-anchor="start" x="1575.5" y="-87.2" font-family="Helvetica,sans-Serif" font-size="11.00">diag_row_version</text>
<polygon fill="none" stroke="black" points="1749.5,-79 1749.5,-101 1842.5,-101 1842.5,-79 1749.5,-79"/>
<text text-anchor="start" x="1752.5" y="-87.2" font-family="Helvetica,sans-Serif" font-size="11.00">int8[19]</text>
<polygon fill="none" stroke="black" points="1555.5,-57 1555.5,-79 1749.5,-79 1749.5,-57 1555.5,-57"/>
<text text-anchor="start" x="1575.5" y="-65.2" font-family="Helvetica,sans-Serif" font-size="11.00">diag_update_count</text>
<polygon fill="none" stroke="black" points="1749.5,-57 1749.5,-79 1842.5,-79 1842.5,-57 1749.5,-57"/>
<text text-anchor="start" x="1752.5" y="-65.2" font-family="Helvetica,sans-Serif" font-size="11.00">int8[19]</text>
<polygon fill="#ffffff" stroke="transparent" points="1555.5,-39 1555.5,-57 1656.5,-57 1656.5,-39 1555.5,-39"/>
<polygon fill="none" stroke="black" points="1555.5,-39 1555.5,-57 1656.5,-57 1656.5,-39 1555.5,-39"/>
<text text-anchor="start" x="1558.5" y="-45.2" font-family="Helvetica,sans-Serif" font-size="11.00">&lt; 3</text>
<polygon fill="#ffffff" stroke="transparent" points="1656.5,-39 1656.5,-57 1749.5,-57 1749.5,-39 1656.5,-39"/>
<polygon fill="none" stroke="black" points="1656.5,-39 1656.5,-57 1749.5,-57 1749.5,-39 1656.5,-39"/>
<text text-anchor="start" x="1739.5" y="-45.2" font-family="Helvetica,sans-Serif" font-size="11.00"> &#160;</text>
<polygon fill="#ffffff" stroke="transparent" points="1749.5,-39 1749.5,-57 1842.5,-57 1842.5,-39 1749.5,-39"/>
<polygon fill="none" stroke="black" points="1749.5,-39 1749.5,-57 1842.5,-57 1842.5,-39 1749.5,-39"/>
<text text-anchor="start" x="1823.5" y="-45.2" font-family="Helvetica,sans-Serif" font-size="11.00">0 &gt;</text>
<polygon fill="none" stroke="black" stroke-width="2" points="1554,-38 1554,-388 1843,-388 1843,-38 1554,-38"/>
</a>
</g>
</g>
<!-- syst_credentials&#45;&gt;syst_access_accounts -->
<g id="edge6" class="edge">
<title>syst_credentials:w&#45;&gt;syst_access_accounts:e</title>
<path fill="none" stroke="black" d="M1540.51,-336.24C1525.03,-349.15 1538.49,-387.98 1512,-403 1449.36,-438.51 1259.53,-411.26 1188,-403 1177.32,-401.77 1166.25,-399.99 1155.27,-397.91"/>
<polygon fill="black" stroke="black" points="1546.84,-334.32 1555.54,-335.45 1550.67,-333.16 1554.5,-332 1554.5,-332 1554.5,-332 1550.67,-333.16 1553.46,-328.55 1546.84,-334.32 1546.84,-334.32"/>
<ellipse fill="none" stroke="black" cx="1543.78" cy="-335.25" rx="3.2" ry="3.2"/>
</g>
<!-- syst_credentials&#45;&gt;syst_enum_items -->
<g id="edge8" class="edge">
<title>syst_credentials:w&#45;&gt;syst_enum_items:e</title>
<path fill="none" stroke="black" d="M1539.92,-310.01C1194.55,-310.44 788.64,-325.95 616.02,-333.26"/>
<polygon fill="black" stroke="black" points="1546.5,-310.01 1554.5,-313.6 1550.5,-310 1554.5,-310 1554.5,-310 1554.5,-310 1550.5,-310 1554.5,-306.4 1546.5,-310.01 1546.5,-310.01"/>
<ellipse fill="none" stroke="black" cx="1543.3" cy="-310.01" rx="3.2" ry="3.2"/>
</g>
<!-- syst_identities -->
<g id="node8" class="node">
<title>syst_identities</title>
<g id="a_node8"><a xlink:href="../../tables/syst_identities.html" xlink:title="syst_identities" target="_top">
<polygon fill="#ffffff" stroke="transparent" points="1281,-228 1281,-286 1419,-286 1419,-228 1281,-228"/>
<polygon fill="#f5f5f5" stroke="transparent" points="1281,-264 1281,-286 1419,-286 1419,-264 1281,-264"/>
<polygon fill="none" stroke="black" points="1281,-264 1281,-286 1419,-286 1419,-264 1281,-264"/>
<text text-anchor="start" x="1286" y="-273.2" font-family="Helvetica,sans-Serif" font-weight="bold" font-size="11.00">syst_identities</text>
<text text-anchor="start" x="1384" y="-272.2" font-family="Helvetica,sans-Serif" font-size="11.00">[table]</text>
<polygon fill="none" stroke="black" points="1281,-246 1281,-264 1419,-264 1419,-246 1281,-246"/>
<text text-anchor="start" x="1284" y="-252.2" font-family="Helvetica,sans-Serif" font-size="11.00">...</text>
<polygon fill="#ffffff" stroke="transparent" points="1281,-228 1281,-246 1343,-246 1343,-228 1281,-228"/>
<polygon fill="none" stroke="black" points="1281,-228 1281,-246 1343,-246 1343,-228 1281,-228"/>
<text text-anchor="start" x="1284" y="-234.2" font-family="Helvetica,sans-Serif" font-size="11.00">&lt; 3</text>
<polygon fill="#ffffff" stroke="transparent" points="1343,-228 1343,-246 1376,-246 1376,-228 1343,-228"/>
<polygon fill="none" stroke="black" points="1343,-228 1343,-246 1376,-246 1376,-228 1343,-228"/>
<text text-anchor="start" x="1366" y="-234.2" font-family="Helvetica,sans-Serif" font-size="11.00"> &#160;</text>
<polygon fill="#ffffff" stroke="transparent" points="1376,-228 1376,-246 1419,-246 1419,-228 1376,-228"/>
<polygon fill="none" stroke="black" points="1376,-228 1376,-246 1419,-246 1419,-228 1376,-228"/>
<text text-anchor="start" x="1400" y="-234.2" font-family="Helvetica,sans-Serif" font-size="11.00">2 &gt;</text>
</a>
</g>
</g>
<!-- syst_credentials&#45;&gt;syst_identities -->
<g id="edge7" class="edge">
<title>syst_credentials:w&#45;&gt;syst_identities:e</title>
<path fill="none" stroke="black" d="M1539.96,-287.75C1501.67,-286.49 1461.1,-280.55 1427.41,-274.22"/>
<polygon fill="black" stroke="black" points="1546.5,-287.86 1554.44,-291.6 1550.5,-287.93 1554.5,-288 1554.5,-288 1554.5,-288 1550.5,-287.93 1554.56,-284.4 1546.5,-287.86 1546.5,-287.86"/>
<ellipse fill="none" stroke="black" cx="1543.3" cy="-287.81" rx="3.2" ry="3.2"/>
</g>
<!-- syst_identities&#45;&gt;syst_access_accounts -->
<g id="edge12" class="edge">
<title>syst_identities:w&#45;&gt;syst_access_accounts:e</title>
<path fill="none" stroke="black" d="M1258.96,-292.28C1220.99,-307.16 1177.04,-324.38 1139.73,-339"/>
<polygon fill="black" stroke="black" points="1265.2,-289.83 1273.97,-290.27 1268.93,-288.37 1272.65,-286.91 1272.65,-286.91 1272.65,-286.91 1268.93,-288.37 1271.34,-283.56 1265.2,-289.83 1265.2,-289.83"/>
<ellipse fill="none" stroke="black" cx="1262.22" cy="-291" rx="3.2" ry="3.2"/>
</g>
<!-- syst_identities&#45;&gt;syst_enum_items -->
<g id="edge13" class="edge">
<title>syst_identities:w&#45;&gt;syst_enum_items:e</title>
<path fill="none" stroke="black" d="M1258.12,-259.83C1096,-265.34 763.21,-278.84 649,-300 638.28,-301.99 627.16,-304.65 616.24,-307.64"/>
<polygon fill="black" stroke="black" points="1264.8,-259.61 1272.91,-262.94 1268.79,-259.47 1272.79,-259.34 1272.79,-259.34 1272.79,-259.34 1268.79,-259.47 1272.67,-255.74 1264.8,-259.61 1264.8,-259.61"/>
<ellipse fill="none" stroke="black" cx="1261.6" cy="-259.71" rx="3.2" ry="3.2"/>
</g>
<!-- syst_enum_functional_types&#45;&gt;syst_enums -->
<g id="edge9" class="edge">
<title>syst_enum_functional_types:w&#45;&gt;syst_enums:e</title>
<path fill="none" stroke="black" d="M160.6,-313.98C149.25,-321.49 145.4,-337 127,-337"/>
<polygon fill="black" stroke="black" points="166.81,-312.2 175.49,-313.46 170.65,-311.1 174.5,-310 174.5,-310 174.5,-310 170.65,-311.1 173.51,-306.54 166.81,-312.2 166.81,-312.2"/>
<ellipse fill="none" stroke="black" cx="163.73" cy="-313.09" rx="3.2" ry="3.2"/>
</g>
<!-- syst_instance_type_applications -->
<g id="node11" class="node">
<title>syst_instance_type_applications</title>
<g id="a_node11"><a xlink:href="../../tables/syst_instance_type_applications.html" xlink:title="syst_instance_type_applications" target="_top">
<polygon fill="#ffffff" stroke="transparent" points="657,-201 657,-259 913,-259 913,-201 657,-201"/>
<polygon fill="#f5f5f5" stroke="transparent" points="657,-237 657,-259 913,-259 913,-237 657,-237"/>
<polygon fill="none" stroke="black" points="657,-237 657,-259 913,-259 913,-237 657,-237"/>
<text text-anchor="start" x="662" y="-246.2" font-family="Helvetica,sans-Serif" font-weight="bold" font-size="11.00">syst_instance_type_applications</text>
<text text-anchor="start" x="878" y="-245.2" font-family="Helvetica,sans-Serif" font-size="11.00">[table]</text>
<polygon fill="none" stroke="black" points="657,-219 657,-237 913,-237 913,-219 657,-219"/>
<text text-anchor="start" x="660" y="-225.2" font-family="Helvetica,sans-Serif" font-size="11.00">...</text>
<polygon fill="#ffffff" stroke="transparent" points="657,-201 657,-219 778,-219 778,-201 657,-201"/>
<polygon fill="none" stroke="black" points="657,-201 657,-219 778,-219 778,-201 657,-201"/>
<text text-anchor="start" x="660" y="-207.2" font-family="Helvetica,sans-Serif" font-size="11.00">&lt; 2</text>
<polygon fill="#ffffff" stroke="transparent" points="778,-201 778,-219 841,-219 841,-201 778,-201"/>
<polygon fill="none" stroke="black" points="778,-201 778,-219 841,-219 841,-201 778,-201"/>
<text text-anchor="start" x="831" y="-207.2" font-family="Helvetica,sans-Serif" font-size="11.00"> &#160;</text>
<polygon fill="#ffffff" stroke="transparent" points="841,-201 841,-219 913,-219 913,-201 841,-201"/>
<polygon fill="none" stroke="black" points="841,-201 841,-219 913,-219 913,-201 841,-201"/>
<text text-anchor="start" x="894" y="-207.2" font-family="Helvetica,sans-Serif" font-size="11.00">1 &gt;</text>
</a>
</g>
</g>
<!-- syst_instance_type_applications&#45;&gt;syst_enum_items -->
<g id="edge14" class="edge">
<title>syst_instance_type_applications:w&#45;&gt;syst_enum_items:e</title>
<path fill="none" stroke="black" d="M641.58,-229.39C601.73,-237.08 569.72,-275.03 550.71,-303.7"/>
<polygon fill="black" stroke="black" points="648.04,-228.77 656.35,-231.58 652.02,-228.38 656,-228 656,-228 656,-228 652.02,-228.38 655.65,-224.42 648.04,-228.77 648.04,-228.77"/>
<ellipse fill="none" stroke="black" cx="644.85" cy="-229.08" rx="3.2" ry="3.2"/>
</g>
<!-- syst_password_history -->
<g id="node12" class="node">
<title>syst_password_history</title>
<g id="a_node12"><a xlink:href="../../tables/syst_password_history.html" xlink:title="syst_password_history" target="_top">
<polygon fill="#ffffff" stroke="transparent" points="1254,-334 1254,-392 1446,-392 1446,-334 1254,-334"/>
<polygon fill="#f5f5f5" stroke="transparent" points="1254,-370 1254,-392 1446,-392 1446,-370 1254,-370"/>
<polygon fill="none" stroke="black" points="1254,-370 1254,-392 1446,-392 1446,-370 1254,-370"/>
<text text-anchor="start" x="1259" y="-379.2" font-family="Helvetica,sans-Serif" font-weight="bold" font-size="11.00">syst_password_history</text>
<text text-anchor="start" x="1411" y="-378.2" font-family="Helvetica,sans-Serif" font-size="11.00">[table]</text>
<polygon fill="none" stroke="black" points="1254,-352 1254,-370 1446,-370 1446,-352 1254,-352"/>
<text text-anchor="start" x="1257" y="-358.2" font-family="Helvetica,sans-Serif" font-size="11.00">...</text>
<polygon fill="#ffffff" stroke="transparent" points="1254,-334 1254,-352 1348,-352 1348,-334 1254,-334"/>
<polygon fill="none" stroke="black" points="1254,-334 1254,-352 1348,-352 1348,-334 1254,-334"/>
<text text-anchor="start" x="1257" y="-340.2" font-family="Helvetica,sans-Serif" font-size="11.00">&lt; 1</text>
<polygon fill="#ffffff" stroke="transparent" points="1348,-334 1348,-352 1397,-352 1397,-334 1348,-334"/>
<polygon fill="none" stroke="black" points="1348,-334 1348,-352 1397,-352 1397,-334 1348,-334"/>
<text text-anchor="start" x="1387" y="-340.2" font-family="Helvetica,sans-Serif" font-size="11.00"> &#160;</text>
<polygon fill="#ffffff" stroke="transparent" points="1397,-334 1397,-352 1446,-352 1446,-334 1397,-334"/>
<polygon fill="none" stroke="black" points="1397,-334 1397,-352 1446,-352 1446,-334 1397,-334"/>
<text text-anchor="start" x="1436" y="-340.2" font-family="Helvetica,sans-Serif" font-size="11.00"> &#160;</text>
</a>
</g>
</g>
<!-- syst_password_history&#45;&gt;syst_access_accounts -->
<g id="edge19" class="edge">
<title>syst_password_history:w&#45;&gt;syst_access_accounts:e</title>
<path fill="none" stroke="black" d="M1238.27,-361.1C1210.66,-361.45 1181.68,-362.72 1155.15,-364.29"/>
<polygon fill="black" stroke="black" points="1245,-361.05 1253.02,-364.6 1249,-361.03 1253,-361 1253,-361 1253,-361 1249,-361.03 1252.98,-357.4 1245,-361.05 1245,-361.05"/>
<ellipse fill="none" stroke="black" cx="1241.8" cy="-361.07" rx="3.2" ry="3.2"/>
</g>
</g>
</svg>
