<?xml version="1.0" encoding="UTF-8" standalone="no"?>
<!DOCTYPE svg PUBLIC "-//W3C//DTD SVG 1.1//EN"
 "http://www.w3.org/Graphics/SVG/1.1/DTD/svg11.dtd">
<!-- Generated by graphviz version 2.43.0 (0)
 -->
<!-- Title: oneDegreeRelationshipsDiagram Pages: 1 -->
<svg width="1875pt" height="918pt"
 viewBox="0.00 0.00 1875.00 918.00" xmlns="http://www.w3.org/2000/svg" xmlns:xlink="http://www.w3.org/1999/xlink">
<g id="graph0" class="graph" transform="scale(1 1) rotate(0) translate(4 914)">
<title>oneDegreeRelationshipsDiagram</title>
<polygon fill="#ffffff" stroke="transparent" points="-4,4 -4,-914 1871,-914 1871,4 -4,4"/>
<text text-anchor="middle" x="71.5" y="-7.2" font-family="Helvetica,sans-Serif" font-size="11.00">Generated by SchemaSpy</text>
<!-- syst_access_accounts -->
<g id="node1" class="node">
<title>syst_access_accounts</title>
<g id="a_node1"><a xlink:href="../../tables/syst_access_accounts.html" xlink:title="syst_access_accounts" target="_top">
<polygon fill="#ffffff" stroke="transparent" points="1179,-505 1179,-651 1373,-651 1373,-505 1179,-505"/>
<polygon fill="#f5f5f5" stroke="transparent" points="1179,-629 1179,-651 1373,-651 1373,-629 1179,-629"/>
<polygon fill="none" stroke="black" points="1179,-629 1179,-651 1373,-651 1373,-629 1179,-629"/>
<text text-anchor="start" x="1184" y="-638.2" font-family="Helvetica,sans-Serif" font-weight="bold" font-size="11.00">syst_access_accounts</text>
<text text-anchor="start" x="1338" y="-637.2" font-family="Helvetica,sans-Serif" font-size="11.00">[table]</text>
<polygon fill="none" stroke="black" points="1179,-607 1179,-629 1373,-629 1373,-607 1179,-607"/>
<image xlink:href="../../images/primaryKeys.png" width="11px" height="12px" preserveAspectRatio="xMinYMin meet" x="1184" y="-624"/>
<text text-anchor="start" x="1199" y="-615.2" font-family="Helvetica,sans-Serif" font-size="11.00">id</text>
<polygon fill="#ffffff" stroke="transparent" points="1179,-585 1179,-607 1373,-607 1373,-585 1179,-585"/>
<polygon fill="none" stroke="black" points="1179,-585 1179,-607 1373,-607 1373,-585 1179,-585"/>
<text text-anchor="start" x="1199" y="-593.2" font-family="Helvetica,sans-Serif" font-size="11.00">internal_name</text>
<polygon fill="none" stroke="black" points="1179,-563 1179,-585 1373,-585 1373,-563 1179,-563"/>
<image xlink:href="../../images/foreignKeys.png" width="11px" height="12px" preserveAspectRatio="xMinYMin meet" x="1184" y="-580"/>
<text text-anchor="start" x="1199" y="-571.2" font-family="Helvetica,sans-Serif" font-size="11.00">owning_owner_id</text>
<polygon fill="none" stroke="black" points="1179,-541 1179,-563 1373,-563 1373,-541 1179,-541"/>
<image xlink:href="../../images/foreignKeys.png" width="11px" height="12px" preserveAspectRatio="xMinYMin meet" x="1184" y="-558"/>
<text text-anchor="start" x="1199" y="-549.2" font-family="Helvetica,sans-Serif" font-size="11.00">access_account_state_id</text>
<polygon fill="none" stroke="black" points="1179,-523 1179,-541 1373,-541 1373,-523 1179,-523"/>
<text text-anchor="start" x="1182" y="-529.2" font-family="Helvetica,sans-Serif" font-size="11.00">...</text>
<polygon fill="#ffffff" stroke="transparent" points="1179,-505 1179,-523 1269,-523 1269,-505 1179,-505"/>
<polygon fill="none" stroke="black" points="1179,-505 1179,-523 1269,-523 1269,-505 1179,-505"/>
<text text-anchor="start" x="1182" y="-511.2" font-family="Helvetica,sans-Serif" font-size="11.00">&lt; 2</text>
<polygon fill="#ffffff" stroke="transparent" points="1269,-505 1269,-523 1316,-523 1316,-505 1269,-505"/>
<polygon fill="none" stroke="black" points="1269,-505 1269,-523 1316,-523 1316,-505 1269,-505"/>
<text text-anchor="start" x="1306" y="-511.2" font-family="Helvetica,sans-Serif" font-size="11.00"> &#160;</text>
<polygon fill="#ffffff" stroke="transparent" points="1316,-505 1316,-523 1373,-523 1373,-505 1316,-505"/>
<polygon fill="none" stroke="black" points="1316,-505 1316,-523 1373,-523 1373,-505 1316,-505"/>
<text text-anchor="start" x="1354" y="-511.2" font-family="Helvetica,sans-Serif" font-size="11.00">5 &gt;</text>
</a>
</g>
</g>
<!-- syst_enum_items -->
<g id="node2" class="node">
<title>syst_enum_items</title>
<g id="a_node2"><a xlink:href="../../tables/syst_enum_items.html" xlink:title="syst_enum_items" target="_top">
<polygon fill="#ffffff" stroke="transparent" points="529,-37 529,-565 825,-565 825,-37 529,-37"/>
<polygon fill="#f5f5f5" stroke="transparent" points="531,-541 531,-563 823,-563 823,-541 531,-541"/>
<polygon fill="none" stroke="black" points="531,-541 531,-563 823,-563 823,-541 531,-541"/>
<text text-anchor="start" x="536" y="-550.2" font-family="Helvetica,sans-Serif" font-weight="bold" font-size="11.00">syst_enum_items</text>
<text text-anchor="start" x="788" y="-549.2" font-family="Helvetica,sans-Serif" font-size="11.00">[table]</text>
<polygon fill="none" stroke="black" points="531,-519 531,-541 725,-541 725,-519 531,-519"/>
<image xlink:href="../../images/primaryKeys.png" width="11px" height="12px" preserveAspectRatio="xMinYMin meet" x="536" y="-536"/>
<text text-anchor="start" x="551" y="-527.2" font-family="Helvetica,sans-Serif" font-size="11.00">id</text>
<polygon fill="none" stroke="black" points="725,-519 725,-541 823,-541 823,-519 725,-519"/>
<text text-anchor="start" x="728" y="-527.2" font-family="Helvetica,sans-Serif" font-size="11.00">uuid[2147483647]</text>
<polygon fill="#ffffff" stroke="transparent" points="531,-497 531,-519 725,-519 725,-497 531,-497"/>
<polygon fill="none" stroke="black" points="531,-497 531,-519 725,-519 725,-497 531,-497"/>
<text text-anchor="start" x="551" y="-505.2" font-family="Helvetica,sans-Serif" font-size="11.00">internal_name</text>
<polygon fill="none" stroke="black" points="725,-497 725,-519 823,-519 823,-497 725,-497"/>
<text text-anchor="start" x="728" y="-505.2" font-family="Helvetica,sans-Serif" font-size="11.00">text[2147483647]</text>
<polygon fill="#ffffff" stroke="transparent" points="531,-475 531,-497 725,-497 725,-475 531,-475"/>
<polygon fill="none" stroke="black" points="531,-475 531,-497 725,-497 725,-475 531,-475"/>
<text text-anchor="start" x="551" y="-483.2" font-family="Helvetica,sans-Serif" font-size="11.00">display_name</text>
<polygon fill="none" stroke="black" points="725,-475 725,-497 823,-497 823,-475 725,-475"/>
<text text-anchor="start" x="728" y="-483.2" font-family="Helvetica,sans-Serif" font-size="11.00">text[2147483647]</text>
<polygon fill="none" stroke="black" points="531,-453 531,-475 725,-475 725,-453 531,-453"/>
<text text-anchor="start" x="551" y="-461.2" font-family="Helvetica,sans-Serif" font-size="11.00">external_name</text>
<polygon fill="none" stroke="black" points="725,-453 725,-475 823,-475 823,-453 725,-453"/>
<text text-anchor="start" x="728" y="-461.2" font-family="Helvetica,sans-Serif" font-size="11.00">text[2147483647]</text>
<polygon fill="none" stroke="black" points="531,-431 531,-453 725,-453 725,-431 531,-431"/>
<image xlink:href="../../images/foreignKeys.png" width="11px" height="12px" preserveAspectRatio="xMinYMin meet" x="536" y="-448"/>
<text text-anchor="start" x="551" y="-439.2" font-family="Helvetica,sans-Serif" font-size="11.00">enum_id</text>
<polygon fill="none" stroke="black" points="725,-431 725,-453 823,-453 823,-431 725,-431"/>
<text text-anchor="start" x="728" y="-439.2" font-family="Helvetica,sans-Serif" font-size="11.00">uuid[2147483647]</text>
<polygon fill="none" stroke="black" points="531,-409 531,-431 725,-431 725,-409 531,-409"/>
<image xlink:href="../../images/foreignKeys.png" width="11px" height="12px" preserveAspectRatio="xMinYMin meet" x="536" y="-426"/>
<text text-anchor="start" x="551" y="-417.2" font-family="Helvetica,sans-Serif" font-size="11.00">functional_type_id</text>
<polygon fill="none" stroke="black" points="725,-409 725,-431 823,-431 823,-409 725,-409"/>
<text text-anchor="start" x="728" y="-417.2" font-family="Helvetica,sans-Serif" font-size="11.00">uuid[2147483647]</text>
<polygon fill="none" stroke="black" points="531,-387 531,-409 725,-409 725,-387 531,-387"/>
<text text-anchor="start" x="551" y="-395.2" font-family="Helvetica,sans-Serif" font-size="11.00">enum_default</text>
<polygon fill="none" stroke="black" points="725,-387 725,-409 823,-409 823,-387 725,-387"/>
<text text-anchor="start" x="728" y="-395.2" font-family="Helvetica,sans-Serif" font-size="11.00">bool[1]</text>
<polygon fill="none" stroke="black" points="531,-365 531,-387 725,-387 725,-365 531,-365"/>
<text text-anchor="start" x="551" y="-373.2" font-family="Helvetica,sans-Serif" font-size="11.00">functional_type_default</text>
<polygon fill="none" stroke="black" points="725,-365 725,-387 823,-387 823,-365 725,-365"/>
<text text-anchor="start" x="728" y="-373.2" font-family="Helvetica,sans-Serif" font-size="11.00">bool[1]</text>
<polygon fill="none" stroke="black" points="531,-343 531,-365 725,-365 725,-343 531,-343"/>
<text text-anchor="start" x="551" y="-351.2" font-family="Helvetica,sans-Serif" font-size="11.00">syst_defined</text>
<polygon fill="none" stroke="black" points="725,-343 725,-365 823,-365 823,-343 725,-343"/>
<text text-anchor="start" x="728" y="-351.2" font-family="Helvetica,sans-Serif" font-size="11.00">bool[1]</text>
<polygon fill="none" stroke="black" points="531,-321 531,-343 725,-343 725,-321 531,-321"/>
<text text-anchor="start" x="551" y="-329.2" font-family="Helvetica,sans-Serif" font-size="11.00">user_maintainable</text>
<polygon fill="none" stroke="black" points="725,-321 725,-343 823,-343 823,-321 725,-321"/>
<text text-anchor="start" x="728" y="-329.2" font-family="Helvetica,sans-Serif" font-size="11.00">bool[1]</text>
<polygon fill="none" stroke="black" points="531,-299 531,-321 725,-321 725,-299 531,-299"/>
<text text-anchor="start" x="551" y="-307.2" font-family="Helvetica,sans-Serif" font-size="11.00">syst_description</text>
<polygon fill="none" stroke="black" points="725,-299 725,-321 823,-321 823,-299 725,-299"/>
<text text-anchor="start" x="728" y="-307.2" font-family="Helvetica,sans-Serif" font-size="11.00">text[2147483647]</text>
<polygon fill="none" stroke="black" points="531,-277 531,-299 725,-299 725,-277 531,-277"/>
<text text-anchor="start" x="551" y="-285.2" font-family="Helvetica,sans-Serif" font-size="11.00">user_description</text>
<polygon fill="none" stroke="black" points="725,-277 725,-299 823,-299 823,-277 725,-277"/>
<text text-anchor="start" x="728" y="-285.2" font-family="Helvetica,sans-Serif" font-size="11.00">text[2147483647]</text>
<polygon fill="none" stroke="black" points="531,-255 531,-277 725,-277 725,-255 531,-255"/>
<text text-anchor="start" x="551" y="-263.2" font-family="Helvetica,sans-Serif" font-size="11.00">sort_order</text>
<polygon fill="none" stroke="black" points="725,-255 725,-277 823,-277 823,-255 725,-255"/>
<text text-anchor="start" x="728" y="-263.2" font-family="Helvetica,sans-Serif" font-size="11.00">int2[5]</text>
<polygon fill="none" stroke="black" points="531,-233 531,-255 725,-255 725,-233 531,-233"/>
<text text-anchor="start" x="551" y="-241.2" font-family="Helvetica,sans-Serif" font-size="11.00">syst_options</text>
<polygon fill="none" stroke="black" points="725,-233 725,-255 823,-255 823,-233 725,-233"/>
<text text-anchor="start" x="728" y="-241.2" font-family="Helvetica,sans-Serif" font-size="11.00">jsonb[2147483647]</text>
<polygon fill="none" stroke="black" points="531,-211 531,-233 725,-233 725,-211 531,-211"/>
<text text-anchor="start" x="551" y="-219.2" font-family="Helvetica,sans-Serif" font-size="11.00">user_options</text>
<polygon fill="none" stroke="black" points="725,-211 725,-233 823,-233 823,-211 725,-211"/>
<text text-anchor="start" x="728" y="-219.2" font-family="Helvetica,sans-Serif" font-size="11.00">jsonb[2147483647]</text>
<polygon fill="none" stroke="black" points="531,-189 531,-211 725,-211 725,-189 531,-189"/>
<text text-anchor="start" x="551" y="-197.2" font-family="Helvetica,sans-Serif" font-size="11.00">diag_timestamp_created</text>
<polygon fill="none" stroke="black" points="725,-189 725,-211 823,-211 823,-189 725,-189"/>
<text text-anchor="start" x="728" y="-197.2" font-family="Helvetica,sans-Serif" font-size="11.00">timestamptz[35,6]</text>
<polygon fill="none" stroke="black" points="531,-167 531,-189 725,-189 725,-167 531,-167"/>
<text text-anchor="start" x="551" y="-175.2" font-family="Helvetica,sans-Serif" font-size="11.00">diag_role_created</text>
<polygon fill="none" stroke="black" points="725,-167 725,-189 823,-189 823,-167 725,-167"/>
<text text-anchor="start" x="728" y="-175.2" font-family="Helvetica,sans-Serif" font-size="11.00">text[2147483647]</text>
<polygon fill="none" stroke="black" points="531,-145 531,-167 725,-167 725,-145 531,-145"/>
<text text-anchor="start" x="551" y="-153.2" font-family="Helvetica,sans-Serif" font-size="11.00">diag_timestamp_modified</text>
<polygon fill="none" stroke="black" points="725,-145 725,-167 823,-167 823,-145 725,-145"/>
<text text-anchor="start" x="728" y="-153.2" font-family="Helvetica,sans-Serif" font-size="11.00">timestamptz[35,6]</text>
<polygon fill="none" stroke="black" points="531,-123 531,-145 725,-145 725,-123 531,-123"/>
<text text-anchor="start" x="551" y="-131.2" font-family="Helvetica,sans-Serif" font-size="11.00">diag_wallclock_modified</text>
<polygon fill="none" stroke="black" points="725,-123 725,-145 823,-145 823,-123 725,-123"/>
<text text-anchor="start" x="728" y="-131.2" font-family="Helvetica,sans-Serif" font-size="11.00">timestamptz[35,6]</text>
<polygon fill="none" stroke="black" points="531,-101 531,-123 725,-123 725,-101 531,-101"/>
<text text-anchor="start" x="551" y="-109.2" font-family="Helvetica,sans-Serif" font-size="11.00">diag_role_modified</text>
<polygon fill="none" stroke="black" points="725,-101 725,-123 823,-123 823,-101 725,-101"/>
<text text-anchor="start" x="728" y="-109.2" font-family="Helvetica,sans-Serif" font-size="11.00">text[2147483647]</text>
<polygon fill="none" stroke="black" points="531,-79 531,-101 725,-101 725,-79 531,-79"/>
<text text-anchor="start" x="551" y="-87.2" font-family="Helvetica,sans-Serif" font-size="11.00">diag_row_version</text>
<polygon fill="none" stroke="black" points="725,-79 725,-101 823,-101 823,-79 725,-79"/>
<text text-anchor="start" x="728" y="-87.2" font-family="Helvetica,sans-Serif" font-size="11.00">int8[19]</text>
<polygon fill="none" stroke="black" points="531,-57 531,-79 725,-79 725,-57 531,-57"/>
<text text-anchor="start" x="551" y="-65.2" font-family="Helvetica,sans-Serif" font-size="11.00">diag_update_count</text>
<polygon fill="none" stroke="black" points="725,-57 725,-79 823,-79 823,-57 725,-57"/>
<text text-anchor="start" x="728" y="-65.2" font-family="Helvetica,sans-Serif" font-size="11.00">int8[19]</text>
<polygon fill="#ffffff" stroke="transparent" points="531,-39 531,-57 632,-57 632,-39 531,-39"/>
<polygon fill="none" stroke="black" points="531,-39 531,-57 632,-57 632,-39 531,-39"/>
<text text-anchor="start" x="534" y="-45.2" font-family="Helvetica,sans-Serif" font-size="11.00">&lt; 2</text>
<polygon fill="#ffffff" stroke="transparent" points="632,-39 632,-57 725,-57 725,-39 632,-39"/>
<polygon fill="none" stroke="black" points="632,-39 632,-57 725,-57 725,-39 632,-39"/>
<text text-anchor="start" x="715" y="-45.2" font-family="Helvetica,sans-Serif" font-size="11.00"> &#160;</text>
<polygon fill="#ffffff" stroke="transparent" points="725,-39 725,-57 823,-57 823,-39 725,-39"/>
<polygon fill="none" stroke="black" points="725,-39 725,-57 823,-57 823,-39 725,-39"/>
<text text-anchor="start" x="804" y="-45.2" font-family="Helvetica,sans-Serif" font-size="11.00">7 &gt;</text>
<polygon fill="none" stroke="black" stroke-width="2" points="530,-38 530,-564 824,-564 824,-38 530,-38"/>
</a>
</g>
</g>
<!-- syst_access_accounts&#45;&gt;syst_enum_items -->
<g id="edge1" class="edge">
<title>syst_access_accounts:w&#45;&gt;syst_enum_items:e</title>
<path fill="none" stroke="black" d="M1163.48,-550.39C1155.67,-548.5 1149.95,-545.45 1138,-544 999.33,-527.14 963.69,-530 824,-530"/>
<polygon fill="black" stroke="black" points="1170.05,-551.12 1177.6,-555.58 1174.02,-551.56 1178,-552 1178,-552 1178,-552 1174.02,-551.56 1178.4,-548.42 1170.05,-551.12 1170.05,-551.12"/>
<ellipse fill="none" stroke="black" cx="1166.87" cy="-550.77" rx="3.2" ry="3.2"/>
</g>
<!-- syst_owners -->
<g id="node3" class="node">
<title>syst_owners</title>
<g id="a_node3"><a xlink:href="../../tables/syst_owners.html" xlink:title="syst_owners" target="_top">
<polygon fill="#ffffff" stroke="transparent" points="905,-554 905,-700 1099,-700 1099,-554 905,-554"/>
<polygon fill="#f5f5f5" stroke="transparent" points="905,-678 905,-700 1099,-700 1099,-678 905,-678"/>
<polygon fill="none" stroke="black" points="905,-678 905,-700 1099,-700 1099,-678 905,-678"/>
<text text-anchor="start" x="910" y="-687.2" font-family="Helvetica,sans-Serif" font-weight="bold" font-size="11.00">syst_owners</text>
<text text-anchor="start" x="1064" y="-686.2" font-family="Helvetica,sans-Serif" font-size="11.00">[table]</text>
<polygon fill="none" stroke="black" points="905,-656 905,-678 1099,-678 1099,-656 905,-656"/>
<image xlink:href="../../images/primaryKeys.png" width="11px" height="12px" preserveAspectRatio="xMinYMin meet" x="910" y="-673"/>
<text text-anchor="start" x="925" y="-664.2" font-family="Helvetica,sans-Serif" font-size="11.00">id</text>
<polygon fill="#ffffff" stroke="transparent" points="905,-634 905,-656 1099,-656 1099,-634 905,-634"/>
<polygon fill="none" stroke="black" points="905,-634 905,-656 1099,-656 1099,-634 905,-634"/>
<text text-anchor="start" x="925" y="-642.2" font-family="Helvetica,sans-Serif" font-size="11.00">internal_name</text>
<polygon fill="#ffffff" stroke="transparent" points="905,-612 905,-634 1099,-634 1099,-612 905,-612"/>
<polygon fill="none" stroke="black" points="905,-612 905,-634 1099,-634 1099,-612 905,-612"/>
<text text-anchor="start" x="925" y="-620.2" font-family="Helvetica,sans-Serif" font-size="11.00">display_name</text>
<polygon fill="none" stroke="black" points="905,-590 905,-612 1099,-612 1099,-590 905,-590"/>
<image xlink:href="../../images/foreignKeys.png" width="11px" height="12px" preserveAspectRatio="xMinYMin meet" x="910" y="-607"/>
<text text-anchor="start" x="925" y="-598.2" font-family="Helvetica,sans-Serif" font-size="11.00">owner_state_id</text>
<polygon fill="none" stroke="black" points="905,-572 905,-590 1099,-590 1099,-572 905,-572"/>
<text text-anchor="start" x="908" y="-578.2" font-family="Helvetica,sans-Serif" font-size="11.00">...</text>
<polygon fill="#ffffff" stroke="transparent" points="905,-554 905,-572 995,-572 995,-554 905,-554"/>
<polygon fill="none" stroke="black" points="905,-554 905,-572 995,-572 995,-554 905,-554"/>
<text text-anchor="start" x="908" y="-560.2" font-family="Helvetica,sans-Serif" font-size="11.00">&lt; 1</text>
<polygon fill="#ffffff" stroke="transparent" points="995,-554 995,-572 1042,-572 1042,-554 995,-554"/>
<polygon fill="none" stroke="black" points="995,-554 995,-572 1042,-572 1042,-554 995,-554"/>
<text text-anchor="start" x="1032" y="-560.2" font-family="Helvetica,sans-Serif" font-size="11.00"> &#160;</text>
<polygon fill="#ffffff" stroke="transparent" points="1042,-554 1042,-572 1099,-572 1099,-554 1042,-554"/>
<polygon fill="none" stroke="black" points="1042,-554 1042,-572 1099,-572 1099,-554 1042,-554"/>
<text text-anchor="start" x="1080" y="-560.2" font-family="Helvetica,sans-Serif" font-size="11.00">4 &gt;</text>
</a>
</g>
</g>
<!-- syst_access_accounts&#45;&gt;syst_owners -->
<g id="edge2" class="edge">
<title>syst_access_accounts:w&#45;&gt;syst_owners:e</title>
<path fill="none" stroke="black" d="M1163.53,-576.89C1129.43,-592.58 1148.26,-667 1100,-667"/>
<polygon fill="black" stroke="black" points="1170.15,-575.56 1178.7,-577.53 1174.08,-574.78 1178,-574 1178,-574 1178,-574 1174.08,-574.78 1177.3,-570.47 1170.15,-575.56 1170.15,-575.56"/>
<ellipse fill="none" stroke="black" cx="1167.02" cy="-576.19" rx="3.2" ry="3.2"/>
</g>
<!-- syst_enum_functional_types -->
<g id="node6" class="node">
<title>syst_enum_functional_types</title>
<g id="a_node6"><a xlink:href="../../tables/syst_enum_functional_types.html" xlink:title="syst_enum_functional_types" target="_top">
<polygon fill="#ffffff" stroke="transparent" points="251,-290 251,-436 480,-436 480,-290 251,-290"/>
<polygon fill="#f5f5f5" stroke="transparent" points="251.5,-414 251.5,-436 480.5,-436 480.5,-414 251.5,-414"/>
<polygon fill="none" stroke="black" points="251.5,-414 251.5,-436 480.5,-436 480.5,-414 251.5,-414"/>
<text text-anchor="start" x="256.5" y="-423.2" font-family="Helvetica,sans-Serif" font-weight="bold" font-size="11.00">syst_enum_functional_types</text>
<text text-anchor="start" x="445.5" y="-422.2" font-family="Helvetica,sans-Serif" font-size="11.00">[table]</text>
<polygon fill="none" stroke="black" points="251.5,-392 251.5,-414 480.5,-414 480.5,-392 251.5,-392"/>
<image xlink:href="../../images/primaryKeys.png" width="11px" height="12px" preserveAspectRatio="xMinYMin meet" x="256.5" y="-409"/>
<text text-anchor="start" x="281.5" y="-400.2" font-family="Helvetica,sans-Serif" font-size="11.00">id</text>
<polygon fill="#ffffff" stroke="transparent" points="251.5,-370 251.5,-392 480.5,-392 480.5,-370 251.5,-370"/>
<polygon fill="none" stroke="black" points="251.5,-370 251.5,-392 480.5,-392 480.5,-370 251.5,-370"/>
<text text-anchor="start" x="281.5" y="-378.2" font-family="Helvetica,sans-Serif" font-size="11.00">internal_name</text>
<polygon fill="#ffffff" stroke="transparent" points="251.5,-348 251.5,-370 480.5,-370 480.5,-348 251.5,-348"/>
<polygon fill="none" stroke="black" points="251.5,-348 251.5,-370 480.5,-370 480.5,-348 251.5,-348"/>
<text text-anchor="start" x="281.5" y="-356.2" font-family="Helvetica,sans-Serif" font-size="11.00">display_name</text>
<polygon fill="none" stroke="black" points="251.5,-326 251.5,-348 480.5,-348 480.5,-326 251.5,-326"/>
<image xlink:href="../../images/foreignKeys.png" width="11px" height="12px" preserveAspectRatio="xMinYMin meet" x="256.5" y="-343"/>
<text text-anchor="start" x="281.5" y="-334.2" font-family="Helvetica,sans-Serif" font-size="11.00">enum_id</text>
<polygon fill="none" stroke="black" points="251.5,-308 251.5,-326 480.5,-326 480.5,-308 251.5,-308"/>
<text text-anchor="start" x="254.5" y="-314.2" font-family="Helvetica,sans-Serif" font-size="11.00">...</text>
<polygon fill="#ffffff" stroke="transparent" points="251.5,-290 251.5,-308 359.5,-308 359.5,-290 251.5,-290"/>
<polygon fill="none" stroke="black" points="251.5,-290 251.5,-308 359.5,-308 359.5,-290 251.5,-290"/>
<text text-anchor="start" x="254.5" y="-296.2" font-family="Helvetica,sans-Serif" font-size="11.00">&lt; 1</text>
<polygon fill="#ffffff" stroke="transparent" points="359.5,-290 359.5,-308 415.5,-308 415.5,-290 359.5,-290"/>
<polygon fill="none" stroke="black" points="359.5,-290 359.5,-308 415.5,-308 415.5,-290 359.5,-290"/>
<text text-anchor="start" x="405.5" y="-296.2" font-family="Helvetica,sans-Serif" font-size="11.00"> &#160;</text>
<polygon fill="#ffffff" stroke="transparent" points="415.5,-290 415.5,-308 480.5,-308 480.5,-290 415.5,-290"/>
<polygon fill="none" stroke="black" points="415.5,-290 415.5,-308 480.5,-308 480.5,-290 415.5,-290"/>
<text text-anchor="start" x="461.5" y="-296.2" font-family="Helvetica,sans-Serif" font-size="11.00">1 &gt;</text>
</a>
</g>
</g>
<!-- syst_enum_items&#45;&gt;syst_enum_functional_types -->
<g id="edge8" class="edge">
<title>syst_enum_items:w&#45;&gt;syst_enum_functional_types:e</title>
<path fill="none" stroke="black" d="M515.64,-417.19C504.38,-412.36 498.45,-403 481.5,-403"/>
<polygon fill="black" stroke="black" points="522.15,-418.47 529.31,-423.53 526.07,-419.23 530,-420 530,-420 530,-420 526.07,-419.23 530.69,-416.47 522.15,-418.47 522.15,-418.47"/>
<ellipse fill="none" stroke="black" cx="519.01" cy="-417.85" rx="3.2" ry="3.2"/>
</g>
<!-- syst_enums -->
<g id="node7" class="node">
<title>syst_enums</title>
<g id="a_node7"><a xlink:href="../../tables/syst_enums.html" xlink:title="syst_enums" target="_top">
<polygon fill="#ffffff" stroke="transparent" points="8,-307 8,-431 202,-431 202,-307 8,-307"/>
<polygon fill="#f5f5f5" stroke="transparent" points="8,-409 8,-431 202,-431 202,-409 8,-409"/>
<polygon fill="none" stroke="black" points="8,-409 8,-431 202,-431 202,-409 8,-409"/>
<text text-anchor="start" x="13" y="-418.2" font-family="Helvetica,sans-Serif" font-weight="bold" font-size="11.00">syst_enums</text>
<text text-anchor="start" x="167" y="-417.2" font-family="Helvetica,sans-Serif" font-size="11.00">[table]</text>
<polygon fill="none" stroke="black" points="8,-387 8,-409 202,-409 202,-387 8,-387"/>
<image xlink:href="../../images/primaryKeys.png" width="11px" height="12px" preserveAspectRatio="xMinYMin meet" x="13" y="-404"/>
<text text-anchor="start" x="28" y="-395.2" font-family="Helvetica,sans-Serif" font-size="11.00">id</text>
<polygon fill="#ffffff" stroke="transparent" points="8,-365 8,-387 202,-387 202,-365 8,-365"/>
<polygon fill="none" stroke="black" points="8,-365 8,-387 202,-387 202,-365 8,-365"/>
<text text-anchor="start" x="28" y="-373.2" font-family="Helvetica,sans-Serif" font-size="11.00">internal_name</text>
<polygon fill="#ffffff" stroke="transparent" points="8,-343 8,-365 202,-365 202,-343 8,-343"/>
<polygon fill="none" stroke="black" points="8,-343 8,-365 202,-365 202,-343 8,-343"/>
<text text-anchor="start" x="28" y="-351.2" font-family="Helvetica,sans-Serif" font-size="11.00">display_name</text>
<polygon fill="none" stroke="black" points="8,-325 8,-343 202,-343 202,-325 8,-325"/>
<text text-anchor="start" x="11" y="-331.2" font-family="Helvetica,sans-Serif" font-size="11.00">...</text>
<polygon fill="#ffffff" stroke="transparent" points="8,-307 8,-325 94,-325 94,-307 8,-307"/>
<polygon fill="none" stroke="black" points="8,-307 8,-325 94,-325 94,-307 8,-307"/>
<text text-anchor="start" x="11" y="-313.2" font-family="Helvetica,sans-Serif" font-size="11.00"> &#160;</text>
<polygon fill="#ffffff" stroke="transparent" points="94,-307 94,-325 143,-325 143,-307 94,-307"/>
<polygon fill="none" stroke="black" points="94,-307 94,-325 143,-325 143,-307 94,-307"/>
<text text-anchor="start" x="133" y="-313.2" font-family="Helvetica,sans-Serif" font-size="11.00"> &#160;</text>
<polygon fill="#ffffff" stroke="transparent" points="143,-307 143,-325 202,-325 202,-307 143,-307"/>
<polygon fill="none" stroke="black" points="143,-307 143,-325 202,-325 202,-307 143,-307"/>
<text text-anchor="start" x="183" y="-313.2" font-family="Helvetica,sans-Serif" font-size="11.00">2 &gt;</text>
</a>
</g>
</g>
<!-- syst_enum_items&#45;&gt;syst_enums -->
<g id="edge7" class="edge">
<title>syst_enum_items:w&#45;&gt;syst_enums:e</title>
<path fill="none" stroke="black" d="M515.43,-442.78C506.9,-443.76 500.73,-445.4 488,-446 379.23,-451.17 341.61,-492.19 243,-446 217.85,-434.22 230.77,-398 203,-398"/>
<polygon fill="black" stroke="black" points="522.01,-442.43 530.19,-445.59 526.01,-442.21 530,-442 530,-442 530,-442 526.01,-442.21 529.81,-438.41 522.01,-442.43 522.01,-442.43"/>
<ellipse fill="none" stroke="black" cx="518.82" cy="-442.6" rx="3.2" ry="3.2"/>
</g>
<!-- syst_owners&#45;&gt;syst_enum_items -->
<g id="edge15" class="edge">
<title>syst_owners:w&#45;&gt;syst_enum_items:e</title>
<path fill="none" stroke="black" d="M889.67,-598.3C859.14,-585.33 865.97,-530 824,-530"/>
<polygon fill="black" stroke="black" points="896.14,-599.52 903.33,-604.54 900.07,-600.26 904,-601 904,-601 904,-601 900.07,-600.26 904.67,-597.46 896.14,-599.52 896.14,-599.52"/>
<ellipse fill="none" stroke="black" cx="892.99" cy="-598.93" rx="3.2" ry="3.2"/>
</g>
<!-- syst_credentials -->
<g id="node4" class="node">
<title>syst_credentials</title>
<g id="a_node4"><a xlink:href="../../tables/syst_credentials.html" xlink:title="syst_credentials" target="_top">
<polygon fill="#ffffff" stroke="transparent" points="1665,-412 1665,-558 1859,-558 1859,-412 1665,-412"/>
<polygon fill="#f5f5f5" stroke="transparent" points="1665,-536 1665,-558 1859,-558 1859,-536 1665,-536"/>
<polygon fill="none" stroke="black" points="1665,-536 1665,-558 1859,-558 1859,-536 1665,-536"/>
<text text-anchor="start" x="1670" y="-545.2" font-family="Helvetica,sans-Serif" font-weight="bold" font-size="11.00">syst_credentials</text>
<text text-anchor="start" x="1824" y="-544.2" font-family="Helvetica,sans-Serif" font-size="11.00">[table]</text>
<polygon fill="none" stroke="black" points="1665,-514 1665,-536 1859,-536 1859,-514 1665,-514"/>
<image xlink:href="../../images/primaryKeys.png" width="11px" height="12px" preserveAspectRatio="xMinYMin meet" x="1670" y="-531"/>
<text text-anchor="start" x="1685" y="-522.2" font-family="Helvetica,sans-Serif" font-size="11.00">id</text>
<polygon fill="#ffffff" stroke="transparent" points="1665,-492 1665,-514 1859,-514 1859,-492 1665,-492"/>
<polygon fill="none" stroke="black" points="1665,-492 1665,-514 1859,-514 1859,-492 1665,-492"/>
<image xlink:href="../../images/foreignKeys.png" width="11px" height="12px" preserveAspectRatio="xMinYMin meet" x="1670" y="-509"/>
<text text-anchor="start" x="1685" y="-500.2" font-family="Helvetica,sans-Serif" font-size="11.00">access_account_id</text>
<polygon fill="#ffffff" stroke="transparent" points="1665,-470 1665,-492 1859,-492 1859,-470 1665,-470"/>
<polygon fill="none" stroke="black" points="1665,-470 1665,-492 1859,-492 1859,-470 1665,-470"/>
<image xlink:href="../../images/foreignKeys.png" width="11px" height="12px" preserveAspectRatio="xMinYMin meet" x="1670" y="-487"/>
<text text-anchor="start" x="1685" y="-478.2" font-family="Helvetica,sans-Serif" font-size="11.00">credential_type_id</text>
<polygon fill="#ffffff" stroke="transparent" points="1665,-448 1665,-470 1859,-470 1859,-448 1665,-448"/>
<polygon fill="none" stroke="black" points="1665,-448 1665,-470 1859,-470 1859,-448 1665,-448"/>
<image xlink:href="../../images/foreignKeys.png" width="11px" height="12px" preserveAspectRatio="xMinYMin meet" x="1670" y="-465"/>
<text text-anchor="start" x="1685" y="-456.2" font-family="Helvetica,sans-Serif" font-size="11.00">credential_for_identity_id</text>
<polygon fill="none" stroke="black" points="1665,-430 1665,-448 1859,-448 1859,-430 1665,-430"/>
<text text-anchor="start" x="1668" y="-436.2" font-family="Helvetica,sans-Serif" font-size="11.00">...</text>
<polygon fill="#ffffff" stroke="transparent" points="1665,-412 1665,-430 1760,-430 1760,-412 1665,-412"/>
<polygon fill="none" stroke="black" points="1665,-412 1665,-430 1760,-430 1760,-412 1665,-412"/>
<text text-anchor="start" x="1668" y="-418.2" font-family="Helvetica,sans-Serif" font-size="11.00">&lt; 3</text>
<polygon fill="#ffffff" stroke="transparent" points="1760,-412 1760,-430 1809,-430 1809,-412 1760,-412"/>
<polygon fill="none" stroke="black" points="1760,-412 1760,-430 1809,-430 1809,-412 1760,-412"/>
<text text-anchor="start" x="1799" y="-418.2" font-family="Helvetica,sans-Serif" font-size="11.00"> &#160;</text>
<polygon fill="#ffffff" stroke="transparent" points="1809,-412 1809,-430 1859,-430 1859,-412 1809,-412"/>
<polygon fill="none" stroke="black" points="1809,-412 1809,-430 1859,-430 1859,-412 1809,-412"/>
<text text-anchor="start" x="1849" y="-418.2" font-family="Helvetica,sans-Serif" font-size="11.00"> &#160;</text>
</a>
</g>
</g>
<!-- syst_credentials&#45;&gt;syst_access_accounts -->
<g id="edge3" class="edge">
<title>syst_credentials:w&#45;&gt;syst_access_accounts:e</title>
<path fill="none" stroke="black" d="M1649.45,-503.44C1524.27,-511.16 1507.64,-618 1374,-618"/>
<polygon fill="black" stroke="black" points="1656,-503.24 1664.11,-506.6 1660,-503.12 1664,-503 1664,-503 1664,-503 1660,-503.12 1663.89,-499.4 1656,-503.24 1656,-503.24"/>
<ellipse fill="none" stroke="black" cx="1652.81" cy="-503.34" rx="3.2" ry="3.2"/>
</g>
<!-- syst_credentials&#45;&gt;syst_enum_items -->
<g id="edge5" class="edge">
<title>syst_credentials:w&#45;&gt;syst_enum_items:e</title>
<path fill="none" stroke="black" d="M1649.48,-481C1442.26,-480.95 1384.81,-480.11 1171,-494 1161.33,-494.63 833.69,-530 824,-530"/>
<polygon fill="black" stroke="black" points="1656,-481 1664,-484.6 1660,-481 1664,-481 1664,-481 1664,-481 1660,-481 1664,-477.4 1656,-481 1656,-481"/>
<ellipse fill="none" stroke="black" cx="1652.8" cy="-481" rx="3.2" ry="3.2"/>
</g>
<!-- syst_identities -->
<g id="node5" class="node">
<title>syst_identities</title>
<g id="a_node5"><a xlink:href="../../tables/syst_identities.html" xlink:title="syst_identities" target="_top">
<polygon fill="#ffffff" stroke="transparent" points="1422,-289 1422,-457 1616,-457 1616,-289 1422,-289"/>
<polygon fill="#f5f5f5" stroke="transparent" points="1422,-435 1422,-457 1616,-457 1616,-435 1422,-435"/>
<polygon fill="none" stroke="black" points="1422,-435 1422,-457 1616,-457 1616,-435 1422,-435"/>
<text text-anchor="start" x="1427" y="-444.2" font-family="Helvetica,sans-Serif" font-weight="bold" font-size="11.00">syst_identities</text>
<text text-anchor="start" x="1581" y="-443.2" font-family="Helvetica,sans-Serif" font-size="11.00">[table]</text>
<polygon fill="none" stroke="black" points="1422,-413 1422,-435 1616,-435 1616,-413 1422,-413"/>
<image xlink:href="../../images/primaryKeys.png" width="11px" height="12px" preserveAspectRatio="xMinYMin meet" x="1427" y="-430"/>
<text text-anchor="start" x="1442" y="-421.2" font-family="Helvetica,sans-Serif" font-size="11.00">id</text>
<polygon fill="#ffffff" stroke="transparent" points="1422,-391 1422,-413 1616,-413 1616,-391 1422,-391"/>
<polygon fill="none" stroke="black" points="1422,-391 1422,-413 1616,-413 1616,-391 1422,-391"/>
<image xlink:href="../../images/foreignKeys.png" width="11px" height="12px" preserveAspectRatio="xMinYMin meet" x="1427" y="-408"/>
<text text-anchor="start" x="1442" y="-399.2" font-family="Helvetica,sans-Serif" font-size="11.00">access_account_id</text>
<polygon fill="#ffffff" stroke="transparent" points="1422,-369 1422,-391 1616,-391 1616,-369 1422,-369"/>
<polygon fill="none" stroke="black" points="1422,-369 1422,-391 1616,-391 1616,-369 1422,-369"/>
<image xlink:href="../../images/foreignKeys.png" width="11px" height="12px" preserveAspectRatio="xMinYMin meet" x="1427" y="-386"/>
<text text-anchor="start" x="1442" y="-377.2" font-family="Helvetica,sans-Serif" font-size="11.00">identity_type_id</text>
<polygon fill="#ffffff" stroke="transparent" points="1422,-347 1422,-369 1616,-369 1616,-347 1422,-347"/>
<polygon fill="none" stroke="black" points="1422,-347 1422,-369 1616,-369 1616,-347 1422,-347"/>
<text text-anchor="start" x="1442" y="-355.2" font-family="Helvetica,sans-Serif" font-size="11.00">account_identifier</text>
<polygon fill="#ffffff" stroke="transparent" points="1422,-325 1422,-347 1616,-347 1616,-325 1422,-325"/>
<polygon fill="none" stroke="black" points="1422,-325 1422,-347 1616,-347 1616,-325 1422,-325"/>
<image xlink:href="../../images/foreignKeys.png" width="11px" height="12px" preserveAspectRatio="xMinYMin meet" x="1427" y="-342"/>
<text text-anchor="start" x="1442" y="-333.2" font-family="Helvetica,sans-Serif" font-size="11.00">validates_identity_id</text>
<polygon fill="none" stroke="black" points="1422,-307 1422,-325 1616,-325 1616,-307 1422,-307"/>
<text text-anchor="start" x="1425" y="-313.2" font-family="Helvetica,sans-Serif" font-size="11.00">...</text>
<polygon fill="#ffffff" stroke="transparent" points="1422,-289 1422,-307 1512,-307 1512,-289 1422,-289"/>
<polygon fill="none" stroke="black" points="1422,-289 1422,-307 1512,-307 1512,-289 1422,-289"/>
<text text-anchor="start" x="1425" y="-295.2" font-family="Helvetica,sans-Serif" font-size="11.00">&lt; 3</text>
<polygon fill="#ffffff" stroke="transparent" points="1512,-289 1512,-307 1559,-307 1559,-289 1512,-289"/>
<polygon fill="none" stroke="black" points="1512,-289 1512,-307 1559,-307 1559,-289 1512,-289"/>
<text text-anchor="start" x="1549" y="-295.2" font-family="Helvetica,sans-Serif" font-size="11.00"> &#160;</text>
<polygon fill="#ffffff" stroke="transparent" points="1559,-289 1559,-307 1616,-307 1616,-289 1559,-289"/>
<polygon fill="none" stroke="black" points="1559,-289 1559,-307 1616,-307 1616,-289 1559,-289"/>
<text text-anchor="start" x="1597" y="-295.2" font-family="Helvetica,sans-Serif" font-size="11.00">2 &gt;</text>
</a>
</g>
</g>
<!-- syst_credentials&#45;&gt;syst_identities -->
<g id="edge4" class="edge">
<title>syst_credentials:w&#45;&gt;syst_identities:e</title>
<path fill="none" stroke="black" d="M1650.02,-454.13C1638.63,-444.52 1636.94,-424 1617,-424"/>
<polygon fill="black" stroke="black" points="1656.44,-456.37 1662.82,-462.4 1660.22,-457.69 1664,-459 1664,-459 1664,-459 1660.22,-457.69 1665.18,-455.6 1656.44,-456.37 1656.44,-456.37"/>
<ellipse fill="none" stroke="black" cx="1653.42" cy="-455.32" rx="3.2" ry="3.2"/>
</g>
<!-- syst_identities&#45;&gt;syst_access_accounts -->
<g id="edge9" class="edge">
<title>syst_identities:w&#45;&gt;syst_access_accounts:e</title>
<path fill="none" stroke="black" d="M1406.6,-404C1338.89,-425.78 1466.68,-618 1374,-618"/>
<polygon fill="black" stroke="black" points="1413.08,-403.1 1421.5,-405.57 1417.04,-402.55 1421,-402 1421,-402 1421,-402 1417.04,-402.55 1420.5,-398.43 1413.08,-403.1 1413.08,-403.1"/>
<ellipse fill="none" stroke="black" cx="1409.91" cy="-403.54" rx="3.2" ry="3.2"/>
</g>
<!-- syst_identities&#45;&gt;syst_enum_items -->
<g id="edge10" class="edge">
<title>syst_identities:w&#45;&gt;syst_enum_items:e</title>
<path fill="none" stroke="black" d="M1406.38,-380.18C1290.12,-383.05 1259.95,-420.17 1138,-440 1077.95,-449.76 918.4,-440.1 866,-471 838.27,-487.35 856.19,-530 824,-530"/>
<polygon fill="black" stroke="black" points="1413,-380.1 1421.04,-383.6 1417,-380.05 1421,-380 1421,-380 1421,-380 1417,-380.05 1420.96,-376.4 1413,-380.1 1413,-380.1"/>
<ellipse fill="none" stroke="black" cx="1409.8" cy="-380.14" rx="3.2" ry="3.2"/>
</g>
<!-- syst_enum_functional_types&#45;&gt;syst_enums -->
<g id="edge6" class="edge">
<title>syst_enum_functional_types:w&#45;&gt;syst_enums:e</title>
<path fill="none" stroke="black" d="M236.72,-342.2C221.97,-356.95 231.19,-398 203,-398"/>
<polygon fill="black" stroke="black" points="243.02,-339.82 251.77,-340.37 246.76,-338.41 250.5,-337 250.5,-337 250.5,-337 246.76,-338.41 249.23,-333.63 243.02,-339.82 243.02,-339.82"/>
<ellipse fill="none" stroke="black" cx="240.02" cy="-340.95" rx="3.2" ry="3.2"/>
</g>
<!-- syst_instance_type_applications -->
<g id="node8" class="node">
<title>syst_instance_type_applications</title>
<g id="a_node8"><a xlink:href="../../tables/syst_instance_type_applications.html" xlink:title="syst_instance_type_applications" target="_top">
<polygon fill="#ffffff" stroke="transparent" points="874,-306 874,-430 1130,-430 1130,-306 874,-306"/>
<polygon fill="#f5f5f5" stroke="transparent" points="874,-408 874,-430 1130,-430 1130,-408 874,-408"/>
<polygon fill="none" stroke="black" points="874,-408 874,-430 1130,-430 1130,-408 874,-408"/>
<text text-anchor="start" x="879" y="-417.2" font-family="Helvetica,sans-Serif" font-weight="bold" font-size="11.00">syst_instance_type_applications</text>
<text text-anchor="start" x="1095" y="-416.2" font-family="Helvetica,sans-Serif" font-size="11.00">[table]</text>
<polygon fill="none" stroke="black" points="874,-386 874,-408 1130,-408 1130,-386 874,-386"/>
<image xlink:href="../../images/primaryKeys.png" width="11px" height="12px" preserveAspectRatio="xMinYMin meet" x="879" y="-403"/>
<text text-anchor="start" x="904" y="-394.2" font-family="Helvetica,sans-Serif" font-size="11.00">id</text>
<polygon fill="#ffffff" stroke="transparent" points="874,-364 874,-386 1130,-386 1130,-364 874,-364"/>
<polygon fill="none" stroke="black" points="874,-364 874,-386 1130,-386 1130,-364 874,-364"/>
<image xlink:href="../../images/foreignKeys.png" width="11px" height="12px" preserveAspectRatio="xMinYMin meet" x="879" y="-381"/>
<text text-anchor="start" x="904" y="-372.2" font-family="Helvetica,sans-Serif" font-size="11.00">instance_type_id</text>
<polygon fill="#ffffff" stroke="transparent" points="874,-342 874,-364 1130,-364 1130,-342 874,-342"/>
<polygon fill="none" stroke="black" points="874,-342 874,-364 1130,-364 1130,-342 874,-342"/>
<image xlink:href="../../images/foreignKeys.png" width="11px" height="12px" preserveAspectRatio="xMinYMin meet" x="879" y="-359"/>
<text text-anchor="start" x="904" y="-350.2" font-family="Helvetica,sans-Serif" font-size="11.00">application_id</text>
<polygon fill="none" stroke="black" points="874,-324 874,-342 1130,-342 1130,-324 874,-324"/>
<text text-anchor="start" x="877" y="-330.2" font-family="Helvetica,sans-Serif" font-size="11.00">...</text>
<polygon fill="#ffffff" stroke="transparent" points="874,-306 874,-324 995,-324 995,-306 874,-306"/>
<polygon fill="none" stroke="black" points="874,-306 874,-324 995,-324 995,-306 874,-306"/>
<text text-anchor="start" x="877" y="-312.2" font-family="Helvetica,sans-Serif" font-size="11.00">&lt; 2</text>
<polygon fill="#ffffff" stroke="transparent" points="995,-306 995,-324 1058,-324 1058,-306 995,-306"/>
<polygon fill="none" stroke="black" points="995,-306 995,-324 1058,-324 1058,-306 995,-306"/>
<text text-anchor="start" x="1048" y="-312.2" font-family="Helvetica,sans-Serif" font-size="11.00"> &#160;</text>
<polygon fill="#ffffff" stroke="transparent" points="1058,-306 1058,-324 1130,-324 1130,-306 1058,-306"/>
<polygon fill="none" stroke="black" points="1058,-306 1058,-324 1130,-324 1130,-306 1058,-306"/>
<text text-anchor="start" x="1111" y="-312.2" font-family="Helvetica,sans-Serif" font-size="11.00">1 &gt;</text>
</a>
</g>
</g>
<!-- syst_instance_type_applications&#45;&gt;syst_enum_items -->
<g id="edge11" class="edge">
<title>syst_instance_type_applications:w&#45;&gt;syst_enum_items:e</title>
<path fill="none" stroke="black" d="M858.7,-377.82C814.97,-398.83 890.46,-530 824,-530"/>
<polygon fill="black" stroke="black" points="865.15,-376.55 873.7,-378.53 869.08,-375.77 873,-375 873,-375 873,-375 869.08,-375.77 872.3,-371.47 865.15,-376.55 865.15,-376.55"/>
<ellipse fill="none" stroke="black" cx="862.01" cy="-377.17" rx="3.2" ry="3.2"/>
</g>
<!-- syst_instances -->
<g id="node9" class="node">
<title>syst_instances</title>
<g id="a_node9"><a xlink:href="../../tables/syst_instances.html" xlink:title="syst_instances" target="_top">
<polygon fill="#ffffff" stroke="transparent" points="1179,-672 1179,-906 1373,-906 1373,-672 1179,-672"/>
<polygon fill="#f5f5f5" stroke="transparent" points="1179,-884 1179,-906 1373,-906 1373,-884 1179,-884"/>
<polygon fill="none" stroke="black" points="1179,-884 1179,-906 1373,-906 1373,-884 1179,-884"/>
<text text-anchor="start" x="1184" y="-893.2" font-family="Helvetica,sans-Serif" font-weight="bold" font-size="11.00">syst_instances</text>
<text text-anchor="start" x="1338" y="-892.2" font-family="Helvetica,sans-Serif" font-size="11.00">[table]</text>
<polygon fill="none" stroke="black" points="1179,-862 1179,-884 1373,-884 1373,-862 1179,-862"/>
<image xlink:href="../../images/primaryKeys.png" width="11px" height="12px" preserveAspectRatio="xMinYMin meet" x="1184" y="-879"/>
<text text-anchor="start" x="1199" y="-870.2" font-family="Helvetica,sans-Serif" font-size="11.00">id</text>
<polygon fill="#ffffff" stroke="transparent" points="1179,-840 1179,-862 1373,-862 1373,-840 1179,-840"/>
<polygon fill="none" stroke="black" points="1179,-840 1179,-862 1373,-862 1373,-840 1179,-840"/>
<text text-anchor="start" x="1199" y="-848.2" font-family="Helvetica,sans-Serif" font-size="11.00">internal_name</text>
<polygon fill="#ffffff" stroke="transparent" points="1179,-818 1179,-840 1373,-840 1373,-818 1179,-818"/>
<polygon fill="none" stroke="black" points="1179,-818 1179,-840 1373,-840 1373,-818 1179,-818"/>
<text text-anchor="start" x="1199" y="-826.2" font-family="Helvetica,sans-Serif" font-size="11.00">display_name</text>
<polygon fill="none" stroke="black" points="1179,-796 1179,-818 1373,-818 1373,-796 1179,-796"/>
<image xlink:href="../../images/foreignKeys.png" width="11px" height="12px" preserveAspectRatio="xMinYMin meet" x="1184" y="-813"/>
<text text-anchor="start" x="1199" y="-804.2" font-family="Helvetica,sans-Serif" font-size="11.00">application_id</text>
<polygon fill="none" stroke="black" points="1179,-774 1179,-796 1373,-796 1373,-774 1179,-774"/>
<image xlink:href="../../images/foreignKeys.png" width="11px" height="12px" preserveAspectRatio="xMinYMin meet" x="1184" y="-791"/>
<text text-anchor="start" x="1199" y="-782.2" font-family="Helvetica,sans-Serif" font-size="11.00">instance_type_id</text>
<polygon fill="none" stroke="black" points="1179,-752 1179,-774 1373,-774 1373,-752 1179,-752"/>
<image xlink:href="../../images/foreignKeys.png" width="11px" height="12px" preserveAspectRatio="xMinYMin meet" x="1184" y="-769"/>
<text text-anchor="start" x="1199" y="-760.2" font-family="Helvetica,sans-Serif" font-size="11.00">instance_state_id</text>
<polygon fill="none" stroke="black" points="1179,-730 1179,-752 1373,-752 1373,-730 1179,-730"/>
<image xlink:href="../../images/foreignKeys.png" width="11px" height="12px" preserveAspectRatio="xMinYMin meet" x="1184" y="-747"/>
<text text-anchor="start" x="1199" y="-738.2" font-family="Helvetica,sans-Serif" font-size="11.00">owner_id</text>
<polygon fill="none" stroke="black" points="1179,-708 1179,-730 1373,-730 1373,-708 1179,-708"/>
<image xlink:href="../../images/foreignKeys.png" width="11px" height="12px" preserveAspectRatio="xMinYMin meet" x="1184" y="-725"/>
<text text-anchor="start" x="1199" y="-716.2" font-family="Helvetica,sans-Serif" font-size="11.00">owning_instance_id</text>
<polygon fill="none" stroke="black" points="1179,-690 1179,-708 1373,-708 1373,-690 1179,-690"/>
<text text-anchor="start" x="1182" y="-696.2" font-family="Helvetica,sans-Serif" font-size="11.00">...</text>
<polygon fill="#ffffff" stroke="transparent" points="1179,-672 1179,-690 1269,-690 1269,-672 1179,-672"/>
<polygon fill="none" stroke="black" points="1179,-672 1179,-690 1269,-690 1269,-672 1179,-672"/>
<text text-anchor="start" x="1182" y="-678.2" font-family="Helvetica,sans-Serif" font-size="11.00">&lt; 5</text>
<polygon fill="#ffffff" stroke="transparent" points="1269,-672 1269,-690 1316,-690 1316,-672 1269,-672"/>
<polygon fill="none" stroke="black" points="1269,-672 1269,-690 1316,-690 1316,-672 1269,-672"/>
<text text-anchor="start" x="1306" y="-678.2" font-family="Helvetica,sans-Serif" font-size="11.00"> &#160;</text>
<polygon fill="#ffffff" stroke="transparent" points="1316,-672 1316,-690 1373,-690 1373,-672 1316,-672"/>
<polygon fill="none" stroke="black" points="1316,-672 1316,-690 1373,-690 1373,-672 1316,-672"/>
<text text-anchor="start" x="1354" y="-678.2" font-family="Helvetica,sans-Serif" font-size="11.00">4 &gt;</text>
</a>
</g>
</g>
<!-- syst_instances&#45;&gt;syst_enum_items -->
<g id="edge12" class="edge">
<title>syst_instances:w&#45;&gt;syst_enum_items:e</title>
<path fill="none" stroke="black" d="M1163.48,-762.94C1084.45,-762.34 914.04,-756.11 866,-711 805.8,-654.47 906.58,-530 824,-530"/>
<polygon fill="black" stroke="black" points="1170,-762.97 1177.99,-766.6 1174,-762.98 1178,-763 1178,-763 1178,-763 1174,-762.98 1178.01,-759.4 1170,-762.97 1170,-762.97"/>
<ellipse fill="none" stroke="black" cx="1166.8" cy="-762.96" rx="3.2" ry="3.2"/>
</g>
<!-- syst_instances&#45;&gt;syst_enum_items -->
<g id="edge13" class="edge">
<title>syst_instances:w&#45;&gt;syst_enum_items:e</title>
<path fill="none" stroke="black" d="M1163.51,-785.2C1033.28,-788.78 964.51,-838.06 866,-746 794.55,-679.23 921.8,-530 824,-530"/>
<polygon fill="black" stroke="black" points="1170,-785.11 1178.05,-788.6 1174,-785.06 1178,-785 1178,-785 1178,-785 1174,-785.06 1177.95,-781.4 1170,-785.11 1170,-785.11"/>
<ellipse fill="none" stroke="black" cx="1166.8" cy="-785.15" rx="3.2" ry="3.2"/>
</g>
<!-- syst_instances&#45;&gt;syst_owners -->
<g id="edge14" class="edge">
<title>syst_instances:w&#45;&gt;syst_owners:e</title>
<path fill="none" stroke="black" d="M1163.68,-738.19C1133.44,-724.67 1142.19,-667 1100,-667"/>
<polygon fill="black" stroke="black" points="1170.15,-739.46 1177.31,-744.53 1174.07,-740.23 1178,-741 1178,-741 1178,-741 1174.07,-740.23 1178.69,-737.47 1170.15,-739.46 1170.15,-739.46"/>
<ellipse fill="none" stroke="black" cx="1167.01" cy="-738.84" rx="3.2" ry="3.2"/>
</g>
</g>
</svg>
