<?xml version="1.0" encoding="UTF-8" standalone="no"?>
<!DOCTYPE svg PUBLIC "-//W3C//DTD SVG 1.1//EN"
 "http://www.w3.org/Graphics/SVG/1.1/DTD/svg11.dtd">
<!-- Generated by graphviz version 2.43.0 (0)
 -->
<!-- Title: oneDegreeRelationshipsDiagram Pages: 1 -->
<svg width="947pt" height="504pt"
 viewBox="0.00 0.00 947.00 504.00" xmlns="http://www.w3.org/2000/svg" xmlns:xlink="http://www.w3.org/1999/xlink">
<g id="graph0" class="graph" transform="scale(1 1) rotate(0) translate(4 500)">
<title>oneDegreeRelationshipsDiagram</title>
<polygon fill="#ffffff" stroke="transparent" points="-4,4 -4,-500 943,-500 943,4 -4,4"/>
<text text-anchor="middle" x="71.5" y="-7.2" font-family="Helvetica,sans-Serif" font-size="11.00">Generated by SchemaSpy</text>
<!-- syst_access_account_perm_role_assigns -->
<g id="node1" class="node">
<title>syst_access_account_perm_role_assigns</title>
<g id="a_node1"><a xlink:href="../../tables/syst_access_account_perm_role_assigns.html" xlink:title="syst_access_account_perm_role_assigns" target="_top">
<polygon fill="#ffffff" stroke="transparent" points="623,-368 623,-492 931,-492 931,-368 623,-368"/>
<polygon fill="#f5f5f5" stroke="transparent" points="623,-470 623,-492 931,-492 931,-470 623,-470"/>
<polygon fill="none" stroke="black" points="623,-470 623,-492 931,-492 931,-470 623,-470"/>
<text text-anchor="start" x="628" y="-479.2" font-family="Helvetica,sans-Serif" font-weight="bold" font-size="11.00">syst_access_account_perm_role_assigns</text>
<text text-anchor="start" x="896" y="-478.2" font-family="Helvetica,sans-Serif" font-size="11.00">[table]</text>
<polygon fill="none" stroke="black" points="623,-448 623,-470 931,-470 931,-448 623,-448"/>
<image xlink:href="../../images/primaryKeys.png" width="11px" height="12px" preserveAspectRatio="xMinYMin meet" x="628" y="-465"/>
<text text-anchor="start" x="653" y="-456.2" font-family="Helvetica,sans-Serif" font-size="11.00">id</text>
<polygon fill="#ffffff" stroke="transparent" points="623,-426 623,-448 931,-448 931,-426 623,-426"/>
<polygon fill="none" stroke="black" points="623,-426 623,-448 931,-448 931,-426 623,-426"/>
<image xlink:href="../../images/foreignKeys.png" width="11px" height="12px" preserveAspectRatio="xMinYMin meet" x="628" y="-443"/>
<text text-anchor="start" x="653" y="-434.2" font-family="Helvetica,sans-Serif" font-size="11.00">access_account_id</text>
<polygon fill="#ffffff" stroke="transparent" points="623,-404 623,-426 931,-426 931,-404 623,-404"/>
<polygon fill="none" stroke="black" points="623,-404 623,-426 931,-426 931,-404 623,-404"/>
<image xlink:href="../../images/foreignKeys.png" width="11px" height="12px" preserveAspectRatio="xMinYMin meet" x="628" y="-421"/>
<text text-anchor="start" x="653" y="-412.2" font-family="Helvetica,sans-Serif" font-size="11.00">perm_role_id</text>
<polygon fill="none" stroke="black" points="623,-386 623,-404 931,-404 931,-386 623,-386"/>
<text text-anchor="start" x="626" y="-392.2" font-family="Helvetica,sans-Serif" font-size="11.00">...</text>
<polygon fill="#ffffff" stroke="transparent" points="623,-368 623,-386 775,-386 775,-368 623,-368"/>
<polygon fill="none" stroke="black" points="623,-368 623,-386 775,-386 775,-368 623,-368"/>
<text text-anchor="start" x="626" y="-374.2" font-family="Helvetica,sans-Serif" font-size="11.00">&lt; 2</text>
<polygon fill="#ffffff" stroke="transparent" points="775,-368 775,-386 853,-386 853,-368 775,-368"/>
<polygon fill="none" stroke="black" points="775,-368 775,-386 853,-386 853,-368 775,-368"/>
<text text-anchor="start" x="843" y="-374.2" font-family="Helvetica,sans-Serif" font-size="11.00"> &#160;</text>
<polygon fill="#ffffff" stroke="transparent" points="853,-368 853,-386 931,-386 931,-368 853,-368"/>
<polygon fill="none" stroke="black" points="853,-368 853,-386 931,-386 931,-368 853,-368"/>
<text text-anchor="start" x="921" y="-374.2" font-family="Helvetica,sans-Serif" font-size="11.00"> &#160;</text>
</a>
</g>
</g>
<!-- syst_perm_roles -->
<g id="node2" class="node">
<title>syst_perm_roles</title>
<g id="a_node2"><a xlink:href="../../tables/syst_perm_roles.html" xlink:title="syst_perm_roles" target="_top">
<polygon fill="#ffffff" stroke="transparent" points="283,-37 283,-389 574,-389 574,-37 283,-37"/>
<polygon fill="#f5f5f5" stroke="transparent" points="285.5,-365 285.5,-387 572.5,-387 572.5,-365 285.5,-365"/>
<polygon fill="none" stroke="black" points="285.5,-365 285.5,-387 572.5,-387 572.5,-365 285.5,-365"/>
<text text-anchor="start" x="290.5" y="-374.2" font-family="Helvetica,sans-Serif" font-weight="bold" font-size="11.00">syst_perm_roles</text>
<text text-anchor="start" x="537.5" y="-373.2" font-family="Helvetica,sans-Serif" font-size="11.00">[table]</text>
<polygon fill="none" stroke="black" points="285.5,-343 285.5,-365 479.5,-365 479.5,-343 285.5,-343"/>
<image xlink:href="../../images/primaryKeys.png" width="11px" height="12px" preserveAspectRatio="xMinYMin meet" x="290.5" y="-360"/>
<text text-anchor="start" x="305.5" y="-351.2" font-family="Helvetica,sans-Serif" font-size="11.00">id</text>
<polygon fill="none" stroke="black" points="479.5,-343 479.5,-365 572.5,-365 572.5,-343 479.5,-343"/>
<text text-anchor="start" x="482.5" y="-351.2" font-family="Helvetica,sans-Serif" font-size="11.00">uuid[2147483647]</text>
<polygon fill="#ffffff" stroke="transparent" points="285.5,-321 285.5,-343 479.5,-343 479.5,-321 285.5,-321"/>
<polygon fill="none" stroke="black" points="285.5,-321 285.5,-343 479.5,-343 479.5,-321 285.5,-321"/>
<text text-anchor="start" x="305.5" y="-329.2" font-family="Helvetica,sans-Serif" font-size="11.00">internal_name</text>
<polygon fill="none" stroke="black" points="479.5,-321 479.5,-343 572.5,-343 572.5,-321 479.5,-321"/>
<text text-anchor="start" x="482.5" y="-329.2" font-family="Helvetica,sans-Serif" font-size="11.00">text[2147483647]</text>
<polygon fill="#ffffff" stroke="transparent" points="285.5,-299 285.5,-321 479.5,-321 479.5,-299 285.5,-299"/>
<polygon fill="none" stroke="black" points="285.5,-299 285.5,-321 479.5,-321 479.5,-299 285.5,-299"/>
<text text-anchor="start" x="305.5" y="-307.2" font-family="Helvetica,sans-Serif" font-size="11.00">display_name</text>
<polygon fill="none" stroke="black" points="479.5,-299 479.5,-321 572.5,-321 572.5,-299 479.5,-299"/>
<text text-anchor="start" x="482.5" y="-307.2" font-family="Helvetica,sans-Serif" font-size="11.00">text[2147483647]</text>
<polygon fill="none" stroke="black" points="285.5,-277 285.5,-299 479.5,-299 479.5,-277 285.5,-277"/>
<image xlink:href="../../images/foreignKeys.png" width="11px" height="12px" preserveAspectRatio="xMinYMin meet" x="290.5" y="-294"/>
<text text-anchor="start" x="305.5" y="-285.2" font-family="Helvetica,sans-Serif" font-size="11.00">perm_functional_type_id</text>
<polygon fill="none" stroke="black" points="479.5,-277 479.5,-299 572.5,-299 572.5,-277 479.5,-277"/>
<text text-anchor="start" x="482.5" y="-285.2" font-family="Helvetica,sans-Serif" font-size="11.00">uuid[2147483647]</text>
<polygon fill="none" stroke="black" points="285.5,-255 285.5,-277 479.5,-277 479.5,-255 285.5,-255"/>
<text text-anchor="start" x="305.5" y="-263.2" font-family="Helvetica,sans-Serif" font-size="11.00">syst_defined</text>
<polygon fill="none" stroke="black" points="479.5,-255 479.5,-277 572.5,-277 572.5,-255 479.5,-255"/>
<text text-anchor="start" x="482.5" y="-263.2" font-family="Helvetica,sans-Serif" font-size="11.00">bool[1]</text>
<polygon fill="none" stroke="black" points="285.5,-233 285.5,-255 479.5,-255 479.5,-233 285.5,-233"/>
<text text-anchor="start" x="305.5" y="-241.2" font-family="Helvetica,sans-Serif" font-size="11.00">syst_description</text>
<polygon fill="none" stroke="black" points="479.5,-233 479.5,-255 572.5,-255 572.5,-233 479.5,-233"/>
<text text-anchor="start" x="482.5" y="-241.2" font-family="Helvetica,sans-Serif" font-size="11.00">text[2147483647]</text>
<polygon fill="none" stroke="black" points="285.5,-211 285.5,-233 479.5,-233 479.5,-211 285.5,-211"/>
<text text-anchor="start" x="305.5" y="-219.2" font-family="Helvetica,sans-Serif" font-size="11.00">user_description</text>
<polygon fill="none" stroke="black" points="479.5,-211 479.5,-233 572.5,-233 572.5,-211 479.5,-211"/>
<text text-anchor="start" x="482.5" y="-219.2" font-family="Helvetica,sans-Serif" font-size="11.00">text[2147483647]</text>
<polygon fill="none" stroke="black" points="285.5,-189 285.5,-211 479.5,-211 479.5,-189 285.5,-189"/>
<text text-anchor="start" x="305.5" y="-197.2" font-family="Helvetica,sans-Serif" font-size="11.00">diag_timestamp_created</text>
<polygon fill="none" stroke="black" points="479.5,-189 479.5,-211 572.5,-211 572.5,-189 479.5,-189"/>
<text text-anchor="start" x="482.5" y="-197.2" font-family="Helvetica,sans-Serif" font-size="11.00">timestamptz[35,6]</text>
<polygon fill="none" stroke="black" points="285.5,-167 285.5,-189 479.5,-189 479.5,-167 285.5,-167"/>
<text text-anchor="start" x="305.5" y="-175.2" font-family="Helvetica,sans-Serif" font-size="11.00">diag_role_created</text>
<polygon fill="none" stroke="black" points="479.5,-167 479.5,-189 572.5,-189 572.5,-167 479.5,-167"/>
<text text-anchor="start" x="482.5" y="-175.2" font-family="Helvetica,sans-Serif" font-size="11.00">text[2147483647]</text>
<polygon fill="none" stroke="black" points="285.5,-145 285.5,-167 479.5,-167 479.5,-145 285.5,-145"/>
<text text-anchor="start" x="305.5" y="-153.2" font-family="Helvetica,sans-Serif" font-size="11.00">diag_timestamp_modified</text>
<polygon fill="none" stroke="black" points="479.5,-145 479.5,-167 572.5,-167 572.5,-145 479.5,-145"/>
<text text-anchor="start" x="482.5" y="-153.2" font-family="Helvetica,sans-Serif" font-size="11.00">timestamptz[35,6]</text>
<polygon fill="none" stroke="black" points="285.5,-123 285.5,-145 479.5,-145 479.5,-123 285.5,-123"/>
<text text-anchor="start" x="305.5" y="-131.2" font-family="Helvetica,sans-Serif" font-size="11.00">diag_wallclock_modified</text>
<polygon fill="none" stroke="black" points="479.5,-123 479.5,-145 572.5,-145 572.5,-123 479.5,-123"/>
<text text-anchor="start" x="482.5" y="-131.2" font-family="Helvetica,sans-Serif" font-size="11.00">timestamptz[35,6]</text>
<polygon fill="none" stroke="black" points="285.5,-101 285.5,-123 479.5,-123 479.5,-101 285.5,-101"/>
<text text-anchor="start" x="305.5" y="-109.2" font-family="Helvetica,sans-Serif" font-size="11.00">diag_role_modified</text>
<polygon fill="none" stroke="black" points="479.5,-101 479.5,-123 572.5,-123 572.5,-101 479.5,-101"/>
<text text-anchor="start" x="482.5" y="-109.2" font-family="Helvetica,sans-Serif" font-size="11.00">text[2147483647]</text>
<polygon fill="none" stroke="black" points="285.5,-79 285.5,-101 479.5,-101 479.5,-79 285.5,-79"/>
<text text-anchor="start" x="305.5" y="-87.2" font-family="Helvetica,sans-Serif" font-size="11.00">diag_row_version</text>
<polygon fill="none" stroke="black" points="479.5,-79 479.5,-101 572.5,-101 572.5,-79 479.5,-79"/>
<text text-anchor="start" x="482.5" y="-87.2" font-family="Helvetica,sans-Serif" font-size="11.00">int8[19]</text>
<polygon fill="none" stroke="black" points="285.5,-57 285.5,-79 479.5,-79 479.5,-57 285.5,-57"/>
<text text-anchor="start" x="305.5" y="-65.2" font-family="Helvetica,sans-Serif" font-size="11.00">diag_update_count</text>
<polygon fill="none" stroke="black" points="479.5,-57 479.5,-79 572.5,-79 572.5,-57 479.5,-57"/>
<text text-anchor="start" x="482.5" y="-65.2" font-family="Helvetica,sans-Serif" font-size="11.00">int8[19]</text>
<polygon fill="#ffffff" stroke="transparent" points="285.5,-39 285.5,-57 386.5,-57 386.5,-39 285.5,-39"/>
<polygon fill="none" stroke="black" points="285.5,-39 285.5,-57 386.5,-57 386.5,-39 285.5,-39"/>
<text text-anchor="start" x="288.5" y="-45.2" font-family="Helvetica,sans-Serif" font-size="11.00">&lt; 1</text>
<polygon fill="#ffffff" stroke="transparent" points="386.5,-39 386.5,-57 479.5,-57 479.5,-39 386.5,-39"/>
<polygon fill="none" stroke="black" points="386.5,-39 386.5,-57 479.5,-57 479.5,-39 386.5,-39"/>
<text text-anchor="start" x="469.5" y="-45.2" font-family="Helvetica,sans-Serif" font-size="11.00"> &#160;</text>
<polygon fill="#ffffff" stroke="transparent" points="479.5,-39 479.5,-57 572.5,-57 572.5,-39 479.5,-39"/>
<polygon fill="none" stroke="black" points="479.5,-39 479.5,-57 572.5,-57 572.5,-39 479.5,-39"/>
<text text-anchor="start" x="553.5" y="-45.2" font-family="Helvetica,sans-Serif" font-size="11.00">2 &gt;</text>
<polygon fill="none" stroke="black" stroke-width="2" points="284,-38 284,-388 573,-388 573,-38 284,-38"/>
</a>
</g>
</g>
<!-- syst_access_account_perm_role_assigns&#45;&gt;syst_perm_roles -->
<g id="edge1" class="edge">
<title>syst_access_account_perm_role_assigns:w&#45;&gt;syst_perm_roles:e</title>
<path fill="none" stroke="black" d="M608.05,-409.8C593.04,-395.05 601.91,-354 573.5,-354"/>
<polygon fill="black" stroke="black" points="614.5,-412.2 620.74,-418.37 618.25,-413.6 622,-415 622,-415 622,-415 618.25,-413.6 623.26,-411.63 614.5,-412.2 614.5,-412.2"/>
<ellipse fill="none" stroke="black" cx="611.51" cy="-411.09" rx="3.2" ry="3.2"/>
</g>
<!-- syst_perm_functional_types -->
<g id="node4" class="node">
<title>syst_perm_functional_types</title>
<g id="a_node4"><a xlink:href="../../tables/syst_perm_functional_types.html" xlink:title="syst_perm_functional_types" target="_top">
<polygon fill="#ffffff" stroke="transparent" points="8,-197 8,-321 234,-321 234,-197 8,-197"/>
<polygon fill="#f5f5f5" stroke="transparent" points="8,-299 8,-321 234,-321 234,-299 8,-299"/>
<polygon fill="none" stroke="black" points="8,-299 8,-321 234,-321 234,-299 8,-299"/>
<text text-anchor="start" x="13" y="-308.2" font-family="Helvetica,sans-Serif" font-weight="bold" font-size="11.00">syst_perm_functional_types</text>
<text text-anchor="start" x="199" y="-307.2" font-family="Helvetica,sans-Serif" font-size="11.00">[table]</text>
<polygon fill="none" stroke="black" points="8,-277 8,-299 234,-299 234,-277 8,-277"/>
<image xlink:href="../../images/primaryKeys.png" width="11px" height="12px" preserveAspectRatio="xMinYMin meet" x="13" y="-294"/>
<text text-anchor="start" x="38" y="-285.2" font-family="Helvetica,sans-Serif" font-size="11.00">id</text>
<polygon fill="#ffffff" stroke="transparent" points="8,-255 8,-277 234,-277 234,-255 8,-255"/>
<polygon fill="none" stroke="black" points="8,-255 8,-277 234,-277 234,-255 8,-255"/>
<text text-anchor="start" x="38" y="-263.2" font-family="Helvetica,sans-Serif" font-size="11.00">internal_name</text>
<polygon fill="#ffffff" stroke="transparent" points="8,-233 8,-255 234,-255 234,-233 8,-233"/>
<polygon fill="none" stroke="black" points="8,-233 8,-255 234,-255 234,-233 8,-233"/>
<text text-anchor="start" x="38" y="-241.2" font-family="Helvetica,sans-Serif" font-size="11.00">display_name</text>
<polygon fill="none" stroke="black" points="8,-215 8,-233 234,-233 234,-215 8,-215"/>
<text text-anchor="start" x="11" y="-221.2" font-family="Helvetica,sans-Serif" font-size="11.00">...</text>
<polygon fill="#ffffff" stroke="transparent" points="8,-197 8,-215 110,-215 110,-197 8,-197"/>
<polygon fill="none" stroke="black" points="8,-197 8,-215 110,-215 110,-197 8,-197"/>
<text text-anchor="start" x="11" y="-203.2" font-family="Helvetica,sans-Serif" font-size="11.00"> &#160;</text>
<polygon fill="#ffffff" stroke="transparent" points="110,-197 110,-215 167,-215 167,-197 110,-197"/>
<polygon fill="none" stroke="black" points="110,-197 110,-215 167,-215 167,-197 110,-197"/>
<text text-anchor="start" x="157" y="-203.2" font-family="Helvetica,sans-Serif" font-size="11.00"> &#160;</text>
<polygon fill="#ffffff" stroke="transparent" points="167,-197 167,-215 234,-215 234,-197 167,-197"/>
<polygon fill="none" stroke="black" points="167,-197 167,-215 234,-215 234,-197 167,-197"/>
<text text-anchor="start" x="215" y="-203.2" font-family="Helvetica,sans-Serif" font-size="11.00">2 &gt;</text>
</a>
</g>
</g>
<!-- syst_perm_roles&#45;&gt;syst_perm_functional_types -->
<g id="edge3" class="edge">
<title>syst_perm_roles:w&#45;&gt;syst_perm_functional_types:e</title>
<path fill="none" stroke="black" d="M269.84,-288C258.41,-288 251.16,-288 235,-288"/>
<polygon fill="black" stroke="black" points="276.5,-288 284.5,-291.6 280.5,-288 284.5,-288 284.5,-288 284.5,-288 280.5,-288 284.5,-284.4 276.5,-288 276.5,-288"/>
<ellipse fill="none" stroke="black" cx="273.3" cy="-288" rx="3.2" ry="3.2"/>
</g>
<!-- syst_perm_role_grants -->
<g id="node3" class="node">
<title>syst_perm_role_grants</title>
<g id="a_node3"><a xlink:href="../../tables/syst_perm_role_grants.html" xlink:title="syst_perm_role_grants" target="_top">
<polygon fill="#ffffff" stroke="transparent" points="680,-223 680,-347 874,-347 874,-223 680,-223"/>
<polygon fill="#f5f5f5" stroke="transparent" points="680,-325 680,-347 874,-347 874,-325 680,-325"/>
<polygon fill="none" stroke="black" points="680,-325 680,-347 874,-347 874,-325 680,-325"/>
<text text-anchor="start" x="685" y="-334.2" font-family="Helvetica,sans-Serif" font-weight="bold" font-size="11.00">syst_perm_role_grants</text>
<text text-anchor="start" x="839" y="-333.2" font-family="Helvetica,sans-Serif" font-size="11.00">[table]</text>
<polygon fill="none" stroke="black" points="680,-303 680,-325 874,-325 874,-303 680,-303"/>
<image xlink:href="../../images/primaryKeys.png" width="11px" height="12px" preserveAspectRatio="xMinYMin meet" x="685" y="-320"/>
<text text-anchor="start" x="700" y="-311.2" font-family="Helvetica,sans-Serif" font-size="11.00">id</text>
<polygon fill="#ffffff" stroke="transparent" points="680,-281 680,-303 874,-303 874,-281 680,-281"/>
<polygon fill="none" stroke="black" points="680,-281 680,-303 874,-303 874,-281 680,-281"/>
<image xlink:href="../../images/foreignKeys.png" width="11px" height="12px" preserveAspectRatio="xMinYMin meet" x="685" y="-298"/>
<text text-anchor="start" x="700" y="-289.2" font-family="Helvetica,sans-Serif" font-size="11.00">perm_role_id</text>
<polygon fill="#ffffff" stroke="transparent" points="680,-259 680,-281 874,-281 874,-259 680,-259"/>
<polygon fill="none" stroke="black" points="680,-259 680,-281 874,-281 874,-259 680,-259"/>
<image xlink:href="../../images/foreignKeys.png" width="11px" height="12px" preserveAspectRatio="xMinYMin meet" x="685" y="-276"/>
<text text-anchor="start" x="700" y="-267.2" font-family="Helvetica,sans-Serif" font-size="11.00">perm_id</text>
<polygon fill="none" stroke="black" points="680,-241 680,-259 874,-259 874,-241 680,-241"/>
<text text-anchor="start" x="683" y="-247.2" font-family="Helvetica,sans-Serif" font-size="11.00">...</text>
<polygon fill="#ffffff" stroke="transparent" points="680,-223 680,-241 775,-241 775,-223 680,-223"/>
<polygon fill="none" stroke="black" points="680,-223 680,-241 775,-241 775,-223 680,-223"/>
<text text-anchor="start" x="683" y="-229.2" font-family="Helvetica,sans-Serif" font-size="11.00">&lt; 2</text>
<polygon fill="#ffffff" stroke="transparent" points="775,-223 775,-241 824,-241 824,-223 775,-223"/>
<polygon fill="none" stroke="black" points="775,-223 775,-241 824,-241 824,-223 775,-223"/>
<text text-anchor="start" x="814" y="-229.2" font-family="Helvetica,sans-Serif" font-size="11.00"> &#160;</text>
<polygon fill="#ffffff" stroke="transparent" points="824,-223 824,-241 874,-241 874,-223 824,-223"/>
<polygon fill="none" stroke="black" points="824,-223 824,-241 874,-241 874,-223 824,-223"/>
<text text-anchor="start" x="864" y="-229.2" font-family="Helvetica,sans-Serif" font-size="11.00"> &#160;</text>
</a>
</g>
</g>
<!-- syst_perm_role_grants&#45;&gt;syst_perm_roles -->
<g id="edge2" class="edge">
<title>syst_perm_role_grants:w&#45;&gt;syst_perm_roles:e</title>
<path fill="none" stroke="black" d="M664.61,-293.66C624.7,-303.52 622.58,-354 573.5,-354"/>
<polygon fill="black" stroke="black" points="671.05,-292.92 679.41,-295.58 675.03,-292.46 679,-292 679,-292 679,-292 675.03,-292.46 678.59,-288.42 671.05,-292.92 671.05,-292.92"/>
<ellipse fill="none" stroke="black" cx="667.87" cy="-293.28" rx="3.2" ry="3.2"/>
</g>
</g>
</svg>
