<?xml version="1.0" encoding="UTF-8" standalone="no"?>
<!DOCTYPE svg PUBLIC "-//W3C//DTD SVG 1.1//EN"
 "http://www.w3.org/Graphics/SVG/1.1/DTD/svg11.dtd">
<!-- Generated by graphviz version 2.43.0 (0)
 -->
<!-- Title: oneDegreeRelationshipsDiagram Pages: 1 -->
<svg width="653pt" height="362pt"
 viewBox="0.00 0.00 653.00 362.00" xmlns="http://www.w3.org/2000/svg" xmlns:xlink="http://www.w3.org/1999/xlink">
<g id="graph0" class="graph" transform="scale(1 1) rotate(0) translate(4 358)">
<title>oneDegreeRelationshipsDiagram</title>
<polygon fill="#ffffff" stroke="transparent" points="-4,4 -4,-358 649,-358 649,4 -4,4"/>
<text text-anchor="middle" x="71.5" y="-7.2" font-family="Helvetica,sans-Serif" font-size="11.00">Generated by SchemaSpy</text>
<!-- syst_access_account_perm_role_assigns -->
<g id="node1" class="node">
<title>syst_access_account_perm_role_assigns</title>
<g id="a_node1"><a xlink:href="../../tables/syst_access_account_perm_role_assigns.html" xlink:title="syst_access_account_perm_role_assigns" target="_top">
<polygon fill="#ffffff" stroke="transparent" points="251,-37 251,-301 637,-301 637,-37 251,-37"/>
<polygon fill="#f5f5f5" stroke="transparent" points="253,-277 253,-299 635,-299 635,-277 253,-277"/>
<polygon fill="none" stroke="black" points="253,-277 253,-299 635,-299 635,-277 253,-277"/>
<text text-anchor="start" x="258" y="-286.2" font-family="Helvetica,sans-Serif" font-weight="bold" font-size="11.00">syst_access_account_perm_role_assigns</text>
<text text-anchor="start" x="600" y="-285.2" font-family="Helvetica,sans-Serif" font-size="11.00">[table]</text>
<polygon fill="none" stroke="black" points="253,-255 253,-277 542,-277 542,-255 253,-255"/>
<image xlink:href="../../images/primaryKeys.png" width="11px" height="12px" preserveAspectRatio="xMinYMin meet" x="258" y="-272"/>
<text text-anchor="start" x="273" y="-263.2" font-family="Helvetica,sans-Serif" font-size="11.00">id</text>
<polygon fill="none" stroke="black" points="542,-255 542,-277 635,-277 635,-255 542,-255"/>
<text text-anchor="start" x="545" y="-263.2" font-family="Helvetica,sans-Serif" font-size="11.00">uuid[2147483647]</text>
<polygon fill="#ffffff" stroke="transparent" points="253,-233 253,-255 542,-255 542,-233 253,-233"/>
<polygon fill="none" stroke="black" points="253,-233 253,-255 542,-255 542,-233 253,-233"/>
<image xlink:href="../../images/foreignKeys.png" width="11px" height="12px" preserveAspectRatio="xMinYMin meet" x="258" y="-250"/>
<text text-anchor="start" x="273" y="-241.2" font-family="Helvetica,sans-Serif" font-size="11.00">access_account_id</text>
<polygon fill="none" stroke="black" points="542,-233 542,-255 635,-255 635,-233 542,-233"/>
<text text-anchor="start" x="545" y="-241.2" font-family="Helvetica,sans-Serif" font-size="11.00">uuid[2147483647]</text>
<polygon fill="#ffffff" stroke="transparent" points="253,-211 253,-233 542,-233 542,-211 253,-211"/>
<polygon fill="none" stroke="black" points="253,-211 253,-233 542,-233 542,-211 253,-211"/>
<image xlink:href="../../images/foreignKeys.png" width="11px" height="12px" preserveAspectRatio="xMinYMin meet" x="258" y="-228"/>
<text text-anchor="start" x="273" y="-219.2" font-family="Helvetica,sans-Serif" font-size="11.00">perm_role_id</text>
<polygon fill="none" stroke="black" points="542,-211 542,-233 635,-233 635,-211 542,-211"/>
<text text-anchor="start" x="545" y="-219.2" font-family="Helvetica,sans-Serif" font-size="11.00">uuid[2147483647]</text>
<polygon fill="none" stroke="black" points="253,-189 253,-211 542,-211 542,-189 253,-189"/>
<text text-anchor="start" x="273" y="-197.2" font-family="Helvetica,sans-Serif" font-size="11.00">diag_timestamp_created</text>
<polygon fill="none" stroke="black" points="542,-189 542,-211 635,-211 635,-189 542,-189"/>
<text text-anchor="start" x="545" y="-197.2" font-family="Helvetica,sans-Serif" font-size="11.00">timestamptz[35,6]</text>
<polygon fill="none" stroke="black" points="253,-167 253,-189 542,-189 542,-167 253,-167"/>
<text text-anchor="start" x="273" y="-175.2" font-family="Helvetica,sans-Serif" font-size="11.00">diag_role_created</text>
<polygon fill="none" stroke="black" points="542,-167 542,-189 635,-189 635,-167 542,-167"/>
<text text-anchor="start" x="545" y="-175.2" font-family="Helvetica,sans-Serif" font-size="11.00">text[2147483647]</text>
<polygon fill="none" stroke="black" points="253,-145 253,-167 542,-167 542,-145 253,-145"/>
<text text-anchor="start" x="273" y="-153.2" font-family="Helvetica,sans-Serif" font-size="11.00">diag_timestamp_modified</text>
<polygon fill="none" stroke="black" points="542,-145 542,-167 635,-167 635,-145 542,-145"/>
<text text-anchor="start" x="545" y="-153.2" font-family="Helvetica,sans-Serif" font-size="11.00">timestamptz[35,6]</text>
<polygon fill="none" stroke="black" points="253,-123 253,-145 542,-145 542,-123 253,-123"/>
<text text-anchor="start" x="273" y="-131.2" font-family="Helvetica,sans-Serif" font-size="11.00">diag_wallclock_modified</text>
<polygon fill="none" stroke="black" points="542,-123 542,-145 635,-145 635,-123 542,-123"/>
<text text-anchor="start" x="545" y="-131.2" font-family="Helvetica,sans-Serif" font-size="11.00">timestamptz[35,6]</text>
<polygon fill="none" stroke="black" points="253,-101 253,-123 542,-123 542,-101 253,-101"/>
<text text-anchor="start" x="273" y="-109.2" font-family="Helvetica,sans-Serif" font-size="11.00">diag_role_modified</text>
<polygon fill="none" stroke="black" points="542,-101 542,-123 635,-123 635,-101 542,-101"/>
<text text-anchor="start" x="545" y="-109.2" font-family="Helvetica,sans-Serif" font-size="11.00">text[2147483647]</text>
<polygon fill="none" stroke="black" points="253,-79 253,-101 542,-101 542,-79 253,-79"/>
<text text-anchor="start" x="273" y="-87.2" font-family="Helvetica,sans-Serif" font-size="11.00">diag_row_version</text>
<polygon fill="none" stroke="black" points="542,-79 542,-101 635,-101 635,-79 542,-79"/>
<text text-anchor="start" x="545" y="-87.2" font-family="Helvetica,sans-Serif" font-size="11.00">int8[19]</text>
<polygon fill="none" stroke="black" points="253,-57 253,-79 542,-79 542,-57 253,-57"/>
<text text-anchor="start" x="273" y="-65.2" font-family="Helvetica,sans-Serif" font-size="11.00">diag_update_count</text>
<polygon fill="none" stroke="black" points="542,-57 542,-79 635,-79 635,-57 542,-57"/>
<text text-anchor="start" x="545" y="-65.2" font-family="Helvetica,sans-Serif" font-size="11.00">int8[19]</text>
<polygon fill="#ffffff" stroke="transparent" points="253,-39 253,-57 402,-57 402,-39 253,-39"/>
<polygon fill="none" stroke="black" points="253,-39 253,-57 402,-57 402,-39 253,-39"/>
<text text-anchor="start" x="256" y="-45.2" font-family="Helvetica,sans-Serif" font-size="11.00">&lt; 2</text>
<polygon fill="#ffffff" stroke="transparent" points="402,-39 402,-57 542,-57 542,-39 402,-39"/>
<polygon fill="none" stroke="black" points="402,-39 402,-57 542,-57 542,-39 402,-39"/>
<text text-anchor="start" x="532" y="-45.2" font-family="Helvetica,sans-Serif" font-size="11.00"> &#160;</text>
<polygon fill="#ffffff" stroke="transparent" points="542,-39 542,-57 635,-57 635,-39 542,-39"/>
<polygon fill="none" stroke="black" points="542,-39 542,-57 635,-57 635,-39 542,-39"/>
<text text-anchor="start" x="616" y="-45.2" font-family="Helvetica,sans-Serif" font-size="11.00">0 &gt;</text>
<polygon fill="none" stroke="black" stroke-width="2" points="252,-38 252,-300 636,-300 636,-38 252,-38"/>
</a>
</g>
</g>
<!-- syst_access_accounts -->
<g id="node2" class="node">
<title>syst_access_accounts</title>
<g id="a_node2"><a xlink:href="../../tables/syst_access_accounts.html" xlink:title="syst_access_accounts" target="_top">
<polygon fill="#ffffff" stroke="transparent" points="8,-204 8,-350 202,-350 202,-204 8,-204"/>
<polygon fill="#f5f5f5" stroke="transparent" points="8,-328 8,-350 202,-350 202,-328 8,-328"/>
<polygon fill="none" stroke="black" points="8,-328 8,-350 202,-350 202,-328 8,-328"/>
<text text-anchor="start" x="13" y="-337.2" font-family="Helvetica,sans-Serif" font-weight="bold" font-size="11.00">syst_access_accounts</text>
<text text-anchor="start" x="167" y="-336.2" font-family="Helvetica,sans-Serif" font-size="11.00">[table]</text>
<polygon fill="none" stroke="black" points="8,-306 8,-328 202,-328 202,-306 8,-306"/>
<image xlink:href="../../images/primaryKeys.png" width="11px" height="12px" preserveAspectRatio="xMinYMin meet" x="13" y="-323"/>
<text text-anchor="start" x="28" y="-314.2" font-family="Helvetica,sans-Serif" font-size="11.00">id</text>
<polygon fill="#ffffff" stroke="transparent" points="8,-284 8,-306 202,-306 202,-284 8,-284"/>
<polygon fill="none" stroke="black" points="8,-284 8,-306 202,-306 202,-284 8,-284"/>
<text text-anchor="start" x="28" y="-292.2" font-family="Helvetica,sans-Serif" font-size="11.00">internal_name</text>
<polygon fill="none" stroke="black" points="8,-262 8,-284 202,-284 202,-262 8,-262"/>
<image xlink:href="../../images/foreignKeys.png" width="11px" height="12px" preserveAspectRatio="xMinYMin meet" x="13" y="-279"/>
<text text-anchor="start" x="28" y="-270.2" font-family="Helvetica,sans-Serif" font-size="11.00">owning_owner_id</text>
<polygon fill="none" stroke="black" points="8,-240 8,-262 202,-262 202,-240 8,-240"/>
<image xlink:href="../../images/foreignKeys.png" width="11px" height="12px" preserveAspectRatio="xMinYMin meet" x="13" y="-257"/>
<text text-anchor="start" x="28" y="-248.2" font-family="Helvetica,sans-Serif" font-size="11.00">access_account_state_id</text>
<polygon fill="none" stroke="black" points="8,-222 8,-240 202,-240 202,-222 8,-222"/>
<text text-anchor="start" x="11" y="-228.2" font-family="Helvetica,sans-Serif" font-size="11.00">...</text>
<polygon fill="#ffffff" stroke="transparent" points="8,-204 8,-222 98,-222 98,-204 8,-204"/>
<polygon fill="none" stroke="black" points="8,-204 8,-222 98,-222 98,-204 8,-204"/>
<text text-anchor="start" x="11" y="-210.2" font-family="Helvetica,sans-Serif" font-size="11.00">&lt; 2</text>
<polygon fill="#ffffff" stroke="transparent" points="98,-204 98,-222 145,-222 145,-204 98,-204"/>
<polygon fill="none" stroke="black" points="98,-204 98,-222 145,-222 145,-204 98,-204"/>
<text text-anchor="start" x="135" y="-210.2" font-family="Helvetica,sans-Serif" font-size="11.00"> &#160;</text>
<polygon fill="#ffffff" stroke="transparent" points="145,-204 145,-222 202,-222 202,-204 145,-204"/>
<polygon fill="none" stroke="black" points="145,-204 145,-222 202,-222 202,-204 145,-204"/>
<text text-anchor="start" x="183" y="-210.2" font-family="Helvetica,sans-Serif" font-size="11.00">5 &gt;</text>
</a>
</g>
</g>
<!-- syst_access_account_perm_role_assigns&#45;&gt;syst_access_accounts -->
<g id="edge1" class="edge">
<title>syst_access_account_perm_role_assigns:w&#45;&gt;syst_access_accounts:e</title>
<path fill="none" stroke="black" d="M238.16,-248.79C220.37,-265.03 235.97,-317 203,-317"/>
<polygon fill="black" stroke="black" points="244.44,-246.62 253.18,-247.4 248.22,-245.31 252,-244 252,-244 252,-244 248.22,-245.31 250.82,-240.6 244.44,-246.62 244.44,-246.62"/>
<ellipse fill="none" stroke="black" cx="241.42" cy="-247.66" rx="3.2" ry="3.2"/>
</g>
<!-- syst_perm_roles -->
<g id="node3" class="node">
<title>syst_perm_roles</title>
<g id="a_node3"><a xlink:href="../../tables/syst_perm_roles.html" xlink:title="syst_perm_roles" target="_top">
<polygon fill="#ffffff" stroke="transparent" points="8,-37 8,-183 202,-183 202,-37 8,-37"/>
<polygon fill="#f5f5f5" stroke="transparent" points="8,-161 8,-183 202,-183 202,-161 8,-161"/>
<polygon fill="none" stroke="black" points="8,-161 8,-183 202,-183 202,-161 8,-161"/>
<text text-anchor="start" x="13" y="-170.2" font-family="Helvetica,sans-Serif" font-weight="bold" font-size="11.00">syst_perm_roles</text>
<text text-anchor="start" x="167" y="-169.2" font-family="Helvetica,sans-Serif" font-size="11.00">[table]</text>
<polygon fill="none" stroke="black" points="8,-139 8,-161 202,-161 202,-139 8,-139"/>
<image xlink:href="../../images/primaryKeys.png" width="11px" height="12px" preserveAspectRatio="xMinYMin meet" x="13" y="-156"/>
<text text-anchor="start" x="28" y="-147.2" font-family="Helvetica,sans-Serif" font-size="11.00">id</text>
<polygon fill="#ffffff" stroke="transparent" points="8,-117 8,-139 202,-139 202,-117 8,-117"/>
<polygon fill="none" stroke="black" points="8,-117 8,-139 202,-139 202,-117 8,-117"/>
<text text-anchor="start" x="28" y="-125.2" font-family="Helvetica,sans-Serif" font-size="11.00">internal_name</text>
<polygon fill="#ffffff" stroke="transparent" points="8,-95 8,-117 202,-117 202,-95 8,-95"/>
<polygon fill="none" stroke="black" points="8,-95 8,-117 202,-117 202,-95 8,-95"/>
<text text-anchor="start" x="28" y="-103.2" font-family="Helvetica,sans-Serif" font-size="11.00">display_name</text>
<polygon fill="none" stroke="black" points="8,-73 8,-95 202,-95 202,-73 8,-73"/>
<image xlink:href="../../images/foreignKeys.png" width="11px" height="12px" preserveAspectRatio="xMinYMin meet" x="13" y="-90"/>
<text text-anchor="start" x="28" y="-81.2" font-family="Helvetica,sans-Serif" font-size="11.00">perm_functional_type_id</text>
<polygon fill="none" stroke="black" points="8,-55 8,-73 202,-73 202,-55 8,-55"/>
<text text-anchor="start" x="11" y="-61.2" font-family="Helvetica,sans-Serif" font-size="11.00">...</text>
<polygon fill="#ffffff" stroke="transparent" points="8,-37 8,-55 98,-55 98,-37 8,-37"/>
<polygon fill="none" stroke="black" points="8,-37 8,-55 98,-55 98,-37 8,-37"/>
<text text-anchor="start" x="11" y="-43.2" font-family="Helvetica,sans-Serif" font-size="11.00">&lt; 1</text>
<polygon fill="#ffffff" stroke="transparent" points="98,-37 98,-55 145,-55 145,-37 98,-37"/>
<polygon fill="none" stroke="black" points="98,-37 98,-55 145,-55 145,-37 98,-37"/>
<text text-anchor="start" x="135" y="-43.2" font-family="Helvetica,sans-Serif" font-size="11.00"> &#160;</text>
<polygon fill="#ffffff" stroke="transparent" points="145,-37 145,-55 202,-55 202,-37 145,-37"/>
<polygon fill="none" stroke="black" points="145,-37 145,-55 202,-55 202,-37 145,-37"/>
<text text-anchor="start" x="183" y="-43.2" font-family="Helvetica,sans-Serif" font-size="11.00">2 &gt;</text>
</a>
</g>
</g>
<!-- syst_access_account_perm_role_assigns&#45;&gt;syst_perm_roles -->
<g id="edge2" class="edge">
<title>syst_access_account_perm_role_assigns:w&#45;&gt;syst_perm_roles:e</title>
<path fill="none" stroke="black" d="M238.26,-217.28C220.53,-201.26 235.66,-150 203,-150"/>
<polygon fill="black" stroke="black" points="244.43,-219.4 250.83,-225.4 248.22,-220.7 252,-222 252,-222 252,-222 248.22,-220.7 253.17,-218.6 244.43,-219.4 244.43,-219.4"/>
<ellipse fill="none" stroke="black" cx="241.41" cy="-218.36" rx="3.2" ry="3.2"/>
</g>
</g>
</svg>
