<?xml version="1.0" encoding="UTF-8" standalone="no"?>
<!DOCTYPE svg PUBLIC "-//W3C//DTD SVG 1.1//EN"
 "http://www.w3.org/Graphics/SVG/1.1/DTD/svg11.dtd">
<!-- Generated by graphviz version 2.43.0 (0)
 -->
<!-- Title: oneDegreeRelationshipsDiagram Pages: 1 -->
<svg width="1044pt" height="492pt"
 viewBox="0.00 0.00 1044.00 492.00" xmlns="http://www.w3.org/2000/svg" xmlns:xlink="http://www.w3.org/1999/xlink">
<g id="graph0" class="graph" transform="scale(1 1) rotate(0) translate(4 488)">
<title>oneDegreeRelationshipsDiagram</title>
<polygon fill="#ffffff" stroke="transparent" points="-4,4 -4,-488 1040,-488 1040,4 -4,4"/>
<text text-anchor="middle" x="71.5" y="-7.2" font-family="Helvetica,sans-Serif" font-size="11.00">Generated by SchemaSpy</text>
<!-- syst_access_accounts -->
<g id="node1" class="node">
<title>syst_access_accounts</title>
<g id="a_node1"><a xlink:href="../../tables/syst_access_accounts.html" xlink:title="syst_access_accounts" target="_top">
<polygon fill="#ffffff" stroke="transparent" points="251,-334 251,-480 445,-480 445,-334 251,-334"/>
<polygon fill="#f5f5f5" stroke="transparent" points="251,-458 251,-480 445,-480 445,-458 251,-458"/>
<polygon fill="none" stroke="black" points="251,-458 251,-480 445,-480 445,-458 251,-458"/>
<text text-anchor="start" x="256" y="-467.2" font-family="Helvetica,sans-Serif" font-weight="bold" font-size="11.00">syst_access_accounts</text>
<text text-anchor="start" x="410" y="-466.2" font-family="Helvetica,sans-Serif" font-size="11.00">[table]</text>
<polygon fill="none" stroke="black" points="251,-436 251,-458 445,-458 445,-436 251,-436"/>
<image xlink:href="../../images/primaryKeys.png" width="11px" height="12px" preserveAspectRatio="xMinYMin meet" x="256" y="-453"/>
<text text-anchor="start" x="271" y="-444.2" font-family="Helvetica,sans-Serif" font-size="11.00">id</text>
<polygon fill="#ffffff" stroke="transparent" points="251,-414 251,-436 445,-436 445,-414 251,-414"/>
<polygon fill="none" stroke="black" points="251,-414 251,-436 445,-436 445,-414 251,-414"/>
<text text-anchor="start" x="271" y="-422.2" font-family="Helvetica,sans-Serif" font-size="11.00">internal_name</text>
<polygon fill="none" stroke="black" points="251,-392 251,-414 445,-414 445,-392 251,-392"/>
<image xlink:href="../../images/foreignKeys.png" width="11px" height="12px" preserveAspectRatio="xMinYMin meet" x="256" y="-409"/>
<text text-anchor="start" x="271" y="-400.2" font-family="Helvetica,sans-Serif" font-size="11.00">owning_owner_id</text>
<polygon fill="none" stroke="black" points="251,-370 251,-392 445,-392 445,-370 251,-370"/>
<image xlink:href="../../images/foreignKeys.png" width="11px" height="12px" preserveAspectRatio="xMinYMin meet" x="256" y="-387"/>
<text text-anchor="start" x="271" y="-378.2" font-family="Helvetica,sans-Serif" font-size="11.00">access_account_state_id</text>
<polygon fill="none" stroke="black" points="251,-352 251,-370 445,-370 445,-352 251,-352"/>
<text text-anchor="start" x="254" y="-358.2" font-family="Helvetica,sans-Serif" font-size="11.00">...</text>
<polygon fill="#ffffff" stroke="transparent" points="251,-334 251,-352 341,-352 341,-334 251,-334"/>
<polygon fill="none" stroke="black" points="251,-334 251,-352 341,-352 341,-334 251,-334"/>
<text text-anchor="start" x="254" y="-340.2" font-family="Helvetica,sans-Serif" font-size="11.00">&lt; 2</text>
<polygon fill="#ffffff" stroke="transparent" points="341,-334 341,-352 388,-352 388,-334 341,-334"/>
<polygon fill="none" stroke="black" points="341,-334 341,-352 388,-352 388,-334 341,-334"/>
<text text-anchor="start" x="378" y="-340.2" font-family="Helvetica,sans-Serif" font-size="11.00"> &#160;</text>
<polygon fill="#ffffff" stroke="transparent" points="388,-334 388,-352 445,-352 445,-334 388,-334"/>
<polygon fill="none" stroke="black" points="388,-334 388,-352 445,-352 445,-334 388,-334"/>
<text text-anchor="start" x="426" y="-340.2" font-family="Helvetica,sans-Serif" font-size="11.00">5 &gt;</text>
</a>
</g>
</g>
<!-- syst_enum_items -->
<g id="node2" class="node">
<title>syst_enum_items</title>
<g id="a_node2"><a xlink:href="../../tables/syst_enum_items.html" xlink:title="syst_enum_items" target="_top">
<polygon fill="#ffffff" stroke="transparent" points="8,-175 8,-343 202,-343 202,-175 8,-175"/>
<polygon fill="#f5f5f5" stroke="transparent" points="8,-321 8,-343 202,-343 202,-321 8,-321"/>
<polygon fill="none" stroke="black" points="8,-321 8,-343 202,-343 202,-321 8,-321"/>
<text text-anchor="start" x="13" y="-330.2" font-family="Helvetica,sans-Serif" font-weight="bold" font-size="11.00">syst_enum_items</text>
<text text-anchor="start" x="167" y="-329.2" font-family="Helvetica,sans-Serif" font-size="11.00">[table]</text>
<polygon fill="none" stroke="black" points="8,-299 8,-321 202,-321 202,-299 8,-299"/>
<image xlink:href="../../images/primaryKeys.png" width="11px" height="12px" preserveAspectRatio="xMinYMin meet" x="13" y="-316"/>
<text text-anchor="start" x="28" y="-307.2" font-family="Helvetica,sans-Serif" font-size="11.00">id</text>
<polygon fill="#ffffff" stroke="transparent" points="8,-277 8,-299 202,-299 202,-277 8,-277"/>
<polygon fill="none" stroke="black" points="8,-277 8,-299 202,-299 202,-277 8,-277"/>
<text text-anchor="start" x="28" y="-285.2" font-family="Helvetica,sans-Serif" font-size="11.00">internal_name</text>
<polygon fill="#ffffff" stroke="transparent" points="8,-255 8,-277 202,-277 202,-255 8,-255"/>
<polygon fill="none" stroke="black" points="8,-255 8,-277 202,-277 202,-255 8,-255"/>
<text text-anchor="start" x="28" y="-263.2" font-family="Helvetica,sans-Serif" font-size="11.00">display_name</text>
<polygon fill="none" stroke="black" points="8,-233 8,-255 202,-255 202,-233 8,-233"/>
<image xlink:href="../../images/foreignKeys.png" width="11px" height="12px" preserveAspectRatio="xMinYMin meet" x="13" y="-250"/>
<text text-anchor="start" x="28" y="-241.2" font-family="Helvetica,sans-Serif" font-size="11.00">enum_id</text>
<polygon fill="none" stroke="black" points="8,-211 8,-233 202,-233 202,-211 8,-211"/>
<image xlink:href="../../images/foreignKeys.png" width="11px" height="12px" preserveAspectRatio="xMinYMin meet" x="13" y="-228"/>
<text text-anchor="start" x="28" y="-219.2" font-family="Helvetica,sans-Serif" font-size="11.00">functional_type_id</text>
<polygon fill="none" stroke="black" points="8,-193 8,-211 202,-211 202,-193 8,-193"/>
<text text-anchor="start" x="11" y="-199.2" font-family="Helvetica,sans-Serif" font-size="11.00">...</text>
<polygon fill="#ffffff" stroke="transparent" points="8,-175 8,-193 98,-193 98,-175 8,-175"/>
<polygon fill="none" stroke="black" points="8,-175 8,-193 98,-193 98,-175 8,-175"/>
<text text-anchor="start" x="11" y="-181.2" font-family="Helvetica,sans-Serif" font-size="11.00">&lt; 2</text>
<polygon fill="#ffffff" stroke="transparent" points="98,-175 98,-193 145,-193 145,-175 98,-175"/>
<polygon fill="none" stroke="black" points="98,-175 98,-193 145,-193 145,-175 98,-175"/>
<text text-anchor="start" x="135" y="-181.2" font-family="Helvetica,sans-Serif" font-size="11.00"> &#160;</text>
<polygon fill="#ffffff" stroke="transparent" points="145,-175 145,-193 202,-193 202,-175 145,-175"/>
<polygon fill="none" stroke="black" points="145,-175 145,-193 202,-193 202,-175 145,-175"/>
<text text-anchor="start" x="183" y="-181.2" font-family="Helvetica,sans-Serif" font-size="11.00">7 &gt;</text>
</a>
</g>
</g>
<!-- syst_access_accounts&#45;&gt;syst_enum_items -->
<g id="edge1" class="edge">
<title>syst_access_accounts:w&#45;&gt;syst_enum_items:e</title>
<path fill="none" stroke="black" d="M236.16,-375.89C219.78,-359.61 234.63,-310 203,-310"/>
<polygon fill="black" stroke="black" points="242.49,-378.23 248.75,-384.38 246.25,-379.62 250,-381 250,-381 250,-381 246.25,-379.62 251.25,-377.62 242.49,-378.23 242.49,-378.23"/>
<ellipse fill="none" stroke="black" cx="239.49" cy="-377.12" rx="3.2" ry="3.2"/>
</g>
<!-- syst_credentials -->
<g id="node3" class="node">
<title>syst_credentials</title>
<g id="a_node3"><a xlink:href="../../tables/syst_credentials.html" xlink:title="syst_credentials" target="_top">
<polygon fill="#ffffff" stroke="transparent" points="737,-37 737,-389 1028,-389 1028,-37 737,-37"/>
<polygon fill="#f5f5f5" stroke="transparent" points="739.5,-365 739.5,-387 1026.5,-387 1026.5,-365 739.5,-365"/>
<polygon fill="none" stroke="black" points="739.5,-365 739.5,-387 1026.5,-387 1026.5,-365 739.5,-365"/>
<text text-anchor="start" x="744.5" y="-374.2" font-family="Helvetica,sans-Serif" font-weight="bold" font-size="11.00">syst_credentials</text>
<text text-anchor="start" x="991.5" y="-373.2" font-family="Helvetica,sans-Serif" font-size="11.00">[table]</text>
<polygon fill="none" stroke="black" points="739.5,-343 739.5,-365 933.5,-365 933.5,-343 739.5,-343"/>
<image xlink:href="../../images/primaryKeys.png" width="11px" height="12px" preserveAspectRatio="xMinYMin meet" x="744.5" y="-360"/>
<text text-anchor="start" x="759.5" y="-351.2" font-family="Helvetica,sans-Serif" font-size="11.00">id</text>
<polygon fill="none" stroke="black" points="933.5,-343 933.5,-365 1026.5,-365 1026.5,-343 933.5,-343"/>
<text text-anchor="start" x="936.5" y="-351.2" font-family="Helvetica,sans-Serif" font-size="11.00">uuid[2147483647]</text>
<polygon fill="#ffffff" stroke="transparent" points="739.5,-321 739.5,-343 933.5,-343 933.5,-321 739.5,-321"/>
<polygon fill="none" stroke="black" points="739.5,-321 739.5,-343 933.5,-343 933.5,-321 739.5,-321"/>
<image xlink:href="../../images/foreignKeys.png" width="11px" height="12px" preserveAspectRatio="xMinYMin meet" x="744.5" y="-338"/>
<text text-anchor="start" x="759.5" y="-329.2" font-family="Helvetica,sans-Serif" font-size="11.00">access_account_id</text>
<polygon fill="none" stroke="black" points="933.5,-321 933.5,-343 1026.5,-343 1026.5,-321 933.5,-321"/>
<text text-anchor="start" x="936.5" y="-329.2" font-family="Helvetica,sans-Serif" font-size="11.00">uuid[2147483647]</text>
<polygon fill="#ffffff" stroke="transparent" points="739.5,-299 739.5,-321 933.5,-321 933.5,-299 739.5,-299"/>
<polygon fill="none" stroke="black" points="739.5,-299 739.5,-321 933.5,-321 933.5,-299 739.5,-299"/>
<image xlink:href="../../images/foreignKeys.png" width="11px" height="12px" preserveAspectRatio="xMinYMin meet" x="744.5" y="-316"/>
<text text-anchor="start" x="759.5" y="-307.2" font-family="Helvetica,sans-Serif" font-size="11.00">credential_type_id</text>
<polygon fill="none" stroke="black" points="933.5,-299 933.5,-321 1026.5,-321 1026.5,-299 933.5,-299"/>
<text text-anchor="start" x="936.5" y="-307.2" font-family="Helvetica,sans-Serif" font-size="11.00">uuid[2147483647]</text>
<polygon fill="#ffffff" stroke="transparent" points="739.5,-277 739.5,-299 933.5,-299 933.5,-277 739.5,-277"/>
<polygon fill="none" stroke="black" points="739.5,-277 739.5,-299 933.5,-299 933.5,-277 739.5,-277"/>
<image xlink:href="../../images/foreignKeys.png" width="11px" height="12px" preserveAspectRatio="xMinYMin meet" x="744.5" y="-294"/>
<text text-anchor="start" x="759.5" y="-285.2" font-family="Helvetica,sans-Serif" font-size="11.00">credential_for_identity_id</text>
<polygon fill="none" stroke="black" points="933.5,-277 933.5,-299 1026.5,-299 1026.5,-277 933.5,-277"/>
<text text-anchor="start" x="936.5" y="-285.2" font-family="Helvetica,sans-Serif" font-size="11.00">uuid[2147483647]</text>
<polygon fill="none" stroke="black" points="739.5,-255 739.5,-277 933.5,-277 933.5,-255 739.5,-255"/>
<text text-anchor="start" x="759.5" y="-263.2" font-family="Helvetica,sans-Serif" font-size="11.00">credential_data</text>
<polygon fill="none" stroke="black" points="933.5,-255 933.5,-277 1026.5,-277 1026.5,-255 933.5,-255"/>
<text text-anchor="start" x="936.5" y="-263.2" font-family="Helvetica,sans-Serif" font-size="11.00">text[2147483647]</text>
<polygon fill="none" stroke="black" points="739.5,-233 739.5,-255 933.5,-255 933.5,-233 739.5,-233"/>
<text text-anchor="start" x="759.5" y="-241.2" font-family="Helvetica,sans-Serif" font-size="11.00">last_updated</text>
<polygon fill="none" stroke="black" points="933.5,-233 933.5,-255 1026.5,-255 1026.5,-233 933.5,-233"/>
<text text-anchor="start" x="936.5" y="-241.2" font-family="Helvetica,sans-Serif" font-size="11.00">timestamptz[35,6]</text>
<polygon fill="none" stroke="black" points="739.5,-211 739.5,-233 933.5,-233 933.5,-211 739.5,-211"/>
<text text-anchor="start" x="759.5" y="-219.2" font-family="Helvetica,sans-Serif" font-size="11.00">force_reset</text>
<polygon fill="none" stroke="black" points="933.5,-211 933.5,-233 1026.5,-233 1026.5,-211 933.5,-211"/>
<text text-anchor="start" x="936.5" y="-219.2" font-family="Helvetica,sans-Serif" font-size="11.00">timestamptz[35,6]</text>
<polygon fill="none" stroke="black" points="739.5,-189 739.5,-211 933.5,-211 933.5,-189 739.5,-189"/>
<text text-anchor="start" x="759.5" y="-197.2" font-family="Helvetica,sans-Serif" font-size="11.00">diag_timestamp_created</text>
<polygon fill="none" stroke="black" points="933.5,-189 933.5,-211 1026.5,-211 1026.5,-189 933.5,-189"/>
<text text-anchor="start" x="936.5" y="-197.2" font-family="Helvetica,sans-Serif" font-size="11.00">timestamptz[35,6]</text>
<polygon fill="none" stroke="black" points="739.5,-167 739.5,-189 933.5,-189 933.5,-167 739.5,-167"/>
<text text-anchor="start" x="759.5" y="-175.2" font-family="Helvetica,sans-Serif" font-size="11.00">diag_role_created</text>
<polygon fill="none" stroke="black" points="933.5,-167 933.5,-189 1026.5,-189 1026.5,-167 933.5,-167"/>
<text text-anchor="start" x="936.5" y="-175.2" font-family="Helvetica,sans-Serif" font-size="11.00">text[2147483647]</text>
<polygon fill="none" stroke="black" points="739.5,-145 739.5,-167 933.5,-167 933.5,-145 739.5,-145"/>
<text text-anchor="start" x="759.5" y="-153.2" font-family="Helvetica,sans-Serif" font-size="11.00">diag_timestamp_modified</text>
<polygon fill="none" stroke="black" points="933.5,-145 933.5,-167 1026.5,-167 1026.5,-145 933.5,-145"/>
<text text-anchor="start" x="936.5" y="-153.2" font-family="Helvetica,sans-Serif" font-size="11.00">timestamptz[35,6]</text>
<polygon fill="none" stroke="black" points="739.5,-123 739.5,-145 933.5,-145 933.5,-123 739.5,-123"/>
<text text-anchor="start" x="759.5" y="-131.2" font-family="Helvetica,sans-Serif" font-size="11.00">diag_wallclock_modified</text>
<polygon fill="none" stroke="black" points="933.5,-123 933.5,-145 1026.5,-145 1026.5,-123 933.5,-123"/>
<text text-anchor="start" x="936.5" y="-131.2" font-family="Helvetica,sans-Serif" font-size="11.00">timestamptz[35,6]</text>
<polygon fill="none" stroke="black" points="739.5,-101 739.5,-123 933.5,-123 933.5,-101 739.5,-101"/>
<text text-anchor="start" x="759.5" y="-109.2" font-family="Helvetica,sans-Serif" font-size="11.00">diag_role_modified</text>
<polygon fill="none" stroke="black" points="933.5,-101 933.5,-123 1026.5,-123 1026.5,-101 933.5,-101"/>
<text text-anchor="start" x="936.5" y="-109.2" font-family="Helvetica,sans-Serif" font-size="11.00">text[2147483647]</text>
<polygon fill="none" stroke="black" points="739.5,-79 739.5,-101 933.5,-101 933.5,-79 739.5,-79"/>
<text text-anchor="start" x="759.5" y="-87.2" font-family="Helvetica,sans-Serif" font-size="11.00">diag_row_version</text>
<polygon fill="none" stroke="black" points="933.5,-79 933.5,-101 1026.5,-101 1026.5,-79 933.5,-79"/>
<text text-anchor="start" x="936.5" y="-87.2" font-family="Helvetica,sans-Serif" font-size="11.00">int8[19]</text>
<polygon fill="none" stroke="black" points="739.5,-57 739.5,-79 933.5,-79 933.5,-57 739.5,-57"/>
<text text-anchor="start" x="759.5" y="-65.2" font-family="Helvetica,sans-Serif" font-size="11.00">diag_update_count</text>
<polygon fill="none" stroke="black" points="933.5,-57 933.5,-79 1026.5,-79 1026.5,-57 933.5,-57"/>
<text text-anchor="start" x="936.5" y="-65.2" font-family="Helvetica,sans-Serif" font-size="11.00">int8[19]</text>
<polygon fill="#ffffff" stroke="transparent" points="739.5,-39 739.5,-57 840.5,-57 840.5,-39 739.5,-39"/>
<polygon fill="none" stroke="black" points="739.5,-39 739.5,-57 840.5,-57 840.5,-39 739.5,-39"/>
<text text-anchor="start" x="742.5" y="-45.2" font-family="Helvetica,sans-Serif" font-size="11.00">&lt; 3</text>
<polygon fill="#ffffff" stroke="transparent" points="840.5,-39 840.5,-57 933.5,-57 933.5,-39 840.5,-39"/>
<polygon fill="none" stroke="black" points="840.5,-39 840.5,-57 933.5,-57 933.5,-39 840.5,-39"/>
<text text-anchor="start" x="923.5" y="-45.2" font-family="Helvetica,sans-Serif" font-size="11.00"> &#160;</text>
<polygon fill="#ffffff" stroke="transparent" points="933.5,-39 933.5,-57 1026.5,-57 1026.5,-39 933.5,-39"/>
<polygon fill="none" stroke="black" points="933.5,-39 933.5,-57 1026.5,-57 1026.5,-39 933.5,-39"/>
<text text-anchor="start" x="1007.5" y="-45.2" font-family="Helvetica,sans-Serif" font-size="11.00">0 &gt;</text>
<polygon fill="none" stroke="black" stroke-width="2" points="738,-38 738,-388 1027,-388 1027,-38 738,-38"/>
</a>
</g>
</g>
<!-- syst_credentials&#45;&gt;syst_access_accounts -->
<g id="edge2" class="edge">
<title>syst_credentials:w&#45;&gt;syst_access_accounts:e</title>
<path fill="none" stroke="black" d="M723.84,-332.44C597.7,-340.16 580.64,-447 446,-447"/>
<polygon fill="black" stroke="black" points="730.5,-332.24 738.61,-335.6 734.5,-332.12 738.5,-332 738.5,-332 738.5,-332 734.5,-332.12 738.39,-328.4 730.5,-332.24 730.5,-332.24"/>
<ellipse fill="none" stroke="black" cx="727.31" cy="-332.34" rx="3.2" ry="3.2"/>
</g>
<!-- syst_credentials&#45;&gt;syst_enum_items -->
<g id="edge4" class="edge">
<title>syst_credentials:w&#45;&gt;syst_enum_items:e</title>
<path fill="none" stroke="black" d="M724.08,-310C497.98,-310 436.12,-310 203,-310"/>
<polygon fill="black" stroke="black" points="730.5,-310 738.5,-313.6 734.5,-310 738.5,-310 738.5,-310 738.5,-310 734.5,-310 738.5,-306.4 730.5,-310 730.5,-310"/>
<ellipse fill="none" stroke="black" cx="727.3" cy="-310" rx="3.2" ry="3.2"/>
</g>
<!-- syst_identities -->
<g id="node4" class="node">
<title>syst_identities</title>
<g id="a_node4"><a xlink:href="../../tables/syst_identities.html" xlink:title="syst_identities" target="_top">
<polygon fill="#ffffff" stroke="transparent" points="494,-118 494,-286 688,-286 688,-118 494,-118"/>
<polygon fill="#f5f5f5" stroke="transparent" points="494,-264 494,-286 688,-286 688,-264 494,-264"/>
<polygon fill="none" stroke="black" points="494,-264 494,-286 688,-286 688,-264 494,-264"/>
<text text-anchor="start" x="499" y="-273.2" font-family="Helvetica,sans-Serif" font-weight="bold" font-size="11.00">syst_identities</text>
<text text-anchor="start" x="653" y="-272.2" font-family="Helvetica,sans-Serif" font-size="11.00">[table]</text>
<polygon fill="none" stroke="black" points="494,-242 494,-264 688,-264 688,-242 494,-242"/>
<image xlink:href="../../images/primaryKeys.png" width="11px" height="12px" preserveAspectRatio="xMinYMin meet" x="499" y="-259"/>
<text text-anchor="start" x="514" y="-250.2" font-family="Helvetica,sans-Serif" font-size="11.00">id</text>
<polygon fill="#ffffff" stroke="transparent" points="494,-220 494,-242 688,-242 688,-220 494,-220"/>
<polygon fill="none" stroke="black" points="494,-220 494,-242 688,-242 688,-220 494,-220"/>
<image xlink:href="../../images/foreignKeys.png" width="11px" height="12px" preserveAspectRatio="xMinYMin meet" x="499" y="-237"/>
<text text-anchor="start" x="514" y="-228.2" font-family="Helvetica,sans-Serif" font-size="11.00">access_account_id</text>
<polygon fill="#ffffff" stroke="transparent" points="494,-198 494,-220 688,-220 688,-198 494,-198"/>
<polygon fill="none" stroke="black" points="494,-198 494,-220 688,-220 688,-198 494,-198"/>
<image xlink:href="../../images/foreignKeys.png" width="11px" height="12px" preserveAspectRatio="xMinYMin meet" x="499" y="-215"/>
<text text-anchor="start" x="514" y="-206.2" font-family="Helvetica,sans-Serif" font-size="11.00">identity_type_id</text>
<polygon fill="#ffffff" stroke="transparent" points="494,-176 494,-198 688,-198 688,-176 494,-176"/>
<polygon fill="none" stroke="black" points="494,-176 494,-198 688,-198 688,-176 494,-176"/>
<text text-anchor="start" x="514" y="-184.2" font-family="Helvetica,sans-Serif" font-size="11.00">account_identifier</text>
<polygon fill="#ffffff" stroke="transparent" points="494,-154 494,-176 688,-176 688,-154 494,-154"/>
<polygon fill="none" stroke="black" points="494,-154 494,-176 688,-176 688,-154 494,-154"/>
<image xlink:href="../../images/foreignKeys.png" width="11px" height="12px" preserveAspectRatio="xMinYMin meet" x="499" y="-171"/>
<text text-anchor="start" x="514" y="-162.2" font-family="Helvetica,sans-Serif" font-size="11.00">validates_identity_id</text>
<polygon fill="none" stroke="black" points="494,-136 494,-154 688,-154 688,-136 494,-136"/>
<text text-anchor="start" x="497" y="-142.2" font-family="Helvetica,sans-Serif" font-size="11.00">...</text>
<polygon fill="#ffffff" stroke="transparent" points="494,-118 494,-136 584,-136 584,-118 494,-118"/>
<polygon fill="none" stroke="black" points="494,-118 494,-136 584,-136 584,-118 494,-118"/>
<text text-anchor="start" x="497" y="-124.2" font-family="Helvetica,sans-Serif" font-size="11.00">&lt; 3</text>
<polygon fill="#ffffff" stroke="transparent" points="584,-118 584,-136 631,-136 631,-118 584,-118"/>
<polygon fill="none" stroke="black" points="584,-118 584,-136 631,-136 631,-118 584,-118"/>
<text text-anchor="start" x="621" y="-124.2" font-family="Helvetica,sans-Serif" font-size="11.00"> &#160;</text>
<polygon fill="#ffffff" stroke="transparent" points="631,-118 631,-136 688,-136 688,-118 631,-118"/>
<polygon fill="none" stroke="black" points="631,-118 631,-136 688,-136 688,-118 631,-118"/>
<text text-anchor="start" x="669" y="-124.2" font-family="Helvetica,sans-Serif" font-size="11.00">2 &gt;</text>
</a>
</g>
</g>
<!-- syst_credentials&#45;&gt;syst_identities -->
<g id="edge3" class="edge">
<title>syst_credentials:w&#45;&gt;syst_identities:e</title>
<path fill="none" stroke="black" d="M724.66,-283.71C711.98,-274.36 710.05,-253 689,-253"/>
<polygon fill="black" stroke="black" points="730.86,-285.63 737.43,-291.44 734.68,-286.82 738.5,-288 738.5,-288 738.5,-288 734.68,-286.82 739.57,-284.56 730.86,-285.63 730.86,-285.63"/>
<ellipse fill="none" stroke="black" cx="727.8" cy="-284.68" rx="3.2" ry="3.2"/>
</g>
<!-- syst_identities&#45;&gt;syst_access_accounts -->
<g id="edge5" class="edge">
<title>syst_identities:w&#45;&gt;syst_access_accounts:e</title>
<path fill="none" stroke="black" d="M478.6,-233C410.89,-254.78 538.68,-447 446,-447"/>
<polygon fill="black" stroke="black" points="485.08,-232.1 493.5,-234.57 489.04,-231.55 493,-231 493,-231 493,-231 489.04,-231.55 492.5,-227.43 485.08,-232.1 485.08,-232.1"/>
<ellipse fill="none" stroke="black" cx="481.91" cy="-232.54" rx="3.2" ry="3.2"/>
</g>
<!-- syst_identities&#45;&gt;syst_enum_items -->
<g id="edge6" class="edge">
<title>syst_identities:w&#45;&gt;syst_enum_items:e</title>
<path fill="none" stroke="black" d="M478.77,-211.5C418.95,-227.05 233.92,-310 203,-310"/>
<polygon fill="black" stroke="black" points="485.12,-210.38 493.62,-212.55 489.06,-209.69 493,-209 493,-209 493,-209 489.06,-209.69 492.38,-205.45 485.12,-210.38 485.12,-210.38"/>
<ellipse fill="none" stroke="black" cx="481.97" cy="-210.93" rx="3.2" ry="3.2"/>
</g>
</g>
</svg>
