<?xml version="1.0" encoding="UTF-8" standalone="no"?>
<!DOCTYPE svg PUBLIC "-//W3C//DTD SVG 1.1//EN"
 "http://www.w3.org/Graphics/SVG/1.1/DTD/svg11.dtd">
<!-- Generated by graphviz version 2.43.0 (0)
 -->
<!-- Title: oneDegreeRelationshipsDiagram Pages: 1 -->
<svg width="583pt" height="472pt"
 viewBox="0.00 0.00 583.00 472.00" xmlns="http://www.w3.org/2000/svg" xmlns:xlink="http://www.w3.org/1999/xlink">
<g id="graph0" class="graph" transform="scale(1 1) rotate(0) translate(4 468)">
<title>oneDegreeRelationshipsDiagram</title>
<polygon fill="#ffffff" stroke="transparent" points="-4,4 -4,-468 579,-468 579,4 -4,4"/>
<text text-anchor="middle" x="71.5" y="-7.2" font-family="Helvetica,sans-Serif" font-size="11.00">Generated by SchemaSpy</text>
<!-- syst_instance_contexts -->
<g id="node1" class="node">
<title>syst_instance_contexts</title>
<g id="a_node1"><a xlink:href="../../tables/syst_instance_contexts.html" xlink:title="syst_instance_contexts" target="_top">
<polygon fill="#ffffff" stroke="transparent" points="270,-37 270,-389 567,-389 567,-37 270,-37"/>
<polygon fill="#f5f5f5" stroke="transparent" points="272.5,-365 272.5,-387 565.5,-387 565.5,-365 272.5,-365"/>
<polygon fill="none" stroke="black" points="272.5,-365 272.5,-387 565.5,-387 565.5,-365 272.5,-365"/>
<text text-anchor="start" x="277.5" y="-374.2" font-family="Helvetica,sans-Serif" font-weight="bold" font-size="11.00">syst_instance_contexts</text>
<text text-anchor="start" x="530.5" y="-373.2" font-family="Helvetica,sans-Serif" font-size="11.00">[table]</text>
<polygon fill="none" stroke="black" points="272.5,-343 272.5,-365 466.5,-365 466.5,-343 272.5,-343"/>
<image xlink:href="../../images/primaryKeys.png" width="11px" height="12px" preserveAspectRatio="xMinYMin meet" x="277.5" y="-360"/>
<text text-anchor="start" x="292.5" y="-351.2" font-family="Helvetica,sans-Serif" font-size="11.00">id</text>
<polygon fill="none" stroke="black" points="466.5,-343 466.5,-365 565.5,-365 565.5,-343 466.5,-343"/>
<text text-anchor="start" x="469.5" y="-351.2" font-family="Helvetica,sans-Serif" font-size="11.00">uuid[2147483647]</text>
<polygon fill="#ffffff" stroke="transparent" points="272.5,-321 272.5,-343 466.5,-343 466.5,-321 272.5,-321"/>
<polygon fill="none" stroke="black" points="272.5,-321 272.5,-343 466.5,-343 466.5,-321 272.5,-321"/>
<text text-anchor="start" x="292.5" y="-329.2" font-family="Helvetica,sans-Serif" font-size="11.00">internal_name</text>
<polygon fill="none" stroke="black" points="466.5,-321 466.5,-343 565.5,-343 565.5,-321 466.5,-321"/>
<text text-anchor="start" x="469.5" y="-329.2" font-family="Helvetica,sans-Serif" font-size="11.00">text[2147483647]</text>
<polygon fill="none" stroke="black" points="272.5,-299 272.5,-321 466.5,-321 466.5,-299 272.5,-299"/>
<image xlink:href="../../images/foreignKeys.png" width="11px" height="12px" preserveAspectRatio="xMinYMin meet" x="277.5" y="-316"/>
<text text-anchor="start" x="292.5" y="-307.2" font-family="Helvetica,sans-Serif" font-size="11.00">instance_id</text>
<polygon fill="none" stroke="black" points="466.5,-299 466.5,-321 565.5,-321 565.5,-299 466.5,-299"/>
<text text-anchor="start" x="469.5" y="-307.2" font-family="Helvetica,sans-Serif" font-size="11.00">uuid[2147483647]</text>
<polygon fill="none" stroke="black" points="272.5,-277 272.5,-299 466.5,-299 466.5,-277 272.5,-277"/>
<image xlink:href="../../images/foreignKeys.png" width="11px" height="12px" preserveAspectRatio="xMinYMin meet" x="277.5" y="-294"/>
<text text-anchor="start" x="292.5" y="-285.2" font-family="Helvetica,sans-Serif" font-size="11.00">application_context_id</text>
<polygon fill="none" stroke="black" points="466.5,-277 466.5,-299 565.5,-299 565.5,-277 466.5,-277"/>
<text text-anchor="start" x="469.5" y="-285.2" font-family="Helvetica,sans-Serif" font-size="11.00">uuid[2147483647]</text>
<polygon fill="none" stroke="black" points="272.5,-255 272.5,-277 466.5,-277 466.5,-255 272.5,-255"/>
<text text-anchor="start" x="292.5" y="-263.2" font-family="Helvetica,sans-Serif" font-size="11.00">start_context</text>
<polygon fill="none" stroke="black" points="466.5,-255 466.5,-277 565.5,-277 565.5,-255 466.5,-255"/>
<text text-anchor="start" x="469.5" y="-263.2" font-family="Helvetica,sans-Serif" font-size="11.00">bool[1]</text>
<polygon fill="none" stroke="black" points="272.5,-233 272.5,-255 466.5,-255 466.5,-233 272.5,-233"/>
<text text-anchor="start" x="292.5" y="-241.2" font-family="Helvetica,sans-Serif" font-size="11.00">db_pool_size</text>
<polygon fill="none" stroke="black" points="466.5,-233 466.5,-255 565.5,-255 565.5,-233 466.5,-233"/>
<text text-anchor="start" x="469.5" y="-241.2" font-family="Helvetica,sans-Serif" font-size="11.00">int4[10]</text>
<polygon fill="none" stroke="black" points="272.5,-211 272.5,-233 466.5,-233 466.5,-211 272.5,-211"/>
<text text-anchor="start" x="292.5" y="-219.2" font-family="Helvetica,sans-Serif" font-size="11.00">context_code</text>
<polygon fill="none" stroke="black" points="466.5,-211 466.5,-233 565.5,-233 565.5,-211 466.5,-211"/>
<text text-anchor="start" x="469.5" y="-219.2" font-family="Helvetica,sans-Serif" font-size="11.00">bytea[2147483647]</text>
<polygon fill="none" stroke="black" points="272.5,-189 272.5,-211 466.5,-211 466.5,-189 272.5,-189"/>
<text text-anchor="start" x="292.5" y="-197.2" font-family="Helvetica,sans-Serif" font-size="11.00">diag_timestamp_created</text>
<polygon fill="none" stroke="black" points="466.5,-189 466.5,-211 565.5,-211 565.5,-189 466.5,-189"/>
<text text-anchor="start" x="469.5" y="-197.2" font-family="Helvetica,sans-Serif" font-size="11.00">timestamptz[35,6]</text>
<polygon fill="none" stroke="black" points="272.5,-167 272.5,-189 466.5,-189 466.5,-167 272.5,-167"/>
<text text-anchor="start" x="292.5" y="-175.2" font-family="Helvetica,sans-Serif" font-size="11.00">diag_role_created</text>
<polygon fill="none" stroke="black" points="466.5,-167 466.5,-189 565.5,-189 565.5,-167 466.5,-167"/>
<text text-anchor="start" x="469.5" y="-175.2" font-family="Helvetica,sans-Serif" font-size="11.00">text[2147483647]</text>
<polygon fill="none" stroke="black" points="272.5,-145 272.5,-167 466.5,-167 466.5,-145 272.5,-145"/>
<text text-anchor="start" x="292.5" y="-153.2" font-family="Helvetica,sans-Serif" font-size="11.00">diag_timestamp_modified</text>
<polygon fill="none" stroke="black" points="466.5,-145 466.5,-167 565.5,-167 565.5,-145 466.5,-145"/>
<text text-anchor="start" x="469.5" y="-153.2" font-family="Helvetica,sans-Serif" font-size="11.00">timestamptz[35,6]</text>
<polygon fill="none" stroke="black" points="272.5,-123 272.5,-145 466.5,-145 466.5,-123 272.5,-123"/>
<text text-anchor="start" x="292.5" y="-131.2" font-family="Helvetica,sans-Serif" font-size="11.00">diag_wallclock_modified</text>
<polygon fill="none" stroke="black" points="466.5,-123 466.5,-145 565.5,-145 565.5,-123 466.5,-123"/>
<text text-anchor="start" x="469.5" y="-131.2" font-family="Helvetica,sans-Serif" font-size="11.00">timestamptz[35,6]</text>
<polygon fill="none" stroke="black" points="272.5,-101 272.5,-123 466.5,-123 466.5,-101 272.5,-101"/>
<text text-anchor="start" x="292.5" y="-109.2" font-family="Helvetica,sans-Serif" font-size="11.00">diag_role_modified</text>
<polygon fill="none" stroke="black" points="466.5,-101 466.5,-123 565.5,-123 565.5,-101 466.5,-101"/>
<text text-anchor="start" x="469.5" y="-109.2" font-family="Helvetica,sans-Serif" font-size="11.00">text[2147483647]</text>
<polygon fill="none" stroke="black" points="272.5,-79 272.5,-101 466.5,-101 466.5,-79 272.5,-79"/>
<text text-anchor="start" x="292.5" y="-87.2" font-family="Helvetica,sans-Serif" font-size="11.00">diag_row_version</text>
<polygon fill="none" stroke="black" points="466.5,-79 466.5,-101 565.5,-101 565.5,-79 466.5,-79"/>
<text text-anchor="start" x="469.5" y="-87.2" font-family="Helvetica,sans-Serif" font-size="11.00">int8[19]</text>
<polygon fill="none" stroke="black" points="272.5,-57 272.5,-79 466.5,-79 466.5,-57 272.5,-57"/>
<text text-anchor="start" x="292.5" y="-65.2" font-family="Helvetica,sans-Serif" font-size="11.00">diag_update_count</text>
<polygon fill="none" stroke="black" points="466.5,-57 466.5,-79 565.5,-79 565.5,-57 466.5,-57"/>
<text text-anchor="start" x="469.5" y="-65.2" font-family="Helvetica,sans-Serif" font-size="11.00">int8[19]</text>
<polygon fill="#ffffff" stroke="transparent" points="272.5,-39 272.5,-57 373.5,-57 373.5,-39 272.5,-39"/>
<polygon fill="none" stroke="black" points="272.5,-39 272.5,-57 373.5,-57 373.5,-39 272.5,-39"/>
<text text-anchor="start" x="275.5" y="-45.2" font-family="Helvetica,sans-Serif" font-size="11.00">&lt; 2</text>
<polygon fill="#ffffff" stroke="transparent" points="373.5,-39 373.5,-57 466.5,-57 466.5,-39 373.5,-39"/>
<polygon fill="none" stroke="black" points="373.5,-39 373.5,-57 466.5,-57 466.5,-39 373.5,-39"/>
<text text-anchor="start" x="456.5" y="-45.2" font-family="Helvetica,sans-Serif" font-size="11.00"> &#160;</text>
<polygon fill="#ffffff" stroke="transparent" points="466.5,-39 466.5,-57 565.5,-57 565.5,-39 466.5,-39"/>
<polygon fill="none" stroke="black" points="466.5,-39 466.5,-57 565.5,-57 565.5,-39 466.5,-39"/>
<text text-anchor="start" x="546.5" y="-45.2" font-family="Helvetica,sans-Serif" font-size="11.00">0 &gt;</text>
<polygon fill="none" stroke="black" stroke-width="2" points="271,-38 271,-388 566,-388 566,-38 271,-38"/>
</a>
</g>
</g>
<!-- syst_application_contexts -->
<g id="node2" class="node">
<title>syst_application_contexts</title>
<g id="a_node2"><a xlink:href="../../tables/syst_application_contexts.html" xlink:title="syst_application_contexts" target="_top">
<polygon fill="#ffffff" stroke="transparent" points="8,-59 8,-205 221,-205 221,-59 8,-59"/>
<polygon fill="#f5f5f5" stroke="transparent" points="8.5,-183 8.5,-205 221.5,-205 221.5,-183 8.5,-183"/>
<polygon fill="none" stroke="black" points="8.5,-183 8.5,-205 221.5,-205 221.5,-183 8.5,-183"/>
<text text-anchor="start" x="13.5" y="-192.2" font-family="Helvetica,sans-Serif" font-weight="bold" font-size="11.00">syst_application_contexts</text>
<text text-anchor="start" x="186.5" y="-191.2" font-family="Helvetica,sans-Serif" font-size="11.00">[table]</text>
<polygon fill="none" stroke="black" points="8.5,-161 8.5,-183 221.5,-183 221.5,-161 8.5,-161"/>
<image xlink:href="../../images/primaryKeys.png" width="11px" height="12px" preserveAspectRatio="xMinYMin meet" x="13.5" y="-178"/>
<text text-anchor="start" x="38.5" y="-169.2" font-family="Helvetica,sans-Serif" font-size="11.00">id</text>
<polygon fill="#ffffff" stroke="transparent" points="8.5,-139 8.5,-161 221.5,-161 221.5,-139 8.5,-139"/>
<polygon fill="none" stroke="black" points="8.5,-139 8.5,-161 221.5,-161 221.5,-139 8.5,-139"/>
<text text-anchor="start" x="38.5" y="-147.2" font-family="Helvetica,sans-Serif" font-size="11.00">internal_name</text>
<polygon fill="#ffffff" stroke="transparent" points="8.5,-117 8.5,-139 221.5,-139 221.5,-117 8.5,-117"/>
<polygon fill="none" stroke="black" points="8.5,-117 8.5,-139 221.5,-139 221.5,-117 8.5,-117"/>
<text text-anchor="start" x="38.5" y="-125.2" font-family="Helvetica,sans-Serif" font-size="11.00">display_name</text>
<polygon fill="none" stroke="black" points="8.5,-95 8.5,-117 221.5,-117 221.5,-95 8.5,-95"/>
<image xlink:href="../../images/foreignKeys.png" width="11px" height="12px" preserveAspectRatio="xMinYMin meet" x="13.5" y="-112"/>
<text text-anchor="start" x="38.5" y="-103.2" font-family="Helvetica,sans-Serif" font-size="11.00">application_id</text>
<polygon fill="none" stroke="black" points="8.5,-77 8.5,-95 221.5,-95 221.5,-77 8.5,-77"/>
<text text-anchor="start" x="11.5" y="-83.2" font-family="Helvetica,sans-Serif" font-size="11.00">...</text>
<polygon fill="#ffffff" stroke="transparent" points="8.5,-59 8.5,-77 108.5,-77 108.5,-59 8.5,-59"/>
<polygon fill="none" stroke="black" points="8.5,-59 8.5,-77 108.5,-77 108.5,-59 8.5,-59"/>
<text text-anchor="start" x="11.5" y="-65.2" font-family="Helvetica,sans-Serif" font-size="11.00">&lt; 1</text>
<polygon fill="#ffffff" stroke="transparent" points="108.5,-59 108.5,-77 160.5,-77 160.5,-59 108.5,-59"/>
<polygon fill="none" stroke="black" points="108.5,-59 108.5,-77 160.5,-77 160.5,-59 108.5,-59"/>
<text text-anchor="start" x="150.5" y="-65.2" font-family="Helvetica,sans-Serif" font-size="11.00"> &#160;</text>
<polygon fill="#ffffff" stroke="transparent" points="160.5,-59 160.5,-77 221.5,-77 221.5,-59 160.5,-59"/>
<polygon fill="none" stroke="black" points="160.5,-59 160.5,-77 221.5,-77 221.5,-59 160.5,-59"/>
<text text-anchor="start" x="202.5" y="-65.2" font-family="Helvetica,sans-Serif" font-size="11.00">2 &gt;</text>
</a>
</g>
</g>
<!-- syst_instance_contexts&#45;&gt;syst_application_contexts -->
<g id="edge1" class="edge">
<title>syst_instance_contexts:w&#45;&gt;syst_application_contexts:e</title>
<path fill="none" stroke="black" d="M257.48,-284.4C227.49,-264.82 272.56,-172 222.5,-172"/>
<polygon fill="black" stroke="black" points="263.75,-286.01 270.6,-291.49 267.63,-287.01 271.5,-288 271.5,-288 271.5,-288 267.63,-287.01 272.4,-284.51 263.75,-286.01 263.75,-286.01"/>
<ellipse fill="none" stroke="black" cx="260.65" cy="-285.22" rx="3.2" ry="3.2"/>
</g>
<!-- syst_instances -->
<g id="node3" class="node">
<title>syst_instances</title>
<g id="a_node3"><a xlink:href="../../tables/syst_instances.html" xlink:title="syst_instances" target="_top">
<polygon fill="#ffffff" stroke="transparent" points="17.5,-226 17.5,-460 211.5,-460 211.5,-226 17.5,-226"/>
<polygon fill="#f5f5f5" stroke="transparent" points="17.5,-438 17.5,-460 211.5,-460 211.5,-438 17.5,-438"/>
<polygon fill="none" stroke="black" points="17.5,-438 17.5,-460 211.5,-460 211.5,-438 17.5,-438"/>
<text text-anchor="start" x="22.5" y="-447.2" font-family="Helvetica,sans-Serif" font-weight="bold" font-size="11.00">syst_instances</text>
<text text-anchor="start" x="176.5" y="-446.2" font-family="Helvetica,sans-Serif" font-size="11.00">[table]</text>
<polygon fill="none" stroke="black" points="17.5,-416 17.5,-438 211.5,-438 211.5,-416 17.5,-416"/>
<image xlink:href="../../images/primaryKeys.png" width="11px" height="12px" preserveAspectRatio="xMinYMin meet" x="22.5" y="-433"/>
<text text-anchor="start" x="37.5" y="-424.2" font-family="Helvetica,sans-Serif" font-size="11.00">id</text>
<polygon fill="#ffffff" stroke="transparent" points="17.5,-394 17.5,-416 211.5,-416 211.5,-394 17.5,-394"/>
<polygon fill="none" stroke="black" points="17.5,-394 17.5,-416 211.5,-416 211.5,-394 17.5,-394"/>
<text text-anchor="start" x="37.5" y="-402.2" font-family="Helvetica,sans-Serif" font-size="11.00">internal_name</text>
<polygon fill="#ffffff" stroke="transparent" points="17.5,-372 17.5,-394 211.5,-394 211.5,-372 17.5,-372"/>
<polygon fill="none" stroke="black" points="17.5,-372 17.5,-394 211.5,-394 211.5,-372 17.5,-372"/>
<text text-anchor="start" x="37.5" y="-380.2" font-family="Helvetica,sans-Serif" font-size="11.00">display_name</text>
<polygon fill="none" stroke="black" points="17.5,-350 17.5,-372 211.5,-372 211.5,-350 17.5,-350"/>
<image xlink:href="../../images/foreignKeys.png" width="11px" height="12px" preserveAspectRatio="xMinYMin meet" x="22.5" y="-367"/>
<text text-anchor="start" x="37.5" y="-358.2" font-family="Helvetica,sans-Serif" font-size="11.00">application_id</text>
<polygon fill="none" stroke="black" points="17.5,-328 17.5,-350 211.5,-350 211.5,-328 17.5,-328"/>
<image xlink:href="../../images/foreignKeys.png" width="11px" height="12px" preserveAspectRatio="xMinYMin meet" x="22.5" y="-345"/>
<text text-anchor="start" x="37.5" y="-336.2" font-family="Helvetica,sans-Serif" font-size="11.00">instance_type_id</text>
<polygon fill="none" stroke="black" points="17.5,-306 17.5,-328 211.5,-328 211.5,-306 17.5,-306"/>
<image xlink:href="../../images/foreignKeys.png" width="11px" height="12px" preserveAspectRatio="xMinYMin meet" x="22.5" y="-323"/>
<text text-anchor="start" x="37.5" y="-314.2" font-family="Helvetica,sans-Serif" font-size="11.00">instance_state_id</text>
<polygon fill="none" stroke="black" points="17.5,-284 17.5,-306 211.5,-306 211.5,-284 17.5,-284"/>
<image xlink:href="../../images/foreignKeys.png" width="11px" height="12px" preserveAspectRatio="xMinYMin meet" x="22.5" y="-301"/>
<text text-anchor="start" x="37.5" y="-292.2" font-family="Helvetica,sans-Serif" font-size="11.00">owner_id</text>
<polygon fill="none" stroke="black" points="17.5,-262 17.5,-284 211.5,-284 211.5,-262 17.5,-262"/>
<image xlink:href="../../images/foreignKeys.png" width="11px" height="12px" preserveAspectRatio="xMinYMin meet" x="22.5" y="-279"/>
<text text-anchor="start" x="37.5" y="-270.2" font-family="Helvetica,sans-Serif" font-size="11.00">owning_instance_id</text>
<polygon fill="none" stroke="black" points="17.5,-244 17.5,-262 211.5,-262 211.5,-244 17.5,-244"/>
<text text-anchor="start" x="20.5" y="-250.2" font-family="Helvetica,sans-Serif" font-size="11.00">...</text>
<polygon fill="#ffffff" stroke="transparent" points="17.5,-226 17.5,-244 107.5,-244 107.5,-226 17.5,-226"/>
<polygon fill="none" stroke="black" points="17.5,-226 17.5,-244 107.5,-244 107.5,-226 17.5,-226"/>
<text text-anchor="start" x="20.5" y="-232.2" font-family="Helvetica,sans-Serif" font-size="11.00">&lt; 5</text>
<polygon fill="#ffffff" stroke="transparent" points="107.5,-226 107.5,-244 154.5,-244 154.5,-226 107.5,-226"/>
<polygon fill="none" stroke="black" points="107.5,-226 107.5,-244 154.5,-244 154.5,-226 107.5,-226"/>
<text text-anchor="start" x="144.5" y="-232.2" font-family="Helvetica,sans-Serif" font-size="11.00"> &#160;</text>
<polygon fill="#ffffff" stroke="transparent" points="154.5,-226 154.5,-244 211.5,-244 211.5,-226 154.5,-226"/>
<polygon fill="none" stroke="black" points="154.5,-226 154.5,-244 211.5,-244 211.5,-226 154.5,-226"/>
<text text-anchor="start" x="192.5" y="-232.2" font-family="Helvetica,sans-Serif" font-size="11.00">4 &gt;</text>
</a>
</g>
</g>
<!-- syst_instance_contexts&#45;&gt;syst_instances -->
<g id="edge2" class="edge">
<title>syst_instance_contexts:w&#45;&gt;syst_instances:e</title>
<path fill="none" stroke="black" d="M257.09,-313.38C223.74,-332.56 264.82,-427 212.5,-427"/>
<polygon fill="black" stroke="black" points="263.71,-311.83 272.32,-313.51 267.61,-310.91 271.5,-310 271.5,-310 271.5,-310 267.61,-310.91 270.68,-306.49 263.71,-311.83 263.71,-311.83"/>
<ellipse fill="none" stroke="black" cx="260.6" cy="-312.56" rx="3.2" ry="3.2"/>
</g>
</g>
</svg>
