<?xml version="1.0" encoding="UTF-8" standalone="no"?>
<!DOCTYPE svg PUBLIC "-//W3C//DTD SVG 1.1//EN"
 "http://www.w3.org/Graphics/SVG/1.1/DTD/svg11.dtd">
<!-- Generated by graphviz version 2.43.0 (0)
 -->
<!-- Title: twoDegreesRelationshipsDiagram Pages: 1 -->
<svg width="850pt" height="502pt"
 viewBox="0.00 0.00 850.00 502.00" xmlns="http://www.w3.org/2000/svg" xmlns:xlink="http://www.w3.org/1999/xlink">
<g id="graph0" class="graph" transform="scale(1 1) rotate(0) translate(4 498)">
<title>twoDegreesRelationshipsDiagram</title>
<polygon fill="#ffffff" stroke="transparent" points="-4,4 -4,-498 846,-498 846,4 -4,4"/>
<text text-anchor="middle" x="71.5" y="-7.2" font-family="Helvetica,sans-Serif" font-size="11.00">Generated by SchemaSpy</text>
<!-- syst_access_account_perm_role_assigns -->
<g id="node1" class="node">
<title>syst_access_account_perm_role_assigns</title>
<g id="a_node1"><a xlink:href="../../tables/syst_access_account_perm_role_assigns.html" xlink:title="syst_access_account_perm_role_assigns" target="_top">
<polygon fill="#ffffff" stroke="transparent" points="526,-430 526,-488 834,-488 834,-430 526,-430"/>
<polygon fill="#f5f5f5" stroke="transparent" points="526,-466 526,-488 834,-488 834,-466 526,-466"/>
<polygon fill="none" stroke="black" points="526,-466 526,-488 834,-488 834,-466 526,-466"/>
<text text-anchor="start" x="531" y="-475.2" font-family="Helvetica,sans-Serif" font-weight="bold" font-size="11.00">syst_access_account_perm_role_assigns</text>
<text text-anchor="start" x="799" y="-474.2" font-family="Helvetica,sans-Serif" font-size="11.00">[table]</text>
<polygon fill="none" stroke="black" points="526,-448 526,-466 834,-466 834,-448 526,-448"/>
<text text-anchor="start" x="529" y="-454.2" font-family="Helvetica,sans-Serif" font-size="11.00">...</text>
<polygon fill="#ffffff" stroke="transparent" points="526,-430 526,-448 678,-448 678,-430 526,-430"/>
<polygon fill="none" stroke="black" points="526,-430 526,-448 678,-448 678,-430 526,-430"/>
<text text-anchor="start" x="529" y="-436.2" font-family="Helvetica,sans-Serif" font-size="11.00">&lt; 2</text>
<polygon fill="#ffffff" stroke="transparent" points="678,-430 678,-448 756,-448 756,-430 678,-430"/>
<polygon fill="none" stroke="black" points="678,-430 678,-448 756,-448 756,-430 678,-430"/>
<text text-anchor="start" x="746" y="-436.2" font-family="Helvetica,sans-Serif" font-size="11.00"> &#160;</text>
<polygon fill="#ffffff" stroke="transparent" points="756,-430 756,-448 834,-448 834,-430 756,-430"/>
<polygon fill="none" stroke="black" points="756,-430 756,-448 834,-448 834,-430 756,-430"/>
<text text-anchor="start" x="824" y="-436.2" font-family="Helvetica,sans-Serif" font-size="11.00"> &#160;</text>
</a>
</g>
</g>
<!-- syst_perm_roles -->
<g id="node2" class="node">
<title>syst_perm_roles</title>
<g id="a_node2"><a xlink:href="../../tables/syst_perm_roles.html" xlink:title="syst_perm_roles" target="_top">
<polygon fill="#ffffff" stroke="transparent" points="283,-344 283,-490 477,-490 477,-344 283,-344"/>
<polygon fill="#f5f5f5" stroke="transparent" points="283,-468 283,-490 477,-490 477,-468 283,-468"/>
<polygon fill="none" stroke="black" points="283,-468 283,-490 477,-490 477,-468 283,-468"/>
<text text-anchor="start" x="288" y="-477.2" font-family="Helvetica,sans-Serif" font-weight="bold" font-size="11.00">syst_perm_roles</text>
<text text-anchor="start" x="442" y="-476.2" font-family="Helvetica,sans-Serif" font-size="11.00">[table]</text>
<polygon fill="none" stroke="black" points="283,-446 283,-468 477,-468 477,-446 283,-446"/>
<image xlink:href="../../images/primaryKeys.png" width="11px" height="12px" preserveAspectRatio="xMinYMin meet" x="288" y="-463"/>
<text text-anchor="start" x="303" y="-454.2" font-family="Helvetica,sans-Serif" font-size="11.00">id</text>
<polygon fill="#ffffff" stroke="transparent" points="283,-424 283,-446 477,-446 477,-424 283,-424"/>
<polygon fill="none" stroke="black" points="283,-424 283,-446 477,-446 477,-424 283,-424"/>
<text text-anchor="start" x="303" y="-432.2" font-family="Helvetica,sans-Serif" font-size="11.00">internal_name</text>
<polygon fill="#ffffff" stroke="transparent" points="283,-402 283,-424 477,-424 477,-402 283,-402"/>
<polygon fill="none" stroke="black" points="283,-402 283,-424 477,-424 477,-402 283,-402"/>
<text text-anchor="start" x="303" y="-410.2" font-family="Helvetica,sans-Serif" font-size="11.00">display_name</text>
<polygon fill="none" stroke="black" points="283,-380 283,-402 477,-402 477,-380 283,-380"/>
<image xlink:href="../../images/foreignKeys.png" width="11px" height="12px" preserveAspectRatio="xMinYMin meet" x="288" y="-397"/>
<text text-anchor="start" x="303" y="-388.2" font-family="Helvetica,sans-Serif" font-size="11.00">perm_functional_type_id</text>
<polygon fill="none" stroke="black" points="283,-362 283,-380 477,-380 477,-362 283,-362"/>
<text text-anchor="start" x="286" y="-368.2" font-family="Helvetica,sans-Serif" font-size="11.00">...</text>
<polygon fill="#ffffff" stroke="transparent" points="283,-344 283,-362 373,-362 373,-344 283,-344"/>
<polygon fill="none" stroke="black" points="283,-344 283,-362 373,-362 373,-344 283,-344"/>
<text text-anchor="start" x="286" y="-350.2" font-family="Helvetica,sans-Serif" font-size="11.00">&lt; 1</text>
<polygon fill="#ffffff" stroke="transparent" points="373,-344 373,-362 420,-362 420,-344 373,-344"/>
<polygon fill="none" stroke="black" points="373,-344 373,-362 420,-362 420,-344 373,-344"/>
<text text-anchor="start" x="410" y="-350.2" font-family="Helvetica,sans-Serif" font-size="11.00"> &#160;</text>
<polygon fill="#ffffff" stroke="transparent" points="420,-344 420,-362 477,-362 477,-344 420,-344"/>
<polygon fill="none" stroke="black" points="420,-344 420,-362 477,-362 477,-344 420,-344"/>
<text text-anchor="start" x="458" y="-350.2" font-family="Helvetica,sans-Serif" font-size="11.00">2 &gt;</text>
</a>
</g>
</g>
<!-- syst_access_account_perm_role_assigns&#45;&gt;syst_perm_roles -->
<g id="edge1" class="edge">
<title>syst_access_account_perm_role_assigns:w&#45;&gt;syst_perm_roles:e</title>
<path fill="none" stroke="black" d="M510.4,-457C499.93,-457 493.01,-457 478,-457"/>
<polygon fill="black" stroke="black" points="517,-457 525,-460.6 521,-457 525,-457 525,-457 525,-457 521,-457 525,-453.4 517,-457 517,-457"/>
<ellipse fill="none" stroke="black" cx="513.8" cy="-457" rx="3.2" ry="3.2"/>
</g>
<!-- syst_perm_functional_types -->
<g id="node5" class="node">
<title>syst_perm_functional_types</title>
<g id="a_node5"><a xlink:href="../../tables/syst_perm_functional_types.html" xlink:title="syst_perm_functional_types" target="_top">
<polygon fill="#ffffff" stroke="transparent" points="8,-280 8,-338 234,-338 234,-280 8,-280"/>
<polygon fill="#f5f5f5" stroke="transparent" points="8,-316 8,-338 234,-338 234,-316 8,-316"/>
<polygon fill="none" stroke="black" points="8,-316 8,-338 234,-338 234,-316 8,-316"/>
<text text-anchor="start" x="13" y="-325.2" font-family="Helvetica,sans-Serif" font-weight="bold" font-size="11.00">syst_perm_functional_types</text>
<text text-anchor="start" x="199" y="-324.2" font-family="Helvetica,sans-Serif" font-size="11.00">[table]</text>
<polygon fill="none" stroke="black" points="8,-298 8,-316 234,-316 234,-298 8,-298"/>
<text text-anchor="start" x="11" y="-304.2" font-family="Helvetica,sans-Serif" font-size="11.00">...</text>
<polygon fill="#ffffff" stroke="transparent" points="8,-280 8,-298 110,-298 110,-280 8,-280"/>
<polygon fill="none" stroke="black" points="8,-280 8,-298 110,-298 110,-280 8,-280"/>
<text text-anchor="start" x="11" y="-286.2" font-family="Helvetica,sans-Serif" font-size="11.00"> &#160;</text>
<polygon fill="#ffffff" stroke="transparent" points="110,-280 110,-298 167,-298 167,-280 110,-280"/>
<polygon fill="none" stroke="black" points="110,-280 110,-298 167,-298 167,-280 110,-280"/>
<text text-anchor="start" x="157" y="-286.2" font-family="Helvetica,sans-Serif" font-size="11.00"> &#160;</text>
<polygon fill="#ffffff" stroke="transparent" points="167,-280 167,-298 234,-298 234,-280 167,-280"/>
<polygon fill="none" stroke="black" points="167,-280 167,-298 234,-298 234,-280 167,-280"/>
<text text-anchor="start" x="215" y="-286.2" font-family="Helvetica,sans-Serif" font-size="11.00">2 &gt;</text>
</a>
</g>
</g>
<!-- syst_perm_roles&#45;&gt;syst_perm_functional_types -->
<g id="edge4" class="edge">
<title>syst_perm_roles:w&#45;&gt;syst_perm_functional_types:e</title>
<path fill="none" stroke="black" d="M268.33,-386.48C248.46,-369.04 271.76,-307 235,-307"/>
<polygon fill="black" stroke="black" points="274.4,-388.49 280.87,-394.42 278.2,-389.75 282,-391 282,-391 282,-391 278.2,-389.75 283.13,-387.58 274.4,-388.49 274.4,-388.49"/>
<ellipse fill="none" stroke="black" cx="271.36" cy="-387.49" rx="3.2" ry="3.2"/>
</g>
<!-- syst_perm_role_grants -->
<g id="node3" class="node">
<title>syst_perm_role_grants</title>
<g id="a_node3"><a xlink:href="../../tables/syst_perm_role_grants.html" xlink:title="syst_perm_role_grants" target="_top">
<polygon fill="#ffffff" stroke="transparent" points="534.5,-37 534.5,-389 825.5,-389 825.5,-37 534.5,-37"/>
<polygon fill="#f5f5f5" stroke="transparent" points="537,-365 537,-387 824,-387 824,-365 537,-365"/>
<polygon fill="none" stroke="black" points="537,-365 537,-387 824,-387 824,-365 537,-365"/>
<text text-anchor="start" x="542" y="-374.2" font-family="Helvetica,sans-Serif" font-weight="bold" font-size="11.00">syst_perm_role_grants</text>
<text text-anchor="start" x="789" y="-373.2" font-family="Helvetica,sans-Serif" font-size="11.00">[table]</text>
<polygon fill="none" stroke="black" points="537,-343 537,-365 731,-365 731,-343 537,-343"/>
<image xlink:href="../../images/primaryKeys.png" width="11px" height="12px" preserveAspectRatio="xMinYMin meet" x="542" y="-360"/>
<text text-anchor="start" x="557" y="-351.2" font-family="Helvetica,sans-Serif" font-size="11.00">id</text>
<polygon fill="none" stroke="black" points="731,-343 731,-365 824,-365 824,-343 731,-343"/>
<text text-anchor="start" x="734" y="-351.2" font-family="Helvetica,sans-Serif" font-size="11.00">uuid[2147483647]</text>
<polygon fill="#ffffff" stroke="transparent" points="537,-321 537,-343 731,-343 731,-321 537,-321"/>
<polygon fill="none" stroke="black" points="537,-321 537,-343 731,-343 731,-321 537,-321"/>
<image xlink:href="../../images/foreignKeys.png" width="11px" height="12px" preserveAspectRatio="xMinYMin meet" x="542" y="-338"/>
<text text-anchor="start" x="557" y="-329.2" font-family="Helvetica,sans-Serif" font-size="11.00">perm_role_id</text>
<polygon fill="none" stroke="black" points="731,-321 731,-343 824,-343 824,-321 731,-321"/>
<text text-anchor="start" x="734" y="-329.2" font-family="Helvetica,sans-Serif" font-size="11.00">uuid[2147483647]</text>
<polygon fill="#ffffff" stroke="transparent" points="537,-299 537,-321 731,-321 731,-299 537,-299"/>
<polygon fill="none" stroke="black" points="537,-299 537,-321 731,-321 731,-299 537,-299"/>
<image xlink:href="../../images/foreignKeys.png" width="11px" height="12px" preserveAspectRatio="xMinYMin meet" x="542" y="-316"/>
<text text-anchor="start" x="557" y="-307.2" font-family="Helvetica,sans-Serif" font-size="11.00">perm_id</text>
<polygon fill="none" stroke="black" points="731,-299 731,-321 824,-321 824,-299 731,-299"/>
<text text-anchor="start" x="734" y="-307.2" font-family="Helvetica,sans-Serif" font-size="11.00">uuid[2147483647]</text>
<polygon fill="none" stroke="black" points="537,-277 537,-299 731,-299 731,-277 537,-277"/>
<text text-anchor="start" x="557" y="-285.2" font-family="Helvetica,sans-Serif" font-size="11.00">view_scope</text>
<polygon fill="none" stroke="black" points="731,-277 731,-299 824,-299 824,-277 731,-277"/>
<text text-anchor="start" x="734" y="-285.2" font-family="Helvetica,sans-Serif" font-size="11.00">text[2147483647]</text>
<polygon fill="none" stroke="black" points="537,-255 537,-277 731,-277 731,-255 537,-255"/>
<text text-anchor="start" x="557" y="-263.2" font-family="Helvetica,sans-Serif" font-size="11.00">maint_scope</text>
<polygon fill="none" stroke="black" points="731,-255 731,-277 824,-277 824,-255 731,-255"/>
<text text-anchor="start" x="734" y="-263.2" font-family="Helvetica,sans-Serif" font-size="11.00">text[2147483647]</text>
<polygon fill="none" stroke="black" points="537,-233 537,-255 731,-255 731,-233 537,-233"/>
<text text-anchor="start" x="557" y="-241.2" font-family="Helvetica,sans-Serif" font-size="11.00">admin_scope</text>
<polygon fill="none" stroke="black" points="731,-233 731,-255 824,-255 824,-233 731,-233"/>
<text text-anchor="start" x="734" y="-241.2" font-family="Helvetica,sans-Serif" font-size="11.00">text[2147483647]</text>
<polygon fill="none" stroke="black" points="537,-211 537,-233 731,-233 731,-211 537,-211"/>
<text text-anchor="start" x="557" y="-219.2" font-family="Helvetica,sans-Serif" font-size="11.00">ops_scope</text>
<polygon fill="none" stroke="black" points="731,-211 731,-233 824,-233 824,-211 731,-211"/>
<text text-anchor="start" x="734" y="-219.2" font-family="Helvetica,sans-Serif" font-size="11.00">text[2147483647]</text>
<polygon fill="none" stroke="black" points="537,-189 537,-211 731,-211 731,-189 537,-189"/>
<text text-anchor="start" x="557" y="-197.2" font-family="Helvetica,sans-Serif" font-size="11.00">diag_timestamp_created</text>
<polygon fill="none" stroke="black" points="731,-189 731,-211 824,-211 824,-189 731,-189"/>
<text text-anchor="start" x="734" y="-197.2" font-family="Helvetica,sans-Serif" font-size="11.00">timestamptz[35,6]</text>
<polygon fill="none" stroke="black" points="537,-167 537,-189 731,-189 731,-167 537,-167"/>
<text text-anchor="start" x="557" y="-175.2" font-family="Helvetica,sans-Serif" font-size="11.00">diag_role_created</text>
<polygon fill="none" stroke="black" points="731,-167 731,-189 824,-189 824,-167 731,-167"/>
<text text-anchor="start" x="734" y="-175.2" font-family="Helvetica,sans-Serif" font-size="11.00">text[2147483647]</text>
<polygon fill="none" stroke="black" points="537,-145 537,-167 731,-167 731,-145 537,-145"/>
<text text-anchor="start" x="557" y="-153.2" font-family="Helvetica,sans-Serif" font-size="11.00">diag_timestamp_modified</text>
<polygon fill="none" stroke="black" points="731,-145 731,-167 824,-167 824,-145 731,-145"/>
<text text-anchor="start" x="734" y="-153.2" font-family="Helvetica,sans-Serif" font-size="11.00">timestamptz[35,6]</text>
<polygon fill="none" stroke="black" points="537,-123 537,-145 731,-145 731,-123 537,-123"/>
<text text-anchor="start" x="557" y="-131.2" font-family="Helvetica,sans-Serif" font-size="11.00">diag_wallclock_modified</text>
<polygon fill="none" stroke="black" points="731,-123 731,-145 824,-145 824,-123 731,-123"/>
<text text-anchor="start" x="734" y="-131.2" font-family="Helvetica,sans-Serif" font-size="11.00">timestamptz[35,6]</text>
<polygon fill="none" stroke="black" points="537,-101 537,-123 731,-123 731,-101 537,-101"/>
<text text-anchor="start" x="557" y="-109.2" font-family="Helvetica,sans-Serif" font-size="11.00">diag_role_modified</text>
<polygon fill="none" stroke="black" points="731,-101 731,-123 824,-123 824,-101 731,-101"/>
<text text-anchor="start" x="734" y="-109.2" font-family="Helvetica,sans-Serif" font-size="11.00">text[2147483647]</text>
<polygon fill="none" stroke="black" points="537,-79 537,-101 731,-101 731,-79 537,-79"/>
<text text-anchor="start" x="557" y="-87.2" font-family="Helvetica,sans-Serif" font-size="11.00">diag_row_version</text>
<polygon fill="none" stroke="black" points="731,-79 731,-101 824,-101 824,-79 731,-79"/>
<text text-anchor="start" x="734" y="-87.2" font-family="Helvetica,sans-Serif" font-size="11.00">int8[19]</text>
<polygon fill="none" stroke="black" points="537,-57 537,-79 731,-79 731,-57 537,-57"/>
<text text-anchor="start" x="557" y="-65.2" font-family="Helvetica,sans-Serif" font-size="11.00">diag_update_count</text>
<polygon fill="none" stroke="black" points="731,-57 731,-79 824,-79 824,-57 731,-57"/>
<text text-anchor="start" x="734" y="-65.2" font-family="Helvetica,sans-Serif" font-size="11.00">int8[19]</text>
<polygon fill="#ffffff" stroke="transparent" points="537,-39 537,-57 638,-57 638,-39 537,-39"/>
<polygon fill="none" stroke="black" points="537,-39 537,-57 638,-57 638,-39 537,-39"/>
<text text-anchor="start" x="540" y="-45.2" font-family="Helvetica,sans-Serif" font-size="11.00">&lt; 2</text>
<polygon fill="#ffffff" stroke="transparent" points="638,-39 638,-57 731,-57 731,-39 638,-39"/>
<polygon fill="none" stroke="black" points="638,-39 638,-57 731,-57 731,-39 638,-39"/>
<text text-anchor="start" x="721" y="-45.2" font-family="Helvetica,sans-Serif" font-size="11.00"> &#160;</text>
<polygon fill="#ffffff" stroke="transparent" points="731,-39 731,-57 824,-57 824,-39 731,-39"/>
<polygon fill="none" stroke="black" points="731,-39 731,-57 824,-57 824,-39 731,-39"/>
<text text-anchor="start" x="805" y="-45.2" font-family="Helvetica,sans-Serif" font-size="11.00">0 &gt;</text>
<polygon fill="none" stroke="black" stroke-width="2" points="535.5,-38 535.5,-388 824.5,-388 824.5,-38 535.5,-38"/>
</a>
</g>
</g>
<!-- syst_perm_role_grants&#45;&gt;syst_perm_roles -->
<g id="edge3" class="edge">
<title>syst_perm_role_grants:w&#45;&gt;syst_perm_roles:e</title>
<path fill="none" stroke="black" d="M521.88,-335.09C485.74,-354.34 533.5,-457 478,-457"/>
<polygon fill="black" stroke="black" points="528.19,-333.71 536.77,-335.52 532.09,-332.86 536,-332 536,-332 536,-332 532.09,-332.86 535.23,-328.48 528.19,-333.71 528.19,-333.71"/>
<ellipse fill="none" stroke="black" cx="525.06" cy="-334.39" rx="3.2" ry="3.2"/>
</g>
<!-- syst_perms -->
<g id="node4" class="node">
<title>syst_perms</title>
<g id="a_node4"><a xlink:href="../../tables/syst_perms.html" xlink:title="syst_perms" target="_top">
<polygon fill="#ffffff" stroke="transparent" points="283,-177 283,-323 477,-323 477,-177 283,-177"/>
<polygon fill="#f5f5f5" stroke="transparent" points="283,-301 283,-323 477,-323 477,-301 283,-301"/>
<polygon fill="none" stroke="black" points="283,-301 283,-323 477,-323 477,-301 283,-301"/>
<text text-anchor="start" x="288" y="-310.2" font-family="Helvetica,sans-Serif" font-weight="bold" font-size="11.00">syst_perms</text>
<text text-anchor="start" x="442" y="-309.2" font-family="Helvetica,sans-Serif" font-size="11.00">[table]</text>
<polygon fill="none" stroke="black" points="283,-279 283,-301 477,-301 477,-279 283,-279"/>
<image xlink:href="../../images/primaryKeys.png" width="11px" height="12px" preserveAspectRatio="xMinYMin meet" x="288" y="-296"/>
<text text-anchor="start" x="303" y="-287.2" font-family="Helvetica,sans-Serif" font-size="11.00">id</text>
<polygon fill="#ffffff" stroke="transparent" points="283,-257 283,-279 477,-279 477,-257 283,-257"/>
<polygon fill="none" stroke="black" points="283,-257 283,-279 477,-279 477,-257 283,-257"/>
<text text-anchor="start" x="303" y="-265.2" font-family="Helvetica,sans-Serif" font-size="11.00">internal_name</text>
<polygon fill="#ffffff" stroke="transparent" points="283,-235 283,-257 477,-257 477,-235 283,-235"/>
<polygon fill="none" stroke="black" points="283,-235 283,-257 477,-257 477,-235 283,-235"/>
<text text-anchor="start" x="303" y="-243.2" font-family="Helvetica,sans-Serif" font-size="11.00">display_name</text>
<polygon fill="none" stroke="black" points="283,-213 283,-235 477,-235 477,-213 283,-213"/>
<image xlink:href="../../images/foreignKeys.png" width="11px" height="12px" preserveAspectRatio="xMinYMin meet" x="288" y="-230"/>
<text text-anchor="start" x="303" y="-221.2" font-family="Helvetica,sans-Serif" font-size="11.00">perm_functional_type_id</text>
<polygon fill="none" stroke="black" points="283,-195 283,-213 477,-213 477,-195 283,-195"/>
<text text-anchor="start" x="286" y="-201.2" font-family="Helvetica,sans-Serif" font-size="11.00">...</text>
<polygon fill="#ffffff" stroke="transparent" points="283,-177 283,-195 373,-195 373,-177 283,-177"/>
<polygon fill="none" stroke="black" points="283,-177 283,-195 373,-195 373,-177 283,-177"/>
<text text-anchor="start" x="286" y="-183.2" font-family="Helvetica,sans-Serif" font-size="11.00">&lt; 1</text>
<polygon fill="#ffffff" stroke="transparent" points="373,-177 373,-195 420,-195 420,-177 373,-177"/>
<polygon fill="none" stroke="black" points="373,-177 373,-195 420,-195 420,-177 373,-177"/>
<text text-anchor="start" x="410" y="-183.2" font-family="Helvetica,sans-Serif" font-size="11.00"> &#160;</text>
<polygon fill="#ffffff" stroke="transparent" points="420,-177 420,-195 477,-195 477,-177 420,-177"/>
<polygon fill="none" stroke="black" points="420,-177 420,-195 477,-195 477,-177 420,-177"/>
<text text-anchor="start" x="458" y="-183.2" font-family="Helvetica,sans-Serif" font-size="11.00">1 &gt;</text>
</a>
</g>
</g>
<!-- syst_perm_role_grants&#45;&gt;syst_perms -->
<g id="edge2" class="edge">
<title>syst_perm_role_grants:w&#45;&gt;syst_perms:e</title>
<path fill="none" stroke="black" d="M521.48,-307.71C506.21,-302.45 499.52,-290 478,-290"/>
<polygon fill="black" stroke="black" points="528.1,-308.75 535.44,-313.56 532.05,-309.38 536,-310 536,-310 536,-310 532.05,-309.38 536.56,-306.44 528.1,-308.75 528.1,-308.75"/>
<ellipse fill="none" stroke="black" cx="524.94" cy="-308.25" rx="3.2" ry="3.2"/>
</g>
<!-- syst_perms&#45;&gt;syst_perm_functional_types -->
<g id="edge5" class="edge">
<title>syst_perms:w&#45;&gt;syst_perm_functional_types:e</title>
<path fill="none" stroke="black" d="M268.16,-228.7C248.85,-246.26 271.27,-307 235,-307"/>
<polygon fill="black" stroke="black" points="274.42,-226.57 283.16,-227.41 278.21,-225.29 282,-224 282,-224 282,-224 278.21,-225.29 280.84,-220.59 274.42,-226.57 274.42,-226.57"/>
<ellipse fill="none" stroke="black" cx="271.39" cy="-227.6" rx="3.2" ry="3.2"/>
</g>
</g>
</svg>
