<?xml version="1.0" encoding="UTF-8" standalone="no"?>
<!DOCTYPE svg PUBLIC "-//W3C//DTD SVG 1.1//EN"
 "http://www.w3.org/Graphics/SVG/1.1/DTD/svg11.dtd">
<!-- Generated by graphviz version 2.43.0 (0)
 -->
<!-- Title: twoDegreesRelationshipsDiagram Pages: 1 -->
<svg width="1330pt" height="697pt"
 viewBox="0.00 0.00 1330.00 696.60" xmlns="http://www.w3.org/2000/svg" xmlns:xlink="http://www.w3.org/1999/xlink">
<g id="graph0" class="graph" transform="scale(1 1) rotate(0) translate(4 692.6)">
<title>twoDegreesRelationshipsDiagram</title>
<polygon fill="#ffffff" stroke="transparent" points="-4,4 -4,-692.6 1326,-692.6 1326,4 -4,4"/>
<text text-anchor="middle" x="71.5" y="-7.2" font-family="Helvetica,sans-Serif" font-size="11.00">Generated by SchemaSpy</text>
<!-- syst_access_account_instance_assocs -->
<g id="node1" class="node">
<title>syst_access_account_instance_assocs</title>
<g id="a_node1"><a xlink:href="../../tables/syst_access_account_instance_assocs.html" xlink:title="syst_access_account_instance_assocs" target="_top">
<polygon fill="#ffffff" stroke="transparent" points="777,-507 777,-565 1069,-565 1069,-507 777,-507"/>
<polygon fill="#f5f5f5" stroke="transparent" points="777,-543 777,-565 1069,-565 1069,-543 777,-543"/>
<polygon fill="none" stroke="black" points="777,-543 777,-565 1069,-565 1069,-543 777,-543"/>
<text text-anchor="start" x="782" y="-552.2" font-family="Helvetica,sans-Serif" font-weight="bold" font-size="11.00">syst_access_account_instance_assocs</text>
<text text-anchor="start" x="1034" y="-551.2" font-family="Helvetica,sans-Serif" font-size="11.00">[table]</text>
<polygon fill="none" stroke="black" points="777,-525 777,-543 1069,-543 1069,-525 777,-525"/>
<text text-anchor="start" x="780" y="-531.2" font-family="Helvetica,sans-Serif" font-size="11.00">...</text>
<polygon fill="#ffffff" stroke="transparent" points="777,-507 777,-525 921,-525 921,-507 777,-507"/>
<polygon fill="none" stroke="black" points="777,-507 777,-525 921,-525 921,-507 777,-507"/>
<text text-anchor="start" x="780" y="-513.2" font-family="Helvetica,sans-Serif" font-size="11.00">&lt; 2</text>
<polygon fill="#ffffff" stroke="transparent" points="921,-507 921,-525 995,-525 995,-507 921,-507"/>
<polygon fill="none" stroke="black" points="921,-507 921,-525 995,-525 995,-507 921,-507"/>
<text text-anchor="start" x="985" y="-513.2" font-family="Helvetica,sans-Serif" font-size="11.00"> &#160;</text>
<polygon fill="#ffffff" stroke="transparent" points="995,-507 995,-525 1069,-525 1069,-507 995,-507"/>
<polygon fill="none" stroke="black" points="995,-507 995,-525 1069,-525 1069,-507 995,-507"/>
<text text-anchor="start" x="1059" y="-513.2" font-family="Helvetica,sans-Serif" font-size="11.00"> &#160;</text>
</a>
</g>
</g>
<!-- syst_access_accounts -->
<g id="node2" class="node">
<title>syst_access_accounts</title>
<g id="a_node2"><a xlink:href="../../tables/syst_access_accounts.html" xlink:title="syst_access_accounts" target="_top">
<polygon fill="#ffffff" stroke="transparent" points="487,-421 487,-567 681,-567 681,-421 487,-421"/>
<polygon fill="#f5f5f5" stroke="transparent" points="487,-545 487,-567 681,-567 681,-545 487,-545"/>
<polygon fill="none" stroke="black" points="487,-545 487,-567 681,-567 681,-545 487,-545"/>
<text text-anchor="start" x="492" y="-554.2" font-family="Helvetica,sans-Serif" font-weight="bold" font-size="11.00">syst_access_accounts</text>
<text text-anchor="start" x="646" y="-553.2" font-family="Helvetica,sans-Serif" font-size="11.00">[table]</text>
<polygon fill="none" stroke="black" points="487,-523 487,-545 681,-545 681,-523 487,-523"/>
<image xlink:href="../../images/primaryKeys.png" width="11px" height="12px" preserveAspectRatio="xMinYMin meet" x="492" y="-540"/>
<text text-anchor="start" x="507" y="-531.2" font-family="Helvetica,sans-Serif" font-size="11.00">id</text>
<polygon fill="#ffffff" stroke="transparent" points="487,-501 487,-523 681,-523 681,-501 487,-501"/>
<polygon fill="none" stroke="black" points="487,-501 487,-523 681,-523 681,-501 487,-501"/>
<text text-anchor="start" x="507" y="-509.2" font-family="Helvetica,sans-Serif" font-size="11.00">internal_name</text>
<polygon fill="none" stroke="black" points="487,-479 487,-501 681,-501 681,-479 487,-479"/>
<image xlink:href="../../images/foreignKeys.png" width="11px" height="12px" preserveAspectRatio="xMinYMin meet" x="492" y="-496"/>
<text text-anchor="start" x="507" y="-487.2" font-family="Helvetica,sans-Serif" font-size="11.00">owning_owner_id</text>
<polygon fill="none" stroke="black" points="487,-457 487,-479 681,-479 681,-457 487,-457"/>
<image xlink:href="../../images/foreignKeys.png" width="11px" height="12px" preserveAspectRatio="xMinYMin meet" x="492" y="-474"/>
<text text-anchor="start" x="507" y="-465.2" font-family="Helvetica,sans-Serif" font-size="11.00">access_account_state_id</text>
<polygon fill="none" stroke="black" points="487,-439 487,-457 681,-457 681,-439 487,-439"/>
<text text-anchor="start" x="490" y="-445.2" font-family="Helvetica,sans-Serif" font-size="11.00">...</text>
<polygon fill="#ffffff" stroke="transparent" points="487,-421 487,-439 577,-439 577,-421 487,-421"/>
<polygon fill="none" stroke="black" points="487,-421 487,-439 577,-439 577,-421 487,-421"/>
<text text-anchor="start" x="490" y="-427.2" font-family="Helvetica,sans-Serif" font-size="11.00">&lt; 2</text>
<polygon fill="#ffffff" stroke="transparent" points="577,-421 577,-439 624,-439 624,-421 577,-421"/>
<polygon fill="none" stroke="black" points="577,-421 577,-439 624,-439 624,-421 577,-421"/>
<text text-anchor="start" x="614" y="-427.2" font-family="Helvetica,sans-Serif" font-size="11.00"> &#160;</text>
<polygon fill="#ffffff" stroke="transparent" points="624,-421 624,-439 681,-439 681,-421 624,-421"/>
<polygon fill="none" stroke="black" points="624,-421 624,-439 681,-439 681,-421 624,-421"/>
<text text-anchor="start" x="662" y="-427.2" font-family="Helvetica,sans-Serif" font-size="11.00">5 &gt;</text>
</a>
</g>
</g>
<!-- syst_access_account_instance_assocs&#45;&gt;syst_access_accounts -->
<g id="edge1" class="edge">
<title>syst_access_account_instance_assocs:w&#45;&gt;syst_access_accounts:e</title>
<path fill="none" stroke="black" d="M761.27,-534C731.01,-534 718.39,-534 682,-534"/>
<polygon fill="black" stroke="black" points="768,-534 776,-537.6 772,-534 776,-534 776,-534 776,-534 772,-534 776,-530.4 768,-534 768,-534"/>
<ellipse fill="none" stroke="black" cx="764.8" cy="-534" rx="3.2" ry="3.2"/>
</g>
<!-- syst_enum_items -->
<g id="node5" class="node">
<title>syst_enum_items</title>
<g id="a_node5"><a xlink:href="../../tables/syst_enum_items.html" xlink:title="syst_enum_items" target="_top">
<polygon fill="#ffffff" stroke="transparent" points="8,-554 8,-612 163,-612 163,-554 8,-554"/>
<polygon fill="#f5f5f5" stroke="transparent" points="8.5,-590 8.5,-612 163.5,-612 163.5,-590 8.5,-590"/>
<polygon fill="none" stroke="black" points="8.5,-590 8.5,-612 163.5,-612 163.5,-590 8.5,-590"/>
<text text-anchor="start" x="13.5" y="-599.2" font-family="Helvetica,sans-Serif" font-weight="bold" font-size="11.00">syst_enum_items</text>
<text text-anchor="start" x="128.5" y="-598.2" font-family="Helvetica,sans-Serif" font-size="11.00">[table]</text>
<polygon fill="none" stroke="black" points="8.5,-572 8.5,-590 163.5,-590 163.5,-572 8.5,-572"/>
<text text-anchor="start" x="11.5" y="-578.2" font-family="Helvetica,sans-Serif" font-size="11.00">...</text>
<polygon fill="#ffffff" stroke="transparent" points="8.5,-554 8.5,-572 79.5,-572 79.5,-554 8.5,-554"/>
<polygon fill="none" stroke="black" points="8.5,-554 8.5,-572 79.5,-572 79.5,-554 8.5,-554"/>
<text text-anchor="start" x="11.5" y="-560.2" font-family="Helvetica,sans-Serif" font-size="11.00">&lt; 2</text>
<polygon fill="#ffffff" stroke="transparent" points="79.5,-554 79.5,-572 116.5,-572 116.5,-554 79.5,-554"/>
<polygon fill="none" stroke="black" points="79.5,-554 79.5,-572 116.5,-572 116.5,-554 79.5,-554"/>
<text text-anchor="start" x="106.5" y="-560.2" font-family="Helvetica,sans-Serif" font-size="11.00"> &#160;</text>
<polygon fill="#ffffff" stroke="transparent" points="116.5,-554 116.5,-572 163.5,-572 163.5,-554 116.5,-554"/>
<polygon fill="none" stroke="black" points="116.5,-554 116.5,-572 163.5,-572 163.5,-554 116.5,-554"/>
<text text-anchor="start" x="144.5" y="-560.2" font-family="Helvetica,sans-Serif" font-size="11.00">7 &gt;</text>
</a>
</g>
</g>
<!-- syst_access_accounts&#45;&gt;syst_enum_items -->
<g id="edge4" class="edge">
<title>syst_access_accounts:w&#45;&gt;syst_enum_items:e</title>
<path fill="none" stroke="black" d="M471.54,-467.83C355.58,-465.15 303.18,-432.15 204,-502 171.9,-524.6 203.76,-581 164.5,-581"/>
<polygon fill="black" stroke="black" points="478,-467.91 485.96,-471.6 482,-467.95 486,-468 486,-468 486,-468 482,-467.95 486.04,-464.4 478,-467.91 478,-467.91"/>
<ellipse fill="none" stroke="black" cx="474.8" cy="-467.87" rx="3.2" ry="3.2"/>
</g>
<!-- syst_owners -->
<g id="node6" class="node">
<title>syst_owners</title>
<g id="a_node6"><a xlink:href="../../tables/syst_owners.html" xlink:title="syst_owners" target="_top">
<polygon fill="#ffffff" stroke="transparent" points="264,-513 264,-571 386,-571 386,-513 264,-513"/>
<polygon fill="#f5f5f5" stroke="transparent" points="264,-549 264,-571 386,-571 386,-549 264,-549"/>
<polygon fill="none" stroke="black" points="264,-549 264,-571 386,-571 386,-549 264,-549"/>
<text text-anchor="start" x="269" y="-558.2" font-family="Helvetica,sans-Serif" font-weight="bold" font-size="11.00">syst_owners</text>
<text text-anchor="start" x="351" y="-557.2" font-family="Helvetica,sans-Serif" font-size="11.00">[table]</text>
<polygon fill="none" stroke="black" points="264,-531 264,-549 386,-549 386,-531 264,-531"/>
<text text-anchor="start" x="267" y="-537.2" font-family="Helvetica,sans-Serif" font-size="11.00">...</text>
<polygon fill="#ffffff" stroke="transparent" points="264,-513 264,-531 318,-531 318,-513 264,-513"/>
<polygon fill="none" stroke="black" points="264,-513 264,-531 318,-531 318,-513 264,-513"/>
<text text-anchor="start" x="267" y="-519.2" font-family="Helvetica,sans-Serif" font-size="11.00">&lt; 1</text>
<polygon fill="#ffffff" stroke="transparent" points="318,-513 318,-531 347,-531 347,-513 318,-513"/>
<polygon fill="none" stroke="black" points="318,-513 318,-531 347,-531 347,-513 318,-513"/>
<text text-anchor="start" x="337" y="-519.2" font-family="Helvetica,sans-Serif" font-size="11.00"> &#160;</text>
<polygon fill="#ffffff" stroke="transparent" points="347,-513 347,-531 386,-531 386,-513 347,-513"/>
<polygon fill="none" stroke="black" points="347,-513 347,-531 386,-531 386,-513 347,-513"/>
<text text-anchor="start" x="367" y="-519.2" font-family="Helvetica,sans-Serif" font-size="11.00">4 &gt;</text>
</a>
</g>
</g>
<!-- syst_access_accounts&#45;&gt;syst_owners -->
<g id="edge5" class="edge">
<title>syst_access_accounts:w&#45;&gt;syst_owners:e</title>
<path fill="none" stroke="black" d="M471.45,-491.66C436.03,-500.34 430.9,-540 387,-540"/>
<polygon fill="black" stroke="black" points="478.05,-490.91 486.41,-493.58 482.03,-490.45 486,-490 486,-490 486,-490 482.03,-490.45 485.59,-486.42 478.05,-490.91 478.05,-490.91"/>
<ellipse fill="none" stroke="black" cx="474.87" cy="-491.27" rx="3.2" ry="3.2"/>
</g>
<!-- syst_access_account_perm_role_assigns -->
<g id="node3" class="node">
<title>syst_access_account_perm_role_assigns</title>
<g id="a_node3"><a xlink:href="../../tables/syst_access_account_perm_role_assigns.html" xlink:title="syst_access_account_perm_role_assigns" target="_top">
<polygon fill="#ffffff" stroke="transparent" points="730,-116 730,-380 1116,-380 1116,-116 730,-116"/>
<polygon fill="#f5f5f5" stroke="transparent" points="732,-356 732,-378 1114,-378 1114,-356 732,-356"/>
<polygon fill="none" stroke="black" points="732,-356 732,-378 1114,-378 1114,-356 732,-356"/>
<text text-anchor="start" x="737" y="-365.2" font-family="Helvetica,sans-Serif" font-weight="bold" font-size="11.00">syst_access_account_perm_role_assigns</text>
<text text-anchor="start" x="1079" y="-364.2" font-family="Helvetica,sans-Serif" font-size="11.00">[table]</text>
<polygon fill="none" stroke="black" points="732,-334 732,-356 1021,-356 1021,-334 732,-334"/>
<image xlink:href="../../images/primaryKeys.png" width="11px" height="12px" preserveAspectRatio="xMinYMin meet" x="737" y="-351"/>
<text text-anchor="start" x="752" y="-342.2" font-family="Helvetica,sans-Serif" font-size="11.00">id</text>
<polygon fill="none" stroke="black" points="1021,-334 1021,-356 1114,-356 1114,-334 1021,-334"/>
<text text-anchor="start" x="1024" y="-342.2" font-family="Helvetica,sans-Serif" font-size="11.00">uuid[2147483647]</text>
<polygon fill="#ffffff" stroke="transparent" points="732,-312 732,-334 1021,-334 1021,-312 732,-312"/>
<polygon fill="none" stroke="black" points="732,-312 732,-334 1021,-334 1021,-312 732,-312"/>
<image xlink:href="../../images/foreignKeys.png" width="11px" height="12px" preserveAspectRatio="xMinYMin meet" x="737" y="-329"/>
<text text-anchor="start" x="752" y="-320.2" font-family="Helvetica,sans-Serif" font-size="11.00">access_account_id</text>
<polygon fill="none" stroke="black" points="1021,-312 1021,-334 1114,-334 1114,-312 1021,-312"/>
<text text-anchor="start" x="1024" y="-320.2" font-family="Helvetica,sans-Serif" font-size="11.00">uuid[2147483647]</text>
<polygon fill="#ffffff" stroke="transparent" points="732,-290 732,-312 1021,-312 1021,-290 732,-290"/>
<polygon fill="none" stroke="black" points="732,-290 732,-312 1021,-312 1021,-290 732,-290"/>
<image xlink:href="../../images/foreignKeys.png" width="11px" height="12px" preserveAspectRatio="xMinYMin meet" x="737" y="-307"/>
<text text-anchor="start" x="752" y="-298.2" font-family="Helvetica,sans-Serif" font-size="11.00">perm_role_id</text>
<polygon fill="none" stroke="black" points="1021,-290 1021,-312 1114,-312 1114,-290 1021,-290"/>
<text text-anchor="start" x="1024" y="-298.2" font-family="Helvetica,sans-Serif" font-size="11.00">uuid[2147483647]</text>
<polygon fill="none" stroke="black" points="732,-268 732,-290 1021,-290 1021,-268 732,-268"/>
<text text-anchor="start" x="752" y="-276.2" font-family="Helvetica,sans-Serif" font-size="11.00">diag_timestamp_created</text>
<polygon fill="none" stroke="black" points="1021,-268 1021,-290 1114,-290 1114,-268 1021,-268"/>
<text text-anchor="start" x="1024" y="-276.2" font-family="Helvetica,sans-Serif" font-size="11.00">timestamptz[35,6]</text>
<polygon fill="none" stroke="black" points="732,-246 732,-268 1021,-268 1021,-246 732,-246"/>
<text text-anchor="start" x="752" y="-254.2" font-family="Helvetica,sans-Serif" font-size="11.00">diag_role_created</text>
<polygon fill="none" stroke="black" points="1021,-246 1021,-268 1114,-268 1114,-246 1021,-246"/>
<text text-anchor="start" x="1024" y="-254.2" font-family="Helvetica,sans-Serif" font-size="11.00">text[2147483647]</text>
<polygon fill="none" stroke="black" points="732,-224 732,-246 1021,-246 1021,-224 732,-224"/>
<text text-anchor="start" x="752" y="-232.2" font-family="Helvetica,sans-Serif" font-size="11.00">diag_timestamp_modified</text>
<polygon fill="none" stroke="black" points="1021,-224 1021,-246 1114,-246 1114,-224 1021,-224"/>
<text text-anchor="start" x="1024" y="-232.2" font-family="Helvetica,sans-Serif" font-size="11.00">timestamptz[35,6]</text>
<polygon fill="none" stroke="black" points="732,-202 732,-224 1021,-224 1021,-202 732,-202"/>
<text text-anchor="start" x="752" y="-210.2" font-family="Helvetica,sans-Serif" font-size="11.00">diag_wallclock_modified</text>
<polygon fill="none" stroke="black" points="1021,-202 1021,-224 1114,-224 1114,-202 1021,-202"/>
<text text-anchor="start" x="1024" y="-210.2" font-family="Helvetica,sans-Serif" font-size="11.00">timestamptz[35,6]</text>
<polygon fill="none" stroke="black" points="732,-180 732,-202 1021,-202 1021,-180 732,-180"/>
<text text-anchor="start" x="752" y="-188.2" font-family="Helvetica,sans-Serif" font-size="11.00">diag_role_modified</text>
<polygon fill="none" stroke="black" points="1021,-180 1021,-202 1114,-202 1114,-180 1021,-180"/>
<text text-anchor="start" x="1024" y="-188.2" font-family="Helvetica,sans-Serif" font-size="11.00">text[2147483647]</text>
<polygon fill="none" stroke="black" points="732,-158 732,-180 1021,-180 1021,-158 732,-158"/>
<text text-anchor="start" x="752" y="-166.2" font-family="Helvetica,sans-Serif" font-size="11.00">diag_row_version</text>
<polygon fill="none" stroke="black" points="1021,-158 1021,-180 1114,-180 1114,-158 1021,-158"/>
<text text-anchor="start" x="1024" y="-166.2" font-family="Helvetica,sans-Serif" font-size="11.00">int8[19]</text>
<polygon fill="none" stroke="black" points="732,-136 732,-158 1021,-158 1021,-136 732,-136"/>
<text text-anchor="start" x="752" y="-144.2" font-family="Helvetica,sans-Serif" font-size="11.00">diag_update_count</text>
<polygon fill="none" stroke="black" points="1021,-136 1021,-158 1114,-158 1114,-136 1021,-136"/>
<text text-anchor="start" x="1024" y="-144.2" font-family="Helvetica,sans-Serif" font-size="11.00">int8[19]</text>
<polygon fill="#ffffff" stroke="transparent" points="732,-118 732,-136 881,-136 881,-118 732,-118"/>
<polygon fill="none" stroke="black" points="732,-118 732,-136 881,-136 881,-118 732,-118"/>
<text text-anchor="start" x="735" y="-124.2" font-family="Helvetica,sans-Serif" font-size="11.00">&lt; 2</text>
<polygon fill="#ffffff" stroke="transparent" points="881,-118 881,-136 1021,-136 1021,-118 881,-118"/>
<polygon fill="none" stroke="black" points="881,-118 881,-136 1021,-136 1021,-118 881,-118"/>
<text text-anchor="start" x="1011" y="-124.2" font-family="Helvetica,sans-Serif" font-size="11.00"> &#160;</text>
<polygon fill="#ffffff" stroke="transparent" points="1021,-118 1021,-136 1114,-136 1114,-118 1021,-118"/>
<polygon fill="none" stroke="black" points="1021,-118 1021,-136 1114,-136 1114,-118 1021,-118"/>
<text text-anchor="start" x="1095" y="-124.2" font-family="Helvetica,sans-Serif" font-size="11.00">0 &gt;</text>
<polygon fill="none" stroke="black" stroke-width="2" points="731,-117 731,-379 1115,-379 1115,-117 731,-117"/>
</a>
</g>
</g>
<!-- syst_access_account_perm_role_assigns&#45;&gt;syst_access_accounts -->
<g id="edge2" class="edge">
<title>syst_access_account_perm_role_assigns:w&#45;&gt;syst_access_accounts:e</title>
<path fill="none" stroke="black" d="M716.45,-325.09C650.73,-347 772.63,-534 682,-534"/>
<polygon fill="black" stroke="black" points="723.08,-324.14 731.51,-326.56 727.04,-323.57 731,-323 731,-323 731,-323 727.04,-323.57 730.49,-319.44 723.08,-324.14 723.08,-324.14"/>
<ellipse fill="none" stroke="black" cx="719.91" cy="-324.59" rx="3.2" ry="3.2"/>
</g>
<!-- syst_perm_roles -->
<g id="node4" class="node">
<title>syst_perm_roles</title>
<g id="a_node4"><a xlink:href="../../tables/syst_perm_roles.html" xlink:title="syst_perm_roles" target="_top">
<polygon fill="#ffffff" stroke="transparent" points="487,-70 487,-216 681,-216 681,-70 487,-70"/>
<polygon fill="#f5f5f5" stroke="transparent" points="487,-194 487,-216 681,-216 681,-194 487,-194"/>
<polygon fill="none" stroke="black" points="487,-194 487,-216 681,-216 681,-194 487,-194"/>
<text text-anchor="start" x="492" y="-203.2" font-family="Helvetica,sans-Serif" font-weight="bold" font-size="11.00">syst_perm_roles</text>
<text text-anchor="start" x="646" y="-202.2" font-family="Helvetica,sans-Serif" font-size="11.00">[table]</text>
<polygon fill="none" stroke="black" points="487,-172 487,-194 681,-194 681,-172 487,-172"/>
<image xlink:href="../../images/primaryKeys.png" width="11px" height="12px" preserveAspectRatio="xMinYMin meet" x="492" y="-189"/>
<text text-anchor="start" x="507" y="-180.2" font-family="Helvetica,sans-Serif" font-size="11.00">id</text>
<polygon fill="#ffffff" stroke="transparent" points="487,-150 487,-172 681,-172 681,-150 487,-150"/>
<polygon fill="none" stroke="black" points="487,-150 487,-172 681,-172 681,-150 487,-150"/>
<text text-anchor="start" x="507" y="-158.2" font-family="Helvetica,sans-Serif" font-size="11.00">internal_name</text>
<polygon fill="#ffffff" stroke="transparent" points="487,-128 487,-150 681,-150 681,-128 487,-128"/>
<polygon fill="none" stroke="black" points="487,-128 487,-150 681,-150 681,-128 487,-128"/>
<text text-anchor="start" x="507" y="-136.2" font-family="Helvetica,sans-Serif" font-size="11.00">display_name</text>
<polygon fill="none" stroke="black" points="487,-106 487,-128 681,-128 681,-106 487,-106"/>
<image xlink:href="../../images/foreignKeys.png" width="11px" height="12px" preserveAspectRatio="xMinYMin meet" x="492" y="-123"/>
<text text-anchor="start" x="507" y="-114.2" font-family="Helvetica,sans-Serif" font-size="11.00">perm_functional_type_id</text>
<polygon fill="none" stroke="black" points="487,-88 487,-106 681,-106 681,-88 487,-88"/>
<text text-anchor="start" x="490" y="-94.2" font-family="Helvetica,sans-Serif" font-size="11.00">...</text>
<polygon fill="#ffffff" stroke="transparent" points="487,-70 487,-88 577,-88 577,-70 487,-70"/>
<polygon fill="none" stroke="black" points="487,-70 487,-88 577,-88 577,-70 487,-70"/>
<text text-anchor="start" x="490" y="-76.2" font-family="Helvetica,sans-Serif" font-size="11.00">&lt; 1</text>
<polygon fill="#ffffff" stroke="transparent" points="577,-70 577,-88 624,-88 624,-70 577,-70"/>
<polygon fill="none" stroke="black" points="577,-70 577,-88 624,-88 624,-70 577,-70"/>
<text text-anchor="start" x="614" y="-76.2" font-family="Helvetica,sans-Serif" font-size="11.00"> &#160;</text>
<polygon fill="#ffffff" stroke="transparent" points="624,-70 624,-88 681,-88 681,-70 624,-70"/>
<polygon fill="none" stroke="black" points="624,-70 624,-88 681,-88 681,-70 624,-70"/>
<text text-anchor="start" x="662" y="-76.2" font-family="Helvetica,sans-Serif" font-size="11.00">2 &gt;</text>
</a>
</g>
</g>
<!-- syst_access_account_perm_role_assigns&#45;&gt;syst_perm_roles -->
<g id="edge3" class="edge">
<title>syst_access_account_perm_role_assigns:w&#45;&gt;syst_perm_roles:e</title>
<path fill="none" stroke="black" d="M716.8,-297.34C686.48,-277.42 732.8,-183 682,-183"/>
<polygon fill="black" stroke="black" points="723.25,-299 730.1,-304.49 727.13,-300 731,-301 731,-301 731,-301 727.13,-300 731.9,-297.51 723.25,-299 723.25,-299"/>
<ellipse fill="none" stroke="black" cx="720.15" cy="-298.2" rx="3.2" ry="3.2"/>
</g>
<!-- syst_perm_functional_types -->
<g id="node11" class="node">
<title>syst_perm_functional_types</title>
<g id="a_node11"><a xlink:href="../../tables/syst_perm_functional_types.html" xlink:title="syst_perm_functional_types" target="_top">
<polygon fill="#ffffff" stroke="transparent" points="212,-90 212,-148 438,-148 438,-90 212,-90"/>
<polygon fill="#f5f5f5" stroke="transparent" points="212,-126 212,-148 438,-148 438,-126 212,-126"/>
<polygon fill="none" stroke="black" points="212,-126 212,-148 438,-148 438,-126 212,-126"/>
<text text-anchor="start" x="217" y="-135.2" font-family="Helvetica,sans-Serif" font-weight="bold" font-size="11.00">syst_perm_functional_types</text>
<text text-anchor="start" x="403" y="-134.2" font-family="Helvetica,sans-Serif" font-size="11.00">[table]</text>
<polygon fill="none" stroke="black" points="212,-108 212,-126 438,-126 438,-108 212,-108"/>
<text text-anchor="start" x="215" y="-114.2" font-family="Helvetica,sans-Serif" font-size="11.00">...</text>
<polygon fill="#ffffff" stroke="transparent" points="212,-90 212,-108 314,-108 314,-90 212,-90"/>
<polygon fill="none" stroke="black" points="212,-90 212,-108 314,-108 314,-90 212,-90"/>
<text text-anchor="start" x="215" y="-96.2" font-family="Helvetica,sans-Serif" font-size="11.00"> &#160;</text>
<polygon fill="#ffffff" stroke="transparent" points="314,-90 314,-108 371,-108 371,-90 314,-90"/>
<polygon fill="none" stroke="black" points="314,-90 314,-108 371,-108 371,-90 314,-90"/>
<text text-anchor="start" x="361" y="-96.2" font-family="Helvetica,sans-Serif" font-size="11.00"> &#160;</text>
<polygon fill="#ffffff" stroke="transparent" points="371,-90 371,-108 438,-108 438,-90 371,-90"/>
<polygon fill="none" stroke="black" points="371,-90 371,-108 438,-108 438,-90 371,-90"/>
<text text-anchor="start" x="419" y="-96.2" font-family="Helvetica,sans-Serif" font-size="11.00">2 &gt;</text>
</a>
</g>
</g>
<!-- syst_perm_roles&#45;&gt;syst_perm_functional_types -->
<g id="edge14" class="edge">
<title>syst_perm_roles:w&#45;&gt;syst_perm_functional_types:e</title>
<path fill="none" stroke="black" d="M471.4,-117C460.93,-117 454.01,-117 439,-117"/>
<polygon fill="black" stroke="black" points="478,-117 486,-120.6 482,-117 486,-117 486,-117 486,-117 482,-117 486,-113.4 478,-117 478,-117"/>
<ellipse fill="none" stroke="black" cx="474.8" cy="-117" rx="3.2" ry="3.2"/>
</g>
<!-- syst_owners&#45;&gt;syst_enum_items -->
<g id="edge11" class="edge">
<title>syst_owners:w&#45;&gt;syst_enum_items:e</title>
<path fill="none" stroke="black" d="M248.44,-541.46C214.19,-548.76 206.55,-581 164.5,-581"/>
<polygon fill="black" stroke="black" points="255.04,-540.8 263.36,-543.58 259.02,-540.4 263,-540 263,-540 263,-540 259.02,-540.4 262.64,-536.42 255.04,-540.8 255.04,-540.8"/>
<ellipse fill="none" stroke="black" cx="251.86" cy="-541.12" rx="3.2" ry="3.2"/>
</g>
<!-- syst_credentials -->
<g id="node7" class="node">
<title>syst_credentials</title>
<g id="a_node7"><a xlink:href="../../tables/syst_credentials.html" xlink:title="syst_credentials" target="_top">
<polygon fill="#ffffff" stroke="transparent" points="1165,-586 1165,-644 1314,-644 1314,-586 1165,-586"/>
<polygon fill="#f5f5f5" stroke="transparent" points="1165.5,-622 1165.5,-644 1314.5,-644 1314.5,-622 1165.5,-622"/>
<polygon fill="none" stroke="black" points="1165.5,-622 1165.5,-644 1314.5,-644 1314.5,-622 1165.5,-622"/>
<text text-anchor="start" x="1170.5" y="-631.2" font-family="Helvetica,sans-Serif" font-weight="bold" font-size="11.00">syst_credentials</text>
<text text-anchor="start" x="1279.5" y="-630.2" font-family="Helvetica,sans-Serif" font-size="11.00">[table]</text>
<polygon fill="none" stroke="black" points="1165.5,-604 1165.5,-622 1314.5,-622 1314.5,-604 1165.5,-604"/>
<text text-anchor="start" x="1168.5" y="-610.2" font-family="Helvetica,sans-Serif" font-size="11.00">...</text>
<polygon fill="#ffffff" stroke="transparent" points="1165.5,-586 1165.5,-604 1237.5,-604 1237.5,-586 1165.5,-586"/>
<polygon fill="none" stroke="black" points="1165.5,-586 1165.5,-604 1237.5,-604 1237.5,-586 1165.5,-586"/>
<text text-anchor="start" x="1168.5" y="-592.2" font-family="Helvetica,sans-Serif" font-size="11.00">&lt; 3</text>
<polygon fill="#ffffff" stroke="transparent" points="1237.5,-586 1237.5,-604 1275.5,-604 1275.5,-586 1237.5,-586"/>
<polygon fill="none" stroke="black" points="1237.5,-586 1237.5,-604 1275.5,-604 1275.5,-586 1237.5,-586"/>
<text text-anchor="start" x="1265.5" y="-592.2" font-family="Helvetica,sans-Serif" font-size="11.00"> &#160;</text>
<polygon fill="#ffffff" stroke="transparent" points="1275.5,-586 1275.5,-604 1314.5,-604 1314.5,-586 1275.5,-586"/>
<polygon fill="none" stroke="black" points="1275.5,-586 1275.5,-604 1314.5,-604 1314.5,-586 1275.5,-586"/>
<text text-anchor="start" x="1304.5" y="-592.2" font-family="Helvetica,sans-Serif" font-size="11.00"> &#160;</text>
</a>
</g>
</g>
<!-- syst_credentials&#45;&gt;syst_access_accounts -->
<g id="edge6" class="edge">
<title>syst_credentials:w&#45;&gt;syst_access_accounts:e</title>
<path fill="none" stroke="black" d="M1150.14,-611.42C1089.5,-595.85 1188.66,-469.66 1124,-417 1089.37,-388.79 758.34,-391.02 722,-417 677.3,-448.96 736.95,-534 682,-534"/>
<polygon fill="black" stroke="black" points="1156.55,-612.12 1164.11,-616.58 1160.52,-612.56 1164.5,-613 1164.5,-613 1164.5,-613 1160.52,-612.56 1164.89,-609.42 1156.55,-612.12 1156.55,-612.12"/>
<ellipse fill="none" stroke="black" cx="1153.37" cy="-611.77" rx="3.2" ry="3.2"/>
</g>
<!-- syst_credentials&#45;&gt;syst_enum_items -->
<g id="edge8" class="edge">
<title>syst_credentials:w&#45;&gt;syst_enum_items:e</title>
<path fill="none" stroke="black" d="M1150.89,-617.84C1141.13,-627.16 1142.09,-647.32 1124,-655 959.56,-724.87 900.39,-664.96 722,-655 490.7,-642.09 428.56,-653.91 204,-597 185.64,-592.35 183.44,-581 164.5,-581"/>
<polygon fill="black" stroke="black" points="1156.96,-615.68 1165.71,-616.39 1160.73,-614.34 1164.5,-613 1164.5,-613 1164.5,-613 1160.73,-614.34 1163.29,-609.61 1156.96,-615.68 1156.96,-615.68"/>
<ellipse fill="none" stroke="black" cx="1153.95" cy="-616.76" rx="3.2" ry="3.2"/>
</g>
<!-- syst_identities -->
<g id="node8" class="node">
<title>syst_identities</title>
<g id="a_node8"><a xlink:href="../../tables/syst_identities.html" xlink:title="syst_identities" target="_top">
<polygon fill="#ffffff" stroke="transparent" points="854,-586 854,-644 992,-644 992,-586 854,-586"/>
<polygon fill="#f5f5f5" stroke="transparent" points="854,-622 854,-644 992,-644 992,-622 854,-622"/>
<polygon fill="none" stroke="black" points="854,-622 854,-644 992,-644 992,-622 854,-622"/>
<text text-anchor="start" x="859" y="-631.2" font-family="Helvetica,sans-Serif" font-weight="bold" font-size="11.00">syst_identities</text>
<text text-anchor="start" x="957" y="-630.2" font-family="Helvetica,sans-Serif" font-size="11.00">[table]</text>
<polygon fill="none" stroke="black" points="854,-604 854,-622 992,-622 992,-604 854,-604"/>
<text text-anchor="start" x="857" y="-610.2" font-family="Helvetica,sans-Serif" font-size="11.00">...</text>
<polygon fill="#ffffff" stroke="transparent" points="854,-586 854,-604 916,-604 916,-586 854,-586"/>
<polygon fill="none" stroke="black" points="854,-586 854,-604 916,-604 916,-586 854,-586"/>
<text text-anchor="start" x="857" y="-592.2" font-family="Helvetica,sans-Serif" font-size="11.00">&lt; 3</text>
<polygon fill="#ffffff" stroke="transparent" points="916,-586 916,-604 949,-604 949,-586 916,-586"/>
<polygon fill="none" stroke="black" points="916,-586 916,-604 949,-604 949,-586 916,-586"/>
<text text-anchor="start" x="939" y="-592.2" font-family="Helvetica,sans-Serif" font-size="11.00"> &#160;</text>
<polygon fill="#ffffff" stroke="transparent" points="949,-586 949,-604 992,-604 992,-586 949,-586"/>
<polygon fill="none" stroke="black" points="949,-586 949,-604 992,-604 992,-586 949,-586"/>
<text text-anchor="start" x="973" y="-592.2" font-family="Helvetica,sans-Serif" font-size="11.00">2 &gt;</text>
</a>
</g>
</g>
<!-- syst_credentials&#45;&gt;syst_identities -->
<g id="edge7" class="edge">
<title>syst_credentials:w&#45;&gt;syst_identities:e</title>
<path fill="none" stroke="black" d="M1150.04,-613C1085.49,-613 1064.16,-613 993,-613"/>
<polygon fill="black" stroke="black" points="1156.5,-613 1164.5,-616.6 1160.5,-613 1164.5,-613 1164.5,-613 1164.5,-613 1160.5,-613 1164.5,-609.4 1156.5,-613 1156.5,-613"/>
<ellipse fill="none" stroke="black" cx="1153.3" cy="-613" rx="3.2" ry="3.2"/>
</g>
<!-- syst_identities&#45;&gt;syst_access_accounts -->
<g id="edge9" class="edge">
<title>syst_identities:w&#45;&gt;syst_access_accounts:e</title>
<path fill="none" stroke="black" d="M838.6,-612.87C789.13,-611.85 769.46,-604.61 722,-576 699.92,-562.69 707.78,-534 682,-534"/>
<polygon fill="black" stroke="black" points="845,-612.93 852.97,-616.6 849,-612.96 853,-613 853,-613 853,-613 849,-612.96 853.03,-609.4 845,-612.93 845,-612.93"/>
<ellipse fill="none" stroke="black" cx="841.8" cy="-612.9" rx="3.2" ry="3.2"/>
</g>
<!-- syst_identities&#45;&gt;syst_enum_items -->
<g id="edge10" class="edge">
<title>syst_identities:w&#45;&gt;syst_enum_items:e</title>
<path fill="none" stroke="black" d="M838.26,-612.77C724.23,-609.89 237.27,-581 164.5,-581"/>
<polygon fill="black" stroke="black" points="845,-612.88 852.94,-616.6 849,-612.94 853,-613 853,-613 853,-613 849,-612.94 853.06,-609.4 845,-612.88 845,-612.88"/>
<ellipse fill="none" stroke="black" cx="841.8" cy="-612.83" rx="3.2" ry="3.2"/>
</g>
<!-- syst_password_history -->
<g id="node9" class="node">
<title>syst_password_history</title>
<g id="a_node9"><a xlink:href="../../tables/syst_password_history.html" xlink:title="syst_password_history" target="_top">
<polygon fill="#ffffff" stroke="transparent" points="827,-428 827,-486 1019,-486 1019,-428 827,-428"/>
<polygon fill="#f5f5f5" stroke="transparent" points="827,-464 827,-486 1019,-486 1019,-464 827,-464"/>
<polygon fill="none" stroke="black" points="827,-464 827,-486 1019,-486 1019,-464 827,-464"/>
<text text-anchor="start" x="832" y="-473.2" font-family="Helvetica,sans-Serif" font-weight="bold" font-size="11.00">syst_password_history</text>
<text text-anchor="start" x="984" y="-472.2" font-family="Helvetica,sans-Serif" font-size="11.00">[table]</text>
<polygon fill="none" stroke="black" points="827,-446 827,-464 1019,-464 1019,-446 827,-446"/>
<text text-anchor="start" x="830" y="-452.2" font-family="Helvetica,sans-Serif" font-size="11.00">...</text>
<polygon fill="#ffffff" stroke="transparent" points="827,-428 827,-446 921,-446 921,-428 827,-428"/>
<polygon fill="none" stroke="black" points="827,-428 827,-446 921,-446 921,-428 827,-428"/>
<text text-anchor="start" x="830" y="-434.2" font-family="Helvetica,sans-Serif" font-size="11.00">&lt; 1</text>
<polygon fill="#ffffff" stroke="transparent" points="921,-428 921,-446 970,-446 970,-428 921,-428"/>
<polygon fill="none" stroke="black" points="921,-428 921,-446 970,-446 970,-428 921,-428"/>
<text text-anchor="start" x="960" y="-434.2" font-family="Helvetica,sans-Serif" font-size="11.00"> &#160;</text>
<polygon fill="#ffffff" stroke="transparent" points="970,-428 970,-446 1019,-446 1019,-428 970,-428"/>
<polygon fill="none" stroke="black" points="970,-428 970,-446 1019,-446 1019,-428 970,-428"/>
<text text-anchor="start" x="1009" y="-434.2" font-family="Helvetica,sans-Serif" font-size="11.00"> &#160;</text>
</a>
</g>
</g>
<!-- syst_password_history&#45;&gt;syst_access_accounts -->
<g id="edge12" class="edge">
<title>syst_password_history:w&#45;&gt;syst_access_accounts:e</title>
<path fill="none" stroke="black" d="M811.44,-455.47C773.37,-458.15 759.47,-472.1 722,-496 701.32,-509.18 706.52,-534 682,-534"/>
<polygon fill="black" stroke="black" points="818,-455.26 826.12,-458.6 822,-455.13 826,-455 826,-455 826,-455 822,-455.13 825.88,-451.4 818,-455.26 818,-455.26"/>
<ellipse fill="none" stroke="black" cx="814.81" cy="-455.37" rx="3.2" ry="3.2"/>
</g>
<!-- syst_perm_role_grants -->
<g id="node10" class="node">
<title>syst_perm_role_grants</title>
<g id="a_node10"><a xlink:href="../../tables/syst_perm_role_grants.html" xlink:title="syst_perm_role_grants" target="_top">
<polygon fill="#ffffff" stroke="transparent" points="827.5,-37 827.5,-95 1018.5,-95 1018.5,-37 827.5,-37"/>
<polygon fill="#f5f5f5" stroke="transparent" points="828,-73 828,-95 1019,-95 1019,-73 828,-73"/>
<polygon fill="none" stroke="black" points="828,-73 828,-95 1019,-95 1019,-73 828,-73"/>
<text text-anchor="start" x="833" y="-82.2" font-family="Helvetica,sans-Serif" font-weight="bold" font-size="11.00">syst_perm_role_grants</text>
<text text-anchor="start" x="984" y="-81.2" font-family="Helvetica,sans-Serif" font-size="11.00">[table]</text>
<polygon fill="none" stroke="black" points="828,-55 828,-73 1019,-73 1019,-55 828,-55"/>
<text text-anchor="start" x="831" y="-61.2" font-family="Helvetica,sans-Serif" font-size="11.00">...</text>
<polygon fill="#ffffff" stroke="transparent" points="828,-37 828,-55 921,-55 921,-37 828,-37"/>
<polygon fill="none" stroke="black" points="828,-37 828,-55 921,-55 921,-37 828,-37"/>
<text text-anchor="start" x="831" y="-43.2" font-family="Helvetica,sans-Serif" font-size="11.00">&lt; 2</text>
<polygon fill="#ffffff" stroke="transparent" points="921,-37 921,-55 970,-55 970,-37 921,-37"/>
<polygon fill="none" stroke="black" points="921,-37 921,-55 970,-55 970,-37 921,-37"/>
<text text-anchor="start" x="960" y="-43.2" font-family="Helvetica,sans-Serif" font-size="11.00"> &#160;</text>
<polygon fill="#ffffff" stroke="transparent" points="970,-37 970,-55 1019,-55 1019,-37 970,-37"/>
<polygon fill="none" stroke="black" points="970,-37 970,-55 1019,-55 1019,-37 970,-37"/>
<text text-anchor="start" x="1009" y="-43.2" font-family="Helvetica,sans-Serif" font-size="11.00"> &#160;</text>
</a>
</g>
</g>
<!-- syst_perm_role_grants&#45;&gt;syst_perm_roles -->
<g id="edge13" class="edge">
<title>syst_perm_role_grants:w&#45;&gt;syst_perm_roles:e</title>
<path fill="none" stroke="black" d="M812.43,-64.26C773.02,-65.82 755.33,-74.9 722,-105 693.09,-131.11 720.96,-183 682,-183"/>
<polygon fill="black" stroke="black" points="819,-64.14 827.06,-67.6 823,-64.07 827,-64 827,-64 827,-64 823,-64.07 826.94,-60.4 819,-64.14 819,-64.14"/>
<ellipse fill="none" stroke="black" cx="815.8" cy="-64.2" rx="3.2" ry="3.2"/>
</g>
</g>
</svg>
