<?xml version="1.0" encoding="UTF-8" standalone="no"?>
<!DOCTYPE svg PUBLIC "-//W3C//DTD SVG 1.1//EN"
 "http://www.w3.org/Graphics/SVG/1.1/DTD/svg11.dtd">
<!-- Generated by graphviz version 2.43.0 (0)
 -->
<!-- Title: oneDegreeRelationshipsDiagram Pages: 1 -->
<svg width="861pt" height="559pt"
 viewBox="0.00 0.00 861.00 559.00" xmlns="http://www.w3.org/2000/svg" xmlns:xlink="http://www.w3.org/1999/xlink">
<g id="graph0" class="graph" transform="scale(1 1) rotate(0) translate(4 555)">
<title>oneDegreeRelationshipsDiagram</title>
<polygon fill="#ffffff" stroke="transparent" points="-4,4 -4,-555 857,-555 857,4 -4,4"/>
<text text-anchor="middle" x="79.5" y="-7.2" font-family="Helvetica,sans-Serif" font-size="11.00">Generated by SchemaSpy</text>
<!-- syst_application_contexts -->
<g id="node1" class="node">
<title>syst_application_contexts</title>
<g id="a_node1"><a xlink:href="../../tables/syst_application_contexts.html" xlink:title="syst_application_contexts" target="_top">
<polygon fill="#ffffff" stroke="transparent" points="251,-37 251,-411 558,-411 558,-37 251,-37"/>
<polygon fill="#f5f5f5" stroke="transparent" points="253.5,-387 253.5,-409 556.5,-409 556.5,-387 253.5,-387"/>
<polygon fill="none" stroke="black" points="253.5,-387 253.5,-409 556.5,-409 556.5,-387 253.5,-387"/>
<text text-anchor="start" x="258.5" y="-396.2" font-family="Helvetica,sans-Serif" font-weight="bold" font-size="11.00">syst_application_contexts</text>
<text text-anchor="start" x="514.5" y="-395.2" font-family="Helvetica,sans-Serif" font-size="11.00">[table]</text>
<polygon fill="none" stroke="black" points="253.5,-365 253.5,-387 447.5,-387 447.5,-365 253.5,-365"/>
<image xlink:href="../../images/primaryKeys.png" width="11px" height="12px" preserveAspectRatio="xMinYMin meet" x="258.5" y="-382"/>
<text text-anchor="start" x="273.5" y="-373.2" font-family="Helvetica,sans-Serif" font-size="11.00">id</text>
<polygon fill="none" stroke="black" points="447.5,-365 447.5,-387 556.5,-387 556.5,-365 447.5,-365"/>
<text text-anchor="start" x="450.5" y="-373.2" font-family="Helvetica,sans-Serif" font-size="11.00">uuid[2147483647]</text>
<polygon fill="#ffffff" stroke="transparent" points="253.5,-343 253.5,-365 447.5,-365 447.5,-343 253.5,-343"/>
<polygon fill="none" stroke="black" points="253.5,-343 253.5,-365 447.5,-365 447.5,-343 253.5,-343"/>
<text text-anchor="start" x="273.5" y="-351.2" font-family="Helvetica,sans-Serif" font-size="11.00">internal_name</text>
<polygon fill="none" stroke="black" points="447.5,-343 447.5,-365 556.5,-365 556.5,-343 447.5,-343"/>
<text text-anchor="start" x="450.5" y="-351.2" font-family="Helvetica,sans-Serif" font-size="11.00">text[2147483647]</text>
<polygon fill="#ffffff" stroke="transparent" points="253.5,-321 253.5,-343 447.5,-343 447.5,-321 253.5,-321"/>
<polygon fill="none" stroke="black" points="253.5,-321 253.5,-343 447.5,-343 447.5,-321 253.5,-321"/>
<text text-anchor="start" x="273.5" y="-329.2" font-family="Helvetica,sans-Serif" font-size="11.00">display_name</text>
<polygon fill="none" stroke="black" points="447.5,-321 447.5,-343 556.5,-343 556.5,-321 447.5,-321"/>
<text text-anchor="start" x="450.5" y="-329.2" font-family="Helvetica,sans-Serif" font-size="11.00">text[2147483647]</text>
<polygon fill="none" stroke="black" points="253.5,-299 253.5,-321 447.5,-321 447.5,-299 253.5,-299"/>
<image xlink:href="../../images/foreignKeys.png" width="11px" height="12px" preserveAspectRatio="xMinYMin meet" x="258.5" y="-316"/>
<text text-anchor="start" x="273.5" y="-307.2" font-family="Helvetica,sans-Serif" font-size="11.00">application_id</text>
<polygon fill="none" stroke="black" points="447.5,-299 447.5,-321 556.5,-321 556.5,-299 447.5,-299"/>
<text text-anchor="start" x="450.5" y="-307.2" font-family="Helvetica,sans-Serif" font-size="11.00">uuid[2147483647]</text>
<polygon fill="none" stroke="black" points="253.5,-277 253.5,-299 447.5,-299 447.5,-277 253.5,-277"/>
<text text-anchor="start" x="273.5" y="-285.2" font-family="Helvetica,sans-Serif" font-size="11.00">description</text>
<polygon fill="none" stroke="black" points="447.5,-277 447.5,-299 556.5,-299 556.5,-277 447.5,-277"/>
<text text-anchor="start" x="450.5" y="-285.2" font-family="Helvetica,sans-Serif" font-size="11.00">text[2147483647]</text>
<polygon fill="none" stroke="black" points="253.5,-255 253.5,-277 447.5,-277 447.5,-255 253.5,-255"/>
<text text-anchor="start" x="273.5" y="-263.2" font-family="Helvetica,sans-Serif" font-size="11.00">start_context</text>
<polygon fill="none" stroke="black" points="447.5,-255 447.5,-277 556.5,-277 556.5,-255 447.5,-255"/>
<text text-anchor="start" x="450.5" y="-263.2" font-family="Helvetica,sans-Serif" font-size="11.00">bool[1]</text>
<polygon fill="none" stroke="black" points="253.5,-233 253.5,-255 447.5,-255 447.5,-233 253.5,-233"/>
<text text-anchor="start" x="273.5" y="-241.2" font-family="Helvetica,sans-Serif" font-size="11.00">login_context</text>
<polygon fill="none" stroke="black" points="447.5,-233 447.5,-255 556.5,-255 556.5,-233 447.5,-233"/>
<text text-anchor="start" x="450.5" y="-241.2" font-family="Helvetica,sans-Serif" font-size="11.00">bool[1]</text>
<polygon fill="none" stroke="black" points="253.5,-211 253.5,-233 447.5,-233 447.5,-211 253.5,-211"/>
<text text-anchor="start" x="273.5" y="-219.2" font-family="Helvetica,sans-Serif" font-size="11.00">database_owner_context</text>
<polygon fill="none" stroke="black" points="447.5,-211 447.5,-233 556.5,-233 556.5,-211 447.5,-211"/>
<text text-anchor="start" x="450.5" y="-219.2" font-family="Helvetica,sans-Serif" font-size="11.00">bool[1]</text>
<polygon fill="none" stroke="black" points="253.5,-189 253.5,-211 447.5,-211 447.5,-189 253.5,-189"/>
<text text-anchor="start" x="273.5" y="-197.2" font-family="Helvetica,sans-Serif" font-size="11.00">diag_timestamp_created</text>
<polygon fill="none" stroke="black" points="447.5,-189 447.5,-211 556.5,-211 556.5,-189 447.5,-189"/>
<text text-anchor="start" x="450.5" y="-197.2" font-family="Helvetica,sans-Serif" font-size="11.00">timestamptz[35,6]</text>
<polygon fill="none" stroke="black" points="253.5,-167 253.5,-189 447.5,-189 447.5,-167 253.5,-167"/>
<text text-anchor="start" x="273.5" y="-175.2" font-family="Helvetica,sans-Serif" font-size="11.00">diag_role_created</text>
<polygon fill="none" stroke="black" points="447.5,-167 447.5,-189 556.5,-189 556.5,-167 447.5,-167"/>
<text text-anchor="start" x="450.5" y="-175.2" font-family="Helvetica,sans-Serif" font-size="11.00">text[2147483647]</text>
<polygon fill="none" stroke="black" points="253.5,-145 253.5,-167 447.5,-167 447.5,-145 253.5,-145"/>
<text text-anchor="start" x="273.5" y="-153.2" font-family="Helvetica,sans-Serif" font-size="11.00">diag_timestamp_modified</text>
<polygon fill="none" stroke="black" points="447.5,-145 447.5,-167 556.5,-167 556.5,-145 447.5,-145"/>
<text text-anchor="start" x="450.5" y="-153.2" font-family="Helvetica,sans-Serif" font-size="11.00">timestamptz[35,6]</text>
<polygon fill="none" stroke="black" points="253.5,-123 253.5,-145 447.5,-145 447.5,-123 253.5,-123"/>
<text text-anchor="start" x="273.5" y="-131.2" font-family="Helvetica,sans-Serif" font-size="11.00">diag_wallclock_modified</text>
<polygon fill="none" stroke="black" points="447.5,-123 447.5,-145 556.5,-145 556.5,-123 447.5,-123"/>
<text text-anchor="start" x="450.5" y="-131.2" font-family="Helvetica,sans-Serif" font-size="11.00">timestamptz[35,6]</text>
<polygon fill="none" stroke="black" points="253.5,-101 253.5,-123 447.5,-123 447.5,-101 253.5,-101"/>
<text text-anchor="start" x="273.5" y="-109.2" font-family="Helvetica,sans-Serif" font-size="11.00">diag_role_modified</text>
<polygon fill="none" stroke="black" points="447.5,-101 447.5,-123 556.5,-123 556.5,-101 447.5,-101"/>
<text text-anchor="start" x="450.5" y="-109.2" font-family="Helvetica,sans-Serif" font-size="11.00">text[2147483647]</text>
<polygon fill="none" stroke="black" points="253.5,-79 253.5,-101 447.5,-101 447.5,-79 253.5,-79"/>
<text text-anchor="start" x="273.5" y="-87.2" font-family="Helvetica,sans-Serif" font-size="11.00">diag_row_version</text>
<polygon fill="none" stroke="black" points="447.5,-79 447.5,-101 556.5,-101 556.5,-79 447.5,-79"/>
<text text-anchor="start" x="450.5" y="-87.2" font-family="Helvetica,sans-Serif" font-size="11.00">int8[19]</text>
<polygon fill="none" stroke="black" points="253.5,-57 253.5,-79 447.5,-79 447.5,-57 253.5,-57"/>
<text text-anchor="start" x="273.5" y="-65.2" font-family="Helvetica,sans-Serif" font-size="11.00">diag_update_count</text>
<polygon fill="none" stroke="black" points="447.5,-57 447.5,-79 556.5,-79 556.5,-57 447.5,-57"/>
<text text-anchor="start" x="450.5" y="-65.2" font-family="Helvetica,sans-Serif" font-size="11.00">int8[19]</text>
<polygon fill="#ffffff" stroke="transparent" points="253.5,-39 253.5,-57 356.5,-57 356.5,-39 253.5,-39"/>
<polygon fill="none" stroke="black" points="253.5,-39 253.5,-57 356.5,-57 356.5,-39 253.5,-39"/>
<text text-anchor="start" x="256.5" y="-45.2" font-family="Helvetica,sans-Serif" font-size="11.00">&lt; 1</text>
<polygon fill="#ffffff" stroke="transparent" points="356.5,-39 356.5,-57 447.5,-57 447.5,-39 356.5,-39"/>
<polygon fill="none" stroke="black" points="356.5,-39 356.5,-57 447.5,-57 447.5,-39 356.5,-39"/>
<text text-anchor="start" x="436.5" y="-45.2" font-family="Helvetica,sans-Serif" font-size="11.00"> &#160;</text>
<polygon fill="#ffffff" stroke="transparent" points="447.5,-39 447.5,-57 556.5,-57 556.5,-39 447.5,-39"/>
<polygon fill="none" stroke="black" points="447.5,-39 447.5,-57 556.5,-57 556.5,-39 447.5,-39"/>
<text text-anchor="start" x="533.5" y="-45.2" font-family="Helvetica,sans-Serif" font-size="11.00">2 &gt;</text>
<polygon fill="none" stroke="black" stroke-width="2" points="252,-38 252,-410 557,-410 557,-38 252,-38"/>
</a>
</g>
</g>
<!-- syst_applications -->
<g id="node2" class="node">
<title>syst_applications</title>
<g id="a_node2"><a xlink:href="../../tables/syst_applications.html" xlink:title="syst_applications" target="_top">
<polygon fill="#ffffff" stroke="transparent" points="8,-219 8,-343 202,-343 202,-219 8,-219"/>
<polygon fill="#f5f5f5" stroke="transparent" points="8,-321 8,-343 202,-343 202,-321 8,-321"/>
<polygon fill="none" stroke="black" points="8,-321 8,-343 202,-343 202,-321 8,-321"/>
<text text-anchor="start" x="13" y="-330.2" font-family="Helvetica,sans-Serif" font-weight="bold" font-size="11.00">syst_applications</text>
<text text-anchor="start" x="160" y="-329.2" font-family="Helvetica,sans-Serif" font-size="11.00">[table]</text>
<polygon fill="none" stroke="black" points="8,-299 8,-321 202,-321 202,-299 8,-299"/>
<image xlink:href="../../images/primaryKeys.png" width="11px" height="12px" preserveAspectRatio="xMinYMin meet" x="13" y="-316"/>
<text text-anchor="start" x="28" y="-307.2" font-family="Helvetica,sans-Serif" font-size="11.00">id</text>
<polygon fill="#ffffff" stroke="transparent" points="8,-277 8,-299 202,-299 202,-277 8,-277"/>
<polygon fill="none" stroke="black" points="8,-277 8,-299 202,-299 202,-277 8,-277"/>
<text text-anchor="start" x="28" y="-285.2" font-family="Helvetica,sans-Serif" font-size="11.00">internal_name</text>
<polygon fill="#ffffff" stroke="transparent" points="8,-255 8,-277 202,-277 202,-255 8,-255"/>
<polygon fill="none" stroke="black" points="8,-255 8,-277 202,-277 202,-255 8,-255"/>
<text text-anchor="start" x="28" y="-263.2" font-family="Helvetica,sans-Serif" font-size="11.00">display_name</text>
<polygon fill="none" stroke="black" points="8,-237 8,-255 202,-255 202,-237 8,-237"/>
<text text-anchor="start" x="11" y="-243.2" font-family="Helvetica,sans-Serif" font-size="11.00">...</text>
<polygon fill="#ffffff" stroke="transparent" points="8,-219 8,-237 92,-237 92,-219 8,-219"/>
<polygon fill="none" stroke="black" points="8,-219 8,-237 92,-237 92,-219 8,-219"/>
<text text-anchor="start" x="11" y="-225.2" font-family="Helvetica,sans-Serif" font-size="11.00"> &#160;</text>
<polygon fill="#ffffff" stroke="transparent" points="92,-219 92,-237 141,-237 141,-219 92,-219"/>
<polygon fill="none" stroke="black" points="92,-219 92,-237 141,-237 141,-219 92,-219"/>
<text text-anchor="start" x="130" y="-225.2" font-family="Helvetica,sans-Serif" font-size="11.00"> &#160;</text>
<polygon fill="#ffffff" stroke="transparent" points="141,-219 141,-237 202,-237 202,-219 141,-219"/>
<polygon fill="none" stroke="black" points="141,-219 141,-237 202,-237 202,-219 141,-219"/>
<text text-anchor="start" x="179" y="-225.2" font-family="Helvetica,sans-Serif" font-size="11.00">3 &gt;</text>
</a>
</g>
</g>
<!-- syst_application_contexts&#45;&gt;syst_applications -->
<g id="edge1" class="edge">
<title>syst_application_contexts:w&#45;&gt;syst_applications:e</title>
<path fill="none" stroke="black" d="M237.84,-310C226.41,-310 219.16,-310 203,-310"/>
<polygon fill="black" stroke="black" points="244.5,-310 252.5,-313.6 248.5,-310 252.5,-310 252.5,-310 252.5,-310 248.5,-310 252.5,-306.4 244.5,-310 244.5,-310"/>
<ellipse fill="none" stroke="black" cx="241.3" cy="-310" rx="3.2" ry="3.2"/>
</g>
<!-- syst_instance_contexts -->
<g id="node3" class="node">
<title>syst_instance_contexts</title>
<g id="a_node3"><a xlink:href="../../tables/syst_instance_contexts.html" xlink:title="syst_instance_contexts" target="_top">
<polygon fill="#ffffff" stroke="transparent" points="625,-401 625,-547 827,-547 827,-401 625,-401"/>
<polygon fill="#f5f5f5" stroke="transparent" points="625,-525 625,-547 827,-547 827,-525 625,-525"/>
<polygon fill="none" stroke="black" points="625,-525 625,-547 827,-547 827,-525 625,-525"/>
<text text-anchor="start" x="630" y="-534.2" font-family="Helvetica,sans-Serif" font-weight="bold" font-size="11.00">syst_instance_contexts</text>
<text text-anchor="start" x="785" y="-533.2" font-family="Helvetica,sans-Serif" font-size="11.00">[table]</text>
<polygon fill="none" stroke="black" points="625,-503 625,-525 827,-525 827,-503 625,-503"/>
<image xlink:href="../../images/primaryKeys.png" width="11px" height="12px" preserveAspectRatio="xMinYMin meet" x="630" y="-520"/>
<text text-anchor="start" x="649" y="-511.2" font-family="Helvetica,sans-Serif" font-size="11.00">id</text>
<polygon fill="#ffffff" stroke="transparent" points="625,-481 625,-503 827,-503 827,-481 625,-481"/>
<polygon fill="none" stroke="black" points="625,-481 625,-503 827,-503 827,-481 625,-481"/>
<text text-anchor="start" x="649" y="-489.2" font-family="Helvetica,sans-Serif" font-size="11.00">internal_name</text>
<polygon fill="none" stroke="black" points="625,-459 625,-481 827,-481 827,-459 625,-459"/>
<image xlink:href="../../images/foreignKeys.png" width="11px" height="12px" preserveAspectRatio="xMinYMin meet" x="630" y="-476"/>
<text text-anchor="start" x="649" y="-467.2" font-family="Helvetica,sans-Serif" font-size="11.00">instance_id</text>
<polygon fill="none" stroke="black" points="625,-437 625,-459 827,-459 827,-437 625,-437"/>
<image xlink:href="../../images/foreignKeys.png" width="11px" height="12px" preserveAspectRatio="xMinYMin meet" x="630" y="-454"/>
<text text-anchor="start" x="649" y="-445.2" font-family="Helvetica,sans-Serif" font-size="11.00">application_context_id</text>
<polygon fill="none" stroke="black" points="625,-419 625,-437 827,-437 827,-419 625,-419"/>
<text text-anchor="start" x="628" y="-425.2" font-family="Helvetica,sans-Serif" font-size="11.00">...</text>
<polygon fill="#ffffff" stroke="transparent" points="625,-401 625,-419 725,-419 725,-401 625,-401"/>
<polygon fill="none" stroke="black" points="625,-401 625,-419 725,-419 725,-401 625,-401"/>
<text text-anchor="start" x="628" y="-407.2" font-family="Helvetica,sans-Serif" font-size="11.00">&lt; 2</text>
<polygon fill="#ffffff" stroke="transparent" points="725,-401 725,-419 776,-419 776,-401 725,-401"/>
<polygon fill="none" stroke="black" points="725,-401 725,-419 776,-419 776,-401 725,-401"/>
<text text-anchor="start" x="765" y="-407.2" font-family="Helvetica,sans-Serif" font-size="11.00"> &#160;</text>
<polygon fill="#ffffff" stroke="transparent" points="776,-401 776,-419 827,-419 827,-401 776,-401"/>
<polygon fill="none" stroke="black" points="776,-401 776,-419 827,-419 827,-401 776,-401"/>
<text text-anchor="start" x="816" y="-407.2" font-family="Helvetica,sans-Serif" font-size="11.00"> &#160;</text>
</a>
</g>
</g>
<!-- syst_instance_contexts&#45;&gt;syst_application_contexts -->
<g id="edge2" class="edge">
<title>syst_instance_contexts:w&#45;&gt;syst_application_contexts:e</title>
<path fill="none" stroke="black" d="M609.74,-444.53C584.78,-430.15 595.28,-376 557.5,-376"/>
<polygon fill="black" stroke="black" points="616.23,-446.11 623.15,-451.5 620.11,-447.05 624,-448 624,-448 624,-448 620.11,-447.05 624.85,-444.5 616.23,-446.11 616.23,-446.11"/>
<ellipse fill="none" stroke="black" cx="613.12" cy="-445.35" rx="3.2" ry="3.2"/>
</g>
<!-- syst_instance_type_contexts -->
<g id="node4" class="node">
<title>syst_instance_type_contexts</title>
<g id="a_node4"><a xlink:href="../../tables/syst_instance_type_contexts.html" xlink:title="syst_instance_type_contexts" target="_top">
<polygon fill="#ffffff" stroke="transparent" points="607,-256 607,-380 845,-380 845,-256 607,-256"/>
<polygon fill="#f5f5f5" stroke="transparent" points="607,-358 607,-380 845,-380 845,-358 607,-358"/>
<polygon fill="none" stroke="black" points="607,-358 607,-380 845,-380 845,-358 607,-358"/>
<text text-anchor="start" x="612" y="-367.2" font-family="Helvetica,sans-Serif" font-weight="bold" font-size="11.00">syst_instance_type_contexts</text>
<text text-anchor="start" x="803" y="-366.2" font-family="Helvetica,sans-Serif" font-size="11.00">[table]</text>
<polygon fill="none" stroke="black" points="607,-336 607,-358 845,-358 845,-336 607,-336"/>
<image xlink:href="../../images/primaryKeys.png" width="11px" height="12px" preserveAspectRatio="xMinYMin meet" x="612" y="-353"/>
<text text-anchor="start" x="639" y="-344.2" font-family="Helvetica,sans-Serif" font-size="11.00">id</text>
<polygon fill="#ffffff" stroke="transparent" points="607,-314 607,-336 845,-336 845,-314 607,-314"/>
<polygon fill="none" stroke="black" points="607,-314 607,-336 845,-336 845,-314 607,-314"/>
<image xlink:href="../../images/foreignKeys.png" width="11px" height="12px" preserveAspectRatio="xMinYMin meet" x="612" y="-331"/>
<text text-anchor="start" x="639" y="-322.2" font-family="Helvetica,sans-Serif" font-size="11.00">instance_type_application_id</text>
<polygon fill="#ffffff" stroke="transparent" points="607,-292 607,-314 845,-314 845,-292 607,-292"/>
<polygon fill="none" stroke="black" points="607,-292 607,-314 845,-314 845,-292 607,-292"/>
<image xlink:href="../../images/foreignKeys.png" width="11px" height="12px" preserveAspectRatio="xMinYMin meet" x="612" y="-309"/>
<text text-anchor="start" x="639" y="-300.2" font-family="Helvetica,sans-Serif" font-size="11.00">application_context_id</text>
<polygon fill="none" stroke="black" points="607,-274 607,-292 845,-292 845,-274 607,-274"/>
<text text-anchor="start" x="610" y="-280.2" font-family="Helvetica,sans-Serif" font-size="11.00">...</text>
<polygon fill="#ffffff" stroke="transparent" points="607,-256 607,-274 725,-274 725,-256 607,-256"/>
<polygon fill="none" stroke="black" points="607,-256 607,-274 725,-274 725,-256 607,-256"/>
<text text-anchor="start" x="610" y="-262.2" font-family="Helvetica,sans-Serif" font-size="11.00">&lt; 2</text>
<polygon fill="#ffffff" stroke="transparent" points="725,-256 725,-274 785,-274 785,-256 725,-256"/>
<polygon fill="none" stroke="black" points="725,-256 725,-274 785,-274 785,-256 725,-256"/>
<text text-anchor="start" x="774" y="-262.2" font-family="Helvetica,sans-Serif" font-size="11.00"> &#160;</text>
<polygon fill="#ffffff" stroke="transparent" points="785,-256 785,-274 845,-274 845,-256 785,-256"/>
<polygon fill="none" stroke="black" points="785,-256 785,-274 845,-274 845,-256 785,-256"/>
<text text-anchor="start" x="834" y="-262.2" font-family="Helvetica,sans-Serif" font-size="11.00"> &#160;</text>
</a>
</g>
</g>
<!-- syst_instance_type_contexts&#45;&gt;syst_application_contexts -->
<g id="edge3" class="edge">
<title>syst_instance_type_contexts:w&#45;&gt;syst_application_contexts:e</title>
<path fill="none" stroke="black" d="M592.23,-307.79C574.57,-324.03 590.37,-376 557.5,-376"/>
<polygon fill="black" stroke="black" points="598.44,-305.63 607.18,-306.4 602.22,-304.31 606,-303 606,-303 606,-303 602.22,-304.31 604.82,-299.6 598.44,-305.63 598.44,-305.63"/>
<ellipse fill="none" stroke="black" cx="595.42" cy="-306.68" rx="3.2" ry="3.2"/>
</g>
</g>
</svg>
