<?xml version="1.0" encoding="UTF-8" standalone="no"?>
<!DOCTYPE svg PUBLIC "-//W3C//DTD SVG 1.1//EN"
 "http://www.w3.org/Graphics/SVG/1.1/DTD/svg11.dtd">
<!-- Generated by graphviz version 2.43.0 (0)
 -->
<!-- Title: oneDegreeRelationshipsDiagram Pages: 1 -->
<svg width="598pt" height="401pt"
 viewBox="0.00 0.00 598.00 401.00" xmlns="http://www.w3.org/2000/svg" xmlns:xlink="http://www.w3.org/1999/xlink">
<g id="graph0" class="graph" transform="scale(1 1) rotate(0) translate(4 397)">
<title>oneDegreeRelationshipsDiagram</title>
<polygon fill="#ffffff" stroke="transparent" points="-4,4 -4,-397 594,-397 594,4 -4,4"/>
<text text-anchor="middle" x="79.5" y="-7.2" font-family="Helvetica,sans-Serif" font-size="11.00">Generated by SchemaSpy</text>
<!-- syst_instance_network_rules -->
<g id="node1" class="node">
<title>syst_instance_network_rules</title>
<g id="a_node1"><a xlink:href="../../tables/syst_instance_network_rules.html" xlink:title="syst_instance_network_rules" target="_top">
<polygon fill="#ffffff" stroke="transparent" points="256,-37 256,-389 582,-389 582,-37 256,-37"/>
<polygon fill="#f5f5f5" stroke="transparent" points="258,-365 258,-387 580,-387 580,-365 258,-365"/>
<polygon fill="none" stroke="black" points="258,-365 258,-387 580,-387 580,-365 258,-365"/>
<text text-anchor="start" x="263" y="-374.2" font-family="Helvetica,sans-Serif" font-weight="bold" font-size="11.00">syst_instance_network_rules</text>
<text text-anchor="start" x="538" y="-373.2" font-family="Helvetica,sans-Serif" font-size="11.00">[table]</text>
<polygon fill="none" stroke="black" points="258,-343 258,-365 471,-365 471,-343 258,-343"/>
<image xlink:href="../../images/primaryKeys.png" width="11px" height="12px" preserveAspectRatio="xMinYMin meet" x="263" y="-360"/>
<text text-anchor="start" x="278" y="-351.2" font-family="Helvetica,sans-Serif" font-size="11.00">id</text>
<polygon fill="none" stroke="black" points="471,-343 471,-365 580,-365 580,-343 471,-343"/>
<text text-anchor="start" x="474" y="-351.2" font-family="Helvetica,sans-Serif" font-size="11.00">uuid[2147483647]</text>
<polygon fill="#ffffff" stroke="transparent" points="258,-321 258,-343 471,-343 471,-321 258,-321"/>
<polygon fill="none" stroke="black" points="258,-321 258,-343 471,-343 471,-321 258,-321"/>
<image xlink:href="../../images/foreignKeys.png" width="11px" height="12px" preserveAspectRatio="xMinYMin meet" x="263" y="-338"/>
<text text-anchor="start" x="278" y="-329.2" font-family="Helvetica,sans-Serif" font-size="11.00">instance_id</text>
<polygon fill="none" stroke="black" points="471,-321 471,-343 580,-343 580,-321 471,-321"/>
<text text-anchor="start" x="474" y="-329.2" font-family="Helvetica,sans-Serif" font-size="11.00">uuid[2147483647]</text>
<polygon fill="#ffffff" stroke="transparent" points="258,-299 258,-321 471,-321 471,-299 258,-299"/>
<polygon fill="none" stroke="black" points="258,-299 258,-321 471,-321 471,-299 258,-299"/>
<text text-anchor="start" x="278" y="-307.2" font-family="Helvetica,sans-Serif" font-size="11.00">ordering</text>
<polygon fill="none" stroke="black" points="471,-299 471,-321 580,-321 580,-299 471,-299"/>
<text text-anchor="start" x="474" y="-307.2" font-family="Helvetica,sans-Serif" font-size="11.00">int4[10]</text>
<polygon fill="none" stroke="black" points="258,-277 258,-299 471,-299 471,-277 258,-277"/>
<text text-anchor="start" x="278" y="-285.2" font-family="Helvetica,sans-Serif" font-size="11.00">functional_type</text>
<polygon fill="none" stroke="black" points="471,-277 471,-299 580,-299 580,-277 471,-277"/>
<text text-anchor="start" x="474" y="-285.2" font-family="Helvetica,sans-Serif" font-size="11.00">text[2147483647]</text>
<polygon fill="none" stroke="black" points="258,-255 258,-277 471,-277 471,-255 258,-255"/>
<text text-anchor="start" x="278" y="-263.2" font-family="Helvetica,sans-Serif" font-size="11.00">ip_host_or_network</text>
<polygon fill="none" stroke="black" points="471,-255 471,-277 580,-277 580,-255 471,-255"/>
<text text-anchor="start" x="474" y="-263.2" font-family="Helvetica,sans-Serif" font-size="11.00">inet[2147483647]</text>
<polygon fill="none" stroke="black" points="258,-233 258,-255 471,-255 471,-233 258,-233"/>
<text text-anchor="start" x="278" y="-241.2" font-family="Helvetica,sans-Serif" font-size="11.00">ip_host_range_lower</text>
<polygon fill="none" stroke="black" points="471,-233 471,-255 580,-255 580,-233 471,-233"/>
<text text-anchor="start" x="474" y="-241.2" font-family="Helvetica,sans-Serif" font-size="11.00">inet[2147483647]</text>
<polygon fill="none" stroke="black" points="258,-211 258,-233 471,-233 471,-211 258,-211"/>
<text text-anchor="start" x="278" y="-219.2" font-family="Helvetica,sans-Serif" font-size="11.00">ip_host_range_upper</text>
<polygon fill="none" stroke="black" points="471,-211 471,-233 580,-233 580,-211 471,-211"/>
<text text-anchor="start" x="474" y="-219.2" font-family="Helvetica,sans-Serif" font-size="11.00">inet[2147483647]</text>
<polygon fill="none" stroke="black" points="258,-189 258,-211 471,-211 471,-189 258,-189"/>
<text text-anchor="start" x="278" y="-197.2" font-family="Helvetica,sans-Serif" font-size="11.00">diag_timestamp_created</text>
<polygon fill="none" stroke="black" points="471,-189 471,-211 580,-211 580,-189 471,-189"/>
<text text-anchor="start" x="474" y="-197.2" font-family="Helvetica,sans-Serif" font-size="11.00">timestamptz[35,6]</text>
<polygon fill="none" stroke="black" points="258,-167 258,-189 471,-189 471,-167 258,-167"/>
<text text-anchor="start" x="278" y="-175.2" font-family="Helvetica,sans-Serif" font-size="11.00">diag_role_created</text>
<polygon fill="none" stroke="black" points="471,-167 471,-189 580,-189 580,-167 471,-167"/>
<text text-anchor="start" x="474" y="-175.2" font-family="Helvetica,sans-Serif" font-size="11.00">text[2147483647]</text>
<polygon fill="none" stroke="black" points="258,-145 258,-167 471,-167 471,-145 258,-145"/>
<text text-anchor="start" x="278" y="-153.2" font-family="Helvetica,sans-Serif" font-size="11.00">diag_timestamp_modified</text>
<polygon fill="none" stroke="black" points="471,-145 471,-167 580,-167 580,-145 471,-145"/>
<text text-anchor="start" x="474" y="-153.2" font-family="Helvetica,sans-Serif" font-size="11.00">timestamptz[35,6]</text>
<polygon fill="none" stroke="black" points="258,-123 258,-145 471,-145 471,-123 258,-123"/>
<text text-anchor="start" x="278" y="-131.2" font-family="Helvetica,sans-Serif" font-size="11.00">diag_wallclock_modified</text>
<polygon fill="none" stroke="black" points="471,-123 471,-145 580,-145 580,-123 471,-123"/>
<text text-anchor="start" x="474" y="-131.2" font-family="Helvetica,sans-Serif" font-size="11.00">timestamptz[35,6]</text>
<polygon fill="none" stroke="black" points="258,-101 258,-123 471,-123 471,-101 258,-101"/>
<text text-anchor="start" x="278" y="-109.2" font-family="Helvetica,sans-Serif" font-size="11.00">diag_role_modified</text>
<polygon fill="none" stroke="black" points="471,-101 471,-123 580,-123 580,-101 471,-101"/>
<text text-anchor="start" x="474" y="-109.2" font-family="Helvetica,sans-Serif" font-size="11.00">text[2147483647]</text>
<polygon fill="none" stroke="black" points="258,-79 258,-101 471,-101 471,-79 258,-79"/>
<text text-anchor="start" x="278" y="-87.2" font-family="Helvetica,sans-Serif" font-size="11.00">diag_row_version</text>
<polygon fill="none" stroke="black" points="471,-79 471,-101 580,-101 580,-79 471,-79"/>
<text text-anchor="start" x="474" y="-87.2" font-family="Helvetica,sans-Serif" font-size="11.00">int8[19]</text>
<polygon fill="none" stroke="black" points="258,-57 258,-79 471,-79 471,-57 258,-57"/>
<text text-anchor="start" x="278" y="-65.2" font-family="Helvetica,sans-Serif" font-size="11.00">diag_update_count</text>
<polygon fill="none" stroke="black" points="471,-57 471,-79 580,-79 580,-57 471,-57"/>
<text text-anchor="start" x="474" y="-65.2" font-family="Helvetica,sans-Serif" font-size="11.00">int8[19]</text>
<polygon fill="#ffffff" stroke="transparent" points="258,-39 258,-57 370,-57 370,-39 258,-39"/>
<polygon fill="none" stroke="black" points="258,-39 258,-57 370,-57 370,-39 258,-39"/>
<text text-anchor="start" x="261" y="-45.2" font-family="Helvetica,sans-Serif" font-size="11.00">&lt; 1</text>
<polygon fill="#ffffff" stroke="transparent" points="370,-39 370,-57 471,-57 471,-39 370,-39"/>
<polygon fill="none" stroke="black" points="370,-39 370,-57 471,-57 471,-39 370,-39"/>
<text text-anchor="start" x="460" y="-45.2" font-family="Helvetica,sans-Serif" font-size="11.00"> &#160;</text>
<polygon fill="#ffffff" stroke="transparent" points="471,-39 471,-57 580,-57 580,-39 471,-39"/>
<polygon fill="none" stroke="black" points="471,-39 471,-57 580,-57 580,-39 471,-39"/>
<text text-anchor="start" x="557" y="-45.2" font-family="Helvetica,sans-Serif" font-size="11.00">0 &gt;</text>
<polygon fill="none" stroke="black" stroke-width="2" points="257,-38 257,-388 581,-388 581,-38 257,-38"/>
</a>
</g>
</g>
<!-- syst_instances -->
<g id="node2" class="node">
<title>syst_instances</title>
<g id="a_node2"><a xlink:href="../../tables/syst_instances.html" xlink:title="syst_instances" target="_top">
<polygon fill="#ffffff" stroke="transparent" points="8,-131 8,-365 207,-365 207,-131 8,-131"/>
<polygon fill="#f5f5f5" stroke="transparent" points="8.5,-343 8.5,-365 207.5,-365 207.5,-343 8.5,-343"/>
<polygon fill="none" stroke="black" points="8.5,-343 8.5,-365 207.5,-365 207.5,-343 8.5,-343"/>
<text text-anchor="start" x="13.5" y="-352.2" font-family="Helvetica,sans-Serif" font-weight="bold" font-size="11.00">syst_instances</text>
<text text-anchor="start" x="165.5" y="-351.2" font-family="Helvetica,sans-Serif" font-size="11.00">[table]</text>
<polygon fill="none" stroke="black" points="8.5,-321 8.5,-343 207.5,-343 207.5,-321 8.5,-321"/>
<image xlink:href="../../images/primaryKeys.png" width="11px" height="12px" preserveAspectRatio="xMinYMin meet" x="13.5" y="-338"/>
<text text-anchor="start" x="28.5" y="-329.2" font-family="Helvetica,sans-Serif" font-size="11.00">id</text>
<polygon fill="#ffffff" stroke="transparent" points="8.5,-299 8.5,-321 207.5,-321 207.5,-299 8.5,-299"/>
<polygon fill="none" stroke="black" points="8.5,-299 8.5,-321 207.5,-321 207.5,-299 8.5,-299"/>
<text text-anchor="start" x="28.5" y="-307.2" font-family="Helvetica,sans-Serif" font-size="11.00">internal_name</text>
<polygon fill="#ffffff" stroke="transparent" points="8.5,-277 8.5,-299 207.5,-299 207.5,-277 8.5,-277"/>
<polygon fill="none" stroke="black" points="8.5,-277 8.5,-299 207.5,-299 207.5,-277 8.5,-277"/>
<text text-anchor="start" x="28.5" y="-285.2" font-family="Helvetica,sans-Serif" font-size="11.00">display_name</text>
<polygon fill="none" stroke="black" points="8.5,-255 8.5,-277 207.5,-277 207.5,-255 8.5,-255"/>
<image xlink:href="../../images/foreignKeys.png" width="11px" height="12px" preserveAspectRatio="xMinYMin meet" x="13.5" y="-272"/>
<text text-anchor="start" x="28.5" y="-263.2" font-family="Helvetica,sans-Serif" font-size="11.00">application_id</text>
<polygon fill="none" stroke="black" points="8.5,-233 8.5,-255 207.5,-255 207.5,-233 8.5,-233"/>
<image xlink:href="../../images/foreignKeys.png" width="11px" height="12px" preserveAspectRatio="xMinYMin meet" x="13.5" y="-250"/>
<text text-anchor="start" x="28.5" y="-241.2" font-family="Helvetica,sans-Serif" font-size="11.00">instance_type_id</text>
<polygon fill="none" stroke="black" points="8.5,-211 8.5,-233 207.5,-233 207.5,-211 8.5,-211"/>
<image xlink:href="../../images/foreignKeys.png" width="11px" height="12px" preserveAspectRatio="xMinYMin meet" x="13.5" y="-228"/>
<text text-anchor="start" x="28.5" y="-219.2" font-family="Helvetica,sans-Serif" font-size="11.00">instance_lifecycle_state_id</text>
<polygon fill="none" stroke="black" points="8.5,-189 8.5,-211 207.5,-211 207.5,-189 8.5,-189"/>
<image xlink:href="../../images/foreignKeys.png" width="11px" height="12px" preserveAspectRatio="xMinYMin meet" x="13.5" y="-206"/>
<text text-anchor="start" x="28.5" y="-197.2" font-family="Helvetica,sans-Serif" font-size="11.00">owner_id</text>
<polygon fill="none" stroke="black" points="8.5,-167 8.5,-189 207.5,-189 207.5,-167 8.5,-167"/>
<image xlink:href="../../images/foreignKeys.png" width="11px" height="12px" preserveAspectRatio="xMinYMin meet" x="13.5" y="-184"/>
<text text-anchor="start" x="28.5" y="-175.2" font-family="Helvetica,sans-Serif" font-size="11.00">owning_instance_id</text>
<polygon fill="none" stroke="black" points="8.5,-149 8.5,-167 207.5,-167 207.5,-149 8.5,-149"/>
<text text-anchor="start" x="11.5" y="-155.2" font-family="Helvetica,sans-Serif" font-size="11.00">...</text>
<polygon fill="#ffffff" stroke="transparent" points="8.5,-131 8.5,-149 100.5,-149 100.5,-131 8.5,-131"/>
<polygon fill="none" stroke="black" points="8.5,-131 8.5,-149 100.5,-149 100.5,-131 8.5,-131"/>
<text text-anchor="start" x="11.5" y="-137.2" font-family="Helvetica,sans-Serif" font-size="11.00">&lt; 5</text>
<polygon fill="#ffffff" stroke="transparent" points="100.5,-131 100.5,-149 147.5,-149 147.5,-131 100.5,-131"/>
<polygon fill="none" stroke="black" points="100.5,-131 100.5,-149 147.5,-149 147.5,-131 100.5,-131"/>
<text text-anchor="start" x="136.5" y="-137.2" font-family="Helvetica,sans-Serif" font-size="11.00"> &#160;</text>
<polygon fill="#ffffff" stroke="transparent" points="147.5,-131 147.5,-149 207.5,-149 207.5,-131 147.5,-131"/>
<polygon fill="none" stroke="black" points="147.5,-131 147.5,-149 207.5,-149 207.5,-131 147.5,-131"/>
<text text-anchor="start" x="184.5" y="-137.2" font-family="Helvetica,sans-Serif" font-size="11.00">4 &gt;</text>
</a>
</g>
</g>
<!-- syst_instance_network_rules&#45;&gt;syst_instances -->
<g id="edge1" class="edge">
<title>syst_instance_network_rules:w&#45;&gt;syst_instances:e</title>
<path fill="none" stroke="black" d="M242.28,-332C231.29,-332 224.16,-332 208.5,-332"/>
<polygon fill="black" stroke="black" points="249,-332 257,-335.6 253,-332 257,-332 257,-332 257,-332 253,-332 257,-328.4 249,-332 249,-332"/>
<ellipse fill="none" stroke="black" cx="245.8" cy="-332" rx="3.2" ry="3.2"/>
</g>
</g>
</svg>
