<?xml version="1.0" encoding="UTF-8" standalone="no"?>
<!DOCTYPE svg PUBLIC "-//W3C//DTD SVG 1.1//EN"
 "http://www.w3.org/Graphics/SVG/1.1/DTD/svg11.dtd">
<!-- Generated by graphviz version 2.43.0 (0)
 -->
<!-- Title: twoDegreesRelationshipsDiagram Pages: 1 -->
<svg width="1718pt" height="833pt"
 viewBox="0.00 0.00 1718.00 833.00" xmlns="http://www.w3.org/2000/svg" xmlns:xlink="http://www.w3.org/1999/xlink">
<g id="graph0" class="graph" transform="scale(1 1) rotate(0) translate(4 829)">
<title>twoDegreesRelationshipsDiagram</title>
<polygon fill="#ffffff" stroke="transparent" points="-4,4 -4,-829 1714,-829 1714,4 -4,4"/>
<text text-anchor="middle" x="71.5" y="-7.2" font-family="Helvetica,sans-Serif" font-size="11.00">Generated by SchemaSpy</text>
<!-- syst_access_account_instance_assocs -->
<g id="node1" class="node">
<title>syst_access_account_instance_assocs</title>
<g id="a_node1"><a xlink:href="../../tables/syst_access_account_instance_assocs.html" xlink:title="syst_access_account_instance_assocs" target="_top">
<polygon fill="#ffffff" stroke="transparent" points="1204,-763 1204,-821 1496,-821 1496,-763 1204,-763"/>
<polygon fill="#f5f5f5" stroke="transparent" points="1204,-799 1204,-821 1496,-821 1496,-799 1204,-799"/>
<polygon fill="none" stroke="black" points="1204,-799 1204,-821 1496,-821 1496,-799 1204,-799"/>
<text text-anchor="start" x="1209" y="-808.2" font-family="Helvetica,sans-Serif" font-weight="bold" font-size="11.00">syst_access_account_instance_assocs</text>
<text text-anchor="start" x="1461" y="-807.2" font-family="Helvetica,sans-Serif" font-size="11.00">[table]</text>
<polygon fill="none" stroke="black" points="1204,-781 1204,-799 1496,-799 1496,-781 1204,-781"/>
<text text-anchor="start" x="1207" y="-787.2" font-family="Helvetica,sans-Serif" font-size="11.00">...</text>
<polygon fill="#ffffff" stroke="transparent" points="1204,-763 1204,-781 1348,-781 1348,-763 1204,-763"/>
<polygon fill="none" stroke="black" points="1204,-763 1204,-781 1348,-781 1348,-763 1204,-763"/>
<text text-anchor="start" x="1207" y="-769.2" font-family="Helvetica,sans-Serif" font-size="11.00">&lt; 2</text>
<polygon fill="#ffffff" stroke="transparent" points="1348,-763 1348,-781 1422,-781 1422,-763 1348,-763"/>
<polygon fill="none" stroke="black" points="1348,-763 1348,-781 1422,-781 1422,-763 1348,-763"/>
<text text-anchor="start" x="1412" y="-769.2" font-family="Helvetica,sans-Serif" font-size="11.00"> &#160;</text>
<polygon fill="#ffffff" stroke="transparent" points="1422,-763 1422,-781 1496,-781 1496,-763 1422,-763"/>
<polygon fill="none" stroke="black" points="1422,-763 1422,-781 1496,-781 1496,-763 1422,-763"/>
<text text-anchor="start" x="1486" y="-769.2" font-family="Helvetica,sans-Serif" font-size="11.00"> &#160;</text>
</a>
</g>
</g>
<!-- syst_access_accounts -->
<g id="node2" class="node">
<title>syst_access_accounts</title>
<g id="a_node2"><a xlink:href="../../tables/syst_access_accounts.html" xlink:title="syst_access_accounts" target="_top">
<polygon fill="#ffffff" stroke="transparent" points="962,-576 962,-634 1147,-634 1147,-576 962,-576"/>
<polygon fill="#f5f5f5" stroke="transparent" points="962.5,-612 962.5,-634 1147.5,-634 1147.5,-612 962.5,-612"/>
<polygon fill="none" stroke="black" points="962.5,-612 962.5,-634 1147.5,-634 1147.5,-612 962.5,-612"/>
<text text-anchor="start" x="967.5" y="-621.2" font-family="Helvetica,sans-Serif" font-weight="bold" font-size="11.00">syst_access_accounts</text>
<text text-anchor="start" x="1112.5" y="-620.2" font-family="Helvetica,sans-Serif" font-size="11.00">[table]</text>
<polygon fill="none" stroke="black" points="962.5,-594 962.5,-612 1147.5,-612 1147.5,-594 962.5,-594"/>
<text text-anchor="start" x="965.5" y="-600.2" font-family="Helvetica,sans-Serif" font-size="11.00">...</text>
<polygon fill="#ffffff" stroke="transparent" points="962.5,-576 962.5,-594 1048.5,-594 1048.5,-576 962.5,-576"/>
<polygon fill="none" stroke="black" points="962.5,-576 962.5,-594 1048.5,-594 1048.5,-576 962.5,-576"/>
<text text-anchor="start" x="965.5" y="-582.2" font-family="Helvetica,sans-Serif" font-size="11.00">&lt; 2</text>
<polygon fill="#ffffff" stroke="transparent" points="1048.5,-576 1048.5,-594 1093.5,-594 1093.5,-576 1048.5,-576"/>
<polygon fill="none" stroke="black" points="1048.5,-576 1048.5,-594 1093.5,-594 1093.5,-576 1048.5,-576"/>
<text text-anchor="start" x="1083.5" y="-582.2" font-family="Helvetica,sans-Serif" font-size="11.00"> &#160;</text>
<polygon fill="#ffffff" stroke="transparent" points="1093.5,-576 1093.5,-594 1147.5,-594 1147.5,-576 1093.5,-576"/>
<polygon fill="none" stroke="black" points="1093.5,-576 1093.5,-594 1147.5,-594 1147.5,-576 1093.5,-576"/>
<text text-anchor="start" x="1128.5" y="-582.2" font-family="Helvetica,sans-Serif" font-size="11.00">5 &gt;</text>
</a>
</g>
</g>
<!-- syst_access_account_instance_assocs&#45;&gt;syst_access_accounts -->
<g id="edge1" class="edge">
<title>syst_access_account_instance_assocs:w&#45;&gt;syst_access_accounts:e</title>
<path fill="none" stroke="black" d="M1188.58,-788.07C1145.38,-774.36 1197.05,-690.81 1155,-645 1152.73,-642.53 1150.29,-640.21 1147.72,-638.03"/>
<polygon fill="black" stroke="black" points="1195.07,-788.94 1202.52,-793.57 1199.04,-789.47 1203,-790 1203,-790 1203,-790 1199.04,-789.47 1203.48,-786.43 1195.07,-788.94 1195.07,-788.94"/>
<ellipse fill="none" stroke="black" cx="1191.9" cy="-788.52" rx="3.2" ry="3.2"/>
</g>
<!-- syst_instances -->
<g id="node3" class="node">
<title>syst_instances</title>
<g id="a_node3"><a xlink:href="../../tables/syst_instances.html" xlink:title="syst_instances" target="_top">
<polygon fill="#ffffff" stroke="transparent" points="985.5,-655 985.5,-713 1123.5,-713 1123.5,-655 985.5,-655"/>
<polygon fill="#f5f5f5" stroke="transparent" points="985.5,-691 985.5,-713 1123.5,-713 1123.5,-691 985.5,-691"/>
<polygon fill="none" stroke="black" points="985.5,-691 985.5,-713 1123.5,-713 1123.5,-691 985.5,-691"/>
<text text-anchor="start" x="990.5" y="-700.2" font-family="Helvetica,sans-Serif" font-weight="bold" font-size="11.00">syst_instances</text>
<text text-anchor="start" x="1088.5" y="-699.2" font-family="Helvetica,sans-Serif" font-size="11.00">[table]</text>
<polygon fill="none" stroke="black" points="985.5,-673 985.5,-691 1123.5,-691 1123.5,-673 985.5,-673"/>
<text text-anchor="start" x="988.5" y="-679.2" font-family="Helvetica,sans-Serif" font-size="11.00">...</text>
<polygon fill="#ffffff" stroke="transparent" points="985.5,-655 985.5,-673 1047.5,-673 1047.5,-655 985.5,-655"/>
<polygon fill="none" stroke="black" points="985.5,-655 985.5,-673 1047.5,-673 1047.5,-655 985.5,-655"/>
<text text-anchor="start" x="988.5" y="-661.2" font-family="Helvetica,sans-Serif" font-size="11.00">&lt; 5</text>
<polygon fill="#ffffff" stroke="transparent" points="1047.5,-655 1047.5,-673 1080.5,-673 1080.5,-655 1047.5,-655"/>
<polygon fill="none" stroke="black" points="1047.5,-655 1047.5,-673 1080.5,-673 1080.5,-655 1047.5,-655"/>
<text text-anchor="start" x="1070.5" y="-661.2" font-family="Helvetica,sans-Serif" font-size="11.00"> &#160;</text>
<polygon fill="#ffffff" stroke="transparent" points="1080.5,-655 1080.5,-673 1123.5,-673 1123.5,-655 1080.5,-655"/>
<polygon fill="none" stroke="black" points="1080.5,-655 1080.5,-673 1123.5,-673 1123.5,-655 1080.5,-655"/>
<text text-anchor="start" x="1104.5" y="-661.2" font-family="Helvetica,sans-Serif" font-size="11.00">4 &gt;</text>
</a>
</g>
</g>
<!-- syst_access_account_instance_assocs&#45;&gt;syst_instances -->
<g id="edge2" class="edge">
<title>syst_access_account_instance_assocs:w&#45;&gt;syst_instances:e</title>
<path fill="none" stroke="black" d="M1188.77,-787.33C1150.32,-770.7 1178.28,-682 1124.5,-682"/>
<polygon fill="black" stroke="black" points="1195.14,-788.52 1202.34,-793.54 1199.07,-789.26 1203,-790 1203,-790 1203,-790 1199.07,-789.26 1203.66,-786.46 1195.14,-788.52 1195.14,-788.52"/>
<ellipse fill="none" stroke="black" cx="1191.99" cy="-787.93" rx="3.2" ry="3.2"/>
</g>
<!-- syst_enum_items -->
<g id="node5" class="node">
<title>syst_enum_items</title>
<g id="a_node5"><a xlink:href="../../tables/syst_enum_items.html" xlink:title="syst_enum_items" target="_top">
<polygon fill="#ffffff" stroke="transparent" points="453,-529 453,-587 608,-587 608,-529 453,-529"/>
<polygon fill="#f5f5f5" stroke="transparent" points="453.5,-565 453.5,-587 608.5,-587 608.5,-565 453.5,-565"/>
<polygon fill="none" stroke="black" points="453.5,-565 453.5,-587 608.5,-587 608.5,-565 453.5,-565"/>
<text text-anchor="start" x="458.5" y="-574.2" font-family="Helvetica,sans-Serif" font-weight="bold" font-size="11.00">syst_enum_items</text>
<text text-anchor="start" x="573.5" y="-573.2" font-family="Helvetica,sans-Serif" font-size="11.00">[table]</text>
<polygon fill="none" stroke="black" points="453.5,-547 453.5,-565 608.5,-565 608.5,-547 453.5,-547"/>
<text text-anchor="start" x="456.5" y="-553.2" font-family="Helvetica,sans-Serif" font-size="11.00">...</text>
<polygon fill="#ffffff" stroke="transparent" points="453.5,-529 453.5,-547 524.5,-547 524.5,-529 453.5,-529"/>
<polygon fill="none" stroke="black" points="453.5,-529 453.5,-547 524.5,-547 524.5,-529 453.5,-529"/>
<text text-anchor="start" x="456.5" y="-535.2" font-family="Helvetica,sans-Serif" font-size="11.00">&lt; 2</text>
<polygon fill="#ffffff" stroke="transparent" points="524.5,-529 524.5,-547 561.5,-547 561.5,-529 524.5,-529"/>
<polygon fill="none" stroke="black" points="524.5,-529 524.5,-547 561.5,-547 561.5,-529 524.5,-529"/>
<text text-anchor="start" x="551.5" y="-535.2" font-family="Helvetica,sans-Serif" font-size="11.00"> &#160;</text>
<polygon fill="#ffffff" stroke="transparent" points="561.5,-529 561.5,-547 608.5,-547 608.5,-529 561.5,-529"/>
<polygon fill="none" stroke="black" points="561.5,-529 561.5,-547 608.5,-547 608.5,-529 561.5,-529"/>
<text text-anchor="start" x="589.5" y="-535.2" font-family="Helvetica,sans-Serif" font-size="11.00">7 &gt;</text>
</a>
</g>
</g>
<!-- syst_access_accounts&#45;&gt;syst_enum_items -->
<g id="edge4" class="edge">
<title>syst_access_accounts:w&#45;&gt;syst_enum_items:e</title>
<path fill="none" stroke="black" d="M939.57,-575.03C933.31,-573.88 927.09,-572.86 921,-572 816.81,-557.32 695.48,-555.31 616.28,-555.99"/>
<polygon fill="black" stroke="black" points="945.88,-576.27 953.04,-581.34 949.81,-577.04 953.73,-577.81 953.73,-577.81 953.73,-577.81 949.81,-577.04 954.43,-574.28 945.88,-576.27 945.88,-576.27"/>
<ellipse fill="none" stroke="black" cx="942.74" cy="-575.65" rx="3.2" ry="3.2"/>
</g>
<!-- syst_owners -->
<g id="node6" class="node">
<title>syst_owners</title>
<g id="a_node6"><a xlink:href="../../tables/syst_owners.html" xlink:title="syst_owners" target="_top">
<polygon fill="#ffffff" stroke="transparent" points="724,-582 724,-640 846,-640 846,-582 724,-582"/>
<polygon fill="#f5f5f5" stroke="transparent" points="724,-618 724,-640 846,-640 846,-618 724,-618"/>
<polygon fill="none" stroke="black" points="724,-618 724,-640 846,-640 846,-618 724,-618"/>
<text text-anchor="start" x="729" y="-627.2" font-family="Helvetica,sans-Serif" font-weight="bold" font-size="11.00">syst_owners</text>
<text text-anchor="start" x="811" y="-626.2" font-family="Helvetica,sans-Serif" font-size="11.00">[table]</text>
<polygon fill="none" stroke="black" points="724,-600 724,-618 846,-618 846,-600 724,-600"/>
<text text-anchor="start" x="727" y="-606.2" font-family="Helvetica,sans-Serif" font-size="11.00">...</text>
<polygon fill="#ffffff" stroke="transparent" points="724,-582 724,-600 778,-600 778,-582 724,-582"/>
<polygon fill="none" stroke="black" points="724,-582 724,-600 778,-600 778,-582 724,-582"/>
<text text-anchor="start" x="727" y="-588.2" font-family="Helvetica,sans-Serif" font-size="11.00">&lt; 1</text>
<polygon fill="#ffffff" stroke="transparent" points="778,-582 778,-600 807,-600 807,-582 778,-582"/>
<polygon fill="none" stroke="black" points="778,-582 778,-600 807,-600 807,-582 778,-582"/>
<text text-anchor="start" x="797" y="-588.2" font-family="Helvetica,sans-Serif" font-size="11.00"> &#160;</text>
<polygon fill="#ffffff" stroke="transparent" points="807,-582 807,-600 846,-600 846,-582 807,-582"/>
<polygon fill="none" stroke="black" points="807,-582 807,-600 846,-600 846,-582 807,-582"/>
<text text-anchor="start" x="827" y="-588.2" font-family="Helvetica,sans-Serif" font-size="11.00">4 &gt;</text>
</a>
</g>
</g>
<!-- syst_access_accounts&#45;&gt;syst_owners -->
<g id="edge5" class="edge">
<title>syst_access_accounts:w&#45;&gt;syst_owners:e</title>
<path fill="none" stroke="black" d="M939.44,-608C909.38,-608.57 876.97,-609 847,-609"/>
<polygon fill="black" stroke="black" points="945.99,-607.87 954.06,-611.31 949.99,-607.79 953.99,-607.71 953.99,-607.71 953.99,-607.71 949.99,-607.79 953.92,-604.11 945.99,-607.87 945.99,-607.87"/>
<ellipse fill="none" stroke="black" cx="942.79" cy="-607.93" rx="3.2" ry="3.2"/>
</g>
<!-- syst_instances&#45;&gt;syst_enum_items -->
<g id="edge16" class="edge">
<title>syst_instances:w&#45;&gt;syst_enum_items:e</title>
<path fill="none" stroke="black" d="M969.92,-681.5C831.55,-677.55 783.4,-698.81 649,-645 618.69,-632.86 589.86,-610.28 568.34,-591.11"/>
<polygon fill="black" stroke="black" points="976.5,-681.73 984.38,-685.6 980.5,-681.86 984.5,-682 984.5,-682 984.5,-682 980.5,-681.86 984.62,-678.4 976.5,-681.73 976.5,-681.73"/>
<ellipse fill="none" stroke="black" cx="973.31" cy="-681.62" rx="3.2" ry="3.2"/>
</g>
<!-- syst_instances&#45;&gt;syst_enum_items -->
<g id="edge17" class="edge">
<title>syst_instances:w&#45;&gt;syst_enum_items:e</title>
<path fill="none" stroke="black" d="M969.92,-682.75C831.55,-690.55 783.4,-711.81 649,-658 613.01,-643.59 579.11,-614.45 557.06,-591.23"/>
<polygon fill="black" stroke="black" points="976.51,-682.41 984.69,-685.6 980.51,-682.21 984.5,-682 984.5,-682 984.5,-682 980.51,-682.21 984.31,-678.4 976.51,-682.41 976.51,-682.41"/>
<ellipse fill="none" stroke="black" cx="973.31" cy="-682.58" rx="3.2" ry="3.2"/>
</g>
<!-- syst_instances&#45;&gt;syst_owners -->
<g id="edge18" class="edge">
<title>syst_instances:w&#45;&gt;syst_owners:e</title>
<path fill="none" stroke="black" d="M969.85,-680.79C915.04,-671.3 910.92,-609 847,-609"/>
<polygon fill="black" stroke="black" points="976.53,-681.34 984.2,-685.59 980.51,-681.67 984.5,-682 984.5,-682 984.5,-682 980.51,-681.67 984.8,-678.41 976.53,-681.34 976.53,-681.34"/>
<ellipse fill="none" stroke="black" cx="973.34" cy="-681.08" rx="3.2" ry="3.2"/>
</g>
<!-- syst_access_account_perm_role_assigns -->
<g id="node4" class="node">
<title>syst_access_account_perm_role_assigns</title>
<g id="a_node4"><a xlink:href="../../tables/syst_access_account_perm_role_assigns.html" xlink:title="syst_access_account_perm_role_assigns" target="_top">
<polygon fill="#ffffff" stroke="transparent" points="1196,-684 1196,-742 1504,-742 1504,-684 1196,-684"/>
<polygon fill="#f5f5f5" stroke="transparent" points="1196,-720 1196,-742 1504,-742 1504,-720 1196,-720"/>
<polygon fill="none" stroke="black" points="1196,-720 1196,-742 1504,-742 1504,-720 1196,-720"/>
<text text-anchor="start" x="1201" y="-729.2" font-family="Helvetica,sans-Serif" font-weight="bold" font-size="11.00">syst_access_account_perm_role_assigns</text>
<text text-anchor="start" x="1469" y="-728.2" font-family="Helvetica,sans-Serif" font-size="11.00">[table]</text>
<polygon fill="none" stroke="black" points="1196,-702 1196,-720 1504,-720 1504,-702 1196,-702"/>
<text text-anchor="start" x="1199" y="-708.2" font-family="Helvetica,sans-Serif" font-size="11.00">...</text>
<polygon fill="#ffffff" stroke="transparent" points="1196,-684 1196,-702 1348,-702 1348,-684 1196,-684"/>
<polygon fill="none" stroke="black" points="1196,-684 1196,-702 1348,-702 1348,-684 1196,-684"/>
<text text-anchor="start" x="1199" y="-690.2" font-family="Helvetica,sans-Serif" font-size="11.00">&lt; 2</text>
<polygon fill="#ffffff" stroke="transparent" points="1348,-684 1348,-702 1426,-702 1426,-684 1348,-684"/>
<polygon fill="none" stroke="black" points="1348,-684 1348,-702 1426,-702 1426,-684 1348,-684"/>
<text text-anchor="start" x="1416" y="-690.2" font-family="Helvetica,sans-Serif" font-size="11.00"> &#160;</text>
<polygon fill="#ffffff" stroke="transparent" points="1426,-684 1426,-702 1504,-702 1504,-684 1426,-684"/>
<polygon fill="none" stroke="black" points="1426,-684 1426,-702 1504,-702 1504,-684 1426,-684"/>
<text text-anchor="start" x="1494" y="-690.2" font-family="Helvetica,sans-Serif" font-size="11.00"> &#160;</text>
</a>
</g>
</g>
<!-- syst_access_account_perm_role_assigns&#45;&gt;syst_access_accounts -->
<g id="edge3" class="edge">
<title>syst_access_account_perm_role_assigns:w&#45;&gt;syst_access_accounts:e</title>
<path fill="none" stroke="black" d="M1180.81,-706.81C1166.73,-695.34 1176.24,-663.04 1155,-645 1152.16,-642.59 1149.16,-640.31 1146.04,-638.16"/>
<polygon fill="black" stroke="black" points="1187.33,-708.74 1193.98,-714.45 1191.16,-709.87 1195,-711 1195,-711 1195,-711 1191.16,-709.87 1196.02,-707.55 1187.33,-708.74 1187.33,-708.74"/>
<ellipse fill="none" stroke="black" cx="1184.26" cy="-707.83" rx="3.2" ry="3.2"/>
</g>
<!-- syst_enum_functional_types -->
<g id="node9" class="node">
<title>syst_enum_functional_types</title>
<g id="a_node9"><a xlink:href="../../tables/syst_enum_functional_types.html" xlink:title="syst_enum_functional_types" target="_top">
<polygon fill="#ffffff" stroke="transparent" points="175,-504 175,-562 404,-562 404,-504 175,-504"/>
<polygon fill="#f5f5f5" stroke="transparent" points="175.5,-540 175.5,-562 404.5,-562 404.5,-540 175.5,-540"/>
<polygon fill="none" stroke="black" points="175.5,-540 175.5,-562 404.5,-562 404.5,-540 175.5,-540"/>
<text text-anchor="start" x="180.5" y="-549.2" font-family="Helvetica,sans-Serif" font-weight="bold" font-size="11.00">syst_enum_functional_types</text>
<text text-anchor="start" x="369.5" y="-548.2" font-family="Helvetica,sans-Serif" font-size="11.00">[table]</text>
<polygon fill="none" stroke="black" points="175.5,-522 175.5,-540 404.5,-540 404.5,-522 175.5,-522"/>
<text text-anchor="start" x="178.5" y="-528.2" font-family="Helvetica,sans-Serif" font-size="11.00">...</text>
<polygon fill="#ffffff" stroke="transparent" points="175.5,-504 175.5,-522 283.5,-522 283.5,-504 175.5,-504"/>
<polygon fill="none" stroke="black" points="175.5,-504 175.5,-522 283.5,-522 283.5,-504 175.5,-504"/>
<text text-anchor="start" x="178.5" y="-510.2" font-family="Helvetica,sans-Serif" font-size="11.00">&lt; 1</text>
<polygon fill="#ffffff" stroke="transparent" points="283.5,-504 283.5,-522 339.5,-522 339.5,-504 283.5,-504"/>
<polygon fill="none" stroke="black" points="283.5,-504 283.5,-522 339.5,-522 339.5,-504 283.5,-504"/>
<text text-anchor="start" x="329.5" y="-510.2" font-family="Helvetica,sans-Serif" font-size="11.00"> &#160;</text>
<polygon fill="#ffffff" stroke="transparent" points="339.5,-504 339.5,-522 404.5,-522 404.5,-504 339.5,-504"/>
<polygon fill="none" stroke="black" points="339.5,-504 339.5,-522 404.5,-522 404.5,-504 339.5,-504"/>
<text text-anchor="start" x="385.5" y="-510.2" font-family="Helvetica,sans-Serif" font-size="11.00">1 &gt;</text>
</a>
</g>
</g>
<!-- syst_enum_items&#45;&gt;syst_enum_functional_types -->
<g id="edge11" class="edge">
<title>syst_enum_items:w&#45;&gt;syst_enum_functional_types:e</title>
<path fill="none" stroke="black" d="M430.43,-532.53C422.05,-531.56 413.66,-531 405.5,-531"/>
<polygon fill="black" stroke="black" points="437.06,-533.47 444.48,-538.15 441.02,-534.03 444.98,-534.59 444.98,-534.59 444.98,-534.59 441.02,-534.03 445.48,-531.02 437.06,-533.47 437.06,-533.47"/>
<ellipse fill="none" stroke="black" cx="433.89" cy="-533.02" rx="3.2" ry="3.2"/>
</g>
<!-- syst_enums -->
<g id="node10" class="node">
<title>syst_enums</title>
<g id="a_node10"><a xlink:href="../../tables/syst_enums.html" xlink:title="syst_enums" target="_top">
<polygon fill="#ffffff" stroke="transparent" points="8,-531 8,-589 126,-589 126,-531 8,-531"/>
<polygon fill="#f5f5f5" stroke="transparent" points="8,-567 8,-589 126,-589 126,-567 8,-567"/>
<polygon fill="none" stroke="black" points="8,-567 8,-589 126,-589 126,-567 8,-567"/>
<text text-anchor="start" x="13" y="-576.2" font-family="Helvetica,sans-Serif" font-weight="bold" font-size="11.00">syst_enums</text>
<text text-anchor="start" x="91" y="-575.2" font-family="Helvetica,sans-Serif" font-size="11.00">[table]</text>
<polygon fill="none" stroke="black" points="8,-549 8,-567 126,-567 126,-549 8,-549"/>
<text text-anchor="start" x="11" y="-555.2" font-family="Helvetica,sans-Serif" font-size="11.00">...</text>
<polygon fill="#ffffff" stroke="transparent" points="8,-531 8,-549 56,-549 56,-531 8,-531"/>
<polygon fill="none" stroke="black" points="8,-531 8,-549 56,-549 56,-531 8,-531"/>
<text text-anchor="start" x="11" y="-537.2" font-family="Helvetica,sans-Serif" font-size="11.00"> &#160;</text>
<polygon fill="#ffffff" stroke="transparent" points="56,-531 56,-549 86,-549 86,-531 56,-531"/>
<polygon fill="none" stroke="black" points="56,-531 56,-549 86,-549 86,-531 56,-531"/>
<text text-anchor="start" x="76" y="-537.2" font-family="Helvetica,sans-Serif" font-size="11.00"> &#160;</text>
<polygon fill="#ffffff" stroke="transparent" points="86,-531 86,-549 126,-549 126,-531 86,-531"/>
<polygon fill="none" stroke="black" points="86,-531 86,-549 126,-549 126,-531 86,-531"/>
<text text-anchor="start" x="107" y="-537.2" font-family="Helvetica,sans-Serif" font-size="11.00">2 &gt;</text>
</a>
</g>
</g>
<!-- syst_enum_items&#45;&gt;syst_enums -->
<g id="edge10" class="edge">
<title>syst_enum_items:w&#45;&gt;syst_enums:e</title>
<path fill="none" stroke="black" d="M430.38,-571.56C424.17,-572.13 418,-572.62 412,-573 303.33,-579.91 274.14,-592.43 167,-573 148.32,-569.61 145.99,-558 127,-558"/>
<polygon fill="black" stroke="black" points="436.95,-570.9 445.26,-573.68 440.93,-570.5 444.91,-570.1 444.91,-570.1 444.91,-570.1 440.93,-570.5 444.55,-566.52 436.95,-570.9 436.95,-570.9"/>
<ellipse fill="none" stroke="black" cx="433.76" cy="-571.22" rx="3.2" ry="3.2"/>
</g>
<!-- syst_owners&#45;&gt;syst_enum_items -->
<g id="edge19" class="edge">
<title>syst_owners:w&#45;&gt;syst_enum_items:e</title>
<path fill="none" stroke="black" d="M708.2,-608.55C676.84,-606.67 644.41,-599.22 616.02,-590.59"/>
<polygon fill="black" stroke="black" points="715,-608.75 722.89,-612.6 719,-608.88 723,-609 723,-609 723,-609 719,-608.88 723.11,-605.4 715,-608.75 715,-608.75"/>
<ellipse fill="none" stroke="black" cx="711.81" cy="-608.66" rx="3.2" ry="3.2"/>
</g>
<!-- syst_credentials -->
<g id="node7" class="node">
<title>syst_credentials</title>
<g id="a_node7"><a xlink:href="../../tables/syst_credentials.html" xlink:title="syst_credentials" target="_top">
<polygon fill="#ffffff" stroke="transparent" points="1553,-475 1553,-533 1702,-533 1702,-475 1553,-475"/>
<polygon fill="#f5f5f5" stroke="transparent" points="1553.5,-511 1553.5,-533 1702.5,-533 1702.5,-511 1553.5,-511"/>
<polygon fill="none" stroke="black" points="1553.5,-511 1553.5,-533 1702.5,-533 1702.5,-511 1553.5,-511"/>
<text text-anchor="start" x="1558.5" y="-520.2" font-family="Helvetica,sans-Serif" font-weight="bold" font-size="11.00">syst_credentials</text>
<text text-anchor="start" x="1667.5" y="-519.2" font-family="Helvetica,sans-Serif" font-size="11.00">[table]</text>
<polygon fill="none" stroke="black" points="1553.5,-493 1553.5,-511 1702.5,-511 1702.5,-493 1553.5,-493"/>
<text text-anchor="start" x="1556.5" y="-499.2" font-family="Helvetica,sans-Serif" font-size="11.00">...</text>
<polygon fill="#ffffff" stroke="transparent" points="1553.5,-475 1553.5,-493 1625.5,-493 1625.5,-475 1553.5,-475"/>
<polygon fill="none" stroke="black" points="1553.5,-475 1553.5,-493 1625.5,-493 1625.5,-475 1553.5,-475"/>
<text text-anchor="start" x="1556.5" y="-481.2" font-family="Helvetica,sans-Serif" font-size="11.00">&lt; 3</text>
<polygon fill="#ffffff" stroke="transparent" points="1625.5,-475 1625.5,-493 1663.5,-493 1663.5,-475 1625.5,-475"/>
<polygon fill="none" stroke="black" points="1625.5,-475 1625.5,-493 1663.5,-493 1663.5,-475 1625.5,-475"/>
<text text-anchor="start" x="1653.5" y="-481.2" font-family="Helvetica,sans-Serif" font-size="11.00"> &#160;</text>
<polygon fill="#ffffff" stroke="transparent" points="1663.5,-475 1663.5,-493 1702.5,-493 1702.5,-475 1663.5,-475"/>
<polygon fill="none" stroke="black" points="1663.5,-475 1663.5,-493 1702.5,-493 1702.5,-475 1663.5,-475"/>
<text text-anchor="start" x="1692.5" y="-481.2" font-family="Helvetica,sans-Serif" font-size="11.00"> &#160;</text>
</a>
</g>
</g>
<!-- syst_credentials&#45;&gt;syst_access_accounts -->
<g id="edge6" class="edge">
<title>syst_credentials:w&#45;&gt;syst_access_accounts:e</title>
<path fill="none" stroke="black" d="M1604.12,-549.92C1584.88,-583.67 1553.63,-627 1512,-647 1447.1,-678.18 1259.15,-658.01 1188,-647 1174.65,-644.93 1160.79,-641.76 1147.3,-638.07"/>
<polygon fill="black" stroke="black" points="1607.31,-544.08 1614.31,-538.79 1609.23,-540.57 1611.15,-537.06 1611.15,-537.06 1611.15,-537.06 1609.23,-540.57 1607.99,-535.34 1607.31,-544.08 1607.31,-544.08"/>
<ellipse fill="none" stroke="black" cx="1605.78" cy="-546.89" rx="3.2" ry="3.2"/>
</g>
<!-- syst_credentials&#45;&gt;syst_enum_items -->
<g id="edge8" class="edge">
<title>syst_credentials:w&#45;&gt;syst_enum_items:e</title>
<path fill="none" stroke="black" d="M1618.99,-456.56C1603.46,-365.34 1564.84,-171.02 1512,-132 1396.16,-46.45 1326.12,-91.29 1188,-132 919.21,-211.23 657.4,-439.31 565.79,-524.96"/>
<polygon fill="black" stroke="black" points="1620.04,-462.9 1617.81,-471.39 1620.7,-466.85 1621.36,-470.79 1621.36,-470.79 1621.36,-470.79 1620.7,-466.85 1624.91,-470.2 1620.04,-462.9 1620.04,-462.9"/>
<ellipse fill="none" stroke="black" cx="1619.52" cy="-459.75" rx="3.2" ry="3.2"/>
</g>
<!-- syst_identities -->
<g id="node8" class="node">
<title>syst_identities</title>
<g id="a_node8"><a xlink:href="../../tables/syst_identities.html" xlink:title="syst_identities" target="_top">
<polygon fill="#ffffff" stroke="transparent" points="1204.5,-143 1204.5,-539 1495.5,-539 1495.5,-143 1204.5,-143"/>
<polygon fill="#f5f5f5" stroke="transparent" points="1207,-515 1207,-537 1494,-537 1494,-515 1207,-515"/>
<polygon fill="none" stroke="black" points="1207,-515 1207,-537 1494,-537 1494,-515 1207,-515"/>
<text text-anchor="start" x="1212" y="-524.2" font-family="Helvetica,sans-Serif" font-weight="bold" font-size="11.00">syst_identities</text>
<text text-anchor="start" x="1459" y="-523.2" font-family="Helvetica,sans-Serif" font-size="11.00">[table]</text>
<polygon fill="none" stroke="black" points="1207,-493 1207,-515 1401,-515 1401,-493 1207,-493"/>
<image xlink:href="../../images/primaryKeys.png" width="11px" height="12px" preserveAspectRatio="xMinYMin meet" x="1212" y="-510"/>
<text text-anchor="start" x="1227" y="-501.2" font-family="Helvetica,sans-Serif" font-size="11.00">id</text>
<polygon fill="none" stroke="black" points="1401,-493 1401,-515 1494,-515 1494,-493 1401,-493"/>
<text text-anchor="start" x="1404" y="-501.2" font-family="Helvetica,sans-Serif" font-size="11.00">uuid[2147483647]</text>
<polygon fill="#ffffff" stroke="transparent" points="1207,-471 1207,-493 1401,-493 1401,-471 1207,-471"/>
<polygon fill="none" stroke="black" points="1207,-471 1207,-493 1401,-493 1401,-471 1207,-471"/>
<image xlink:href="../../images/foreignKeys.png" width="11px" height="12px" preserveAspectRatio="xMinYMin meet" x="1212" y="-488"/>
<text text-anchor="start" x="1227" y="-479.2" font-family="Helvetica,sans-Serif" font-size="11.00">access_account_id</text>
<polygon fill="none" stroke="black" points="1401,-471 1401,-493 1494,-493 1494,-471 1401,-471"/>
<text text-anchor="start" x="1404" y="-479.2" font-family="Helvetica,sans-Serif" font-size="11.00">uuid[2147483647]</text>
<polygon fill="#ffffff" stroke="transparent" points="1207,-449 1207,-471 1401,-471 1401,-449 1207,-449"/>
<polygon fill="none" stroke="black" points="1207,-449 1207,-471 1401,-471 1401,-449 1207,-449"/>
<image xlink:href="../../images/foreignKeys.png" width="11px" height="12px" preserveAspectRatio="xMinYMin meet" x="1212" y="-466"/>
<text text-anchor="start" x="1227" y="-457.2" font-family="Helvetica,sans-Serif" font-size="11.00">identity_type_id</text>
<polygon fill="none" stroke="black" points="1401,-449 1401,-471 1494,-471 1494,-449 1401,-449"/>
<text text-anchor="start" x="1404" y="-457.2" font-family="Helvetica,sans-Serif" font-size="11.00">uuid[2147483647]</text>
<polygon fill="#ffffff" stroke="transparent" points="1207,-427 1207,-449 1401,-449 1401,-427 1207,-427"/>
<polygon fill="none" stroke="black" points="1207,-427 1207,-449 1401,-449 1401,-427 1207,-427"/>
<text text-anchor="start" x="1227" y="-435.2" font-family="Helvetica,sans-Serif" font-size="11.00">account_identifier</text>
<polygon fill="none" stroke="black" points="1401,-427 1401,-449 1494,-449 1494,-427 1401,-427"/>
<text text-anchor="start" x="1404" y="-435.2" font-family="Helvetica,sans-Serif" font-size="11.00">text[2147483647]</text>
<polygon fill="none" stroke="black" points="1207,-405 1207,-427 1401,-427 1401,-405 1207,-405"/>
<text text-anchor="start" x="1227" y="-413.2" font-family="Helvetica,sans-Serif" font-size="11.00">validated</text>
<polygon fill="none" stroke="black" points="1401,-405 1401,-427 1494,-427 1494,-405 1401,-405"/>
<text text-anchor="start" x="1404" y="-413.2" font-family="Helvetica,sans-Serif" font-size="11.00">timestamptz[35,6]</text>
<polygon fill="#ffffff" stroke="transparent" points="1207,-383 1207,-405 1401,-405 1401,-383 1207,-383"/>
<polygon fill="none" stroke="black" points="1207,-383 1207,-405 1401,-405 1401,-383 1207,-383"/>
<image xlink:href="../../images/foreignKeys.png" width="11px" height="12px" preserveAspectRatio="xMinYMin meet" x="1212" y="-400"/>
<text text-anchor="start" x="1227" y="-391.2" font-family="Helvetica,sans-Serif" font-size="11.00">validates_identity_id</text>
<polygon fill="none" stroke="black" points="1401,-383 1401,-405 1494,-405 1494,-383 1401,-383"/>
<text text-anchor="start" x="1404" y="-391.2" font-family="Helvetica,sans-Serif" font-size="11.00">uuid[2147483647]</text>
<polygon fill="none" stroke="black" points="1207,-361 1207,-383 1401,-383 1401,-361 1207,-361"/>
<text text-anchor="start" x="1227" y="-369.2" font-family="Helvetica,sans-Serif" font-size="11.00">validation_requested</text>
<polygon fill="none" stroke="black" points="1401,-361 1401,-383 1494,-383 1494,-361 1401,-361"/>
<text text-anchor="start" x="1404" y="-369.2" font-family="Helvetica,sans-Serif" font-size="11.00">timestamptz[35,6]</text>
<polygon fill="none" stroke="black" points="1207,-339 1207,-361 1401,-361 1401,-339 1207,-339"/>
<text text-anchor="start" x="1227" y="-347.2" font-family="Helvetica,sans-Serif" font-size="11.00">identity_expires</text>
<polygon fill="none" stroke="black" points="1401,-339 1401,-361 1494,-361 1494,-339 1401,-339"/>
<text text-anchor="start" x="1404" y="-347.2" font-family="Helvetica,sans-Serif" font-size="11.00">timestamptz[35,6]</text>
<polygon fill="none" stroke="black" points="1207,-317 1207,-339 1401,-339 1401,-317 1207,-317"/>
<text text-anchor="start" x="1227" y="-325.2" font-family="Helvetica,sans-Serif" font-size="11.00">external_name</text>
<polygon fill="none" stroke="black" points="1401,-317 1401,-339 1494,-339 1494,-317 1401,-317"/>
<text text-anchor="start" x="1404" y="-325.2" font-family="Helvetica,sans-Serif" font-size="11.00">text[2147483647]</text>
<polygon fill="none" stroke="black" points="1207,-295 1207,-317 1401,-317 1401,-295 1207,-295"/>
<text text-anchor="start" x="1227" y="-303.2" font-family="Helvetica,sans-Serif" font-size="11.00">diag_timestamp_created</text>
<polygon fill="none" stroke="black" points="1401,-295 1401,-317 1494,-317 1494,-295 1401,-295"/>
<text text-anchor="start" x="1404" y="-303.2" font-family="Helvetica,sans-Serif" font-size="11.00">timestamptz[35,6]</text>
<polygon fill="none" stroke="black" points="1207,-273 1207,-295 1401,-295 1401,-273 1207,-273"/>
<text text-anchor="start" x="1227" y="-281.2" font-family="Helvetica,sans-Serif" font-size="11.00">diag_role_created</text>
<polygon fill="none" stroke="black" points="1401,-273 1401,-295 1494,-295 1494,-273 1401,-273"/>
<text text-anchor="start" x="1404" y="-281.2" font-family="Helvetica,sans-Serif" font-size="11.00">text[2147483647]</text>
<polygon fill="none" stroke="black" points="1207,-251 1207,-273 1401,-273 1401,-251 1207,-251"/>
<text text-anchor="start" x="1227" y="-259.2" font-family="Helvetica,sans-Serif" font-size="11.00">diag_timestamp_modified</text>
<polygon fill="none" stroke="black" points="1401,-251 1401,-273 1494,-273 1494,-251 1401,-251"/>
<text text-anchor="start" x="1404" y="-259.2" font-family="Helvetica,sans-Serif" font-size="11.00">timestamptz[35,6]</text>
<polygon fill="none" stroke="black" points="1207,-229 1207,-251 1401,-251 1401,-229 1207,-229"/>
<text text-anchor="start" x="1227" y="-237.2" font-family="Helvetica,sans-Serif" font-size="11.00">diag_wallclock_modified</text>
<polygon fill="none" stroke="black" points="1401,-229 1401,-251 1494,-251 1494,-229 1401,-229"/>
<text text-anchor="start" x="1404" y="-237.2" font-family="Helvetica,sans-Serif" font-size="11.00">timestamptz[35,6]</text>
<polygon fill="none" stroke="black" points="1207,-207 1207,-229 1401,-229 1401,-207 1207,-207"/>
<text text-anchor="start" x="1227" y="-215.2" font-family="Helvetica,sans-Serif" font-size="11.00">diag_role_modified</text>
<polygon fill="none" stroke="black" points="1401,-207 1401,-229 1494,-229 1494,-207 1401,-207"/>
<text text-anchor="start" x="1404" y="-215.2" font-family="Helvetica,sans-Serif" font-size="11.00">text[2147483647]</text>
<polygon fill="none" stroke="black" points="1207,-185 1207,-207 1401,-207 1401,-185 1207,-185"/>
<text text-anchor="start" x="1227" y="-193.2" font-family="Helvetica,sans-Serif" font-size="11.00">diag_row_version</text>
<polygon fill="none" stroke="black" points="1401,-185 1401,-207 1494,-207 1494,-185 1401,-185"/>
<text text-anchor="start" x="1404" y="-193.2" font-family="Helvetica,sans-Serif" font-size="11.00">int8[19]</text>
<polygon fill="none" stroke="black" points="1207,-163 1207,-185 1401,-185 1401,-163 1207,-163"/>
<text text-anchor="start" x="1227" y="-171.2" font-family="Helvetica,sans-Serif" font-size="11.00">diag_update_count</text>
<polygon fill="none" stroke="black" points="1401,-163 1401,-185 1494,-185 1494,-163 1401,-163"/>
<text text-anchor="start" x="1404" y="-171.2" font-family="Helvetica,sans-Serif" font-size="11.00">int8[19]</text>
<polygon fill="#ffffff" stroke="transparent" points="1207,-145 1207,-163 1308,-163 1308,-145 1207,-145"/>
<polygon fill="none" stroke="black" points="1207,-145 1207,-163 1308,-163 1308,-145 1207,-145"/>
<text text-anchor="start" x="1210" y="-151.2" font-family="Helvetica,sans-Serif" font-size="11.00">&lt; 3</text>
<polygon fill="#ffffff" stroke="transparent" points="1308,-145 1308,-163 1401,-163 1401,-145 1308,-145"/>
<polygon fill="none" stroke="black" points="1308,-145 1308,-163 1401,-163 1401,-145 1308,-145"/>
<text text-anchor="start" x="1391" y="-151.2" font-family="Helvetica,sans-Serif" font-size="11.00"> &#160;</text>
<polygon fill="#ffffff" stroke="transparent" points="1401,-145 1401,-163 1494,-163 1494,-145 1401,-145"/>
<polygon fill="none" stroke="black" points="1401,-145 1401,-163 1494,-163 1494,-145 1401,-145"/>
<text text-anchor="start" x="1475" y="-151.2" font-family="Helvetica,sans-Serif" font-size="11.00">2 &gt;</text>
<polygon fill="none" stroke="black" stroke-width="2" points="1205.5,-144 1205.5,-538 1494.5,-538 1494.5,-144 1205.5,-144"/>
</a>
</g>
</g>
<!-- syst_credentials&#45;&gt;syst_identities -->
<g id="edge7" class="edge">
<title>syst_credentials:w&#45;&gt;syst_identities:e</title>
<path fill="none" stroke="black" d="M1530.35,-504C1518.45,-504 1506.44,-504 1495,-504"/>
<polygon fill="black" stroke="black" points="1536.78,-504 1544.78,-507.6 1540.78,-504 1544.78,-504 1544.78,-504 1544.78,-504 1540.78,-504 1544.78,-500.4 1536.78,-504 1536.78,-504"/>
<ellipse fill="none" stroke="black" cx="1533.58" cy="-504" rx="3.2" ry="3.2"/>
</g>
<!-- syst_identities&#45;&gt;syst_access_accounts -->
<g id="edge12" class="edge">
<title>syst_identities:w&#45;&gt;syst_access_accounts:e</title>
<path fill="none" stroke="black" d="M1191.66,-485.29C1161.35,-497.45 1116.15,-540.69 1086.26,-571.71"/>
<polygon fill="black" stroke="black" points="1198.2,-483.79 1206.81,-485.51 1202.1,-482.9 1206,-482 1206,-482 1206,-482 1202.1,-482.9 1205.19,-478.49 1198.2,-483.79 1198.2,-483.79"/>
<ellipse fill="none" stroke="black" cx="1195.08" cy="-484.51" rx="3.2" ry="3.2"/>
</g>
<!-- syst_identities&#45;&gt;syst_enum_items -->
<g id="edge13" class="edge">
<title>syst_identities:w&#45;&gt;syst_enum_items:e</title>
<path fill="none" stroke="black" d="M1191.52,-460.07C980.72,-462.19 740.47,-509.63 616.11,-537.69"/>
<polygon fill="black" stroke="black" points="1198,-460.04 1206.02,-463.6 1202,-460.02 1206,-460 1206,-460 1206,-460 1202,-460.02 1205.98,-456.4 1198,-460.04 1198,-460.04"/>
<ellipse fill="none" stroke="black" cx="1194.8" cy="-460.06" rx="3.2" ry="3.2"/>
</g>
<!-- syst_identities&#45;&gt;syst_identities -->
<g id="edge14" class="edge">
<title>syst_identities:w&#45;&gt;syst_identities:e</title>
<path fill="none" stroke="black" d="M1199.61,-402.05C1138.29,-472.25 1145.89,-556 1350.5,-556 1563,-556 1563,-547.33 1494,-504"/>
<polygon fill="black" stroke="black" points="1203.51,-391.88 1209.41,-397.29 1208.32,-398.47 1202.43,-393.06 1203.51,-391.88"/>
<polyline fill="none" stroke="black" points="1207,-394 1204.3,-396.95 "/>
<ellipse fill="none" stroke="black" cx="1202.13" cy="-399.3" rx="3.2" ry="3.2"/>
</g>
<!-- syst_enum_functional_types&#45;&gt;syst_enums -->
<g id="edge9" class="edge">
<title>syst_enum_functional_types:w&#45;&gt;syst_enums:e</title>
<path fill="none" stroke="black" d="M160.6,-534.98C149.25,-542.49 145.4,-558 127,-558"/>
<polygon fill="black" stroke="black" points="166.81,-533.2 175.49,-534.46 170.65,-532.1 174.5,-531 174.5,-531 174.5,-531 170.65,-532.1 173.51,-527.54 166.81,-533.2 166.81,-533.2"/>
<ellipse fill="none" stroke="black" cx="163.73" cy="-534.09" rx="3.2" ry="3.2"/>
</g>
<!-- syst_instance_type_applications -->
<g id="node11" class="node">
<title>syst_instance_type_applications</title>
<g id="a_node11"><a xlink:href="../../tables/syst_instance_type_applications.html" xlink:title="syst_instance_type_applications" target="_top">
<polygon fill="#ffffff" stroke="transparent" points="657,-37 657,-95 913,-95 913,-37 657,-37"/>
<polygon fill="#f5f5f5" stroke="transparent" points="657,-73 657,-95 913,-95 913,-73 657,-73"/>
<polygon fill="none" stroke="black" points="657,-73 657,-95 913,-95 913,-73 657,-73"/>
<text text-anchor="start" x="662" y="-82.2" font-family="Helvetica,sans-Serif" font-weight="bold" font-size="11.00">syst_instance_type_applications</text>
<text text-anchor="start" x="878" y="-81.2" font-family="Helvetica,sans-Serif" font-size="11.00">[table]</text>
<polygon fill="none" stroke="black" points="657,-55 657,-73 913,-73 913,-55 657,-55"/>
<text text-anchor="start" x="660" y="-61.2" font-family="Helvetica,sans-Serif" font-size="11.00">...</text>
<polygon fill="#ffffff" stroke="transparent" points="657,-37 657,-55 778,-55 778,-37 657,-37"/>
<polygon fill="none" stroke="black" points="657,-37 657,-55 778,-55 778,-37 657,-37"/>
<text text-anchor="start" x="660" y="-43.2" font-family="Helvetica,sans-Serif" font-size="11.00">&lt; 2</text>
<polygon fill="#ffffff" stroke="transparent" points="778,-37 778,-55 841,-55 841,-37 778,-37"/>
<polygon fill="none" stroke="black" points="778,-37 778,-55 841,-55 841,-37 778,-37"/>
<text text-anchor="start" x="831" y="-43.2" font-family="Helvetica,sans-Serif" font-size="11.00"> &#160;</text>
<polygon fill="#ffffff" stroke="transparent" points="841,-37 841,-55 913,-55 913,-37 841,-37"/>
<polygon fill="none" stroke="black" points="841,-37 841,-55 913,-55 913,-37 841,-37"/>
<text text-anchor="start" x="894" y="-43.2" font-family="Helvetica,sans-Serif" font-size="11.00">1 &gt;</text>
</a>
</g>
</g>
<!-- syst_instance_type_applications&#45;&gt;syst_enum_items -->
<g id="edge15" class="edge">
<title>syst_instance_type_applications:w&#45;&gt;syst_enum_items:e</title>
<path fill="none" stroke="black" d="M641.78,-66.73C558.36,-99.6 537.37,-419.79 532.71,-524.82"/>
<polygon fill="black" stroke="black" points="648.14,-65.51 656.68,-67.54 652.07,-64.75 656,-64 656,-64 656,-64 652.07,-64.75 655.32,-60.46 648.14,-65.51 648.14,-65.51"/>
<ellipse fill="none" stroke="black" cx="645" cy="-66.11" rx="3.2" ry="3.2"/>
</g>
<!-- syst_password_history -->
<g id="node12" class="node">
<title>syst_password_history</title>
<g id="a_node12"><a xlink:href="../../tables/syst_password_history.html" xlink:title="syst_password_history" target="_top">
<polygon fill="#ffffff" stroke="transparent" points="1254,-578 1254,-636 1446,-636 1446,-578 1254,-578"/>
<polygon fill="#f5f5f5" stroke="transparent" points="1254,-614 1254,-636 1446,-636 1446,-614 1254,-614"/>
<polygon fill="none" stroke="black" points="1254,-614 1254,-636 1446,-636 1446,-614 1254,-614"/>
<text text-anchor="start" x="1259" y="-623.2" font-family="Helvetica,sans-Serif" font-weight="bold" font-size="11.00">syst_password_history</text>
<text text-anchor="start" x="1411" y="-622.2" font-family="Helvetica,sans-Serif" font-size="11.00">[table]</text>
<polygon fill="none" stroke="black" points="1254,-596 1254,-614 1446,-614 1446,-596 1254,-596"/>
<text text-anchor="start" x="1257" y="-602.2" font-family="Helvetica,sans-Serif" font-size="11.00">...</text>
<polygon fill="#ffffff" stroke="transparent" points="1254,-578 1254,-596 1348,-596 1348,-578 1254,-578"/>
<polygon fill="none" stroke="black" points="1254,-578 1254,-596 1348,-596 1348,-578 1254,-578"/>
<text text-anchor="start" x="1257" y="-584.2" font-family="Helvetica,sans-Serif" font-size="11.00">&lt; 1</text>
<polygon fill="#ffffff" stroke="transparent" points="1348,-578 1348,-596 1397,-596 1397,-578 1348,-578"/>
<polygon fill="none" stroke="black" points="1348,-578 1348,-596 1397,-596 1397,-578 1348,-578"/>
<text text-anchor="start" x="1387" y="-584.2" font-family="Helvetica,sans-Serif" font-size="11.00"> &#160;</text>
<polygon fill="#ffffff" stroke="transparent" points="1397,-578 1397,-596 1446,-596 1446,-578 1397,-578"/>
<polygon fill="none" stroke="black" points="1397,-578 1397,-596 1446,-596 1446,-578 1397,-578"/>
<text text-anchor="start" x="1436" y="-584.2" font-family="Helvetica,sans-Serif" font-size="11.00"> &#160;</text>
</a>
</g>
</g>
<!-- syst_password_history&#45;&gt;syst_access_accounts -->
<g id="edge20" class="edge">
<title>syst_password_history:w&#45;&gt;syst_access_accounts:e</title>
<path fill="none" stroke="black" d="M1238.29,-605C1210.71,-605 1181.75,-605 1155.21,-605"/>
<polygon fill="black" stroke="black" points="1245,-605 1253,-608.6 1249,-605 1253,-605 1253,-605 1253,-605 1249,-605 1253,-601.4 1245,-605 1245,-605"/>
<ellipse fill="none" stroke="black" cx="1241.8" cy="-605" rx="3.2" ry="3.2"/>
</g>
</g>
</svg>
