<?xml version="1.0" encoding="UTF-8" standalone="no"?>
<!DOCTYPE svg PUBLIC "-//W3C//DTD SVG 1.1//EN"
 "http://www.w3.org/Graphics/SVG/1.1/DTD/svg11.dtd">
<!-- Generated by graphviz version 2.43.0 (0)
 -->
<!-- Title: oneDegreeRelationshipsDiagram Pages: 1 -->
<svg width="637pt" height="450pt"
 viewBox="0.00 0.00 637.00 450.00" xmlns="http://www.w3.org/2000/svg" xmlns:xlink="http://www.w3.org/1999/xlink">
<g id="graph0" class="graph" transform="scale(1 1) rotate(0) translate(4 446)">
<title>oneDegreeRelationshipsDiagram</title>
<polygon fill="#ffffff" stroke="transparent" points="-4,4 -4,-446 633,-446 633,4 -4,4"/>
<text text-anchor="middle" x="71.5" y="-7.2" font-family="Helvetica,sans-Serif" font-size="11.00">Generated by SchemaSpy</text>
<!-- syst_access_account_instance_assocs -->
<g id="node1" class="node">
<title>syst_access_account_instance_assocs</title>
<g id="a_node1"><a xlink:href="../../tables/syst_access_account_instance_assocs.html" xlink:title="syst_access_account_instance_assocs" target="_top">
<polygon fill="#ffffff" stroke="transparent" points="251,-37 251,-389 621,-389 621,-37 251,-37"/>
<polygon fill="#f5f5f5" stroke="transparent" points="253,-365 253,-387 619,-387 619,-365 253,-365"/>
<polygon fill="none" stroke="black" points="253,-365 253,-387 619,-387 619,-365 253,-365"/>
<text text-anchor="start" x="258" y="-374.2" font-family="Helvetica,sans-Serif" font-weight="bold" font-size="11.00">syst_access_account_instance_assocs</text>
<text text-anchor="start" x="584" y="-373.2" font-family="Helvetica,sans-Serif" font-size="11.00">[table]</text>
<polygon fill="none" stroke="black" points="253,-343 253,-365 526,-365 526,-343 253,-343"/>
<image xlink:href="../../images/primaryKeys.png" width="11px" height="12px" preserveAspectRatio="xMinYMin meet" x="258" y="-360"/>
<text text-anchor="start" x="273" y="-351.2" font-family="Helvetica,sans-Serif" font-size="11.00">id</text>
<polygon fill="none" stroke="black" points="526,-343 526,-365 619,-365 619,-343 526,-343"/>
<text text-anchor="start" x="529" y="-351.2" font-family="Helvetica,sans-Serif" font-size="11.00">uuid[2147483647]</text>
<polygon fill="#ffffff" stroke="transparent" points="253,-321 253,-343 526,-343 526,-321 253,-321"/>
<polygon fill="none" stroke="black" points="253,-321 253,-343 526,-343 526,-321 253,-321"/>
<image xlink:href="../../images/foreignKeys.png" width="11px" height="12px" preserveAspectRatio="xMinYMin meet" x="258" y="-338"/>
<text text-anchor="start" x="273" y="-329.2" font-family="Helvetica,sans-Serif" font-size="11.00">access_account_id</text>
<polygon fill="none" stroke="black" points="526,-321 526,-343 619,-343 619,-321 526,-321"/>
<text text-anchor="start" x="529" y="-329.2" font-family="Helvetica,sans-Serif" font-size="11.00">uuid[2147483647]</text>
<polygon fill="#ffffff" stroke="transparent" points="253,-299 253,-321 526,-321 526,-299 253,-299"/>
<polygon fill="none" stroke="black" points="253,-299 253,-321 526,-321 526,-299 253,-299"/>
<image xlink:href="../../images/foreignKeys.png" width="11px" height="12px" preserveAspectRatio="xMinYMin meet" x="258" y="-316"/>
<text text-anchor="start" x="273" y="-307.2" font-family="Helvetica,sans-Serif" font-size="11.00">instance_id</text>
<polygon fill="none" stroke="black" points="526,-299 526,-321 619,-321 619,-299 526,-299"/>
<text text-anchor="start" x="529" y="-307.2" font-family="Helvetica,sans-Serif" font-size="11.00">uuid[2147483647]</text>
<polygon fill="none" stroke="black" points="253,-277 253,-299 526,-299 526,-277 253,-277"/>
<text text-anchor="start" x="273" y="-285.2" font-family="Helvetica,sans-Serif" font-size="11.00">access_granted</text>
<polygon fill="none" stroke="black" points="526,-277 526,-299 619,-299 619,-277 526,-277"/>
<text text-anchor="start" x="529" y="-285.2" font-family="Helvetica,sans-Serif" font-size="11.00">timestamptz[35,6]</text>
<polygon fill="none" stroke="black" points="253,-255 253,-277 526,-277 526,-255 253,-255"/>
<text text-anchor="start" x="273" y="-263.2" font-family="Helvetica,sans-Serif" font-size="11.00">invitation_issued</text>
<polygon fill="none" stroke="black" points="526,-255 526,-277 619,-277 619,-255 526,-255"/>
<text text-anchor="start" x="529" y="-263.2" font-family="Helvetica,sans-Serif" font-size="11.00">timestamptz[35,6]</text>
<polygon fill="none" stroke="black" points="253,-233 253,-255 526,-255 526,-233 253,-233"/>
<text text-anchor="start" x="273" y="-241.2" font-family="Helvetica,sans-Serif" font-size="11.00">invitation_expires</text>
<polygon fill="none" stroke="black" points="526,-233 526,-255 619,-255 619,-233 526,-233"/>
<text text-anchor="start" x="529" y="-241.2" font-family="Helvetica,sans-Serif" font-size="11.00">timestamptz[35,6]</text>
<polygon fill="none" stroke="black" points="253,-211 253,-233 526,-233 526,-211 253,-211"/>
<text text-anchor="start" x="273" y="-219.2" font-family="Helvetica,sans-Serif" font-size="11.00">invitation_declined</text>
<polygon fill="none" stroke="black" points="526,-211 526,-233 619,-233 619,-211 526,-211"/>
<text text-anchor="start" x="529" y="-219.2" font-family="Helvetica,sans-Serif" font-size="11.00">timestamptz[35,6]</text>
<polygon fill="none" stroke="black" points="253,-189 253,-211 526,-211 526,-189 253,-189"/>
<text text-anchor="start" x="273" y="-197.2" font-family="Helvetica,sans-Serif" font-size="11.00">diag_timestamp_created</text>
<polygon fill="none" stroke="black" points="526,-189 526,-211 619,-211 619,-189 526,-189"/>
<text text-anchor="start" x="529" y="-197.2" font-family="Helvetica,sans-Serif" font-size="11.00">timestamptz[35,6]</text>
<polygon fill="none" stroke="black" points="253,-167 253,-189 526,-189 526,-167 253,-167"/>
<text text-anchor="start" x="273" y="-175.2" font-family="Helvetica,sans-Serif" font-size="11.00">diag_role_created</text>
<polygon fill="none" stroke="black" points="526,-167 526,-189 619,-189 619,-167 526,-167"/>
<text text-anchor="start" x="529" y="-175.2" font-family="Helvetica,sans-Serif" font-size="11.00">text[2147483647]</text>
<polygon fill="none" stroke="black" points="253,-145 253,-167 526,-167 526,-145 253,-145"/>
<text text-anchor="start" x="273" y="-153.2" font-family="Helvetica,sans-Serif" font-size="11.00">diag_timestamp_modified</text>
<polygon fill="none" stroke="black" points="526,-145 526,-167 619,-167 619,-145 526,-145"/>
<text text-anchor="start" x="529" y="-153.2" font-family="Helvetica,sans-Serif" font-size="11.00">timestamptz[35,6]</text>
<polygon fill="none" stroke="black" points="253,-123 253,-145 526,-145 526,-123 253,-123"/>
<text text-anchor="start" x="273" y="-131.2" font-family="Helvetica,sans-Serif" font-size="11.00">diag_wallclock_modified</text>
<polygon fill="none" stroke="black" points="526,-123 526,-145 619,-145 619,-123 526,-123"/>
<text text-anchor="start" x="529" y="-131.2" font-family="Helvetica,sans-Serif" font-size="11.00">timestamptz[35,6]</text>
<polygon fill="none" stroke="black" points="253,-101 253,-123 526,-123 526,-101 253,-101"/>
<text text-anchor="start" x="273" y="-109.2" font-family="Helvetica,sans-Serif" font-size="11.00">diag_role_modified</text>
<polygon fill="none" stroke="black" points="526,-101 526,-123 619,-123 619,-101 526,-101"/>
<text text-anchor="start" x="529" y="-109.2" font-family="Helvetica,sans-Serif" font-size="11.00">text[2147483647]</text>
<polygon fill="none" stroke="black" points="253,-79 253,-101 526,-101 526,-79 253,-79"/>
<text text-anchor="start" x="273" y="-87.2" font-family="Helvetica,sans-Serif" font-size="11.00">diag_row_version</text>
<polygon fill="none" stroke="black" points="526,-79 526,-101 619,-101 619,-79 526,-79"/>
<text text-anchor="start" x="529" y="-87.2" font-family="Helvetica,sans-Serif" font-size="11.00">int8[19]</text>
<polygon fill="none" stroke="black" points="253,-57 253,-79 526,-79 526,-57 253,-57"/>
<text text-anchor="start" x="273" y="-65.2" font-family="Helvetica,sans-Serif" font-size="11.00">diag_update_count</text>
<polygon fill="none" stroke="black" points="526,-57 526,-79 619,-79 619,-57 526,-57"/>
<text text-anchor="start" x="529" y="-65.2" font-family="Helvetica,sans-Serif" font-size="11.00">int8[19]</text>
<polygon fill="#ffffff" stroke="transparent" points="253,-39 253,-57 394,-57 394,-39 253,-39"/>
<polygon fill="none" stroke="black" points="253,-39 253,-57 394,-57 394,-39 253,-39"/>
<text text-anchor="start" x="256" y="-45.2" font-family="Helvetica,sans-Serif" font-size="11.00">&lt; 2</text>
<polygon fill="#ffffff" stroke="transparent" points="394,-39 394,-57 526,-57 526,-39 394,-39"/>
<polygon fill="none" stroke="black" points="394,-39 394,-57 526,-57 526,-39 394,-39"/>
<text text-anchor="start" x="516" y="-45.2" font-family="Helvetica,sans-Serif" font-size="11.00"> &#160;</text>
<polygon fill="#ffffff" stroke="transparent" points="526,-39 526,-57 619,-57 619,-39 526,-39"/>
<polygon fill="none" stroke="black" points="526,-39 526,-57 619,-57 619,-39 526,-39"/>
<text text-anchor="start" x="600" y="-45.2" font-family="Helvetica,sans-Serif" font-size="11.00">0 &gt;</text>
<polygon fill="none" stroke="black" stroke-width="2" points="252,-38 252,-388 620,-388 620,-38 252,-38"/>
</a>
</g>
</g>
<!-- syst_access_accounts -->
<g id="node2" class="node">
<title>syst_access_accounts</title>
<g id="a_node2"><a xlink:href="../../tables/syst_access_accounts.html" xlink:title="syst_access_accounts" target="_top">
<polygon fill="#ffffff" stroke="transparent" points="8,-292 8,-438 202,-438 202,-292 8,-292"/>
<polygon fill="#f5f5f5" stroke="transparent" points="8,-416 8,-438 202,-438 202,-416 8,-416"/>
<polygon fill="none" stroke="black" points="8,-416 8,-438 202,-438 202,-416 8,-416"/>
<text text-anchor="start" x="13" y="-425.2" font-family="Helvetica,sans-Serif" font-weight="bold" font-size="11.00">syst_access_accounts</text>
<text text-anchor="start" x="167" y="-424.2" font-family="Helvetica,sans-Serif" font-size="11.00">[table]</text>
<polygon fill="none" stroke="black" points="8,-394 8,-416 202,-416 202,-394 8,-394"/>
<image xlink:href="../../images/primaryKeys.png" width="11px" height="12px" preserveAspectRatio="xMinYMin meet" x="13" y="-411"/>
<text text-anchor="start" x="28" y="-402.2" font-family="Helvetica,sans-Serif" font-size="11.00">id</text>
<polygon fill="#ffffff" stroke="transparent" points="8,-372 8,-394 202,-394 202,-372 8,-372"/>
<polygon fill="none" stroke="black" points="8,-372 8,-394 202,-394 202,-372 8,-372"/>
<text text-anchor="start" x="28" y="-380.2" font-family="Helvetica,sans-Serif" font-size="11.00">internal_name</text>
<polygon fill="none" stroke="black" points="8,-350 8,-372 202,-372 202,-350 8,-350"/>
<image xlink:href="../../images/foreignKeys.png" width="11px" height="12px" preserveAspectRatio="xMinYMin meet" x="13" y="-367"/>
<text text-anchor="start" x="28" y="-358.2" font-family="Helvetica,sans-Serif" font-size="11.00">owning_owner_id</text>
<polygon fill="none" stroke="black" points="8,-328 8,-350 202,-350 202,-328 8,-328"/>
<image xlink:href="../../images/foreignKeys.png" width="11px" height="12px" preserveAspectRatio="xMinYMin meet" x="13" y="-345"/>
<text text-anchor="start" x="28" y="-336.2" font-family="Helvetica,sans-Serif" font-size="11.00">access_account_state_id</text>
<polygon fill="none" stroke="black" points="8,-310 8,-328 202,-328 202,-310 8,-310"/>
<text text-anchor="start" x="11" y="-316.2" font-family="Helvetica,sans-Serif" font-size="11.00">...</text>
<polygon fill="#ffffff" stroke="transparent" points="8,-292 8,-310 98,-310 98,-292 8,-292"/>
<polygon fill="none" stroke="black" points="8,-292 8,-310 98,-310 98,-292 8,-292"/>
<text text-anchor="start" x="11" y="-298.2" font-family="Helvetica,sans-Serif" font-size="11.00">&lt; 2</text>
<polygon fill="#ffffff" stroke="transparent" points="98,-292 98,-310 145,-310 145,-292 98,-292"/>
<polygon fill="none" stroke="black" points="98,-292 98,-310 145,-310 145,-292 98,-292"/>
<text text-anchor="start" x="135" y="-298.2" font-family="Helvetica,sans-Serif" font-size="11.00"> &#160;</text>
<polygon fill="#ffffff" stroke="transparent" points="145,-292 145,-310 202,-310 202,-292 145,-292"/>
<polygon fill="none" stroke="black" points="145,-292 145,-310 202,-310 202,-292 145,-292"/>
<text text-anchor="start" x="183" y="-298.2" font-family="Helvetica,sans-Serif" font-size="11.00">5 &gt;</text>
</a>
</g>
</g>
<!-- syst_access_account_instance_assocs&#45;&gt;syst_access_accounts -->
<g id="edge1" class="edge">
<title>syst_access_account_instance_assocs:w&#45;&gt;syst_access_accounts:e</title>
<path fill="none" stroke="black" d="M238.16,-336.79C220.37,-353.03 235.97,-405 203,-405"/>
<polygon fill="black" stroke="black" points="244.44,-334.62 253.18,-335.4 248.22,-333.31 252,-332 252,-332 252,-332 248.22,-333.31 250.82,-328.6 244.44,-334.62 244.44,-334.62"/>
<ellipse fill="none" stroke="black" cx="241.42" cy="-335.66" rx="3.2" ry="3.2"/>
</g>
<!-- syst_instances -->
<g id="node3" class="node">
<title>syst_instances</title>
<g id="a_node3"><a xlink:href="../../tables/syst_instances.html" xlink:title="syst_instances" target="_top">
<polygon fill="#ffffff" stroke="transparent" points="8,-37 8,-271 202,-271 202,-37 8,-37"/>
<polygon fill="#f5f5f5" stroke="transparent" points="8,-249 8,-271 202,-271 202,-249 8,-249"/>
<polygon fill="none" stroke="black" points="8,-249 8,-271 202,-271 202,-249 8,-249"/>
<text text-anchor="start" x="13" y="-258.2" font-family="Helvetica,sans-Serif" font-weight="bold" font-size="11.00">syst_instances</text>
<text text-anchor="start" x="167" y="-257.2" font-family="Helvetica,sans-Serif" font-size="11.00">[table]</text>
<polygon fill="none" stroke="black" points="8,-227 8,-249 202,-249 202,-227 8,-227"/>
<image xlink:href="../../images/primaryKeys.png" width="11px" height="12px" preserveAspectRatio="xMinYMin meet" x="13" y="-244"/>
<text text-anchor="start" x="28" y="-235.2" font-family="Helvetica,sans-Serif" font-size="11.00">id</text>
<polygon fill="#ffffff" stroke="transparent" points="8,-205 8,-227 202,-227 202,-205 8,-205"/>
<polygon fill="none" stroke="black" points="8,-205 8,-227 202,-227 202,-205 8,-205"/>
<text text-anchor="start" x="28" y="-213.2" font-family="Helvetica,sans-Serif" font-size="11.00">internal_name</text>
<polygon fill="#ffffff" stroke="transparent" points="8,-183 8,-205 202,-205 202,-183 8,-183"/>
<polygon fill="none" stroke="black" points="8,-183 8,-205 202,-205 202,-183 8,-183"/>
<text text-anchor="start" x="28" y="-191.2" font-family="Helvetica,sans-Serif" font-size="11.00">display_name</text>
<polygon fill="none" stroke="black" points="8,-161 8,-183 202,-183 202,-161 8,-161"/>
<image xlink:href="../../images/foreignKeys.png" width="11px" height="12px" preserveAspectRatio="xMinYMin meet" x="13" y="-178"/>
<text text-anchor="start" x="28" y="-169.2" font-family="Helvetica,sans-Serif" font-size="11.00">application_id</text>
<polygon fill="none" stroke="black" points="8,-139 8,-161 202,-161 202,-139 8,-139"/>
<image xlink:href="../../images/foreignKeys.png" width="11px" height="12px" preserveAspectRatio="xMinYMin meet" x="13" y="-156"/>
<text text-anchor="start" x="28" y="-147.2" font-family="Helvetica,sans-Serif" font-size="11.00">instance_type_id</text>
<polygon fill="none" stroke="black" points="8,-117 8,-139 202,-139 202,-117 8,-117"/>
<image xlink:href="../../images/foreignKeys.png" width="11px" height="12px" preserveAspectRatio="xMinYMin meet" x="13" y="-134"/>
<text text-anchor="start" x="28" y="-125.2" font-family="Helvetica,sans-Serif" font-size="11.00">instance_state_id</text>
<polygon fill="none" stroke="black" points="8,-95 8,-117 202,-117 202,-95 8,-95"/>
<image xlink:href="../../images/foreignKeys.png" width="11px" height="12px" preserveAspectRatio="xMinYMin meet" x="13" y="-112"/>
<text text-anchor="start" x="28" y="-103.2" font-family="Helvetica,sans-Serif" font-size="11.00">owner_id</text>
<polygon fill="none" stroke="black" points="8,-73 8,-95 202,-95 202,-73 8,-73"/>
<image xlink:href="../../images/foreignKeys.png" width="11px" height="12px" preserveAspectRatio="xMinYMin meet" x="13" y="-90"/>
<text text-anchor="start" x="28" y="-81.2" font-family="Helvetica,sans-Serif" font-size="11.00">owning_instance_id</text>
<polygon fill="none" stroke="black" points="8,-55 8,-73 202,-73 202,-55 8,-55"/>
<text text-anchor="start" x="11" y="-61.2" font-family="Helvetica,sans-Serif" font-size="11.00">...</text>
<polygon fill="#ffffff" stroke="transparent" points="8,-37 8,-55 98,-55 98,-37 8,-37"/>
<polygon fill="none" stroke="black" points="8,-37 8,-55 98,-55 98,-37 8,-37"/>
<text text-anchor="start" x="11" y="-43.2" font-family="Helvetica,sans-Serif" font-size="11.00">&lt; 5</text>
<polygon fill="#ffffff" stroke="transparent" points="98,-37 98,-55 145,-55 145,-37 98,-37"/>
<polygon fill="none" stroke="black" points="98,-37 98,-55 145,-55 145,-37 98,-37"/>
<text text-anchor="start" x="135" y="-43.2" font-family="Helvetica,sans-Serif" font-size="11.00"> &#160;</text>
<polygon fill="#ffffff" stroke="transparent" points="145,-37 145,-55 202,-55 202,-37 145,-37"/>
<polygon fill="none" stroke="black" points="145,-37 145,-55 202,-55 202,-37 145,-37"/>
<text text-anchor="start" x="183" y="-43.2" font-family="Helvetica,sans-Serif" font-size="11.00">4 &gt;</text>
</a>
</g>
</g>
<!-- syst_access_account_instance_assocs&#45;&gt;syst_instances -->
<g id="edge2" class="edge">
<title>syst_access_account_instance_assocs:w&#45;&gt;syst_instances:e</title>
<path fill="none" stroke="black" d="M238.26,-305.28C220.53,-289.26 235.66,-238 203,-238"/>
<polygon fill="black" stroke="black" points="244.43,-307.4 250.83,-313.4 248.22,-308.7 252,-310 252,-310 252,-310 248.22,-308.7 253.17,-306.6 244.43,-307.4 244.43,-307.4"/>
<ellipse fill="none" stroke="black" cx="241.41" cy="-306.36" rx="3.2" ry="3.2"/>
</g>
</g>
</svg>
