<?xml version="1.0" encoding="UTF-8" standalone="no"?>
<!DOCTYPE svg PUBLIC "-//W3C//DTD SVG 1.1//EN"
 "http://www.w3.org/Graphics/SVG/1.1/DTD/svg11.dtd">
<!-- Generated by graphviz version 2.43.0 (0)
 -->
<!-- Title: twoDegreesRelationshipsDiagram Pages: 1 -->
<svg width="1148pt" height="607pt"
 viewBox="0.00 0.00 1148.00 607.21" xmlns="http://www.w3.org/2000/svg" xmlns:xlink="http://www.w3.org/1999/xlink">
<g id="graph0" class="graph" transform="scale(1 1) rotate(0) translate(4 603.21)">
<title>twoDegreesRelationshipsDiagram</title>
<polygon fill="#ffffff" stroke="transparent" points="-4,4 -4,-603.21 1144,-603.21 1144,4 -4,4"/>
<text text-anchor="middle" x="71.5" y="-7.2" font-family="Helvetica,sans-Serif" font-size="11.00">Generated by SchemaSpy</text>
<!-- syst_access_account_instance_assocs -->
<g id="node1" class="node">
<title>syst_access_account_instance_assocs</title>
<g id="a_node1"><a xlink:href="../../tables/syst_access_account_instance_assocs.html" xlink:title="syst_access_account_instance_assocs" target="_top">
<polygon fill="#ffffff" stroke="transparent" points="634,-173.21 634,-231.21 926,-231.21 926,-173.21 634,-173.21"/>
<polygon fill="#f5f5f5" stroke="transparent" points="634,-209.21 634,-231.21 926,-231.21 926,-209.21 634,-209.21"/>
<polygon fill="none" stroke="black" points="634,-209.21 634,-231.21 926,-231.21 926,-209.21 634,-209.21"/>
<text text-anchor="start" x="639" y="-218.41" font-family="Helvetica,sans-Serif" font-weight="bold" font-size="11.00">syst_access_account_instance_assocs</text>
<text text-anchor="start" x="891" y="-217.41" font-family="Helvetica,sans-Serif" font-size="11.00">[table]</text>
<polygon fill="none" stroke="black" points="634,-191.21 634,-209.21 926,-209.21 926,-191.21 634,-191.21"/>
<text text-anchor="start" x="637" y="-197.41" font-family="Helvetica,sans-Serif" font-size="11.00">...</text>
<polygon fill="#ffffff" stroke="transparent" points="634,-173.21 634,-191.21 778,-191.21 778,-173.21 634,-173.21"/>
<polygon fill="none" stroke="black" points="634,-173.21 634,-191.21 778,-191.21 778,-173.21 634,-173.21"/>
<text text-anchor="start" x="637" y="-179.41" font-family="Helvetica,sans-Serif" font-size="11.00">&lt; 2</text>
<polygon fill="#ffffff" stroke="transparent" points="778,-173.21 778,-191.21 852,-191.21 852,-173.21 778,-173.21"/>
<polygon fill="none" stroke="black" points="778,-173.21 778,-191.21 852,-191.21 852,-173.21 778,-173.21"/>
<text text-anchor="start" x="842" y="-179.41" font-family="Helvetica,sans-Serif" font-size="11.00"> &#160;</text>
<polygon fill="#ffffff" stroke="transparent" points="852,-173.21 852,-191.21 926,-191.21 926,-173.21 852,-173.21"/>
<polygon fill="none" stroke="black" points="852,-173.21 852,-191.21 926,-191.21 926,-173.21 852,-173.21"/>
<text text-anchor="start" x="916" y="-179.41" font-family="Helvetica,sans-Serif" font-size="11.00"> &#160;</text>
</a>
</g>
</g>
<!-- syst_access_accounts -->
<g id="node2" class="node">
<title>syst_access_accounts</title>
<g id="a_node2"><a xlink:href="../../tables/syst_access_accounts.html" xlink:title="syst_access_accounts" target="_top">
<polygon fill="#ffffff" stroke="transparent" points="383,-94.21 383,-240.21 577,-240.21 577,-94.21 383,-94.21"/>
<polygon fill="#f5f5f5" stroke="transparent" points="383,-218.21 383,-240.21 577,-240.21 577,-218.21 383,-218.21"/>
<polygon fill="none" stroke="black" points="383,-218.21 383,-240.21 577,-240.21 577,-218.21 383,-218.21"/>
<text text-anchor="start" x="388" y="-227.41" font-family="Helvetica,sans-Serif" font-weight="bold" font-size="11.00">syst_access_accounts</text>
<text text-anchor="start" x="542" y="-226.41" font-family="Helvetica,sans-Serif" font-size="11.00">[table]</text>
<polygon fill="none" stroke="black" points="383,-196.21 383,-218.21 577,-218.21 577,-196.21 383,-196.21"/>
<image xlink:href="../../images/primaryKeys.png" width="11px" height="12px" preserveAspectRatio="xMinYMin meet" x="388" y="-213.212"/>
<text text-anchor="start" x="403" y="-204.41" font-family="Helvetica,sans-Serif" font-size="11.00">id</text>
<polygon fill="#ffffff" stroke="transparent" points="383,-174.21 383,-196.21 577,-196.21 577,-174.21 383,-174.21"/>
<polygon fill="none" stroke="black" points="383,-174.21 383,-196.21 577,-196.21 577,-174.21 383,-174.21"/>
<text text-anchor="start" x="403" y="-182.41" font-family="Helvetica,sans-Serif" font-size="11.00">internal_name</text>
<polygon fill="none" stroke="black" points="383,-152.21 383,-174.21 577,-174.21 577,-152.21 383,-152.21"/>
<image xlink:href="../../images/foreignKeys.png" width="11px" height="12px" preserveAspectRatio="xMinYMin meet" x="388" y="-169.212"/>
<text text-anchor="start" x="403" y="-160.41" font-family="Helvetica,sans-Serif" font-size="11.00">owning_owner_id</text>
<polygon fill="none" stroke="black" points="383,-130.21 383,-152.21 577,-152.21 577,-130.21 383,-130.21"/>
<image xlink:href="../../images/foreignKeys.png" width="11px" height="12px" preserveAspectRatio="xMinYMin meet" x="388" y="-147.212"/>
<text text-anchor="start" x="403" y="-138.41" font-family="Helvetica,sans-Serif" font-size="11.00">access_account_state_id</text>
<polygon fill="none" stroke="black" points="383,-112.21 383,-130.21 577,-130.21 577,-112.21 383,-112.21"/>
<text text-anchor="start" x="386" y="-118.41" font-family="Helvetica,sans-Serif" font-size="11.00">...</text>
<polygon fill="#ffffff" stroke="transparent" points="383,-94.21 383,-112.21 473,-112.21 473,-94.21 383,-94.21"/>
<polygon fill="none" stroke="black" points="383,-94.21 383,-112.21 473,-112.21 473,-94.21 383,-94.21"/>
<text text-anchor="start" x="386" y="-100.41" font-family="Helvetica,sans-Serif" font-size="11.00">&lt; 2</text>
<polygon fill="#ffffff" stroke="transparent" points="473,-94.21 473,-112.21 520,-112.21 520,-94.21 473,-94.21"/>
<polygon fill="none" stroke="black" points="473,-94.21 473,-112.21 520,-112.21 520,-94.21 473,-94.21"/>
<text text-anchor="start" x="510" y="-100.41" font-family="Helvetica,sans-Serif" font-size="11.00"> &#160;</text>
<polygon fill="#ffffff" stroke="transparent" points="520,-94.21 520,-112.21 577,-112.21 577,-94.21 520,-94.21"/>
<polygon fill="none" stroke="black" points="520,-94.21 520,-112.21 577,-112.21 577,-94.21 520,-94.21"/>
<text text-anchor="start" x="558" y="-100.41" font-family="Helvetica,sans-Serif" font-size="11.00">5 &gt;</text>
</a>
</g>
</g>
<!-- syst_access_account_instance_assocs&#45;&gt;syst_access_accounts -->
<g id="edge1" class="edge">
<title>syst_access_account_instance_assocs:w&#45;&gt;syst_access_accounts:e</title>
<path fill="none" stroke="black" d="M618.31,-201.19C604.64,-203.11 596.87,-207.21 578,-207.21"/>
<polygon fill="black" stroke="black" points="625.02,-200.74 633.24,-203.8 629.01,-200.48 633,-200.21 633,-200.21 633,-200.21 629.01,-200.48 632.76,-196.62 625.02,-200.74 625.02,-200.74"/>
<ellipse fill="none" stroke="black" cx="621.82" cy="-200.95" rx="3.2" ry="3.2"/>
</g>
<!-- syst_enum_items -->
<g id="node4" class="node">
<title>syst_enum_items</title>
<g id="a_node4"><a xlink:href="../../tables/syst_enum_items.html" xlink:title="syst_enum_items" target="_top">
<polygon fill="#ffffff" stroke="transparent" points="8,-60.21 8,-118.21 163,-118.21 163,-60.21 8,-60.21"/>
<polygon fill="#f5f5f5" stroke="transparent" points="8.5,-96.21 8.5,-118.21 163.5,-118.21 163.5,-96.21 8.5,-96.21"/>
<polygon fill="none" stroke="black" points="8.5,-96.21 8.5,-118.21 163.5,-118.21 163.5,-96.21 8.5,-96.21"/>
<text text-anchor="start" x="13.5" y="-105.41" font-family="Helvetica,sans-Serif" font-weight="bold" font-size="11.00">syst_enum_items</text>
<text text-anchor="start" x="128.5" y="-104.41" font-family="Helvetica,sans-Serif" font-size="11.00">[table]</text>
<polygon fill="none" stroke="black" points="8.5,-78.21 8.5,-96.21 163.5,-96.21 163.5,-78.21 8.5,-78.21"/>
<text text-anchor="start" x="11.5" y="-84.41" font-family="Helvetica,sans-Serif" font-size="11.00">...</text>
<polygon fill="#ffffff" stroke="transparent" points="8.5,-60.21 8.5,-78.21 79.5,-78.21 79.5,-60.21 8.5,-60.21"/>
<polygon fill="none" stroke="black" points="8.5,-60.21 8.5,-78.21 79.5,-78.21 79.5,-60.21 8.5,-60.21"/>
<text text-anchor="start" x="11.5" y="-66.41" font-family="Helvetica,sans-Serif" font-size="11.00">&lt; 2</text>
<polygon fill="#ffffff" stroke="transparent" points="79.5,-60.21 79.5,-78.21 116.5,-78.21 116.5,-60.21 79.5,-60.21"/>
<polygon fill="none" stroke="black" points="79.5,-60.21 79.5,-78.21 116.5,-78.21 116.5,-60.21 79.5,-60.21"/>
<text text-anchor="start" x="106.5" y="-66.41" font-family="Helvetica,sans-Serif" font-size="11.00"> &#160;</text>
<polygon fill="#ffffff" stroke="transparent" points="116.5,-60.21 116.5,-78.21 163.5,-78.21 163.5,-60.21 116.5,-60.21"/>
<polygon fill="none" stroke="black" points="116.5,-60.21 116.5,-78.21 163.5,-78.21 163.5,-60.21 116.5,-60.21"/>
<text text-anchor="start" x="144.5" y="-66.41" font-family="Helvetica,sans-Serif" font-size="11.00">7 &gt;</text>
</a>
</g>
</g>
<!-- syst_access_accounts&#45;&gt;syst_enum_items -->
<g id="edge3" class="edge">
<title>syst_access_accounts:w&#45;&gt;syst_enum_items:e</title>
<path fill="none" stroke="black" d="M367.77,-138.05C359.63,-133.85 354.85,-126.46 342,-122.21 265.65,-96.99 244.91,-87.21 164.5,-87.21"/>
<polygon fill="black" stroke="black" points="374.19,-139.48 381.22,-144.73 378.1,-140.34 382,-141.21 382,-141.21 382,-141.21 378.1,-140.34 382.78,-137.7 374.19,-139.48 374.19,-139.48"/>
<ellipse fill="none" stroke="black" cx="371.07" cy="-138.78" rx="3.2" ry="3.2"/>
</g>
<!-- syst_owners -->
<g id="node5" class="node">
<title>syst_owners</title>
<g id="a_node5"><a xlink:href="../../tables/syst_owners.html" xlink:title="syst_owners" target="_top">
<polygon fill="#ffffff" stroke="transparent" points="212,-132.21 212,-190.21 334,-190.21 334,-132.21 212,-132.21"/>
<polygon fill="#f5f5f5" stroke="transparent" points="212,-168.21 212,-190.21 334,-190.21 334,-168.21 212,-168.21"/>
<polygon fill="none" stroke="black" points="212,-168.21 212,-190.21 334,-190.21 334,-168.21 212,-168.21"/>
<text text-anchor="start" x="217" y="-177.41" font-family="Helvetica,sans-Serif" font-weight="bold" font-size="11.00">syst_owners</text>
<text text-anchor="start" x="299" y="-176.41" font-family="Helvetica,sans-Serif" font-size="11.00">[table]</text>
<polygon fill="none" stroke="black" points="212,-150.21 212,-168.21 334,-168.21 334,-150.21 212,-150.21"/>
<text text-anchor="start" x="215" y="-156.41" font-family="Helvetica,sans-Serif" font-size="11.00">...</text>
<polygon fill="#ffffff" stroke="transparent" points="212,-132.21 212,-150.21 266,-150.21 266,-132.21 212,-132.21"/>
<polygon fill="none" stroke="black" points="212,-132.21 212,-150.21 266,-150.21 266,-132.21 212,-132.21"/>
<text text-anchor="start" x="215" y="-138.41" font-family="Helvetica,sans-Serif" font-size="11.00">&lt; 1</text>
<polygon fill="#ffffff" stroke="transparent" points="266,-132.21 266,-150.21 295,-150.21 295,-132.21 266,-132.21"/>
<polygon fill="none" stroke="black" points="266,-132.21 266,-150.21 295,-150.21 295,-132.21 266,-132.21"/>
<text text-anchor="start" x="285" y="-138.41" font-family="Helvetica,sans-Serif" font-size="11.00"> &#160;</text>
<polygon fill="#ffffff" stroke="transparent" points="295,-132.21 295,-150.21 334,-150.21 334,-132.21 295,-132.21"/>
<polygon fill="none" stroke="black" points="295,-132.21 295,-150.21 334,-150.21 334,-132.21 295,-132.21"/>
<text text-anchor="start" x="315" y="-138.41" font-family="Helvetica,sans-Serif" font-size="11.00">4 &gt;</text>
</a>
</g>
</g>
<!-- syst_access_accounts&#45;&gt;syst_owners -->
<g id="edge4" class="edge">
<title>syst_access_accounts:w&#45;&gt;syst_owners:e</title>
<path fill="none" stroke="black" d="M367.38,-162.44C356.93,-161.28 350.07,-159.21 335,-159.21"/>
<polygon fill="black" stroke="black" points="374.01,-162.79 381.81,-166.81 378.01,-163 382,-163.21 382,-163.21 382,-163.21 378.01,-163 382.19,-159.62 374.01,-162.79 374.01,-162.79"/>
<ellipse fill="none" stroke="black" cx="370.82" cy="-162.62" rx="3.2" ry="3.2"/>
</g>
<!-- syst_access_account_perm_role_assigns -->
<g id="node3" class="node">
<title>syst_access_account_perm_role_assigns</title>
<g id="a_node3"><a xlink:href="../../tables/syst_access_account_perm_role_assigns.html" xlink:title="syst_access_account_perm_role_assigns" target="_top">
<polygon fill="#ffffff" stroke="transparent" points="626,-537.21 626,-595.21 934,-595.21 934,-537.21 626,-537.21"/>
<polygon fill="#f5f5f5" stroke="transparent" points="626,-573.21 626,-595.21 934,-595.21 934,-573.21 626,-573.21"/>
<polygon fill="none" stroke="black" points="626,-573.21 626,-595.21 934,-595.21 934,-573.21 626,-573.21"/>
<text text-anchor="start" x="631" y="-582.41" font-family="Helvetica,sans-Serif" font-weight="bold" font-size="11.00">syst_access_account_perm_role_assigns</text>
<text text-anchor="start" x="899" y="-581.41" font-family="Helvetica,sans-Serif" font-size="11.00">[table]</text>
<polygon fill="none" stroke="black" points="626,-555.21 626,-573.21 934,-573.21 934,-555.21 626,-555.21"/>
<text text-anchor="start" x="629" y="-561.41" font-family="Helvetica,sans-Serif" font-size="11.00">...</text>
<polygon fill="#ffffff" stroke="transparent" points="626,-537.21 626,-555.21 778,-555.21 778,-537.21 626,-537.21"/>
<polygon fill="none" stroke="black" points="626,-537.21 626,-555.21 778,-555.21 778,-537.21 626,-537.21"/>
<text text-anchor="start" x="629" y="-543.41" font-family="Helvetica,sans-Serif" font-size="11.00">&lt; 2</text>
<polygon fill="#ffffff" stroke="transparent" points="778,-537.21 778,-555.21 856,-555.21 856,-537.21 778,-537.21"/>
<polygon fill="none" stroke="black" points="778,-537.21 778,-555.21 856,-555.21 856,-537.21 778,-537.21"/>
<text text-anchor="start" x="846" y="-543.41" font-family="Helvetica,sans-Serif" font-size="11.00"> &#160;</text>
<polygon fill="#ffffff" stroke="transparent" points="856,-537.21 856,-555.21 934,-555.21 934,-537.21 856,-537.21"/>
<polygon fill="none" stroke="black" points="856,-537.21 856,-555.21 934,-555.21 934,-537.21 856,-537.21"/>
<text text-anchor="start" x="924" y="-543.41" font-family="Helvetica,sans-Serif" font-size="11.00"> &#160;</text>
</a>
</g>
</g>
<!-- syst_access_account_perm_role_assigns&#45;&gt;syst_access_accounts -->
<g id="edge2" class="edge">
<title>syst_access_account_perm_role_assigns:w&#45;&gt;syst_access_accounts:e</title>
<path fill="none" stroke="black" d="M611.17,-559.44C559.53,-517.07 652.55,-207.21 578,-207.21"/>
<polygon fill="black" stroke="black" points="617.44,-561.6 623.82,-567.62 621.22,-562.91 625,-564.21 625,-564.21 625,-564.21 621.22,-562.91 626.18,-560.81 617.44,-561.6 617.44,-561.6"/>
<ellipse fill="none" stroke="black" cx="614.41" cy="-560.56" rx="3.2" ry="3.2"/>
</g>
<!-- syst_owners&#45;&gt;syst_enum_items -->
<g id="edge10" class="edge">
<title>syst_owners:w&#45;&gt;syst_enum_items:e</title>
<path fill="none" stroke="black" d="M197.13,-154.03C180.82,-137.53 196.34,-87.21 164.5,-87.21"/>
<polygon fill="black" stroke="black" points="203.5,-156.42 209.74,-162.59 207.25,-157.81 211,-159.21 211,-159.21 211,-159.21 207.25,-157.81 212.26,-155.84 203.5,-156.42 203.5,-156.42"/>
<ellipse fill="none" stroke="black" cx="200.51" cy="-155.3" rx="3.2" ry="3.2"/>
</g>
<!-- syst_credentials -->
<g id="node6" class="node">
<title>syst_credentials</title>
<g id="a_node6"><a xlink:href="../../tables/syst_credentials.html" xlink:title="syst_credentials" target="_top">
<polygon fill="#ffffff" stroke="transparent" points="983,-67.21 983,-125.21 1132,-125.21 1132,-67.21 983,-67.21"/>
<polygon fill="#f5f5f5" stroke="transparent" points="983.5,-103.21 983.5,-125.21 1132.5,-125.21 1132.5,-103.21 983.5,-103.21"/>
<polygon fill="none" stroke="black" points="983.5,-103.21 983.5,-125.21 1132.5,-125.21 1132.5,-103.21 983.5,-103.21"/>
<text text-anchor="start" x="988.5" y="-112.41" font-family="Helvetica,sans-Serif" font-weight="bold" font-size="11.00">syst_credentials</text>
<text text-anchor="start" x="1097.5" y="-111.41" font-family="Helvetica,sans-Serif" font-size="11.00">[table]</text>
<polygon fill="none" stroke="black" points="983.5,-85.21 983.5,-103.21 1132.5,-103.21 1132.5,-85.21 983.5,-85.21"/>
<text text-anchor="start" x="986.5" y="-91.41" font-family="Helvetica,sans-Serif" font-size="11.00">...</text>
<polygon fill="#ffffff" stroke="transparent" points="983.5,-67.21 983.5,-85.21 1055.5,-85.21 1055.5,-67.21 983.5,-67.21"/>
<polygon fill="none" stroke="black" points="983.5,-67.21 983.5,-85.21 1055.5,-85.21 1055.5,-67.21 983.5,-67.21"/>
<text text-anchor="start" x="986.5" y="-73.41" font-family="Helvetica,sans-Serif" font-size="11.00">&lt; 3</text>
<polygon fill="#ffffff" stroke="transparent" points="1055.5,-67.21 1055.5,-85.21 1093.5,-85.21 1093.5,-67.21 1055.5,-67.21"/>
<polygon fill="none" stroke="black" points="1055.5,-67.21 1055.5,-85.21 1093.5,-85.21 1093.5,-67.21 1055.5,-67.21"/>
<text text-anchor="start" x="1083.5" y="-73.41" font-family="Helvetica,sans-Serif" font-size="11.00"> &#160;</text>
<polygon fill="#ffffff" stroke="transparent" points="1093.5,-67.21 1093.5,-85.21 1132.5,-85.21 1132.5,-67.21 1093.5,-67.21"/>
<polygon fill="none" stroke="black" points="1093.5,-67.21 1093.5,-85.21 1132.5,-85.21 1132.5,-67.21 1093.5,-67.21"/>
<text text-anchor="start" x="1122.5" y="-73.41" font-family="Helvetica,sans-Serif" font-size="11.00"> &#160;</text>
</a>
</g>
</g>
<!-- syst_credentials&#45;&gt;syst_access_accounts -->
<g id="edge5" class="edge">
<title>syst_credentials:w&#45;&gt;syst_access_accounts:e</title>
<path fill="none" stroke="black" d="M968.83,-98.93C958.96,-108.01 959.75,-127.78 942,-136.21 811.47,-198.2 747.6,-99.31 618,-163.21 594.3,-174.9 604.43,-207.21 578,-207.21"/>
<polygon fill="black" stroke="black" points="974.94,-96.82 983.67,-97.62 978.72,-95.52 982.5,-94.21 982.5,-94.21 982.5,-94.21 978.72,-95.52 981.33,-90.81 974.94,-96.82 974.94,-96.82"/>
<ellipse fill="none" stroke="black" cx="971.91" cy="-97.86" rx="3.2" ry="3.2"/>
</g>
<!-- syst_credentials&#45;&gt;syst_enum_items -->
<g id="edge7" class="edge">
<title>syst_credentials:w&#45;&gt;syst_enum_items:e</title>
<path fill="none" stroke="black" d="M968.79,-89.41C959.58,-80.97 958.87,-63.76 942,-57.21 807.75,-5.12 761.95,-53.56 618,-57.21 433.82,-61.88 386.5,-52.99 204,-78.21 186.16,-80.68 182.51,-87.21 164.5,-87.21"/>
<polygon fill="black" stroke="black" points="974.95,-91.57 981.31,-97.61 978.73,-92.89 982.5,-94.21 982.5,-94.21 982.5,-94.21 978.73,-92.89 983.69,-90.82 974.95,-91.57 974.95,-91.57"/>
<ellipse fill="none" stroke="black" cx="971.93" cy="-90.51" rx="3.2" ry="3.2"/>
</g>
<!-- syst_identities -->
<g id="node7" class="node">
<title>syst_identities</title>
<g id="a_node7"><a xlink:href="../../tables/syst_identities.html" xlink:title="syst_identities" target="_top">
<polygon fill="#ffffff" stroke="transparent" points="711,-67.21 711,-125.21 849,-125.21 849,-67.21 711,-67.21"/>
<polygon fill="#f5f5f5" stroke="transparent" points="711,-103.21 711,-125.21 849,-125.21 849,-103.21 711,-103.21"/>
<polygon fill="none" stroke="black" points="711,-103.21 711,-125.21 849,-125.21 849,-103.21 711,-103.21"/>
<text text-anchor="start" x="716" y="-112.41" font-family="Helvetica,sans-Serif" font-weight="bold" font-size="11.00">syst_identities</text>
<text text-anchor="start" x="814" y="-111.41" font-family="Helvetica,sans-Serif" font-size="11.00">[table]</text>
<polygon fill="none" stroke="black" points="711,-85.21 711,-103.21 849,-103.21 849,-85.21 711,-85.21"/>
<text text-anchor="start" x="714" y="-91.41" font-family="Helvetica,sans-Serif" font-size="11.00">...</text>
<polygon fill="#ffffff" stroke="transparent" points="711,-67.21 711,-85.21 773,-85.21 773,-67.21 711,-67.21"/>
<polygon fill="none" stroke="black" points="711,-67.21 711,-85.21 773,-85.21 773,-67.21 711,-67.21"/>
<text text-anchor="start" x="714" y="-73.41" font-family="Helvetica,sans-Serif" font-size="11.00">&lt; 3</text>
<polygon fill="#ffffff" stroke="transparent" points="773,-67.21 773,-85.21 806,-85.21 806,-67.21 773,-67.21"/>
<polygon fill="none" stroke="black" points="773,-67.21 773,-85.21 806,-85.21 806,-67.21 773,-67.21"/>
<text text-anchor="start" x="796" y="-73.41" font-family="Helvetica,sans-Serif" font-size="11.00"> &#160;</text>
<polygon fill="#ffffff" stroke="transparent" points="806,-67.21 806,-85.21 849,-85.21 849,-67.21 806,-67.21"/>
<polygon fill="none" stroke="black" points="806,-67.21 806,-85.21 849,-85.21 849,-67.21 806,-67.21"/>
<text text-anchor="start" x="830" y="-73.41" font-family="Helvetica,sans-Serif" font-size="11.00">2 &gt;</text>
</a>
</g>
</g>
<!-- syst_credentials&#45;&gt;syst_identities -->
<g id="edge6" class="edge">
<title>syst_credentials:w&#45;&gt;syst_identities:e</title>
<path fill="none" stroke="black" d="M967.94,-94.21C920.68,-94.21 903.71,-94.21 850,-94.21"/>
<polygon fill="black" stroke="black" points="974.5,-94.21 982.5,-97.81 978.5,-94.21 982.5,-94.21 982.5,-94.21 982.5,-94.21 978.5,-94.21 982.5,-90.61 974.5,-94.21 974.5,-94.21"/>
<ellipse fill="none" stroke="black" cx="971.3" cy="-94.21" rx="3.2" ry="3.2"/>
</g>
<!-- syst_identities&#45;&gt;syst_access_accounts -->
<g id="edge8" class="edge">
<title>syst_identities:w&#45;&gt;syst_access_accounts:e</title>
<path fill="none" stroke="black" d="M695.25,-94.8C661.14,-97.74 647.48,-111.91 618,-139.21 592.27,-163.04 613.06,-207.21 578,-207.21"/>
<polygon fill="black" stroke="black" points="702.01,-94.53 710.14,-97.81 706,-94.37 710,-94.21 710,-94.21 710,-94.21 706,-94.37 709.86,-90.62 702.01,-94.53 702.01,-94.53"/>
<ellipse fill="none" stroke="black" cx="698.81" cy="-94.66" rx="3.2" ry="3.2"/>
</g>
<!-- syst_identities&#45;&gt;syst_enum_items -->
<g id="edge9" class="edge">
<title>syst_identities:w&#45;&gt;syst_enum_items:e</title>
<path fill="none" stroke="black" d="M695.37,-94.02C651.35,-92.8 635.47,-86.23 585,-84.21 415.8,-77.46 373.27,-80.43 204,-85.21 186.43,-85.71 182.08,-87.21 164.5,-87.21"/>
<polygon fill="black" stroke="black" points="702,-94.11 709.95,-97.81 706,-94.16 710,-94.21 710,-94.21 710,-94.21 706,-94.16 710.05,-90.61 702,-94.11 702,-94.11"/>
<ellipse fill="none" stroke="black" cx="698.8" cy="-94.06" rx="3.2" ry="3.2"/>
</g>
<!-- syst_password_history -->
<g id="node8" class="node">
<title>syst_password_history</title>
<g id="a_node8"><a xlink:href="../../tables/syst_password_history.html" xlink:title="syst_password_history" target="_top">
<polygon fill="#ffffff" stroke="transparent" points="634.5,-252.21 634.5,-516.21 925.5,-516.21 925.5,-252.21 634.5,-252.21"/>
<polygon fill="#f5f5f5" stroke="transparent" points="637,-492.21 637,-514.21 924,-514.21 924,-492.21 637,-492.21"/>
<polygon fill="none" stroke="black" points="637,-492.21 637,-514.21 924,-514.21 924,-492.21 637,-492.21"/>
<text text-anchor="start" x="642" y="-501.41" font-family="Helvetica,sans-Serif" font-weight="bold" font-size="11.00">syst_password_history</text>
<text text-anchor="start" x="889" y="-500.41" font-family="Helvetica,sans-Serif" font-size="11.00">[table]</text>
<polygon fill="none" stroke="black" points="637,-470.21 637,-492.21 831,-492.21 831,-470.21 637,-470.21"/>
<image xlink:href="../../images/primaryKeys.png" width="11px" height="12px" preserveAspectRatio="xMinYMin meet" x="642" y="-487.212"/>
<text text-anchor="start" x="657" y="-478.41" font-family="Helvetica,sans-Serif" font-size="11.00">id</text>
<polygon fill="none" stroke="black" points="831,-470.21 831,-492.21 924,-492.21 924,-470.21 831,-470.21"/>
<text text-anchor="start" x="834" y="-478.41" font-family="Helvetica,sans-Serif" font-size="11.00">uuid[2147483647]</text>
<polygon fill="#ffffff" stroke="transparent" points="637,-448.21 637,-470.21 831,-470.21 831,-448.21 637,-448.21"/>
<polygon fill="none" stroke="black" points="637,-448.21 637,-470.21 831,-470.21 831,-448.21 637,-448.21"/>
<image xlink:href="../../images/foreignKeys.png" width="11px" height="12px" preserveAspectRatio="xMinYMin meet" x="642" y="-465.212"/>
<text text-anchor="start" x="657" y="-456.41" font-family="Helvetica,sans-Serif" font-size="11.00">access_account_id</text>
<polygon fill="none" stroke="black" points="831,-448.21 831,-470.21 924,-470.21 924,-448.21 831,-448.21"/>
<text text-anchor="start" x="834" y="-456.41" font-family="Helvetica,sans-Serif" font-size="11.00">uuid[2147483647]</text>
<polygon fill="none" stroke="black" points="637,-426.21 637,-448.21 831,-448.21 831,-426.21 637,-426.21"/>
<text text-anchor="start" x="657" y="-434.41" font-family="Helvetica,sans-Serif" font-size="11.00">credential_data</text>
<polygon fill="none" stroke="black" points="831,-426.21 831,-448.21 924,-448.21 924,-426.21 831,-426.21"/>
<text text-anchor="start" x="834" y="-434.41" font-family="Helvetica,sans-Serif" font-size="11.00">text[2147483647]</text>
<polygon fill="none" stroke="black" points="637,-404.21 637,-426.21 831,-426.21 831,-404.21 637,-404.21"/>
<text text-anchor="start" x="657" y="-412.41" font-family="Helvetica,sans-Serif" font-size="11.00">diag_timestamp_created</text>
<polygon fill="none" stroke="black" points="831,-404.21 831,-426.21 924,-426.21 924,-404.21 831,-404.21"/>
<text text-anchor="start" x="834" y="-412.41" font-family="Helvetica,sans-Serif" font-size="11.00">timestamptz[35,6]</text>
<polygon fill="none" stroke="black" points="637,-382.21 637,-404.21 831,-404.21 831,-382.21 637,-382.21"/>
<text text-anchor="start" x="657" y="-390.41" font-family="Helvetica,sans-Serif" font-size="11.00">diag_role_created</text>
<polygon fill="none" stroke="black" points="831,-382.21 831,-404.21 924,-404.21 924,-382.21 831,-382.21"/>
<text text-anchor="start" x="834" y="-390.41" font-family="Helvetica,sans-Serif" font-size="11.00">text[2147483647]</text>
<polygon fill="none" stroke="black" points="637,-360.21 637,-382.21 831,-382.21 831,-360.21 637,-360.21"/>
<text text-anchor="start" x="657" y="-368.41" font-family="Helvetica,sans-Serif" font-size="11.00">diag_timestamp_modified</text>
<polygon fill="none" stroke="black" points="831,-360.21 831,-382.21 924,-382.21 924,-360.21 831,-360.21"/>
<text text-anchor="start" x="834" y="-368.41" font-family="Helvetica,sans-Serif" font-size="11.00">timestamptz[35,6]</text>
<polygon fill="none" stroke="black" points="637,-338.21 637,-360.21 831,-360.21 831,-338.21 637,-338.21"/>
<text text-anchor="start" x="657" y="-346.41" font-family="Helvetica,sans-Serif" font-size="11.00">diag_wallclock_modified</text>
<polygon fill="none" stroke="black" points="831,-338.21 831,-360.21 924,-360.21 924,-338.21 831,-338.21"/>
<text text-anchor="start" x="834" y="-346.41" font-family="Helvetica,sans-Serif" font-size="11.00">timestamptz[35,6]</text>
<polygon fill="none" stroke="black" points="637,-316.21 637,-338.21 831,-338.21 831,-316.21 637,-316.21"/>
<text text-anchor="start" x="657" y="-324.41" font-family="Helvetica,sans-Serif" font-size="11.00">diag_role_modified</text>
<polygon fill="none" stroke="black" points="831,-316.21 831,-338.21 924,-338.21 924,-316.21 831,-316.21"/>
<text text-anchor="start" x="834" y="-324.41" font-family="Helvetica,sans-Serif" font-size="11.00">text[2147483647]</text>
<polygon fill="none" stroke="black" points="637,-294.21 637,-316.21 831,-316.21 831,-294.21 637,-294.21"/>
<text text-anchor="start" x="657" y="-302.41" font-family="Helvetica,sans-Serif" font-size="11.00">diag_row_version</text>
<polygon fill="none" stroke="black" points="831,-294.21 831,-316.21 924,-316.21 924,-294.21 831,-294.21"/>
<text text-anchor="start" x="834" y="-302.41" font-family="Helvetica,sans-Serif" font-size="11.00">int8[19]</text>
<polygon fill="none" stroke="black" points="637,-272.21 637,-294.21 831,-294.21 831,-272.21 637,-272.21"/>
<text text-anchor="start" x="657" y="-280.41" font-family="Helvetica,sans-Serif" font-size="11.00">diag_update_count</text>
<polygon fill="none" stroke="black" points="831,-272.21 831,-294.21 924,-294.21 924,-272.21 831,-272.21"/>
<text text-anchor="start" x="834" y="-280.41" font-family="Helvetica,sans-Serif" font-size="11.00">int8[19]</text>
<polygon fill="#ffffff" stroke="transparent" points="637,-254.21 637,-272.21 738,-272.21 738,-254.21 637,-254.21"/>
<polygon fill="none" stroke="black" points="637,-254.21 637,-272.21 738,-272.21 738,-254.21 637,-254.21"/>
<text text-anchor="start" x="640" y="-260.41" font-family="Helvetica,sans-Serif" font-size="11.00">&lt; 1</text>
<polygon fill="#ffffff" stroke="transparent" points="738,-254.21 738,-272.21 831,-272.21 831,-254.21 738,-254.21"/>
<polygon fill="none" stroke="black" points="738,-254.21 738,-272.21 831,-272.21 831,-254.21 738,-254.21"/>
<text text-anchor="start" x="821" y="-260.41" font-family="Helvetica,sans-Serif" font-size="11.00"> &#160;</text>
<polygon fill="#ffffff" stroke="transparent" points="831,-254.21 831,-272.21 924,-272.21 924,-254.21 831,-254.21"/>
<polygon fill="none" stroke="black" points="831,-254.21 831,-272.21 924,-272.21 924,-254.21 831,-254.21"/>
<text text-anchor="start" x="905" y="-260.41" font-family="Helvetica,sans-Serif" font-size="11.00">0 &gt;</text>
<polygon fill="none" stroke="black" stroke-width="2" points="635.5,-253.21 635.5,-515.21 924.5,-515.21 924.5,-253.21 635.5,-253.21"/>
</a>
</g>
</g>
<!-- syst_password_history&#45;&gt;syst_access_accounts -->
<g id="edge11" class="edge">
<title>syst_password_history:w&#45;&gt;syst_access_accounts:e</title>
<path fill="none" stroke="black" d="M622.67,-452.98C588.2,-414.18 630.08,-207.21 578,-207.21"/>
<polygon fill="black" stroke="black" points="628.75,-455.83 634.48,-462.47 632.38,-457.52 636,-459.21 636,-459.21 636,-459.21 632.38,-457.52 637.52,-455.95 628.75,-455.83 628.75,-455.83"/>
<ellipse fill="none" stroke="black" cx="625.85" cy="-454.47" rx="3.2" ry="3.2"/>
</g>
</g>
</svg>
