<?xml version="1.0" encoding="UTF-8" standalone="no"?>
<!DOCTYPE svg PUBLIC "-//W3C//DTD SVG 1.1//EN"
 "http://www.w3.org/Graphics/SVG/1.1/DTD/svg11.dtd">
<!-- Generated by graphviz version 2.43.0 (0)
 -->
<!-- Title: oneDegreeRelationshipsDiagram Pages: 1 -->
<svg width="1401pt" height="731pt"
 viewBox="0.00 0.00 1401.00 731.31" xmlns="http://www.w3.org/2000/svg" xmlns:xlink="http://www.w3.org/1999/xlink">
<g id="graph0" class="graph" transform="scale(1 1) rotate(0) translate(4 727.31)">
<title>oneDegreeRelationshipsDiagram</title>
<polygon fill="#ffffff" stroke="transparent" points="-4,4 -4,-727.31 1397,-727.31 1397,4 -4,4"/>
<text text-anchor="middle" x="71.5" y="-7.2" font-family="Helvetica,sans-Serif" font-size="11.00">Generated by SchemaSpy</text>
<!-- syst_access_account_instance_assocs -->
<g id="node1" class="node">
<title>syst_access_account_instance_assocs</title>
<g id="a_node1"><a xlink:href="../../tables/syst_access_account_instance_assocs.html" xlink:title="syst_access_account_instance_assocs" target="_top">
<polygon fill="#ffffff" stroke="transparent" points="842,-398 842,-522 1134,-522 1134,-398 842,-398"/>
<polygon fill="#f5f5f5" stroke="transparent" points="842,-500 842,-522 1134,-522 1134,-500 842,-500"/>
<polygon fill="none" stroke="black" points="842,-500 842,-522 1134,-522 1134,-500 842,-500"/>
<text text-anchor="start" x="847" y="-509.2" font-family="Helvetica,sans-Serif" font-weight="bold" font-size="11.00">syst_access_account_instance_assocs</text>
<text text-anchor="start" x="1099" y="-508.2" font-family="Helvetica,sans-Serif" font-size="11.00">[table]</text>
<polygon fill="none" stroke="black" points="842,-478 842,-500 1134,-500 1134,-478 842,-478"/>
<image xlink:href="../../images/primaryKeys.png" width="11px" height="12px" preserveAspectRatio="xMinYMin meet" x="847" y="-495"/>
<text text-anchor="start" x="872" y="-486.2" font-family="Helvetica,sans-Serif" font-size="11.00">id</text>
<polygon fill="#ffffff" stroke="transparent" points="842,-456 842,-478 1134,-478 1134,-456 842,-456"/>
<polygon fill="none" stroke="black" points="842,-456 842,-478 1134,-478 1134,-456 842,-456"/>
<image xlink:href="../../images/foreignKeys.png" width="11px" height="12px" preserveAspectRatio="xMinYMin meet" x="847" y="-473"/>
<text text-anchor="start" x="872" y="-464.2" font-family="Helvetica,sans-Serif" font-size="11.00">access_account_id</text>
<polygon fill="#ffffff" stroke="transparent" points="842,-434 842,-456 1134,-456 1134,-434 842,-434"/>
<polygon fill="none" stroke="black" points="842,-434 842,-456 1134,-456 1134,-434 842,-434"/>
<image xlink:href="../../images/foreignKeys.png" width="11px" height="12px" preserveAspectRatio="xMinYMin meet" x="847" y="-451"/>
<text text-anchor="start" x="872" y="-442.2" font-family="Helvetica,sans-Serif" font-size="11.00">instance_id</text>
<polygon fill="none" stroke="black" points="842,-416 842,-434 1134,-434 1134,-416 842,-416"/>
<text text-anchor="start" x="845" y="-422.2" font-family="Helvetica,sans-Serif" font-size="11.00">...</text>
<polygon fill="#ffffff" stroke="transparent" points="842,-398 842,-416 986,-416 986,-398 842,-398"/>
<polygon fill="none" stroke="black" points="842,-398 842,-416 986,-416 986,-398 842,-398"/>
<text text-anchor="start" x="845" y="-404.2" font-family="Helvetica,sans-Serif" font-size="11.00">&lt; 2</text>
<polygon fill="#ffffff" stroke="transparent" points="986,-398 986,-416 1060,-416 1060,-398 986,-398"/>
<polygon fill="none" stroke="black" points="986,-398 986,-416 1060,-416 1060,-398 986,-398"/>
<text text-anchor="start" x="1050" y="-404.2" font-family="Helvetica,sans-Serif" font-size="11.00"> &#160;</text>
<polygon fill="#ffffff" stroke="transparent" points="1060,-398 1060,-416 1134,-416 1134,-398 1060,-398"/>
<polygon fill="none" stroke="black" points="1060,-398 1060,-416 1134,-416 1134,-398 1060,-398"/>
<text text-anchor="start" x="1124" y="-404.2" font-family="Helvetica,sans-Serif" font-size="11.00"> &#160;</text>
</a>
</g>
</g>
<!-- syst_access_accounts -->
<g id="node2" class="node">
<title>syst_access_accounts</title>
<g id="a_node2"><a xlink:href="../../tables/syst_access_accounts.html" xlink:title="syst_access_accounts" target="_top">
<polygon fill="#ffffff" stroke="transparent" points="494,-253 494,-583 785,-583 785,-253 494,-253"/>
<polygon fill="#f5f5f5" stroke="transparent" points="496.5,-559 496.5,-581 783.5,-581 783.5,-559 496.5,-559"/>
<polygon fill="none" stroke="black" points="496.5,-559 496.5,-581 783.5,-581 783.5,-559 496.5,-559"/>
<text text-anchor="start" x="501.5" y="-568.2" font-family="Helvetica,sans-Serif" font-weight="bold" font-size="11.00">syst_access_accounts</text>
<text text-anchor="start" x="748.5" y="-567.2" font-family="Helvetica,sans-Serif" font-size="11.00">[table]</text>
<polygon fill="none" stroke="black" points="496.5,-537 496.5,-559 690.5,-559 690.5,-537 496.5,-537"/>
<image xlink:href="../../images/primaryKeys.png" width="11px" height="12px" preserveAspectRatio="xMinYMin meet" x="501.5" y="-554"/>
<text text-anchor="start" x="516.5" y="-545.2" font-family="Helvetica,sans-Serif" font-size="11.00">id</text>
<polygon fill="none" stroke="black" points="690.5,-537 690.5,-559 783.5,-559 783.5,-537 690.5,-537"/>
<text text-anchor="start" x="693.5" y="-545.2" font-family="Helvetica,sans-Serif" font-size="11.00">uuid[2147483647]</text>
<polygon fill="#ffffff" stroke="transparent" points="496.5,-515 496.5,-537 690.5,-537 690.5,-515 496.5,-515"/>
<polygon fill="none" stroke="black" points="496.5,-515 496.5,-537 690.5,-537 690.5,-515 496.5,-515"/>
<text text-anchor="start" x="516.5" y="-523.2" font-family="Helvetica,sans-Serif" font-size="11.00">internal_name</text>
<polygon fill="none" stroke="black" points="690.5,-515 690.5,-537 783.5,-537 783.5,-515 690.5,-515"/>
<text text-anchor="start" x="693.5" y="-523.2" font-family="Helvetica,sans-Serif" font-size="11.00">text[2147483647]</text>
<polygon fill="none" stroke="black" points="496.5,-493 496.5,-515 690.5,-515 690.5,-493 496.5,-493"/>
<text text-anchor="start" x="516.5" y="-501.2" font-family="Helvetica,sans-Serif" font-size="11.00">external_name</text>
<polygon fill="none" stroke="black" points="690.5,-493 690.5,-515 783.5,-515 783.5,-493 690.5,-493"/>
<text text-anchor="start" x="693.5" y="-501.2" font-family="Helvetica,sans-Serif" font-size="11.00">text[2147483647]</text>
<polygon fill="none" stroke="black" points="496.5,-471 496.5,-493 690.5,-493 690.5,-471 496.5,-471"/>
<image xlink:href="../../images/foreignKeys.png" width="11px" height="12px" preserveAspectRatio="xMinYMin meet" x="501.5" y="-488"/>
<text text-anchor="start" x="516.5" y="-479.2" font-family="Helvetica,sans-Serif" font-size="11.00">owning_owner_id</text>
<polygon fill="none" stroke="black" points="690.5,-471 690.5,-493 783.5,-493 783.5,-471 690.5,-471"/>
<text text-anchor="start" x="693.5" y="-479.2" font-family="Helvetica,sans-Serif" font-size="11.00">uuid[2147483647]</text>
<polygon fill="none" stroke="black" points="496.5,-449 496.5,-471 690.5,-471 690.5,-449 496.5,-449"/>
<text text-anchor="start" x="516.5" y="-457.2" font-family="Helvetica,sans-Serif" font-size="11.00">allow_global_logins</text>
<polygon fill="none" stroke="black" points="690.5,-449 690.5,-471 783.5,-471 783.5,-449 690.5,-449"/>
<text text-anchor="start" x="693.5" y="-457.2" font-family="Helvetica,sans-Serif" font-size="11.00">bool[1]</text>
<polygon fill="none" stroke="black" points="496.5,-427 496.5,-449 690.5,-449 690.5,-427 496.5,-427"/>
<image xlink:href="../../images/foreignKeys.png" width="11px" height="12px" preserveAspectRatio="xMinYMin meet" x="501.5" y="-444"/>
<text text-anchor="start" x="516.5" y="-435.2" font-family="Helvetica,sans-Serif" font-size="11.00">access_account_state_id</text>
<polygon fill="none" stroke="black" points="690.5,-427 690.5,-449 783.5,-449 783.5,-427 690.5,-427"/>
<text text-anchor="start" x="693.5" y="-435.2" font-family="Helvetica,sans-Serif" font-size="11.00">uuid[2147483647]</text>
<polygon fill="none" stroke="black" points="496.5,-405 496.5,-427 690.5,-427 690.5,-405 496.5,-405"/>
<text text-anchor="start" x="516.5" y="-413.2" font-family="Helvetica,sans-Serif" font-size="11.00">diag_timestamp_created</text>
<polygon fill="none" stroke="black" points="690.5,-405 690.5,-427 783.5,-427 783.5,-405 690.5,-405"/>
<text text-anchor="start" x="693.5" y="-413.2" font-family="Helvetica,sans-Serif" font-size="11.00">timestamptz[35,6]</text>
<polygon fill="none" stroke="black" points="496.5,-383 496.5,-405 690.5,-405 690.5,-383 496.5,-383"/>
<text text-anchor="start" x="516.5" y="-391.2" font-family="Helvetica,sans-Serif" font-size="11.00">diag_role_created</text>
<polygon fill="none" stroke="black" points="690.5,-383 690.5,-405 783.5,-405 783.5,-383 690.5,-383"/>
<text text-anchor="start" x="693.5" y="-391.2" font-family="Helvetica,sans-Serif" font-size="11.00">text[2147483647]</text>
<polygon fill="none" stroke="black" points="496.5,-361 496.5,-383 690.5,-383 690.5,-361 496.5,-361"/>
<text text-anchor="start" x="516.5" y="-369.2" font-family="Helvetica,sans-Serif" font-size="11.00">diag_timestamp_modified</text>
<polygon fill="none" stroke="black" points="690.5,-361 690.5,-383 783.5,-383 783.5,-361 690.5,-361"/>
<text text-anchor="start" x="693.5" y="-369.2" font-family="Helvetica,sans-Serif" font-size="11.00">timestamptz[35,6]</text>
<polygon fill="none" stroke="black" points="496.5,-339 496.5,-361 690.5,-361 690.5,-339 496.5,-339"/>
<text text-anchor="start" x="516.5" y="-347.2" font-family="Helvetica,sans-Serif" font-size="11.00">diag_wallclock_modified</text>
<polygon fill="none" stroke="black" points="690.5,-339 690.5,-361 783.5,-361 783.5,-339 690.5,-339"/>
<text text-anchor="start" x="693.5" y="-347.2" font-family="Helvetica,sans-Serif" font-size="11.00">timestamptz[35,6]</text>
<polygon fill="none" stroke="black" points="496.5,-317 496.5,-339 690.5,-339 690.5,-317 496.5,-317"/>
<text text-anchor="start" x="516.5" y="-325.2" font-family="Helvetica,sans-Serif" font-size="11.00">diag_role_modified</text>
<polygon fill="none" stroke="black" points="690.5,-317 690.5,-339 783.5,-339 783.5,-317 690.5,-317"/>
<text text-anchor="start" x="693.5" y="-325.2" font-family="Helvetica,sans-Serif" font-size="11.00">text[2147483647]</text>
<polygon fill="none" stroke="black" points="496.5,-295 496.5,-317 690.5,-317 690.5,-295 496.5,-295"/>
<text text-anchor="start" x="516.5" y="-303.2" font-family="Helvetica,sans-Serif" font-size="11.00">diag_row_version</text>
<polygon fill="none" stroke="black" points="690.5,-295 690.5,-317 783.5,-317 783.5,-295 690.5,-295"/>
<text text-anchor="start" x="693.5" y="-303.2" font-family="Helvetica,sans-Serif" font-size="11.00">int8[19]</text>
<polygon fill="none" stroke="black" points="496.5,-273 496.5,-295 690.5,-295 690.5,-273 496.5,-273"/>
<text text-anchor="start" x="516.5" y="-281.2" font-family="Helvetica,sans-Serif" font-size="11.00">diag_update_count</text>
<polygon fill="none" stroke="black" points="690.5,-273 690.5,-295 783.5,-295 783.5,-273 690.5,-273"/>
<text text-anchor="start" x="693.5" y="-281.2" font-family="Helvetica,sans-Serif" font-size="11.00">int8[19]</text>
<polygon fill="#ffffff" stroke="transparent" points="496.5,-255 496.5,-273 597.5,-273 597.5,-255 496.5,-255"/>
<polygon fill="none" stroke="black" points="496.5,-255 496.5,-273 597.5,-273 597.5,-255 496.5,-255"/>
<text text-anchor="start" x="499.5" y="-261.2" font-family="Helvetica,sans-Serif" font-size="11.00">&lt; 2</text>
<polygon fill="#ffffff" stroke="transparent" points="597.5,-255 597.5,-273 690.5,-273 690.5,-255 597.5,-255"/>
<polygon fill="none" stroke="black" points="597.5,-255 597.5,-273 690.5,-273 690.5,-255 597.5,-255"/>
<text text-anchor="start" x="680.5" y="-261.2" font-family="Helvetica,sans-Serif" font-size="11.00"> &#160;</text>
<polygon fill="#ffffff" stroke="transparent" points="690.5,-255 690.5,-273 783.5,-273 783.5,-255 690.5,-255"/>
<polygon fill="none" stroke="black" points="690.5,-255 690.5,-273 783.5,-273 783.5,-255 690.5,-255"/>
<text text-anchor="start" x="764.5" y="-261.2" font-family="Helvetica,sans-Serif" font-size="11.00">5 &gt;</text>
<polygon fill="none" stroke="black" stroke-width="2" points="495,-254 495,-582 784,-582 784,-254 495,-254"/>
</a>
</g>
</g>
<!-- syst_access_account_instance_assocs&#45;&gt;syst_access_accounts -->
<g id="edge1" class="edge">
<title>syst_access_account_instance_assocs:w&#45;&gt;syst_access_accounts:e</title>
<path fill="none" stroke="black" d="M827.14,-470.91C804.09,-487.09 822.56,-548 784.5,-548"/>
<polygon fill="black" stroke="black" points="833.3,-469.17 841.98,-470.47 837.15,-468.09 841,-467 841,-467 841,-467 837.15,-468.09 840.02,-463.53 833.3,-469.17 833.3,-469.17"/>
<ellipse fill="none" stroke="black" cx="830.22" cy="-470.04" rx="3.2" ry="3.2"/>
</g>
<!-- syst_enum_items -->
<g id="node4" class="node">
<title>syst_enum_items</title>
<g id="a_node4"><a xlink:href="../../tables/syst_enum_items.html" xlink:title="syst_enum_items" target="_top">
<polygon fill="#ffffff" stroke="transparent" points="8,-129 8,-297 202,-297 202,-129 8,-129"/>
<polygon fill="#f5f5f5" stroke="transparent" points="8,-275 8,-297 202,-297 202,-275 8,-275"/>
<polygon fill="none" stroke="black" points="8,-275 8,-297 202,-297 202,-275 8,-275"/>
<text text-anchor="start" x="13" y="-284.2" font-family="Helvetica,sans-Serif" font-weight="bold" font-size="11.00">syst_enum_items</text>
<text text-anchor="start" x="167" y="-283.2" font-family="Helvetica,sans-Serif" font-size="11.00">[table]</text>
<polygon fill="none" stroke="black" points="8,-253 8,-275 202,-275 202,-253 8,-253"/>
<image xlink:href="../../images/primaryKeys.png" width="11px" height="12px" preserveAspectRatio="xMinYMin meet" x="13" y="-270"/>
<text text-anchor="start" x="28" y="-261.2" font-family="Helvetica,sans-Serif" font-size="11.00">id</text>
<polygon fill="#ffffff" stroke="transparent" points="8,-231 8,-253 202,-253 202,-231 8,-231"/>
<polygon fill="none" stroke="black" points="8,-231 8,-253 202,-253 202,-231 8,-231"/>
<text text-anchor="start" x="28" y="-239.2" font-family="Helvetica,sans-Serif" font-size="11.00">internal_name</text>
<polygon fill="#ffffff" stroke="transparent" points="8,-209 8,-231 202,-231 202,-209 8,-209"/>
<polygon fill="none" stroke="black" points="8,-209 8,-231 202,-231 202,-209 8,-209"/>
<text text-anchor="start" x="28" y="-217.2" font-family="Helvetica,sans-Serif" font-size="11.00">display_name</text>
<polygon fill="none" stroke="black" points="8,-187 8,-209 202,-209 202,-187 8,-187"/>
<image xlink:href="../../images/foreignKeys.png" width="11px" height="12px" preserveAspectRatio="xMinYMin meet" x="13" y="-204"/>
<text text-anchor="start" x="28" y="-195.2" font-family="Helvetica,sans-Serif" font-size="11.00">enum_id</text>
<polygon fill="none" stroke="black" points="8,-165 8,-187 202,-187 202,-165 8,-165"/>
<image xlink:href="../../images/foreignKeys.png" width="11px" height="12px" preserveAspectRatio="xMinYMin meet" x="13" y="-182"/>
<text text-anchor="start" x="28" y="-173.2" font-family="Helvetica,sans-Serif" font-size="11.00">functional_type_id</text>
<polygon fill="none" stroke="black" points="8,-147 8,-165 202,-165 202,-147 8,-147"/>
<text text-anchor="start" x="11" y="-153.2" font-family="Helvetica,sans-Serif" font-size="11.00">...</text>
<polygon fill="#ffffff" stroke="transparent" points="8,-129 8,-147 98,-147 98,-129 8,-129"/>
<polygon fill="none" stroke="black" points="8,-129 8,-147 98,-147 98,-129 8,-129"/>
<text text-anchor="start" x="11" y="-135.2" font-family="Helvetica,sans-Serif" font-size="11.00">&lt; 2</text>
<polygon fill="#ffffff" stroke="transparent" points="98,-129 98,-147 145,-147 145,-129 98,-129"/>
<polygon fill="none" stroke="black" points="98,-129 98,-147 145,-147 145,-129 98,-129"/>
<text text-anchor="start" x="135" y="-135.2" font-family="Helvetica,sans-Serif" font-size="11.00"> &#160;</text>
<polygon fill="#ffffff" stroke="transparent" points="145,-129 145,-147 202,-147 202,-129 145,-129"/>
<polygon fill="none" stroke="black" points="145,-129 145,-147 202,-147 202,-129 145,-129"/>
<text text-anchor="start" x="183" y="-135.2" font-family="Helvetica,sans-Serif" font-size="11.00">7 &gt;</text>
</a>
</g>
</g>
<!-- syst_access_accounts&#45;&gt;syst_enum_items -->
<g id="edge3" class="edge">
<title>syst_access_accounts:w&#45;&gt;syst_enum_items:e</title>
<path fill="none" stroke="black" d="M481.08,-434.96C455.96,-421.24 485.07,-364.6 453,-336 366.7,-259.05 318.63,-264 203,-264"/>
<polygon fill="black" stroke="black" points="487.67,-436.35 494.76,-441.52 491.59,-437.17 495.5,-438 495.5,-438 495.5,-438 491.59,-437.17 496.24,-434.48 487.67,-436.35 487.67,-436.35"/>
<ellipse fill="none" stroke="black" cx="484.54" cy="-435.69" rx="3.2" ry="3.2"/>
</g>
<!-- syst_owners -->
<g id="node5" class="node">
<title>syst_owners</title>
<g id="a_node5"><a xlink:href="../../tables/syst_owners.html" xlink:title="syst_owners" target="_top">
<polygon fill="#ffffff" stroke="transparent" points="251,-346 251,-492 445,-492 445,-346 251,-346"/>
<polygon fill="#f5f5f5" stroke="transparent" points="251,-470 251,-492 445,-492 445,-470 251,-470"/>
<polygon fill="none" stroke="black" points="251,-470 251,-492 445,-492 445,-470 251,-470"/>
<text text-anchor="start" x="256" y="-479.2" font-family="Helvetica,sans-Serif" font-weight="bold" font-size="11.00">syst_owners</text>
<text text-anchor="start" x="410" y="-478.2" font-family="Helvetica,sans-Serif" font-size="11.00">[table]</text>
<polygon fill="none" stroke="black" points="251,-448 251,-470 445,-470 445,-448 251,-448"/>
<image xlink:href="../../images/primaryKeys.png" width="11px" height="12px" preserveAspectRatio="xMinYMin meet" x="256" y="-465"/>
<text text-anchor="start" x="271" y="-456.2" font-family="Helvetica,sans-Serif" font-size="11.00">id</text>
<polygon fill="#ffffff" stroke="transparent" points="251,-426 251,-448 445,-448 445,-426 251,-426"/>
<polygon fill="none" stroke="black" points="251,-426 251,-448 445,-448 445,-426 251,-426"/>
<text text-anchor="start" x="271" y="-434.2" font-family="Helvetica,sans-Serif" font-size="11.00">internal_name</text>
<polygon fill="#ffffff" stroke="transparent" points="251,-404 251,-426 445,-426 445,-404 251,-404"/>
<polygon fill="none" stroke="black" points="251,-404 251,-426 445,-426 445,-404 251,-404"/>
<text text-anchor="start" x="271" y="-412.2" font-family="Helvetica,sans-Serif" font-size="11.00">display_name</text>
<polygon fill="none" stroke="black" points="251,-382 251,-404 445,-404 445,-382 251,-382"/>
<image xlink:href="../../images/foreignKeys.png" width="11px" height="12px" preserveAspectRatio="xMinYMin meet" x="256" y="-399"/>
<text text-anchor="start" x="271" y="-390.2" font-family="Helvetica,sans-Serif" font-size="11.00">owner_state_id</text>
<polygon fill="none" stroke="black" points="251,-364 251,-382 445,-382 445,-364 251,-364"/>
<text text-anchor="start" x="254" y="-370.2" font-family="Helvetica,sans-Serif" font-size="11.00">...</text>
<polygon fill="#ffffff" stroke="transparent" points="251,-346 251,-364 341,-364 341,-346 251,-346"/>
<polygon fill="none" stroke="black" points="251,-346 251,-364 341,-364 341,-346 251,-346"/>
<text text-anchor="start" x="254" y="-352.2" font-family="Helvetica,sans-Serif" font-size="11.00">&lt; 1</text>
<polygon fill="#ffffff" stroke="transparent" points="341,-346 341,-364 388,-364 388,-346 341,-346"/>
<polygon fill="none" stroke="black" points="341,-346 341,-364 388,-364 388,-346 341,-346"/>
<text text-anchor="start" x="378" y="-352.2" font-family="Helvetica,sans-Serif" font-size="11.00"> &#160;</text>
<polygon fill="#ffffff" stroke="transparent" points="388,-346 388,-364 445,-364 445,-346 388,-346"/>
<polygon fill="none" stroke="black" points="388,-346 388,-364 445,-364 445,-346 388,-346"/>
<text text-anchor="start" x="426" y="-352.2" font-family="Helvetica,sans-Serif" font-size="11.00">4 &gt;</text>
</a>
</g>
</g>
<!-- syst_access_accounts&#45;&gt;syst_owners -->
<g id="edge4" class="edge">
<title>syst_access_accounts:w&#45;&gt;syst_owners:e</title>
<path fill="none" stroke="black" d="M481.31,-478.61C469.4,-472.21 464.38,-459 446,-459"/>
<polygon fill="black" stroke="black" points="487.72,-480.14 494.66,-485.5 491.61,-481.07 495.5,-482 495.5,-482 495.5,-482 491.61,-481.07 496.34,-478.5 487.72,-480.14 487.72,-480.14"/>
<ellipse fill="none" stroke="black" cx="484.61" cy="-479.39" rx="3.2" ry="3.2"/>
</g>
<!-- syst_access_account_perm_role_assigns -->
<g id="node3" class="node">
<title>syst_access_account_perm_role_assigns</title>
<g id="a_node3"><a xlink:href="../../tables/syst_access_account_perm_role_assigns.html" xlink:title="syst_access_account_perm_role_assigns" target="_top">
<polygon fill="#ffffff" stroke="transparent" points="834,-253 834,-377 1142,-377 1142,-253 834,-253"/>
<polygon fill="#f5f5f5" stroke="transparent" points="834,-355 834,-377 1142,-377 1142,-355 834,-355"/>
<polygon fill="none" stroke="black" points="834,-355 834,-377 1142,-377 1142,-355 834,-355"/>
<text text-anchor="start" x="839" y="-364.2" font-family="Helvetica,sans-Serif" font-weight="bold" font-size="11.00">syst_access_account_perm_role_assigns</text>
<text text-anchor="start" x="1107" y="-363.2" font-family="Helvetica,sans-Serif" font-size="11.00">[table]</text>
<polygon fill="none" stroke="black" points="834,-333 834,-355 1142,-355 1142,-333 834,-333"/>
<image xlink:href="../../images/primaryKeys.png" width="11px" height="12px" preserveAspectRatio="xMinYMin meet" x="839" y="-350"/>
<text text-anchor="start" x="864" y="-341.2" font-family="Helvetica,sans-Serif" font-size="11.00">id</text>
<polygon fill="#ffffff" stroke="transparent" points="834,-311 834,-333 1142,-333 1142,-311 834,-311"/>
<polygon fill="none" stroke="black" points="834,-311 834,-333 1142,-333 1142,-311 834,-311"/>
<image xlink:href="../../images/foreignKeys.png" width="11px" height="12px" preserveAspectRatio="xMinYMin meet" x="839" y="-328"/>
<text text-anchor="start" x="864" y="-319.2" font-family="Helvetica,sans-Serif" font-size="11.00">access_account_id</text>
<polygon fill="#ffffff" stroke="transparent" points="834,-289 834,-311 1142,-311 1142,-289 834,-289"/>
<polygon fill="none" stroke="black" points="834,-289 834,-311 1142,-311 1142,-289 834,-289"/>
<image xlink:href="../../images/foreignKeys.png" width="11px" height="12px" preserveAspectRatio="xMinYMin meet" x="839" y="-306"/>
<text text-anchor="start" x="864" y="-297.2" font-family="Helvetica,sans-Serif" font-size="11.00">perm_role_id</text>
<polygon fill="none" stroke="black" points="834,-271 834,-289 1142,-289 1142,-271 834,-271"/>
<text text-anchor="start" x="837" y="-277.2" font-family="Helvetica,sans-Serif" font-size="11.00">...</text>
<polygon fill="#ffffff" stroke="transparent" points="834,-253 834,-271 986,-271 986,-253 834,-253"/>
<polygon fill="none" stroke="black" points="834,-253 834,-271 986,-271 986,-253 834,-253"/>
<text text-anchor="start" x="837" y="-259.2" font-family="Helvetica,sans-Serif" font-size="11.00">&lt; 2</text>
<polygon fill="#ffffff" stroke="transparent" points="986,-253 986,-271 1064,-271 1064,-253 986,-253"/>
<polygon fill="none" stroke="black" points="986,-253 986,-271 1064,-271 1064,-253 986,-253"/>
<text text-anchor="start" x="1054" y="-259.2" font-family="Helvetica,sans-Serif" font-size="11.00"> &#160;</text>
<polygon fill="#ffffff" stroke="transparent" points="1064,-253 1064,-271 1142,-271 1142,-253 1064,-253"/>
<polygon fill="none" stroke="black" points="1064,-253 1064,-271 1142,-271 1142,-253 1064,-253"/>
<text text-anchor="start" x="1132" y="-259.2" font-family="Helvetica,sans-Serif" font-size="11.00"> &#160;</text>
</a>
</g>
</g>
<!-- syst_access_account_perm_role_assigns&#45;&gt;syst_access_accounts -->
<g id="edge2" class="edge">
<title>syst_access_account_perm_role_assigns:w&#45;&gt;syst_access_accounts:e</title>
<path fill="none" stroke="black" d="M818.39,-323.95C746.66,-346.04 881.61,-548 784.5,-548"/>
<polygon fill="black" stroke="black" points="825.07,-323.06 833.48,-325.57 829.04,-322.53 833,-322 833,-322 833,-322 829.04,-322.53 832.52,-318.43 825.07,-323.06 825.07,-323.06"/>
<ellipse fill="none" stroke="black" cx="821.9" cy="-323.48" rx="3.2" ry="3.2"/>
</g>
<!-- syst_owners&#45;&gt;syst_enum_items -->
<g id="edge10" class="edge">
<title>syst_owners:w&#45;&gt;syst_enum_items:e</title>
<path fill="none" stroke="black" d="M235.76,-389.55C202.34,-369.03 258.06,-264 203,-264"/>
<polygon fill="black" stroke="black" points="242.23,-391.12 249.15,-396.5 246.11,-392.06 250,-393 250,-393 250,-393 246.11,-392.06 250.85,-389.5 242.23,-391.12 242.23,-391.12"/>
<ellipse fill="none" stroke="black" cx="239.12" cy="-390.36" rx="3.2" ry="3.2"/>
</g>
<!-- syst_credentials -->
<g id="node6" class="node">
<title>syst_credentials</title>
<g id="a_node6"><a xlink:href="../../tables/syst_credentials.html" xlink:title="syst_credentials" target="_top">
<polygon fill="#ffffff" stroke="transparent" points="1191,-160 1191,-306 1385,-306 1385,-160 1191,-160"/>
<polygon fill="#f5f5f5" stroke="transparent" points="1191,-284 1191,-306 1385,-306 1385,-284 1191,-284"/>
<polygon fill="none" stroke="black" points="1191,-284 1191,-306 1385,-306 1385,-284 1191,-284"/>
<text text-anchor="start" x="1196" y="-293.2" font-family="Helvetica,sans-Serif" font-weight="bold" font-size="11.00">syst_credentials</text>
<text text-anchor="start" x="1350" y="-292.2" font-family="Helvetica,sans-Serif" font-size="11.00">[table]</text>
<polygon fill="none" stroke="black" points="1191,-262 1191,-284 1385,-284 1385,-262 1191,-262"/>
<image xlink:href="../../images/primaryKeys.png" width="11px" height="12px" preserveAspectRatio="xMinYMin meet" x="1196" y="-279"/>
<text text-anchor="start" x="1211" y="-270.2" font-family="Helvetica,sans-Serif" font-size="11.00">id</text>
<polygon fill="#ffffff" stroke="transparent" points="1191,-240 1191,-262 1385,-262 1385,-240 1191,-240"/>
<polygon fill="none" stroke="black" points="1191,-240 1191,-262 1385,-262 1385,-240 1191,-240"/>
<image xlink:href="../../images/foreignKeys.png" width="11px" height="12px" preserveAspectRatio="xMinYMin meet" x="1196" y="-257"/>
<text text-anchor="start" x="1211" y="-248.2" font-family="Helvetica,sans-Serif" font-size="11.00">access_account_id</text>
<polygon fill="#ffffff" stroke="transparent" points="1191,-218 1191,-240 1385,-240 1385,-218 1191,-218"/>
<polygon fill="none" stroke="black" points="1191,-218 1191,-240 1385,-240 1385,-218 1191,-218"/>
<image xlink:href="../../images/foreignKeys.png" width="11px" height="12px" preserveAspectRatio="xMinYMin meet" x="1196" y="-235"/>
<text text-anchor="start" x="1211" y="-226.2" font-family="Helvetica,sans-Serif" font-size="11.00">credential_type_id</text>
<polygon fill="#ffffff" stroke="transparent" points="1191,-196 1191,-218 1385,-218 1385,-196 1191,-196"/>
<polygon fill="none" stroke="black" points="1191,-196 1191,-218 1385,-218 1385,-196 1191,-196"/>
<image xlink:href="../../images/foreignKeys.png" width="11px" height="12px" preserveAspectRatio="xMinYMin meet" x="1196" y="-213"/>
<text text-anchor="start" x="1211" y="-204.2" font-family="Helvetica,sans-Serif" font-size="11.00">credential_for_identity_id</text>
<polygon fill="none" stroke="black" points="1191,-178 1191,-196 1385,-196 1385,-178 1191,-178"/>
<text text-anchor="start" x="1194" y="-184.2" font-family="Helvetica,sans-Serif" font-size="11.00">...</text>
<polygon fill="#ffffff" stroke="transparent" points="1191,-160 1191,-178 1286,-178 1286,-160 1191,-160"/>
<polygon fill="none" stroke="black" points="1191,-160 1191,-178 1286,-178 1286,-160 1191,-160"/>
<text text-anchor="start" x="1194" y="-166.2" font-family="Helvetica,sans-Serif" font-size="11.00">&lt; 3</text>
<polygon fill="#ffffff" stroke="transparent" points="1286,-160 1286,-178 1335,-178 1335,-160 1286,-160"/>
<polygon fill="none" stroke="black" points="1286,-160 1286,-178 1335,-178 1335,-160 1286,-160"/>
<text text-anchor="start" x="1325" y="-166.2" font-family="Helvetica,sans-Serif" font-size="11.00"> &#160;</text>
<polygon fill="#ffffff" stroke="transparent" points="1335,-160 1335,-178 1385,-178 1385,-160 1335,-160"/>
<polygon fill="none" stroke="black" points="1335,-160 1335,-178 1385,-178 1385,-160 1335,-160"/>
<text text-anchor="start" x="1375" y="-166.2" font-family="Helvetica,sans-Serif" font-size="11.00"> &#160;</text>
</a>
</g>
</g>
<!-- syst_credentials&#45;&gt;syst_access_accounts -->
<g id="edge5" class="edge">
<title>syst_credentials:w&#45;&gt;syst_access_accounts:e</title>
<path fill="none" stroke="black" d="M1175.77,-254.65C1113.11,-291.65 1212.96,-598.95 1150,-656 1043.29,-752.69 944.69,-737.54 826,-656 783.62,-626.88 835.92,-548 784.5,-548"/>
<polygon fill="black" stroke="black" points="1182.25,-252.99 1190.89,-254.49 1186.13,-251.99 1190,-251 1190,-251 1190,-251 1186.13,-251.99 1189.11,-247.51 1182.25,-252.99 1182.25,-252.99"/>
<ellipse fill="none" stroke="black" cx="1179.15" cy="-253.78" rx="3.2" ry="3.2"/>
</g>
<!-- syst_credentials&#45;&gt;syst_enum_items -->
<g id="edge7" class="edge">
<title>syst_credentials:w&#45;&gt;syst_enum_items:e</title>
<path fill="none" stroke="black" d="M1175.5,-229C874.54,-228.98 793.72,-228.55 486,-243 377.82,-248.08 351,-252.95 243,-261 225.22,-262.33 220.83,-264 203,-264"/>
<polygon fill="black" stroke="black" points="1182,-229 1190,-232.6 1186,-229 1190,-229 1190,-229 1190,-229 1186,-229 1190,-225.4 1182,-229 1182,-229"/>
<ellipse fill="none" stroke="black" cx="1178.8" cy="-229" rx="3.2" ry="3.2"/>
</g>
<!-- syst_identities -->
<g id="node7" class="node">
<title>syst_identities</title>
<g id="a_node7"><a xlink:href="../../tables/syst_identities.html" xlink:title="syst_identities" target="_top">
<polygon fill="#ffffff" stroke="transparent" points="891,-37 891,-205 1085,-205 1085,-37 891,-37"/>
<polygon fill="#f5f5f5" stroke="transparent" points="891,-183 891,-205 1085,-205 1085,-183 891,-183"/>
<polygon fill="none" stroke="black" points="891,-183 891,-205 1085,-205 1085,-183 891,-183"/>
<text text-anchor="start" x="896" y="-192.2" font-family="Helvetica,sans-Serif" font-weight="bold" font-size="11.00">syst_identities</text>
<text text-anchor="start" x="1050" y="-191.2" font-family="Helvetica,sans-Serif" font-size="11.00">[table]</text>
<polygon fill="none" stroke="black" points="891,-161 891,-183 1085,-183 1085,-161 891,-161"/>
<image xlink:href="../../images/primaryKeys.png" width="11px" height="12px" preserveAspectRatio="xMinYMin meet" x="896" y="-178"/>
<text text-anchor="start" x="911" y="-169.2" font-family="Helvetica,sans-Serif" font-size="11.00">id</text>
<polygon fill="#ffffff" stroke="transparent" points="891,-139 891,-161 1085,-161 1085,-139 891,-139"/>
<polygon fill="none" stroke="black" points="891,-139 891,-161 1085,-161 1085,-139 891,-139"/>
<image xlink:href="../../images/foreignKeys.png" width="11px" height="12px" preserveAspectRatio="xMinYMin meet" x="896" y="-156"/>
<text text-anchor="start" x="911" y="-147.2" font-family="Helvetica,sans-Serif" font-size="11.00">access_account_id</text>
<polygon fill="#ffffff" stroke="transparent" points="891,-117 891,-139 1085,-139 1085,-117 891,-117"/>
<polygon fill="none" stroke="black" points="891,-117 891,-139 1085,-139 1085,-117 891,-117"/>
<image xlink:href="../../images/foreignKeys.png" width="11px" height="12px" preserveAspectRatio="xMinYMin meet" x="896" y="-134"/>
<text text-anchor="start" x="911" y="-125.2" font-family="Helvetica,sans-Serif" font-size="11.00">identity_type_id</text>
<polygon fill="#ffffff" stroke="transparent" points="891,-95 891,-117 1085,-117 1085,-95 891,-95"/>
<polygon fill="none" stroke="black" points="891,-95 891,-117 1085,-117 1085,-95 891,-95"/>
<text text-anchor="start" x="911" y="-103.2" font-family="Helvetica,sans-Serif" font-size="11.00">account_identifier</text>
<polygon fill="#ffffff" stroke="transparent" points="891,-73 891,-95 1085,-95 1085,-73 891,-73"/>
<polygon fill="none" stroke="black" points="891,-73 891,-95 1085,-95 1085,-73 891,-73"/>
<image xlink:href="../../images/foreignKeys.png" width="11px" height="12px" preserveAspectRatio="xMinYMin meet" x="896" y="-90"/>
<text text-anchor="start" x="911" y="-81.2" font-family="Helvetica,sans-Serif" font-size="11.00">validates_identity_id</text>
<polygon fill="none" stroke="black" points="891,-55 891,-73 1085,-73 1085,-55 891,-55"/>
<text text-anchor="start" x="894" y="-61.2" font-family="Helvetica,sans-Serif" font-size="11.00">...</text>
<polygon fill="#ffffff" stroke="transparent" points="891,-37 891,-55 981,-55 981,-37 891,-37"/>
<polygon fill="none" stroke="black" points="891,-37 891,-55 981,-55 981,-37 891,-37"/>
<text text-anchor="start" x="894" y="-43.2" font-family="Helvetica,sans-Serif" font-size="11.00">&lt; 3</text>
<polygon fill="#ffffff" stroke="transparent" points="981,-37 981,-55 1028,-55 1028,-37 981,-37"/>
<polygon fill="none" stroke="black" points="981,-37 981,-55 1028,-55 1028,-37 981,-37"/>
<text text-anchor="start" x="1018" y="-43.2" font-family="Helvetica,sans-Serif" font-size="11.00"> &#160;</text>
<polygon fill="#ffffff" stroke="transparent" points="1028,-37 1028,-55 1085,-55 1085,-37 1028,-37"/>
<polygon fill="none" stroke="black" points="1028,-37 1028,-55 1085,-55 1085,-37 1028,-37"/>
<text text-anchor="start" x="1066" y="-43.2" font-family="Helvetica,sans-Serif" font-size="11.00">2 &gt;</text>
</a>
</g>
</g>
<!-- syst_credentials&#45;&gt;syst_identities -->
<g id="edge6" class="edge">
<title>syst_credentials:w&#45;&gt;syst_identities:e</title>
<path fill="none" stroke="black" d="M1175.41,-205.84C1139.31,-199.76 1129.44,-172 1086,-172"/>
<polygon fill="black" stroke="black" points="1182.03,-206.36 1189.71,-210.59 1186.01,-206.68 1190,-207 1190,-207 1190,-207 1186.01,-206.68 1190.29,-203.41 1182.03,-206.36 1182.03,-206.36"/>
<ellipse fill="none" stroke="black" cx="1178.84" cy="-206.11" rx="3.2" ry="3.2"/>
</g>
<!-- syst_identities&#45;&gt;syst_access_accounts -->
<g id="edge8" class="edge">
<title>syst_identities:w&#45;&gt;syst_access_accounts:e</title>
<path fill="none" stroke="black" d="M875.48,-151.58C840.78,-159.98 842.1,-200.66 826,-242 801.1,-305.95 853.12,-548 784.5,-548"/>
<polygon fill="black" stroke="black" points="882.05,-150.86 890.39,-153.58 886.02,-150.43 890,-150 890,-150 890,-150 886.02,-150.43 889.61,-146.42 882.05,-150.86 882.05,-150.86"/>
<ellipse fill="none" stroke="black" cx="878.87" cy="-151.21" rx="3.2" ry="3.2"/>
</g>
<!-- syst_identities&#45;&gt;syst_enum_items -->
<g id="edge9" class="edge">
<title>syst_identities:w&#45;&gt;syst_enum_items:e</title>
<path fill="none" stroke="black" d="M875.28,-127.96C596.13,-126.48 494.58,-84.18 243,-219 219.41,-231.64 229.76,-264 203,-264"/>
<polygon fill="black" stroke="black" points="882,-127.98 889.99,-131.6 886,-127.99 890,-128 890,-128 890,-128 886,-127.99 890.01,-124.4 882,-127.98 882,-127.98"/>
<ellipse fill="none" stroke="black" cx="878.8" cy="-127.97" rx="3.2" ry="3.2"/>
</g>
<!-- syst_password_history -->
<g id="node8" class="node">
<title>syst_password_history</title>
<g id="a_node8"><a xlink:href="../../tables/syst_password_history.html" xlink:title="syst_password_history" target="_top">
<polygon fill="#ffffff" stroke="transparent" points="891,-543 891,-645 1085,-645 1085,-543 891,-543"/>
<polygon fill="#f5f5f5" stroke="transparent" points="891,-623 891,-645 1085,-645 1085,-623 891,-623"/>
<polygon fill="none" stroke="black" points="891,-623 891,-645 1085,-645 1085,-623 891,-623"/>
<text text-anchor="start" x="896" y="-632.2" font-family="Helvetica,sans-Serif" font-weight="bold" font-size="11.00">syst_password_history</text>
<text text-anchor="start" x="1050" y="-631.2" font-family="Helvetica,sans-Serif" font-size="11.00">[table]</text>
<polygon fill="none" stroke="black" points="891,-601 891,-623 1085,-623 1085,-601 891,-601"/>
<image xlink:href="../../images/primaryKeys.png" width="11px" height="12px" preserveAspectRatio="xMinYMin meet" x="896" y="-618"/>
<text text-anchor="start" x="911" y="-609.2" font-family="Helvetica,sans-Serif" font-size="11.00">id</text>
<polygon fill="#ffffff" stroke="transparent" points="891,-579 891,-601 1085,-601 1085,-579 891,-579"/>
<polygon fill="none" stroke="black" points="891,-579 891,-601 1085,-601 1085,-579 891,-579"/>
<image xlink:href="../../images/foreignKeys.png" width="11px" height="12px" preserveAspectRatio="xMinYMin meet" x="896" y="-596"/>
<text text-anchor="start" x="911" y="-587.2" font-family="Helvetica,sans-Serif" font-size="11.00">access_account_id</text>
<polygon fill="none" stroke="black" points="891,-561 891,-579 1085,-579 1085,-561 891,-561"/>
<text text-anchor="start" x="894" y="-567.2" font-family="Helvetica,sans-Serif" font-size="11.00">...</text>
<polygon fill="#ffffff" stroke="transparent" points="891,-543 891,-561 986,-561 986,-543 891,-543"/>
<polygon fill="none" stroke="black" points="891,-543 891,-561 986,-561 986,-543 891,-543"/>
<text text-anchor="start" x="894" y="-549.2" font-family="Helvetica,sans-Serif" font-size="11.00">&lt; 1</text>
<polygon fill="#ffffff" stroke="transparent" points="986,-543 986,-561 1035,-561 1035,-543 986,-543"/>
<polygon fill="none" stroke="black" points="986,-543 986,-561 1035,-561 1035,-543 986,-543"/>
<text text-anchor="start" x="1025" y="-549.2" font-family="Helvetica,sans-Serif" font-size="11.00"> &#160;</text>
<polygon fill="#ffffff" stroke="transparent" points="1035,-543 1035,-561 1085,-561 1085,-543 1035,-543"/>
<polygon fill="none" stroke="black" points="1035,-543 1035,-561 1085,-561 1085,-543 1035,-543"/>
<text text-anchor="start" x="1075" y="-549.2" font-family="Helvetica,sans-Serif" font-size="11.00"> &#160;</text>
</a>
</g>
</g>
<!-- syst_password_history&#45;&gt;syst_access_accounts -->
<g id="edge11" class="edge">
<title>syst_password_history:w&#45;&gt;syst_access_accounts:e</title>
<path fill="none" stroke="black" d="M875.46,-588.7C838.06,-581.61 829.65,-548 784.5,-548"/>
<polygon fill="black" stroke="black" points="882.03,-589.29 889.68,-593.59 886.02,-589.64 890,-590 890,-590 890,-590 886.02,-589.64 890.32,-586.41 882.03,-589.29 882.03,-589.29"/>
<ellipse fill="none" stroke="black" cx="878.84" cy="-589" rx="3.2" ry="3.2"/>
</g>
</g>
</svg>
