<?xml version="1.0" encoding="UTF-8" standalone="no"?>
<!DOCTYPE svg PUBLIC "-//W3C//DTD SVG 1.1//EN"
 "http://www.w3.org/Graphics/SVG/1.1/DTD/svg11.dtd">
<!-- Generated by graphviz version 2.43.0 (0)
 -->
<!-- Title: twoDegreesRelationshipsDiagram Pages: 1 -->
<svg width="992pt" height="666pt"
 viewBox="0.00 0.00 992.00 666.00" xmlns="http://www.w3.org/2000/svg" xmlns:xlink="http://www.w3.org/1999/xlink">
<g id="graph0" class="graph" transform="scale(1 1) rotate(0) translate(4 662)">
<title>twoDegreesRelationshipsDiagram</title>
<polygon fill="#ffffff" stroke="transparent" points="-4,4 -4,-662 988,-662 988,4 -4,4"/>
<text text-anchor="middle" x="71.5" y="-7.2" font-family="Helvetica,sans-Serif" font-size="11.00">Generated by SchemaSpy</text>
<!-- syst_access_account_instance_assocs -->
<g id="node1" class="node">
<title>syst_access_account_instance_assocs</title>
<g id="a_node1"><a xlink:href="../../tables/syst_access_account_instance_assocs.html" xlink:title="syst_access_account_instance_assocs" target="_top">
<polygon fill="#ffffff" stroke="transparent" points="681.5,-144 681.5,-202 973.5,-202 973.5,-144 681.5,-144"/>
<polygon fill="#f5f5f5" stroke="transparent" points="681.5,-180 681.5,-202 973.5,-202 973.5,-180 681.5,-180"/>
<polygon fill="none" stroke="black" points="681.5,-180 681.5,-202 973.5,-202 973.5,-180 681.5,-180"/>
<text text-anchor="start" x="686.5" y="-189.2" font-family="Helvetica,sans-Serif" font-weight="bold" font-size="11.00">syst_access_account_instance_assocs</text>
<text text-anchor="start" x="938.5" y="-188.2" font-family="Helvetica,sans-Serif" font-size="11.00">[table]</text>
<polygon fill="none" stroke="black" points="681.5,-162 681.5,-180 973.5,-180 973.5,-162 681.5,-162"/>
<text text-anchor="start" x="684.5" y="-168.2" font-family="Helvetica,sans-Serif" font-size="11.00">...</text>
<polygon fill="#ffffff" stroke="transparent" points="681.5,-144 681.5,-162 825.5,-162 825.5,-144 681.5,-144"/>
<polygon fill="none" stroke="black" points="681.5,-144 681.5,-162 825.5,-162 825.5,-144 681.5,-144"/>
<text text-anchor="start" x="684.5" y="-150.2" font-family="Helvetica,sans-Serif" font-size="11.00">&lt; 2</text>
<polygon fill="#ffffff" stroke="transparent" points="825.5,-144 825.5,-162 899.5,-162 899.5,-144 825.5,-144"/>
<polygon fill="none" stroke="black" points="825.5,-144 825.5,-162 899.5,-162 899.5,-144 825.5,-144"/>
<text text-anchor="start" x="889.5" y="-150.2" font-family="Helvetica,sans-Serif" font-size="11.00"> &#160;</text>
<polygon fill="#ffffff" stroke="transparent" points="899.5,-144 899.5,-162 973.5,-162 973.5,-144 899.5,-144"/>
<polygon fill="none" stroke="black" points="899.5,-144 899.5,-162 973.5,-162 973.5,-144 899.5,-144"/>
<text text-anchor="start" x="963.5" y="-150.2" font-family="Helvetica,sans-Serif" font-size="11.00"> &#160;</text>
</a>
</g>
</g>
<!-- syst_instances -->
<g id="node2" class="node">
<title>syst_instances</title>
<g id="a_node2"><a xlink:href="../../tables/syst_instances.html" xlink:title="syst_instances" target="_top">
<polygon fill="#ffffff" stroke="transparent" points="426.5,-37 426.5,-271 620.5,-271 620.5,-37 426.5,-37"/>
<polygon fill="#f5f5f5" stroke="transparent" points="426.5,-249 426.5,-271 620.5,-271 620.5,-249 426.5,-249"/>
<polygon fill="none" stroke="black" points="426.5,-249 426.5,-271 620.5,-271 620.5,-249 426.5,-249"/>
<text text-anchor="start" x="431.5" y="-258.2" font-family="Helvetica,sans-Serif" font-weight="bold" font-size="11.00">syst_instances</text>
<text text-anchor="start" x="585.5" y="-257.2" font-family="Helvetica,sans-Serif" font-size="11.00">[table]</text>
<polygon fill="none" stroke="black" points="426.5,-227 426.5,-249 620.5,-249 620.5,-227 426.5,-227"/>
<image xlink:href="../../images/primaryKeys.png" width="11px" height="12px" preserveAspectRatio="xMinYMin meet" x="431.5" y="-244"/>
<text text-anchor="start" x="446.5" y="-235.2" font-family="Helvetica,sans-Serif" font-size="11.00">id</text>
<polygon fill="#ffffff" stroke="transparent" points="426.5,-205 426.5,-227 620.5,-227 620.5,-205 426.5,-205"/>
<polygon fill="none" stroke="black" points="426.5,-205 426.5,-227 620.5,-227 620.5,-205 426.5,-205"/>
<text text-anchor="start" x="446.5" y="-213.2" font-family="Helvetica,sans-Serif" font-size="11.00">internal_name</text>
<polygon fill="#ffffff" stroke="transparent" points="426.5,-183 426.5,-205 620.5,-205 620.5,-183 426.5,-183"/>
<polygon fill="none" stroke="black" points="426.5,-183 426.5,-205 620.5,-205 620.5,-183 426.5,-183"/>
<text text-anchor="start" x="446.5" y="-191.2" font-family="Helvetica,sans-Serif" font-size="11.00">display_name</text>
<polygon fill="none" stroke="black" points="426.5,-161 426.5,-183 620.5,-183 620.5,-161 426.5,-161"/>
<image xlink:href="../../images/foreignKeys.png" width="11px" height="12px" preserveAspectRatio="xMinYMin meet" x="431.5" y="-178"/>
<text text-anchor="start" x="446.5" y="-169.2" font-family="Helvetica,sans-Serif" font-size="11.00">application_id</text>
<polygon fill="none" stroke="black" points="426.5,-139 426.5,-161 620.5,-161 620.5,-139 426.5,-139"/>
<image xlink:href="../../images/foreignKeys.png" width="11px" height="12px" preserveAspectRatio="xMinYMin meet" x="431.5" y="-156"/>
<text text-anchor="start" x="446.5" y="-147.2" font-family="Helvetica,sans-Serif" font-size="11.00">instance_type_id</text>
<polygon fill="none" stroke="black" points="426.5,-117 426.5,-139 620.5,-139 620.5,-117 426.5,-117"/>
<image xlink:href="../../images/foreignKeys.png" width="11px" height="12px" preserveAspectRatio="xMinYMin meet" x="431.5" y="-134"/>
<text text-anchor="start" x="446.5" y="-125.2" font-family="Helvetica,sans-Serif" font-size="11.00">instance_state_id</text>
<polygon fill="none" stroke="black" points="426.5,-95 426.5,-117 620.5,-117 620.5,-95 426.5,-95"/>
<image xlink:href="../../images/foreignKeys.png" width="11px" height="12px" preserveAspectRatio="xMinYMin meet" x="431.5" y="-112"/>
<text text-anchor="start" x="446.5" y="-103.2" font-family="Helvetica,sans-Serif" font-size="11.00">owner_id</text>
<polygon fill="none" stroke="black" points="426.5,-73 426.5,-95 620.5,-95 620.5,-73 426.5,-73"/>
<image xlink:href="../../images/foreignKeys.png" width="11px" height="12px" preserveAspectRatio="xMinYMin meet" x="431.5" y="-90"/>
<text text-anchor="start" x="446.5" y="-81.2" font-family="Helvetica,sans-Serif" font-size="11.00">owning_instance_id</text>
<polygon fill="none" stroke="black" points="426.5,-55 426.5,-73 620.5,-73 620.5,-55 426.5,-55"/>
<text text-anchor="start" x="429.5" y="-61.2" font-family="Helvetica,sans-Serif" font-size="11.00">...</text>
<polygon fill="#ffffff" stroke="transparent" points="426.5,-37 426.5,-55 516.5,-55 516.5,-37 426.5,-37"/>
<polygon fill="none" stroke="black" points="426.5,-37 426.5,-55 516.5,-55 516.5,-37 426.5,-37"/>
<text text-anchor="start" x="429.5" y="-43.2" font-family="Helvetica,sans-Serif" font-size="11.00">&lt; 5</text>
<polygon fill="#ffffff" stroke="transparent" points="516.5,-37 516.5,-55 563.5,-55 563.5,-37 516.5,-37"/>
<polygon fill="none" stroke="black" points="516.5,-37 516.5,-55 563.5,-55 563.5,-37 516.5,-37"/>
<text text-anchor="start" x="553.5" y="-43.2" font-family="Helvetica,sans-Serif" font-size="11.00"> &#160;</text>
<polygon fill="#ffffff" stroke="transparent" points="563.5,-37 563.5,-55 620.5,-55 620.5,-37 563.5,-37"/>
<polygon fill="none" stroke="black" points="563.5,-37 563.5,-55 620.5,-55 620.5,-37 563.5,-37"/>
<text text-anchor="start" x="601.5" y="-43.2" font-family="Helvetica,sans-Serif" font-size="11.00">4 &gt;</text>
</a>
</g>
</g>
<!-- syst_access_account_instance_assocs&#45;&gt;syst_instances -->
<g id="edge1" class="edge">
<title>syst_access_account_instance_assocs:w&#45;&gt;syst_instances:e</title>
<path fill="none" stroke="black" d="M666.41,-174.99C645.54,-189.41 655.29,-238 621.5,-238"/>
<polygon fill="black" stroke="black" points="672.8,-173.18 681.48,-174.46 676.65,-172.09 680.5,-171 680.5,-171 680.5,-171 676.65,-172.09 679.52,-167.54 672.8,-173.18 672.8,-173.18"/>
<ellipse fill="none" stroke="black" cx="669.72" cy="-174.05" rx="3.2" ry="3.2"/>
</g>
<!-- syst_applications -->
<g id="node4" class="node">
<title>syst_applications</title>
<g id="a_node4"><a xlink:href="../../tables/syst_applications.html" xlink:title="syst_applications" target="_top">
<polygon fill="#ffffff" stroke="transparent" points="212,-313 212,-371 368,-371 368,-313 212,-313"/>
<polygon fill="#f5f5f5" stroke="transparent" points="212,-349 212,-371 368,-371 368,-349 212,-349"/>
<polygon fill="none" stroke="black" points="212,-349 212,-371 368,-371 368,-349 212,-349"/>
<text text-anchor="start" x="217" y="-358.2" font-family="Helvetica,sans-Serif" font-weight="bold" font-size="11.00">syst_applications</text>
<text text-anchor="start" x="333" y="-357.2" font-family="Helvetica,sans-Serif" font-size="11.00">[table]</text>
<polygon fill="none" stroke="black" points="212,-331 212,-349 368,-349 368,-331 212,-331"/>
<text text-anchor="start" x="215" y="-337.2" font-family="Helvetica,sans-Serif" font-size="11.00">...</text>
<polygon fill="#ffffff" stroke="transparent" points="212,-313 212,-331 279,-331 279,-313 212,-313"/>
<polygon fill="none" stroke="black" points="212,-313 212,-331 279,-331 279,-313 212,-313"/>
<text text-anchor="start" x="215" y="-319.2" font-family="Helvetica,sans-Serif" font-size="11.00"> &#160;</text>
<polygon fill="#ffffff" stroke="transparent" points="279,-313 279,-331 319,-331 319,-313 279,-313"/>
<polygon fill="none" stroke="black" points="279,-313 279,-331 319,-331 319,-313 279,-313"/>
<text text-anchor="start" x="309" y="-319.2" font-family="Helvetica,sans-Serif" font-size="11.00"> &#160;</text>
<polygon fill="#ffffff" stroke="transparent" points="319,-313 319,-331 368,-331 368,-313 319,-313"/>
<polygon fill="none" stroke="black" points="319,-313 319,-331 368,-331 368,-313 319,-313"/>
<text text-anchor="start" x="349" y="-319.2" font-family="Helvetica,sans-Serif" font-size="11.00">3 &gt;</text>
</a>
</g>
</g>
<!-- syst_instances&#45;&gt;syst_applications -->
<g id="edge7" class="edge">
<title>syst_instances:w&#45;&gt;syst_applications:e</title>
<path fill="none" stroke="black" d="M411.1,-174.51C360.39,-195.4 442.08,-340 369,-340"/>
<polygon fill="black" stroke="black" points="417.62,-173.37 426.12,-175.55 421.56,-172.69 425.5,-172 425.5,-172 425.5,-172 421.56,-172.69 424.88,-168.45 417.62,-173.37 417.62,-173.37"/>
<ellipse fill="none" stroke="black" cx="414.47" cy="-173.92" rx="3.2" ry="3.2"/>
</g>
<!-- syst_enum_items -->
<g id="node8" class="node">
<title>syst_enum_items</title>
<g id="a_node8"><a xlink:href="../../tables/syst_enum_items.html" xlink:title="syst_enum_items" target="_top">
<polygon fill="#ffffff" stroke="transparent" points="8,-101 8,-159 163,-159 163,-101 8,-101"/>
<polygon fill="#f5f5f5" stroke="transparent" points="8.5,-137 8.5,-159 163.5,-159 163.5,-137 8.5,-137"/>
<polygon fill="none" stroke="black" points="8.5,-137 8.5,-159 163.5,-159 163.5,-137 8.5,-137"/>
<text text-anchor="start" x="13.5" y="-146.2" font-family="Helvetica,sans-Serif" font-weight="bold" font-size="11.00">syst_enum_items</text>
<text text-anchor="start" x="128.5" y="-145.2" font-family="Helvetica,sans-Serif" font-size="11.00">[table]</text>
<polygon fill="none" stroke="black" points="8.5,-119 8.5,-137 163.5,-137 163.5,-119 8.5,-119"/>
<text text-anchor="start" x="11.5" y="-125.2" font-family="Helvetica,sans-Serif" font-size="11.00">...</text>
<polygon fill="#ffffff" stroke="transparent" points="8.5,-101 8.5,-119 79.5,-119 79.5,-101 8.5,-101"/>
<polygon fill="none" stroke="black" points="8.5,-101 8.5,-119 79.5,-119 79.5,-101 8.5,-101"/>
<text text-anchor="start" x="11.5" y="-107.2" font-family="Helvetica,sans-Serif" font-size="11.00">&lt; 2</text>
<polygon fill="#ffffff" stroke="transparent" points="79.5,-101 79.5,-119 116.5,-119 116.5,-101 79.5,-101"/>
<polygon fill="none" stroke="black" points="79.5,-101 79.5,-119 116.5,-119 116.5,-101 79.5,-101"/>
<text text-anchor="start" x="106.5" y="-107.2" font-family="Helvetica,sans-Serif" font-size="11.00"> &#160;</text>
<polygon fill="#ffffff" stroke="transparent" points="116.5,-101 116.5,-119 163.5,-119 163.5,-101 116.5,-101"/>
<polygon fill="none" stroke="black" points="116.5,-101 116.5,-119 163.5,-119 163.5,-101 116.5,-101"/>
<text text-anchor="start" x="144.5" y="-107.2" font-family="Helvetica,sans-Serif" font-size="11.00">7 &gt;</text>
</a>
</g>
</g>
<!-- syst_instances&#45;&gt;syst_enum_items -->
<g id="edge8" class="edge">
<title>syst_instances:w&#45;&gt;syst_enum_items:e</title>
<path fill="none" stroke="black" d="M411.01,-128C306.85,-128 275.52,-128 164.5,-128"/>
<polygon fill="black" stroke="black" points="417.5,-128 425.5,-131.6 421.5,-128 425.5,-128 425.5,-128 425.5,-128 421.5,-128 425.5,-124.4 417.5,-128 417.5,-128"/>
<ellipse fill="none" stroke="black" cx="414.3" cy="-128" rx="3.2" ry="3.2"/>
</g>
<!-- syst_instances&#45;&gt;syst_enum_items -->
<g id="edge9" class="edge">
<title>syst_instances:w&#45;&gt;syst_enum_items:e</title>
<path fill="none" stroke="black" d="M411.03,-150.02C324.14,-150.24 296.52,-152.08 204,-138 186.1,-135.28 182.61,-128 164.5,-128"/>
<polygon fill="black" stroke="black" points="417.5,-150.01 425.5,-153.6 421.5,-150.01 425.5,-150 425.5,-150 425.5,-150 421.5,-150.01 425.5,-146.4 417.5,-150.01 417.5,-150.01"/>
<ellipse fill="none" stroke="black" cx="414.3" cy="-150.01" rx="3.2" ry="3.2"/>
</g>
<!-- syst_owners -->
<g id="node9" class="node">
<title>syst_owners</title>
<g id="a_node9"><a xlink:href="../../tables/syst_owners.html" xlink:title="syst_owners" target="_top">
<polygon fill="#ffffff" stroke="transparent" points="229,-46 229,-104 351,-104 351,-46 229,-46"/>
<polygon fill="#f5f5f5" stroke="transparent" points="229,-82 229,-104 351,-104 351,-82 229,-82"/>
<polygon fill="none" stroke="black" points="229,-82 229,-104 351,-104 351,-82 229,-82"/>
<text text-anchor="start" x="234" y="-91.2" font-family="Helvetica,sans-Serif" font-weight="bold" font-size="11.00">syst_owners</text>
<text text-anchor="start" x="316" y="-90.2" font-family="Helvetica,sans-Serif" font-size="11.00">[table]</text>
<polygon fill="none" stroke="black" points="229,-64 229,-82 351,-82 351,-64 229,-64"/>
<text text-anchor="start" x="232" y="-70.2" font-family="Helvetica,sans-Serif" font-size="11.00">...</text>
<polygon fill="#ffffff" stroke="transparent" points="229,-46 229,-64 283,-64 283,-46 229,-46"/>
<polygon fill="none" stroke="black" points="229,-46 229,-64 283,-64 283,-46 229,-46"/>
<text text-anchor="start" x="232" y="-52.2" font-family="Helvetica,sans-Serif" font-size="11.00">&lt; 1</text>
<polygon fill="#ffffff" stroke="transparent" points="283,-46 283,-64 312,-64 312,-46 283,-46"/>
<polygon fill="none" stroke="black" points="283,-46 283,-64 312,-64 312,-46 283,-46"/>
<text text-anchor="start" x="302" y="-52.2" font-family="Helvetica,sans-Serif" font-size="11.00"> &#160;</text>
<polygon fill="#ffffff" stroke="transparent" points="312,-46 312,-64 351,-64 351,-46 312,-46"/>
<polygon fill="none" stroke="black" points="312,-46 312,-64 351,-64 351,-46 312,-46"/>
<text text-anchor="start" x="332" y="-52.2" font-family="Helvetica,sans-Serif" font-size="11.00">4 &gt;</text>
</a>
</g>
</g>
<!-- syst_instances&#45;&gt;syst_owners -->
<g id="edge10" class="edge">
<title>syst_instances:w&#45;&gt;syst_owners:e</title>
<path fill="none" stroke="black" d="M410.94,-103.83C388.27,-96.49 382.21,-73 352,-73"/>
<polygon fill="black" stroke="black" points="417.59,-104.82 424.97,-109.56 421.54,-105.41 425.5,-106 425.5,-106 425.5,-106 421.54,-105.41 426.03,-102.44 417.59,-104.82 417.59,-104.82"/>
<ellipse fill="none" stroke="black" cx="414.42" cy="-104.35" rx="3.2" ry="3.2"/>
</g>
<!-- syst_application_contexts -->
<g id="node3" class="node">
<title>syst_application_contexts</title>
<g id="a_node3"><a xlink:href="../../tables/syst_application_contexts.html" xlink:title="syst_application_contexts" target="_top">
<polygon fill="#ffffff" stroke="transparent" points="417,-361 417,-507 630,-507 630,-361 417,-361"/>
<polygon fill="#f5f5f5" stroke="transparent" points="417.5,-485 417.5,-507 630.5,-507 630.5,-485 417.5,-485"/>
<polygon fill="none" stroke="black" points="417.5,-485 417.5,-507 630.5,-507 630.5,-485 417.5,-485"/>
<text text-anchor="start" x="422.5" y="-494.2" font-family="Helvetica,sans-Serif" font-weight="bold" font-size="11.00">syst_application_contexts</text>
<text text-anchor="start" x="595.5" y="-493.2" font-family="Helvetica,sans-Serif" font-size="11.00">[table]</text>
<polygon fill="none" stroke="black" points="417.5,-463 417.5,-485 630.5,-485 630.5,-463 417.5,-463"/>
<image xlink:href="../../images/primaryKeys.png" width="11px" height="12px" preserveAspectRatio="xMinYMin meet" x="422.5" y="-480"/>
<text text-anchor="start" x="447.5" y="-471.2" font-family="Helvetica,sans-Serif" font-size="11.00">id</text>
<polygon fill="#ffffff" stroke="transparent" points="417.5,-441 417.5,-463 630.5,-463 630.5,-441 417.5,-441"/>
<polygon fill="none" stroke="black" points="417.5,-441 417.5,-463 630.5,-463 630.5,-441 417.5,-441"/>
<text text-anchor="start" x="447.5" y="-449.2" font-family="Helvetica,sans-Serif" font-size="11.00">internal_name</text>
<polygon fill="#ffffff" stroke="transparent" points="417.5,-419 417.5,-441 630.5,-441 630.5,-419 417.5,-419"/>
<polygon fill="none" stroke="black" points="417.5,-419 417.5,-441 630.5,-441 630.5,-419 417.5,-419"/>
<text text-anchor="start" x="447.5" y="-427.2" font-family="Helvetica,sans-Serif" font-size="11.00">display_name</text>
<polygon fill="none" stroke="black" points="417.5,-397 417.5,-419 630.5,-419 630.5,-397 417.5,-397"/>
<image xlink:href="../../images/foreignKeys.png" width="11px" height="12px" preserveAspectRatio="xMinYMin meet" x="422.5" y="-414"/>
<text text-anchor="start" x="447.5" y="-405.2" font-family="Helvetica,sans-Serif" font-size="11.00">application_id</text>
<polygon fill="none" stroke="black" points="417.5,-379 417.5,-397 630.5,-397 630.5,-379 417.5,-379"/>
<text text-anchor="start" x="420.5" y="-385.2" font-family="Helvetica,sans-Serif" font-size="11.00">...</text>
<polygon fill="#ffffff" stroke="transparent" points="417.5,-361 417.5,-379 517.5,-379 517.5,-361 417.5,-361"/>
<polygon fill="none" stroke="black" points="417.5,-361 417.5,-379 517.5,-379 517.5,-361 417.5,-361"/>
<text text-anchor="start" x="420.5" y="-367.2" font-family="Helvetica,sans-Serif" font-size="11.00">&lt; 1</text>
<polygon fill="#ffffff" stroke="transparent" points="517.5,-361 517.5,-379 569.5,-379 569.5,-361 517.5,-361"/>
<polygon fill="none" stroke="black" points="517.5,-361 517.5,-379 569.5,-379 569.5,-361 517.5,-361"/>
<text text-anchor="start" x="559.5" y="-367.2" font-family="Helvetica,sans-Serif" font-size="11.00"> &#160;</text>
<polygon fill="#ffffff" stroke="transparent" points="569.5,-361 569.5,-379 630.5,-379 630.5,-361 569.5,-361"/>
<polygon fill="none" stroke="black" points="569.5,-361 569.5,-379 630.5,-379 630.5,-361 569.5,-361"/>
<text text-anchor="start" x="611.5" y="-367.2" font-family="Helvetica,sans-Serif" font-size="11.00">2 &gt;</text>
</a>
</g>
</g>
<!-- syst_application_contexts&#45;&gt;syst_applications -->
<g id="edge2" class="edge">
<title>syst_application_contexts:w&#45;&gt;syst_applications:e</title>
<path fill="none" stroke="black" d="M402.89,-403.11C386.54,-387.52 399.82,-340 369,-340"/>
<polygon fill="black" stroke="black" points="408.97,-405.29 415.28,-411.39 412.74,-406.65 416.5,-408 416.5,-408 416.5,-408 412.74,-406.65 417.72,-404.61 408.97,-405.29 408.97,-405.29"/>
<ellipse fill="none" stroke="black" cx="405.96" cy="-404.21" rx="3.2" ry="3.2"/>
</g>
<!-- syst_instance_contexts -->
<g id="node5" class="node">
<title>syst_instance_contexts</title>
<g id="a_node5"><a xlink:href="../../tables/syst_instance_contexts.html" xlink:title="syst_instance_contexts" target="_top">
<polygon fill="#ffffff" stroke="transparent" points="679,-223 679,-575 976,-575 976,-223 679,-223"/>
<polygon fill="#f5f5f5" stroke="transparent" points="681.5,-551 681.5,-573 974.5,-573 974.5,-551 681.5,-551"/>
<polygon fill="none" stroke="black" points="681.5,-551 681.5,-573 974.5,-573 974.5,-551 681.5,-551"/>
<text text-anchor="start" x="686.5" y="-560.2" font-family="Helvetica,sans-Serif" font-weight="bold" font-size="11.00">syst_instance_contexts</text>
<text text-anchor="start" x="939.5" y="-559.2" font-family="Helvetica,sans-Serif" font-size="11.00">[table]</text>
<polygon fill="none" stroke="black" points="681.5,-529 681.5,-551 875.5,-551 875.5,-529 681.5,-529"/>
<image xlink:href="../../images/primaryKeys.png" width="11px" height="12px" preserveAspectRatio="xMinYMin meet" x="686.5" y="-546"/>
<text text-anchor="start" x="701.5" y="-537.2" font-family="Helvetica,sans-Serif" font-size="11.00">id</text>
<polygon fill="none" stroke="black" points="875.5,-529 875.5,-551 974.5,-551 974.5,-529 875.5,-529"/>
<text text-anchor="start" x="878.5" y="-537.2" font-family="Helvetica,sans-Serif" font-size="11.00">uuid[2147483647]</text>
<polygon fill="#ffffff" stroke="transparent" points="681.5,-507 681.5,-529 875.5,-529 875.5,-507 681.5,-507"/>
<polygon fill="none" stroke="black" points="681.5,-507 681.5,-529 875.5,-529 875.5,-507 681.5,-507"/>
<text text-anchor="start" x="701.5" y="-515.2" font-family="Helvetica,sans-Serif" font-size="11.00">internal_name</text>
<polygon fill="none" stroke="black" points="875.5,-507 875.5,-529 974.5,-529 974.5,-507 875.5,-507"/>
<text text-anchor="start" x="878.5" y="-515.2" font-family="Helvetica,sans-Serif" font-size="11.00">text[2147483647]</text>
<polygon fill="none" stroke="black" points="681.5,-485 681.5,-507 875.5,-507 875.5,-485 681.5,-485"/>
<image xlink:href="../../images/foreignKeys.png" width="11px" height="12px" preserveAspectRatio="xMinYMin meet" x="686.5" y="-502"/>
<text text-anchor="start" x="701.5" y="-493.2" font-family="Helvetica,sans-Serif" font-size="11.00">instance_id</text>
<polygon fill="none" stroke="black" points="875.5,-485 875.5,-507 974.5,-507 974.5,-485 875.5,-485"/>
<text text-anchor="start" x="878.5" y="-493.2" font-family="Helvetica,sans-Serif" font-size="11.00">uuid[2147483647]</text>
<polygon fill="none" stroke="black" points="681.5,-463 681.5,-485 875.5,-485 875.5,-463 681.5,-463"/>
<image xlink:href="../../images/foreignKeys.png" width="11px" height="12px" preserveAspectRatio="xMinYMin meet" x="686.5" y="-480"/>
<text text-anchor="start" x="701.5" y="-471.2" font-family="Helvetica,sans-Serif" font-size="11.00">application_context_id</text>
<polygon fill="none" stroke="black" points="875.5,-463 875.5,-485 974.5,-485 974.5,-463 875.5,-463"/>
<text text-anchor="start" x="878.5" y="-471.2" font-family="Helvetica,sans-Serif" font-size="11.00">uuid[2147483647]</text>
<polygon fill="none" stroke="black" points="681.5,-441 681.5,-463 875.5,-463 875.5,-441 681.5,-441"/>
<text text-anchor="start" x="701.5" y="-449.2" font-family="Helvetica,sans-Serif" font-size="11.00">start_context</text>
<polygon fill="none" stroke="black" points="875.5,-441 875.5,-463 974.5,-463 974.5,-441 875.5,-441"/>
<text text-anchor="start" x="878.5" y="-449.2" font-family="Helvetica,sans-Serif" font-size="11.00">bool[1]</text>
<polygon fill="none" stroke="black" points="681.5,-419 681.5,-441 875.5,-441 875.5,-419 681.5,-419"/>
<text text-anchor="start" x="701.5" y="-427.2" font-family="Helvetica,sans-Serif" font-size="11.00">db_pool_size</text>
<polygon fill="none" stroke="black" points="875.5,-419 875.5,-441 974.5,-441 974.5,-419 875.5,-419"/>
<text text-anchor="start" x="878.5" y="-427.2" font-family="Helvetica,sans-Serif" font-size="11.00">int4[10]</text>
<polygon fill="none" stroke="black" points="681.5,-397 681.5,-419 875.5,-419 875.5,-397 681.5,-397"/>
<text text-anchor="start" x="701.5" y="-405.2" font-family="Helvetica,sans-Serif" font-size="11.00">context_code</text>
<polygon fill="none" stroke="black" points="875.5,-397 875.5,-419 974.5,-419 974.5,-397 875.5,-397"/>
<text text-anchor="start" x="878.5" y="-405.2" font-family="Helvetica,sans-Serif" font-size="11.00">bytea[2147483647]</text>
<polygon fill="none" stroke="black" points="681.5,-375 681.5,-397 875.5,-397 875.5,-375 681.5,-375"/>
<text text-anchor="start" x="701.5" y="-383.2" font-family="Helvetica,sans-Serif" font-size="11.00">diag_timestamp_created</text>
<polygon fill="none" stroke="black" points="875.5,-375 875.5,-397 974.5,-397 974.5,-375 875.5,-375"/>
<text text-anchor="start" x="878.5" y="-383.2" font-family="Helvetica,sans-Serif" font-size="11.00">timestamptz[35,6]</text>
<polygon fill="none" stroke="black" points="681.5,-353 681.5,-375 875.5,-375 875.5,-353 681.5,-353"/>
<text text-anchor="start" x="701.5" y="-361.2" font-family="Helvetica,sans-Serif" font-size="11.00">diag_role_created</text>
<polygon fill="none" stroke="black" points="875.5,-353 875.5,-375 974.5,-375 974.5,-353 875.5,-353"/>
<text text-anchor="start" x="878.5" y="-361.2" font-family="Helvetica,sans-Serif" font-size="11.00">text[2147483647]</text>
<polygon fill="none" stroke="black" points="681.5,-331 681.5,-353 875.5,-353 875.5,-331 681.5,-331"/>
<text text-anchor="start" x="701.5" y="-339.2" font-family="Helvetica,sans-Serif" font-size="11.00">diag_timestamp_modified</text>
<polygon fill="none" stroke="black" points="875.5,-331 875.5,-353 974.5,-353 974.5,-331 875.5,-331"/>
<text text-anchor="start" x="878.5" y="-339.2" font-family="Helvetica,sans-Serif" font-size="11.00">timestamptz[35,6]</text>
<polygon fill="none" stroke="black" points="681.5,-309 681.5,-331 875.5,-331 875.5,-309 681.5,-309"/>
<text text-anchor="start" x="701.5" y="-317.2" font-family="Helvetica,sans-Serif" font-size="11.00">diag_wallclock_modified</text>
<polygon fill="none" stroke="black" points="875.5,-309 875.5,-331 974.5,-331 974.5,-309 875.5,-309"/>
<text text-anchor="start" x="878.5" y="-317.2" font-family="Helvetica,sans-Serif" font-size="11.00">timestamptz[35,6]</text>
<polygon fill="none" stroke="black" points="681.5,-287 681.5,-309 875.5,-309 875.5,-287 681.5,-287"/>
<text text-anchor="start" x="701.5" y="-295.2" font-family="Helvetica,sans-Serif" font-size="11.00">diag_role_modified</text>
<polygon fill="none" stroke="black" points="875.5,-287 875.5,-309 974.5,-309 974.5,-287 875.5,-287"/>
<text text-anchor="start" x="878.5" y="-295.2" font-family="Helvetica,sans-Serif" font-size="11.00">text[2147483647]</text>
<polygon fill="none" stroke="black" points="681.5,-265 681.5,-287 875.5,-287 875.5,-265 681.5,-265"/>
<text text-anchor="start" x="701.5" y="-273.2" font-family="Helvetica,sans-Serif" font-size="11.00">diag_row_version</text>
<polygon fill="none" stroke="black" points="875.5,-265 875.5,-287 974.5,-287 974.5,-265 875.5,-265"/>
<text text-anchor="start" x="878.5" y="-273.2" font-family="Helvetica,sans-Serif" font-size="11.00">int8[19]</text>
<polygon fill="none" stroke="black" points="681.5,-243 681.5,-265 875.5,-265 875.5,-243 681.5,-243"/>
<text text-anchor="start" x="701.5" y="-251.2" font-family="Helvetica,sans-Serif" font-size="11.00">diag_update_count</text>
<polygon fill="none" stroke="black" points="875.5,-243 875.5,-265 974.5,-265 974.5,-243 875.5,-243"/>
<text text-anchor="start" x="878.5" y="-251.2" font-family="Helvetica,sans-Serif" font-size="11.00">int8[19]</text>
<polygon fill="#ffffff" stroke="transparent" points="681.5,-225 681.5,-243 782.5,-243 782.5,-225 681.5,-225"/>
<polygon fill="none" stroke="black" points="681.5,-225 681.5,-243 782.5,-243 782.5,-225 681.5,-225"/>
<text text-anchor="start" x="684.5" y="-231.2" font-family="Helvetica,sans-Serif" font-size="11.00">&lt; 2</text>
<polygon fill="#ffffff" stroke="transparent" points="782.5,-225 782.5,-243 875.5,-243 875.5,-225 782.5,-225"/>
<polygon fill="none" stroke="black" points="782.5,-225 782.5,-243 875.5,-243 875.5,-225 782.5,-225"/>
<text text-anchor="start" x="865.5" y="-231.2" font-family="Helvetica,sans-Serif" font-size="11.00"> &#160;</text>
<polygon fill="#ffffff" stroke="transparent" points="875.5,-225 875.5,-243 974.5,-243 974.5,-225 875.5,-225"/>
<polygon fill="none" stroke="black" points="875.5,-225 875.5,-243 974.5,-243 974.5,-225 875.5,-225"/>
<text text-anchor="start" x="955.5" y="-231.2" font-family="Helvetica,sans-Serif" font-size="11.00">0 &gt;</text>
<polygon fill="none" stroke="black" stroke-width="2" points="680,-224 680,-574 975,-574 975,-224 680,-224"/>
</a>
</g>
</g>
<!-- syst_instance_contexts&#45;&gt;syst_instances -->
<g id="edge4" class="edge">
<title>syst_instance_contexts:w&#45;&gt;syst_instances:e</title>
<path fill="none" stroke="black" d="M667.32,-490.13C631.27,-451.72 675.03,-238 621.5,-238"/>
<polygon fill="black" stroke="black" points="673.19,-492.74 679.03,-499.29 676.85,-494.37 680.5,-496 680.5,-496 680.5,-496 676.85,-494.37 681.97,-492.71 673.19,-492.74 673.19,-492.74"/>
<ellipse fill="none" stroke="black" cx="670.27" cy="-491.44" rx="3.2" ry="3.2"/>
</g>
<!-- syst_instance_contexts&#45;&gt;syst_application_contexts -->
<g id="edge3" class="edge">
<title>syst_instance_contexts:w&#45;&gt;syst_application_contexts:e</title>
<path fill="none" stroke="black" d="M665.99,-474C654.68,-474 647.49,-474 631.5,-474"/>
<polygon fill="black" stroke="black" points="672.5,-474 680.5,-477.6 676.5,-474 680.5,-474 680.5,-474 680.5,-474 676.5,-474 680.5,-470.4 672.5,-474 672.5,-474"/>
<ellipse fill="none" stroke="black" cx="669.3" cy="-474" rx="3.2" ry="3.2"/>
</g>
<!-- syst_instance_network_rules -->
<g id="node6" class="node">
<title>syst_instance_network_rules</title>
<g id="a_node6"><a xlink:href="../../tables/syst_instance_network_rules.html" xlink:title="syst_instance_network_rules" target="_top">
<polygon fill="#ffffff" stroke="transparent" points="711.5,-65 711.5,-123 943.5,-123 943.5,-65 711.5,-65"/>
<polygon fill="#f5f5f5" stroke="transparent" points="711.5,-101 711.5,-123 943.5,-123 943.5,-101 711.5,-101"/>
<polygon fill="none" stroke="black" points="711.5,-101 711.5,-123 943.5,-123 943.5,-101 711.5,-101"/>
<text text-anchor="start" x="716.5" y="-110.2" font-family="Helvetica,sans-Serif" font-weight="bold" font-size="11.00">syst_instance_network_rules</text>
<text text-anchor="start" x="908.5" y="-109.2" font-family="Helvetica,sans-Serif" font-size="11.00">[table]</text>
<polygon fill="none" stroke="black" points="711.5,-83 711.5,-101 943.5,-101 943.5,-83 711.5,-83"/>
<text text-anchor="start" x="714.5" y="-89.2" font-family="Helvetica,sans-Serif" font-size="11.00">...</text>
<polygon fill="#ffffff" stroke="transparent" points="711.5,-65 711.5,-83 825.5,-83 825.5,-65 711.5,-65"/>
<polygon fill="none" stroke="black" points="711.5,-65 711.5,-83 825.5,-83 825.5,-65 711.5,-65"/>
<text text-anchor="start" x="714.5" y="-71.2" font-family="Helvetica,sans-Serif" font-size="11.00">&lt; 1</text>
<polygon fill="#ffffff" stroke="transparent" points="825.5,-65 825.5,-83 884.5,-83 884.5,-65 825.5,-65"/>
<polygon fill="none" stroke="black" points="825.5,-65 825.5,-83 884.5,-83 884.5,-65 825.5,-65"/>
<text text-anchor="start" x="874.5" y="-71.2" font-family="Helvetica,sans-Serif" font-size="11.00"> &#160;</text>
<polygon fill="#ffffff" stroke="transparent" points="884.5,-65 884.5,-83 943.5,-83 943.5,-65 884.5,-65"/>
<polygon fill="none" stroke="black" points="884.5,-65 884.5,-83 943.5,-83 943.5,-65 884.5,-65"/>
<text text-anchor="start" x="933.5" y="-71.2" font-family="Helvetica,sans-Serif" font-size="11.00"> &#160;</text>
</a>
</g>
</g>
<!-- syst_instance_network_rules&#45;&gt;syst_instances -->
<g id="edge5" class="edge">
<title>syst_instance_network_rules:w&#45;&gt;syst_instances:e</title>
<path fill="none" stroke="black" d="M696.1,-94.18C642.88,-112.34 692,-238 621.5,-238"/>
<polygon fill="black" stroke="black" points="702.59,-93.2 711.04,-95.56 706.54,-92.6 710.5,-92 710.5,-92 710.5,-92 706.54,-92.6 709.96,-88.44 702.59,-93.2 702.59,-93.2"/>
<ellipse fill="none" stroke="black" cx="699.43" cy="-93.67" rx="3.2" ry="3.2"/>
</g>
<!-- syst_instance_type_contexts -->
<g id="node7" class="node">
<title>syst_instance_type_contexts</title>
<g id="a_node7"><a xlink:href="../../tables/syst_instance_type_contexts.html" xlink:title="syst_instance_type_contexts" target="_top">
<polygon fill="#ffffff" stroke="transparent" points="712,-596 712,-654 943,-654 943,-596 712,-596"/>
<polygon fill="#f5f5f5" stroke="transparent" points="712.5,-632 712.5,-654 943.5,-654 943.5,-632 712.5,-632"/>
<polygon fill="none" stroke="black" points="712.5,-632 712.5,-654 943.5,-654 943.5,-632 712.5,-632"/>
<text text-anchor="start" x="717.5" y="-641.2" font-family="Helvetica,sans-Serif" font-weight="bold" font-size="11.00">syst_instance_type_contexts</text>
<text text-anchor="start" x="908.5" y="-640.2" font-family="Helvetica,sans-Serif" font-size="11.00">[table]</text>
<polygon fill="none" stroke="black" points="712.5,-614 712.5,-632 943.5,-632 943.5,-614 712.5,-614"/>
<text text-anchor="start" x="715.5" y="-620.2" font-family="Helvetica,sans-Serif" font-size="11.00">...</text>
<polygon fill="#ffffff" stroke="transparent" points="712.5,-596 712.5,-614 825.5,-614 825.5,-596 712.5,-596"/>
<polygon fill="none" stroke="black" points="712.5,-596 712.5,-614 825.5,-614 825.5,-596 712.5,-596"/>
<text text-anchor="start" x="715.5" y="-602.2" font-family="Helvetica,sans-Serif" font-size="11.00">&lt; 2</text>
<polygon fill="#ffffff" stroke="transparent" points="825.5,-596 825.5,-614 884.5,-614 884.5,-596 825.5,-596"/>
<polygon fill="none" stroke="black" points="825.5,-596 825.5,-614 884.5,-614 884.5,-596 825.5,-596"/>
<text text-anchor="start" x="874.5" y="-602.2" font-family="Helvetica,sans-Serif" font-size="11.00"> &#160;</text>
<polygon fill="#ffffff" stroke="transparent" points="884.5,-596 884.5,-614 943.5,-614 943.5,-596 884.5,-596"/>
<polygon fill="none" stroke="black" points="884.5,-596 884.5,-614 943.5,-614 943.5,-596 884.5,-596"/>
<text text-anchor="start" x="933.5" y="-602.2" font-family="Helvetica,sans-Serif" font-size="11.00"> &#160;</text>
</a>
</g>
</g>
<!-- syst_instance_type_contexts&#45;&gt;syst_application_contexts -->
<g id="edge6" class="edge">
<title>syst_instance_type_contexts:w&#45;&gt;syst_application_contexts:e</title>
<path fill="none" stroke="black" d="M697.15,-620.25C685.2,-614.71 681.2,-601.41 671,-586 641.86,-541.99 684.28,-474 631.5,-474"/>
<polygon fill="black" stroke="black" points="703.64,-621.5 710.82,-626.54 707.57,-622.25 711.5,-623 711.5,-623 711.5,-623 707.57,-622.25 712.18,-619.46 703.64,-621.5 703.64,-621.5"/>
<ellipse fill="none" stroke="black" cx="700.5" cy="-620.89" rx="3.2" ry="3.2"/>
</g>
<!-- syst_owners&#45;&gt;syst_enum_items -->
<g id="edge11" class="edge">
<title>syst_owners:w&#45;&gt;syst_enum_items:e</title>
<path fill="none" stroke="black" d="M213.97,-76.44C192.94,-88.48 196.15,-128 164.5,-128"/>
<polygon fill="black" stroke="black" points="220.23,-74.91 228.86,-76.5 224.12,-73.95 228,-73 228,-73 228,-73 224.12,-73.95 227.14,-69.5 220.23,-74.91 220.23,-74.91"/>
<ellipse fill="none" stroke="black" cx="217.12" cy="-75.67" rx="3.2" ry="3.2"/>
</g>
</g>
</svg>
