<?xml version="1.0" encoding="UTF-8" standalone="no"?>
<!DOCTYPE svg PUBLIC "-//W3C//DTD SVG 1.1//EN"
 "http://www.w3.org/Graphics/SVG/1.1/DTD/svg11.dtd">
<!-- Generated by graphviz version 2.43.0 (0)
 -->
<!-- Title: largeRelationshipsDiagram Pages: 1 -->
<svg width="1255pt" height="1191pt"
 viewBox="0.00 0.00 1254.61 1191.00" xmlns="http://www.w3.org/2000/svg" xmlns:xlink="http://www.w3.org/1999/xlink">
<g id="graph0" class="graph" transform="scale(1 1) rotate(0) translate(4 1187)">
<title>largeRelationshipsDiagram</title>
<polygon fill="#ffffff" stroke="transparent" points="-4,4 -4,-1187 1250.61,-1187 1250.61,4 -4,4"/>
<text text-anchor="middle" x="71.5" y="-7.2" font-family="Helvetica,sans-Serif" font-size="11.00">Generated by SchemaSpy</text>
<!-- syst_menu_items -->
<g id="node1" class="node">
<title>syst_menu_items</title>
<g id="a_node1"><a xlink:href="../../tables/syst_menu_items.html" xlink:title="syst_menu_items" target="_top">
<polygon fill="#ffffff" stroke="transparent" points="1015,-725 1015,-1161 1209,-1161 1209,-725 1015,-725"/>
<polygon fill="#f5f5f5" stroke="transparent" points="1015,-1139 1015,-1161 1209,-1161 1209,-1139 1015,-1139"/>
<polygon fill="none" stroke="black" points="1015,-1139 1015,-1161 1209,-1161 1209,-1139 1015,-1139"/>
<text text-anchor="start" x="1020" y="-1148.2" font-family="Helvetica,sans-Serif" font-weight="bold" font-size="11.00">syst_menu_items</text>
<text text-anchor="start" x="1174" y="-1147.2" font-family="Helvetica,sans-Serif" font-size="11.00">[table]</text>
<polygon fill="none" stroke="black" points="1015,-1117 1015,-1139 1209,-1139 1209,-1117 1015,-1117"/>
<image xlink:href="../../images/primaryKeys.png" width="11px" height="12px" preserveAspectRatio="xMinYMin meet" x="1020" y="-1134"/>
<text text-anchor="start" x="1035" y="-1125.2" font-family="Helvetica,sans-Serif" font-size="11.00">id</text>
<polygon fill="#ffffff" stroke="transparent" points="1015,-1095 1015,-1117 1209,-1117 1209,-1095 1015,-1095"/>
<polygon fill="none" stroke="black" points="1015,-1095 1015,-1117 1209,-1117 1209,-1095 1015,-1095"/>
<text text-anchor="start" x="1035" y="-1103.2" font-family="Helvetica,sans-Serif" font-size="11.00">internal_name</text>
<polygon fill="#ffffff" stroke="transparent" points="1015,-1073 1015,-1095 1209,-1095 1209,-1073 1015,-1073"/>
<polygon fill="none" stroke="black" points="1015,-1073 1015,-1095 1209,-1095 1209,-1073 1015,-1073"/>
<text text-anchor="start" x="1035" y="-1081.2" font-family="Helvetica,sans-Serif" font-size="11.00">display_name</text>
<polygon fill="none" stroke="black" points="1015,-1051 1015,-1073 1209,-1073 1209,-1051 1015,-1051"/>
<text text-anchor="start" x="1035" y="-1059.2" font-family="Helvetica,sans-Serif" font-size="11.00">external_name</text>
<polygon fill="#ffffff" stroke="transparent" points="1015,-1029 1015,-1051 1209,-1051 1209,-1029 1015,-1029"/>
<polygon fill="none" stroke="black" points="1015,-1029 1015,-1051 1209,-1051 1209,-1029 1015,-1029"/>
<image xlink:href="../../images/foreignKeys.png" width="11px" height="12px" preserveAspectRatio="xMinYMin meet" x="1020" y="-1046"/>
<text text-anchor="start" x="1035" y="-1037.2" font-family="Helvetica,sans-Serif" font-size="11.00">menu_id</text>
<polygon fill="#ffffff" stroke="transparent" points="1015,-1007 1015,-1029 1209,-1029 1209,-1007 1015,-1007"/>
<polygon fill="none" stroke="black" points="1015,-1007 1015,-1029 1209,-1029 1209,-1007 1015,-1007"/>
<image xlink:href="../../images/foreignKeys.png" width="11px" height="12px" preserveAspectRatio="xMinYMin meet" x="1020" y="-1024"/>
<text text-anchor="start" x="1035" y="-1015.2" font-family="Helvetica,sans-Serif" font-size="11.00">parent_menu_item_id</text>
<polygon fill="#ffffff" stroke="transparent" points="1015,-985 1015,-1007 1209,-1007 1209,-985 1015,-985"/>
<polygon fill="none" stroke="black" points="1015,-985 1015,-1007 1209,-1007 1209,-985 1015,-985"/>
<text text-anchor="start" x="1035" y="-993.2" font-family="Helvetica,sans-Serif" font-size="11.00">sort_order</text>
<polygon fill="none" stroke="black" points="1015,-963 1015,-985 1209,-985 1209,-963 1015,-963"/>
<image xlink:href="../../images/foreignKeys.png" width="11px" height="12px" preserveAspectRatio="xMinYMin meet" x="1020" y="-980"/>
<text text-anchor="start" x="1035" y="-971.2" font-family="Helvetica,sans-Serif" font-size="11.00">submenu_menu_id</text>
<polygon fill="none" stroke="black" points="1015,-941 1015,-963 1209,-963 1209,-941 1015,-941"/>
<image xlink:href="../../images/foreignKeys.png" width="11px" height="12px" preserveAspectRatio="xMinYMin meet" x="1020" y="-958"/>
<text text-anchor="start" x="1035" y="-949.2" font-family="Helvetica,sans-Serif" font-size="11.00">action_id</text>
<polygon fill="none" stroke="black" points="1015,-919 1015,-941 1209,-941 1209,-919 1015,-919"/>
<text text-anchor="start" x="1035" y="-927.2" font-family="Helvetica,sans-Serif" font-size="11.00">syst_description</text>
<polygon fill="none" stroke="black" points="1015,-897 1015,-919 1209,-919 1209,-897 1015,-897"/>
<text text-anchor="start" x="1035" y="-905.2" font-family="Helvetica,sans-Serif" font-size="11.00">user_description</text>
<polygon fill="none" stroke="black" points="1015,-875 1015,-897 1209,-897 1209,-875 1015,-875"/>
<text text-anchor="start" x="1035" y="-883.2" font-family="Helvetica,sans-Serif" font-size="11.00">diag_timestamp_created</text>
<polygon fill="none" stroke="black" points="1015,-853 1015,-875 1209,-875 1209,-853 1015,-853"/>
<text text-anchor="start" x="1035" y="-861.2" font-family="Helvetica,sans-Serif" font-size="11.00">diag_role_created</text>
<polygon fill="none" stroke="black" points="1015,-831 1015,-853 1209,-853 1209,-831 1015,-831"/>
<text text-anchor="start" x="1035" y="-839.2" font-family="Helvetica,sans-Serif" font-size="11.00">diag_timestamp_modified</text>
<polygon fill="none" stroke="black" points="1015,-809 1015,-831 1209,-831 1209,-809 1015,-809"/>
<text text-anchor="start" x="1035" y="-817.2" font-family="Helvetica,sans-Serif" font-size="11.00">diag_wallclock_modified</text>
<polygon fill="none" stroke="black" points="1015,-787 1015,-809 1209,-809 1209,-787 1015,-787"/>
<text text-anchor="start" x="1035" y="-795.2" font-family="Helvetica,sans-Serif" font-size="11.00">diag_role_modified</text>
<polygon fill="none" stroke="black" points="1015,-765 1015,-787 1209,-787 1209,-765 1015,-765"/>
<text text-anchor="start" x="1035" y="-773.2" font-family="Helvetica,sans-Serif" font-size="11.00">diag_row_version</text>
<polygon fill="none" stroke="black" points="1015,-743 1015,-765 1209,-765 1209,-743 1015,-743"/>
<text text-anchor="start" x="1035" y="-751.2" font-family="Helvetica,sans-Serif" font-size="11.00">diag_update_count</text>
<polygon fill="#ffffff" stroke="transparent" points="1015,-725 1015,-743 1105,-743 1105,-725 1015,-725"/>
<polygon fill="none" stroke="black" points="1015,-725 1015,-743 1105,-743 1105,-725 1015,-725"/>
<text text-anchor="start" x="1018" y="-731.2" font-family="Helvetica,sans-Serif" font-size="11.00">&lt; 4</text>
<polygon fill="#ffffff" stroke="transparent" points="1105,-725 1105,-743 1152,-743 1152,-725 1105,-725"/>
<polygon fill="none" stroke="black" points="1105,-725 1105,-743 1152,-743 1152,-725 1105,-725"/>
<text text-anchor="start" x="1142" y="-731.2" font-family="Helvetica,sans-Serif" font-size="11.00"> &#160;</text>
<polygon fill="#ffffff" stroke="transparent" points="1152,-725 1152,-743 1209,-743 1209,-725 1152,-725"/>
<polygon fill="none" stroke="black" points="1152,-725 1152,-743 1209,-743 1209,-725 1152,-725"/>
<text text-anchor="start" x="1190" y="-731.2" font-family="Helvetica,sans-Serif" font-size="11.00">1 &gt;</text>
</a>
</g>
</g>
<!-- syst_menu_items&#45;&gt;syst_menu_items -->
<g id="edge7" class="edge">
<title>syst_menu_items:w&#45;&gt;syst_menu_items:e</title>
<path fill="none" stroke="black" d="M1006.26,-1029.95C954.91,-1104.42 962.5,-1178 1112,-1178 1269.5,-1178 1269.5,-1169.33 1209,-1128"/>
<polygon fill="black" stroke="black" points="1010.28,-1024.46 1017.91,-1020.12 1012.64,-1021.23 1015,-1018 1015,-1018 1015,-1018 1012.64,-1021.23 1012.09,-1015.88 1010.28,-1024.46 1010.28,-1024.46"/>
<ellipse fill="none" stroke="black" cx="1008.39" cy="-1027.04" rx="3.2" ry="3.2"/>
</g>
<!-- syst_menus -->
<g id="node4" class="node">
<title>syst_menus</title>
<g id="a_node4"><a xlink:href="../../tables/syst_menus.html" xlink:title="syst_menus" target="_top">
<polygon fill="#ffffff" stroke="transparent" points="772,-703 772,-1073 966,-1073 966,-703 772,-703"/>
<polygon fill="#f5f5f5" stroke="transparent" points="772,-1051 772,-1073 966,-1073 966,-1051 772,-1051"/>
<polygon fill="none" stroke="black" points="772,-1051 772,-1073 966,-1073 966,-1051 772,-1051"/>
<text text-anchor="start" x="777" y="-1060.2" font-family="Helvetica,sans-Serif" font-weight="bold" font-size="11.00">syst_menus</text>
<text text-anchor="start" x="931" y="-1059.2" font-family="Helvetica,sans-Serif" font-size="11.00">[table]</text>
<polygon fill="none" stroke="black" points="772,-1029 772,-1051 966,-1051 966,-1029 772,-1029"/>
<image xlink:href="../../images/primaryKeys.png" width="11px" height="12px" preserveAspectRatio="xMinYMin meet" x="777" y="-1046"/>
<text text-anchor="start" x="792" y="-1037.2" font-family="Helvetica,sans-Serif" font-size="11.00">id</text>
<polygon fill="#ffffff" stroke="transparent" points="772,-1007 772,-1029 966,-1029 966,-1007 772,-1007"/>
<polygon fill="none" stroke="black" points="772,-1007 772,-1029 966,-1029 966,-1007 772,-1007"/>
<text text-anchor="start" x="792" y="-1015.2" font-family="Helvetica,sans-Serif" font-size="11.00">internal_name</text>
<polygon fill="#ffffff" stroke="transparent" points="772,-985 772,-1007 966,-1007 966,-985 772,-985"/>
<polygon fill="none" stroke="black" points="772,-985 772,-1007 966,-1007 966,-985 772,-985"/>
<text text-anchor="start" x="792" y="-993.2" font-family="Helvetica,sans-Serif" font-size="11.00">display_name</text>
<polygon fill="none" stroke="black" points="772,-963 772,-985 966,-985 966,-963 772,-963"/>
<image xlink:href="../../images/foreignKeys.png" width="11px" height="12px" preserveAspectRatio="xMinYMin meet" x="777" y="-980"/>
<text text-anchor="start" x="792" y="-971.2" font-family="Helvetica,sans-Serif" font-size="11.00">menu_state_id</text>
<polygon fill="none" stroke="black" points="772,-941 772,-963 966,-963 966,-941 772,-941"/>
<text text-anchor="start" x="792" y="-949.2" font-family="Helvetica,sans-Serif" font-size="11.00">syst_defined</text>
<polygon fill="none" stroke="black" points="772,-919 772,-941 966,-941 966,-919 772,-919"/>
<text text-anchor="start" x="792" y="-927.2" font-family="Helvetica,sans-Serif" font-size="11.00">user_maintainable</text>
<polygon fill="none" stroke="black" points="772,-897 772,-919 966,-919 966,-897 772,-897"/>
<text text-anchor="start" x="792" y="-905.2" font-family="Helvetica,sans-Serif" font-size="11.00">syst_description</text>
<polygon fill="none" stroke="black" points="772,-875 772,-897 966,-897 966,-875 772,-875"/>
<text text-anchor="start" x="792" y="-883.2" font-family="Helvetica,sans-Serif" font-size="11.00">user_description</text>
<polygon fill="none" stroke="black" points="772,-853 772,-875 966,-875 966,-853 772,-853"/>
<text text-anchor="start" x="792" y="-861.2" font-family="Helvetica,sans-Serif" font-size="11.00">diag_timestamp_created</text>
<polygon fill="none" stroke="black" points="772,-831 772,-853 966,-853 966,-831 772,-831"/>
<text text-anchor="start" x="792" y="-839.2" font-family="Helvetica,sans-Serif" font-size="11.00">diag_role_created</text>
<polygon fill="none" stroke="black" points="772,-809 772,-831 966,-831 966,-809 772,-809"/>
<text text-anchor="start" x="792" y="-817.2" font-family="Helvetica,sans-Serif" font-size="11.00">diag_timestamp_modified</text>
<polygon fill="none" stroke="black" points="772,-787 772,-809 966,-809 966,-787 772,-787"/>
<text text-anchor="start" x="792" y="-795.2" font-family="Helvetica,sans-Serif" font-size="11.00">diag_wallclock_modified</text>
<polygon fill="none" stroke="black" points="772,-765 772,-787 966,-787 966,-765 772,-765"/>
<text text-anchor="start" x="792" y="-773.2" font-family="Helvetica,sans-Serif" font-size="11.00">diag_role_modified</text>
<polygon fill="none" stroke="black" points="772,-743 772,-765 966,-765 966,-743 772,-743"/>
<text text-anchor="start" x="792" y="-751.2" font-family="Helvetica,sans-Serif" font-size="11.00">diag_row_version</text>
<polygon fill="none" stroke="black" points="772,-721 772,-743 966,-743 966,-721 772,-721"/>
<text text-anchor="start" x="792" y="-729.2" font-family="Helvetica,sans-Serif" font-size="11.00">diag_update_count</text>
<polygon fill="#ffffff" stroke="transparent" points="772,-703 772,-721 862,-721 862,-703 772,-703"/>
<polygon fill="none" stroke="black" points="772,-703 772,-721 862,-721 862,-703 772,-703"/>
<text text-anchor="start" x="775" y="-709.2" font-family="Helvetica,sans-Serif" font-size="11.00">&lt; 1</text>
<polygon fill="#ffffff" stroke="transparent" points="862,-703 862,-721 909,-721 909,-703 862,-703"/>
<polygon fill="none" stroke="black" points="862,-703 862,-721 909,-721 909,-703 862,-703"/>
<text text-anchor="start" x="899" y="-709.2" font-family="Helvetica,sans-Serif" font-size="11.00"> &#160;</text>
<polygon fill="#ffffff" stroke="transparent" points="909,-703 909,-721 966,-721 966,-703 909,-703"/>
<polygon fill="none" stroke="black" points="909,-703 909,-721 966,-721 966,-703 909,-703"/>
<text text-anchor="start" x="947" y="-709.2" font-family="Helvetica,sans-Serif" font-size="11.00">2 &gt;</text>
</a>
</g>
</g>
<!-- syst_menu_items&#45;&gt;syst_menus -->
<g id="edge6" class="edge">
<title>syst_menu_items:w&#45;&gt;syst_menus:e</title>
<path fill="none" stroke="black" d="M999.4,-1040C988.93,-1040 982.01,-1040 967,-1040"/>
<polygon fill="black" stroke="black" points="1006,-1040 1014,-1043.6 1010,-1040 1014,-1040 1014,-1040 1014,-1040 1010,-1040 1014,-1036.4 1006,-1040 1006,-1040"/>
<ellipse fill="none" stroke="black" cx="1002.8" cy="-1040" rx="3.2" ry="3.2"/>
</g>
<!-- syst_menu_items&#45;&gt;syst_menus -->
<g id="edge8" class="edge">
<title>syst_menu_items:w&#45;&gt;syst_menus:e</title>
<path fill="none" stroke="black" d="M1000.22,-979.18C984.79,-994.74 996.82,-1040 967,-1040"/>
<polygon fill="black" stroke="black" points="1006.51,-976.81 1015.27,-977.37 1010.26,-975.41 1014,-974 1014,-974 1014,-974 1010.26,-975.41 1012.73,-970.63 1006.51,-976.81 1006.51,-976.81"/>
<ellipse fill="none" stroke="black" cx="1003.52" cy="-977.94" rx="3.2" ry="3.2"/>
</g>
<!-- syst_actions -->
<g id="node7" class="node">
<title>syst_actions</title>
<g id="a_node7"><a xlink:href="../../tables/syst_actions.html" xlink:title="syst_actions" target="_top">
<polygon fill="#ffffff" stroke="transparent" points="772,-213 772,-649 966,-649 966,-213 772,-213"/>
<polygon fill="#f5f5f5" stroke="transparent" points="772,-627 772,-649 966,-649 966,-627 772,-627"/>
<polygon fill="none" stroke="black" points="772,-627 772,-649 966,-649 966,-627 772,-627"/>
<text text-anchor="start" x="777" y="-636.2" font-family="Helvetica,sans-Serif" font-weight="bold" font-size="11.00">syst_actions</text>
<text text-anchor="start" x="931" y="-635.2" font-family="Helvetica,sans-Serif" font-size="11.00">[table]</text>
<polygon fill="none" stroke="black" points="772,-605 772,-627 966,-627 966,-605 772,-605"/>
<image xlink:href="../../images/primaryKeys.png" width="11px" height="12px" preserveAspectRatio="xMinYMin meet" x="777" y="-622"/>
<text text-anchor="start" x="792" y="-613.2" font-family="Helvetica,sans-Serif" font-size="11.00">id</text>
<polygon fill="#ffffff" stroke="transparent" points="772,-583 772,-605 966,-605 966,-583 772,-583"/>
<polygon fill="none" stroke="black" points="772,-583 772,-605 966,-605 966,-583 772,-583"/>
<text text-anchor="start" x="792" y="-591.2" font-family="Helvetica,sans-Serif" font-size="11.00">internal_name</text>
<polygon fill="#ffffff" stroke="transparent" points="772,-561 772,-583 966,-583 966,-561 772,-561"/>
<polygon fill="none" stroke="black" points="772,-561 772,-583 966,-583 966,-561 772,-561"/>
<text text-anchor="start" x="792" y="-569.2" font-family="Helvetica,sans-Serif" font-size="11.00">display_name</text>
<polygon fill="none" stroke="black" points="772,-539 772,-561 966,-561 966,-539 772,-539"/>
<text text-anchor="start" x="792" y="-547.2" font-family="Helvetica,sans-Serif" font-size="11.00">external_name</text>
<polygon fill="#ffffff" stroke="transparent" points="772,-517 772,-539 966,-539 966,-517 772,-517"/>
<polygon fill="none" stroke="black" points="772,-517 772,-539 966,-539 966,-517 772,-517"/>
<image xlink:href="../../images/foreignKeys.png" width="11px" height="12px" preserveAspectRatio="xMinYMin meet" x="777" y="-534"/>
<text text-anchor="start" x="792" y="-525.2" font-family="Helvetica,sans-Serif" font-size="11.00">action_group_id</text>
<polygon fill="#ffffff" stroke="transparent" points="772,-495 772,-517 966,-517 966,-495 772,-495"/>
<polygon fill="none" stroke="black" points="772,-495 772,-517 966,-517 966,-495 772,-495"/>
<text text-anchor="start" x="792" y="-503.2" font-family="Helvetica,sans-Serif" font-size="11.00">command</text>
<polygon fill="none" stroke="black" points="772,-473 772,-495 966,-495 966,-473 772,-473"/>
<text text-anchor="start" x="792" y="-481.2" font-family="Helvetica,sans-Serif" font-size="11.00">command_config</text>
<polygon fill="none" stroke="black" points="772,-451 772,-473 966,-473 966,-451 772,-451"/>
<text text-anchor="start" x="792" y="-459.2" font-family="Helvetica,sans-Serif" font-size="11.00">command_aliases</text>
<polygon fill="#ffffff" stroke="transparent" points="772,-429 772,-451 966,-451 966,-429 772,-429"/>
<polygon fill="none" stroke="black" points="772,-429 772,-451 966,-451 966,-429 772,-429"/>
<text text-anchor="start" x="792" y="-437.2" font-family="Helvetica,sans-Serif" font-size="11.00">command_search</text>
<polygon fill="none" stroke="black" points="772,-407 772,-429 966,-429 966,-407 772,-407"/>
<text text-anchor="start" x="792" y="-415.2" font-family="Helvetica,sans-Serif" font-size="11.00">syst_description</text>
<polygon fill="none" stroke="black" points="772,-385 772,-407 966,-407 966,-385 772,-385"/>
<text text-anchor="start" x="792" y="-393.2" font-family="Helvetica,sans-Serif" font-size="11.00">user_description</text>
<polygon fill="none" stroke="black" points="772,-363 772,-385 966,-385 966,-363 772,-363"/>
<text text-anchor="start" x="792" y="-371.2" font-family="Helvetica,sans-Serif" font-size="11.00">diag_timestamp_created</text>
<polygon fill="none" stroke="black" points="772,-341 772,-363 966,-363 966,-341 772,-341"/>
<text text-anchor="start" x="792" y="-349.2" font-family="Helvetica,sans-Serif" font-size="11.00">diag_role_created</text>
<polygon fill="none" stroke="black" points="772,-319 772,-341 966,-341 966,-319 772,-319"/>
<text text-anchor="start" x="792" y="-327.2" font-family="Helvetica,sans-Serif" font-size="11.00">diag_timestamp_modified</text>
<polygon fill="none" stroke="black" points="772,-297 772,-319 966,-319 966,-297 772,-297"/>
<text text-anchor="start" x="792" y="-305.2" font-family="Helvetica,sans-Serif" font-size="11.00">diag_wallclock_modified</text>
<polygon fill="none" stroke="black" points="772,-275 772,-297 966,-297 966,-275 772,-275"/>
<text text-anchor="start" x="792" y="-283.2" font-family="Helvetica,sans-Serif" font-size="11.00">diag_role_modified</text>
<polygon fill="none" stroke="black" points="772,-253 772,-275 966,-275 966,-253 772,-253"/>
<text text-anchor="start" x="792" y="-261.2" font-family="Helvetica,sans-Serif" font-size="11.00">diag_row_version</text>
<polygon fill="none" stroke="black" points="772,-231 772,-253 966,-253 966,-231 772,-231"/>
<text text-anchor="start" x="792" y="-239.2" font-family="Helvetica,sans-Serif" font-size="11.00">diag_update_count</text>
<polygon fill="#ffffff" stroke="transparent" points="772,-213 772,-231 862,-231 862,-213 772,-213"/>
<polygon fill="none" stroke="black" points="772,-213 772,-231 862,-231 862,-213 772,-213"/>
<text text-anchor="start" x="775" y="-219.2" font-family="Helvetica,sans-Serif" font-size="11.00">&lt; 1</text>
<polygon fill="#ffffff" stroke="transparent" points="862,-213 862,-231 909,-231 909,-213 862,-213"/>
<polygon fill="none" stroke="black" points="862,-213 862,-231 909,-231 909,-213 862,-213"/>
<text text-anchor="start" x="899" y="-219.2" font-family="Helvetica,sans-Serif" font-size="11.00"> &#160;</text>
<polygon fill="#ffffff" stroke="transparent" points="909,-213 909,-231 966,-231 966,-213 909,-213"/>
<polygon fill="none" stroke="black" points="909,-213 909,-231 966,-231 966,-213 909,-213"/>
<text text-anchor="start" x="947" y="-219.2" font-family="Helvetica,sans-Serif" font-size="11.00">1 &gt;</text>
</a>
</g>
</g>
<!-- syst_menu_items&#45;&gt;syst_actions -->
<g id="edge5" class="edge">
<title>syst_menu_items:w&#45;&gt;syst_actions:e</title>
<path fill="none" stroke="black" d="M1000.33,-946.99C952.67,-905.19 1036.95,-616 967,-616"/>
<polygon fill="black" stroke="black" points="1006.49,-949.25 1012.76,-955.38 1010.24,-950.62 1014,-952 1014,-952 1014,-952 1010.24,-950.62 1015.24,-948.62 1006.49,-949.25 1006.49,-949.25"/>
<ellipse fill="none" stroke="black" cx="1003.48" cy="-948.15" rx="3.2" ry="3.2"/>
</g>
<!-- syst_enum_items -->
<g id="node2" class="node">
<title>syst_enum_items</title>
<g id="a_node2"><a xlink:href="../../tables/syst_enum_items.html" xlink:title="syst_enum_items" target="_top">
<polygon fill="#ffffff" stroke="transparent" points="529,-516 529,-1040 723,-1040 723,-516 529,-516"/>
<polygon fill="#f5f5f5" stroke="transparent" points="529,-1018 529,-1040 723,-1040 723,-1018 529,-1018"/>
<polygon fill="none" stroke="black" points="529,-1018 529,-1040 723,-1040 723,-1018 529,-1018"/>
<text text-anchor="start" x="534" y="-1027.2" font-family="Helvetica,sans-Serif" font-weight="bold" font-size="11.00">syst_enum_items</text>
<text text-anchor="start" x="688" y="-1026.2" font-family="Helvetica,sans-Serif" font-size="11.00">[table]</text>
<polygon fill="none" stroke="black" points="529,-996 529,-1018 723,-1018 723,-996 529,-996"/>
<image xlink:href="../../images/primaryKeys.png" width="11px" height="12px" preserveAspectRatio="xMinYMin meet" x="534" y="-1013"/>
<text text-anchor="start" x="549" y="-1004.2" font-family="Helvetica,sans-Serif" font-size="11.00">id</text>
<polygon fill="#ffffff" stroke="transparent" points="529,-974 529,-996 723,-996 723,-974 529,-974"/>
<polygon fill="none" stroke="black" points="529,-974 529,-996 723,-996 723,-974 529,-974"/>
<text text-anchor="start" x="549" y="-982.2" font-family="Helvetica,sans-Serif" font-size="11.00">internal_name</text>
<polygon fill="#ffffff" stroke="transparent" points="529,-952 529,-974 723,-974 723,-952 529,-952"/>
<polygon fill="none" stroke="black" points="529,-952 529,-974 723,-974 723,-952 529,-952"/>
<text text-anchor="start" x="549" y="-960.2" font-family="Helvetica,sans-Serif" font-size="11.00">display_name</text>
<polygon fill="none" stroke="black" points="529,-930 529,-952 723,-952 723,-930 529,-930"/>
<text text-anchor="start" x="549" y="-938.2" font-family="Helvetica,sans-Serif" font-size="11.00">external_name</text>
<polygon fill="none" stroke="black" points="529,-908 529,-930 723,-930 723,-908 529,-908"/>
<image xlink:href="../../images/foreignKeys.png" width="11px" height="12px" preserveAspectRatio="xMinYMin meet" x="534" y="-925"/>
<text text-anchor="start" x="549" y="-916.2" font-family="Helvetica,sans-Serif" font-size="11.00">enum_id</text>
<polygon fill="none" stroke="black" points="529,-886 529,-908 723,-908 723,-886 529,-886"/>
<image xlink:href="../../images/foreignKeys.png" width="11px" height="12px" preserveAspectRatio="xMinYMin meet" x="534" y="-903"/>
<text text-anchor="start" x="549" y="-894.2" font-family="Helvetica,sans-Serif" font-size="11.00">functional_type_id</text>
<polygon fill="none" stroke="black" points="529,-864 529,-886 723,-886 723,-864 529,-864"/>
<text text-anchor="start" x="549" y="-872.2" font-family="Helvetica,sans-Serif" font-size="11.00">enum_default</text>
<polygon fill="none" stroke="black" points="529,-842 529,-864 723,-864 723,-842 529,-842"/>
<text text-anchor="start" x="549" y="-850.2" font-family="Helvetica,sans-Serif" font-size="11.00">functional_type_default</text>
<polygon fill="none" stroke="black" points="529,-820 529,-842 723,-842 723,-820 529,-820"/>
<text text-anchor="start" x="549" y="-828.2" font-family="Helvetica,sans-Serif" font-size="11.00">syst_defined</text>
<polygon fill="none" stroke="black" points="529,-798 529,-820 723,-820 723,-798 529,-798"/>
<text text-anchor="start" x="549" y="-806.2" font-family="Helvetica,sans-Serif" font-size="11.00">user_maintainable</text>
<polygon fill="none" stroke="black" points="529,-776 529,-798 723,-798 723,-776 529,-776"/>
<text text-anchor="start" x="549" y="-784.2" font-family="Helvetica,sans-Serif" font-size="11.00">syst_description</text>
<polygon fill="none" stroke="black" points="529,-754 529,-776 723,-776 723,-754 529,-754"/>
<text text-anchor="start" x="549" y="-762.2" font-family="Helvetica,sans-Serif" font-size="11.00">user_description</text>
<polygon fill="none" stroke="black" points="529,-732 529,-754 723,-754 723,-732 529,-732"/>
<text text-anchor="start" x="549" y="-740.2" font-family="Helvetica,sans-Serif" font-size="11.00">sort_order</text>
<polygon fill="none" stroke="black" points="529,-710 529,-732 723,-732 723,-710 529,-710"/>
<text text-anchor="start" x="549" y="-718.2" font-family="Helvetica,sans-Serif" font-size="11.00">syst_options</text>
<polygon fill="none" stroke="black" points="529,-688 529,-710 723,-710 723,-688 529,-688"/>
<text text-anchor="start" x="549" y="-696.2" font-family="Helvetica,sans-Serif" font-size="11.00">user_options</text>
<polygon fill="none" stroke="black" points="529,-666 529,-688 723,-688 723,-666 529,-666"/>
<text text-anchor="start" x="549" y="-674.2" font-family="Helvetica,sans-Serif" font-size="11.00">diag_timestamp_created</text>
<polygon fill="none" stroke="black" points="529,-644 529,-666 723,-666 723,-644 529,-644"/>
<text text-anchor="start" x="549" y="-652.2" font-family="Helvetica,sans-Serif" font-size="11.00">diag_role_created</text>
<polygon fill="none" stroke="black" points="529,-622 529,-644 723,-644 723,-622 529,-622"/>
<text text-anchor="start" x="549" y="-630.2" font-family="Helvetica,sans-Serif" font-size="11.00">diag_timestamp_modified</text>
<polygon fill="none" stroke="black" points="529,-600 529,-622 723,-622 723,-600 529,-600"/>
<text text-anchor="start" x="549" y="-608.2" font-family="Helvetica,sans-Serif" font-size="11.00">diag_wallclock_modified</text>
<polygon fill="none" stroke="black" points="529,-578 529,-600 723,-600 723,-578 529,-578"/>
<text text-anchor="start" x="549" y="-586.2" font-family="Helvetica,sans-Serif" font-size="11.00">diag_role_modified</text>
<polygon fill="none" stroke="black" points="529,-556 529,-578 723,-578 723,-556 529,-556"/>
<text text-anchor="start" x="549" y="-564.2" font-family="Helvetica,sans-Serif" font-size="11.00">diag_row_version</text>
<polygon fill="none" stroke="black" points="529,-534 529,-556 723,-556 723,-534 529,-534"/>
<text text-anchor="start" x="549" y="-542.2" font-family="Helvetica,sans-Serif" font-size="11.00">diag_update_count</text>
<polygon fill="#ffffff" stroke="transparent" points="529,-516 529,-534 619,-534 619,-516 529,-516"/>
<polygon fill="none" stroke="black" points="529,-516 529,-534 619,-534 619,-516 529,-516"/>
<text text-anchor="start" x="532" y="-522.2" font-family="Helvetica,sans-Serif" font-size="11.00">&lt; 2</text>
<polygon fill="#ffffff" stroke="transparent" points="619,-516 619,-534 666,-534 666,-516 619,-516"/>
<polygon fill="none" stroke="black" points="619,-516 619,-534 666,-534 666,-516 619,-516"/>
<text text-anchor="start" x="656" y="-522.2" font-family="Helvetica,sans-Serif" font-size="11.00"> &#160;</text>
<polygon fill="#ffffff" stroke="transparent" points="666,-516 666,-534 723,-534 723,-516 666,-516"/>
<polygon fill="none" stroke="black" points="666,-516 666,-534 723,-534 723,-516 666,-516"/>
<text text-anchor="start" x="704" y="-522.2" font-family="Helvetica,sans-Serif" font-size="11.00">1 &gt;</text>
</a>
</g>
</g>
<!-- syst_enum_functional_types -->
<g id="node3" class="node">
<title>syst_enum_functional_types</title>
<g id="a_node3"><a xlink:href="../../tables/syst_enum_functional_types.html" xlink:title="syst_enum_functional_types" target="_top">
<polygon fill="#ffffff" stroke="transparent" points="251,-564 251,-912 480,-912 480,-564 251,-564"/>
<polygon fill="#f5f5f5" stroke="transparent" points="251.5,-890 251.5,-912 480.5,-912 480.5,-890 251.5,-890"/>
<polygon fill="none" stroke="black" points="251.5,-890 251.5,-912 480.5,-912 480.5,-890 251.5,-890"/>
<text text-anchor="start" x="256.5" y="-899.2" font-family="Helvetica,sans-Serif" font-weight="bold" font-size="11.00">syst_enum_functional_types</text>
<text text-anchor="start" x="445.5" y="-898.2" font-family="Helvetica,sans-Serif" font-size="11.00">[table]</text>
<polygon fill="none" stroke="black" points="251.5,-868 251.5,-890 480.5,-890 480.5,-868 251.5,-868"/>
<image xlink:href="../../images/primaryKeys.png" width="11px" height="12px" preserveAspectRatio="xMinYMin meet" x="256.5" y="-885"/>
<text text-anchor="start" x="281.5" y="-876.2" font-family="Helvetica,sans-Serif" font-size="11.00">id</text>
<polygon fill="#ffffff" stroke="transparent" points="251.5,-846 251.5,-868 480.5,-868 480.5,-846 251.5,-846"/>
<polygon fill="none" stroke="black" points="251.5,-846 251.5,-868 480.5,-868 480.5,-846 251.5,-846"/>
<text text-anchor="start" x="281.5" y="-854.2" font-family="Helvetica,sans-Serif" font-size="11.00">internal_name</text>
<polygon fill="#ffffff" stroke="transparent" points="251.5,-824 251.5,-846 480.5,-846 480.5,-824 251.5,-824"/>
<polygon fill="none" stroke="black" points="251.5,-824 251.5,-846 480.5,-846 480.5,-824 251.5,-824"/>
<text text-anchor="start" x="281.5" y="-832.2" font-family="Helvetica,sans-Serif" font-size="11.00">display_name</text>
<polygon fill="none" stroke="black" points="251.5,-802 251.5,-824 480.5,-824 480.5,-802 251.5,-802"/>
<text text-anchor="start" x="281.5" y="-810.2" font-family="Helvetica,sans-Serif" font-size="11.00">external_name</text>
<polygon fill="none" stroke="black" points="251.5,-780 251.5,-802 480.5,-802 480.5,-780 251.5,-780"/>
<image xlink:href="../../images/foreignKeys.png" width="11px" height="12px" preserveAspectRatio="xMinYMin meet" x="256.5" y="-797"/>
<text text-anchor="start" x="281.5" y="-788.2" font-family="Helvetica,sans-Serif" font-size="11.00">enum_id</text>
<polygon fill="none" stroke="black" points="251.5,-758 251.5,-780 480.5,-780 480.5,-758 251.5,-758"/>
<text text-anchor="start" x="281.5" y="-766.2" font-family="Helvetica,sans-Serif" font-size="11.00">syst_description</text>
<polygon fill="none" stroke="black" points="251.5,-736 251.5,-758 480.5,-758 480.5,-736 251.5,-736"/>
<text text-anchor="start" x="281.5" y="-744.2" font-family="Helvetica,sans-Serif" font-size="11.00">user_description</text>
<polygon fill="none" stroke="black" points="251.5,-714 251.5,-736 480.5,-736 480.5,-714 251.5,-714"/>
<text text-anchor="start" x="281.5" y="-722.2" font-family="Helvetica,sans-Serif" font-size="11.00">diag_timestamp_created</text>
<polygon fill="none" stroke="black" points="251.5,-692 251.5,-714 480.5,-714 480.5,-692 251.5,-692"/>
<text text-anchor="start" x="281.5" y="-700.2" font-family="Helvetica,sans-Serif" font-size="11.00">diag_role_created</text>
<polygon fill="none" stroke="black" points="251.5,-670 251.5,-692 480.5,-692 480.5,-670 251.5,-670"/>
<text text-anchor="start" x="281.5" y="-678.2" font-family="Helvetica,sans-Serif" font-size="11.00">diag_timestamp_modified</text>
<polygon fill="none" stroke="black" points="251.5,-648 251.5,-670 480.5,-670 480.5,-648 251.5,-648"/>
<text text-anchor="start" x="281.5" y="-656.2" font-family="Helvetica,sans-Serif" font-size="11.00">diag_wallclock_modified</text>
<polygon fill="none" stroke="black" points="251.5,-626 251.5,-648 480.5,-648 480.5,-626 251.5,-626"/>
<text text-anchor="start" x="281.5" y="-634.2" font-family="Helvetica,sans-Serif" font-size="11.00">diag_role_modified</text>
<polygon fill="none" stroke="black" points="251.5,-604 251.5,-626 480.5,-626 480.5,-604 251.5,-604"/>
<text text-anchor="start" x="281.5" y="-612.2" font-family="Helvetica,sans-Serif" font-size="11.00">diag_row_version</text>
<polygon fill="none" stroke="black" points="251.5,-582 251.5,-604 480.5,-604 480.5,-582 251.5,-582"/>
<text text-anchor="start" x="281.5" y="-590.2" font-family="Helvetica,sans-Serif" font-size="11.00">diag_update_count</text>
<polygon fill="#ffffff" stroke="transparent" points="251.5,-564 251.5,-582 359.5,-582 359.5,-564 251.5,-564"/>
<polygon fill="none" stroke="black" points="251.5,-564 251.5,-582 359.5,-582 359.5,-564 251.5,-564"/>
<text text-anchor="start" x="254.5" y="-570.2" font-family="Helvetica,sans-Serif" font-size="11.00">&lt; 1</text>
<polygon fill="#ffffff" stroke="transparent" points="359.5,-564 359.5,-582 415.5,-582 415.5,-564 359.5,-564"/>
<polygon fill="none" stroke="black" points="359.5,-564 359.5,-582 415.5,-582 415.5,-564 359.5,-564"/>
<text text-anchor="start" x="405.5" y="-570.2" font-family="Helvetica,sans-Serif" font-size="11.00"> &#160;</text>
<polygon fill="#ffffff" stroke="transparent" points="415.5,-564 415.5,-582 480.5,-582 480.5,-564 415.5,-564"/>
<polygon fill="none" stroke="black" points="415.5,-564 415.5,-582 480.5,-582 480.5,-564 415.5,-564"/>
<text text-anchor="start" x="461.5" y="-570.2" font-family="Helvetica,sans-Serif" font-size="11.00">1 &gt;</text>
</a>
</g>
</g>
<!-- syst_enum_items&#45;&gt;syst_enum_functional_types -->
<g id="edge4" class="edge">
<title>syst_enum_items:w&#45;&gt;syst_enum_functional_types:e</title>
<path fill="none" stroke="black" d="M513.82,-893.86C503.27,-888.71 497.77,-879 481.5,-879"/>
<polygon fill="black" stroke="black" points="520.19,-895.27 527.22,-900.52 524.09,-896.14 528,-897 528,-897 528,-897 524.09,-896.14 528.78,-893.48 520.19,-895.27 520.19,-895.27"/>
<ellipse fill="none" stroke="black" cx="517.06" cy="-894.58" rx="3.2" ry="3.2"/>
</g>
<!-- syst_enums -->
<g id="node6" class="node">
<title>syst_enums</title>
<g id="a_node6"><a xlink:href="../../tables/syst_enums.html" xlink:title="syst_enums" target="_top">
<polygon fill="#ffffff" stroke="transparent" points="8,-504 8,-896 202,-896 202,-504 8,-504"/>
<polygon fill="#f5f5f5" stroke="transparent" points="8,-874 8,-896 202,-896 202,-874 8,-874"/>
<polygon fill="none" stroke="black" points="8,-874 8,-896 202,-896 202,-874 8,-874"/>
<text text-anchor="start" x="13" y="-883.2" font-family="Helvetica,sans-Serif" font-weight="bold" font-size="11.00">syst_enums</text>
<text text-anchor="start" x="167" y="-882.2" font-family="Helvetica,sans-Serif" font-size="11.00">[table]</text>
<polygon fill="none" stroke="black" points="8,-852 8,-874 202,-874 202,-852 8,-852"/>
<image xlink:href="../../images/primaryKeys.png" width="11px" height="12px" preserveAspectRatio="xMinYMin meet" x="13" y="-869"/>
<text text-anchor="start" x="28" y="-860.2" font-family="Helvetica,sans-Serif" font-size="11.00">id</text>
<polygon fill="#ffffff" stroke="transparent" points="8,-830 8,-852 202,-852 202,-830 8,-830"/>
<polygon fill="none" stroke="black" points="8,-830 8,-852 202,-852 202,-830 8,-830"/>
<text text-anchor="start" x="28" y="-838.2" font-family="Helvetica,sans-Serif" font-size="11.00">internal_name</text>
<polygon fill="#ffffff" stroke="transparent" points="8,-808 8,-830 202,-830 202,-808 8,-808"/>
<polygon fill="none" stroke="black" points="8,-808 8,-830 202,-830 202,-808 8,-808"/>
<text text-anchor="start" x="28" y="-816.2" font-family="Helvetica,sans-Serif" font-size="11.00">display_name</text>
<polygon fill="none" stroke="black" points="8,-786 8,-808 202,-808 202,-786 8,-786"/>
<text text-anchor="start" x="28" y="-794.2" font-family="Helvetica,sans-Serif" font-size="11.00">syst_description</text>
<polygon fill="none" stroke="black" points="8,-764 8,-786 202,-786 202,-764 8,-764"/>
<text text-anchor="start" x="28" y="-772.2" font-family="Helvetica,sans-Serif" font-size="11.00">user_description</text>
<polygon fill="none" stroke="black" points="8,-742 8,-764 202,-764 202,-742 8,-742"/>
<text text-anchor="start" x="28" y="-750.2" font-family="Helvetica,sans-Serif" font-size="11.00">syst_defined</text>
<polygon fill="none" stroke="black" points="8,-720 8,-742 202,-742 202,-720 8,-720"/>
<text text-anchor="start" x="28" y="-728.2" font-family="Helvetica,sans-Serif" font-size="11.00">user_maintainable</text>
<polygon fill="none" stroke="black" points="8,-698 8,-720 202,-720 202,-698 8,-698"/>
<text text-anchor="start" x="28" y="-706.2" font-family="Helvetica,sans-Serif" font-size="11.00">default_syst_options</text>
<polygon fill="none" stroke="black" points="8,-676 8,-698 202,-698 202,-676 8,-676"/>
<text text-anchor="start" x="28" y="-684.2" font-family="Helvetica,sans-Serif" font-size="11.00">default_user_options</text>
<polygon fill="none" stroke="black" points="8,-654 8,-676 202,-676 202,-654 8,-654"/>
<text text-anchor="start" x="28" y="-662.2" font-family="Helvetica,sans-Serif" font-size="11.00">diag_timestamp_created</text>
<polygon fill="none" stroke="black" points="8,-632 8,-654 202,-654 202,-632 8,-632"/>
<text text-anchor="start" x="28" y="-640.2" font-family="Helvetica,sans-Serif" font-size="11.00">diag_role_created</text>
<polygon fill="none" stroke="black" points="8,-610 8,-632 202,-632 202,-610 8,-610"/>
<text text-anchor="start" x="28" y="-618.2" font-family="Helvetica,sans-Serif" font-size="11.00">diag_timestamp_modified</text>
<polygon fill="none" stroke="black" points="8,-588 8,-610 202,-610 202,-588 8,-588"/>
<text text-anchor="start" x="28" y="-596.2" font-family="Helvetica,sans-Serif" font-size="11.00">diag_wallclock_modified</text>
<polygon fill="none" stroke="black" points="8,-566 8,-588 202,-588 202,-566 8,-566"/>
<text text-anchor="start" x="28" y="-574.2" font-family="Helvetica,sans-Serif" font-size="11.00">diag_role_modified</text>
<polygon fill="none" stroke="black" points="8,-544 8,-566 202,-566 202,-544 8,-544"/>
<text text-anchor="start" x="28" y="-552.2" font-family="Helvetica,sans-Serif" font-size="11.00">diag_row_version</text>
<polygon fill="none" stroke="black" points="8,-522 8,-544 202,-544 202,-522 8,-522"/>
<text text-anchor="start" x="28" y="-530.2" font-family="Helvetica,sans-Serif" font-size="11.00">diag_update_count</text>
<polygon fill="#ffffff" stroke="transparent" points="8,-504 8,-522 94,-522 94,-504 8,-504"/>
<polygon fill="none" stroke="black" points="8,-504 8,-522 94,-522 94,-504 8,-504"/>
<text text-anchor="start" x="11" y="-510.2" font-family="Helvetica,sans-Serif" font-size="11.00"> &#160;</text>
<polygon fill="#ffffff" stroke="transparent" points="94,-504 94,-522 143,-522 143,-504 94,-504"/>
<polygon fill="none" stroke="black" points="94,-504 94,-522 143,-522 143,-504 94,-504"/>
<text text-anchor="start" x="133" y="-510.2" font-family="Helvetica,sans-Serif" font-size="11.00"> &#160;</text>
<polygon fill="#ffffff" stroke="transparent" points="143,-504 143,-522 202,-522 202,-504 143,-504"/>
<polygon fill="none" stroke="black" points="143,-504 143,-522 202,-522 202,-504 143,-504"/>
<text text-anchor="start" x="183" y="-510.2" font-family="Helvetica,sans-Serif" font-size="11.00">2 &gt;</text>
</a>
</g>
</g>
<!-- syst_enum_items&#45;&gt;syst_enums -->
<g id="edge3" class="edge">
<title>syst_enum_items:w&#45;&gt;syst_enums:e</title>
<path fill="none" stroke="black" d="M513.56,-919.85C505.72,-920.84 499.85,-922.41 488,-923 379.25,-928.42 339,-974.38 243,-923 214.74,-907.88 235.05,-863 203,-863"/>
<polygon fill="black" stroke="black" points="520.01,-919.47 528.21,-922.59 524.01,-919.24 528,-919 528,-919 528,-919 524.01,-919.24 527.79,-915.41 520.01,-919.47 520.01,-919.47"/>
<ellipse fill="none" stroke="black" cx="516.82" cy="-919.66" rx="3.2" ry="3.2"/>
</g>
<!-- syst_enum_functional_types&#45;&gt;syst_enums -->
<g id="edge2" class="edge">
<title>syst_enum_functional_types:w&#45;&gt;syst_enums:e</title>
<path fill="none" stroke="black" d="M236.49,-796.18C219.92,-812.69 235.05,-863 203,-863"/>
<polygon fill="black" stroke="black" points="243,-793.77 251.75,-794.38 246.75,-792.39 250.5,-791 250.5,-791 250.5,-791 246.75,-792.39 249.25,-787.62 243,-793.77 243,-793.77"/>
<ellipse fill="none" stroke="black" cx="239.99" cy="-794.88" rx="3.2" ry="3.2"/>
</g>
<!-- syst_menus&#45;&gt;syst_enum_items -->
<g id="edge9" class="edge">
<title>syst_menus:w&#45;&gt;syst_enum_items:e</title>
<path fill="none" stroke="black" d="M757.17,-978.59C745.75,-987.66 743.54,-1007 724,-1007"/>
<polygon fill="black" stroke="black" points="763.41,-976.52 772.13,-977.42 767.2,-975.26 771,-974 771,-974 771,-974 767.2,-975.26 769.87,-970.58 763.41,-976.52 763.41,-976.52"/>
<ellipse fill="none" stroke="black" cx="760.37" cy="-977.53" rx="3.2" ry="3.2"/>
</g>
<!-- syst_action_groups -->
<g id="node5" class="node">
<title>syst_action_groups</title>
<g id="a_node5"><a xlink:href="../../tables/syst_action_groups.html" xlink:title="syst_action_groups" target="_top">
<polygon fill="#ffffff" stroke="transparent" points="529,-37 529,-495 723,-495 723,-37 529,-37"/>
<polygon fill="#f5f5f5" stroke="transparent" points="529,-473 529,-495 723,-495 723,-473 529,-473"/>
<polygon fill="none" stroke="black" points="529,-473 529,-495 723,-495 723,-473 529,-473"/>
<text text-anchor="start" x="534" y="-482.2" font-family="Helvetica,sans-Serif" font-weight="bold" font-size="11.00">syst_action_groups</text>
<text text-anchor="start" x="688" y="-481.2" font-family="Helvetica,sans-Serif" font-size="11.00">[table]</text>
<polygon fill="none" stroke="black" points="529,-451 529,-473 723,-473 723,-451 529,-451"/>
<image xlink:href="../../images/primaryKeys.png" width="11px" height="12px" preserveAspectRatio="xMinYMin meet" x="534" y="-468"/>
<text text-anchor="start" x="549" y="-459.2" font-family="Helvetica,sans-Serif" font-size="11.00">id</text>
<polygon fill="#ffffff" stroke="transparent" points="529,-429 529,-451 723,-451 723,-429 529,-429"/>
<polygon fill="none" stroke="black" points="529,-429 529,-451 723,-451 723,-429 529,-429"/>
<text text-anchor="start" x="549" y="-437.2" font-family="Helvetica,sans-Serif" font-size="11.00">internal_name</text>
<polygon fill="#ffffff" stroke="transparent" points="529,-407 529,-429 723,-429 723,-407 529,-407"/>
<polygon fill="none" stroke="black" points="529,-407 529,-429 723,-429 723,-407 529,-407"/>
<text text-anchor="start" x="549" y="-415.2" font-family="Helvetica,sans-Serif" font-size="11.00">display_name</text>
<polygon fill="none" stroke="black" points="529,-385 529,-407 723,-407 723,-385 529,-385"/>
<text text-anchor="start" x="549" y="-393.2" font-family="Helvetica,sans-Serif" font-size="11.00">external_name</text>
<polygon fill="#ffffff" stroke="transparent" points="529,-363 529,-385 723,-385 723,-363 529,-363"/>
<polygon fill="none" stroke="black" points="529,-363 529,-385 723,-385 723,-363 529,-363"/>
<text text-anchor="start" x="549" y="-371.2" font-family="Helvetica,sans-Serif" font-size="11.00">command</text>
<polygon fill="none" stroke="black" points="529,-341 529,-363 723,-363 723,-341 529,-341"/>
<text text-anchor="start" x="549" y="-349.2" font-family="Helvetica,sans-Serif" font-size="11.00">command_config</text>
<polygon fill="none" stroke="black" points="529,-319 529,-341 723,-341 723,-319 529,-319"/>
<text text-anchor="start" x="549" y="-327.2" font-family="Helvetica,sans-Serif" font-size="11.00">command_aliases</text>
<polygon fill="#ffffff" stroke="transparent" points="529,-297 529,-319 723,-319 723,-297 529,-297"/>
<polygon fill="none" stroke="black" points="529,-297 529,-319 723,-319 723,-297 529,-297"/>
<text text-anchor="start" x="549" y="-305.2" font-family="Helvetica,sans-Serif" font-size="11.00">command_search</text>
<polygon fill="none" stroke="black" points="529,-275 529,-297 723,-297 723,-275 529,-275"/>
<text text-anchor="start" x="549" y="-283.2" font-family="Helvetica,sans-Serif" font-size="11.00">syst_defined</text>
<polygon fill="none" stroke="black" points="529,-253 529,-275 723,-275 723,-253 529,-253"/>
<text text-anchor="start" x="549" y="-261.2" font-family="Helvetica,sans-Serif" font-size="11.00">user_maintainable</text>
<polygon fill="none" stroke="black" points="529,-231 529,-253 723,-253 723,-231 529,-231"/>
<text text-anchor="start" x="549" y="-239.2" font-family="Helvetica,sans-Serif" font-size="11.00">syst_description</text>
<polygon fill="none" stroke="black" points="529,-209 529,-231 723,-231 723,-209 529,-209"/>
<text text-anchor="start" x="549" y="-217.2" font-family="Helvetica,sans-Serif" font-size="11.00">user_description</text>
<polygon fill="none" stroke="black" points="529,-187 529,-209 723,-209 723,-187 529,-187"/>
<text text-anchor="start" x="549" y="-195.2" font-family="Helvetica,sans-Serif" font-size="11.00">diag_timestamp_created</text>
<polygon fill="none" stroke="black" points="529,-165 529,-187 723,-187 723,-165 529,-165"/>
<text text-anchor="start" x="549" y="-173.2" font-family="Helvetica,sans-Serif" font-size="11.00">diag_role_created</text>
<polygon fill="none" stroke="black" points="529,-143 529,-165 723,-165 723,-143 529,-143"/>
<text text-anchor="start" x="549" y="-151.2" font-family="Helvetica,sans-Serif" font-size="11.00">diag_timestamp_modified</text>
<polygon fill="none" stroke="black" points="529,-121 529,-143 723,-143 723,-121 529,-121"/>
<text text-anchor="start" x="549" y="-129.2" font-family="Helvetica,sans-Serif" font-size="11.00">diag_wallclock_modified</text>
<polygon fill="none" stroke="black" points="529,-99 529,-121 723,-121 723,-99 529,-99"/>
<text text-anchor="start" x="549" y="-107.2" font-family="Helvetica,sans-Serif" font-size="11.00">diag_role_modified</text>
<polygon fill="none" stroke="black" points="529,-77 529,-99 723,-99 723,-77 529,-77"/>
<text text-anchor="start" x="549" y="-85.2" font-family="Helvetica,sans-Serif" font-size="11.00">diag_row_version</text>
<polygon fill="none" stroke="black" points="529,-55 529,-77 723,-77 723,-55 529,-55"/>
<text text-anchor="start" x="549" y="-63.2" font-family="Helvetica,sans-Serif" font-size="11.00">diag_update_count</text>
<polygon fill="#ffffff" stroke="transparent" points="529,-37 529,-55 615,-55 615,-37 529,-37"/>
<polygon fill="none" stroke="black" points="529,-37 529,-55 615,-55 615,-37 529,-37"/>
<text text-anchor="start" x="532" y="-43.2" font-family="Helvetica,sans-Serif" font-size="11.00"> &#160;</text>
<polygon fill="#ffffff" stroke="transparent" points="615,-37 615,-55 664,-55 664,-37 615,-37"/>
<polygon fill="none" stroke="black" points="615,-37 615,-55 664,-55 664,-37 615,-37"/>
<text text-anchor="start" x="654" y="-43.2" font-family="Helvetica,sans-Serif" font-size="11.00"> &#160;</text>
<polygon fill="#ffffff" stroke="transparent" points="664,-37 664,-55 723,-55 723,-37 664,-37"/>
<polygon fill="none" stroke="black" points="664,-37 664,-55 723,-55 723,-37 664,-37"/>
<text text-anchor="start" x="704" y="-43.2" font-family="Helvetica,sans-Serif" font-size="11.00">1 &gt;</text>
</a>
</g>
</g>
<!-- syst_actions&#45;&gt;syst_action_groups -->
<g id="edge1" class="edge">
<title>syst_actions:w&#45;&gt;syst_action_groups:e</title>
<path fill="none" stroke="black" d="M757.22,-522.82C741.79,-507.26 753.82,-462 724,-462"/>
<polygon fill="black" stroke="black" points="763.51,-525.19 769.73,-531.37 767.26,-526.59 771,-528 771,-528 771,-528 767.26,-526.59 772.27,-524.63 763.51,-525.19 763.51,-525.19"/>
<ellipse fill="none" stroke="black" cx="760.52" cy="-524.06" rx="3.2" ry="3.2"/>
</g>
</g>
</svg>
