<?xml version="1.0" encoding="UTF-8" standalone="no"?>
<!DOCTYPE svg PUBLIC "-//W3C//DTD SVG 1.1//EN"
 "http://www.w3.org/Graphics/SVG/1.1/DTD/svg11.dtd">
<!-- Generated by graphviz version 2.43.0 (0)
 -->
<!-- Title: compactRelationshipsDiagram Pages: 1 -->
<svg width="1255pt" height="550pt"
 viewBox="0.00 0.00 1254.61 550.00" xmlns="http://www.w3.org/2000/svg" xmlns:xlink="http://www.w3.org/1999/xlink">
<g id="graph0" class="graph" transform="scale(1 1) rotate(0) translate(4 546)">
<title>compactRelationshipsDiagram</title>
<polygon fill="#ffffff" stroke="transparent" points="-4,4 -4,-546 1250.61,-546 1250.61,4 -4,4"/>
<text text-anchor="middle" x="71.5" y="-7.2" font-family="Helvetica,sans-Serif" font-size="11.00">Generated by SchemaSpy</text>
<!-- syst_menu_items -->
<g id="node1" class="node">
<title>syst_menu_items</title>
<g id="a_node1"><a xlink:href="../../tables/syst_menu_items.html" xlink:title="syst_menu_items" target="_top">
<polygon fill="#ffffff" stroke="transparent" points="1015,-286 1015,-520 1209,-520 1209,-286 1015,-286"/>
<polygon fill="#f5f5f5" stroke="transparent" points="1015,-498 1015,-520 1209,-520 1209,-498 1015,-498"/>
<polygon fill="none" stroke="black" points="1015,-498 1015,-520 1209,-520 1209,-498 1015,-498"/>
<text text-anchor="start" x="1020" y="-507.2" font-family="Helvetica,sans-Serif" font-weight="bold" font-size="11.00">syst_menu_items</text>
<text text-anchor="start" x="1174" y="-506.2" font-family="Helvetica,sans-Serif" font-size="11.00">[table]</text>
<polygon fill="none" stroke="black" points="1015,-476 1015,-498 1209,-498 1209,-476 1015,-476"/>
<image xlink:href="../../images/primaryKeys.png" width="11px" height="12px" preserveAspectRatio="xMinYMin meet" x="1020" y="-493"/>
<text text-anchor="start" x="1035" y="-484.2" font-family="Helvetica,sans-Serif" font-size="11.00">id</text>
<polygon fill="#ffffff" stroke="transparent" points="1015,-454 1015,-476 1209,-476 1209,-454 1015,-454"/>
<polygon fill="none" stroke="black" points="1015,-454 1015,-476 1209,-476 1209,-454 1015,-454"/>
<text text-anchor="start" x="1035" y="-462.2" font-family="Helvetica,sans-Serif" font-size="11.00">internal_name</text>
<polygon fill="#ffffff" stroke="transparent" points="1015,-432 1015,-454 1209,-454 1209,-432 1015,-432"/>
<polygon fill="none" stroke="black" points="1015,-432 1015,-454 1209,-454 1209,-432 1015,-432"/>
<text text-anchor="start" x="1035" y="-440.2" font-family="Helvetica,sans-Serif" font-size="11.00">display_name</text>
<polygon fill="#ffffff" stroke="transparent" points="1015,-410 1015,-432 1209,-432 1209,-410 1015,-410"/>
<polygon fill="none" stroke="black" points="1015,-410 1015,-432 1209,-432 1209,-410 1015,-410"/>
<image xlink:href="../../images/foreignKeys.png" width="11px" height="12px" preserveAspectRatio="xMinYMin meet" x="1020" y="-427"/>
<text text-anchor="start" x="1035" y="-418.2" font-family="Helvetica,sans-Serif" font-size="11.00">menu_id</text>
<polygon fill="#ffffff" stroke="transparent" points="1015,-388 1015,-410 1209,-410 1209,-388 1015,-388"/>
<polygon fill="none" stroke="black" points="1015,-388 1015,-410 1209,-410 1209,-388 1015,-388"/>
<image xlink:href="../../images/foreignKeys.png" width="11px" height="12px" preserveAspectRatio="xMinYMin meet" x="1020" y="-405"/>
<text text-anchor="start" x="1035" y="-396.2" font-family="Helvetica,sans-Serif" font-size="11.00">parent_menu_item_id</text>
<polygon fill="#ffffff" stroke="transparent" points="1015,-366 1015,-388 1209,-388 1209,-366 1015,-366"/>
<polygon fill="none" stroke="black" points="1015,-366 1015,-388 1209,-388 1209,-366 1015,-366"/>
<text text-anchor="start" x="1035" y="-374.2" font-family="Helvetica,sans-Serif" font-size="11.00">sort_order</text>
<polygon fill="none" stroke="black" points="1015,-344 1015,-366 1209,-366 1209,-344 1015,-344"/>
<image xlink:href="../../images/foreignKeys.png" width="11px" height="12px" preserveAspectRatio="xMinYMin meet" x="1020" y="-361"/>
<text text-anchor="start" x="1035" y="-352.2" font-family="Helvetica,sans-Serif" font-size="11.00">submenu_menu_id</text>
<polygon fill="none" stroke="black" points="1015,-322 1015,-344 1209,-344 1209,-322 1015,-322"/>
<image xlink:href="../../images/foreignKeys.png" width="11px" height="12px" preserveAspectRatio="xMinYMin meet" x="1020" y="-339"/>
<text text-anchor="start" x="1035" y="-330.2" font-family="Helvetica,sans-Serif" font-size="11.00">action_id</text>
<polygon fill="none" stroke="black" points="1015,-304 1015,-322 1209,-322 1209,-304 1015,-304"/>
<text text-anchor="start" x="1018" y="-310.2" font-family="Helvetica,sans-Serif" font-size="11.00">...</text>
<polygon fill="#ffffff" stroke="transparent" points="1015,-286 1015,-304 1105,-304 1105,-286 1015,-286"/>
<polygon fill="none" stroke="black" points="1015,-286 1015,-304 1105,-304 1105,-286 1015,-286"/>
<text text-anchor="start" x="1018" y="-292.2" font-family="Helvetica,sans-Serif" font-size="11.00">&lt; 4</text>
<polygon fill="#ffffff" stroke="transparent" points="1105,-286 1105,-304 1152,-304 1152,-286 1105,-286"/>
<polygon fill="none" stroke="black" points="1105,-286 1105,-304 1152,-304 1152,-286 1105,-286"/>
<text text-anchor="start" x="1142" y="-292.2" font-family="Helvetica,sans-Serif" font-size="11.00"> &#160;</text>
<polygon fill="#ffffff" stroke="transparent" points="1152,-286 1152,-304 1209,-304 1209,-286 1152,-286"/>
<polygon fill="none" stroke="black" points="1152,-286 1152,-304 1209,-304 1209,-286 1152,-286"/>
<text text-anchor="start" x="1190" y="-292.2" font-family="Helvetica,sans-Serif" font-size="11.00">1 &gt;</text>
</a>
</g>
</g>
<!-- syst_menu_items&#45;&gt;syst_menu_items -->
<g id="edge7" class="edge">
<title>syst_menu_items:w&#45;&gt;syst_menu_items:e</title>
<path fill="none" stroke="black" d="M1003.78,-408.5C955.19,-455.65 964.96,-537 1112,-537 1269.5,-537 1269.5,-528.33 1209,-487"/>
<polygon fill="black" stroke="black" points="1008.89,-404.17 1017.33,-401.75 1011.95,-401.58 1015,-399 1015,-399 1015,-399 1011.95,-401.58 1012.67,-396.25 1008.89,-404.17 1008.89,-404.17"/>
<ellipse fill="none" stroke="black" cx="1006.45" cy="-406.24" rx="3.2" ry="3.2"/>
</g>
<!-- syst_menus -->
<g id="node4" class="node">
<title>syst_menus</title>
<g id="a_node4"><a xlink:href="../../tables/syst_menus.html" xlink:title="syst_menus" target="_top">
<polygon fill="#ffffff" stroke="transparent" points="772,-308 772,-454 966,-454 966,-308 772,-308"/>
<polygon fill="#f5f5f5" stroke="transparent" points="772,-432 772,-454 966,-454 966,-432 772,-432"/>
<polygon fill="none" stroke="black" points="772,-432 772,-454 966,-454 966,-432 772,-432"/>
<text text-anchor="start" x="777" y="-441.2" font-family="Helvetica,sans-Serif" font-weight="bold" font-size="11.00">syst_menus</text>
<text text-anchor="start" x="931" y="-440.2" font-family="Helvetica,sans-Serif" font-size="11.00">[table]</text>
<polygon fill="none" stroke="black" points="772,-410 772,-432 966,-432 966,-410 772,-410"/>
<image xlink:href="../../images/primaryKeys.png" width="11px" height="12px" preserveAspectRatio="xMinYMin meet" x="777" y="-427"/>
<text text-anchor="start" x="792" y="-418.2" font-family="Helvetica,sans-Serif" font-size="11.00">id</text>
<polygon fill="#ffffff" stroke="transparent" points="772,-388 772,-410 966,-410 966,-388 772,-388"/>
<polygon fill="none" stroke="black" points="772,-388 772,-410 966,-410 966,-388 772,-388"/>
<text text-anchor="start" x="792" y="-396.2" font-family="Helvetica,sans-Serif" font-size="11.00">internal_name</text>
<polygon fill="#ffffff" stroke="transparent" points="772,-366 772,-388 966,-388 966,-366 772,-366"/>
<polygon fill="none" stroke="black" points="772,-366 772,-388 966,-388 966,-366 772,-366"/>
<text text-anchor="start" x="792" y="-374.2" font-family="Helvetica,sans-Serif" font-size="11.00">display_name</text>
<polygon fill="none" stroke="black" points="772,-344 772,-366 966,-366 966,-344 772,-344"/>
<image xlink:href="../../images/foreignKeys.png" width="11px" height="12px" preserveAspectRatio="xMinYMin meet" x="777" y="-361"/>
<text text-anchor="start" x="792" y="-352.2" font-family="Helvetica,sans-Serif" font-size="11.00">menu_state_id</text>
<polygon fill="none" stroke="black" points="772,-326 772,-344 966,-344 966,-326 772,-326"/>
<text text-anchor="start" x="775" y="-332.2" font-family="Helvetica,sans-Serif" font-size="11.00">...</text>
<polygon fill="#ffffff" stroke="transparent" points="772,-308 772,-326 862,-326 862,-308 772,-308"/>
<polygon fill="none" stroke="black" points="772,-308 772,-326 862,-326 862,-308 772,-308"/>
<text text-anchor="start" x="775" y="-314.2" font-family="Helvetica,sans-Serif" font-size="11.00">&lt; 1</text>
<polygon fill="#ffffff" stroke="transparent" points="862,-308 862,-326 909,-326 909,-308 862,-308"/>
<polygon fill="none" stroke="black" points="862,-308 862,-326 909,-326 909,-308 862,-308"/>
<text text-anchor="start" x="899" y="-314.2" font-family="Helvetica,sans-Serif" font-size="11.00"> &#160;</text>
<polygon fill="#ffffff" stroke="transparent" points="909,-308 909,-326 966,-326 966,-308 909,-308"/>
<polygon fill="none" stroke="black" points="909,-308 909,-326 966,-326 966,-308 909,-308"/>
<text text-anchor="start" x="947" y="-314.2" font-family="Helvetica,sans-Serif" font-size="11.00">2 &gt;</text>
</a>
</g>
</g>
<!-- syst_menu_items&#45;&gt;syst_menus -->
<g id="edge6" class="edge">
<title>syst_menu_items:w&#45;&gt;syst_menus:e</title>
<path fill="none" stroke="black" d="M999.4,-421C988.93,-421 982.01,-421 967,-421"/>
<polygon fill="black" stroke="black" points="1006,-421 1014,-424.6 1010,-421 1014,-421 1014,-421 1014,-421 1010,-421 1014,-417.4 1006,-421 1006,-421"/>
<ellipse fill="none" stroke="black" cx="1002.8" cy="-421" rx="3.2" ry="3.2"/>
</g>
<!-- syst_menu_items&#45;&gt;syst_menus -->
<g id="edge8" class="edge">
<title>syst_menu_items:w&#45;&gt;syst_menus:e</title>
<path fill="none" stroke="black" d="M1000.22,-360.18C984.79,-375.74 996.82,-421 967,-421"/>
<polygon fill="black" stroke="black" points="1006.51,-357.81 1015.27,-358.37 1010.26,-356.41 1014,-355 1014,-355 1014,-355 1010.26,-356.41 1012.73,-351.63 1006.51,-357.81 1006.51,-357.81"/>
<ellipse fill="none" stroke="black" cx="1003.52" cy="-358.94" rx="3.2" ry="3.2"/>
</g>
<!-- syst_actions -->
<g id="node7" class="node">
<title>syst_actions</title>
<g id="a_node7"><a xlink:href="../../tables/syst_actions.html" xlink:title="syst_actions" target="_top">
<polygon fill="#ffffff" stroke="transparent" points="772,-92 772,-282 966,-282 966,-92 772,-92"/>
<polygon fill="#f5f5f5" stroke="transparent" points="772,-260 772,-282 966,-282 966,-260 772,-260"/>
<polygon fill="none" stroke="black" points="772,-260 772,-282 966,-282 966,-260 772,-260"/>
<text text-anchor="start" x="777" y="-269.2" font-family="Helvetica,sans-Serif" font-weight="bold" font-size="11.00">syst_actions</text>
<text text-anchor="start" x="931" y="-268.2" font-family="Helvetica,sans-Serif" font-size="11.00">[table]</text>
<polygon fill="none" stroke="black" points="772,-238 772,-260 966,-260 966,-238 772,-238"/>
<image xlink:href="../../images/primaryKeys.png" width="11px" height="12px" preserveAspectRatio="xMinYMin meet" x="777" y="-255"/>
<text text-anchor="start" x="792" y="-246.2" font-family="Helvetica,sans-Serif" font-size="11.00">id</text>
<polygon fill="#ffffff" stroke="transparent" points="772,-216 772,-238 966,-238 966,-216 772,-216"/>
<polygon fill="none" stroke="black" points="772,-216 772,-238 966,-238 966,-216 772,-216"/>
<text text-anchor="start" x="792" y="-224.2" font-family="Helvetica,sans-Serif" font-size="11.00">internal_name</text>
<polygon fill="#ffffff" stroke="transparent" points="772,-194 772,-216 966,-216 966,-194 772,-194"/>
<polygon fill="none" stroke="black" points="772,-194 772,-216 966,-216 966,-194 772,-194"/>
<text text-anchor="start" x="792" y="-202.2" font-family="Helvetica,sans-Serif" font-size="11.00">display_name</text>
<polygon fill="#ffffff" stroke="transparent" points="772,-172 772,-194 966,-194 966,-172 772,-172"/>
<polygon fill="none" stroke="black" points="772,-172 772,-194 966,-194 966,-172 772,-172"/>
<image xlink:href="../../images/foreignKeys.png" width="11px" height="12px" preserveAspectRatio="xMinYMin meet" x="777" y="-189"/>
<text text-anchor="start" x="792" y="-180.2" font-family="Helvetica,sans-Serif" font-size="11.00">action_group_id</text>
<polygon fill="#ffffff" stroke="transparent" points="772,-150 772,-172 966,-172 966,-150 772,-150"/>
<polygon fill="none" stroke="black" points="772,-150 772,-172 966,-172 966,-150 772,-150"/>
<text text-anchor="start" x="792" y="-158.2" font-family="Helvetica,sans-Serif" font-size="11.00">command</text>
<polygon fill="#ffffff" stroke="transparent" points="772,-128 772,-150 966,-150 966,-128 772,-128"/>
<polygon fill="none" stroke="black" points="772,-128 772,-150 966,-150 966,-128 772,-128"/>
<text text-anchor="start" x="792" y="-136.2" font-family="Helvetica,sans-Serif" font-size="11.00">command_search</text>
<polygon fill="none" stroke="black" points="772,-110 772,-128 966,-128 966,-110 772,-110"/>
<text text-anchor="start" x="775" y="-116.2" font-family="Helvetica,sans-Serif" font-size="11.00">...</text>
<polygon fill="#ffffff" stroke="transparent" points="772,-92 772,-110 862,-110 862,-92 772,-92"/>
<polygon fill="none" stroke="black" points="772,-92 772,-110 862,-110 862,-92 772,-92"/>
<text text-anchor="start" x="775" y="-98.2" font-family="Helvetica,sans-Serif" font-size="11.00">&lt; 1</text>
<polygon fill="#ffffff" stroke="transparent" points="862,-92 862,-110 909,-110 909,-92 862,-92"/>
<polygon fill="none" stroke="black" points="862,-92 862,-110 909,-110 909,-92 862,-92"/>
<text text-anchor="start" x="899" y="-98.2" font-family="Helvetica,sans-Serif" font-size="11.00"> &#160;</text>
<polygon fill="#ffffff" stroke="transparent" points="909,-92 909,-110 966,-110 966,-92 909,-92"/>
<polygon fill="none" stroke="black" points="909,-92 909,-110 966,-110 966,-92 909,-92"/>
<text text-anchor="start" x="947" y="-98.2" font-family="Helvetica,sans-Serif" font-size="11.00">1 &gt;</text>
</a>
</g>
</g>
<!-- syst_menu_items&#45;&gt;syst_actions -->
<g id="edge5" class="edge">
<title>syst_menu_items:w&#45;&gt;syst_actions:e</title>
<path fill="none" stroke="black" d="M1000.33,-328.48C980.46,-311.04 1003.76,-249 967,-249"/>
<polygon fill="black" stroke="black" points="1006.4,-330.49 1012.87,-336.42 1010.2,-331.75 1014,-333 1014,-333 1014,-333 1010.2,-331.75 1015.13,-329.58 1006.4,-330.49 1006.4,-330.49"/>
<ellipse fill="none" stroke="black" cx="1003.36" cy="-329.49" rx="3.2" ry="3.2"/>
</g>
<!-- syst_enum_items -->
<g id="node2" class="node">
<title>syst_enum_items</title>
<g id="a_node2"><a xlink:href="../../tables/syst_enum_items.html" xlink:title="syst_enum_items" target="_top">
<polygon fill="#ffffff" stroke="transparent" points="529,-226 529,-394 723,-394 723,-226 529,-226"/>
<polygon fill="#f5f5f5" stroke="transparent" points="529,-372 529,-394 723,-394 723,-372 529,-372"/>
<polygon fill="none" stroke="black" points="529,-372 529,-394 723,-394 723,-372 529,-372"/>
<text text-anchor="start" x="534" y="-381.2" font-family="Helvetica,sans-Serif" font-weight="bold" font-size="11.00">syst_enum_items</text>
<text text-anchor="start" x="688" y="-380.2" font-family="Helvetica,sans-Serif" font-size="11.00">[table]</text>
<polygon fill="none" stroke="black" points="529,-350 529,-372 723,-372 723,-350 529,-350"/>
<image xlink:href="../../images/primaryKeys.png" width="11px" height="12px" preserveAspectRatio="xMinYMin meet" x="534" y="-367"/>
<text text-anchor="start" x="549" y="-358.2" font-family="Helvetica,sans-Serif" font-size="11.00">id</text>
<polygon fill="#ffffff" stroke="transparent" points="529,-328 529,-350 723,-350 723,-328 529,-328"/>
<polygon fill="none" stroke="black" points="529,-328 529,-350 723,-350 723,-328 529,-328"/>
<text text-anchor="start" x="549" y="-336.2" font-family="Helvetica,sans-Serif" font-size="11.00">internal_name</text>
<polygon fill="#ffffff" stroke="transparent" points="529,-306 529,-328 723,-328 723,-306 529,-306"/>
<polygon fill="none" stroke="black" points="529,-306 529,-328 723,-328 723,-306 529,-306"/>
<text text-anchor="start" x="549" y="-314.2" font-family="Helvetica,sans-Serif" font-size="11.00">display_name</text>
<polygon fill="none" stroke="black" points="529,-284 529,-306 723,-306 723,-284 529,-284"/>
<image xlink:href="../../images/foreignKeys.png" width="11px" height="12px" preserveAspectRatio="xMinYMin meet" x="534" y="-301"/>
<text text-anchor="start" x="549" y="-292.2" font-family="Helvetica,sans-Serif" font-size="11.00">enum_id</text>
<polygon fill="none" stroke="black" points="529,-262 529,-284 723,-284 723,-262 529,-262"/>
<image xlink:href="../../images/foreignKeys.png" width="11px" height="12px" preserveAspectRatio="xMinYMin meet" x="534" y="-279"/>
<text text-anchor="start" x="549" y="-270.2" font-family="Helvetica,sans-Serif" font-size="11.00">functional_type_id</text>
<polygon fill="none" stroke="black" points="529,-244 529,-262 723,-262 723,-244 529,-244"/>
<text text-anchor="start" x="532" y="-250.2" font-family="Helvetica,sans-Serif" font-size="11.00">...</text>
<polygon fill="#ffffff" stroke="transparent" points="529,-226 529,-244 619,-244 619,-226 529,-226"/>
<polygon fill="none" stroke="black" points="529,-226 529,-244 619,-244 619,-226 529,-226"/>
<text text-anchor="start" x="532" y="-232.2" font-family="Helvetica,sans-Serif" font-size="11.00">&lt; 2</text>
<polygon fill="#ffffff" stroke="transparent" points="619,-226 619,-244 666,-244 666,-226 619,-226"/>
<polygon fill="none" stroke="black" points="619,-226 619,-244 666,-244 666,-226 619,-226"/>
<text text-anchor="start" x="656" y="-232.2" font-family="Helvetica,sans-Serif" font-size="11.00"> &#160;</text>
<polygon fill="#ffffff" stroke="transparent" points="666,-226 666,-244 723,-244 723,-226 666,-226"/>
<polygon fill="none" stroke="black" points="666,-226 666,-244 723,-244 723,-226 666,-226"/>
<text text-anchor="start" x="704" y="-232.2" font-family="Helvetica,sans-Serif" font-size="11.00">1 &gt;</text>
</a>
</g>
</g>
<!-- syst_enum_functional_types -->
<g id="node3" class="node">
<title>syst_enum_functional_types</title>
<g id="a_node3"><a xlink:href="../../tables/syst_enum_functional_types.html" xlink:title="syst_enum_functional_types" target="_top">
<polygon fill="#ffffff" stroke="transparent" points="251,-142 251,-288 480,-288 480,-142 251,-142"/>
<polygon fill="#f5f5f5" stroke="transparent" points="251.5,-266 251.5,-288 480.5,-288 480.5,-266 251.5,-266"/>
<polygon fill="none" stroke="black" points="251.5,-266 251.5,-288 480.5,-288 480.5,-266 251.5,-266"/>
<text text-anchor="start" x="256.5" y="-275.2" font-family="Helvetica,sans-Serif" font-weight="bold" font-size="11.00">syst_enum_functional_types</text>
<text text-anchor="start" x="445.5" y="-274.2" font-family="Helvetica,sans-Serif" font-size="11.00">[table]</text>
<polygon fill="none" stroke="black" points="251.5,-244 251.5,-266 480.5,-266 480.5,-244 251.5,-244"/>
<image xlink:href="../../images/primaryKeys.png" width="11px" height="12px" preserveAspectRatio="xMinYMin meet" x="256.5" y="-261"/>
<text text-anchor="start" x="281.5" y="-252.2" font-family="Helvetica,sans-Serif" font-size="11.00">id</text>
<polygon fill="#ffffff" stroke="transparent" points="251.5,-222 251.5,-244 480.5,-244 480.5,-222 251.5,-222"/>
<polygon fill="none" stroke="black" points="251.5,-222 251.5,-244 480.5,-244 480.5,-222 251.5,-222"/>
<text text-anchor="start" x="281.5" y="-230.2" font-family="Helvetica,sans-Serif" font-size="11.00">internal_name</text>
<polygon fill="#ffffff" stroke="transparent" points="251.5,-200 251.5,-222 480.5,-222 480.5,-200 251.5,-200"/>
<polygon fill="none" stroke="black" points="251.5,-200 251.5,-222 480.5,-222 480.5,-200 251.5,-200"/>
<text text-anchor="start" x="281.5" y="-208.2" font-family="Helvetica,sans-Serif" font-size="11.00">display_name</text>
<polygon fill="none" stroke="black" points="251.5,-178 251.5,-200 480.5,-200 480.5,-178 251.5,-178"/>
<image xlink:href="../../images/foreignKeys.png" width="11px" height="12px" preserveAspectRatio="xMinYMin meet" x="256.5" y="-195"/>
<text text-anchor="start" x="281.5" y="-186.2" font-family="Helvetica,sans-Serif" font-size="11.00">enum_id</text>
<polygon fill="none" stroke="black" points="251.5,-160 251.5,-178 480.5,-178 480.5,-160 251.5,-160"/>
<text text-anchor="start" x="254.5" y="-166.2" font-family="Helvetica,sans-Serif" font-size="11.00">...</text>
<polygon fill="#ffffff" stroke="transparent" points="251.5,-142 251.5,-160 359.5,-160 359.5,-142 251.5,-142"/>
<polygon fill="none" stroke="black" points="251.5,-142 251.5,-160 359.5,-160 359.5,-142 251.5,-142"/>
<text text-anchor="start" x="254.5" y="-148.2" font-family="Helvetica,sans-Serif" font-size="11.00">&lt; 1</text>
<polygon fill="#ffffff" stroke="transparent" points="359.5,-142 359.5,-160 415.5,-160 415.5,-142 359.5,-142"/>
<polygon fill="none" stroke="black" points="359.5,-142 359.5,-160 415.5,-160 415.5,-142 359.5,-142"/>
<text text-anchor="start" x="405.5" y="-148.2" font-family="Helvetica,sans-Serif" font-size="11.00"> &#160;</text>
<polygon fill="#ffffff" stroke="transparent" points="415.5,-142 415.5,-160 480.5,-160 480.5,-142 415.5,-142"/>
<polygon fill="none" stroke="black" points="415.5,-142 415.5,-160 480.5,-160 480.5,-142 415.5,-142"/>
<text text-anchor="start" x="461.5" y="-148.2" font-family="Helvetica,sans-Serif" font-size="11.00">1 &gt;</text>
</a>
</g>
</g>
<!-- syst_enum_items&#45;&gt;syst_enum_functional_types -->
<g id="edge4" class="edge">
<title>syst_enum_items:w&#45;&gt;syst_enum_functional_types:e</title>
<path fill="none" stroke="black" d="M513.82,-269.86C503.27,-264.71 497.77,-255 481.5,-255"/>
<polygon fill="black" stroke="black" points="520.19,-271.27 527.22,-276.52 524.09,-272.14 528,-273 528,-273 528,-273 524.09,-272.14 528.78,-269.48 520.19,-271.27 520.19,-271.27"/>
<ellipse fill="none" stroke="black" cx="517.06" cy="-270.58" rx="3.2" ry="3.2"/>
</g>
<!-- syst_enums -->
<g id="node6" class="node">
<title>syst_enums</title>
<g id="a_node6"><a xlink:href="../../tables/syst_enums.html" xlink:title="syst_enums" target="_top">
<polygon fill="#ffffff" stroke="transparent" points="8,-159 8,-283 202,-283 202,-159 8,-159"/>
<polygon fill="#f5f5f5" stroke="transparent" points="8,-261 8,-283 202,-283 202,-261 8,-261"/>
<polygon fill="none" stroke="black" points="8,-261 8,-283 202,-283 202,-261 8,-261"/>
<text text-anchor="start" x="13" y="-270.2" font-family="Helvetica,sans-Serif" font-weight="bold" font-size="11.00">syst_enums</text>
<text text-anchor="start" x="167" y="-269.2" font-family="Helvetica,sans-Serif" font-size="11.00">[table]</text>
<polygon fill="none" stroke="black" points="8,-239 8,-261 202,-261 202,-239 8,-239"/>
<image xlink:href="../../images/primaryKeys.png" width="11px" height="12px" preserveAspectRatio="xMinYMin meet" x="13" y="-256"/>
<text text-anchor="start" x="28" y="-247.2" font-family="Helvetica,sans-Serif" font-size="11.00">id</text>
<polygon fill="#ffffff" stroke="transparent" points="8,-217 8,-239 202,-239 202,-217 8,-217"/>
<polygon fill="none" stroke="black" points="8,-217 8,-239 202,-239 202,-217 8,-217"/>
<text text-anchor="start" x="28" y="-225.2" font-family="Helvetica,sans-Serif" font-size="11.00">internal_name</text>
<polygon fill="#ffffff" stroke="transparent" points="8,-195 8,-217 202,-217 202,-195 8,-195"/>
<polygon fill="none" stroke="black" points="8,-195 8,-217 202,-217 202,-195 8,-195"/>
<text text-anchor="start" x="28" y="-203.2" font-family="Helvetica,sans-Serif" font-size="11.00">display_name</text>
<polygon fill="none" stroke="black" points="8,-177 8,-195 202,-195 202,-177 8,-177"/>
<text text-anchor="start" x="11" y="-183.2" font-family="Helvetica,sans-Serif" font-size="11.00">...</text>
<polygon fill="#ffffff" stroke="transparent" points="8,-159 8,-177 94,-177 94,-159 8,-159"/>
<polygon fill="none" stroke="black" points="8,-159 8,-177 94,-177 94,-159 8,-159"/>
<text text-anchor="start" x="11" y="-165.2" font-family="Helvetica,sans-Serif" font-size="11.00"> &#160;</text>
<polygon fill="#ffffff" stroke="transparent" points="94,-159 94,-177 143,-177 143,-159 94,-159"/>
<polygon fill="none" stroke="black" points="94,-159 94,-177 143,-177 143,-159 94,-159"/>
<text text-anchor="start" x="133" y="-165.2" font-family="Helvetica,sans-Serif" font-size="11.00"> &#160;</text>
<polygon fill="#ffffff" stroke="transparent" points="143,-159 143,-177 202,-177 202,-159 143,-159"/>
<polygon fill="none" stroke="black" points="143,-159 143,-177 202,-177 202,-159 143,-159"/>
<text text-anchor="start" x="183" y="-165.2" font-family="Helvetica,sans-Serif" font-size="11.00">2 &gt;</text>
</a>
</g>
</g>
<!-- syst_enum_items&#45;&gt;syst_enums -->
<g id="edge3" class="edge">
<title>syst_enum_items:w&#45;&gt;syst_enums:e</title>
<path fill="none" stroke="black" d="M513.56,-295.85C505.72,-296.84 499.85,-298.41 488,-299 379.25,-304.42 341.37,-345.68 243,-299 217.6,-286.95 231.11,-250 203,-250"/>
<polygon fill="black" stroke="black" points="520.01,-295.47 528.21,-298.59 524.01,-295.24 528,-295 528,-295 528,-295 524.01,-295.24 527.79,-291.41 520.01,-295.47 520.01,-295.47"/>
<ellipse fill="none" stroke="black" cx="516.82" cy="-295.66" rx="3.2" ry="3.2"/>
</g>
<!-- syst_enum_functional_types&#45;&gt;syst_enums -->
<g id="edge2" class="edge">
<title>syst_enum_functional_types:w&#45;&gt;syst_enums:e</title>
<path fill="none" stroke="black" d="M236.72,-194.2C221.97,-208.95 231.19,-250 203,-250"/>
<polygon fill="black" stroke="black" points="243.02,-191.82 251.77,-192.37 246.76,-190.41 250.5,-189 250.5,-189 250.5,-189 246.76,-190.41 249.23,-185.63 243.02,-191.82 243.02,-191.82"/>
<ellipse fill="none" stroke="black" cx="240.02" cy="-192.95" rx="3.2" ry="3.2"/>
</g>
<!-- syst_menus&#45;&gt;syst_enum_items -->
<g id="edge9" class="edge">
<title>syst_menus:w&#45;&gt;syst_enum_items:e</title>
<path fill="none" stroke="black" d="M756.35,-356.16C745.92,-357.9 739.14,-361 724,-361"/>
<polygon fill="black" stroke="black" points="763.02,-355.63 771.28,-358.59 767.01,-355.31 771,-355 771,-355 771,-355 767.01,-355.31 770.72,-351.41 763.02,-355.63 763.02,-355.63"/>
<ellipse fill="none" stroke="black" cx="759.83" cy="-355.88" rx="3.2" ry="3.2"/>
</g>
<!-- syst_action_groups -->
<g id="node5" class="node">
<title>syst_action_groups</title>
<g id="a_node5"><a xlink:href="../../tables/syst_action_groups.html" xlink:title="syst_action_groups" target="_top">
<polygon fill="#ffffff" stroke="transparent" points="529,-37 529,-205 723,-205 723,-37 529,-37"/>
<polygon fill="#f5f5f5" stroke="transparent" points="529,-183 529,-205 723,-205 723,-183 529,-183"/>
<polygon fill="none" stroke="black" points="529,-183 529,-205 723,-205 723,-183 529,-183"/>
<text text-anchor="start" x="534" y="-192.2" font-family="Helvetica,sans-Serif" font-weight="bold" font-size="11.00">syst_action_groups</text>
<text text-anchor="start" x="688" y="-191.2" font-family="Helvetica,sans-Serif" font-size="11.00">[table]</text>
<polygon fill="none" stroke="black" points="529,-161 529,-183 723,-183 723,-161 529,-161"/>
<image xlink:href="../../images/primaryKeys.png" width="11px" height="12px" preserveAspectRatio="xMinYMin meet" x="534" y="-178"/>
<text text-anchor="start" x="549" y="-169.2" font-family="Helvetica,sans-Serif" font-size="11.00">id</text>
<polygon fill="#ffffff" stroke="transparent" points="529,-139 529,-161 723,-161 723,-139 529,-139"/>
<polygon fill="none" stroke="black" points="529,-139 529,-161 723,-161 723,-139 529,-139"/>
<text text-anchor="start" x="549" y="-147.2" font-family="Helvetica,sans-Serif" font-size="11.00">internal_name</text>
<polygon fill="#ffffff" stroke="transparent" points="529,-117 529,-139 723,-139 723,-117 529,-117"/>
<polygon fill="none" stroke="black" points="529,-117 529,-139 723,-139 723,-117 529,-117"/>
<text text-anchor="start" x="549" y="-125.2" font-family="Helvetica,sans-Serif" font-size="11.00">display_name</text>
<polygon fill="#ffffff" stroke="transparent" points="529,-95 529,-117 723,-117 723,-95 529,-95"/>
<polygon fill="none" stroke="black" points="529,-95 529,-117 723,-117 723,-95 529,-95"/>
<text text-anchor="start" x="549" y="-103.2" font-family="Helvetica,sans-Serif" font-size="11.00">command</text>
<polygon fill="#ffffff" stroke="transparent" points="529,-73 529,-95 723,-95 723,-73 529,-73"/>
<polygon fill="none" stroke="black" points="529,-73 529,-95 723,-95 723,-73 529,-73"/>
<text text-anchor="start" x="549" y="-81.2" font-family="Helvetica,sans-Serif" font-size="11.00">command_search</text>
<polygon fill="none" stroke="black" points="529,-55 529,-73 723,-73 723,-55 529,-55"/>
<text text-anchor="start" x="532" y="-61.2" font-family="Helvetica,sans-Serif" font-size="11.00">...</text>
<polygon fill="#ffffff" stroke="transparent" points="529,-37 529,-55 615,-55 615,-37 529,-37"/>
<polygon fill="none" stroke="black" points="529,-37 529,-55 615,-55 615,-37 529,-37"/>
<text text-anchor="start" x="532" y="-43.2" font-family="Helvetica,sans-Serif" font-size="11.00"> &#160;</text>
<polygon fill="#ffffff" stroke="transparent" points="615,-37 615,-55 664,-55 664,-37 615,-37"/>
<polygon fill="none" stroke="black" points="615,-37 615,-55 664,-55 664,-37 615,-37"/>
<text text-anchor="start" x="654" y="-43.2" font-family="Helvetica,sans-Serif" font-size="11.00"> &#160;</text>
<polygon fill="#ffffff" stroke="transparent" points="664,-37 664,-55 723,-55 723,-37 664,-37"/>
<polygon fill="none" stroke="black" points="664,-37 664,-55 723,-55 723,-37 664,-37"/>
<text text-anchor="start" x="704" y="-43.2" font-family="Helvetica,sans-Serif" font-size="11.00">1 &gt;</text>
</a>
</g>
</g>
<!-- syst_actions&#45;&gt;syst_action_groups -->
<g id="edge1" class="edge">
<title>syst_actions:w&#45;&gt;syst_action_groups:e</title>
<path fill="none" stroke="black" d="M756.59,-180.98C746.01,-177.81 739.59,-172 724,-172"/>
<polygon fill="black" stroke="black" points="763.08,-181.89 770.5,-186.57 767.04,-182.45 771,-183 771,-183 771,-183 767.04,-182.45 771.5,-179.43 763.08,-181.89 763.08,-181.89"/>
<ellipse fill="none" stroke="black" cx="759.91" cy="-181.45" rx="3.2" ry="3.2"/>
</g>
</g>
</svg>
