<?xml version="1.0" encoding="UTF-8" standalone="no"?>
<!DOCTYPE svg PUBLIC "-//W3C//DTD SVG 1.1//EN"
 "http://www.w3.org/Graphics/SVG/1.1/DTD/svg11.dtd">
<!-- Generated by graphviz version 2.43.0 (0)
 -->
<!-- Title: orphans Pages: 1 -->
<svg width="343pt" height="676pt"
 viewBox="0.00 0.00 343.00 676.00" xmlns="http://www.w3.org/2000/svg" xmlns:xlink="http://www.w3.org/1999/xlink">
<g id="graph0" class="graph" transform="scale(1 1) rotate(0) translate(4 672)">
<title>orphans</title>
<polygon fill="#ffffff" stroke="transparent" points="-4,4 -4,-672 339,-672 339,4 -4,4"/>
<!-- syst_settings -->
<g id="node1" class="node">
<title>syst_settings</title>
<g id="a_node1"><a xlink:href="../../tables/syst_settings.html" xlink:title="syst_settings" target="_top">
<polygon fill="#ffffff" stroke="transparent" points="8,-4 8,-664 327,-664 327,-4 8,-4"/>
<polygon fill="#f5f5f5" stroke="transparent" points="10.5,-640 10.5,-662 325.5,-662 325.5,-640 10.5,-640"/>
<polygon fill="none" stroke="black" points="10.5,-640 10.5,-662 325.5,-662 325.5,-640 10.5,-640"/>
<text text-anchor="start" x="15.5" y="-649.2" font-family="Helvetica,sans-Serif" font-weight="bold" font-size="11.00">syst_settings</text>
<text text-anchor="start" x="290.5" y="-648.2" font-family="Helvetica,sans-Serif" font-size="11.00">[table]</text>
<polygon fill="none" stroke="black" points="10.5,-618 10.5,-640 204.5,-640 204.5,-618 10.5,-618"/>
<image xlink:href="../../images/primaryKeys.png" width="11px" height="12px" preserveAspectRatio="xMinYMin meet" x="15.5" y="-635"/>
<text text-anchor="start" x="30.5" y="-626.2" font-family="Helvetica,sans-Serif" font-size="11.00">id</text>
<polygon fill="none" stroke="black" points="204.5,-618 204.5,-640 325.5,-640 325.5,-618 204.5,-618"/>
<text text-anchor="start" x="207.5" y="-626.2" font-family="Helvetica,sans-Serif" font-size="11.00">uuid[2147483647]</text>
<polygon fill="#ffffff" stroke="transparent" points="10.5,-596 10.5,-618 204.5,-618 204.5,-596 10.5,-596"/>
<polygon fill="none" stroke="black" points="10.5,-596 10.5,-618 204.5,-618 204.5,-596 10.5,-596"/>
<text text-anchor="start" x="30.5" y="-604.2" font-family="Helvetica,sans-Serif" font-size="11.00">internal_name</text>
<polygon fill="none" stroke="black" points="204.5,-596 204.5,-618 325.5,-618 325.5,-596 204.5,-596"/>
<text text-anchor="start" x="207.5" y="-604.2" font-family="Helvetica,sans-Serif" font-size="11.00">text[2147483647]</text>
<polygon fill="#ffffff" stroke="transparent" points="10.5,-574 10.5,-596 204.5,-596 204.5,-574 10.5,-574"/>
<polygon fill="none" stroke="black" points="10.5,-574 10.5,-596 204.5,-596 204.5,-574 10.5,-574"/>
<text text-anchor="start" x="30.5" y="-582.2" font-family="Helvetica,sans-Serif" font-size="11.00">display_name</text>
<polygon fill="none" stroke="black" points="204.5,-574 204.5,-596 325.5,-596 325.5,-574 204.5,-574"/>
<text text-anchor="start" x="207.5" y="-582.2" font-family="Helvetica,sans-Serif" font-size="11.00">text[2147483647]</text>
<polygon fill="none" stroke="black" points="10.5,-552 10.5,-574 204.5,-574 204.5,-552 10.5,-552"/>
<text text-anchor="start" x="30.5" y="-560.2" font-family="Helvetica,sans-Serif" font-size="11.00">syst_defined</text>
<polygon fill="none" stroke="black" points="204.5,-552 204.5,-574 325.5,-574 325.5,-552 204.5,-552"/>
<text text-anchor="start" x="207.5" y="-560.2" font-family="Helvetica,sans-Serif" font-size="11.00">bool[1]</text>
<polygon fill="none" stroke="black" points="10.5,-530 10.5,-552 204.5,-552 204.5,-530 10.5,-530"/>
<text text-anchor="start" x="30.5" y="-538.2" font-family="Helvetica,sans-Serif" font-size="11.00">syst_description</text>
<polygon fill="none" stroke="black" points="204.5,-530 204.5,-552 325.5,-552 325.5,-530 204.5,-530"/>
<text text-anchor="start" x="207.5" y="-538.2" font-family="Helvetica,sans-Serif" font-size="11.00">text[2147483647]</text>
<polygon fill="none" stroke="black" points="10.5,-508 10.5,-530 204.5,-530 204.5,-508 10.5,-508"/>
<text text-anchor="start" x="30.5" y="-516.2" font-family="Helvetica,sans-Serif" font-size="11.00">user_description</text>
<polygon fill="none" stroke="black" points="204.5,-508 204.5,-530 325.5,-530 325.5,-508 204.5,-508"/>
<text text-anchor="start" x="207.5" y="-516.2" font-family="Helvetica,sans-Serif" font-size="11.00">text[2147483647]</text>
<polygon fill="none" stroke="black" points="10.5,-486 10.5,-508 204.5,-508 204.5,-486 10.5,-486"/>
<text text-anchor="start" x="30.5" y="-494.2" font-family="Helvetica,sans-Serif" font-size="11.00">setting_flag</text>
<polygon fill="none" stroke="black" points="204.5,-486 204.5,-508 325.5,-508 325.5,-486 204.5,-486"/>
<text text-anchor="start" x="207.5" y="-494.2" font-family="Helvetica,sans-Serif" font-size="11.00">bool[1]</text>
<polygon fill="none" stroke="black" points="10.5,-464 10.5,-486 204.5,-486 204.5,-464 10.5,-464"/>
<text text-anchor="start" x="30.5" y="-472.2" font-family="Helvetica,sans-Serif" font-size="11.00">setting_integer</text>
<polygon fill="none" stroke="black" points="204.5,-464 204.5,-486 325.5,-486 325.5,-464 204.5,-464"/>
<text text-anchor="start" x="207.5" y="-472.2" font-family="Helvetica,sans-Serif" font-size="11.00">int8[19]</text>
<polygon fill="none" stroke="black" points="10.5,-442 10.5,-464 204.5,-464 204.5,-442 10.5,-442"/>
<text text-anchor="start" x="30.5" y="-450.2" font-family="Helvetica,sans-Serif" font-size="11.00">setting_integer_range</text>
<polygon fill="none" stroke="black" points="204.5,-442 204.5,-464 325.5,-464 325.5,-442 204.5,-442"/>
<text text-anchor="start" x="207.5" y="-450.2" font-family="Helvetica,sans-Serif" font-size="11.00">int8range[2147483647]</text>
<polygon fill="none" stroke="black" points="10.5,-420 10.5,-442 204.5,-442 204.5,-420 10.5,-420"/>
<text text-anchor="start" x="30.5" y="-428.2" font-family="Helvetica,sans-Serif" font-size="11.00">setting_decimal</text>
<polygon fill="none" stroke="black" points="204.5,-420 204.5,-442 325.5,-442 325.5,-420 204.5,-420"/>
<text text-anchor="start" x="207.5" y="-428.2" font-family="Helvetica,sans-Serif" font-size="11.00">numeric[0]</text>
<polygon fill="none" stroke="black" points="10.5,-398 10.5,-420 204.5,-420 204.5,-398 10.5,-398"/>
<text text-anchor="start" x="30.5" y="-406.2" font-family="Helvetica,sans-Serif" font-size="11.00">setting_decimal_range</text>
<polygon fill="none" stroke="black" points="204.5,-398 204.5,-420 325.5,-420 325.5,-398 204.5,-398"/>
<text text-anchor="start" x="207.5" y="-406.2" font-family="Helvetica,sans-Serif" font-size="11.00">numrange[2147483647]</text>
<polygon fill="none" stroke="black" points="10.5,-376 10.5,-398 204.5,-398 204.5,-376 10.5,-376"/>
<text text-anchor="start" x="30.5" y="-384.2" font-family="Helvetica,sans-Serif" font-size="11.00">setting_interval</text>
<polygon fill="none" stroke="black" points="204.5,-376 204.5,-398 325.5,-398 325.5,-376 204.5,-376"/>
<text text-anchor="start" x="207.5" y="-384.2" font-family="Helvetica,sans-Serif" font-size="11.00">interval[49,6]</text>
<polygon fill="none" stroke="black" points="10.5,-354 10.5,-376 204.5,-376 204.5,-354 10.5,-354"/>
<text text-anchor="start" x="30.5" y="-362.2" font-family="Helvetica,sans-Serif" font-size="11.00">setting_date</text>
<polygon fill="none" stroke="black" points="204.5,-354 204.5,-376 325.5,-376 325.5,-354 204.5,-354"/>
<text text-anchor="start" x="207.5" y="-362.2" font-family="Helvetica,sans-Serif" font-size="11.00">date[13]</text>
<polygon fill="none" stroke="black" points="10.5,-332 10.5,-354 204.5,-354 204.5,-332 10.5,-332"/>
<text text-anchor="start" x="30.5" y="-340.2" font-family="Helvetica,sans-Serif" font-size="11.00">setting_date_range</text>
<polygon fill="none" stroke="black" points="204.5,-332 204.5,-354 325.5,-354 325.5,-332 204.5,-332"/>
<text text-anchor="start" x="207.5" y="-340.2" font-family="Helvetica,sans-Serif" font-size="11.00">daterange[2147483647]</text>
<polygon fill="none" stroke="black" points="10.5,-310 10.5,-332 204.5,-332 204.5,-310 10.5,-310"/>
<text text-anchor="start" x="30.5" y="-318.2" font-family="Helvetica,sans-Serif" font-size="11.00">setting_time</text>
<polygon fill="none" stroke="black" points="204.5,-310 204.5,-332 325.5,-332 325.5,-310 204.5,-310"/>
<text text-anchor="start" x="207.5" y="-318.2" font-family="Helvetica,sans-Serif" font-size="11.00">time[15,6]</text>
<polygon fill="none" stroke="black" points="10.5,-288 10.5,-310 204.5,-310 204.5,-288 10.5,-288"/>
<text text-anchor="start" x="30.5" y="-296.2" font-family="Helvetica,sans-Serif" font-size="11.00">setting_timestamp</text>
<polygon fill="none" stroke="black" points="204.5,-288 204.5,-310 325.5,-310 325.5,-288 204.5,-288"/>
<text text-anchor="start" x="207.5" y="-296.2" font-family="Helvetica,sans-Serif" font-size="11.00">timestamptz[35,6]</text>
<polygon fill="none" stroke="black" points="10.5,-266 10.5,-288 204.5,-288 204.5,-266 10.5,-266"/>
<text text-anchor="start" x="30.5" y="-274.2" font-family="Helvetica,sans-Serif" font-size="11.00">setting_timestamp_range</text>
<polygon fill="none" stroke="black" points="204.5,-266 204.5,-288 325.5,-288 325.5,-266 204.5,-266"/>
<text text-anchor="start" x="207.5" y="-274.2" font-family="Helvetica,sans-Serif" font-size="11.00">tstzrange[2147483647]</text>
<polygon fill="none" stroke="black" points="10.5,-244 10.5,-266 204.5,-266 204.5,-244 10.5,-244"/>
<text text-anchor="start" x="30.5" y="-252.2" font-family="Helvetica,sans-Serif" font-size="11.00">setting_json</text>
<polygon fill="none" stroke="black" points="204.5,-244 204.5,-266 325.5,-266 325.5,-244 204.5,-244"/>
<text text-anchor="start" x="207.5" y="-252.2" font-family="Helvetica,sans-Serif" font-size="11.00">jsonb[2147483647]</text>
<polygon fill="none" stroke="black" points="10.5,-222 10.5,-244 204.5,-244 204.5,-222 10.5,-222"/>
<text text-anchor="start" x="30.5" y="-230.2" font-family="Helvetica,sans-Serif" font-size="11.00">setting_text</text>
<polygon fill="none" stroke="black" points="204.5,-222 204.5,-244 325.5,-244 325.5,-222 204.5,-222"/>
<text text-anchor="start" x="207.5" y="-230.2" font-family="Helvetica,sans-Serif" font-size="11.00">text[2147483647]</text>
<polygon fill="none" stroke="black" points="10.5,-200 10.5,-222 204.5,-222 204.5,-200 10.5,-200"/>
<text text-anchor="start" x="30.5" y="-208.2" font-family="Helvetica,sans-Serif" font-size="11.00">setting_uuid</text>
<polygon fill="none" stroke="black" points="204.5,-200 204.5,-222 325.5,-222 325.5,-200 204.5,-200"/>
<text text-anchor="start" x="207.5" y="-208.2" font-family="Helvetica,sans-Serif" font-size="11.00">uuid[2147483647]</text>
<polygon fill="none" stroke="black" points="10.5,-178 10.5,-200 204.5,-200 204.5,-178 10.5,-178"/>
<text text-anchor="start" x="30.5" y="-186.2" font-family="Helvetica,sans-Serif" font-size="11.00">setting_blob</text>
<polygon fill="none" stroke="black" points="204.5,-178 204.5,-200 325.5,-200 325.5,-178 204.5,-178"/>
<text text-anchor="start" x="207.5" y="-186.2" font-family="Helvetica,sans-Serif" font-size="11.00">bytea[2147483647]</text>
<polygon fill="none" stroke="black" points="10.5,-156 10.5,-178 204.5,-178 204.5,-156 10.5,-156"/>
<text text-anchor="start" x="30.5" y="-164.2" font-family="Helvetica,sans-Serif" font-size="11.00">diag_timestamp_created</text>
<polygon fill="none" stroke="black" points="204.5,-156 204.5,-178 325.5,-178 325.5,-156 204.5,-156"/>
<text text-anchor="start" x="207.5" y="-164.2" font-family="Helvetica,sans-Serif" font-size="11.00">timestamptz[35,6]</text>
<polygon fill="none" stroke="black" points="10.5,-134 10.5,-156 204.5,-156 204.5,-134 10.5,-134"/>
<text text-anchor="start" x="30.5" y="-142.2" font-family="Helvetica,sans-Serif" font-size="11.00">diag_role_created</text>
<polygon fill="none" stroke="black" points="204.5,-134 204.5,-156 325.5,-156 325.5,-134 204.5,-134"/>
<text text-anchor="start" x="207.5" y="-142.2" font-family="Helvetica,sans-Serif" font-size="11.00">text[2147483647]</text>
<polygon fill="none" stroke="black" points="10.5,-112 10.5,-134 204.5,-134 204.5,-112 10.5,-112"/>
<text text-anchor="start" x="30.5" y="-120.2" font-family="Helvetica,sans-Serif" font-size="11.00">diag_timestamp_modified</text>
<polygon fill="none" stroke="black" points="204.5,-112 204.5,-134 325.5,-134 325.5,-112 204.5,-112"/>
<text text-anchor="start" x="207.5" y="-120.2" font-family="Helvetica,sans-Serif" font-size="11.00">timestamptz[35,6]</text>
<polygon fill="none" stroke="black" points="10.5,-90 10.5,-112 204.5,-112 204.5,-90 10.5,-90"/>
<text text-anchor="start" x="30.5" y="-98.2" font-family="Helvetica,sans-Serif" font-size="11.00">diag_wallclock_modified</text>
<polygon fill="none" stroke="black" points="204.5,-90 204.5,-112 325.5,-112 325.5,-90 204.5,-90"/>
<text text-anchor="start" x="207.5" y="-98.2" font-family="Helvetica,sans-Serif" font-size="11.00">timestamptz[35,6]</text>
<polygon fill="none" stroke="black" points="10.5,-68 10.5,-90 204.5,-90 204.5,-68 10.5,-68"/>
<text text-anchor="start" x="30.5" y="-76.2" font-family="Helvetica,sans-Serif" font-size="11.00">diag_role_modified</text>
<polygon fill="none" stroke="black" points="204.5,-68 204.5,-90 325.5,-90 325.5,-68 204.5,-68"/>
<text text-anchor="start" x="207.5" y="-76.2" font-family="Helvetica,sans-Serif" font-size="11.00">text[2147483647]</text>
<polygon fill="none" stroke="black" points="10.5,-46 10.5,-68 204.5,-68 204.5,-46 10.5,-46"/>
<text text-anchor="start" x="30.5" y="-54.2" font-family="Helvetica,sans-Serif" font-size="11.00">diag_row_version</text>
<polygon fill="none" stroke="black" points="204.5,-46 204.5,-68 325.5,-68 325.5,-46 204.5,-46"/>
<text text-anchor="start" x="207.5" y="-54.2" font-family="Helvetica,sans-Serif" font-size="11.00">int8[19]</text>
<polygon fill="none" stroke="black" points="10.5,-24 10.5,-46 204.5,-46 204.5,-24 10.5,-24"/>
<text text-anchor="start" x="30.5" y="-32.2" font-family="Helvetica,sans-Serif" font-size="11.00">diag_update_count</text>
<polygon fill="none" stroke="black" points="204.5,-24 204.5,-46 325.5,-46 325.5,-24 204.5,-24"/>
<text text-anchor="start" x="207.5" y="-32.2" font-family="Helvetica,sans-Serif" font-size="11.00">int8[19]</text>
<polygon fill="#ffffff" stroke="transparent" points="10.5,-6 10.5,-24 111.5,-24 111.5,-6 10.5,-6"/>
<polygon fill="none" stroke="black" points="10.5,-6 10.5,-24 111.5,-24 111.5,-6 10.5,-6"/>
<text text-anchor="start" x="13.5" y="-12.2" font-family="Helvetica,sans-Serif" font-size="11.00">&lt; 0</text>
<polygon fill="#ffffff" stroke="transparent" points="111.5,-6 111.5,-24 204.5,-24 204.5,-6 111.5,-6"/>
<polygon fill="none" stroke="black" points="111.5,-6 111.5,-24 204.5,-24 204.5,-6 111.5,-6"/>
<text text-anchor="start" x="194.5" y="-12.2" font-family="Helvetica,sans-Serif" font-size="11.00"> &#160;</text>
<polygon fill="#ffffff" stroke="transparent" points="204.5,-6 204.5,-24 325.5,-24 325.5,-6 204.5,-6"/>
<polygon fill="none" stroke="black" points="204.5,-6 204.5,-24 325.5,-24 325.5,-6 204.5,-6"/>
<text text-anchor="start" x="306.5" y="-12.2" font-family="Helvetica,sans-Serif" font-size="11.00">0 &gt;</text>
<polygon fill="none" stroke="black" stroke-width="2" points="9,-5 9,-663 326,-663 326,-5 9,-5"/>
</a>
</g>
</g>
</g>
</svg>
