<?xml version="1.0" encoding="UTF-8" standalone="no"?>
<!DOCTYPE svg PUBLIC "-//W3C//DTD SVG 1.1//EN"
 "http://www.w3.org/Graphics/SVG/1.1/DTD/svg11.dtd">
<!-- Generated by graphviz version 2.43.0 (0)
 -->
<!-- Title: twoDegreesRelationshipsDiagram Pages: 1 -->
<svg width="969pt" height="465pt"
 viewBox="0.00 0.00 969.00 465.00" xmlns="http://www.w3.org/2000/svg" xmlns:xlink="http://www.w3.org/1999/xlink">
<g id="graph0" class="graph" transform="scale(1 1) rotate(0) translate(4 461)">
<title>twoDegreesRelationshipsDiagram</title>
<polygon fill="#ffffff" stroke="transparent" points="-4,4 -4,-461 965,-461 965,4 -4,4"/>
<text text-anchor="middle" x="71.5" y="-7.2" font-family="Helvetica,sans-Serif" font-size="11.00">Generated by SchemaSpy</text>
<!-- syst_enum_functional_types -->
<g id="node1" class="node">
<title>syst_enum_functional_types</title>
<g id="a_node1"><a xlink:href="../../tables/syst_enum_functional_types.html" xlink:title="syst_enum_functional_types" target="_top">
<polygon fill="#ffffff" stroke="transparent" points="353,-395 353,-453 582,-453 582,-395 353,-395"/>
<polygon fill="#f5f5f5" stroke="transparent" points="353.5,-431 353.5,-453 582.5,-453 582.5,-431 353.5,-431"/>
<polygon fill="none" stroke="black" points="353.5,-431 353.5,-453 582.5,-453 582.5,-431 353.5,-431"/>
<text text-anchor="start" x="358.5" y="-440.2" font-family="Helvetica,sans-Serif" font-weight="bold" font-size="11.00">syst_enum_functional_types</text>
<text text-anchor="start" x="547.5" y="-439.2" font-family="Helvetica,sans-Serif" font-size="11.00">[table]</text>
<polygon fill="none" stroke="black" points="353.5,-413 353.5,-431 582.5,-431 582.5,-413 353.5,-413"/>
<text text-anchor="start" x="356.5" y="-419.2" font-family="Helvetica,sans-Serif" font-size="11.00">...</text>
<polygon fill="#ffffff" stroke="transparent" points="353.5,-395 353.5,-413 461.5,-413 461.5,-395 353.5,-395"/>
<polygon fill="none" stroke="black" points="353.5,-395 353.5,-413 461.5,-413 461.5,-395 353.5,-395"/>
<text text-anchor="start" x="356.5" y="-401.2" font-family="Helvetica,sans-Serif" font-size="11.00">&lt; 1</text>
<polygon fill="#ffffff" stroke="transparent" points="461.5,-395 461.5,-413 517.5,-413 517.5,-395 461.5,-395"/>
<polygon fill="none" stroke="black" points="461.5,-395 461.5,-413 517.5,-413 517.5,-395 461.5,-395"/>
<text text-anchor="start" x="507.5" y="-401.2" font-family="Helvetica,sans-Serif" font-size="11.00"> &#160;</text>
<polygon fill="#ffffff" stroke="transparent" points="517.5,-395 517.5,-413 582.5,-413 582.5,-395 517.5,-395"/>
<polygon fill="none" stroke="black" points="517.5,-395 517.5,-413 582.5,-413 582.5,-395 517.5,-395"/>
<text text-anchor="start" x="563.5" y="-401.2" font-family="Helvetica,sans-Serif" font-size="11.00">1 &gt;</text>
</a>
</g>
</g>
<!-- syst_enums -->
<g id="node2" class="node">
<title>syst_enums</title>
<g id="a_node2"><a xlink:href="../../tables/syst_enums.html" xlink:title="syst_enums" target="_top">
<polygon fill="#ffffff" stroke="transparent" points="8,-37 8,-433 304,-433 304,-37 8,-37"/>
<polygon fill="#f5f5f5" stroke="transparent" points="10,-409 10,-431 302,-431 302,-409 10,-409"/>
<polygon fill="none" stroke="black" points="10,-409 10,-431 302,-431 302,-409 10,-409"/>
<text text-anchor="start" x="15" y="-418.2" font-family="Helvetica,sans-Serif" font-weight="bold" font-size="11.00">syst_enums</text>
<text text-anchor="start" x="267" y="-417.2" font-family="Helvetica,sans-Serif" font-size="11.00">[table]</text>
<polygon fill="none" stroke="black" points="10,-387 10,-409 204,-409 204,-387 10,-387"/>
<image xlink:href="../../images/primaryKeys.png" width="11px" height="12px" preserveAspectRatio="xMinYMin meet" x="15" y="-404"/>
<text text-anchor="start" x="30" y="-395.2" font-family="Helvetica,sans-Serif" font-size="11.00">id</text>
<polygon fill="none" stroke="black" points="204,-387 204,-409 302,-409 302,-387 204,-387"/>
<text text-anchor="start" x="207" y="-395.2" font-family="Helvetica,sans-Serif" font-size="11.00">uuid[2147483647]</text>
<polygon fill="#ffffff" stroke="transparent" points="10,-365 10,-387 204,-387 204,-365 10,-365"/>
<polygon fill="none" stroke="black" points="10,-365 10,-387 204,-387 204,-365 10,-365"/>
<text text-anchor="start" x="30" y="-373.2" font-family="Helvetica,sans-Serif" font-size="11.00">internal_name</text>
<polygon fill="none" stroke="black" points="204,-365 204,-387 302,-387 302,-365 204,-365"/>
<text text-anchor="start" x="207" y="-373.2" font-family="Helvetica,sans-Serif" font-size="11.00">text[2147483647]</text>
<polygon fill="#ffffff" stroke="transparent" points="10,-343 10,-365 204,-365 204,-343 10,-343"/>
<polygon fill="none" stroke="black" points="10,-343 10,-365 204,-365 204,-343 10,-343"/>
<text text-anchor="start" x="30" y="-351.2" font-family="Helvetica,sans-Serif" font-size="11.00">display_name</text>
<polygon fill="none" stroke="black" points="204,-343 204,-365 302,-365 302,-343 204,-343"/>
<text text-anchor="start" x="207" y="-351.2" font-family="Helvetica,sans-Serif" font-size="11.00">text[2147483647]</text>
<polygon fill="none" stroke="black" points="10,-321 10,-343 204,-343 204,-321 10,-321"/>
<text text-anchor="start" x="30" y="-329.2" font-family="Helvetica,sans-Serif" font-size="11.00">syst_description</text>
<polygon fill="none" stroke="black" points="204,-321 204,-343 302,-343 302,-321 204,-321"/>
<text text-anchor="start" x="207" y="-329.2" font-family="Helvetica,sans-Serif" font-size="11.00">text[2147483647]</text>
<polygon fill="none" stroke="black" points="10,-299 10,-321 204,-321 204,-299 10,-299"/>
<text text-anchor="start" x="30" y="-307.2" font-family="Helvetica,sans-Serif" font-size="11.00">user_description</text>
<polygon fill="none" stroke="black" points="204,-299 204,-321 302,-321 302,-299 204,-299"/>
<text text-anchor="start" x="207" y="-307.2" font-family="Helvetica,sans-Serif" font-size="11.00">text[2147483647]</text>
<polygon fill="none" stroke="black" points="10,-277 10,-299 204,-299 204,-277 10,-277"/>
<text text-anchor="start" x="30" y="-285.2" font-family="Helvetica,sans-Serif" font-size="11.00">syst_defined</text>
<polygon fill="none" stroke="black" points="204,-277 204,-299 302,-299 302,-277 204,-277"/>
<text text-anchor="start" x="207" y="-285.2" font-family="Helvetica,sans-Serif" font-size="11.00">bool[1]</text>
<polygon fill="none" stroke="black" points="10,-255 10,-277 204,-277 204,-255 10,-255"/>
<text text-anchor="start" x="30" y="-263.2" font-family="Helvetica,sans-Serif" font-size="11.00">user_maintainable</text>
<polygon fill="none" stroke="black" points="204,-255 204,-277 302,-277 302,-255 204,-255"/>
<text text-anchor="start" x="207" y="-263.2" font-family="Helvetica,sans-Serif" font-size="11.00">bool[1]</text>
<polygon fill="none" stroke="black" points="10,-233 10,-255 204,-255 204,-233 10,-233"/>
<text text-anchor="start" x="30" y="-241.2" font-family="Helvetica,sans-Serif" font-size="11.00">default_syst_options</text>
<polygon fill="none" stroke="black" points="204,-233 204,-255 302,-255 302,-233 204,-233"/>
<text text-anchor="start" x="207" y="-241.2" font-family="Helvetica,sans-Serif" font-size="11.00">jsonb[2147483647]</text>
<polygon fill="none" stroke="black" points="10,-211 10,-233 204,-233 204,-211 10,-211"/>
<text text-anchor="start" x="30" y="-219.2" font-family="Helvetica,sans-Serif" font-size="11.00">default_user_options</text>
<polygon fill="none" stroke="black" points="204,-211 204,-233 302,-233 302,-211 204,-211"/>
<text text-anchor="start" x="207" y="-219.2" font-family="Helvetica,sans-Serif" font-size="11.00">jsonb[2147483647]</text>
<polygon fill="none" stroke="black" points="10,-189 10,-211 204,-211 204,-189 10,-189"/>
<text text-anchor="start" x="30" y="-197.2" font-family="Helvetica,sans-Serif" font-size="11.00">diag_timestamp_created</text>
<polygon fill="none" stroke="black" points="204,-189 204,-211 302,-211 302,-189 204,-189"/>
<text text-anchor="start" x="207" y="-197.2" font-family="Helvetica,sans-Serif" font-size="11.00">timestamptz[35,6]</text>
<polygon fill="none" stroke="black" points="10,-167 10,-189 204,-189 204,-167 10,-167"/>
<text text-anchor="start" x="30" y="-175.2" font-family="Helvetica,sans-Serif" font-size="11.00">diag_role_created</text>
<polygon fill="none" stroke="black" points="204,-167 204,-189 302,-189 302,-167 204,-167"/>
<text text-anchor="start" x="207" y="-175.2" font-family="Helvetica,sans-Serif" font-size="11.00">text[2147483647]</text>
<polygon fill="none" stroke="black" points="10,-145 10,-167 204,-167 204,-145 10,-145"/>
<text text-anchor="start" x="30" y="-153.2" font-family="Helvetica,sans-Serif" font-size="11.00">diag_timestamp_modified</text>
<polygon fill="none" stroke="black" points="204,-145 204,-167 302,-167 302,-145 204,-145"/>
<text text-anchor="start" x="207" y="-153.2" font-family="Helvetica,sans-Serif" font-size="11.00">timestamptz[35,6]</text>
<polygon fill="none" stroke="black" points="10,-123 10,-145 204,-145 204,-123 10,-123"/>
<text text-anchor="start" x="30" y="-131.2" font-family="Helvetica,sans-Serif" font-size="11.00">diag_wallclock_modified</text>
<polygon fill="none" stroke="black" points="204,-123 204,-145 302,-145 302,-123 204,-123"/>
<text text-anchor="start" x="207" y="-131.2" font-family="Helvetica,sans-Serif" font-size="11.00">timestamptz[35,6]</text>
<polygon fill="none" stroke="black" points="10,-101 10,-123 204,-123 204,-101 10,-101"/>
<text text-anchor="start" x="30" y="-109.2" font-family="Helvetica,sans-Serif" font-size="11.00">diag_role_modified</text>
<polygon fill="none" stroke="black" points="204,-101 204,-123 302,-123 302,-101 204,-101"/>
<text text-anchor="start" x="207" y="-109.2" font-family="Helvetica,sans-Serif" font-size="11.00">text[2147483647]</text>
<polygon fill="none" stroke="black" points="10,-79 10,-101 204,-101 204,-79 10,-79"/>
<text text-anchor="start" x="30" y="-87.2" font-family="Helvetica,sans-Serif" font-size="11.00">diag_row_version</text>
<polygon fill="none" stroke="black" points="204,-79 204,-101 302,-101 302,-79 204,-79"/>
<text text-anchor="start" x="207" y="-87.2" font-family="Helvetica,sans-Serif" font-size="11.00">int8[19]</text>
<polygon fill="none" stroke="black" points="10,-57 10,-79 204,-79 204,-57 10,-57"/>
<text text-anchor="start" x="30" y="-65.2" font-family="Helvetica,sans-Serif" font-size="11.00">diag_update_count</text>
<polygon fill="none" stroke="black" points="204,-57 204,-79 302,-79 302,-57 204,-57"/>
<text text-anchor="start" x="207" y="-65.2" font-family="Helvetica,sans-Serif" font-size="11.00">int8[19]</text>
<polygon fill="#ffffff" stroke="transparent" points="10,-39 10,-57 111,-57 111,-39 10,-39"/>
<polygon fill="none" stroke="black" points="10,-39 10,-57 111,-57 111,-39 10,-39"/>
<text text-anchor="start" x="13" y="-45.2" font-family="Helvetica,sans-Serif" font-size="11.00">&lt; 0</text>
<polygon fill="#ffffff" stroke="transparent" points="111,-39 111,-57 204,-57 204,-39 111,-39"/>
<polygon fill="none" stroke="black" points="111,-39 111,-57 204,-57 204,-39 111,-39"/>
<text text-anchor="start" x="194" y="-45.2" font-family="Helvetica,sans-Serif" font-size="11.00"> &#160;</text>
<polygon fill="#ffffff" stroke="transparent" points="204,-39 204,-57 302,-57 302,-39 204,-39"/>
<polygon fill="none" stroke="black" points="204,-39 204,-57 302,-57 302,-39 204,-39"/>
<text text-anchor="start" x="283" y="-45.2" font-family="Helvetica,sans-Serif" font-size="11.00">2 &gt;</text>
<polygon fill="none" stroke="black" stroke-width="2" points="9,-38 9,-432 303,-432 303,-38 9,-38"/>
</a>
</g>
</g>
<!-- syst_enum_functional_types&#45;&gt;syst_enums -->
<g id="edge1" class="edge">
<title>syst_enum_functional_types:w&#45;&gt;syst_enums:e</title>
<path fill="none" stroke="black" d="M330.41,-399.06C321.16,-398.39 311.96,-398 303,-398"/>
<polygon fill="black" stroke="black" points="337,-399.65 344.65,-403.94 340.98,-400 344.97,-400.35 344.97,-400.35 344.97,-400.35 340.98,-400 345.28,-396.77 337,-399.65 337,-399.65"/>
<ellipse fill="none" stroke="black" cx="333.81" cy="-399.36" rx="3.2" ry="3.2"/>
</g>
<!-- syst_enum_items -->
<g id="node3" class="node">
<title>syst_enum_items</title>
<g id="a_node3"><a xlink:href="../../tables/syst_enum_items.html" xlink:title="syst_enum_items" target="_top">
<polygon fill="#ffffff" stroke="transparent" points="631,-368 631,-426 786,-426 786,-368 631,-368"/>
<polygon fill="#f5f5f5" stroke="transparent" points="631.5,-404 631.5,-426 786.5,-426 786.5,-404 631.5,-404"/>
<polygon fill="none" stroke="black" points="631.5,-404 631.5,-426 786.5,-426 786.5,-404 631.5,-404"/>
<text text-anchor="start" x="636.5" y="-413.2" font-family="Helvetica,sans-Serif" font-weight="bold" font-size="11.00">syst_enum_items</text>
<text text-anchor="start" x="751.5" y="-412.2" font-family="Helvetica,sans-Serif" font-size="11.00">[table]</text>
<polygon fill="none" stroke="black" points="631.5,-386 631.5,-404 786.5,-404 786.5,-386 631.5,-386"/>
<text text-anchor="start" x="634.5" y="-392.2" font-family="Helvetica,sans-Serif" font-size="11.00">...</text>
<polygon fill="#ffffff" stroke="transparent" points="631.5,-368 631.5,-386 702.5,-386 702.5,-368 631.5,-368"/>
<polygon fill="none" stroke="black" points="631.5,-368 631.5,-386 702.5,-386 702.5,-368 631.5,-368"/>
<text text-anchor="start" x="634.5" y="-374.2" font-family="Helvetica,sans-Serif" font-size="11.00">&lt; 2</text>
<polygon fill="#ffffff" stroke="transparent" points="702.5,-368 702.5,-386 739.5,-386 739.5,-368 702.5,-368"/>
<polygon fill="none" stroke="black" points="702.5,-368 702.5,-386 739.5,-386 739.5,-368 702.5,-368"/>
<text text-anchor="start" x="729.5" y="-374.2" font-family="Helvetica,sans-Serif" font-size="11.00"> &#160;</text>
<polygon fill="#ffffff" stroke="transparent" points="739.5,-368 739.5,-386 786.5,-386 786.5,-368 739.5,-368"/>
<polygon fill="none" stroke="black" points="739.5,-368 739.5,-386 786.5,-386 786.5,-368 739.5,-368"/>
<text text-anchor="start" x="767.5" y="-374.2" font-family="Helvetica,sans-Serif" font-size="11.00">1 &gt;</text>
</a>
</g>
</g>
<!-- syst_enum_items&#45;&gt;syst_enum_functional_types -->
<g id="edge3" class="edge">
<title>syst_enum_items:w&#45;&gt;syst_enum_functional_types:e</title>
<path fill="none" stroke="black" d="M608.52,-408.18C602.48,-408.86 596.37,-409.55 590.25,-410.25"/>
<polygon fill="black" stroke="black" points="614.95,-407.46 623.31,-410.13 618.93,-407.01 622.9,-406.56 622.9,-406.56 622.9,-406.56 618.93,-407.01 622.5,-402.98 614.95,-407.46 614.95,-407.46"/>
<ellipse fill="none" stroke="black" cx="611.77" cy="-407.81" rx="3.2" ry="3.2"/>
</g>
<!-- syst_enum_items&#45;&gt;syst_enums -->
<g id="edge2" class="edge">
<title>syst_enum_items:w&#45;&gt;syst_enums:e</title>
<path fill="none" stroke="black" d="M608.36,-385.25C602.15,-384.76 595.99,-384.33 590,-384 481.28,-378 452.48,-366.56 345,-384 325.58,-387.15 322.68,-398 303,-398"/>
<polygon fill="black" stroke="black" points="614.9,-385.82 622.56,-390.1 618.89,-386.16 622.87,-386.51 622.87,-386.51 622.87,-386.51 618.89,-386.16 623.19,-382.92 614.9,-385.82 614.9,-385.82"/>
<ellipse fill="none" stroke="black" cx="611.72" cy="-385.54" rx="3.2" ry="3.2"/>
</g>
<!-- syst_menus -->
<g id="node4" class="node">
<title>syst_menus</title>
<g id="a_node4"><a xlink:href="../../tables/syst_menus.html" xlink:title="syst_menus" target="_top">
<polygon fill="#ffffff" stroke="transparent" points="835,-370 835,-428 953,-428 953,-370 835,-370"/>
<polygon fill="#f5f5f5" stroke="transparent" points="835,-406 835,-428 953,-428 953,-406 835,-406"/>
<polygon fill="none" stroke="black" points="835,-406 835,-428 953,-428 953,-406 835,-406"/>
<text text-anchor="start" x="840" y="-415.2" font-family="Helvetica,sans-Serif" font-weight="bold" font-size="11.00">syst_menus</text>
<text text-anchor="start" x="918" y="-414.2" font-family="Helvetica,sans-Serif" font-size="11.00">[table]</text>
<polygon fill="none" stroke="black" points="835,-388 835,-406 953,-406 953,-388 835,-388"/>
<text text-anchor="start" x="838" y="-394.2" font-family="Helvetica,sans-Serif" font-size="11.00">...</text>
<polygon fill="#ffffff" stroke="transparent" points="835,-370 835,-388 887,-388 887,-370 835,-370"/>
<polygon fill="none" stroke="black" points="835,-370 835,-388 887,-388 887,-370 835,-370"/>
<text text-anchor="start" x="838" y="-376.2" font-family="Helvetica,sans-Serif" font-size="11.00">&lt; 1</text>
<polygon fill="#ffffff" stroke="transparent" points="887,-370 887,-388 915,-388 915,-370 887,-370"/>
<polygon fill="none" stroke="black" points="887,-370 887,-388 915,-388 915,-370 887,-370"/>
<text text-anchor="start" x="905" y="-376.2" font-family="Helvetica,sans-Serif" font-size="11.00"> &#160;</text>
<polygon fill="#ffffff" stroke="transparent" points="915,-370 915,-388 953,-388 953,-370 915,-370"/>
<polygon fill="none" stroke="black" points="915,-370 915,-388 953,-388 953,-370 915,-370"/>
<text text-anchor="start" x="934" y="-376.2" font-family="Helvetica,sans-Serif" font-size="11.00">2 &gt;</text>
</a>
</g>
</g>
<!-- syst_menus&#45;&gt;syst_enum_items -->
<g id="edge4" class="edge">
<title>syst_menus:w&#45;&gt;syst_enum_items:e</title>
<path fill="none" stroke="black" d="M819.58,-397C811.19,-397 802.64,-397 794.22,-397"/>
<polygon fill="black" stroke="black" points="826,-397 834,-400.6 830,-397 834,-397 834,-397 834,-397 830,-397 834,-393.4 826,-397 826,-397"/>
<ellipse fill="none" stroke="black" cx="822.8" cy="-397" rx="3.2" ry="3.2"/>
</g>
</g>
</svg>
