<?xml version="1.0" encoding="UTF-8" standalone="no"?>
<!DOCTYPE svg PUBLIC "-//W3C//DTD SVG 1.1//EN"
 "http://www.w3.org/Graphics/SVG/1.1/DTD/svg11.dtd">
<!-- Generated by graphviz version 2.43.0 (0)
 -->
<!-- Title: twoDegreesRelationshipsDiagram Pages: 1 -->
<svg width="825pt" height="641pt"
 viewBox="0.00 0.00 825.00 641.00" xmlns="http://www.w3.org/2000/svg" xmlns:xlink="http://www.w3.org/1999/xlink">
<g id="graph0" class="graph" transform="scale(1 1) rotate(0) translate(4 637)">
<title>twoDegreesRelationshipsDiagram</title>
<polygon fill="#ffffff" stroke="transparent" points="-4,4 -4,-637 821,-637 821,4 -4,4"/>
<text text-anchor="middle" x="71.5" y="-7.2" font-family="Helvetica,sans-Serif" font-size="11.00">Generated by SchemaSpy</text>
<!-- syst_actions -->
<g id="node1" class="node">
<title>syst_actions</title>
<g id="a_node1"><a xlink:href="../../tables/syst_actions.html" xlink:title="syst_actions" target="_top">
<polygon fill="#ffffff" stroke="transparent" points="251,-37 251,-477 566,-477 566,-37 251,-37"/>
<polygon fill="#f5f5f5" stroke="transparent" points="253.5,-453 253.5,-475 564.5,-475 564.5,-453 253.5,-453"/>
<polygon fill="none" stroke="black" points="253.5,-453 253.5,-475 564.5,-475 564.5,-453 253.5,-453"/>
<text text-anchor="start" x="258.5" y="-462.2" font-family="Helvetica,sans-Serif" font-weight="bold" font-size="11.00">syst_actions</text>
<text text-anchor="start" x="529.5" y="-461.2" font-family="Helvetica,sans-Serif" font-size="11.00">[table]</text>
<polygon fill="none" stroke="black" points="253.5,-431 253.5,-453 447.5,-453 447.5,-431 253.5,-431"/>
<image xlink:href="../../images/primaryKeys.png" width="11px" height="12px" preserveAspectRatio="xMinYMin meet" x="258.5" y="-448"/>
<text text-anchor="start" x="273.5" y="-439.2" font-family="Helvetica,sans-Serif" font-size="11.00">id</text>
<polygon fill="none" stroke="black" points="447.5,-431 447.5,-453 564.5,-453 564.5,-431 447.5,-431"/>
<text text-anchor="start" x="450.5" y="-439.2" font-family="Helvetica,sans-Serif" font-size="11.00">uuid[2147483647]</text>
<polygon fill="#ffffff" stroke="transparent" points="253.5,-409 253.5,-431 447.5,-431 447.5,-409 253.5,-409"/>
<polygon fill="none" stroke="black" points="253.5,-409 253.5,-431 447.5,-431 447.5,-409 253.5,-409"/>
<text text-anchor="start" x="273.5" y="-417.2" font-family="Helvetica,sans-Serif" font-size="11.00">internal_name</text>
<polygon fill="none" stroke="black" points="447.5,-409 447.5,-431 564.5,-431 564.5,-409 447.5,-409"/>
<text text-anchor="start" x="450.5" y="-417.2" font-family="Helvetica,sans-Serif" font-size="11.00">text[2147483647]</text>
<polygon fill="#ffffff" stroke="transparent" points="253.5,-387 253.5,-409 447.5,-409 447.5,-387 253.5,-387"/>
<polygon fill="none" stroke="black" points="253.5,-387 253.5,-409 447.5,-409 447.5,-387 253.5,-387"/>
<text text-anchor="start" x="273.5" y="-395.2" font-family="Helvetica,sans-Serif" font-size="11.00">display_name</text>
<polygon fill="none" stroke="black" points="447.5,-387 447.5,-409 564.5,-409 564.5,-387 447.5,-387"/>
<text text-anchor="start" x="450.5" y="-395.2" font-family="Helvetica,sans-Serif" font-size="11.00">text[2147483647]</text>
<polygon fill="none" stroke="black" points="253.5,-365 253.5,-387 447.5,-387 447.5,-365 253.5,-365"/>
<text text-anchor="start" x="273.5" y="-373.2" font-family="Helvetica,sans-Serif" font-size="11.00">external_name</text>
<polygon fill="none" stroke="black" points="447.5,-365 447.5,-387 564.5,-387 564.5,-365 447.5,-365"/>
<text text-anchor="start" x="450.5" y="-373.2" font-family="Helvetica,sans-Serif" font-size="11.00">text[2147483647]</text>
<polygon fill="#ffffff" stroke="transparent" points="253.5,-343 253.5,-365 447.5,-365 447.5,-343 253.5,-343"/>
<polygon fill="none" stroke="black" points="253.5,-343 253.5,-365 447.5,-365 447.5,-343 253.5,-343"/>
<image xlink:href="../../images/foreignKeys.png" width="11px" height="12px" preserveAspectRatio="xMinYMin meet" x="258.5" y="-360"/>
<text text-anchor="start" x="273.5" y="-351.2" font-family="Helvetica,sans-Serif" font-size="11.00">action_group_id</text>
<polygon fill="none" stroke="black" points="447.5,-343 447.5,-365 564.5,-365 564.5,-343 447.5,-343"/>
<text text-anchor="start" x="450.5" y="-351.2" font-family="Helvetica,sans-Serif" font-size="11.00">uuid[2147483647]</text>
<polygon fill="#ffffff" stroke="transparent" points="253.5,-321 253.5,-343 447.5,-343 447.5,-321 253.5,-321"/>
<polygon fill="none" stroke="black" points="253.5,-321 253.5,-343 447.5,-343 447.5,-321 253.5,-321"/>
<text text-anchor="start" x="273.5" y="-329.2" font-family="Helvetica,sans-Serif" font-size="11.00">command</text>
<polygon fill="none" stroke="black" points="447.5,-321 447.5,-343 564.5,-343 564.5,-321 447.5,-321"/>
<text text-anchor="start" x="450.5" y="-329.2" font-family="Helvetica,sans-Serif" font-size="11.00">text[2147483647]</text>
<polygon fill="none" stroke="black" points="253.5,-299 253.5,-321 447.5,-321 447.5,-299 253.5,-299"/>
<text text-anchor="start" x="273.5" y="-307.2" font-family="Helvetica,sans-Serif" font-size="11.00">command_config</text>
<polygon fill="none" stroke="black" points="447.5,-299 447.5,-321 564.5,-321 564.5,-299 447.5,-299"/>
<text text-anchor="start" x="450.5" y="-307.2" font-family="Helvetica,sans-Serif" font-size="11.00">regconfig[2147483647]</text>
<polygon fill="none" stroke="black" points="253.5,-277 253.5,-299 447.5,-299 447.5,-277 253.5,-277"/>
<text text-anchor="start" x="273.5" y="-285.2" font-family="Helvetica,sans-Serif" font-size="11.00">command_aliases</text>
<polygon fill="none" stroke="black" points="447.5,-277 447.5,-299 564.5,-299 564.5,-277 447.5,-277"/>
<text text-anchor="start" x="450.5" y="-285.2" font-family="Helvetica,sans-Serif" font-size="11.00">_text[2147483647]</text>
<polygon fill="#ffffff" stroke="transparent" points="253.5,-255 253.5,-277 447.5,-277 447.5,-255 253.5,-255"/>
<polygon fill="none" stroke="black" points="253.5,-255 253.5,-277 447.5,-277 447.5,-255 253.5,-255"/>
<text text-anchor="start" x="273.5" y="-263.2" font-family="Helvetica,sans-Serif" font-size="11.00">command_search</text>
<polygon fill="none" stroke="black" points="447.5,-255 447.5,-277 564.5,-277 564.5,-255 447.5,-255"/>
<text text-anchor="start" x="450.5" y="-263.2" font-family="Helvetica,sans-Serif" font-size="11.00">tsvector[2147483647]</text>
<polygon fill="none" stroke="black" points="253.5,-233 253.5,-255 447.5,-255 447.5,-233 253.5,-233"/>
<text text-anchor="start" x="273.5" y="-241.2" font-family="Helvetica,sans-Serif" font-size="11.00">syst_description</text>
<polygon fill="none" stroke="black" points="447.5,-233 447.5,-255 564.5,-255 564.5,-233 447.5,-233"/>
<text text-anchor="start" x="450.5" y="-241.2" font-family="Helvetica,sans-Serif" font-size="11.00">text[2147483647]</text>
<polygon fill="none" stroke="black" points="253.5,-211 253.5,-233 447.5,-233 447.5,-211 253.5,-211"/>
<text text-anchor="start" x="273.5" y="-219.2" font-family="Helvetica,sans-Serif" font-size="11.00">user_description</text>
<polygon fill="none" stroke="black" points="447.5,-211 447.5,-233 564.5,-233 564.5,-211 447.5,-211"/>
<text text-anchor="start" x="450.5" y="-219.2" font-family="Helvetica,sans-Serif" font-size="11.00">text[2147483647]</text>
<polygon fill="none" stroke="black" points="253.5,-189 253.5,-211 447.5,-211 447.5,-189 253.5,-189"/>
<text text-anchor="start" x="273.5" y="-197.2" font-family="Helvetica,sans-Serif" font-size="11.00">diag_timestamp_created</text>
<polygon fill="none" stroke="black" points="447.5,-189 447.5,-211 564.5,-211 564.5,-189 447.5,-189"/>
<text text-anchor="start" x="450.5" y="-197.2" font-family="Helvetica,sans-Serif" font-size="11.00">timestamptz[35,6]</text>
<polygon fill="none" stroke="black" points="253.5,-167 253.5,-189 447.5,-189 447.5,-167 253.5,-167"/>
<text text-anchor="start" x="273.5" y="-175.2" font-family="Helvetica,sans-Serif" font-size="11.00">diag_role_created</text>
<polygon fill="none" stroke="black" points="447.5,-167 447.5,-189 564.5,-189 564.5,-167 447.5,-167"/>
<text text-anchor="start" x="450.5" y="-175.2" font-family="Helvetica,sans-Serif" font-size="11.00">text[2147483647]</text>
<polygon fill="none" stroke="black" points="253.5,-145 253.5,-167 447.5,-167 447.5,-145 253.5,-145"/>
<text text-anchor="start" x="273.5" y="-153.2" font-family="Helvetica,sans-Serif" font-size="11.00">diag_timestamp_modified</text>
<polygon fill="none" stroke="black" points="447.5,-145 447.5,-167 564.5,-167 564.5,-145 447.5,-145"/>
<text text-anchor="start" x="450.5" y="-153.2" font-family="Helvetica,sans-Serif" font-size="11.00">timestamptz[35,6]</text>
<polygon fill="none" stroke="black" points="253.5,-123 253.5,-145 447.5,-145 447.5,-123 253.5,-123"/>
<text text-anchor="start" x="273.5" y="-131.2" font-family="Helvetica,sans-Serif" font-size="11.00">diag_wallclock_modified</text>
<polygon fill="none" stroke="black" points="447.5,-123 447.5,-145 564.5,-145 564.5,-123 447.5,-123"/>
<text text-anchor="start" x="450.5" y="-131.2" font-family="Helvetica,sans-Serif" font-size="11.00">timestamptz[35,6]</text>
<polygon fill="none" stroke="black" points="253.5,-101 253.5,-123 447.5,-123 447.5,-101 253.5,-101"/>
<text text-anchor="start" x="273.5" y="-109.2" font-family="Helvetica,sans-Serif" font-size="11.00">diag_role_modified</text>
<polygon fill="none" stroke="black" points="447.5,-101 447.5,-123 564.5,-123 564.5,-101 447.5,-101"/>
<text text-anchor="start" x="450.5" y="-109.2" font-family="Helvetica,sans-Serif" font-size="11.00">text[2147483647]</text>
<polygon fill="none" stroke="black" points="253.5,-79 253.5,-101 447.5,-101 447.5,-79 253.5,-79"/>
<text text-anchor="start" x="273.5" y="-87.2" font-family="Helvetica,sans-Serif" font-size="11.00">diag_row_version</text>
<polygon fill="none" stroke="black" points="447.5,-79 447.5,-101 564.5,-101 564.5,-79 447.5,-79"/>
<text text-anchor="start" x="450.5" y="-87.2" font-family="Helvetica,sans-Serif" font-size="11.00">int8[19]</text>
<polygon fill="none" stroke="black" points="253.5,-57 253.5,-79 447.5,-79 447.5,-57 253.5,-57"/>
<text text-anchor="start" x="273.5" y="-65.2" font-family="Helvetica,sans-Serif" font-size="11.00">diag_update_count</text>
<polygon fill="none" stroke="black" points="447.5,-57 447.5,-79 564.5,-79 564.5,-57 447.5,-57"/>
<text text-anchor="start" x="450.5" y="-65.2" font-family="Helvetica,sans-Serif" font-size="11.00">int8[19]</text>
<polygon fill="#ffffff" stroke="transparent" points="253.5,-39 253.5,-57 354.5,-57 354.5,-39 253.5,-39"/>
<polygon fill="none" stroke="black" points="253.5,-39 253.5,-57 354.5,-57 354.5,-39 253.5,-39"/>
<text text-anchor="start" x="256.5" y="-45.2" font-family="Helvetica,sans-Serif" font-size="11.00">&lt; 1</text>
<polygon fill="#ffffff" stroke="transparent" points="354.5,-39 354.5,-57 447.5,-57 447.5,-39 354.5,-39"/>
<polygon fill="none" stroke="black" points="354.5,-39 354.5,-57 447.5,-57 447.5,-39 354.5,-39"/>
<text text-anchor="start" x="437.5" y="-45.2" font-family="Helvetica,sans-Serif" font-size="11.00"> &#160;</text>
<polygon fill="#ffffff" stroke="transparent" points="447.5,-39 447.5,-57 564.5,-57 564.5,-39 447.5,-39"/>
<polygon fill="none" stroke="black" points="447.5,-39 447.5,-57 564.5,-57 564.5,-39 447.5,-39"/>
<text text-anchor="start" x="545.5" y="-45.2" font-family="Helvetica,sans-Serif" font-size="11.00">1 &gt;</text>
<polygon fill="none" stroke="black" stroke-width="2" points="252,-38 252,-476 565,-476 565,-38 252,-38"/>
</a>
</g>
</g>
<!-- syst_action_groups -->
<g id="node2" class="node">
<title>syst_action_groups</title>
<g id="a_node2"><a xlink:href="../../tables/syst_action_groups.html" xlink:title="syst_action_groups" target="_top">
<polygon fill="#ffffff" stroke="transparent" points="8,-219 8,-387 202,-387 202,-219 8,-219"/>
<polygon fill="#f5f5f5" stroke="transparent" points="8,-365 8,-387 202,-387 202,-365 8,-365"/>
<polygon fill="none" stroke="black" points="8,-365 8,-387 202,-387 202,-365 8,-365"/>
<text text-anchor="start" x="13" y="-374.2" font-family="Helvetica,sans-Serif" font-weight="bold" font-size="11.00">syst_action_groups</text>
<text text-anchor="start" x="167" y="-373.2" font-family="Helvetica,sans-Serif" font-size="11.00">[table]</text>
<polygon fill="none" stroke="black" points="8,-343 8,-365 202,-365 202,-343 8,-343"/>
<image xlink:href="../../images/primaryKeys.png" width="11px" height="12px" preserveAspectRatio="xMinYMin meet" x="13" y="-360"/>
<text text-anchor="start" x="28" y="-351.2" font-family="Helvetica,sans-Serif" font-size="11.00">id</text>
<polygon fill="#ffffff" stroke="transparent" points="8,-321 8,-343 202,-343 202,-321 8,-321"/>
<polygon fill="none" stroke="black" points="8,-321 8,-343 202,-343 202,-321 8,-321"/>
<text text-anchor="start" x="28" y="-329.2" font-family="Helvetica,sans-Serif" font-size="11.00">internal_name</text>
<polygon fill="#ffffff" stroke="transparent" points="8,-299 8,-321 202,-321 202,-299 8,-299"/>
<polygon fill="none" stroke="black" points="8,-299 8,-321 202,-321 202,-299 8,-299"/>
<text text-anchor="start" x="28" y="-307.2" font-family="Helvetica,sans-Serif" font-size="11.00">display_name</text>
<polygon fill="#ffffff" stroke="transparent" points="8,-277 8,-299 202,-299 202,-277 8,-277"/>
<polygon fill="none" stroke="black" points="8,-277 8,-299 202,-299 202,-277 8,-277"/>
<text text-anchor="start" x="28" y="-285.2" font-family="Helvetica,sans-Serif" font-size="11.00">command</text>
<polygon fill="#ffffff" stroke="transparent" points="8,-255 8,-277 202,-277 202,-255 8,-255"/>
<polygon fill="none" stroke="black" points="8,-255 8,-277 202,-277 202,-255 8,-255"/>
<text text-anchor="start" x="28" y="-263.2" font-family="Helvetica,sans-Serif" font-size="11.00">command_search</text>
<polygon fill="none" stroke="black" points="8,-237 8,-255 202,-255 202,-237 8,-237"/>
<text text-anchor="start" x="11" y="-243.2" font-family="Helvetica,sans-Serif" font-size="11.00">...</text>
<polygon fill="#ffffff" stroke="transparent" points="8,-219 8,-237 94,-237 94,-219 8,-219"/>
<polygon fill="none" stroke="black" points="8,-219 8,-237 94,-237 94,-219 8,-219"/>
<text text-anchor="start" x="11" y="-225.2" font-family="Helvetica,sans-Serif" font-size="11.00"> &#160;</text>
<polygon fill="#ffffff" stroke="transparent" points="94,-219 94,-237 143,-237 143,-219 94,-219"/>
<polygon fill="none" stroke="black" points="94,-219 94,-237 143,-237 143,-219 94,-219"/>
<text text-anchor="start" x="133" y="-225.2" font-family="Helvetica,sans-Serif" font-size="11.00"> &#160;</text>
<polygon fill="#ffffff" stroke="transparent" points="143,-219 143,-237 202,-237 202,-219 143,-219"/>
<polygon fill="none" stroke="black" points="143,-219 143,-237 202,-237 202,-219 143,-219"/>
<text text-anchor="start" x="183" y="-225.2" font-family="Helvetica,sans-Serif" font-size="11.00">1 &gt;</text>
</a>
</g>
</g>
<!-- syst_actions&#45;&gt;syst_action_groups -->
<g id="edge1" class="edge">
<title>syst_actions:w&#45;&gt;syst_action_groups:e</title>
<path fill="none" stroke="black" d="M237.84,-354C226.41,-354 219.16,-354 203,-354"/>
<polygon fill="black" stroke="black" points="244.5,-354 252.5,-357.6 248.5,-354 252.5,-354 252.5,-354 252.5,-354 248.5,-354 252.5,-350.4 244.5,-354 244.5,-354"/>
<ellipse fill="none" stroke="black" cx="241.3" cy="-354" rx="3.2" ry="3.2"/>
</g>
<!-- syst_menu_items -->
<g id="node3" class="node">
<title>syst_menu_items</title>
<g id="a_node3"><a xlink:href="../../tables/syst_menu_items.html" xlink:title="syst_menu_items" target="_top">
<polygon fill="#ffffff" stroke="transparent" points="615,-395 615,-629 809,-629 809,-395 615,-395"/>
<polygon fill="#f5f5f5" stroke="transparent" points="615,-607 615,-629 809,-629 809,-607 615,-607"/>
<polygon fill="none" stroke="black" points="615,-607 615,-629 809,-629 809,-607 615,-607"/>
<text text-anchor="start" x="620" y="-616.2" font-family="Helvetica,sans-Serif" font-weight="bold" font-size="11.00">syst_menu_items</text>
<text text-anchor="start" x="774" y="-615.2" font-family="Helvetica,sans-Serif" font-size="11.00">[table]</text>
<polygon fill="none" stroke="black" points="615,-585 615,-607 809,-607 809,-585 615,-585"/>
<image xlink:href="../../images/primaryKeys.png" width="11px" height="12px" preserveAspectRatio="xMinYMin meet" x="620" y="-602"/>
<text text-anchor="start" x="635" y="-593.2" font-family="Helvetica,sans-Serif" font-size="11.00">id</text>
<polygon fill="#ffffff" stroke="transparent" points="615,-563 615,-585 809,-585 809,-563 615,-563"/>
<polygon fill="none" stroke="black" points="615,-563 615,-585 809,-585 809,-563 615,-563"/>
<text text-anchor="start" x="635" y="-571.2" font-family="Helvetica,sans-Serif" font-size="11.00">internal_name</text>
<polygon fill="#ffffff" stroke="transparent" points="615,-541 615,-563 809,-563 809,-541 615,-541"/>
<polygon fill="none" stroke="black" points="615,-541 615,-563 809,-563 809,-541 615,-541"/>
<text text-anchor="start" x="635" y="-549.2" font-family="Helvetica,sans-Serif" font-size="11.00">display_name</text>
<polygon fill="#ffffff" stroke="transparent" points="615,-519 615,-541 809,-541 809,-519 615,-519"/>
<polygon fill="none" stroke="black" points="615,-519 615,-541 809,-541 809,-519 615,-519"/>
<image xlink:href="../../images/foreignKeys.png" width="11px" height="12px" preserveAspectRatio="xMinYMin meet" x="620" y="-536"/>
<text text-anchor="start" x="635" y="-527.2" font-family="Helvetica,sans-Serif" font-size="11.00">menu_id</text>
<polygon fill="#ffffff" stroke="transparent" points="615,-497 615,-519 809,-519 809,-497 615,-497"/>
<polygon fill="none" stroke="black" points="615,-497 615,-519 809,-519 809,-497 615,-497"/>
<image xlink:href="../../images/foreignKeys.png" width="11px" height="12px" preserveAspectRatio="xMinYMin meet" x="620" y="-514"/>
<text text-anchor="start" x="635" y="-505.2" font-family="Helvetica,sans-Serif" font-size="11.00">parent_menu_item_id</text>
<polygon fill="#ffffff" stroke="transparent" points="615,-475 615,-497 809,-497 809,-475 615,-475"/>
<polygon fill="none" stroke="black" points="615,-475 615,-497 809,-497 809,-475 615,-475"/>
<text text-anchor="start" x="635" y="-483.2" font-family="Helvetica,sans-Serif" font-size="11.00">sort_order</text>
<polygon fill="none" stroke="black" points="615,-453 615,-475 809,-475 809,-453 615,-453"/>
<image xlink:href="../../images/foreignKeys.png" width="11px" height="12px" preserveAspectRatio="xMinYMin meet" x="620" y="-470"/>
<text text-anchor="start" x="635" y="-461.2" font-family="Helvetica,sans-Serif" font-size="11.00">submenu_menu_id</text>
<polygon fill="none" stroke="black" points="615,-431 615,-453 809,-453 809,-431 615,-431"/>
<image xlink:href="../../images/foreignKeys.png" width="11px" height="12px" preserveAspectRatio="xMinYMin meet" x="620" y="-448"/>
<text text-anchor="start" x="635" y="-439.2" font-family="Helvetica,sans-Serif" font-size="11.00">action_id</text>
<polygon fill="none" stroke="black" points="615,-413 615,-431 809,-431 809,-413 615,-413"/>
<text text-anchor="start" x="618" y="-419.2" font-family="Helvetica,sans-Serif" font-size="11.00">...</text>
<polygon fill="#ffffff" stroke="transparent" points="615,-395 615,-413 705,-413 705,-395 615,-395"/>
<polygon fill="none" stroke="black" points="615,-395 615,-413 705,-413 705,-395 615,-395"/>
<text text-anchor="start" x="618" y="-401.2" font-family="Helvetica,sans-Serif" font-size="11.00">&lt; 4</text>
<polygon fill="#ffffff" stroke="transparent" points="705,-395 705,-413 752,-413 752,-395 705,-395"/>
<polygon fill="none" stroke="black" points="705,-395 705,-413 752,-413 752,-395 705,-395"/>
<text text-anchor="start" x="742" y="-401.2" font-family="Helvetica,sans-Serif" font-size="11.00"> &#160;</text>
<polygon fill="#ffffff" stroke="transparent" points="752,-395 752,-413 809,-413 809,-395 752,-395"/>
<polygon fill="none" stroke="black" points="752,-395 752,-413 809,-413 809,-395 752,-395"/>
<text text-anchor="start" x="790" y="-401.2" font-family="Helvetica,sans-Serif" font-size="11.00">1 &gt;</text>
</a>
</g>
</g>
<!-- syst_menu_items&#45;&gt;syst_actions -->
<g id="edge2" class="edge">
<title>syst_menu_items:w&#45;&gt;syst_actions:e</title>
<path fill="none" stroke="black" d="M599.28,-442C588.29,-442 581.16,-442 565.5,-442"/>
<polygon fill="black" stroke="black" points="606,-442 614,-445.6 610,-442 614,-442 614,-442 614,-442 610,-442 614,-438.4 606,-442 606,-442"/>
<ellipse fill="none" stroke="black" cx="602.8" cy="-442" rx="3.2" ry="3.2"/>
</g>
<!-- syst_menus -->
<g id="node4" class="node">
<title>syst_menus</title>
<g id="a_node4"><a xlink:href="../../tables/syst_menus.html" xlink:title="syst_menus" target="_top">
<polygon fill="#ffffff" stroke="transparent" points="349.5,-500 349.5,-558 467.5,-558 467.5,-500 349.5,-500"/>
<polygon fill="#f5f5f5" stroke="transparent" points="349.5,-536 349.5,-558 467.5,-558 467.5,-536 349.5,-536"/>
<polygon fill="none" stroke="black" points="349.5,-536 349.5,-558 467.5,-558 467.5,-536 349.5,-536"/>
<text text-anchor="start" x="354.5" y="-545.2" font-family="Helvetica,sans-Serif" font-weight="bold" font-size="11.00">syst_menus</text>
<text text-anchor="start" x="432.5" y="-544.2" font-family="Helvetica,sans-Serif" font-size="11.00">[table]</text>
<polygon fill="none" stroke="black" points="349.5,-518 349.5,-536 467.5,-536 467.5,-518 349.5,-518"/>
<text text-anchor="start" x="352.5" y="-524.2" font-family="Helvetica,sans-Serif" font-size="11.00">...</text>
<polygon fill="#ffffff" stroke="transparent" points="349.5,-500 349.5,-518 401.5,-518 401.5,-500 349.5,-500"/>
<polygon fill="none" stroke="black" points="349.5,-500 349.5,-518 401.5,-518 401.5,-500 349.5,-500"/>
<text text-anchor="start" x="352.5" y="-506.2" font-family="Helvetica,sans-Serif" font-size="11.00">&lt; 1</text>
<polygon fill="#ffffff" stroke="transparent" points="401.5,-500 401.5,-518 429.5,-518 429.5,-500 401.5,-500"/>
<polygon fill="none" stroke="black" points="401.5,-500 401.5,-518 429.5,-518 429.5,-500 401.5,-500"/>
<text text-anchor="start" x="419.5" y="-506.2" font-family="Helvetica,sans-Serif" font-size="11.00"> &#160;</text>
<polygon fill="#ffffff" stroke="transparent" points="429.5,-500 429.5,-518 467.5,-518 467.5,-500 429.5,-500"/>
<polygon fill="none" stroke="black" points="429.5,-500 429.5,-518 467.5,-518 467.5,-500 429.5,-500"/>
<text text-anchor="start" x="448.5" y="-506.2" font-family="Helvetica,sans-Serif" font-size="11.00">2 &gt;</text>
</a>
</g>
</g>
<!-- syst_menu_items&#45;&gt;syst_menus -->
<g id="edge3" class="edge">
<title>syst_menu_items:w&#45;&gt;syst_menus:e</title>
<path fill="none" stroke="black" d="M599.35,-529.95C546.42,-529.54 528,-527 468.5,-527"/>
<polygon fill="black" stroke="black" points="606,-529.97 613.99,-533.6 610,-529.99 614,-530 614,-530 614,-530 610,-529.99 614.01,-526.4 606,-529.97 606,-529.97"/>
<ellipse fill="none" stroke="black" cx="602.8" cy="-529.96" rx="3.2" ry="3.2"/>
</g>
<!-- syst_menu_items&#45;&gt;syst_menus -->
<g id="edge4" class="edge">
<title>syst_menu_items:w&#45;&gt;syst_menus:e</title>
<path fill="none" stroke="black" d="M599.93,-467.25C591.38,-471.97 587.03,-480.83 574,-487 528.68,-508.46 518.65,-527 468.5,-527"/>
<polygon fill="black" stroke="black" points="606.2,-465.8 614.81,-467.51 610.1,-464.9 614,-464 614,-464 614,-464 610.1,-464.9 613.19,-460.49 606.2,-465.8 606.2,-465.8"/>
<ellipse fill="none" stroke="black" cx="603.09" cy="-466.52" rx="3.2" ry="3.2"/>
</g>
</g>
</svg>
