<?xml version="1.0" encoding="UTF-8" standalone="no"?>
<!DOCTYPE svg PUBLIC "-//W3C//DTD SVG 1.1//EN"
 "http://www.w3.org/Graphics/SVG/1.1/DTD/svg11.dtd">
<!-- Generated by graphviz version 2.43.0 (0)
 -->
<!-- Title: twoDegreesRelationshipsDiagram Pages: 1 -->
<svg width="1212pt" height="641pt"
 viewBox="0.00 0.00 1212.00 641.00" xmlns="http://www.w3.org/2000/svg" xmlns:xlink="http://www.w3.org/1999/xlink">
<g id="graph0" class="graph" transform="scale(1 1) rotate(0) translate(4 637)">
<title>twoDegreesRelationshipsDiagram</title>
<polygon fill="#ffffff" stroke="transparent" points="-4,4 -4,-637 1208,-637 1208,4 -4,4"/>
<text text-anchor="middle" x="71.5" y="-7.2" font-family="Helvetica,sans-Serif" font-size="11.00">Generated by SchemaSpy</text>
<!-- syst_enum_functional_types -->
<g id="node1" class="node">
<title>syst_enum_functional_types</title>
<g id="a_node1"><a xlink:href="../../tables/syst_enum_functional_types.html" xlink:title="syst_enum_functional_types" target="_top">
<polygon fill="#ffffff" stroke="transparent" points="175,-375 175,-433 404,-433 404,-375 175,-375"/>
<polygon fill="#f5f5f5" stroke="transparent" points="175.5,-411 175.5,-433 404.5,-433 404.5,-411 175.5,-411"/>
<polygon fill="none" stroke="black" points="175.5,-411 175.5,-433 404.5,-433 404.5,-411 175.5,-411"/>
<text text-anchor="start" x="180.5" y="-420.2" font-family="Helvetica,sans-Serif" font-weight="bold" font-size="11.00">syst_enum_functional_types</text>
<text text-anchor="start" x="369.5" y="-419.2" font-family="Helvetica,sans-Serif" font-size="11.00">[table]</text>
<polygon fill="none" stroke="black" points="175.5,-393 175.5,-411 404.5,-411 404.5,-393 175.5,-393"/>
<text text-anchor="start" x="178.5" y="-399.2" font-family="Helvetica,sans-Serif" font-size="11.00">...</text>
<polygon fill="#ffffff" stroke="transparent" points="175.5,-375 175.5,-393 283.5,-393 283.5,-375 175.5,-375"/>
<polygon fill="none" stroke="black" points="175.5,-375 175.5,-393 283.5,-393 283.5,-375 175.5,-375"/>
<text text-anchor="start" x="178.5" y="-381.2" font-family="Helvetica,sans-Serif" font-size="11.00">&lt; 1</text>
<polygon fill="#ffffff" stroke="transparent" points="283.5,-375 283.5,-393 339.5,-393 339.5,-375 283.5,-375"/>
<polygon fill="none" stroke="black" points="283.5,-375 283.5,-393 339.5,-393 339.5,-375 283.5,-375"/>
<text text-anchor="start" x="329.5" y="-381.2" font-family="Helvetica,sans-Serif" font-size="11.00"> &#160;</text>
<polygon fill="#ffffff" stroke="transparent" points="339.5,-375 339.5,-393 404.5,-393 404.5,-375 339.5,-375"/>
<polygon fill="none" stroke="black" points="339.5,-375 339.5,-393 404.5,-393 404.5,-375 339.5,-375"/>
<text text-anchor="start" x="385.5" y="-381.2" font-family="Helvetica,sans-Serif" font-size="11.00">1 &gt;</text>
</a>
</g>
</g>
<!-- syst_enums -->
<g id="node2" class="node">
<title>syst_enums</title>
<g id="a_node2"><a xlink:href="../../tables/syst_enums.html" xlink:title="syst_enums" target="_top">
<polygon fill="#ffffff" stroke="transparent" points="8,-401 8,-459 126,-459 126,-401 8,-401"/>
<polygon fill="#f5f5f5" stroke="transparent" points="8,-437 8,-459 126,-459 126,-437 8,-437"/>
<polygon fill="none" stroke="black" points="8,-437 8,-459 126,-459 126,-437 8,-437"/>
<text text-anchor="start" x="13" y="-446.2" font-family="Helvetica,sans-Serif" font-weight="bold" font-size="11.00">syst_enums</text>
<text text-anchor="start" x="91" y="-445.2" font-family="Helvetica,sans-Serif" font-size="11.00">[table]</text>
<polygon fill="none" stroke="black" points="8,-419 8,-437 126,-437 126,-419 8,-419"/>
<text text-anchor="start" x="11" y="-425.2" font-family="Helvetica,sans-Serif" font-size="11.00">...</text>
<polygon fill="#ffffff" stroke="transparent" points="8,-401 8,-419 56,-419 56,-401 8,-401"/>
<polygon fill="none" stroke="black" points="8,-401 8,-419 56,-419 56,-401 8,-401"/>
<text text-anchor="start" x="11" y="-407.2" font-family="Helvetica,sans-Serif" font-size="11.00"> &#160;</text>
<polygon fill="#ffffff" stroke="transparent" points="56,-401 56,-419 86,-419 86,-401 56,-401"/>
<polygon fill="none" stroke="black" points="56,-401 56,-419 86,-419 86,-401 56,-401"/>
<text text-anchor="start" x="76" y="-407.2" font-family="Helvetica,sans-Serif" font-size="11.00"> &#160;</text>
<polygon fill="#ffffff" stroke="transparent" points="86,-401 86,-419 126,-419 126,-401 86,-401"/>
<polygon fill="none" stroke="black" points="86,-401 86,-419 126,-419 126,-401 86,-401"/>
<text text-anchor="start" x="107" y="-407.2" font-family="Helvetica,sans-Serif" font-size="11.00">2 &gt;</text>
</a>
</g>
</g>
<!-- syst_enum_functional_types&#45;&gt;syst_enums -->
<g id="edge1" class="edge">
<title>syst_enum_functional_types:w&#45;&gt;syst_enums:e</title>
<path fill="none" stroke="black" d="M152.55,-420.03C146.24,-420.77 140.05,-421.5 134.07,-422.21"/>
<polygon fill="black" stroke="black" points="159.02,-419.27 167.38,-421.91 162.99,-418.8 166.96,-418.33 166.96,-418.33 166.96,-418.33 162.99,-418.8 166.54,-414.76 159.02,-419.27 159.02,-419.27"/>
<ellipse fill="none" stroke="black" cx="155.84" cy="-419.64" rx="3.2" ry="3.2"/>
</g>
<!-- syst_enum_items -->
<g id="node3" class="node">
<title>syst_enum_items</title>
<g id="a_node3"><a xlink:href="../../tables/syst_enum_items.html" xlink:title="syst_enum_items" target="_top">
<polygon fill="#ffffff" stroke="transparent" points="453,-37 453,-565 749,-565 749,-37 453,-37"/>
<polygon fill="#f5f5f5" stroke="transparent" points="455,-541 455,-563 747,-563 747,-541 455,-541"/>
<polygon fill="none" stroke="black" points="455,-541 455,-563 747,-563 747,-541 455,-541"/>
<text text-anchor="start" x="460" y="-550.2" font-family="Helvetica,sans-Serif" font-weight="bold" font-size="11.00">syst_enum_items</text>
<text text-anchor="start" x="712" y="-549.2" font-family="Helvetica,sans-Serif" font-size="11.00">[table]</text>
<polygon fill="none" stroke="black" points="455,-519 455,-541 649,-541 649,-519 455,-519"/>
<image xlink:href="../../images/primaryKeys.png" width="11px" height="12px" preserveAspectRatio="xMinYMin meet" x="460" y="-536"/>
<text text-anchor="start" x="475" y="-527.2" font-family="Helvetica,sans-Serif" font-size="11.00">id</text>
<polygon fill="none" stroke="black" points="649,-519 649,-541 747,-541 747,-519 649,-519"/>
<text text-anchor="start" x="652" y="-527.2" font-family="Helvetica,sans-Serif" font-size="11.00">uuid[2147483647]</text>
<polygon fill="#ffffff" stroke="transparent" points="455,-497 455,-519 649,-519 649,-497 455,-497"/>
<polygon fill="none" stroke="black" points="455,-497 455,-519 649,-519 649,-497 455,-497"/>
<text text-anchor="start" x="475" y="-505.2" font-family="Helvetica,sans-Serif" font-size="11.00">internal_name</text>
<polygon fill="none" stroke="black" points="649,-497 649,-519 747,-519 747,-497 649,-497"/>
<text text-anchor="start" x="652" y="-505.2" font-family="Helvetica,sans-Serif" font-size="11.00">text[2147483647]</text>
<polygon fill="#ffffff" stroke="transparent" points="455,-475 455,-497 649,-497 649,-475 455,-475"/>
<polygon fill="none" stroke="black" points="455,-475 455,-497 649,-497 649,-475 455,-475"/>
<text text-anchor="start" x="475" y="-483.2" font-family="Helvetica,sans-Serif" font-size="11.00">display_name</text>
<polygon fill="none" stroke="black" points="649,-475 649,-497 747,-497 747,-475 649,-475"/>
<text text-anchor="start" x="652" y="-483.2" font-family="Helvetica,sans-Serif" font-size="11.00">text[2147483647]</text>
<polygon fill="none" stroke="black" points="455,-453 455,-475 649,-475 649,-453 455,-453"/>
<text text-anchor="start" x="475" y="-461.2" font-family="Helvetica,sans-Serif" font-size="11.00">external_name</text>
<polygon fill="none" stroke="black" points="649,-453 649,-475 747,-475 747,-453 649,-453"/>
<text text-anchor="start" x="652" y="-461.2" font-family="Helvetica,sans-Serif" font-size="11.00">text[2147483647]</text>
<polygon fill="none" stroke="black" points="455,-431 455,-453 649,-453 649,-431 455,-431"/>
<image xlink:href="../../images/foreignKeys.png" width="11px" height="12px" preserveAspectRatio="xMinYMin meet" x="460" y="-448"/>
<text text-anchor="start" x="475" y="-439.2" font-family="Helvetica,sans-Serif" font-size="11.00">enum_id</text>
<polygon fill="none" stroke="black" points="649,-431 649,-453 747,-453 747,-431 649,-431"/>
<text text-anchor="start" x="652" y="-439.2" font-family="Helvetica,sans-Serif" font-size="11.00">uuid[2147483647]</text>
<polygon fill="none" stroke="black" points="455,-409 455,-431 649,-431 649,-409 455,-409"/>
<image xlink:href="../../images/foreignKeys.png" width="11px" height="12px" preserveAspectRatio="xMinYMin meet" x="460" y="-426"/>
<text text-anchor="start" x="475" y="-417.2" font-family="Helvetica,sans-Serif" font-size="11.00">functional_type_id</text>
<polygon fill="none" stroke="black" points="649,-409 649,-431 747,-431 747,-409 649,-409"/>
<text text-anchor="start" x="652" y="-417.2" font-family="Helvetica,sans-Serif" font-size="11.00">uuid[2147483647]</text>
<polygon fill="none" stroke="black" points="455,-387 455,-409 649,-409 649,-387 455,-387"/>
<text text-anchor="start" x="475" y="-395.2" font-family="Helvetica,sans-Serif" font-size="11.00">enum_default</text>
<polygon fill="none" stroke="black" points="649,-387 649,-409 747,-409 747,-387 649,-387"/>
<text text-anchor="start" x="652" y="-395.2" font-family="Helvetica,sans-Serif" font-size="11.00">bool[1]</text>
<polygon fill="none" stroke="black" points="455,-365 455,-387 649,-387 649,-365 455,-365"/>
<text text-anchor="start" x="475" y="-373.2" font-family="Helvetica,sans-Serif" font-size="11.00">functional_type_default</text>
<polygon fill="none" stroke="black" points="649,-365 649,-387 747,-387 747,-365 649,-365"/>
<text text-anchor="start" x="652" y="-373.2" font-family="Helvetica,sans-Serif" font-size="11.00">bool[1]</text>
<polygon fill="none" stroke="black" points="455,-343 455,-365 649,-365 649,-343 455,-343"/>
<text text-anchor="start" x="475" y="-351.2" font-family="Helvetica,sans-Serif" font-size="11.00">syst_defined</text>
<polygon fill="none" stroke="black" points="649,-343 649,-365 747,-365 747,-343 649,-343"/>
<text text-anchor="start" x="652" y="-351.2" font-family="Helvetica,sans-Serif" font-size="11.00">bool[1]</text>
<polygon fill="none" stroke="black" points="455,-321 455,-343 649,-343 649,-321 455,-321"/>
<text text-anchor="start" x="475" y="-329.2" font-family="Helvetica,sans-Serif" font-size="11.00">user_maintainable</text>
<polygon fill="none" stroke="black" points="649,-321 649,-343 747,-343 747,-321 649,-321"/>
<text text-anchor="start" x="652" y="-329.2" font-family="Helvetica,sans-Serif" font-size="11.00">bool[1]</text>
<polygon fill="none" stroke="black" points="455,-299 455,-321 649,-321 649,-299 455,-299"/>
<text text-anchor="start" x="475" y="-307.2" font-family="Helvetica,sans-Serif" font-size="11.00">syst_description</text>
<polygon fill="none" stroke="black" points="649,-299 649,-321 747,-321 747,-299 649,-299"/>
<text text-anchor="start" x="652" y="-307.2" font-family="Helvetica,sans-Serif" font-size="11.00">text[2147483647]</text>
<polygon fill="none" stroke="black" points="455,-277 455,-299 649,-299 649,-277 455,-277"/>
<text text-anchor="start" x="475" y="-285.2" font-family="Helvetica,sans-Serif" font-size="11.00">user_description</text>
<polygon fill="none" stroke="black" points="649,-277 649,-299 747,-299 747,-277 649,-277"/>
<text text-anchor="start" x="652" y="-285.2" font-family="Helvetica,sans-Serif" font-size="11.00">text[2147483647]</text>
<polygon fill="none" stroke="black" points="455,-255 455,-277 649,-277 649,-255 455,-255"/>
<text text-anchor="start" x="475" y="-263.2" font-family="Helvetica,sans-Serif" font-size="11.00">sort_order</text>
<polygon fill="none" stroke="black" points="649,-255 649,-277 747,-277 747,-255 649,-255"/>
<text text-anchor="start" x="652" y="-263.2" font-family="Helvetica,sans-Serif" font-size="11.00">int2[5]</text>
<polygon fill="none" stroke="black" points="455,-233 455,-255 649,-255 649,-233 455,-233"/>
<text text-anchor="start" x="475" y="-241.2" font-family="Helvetica,sans-Serif" font-size="11.00">syst_options</text>
<polygon fill="none" stroke="black" points="649,-233 649,-255 747,-255 747,-233 649,-233"/>
<text text-anchor="start" x="652" y="-241.2" font-family="Helvetica,sans-Serif" font-size="11.00">jsonb[2147483647]</text>
<polygon fill="none" stroke="black" points="455,-211 455,-233 649,-233 649,-211 455,-211"/>
<text text-anchor="start" x="475" y="-219.2" font-family="Helvetica,sans-Serif" font-size="11.00">user_options</text>
<polygon fill="none" stroke="black" points="649,-211 649,-233 747,-233 747,-211 649,-211"/>
<text text-anchor="start" x="652" y="-219.2" font-family="Helvetica,sans-Serif" font-size="11.00">jsonb[2147483647]</text>
<polygon fill="none" stroke="black" points="455,-189 455,-211 649,-211 649,-189 455,-189"/>
<text text-anchor="start" x="475" y="-197.2" font-family="Helvetica,sans-Serif" font-size="11.00">diag_timestamp_created</text>
<polygon fill="none" stroke="black" points="649,-189 649,-211 747,-211 747,-189 649,-189"/>
<text text-anchor="start" x="652" y="-197.2" font-family="Helvetica,sans-Serif" font-size="11.00">timestamptz[35,6]</text>
<polygon fill="none" stroke="black" points="455,-167 455,-189 649,-189 649,-167 455,-167"/>
<text text-anchor="start" x="475" y="-175.2" font-family="Helvetica,sans-Serif" font-size="11.00">diag_role_created</text>
<polygon fill="none" stroke="black" points="649,-167 649,-189 747,-189 747,-167 649,-167"/>
<text text-anchor="start" x="652" y="-175.2" font-family="Helvetica,sans-Serif" font-size="11.00">text[2147483647]</text>
<polygon fill="none" stroke="black" points="455,-145 455,-167 649,-167 649,-145 455,-145"/>
<text text-anchor="start" x="475" y="-153.2" font-family="Helvetica,sans-Serif" font-size="11.00">diag_timestamp_modified</text>
<polygon fill="none" stroke="black" points="649,-145 649,-167 747,-167 747,-145 649,-145"/>
<text text-anchor="start" x="652" y="-153.2" font-family="Helvetica,sans-Serif" font-size="11.00">timestamptz[35,6]</text>
<polygon fill="none" stroke="black" points="455,-123 455,-145 649,-145 649,-123 455,-123"/>
<text text-anchor="start" x="475" y="-131.2" font-family="Helvetica,sans-Serif" font-size="11.00">diag_wallclock_modified</text>
<polygon fill="none" stroke="black" points="649,-123 649,-145 747,-145 747,-123 649,-123"/>
<text text-anchor="start" x="652" y="-131.2" font-family="Helvetica,sans-Serif" font-size="11.00">timestamptz[35,6]</text>
<polygon fill="none" stroke="black" points="455,-101 455,-123 649,-123 649,-101 455,-101"/>
<text text-anchor="start" x="475" y="-109.2" font-family="Helvetica,sans-Serif" font-size="11.00">diag_role_modified</text>
<polygon fill="none" stroke="black" points="649,-101 649,-123 747,-123 747,-101 649,-101"/>
<text text-anchor="start" x="652" y="-109.2" font-family="Helvetica,sans-Serif" font-size="11.00">text[2147483647]</text>
<polygon fill="none" stroke="black" points="455,-79 455,-101 649,-101 649,-79 455,-79"/>
<text text-anchor="start" x="475" y="-87.2" font-family="Helvetica,sans-Serif" font-size="11.00">diag_row_version</text>
<polygon fill="none" stroke="black" points="649,-79 649,-101 747,-101 747,-79 649,-79"/>
<text text-anchor="start" x="652" y="-87.2" font-family="Helvetica,sans-Serif" font-size="11.00">int8[19]</text>
<polygon fill="none" stroke="black" points="455,-57 455,-79 649,-79 649,-57 455,-57"/>
<text text-anchor="start" x="475" y="-65.2" font-family="Helvetica,sans-Serif" font-size="11.00">diag_update_count</text>
<polygon fill="none" stroke="black" points="649,-57 649,-79 747,-79 747,-57 649,-57"/>
<text text-anchor="start" x="652" y="-65.2" font-family="Helvetica,sans-Serif" font-size="11.00">int8[19]</text>
<polygon fill="#ffffff" stroke="transparent" points="455,-39 455,-57 556,-57 556,-39 455,-39"/>
<polygon fill="none" stroke="black" points="455,-39 455,-57 556,-57 556,-39 455,-39"/>
<text text-anchor="start" x="458" y="-45.2" font-family="Helvetica,sans-Serif" font-size="11.00">&lt; 2</text>
<polygon fill="#ffffff" stroke="transparent" points="556,-39 556,-57 649,-57 649,-39 556,-39"/>
<polygon fill="none" stroke="black" points="556,-39 556,-57 649,-57 649,-39 556,-39"/>
<text text-anchor="start" x="639" y="-45.2" font-family="Helvetica,sans-Serif" font-size="11.00"> &#160;</text>
<polygon fill="#ffffff" stroke="transparent" points="649,-39 649,-57 747,-57 747,-39 649,-39"/>
<polygon fill="none" stroke="black" points="649,-39 649,-57 747,-57 747,-39 649,-39"/>
<text text-anchor="start" x="728" y="-45.2" font-family="Helvetica,sans-Serif" font-size="11.00">1 &gt;</text>
<polygon fill="none" stroke="black" stroke-width="2" points="454,-38 454,-564 748,-564 748,-38 454,-38"/>
</a>
</g>
</g>
<!-- syst_enum_items&#45;&gt;syst_enum_functional_types -->
<g id="edge3" class="edge">
<title>syst_enum_items:w&#45;&gt;syst_enum_functional_types:e</title>
<path fill="none" stroke="black" d="M439.52,-419.8C430.51,-419.57 421.36,-419.13 412.24,-418.55"/>
<polygon fill="black" stroke="black" points="446,-419.89 453.95,-423.6 450,-419.95 454,-420 454,-420 454,-420 450,-419.95 454.05,-416.4 446,-419.89 446,-419.89"/>
<ellipse fill="none" stroke="black" cx="442.8" cy="-419.85" rx="3.2" ry="3.2"/>
</g>
<!-- syst_enum_items&#45;&gt;syst_enums -->
<g id="edge2" class="edge">
<title>syst_enum_items:w&#45;&gt;syst_enums:e</title>
<path fill="none" stroke="black" d="M439.45,-442.2C430.91,-442.44 424.69,-442.85 412,-443 303.12,-444.3 275.66,-450.1 167,-443 156.36,-442.3 145.12,-441.19 134.18,-439.91"/>
<polygon fill="black" stroke="black" points="446,-442.11 454.05,-445.6 450,-442.05 454,-442 454,-442 454,-442 450,-442.05 453.95,-438.4 446,-442.11 446,-442.11"/>
<ellipse fill="none" stroke="black" cx="442.8" cy="-442.15" rx="3.2" ry="3.2"/>
</g>
<!-- syst_menu_items -->
<g id="node4" class="node">
<title>syst_menu_items</title>
<g id="a_node4"><a xlink:href="../../tables/syst_menu_items.html" xlink:title="syst_menu_items" target="_top">
<polygon fill="#ffffff" stroke="transparent" points="1041,-569 1041,-627 1196,-627 1196,-569 1041,-569"/>
<polygon fill="#f5f5f5" stroke="transparent" points="1041.5,-605 1041.5,-627 1196.5,-627 1196.5,-605 1041.5,-605"/>
<polygon fill="none" stroke="black" points="1041.5,-605 1041.5,-627 1196.5,-627 1196.5,-605 1041.5,-605"/>
<text text-anchor="start" x="1046.5" y="-614.2" font-family="Helvetica,sans-Serif" font-weight="bold" font-size="11.00">syst_menu_items</text>
<text text-anchor="start" x="1161.5" y="-613.2" font-family="Helvetica,sans-Serif" font-size="11.00">[table]</text>
<polygon fill="none" stroke="black" points="1041.5,-587 1041.5,-605 1196.5,-605 1196.5,-587 1041.5,-587"/>
<text text-anchor="start" x="1044.5" y="-593.2" font-family="Helvetica,sans-Serif" font-size="11.00">...</text>
<polygon fill="#ffffff" stroke="transparent" points="1041.5,-569 1041.5,-587 1112.5,-587 1112.5,-569 1041.5,-569"/>
<polygon fill="none" stroke="black" points="1041.5,-569 1041.5,-587 1112.5,-587 1112.5,-569 1041.5,-569"/>
<text text-anchor="start" x="1044.5" y="-575.2" font-family="Helvetica,sans-Serif" font-size="11.00">&lt; 4</text>
<polygon fill="#ffffff" stroke="transparent" points="1112.5,-569 1112.5,-587 1149.5,-587 1149.5,-569 1112.5,-569"/>
<polygon fill="none" stroke="black" points="1112.5,-569 1112.5,-587 1149.5,-587 1149.5,-569 1112.5,-569"/>
<text text-anchor="start" x="1139.5" y="-575.2" font-family="Helvetica,sans-Serif" font-size="11.00"> &#160;</text>
<polygon fill="#ffffff" stroke="transparent" points="1149.5,-569 1149.5,-587 1196.5,-587 1196.5,-569 1149.5,-569"/>
<polygon fill="none" stroke="black" points="1149.5,-569 1149.5,-587 1196.5,-587 1196.5,-569 1149.5,-569"/>
<text text-anchor="start" x="1177.5" y="-575.2" font-family="Helvetica,sans-Serif" font-size="11.00">1 &gt;</text>
</a>
</g>
</g>
<!-- syst_menus -->
<g id="node5" class="node">
<title>syst_menus</title>
<g id="a_node5"><a xlink:href="../../tables/syst_menus.html" xlink:title="syst_menus" target="_top">
<polygon fill="#ffffff" stroke="transparent" points="798,-483 798,-629 992,-629 992,-483 798,-483"/>
<polygon fill="#f5f5f5" stroke="transparent" points="798,-607 798,-629 992,-629 992,-607 798,-607"/>
<polygon fill="none" stroke="black" points="798,-607 798,-629 992,-629 992,-607 798,-607"/>
<text text-anchor="start" x="803" y="-616.2" font-family="Helvetica,sans-Serif" font-weight="bold" font-size="11.00">syst_menus</text>
<text text-anchor="start" x="957" y="-615.2" font-family="Helvetica,sans-Serif" font-size="11.00">[table]</text>
<polygon fill="none" stroke="black" points="798,-585 798,-607 992,-607 992,-585 798,-585"/>
<image xlink:href="../../images/primaryKeys.png" width="11px" height="12px" preserveAspectRatio="xMinYMin meet" x="803" y="-602"/>
<text text-anchor="start" x="818" y="-593.2" font-family="Helvetica,sans-Serif" font-size="11.00">id</text>
<polygon fill="#ffffff" stroke="transparent" points="798,-563 798,-585 992,-585 992,-563 798,-563"/>
<polygon fill="none" stroke="black" points="798,-563 798,-585 992,-585 992,-563 798,-563"/>
<text text-anchor="start" x="818" y="-571.2" font-family="Helvetica,sans-Serif" font-size="11.00">internal_name</text>
<polygon fill="#ffffff" stroke="transparent" points="798,-541 798,-563 992,-563 992,-541 798,-541"/>
<polygon fill="none" stroke="black" points="798,-541 798,-563 992,-563 992,-541 798,-541"/>
<text text-anchor="start" x="818" y="-549.2" font-family="Helvetica,sans-Serif" font-size="11.00">display_name</text>
<polygon fill="none" stroke="black" points="798,-519 798,-541 992,-541 992,-519 798,-519"/>
<image xlink:href="../../images/foreignKeys.png" width="11px" height="12px" preserveAspectRatio="xMinYMin meet" x="803" y="-536"/>
<text text-anchor="start" x="818" y="-527.2" font-family="Helvetica,sans-Serif" font-size="11.00">menu_state_id</text>
<polygon fill="none" stroke="black" points="798,-501 798,-519 992,-519 992,-501 798,-501"/>
<text text-anchor="start" x="801" y="-507.2" font-family="Helvetica,sans-Serif" font-size="11.00">...</text>
<polygon fill="#ffffff" stroke="transparent" points="798,-483 798,-501 888,-501 888,-483 798,-483"/>
<polygon fill="none" stroke="black" points="798,-483 798,-501 888,-501 888,-483 798,-483"/>
<text text-anchor="start" x="801" y="-489.2" font-family="Helvetica,sans-Serif" font-size="11.00">&lt; 1</text>
<polygon fill="#ffffff" stroke="transparent" points="888,-483 888,-501 935,-501 935,-483 888,-483"/>
<polygon fill="none" stroke="black" points="888,-483 888,-501 935,-501 935,-483 888,-483"/>
<text text-anchor="start" x="925" y="-489.2" font-family="Helvetica,sans-Serif" font-size="11.00"> &#160;</text>
<polygon fill="#ffffff" stroke="transparent" points="935,-483 935,-501 992,-501 992,-483 935,-483"/>
<polygon fill="none" stroke="black" points="935,-483 935,-501 992,-501 992,-483 935,-483"/>
<text text-anchor="start" x="973" y="-489.2" font-family="Helvetica,sans-Serif" font-size="11.00">2 &gt;</text>
</a>
</g>
</g>
<!-- syst_menu_items&#45;&gt;syst_menus -->
<g id="edge4" class="edge">
<title>syst_menu_items:w&#45;&gt;syst_menus:e</title>
<path fill="none" stroke="black" d="M1026.44,-592.49C1015.47,-590.42 1008.5,-591.59 993,-596"/>
<polygon fill="black" stroke="black" points="1032.74,-594.06 1039.63,-599.49 1036.62,-595.03 1040.5,-596 1040.5,-596 1040.5,-596 1036.62,-595.03 1041.37,-592.51 1032.74,-594.06 1032.74,-594.06"/>
<ellipse fill="none" stroke="black" cx="1029.63" cy="-593.29" rx="3.2" ry="3.2"/>
</g>
<!-- syst_menu_items&#45;&gt;syst_menus -->
<g id="edge5" class="edge">
<title>syst_menu_items:w&#45;&gt;syst_menus:e</title>
<path fill="none" stroke="black" d="M1026.44,-600.1C1015.47,-602.51 1008.5,-601.14 993,-596"/>
<polygon fill="black" stroke="black" points="1032.82,-598.24 1041.51,-599.46 1036.66,-597.12 1040.5,-596 1040.5,-596 1040.5,-596 1036.66,-597.12 1039.49,-592.54 1032.82,-598.24 1032.82,-598.24"/>
<ellipse fill="none" stroke="black" cx="1029.75" cy="-599.13" rx="3.2" ry="3.2"/>
</g>
<!-- syst_menus&#45;&gt;syst_enum_items -->
<g id="edge6" class="edge">
<title>syst_menus:w&#45;&gt;syst_enum_items:e</title>
<path fill="none" stroke="black" d="M782.49,-530C771.18,-530 763.99,-530 748,-530"/>
<polygon fill="black" stroke="black" points="789,-530 797,-533.6 793,-530 797,-530 797,-530 797,-530 793,-530 797,-526.4 789,-530 789,-530"/>
<ellipse fill="none" stroke="black" cx="785.8" cy="-530" rx="3.2" ry="3.2"/>
</g>
</g>
</svg>
