<?xml version="1.0" encoding="UTF-8" standalone="no"?>
<!DOCTYPE svg PUBLIC "-//W3C//DTD SVG 1.1//EN"
 "http://www.w3.org/Graphics/SVG/1.1/DTD/svg11.dtd">
<!-- Generated by graphviz version 2.43.0 (0)
 -->
<!-- Title: oneDegreeRelationshipsDiagram Pages: 1 -->
<svg width="592pt" height="514pt"
 viewBox="0.00 0.00 592.17 514.00" xmlns="http://www.w3.org/2000/svg" xmlns:xlink="http://www.w3.org/1999/xlink">
<g id="graph0" class="graph" transform="scale(1 1) rotate(0) translate(4 510)">
<title>oneDegreeRelationshipsDiagram</title>
<polygon fill="#ffffff" stroke="transparent" points="-4,4 -4,-510 588.17,-510 588.17,4 -4,4"/>
<text text-anchor="middle" x="71.5" y="-7.2" font-family="Helvetica,sans-Serif" font-size="11.00">Generated by SchemaSpy</text>
<!-- syst_menu_items -->
<g id="node1" class="node">
<title>syst_menu_items</title>
<g id="a_node1"><a xlink:href="../../tables/syst_menu_items.html" xlink:title="syst_menu_items" target="_top">
<polygon fill="#ffffff" stroke="transparent" points="251,-44 251,-484 542,-484 542,-44 251,-44"/>
<polygon fill="#f5f5f5" stroke="transparent" points="253.5,-460 253.5,-482 540.5,-482 540.5,-460 253.5,-460"/>
<polygon fill="none" stroke="black" points="253.5,-460 253.5,-482 540.5,-482 540.5,-460 253.5,-460"/>
<text text-anchor="start" x="258.5" y="-469.2" font-family="Helvetica,sans-Serif" font-weight="bold" font-size="11.00">syst_menu_items</text>
<text text-anchor="start" x="505.5" y="-468.2" font-family="Helvetica,sans-Serif" font-size="11.00">[table]</text>
<polygon fill="none" stroke="black" points="253.5,-438 253.5,-460 447.5,-460 447.5,-438 253.5,-438"/>
<image xlink:href="../../images/primaryKeys.png" width="11px" height="12px" preserveAspectRatio="xMinYMin meet" x="258.5" y="-455"/>
<text text-anchor="start" x="273.5" y="-446.2" font-family="Helvetica,sans-Serif" font-size="11.00">id</text>
<polygon fill="none" stroke="black" points="447.5,-438 447.5,-460 540.5,-460 540.5,-438 447.5,-438"/>
<text text-anchor="start" x="450.5" y="-446.2" font-family="Helvetica,sans-Serif" font-size="11.00">uuid[2147483647]</text>
<polygon fill="#ffffff" stroke="transparent" points="253.5,-416 253.5,-438 447.5,-438 447.5,-416 253.5,-416"/>
<polygon fill="none" stroke="black" points="253.5,-416 253.5,-438 447.5,-438 447.5,-416 253.5,-416"/>
<text text-anchor="start" x="273.5" y="-424.2" font-family="Helvetica,sans-Serif" font-size="11.00">internal_name</text>
<polygon fill="none" stroke="black" points="447.5,-416 447.5,-438 540.5,-438 540.5,-416 447.5,-416"/>
<text text-anchor="start" x="450.5" y="-424.2" font-family="Helvetica,sans-Serif" font-size="11.00">text[2147483647]</text>
<polygon fill="#ffffff" stroke="transparent" points="253.5,-394 253.5,-416 447.5,-416 447.5,-394 253.5,-394"/>
<polygon fill="none" stroke="black" points="253.5,-394 253.5,-416 447.5,-416 447.5,-394 253.5,-394"/>
<text text-anchor="start" x="273.5" y="-402.2" font-family="Helvetica,sans-Serif" font-size="11.00">display_name</text>
<polygon fill="none" stroke="black" points="447.5,-394 447.5,-416 540.5,-416 540.5,-394 447.5,-394"/>
<text text-anchor="start" x="450.5" y="-402.2" font-family="Helvetica,sans-Serif" font-size="11.00">text[2147483647]</text>
<polygon fill="none" stroke="black" points="253.5,-372 253.5,-394 447.5,-394 447.5,-372 253.5,-372"/>
<text text-anchor="start" x="273.5" y="-380.2" font-family="Helvetica,sans-Serif" font-size="11.00">external_name</text>
<polygon fill="none" stroke="black" points="447.5,-372 447.5,-394 540.5,-394 540.5,-372 447.5,-372"/>
<text text-anchor="start" x="450.5" y="-380.2" font-family="Helvetica,sans-Serif" font-size="11.00">text[2147483647]</text>
<polygon fill="#ffffff" stroke="transparent" points="253.5,-350 253.5,-372 447.5,-372 447.5,-350 253.5,-350"/>
<polygon fill="none" stroke="black" points="253.5,-350 253.5,-372 447.5,-372 447.5,-350 253.5,-350"/>
<image xlink:href="../../images/foreignKeys.png" width="11px" height="12px" preserveAspectRatio="xMinYMin meet" x="258.5" y="-367"/>
<text text-anchor="start" x="273.5" y="-358.2" font-family="Helvetica,sans-Serif" font-size="11.00">menu_id</text>
<polygon fill="none" stroke="black" points="447.5,-350 447.5,-372 540.5,-372 540.5,-350 447.5,-350"/>
<text text-anchor="start" x="450.5" y="-358.2" font-family="Helvetica,sans-Serif" font-size="11.00">uuid[2147483647]</text>
<polygon fill="#ffffff" stroke="transparent" points="253.5,-328 253.5,-350 447.5,-350 447.5,-328 253.5,-328"/>
<polygon fill="none" stroke="black" points="253.5,-328 253.5,-350 447.5,-350 447.5,-328 253.5,-328"/>
<image xlink:href="../../images/foreignKeys.png" width="11px" height="12px" preserveAspectRatio="xMinYMin meet" x="258.5" y="-345"/>
<text text-anchor="start" x="273.5" y="-336.2" font-family="Helvetica,sans-Serif" font-size="11.00">parent_menu_item_id</text>
<polygon fill="none" stroke="black" points="447.5,-328 447.5,-350 540.5,-350 540.5,-328 447.5,-328"/>
<text text-anchor="start" x="450.5" y="-336.2" font-family="Helvetica,sans-Serif" font-size="11.00">uuid[2147483647]</text>
<polygon fill="#ffffff" stroke="transparent" points="253.5,-306 253.5,-328 447.5,-328 447.5,-306 253.5,-306"/>
<polygon fill="none" stroke="black" points="253.5,-306 253.5,-328 447.5,-328 447.5,-306 253.5,-306"/>
<text text-anchor="start" x="273.5" y="-314.2" font-family="Helvetica,sans-Serif" font-size="11.00">sort_order</text>
<polygon fill="none" stroke="black" points="447.5,-306 447.5,-328 540.5,-328 540.5,-306 447.5,-306"/>
<text text-anchor="start" x="450.5" y="-314.2" font-family="Helvetica,sans-Serif" font-size="11.00">int2[5]</text>
<polygon fill="none" stroke="black" points="253.5,-284 253.5,-306 447.5,-306 447.5,-284 253.5,-284"/>
<image xlink:href="../../images/foreignKeys.png" width="11px" height="12px" preserveAspectRatio="xMinYMin meet" x="258.5" y="-301"/>
<text text-anchor="start" x="273.5" y="-292.2" font-family="Helvetica,sans-Serif" font-size="11.00">submenu_menu_id</text>
<polygon fill="none" stroke="black" points="447.5,-284 447.5,-306 540.5,-306 540.5,-284 447.5,-284"/>
<text text-anchor="start" x="450.5" y="-292.2" font-family="Helvetica,sans-Serif" font-size="11.00">uuid[2147483647]</text>
<polygon fill="none" stroke="black" points="253.5,-262 253.5,-284 447.5,-284 447.5,-262 253.5,-262"/>
<image xlink:href="../../images/foreignKeys.png" width="11px" height="12px" preserveAspectRatio="xMinYMin meet" x="258.5" y="-279"/>
<text text-anchor="start" x="273.5" y="-270.2" font-family="Helvetica,sans-Serif" font-size="11.00">action_id</text>
<polygon fill="none" stroke="black" points="447.5,-262 447.5,-284 540.5,-284 540.5,-262 447.5,-262"/>
<text text-anchor="start" x="450.5" y="-270.2" font-family="Helvetica,sans-Serif" font-size="11.00">uuid[2147483647]</text>
<polygon fill="none" stroke="black" points="253.5,-240 253.5,-262 447.5,-262 447.5,-240 253.5,-240"/>
<text text-anchor="start" x="273.5" y="-248.2" font-family="Helvetica,sans-Serif" font-size="11.00">syst_description</text>
<polygon fill="none" stroke="black" points="447.5,-240 447.5,-262 540.5,-262 540.5,-240 447.5,-240"/>
<text text-anchor="start" x="450.5" y="-248.2" font-family="Helvetica,sans-Serif" font-size="11.00">text[2147483647]</text>
<polygon fill="none" stroke="black" points="253.5,-218 253.5,-240 447.5,-240 447.5,-218 253.5,-218"/>
<text text-anchor="start" x="273.5" y="-226.2" font-family="Helvetica,sans-Serif" font-size="11.00">user_description</text>
<polygon fill="none" stroke="black" points="447.5,-218 447.5,-240 540.5,-240 540.5,-218 447.5,-218"/>
<text text-anchor="start" x="450.5" y="-226.2" font-family="Helvetica,sans-Serif" font-size="11.00">text[2147483647]</text>
<polygon fill="none" stroke="black" points="253.5,-196 253.5,-218 447.5,-218 447.5,-196 253.5,-196"/>
<text text-anchor="start" x="273.5" y="-204.2" font-family="Helvetica,sans-Serif" font-size="11.00">diag_timestamp_created</text>
<polygon fill="none" stroke="black" points="447.5,-196 447.5,-218 540.5,-218 540.5,-196 447.5,-196"/>
<text text-anchor="start" x="450.5" y="-204.2" font-family="Helvetica,sans-Serif" font-size="11.00">timestamptz[35,6]</text>
<polygon fill="none" stroke="black" points="253.5,-174 253.5,-196 447.5,-196 447.5,-174 253.5,-174"/>
<text text-anchor="start" x="273.5" y="-182.2" font-family="Helvetica,sans-Serif" font-size="11.00">diag_role_created</text>
<polygon fill="none" stroke="black" points="447.5,-174 447.5,-196 540.5,-196 540.5,-174 447.5,-174"/>
<text text-anchor="start" x="450.5" y="-182.2" font-family="Helvetica,sans-Serif" font-size="11.00">text[2147483647]</text>
<polygon fill="none" stroke="black" points="253.5,-152 253.5,-174 447.5,-174 447.5,-152 253.5,-152"/>
<text text-anchor="start" x="273.5" y="-160.2" font-family="Helvetica,sans-Serif" font-size="11.00">diag_timestamp_modified</text>
<polygon fill="none" stroke="black" points="447.5,-152 447.5,-174 540.5,-174 540.5,-152 447.5,-152"/>
<text text-anchor="start" x="450.5" y="-160.2" font-family="Helvetica,sans-Serif" font-size="11.00">timestamptz[35,6]</text>
<polygon fill="none" stroke="black" points="253.5,-130 253.5,-152 447.5,-152 447.5,-130 253.5,-130"/>
<text text-anchor="start" x="273.5" y="-138.2" font-family="Helvetica,sans-Serif" font-size="11.00">diag_wallclock_modified</text>
<polygon fill="none" stroke="black" points="447.5,-130 447.5,-152 540.5,-152 540.5,-130 447.5,-130"/>
<text text-anchor="start" x="450.5" y="-138.2" font-family="Helvetica,sans-Serif" font-size="11.00">timestamptz[35,6]</text>
<polygon fill="none" stroke="black" points="253.5,-108 253.5,-130 447.5,-130 447.5,-108 253.5,-108"/>
<text text-anchor="start" x="273.5" y="-116.2" font-family="Helvetica,sans-Serif" font-size="11.00">diag_role_modified</text>
<polygon fill="none" stroke="black" points="447.5,-108 447.5,-130 540.5,-130 540.5,-108 447.5,-108"/>
<text text-anchor="start" x="450.5" y="-116.2" font-family="Helvetica,sans-Serif" font-size="11.00">text[2147483647]</text>
<polygon fill="none" stroke="black" points="253.5,-86 253.5,-108 447.5,-108 447.5,-86 253.5,-86"/>
<text text-anchor="start" x="273.5" y="-94.2" font-family="Helvetica,sans-Serif" font-size="11.00">diag_row_version</text>
<polygon fill="none" stroke="black" points="447.5,-86 447.5,-108 540.5,-108 540.5,-86 447.5,-86"/>
<text text-anchor="start" x="450.5" y="-94.2" font-family="Helvetica,sans-Serif" font-size="11.00">int8[19]</text>
<polygon fill="none" stroke="black" points="253.5,-64 253.5,-86 447.5,-86 447.5,-64 253.5,-64"/>
<text text-anchor="start" x="273.5" y="-72.2" font-family="Helvetica,sans-Serif" font-size="11.00">diag_update_count</text>
<polygon fill="none" stroke="black" points="447.5,-64 447.5,-86 540.5,-86 540.5,-64 447.5,-64"/>
<text text-anchor="start" x="450.5" y="-72.2" font-family="Helvetica,sans-Serif" font-size="11.00">int8[19]</text>
<polygon fill="#ffffff" stroke="transparent" points="253.5,-46 253.5,-64 354.5,-64 354.5,-46 253.5,-46"/>
<polygon fill="none" stroke="black" points="253.5,-46 253.5,-64 354.5,-64 354.5,-46 253.5,-46"/>
<text text-anchor="start" x="256.5" y="-52.2" font-family="Helvetica,sans-Serif" font-size="11.00">&lt; 4</text>
<polygon fill="#ffffff" stroke="transparent" points="354.5,-46 354.5,-64 447.5,-64 447.5,-46 354.5,-46"/>
<polygon fill="none" stroke="black" points="354.5,-46 354.5,-64 447.5,-64 447.5,-46 354.5,-46"/>
<text text-anchor="start" x="437.5" y="-52.2" font-family="Helvetica,sans-Serif" font-size="11.00"> &#160;</text>
<polygon fill="#ffffff" stroke="transparent" points="447.5,-46 447.5,-64 540.5,-64 540.5,-46 447.5,-46"/>
<polygon fill="none" stroke="black" points="447.5,-46 447.5,-64 540.5,-64 540.5,-46 447.5,-46"/>
<text text-anchor="start" x="521.5" y="-52.2" font-family="Helvetica,sans-Serif" font-size="11.00">1 &gt;</text>
<polygon fill="none" stroke="black" stroke-width="2" points="252,-45 252,-483 541,-483 541,-45 252,-45"/>
</a>
</g>
</g>
<!-- syst_menu_items&#45;&gt;syst_menu_items -->
<g id="edge3" class="edge">
<title>syst_menu_items:w&#45;&gt;syst_menu_items:e</title>
<path fill="none" stroke="black" d="M243.8,-350.13C181.47,-425.6 191.12,-501 397,-501 613,-501 613,-492.33 540.5,-449"/>
<polygon fill="black" stroke="black" points="248.24,-345.03 256.21,-341.37 250.87,-342.01 253.5,-339 253.5,-339 253.5,-339 250.87,-342.01 250.79,-336.63 248.24,-345.03 248.24,-345.03"/>
<ellipse fill="none" stroke="black" cx="246.14" cy="-347.44" rx="3.2" ry="3.2"/>
</g>
<!-- syst_actions -->
<g id="node2" class="node">
<title>syst_actions</title>
<g id="a_node2"><a xlink:href="../../tables/syst_actions.html" xlink:title="syst_actions" target="_top">
<polygon fill="#ffffff" stroke="transparent" points="8,-37 8,-227 202,-227 202,-37 8,-37"/>
<polygon fill="#f5f5f5" stroke="transparent" points="8,-205 8,-227 202,-227 202,-205 8,-205"/>
<polygon fill="none" stroke="black" points="8,-205 8,-227 202,-227 202,-205 8,-205"/>
<text text-anchor="start" x="13" y="-214.2" font-family="Helvetica,sans-Serif" font-weight="bold" font-size="11.00">syst_actions</text>
<text text-anchor="start" x="167" y="-213.2" font-family="Helvetica,sans-Serif" font-size="11.00">[table]</text>
<polygon fill="none" stroke="black" points="8,-183 8,-205 202,-205 202,-183 8,-183"/>
<image xlink:href="../../images/primaryKeys.png" width="11px" height="12px" preserveAspectRatio="xMinYMin meet" x="13" y="-200"/>
<text text-anchor="start" x="28" y="-191.2" font-family="Helvetica,sans-Serif" font-size="11.00">id</text>
<polygon fill="#ffffff" stroke="transparent" points="8,-161 8,-183 202,-183 202,-161 8,-161"/>
<polygon fill="none" stroke="black" points="8,-161 8,-183 202,-183 202,-161 8,-161"/>
<text text-anchor="start" x="28" y="-169.2" font-family="Helvetica,sans-Serif" font-size="11.00">internal_name</text>
<polygon fill="#ffffff" stroke="transparent" points="8,-139 8,-161 202,-161 202,-139 8,-139"/>
<polygon fill="none" stroke="black" points="8,-139 8,-161 202,-161 202,-139 8,-139"/>
<text text-anchor="start" x="28" y="-147.2" font-family="Helvetica,sans-Serif" font-size="11.00">display_name</text>
<polygon fill="#ffffff" stroke="transparent" points="8,-117 8,-139 202,-139 202,-117 8,-117"/>
<polygon fill="none" stroke="black" points="8,-117 8,-139 202,-139 202,-117 8,-117"/>
<image xlink:href="../../images/foreignKeys.png" width="11px" height="12px" preserveAspectRatio="xMinYMin meet" x="13" y="-134"/>
<text text-anchor="start" x="28" y="-125.2" font-family="Helvetica,sans-Serif" font-size="11.00">action_group_id</text>
<polygon fill="#ffffff" stroke="transparent" points="8,-95 8,-117 202,-117 202,-95 8,-95"/>
<polygon fill="none" stroke="black" points="8,-95 8,-117 202,-117 202,-95 8,-95"/>
<text text-anchor="start" x="28" y="-103.2" font-family="Helvetica,sans-Serif" font-size="11.00">command</text>
<polygon fill="#ffffff" stroke="transparent" points="8,-73 8,-95 202,-95 202,-73 8,-73"/>
<polygon fill="none" stroke="black" points="8,-73 8,-95 202,-95 202,-73 8,-73"/>
<text text-anchor="start" x="28" y="-81.2" font-family="Helvetica,sans-Serif" font-size="11.00">command_search</text>
<polygon fill="none" stroke="black" points="8,-55 8,-73 202,-73 202,-55 8,-55"/>
<text text-anchor="start" x="11" y="-61.2" font-family="Helvetica,sans-Serif" font-size="11.00">...</text>
<polygon fill="#ffffff" stroke="transparent" points="8,-37 8,-55 98,-55 98,-37 8,-37"/>
<polygon fill="none" stroke="black" points="8,-37 8,-55 98,-55 98,-37 8,-37"/>
<text text-anchor="start" x="11" y="-43.2" font-family="Helvetica,sans-Serif" font-size="11.00">&lt; 1</text>
<polygon fill="#ffffff" stroke="transparent" points="98,-37 98,-55 145,-55 145,-37 98,-37"/>
<polygon fill="none" stroke="black" points="98,-37 98,-55 145,-55 145,-37 98,-37"/>
<text text-anchor="start" x="135" y="-43.2" font-family="Helvetica,sans-Serif" font-size="11.00"> &#160;</text>
<polygon fill="#ffffff" stroke="transparent" points="145,-37 145,-55 202,-55 202,-37 145,-37"/>
<polygon fill="none" stroke="black" points="145,-37 145,-55 202,-55 202,-37 145,-37"/>
<text text-anchor="start" x="183" y="-43.2" font-family="Helvetica,sans-Serif" font-size="11.00">1 &gt;</text>
</a>
</g>
</g>
<!-- syst_menu_items&#45;&gt;syst_actions -->
<g id="edge1" class="edge">
<title>syst_menu_items:w&#45;&gt;syst_actions:e</title>
<path fill="none" stroke="black" d="M238.77,-268.53C219.15,-251.81 238.45,-194 203,-194"/>
<polygon fill="black" stroke="black" points="244.89,-270.52 251.38,-276.42 248.7,-271.76 252.5,-273 252.5,-273 252.5,-273 248.7,-271.76 253.62,-269.58 244.89,-270.52 244.89,-270.52"/>
<ellipse fill="none" stroke="black" cx="241.85" cy="-269.53" rx="3.2" ry="3.2"/>
</g>
<!-- syst_menus -->
<g id="node3" class="node">
<title>syst_menus</title>
<g id="a_node3"><a xlink:href="../../tables/syst_menus.html" xlink:title="syst_menus" target="_top">
<polygon fill="#ffffff" stroke="transparent" points="8,-248 8,-394 202,-394 202,-248 8,-248"/>
<polygon fill="#f5f5f5" stroke="transparent" points="8,-372 8,-394 202,-394 202,-372 8,-372"/>
<polygon fill="none" stroke="black" points="8,-372 8,-394 202,-394 202,-372 8,-372"/>
<text text-anchor="start" x="13" y="-381.2" font-family="Helvetica,sans-Serif" font-weight="bold" font-size="11.00">syst_menus</text>
<text text-anchor="start" x="167" y="-380.2" font-family="Helvetica,sans-Serif" font-size="11.00">[table]</text>
<polygon fill="none" stroke="black" points="8,-350 8,-372 202,-372 202,-350 8,-350"/>
<image xlink:href="../../images/primaryKeys.png" width="11px" height="12px" preserveAspectRatio="xMinYMin meet" x="13" y="-367"/>
<text text-anchor="start" x="28" y="-358.2" font-family="Helvetica,sans-Serif" font-size="11.00">id</text>
<polygon fill="#ffffff" stroke="transparent" points="8,-328 8,-350 202,-350 202,-328 8,-328"/>
<polygon fill="none" stroke="black" points="8,-328 8,-350 202,-350 202,-328 8,-328"/>
<text text-anchor="start" x="28" y="-336.2" font-family="Helvetica,sans-Serif" font-size="11.00">internal_name</text>
<polygon fill="#ffffff" stroke="transparent" points="8,-306 8,-328 202,-328 202,-306 8,-306"/>
<polygon fill="none" stroke="black" points="8,-306 8,-328 202,-328 202,-306 8,-306"/>
<text text-anchor="start" x="28" y="-314.2" font-family="Helvetica,sans-Serif" font-size="11.00">display_name</text>
<polygon fill="none" stroke="black" points="8,-284 8,-306 202,-306 202,-284 8,-284"/>
<image xlink:href="../../images/foreignKeys.png" width="11px" height="12px" preserveAspectRatio="xMinYMin meet" x="13" y="-301"/>
<text text-anchor="start" x="28" y="-292.2" font-family="Helvetica,sans-Serif" font-size="11.00">menu_state_id</text>
<polygon fill="none" stroke="black" points="8,-266 8,-284 202,-284 202,-266 8,-266"/>
<text text-anchor="start" x="11" y="-272.2" font-family="Helvetica,sans-Serif" font-size="11.00">...</text>
<polygon fill="#ffffff" stroke="transparent" points="8,-248 8,-266 98,-266 98,-248 8,-248"/>
<polygon fill="none" stroke="black" points="8,-248 8,-266 98,-266 98,-248 8,-248"/>
<text text-anchor="start" x="11" y="-254.2" font-family="Helvetica,sans-Serif" font-size="11.00">&lt; 1</text>
<polygon fill="#ffffff" stroke="transparent" points="98,-248 98,-266 145,-266 145,-248 98,-248"/>
<polygon fill="none" stroke="black" points="98,-248 98,-266 145,-266 145,-248 98,-248"/>
<text text-anchor="start" x="135" y="-254.2" font-family="Helvetica,sans-Serif" font-size="11.00"> &#160;</text>
<polygon fill="#ffffff" stroke="transparent" points="145,-248 145,-266 202,-266 202,-248 145,-248"/>
<polygon fill="none" stroke="black" points="145,-248 145,-266 202,-266 202,-248 145,-248"/>
<text text-anchor="start" x="183" y="-254.2" font-family="Helvetica,sans-Serif" font-size="11.00">2 &gt;</text>
</a>
</g>
</g>
<!-- syst_menu_items&#45;&gt;syst_menus -->
<g id="edge2" class="edge">
<title>syst_menu_items:w&#45;&gt;syst_menus:e</title>
<path fill="none" stroke="black" d="M237.84,-361C226.41,-361 219.16,-361 203,-361"/>
<polygon fill="black" stroke="black" points="244.5,-361 252.5,-364.6 248.5,-361 252.5,-361 252.5,-361 252.5,-361 248.5,-361 252.5,-357.4 244.5,-361 244.5,-361"/>
<ellipse fill="none" stroke="black" cx="241.3" cy="-361" rx="3.2" ry="3.2"/>
</g>
<!-- syst_menu_items&#45;&gt;syst_menus -->
<g id="edge4" class="edge">
<title>syst_menu_items:w&#45;&gt;syst_menus:e</title>
<path fill="none" stroke="black" d="M238.8,-299.75C222.03,-314.88 233.65,-361 203,-361"/>
<polygon fill="black" stroke="black" points="244.94,-297.62 253.68,-298.4 248.72,-296.31 252.5,-295 252.5,-295 252.5,-295 248.72,-296.31 251.32,-291.6 244.94,-297.62 244.94,-297.62"/>
<ellipse fill="none" stroke="black" cx="241.92" cy="-298.67" rx="3.2" ry="3.2"/>
</g>
</g>
</svg>
