<?xml version="1.0" encoding="UTF-8" standalone="no"?>
<!DOCTYPE svg PUBLIC "-//W3C//DTD SVG 1.1//EN"
 "http://www.w3.org/Graphics/SVG/1.1/DTD/svg11.dtd">
<!-- Generated by graphviz version 2.43.0 (0)
 -->
<!-- Title: twoDegreesRelationshipsDiagram Pages: 1 -->
<svg width="1246pt" height="566pt"
 viewBox="0.00 0.00 1246.00 566.00" xmlns="http://www.w3.org/2000/svg" xmlns:xlink="http://www.w3.org/1999/xlink">
<g id="graph0" class="graph" transform="scale(1 1) rotate(0) translate(4 562)">
<title>twoDegreesRelationshipsDiagram</title>
<polygon fill="#ffffff" stroke="transparent" points="-4,4 -4,-562 1242,-562 1242,4 -4,4"/>
<text text-anchor="middle" x="71.5" y="-7.2" font-family="Helvetica,sans-Serif" font-size="11.00">Generated by SchemaSpy</text>
<!-- syst_enum_functional_types -->
<g id="node1" class="node">
<title>syst_enum_functional_types</title>
<g id="a_node1"><a xlink:href="../../tables/syst_enum_functional_types.html" xlink:title="syst_enum_functional_types" target="_top">
<polygon fill="#ffffff" stroke="transparent" points="175,-258 175,-316 404,-316 404,-258 175,-258"/>
<polygon fill="#f5f5f5" stroke="transparent" points="175.5,-294 175.5,-316 404.5,-316 404.5,-294 175.5,-294"/>
<polygon fill="none" stroke="black" points="175.5,-294 175.5,-316 404.5,-316 404.5,-294 175.5,-294"/>
<text text-anchor="start" x="180.5" y="-303.2" font-family="Helvetica,sans-Serif" font-weight="bold" font-size="11.00">syst_enum_functional_types</text>
<text text-anchor="start" x="369.5" y="-302.2" font-family="Helvetica,sans-Serif" font-size="11.00">[table]</text>
<polygon fill="none" stroke="black" points="175.5,-276 175.5,-294 404.5,-294 404.5,-276 175.5,-276"/>
<text text-anchor="start" x="178.5" y="-282.2" font-family="Helvetica,sans-Serif" font-size="11.00">...</text>
<polygon fill="#ffffff" stroke="transparent" points="175.5,-258 175.5,-276 283.5,-276 283.5,-258 175.5,-258"/>
<polygon fill="none" stroke="black" points="175.5,-258 175.5,-276 283.5,-276 283.5,-258 175.5,-258"/>
<text text-anchor="start" x="178.5" y="-264.2" font-family="Helvetica,sans-Serif" font-size="11.00">&lt; 1</text>
<polygon fill="#ffffff" stroke="transparent" points="283.5,-258 283.5,-276 339.5,-276 339.5,-258 283.5,-258"/>
<polygon fill="none" stroke="black" points="283.5,-258 283.5,-276 339.5,-276 339.5,-258 283.5,-258"/>
<text text-anchor="start" x="329.5" y="-264.2" font-family="Helvetica,sans-Serif" font-size="11.00"> &#160;</text>
<polygon fill="#ffffff" stroke="transparent" points="339.5,-258 339.5,-276 404.5,-276 404.5,-258 339.5,-258"/>
<polygon fill="none" stroke="black" points="339.5,-258 339.5,-276 404.5,-276 404.5,-258 339.5,-258"/>
<text text-anchor="start" x="385.5" y="-264.2" font-family="Helvetica,sans-Serif" font-size="11.00">1 &gt;</text>
</a>
</g>
</g>
<!-- syst_enums -->
<g id="node2" class="node">
<title>syst_enums</title>
<g id="a_node2"><a xlink:href="../../tables/syst_enums.html" xlink:title="syst_enums" target="_top">
<polygon fill="#ffffff" stroke="transparent" points="8,-285 8,-343 126,-343 126,-285 8,-285"/>
<polygon fill="#f5f5f5" stroke="transparent" points="8,-321 8,-343 126,-343 126,-321 8,-321"/>
<polygon fill="none" stroke="black" points="8,-321 8,-343 126,-343 126,-321 8,-321"/>
<text text-anchor="start" x="13" y="-330.2" font-family="Helvetica,sans-Serif" font-weight="bold" font-size="11.00">syst_enums</text>
<text text-anchor="start" x="91" y="-329.2" font-family="Helvetica,sans-Serif" font-size="11.00">[table]</text>
<polygon fill="none" stroke="black" points="8,-303 8,-321 126,-321 126,-303 8,-303"/>
<text text-anchor="start" x="11" y="-309.2" font-family="Helvetica,sans-Serif" font-size="11.00">...</text>
<polygon fill="#ffffff" stroke="transparent" points="8,-285 8,-303 56,-303 56,-285 8,-285"/>
<polygon fill="none" stroke="black" points="8,-285 8,-303 56,-303 56,-285 8,-285"/>
<text text-anchor="start" x="11" y="-291.2" font-family="Helvetica,sans-Serif" font-size="11.00"> &#160;</text>
<polygon fill="#ffffff" stroke="transparent" points="56,-285 56,-303 86,-303 86,-285 56,-285"/>
<polygon fill="none" stroke="black" points="56,-285 56,-303 86,-303 86,-285 56,-285"/>
<text text-anchor="start" x="76" y="-291.2" font-family="Helvetica,sans-Serif" font-size="11.00"> &#160;</text>
<polygon fill="#ffffff" stroke="transparent" points="86,-285 86,-303 126,-303 126,-285 86,-285"/>
<polygon fill="none" stroke="black" points="86,-285 86,-303 126,-303 126,-285 86,-285"/>
<text text-anchor="start" x="107" y="-291.2" font-family="Helvetica,sans-Serif" font-size="11.00">2 &gt;</text>
</a>
</g>
</g>
<!-- syst_enum_functional_types&#45;&gt;syst_enums -->
<g id="edge1" class="edge">
<title>syst_enum_functional_types:w&#45;&gt;syst_enums:e</title>
<path fill="none" stroke="black" d="M160.6,-288.98C149.25,-296.49 145.4,-312 127,-312"/>
<polygon fill="black" stroke="black" points="166.81,-287.2 175.49,-288.46 170.65,-286.1 174.5,-285 174.5,-285 174.5,-285 170.65,-286.1 173.51,-281.54 166.81,-287.2 166.81,-287.2"/>
<ellipse fill="none" stroke="black" cx="163.73" cy="-288.09" rx="3.2" ry="3.2"/>
</g>
<!-- syst_enum_items -->
<g id="node3" class="node">
<title>syst_enum_items</title>
<g id="a_node3"><a xlink:href="../../tables/syst_enum_items.html" xlink:title="syst_enum_items" target="_top">
<polygon fill="#ffffff" stroke="transparent" points="453,-254 453,-422 647,-422 647,-254 453,-254"/>
<polygon fill="#f5f5f5" stroke="transparent" points="453,-400 453,-422 647,-422 647,-400 453,-400"/>
<polygon fill="none" stroke="black" points="453,-400 453,-422 647,-422 647,-400 453,-400"/>
<text text-anchor="start" x="458" y="-409.2" font-family="Helvetica,sans-Serif" font-weight="bold" font-size="11.00">syst_enum_items</text>
<text text-anchor="start" x="612" y="-408.2" font-family="Helvetica,sans-Serif" font-size="11.00">[table]</text>
<polygon fill="none" stroke="black" points="453,-378 453,-400 647,-400 647,-378 453,-378"/>
<image xlink:href="../../images/primaryKeys.png" width="11px" height="12px" preserveAspectRatio="xMinYMin meet" x="458" y="-395"/>
<text text-anchor="start" x="473" y="-386.2" font-family="Helvetica,sans-Serif" font-size="11.00">id</text>
<polygon fill="#ffffff" stroke="transparent" points="453,-356 453,-378 647,-378 647,-356 453,-356"/>
<polygon fill="none" stroke="black" points="453,-356 453,-378 647,-378 647,-356 453,-356"/>
<text text-anchor="start" x="473" y="-364.2" font-family="Helvetica,sans-Serif" font-size="11.00">internal_name</text>
<polygon fill="#ffffff" stroke="transparent" points="453,-334 453,-356 647,-356 647,-334 453,-334"/>
<polygon fill="none" stroke="black" points="453,-334 453,-356 647,-356 647,-334 453,-334"/>
<text text-anchor="start" x="473" y="-342.2" font-family="Helvetica,sans-Serif" font-size="11.00">display_name</text>
<polygon fill="none" stroke="black" points="453,-312 453,-334 647,-334 647,-312 453,-312"/>
<image xlink:href="../../images/foreignKeys.png" width="11px" height="12px" preserveAspectRatio="xMinYMin meet" x="458" y="-329"/>
<text text-anchor="start" x="473" y="-320.2" font-family="Helvetica,sans-Serif" font-size="11.00">enum_id</text>
<polygon fill="none" stroke="black" points="453,-290 453,-312 647,-312 647,-290 453,-290"/>
<image xlink:href="../../images/foreignKeys.png" width="11px" height="12px" preserveAspectRatio="xMinYMin meet" x="458" y="-307"/>
<text text-anchor="start" x="473" y="-298.2" font-family="Helvetica,sans-Serif" font-size="11.00">functional_type_id</text>
<polygon fill="none" stroke="black" points="453,-272 453,-290 647,-290 647,-272 453,-272"/>
<text text-anchor="start" x="456" y="-278.2" font-family="Helvetica,sans-Serif" font-size="11.00">...</text>
<polygon fill="#ffffff" stroke="transparent" points="453,-254 453,-272 543,-272 543,-254 453,-254"/>
<polygon fill="none" stroke="black" points="453,-254 453,-272 543,-272 543,-254 453,-254"/>
<text text-anchor="start" x="456" y="-260.2" font-family="Helvetica,sans-Serif" font-size="11.00">&lt; 2</text>
<polygon fill="#ffffff" stroke="transparent" points="543,-254 543,-272 590,-272 590,-254 543,-254"/>
<polygon fill="none" stroke="black" points="543,-254 543,-272 590,-272 590,-254 543,-254"/>
<text text-anchor="start" x="580" y="-260.2" font-family="Helvetica,sans-Serif" font-size="11.00"> &#160;</text>
<polygon fill="#ffffff" stroke="transparent" points="590,-254 590,-272 647,-272 647,-254 590,-254"/>
<polygon fill="none" stroke="black" points="590,-254 590,-272 647,-272 647,-254 590,-254"/>
<text text-anchor="start" x="628" y="-260.2" font-family="Helvetica,sans-Serif" font-size="11.00">1 &gt;</text>
</a>
</g>
</g>
<!-- syst_enum_items&#45;&gt;syst_enum_functional_types -->
<g id="edge3" class="edge">
<title>syst_enum_items:w&#45;&gt;syst_enum_functional_types:e</title>
<path fill="none" stroke="black" d="M437.57,-298.07C427.19,-293.45 421.38,-285 405.5,-285"/>
<polygon fill="black" stroke="black" points="444.16,-299.41 451.28,-304.53 448.08,-300.2 452,-301 452,-301 452,-301 448.08,-300.2 452.72,-297.47 444.16,-299.41 444.16,-299.41"/>
<ellipse fill="none" stroke="black" cx="441.02" cy="-298.77" rx="3.2" ry="3.2"/>
</g>
<!-- syst_enum_items&#45;&gt;syst_enums -->
<g id="edge2" class="edge">
<title>syst_enum_items:w&#45;&gt;syst_enums:e</title>
<path fill="none" stroke="black" d="M437.57,-323.64C429.73,-324.38 423.83,-325.56 412,-326 303.19,-330.07 274.35,-344.24 167,-326 148.43,-322.84 145.84,-312 127,-312"/>
<polygon fill="black" stroke="black" points="444.01,-323.35 452.16,-326.6 448,-323.18 452,-323 452,-323 452,-323 448,-323.18 451.84,-319.4 444.01,-323.35 444.01,-323.35"/>
<ellipse fill="none" stroke="black" cx="440.81" cy="-323.5" rx="3.2" ry="3.2"/>
</g>
<!-- syst_menu_items -->
<g id="node4" class="node">
<title>syst_menu_items</title>
<g id="a_node4"><a xlink:href="../../tables/syst_menu_items.html" xlink:title="syst_menu_items" target="_top">
<polygon fill="#ffffff" stroke="transparent" points="1036,-320 1036,-554 1230,-554 1230,-320 1036,-320"/>
<polygon fill="#f5f5f5" stroke="transparent" points="1036,-532 1036,-554 1230,-554 1230,-532 1036,-532"/>
<polygon fill="none" stroke="black" points="1036,-532 1036,-554 1230,-554 1230,-532 1036,-532"/>
<text text-anchor="start" x="1041" y="-541.2" font-family="Helvetica,sans-Serif" font-weight="bold" font-size="11.00">syst_menu_items</text>
<text text-anchor="start" x="1195" y="-540.2" font-family="Helvetica,sans-Serif" font-size="11.00">[table]</text>
<polygon fill="none" stroke="black" points="1036,-510 1036,-532 1230,-532 1230,-510 1036,-510"/>
<image xlink:href="../../images/primaryKeys.png" width="11px" height="12px" preserveAspectRatio="xMinYMin meet" x="1041" y="-527"/>
<text text-anchor="start" x="1056" y="-518.2" font-family="Helvetica,sans-Serif" font-size="11.00">id</text>
<polygon fill="#ffffff" stroke="transparent" points="1036,-488 1036,-510 1230,-510 1230,-488 1036,-488"/>
<polygon fill="none" stroke="black" points="1036,-488 1036,-510 1230,-510 1230,-488 1036,-488"/>
<text text-anchor="start" x="1056" y="-496.2" font-family="Helvetica,sans-Serif" font-size="11.00">internal_name</text>
<polygon fill="#ffffff" stroke="transparent" points="1036,-466 1036,-488 1230,-488 1230,-466 1036,-466"/>
<polygon fill="none" stroke="black" points="1036,-466 1036,-488 1230,-488 1230,-466 1036,-466"/>
<text text-anchor="start" x="1056" y="-474.2" font-family="Helvetica,sans-Serif" font-size="11.00">display_name</text>
<polygon fill="#ffffff" stroke="transparent" points="1036,-444 1036,-466 1230,-466 1230,-444 1036,-444"/>
<polygon fill="none" stroke="black" points="1036,-444 1036,-466 1230,-466 1230,-444 1036,-444"/>
<image xlink:href="../../images/foreignKeys.png" width="11px" height="12px" preserveAspectRatio="xMinYMin meet" x="1041" y="-461"/>
<text text-anchor="start" x="1056" y="-452.2" font-family="Helvetica,sans-Serif" font-size="11.00">menu_id</text>
<polygon fill="#ffffff" stroke="transparent" points="1036,-422 1036,-444 1230,-444 1230,-422 1036,-422"/>
<polygon fill="none" stroke="black" points="1036,-422 1036,-444 1230,-444 1230,-422 1036,-422"/>
<image xlink:href="../../images/foreignKeys.png" width="11px" height="12px" preserveAspectRatio="xMinYMin meet" x="1041" y="-439"/>
<text text-anchor="start" x="1056" y="-430.2" font-family="Helvetica,sans-Serif" font-size="11.00">parent_menu_item_id</text>
<polygon fill="#ffffff" stroke="transparent" points="1036,-400 1036,-422 1230,-422 1230,-400 1036,-400"/>
<polygon fill="none" stroke="black" points="1036,-400 1036,-422 1230,-422 1230,-400 1036,-400"/>
<text text-anchor="start" x="1056" y="-408.2" font-family="Helvetica,sans-Serif" font-size="11.00">sort_order</text>
<polygon fill="none" stroke="black" points="1036,-378 1036,-400 1230,-400 1230,-378 1036,-378"/>
<image xlink:href="../../images/foreignKeys.png" width="11px" height="12px" preserveAspectRatio="xMinYMin meet" x="1041" y="-395"/>
<text text-anchor="start" x="1056" y="-386.2" font-family="Helvetica,sans-Serif" font-size="11.00">submenu_menu_id</text>
<polygon fill="none" stroke="black" points="1036,-356 1036,-378 1230,-378 1230,-356 1036,-356"/>
<image xlink:href="../../images/foreignKeys.png" width="11px" height="12px" preserveAspectRatio="xMinYMin meet" x="1041" y="-373"/>
<text text-anchor="start" x="1056" y="-364.2" font-family="Helvetica,sans-Serif" font-size="11.00">action_id</text>
<polygon fill="none" stroke="black" points="1036,-338 1036,-356 1230,-356 1230,-338 1036,-338"/>
<text text-anchor="start" x="1039" y="-344.2" font-family="Helvetica,sans-Serif" font-size="11.00">...</text>
<polygon fill="#ffffff" stroke="transparent" points="1036,-320 1036,-338 1126,-338 1126,-320 1036,-320"/>
<polygon fill="none" stroke="black" points="1036,-320 1036,-338 1126,-338 1126,-320 1036,-320"/>
<text text-anchor="start" x="1039" y="-326.2" font-family="Helvetica,sans-Serif" font-size="11.00">&lt; 4</text>
<polygon fill="#ffffff" stroke="transparent" points="1126,-320 1126,-338 1173,-338 1173,-320 1126,-320"/>
<polygon fill="none" stroke="black" points="1126,-320 1126,-338 1173,-338 1173,-320 1126,-320"/>
<text text-anchor="start" x="1163" y="-326.2" font-family="Helvetica,sans-Serif" font-size="11.00"> &#160;</text>
<polygon fill="#ffffff" stroke="transparent" points="1173,-320 1173,-338 1230,-338 1230,-320 1173,-320"/>
<polygon fill="none" stroke="black" points="1173,-320 1173,-338 1230,-338 1230,-320 1173,-320"/>
<text text-anchor="start" x="1211" y="-326.2" font-family="Helvetica,sans-Serif" font-size="11.00">1 &gt;</text>
</a>
</g>
</g>
<!-- syst_actions -->
<g id="node5" class="node">
<title>syst_actions</title>
<g id="a_node5"><a xlink:href="../../tables/syst_actions.html" xlink:title="syst_actions" target="_top">
<polygon fill="#ffffff" stroke="transparent" points="780.5,-37 780.5,-95 902.5,-95 902.5,-37 780.5,-37"/>
<polygon fill="#f5f5f5" stroke="transparent" points="780.5,-73 780.5,-95 902.5,-95 902.5,-73 780.5,-73"/>
<polygon fill="none" stroke="black" points="780.5,-73 780.5,-95 902.5,-95 902.5,-73 780.5,-73"/>
<text text-anchor="start" x="785.5" y="-82.2" font-family="Helvetica,sans-Serif" font-weight="bold" font-size="11.00">syst_actions</text>
<text text-anchor="start" x="867.5" y="-81.2" font-family="Helvetica,sans-Serif" font-size="11.00">[table]</text>
<polygon fill="none" stroke="black" points="780.5,-55 780.5,-73 902.5,-73 902.5,-55 780.5,-55"/>
<text text-anchor="start" x="783.5" y="-61.2" font-family="Helvetica,sans-Serif" font-size="11.00">...</text>
<polygon fill="#ffffff" stroke="transparent" points="780.5,-37 780.5,-55 834.5,-55 834.5,-37 780.5,-37"/>
<polygon fill="none" stroke="black" points="780.5,-37 780.5,-55 834.5,-55 834.5,-37 780.5,-37"/>
<text text-anchor="start" x="783.5" y="-43.2" font-family="Helvetica,sans-Serif" font-size="11.00">&lt; 1</text>
<polygon fill="#ffffff" stroke="transparent" points="834.5,-37 834.5,-55 863.5,-55 863.5,-37 834.5,-37"/>
<polygon fill="none" stroke="black" points="834.5,-37 834.5,-55 863.5,-55 863.5,-37 834.5,-37"/>
<text text-anchor="start" x="853.5" y="-43.2" font-family="Helvetica,sans-Serif" font-size="11.00"> &#160;</text>
<polygon fill="#ffffff" stroke="transparent" points="863.5,-37 863.5,-55 902.5,-55 902.5,-37 863.5,-37"/>
<polygon fill="none" stroke="black" points="863.5,-37 863.5,-55 902.5,-55 902.5,-37 863.5,-37"/>
<text text-anchor="start" x="883.5" y="-43.2" font-family="Helvetica,sans-Serif" font-size="11.00">1 &gt;</text>
</a>
</g>
</g>
<!-- syst_menu_items&#45;&gt;syst_actions -->
<g id="edge4" class="edge">
<title>syst_menu_items:w&#45;&gt;syst_actions:e</title>
<path fill="none" stroke="black" d="M1021.26,-361.64C985.54,-328.14 1027.32,-147.47 995,-105 968.01,-69.54 948.06,-64 903.5,-64"/>
<polygon fill="black" stroke="black" points="1027.55,-364.09 1033.69,-370.35 1031.27,-365.55 1035,-367 1035,-367 1035,-367 1031.27,-365.55 1036.31,-363.65 1027.55,-364.09 1027.55,-364.09"/>
<ellipse fill="none" stroke="black" cx="1024.56" cy="-362.93" rx="3.2" ry="3.2"/>
</g>
<!-- syst_menus -->
<g id="node6" class="node">
<title>syst_menus</title>
<g id="a_node6"><a xlink:href="../../tables/syst_menus.html" xlink:title="syst_menus" target="_top">
<polygon fill="#ffffff" stroke="transparent" points="696,-116 696,-490 987,-490 987,-116 696,-116"/>
<polygon fill="#f5f5f5" stroke="transparent" points="698.5,-466 698.5,-488 985.5,-488 985.5,-466 698.5,-466"/>
<polygon fill="none" stroke="black" points="698.5,-466 698.5,-488 985.5,-488 985.5,-466 698.5,-466"/>
<text text-anchor="start" x="703.5" y="-475.2" font-family="Helvetica,sans-Serif" font-weight="bold" font-size="11.00">syst_menus</text>
<text text-anchor="start" x="950.5" y="-474.2" font-family="Helvetica,sans-Serif" font-size="11.00">[table]</text>
<polygon fill="none" stroke="black" points="698.5,-444 698.5,-466 892.5,-466 892.5,-444 698.5,-444"/>
<image xlink:href="../../images/primaryKeys.png" width="11px" height="12px" preserveAspectRatio="xMinYMin meet" x="703.5" y="-461"/>
<text text-anchor="start" x="718.5" y="-452.2" font-family="Helvetica,sans-Serif" font-size="11.00">id</text>
<polygon fill="none" stroke="black" points="892.5,-444 892.5,-466 985.5,-466 985.5,-444 892.5,-444"/>
<text text-anchor="start" x="895.5" y="-452.2" font-family="Helvetica,sans-Serif" font-size="11.00">uuid[2147483647]</text>
<polygon fill="#ffffff" stroke="transparent" points="698.5,-422 698.5,-444 892.5,-444 892.5,-422 698.5,-422"/>
<polygon fill="none" stroke="black" points="698.5,-422 698.5,-444 892.5,-444 892.5,-422 698.5,-422"/>
<text text-anchor="start" x="718.5" y="-430.2" font-family="Helvetica,sans-Serif" font-size="11.00">internal_name</text>
<polygon fill="none" stroke="black" points="892.5,-422 892.5,-444 985.5,-444 985.5,-422 892.5,-422"/>
<text text-anchor="start" x="895.5" y="-430.2" font-family="Helvetica,sans-Serif" font-size="11.00">text[2147483647]</text>
<polygon fill="#ffffff" stroke="transparent" points="698.5,-400 698.5,-422 892.5,-422 892.5,-400 698.5,-400"/>
<polygon fill="none" stroke="black" points="698.5,-400 698.5,-422 892.5,-422 892.5,-400 698.5,-400"/>
<text text-anchor="start" x="718.5" y="-408.2" font-family="Helvetica,sans-Serif" font-size="11.00">display_name</text>
<polygon fill="none" stroke="black" points="892.5,-400 892.5,-422 985.5,-422 985.5,-400 892.5,-400"/>
<text text-anchor="start" x="895.5" y="-408.2" font-family="Helvetica,sans-Serif" font-size="11.00">text[2147483647]</text>
<polygon fill="none" stroke="black" points="698.5,-378 698.5,-400 892.5,-400 892.5,-378 698.5,-378"/>
<image xlink:href="../../images/foreignKeys.png" width="11px" height="12px" preserveAspectRatio="xMinYMin meet" x="703.5" y="-395"/>
<text text-anchor="start" x="718.5" y="-386.2" font-family="Helvetica,sans-Serif" font-size="11.00">menu_state_id</text>
<polygon fill="none" stroke="black" points="892.5,-378 892.5,-400 985.5,-400 985.5,-378 892.5,-378"/>
<text text-anchor="start" x="895.5" y="-386.2" font-family="Helvetica,sans-Serif" font-size="11.00">uuid[2147483647]</text>
<polygon fill="none" stroke="black" points="698.5,-356 698.5,-378 892.5,-378 892.5,-356 698.5,-356"/>
<text text-anchor="start" x="718.5" y="-364.2" font-family="Helvetica,sans-Serif" font-size="11.00">syst_defined</text>
<polygon fill="none" stroke="black" points="892.5,-356 892.5,-378 985.5,-378 985.5,-356 892.5,-356"/>
<text text-anchor="start" x="895.5" y="-364.2" font-family="Helvetica,sans-Serif" font-size="11.00">bool[1]</text>
<polygon fill="none" stroke="black" points="698.5,-334 698.5,-356 892.5,-356 892.5,-334 698.5,-334"/>
<text text-anchor="start" x="718.5" y="-342.2" font-family="Helvetica,sans-Serif" font-size="11.00">user_maintainable</text>
<polygon fill="none" stroke="black" points="892.5,-334 892.5,-356 985.5,-356 985.5,-334 892.5,-334"/>
<text text-anchor="start" x="895.5" y="-342.2" font-family="Helvetica,sans-Serif" font-size="11.00">bool[1]</text>
<polygon fill="none" stroke="black" points="698.5,-312 698.5,-334 892.5,-334 892.5,-312 698.5,-312"/>
<text text-anchor="start" x="718.5" y="-320.2" font-family="Helvetica,sans-Serif" font-size="11.00">syst_description</text>
<polygon fill="none" stroke="black" points="892.5,-312 892.5,-334 985.5,-334 985.5,-312 892.5,-312"/>
<text text-anchor="start" x="895.5" y="-320.2" font-family="Helvetica,sans-Serif" font-size="11.00">text[2147483647]</text>
<polygon fill="none" stroke="black" points="698.5,-290 698.5,-312 892.5,-312 892.5,-290 698.5,-290"/>
<text text-anchor="start" x="718.5" y="-298.2" font-family="Helvetica,sans-Serif" font-size="11.00">user_description</text>
<polygon fill="none" stroke="black" points="892.5,-290 892.5,-312 985.5,-312 985.5,-290 892.5,-290"/>
<text text-anchor="start" x="895.5" y="-298.2" font-family="Helvetica,sans-Serif" font-size="11.00">text[2147483647]</text>
<polygon fill="none" stroke="black" points="698.5,-268 698.5,-290 892.5,-290 892.5,-268 698.5,-268"/>
<text text-anchor="start" x="718.5" y="-276.2" font-family="Helvetica,sans-Serif" font-size="11.00">diag_timestamp_created</text>
<polygon fill="none" stroke="black" points="892.5,-268 892.5,-290 985.5,-290 985.5,-268 892.5,-268"/>
<text text-anchor="start" x="895.5" y="-276.2" font-family="Helvetica,sans-Serif" font-size="11.00">timestamptz[35,6]</text>
<polygon fill="none" stroke="black" points="698.5,-246 698.5,-268 892.5,-268 892.5,-246 698.5,-246"/>
<text text-anchor="start" x="718.5" y="-254.2" font-family="Helvetica,sans-Serif" font-size="11.00">diag_role_created</text>
<polygon fill="none" stroke="black" points="892.5,-246 892.5,-268 985.5,-268 985.5,-246 892.5,-246"/>
<text text-anchor="start" x="895.5" y="-254.2" font-family="Helvetica,sans-Serif" font-size="11.00">text[2147483647]</text>
<polygon fill="none" stroke="black" points="698.5,-224 698.5,-246 892.5,-246 892.5,-224 698.5,-224"/>
<text text-anchor="start" x="718.5" y="-232.2" font-family="Helvetica,sans-Serif" font-size="11.00">diag_timestamp_modified</text>
<polygon fill="none" stroke="black" points="892.5,-224 892.5,-246 985.5,-246 985.5,-224 892.5,-224"/>
<text text-anchor="start" x="895.5" y="-232.2" font-family="Helvetica,sans-Serif" font-size="11.00">timestamptz[35,6]</text>
<polygon fill="none" stroke="black" points="698.5,-202 698.5,-224 892.5,-224 892.5,-202 698.5,-202"/>
<text text-anchor="start" x="718.5" y="-210.2" font-family="Helvetica,sans-Serif" font-size="11.00">diag_wallclock_modified</text>
<polygon fill="none" stroke="black" points="892.5,-202 892.5,-224 985.5,-224 985.5,-202 892.5,-202"/>
<text text-anchor="start" x="895.5" y="-210.2" font-family="Helvetica,sans-Serif" font-size="11.00">timestamptz[35,6]</text>
<polygon fill="none" stroke="black" points="698.5,-180 698.5,-202 892.5,-202 892.5,-180 698.5,-180"/>
<text text-anchor="start" x="718.5" y="-188.2" font-family="Helvetica,sans-Serif" font-size="11.00">diag_role_modified</text>
<polygon fill="none" stroke="black" points="892.5,-180 892.5,-202 985.5,-202 985.5,-180 892.5,-180"/>
<text text-anchor="start" x="895.5" y="-188.2" font-family="Helvetica,sans-Serif" font-size="11.00">text[2147483647]</text>
<polygon fill="none" stroke="black" points="698.5,-158 698.5,-180 892.5,-180 892.5,-158 698.5,-158"/>
<text text-anchor="start" x="718.5" y="-166.2" font-family="Helvetica,sans-Serif" font-size="11.00">diag_row_version</text>
<polygon fill="none" stroke="black" points="892.5,-158 892.5,-180 985.5,-180 985.5,-158 892.5,-158"/>
<text text-anchor="start" x="895.5" y="-166.2" font-family="Helvetica,sans-Serif" font-size="11.00">int8[19]</text>
<polygon fill="none" stroke="black" points="698.5,-136 698.5,-158 892.5,-158 892.5,-136 698.5,-136"/>
<text text-anchor="start" x="718.5" y="-144.2" font-family="Helvetica,sans-Serif" font-size="11.00">diag_update_count</text>
<polygon fill="none" stroke="black" points="892.5,-136 892.5,-158 985.5,-158 985.5,-136 892.5,-136"/>
<text text-anchor="start" x="895.5" y="-144.2" font-family="Helvetica,sans-Serif" font-size="11.00">int8[19]</text>
<polygon fill="#ffffff" stroke="transparent" points="698.5,-118 698.5,-136 799.5,-136 799.5,-118 698.5,-118"/>
<polygon fill="none" stroke="black" points="698.5,-118 698.5,-136 799.5,-136 799.5,-118 698.5,-118"/>
<text text-anchor="start" x="701.5" y="-124.2" font-family="Helvetica,sans-Serif" font-size="11.00">&lt; 1</text>
<polygon fill="#ffffff" stroke="transparent" points="799.5,-118 799.5,-136 892.5,-136 892.5,-118 799.5,-118"/>
<polygon fill="none" stroke="black" points="799.5,-118 799.5,-136 892.5,-136 892.5,-118 799.5,-118"/>
<text text-anchor="start" x="882.5" y="-124.2" font-family="Helvetica,sans-Serif" font-size="11.00"> &#160;</text>
<polygon fill="#ffffff" stroke="transparent" points="892.5,-118 892.5,-136 985.5,-136 985.5,-118 892.5,-118"/>
<polygon fill="none" stroke="black" points="892.5,-118 892.5,-136 985.5,-136 985.5,-118 892.5,-118"/>
<text text-anchor="start" x="966.5" y="-124.2" font-family="Helvetica,sans-Serif" font-size="11.00">2 &gt;</text>
<polygon fill="none" stroke="black" stroke-width="2" points="697,-117 697,-489 986,-489 986,-117 697,-117"/>
</a>
</g>
</g>
<!-- syst_menu_items&#45;&gt;syst_menus -->
<g id="edge5" class="edge">
<title>syst_menu_items:w&#45;&gt;syst_menus:e</title>
<path fill="none" stroke="black" d="M1020.28,-455C1009.29,-455 1002.16,-455 986.5,-455"/>
<polygon fill="black" stroke="black" points="1027,-455 1035,-458.6 1031,-455 1035,-455 1035,-455 1035,-455 1031,-455 1035,-451.4 1027,-455 1027,-455"/>
<ellipse fill="none" stroke="black" cx="1023.8" cy="-455" rx="3.2" ry="3.2"/>
</g>
<!-- syst_menu_items&#45;&gt;syst_menus -->
<g id="edge6" class="edge">
<title>syst_menu_items:w&#45;&gt;syst_menus:e</title>
<path fill="none" stroke="black" d="M1020.99,-394.18C1005.16,-409.74 1016.65,-455 986.5,-455"/>
<polygon fill="black" stroke="black" points="1027.5,-391.77 1036.25,-392.38 1031.25,-390.39 1035,-389 1035,-389 1035,-389 1031.25,-390.39 1033.75,-385.62 1027.5,-391.77 1027.5,-391.77"/>
<ellipse fill="none" stroke="black" cx="1024.5" cy="-392.88" rx="3.2" ry="3.2"/>
</g>
<!-- syst_menus&#45;&gt;syst_enum_items -->
<g id="edge7" class="edge">
<title>syst_menus:w&#45;&gt;syst_enum_items:e</title>
<path fill="none" stroke="black" d="M682.84,-389C671.41,-389 664.16,-389 648,-389"/>
<polygon fill="black" stroke="black" points="689.5,-389 697.5,-392.6 693.5,-389 697.5,-389 697.5,-389 697.5,-389 693.5,-389 697.5,-385.4 689.5,-389 689.5,-389"/>
<ellipse fill="none" stroke="black" cx="686.3" cy="-389" rx="3.2" ry="3.2"/>
</g>
</g>
</svg>
