<?xml version="1.0" encoding="UTF-8" standalone="no"?>
<!DOCTYPE svg PUBLIC "-//W3C//DTD SVG 1.1//EN"
 "http://www.w3.org/Graphics/SVG/1.1/DTD/svg11.dtd">
<!-- Generated by graphviz version 2.43.0 (0)
 -->
<!-- Title: oneDegreeRelationshipsDiagram Pages: 1 -->
<svg width="640pt" height="373pt"
 viewBox="0.00 0.00 640.00 373.00" xmlns="http://www.w3.org/2000/svg" xmlns:xlink="http://www.w3.org/1999/xlink">
<g id="graph0" class="graph" transform="scale(1 1) rotate(0) translate(4 369)">
<title>oneDegreeRelationshipsDiagram</title>
<polygon fill="#ffffff" stroke="transparent" points="-4,4 -4,-369 636,-369 636,4 -4,4"/>
<text text-anchor="middle" x="71.5" y="-7.2" font-family="Helvetica,sans-Serif" font-size="11.00">Generated by SchemaSpy</text>
<!-- syst_instance_type_contexts -->
<g id="node1" class="node">
<title>syst_instance_type_contexts</title>
<g id="a_node1"><a xlink:href="../../tables/syst_instance_type_contexts.html" xlink:title="syst_instance_type_contexts" target="_top">
<polygon fill="#ffffff" stroke="transparent" points="313,-37 313,-323 624,-323 624,-37 313,-37"/>
<polygon fill="#f5f5f5" stroke="transparent" points="315.5,-299 315.5,-321 622.5,-321 622.5,-299 315.5,-299"/>
<polygon fill="none" stroke="black" points="315.5,-299 315.5,-321 622.5,-321 622.5,-299 315.5,-299"/>
<text text-anchor="start" x="320.5" y="-308.2" font-family="Helvetica,sans-Serif" font-weight="bold" font-size="11.00">syst_instance_type_contexts</text>
<text text-anchor="start" x="587.5" y="-307.2" font-family="Helvetica,sans-Serif" font-size="11.00">[table]</text>
<polygon fill="none" stroke="black" points="315.5,-277 315.5,-299 529.5,-299 529.5,-277 315.5,-277"/>
<image xlink:href="../../images/primaryKeys.png" width="11px" height="12px" preserveAspectRatio="xMinYMin meet" x="320.5" y="-294"/>
<text text-anchor="start" x="335.5" y="-285.2" font-family="Helvetica,sans-Serif" font-size="11.00">id</text>
<polygon fill="none" stroke="black" points="529.5,-277 529.5,-299 622.5,-299 622.5,-277 529.5,-277"/>
<text text-anchor="start" x="532.5" y="-285.2" font-family="Helvetica,sans-Serif" font-size="11.00">uuid[2147483647]</text>
<polygon fill="#ffffff" stroke="transparent" points="315.5,-255 315.5,-277 529.5,-277 529.5,-255 315.5,-255"/>
<polygon fill="none" stroke="black" points="315.5,-255 315.5,-277 529.5,-277 529.5,-255 315.5,-255"/>
<image xlink:href="../../images/foreignKeys.png" width="11px" height="12px" preserveAspectRatio="xMinYMin meet" x="320.5" y="-272"/>
<text text-anchor="start" x="335.5" y="-263.2" font-family="Helvetica,sans-Serif" font-size="11.00">instance_type_application_id</text>
<polygon fill="none" stroke="black" points="529.5,-255 529.5,-277 622.5,-277 622.5,-255 529.5,-255"/>
<text text-anchor="start" x="532.5" y="-263.2" font-family="Helvetica,sans-Serif" font-size="11.00">uuid[2147483647]</text>
<polygon fill="#ffffff" stroke="transparent" points="315.5,-233 315.5,-255 529.5,-255 529.5,-233 315.5,-233"/>
<polygon fill="none" stroke="black" points="315.5,-233 315.5,-255 529.5,-255 529.5,-233 315.5,-233"/>
<image xlink:href="../../images/foreignKeys.png" width="11px" height="12px" preserveAspectRatio="xMinYMin meet" x="320.5" y="-250"/>
<text text-anchor="start" x="335.5" y="-241.2" font-family="Helvetica,sans-Serif" font-size="11.00">application_context_id</text>
<polygon fill="none" stroke="black" points="529.5,-233 529.5,-255 622.5,-255 622.5,-233 529.5,-233"/>
<text text-anchor="start" x="532.5" y="-241.2" font-family="Helvetica,sans-Serif" font-size="11.00">uuid[2147483647]</text>
<polygon fill="none" stroke="black" points="315.5,-211 315.5,-233 529.5,-233 529.5,-211 315.5,-211"/>
<text text-anchor="start" x="335.5" y="-219.2" font-family="Helvetica,sans-Serif" font-size="11.00">default_db_pool_size</text>
<polygon fill="none" stroke="black" points="529.5,-211 529.5,-233 622.5,-233 622.5,-211 529.5,-211"/>
<text text-anchor="start" x="532.5" y="-219.2" font-family="Helvetica,sans-Serif" font-size="11.00">int4[10]</text>
<polygon fill="none" stroke="black" points="315.5,-189 315.5,-211 529.5,-211 529.5,-189 315.5,-189"/>
<text text-anchor="start" x="335.5" y="-197.2" font-family="Helvetica,sans-Serif" font-size="11.00">diag_timestamp_created</text>
<polygon fill="none" stroke="black" points="529.5,-189 529.5,-211 622.5,-211 622.5,-189 529.5,-189"/>
<text text-anchor="start" x="532.5" y="-197.2" font-family="Helvetica,sans-Serif" font-size="11.00">timestamptz[35,6]</text>
<polygon fill="none" stroke="black" points="315.5,-167 315.5,-189 529.5,-189 529.5,-167 315.5,-167"/>
<text text-anchor="start" x="335.5" y="-175.2" font-family="Helvetica,sans-Serif" font-size="11.00">diag_role_created</text>
<polygon fill="none" stroke="black" points="529.5,-167 529.5,-189 622.5,-189 622.5,-167 529.5,-167"/>
<text text-anchor="start" x="532.5" y="-175.2" font-family="Helvetica,sans-Serif" font-size="11.00">text[2147483647]</text>
<polygon fill="none" stroke="black" points="315.5,-145 315.5,-167 529.5,-167 529.5,-145 315.5,-145"/>
<text text-anchor="start" x="335.5" y="-153.2" font-family="Helvetica,sans-Serif" font-size="11.00">diag_timestamp_modified</text>
<polygon fill="none" stroke="black" points="529.5,-145 529.5,-167 622.5,-167 622.5,-145 529.5,-145"/>
<text text-anchor="start" x="532.5" y="-153.2" font-family="Helvetica,sans-Serif" font-size="11.00">timestamptz[35,6]</text>
<polygon fill="none" stroke="black" points="315.5,-123 315.5,-145 529.5,-145 529.5,-123 315.5,-123"/>
<text text-anchor="start" x="335.5" y="-131.2" font-family="Helvetica,sans-Serif" font-size="11.00">diag_wallclock_modified</text>
<polygon fill="none" stroke="black" points="529.5,-123 529.5,-145 622.5,-145 622.5,-123 529.5,-123"/>
<text text-anchor="start" x="532.5" y="-131.2" font-family="Helvetica,sans-Serif" font-size="11.00">timestamptz[35,6]</text>
<polygon fill="none" stroke="black" points="315.5,-101 315.5,-123 529.5,-123 529.5,-101 315.5,-101"/>
<text text-anchor="start" x="335.5" y="-109.2" font-family="Helvetica,sans-Serif" font-size="11.00">diag_role_modified</text>
<polygon fill="none" stroke="black" points="529.5,-101 529.5,-123 622.5,-123 622.5,-101 529.5,-101"/>
<text text-anchor="start" x="532.5" y="-109.2" font-family="Helvetica,sans-Serif" font-size="11.00">text[2147483647]</text>
<polygon fill="none" stroke="black" points="315.5,-79 315.5,-101 529.5,-101 529.5,-79 315.5,-79"/>
<text text-anchor="start" x="335.5" y="-87.2" font-family="Helvetica,sans-Serif" font-size="11.00">diag_row_version</text>
<polygon fill="none" stroke="black" points="529.5,-79 529.5,-101 622.5,-101 622.5,-79 529.5,-79"/>
<text text-anchor="start" x="532.5" y="-87.2" font-family="Helvetica,sans-Serif" font-size="11.00">int8[19]</text>
<polygon fill="none" stroke="black" points="315.5,-57 315.5,-79 529.5,-79 529.5,-57 315.5,-57"/>
<text text-anchor="start" x="335.5" y="-65.2" font-family="Helvetica,sans-Serif" font-size="11.00">diag_update_count</text>
<polygon fill="none" stroke="black" points="529.5,-57 529.5,-79 622.5,-79 622.5,-57 529.5,-57"/>
<text text-anchor="start" x="532.5" y="-65.2" font-family="Helvetica,sans-Serif" font-size="11.00">int8[19]</text>
<polygon fill="#ffffff" stroke="transparent" points="315.5,-39 315.5,-57 426.5,-57 426.5,-39 315.5,-39"/>
<polygon fill="none" stroke="black" points="315.5,-39 315.5,-57 426.5,-57 426.5,-39 315.5,-39"/>
<text text-anchor="start" x="318.5" y="-45.2" font-family="Helvetica,sans-Serif" font-size="11.00">&lt; 2</text>
<polygon fill="#ffffff" stroke="transparent" points="426.5,-39 426.5,-57 529.5,-57 529.5,-39 426.5,-39"/>
<polygon fill="none" stroke="black" points="426.5,-39 426.5,-57 529.5,-57 529.5,-39 426.5,-39"/>
<text text-anchor="start" x="519.5" y="-45.2" font-family="Helvetica,sans-Serif" font-size="11.00"> &#160;</text>
<polygon fill="#ffffff" stroke="transparent" points="529.5,-39 529.5,-57 622.5,-57 622.5,-39 529.5,-39"/>
<polygon fill="none" stroke="black" points="529.5,-39 529.5,-57 622.5,-57 622.5,-39 529.5,-39"/>
<text text-anchor="start" x="603.5" y="-45.2" font-family="Helvetica,sans-Serif" font-size="11.00">0 &gt;</text>
<polygon fill="none" stroke="black" stroke-width="2" points="314,-38 314,-322 623,-322 623,-38 314,-38"/>
</a>
</g>
</g>
<!-- syst_application_contexts -->
<g id="node2" class="node">
<title>syst_application_contexts</title>
<g id="a_node2"><a xlink:href="../../tables/syst_application_contexts.html" xlink:title="syst_application_contexts" target="_top">
<polygon fill="#ffffff" stroke="transparent" points="29.5,-70 29.5,-216 242.5,-216 242.5,-70 29.5,-70"/>
<polygon fill="#f5f5f5" stroke="transparent" points="30,-194 30,-216 243,-216 243,-194 30,-194"/>
<polygon fill="none" stroke="black" points="30,-194 30,-216 243,-216 243,-194 30,-194"/>
<text text-anchor="start" x="35" y="-203.2" font-family="Helvetica,sans-Serif" font-weight="bold" font-size="11.00">syst_application_contexts</text>
<text text-anchor="start" x="208" y="-202.2" font-family="Helvetica,sans-Serif" font-size="11.00">[table]</text>
<polygon fill="none" stroke="black" points="30,-172 30,-194 243,-194 243,-172 30,-172"/>
<image xlink:href="../../images/primaryKeys.png" width="11px" height="12px" preserveAspectRatio="xMinYMin meet" x="35" y="-189"/>
<text text-anchor="start" x="60" y="-180.2" font-family="Helvetica,sans-Serif" font-size="11.00">id</text>
<polygon fill="#ffffff" stroke="transparent" points="30,-150 30,-172 243,-172 243,-150 30,-150"/>
<polygon fill="none" stroke="black" points="30,-150 30,-172 243,-172 243,-150 30,-150"/>
<text text-anchor="start" x="60" y="-158.2" font-family="Helvetica,sans-Serif" font-size="11.00">internal_name</text>
<polygon fill="#ffffff" stroke="transparent" points="30,-128 30,-150 243,-150 243,-128 30,-128"/>
<polygon fill="none" stroke="black" points="30,-128 30,-150 243,-150 243,-128 30,-128"/>
<text text-anchor="start" x="60" y="-136.2" font-family="Helvetica,sans-Serif" font-size="11.00">display_name</text>
<polygon fill="none" stroke="black" points="30,-106 30,-128 243,-128 243,-106 30,-106"/>
<image xlink:href="../../images/foreignKeys.png" width="11px" height="12px" preserveAspectRatio="xMinYMin meet" x="35" y="-123"/>
<text text-anchor="start" x="60" y="-114.2" font-family="Helvetica,sans-Serif" font-size="11.00">application_id</text>
<polygon fill="none" stroke="black" points="30,-88 30,-106 243,-106 243,-88 30,-88"/>
<text text-anchor="start" x="33" y="-94.2" font-family="Helvetica,sans-Serif" font-size="11.00">...</text>
<polygon fill="#ffffff" stroke="transparent" points="30,-70 30,-88 130,-88 130,-70 30,-70"/>
<polygon fill="none" stroke="black" points="30,-70 30,-88 130,-88 130,-70 30,-70"/>
<text text-anchor="start" x="33" y="-76.2" font-family="Helvetica,sans-Serif" font-size="11.00">&lt; 1</text>
<polygon fill="#ffffff" stroke="transparent" points="130,-70 130,-88 182,-88 182,-70 130,-70"/>
<polygon fill="none" stroke="black" points="130,-70 130,-88 182,-88 182,-70 130,-70"/>
<text text-anchor="start" x="172" y="-76.2" font-family="Helvetica,sans-Serif" font-size="11.00"> &#160;</text>
<polygon fill="#ffffff" stroke="transparent" points="182,-70 182,-88 243,-88 243,-70 182,-70"/>
<polygon fill="none" stroke="black" points="182,-70 182,-88 243,-88 243,-70 182,-70"/>
<text text-anchor="start" x="224" y="-76.2" font-family="Helvetica,sans-Serif" font-size="11.00">2 &gt;</text>
</a>
</g>
</g>
<!-- syst_instance_type_contexts&#45;&gt;syst_application_contexts -->
<g id="edge1" class="edge">
<title>syst_instance_type_contexts:w&#45;&gt;syst_application_contexts:e</title>
<path fill="none" stroke="black" d="M300.25,-240.89C275.44,-228.46 279.77,-183 244,-183"/>
<polygon fill="black" stroke="black" points="306.68,-242.3 313.73,-247.52 310.59,-243.15 314.5,-244 314.5,-244 314.5,-244 310.59,-243.15 315.27,-240.48 306.68,-242.3 306.68,-242.3"/>
<ellipse fill="none" stroke="black" cx="303.56" cy="-241.61" rx="3.2" ry="3.2"/>
</g>
<!-- syst_instance_type_applications -->
<g id="node3" class="node">
<title>syst_instance_type_applications</title>
<g id="a_node3"><a xlink:href="../../tables/syst_instance_type_applications.html" xlink:title="syst_instance_type_applications" target="_top">
<polygon fill="#ffffff" stroke="transparent" points="8,-237 8,-361 264,-361 264,-237 8,-237"/>
<polygon fill="#f5f5f5" stroke="transparent" points="8,-339 8,-361 264,-361 264,-339 8,-339"/>
<polygon fill="none" stroke="black" points="8,-339 8,-361 264,-361 264,-339 8,-339"/>
<text text-anchor="start" x="13" y="-348.2" font-family="Helvetica,sans-Serif" font-weight="bold" font-size="11.00">syst_instance_type_applications</text>
<text text-anchor="start" x="229" y="-347.2" font-family="Helvetica,sans-Serif" font-size="11.00">[table]</text>
<polygon fill="none" stroke="black" points="8,-317 8,-339 264,-339 264,-317 8,-317"/>
<image xlink:href="../../images/primaryKeys.png" width="11px" height="12px" preserveAspectRatio="xMinYMin meet" x="13" y="-334"/>
<text text-anchor="start" x="38" y="-325.2" font-family="Helvetica,sans-Serif" font-size="11.00">id</text>
<polygon fill="#ffffff" stroke="transparent" points="8,-295 8,-317 264,-317 264,-295 8,-295"/>
<polygon fill="none" stroke="black" points="8,-295 8,-317 264,-317 264,-295 8,-295"/>
<image xlink:href="../../images/foreignKeys.png" width="11px" height="12px" preserveAspectRatio="xMinYMin meet" x="13" y="-312"/>
<text text-anchor="start" x="38" y="-303.2" font-family="Helvetica,sans-Serif" font-size="11.00">instance_type_id</text>
<polygon fill="#ffffff" stroke="transparent" points="8,-273 8,-295 264,-295 264,-273 8,-273"/>
<polygon fill="none" stroke="black" points="8,-273 8,-295 264,-295 264,-273 8,-273"/>
<image xlink:href="../../images/foreignKeys.png" width="11px" height="12px" preserveAspectRatio="xMinYMin meet" x="13" y="-290"/>
<text text-anchor="start" x="38" y="-281.2" font-family="Helvetica,sans-Serif" font-size="11.00">application_id</text>
<polygon fill="none" stroke="black" points="8,-255 8,-273 264,-273 264,-255 8,-255"/>
<text text-anchor="start" x="11" y="-261.2" font-family="Helvetica,sans-Serif" font-size="11.00">...</text>
<polygon fill="#ffffff" stroke="transparent" points="8,-237 8,-255 129,-255 129,-237 8,-237"/>
<polygon fill="none" stroke="black" points="8,-237 8,-255 129,-255 129,-237 8,-237"/>
<text text-anchor="start" x="11" y="-243.2" font-family="Helvetica,sans-Serif" font-size="11.00">&lt; 2</text>
<polygon fill="#ffffff" stroke="transparent" points="129,-237 129,-255 192,-255 192,-237 129,-237"/>
<polygon fill="none" stroke="black" points="129,-237 129,-255 192,-255 192,-237 129,-237"/>
<text text-anchor="start" x="182" y="-243.2" font-family="Helvetica,sans-Serif" font-size="11.00"> &#160;</text>
<polygon fill="#ffffff" stroke="transparent" points="192,-237 192,-255 264,-255 264,-237 192,-237"/>
<polygon fill="none" stroke="black" points="192,-237 192,-255 264,-255 264,-237 192,-237"/>
<text text-anchor="start" x="245" y="-243.2" font-family="Helvetica,sans-Serif" font-size="11.00">1 &gt;</text>
</a>
</g>
</g>
<!-- syst_instance_type_contexts&#45;&gt;syst_instance_type_applications -->
<g id="edge2" class="edge">
<title>syst_instance_type_contexts:w&#45;&gt;syst_instance_type_applications:e</title>
<path fill="none" stroke="black" d="M300.74,-270.87C284.8,-285.48 294.2,-328 265,-328"/>
<polygon fill="black" stroke="black" points="306.96,-268.67 315.7,-269.39 310.73,-267.33 314.5,-266 314.5,-266 314.5,-266 310.73,-267.33 313.3,-262.61 306.96,-268.67 306.96,-268.67"/>
<ellipse fill="none" stroke="black" cx="303.94" cy="-269.73" rx="3.2" ry="3.2"/>
</g>
</g>
</svg>
