<?xml version="1.0" encoding="UTF-8" standalone="no"?>
<!DOCTYPE svg PUBLIC "-//W3C//DTD SVG 1.1//EN"
 "http://www.w3.org/Graphics/SVG/1.1/DTD/svg11.dtd">
<!-- Generated by graphviz version 2.43.0 (0)
 -->
<!-- Title: oneDegreeRelationshipsDiagram Pages: 1 -->
<svg width="1079pt" height="531pt"
 viewBox="0.00 0.00 1079.00 531.00" xmlns="http://www.w3.org/2000/svg" xmlns:xlink="http://www.w3.org/1999/xlink">
<g id="graph0" class="graph" transform="scale(1 1) rotate(0) translate(4 527)">
<title>oneDegreeRelationshipsDiagram</title>
<polygon fill="#ffffff" stroke="transparent" points="-4,4 -4,-527 1075,-527 1075,4 -4,4"/>
<text text-anchor="middle" x="79.5" y="-7.2" font-family="Helvetica,sans-Serif" font-size="11.00">Generated by SchemaSpy</text>
<!-- syst_instance_contexts -->
<g id="node1" class="node">
<title>syst_instance_contexts</title>
<g id="a_node1"><a xlink:href="../../tables/syst_instance_contexts.html" xlink:title="syst_instance_contexts" target="_top">
<polygon fill="#ffffff" stroke="transparent" points="861,-373 861,-519 1063,-519 1063,-373 861,-373"/>
<polygon fill="#f5f5f5" stroke="transparent" points="861,-497 861,-519 1063,-519 1063,-497 861,-497"/>
<polygon fill="none" stroke="black" points="861,-497 861,-519 1063,-519 1063,-497 861,-497"/>
<text text-anchor="start" x="866" y="-506.2" font-family="Helvetica,sans-Serif" font-weight="bold" font-size="11.00">syst_instance_contexts</text>
<text text-anchor="start" x="1021" y="-505.2" font-family="Helvetica,sans-Serif" font-size="11.00">[table]</text>
<polygon fill="none" stroke="black" points="861,-475 861,-497 1063,-497 1063,-475 861,-475"/>
<image xlink:href="../../images/primaryKeys.png" width="11px" height="12px" preserveAspectRatio="xMinYMin meet" x="866" y="-492"/>
<text text-anchor="start" x="885" y="-483.2" font-family="Helvetica,sans-Serif" font-size="11.00">id</text>
<polygon fill="#ffffff" stroke="transparent" points="861,-453 861,-475 1063,-475 1063,-453 861,-453"/>
<polygon fill="none" stroke="black" points="861,-453 861,-475 1063,-475 1063,-453 861,-453"/>
<text text-anchor="start" x="885" y="-461.2" font-family="Helvetica,sans-Serif" font-size="11.00">internal_name</text>
<polygon fill="none" stroke="black" points="861,-431 861,-453 1063,-453 1063,-431 861,-431"/>
<image xlink:href="../../images/foreignKeys.png" width="11px" height="12px" preserveAspectRatio="xMinYMin meet" x="866" y="-448"/>
<text text-anchor="start" x="885" y="-439.2" font-family="Helvetica,sans-Serif" font-size="11.00">instance_id</text>
<polygon fill="none" stroke="black" points="861,-409 861,-431 1063,-431 1063,-409 861,-409"/>
<image xlink:href="../../images/foreignKeys.png" width="11px" height="12px" preserveAspectRatio="xMinYMin meet" x="866" y="-426"/>
<text text-anchor="start" x="885" y="-417.2" font-family="Helvetica,sans-Serif" font-size="11.00">application_context_id</text>
<polygon fill="none" stroke="black" points="861,-391 861,-409 1063,-409 1063,-391 861,-391"/>
<text text-anchor="start" x="864" y="-397.2" font-family="Helvetica,sans-Serif" font-size="11.00">...</text>
<polygon fill="#ffffff" stroke="transparent" points="861,-373 861,-391 961,-391 961,-373 861,-373"/>
<polygon fill="none" stroke="black" points="861,-373 861,-391 961,-391 961,-373 861,-373"/>
<text text-anchor="start" x="864" y="-379.2" font-family="Helvetica,sans-Serif" font-size="11.00">&lt; 2</text>
<polygon fill="#ffffff" stroke="transparent" points="961,-373 961,-391 1012,-391 1012,-373 961,-373"/>
<polygon fill="none" stroke="black" points="961,-373 961,-391 1012,-391 1012,-373 961,-373"/>
<text text-anchor="start" x="1001" y="-379.2" font-family="Helvetica,sans-Serif" font-size="11.00"> &#160;</text>
<polygon fill="#ffffff" stroke="transparent" points="1012,-373 1012,-391 1063,-391 1063,-373 1012,-373"/>
<polygon fill="none" stroke="black" points="1012,-373 1012,-391 1063,-391 1063,-373 1012,-373"/>
<text text-anchor="start" x="1052" y="-379.2" font-family="Helvetica,sans-Serif" font-size="11.00"> &#160;</text>
</a>
</g>
</g>
<!-- syst_instances -->
<g id="node2" class="node">
<title>syst_instances</title>
<g id="a_node2"><a xlink:href="../../tables/syst_instances.html" xlink:title="syst_instances" target="_top">
<polygon fill="#ffffff" stroke="transparent" points="494,-37 494,-477 812,-477 812,-37 494,-37"/>
<polygon fill="#f5f5f5" stroke="transparent" points="496,-453 496,-475 810,-475 810,-453 496,-453"/>
<polygon fill="none" stroke="black" points="496,-453 496,-475 810,-475 810,-453 496,-453"/>
<text text-anchor="start" x="501" y="-462.2" font-family="Helvetica,sans-Serif" font-weight="bold" font-size="11.00">syst_instances</text>
<text text-anchor="start" x="768" y="-461.2" font-family="Helvetica,sans-Serif" font-size="11.00">[table]</text>
<polygon fill="none" stroke="black" points="496,-431 496,-453 695,-453 695,-431 496,-431"/>
<image xlink:href="../../images/primaryKeys.png" width="11px" height="12px" preserveAspectRatio="xMinYMin meet" x="501" y="-448"/>
<text text-anchor="start" x="516" y="-439.2" font-family="Helvetica,sans-Serif" font-size="11.00">id</text>
<polygon fill="none" stroke="black" points="695,-431 695,-453 810,-453 810,-431 695,-431"/>
<text text-anchor="start" x="698" y="-439.2" font-family="Helvetica,sans-Serif" font-size="11.00">uuid[2147483647]</text>
<polygon fill="#ffffff" stroke="transparent" points="496,-409 496,-431 695,-431 695,-409 496,-409"/>
<polygon fill="none" stroke="black" points="496,-409 496,-431 695,-431 695,-409 496,-409"/>
<text text-anchor="start" x="516" y="-417.2" font-family="Helvetica,sans-Serif" font-size="11.00">internal_name</text>
<polygon fill="none" stroke="black" points="695,-409 695,-431 810,-431 810,-409 695,-409"/>
<text text-anchor="start" x="698" y="-417.2" font-family="Helvetica,sans-Serif" font-size="11.00">text[2147483647]</text>
<polygon fill="#ffffff" stroke="transparent" points="496,-387 496,-409 695,-409 695,-387 496,-387"/>
<polygon fill="none" stroke="black" points="496,-387 496,-409 695,-409 695,-387 496,-387"/>
<text text-anchor="start" x="516" y="-395.2" font-family="Helvetica,sans-Serif" font-size="11.00">display_name</text>
<polygon fill="none" stroke="black" points="695,-387 695,-409 810,-409 810,-387 695,-387"/>
<text text-anchor="start" x="698" y="-395.2" font-family="Helvetica,sans-Serif" font-size="11.00">text[2147483647]</text>
<polygon fill="none" stroke="black" points="496,-365 496,-387 695,-387 695,-365 496,-365"/>
<image xlink:href="../../images/foreignKeys.png" width="11px" height="12px" preserveAspectRatio="xMinYMin meet" x="501" y="-382"/>
<text text-anchor="start" x="516" y="-373.2" font-family="Helvetica,sans-Serif" font-size="11.00">application_id</text>
<polygon fill="none" stroke="black" points="695,-365 695,-387 810,-387 810,-365 695,-365"/>
<text text-anchor="start" x="698" y="-373.2" font-family="Helvetica,sans-Serif" font-size="11.00">uuid[2147483647]</text>
<polygon fill="none" stroke="black" points="496,-343 496,-365 695,-365 695,-343 496,-343"/>
<image xlink:href="../../images/foreignKeys.png" width="11px" height="12px" preserveAspectRatio="xMinYMin meet" x="501" y="-360"/>
<text text-anchor="start" x="516" y="-351.2" font-family="Helvetica,sans-Serif" font-size="11.00">instance_type_id</text>
<polygon fill="none" stroke="black" points="695,-343 695,-365 810,-365 810,-343 695,-343"/>
<text text-anchor="start" x="698" y="-351.2" font-family="Helvetica,sans-Serif" font-size="11.00">uuid[2147483647]</text>
<polygon fill="none" stroke="black" points="496,-321 496,-343 695,-343 695,-321 496,-321"/>
<image xlink:href="../../images/foreignKeys.png" width="11px" height="12px" preserveAspectRatio="xMinYMin meet" x="501" y="-338"/>
<text text-anchor="start" x="516" y="-329.2" font-family="Helvetica,sans-Serif" font-size="11.00">instance_lifecycle_state_id</text>
<polygon fill="none" stroke="black" points="695,-321 695,-343 810,-343 810,-321 695,-321"/>
<text text-anchor="start" x="698" y="-329.2" font-family="Helvetica,sans-Serif" font-size="11.00">uuid[2147483647]</text>
<polygon fill="none" stroke="black" points="496,-299 496,-321 695,-321 695,-299 496,-299"/>
<image xlink:href="../../images/foreignKeys.png" width="11px" height="12px" preserveAspectRatio="xMinYMin meet" x="501" y="-316"/>
<text text-anchor="start" x="516" y="-307.2" font-family="Helvetica,sans-Serif" font-size="11.00">owner_id</text>
<polygon fill="none" stroke="black" points="695,-299 695,-321 810,-321 810,-299 695,-299"/>
<text text-anchor="start" x="698" y="-307.2" font-family="Helvetica,sans-Serif" font-size="11.00">uuid[2147483647]</text>
<polygon fill="none" stroke="black" points="496,-277 496,-299 695,-299 695,-277 496,-277"/>
<image xlink:href="../../images/foreignKeys.png" width="11px" height="12px" preserveAspectRatio="xMinYMin meet" x="501" y="-294"/>
<text text-anchor="start" x="516" y="-285.2" font-family="Helvetica,sans-Serif" font-size="11.00">owning_instance_id</text>
<polygon fill="none" stroke="black" points="695,-277 695,-299 810,-299 810,-277 695,-277"/>
<text text-anchor="start" x="698" y="-285.2" font-family="Helvetica,sans-Serif" font-size="11.00">uuid[2147483647]</text>
<polygon fill="none" stroke="black" points="496,-255 496,-277 695,-277 695,-255 496,-255"/>
<text text-anchor="start" x="516" y="-263.2" font-family="Helvetica,sans-Serif" font-size="11.00">dbserver_name</text>
<polygon fill="none" stroke="black" points="695,-255 695,-277 810,-277 810,-255 695,-255"/>
<text text-anchor="start" x="698" y="-263.2" font-family="Helvetica,sans-Serif" font-size="11.00">text[2147483647]</text>
<polygon fill="none" stroke="black" points="496,-233 496,-255 695,-255 695,-233 496,-233"/>
<text text-anchor="start" x="516" y="-241.2" font-family="Helvetica,sans-Serif" font-size="11.00">instance_code</text>
<polygon fill="none" stroke="black" points="695,-233 695,-255 810,-255 810,-233 695,-233"/>
<text text-anchor="start" x="698" y="-241.2" font-family="Helvetica,sans-Serif" font-size="11.00">bytea[2147483647]</text>
<polygon fill="none" stroke="black" points="496,-211 496,-233 695,-233 695,-211 496,-211"/>
<text text-anchor="start" x="516" y="-219.2" font-family="Helvetica,sans-Serif" font-size="11.00">instance_options</text>
<polygon fill="none" stroke="black" points="695,-211 695,-233 810,-233 810,-211 695,-211"/>
<text text-anchor="start" x="698" y="-219.2" font-family="Helvetica,sans-Serif" font-size="11.00">jsonb[2147483647]</text>
<polygon fill="none" stroke="black" points="496,-189 496,-211 695,-211 695,-189 496,-189"/>
<text text-anchor="start" x="516" y="-197.2" font-family="Helvetica,sans-Serif" font-size="11.00">diag_timestamp_created</text>
<polygon fill="none" stroke="black" points="695,-189 695,-211 810,-211 810,-189 695,-189"/>
<text text-anchor="start" x="698" y="-197.2" font-family="Helvetica,sans-Serif" font-size="11.00">timestamptz[35,6]</text>
<polygon fill="none" stroke="black" points="496,-167 496,-189 695,-189 695,-167 496,-167"/>
<text text-anchor="start" x="516" y="-175.2" font-family="Helvetica,sans-Serif" font-size="11.00">diag_role_created</text>
<polygon fill="none" stroke="black" points="695,-167 695,-189 810,-189 810,-167 695,-167"/>
<text text-anchor="start" x="698" y="-175.2" font-family="Helvetica,sans-Serif" font-size="11.00">text[2147483647]</text>
<polygon fill="none" stroke="black" points="496,-145 496,-167 695,-167 695,-145 496,-145"/>
<text text-anchor="start" x="516" y="-153.2" font-family="Helvetica,sans-Serif" font-size="11.00">diag_timestamp_modified</text>
<polygon fill="none" stroke="black" points="695,-145 695,-167 810,-167 810,-145 695,-145"/>
<text text-anchor="start" x="698" y="-153.2" font-family="Helvetica,sans-Serif" font-size="11.00">timestamptz[35,6]</text>
<polygon fill="none" stroke="black" points="496,-123 496,-145 695,-145 695,-123 496,-123"/>
<text text-anchor="start" x="516" y="-131.2" font-family="Helvetica,sans-Serif" font-size="11.00">diag_wallclock_modified</text>
<polygon fill="none" stroke="black" points="695,-123 695,-145 810,-145 810,-123 695,-123"/>
<text text-anchor="start" x="698" y="-131.2" font-family="Helvetica,sans-Serif" font-size="11.00">timestamptz[35,6]</text>
<polygon fill="none" stroke="black" points="496,-101 496,-123 695,-123 695,-101 496,-101"/>
<text text-anchor="start" x="516" y="-109.2" font-family="Helvetica,sans-Serif" font-size="11.00">diag_role_modified</text>
<polygon fill="none" stroke="black" points="695,-101 695,-123 810,-123 810,-101 695,-101"/>
<text text-anchor="start" x="698" y="-109.2" font-family="Helvetica,sans-Serif" font-size="11.00">text[2147483647]</text>
<polygon fill="none" stroke="black" points="496,-79 496,-101 695,-101 695,-79 496,-79"/>
<text text-anchor="start" x="516" y="-87.2" font-family="Helvetica,sans-Serif" font-size="11.00">diag_row_version</text>
<polygon fill="none" stroke="black" points="695,-79 695,-101 810,-101 810,-79 695,-79"/>
<text text-anchor="start" x="698" y="-87.2" font-family="Helvetica,sans-Serif" font-size="11.00">int8[19]</text>
<polygon fill="none" stroke="black" points="496,-57 496,-79 695,-79 695,-57 496,-57"/>
<text text-anchor="start" x="516" y="-65.2" font-family="Helvetica,sans-Serif" font-size="11.00">diag_update_count</text>
<polygon fill="none" stroke="black" points="695,-57 695,-79 810,-79 810,-57 695,-57"/>
<text text-anchor="start" x="698" y="-65.2" font-family="Helvetica,sans-Serif" font-size="11.00">int8[19]</text>
<polygon fill="#ffffff" stroke="transparent" points="496,-39 496,-57 601,-57 601,-39 496,-39"/>
<polygon fill="none" stroke="black" points="496,-39 496,-57 601,-57 601,-39 496,-39"/>
<text text-anchor="start" x="499" y="-45.2" font-family="Helvetica,sans-Serif" font-size="11.00">&lt; 5</text>
<polygon fill="#ffffff" stroke="transparent" points="601,-39 601,-57 695,-57 695,-39 601,-39"/>
<polygon fill="none" stroke="black" points="601,-39 601,-57 695,-57 695,-39 601,-39"/>
<text text-anchor="start" x="684" y="-45.2" font-family="Helvetica,sans-Serif" font-size="11.00"> &#160;</text>
<polygon fill="#ffffff" stroke="transparent" points="695,-39 695,-57 810,-57 810,-39 695,-39"/>
<polygon fill="none" stroke="black" points="695,-39 695,-57 810,-57 810,-39 695,-39"/>
<text text-anchor="start" x="787" y="-45.2" font-family="Helvetica,sans-Serif" font-size="11.00">2 &gt;</text>
<polygon fill="none" stroke="black" stroke-width="2" points="495,-38 495,-476 811,-476 811,-38 495,-38"/>
</a>
</g>
</g>
<!-- syst_instance_contexts&#45;&gt;syst_instances -->
<g id="edge1" class="edge">
<title>syst_instance_contexts:w&#45;&gt;syst_instances:e</title>
<path fill="none" stroke="black" d="M845.49,-442C834.18,-442 826.99,-442 811,-442"/>
<polygon fill="black" stroke="black" points="852,-442 860,-445.6 856,-442 860,-442 860,-442 860,-442 856,-442 860,-438.4 852,-442 852,-442"/>
<ellipse fill="none" stroke="black" cx="848.8" cy="-442" rx="3.2" ry="3.2"/>
</g>
<!-- syst_instances&#45;&gt;syst_instances -->
<g id="edge6" class="edge">
<title>syst_instances:w&#45;&gt;syst_instances:e</title>
<path fill="none" stroke="black" d="M486.23,-298.92C420.47,-378.15 430.47,-494 653,-494 886,-494 886,-485.33 810,-442"/>
<polygon fill="black" stroke="black" points="490.67,-293.96 498.68,-290.4 493.33,-290.98 496,-288 496,-288 496,-288 493.33,-290.98 493.32,-285.6 490.67,-293.96 490.67,-293.96"/>
<ellipse fill="none" stroke="black" cx="488.53" cy="-296.35" rx="3.2" ry="3.2"/>
</g>
<!-- syst_applications -->
<g id="node3" class="node">
<title>syst_applications</title>
<g id="a_node3"><a xlink:href="../../tables/syst_applications.html" xlink:title="syst_applications" target="_top">
<polygon fill="#ffffff" stroke="transparent" points="251,-381 251,-505 445,-505 445,-381 251,-381"/>
<polygon fill="#f5f5f5" stroke="transparent" points="251,-483 251,-505 445,-505 445,-483 251,-483"/>
<polygon fill="none" stroke="black" points="251,-483 251,-505 445,-505 445,-483 251,-483"/>
<text text-anchor="start" x="256" y="-492.2" font-family="Helvetica,sans-Serif" font-weight="bold" font-size="11.00">syst_applications</text>
<text text-anchor="start" x="403" y="-491.2" font-family="Helvetica,sans-Serif" font-size="11.00">[table]</text>
<polygon fill="none" stroke="black" points="251,-461 251,-483 445,-483 445,-461 251,-461"/>
<image xlink:href="../../images/primaryKeys.png" width="11px" height="12px" preserveAspectRatio="xMinYMin meet" x="256" y="-478"/>
<text text-anchor="start" x="271" y="-469.2" font-family="Helvetica,sans-Serif" font-size="11.00">id</text>
<polygon fill="#ffffff" stroke="transparent" points="251,-439 251,-461 445,-461 445,-439 251,-439"/>
<polygon fill="none" stroke="black" points="251,-439 251,-461 445,-461 445,-439 251,-439"/>
<text text-anchor="start" x="271" y="-447.2" font-family="Helvetica,sans-Serif" font-size="11.00">internal_name</text>
<polygon fill="#ffffff" stroke="transparent" points="251,-417 251,-439 445,-439 445,-417 251,-417"/>
<polygon fill="none" stroke="black" points="251,-417 251,-439 445,-439 445,-417 251,-417"/>
<text text-anchor="start" x="271" y="-425.2" font-family="Helvetica,sans-Serif" font-size="11.00">display_name</text>
<polygon fill="none" stroke="black" points="251,-399 251,-417 445,-417 445,-399 251,-399"/>
<text text-anchor="start" x="254" y="-405.2" font-family="Helvetica,sans-Serif" font-size="11.00">...</text>
<polygon fill="#ffffff" stroke="transparent" points="251,-381 251,-399 335,-399 335,-381 251,-381"/>
<polygon fill="none" stroke="black" points="251,-381 251,-399 335,-399 335,-381 251,-381"/>
<text text-anchor="start" x="254" y="-387.2" font-family="Helvetica,sans-Serif" font-size="11.00"> &#160;</text>
<polygon fill="#ffffff" stroke="transparent" points="335,-381 335,-399 384,-399 384,-381 335,-381"/>
<polygon fill="none" stroke="black" points="335,-381 335,-399 384,-399 384,-381 335,-381"/>
<text text-anchor="start" x="373" y="-387.2" font-family="Helvetica,sans-Serif" font-size="11.00"> &#160;</text>
<polygon fill="#ffffff" stroke="transparent" points="384,-381 384,-399 445,-399 445,-381 384,-381"/>
<polygon fill="none" stroke="black" points="384,-381 384,-399 445,-399 445,-381 384,-381"/>
<text text-anchor="start" x="422" y="-387.2" font-family="Helvetica,sans-Serif" font-size="11.00">3 &gt;</text>
</a>
</g>
</g>
<!-- syst_instances&#45;&gt;syst_applications -->
<g id="edge2" class="edge">
<title>syst_instances:w&#45;&gt;syst_applications:e</title>
<path fill="none" stroke="black" d="M481.11,-380.12C457.32,-398.5 487.92,-472 446,-472"/>
<polygon fill="black" stroke="black" points="487.33,-378.28 496.02,-379.45 491.17,-377.14 495,-376 495,-376 495,-376 491.17,-377.14 493.98,-372.55 487.33,-378.28 487.33,-378.28"/>
<ellipse fill="none" stroke="black" cx="484.26" cy="-379.19" rx="3.2" ry="3.2"/>
</g>
<!-- syst_enum_items -->
<g id="node4" class="node">
<title>syst_enum_items</title>
<g id="a_node4"><a xlink:href="../../tables/syst_enum_items.html" xlink:title="syst_enum_items" target="_top">
<polygon fill="#ffffff" stroke="transparent" points="8,-195 8,-363 202,-363 202,-195 8,-195"/>
<polygon fill="#f5f5f5" stroke="transparent" points="8,-341 8,-363 202,-363 202,-341 8,-341"/>
<polygon fill="none" stroke="black" points="8,-341 8,-363 202,-363 202,-341 8,-341"/>
<text text-anchor="start" x="13" y="-350.2" font-family="Helvetica,sans-Serif" font-weight="bold" font-size="11.00">syst_enum_items</text>
<text text-anchor="start" x="160" y="-349.2" font-family="Helvetica,sans-Serif" font-size="11.00">[table]</text>
<polygon fill="none" stroke="black" points="8,-319 8,-341 202,-341 202,-319 8,-319"/>
<image xlink:href="../../images/primaryKeys.png" width="11px" height="12px" preserveAspectRatio="xMinYMin meet" x="13" y="-336"/>
<text text-anchor="start" x="28" y="-327.2" font-family="Helvetica,sans-Serif" font-size="11.00">id</text>
<polygon fill="#ffffff" stroke="transparent" points="8,-297 8,-319 202,-319 202,-297 8,-297"/>
<polygon fill="none" stroke="black" points="8,-297 8,-319 202,-319 202,-297 8,-297"/>
<text text-anchor="start" x="28" y="-305.2" font-family="Helvetica,sans-Serif" font-size="11.00">internal_name</text>
<polygon fill="#ffffff" stroke="transparent" points="8,-275 8,-297 202,-297 202,-275 8,-275"/>
<polygon fill="none" stroke="black" points="8,-275 8,-297 202,-297 202,-275 8,-275"/>
<text text-anchor="start" x="28" y="-283.2" font-family="Helvetica,sans-Serif" font-size="11.00">display_name</text>
<polygon fill="none" stroke="black" points="8,-253 8,-275 202,-275 202,-253 8,-253"/>
<image xlink:href="../../images/foreignKeys.png" width="11px" height="12px" preserveAspectRatio="xMinYMin meet" x="13" y="-270"/>
<text text-anchor="start" x="28" y="-261.2" font-family="Helvetica,sans-Serif" font-size="11.00">enum_id</text>
<polygon fill="none" stroke="black" points="8,-231 8,-253 202,-253 202,-231 8,-231"/>
<image xlink:href="../../images/foreignKeys.png" width="11px" height="12px" preserveAspectRatio="xMinYMin meet" x="13" y="-248"/>
<text text-anchor="start" x="28" y="-239.2" font-family="Helvetica,sans-Serif" font-size="11.00">functional_type_id</text>
<polygon fill="none" stroke="black" points="8,-213 8,-231 202,-231 202,-213 8,-213"/>
<text text-anchor="start" x="11" y="-219.2" font-family="Helvetica,sans-Serif" font-size="11.00">...</text>
<polygon fill="#ffffff" stroke="transparent" points="8,-195 8,-213 98,-213 98,-195 8,-195"/>
<polygon fill="none" stroke="black" points="8,-195 8,-213 98,-213 98,-195 8,-195"/>
<text text-anchor="start" x="11" y="-201.2" font-family="Helvetica,sans-Serif" font-size="11.00">&lt; 2</text>
<polygon fill="#ffffff" stroke="transparent" points="98,-195 98,-213 144,-213 144,-195 98,-195"/>
<polygon fill="none" stroke="black" points="98,-195 98,-213 144,-213 144,-195 98,-195"/>
<text text-anchor="start" x="133" y="-201.2" font-family="Helvetica,sans-Serif" font-size="11.00"> &#160;</text>
<polygon fill="#ffffff" stroke="transparent" points="144,-195 144,-213 202,-213 202,-195 144,-195"/>
<polygon fill="none" stroke="black" points="144,-195 144,-213 202,-213 202,-195 144,-195"/>
<text text-anchor="start" x="179" y="-201.2" font-family="Helvetica,sans-Serif" font-size="11.00">4 &gt;</text>
</a>
</g>
</g>
<!-- syst_instances&#45;&gt;syst_enum_items -->
<g id="edge3" class="edge">
<title>syst_instances:w&#45;&gt;syst_enum_items:e</title>
<path fill="none" stroke="black" d="M480.58,-331.99C362.61,-331.85 327.84,-330 203,-330"/>
<polygon fill="black" stroke="black" points="487,-332 495,-335.6 491,-332 495,-332 495,-332 495,-332 491,-332 495,-328.4 487,-332 487,-332"/>
<ellipse fill="none" stroke="black" cx="483.8" cy="-331.99" rx="3.2" ry="3.2"/>
</g>
<!-- syst_instances&#45;&gt;syst_enum_items -->
<g id="edge4" class="edge">
<title>syst_instances:w&#45;&gt;syst_enum_items:e</title>
<path fill="none" stroke="black" d="M480.37,-354.03C380.07,-354.39 348.74,-358.06 243,-341 224.8,-338.06 221.44,-330 203,-330"/>
<polygon fill="black" stroke="black" points="487,-354.01 495.01,-357.6 491,-354.01 495,-354 495,-354 495,-354 491,-354.01 494.99,-350.4 487,-354.01 487,-354.01"/>
<ellipse fill="none" stroke="black" cx="483.8" cy="-354.02" rx="3.2" ry="3.2"/>
</g>
<!-- syst_owners -->
<g id="node5" class="node">
<title>syst_owners</title>
<g id="a_node5"><a xlink:href="../../tables/syst_owners.html" xlink:title="syst_owners" target="_top">
<polygon fill="#ffffff" stroke="transparent" points="251,-160 251,-306 445,-306 445,-160 251,-160"/>
<polygon fill="#f5f5f5" stroke="transparent" points="251,-284 251,-306 445,-306 445,-284 251,-284"/>
<polygon fill="none" stroke="black" points="251,-284 251,-306 445,-306 445,-284 251,-284"/>
<text text-anchor="start" x="256" y="-293.2" font-family="Helvetica,sans-Serif" font-weight="bold" font-size="11.00">syst_owners</text>
<text text-anchor="start" x="403" y="-292.2" font-family="Helvetica,sans-Serif" font-size="11.00">[table]</text>
<polygon fill="none" stroke="black" points="251,-262 251,-284 445,-284 445,-262 251,-262"/>
<image xlink:href="../../images/primaryKeys.png" width="11px" height="12px" preserveAspectRatio="xMinYMin meet" x="256" y="-279"/>
<text text-anchor="start" x="271" y="-270.2" font-family="Helvetica,sans-Serif" font-size="11.00">id</text>
<polygon fill="#ffffff" stroke="transparent" points="251,-240 251,-262 445,-262 445,-240 251,-240"/>
<polygon fill="none" stroke="black" points="251,-240 251,-262 445,-262 445,-240 251,-240"/>
<text text-anchor="start" x="271" y="-248.2" font-family="Helvetica,sans-Serif" font-size="11.00">internal_name</text>
<polygon fill="#ffffff" stroke="transparent" points="251,-218 251,-240 445,-240 445,-218 251,-218"/>
<polygon fill="none" stroke="black" points="251,-218 251,-240 445,-240 445,-218 251,-218"/>
<text text-anchor="start" x="271" y="-226.2" font-family="Helvetica,sans-Serif" font-size="11.00">display_name</text>
<polygon fill="none" stroke="black" points="251,-196 251,-218 445,-218 445,-196 251,-196"/>
<image xlink:href="../../images/foreignKeys.png" width="11px" height="12px" preserveAspectRatio="xMinYMin meet" x="256" y="-213"/>
<text text-anchor="start" x="271" y="-204.2" font-family="Helvetica,sans-Serif" font-size="11.00">owner_state_id</text>
<polygon fill="none" stroke="black" points="251,-178 251,-196 445,-196 445,-178 251,-178"/>
<text text-anchor="start" x="254" y="-184.2" font-family="Helvetica,sans-Serif" font-size="11.00">...</text>
<polygon fill="#ffffff" stroke="transparent" points="251,-160 251,-178 341,-178 341,-160 251,-160"/>
<polygon fill="none" stroke="black" points="251,-160 251,-178 341,-178 341,-160 251,-160"/>
<text text-anchor="start" x="254" y="-166.2" font-family="Helvetica,sans-Serif" font-size="11.00">&lt; 1</text>
<polygon fill="#ffffff" stroke="transparent" points="341,-160 341,-178 387,-178 387,-160 341,-160"/>
<polygon fill="none" stroke="black" points="341,-160 341,-178 387,-178 387,-160 341,-160"/>
<text text-anchor="start" x="376" y="-166.2" font-family="Helvetica,sans-Serif" font-size="11.00"> &#160;</text>
<polygon fill="#ffffff" stroke="transparent" points="387,-160 387,-178 445,-178 445,-160 387,-160"/>
<polygon fill="none" stroke="black" points="387,-160 387,-178 445,-178 445,-160 387,-160"/>
<text text-anchor="start" x="422" y="-166.2" font-family="Helvetica,sans-Serif" font-size="11.00">1 &gt;</text>
</a>
</g>
</g>
<!-- syst_instances&#45;&gt;syst_owners -->
<g id="edge5" class="edge">
<title>syst_instances:w&#45;&gt;syst_owners:e</title>
<path fill="none" stroke="black" d="M481.12,-305.46C468.58,-295.58 467.32,-273 446,-273"/>
<polygon fill="black" stroke="black" points="487.4,-307.51 493.88,-313.42 491.2,-308.76 495,-310 495,-310 495,-310 491.2,-308.76 496.12,-306.58 487.4,-307.51 487.4,-307.51"/>
<ellipse fill="none" stroke="black" cx="484.35" cy="-306.52" rx="3.2" ry="3.2"/>
</g>
<!-- syst_owners&#45;&gt;syst_enum_items -->
<g id="edge7" class="edge">
<title>syst_owners:w&#45;&gt;syst_enum_items:e</title>
<path fill="none" stroke="black" d="M235.88,-210.55C204.38,-230.72 255.58,-330 203,-330"/>
<polygon fill="black" stroke="black" points="242.24,-208.95 250.88,-210.49 246.12,-207.97 250,-207 250,-207 250,-207 246.12,-207.97 249.12,-203.51 242.24,-208.95 242.24,-208.95"/>
<ellipse fill="none" stroke="black" cx="239.14" cy="-209.73" rx="3.2" ry="3.2"/>
</g>
</g>
</svg>
