<?xml version="1.0" encoding="UTF-8" standalone="no"?>
<!DOCTYPE svg PUBLIC "-//W3C//DTD SVG 1.1//EN"
 "http://www.w3.org/Graphics/SVG/1.1/DTD/svg11.dtd">
<!-- Generated by graphviz version 2.43.0 (0)
 -->
<!-- Title: twoDegreesRelationshipsDiagram Pages: 1 -->
<svg width="1326pt" height="548pt"
 viewBox="0.00 0.00 1326.00 548.00" xmlns="http://www.w3.org/2000/svg" xmlns:xlink="http://www.w3.org/1999/xlink">
<g id="graph0" class="graph" transform="scale(1 1) rotate(0) translate(4 544)">
<title>twoDegreesRelationshipsDiagram</title>
<polygon fill="#ffffff" stroke="transparent" points="-4,4 -4,-544 1322,-544 1322,4 -4,4"/>
<text text-anchor="middle" x="71.5" y="-7.2" font-family="Helvetica,sans-Serif" font-size="11.00">Generated by SchemaSpy</text>
<!-- syst_application_contexts -->
<g id="node1" class="node">
<title>syst_application_contexts</title>
<g id="a_node1"><a xlink:href="../../tables/syst_application_contexts.html" xlink:title="syst_application_contexts" target="_top">
<polygon fill="#ffffff" stroke="transparent" points="756.5,-37 756.5,-95 969.5,-95 969.5,-37 756.5,-37"/>
<polygon fill="#f5f5f5" stroke="transparent" points="757,-73 757,-95 970,-95 970,-73 757,-73"/>
<polygon fill="none" stroke="black" points="757,-73 757,-95 970,-95 970,-73 757,-73"/>
<text text-anchor="start" x="762" y="-82.2" font-family="Helvetica,sans-Serif" font-weight="bold" font-size="11.00">syst_application_contexts</text>
<text text-anchor="start" x="935" y="-81.2" font-family="Helvetica,sans-Serif" font-size="11.00">[table]</text>
<polygon fill="none" stroke="black" points="757,-55 757,-73 970,-73 970,-55 757,-55"/>
<text text-anchor="start" x="760" y="-61.2" font-family="Helvetica,sans-Serif" font-size="11.00">...</text>
<polygon fill="#ffffff" stroke="transparent" points="757,-37 757,-55 857,-55 857,-37 757,-37"/>
<polygon fill="none" stroke="black" points="757,-37 757,-55 857,-55 857,-37 757,-37"/>
<text text-anchor="start" x="760" y="-43.2" font-family="Helvetica,sans-Serif" font-size="11.00">&lt; 1</text>
<polygon fill="#ffffff" stroke="transparent" points="857,-37 857,-55 909,-55 909,-37 857,-37"/>
<polygon fill="none" stroke="black" points="857,-37 857,-55 909,-55 909,-37 857,-37"/>
<text text-anchor="start" x="899" y="-43.2" font-family="Helvetica,sans-Serif" font-size="11.00"> &#160;</text>
<polygon fill="#ffffff" stroke="transparent" points="909,-37 909,-55 970,-55 970,-37 909,-37"/>
<polygon fill="none" stroke="black" points="909,-37 909,-55 970,-55 970,-37 909,-37"/>
<text text-anchor="start" x="951" y="-43.2" font-family="Helvetica,sans-Serif" font-size="11.00">2 &gt;</text>
</a>
</g>
</g>
<!-- syst_applications -->
<g id="node2" class="node">
<title>syst_applications</title>
<g id="a_node2"><a xlink:href="../../tables/syst_applications.html" xlink:title="syst_applications" target="_top">
<polygon fill="#ffffff" stroke="transparent" points="453,-210 453,-334 647,-334 647,-210 453,-210"/>
<polygon fill="#f5f5f5" stroke="transparent" points="453,-312 453,-334 647,-334 647,-312 453,-312"/>
<polygon fill="none" stroke="black" points="453,-312 453,-334 647,-334 647,-312 453,-312"/>
<text text-anchor="start" x="458" y="-321.2" font-family="Helvetica,sans-Serif" font-weight="bold" font-size="11.00">syst_applications</text>
<text text-anchor="start" x="612" y="-320.2" font-family="Helvetica,sans-Serif" font-size="11.00">[table]</text>
<polygon fill="none" stroke="black" points="453,-290 453,-312 647,-312 647,-290 453,-290"/>
<image xlink:href="../../images/primaryKeys.png" width="11px" height="12px" preserveAspectRatio="xMinYMin meet" x="458" y="-307"/>
<text text-anchor="start" x="473" y="-298.2" font-family="Helvetica,sans-Serif" font-size="11.00">id</text>
<polygon fill="#ffffff" stroke="transparent" points="453,-268 453,-290 647,-290 647,-268 453,-268"/>
<polygon fill="none" stroke="black" points="453,-268 453,-290 647,-290 647,-268 453,-268"/>
<text text-anchor="start" x="473" y="-276.2" font-family="Helvetica,sans-Serif" font-size="11.00">internal_name</text>
<polygon fill="#ffffff" stroke="transparent" points="453,-246 453,-268 647,-268 647,-246 453,-246"/>
<polygon fill="none" stroke="black" points="453,-246 453,-268 647,-268 647,-246 453,-246"/>
<text text-anchor="start" x="473" y="-254.2" font-family="Helvetica,sans-Serif" font-size="11.00">display_name</text>
<polygon fill="none" stroke="black" points="453,-228 453,-246 647,-246 647,-228 453,-228"/>
<text text-anchor="start" x="456" y="-234.2" font-family="Helvetica,sans-Serif" font-size="11.00">...</text>
<polygon fill="#ffffff" stroke="transparent" points="453,-210 453,-228 539,-228 539,-210 453,-210"/>
<polygon fill="none" stroke="black" points="453,-210 453,-228 539,-228 539,-210 453,-210"/>
<text text-anchor="start" x="456" y="-216.2" font-family="Helvetica,sans-Serif" font-size="11.00"> &#160;</text>
<polygon fill="#ffffff" stroke="transparent" points="539,-210 539,-228 588,-228 588,-210 539,-210"/>
<polygon fill="none" stroke="black" points="539,-210 539,-228 588,-228 588,-210 539,-210"/>
<text text-anchor="start" x="578" y="-216.2" font-family="Helvetica,sans-Serif" font-size="11.00"> &#160;</text>
<polygon fill="#ffffff" stroke="transparent" points="588,-210 588,-228 647,-228 647,-210 588,-210"/>
<polygon fill="none" stroke="black" points="588,-210 588,-228 647,-228 647,-210 588,-210"/>
<text text-anchor="start" x="628" y="-216.2" font-family="Helvetica,sans-Serif" font-size="11.00">3 &gt;</text>
</a>
</g>
</g>
<!-- syst_application_contexts&#45;&gt;syst_applications -->
<g id="edge1" class="edge">
<title>syst_application_contexts:w&#45;&gt;syst_applications:e</title>
<path fill="none" stroke="black" d="M741.36,-64.86C716.76,-68.09 705.25,-80.56 688,-105 636.72,-177.63 736.91,-301 648,-301"/>
<polygon fill="black" stroke="black" points="748.01,-64.47 756.21,-67.59 752.01,-64.24 756,-64 756,-64 756,-64 752.01,-64.24 755.79,-60.41 748.01,-64.47 748.01,-64.47"/>
<ellipse fill="none" stroke="black" cx="744.82" cy="-64.66" rx="3.2" ry="3.2"/>
</g>
<!-- syst_enum_functional_types -->
<g id="node3" class="node">
<title>syst_enum_functional_types</title>
<g id="a_node3"><a xlink:href="../../tables/syst_enum_functional_types.html" xlink:title="syst_enum_functional_types" target="_top">
<polygon fill="#ffffff" stroke="transparent" points="175,-371 175,-429 404,-429 404,-371 175,-371"/>
<polygon fill="#f5f5f5" stroke="transparent" points="175.5,-407 175.5,-429 404.5,-429 404.5,-407 175.5,-407"/>
<polygon fill="none" stroke="black" points="175.5,-407 175.5,-429 404.5,-429 404.5,-407 175.5,-407"/>
<text text-anchor="start" x="180.5" y="-416.2" font-family="Helvetica,sans-Serif" font-weight="bold" font-size="11.00">syst_enum_functional_types</text>
<text text-anchor="start" x="369.5" y="-415.2" font-family="Helvetica,sans-Serif" font-size="11.00">[table]</text>
<polygon fill="none" stroke="black" points="175.5,-389 175.5,-407 404.5,-407 404.5,-389 175.5,-389"/>
<text text-anchor="start" x="178.5" y="-395.2" font-family="Helvetica,sans-Serif" font-size="11.00">...</text>
<polygon fill="#ffffff" stroke="transparent" points="175.5,-371 175.5,-389 283.5,-389 283.5,-371 175.5,-371"/>
<polygon fill="none" stroke="black" points="175.5,-371 175.5,-389 283.5,-389 283.5,-371 175.5,-371"/>
<text text-anchor="start" x="178.5" y="-377.2" font-family="Helvetica,sans-Serif" font-size="11.00">&lt; 1</text>
<polygon fill="#ffffff" stroke="transparent" points="283.5,-371 283.5,-389 339.5,-389 339.5,-371 283.5,-371"/>
<polygon fill="none" stroke="black" points="283.5,-371 283.5,-389 339.5,-389 339.5,-371 283.5,-371"/>
<text text-anchor="start" x="329.5" y="-377.2" font-family="Helvetica,sans-Serif" font-size="11.00"> &#160;</text>
<polygon fill="#ffffff" stroke="transparent" points="339.5,-371 339.5,-389 404.5,-389 404.5,-371 339.5,-371"/>
<polygon fill="none" stroke="black" points="339.5,-371 339.5,-389 404.5,-389 404.5,-371 339.5,-371"/>
<text text-anchor="start" x="385.5" y="-377.2" font-family="Helvetica,sans-Serif" font-size="11.00">1 &gt;</text>
</a>
</g>
</g>
<!-- syst_enums -->
<g id="node4" class="node">
<title>syst_enums</title>
<g id="a_node4"><a xlink:href="../../tables/syst_enums.html" xlink:title="syst_enums" target="_top">
<polygon fill="#ffffff" stroke="transparent" points="8,-398 8,-456 126,-456 126,-398 8,-398"/>
<polygon fill="#f5f5f5" stroke="transparent" points="8,-434 8,-456 126,-456 126,-434 8,-434"/>
<polygon fill="none" stroke="black" points="8,-434 8,-456 126,-456 126,-434 8,-434"/>
<text text-anchor="start" x="13" y="-443.2" font-family="Helvetica,sans-Serif" font-weight="bold" font-size="11.00">syst_enums</text>
<text text-anchor="start" x="91" y="-442.2" font-family="Helvetica,sans-Serif" font-size="11.00">[table]</text>
<polygon fill="none" stroke="black" points="8,-416 8,-434 126,-434 126,-416 8,-416"/>
<text text-anchor="start" x="11" y="-422.2" font-family="Helvetica,sans-Serif" font-size="11.00">...</text>
<polygon fill="#ffffff" stroke="transparent" points="8,-398 8,-416 56,-416 56,-398 8,-398"/>
<polygon fill="none" stroke="black" points="8,-398 8,-416 56,-416 56,-398 8,-398"/>
<text text-anchor="start" x="11" y="-404.2" font-family="Helvetica,sans-Serif" font-size="11.00"> &#160;</text>
<polygon fill="#ffffff" stroke="transparent" points="56,-398 56,-416 86,-416 86,-398 56,-398"/>
<polygon fill="none" stroke="black" points="56,-398 56,-416 86,-416 86,-398 56,-398"/>
<text text-anchor="start" x="76" y="-404.2" font-family="Helvetica,sans-Serif" font-size="11.00"> &#160;</text>
<polygon fill="#ffffff" stroke="transparent" points="86,-398 86,-416 126,-416 126,-398 86,-398"/>
<polygon fill="none" stroke="black" points="86,-398 86,-416 126,-416 126,-398 86,-398"/>
<text text-anchor="start" x="107" y="-404.2" font-family="Helvetica,sans-Serif" font-size="11.00">2 &gt;</text>
</a>
</g>
</g>
<!-- syst_enum_functional_types&#45;&gt;syst_enums -->
<g id="edge2" class="edge">
<title>syst_enum_functional_types:w&#45;&gt;syst_enums:e</title>
<path fill="none" stroke="black" d="M160.6,-401.98C149.25,-409.49 145.4,-425 127,-425"/>
<polygon fill="black" stroke="black" points="166.81,-400.2 175.49,-401.46 170.65,-399.1 174.5,-398 174.5,-398 174.5,-398 170.65,-399.1 173.51,-394.54 166.81,-400.2 166.81,-400.2"/>
<ellipse fill="none" stroke="black" cx="163.73" cy="-401.09" rx="3.2" ry="3.2"/>
</g>
<!-- syst_enum_items -->
<g id="node5" class="node">
<title>syst_enum_items</title>
<g id="a_node5"><a xlink:href="../../tables/syst_enum_items.html" xlink:title="syst_enum_items" target="_top">
<polygon fill="#ffffff" stroke="transparent" points="453,-368 453,-536 647,-536 647,-368 453,-368"/>
<polygon fill="#f5f5f5" stroke="transparent" points="453,-514 453,-536 647,-536 647,-514 453,-514"/>
<polygon fill="none" stroke="black" points="453,-514 453,-536 647,-536 647,-514 453,-514"/>
<text text-anchor="start" x="458" y="-523.2" font-family="Helvetica,sans-Serif" font-weight="bold" font-size="11.00">syst_enum_items</text>
<text text-anchor="start" x="612" y="-522.2" font-family="Helvetica,sans-Serif" font-size="11.00">[table]</text>
<polygon fill="none" stroke="black" points="453,-492 453,-514 647,-514 647,-492 453,-492"/>
<image xlink:href="../../images/primaryKeys.png" width="11px" height="12px" preserveAspectRatio="xMinYMin meet" x="458" y="-509"/>
<text text-anchor="start" x="473" y="-500.2" font-family="Helvetica,sans-Serif" font-size="11.00">id</text>
<polygon fill="#ffffff" stroke="transparent" points="453,-470 453,-492 647,-492 647,-470 453,-470"/>
<polygon fill="none" stroke="black" points="453,-470 453,-492 647,-492 647,-470 453,-470"/>
<text text-anchor="start" x="473" y="-478.2" font-family="Helvetica,sans-Serif" font-size="11.00">internal_name</text>
<polygon fill="#ffffff" stroke="transparent" points="453,-448 453,-470 647,-470 647,-448 453,-448"/>
<polygon fill="none" stroke="black" points="453,-448 453,-470 647,-470 647,-448 453,-448"/>
<text text-anchor="start" x="473" y="-456.2" font-family="Helvetica,sans-Serif" font-size="11.00">display_name</text>
<polygon fill="none" stroke="black" points="453,-426 453,-448 647,-448 647,-426 453,-426"/>
<image xlink:href="../../images/foreignKeys.png" width="11px" height="12px" preserveAspectRatio="xMinYMin meet" x="458" y="-443"/>
<text text-anchor="start" x="473" y="-434.2" font-family="Helvetica,sans-Serif" font-size="11.00">enum_id</text>
<polygon fill="none" stroke="black" points="453,-404 453,-426 647,-426 647,-404 453,-404"/>
<image xlink:href="../../images/foreignKeys.png" width="11px" height="12px" preserveAspectRatio="xMinYMin meet" x="458" y="-421"/>
<text text-anchor="start" x="473" y="-412.2" font-family="Helvetica,sans-Serif" font-size="11.00">functional_type_id</text>
<polygon fill="none" stroke="black" points="453,-386 453,-404 647,-404 647,-386 453,-386"/>
<text text-anchor="start" x="456" y="-392.2" font-family="Helvetica,sans-Serif" font-size="11.00">...</text>
<polygon fill="#ffffff" stroke="transparent" points="453,-368 453,-386 543,-386 543,-368 453,-368"/>
<polygon fill="none" stroke="black" points="453,-368 453,-386 543,-386 543,-368 453,-368"/>
<text text-anchor="start" x="456" y="-374.2" font-family="Helvetica,sans-Serif" font-size="11.00">&lt; 2</text>
<polygon fill="#ffffff" stroke="transparent" points="543,-368 543,-386 590,-386 590,-368 543,-368"/>
<polygon fill="none" stroke="black" points="543,-368 543,-386 590,-386 590,-368 543,-368"/>
<text text-anchor="start" x="580" y="-374.2" font-family="Helvetica,sans-Serif" font-size="11.00"> &#160;</text>
<polygon fill="#ffffff" stroke="transparent" points="590,-368 590,-386 647,-386 647,-368 590,-368"/>
<polygon fill="none" stroke="black" points="590,-368 590,-386 647,-386 647,-368 590,-368"/>
<text text-anchor="start" x="628" y="-374.2" font-family="Helvetica,sans-Serif" font-size="11.00">4 &gt;</text>
</a>
</g>
</g>
<!-- syst_enum_items&#45;&gt;syst_enum_functional_types -->
<g id="edge4" class="edge">
<title>syst_enum_items:w&#45;&gt;syst_enum_functional_types:e</title>
<path fill="none" stroke="black" d="M437.86,-412.04C427.3,-407.17 421.66,-398 405.5,-398"/>
<polygon fill="black" stroke="black" points="444.17,-413.36 451.26,-418.52 448.08,-414.18 452,-415 452,-415 452,-415 448.08,-414.18 452.74,-411.48 444.17,-413.36 444.17,-413.36"/>
<ellipse fill="none" stroke="black" cx="441.04" cy="-412.7" rx="3.2" ry="3.2"/>
</g>
<!-- syst_enum_items&#45;&gt;syst_enums -->
<g id="edge3" class="edge">
<title>syst_enum_items:w&#45;&gt;syst_enums:e</title>
<path fill="none" stroke="black" d="M437.57,-437.64C429.73,-438.38 423.83,-439.56 412,-440 303.19,-444.07 274.14,-459.43 167,-440 148.32,-436.61 145.99,-425 127,-425"/>
<polygon fill="black" stroke="black" points="444.01,-437.35 452.16,-440.6 448,-437.18 452,-437 452,-437 452,-437 448,-437.18 451.84,-433.4 444.01,-437.35 444.01,-437.35"/>
<ellipse fill="none" stroke="black" cx="440.81" cy="-437.5" rx="3.2" ry="3.2"/>
</g>
<!-- syst_instance_type_applications -->
<g id="node6" class="node">
<title>syst_instance_type_applications</title>
<g id="a_node6"><a xlink:href="../../tables/syst_instance_type_applications.html" xlink:title="syst_instance_type_applications" target="_top">
<polygon fill="#ffffff" stroke="transparent" points="696,-116 696,-380 1030,-380 1030,-116 696,-116"/>
<polygon fill="#f5f5f5" stroke="transparent" points="698,-356 698,-378 1028,-378 1028,-356 698,-356"/>
<polygon fill="none" stroke="black" points="698,-356 698,-378 1028,-378 1028,-356 698,-356"/>
<text text-anchor="start" x="703" y="-365.2" font-family="Helvetica,sans-Serif" font-weight="bold" font-size="11.00">syst_instance_type_applications</text>
<text text-anchor="start" x="993" y="-364.2" font-family="Helvetica,sans-Serif" font-size="11.00">[table]</text>
<polygon fill="none" stroke="black" points="698,-334 698,-356 935,-356 935,-334 698,-334"/>
<image xlink:href="../../images/primaryKeys.png" width="11px" height="12px" preserveAspectRatio="xMinYMin meet" x="703" y="-351"/>
<text text-anchor="start" x="718" y="-342.2" font-family="Helvetica,sans-Serif" font-size="11.00">id</text>
<polygon fill="none" stroke="black" points="935,-334 935,-356 1028,-356 1028,-334 935,-334"/>
<text text-anchor="start" x="938" y="-342.2" font-family="Helvetica,sans-Serif" font-size="11.00">uuid[2147483647]</text>
<polygon fill="#ffffff" stroke="transparent" points="698,-312 698,-334 935,-334 935,-312 698,-312"/>
<polygon fill="none" stroke="black" points="698,-312 698,-334 935,-334 935,-312 698,-312"/>
<image xlink:href="../../images/foreignKeys.png" width="11px" height="12px" preserveAspectRatio="xMinYMin meet" x="703" y="-329"/>
<text text-anchor="start" x="718" y="-320.2" font-family="Helvetica,sans-Serif" font-size="11.00">instance_type_id</text>
<polygon fill="none" stroke="black" points="935,-312 935,-334 1028,-334 1028,-312 935,-312"/>
<text text-anchor="start" x="938" y="-320.2" font-family="Helvetica,sans-Serif" font-size="11.00">uuid[2147483647]</text>
<polygon fill="#ffffff" stroke="transparent" points="698,-290 698,-312 935,-312 935,-290 698,-290"/>
<polygon fill="none" stroke="black" points="698,-290 698,-312 935,-312 935,-290 698,-290"/>
<image xlink:href="../../images/foreignKeys.png" width="11px" height="12px" preserveAspectRatio="xMinYMin meet" x="703" y="-307"/>
<text text-anchor="start" x="718" y="-298.2" font-family="Helvetica,sans-Serif" font-size="11.00">application_id</text>
<polygon fill="none" stroke="black" points="935,-290 935,-312 1028,-312 1028,-290 935,-290"/>
<text text-anchor="start" x="938" y="-298.2" font-family="Helvetica,sans-Serif" font-size="11.00">uuid[2147483647]</text>
<polygon fill="none" stroke="black" points="698,-268 698,-290 935,-290 935,-268 698,-268"/>
<text text-anchor="start" x="718" y="-276.2" font-family="Helvetica,sans-Serif" font-size="11.00">diag_timestamp_created</text>
<polygon fill="none" stroke="black" points="935,-268 935,-290 1028,-290 1028,-268 935,-268"/>
<text text-anchor="start" x="938" y="-276.2" font-family="Helvetica,sans-Serif" font-size="11.00">timestamptz[35,6]</text>
<polygon fill="none" stroke="black" points="698,-246 698,-268 935,-268 935,-246 698,-246"/>
<text text-anchor="start" x="718" y="-254.2" font-family="Helvetica,sans-Serif" font-size="11.00">diag_role_created</text>
<polygon fill="none" stroke="black" points="935,-246 935,-268 1028,-268 1028,-246 935,-246"/>
<text text-anchor="start" x="938" y="-254.2" font-family="Helvetica,sans-Serif" font-size="11.00">text[2147483647]</text>
<polygon fill="none" stroke="black" points="698,-224 698,-246 935,-246 935,-224 698,-224"/>
<text text-anchor="start" x="718" y="-232.2" font-family="Helvetica,sans-Serif" font-size="11.00">diag_timestamp_modified</text>
<polygon fill="none" stroke="black" points="935,-224 935,-246 1028,-246 1028,-224 935,-224"/>
<text text-anchor="start" x="938" y="-232.2" font-family="Helvetica,sans-Serif" font-size="11.00">timestamptz[35,6]</text>
<polygon fill="none" stroke="black" points="698,-202 698,-224 935,-224 935,-202 698,-202"/>
<text text-anchor="start" x="718" y="-210.2" font-family="Helvetica,sans-Serif" font-size="11.00">diag_wallclock_modified</text>
<polygon fill="none" stroke="black" points="935,-202 935,-224 1028,-224 1028,-202 935,-202"/>
<text text-anchor="start" x="938" y="-210.2" font-family="Helvetica,sans-Serif" font-size="11.00">timestamptz[35,6]</text>
<polygon fill="none" stroke="black" points="698,-180 698,-202 935,-202 935,-180 698,-180"/>
<text text-anchor="start" x="718" y="-188.2" font-family="Helvetica,sans-Serif" font-size="11.00">diag_role_modified</text>
<polygon fill="none" stroke="black" points="935,-180 935,-202 1028,-202 1028,-180 935,-180"/>
<text text-anchor="start" x="938" y="-188.2" font-family="Helvetica,sans-Serif" font-size="11.00">text[2147483647]</text>
<polygon fill="none" stroke="black" points="698,-158 698,-180 935,-180 935,-158 698,-158"/>
<text text-anchor="start" x="718" y="-166.2" font-family="Helvetica,sans-Serif" font-size="11.00">diag_row_version</text>
<polygon fill="none" stroke="black" points="935,-158 935,-180 1028,-180 1028,-158 935,-158"/>
<text text-anchor="start" x="938" y="-166.2" font-family="Helvetica,sans-Serif" font-size="11.00">int8[19]</text>
<polygon fill="none" stroke="black" points="698,-136 698,-158 935,-158 935,-136 698,-136"/>
<text text-anchor="start" x="718" y="-144.2" font-family="Helvetica,sans-Serif" font-size="11.00">diag_update_count</text>
<polygon fill="none" stroke="black" points="935,-136 935,-158 1028,-158 1028,-136 935,-136"/>
<text text-anchor="start" x="938" y="-144.2" font-family="Helvetica,sans-Serif" font-size="11.00">int8[19]</text>
<polygon fill="#ffffff" stroke="transparent" points="698,-118 698,-136 821,-136 821,-118 698,-118"/>
<polygon fill="none" stroke="black" points="698,-118 698,-136 821,-136 821,-118 698,-118"/>
<text text-anchor="start" x="701" y="-124.2" font-family="Helvetica,sans-Serif" font-size="11.00">&lt; 2</text>
<polygon fill="#ffffff" stroke="transparent" points="821,-118 821,-136 935,-136 935,-118 821,-118"/>
<polygon fill="none" stroke="black" points="821,-118 821,-136 935,-136 935,-118 821,-118"/>
<text text-anchor="start" x="925" y="-124.2" font-family="Helvetica,sans-Serif" font-size="11.00"> &#160;</text>
<polygon fill="#ffffff" stroke="transparent" points="935,-118 935,-136 1028,-136 1028,-118 935,-118"/>
<polygon fill="none" stroke="black" points="935,-118 935,-136 1028,-136 1028,-118 935,-118"/>
<text text-anchor="start" x="1009" y="-124.2" font-family="Helvetica,sans-Serif" font-size="11.00">1 &gt;</text>
<polygon fill="none" stroke="black" stroke-width="2" points="697,-117 697,-379 1029,-379 1029,-117 697,-117"/>
</a>
</g>
</g>
<!-- syst_instance_type_applications&#45;&gt;syst_applications -->
<g id="edge5" class="edge">
<title>syst_instance_type_applications:w&#45;&gt;syst_applications:e</title>
<path fill="none" stroke="black" d="M682.49,-301C671.18,-301 663.99,-301 648,-301"/>
<polygon fill="black" stroke="black" points="689,-301 697,-304.6 693,-301 697,-301 697,-301 697,-301 693,-301 697,-297.4 689,-301 689,-301"/>
<ellipse fill="none" stroke="black" cx="685.8" cy="-301" rx="3.2" ry="3.2"/>
</g>
<!-- syst_instance_type_applications&#45;&gt;syst_enum_items -->
<g id="edge6" class="edge">
<title>syst_instance_type_applications:w&#45;&gt;syst_enum_items:e</title>
<path fill="none" stroke="black" d="M682.67,-325.41C629.13,-346.77 725.24,-503 648,-503"/>
<polygon fill="black" stroke="black" points="689.11,-324.33 697.6,-326.55 693.06,-323.66 697,-323 697,-323 697,-323 693.06,-323.66 696.4,-319.45 689.11,-324.33 689.11,-324.33"/>
<ellipse fill="none" stroke="black" cx="685.95" cy="-324.86" rx="3.2" ry="3.2"/>
</g>
<!-- syst_instance_type_contexts -->
<g id="node7" class="node">
<title>syst_instance_type_contexts</title>
<g id="a_node7"><a xlink:href="../../tables/syst_instance_type_contexts.html" xlink:title="syst_instance_type_contexts" target="_top">
<polygon fill="#ffffff" stroke="transparent" points="1079,-147 1079,-271 1310,-271 1310,-147 1079,-147"/>
<polygon fill="#f5f5f5" stroke="transparent" points="1079.5,-249 1079.5,-271 1310.5,-271 1310.5,-249 1079.5,-249"/>
<polygon fill="none" stroke="black" points="1079.5,-249 1079.5,-271 1310.5,-271 1310.5,-249 1079.5,-249"/>
<text text-anchor="start" x="1084.5" y="-258.2" font-family="Helvetica,sans-Serif" font-weight="bold" font-size="11.00">syst_instance_type_contexts</text>
<text text-anchor="start" x="1275.5" y="-257.2" font-family="Helvetica,sans-Serif" font-size="11.00">[table]</text>
<polygon fill="none" stroke="black" points="1079.5,-227 1079.5,-249 1310.5,-249 1310.5,-227 1079.5,-227"/>
<image xlink:href="../../images/primaryKeys.png" width="11px" height="12px" preserveAspectRatio="xMinYMin meet" x="1084.5" y="-244"/>
<text text-anchor="start" x="1108.5" y="-235.2" font-family="Helvetica,sans-Serif" font-size="11.00">id</text>
<polygon fill="#ffffff" stroke="transparent" points="1079.5,-205 1079.5,-227 1310.5,-227 1310.5,-205 1079.5,-205"/>
<polygon fill="none" stroke="black" points="1079.5,-205 1079.5,-227 1310.5,-227 1310.5,-205 1079.5,-205"/>
<image xlink:href="../../images/foreignKeys.png" width="11px" height="12px" preserveAspectRatio="xMinYMin meet" x="1084.5" y="-222"/>
<text text-anchor="start" x="1108.5" y="-213.2" font-family="Helvetica,sans-Serif" font-size="11.00">instance_type_application_id</text>
<polygon fill="#ffffff" stroke="transparent" points="1079.5,-183 1079.5,-205 1310.5,-205 1310.5,-183 1079.5,-183"/>
<polygon fill="none" stroke="black" points="1079.5,-183 1079.5,-205 1310.5,-205 1310.5,-183 1079.5,-183"/>
<image xlink:href="../../images/foreignKeys.png" width="11px" height="12px" preserveAspectRatio="xMinYMin meet" x="1084.5" y="-200"/>
<text text-anchor="start" x="1108.5" y="-191.2" font-family="Helvetica,sans-Serif" font-size="11.00">application_context_id</text>
<polygon fill="none" stroke="black" points="1079.5,-165 1079.5,-183 1310.5,-183 1310.5,-165 1079.5,-165"/>
<text text-anchor="start" x="1082.5" y="-171.2" font-family="Helvetica,sans-Serif" font-size="11.00">...</text>
<polygon fill="#ffffff" stroke="transparent" points="1079.5,-147 1079.5,-165 1192.5,-165 1192.5,-147 1079.5,-147"/>
<polygon fill="none" stroke="black" points="1079.5,-147 1079.5,-165 1192.5,-165 1192.5,-147 1079.5,-147"/>
<text text-anchor="start" x="1082.5" y="-153.2" font-family="Helvetica,sans-Serif" font-size="11.00">&lt; 2</text>
<polygon fill="#ffffff" stroke="transparent" points="1192.5,-147 1192.5,-165 1251.5,-165 1251.5,-147 1192.5,-147"/>
<polygon fill="none" stroke="black" points="1192.5,-147 1192.5,-165 1251.5,-165 1251.5,-147 1192.5,-147"/>
<text text-anchor="start" x="1241.5" y="-153.2" font-family="Helvetica,sans-Serif" font-size="11.00"> &#160;</text>
<polygon fill="#ffffff" stroke="transparent" points="1251.5,-147 1251.5,-165 1310.5,-165 1310.5,-147 1251.5,-147"/>
<polygon fill="none" stroke="black" points="1251.5,-147 1251.5,-165 1310.5,-165 1310.5,-147 1251.5,-147"/>
<text text-anchor="start" x="1300.5" y="-153.2" font-family="Helvetica,sans-Serif" font-size="11.00"> &#160;</text>
</a>
</g>
</g>
<!-- syst_instance_type_contexts&#45;&gt;syst_application_contexts -->
<g id="edge7" class="edge">
<title>syst_instance_type_contexts:w&#45;&gt;syst_application_contexts:e</title>
<path fill="none" stroke="black" d="M1064.25,-190.87C1042.78,-178.6 1062.75,-132.97 1038,-105 1014.87,-78.85 1005.91,-64 971,-64"/>
<polygon fill="black" stroke="black" points="1070.69,-192.29 1077.73,-197.52 1074.59,-193.14 1078.5,-194 1078.5,-194 1078.5,-194 1074.59,-193.14 1079.27,-190.48 1070.69,-192.29 1070.69,-192.29"/>
<ellipse fill="none" stroke="black" cx="1067.56" cy="-191.6" rx="3.2" ry="3.2"/>
</g>
<!-- syst_instance_type_contexts&#45;&gt;syst_instance_type_applications -->
<g id="edge8" class="edge">
<title>syst_instance_type_contexts:w&#45;&gt;syst_instance_type_applications:e</title>
<path fill="none" stroke="black" d="M1064.11,-219.45C1030.13,-239.97 1084.41,-345 1029,-345"/>
<polygon fill="black" stroke="black" points="1070.72,-217.87 1079.34,-219.5 1074.61,-216.93 1078.5,-216 1078.5,-216 1078.5,-216 1074.61,-216.93 1077.66,-212.5 1070.72,-217.87 1070.72,-217.87"/>
<ellipse fill="none" stroke="black" cx="1067.61" cy="-218.61" rx="3.2" ry="3.2"/>
</g>
<!-- syst_instances -->
<g id="node8" class="node">
<title>syst_instances</title>
<g id="a_node8"><a xlink:href="../../tables/syst_instances.html" xlink:title="syst_instances" target="_top">
<polygon fill="#ffffff" stroke="transparent" points="1125.5,-458 1125.5,-516 1263.5,-516 1263.5,-458 1125.5,-458"/>
<polygon fill="#f5f5f5" stroke="transparent" points="1125.5,-494 1125.5,-516 1263.5,-516 1263.5,-494 1125.5,-494"/>
<polygon fill="none" stroke="black" points="1125.5,-494 1125.5,-516 1263.5,-516 1263.5,-494 1125.5,-494"/>
<text text-anchor="start" x="1130.5" y="-503.2" font-family="Helvetica,sans-Serif" font-weight="bold" font-size="11.00">syst_instances</text>
<text text-anchor="start" x="1228.5" y="-502.2" font-family="Helvetica,sans-Serif" font-size="11.00">[table]</text>
<polygon fill="none" stroke="black" points="1125.5,-476 1125.5,-494 1263.5,-494 1263.5,-476 1125.5,-476"/>
<text text-anchor="start" x="1128.5" y="-482.2" font-family="Helvetica,sans-Serif" font-size="11.00">...</text>
<polygon fill="#ffffff" stroke="transparent" points="1125.5,-458 1125.5,-476 1187.5,-476 1187.5,-458 1125.5,-458"/>
<polygon fill="none" stroke="black" points="1125.5,-458 1125.5,-476 1187.5,-476 1187.5,-458 1125.5,-458"/>
<text text-anchor="start" x="1128.5" y="-464.2" font-family="Helvetica,sans-Serif" font-size="11.00">&lt; 5</text>
<polygon fill="#ffffff" stroke="transparent" points="1187.5,-458 1187.5,-476 1220.5,-476 1220.5,-458 1187.5,-458"/>
<polygon fill="none" stroke="black" points="1187.5,-458 1187.5,-476 1220.5,-476 1220.5,-458 1187.5,-458"/>
<text text-anchor="start" x="1210.5" y="-464.2" font-family="Helvetica,sans-Serif" font-size="11.00"> &#160;</text>
<polygon fill="#ffffff" stroke="transparent" points="1220.5,-458 1220.5,-476 1263.5,-476 1263.5,-458 1220.5,-458"/>
<polygon fill="none" stroke="black" points="1220.5,-458 1220.5,-476 1263.5,-476 1263.5,-458 1220.5,-458"/>
<text text-anchor="start" x="1244.5" y="-464.2" font-family="Helvetica,sans-Serif" font-size="11.00">2 &gt;</text>
</a>
</g>
</g>
<!-- syst_instances&#45;&gt;syst_applications -->
<g id="edge9" class="edge">
<title>syst_instances:w&#45;&gt;syst_applications:e</title>
<path fill="none" stroke="black" d="M1109.98,-483.21C1076.89,-474.19 1078.23,-433.51 1038,-418 965.21,-389.94 751.73,-435.99 688,-391 652.24,-365.75 691.77,-301 648,-301"/>
<polygon fill="black" stroke="black" points="1116.56,-484.02 1124.06,-488.57 1120.53,-484.51 1124.5,-485 1124.5,-485 1124.5,-485 1120.53,-484.51 1124.94,-481.43 1116.56,-484.02 1116.56,-484.02"/>
<ellipse fill="none" stroke="black" cx="1113.38" cy="-483.63" rx="3.2" ry="3.2"/>
</g>
<!-- syst_instances&#45;&gt;syst_enum_items -->
<g id="edge10" class="edge">
<title>syst_instances:w&#45;&gt;syst_enum_items:e</title>
<path fill="none" stroke="black" d="M1110.1,-485.47C1082.67,-487.36 1071.41,-494.44 1038,-497 865.15,-510.27 821.35,-503 648,-503"/>
<polygon fill="black" stroke="black" points="1116.5,-485.26 1124.62,-488.6 1120.5,-485.13 1124.5,-485 1124.5,-485 1124.5,-485 1120.5,-485.13 1124.38,-481.4 1116.5,-485.26 1116.5,-485.26"/>
<ellipse fill="none" stroke="black" cx="1113.31" cy="-485.36" rx="3.2" ry="3.2"/>
</g>
<!-- syst_instances&#45;&gt;syst_enum_items -->
<g id="edge11" class="edge">
<title>syst_instances:w&#45;&gt;syst_enum_items:e</title>
<path fill="none" stroke="black" d="M1109.79,-485.31C1082.68,-486.54 1071.12,-491.05 1038,-493 864.91,-503.21 821.39,-503 648,-503"/>
<polygon fill="black" stroke="black" points="1116.5,-485.17 1124.58,-488.6 1120.5,-485.09 1124.5,-485 1124.5,-485 1124.5,-485 1120.5,-485.09 1124.42,-481.4 1116.5,-485.17 1116.5,-485.17"/>
<ellipse fill="none" stroke="black" cx="1113.3" cy="-485.24" rx="3.2" ry="3.2"/>
</g>
<!-- syst_owners -->
<g id="node9" class="node">
<title>syst_owners</title>
<g id="a_node9"><a xlink:href="../../tables/syst_owners.html" xlink:title="syst_owners" target="_top">
<polygon fill="#ffffff" stroke="transparent" points="802,-428 802,-486 924,-486 924,-428 802,-428"/>
<polygon fill="#f5f5f5" stroke="transparent" points="802,-464 802,-486 924,-486 924,-464 802,-464"/>
<polygon fill="none" stroke="black" points="802,-464 802,-486 924,-486 924,-464 802,-464"/>
<text text-anchor="start" x="807" y="-473.2" font-family="Helvetica,sans-Serif" font-weight="bold" font-size="11.00">syst_owners</text>
<text text-anchor="start" x="889" y="-472.2" font-family="Helvetica,sans-Serif" font-size="11.00">[table]</text>
<polygon fill="none" stroke="black" points="802,-446 802,-464 924,-464 924,-446 802,-446"/>
<text text-anchor="start" x="805" y="-452.2" font-family="Helvetica,sans-Serif" font-size="11.00">...</text>
<polygon fill="#ffffff" stroke="transparent" points="802,-428 802,-446 856,-446 856,-428 802,-428"/>
<polygon fill="none" stroke="black" points="802,-428 802,-446 856,-446 856,-428 802,-428"/>
<text text-anchor="start" x="805" y="-434.2" font-family="Helvetica,sans-Serif" font-size="11.00">&lt; 1</text>
<polygon fill="#ffffff" stroke="transparent" points="856,-428 856,-446 885,-446 885,-428 856,-428"/>
<polygon fill="none" stroke="black" points="856,-428 856,-446 885,-446 885,-428 856,-428"/>
<text text-anchor="start" x="875" y="-434.2" font-family="Helvetica,sans-Serif" font-size="11.00"> &#160;</text>
<polygon fill="#ffffff" stroke="transparent" points="885,-428 885,-446 924,-446 924,-428 885,-428"/>
<polygon fill="none" stroke="black" points="885,-428 885,-446 924,-446 924,-428 885,-428"/>
<text text-anchor="start" x="905" y="-434.2" font-family="Helvetica,sans-Serif" font-size="11.00">1 &gt;</text>
</a>
</g>
</g>
<!-- syst_instances&#45;&gt;syst_owners -->
<g id="edge12" class="edge">
<title>syst_instances:w&#45;&gt;syst_owners:e</title>
<path fill="none" stroke="black" d="M1109.91,-484.72C1032.33,-481.7 1009.58,-455 925,-455"/>
<polygon fill="black" stroke="black" points="1116.5,-484.85 1124.43,-488.6 1120.5,-484.92 1124.5,-485 1124.5,-485 1124.5,-485 1120.5,-484.92 1124.57,-481.4 1116.5,-484.85 1116.5,-484.85"/>
<ellipse fill="none" stroke="black" cx="1113.3" cy="-484.79" rx="3.2" ry="3.2"/>
</g>
<!-- syst_owners&#45;&gt;syst_enum_items -->
<g id="edge13" class="edge">
<title>syst_owners:w&#45;&gt;syst_enum_items:e</title>
<path fill="none" stroke="black" d="M786.46,-455.72C727.9,-461.69 714.12,-503 648,-503"/>
<polygon fill="black" stroke="black" points="793.01,-455.39 801.18,-458.6 797,-455.2 801,-455 801,-455 801,-455 797,-455.2 800.82,-451.4 793.01,-455.39 793.01,-455.39"/>
<ellipse fill="none" stroke="black" cx="789.81" cy="-455.55" rx="3.2" ry="3.2"/>
</g>
</g>
</svg>
