<?xml version="1.0" encoding="UTF-8" standalone="no"?>
<!DOCTYPE svg PUBLIC "-//W3C//DTD SVG 1.1//EN"
 "http://www.w3.org/Graphics/SVG/1.1/DTD/svg11.dtd">
<!-- Generated by graphviz version 2.43.0 (0)
 -->
<!-- Title: twoDegreesRelationshipsDiagram Pages: 1 -->
<svg width="1555pt" height="715pt"
 viewBox="0.00 0.00 1555.00 715.00" xmlns="http://www.w3.org/2000/svg" xmlns:xlink="http://www.w3.org/1999/xlink">
<g id="graph0" class="graph" transform="scale(1 1) rotate(0) translate(4 711)">
<title>twoDegreesRelationshipsDiagram</title>
<polygon fill="#ffffff" stroke="transparent" points="-4,4 -4,-711 1551,-711 1551,4 -4,4"/>
<text text-anchor="middle" x="71.5" y="-7.2" font-family="Helvetica,sans-Serif" font-size="11.00">Generated by SchemaSpy</text>
<!-- syst_enum_functional_types -->
<g id="node1" class="node">
<title>syst_enum_functional_types</title>
<g id="a_node1"><a xlink:href="../../tables/syst_enum_functional_types.html" xlink:title="syst_enum_functional_types" target="_top">
<polygon fill="#ffffff" stroke="transparent" points="175,-375 175,-433 404,-433 404,-375 175,-375"/>
<polygon fill="#f5f5f5" stroke="transparent" points="175.5,-411 175.5,-433 404.5,-433 404.5,-411 175.5,-411"/>
<polygon fill="none" stroke="black" points="175.5,-411 175.5,-433 404.5,-433 404.5,-411 175.5,-411"/>
<text text-anchor="start" x="180.5" y="-420.2" font-family="Helvetica,sans-Serif" font-weight="bold" font-size="11.00">syst_enum_functional_types</text>
<text text-anchor="start" x="369.5" y="-419.2" font-family="Helvetica,sans-Serif" font-size="11.00">[table]</text>
<polygon fill="none" stroke="black" points="175.5,-393 175.5,-411 404.5,-411 404.5,-393 175.5,-393"/>
<text text-anchor="start" x="178.5" y="-399.2" font-family="Helvetica,sans-Serif" font-size="11.00">...</text>
<polygon fill="#ffffff" stroke="transparent" points="175.5,-375 175.5,-393 283.5,-393 283.5,-375 175.5,-375"/>
<polygon fill="none" stroke="black" points="175.5,-375 175.5,-393 283.5,-393 283.5,-375 175.5,-375"/>
<text text-anchor="start" x="178.5" y="-381.2" font-family="Helvetica,sans-Serif" font-size="11.00">&lt; 1</text>
<polygon fill="#ffffff" stroke="transparent" points="283.5,-375 283.5,-393 339.5,-393 339.5,-375 283.5,-375"/>
<polygon fill="none" stroke="black" points="283.5,-375 283.5,-393 339.5,-393 339.5,-375 283.5,-375"/>
<text text-anchor="start" x="329.5" y="-381.2" font-family="Helvetica,sans-Serif" font-size="11.00"> &#160;</text>
<polygon fill="#ffffff" stroke="transparent" points="339.5,-375 339.5,-393 404.5,-393 404.5,-375 339.5,-375"/>
<polygon fill="none" stroke="black" points="339.5,-375 339.5,-393 404.5,-393 404.5,-375 339.5,-375"/>
<text text-anchor="start" x="385.5" y="-381.2" font-family="Helvetica,sans-Serif" font-size="11.00">1 &gt;</text>
</a>
</g>
</g>
<!-- syst_enums -->
<g id="node2" class="node">
<title>syst_enums</title>
<g id="a_node2"><a xlink:href="../../tables/syst_enums.html" xlink:title="syst_enums" target="_top">
<polygon fill="#ffffff" stroke="transparent" points="8,-401 8,-459 126,-459 126,-401 8,-401"/>
<polygon fill="#f5f5f5" stroke="transparent" points="8,-437 8,-459 126,-459 126,-437 8,-437"/>
<polygon fill="none" stroke="black" points="8,-437 8,-459 126,-459 126,-437 8,-437"/>
<text text-anchor="start" x="13" y="-446.2" font-family="Helvetica,sans-Serif" font-weight="bold" font-size="11.00">syst_enums</text>
<text text-anchor="start" x="91" y="-445.2" font-family="Helvetica,sans-Serif" font-size="11.00">[table]</text>
<polygon fill="none" stroke="black" points="8,-419 8,-437 126,-437 126,-419 8,-419"/>
<text text-anchor="start" x="11" y="-425.2" font-family="Helvetica,sans-Serif" font-size="11.00">...</text>
<polygon fill="#ffffff" stroke="transparent" points="8,-401 8,-419 56,-419 56,-401 8,-401"/>
<polygon fill="none" stroke="black" points="8,-401 8,-419 56,-419 56,-401 8,-401"/>
<text text-anchor="start" x="11" y="-407.2" font-family="Helvetica,sans-Serif" font-size="11.00"> &#160;</text>
<polygon fill="#ffffff" stroke="transparent" points="56,-401 56,-419 86,-419 86,-401 56,-401"/>
<polygon fill="none" stroke="black" points="56,-401 56,-419 86,-419 86,-401 56,-401"/>
<text text-anchor="start" x="76" y="-407.2" font-family="Helvetica,sans-Serif" font-size="11.00"> &#160;</text>
<polygon fill="#ffffff" stroke="transparent" points="86,-401 86,-419 126,-419 126,-401 86,-401"/>
<polygon fill="none" stroke="black" points="86,-401 86,-419 126,-419 126,-401 86,-401"/>
<text text-anchor="start" x="107" y="-407.2" font-family="Helvetica,sans-Serif" font-size="11.00">2 &gt;</text>
</a>
</g>
</g>
<!-- syst_enum_functional_types&#45;&gt;syst_enums -->
<g id="edge1" class="edge">
<title>syst_enum_functional_types:w&#45;&gt;syst_enums:e</title>
<path fill="none" stroke="black" d="M152.55,-420.03C146.24,-420.77 140.05,-421.5 134.07,-422.21"/>
<polygon fill="black" stroke="black" points="159.02,-419.27 167.38,-421.91 162.99,-418.8 166.96,-418.33 166.96,-418.33 166.96,-418.33 162.99,-418.8 166.54,-414.76 159.02,-419.27 159.02,-419.27"/>
<ellipse fill="none" stroke="black" cx="155.84" cy="-419.64" rx="3.2" ry="3.2"/>
</g>
<!-- syst_enum_items -->
<g id="node3" class="node">
<title>syst_enum_items</title>
<g id="a_node3"><a xlink:href="../../tables/syst_enum_items.html" xlink:title="syst_enum_items" target="_top">
<polygon fill="#ffffff" stroke="transparent" points="453,-37 453,-565 749,-565 749,-37 453,-37"/>
<polygon fill="#f5f5f5" stroke="transparent" points="455,-541 455,-563 747,-563 747,-541 455,-541"/>
<polygon fill="none" stroke="black" points="455,-541 455,-563 747,-563 747,-541 455,-541"/>
<text text-anchor="start" x="460" y="-550.2" font-family="Helvetica,sans-Serif" font-weight="bold" font-size="11.00">syst_enum_items</text>
<text text-anchor="start" x="712" y="-549.2" font-family="Helvetica,sans-Serif" font-size="11.00">[table]</text>
<polygon fill="none" stroke="black" points="455,-519 455,-541 649,-541 649,-519 455,-519"/>
<image xlink:href="../../images/primaryKeys.png" width="11px" height="12px" preserveAspectRatio="xMinYMin meet" x="460" y="-536"/>
<text text-anchor="start" x="475" y="-527.2" font-family="Helvetica,sans-Serif" font-size="11.00">id</text>
<polygon fill="none" stroke="black" points="649,-519 649,-541 747,-541 747,-519 649,-519"/>
<text text-anchor="start" x="652" y="-527.2" font-family="Helvetica,sans-Serif" font-size="11.00">uuid[2147483647]</text>
<polygon fill="#ffffff" stroke="transparent" points="455,-497 455,-519 649,-519 649,-497 455,-497"/>
<polygon fill="none" stroke="black" points="455,-497 455,-519 649,-519 649,-497 455,-497"/>
<text text-anchor="start" x="475" y="-505.2" font-family="Helvetica,sans-Serif" font-size="11.00">internal_name</text>
<polygon fill="none" stroke="black" points="649,-497 649,-519 747,-519 747,-497 649,-497"/>
<text text-anchor="start" x="652" y="-505.2" font-family="Helvetica,sans-Serif" font-size="11.00">text[2147483647]</text>
<polygon fill="#ffffff" stroke="transparent" points="455,-475 455,-497 649,-497 649,-475 455,-475"/>
<polygon fill="none" stroke="black" points="455,-475 455,-497 649,-497 649,-475 455,-475"/>
<text text-anchor="start" x="475" y="-483.2" font-family="Helvetica,sans-Serif" font-size="11.00">display_name</text>
<polygon fill="none" stroke="black" points="649,-475 649,-497 747,-497 747,-475 649,-475"/>
<text text-anchor="start" x="652" y="-483.2" font-family="Helvetica,sans-Serif" font-size="11.00">text[2147483647]</text>
<polygon fill="none" stroke="black" points="455,-453 455,-475 649,-475 649,-453 455,-453"/>
<text text-anchor="start" x="475" y="-461.2" font-family="Helvetica,sans-Serif" font-size="11.00">external_name</text>
<polygon fill="none" stroke="black" points="649,-453 649,-475 747,-475 747,-453 649,-453"/>
<text text-anchor="start" x="652" y="-461.2" font-family="Helvetica,sans-Serif" font-size="11.00">text[2147483647]</text>
<polygon fill="none" stroke="black" points="455,-431 455,-453 649,-453 649,-431 455,-431"/>
<image xlink:href="../../images/foreignKeys.png" width="11px" height="12px" preserveAspectRatio="xMinYMin meet" x="460" y="-448"/>
<text text-anchor="start" x="475" y="-439.2" font-family="Helvetica,sans-Serif" font-size="11.00">enum_id</text>
<polygon fill="none" stroke="black" points="649,-431 649,-453 747,-453 747,-431 649,-431"/>
<text text-anchor="start" x="652" y="-439.2" font-family="Helvetica,sans-Serif" font-size="11.00">uuid[2147483647]</text>
<polygon fill="none" stroke="black" points="455,-409 455,-431 649,-431 649,-409 455,-409"/>
<image xlink:href="../../images/foreignKeys.png" width="11px" height="12px" preserveAspectRatio="xMinYMin meet" x="460" y="-426"/>
<text text-anchor="start" x="475" y="-417.2" font-family="Helvetica,sans-Serif" font-size="11.00">functional_type_id</text>
<polygon fill="none" stroke="black" points="649,-409 649,-431 747,-431 747,-409 649,-409"/>
<text text-anchor="start" x="652" y="-417.2" font-family="Helvetica,sans-Serif" font-size="11.00">uuid[2147483647]</text>
<polygon fill="none" stroke="black" points="455,-387 455,-409 649,-409 649,-387 455,-387"/>
<text text-anchor="start" x="475" y="-395.2" font-family="Helvetica,sans-Serif" font-size="11.00">enum_default</text>
<polygon fill="none" stroke="black" points="649,-387 649,-409 747,-409 747,-387 649,-387"/>
<text text-anchor="start" x="652" y="-395.2" font-family="Helvetica,sans-Serif" font-size="11.00">bool[1]</text>
<polygon fill="none" stroke="black" points="455,-365 455,-387 649,-387 649,-365 455,-365"/>
<text text-anchor="start" x="475" y="-373.2" font-family="Helvetica,sans-Serif" font-size="11.00">functional_type_default</text>
<polygon fill="none" stroke="black" points="649,-365 649,-387 747,-387 747,-365 649,-365"/>
<text text-anchor="start" x="652" y="-373.2" font-family="Helvetica,sans-Serif" font-size="11.00">bool[1]</text>
<polygon fill="none" stroke="black" points="455,-343 455,-365 649,-365 649,-343 455,-343"/>
<text text-anchor="start" x="475" y="-351.2" font-family="Helvetica,sans-Serif" font-size="11.00">syst_defined</text>
<polygon fill="none" stroke="black" points="649,-343 649,-365 747,-365 747,-343 649,-343"/>
<text text-anchor="start" x="652" y="-351.2" font-family="Helvetica,sans-Serif" font-size="11.00">bool[1]</text>
<polygon fill="none" stroke="black" points="455,-321 455,-343 649,-343 649,-321 455,-321"/>
<text text-anchor="start" x="475" y="-329.2" font-family="Helvetica,sans-Serif" font-size="11.00">user_maintainable</text>
<polygon fill="none" stroke="black" points="649,-321 649,-343 747,-343 747,-321 649,-321"/>
<text text-anchor="start" x="652" y="-329.2" font-family="Helvetica,sans-Serif" font-size="11.00">bool[1]</text>
<polygon fill="none" stroke="black" points="455,-299 455,-321 649,-321 649,-299 455,-299"/>
<text text-anchor="start" x="475" y="-307.2" font-family="Helvetica,sans-Serif" font-size="11.00">syst_description</text>
<polygon fill="none" stroke="black" points="649,-299 649,-321 747,-321 747,-299 649,-299"/>
<text text-anchor="start" x="652" y="-307.2" font-family="Helvetica,sans-Serif" font-size="11.00">text[2147483647]</text>
<polygon fill="none" stroke="black" points="455,-277 455,-299 649,-299 649,-277 455,-277"/>
<text text-anchor="start" x="475" y="-285.2" font-family="Helvetica,sans-Serif" font-size="11.00">user_description</text>
<polygon fill="none" stroke="black" points="649,-277 649,-299 747,-299 747,-277 649,-277"/>
<text text-anchor="start" x="652" y="-285.2" font-family="Helvetica,sans-Serif" font-size="11.00">text[2147483647]</text>
<polygon fill="none" stroke="black" points="455,-255 455,-277 649,-277 649,-255 455,-255"/>
<text text-anchor="start" x="475" y="-263.2" font-family="Helvetica,sans-Serif" font-size="11.00">sort_order</text>
<polygon fill="none" stroke="black" points="649,-255 649,-277 747,-277 747,-255 649,-255"/>
<text text-anchor="start" x="652" y="-263.2" font-family="Helvetica,sans-Serif" font-size="11.00">int2[5]</text>
<polygon fill="none" stroke="black" points="455,-233 455,-255 649,-255 649,-233 455,-233"/>
<text text-anchor="start" x="475" y="-241.2" font-family="Helvetica,sans-Serif" font-size="11.00">syst_options</text>
<polygon fill="none" stroke="black" points="649,-233 649,-255 747,-255 747,-233 649,-233"/>
<text text-anchor="start" x="652" y="-241.2" font-family="Helvetica,sans-Serif" font-size="11.00">jsonb[2147483647]</text>
<polygon fill="none" stroke="black" points="455,-211 455,-233 649,-233 649,-211 455,-211"/>
<text text-anchor="start" x="475" y="-219.2" font-family="Helvetica,sans-Serif" font-size="11.00">user_options</text>
<polygon fill="none" stroke="black" points="649,-211 649,-233 747,-233 747,-211 649,-211"/>
<text text-anchor="start" x="652" y="-219.2" font-family="Helvetica,sans-Serif" font-size="11.00">jsonb[2147483647]</text>
<polygon fill="none" stroke="black" points="455,-189 455,-211 649,-211 649,-189 455,-189"/>
<text text-anchor="start" x="475" y="-197.2" font-family="Helvetica,sans-Serif" font-size="11.00">diag_timestamp_created</text>
<polygon fill="none" stroke="black" points="649,-189 649,-211 747,-211 747,-189 649,-189"/>
<text text-anchor="start" x="652" y="-197.2" font-family="Helvetica,sans-Serif" font-size="11.00">timestamptz[35,6]</text>
<polygon fill="none" stroke="black" points="455,-167 455,-189 649,-189 649,-167 455,-167"/>
<text text-anchor="start" x="475" y="-175.2" font-family="Helvetica,sans-Serif" font-size="11.00">diag_role_created</text>
<polygon fill="none" stroke="black" points="649,-167 649,-189 747,-189 747,-167 649,-167"/>
<text text-anchor="start" x="652" y="-175.2" font-family="Helvetica,sans-Serif" font-size="11.00">text[2147483647]</text>
<polygon fill="none" stroke="black" points="455,-145 455,-167 649,-167 649,-145 455,-145"/>
<text text-anchor="start" x="475" y="-153.2" font-family="Helvetica,sans-Serif" font-size="11.00">diag_timestamp_modified</text>
<polygon fill="none" stroke="black" points="649,-145 649,-167 747,-167 747,-145 649,-145"/>
<text text-anchor="start" x="652" y="-153.2" font-family="Helvetica,sans-Serif" font-size="11.00">timestamptz[35,6]</text>
<polygon fill="none" stroke="black" points="455,-123 455,-145 649,-145 649,-123 455,-123"/>
<text text-anchor="start" x="475" y="-131.2" font-family="Helvetica,sans-Serif" font-size="11.00">diag_wallclock_modified</text>
<polygon fill="none" stroke="black" points="649,-123 649,-145 747,-145 747,-123 649,-123"/>
<text text-anchor="start" x="652" y="-131.2" font-family="Helvetica,sans-Serif" font-size="11.00">timestamptz[35,6]</text>
<polygon fill="none" stroke="black" points="455,-101 455,-123 649,-123 649,-101 455,-101"/>
<text text-anchor="start" x="475" y="-109.2" font-family="Helvetica,sans-Serif" font-size="11.00">diag_role_modified</text>
<polygon fill="none" stroke="black" points="649,-101 649,-123 747,-123 747,-101 649,-101"/>
<text text-anchor="start" x="652" y="-109.2" font-family="Helvetica,sans-Serif" font-size="11.00">text[2147483647]</text>
<polygon fill="none" stroke="black" points="455,-79 455,-101 649,-101 649,-79 455,-79"/>
<text text-anchor="start" x="475" y="-87.2" font-family="Helvetica,sans-Serif" font-size="11.00">diag_row_version</text>
<polygon fill="none" stroke="black" points="649,-79 649,-101 747,-101 747,-79 649,-79"/>
<text text-anchor="start" x="652" y="-87.2" font-family="Helvetica,sans-Serif" font-size="11.00">int8[19]</text>
<polygon fill="none" stroke="black" points="455,-57 455,-79 649,-79 649,-57 455,-57"/>
<text text-anchor="start" x="475" y="-65.2" font-family="Helvetica,sans-Serif" font-size="11.00">diag_update_count</text>
<polygon fill="none" stroke="black" points="649,-57 649,-79 747,-79 747,-57 649,-57"/>
<text text-anchor="start" x="652" y="-65.2" font-family="Helvetica,sans-Serif" font-size="11.00">int8[19]</text>
<polygon fill="#ffffff" stroke="transparent" points="455,-39 455,-57 556,-57 556,-39 455,-39"/>
<polygon fill="none" stroke="black" points="455,-39 455,-57 556,-57 556,-39 455,-39"/>
<text text-anchor="start" x="458" y="-45.2" font-family="Helvetica,sans-Serif" font-size="11.00">&lt; 2</text>
<polygon fill="#ffffff" stroke="transparent" points="556,-39 556,-57 649,-57 649,-39 556,-39"/>
<polygon fill="none" stroke="black" points="556,-39 556,-57 649,-57 649,-39 556,-39"/>
<text text-anchor="start" x="639" y="-45.2" font-family="Helvetica,sans-Serif" font-size="11.00"> &#160;</text>
<polygon fill="#ffffff" stroke="transparent" points="649,-39 649,-57 747,-57 747,-39 649,-39"/>
<polygon fill="none" stroke="black" points="649,-39 649,-57 747,-57 747,-39 649,-39"/>
<text text-anchor="start" x="728" y="-45.2" font-family="Helvetica,sans-Serif" font-size="11.00">4 &gt;</text>
<polygon fill="none" stroke="black" stroke-width="2" points="454,-38 454,-564 748,-564 748,-38 454,-38"/>
</a>
</g>
</g>
<!-- syst_enum_items&#45;&gt;syst_enum_functional_types -->
<g id="edge3" class="edge">
<title>syst_enum_items:w&#45;&gt;syst_enum_functional_types:e</title>
<path fill="none" stroke="black" d="M439.52,-419.8C430.51,-419.57 421.36,-419.13 412.24,-418.55"/>
<polygon fill="black" stroke="black" points="446,-419.89 453.95,-423.6 450,-419.95 454,-420 454,-420 454,-420 450,-419.95 454.05,-416.4 446,-419.89 446,-419.89"/>
<ellipse fill="none" stroke="black" cx="442.8" cy="-419.85" rx="3.2" ry="3.2"/>
</g>
<!-- syst_enum_items&#45;&gt;syst_enums -->
<g id="edge2" class="edge">
<title>syst_enum_items:w&#45;&gt;syst_enums:e</title>
<path fill="none" stroke="black" d="M439.45,-442.2C430.91,-442.44 424.69,-442.85 412,-443 303.12,-444.3 275.66,-450.1 167,-443 156.36,-442.3 145.12,-441.19 134.18,-439.91"/>
<polygon fill="black" stroke="black" points="446,-442.11 454.05,-445.6 450,-442.05 454,-442 454,-442 454,-442 450,-442.05 453.95,-438.4 446,-442.11 446,-442.11"/>
<ellipse fill="none" stroke="black" cx="442.8" cy="-442.15" rx="3.2" ry="3.2"/>
</g>
<!-- syst_instance_contexts -->
<g id="node4" class="node">
<title>syst_instance_contexts</title>
<g id="a_node4"><a xlink:href="../../tables/syst_instance_contexts.html" xlink:title="syst_instance_contexts" target="_top">
<polygon fill="#ffffff" stroke="transparent" points="1326,-502 1326,-560 1521,-560 1521,-502 1326,-502"/>
<polygon fill="#f5f5f5" stroke="transparent" points="1326.5,-538 1326.5,-560 1521.5,-560 1521.5,-538 1326.5,-538"/>
<polygon fill="none" stroke="black" points="1326.5,-538 1326.5,-560 1521.5,-560 1521.5,-538 1326.5,-538"/>
<text text-anchor="start" x="1331.5" y="-547.2" font-family="Helvetica,sans-Serif" font-weight="bold" font-size="11.00">syst_instance_contexts</text>
<text text-anchor="start" x="1486.5" y="-546.2" font-family="Helvetica,sans-Serif" font-size="11.00">[table]</text>
<polygon fill="none" stroke="black" points="1326.5,-520 1326.5,-538 1521.5,-538 1521.5,-520 1326.5,-520"/>
<text text-anchor="start" x="1329.5" y="-526.2" font-family="Helvetica,sans-Serif" font-size="11.00">...</text>
<polygon fill="#ffffff" stroke="transparent" points="1326.5,-502 1326.5,-520 1421.5,-520 1421.5,-502 1326.5,-502"/>
<polygon fill="none" stroke="black" points="1326.5,-502 1326.5,-520 1421.5,-520 1421.5,-502 1326.5,-502"/>
<text text-anchor="start" x="1329.5" y="-508.2" font-family="Helvetica,sans-Serif" font-size="11.00">&lt; 2</text>
<polygon fill="#ffffff" stroke="transparent" points="1421.5,-502 1421.5,-520 1471.5,-520 1471.5,-502 1421.5,-502"/>
<polygon fill="none" stroke="black" points="1421.5,-502 1421.5,-520 1471.5,-520 1471.5,-502 1421.5,-502"/>
<text text-anchor="start" x="1461.5" y="-508.2" font-family="Helvetica,sans-Serif" font-size="11.00"> &#160;</text>
<polygon fill="#ffffff" stroke="transparent" points="1471.5,-502 1471.5,-520 1521.5,-520 1521.5,-502 1471.5,-502"/>
<polygon fill="none" stroke="black" points="1471.5,-502 1471.5,-520 1521.5,-520 1521.5,-502 1471.5,-502"/>
<text text-anchor="start" x="1511.5" y="-508.2" font-family="Helvetica,sans-Serif" font-size="11.00"> &#160;</text>
</a>
</g>
</g>
<!-- syst_instances -->
<g id="node5" class="node">
<title>syst_instances</title>
<g id="a_node5"><a xlink:href="../../tables/syst_instances.html" xlink:title="syst_instances" target="_top">
<polygon fill="#ffffff" stroke="transparent" points="1062,-500 1062,-558 1200,-558 1200,-500 1062,-500"/>
<polygon fill="#f5f5f5" stroke="transparent" points="1062,-536 1062,-558 1200,-558 1200,-536 1062,-536"/>
<polygon fill="none" stroke="black" points="1062,-536 1062,-558 1200,-558 1200,-536 1062,-536"/>
<text text-anchor="start" x="1067" y="-545.2" font-family="Helvetica,sans-Serif" font-weight="bold" font-size="11.00">syst_instances</text>
<text text-anchor="start" x="1165" y="-544.2" font-family="Helvetica,sans-Serif" font-size="11.00">[table]</text>
<polygon fill="none" stroke="black" points="1062,-518 1062,-536 1200,-536 1200,-518 1062,-518"/>
<text text-anchor="start" x="1065" y="-524.2" font-family="Helvetica,sans-Serif" font-size="11.00">...</text>
<polygon fill="#ffffff" stroke="transparent" points="1062,-500 1062,-518 1124,-518 1124,-500 1062,-500"/>
<polygon fill="none" stroke="black" points="1062,-500 1062,-518 1124,-518 1124,-500 1062,-500"/>
<text text-anchor="start" x="1065" y="-506.2" font-family="Helvetica,sans-Serif" font-size="11.00">&lt; 5</text>
<polygon fill="#ffffff" stroke="transparent" points="1124,-500 1124,-518 1157,-518 1157,-500 1124,-500"/>
<polygon fill="none" stroke="black" points="1124,-500 1124,-518 1157,-518 1157,-500 1124,-500"/>
<text text-anchor="start" x="1147" y="-506.2" font-family="Helvetica,sans-Serif" font-size="11.00"> &#160;</text>
<polygon fill="#ffffff" stroke="transparent" points="1157,-500 1157,-518 1200,-518 1200,-500 1157,-500"/>
<polygon fill="none" stroke="black" points="1157,-500 1157,-518 1200,-518 1200,-500 1157,-500"/>
<text text-anchor="start" x="1181" y="-506.2" font-family="Helvetica,sans-Serif" font-size="11.00">2 &gt;</text>
</a>
</g>
</g>
<!-- syst_instance_contexts&#45;&gt;syst_instances -->
<g id="edge4" class="edge">
<title>syst_instance_contexts:w&#45;&gt;syst_instances:e</title>
<path fill="none" stroke="black" d="M1310.83,-529C1276.24,-529 1239.44,-529 1208.28,-529"/>
<polygon fill="black" stroke="black" points="1317.5,-529 1325.5,-532.6 1321.5,-529 1325.5,-529 1325.5,-529 1325.5,-529 1321.5,-529 1325.5,-525.4 1317.5,-529 1317.5,-529"/>
<ellipse fill="none" stroke="black" cx="1314.3" cy="-529" rx="3.2" ry="3.2"/>
</g>
<!-- syst_instances&#45;&gt;syst_enum_items -->
<g id="edge9" class="edge">
<title>syst_instances:w&#45;&gt;syst_enum_items:e</title>
<path fill="none" stroke="black" d="M1039.41,-525.01C962.01,-524.68 847.69,-526.48 748,-530"/>
<polygon fill="black" stroke="black" points="1045.9,-525.05 1053.88,-528.7 1049.9,-525.07 1053.9,-525.1 1053.9,-525.1 1053.9,-525.1 1049.9,-525.07 1053.92,-521.5 1045.9,-525.05 1045.9,-525.05"/>
<ellipse fill="none" stroke="black" cx="1042.7" cy="-525.03" rx="3.2" ry="3.2"/>
</g>
<!-- syst_instances&#45;&gt;syst_enum_items -->
<g id="edge10" class="edge">
<title>syst_instances:w&#45;&gt;syst_enum_items:e</title>
<path fill="none" stroke="black" d="M1039.41,-534.46C962.01,-535.46 847.69,-534.11 748,-530"/>
<polygon fill="black" stroke="black" points="1045.9,-534.36 1053.95,-537.84 1049.9,-534.3 1053.9,-534.24 1053.9,-534.24 1053.9,-534.24 1049.9,-534.3 1053.84,-530.64 1045.9,-534.36 1045.9,-534.36"/>
<ellipse fill="none" stroke="black" cx="1042.7" cy="-534.41" rx="3.2" ry="3.2"/>
</g>
<!-- syst_applications -->
<g id="node7" class="node">
<title>syst_applications</title>
<g id="a_node7"><a xlink:href="../../tables/syst_applications.html" xlink:title="syst_applications" target="_top">
<polygon fill="#ffffff" stroke="transparent" points="798,-562 798,-620 954,-620 954,-562 798,-562"/>
<polygon fill="#f5f5f5" stroke="transparent" points="798,-598 798,-620 954,-620 954,-598 798,-598"/>
<polygon fill="none" stroke="black" points="798,-598 798,-620 954,-620 954,-598 798,-598"/>
<text text-anchor="start" x="803" y="-607.2" font-family="Helvetica,sans-Serif" font-weight="bold" font-size="11.00">syst_applications</text>
<text text-anchor="start" x="919" y="-606.2" font-family="Helvetica,sans-Serif" font-size="11.00">[table]</text>
<polygon fill="none" stroke="black" points="798,-580 798,-598 954,-598 954,-580 798,-580"/>
<text text-anchor="start" x="801" y="-586.2" font-family="Helvetica,sans-Serif" font-size="11.00">...</text>
<polygon fill="#ffffff" stroke="transparent" points="798,-562 798,-580 865,-580 865,-562 798,-562"/>
<polygon fill="none" stroke="black" points="798,-562 798,-580 865,-580 865,-562 798,-562"/>
<text text-anchor="start" x="801" y="-568.2" font-family="Helvetica,sans-Serif" font-size="11.00"> &#160;</text>
<polygon fill="#ffffff" stroke="transparent" points="865,-562 865,-580 905,-580 905,-562 865,-562"/>
<polygon fill="none" stroke="black" points="865,-562 865,-580 905,-580 905,-562 865,-562"/>
<text text-anchor="start" x="895" y="-568.2" font-family="Helvetica,sans-Serif" font-size="11.00"> &#160;</text>
<polygon fill="#ffffff" stroke="transparent" points="905,-562 905,-580 954,-580 954,-562 905,-562"/>
<polygon fill="none" stroke="black" points="905,-562 905,-580 954,-580 954,-562 905,-562"/>
<text text-anchor="start" x="935" y="-568.2" font-family="Helvetica,sans-Serif" font-size="11.00">3 &gt;</text>
</a>
</g>
</g>
<!-- syst_instances&#45;&gt;syst_applications -->
<g id="edge8" class="edge">
<title>syst_instances:w&#45;&gt;syst_applications:e</title>
<path fill="none" stroke="black" d="M1040.05,-553.25C1024.86,-558.03 1009.36,-563.33 995,-569 976.51,-576.3 974.88,-589 955,-589"/>
<polygon fill="black" stroke="black" points="1046.22,-551.36 1054.93,-552.46 1050.05,-550.19 1053.87,-549.01 1053.87,-549.01 1053.87,-549.01 1050.05,-550.19 1052.82,-545.57 1046.22,-551.36 1046.22,-551.36"/>
<ellipse fill="none" stroke="black" cx="1043.17" cy="-552.29" rx="3.2" ry="3.2"/>
</g>
<!-- syst_owners -->
<g id="node9" class="node">
<title>syst_owners</title>
<g id="a_node9"><a xlink:href="../../tables/syst_owners.html" xlink:title="syst_owners" target="_top">
<polygon fill="#ffffff" stroke="transparent" points="815,-442 815,-500 937,-500 937,-442 815,-442"/>
<polygon fill="#f5f5f5" stroke="transparent" points="815,-478 815,-500 937,-500 937,-478 815,-478"/>
<polygon fill="none" stroke="black" points="815,-478 815,-500 937,-500 937,-478 815,-478"/>
<text text-anchor="start" x="820" y="-487.2" font-family="Helvetica,sans-Serif" font-weight="bold" font-size="11.00">syst_owners</text>
<text text-anchor="start" x="902" y="-486.2" font-family="Helvetica,sans-Serif" font-size="11.00">[table]</text>
<polygon fill="none" stroke="black" points="815,-460 815,-478 937,-478 937,-460 815,-460"/>
<text text-anchor="start" x="818" y="-466.2" font-family="Helvetica,sans-Serif" font-size="11.00">...</text>
<polygon fill="#ffffff" stroke="transparent" points="815,-442 815,-460 869,-460 869,-442 815,-442"/>
<polygon fill="none" stroke="black" points="815,-442 815,-460 869,-460 869,-442 815,-442"/>
<text text-anchor="start" x="818" y="-448.2" font-family="Helvetica,sans-Serif" font-size="11.00">&lt; 1</text>
<polygon fill="#ffffff" stroke="transparent" points="869,-442 869,-460 898,-460 898,-442 869,-442"/>
<polygon fill="none" stroke="black" points="869,-442 869,-460 898,-460 898,-442 869,-442"/>
<text text-anchor="start" x="888" y="-448.2" font-family="Helvetica,sans-Serif" font-size="11.00"> &#160;</text>
<polygon fill="#ffffff" stroke="transparent" points="898,-442 898,-460 937,-460 937,-442 898,-442"/>
<polygon fill="none" stroke="black" points="898,-442 898,-460 937,-460 937,-442 898,-442"/>
<text text-anchor="start" x="918" y="-448.2" font-family="Helvetica,sans-Serif" font-size="11.00">1 &gt;</text>
</a>
</g>
</g>
<!-- syst_instances&#45;&gt;syst_owners -->
<g id="edge11" class="edge">
<title>syst_instances:w&#45;&gt;syst_owners:e</title>
<path fill="none" stroke="black" d="M1039.3,-508.21C1008.34,-501.11 974.26,-493.3 945.35,-486.67"/>
<polygon fill="black" stroke="black" points="1045.95,-509.73 1052.94,-515.03 1049.85,-510.63 1053.75,-511.52 1053.75,-511.52 1053.75,-511.52 1049.85,-510.63 1054.55,-508.01 1045.95,-509.73 1045.95,-509.73"/>
<ellipse fill="none" stroke="black" cx="1042.83" cy="-509.02" rx="3.2" ry="3.2"/>
</g>
<!-- syst_instance_type_applications -->
<g id="node6" class="node">
<title>syst_instance_type_applications</title>
<g id="a_node6"><a xlink:href="../../tables/syst_instance_type_applications.html" xlink:title="syst_instance_type_applications" target="_top">
<polygon fill="#ffffff" stroke="transparent" points="1003,-579 1003,-703 1259,-703 1259,-579 1003,-579"/>
<polygon fill="#f5f5f5" stroke="transparent" points="1003,-681 1003,-703 1259,-703 1259,-681 1003,-681"/>
<polygon fill="none" stroke="black" points="1003,-681 1003,-703 1259,-703 1259,-681 1003,-681"/>
<text text-anchor="start" x="1008" y="-690.2" font-family="Helvetica,sans-Serif" font-weight="bold" font-size="11.00">syst_instance_type_applications</text>
<text text-anchor="start" x="1224" y="-689.2" font-family="Helvetica,sans-Serif" font-size="11.00">[table]</text>
<polygon fill="none" stroke="black" points="1003,-659 1003,-681 1259,-681 1259,-659 1003,-659"/>
<image xlink:href="../../images/primaryKeys.png" width="11px" height="12px" preserveAspectRatio="xMinYMin meet" x="1008" y="-676"/>
<text text-anchor="start" x="1033" y="-667.2" font-family="Helvetica,sans-Serif" font-size="11.00">id</text>
<polygon fill="#ffffff" stroke="transparent" points="1003,-637 1003,-659 1259,-659 1259,-637 1003,-637"/>
<polygon fill="none" stroke="black" points="1003,-637 1003,-659 1259,-659 1259,-637 1003,-637"/>
<image xlink:href="../../images/foreignKeys.png" width="11px" height="12px" preserveAspectRatio="xMinYMin meet" x="1008" y="-654"/>
<text text-anchor="start" x="1033" y="-645.2" font-family="Helvetica,sans-Serif" font-size="11.00">instance_type_id</text>
<polygon fill="#ffffff" stroke="transparent" points="1003,-615 1003,-637 1259,-637 1259,-615 1003,-615"/>
<polygon fill="none" stroke="black" points="1003,-615 1003,-637 1259,-637 1259,-615 1003,-615"/>
<image xlink:href="../../images/foreignKeys.png" width="11px" height="12px" preserveAspectRatio="xMinYMin meet" x="1008" y="-632"/>
<text text-anchor="start" x="1033" y="-623.2" font-family="Helvetica,sans-Serif" font-size="11.00">application_id</text>
<polygon fill="none" stroke="black" points="1003,-597 1003,-615 1259,-615 1259,-597 1003,-597"/>
<text text-anchor="start" x="1006" y="-603.2" font-family="Helvetica,sans-Serif" font-size="11.00">...</text>
<polygon fill="#ffffff" stroke="transparent" points="1003,-579 1003,-597 1124,-597 1124,-579 1003,-579"/>
<polygon fill="none" stroke="black" points="1003,-579 1003,-597 1124,-597 1124,-579 1003,-579"/>
<text text-anchor="start" x="1006" y="-585.2" font-family="Helvetica,sans-Serif" font-size="11.00">&lt; 2</text>
<polygon fill="#ffffff" stroke="transparent" points="1124,-579 1124,-597 1187,-597 1187,-579 1124,-579"/>
<polygon fill="none" stroke="black" points="1124,-579 1124,-597 1187,-597 1187,-579 1124,-579"/>
<text text-anchor="start" x="1177" y="-585.2" font-family="Helvetica,sans-Serif" font-size="11.00"> &#160;</text>
<polygon fill="#ffffff" stroke="transparent" points="1187,-579 1187,-597 1259,-597 1259,-579 1187,-579"/>
<polygon fill="none" stroke="black" points="1187,-579 1187,-597 1259,-597 1259,-579 1187,-579"/>
<text text-anchor="start" x="1240" y="-585.2" font-family="Helvetica,sans-Serif" font-size="11.00">1 &gt;</text>
</a>
</g>
</g>
<!-- syst_instance_type_applications&#45;&gt;syst_enum_items -->
<g id="edge6" class="edge">
<title>syst_instance_type_applications:w&#45;&gt;syst_enum_items:e</title>
<path fill="none" stroke="black" d="M987.48,-648.3C903.05,-651.81 862.44,-683.63 790,-631 750.67,-602.42 796.62,-530 748,-530"/>
<polygon fill="black" stroke="black" points="994,-648.17 1002.07,-651.6 998,-648.08 1002,-648 1002,-648 1002,-648 998,-648.08 1001.93,-644.4 994,-648.17 994,-648.17"/>
<ellipse fill="none" stroke="black" cx="990.8" cy="-648.23" rx="3.2" ry="3.2"/>
</g>
<!-- syst_instance_type_applications&#45;&gt;syst_applications -->
<g id="edge5" class="edge">
<title>syst_instance_type_applications:w&#45;&gt;syst_applications:e</title>
<path fill="none" stroke="black" d="M988.21,-621.16C976.53,-611.13 975.56,-589 955,-589"/>
<polygon fill="black" stroke="black" points="994.45,-623.35 1000.81,-629.4 998.23,-624.68 1002,-626 1002,-626 1002,-626 998.23,-624.68 1003.19,-622.6 994.45,-623.35 994.45,-623.35"/>
<ellipse fill="none" stroke="black" cx="991.43" cy="-622.29" rx="3.2" ry="3.2"/>
</g>
<!-- syst_instance_type_contexts -->
<g id="node8" class="node">
<title>syst_instance_type_contexts</title>
<g id="a_node8"><a xlink:href="../../tables/syst_instance_type_contexts.html" xlink:title="syst_instance_type_contexts" target="_top">
<polygon fill="#ffffff" stroke="transparent" points="1308,-643 1308,-701 1539,-701 1539,-643 1308,-643"/>
<polygon fill="#f5f5f5" stroke="transparent" points="1308.5,-679 1308.5,-701 1539.5,-701 1539.5,-679 1308.5,-679"/>
<polygon fill="none" stroke="black" points="1308.5,-679 1308.5,-701 1539.5,-701 1539.5,-679 1308.5,-679"/>
<text text-anchor="start" x="1313.5" y="-688.2" font-family="Helvetica,sans-Serif" font-weight="bold" font-size="11.00">syst_instance_type_contexts</text>
<text text-anchor="start" x="1504.5" y="-687.2" font-family="Helvetica,sans-Serif" font-size="11.00">[table]</text>
<polygon fill="none" stroke="black" points="1308.5,-661 1308.5,-679 1539.5,-679 1539.5,-661 1308.5,-661"/>
<text text-anchor="start" x="1311.5" y="-667.2" font-family="Helvetica,sans-Serif" font-size="11.00">...</text>
<polygon fill="#ffffff" stroke="transparent" points="1308.5,-643 1308.5,-661 1421.5,-661 1421.5,-643 1308.5,-643"/>
<polygon fill="none" stroke="black" points="1308.5,-643 1308.5,-661 1421.5,-661 1421.5,-643 1308.5,-643"/>
<text text-anchor="start" x="1311.5" y="-649.2" font-family="Helvetica,sans-Serif" font-size="11.00">&lt; 2</text>
<polygon fill="#ffffff" stroke="transparent" points="1421.5,-643 1421.5,-661 1480.5,-661 1480.5,-643 1421.5,-643"/>
<polygon fill="none" stroke="black" points="1421.5,-643 1421.5,-661 1480.5,-661 1480.5,-643 1421.5,-643"/>
<text text-anchor="start" x="1470.5" y="-649.2" font-family="Helvetica,sans-Serif" font-size="11.00"> &#160;</text>
<polygon fill="#ffffff" stroke="transparent" points="1480.5,-643 1480.5,-661 1539.5,-661 1539.5,-643 1480.5,-643"/>
<polygon fill="none" stroke="black" points="1480.5,-643 1480.5,-661 1539.5,-661 1539.5,-643 1480.5,-643"/>
<text text-anchor="start" x="1529.5" y="-649.2" font-family="Helvetica,sans-Serif" font-size="11.00"> &#160;</text>
</a>
</g>
</g>
<!-- syst_instance_type_contexts&#45;&gt;syst_instance_type_applications -->
<g id="edge7" class="edge">
<title>syst_instance_type_contexts:w&#45;&gt;syst_instance_type_applications:e</title>
<path fill="none" stroke="black" d="M1293.09,-670C1282.32,-670 1275.34,-670 1260,-670"/>
<polygon fill="black" stroke="black" points="1299.5,-670 1307.5,-673.6 1303.5,-670 1307.5,-670 1307.5,-670 1307.5,-670 1303.5,-670 1307.5,-666.4 1299.5,-670 1299.5,-670"/>
<ellipse fill="none" stroke="black" cx="1296.3" cy="-670" rx="3.2" ry="3.2"/>
</g>
<!-- syst_owners&#45;&gt;syst_enum_items -->
<g id="edge12" class="edge">
<title>syst_owners:w&#45;&gt;syst_enum_items:e</title>
<path fill="none" stroke="black" d="M796.86,-510.46C774.24,-521.23 754,-530 748,-530"/>
<polygon fill="black" stroke="black" points="802.77,-507.6 811.54,-507.36 806.37,-505.86 809.98,-504.12 809.98,-504.12 809.98,-504.12 806.37,-505.86 808.41,-500.88 802.77,-507.6 802.77,-507.6"/>
<ellipse fill="none" stroke="black" cx="799.89" cy="-508.99" rx="3.2" ry="3.2"/>
</g>
</g>
</svg>
