<?xml version="1.0" encoding="UTF-8" standalone="no"?>
<!DOCTYPE svg PUBLIC "-//W3C//DTD SVG 1.1//EN"
 "http://www.w3.org/Graphics/SVG/1.1/DTD/svg11.dtd">
<!-- Generated by graphviz version 2.43.0 (0)
 -->
<!-- Title: oneDegreeRelationshipsDiagram Pages: 1 -->
<svg width="838pt" height="559pt"
 viewBox="0.00 0.00 838.00 559.00" xmlns="http://www.w3.org/2000/svg" xmlns:xlink="http://www.w3.org/1999/xlink">
<g id="graph0" class="graph" transform="scale(1 1) rotate(0) translate(4 555)">
<title>oneDegreeRelationshipsDiagram</title>
<polygon fill="#ffffff" stroke="transparent" points="-4,4 -4,-555 834,-555 834,4 -4,4"/>
<text text-anchor="middle" x="71.5" y="-7.2" font-family="Helvetica,sans-Serif" font-size="11.00">Generated by SchemaSpy</text>
<!-- syst_application_contexts -->
<g id="node1" class="node">
<title>syst_application_contexts</title>
<g id="a_node1"><a xlink:href="../../tables/syst_application_contexts.html" xlink:title="syst_application_contexts" target="_top">
<polygon fill="#ffffff" stroke="transparent" points="251,-37 251,-411 542,-411 542,-37 251,-37"/>
<polygon fill="#f5f5f5" stroke="transparent" points="253.5,-387 253.5,-409 540.5,-409 540.5,-387 253.5,-387"/>
<polygon fill="none" stroke="black" points="253.5,-387 253.5,-409 540.5,-409 540.5,-387 253.5,-387"/>
<text text-anchor="start" x="258.5" y="-396.2" font-family="Helvetica,sans-Serif" font-weight="bold" font-size="11.00">syst_application_contexts</text>
<text text-anchor="start" x="505.5" y="-395.2" font-family="Helvetica,sans-Serif" font-size="11.00">[table]</text>
<polygon fill="none" stroke="black" points="253.5,-365 253.5,-387 447.5,-387 447.5,-365 253.5,-365"/>
<image xlink:href="../../images/primaryKeys.png" width="11px" height="12px" preserveAspectRatio="xMinYMin meet" x="258.5" y="-382"/>
<text text-anchor="start" x="273.5" y="-373.2" font-family="Helvetica,sans-Serif" font-size="11.00">id</text>
<polygon fill="none" stroke="black" points="447.5,-365 447.5,-387 540.5,-387 540.5,-365 447.5,-365"/>
<text text-anchor="start" x="450.5" y="-373.2" font-family="Helvetica,sans-Serif" font-size="11.00">uuid[2147483647]</text>
<polygon fill="#ffffff" stroke="transparent" points="253.5,-343 253.5,-365 447.5,-365 447.5,-343 253.5,-343"/>
<polygon fill="none" stroke="black" points="253.5,-343 253.5,-365 447.5,-365 447.5,-343 253.5,-343"/>
<text text-anchor="start" x="273.5" y="-351.2" font-family="Helvetica,sans-Serif" font-size="11.00">internal_name</text>
<polygon fill="none" stroke="black" points="447.5,-343 447.5,-365 540.5,-365 540.5,-343 447.5,-343"/>
<text text-anchor="start" x="450.5" y="-351.2" font-family="Helvetica,sans-Serif" font-size="11.00">text[2147483647]</text>
<polygon fill="#ffffff" stroke="transparent" points="253.5,-321 253.5,-343 447.5,-343 447.5,-321 253.5,-321"/>
<polygon fill="none" stroke="black" points="253.5,-321 253.5,-343 447.5,-343 447.5,-321 253.5,-321"/>
<text text-anchor="start" x="273.5" y="-329.2" font-family="Helvetica,sans-Serif" font-size="11.00">display_name</text>
<polygon fill="none" stroke="black" points="447.5,-321 447.5,-343 540.5,-343 540.5,-321 447.5,-321"/>
<text text-anchor="start" x="450.5" y="-329.2" font-family="Helvetica,sans-Serif" font-size="11.00">text[2147483647]</text>
<polygon fill="none" stroke="black" points="253.5,-299 253.5,-321 447.5,-321 447.5,-299 253.5,-299"/>
<image xlink:href="../../images/foreignKeys.png" width="11px" height="12px" preserveAspectRatio="xMinYMin meet" x="258.5" y="-316"/>
<text text-anchor="start" x="273.5" y="-307.2" font-family="Helvetica,sans-Serif" font-size="11.00">application_id</text>
<polygon fill="none" stroke="black" points="447.5,-299 447.5,-321 540.5,-321 540.5,-299 447.5,-299"/>
<text text-anchor="start" x="450.5" y="-307.2" font-family="Helvetica,sans-Serif" font-size="11.00">uuid[2147483647]</text>
<polygon fill="none" stroke="black" points="253.5,-277 253.5,-299 447.5,-299 447.5,-277 253.5,-277"/>
<text text-anchor="start" x="273.5" y="-285.2" font-family="Helvetica,sans-Serif" font-size="11.00">description</text>
<polygon fill="none" stroke="black" points="447.5,-277 447.5,-299 540.5,-299 540.5,-277 447.5,-277"/>
<text text-anchor="start" x="450.5" y="-285.2" font-family="Helvetica,sans-Serif" font-size="11.00">text[2147483647]</text>
<polygon fill="none" stroke="black" points="253.5,-255 253.5,-277 447.5,-277 447.5,-255 253.5,-255"/>
<text text-anchor="start" x="273.5" y="-263.2" font-family="Helvetica,sans-Serif" font-size="11.00">start_context</text>
<polygon fill="none" stroke="black" points="447.5,-255 447.5,-277 540.5,-277 540.5,-255 447.5,-255"/>
<text text-anchor="start" x="450.5" y="-263.2" font-family="Helvetica,sans-Serif" font-size="11.00">bool[1]</text>
<polygon fill="none" stroke="black" points="253.5,-233 253.5,-255 447.5,-255 447.5,-233 253.5,-233"/>
<text text-anchor="start" x="273.5" y="-241.2" font-family="Helvetica,sans-Serif" font-size="11.00">login_context</text>
<polygon fill="none" stroke="black" points="447.5,-233 447.5,-255 540.5,-255 540.5,-233 447.5,-233"/>
<text text-anchor="start" x="450.5" y="-241.2" font-family="Helvetica,sans-Serif" font-size="11.00">bool[1]</text>
<polygon fill="none" stroke="black" points="253.5,-211 253.5,-233 447.5,-233 447.5,-211 253.5,-211"/>
<text text-anchor="start" x="273.5" y="-219.2" font-family="Helvetica,sans-Serif" font-size="11.00">database_owner_context</text>
<polygon fill="none" stroke="black" points="447.5,-211 447.5,-233 540.5,-233 540.5,-211 447.5,-211"/>
<text text-anchor="start" x="450.5" y="-219.2" font-family="Helvetica,sans-Serif" font-size="11.00">bool[1]</text>
<polygon fill="none" stroke="black" points="253.5,-189 253.5,-211 447.5,-211 447.5,-189 253.5,-189"/>
<text text-anchor="start" x="273.5" y="-197.2" font-family="Helvetica,sans-Serif" font-size="11.00">diag_timestamp_created</text>
<polygon fill="none" stroke="black" points="447.5,-189 447.5,-211 540.5,-211 540.5,-189 447.5,-189"/>
<text text-anchor="start" x="450.5" y="-197.2" font-family="Helvetica,sans-Serif" font-size="11.00">timestamptz[35,6]</text>
<polygon fill="none" stroke="black" points="253.5,-167 253.5,-189 447.5,-189 447.5,-167 253.5,-167"/>
<text text-anchor="start" x="273.5" y="-175.2" font-family="Helvetica,sans-Serif" font-size="11.00">diag_role_created</text>
<polygon fill="none" stroke="black" points="447.5,-167 447.5,-189 540.5,-189 540.5,-167 447.5,-167"/>
<text text-anchor="start" x="450.5" y="-175.2" font-family="Helvetica,sans-Serif" font-size="11.00">text[2147483647]</text>
<polygon fill="none" stroke="black" points="253.5,-145 253.5,-167 447.5,-167 447.5,-145 253.5,-145"/>
<text text-anchor="start" x="273.5" y="-153.2" font-family="Helvetica,sans-Serif" font-size="11.00">diag_timestamp_modified</text>
<polygon fill="none" stroke="black" points="447.5,-145 447.5,-167 540.5,-167 540.5,-145 447.5,-145"/>
<text text-anchor="start" x="450.5" y="-153.2" font-family="Helvetica,sans-Serif" font-size="11.00">timestamptz[35,6]</text>
<polygon fill="none" stroke="black" points="253.5,-123 253.5,-145 447.5,-145 447.5,-123 253.5,-123"/>
<text text-anchor="start" x="273.5" y="-131.2" font-family="Helvetica,sans-Serif" font-size="11.00">diag_wallclock_modified</text>
<polygon fill="none" stroke="black" points="447.5,-123 447.5,-145 540.5,-145 540.5,-123 447.5,-123"/>
<text text-anchor="start" x="450.5" y="-131.2" font-family="Helvetica,sans-Serif" font-size="11.00">timestamptz[35,6]</text>
<polygon fill="none" stroke="black" points="253.5,-101 253.5,-123 447.5,-123 447.5,-101 253.5,-101"/>
<text text-anchor="start" x="273.5" y="-109.2" font-family="Helvetica,sans-Serif" font-size="11.00">diag_role_modified</text>
<polygon fill="none" stroke="black" points="447.5,-101 447.5,-123 540.5,-123 540.5,-101 447.5,-101"/>
<text text-anchor="start" x="450.5" y="-109.2" font-family="Helvetica,sans-Serif" font-size="11.00">text[2147483647]</text>
<polygon fill="none" stroke="black" points="253.5,-79 253.5,-101 447.5,-101 447.5,-79 253.5,-79"/>
<text text-anchor="start" x="273.5" y="-87.2" font-family="Helvetica,sans-Serif" font-size="11.00">diag_row_version</text>
<polygon fill="none" stroke="black" points="447.5,-79 447.5,-101 540.5,-101 540.5,-79 447.5,-79"/>
<text text-anchor="start" x="450.5" y="-87.2" font-family="Helvetica,sans-Serif" font-size="11.00">int8[19]</text>
<polygon fill="none" stroke="black" points="253.5,-57 253.5,-79 447.5,-79 447.5,-57 253.5,-57"/>
<text text-anchor="start" x="273.5" y="-65.2" font-family="Helvetica,sans-Serif" font-size="11.00">diag_update_count</text>
<polygon fill="none" stroke="black" points="447.5,-57 447.5,-79 540.5,-79 540.5,-57 447.5,-57"/>
<text text-anchor="start" x="450.5" y="-65.2" font-family="Helvetica,sans-Serif" font-size="11.00">int8[19]</text>
<polygon fill="#ffffff" stroke="transparent" points="253.5,-39 253.5,-57 354.5,-57 354.5,-39 253.5,-39"/>
<polygon fill="none" stroke="black" points="253.5,-39 253.5,-57 354.5,-57 354.5,-39 253.5,-39"/>
<text text-anchor="start" x="256.5" y="-45.2" font-family="Helvetica,sans-Serif" font-size="11.00">&lt; 1</text>
<polygon fill="#ffffff" stroke="transparent" points="354.5,-39 354.5,-57 447.5,-57 447.5,-39 354.5,-39"/>
<polygon fill="none" stroke="black" points="354.5,-39 354.5,-57 447.5,-57 447.5,-39 354.5,-39"/>
<text text-anchor="start" x="437.5" y="-45.2" font-family="Helvetica,sans-Serif" font-size="11.00"> &#160;</text>
<polygon fill="#ffffff" stroke="transparent" points="447.5,-39 447.5,-57 540.5,-57 540.5,-39 447.5,-39"/>
<polygon fill="none" stroke="black" points="447.5,-39 447.5,-57 540.5,-57 540.5,-39 447.5,-39"/>
<text text-anchor="start" x="521.5" y="-45.2" font-family="Helvetica,sans-Serif" font-size="11.00">2 &gt;</text>
<polygon fill="none" stroke="black" stroke-width="2" points="252,-38 252,-410 541,-410 541,-38 252,-38"/>
</a>
</g>
</g>
<!-- syst_applications -->
<g id="node2" class="node">
<title>syst_applications</title>
<g id="a_node2"><a xlink:href="../../tables/syst_applications.html" xlink:title="syst_applications" target="_top">
<polygon fill="#ffffff" stroke="transparent" points="8,-219 8,-343 202,-343 202,-219 8,-219"/>
<polygon fill="#f5f5f5" stroke="transparent" points="8,-321 8,-343 202,-343 202,-321 8,-321"/>
<polygon fill="none" stroke="black" points="8,-321 8,-343 202,-343 202,-321 8,-321"/>
<text text-anchor="start" x="13" y="-330.2" font-family="Helvetica,sans-Serif" font-weight="bold" font-size="11.00">syst_applications</text>
<text text-anchor="start" x="167" y="-329.2" font-family="Helvetica,sans-Serif" font-size="11.00">[table]</text>
<polygon fill="none" stroke="black" points="8,-299 8,-321 202,-321 202,-299 8,-299"/>
<image xlink:href="../../images/primaryKeys.png" width="11px" height="12px" preserveAspectRatio="xMinYMin meet" x="13" y="-316"/>
<text text-anchor="start" x="28" y="-307.2" font-family="Helvetica,sans-Serif" font-size="11.00">id</text>
<polygon fill="#ffffff" stroke="transparent" points="8,-277 8,-299 202,-299 202,-277 8,-277"/>
<polygon fill="none" stroke="black" points="8,-277 8,-299 202,-299 202,-277 8,-277"/>
<text text-anchor="start" x="28" y="-285.2" font-family="Helvetica,sans-Serif" font-size="11.00">internal_name</text>
<polygon fill="#ffffff" stroke="transparent" points="8,-255 8,-277 202,-277 202,-255 8,-255"/>
<polygon fill="none" stroke="black" points="8,-255 8,-277 202,-277 202,-255 8,-255"/>
<text text-anchor="start" x="28" y="-263.2" font-family="Helvetica,sans-Serif" font-size="11.00">display_name</text>
<polygon fill="none" stroke="black" points="8,-237 8,-255 202,-255 202,-237 8,-237"/>
<text text-anchor="start" x="11" y="-243.2" font-family="Helvetica,sans-Serif" font-size="11.00">...</text>
<polygon fill="#ffffff" stroke="transparent" points="8,-219 8,-237 94,-237 94,-219 8,-219"/>
<polygon fill="none" stroke="black" points="8,-219 8,-237 94,-237 94,-219 8,-219"/>
<text text-anchor="start" x="11" y="-225.2" font-family="Helvetica,sans-Serif" font-size="11.00"> &#160;</text>
<polygon fill="#ffffff" stroke="transparent" points="94,-219 94,-237 143,-237 143,-219 94,-219"/>
<polygon fill="none" stroke="black" points="94,-219 94,-237 143,-237 143,-219 94,-219"/>
<text text-anchor="start" x="133" y="-225.2" font-family="Helvetica,sans-Serif" font-size="11.00"> &#160;</text>
<polygon fill="#ffffff" stroke="transparent" points="143,-219 143,-237 202,-237 202,-219 143,-219"/>
<polygon fill="none" stroke="black" points="143,-219 143,-237 202,-237 202,-219 143,-219"/>
<text text-anchor="start" x="183" y="-225.2" font-family="Helvetica,sans-Serif" font-size="11.00">3 &gt;</text>
</a>
</g>
</g>
<!-- syst_application_contexts&#45;&gt;syst_applications -->
<g id="edge1" class="edge">
<title>syst_application_contexts:w&#45;&gt;syst_applications:e</title>
<path fill="none" stroke="black" d="M237.84,-310C226.41,-310 219.16,-310 203,-310"/>
<polygon fill="black" stroke="black" points="244.5,-310 252.5,-313.6 248.5,-310 252.5,-310 252.5,-310 252.5,-310 248.5,-310 252.5,-306.4 244.5,-310 244.5,-310"/>
<ellipse fill="none" stroke="black" cx="241.3" cy="-310" rx="3.2" ry="3.2"/>
</g>
<!-- syst_instance_contexts -->
<g id="node3" class="node">
<title>syst_instance_contexts</title>
<g id="a_node3"><a xlink:href="../../tables/syst_instance_contexts.html" xlink:title="syst_instance_contexts" target="_top">
<polygon fill="#ffffff" stroke="transparent" points="609,-401 609,-547 804,-547 804,-401 609,-401"/>
<polygon fill="#f5f5f5" stroke="transparent" points="609.5,-525 609.5,-547 804.5,-547 804.5,-525 609.5,-525"/>
<polygon fill="none" stroke="black" points="609.5,-525 609.5,-547 804.5,-547 804.5,-525 609.5,-525"/>
<text text-anchor="start" x="614.5" y="-534.2" font-family="Helvetica,sans-Serif" font-weight="bold" font-size="11.00">syst_instance_contexts</text>
<text text-anchor="start" x="769.5" y="-533.2" font-family="Helvetica,sans-Serif" font-size="11.00">[table]</text>
<polygon fill="none" stroke="black" points="609.5,-503 609.5,-525 804.5,-525 804.5,-503 609.5,-503"/>
<image xlink:href="../../images/primaryKeys.png" width="11px" height="12px" preserveAspectRatio="xMinYMin meet" x="614.5" y="-520"/>
<text text-anchor="start" x="630.5" y="-511.2" font-family="Helvetica,sans-Serif" font-size="11.00">id</text>
<polygon fill="#ffffff" stroke="transparent" points="609.5,-481 609.5,-503 804.5,-503 804.5,-481 609.5,-481"/>
<polygon fill="none" stroke="black" points="609.5,-481 609.5,-503 804.5,-503 804.5,-481 609.5,-481"/>
<text text-anchor="start" x="630.5" y="-489.2" font-family="Helvetica,sans-Serif" font-size="11.00">internal_name</text>
<polygon fill="none" stroke="black" points="609.5,-459 609.5,-481 804.5,-481 804.5,-459 609.5,-459"/>
<image xlink:href="../../images/foreignKeys.png" width="11px" height="12px" preserveAspectRatio="xMinYMin meet" x="614.5" y="-476"/>
<text text-anchor="start" x="630.5" y="-467.2" font-family="Helvetica,sans-Serif" font-size="11.00">instance_id</text>
<polygon fill="none" stroke="black" points="609.5,-437 609.5,-459 804.5,-459 804.5,-437 609.5,-437"/>
<image xlink:href="../../images/foreignKeys.png" width="11px" height="12px" preserveAspectRatio="xMinYMin meet" x="614.5" y="-454"/>
<text text-anchor="start" x="630.5" y="-445.2" font-family="Helvetica,sans-Serif" font-size="11.00">application_context_id</text>
<polygon fill="none" stroke="black" points="609.5,-419 609.5,-437 804.5,-437 804.5,-419 609.5,-419"/>
<text text-anchor="start" x="612.5" y="-425.2" font-family="Helvetica,sans-Serif" font-size="11.00">...</text>
<polygon fill="#ffffff" stroke="transparent" points="609.5,-401 609.5,-419 704.5,-419 704.5,-401 609.5,-401"/>
<polygon fill="none" stroke="black" points="609.5,-401 609.5,-419 704.5,-419 704.5,-401 609.5,-401"/>
<text text-anchor="start" x="612.5" y="-407.2" font-family="Helvetica,sans-Serif" font-size="11.00">&lt; 2</text>
<polygon fill="#ffffff" stroke="transparent" points="704.5,-401 704.5,-419 754.5,-419 754.5,-401 704.5,-401"/>
<polygon fill="none" stroke="black" points="704.5,-401 704.5,-419 754.5,-419 754.5,-401 704.5,-401"/>
<text text-anchor="start" x="744.5" y="-407.2" font-family="Helvetica,sans-Serif" font-size="11.00"> &#160;</text>
<polygon fill="#ffffff" stroke="transparent" points="754.5,-401 754.5,-419 804.5,-419 804.5,-401 754.5,-401"/>
<polygon fill="none" stroke="black" points="754.5,-401 754.5,-419 804.5,-419 804.5,-401 754.5,-401"/>
<text text-anchor="start" x="794.5" y="-407.2" font-family="Helvetica,sans-Serif" font-size="11.00"> &#160;</text>
</a>
</g>
</g>
<!-- syst_instance_contexts&#45;&gt;syst_application_contexts -->
<g id="edge2" class="edge">
<title>syst_instance_contexts:w&#45;&gt;syst_application_contexts:e</title>
<path fill="none" stroke="black" d="M594.18,-444.53C569.08,-430.15 579.41,-376 541.5,-376"/>
<polygon fill="black" stroke="black" points="600.73,-446.11 607.65,-451.5 604.61,-447.06 608.5,-448 608.5,-448 608.5,-448 604.61,-447.06 609.35,-444.5 600.73,-446.11 600.73,-446.11"/>
<ellipse fill="none" stroke="black" cx="597.62" cy="-445.36" rx="3.2" ry="3.2"/>
</g>
<!-- syst_instance_type_contexts -->
<g id="node4" class="node">
<title>syst_instance_type_contexts</title>
<g id="a_node4"><a xlink:href="../../tables/syst_instance_type_contexts.html" xlink:title="syst_instance_type_contexts" target="_top">
<polygon fill="#ffffff" stroke="transparent" points="591,-256 591,-380 822,-380 822,-256 591,-256"/>
<polygon fill="#f5f5f5" stroke="transparent" points="591.5,-358 591.5,-380 822.5,-380 822.5,-358 591.5,-358"/>
<polygon fill="none" stroke="black" points="591.5,-358 591.5,-380 822.5,-380 822.5,-358 591.5,-358"/>
<text text-anchor="start" x="596.5" y="-367.2" font-family="Helvetica,sans-Serif" font-weight="bold" font-size="11.00">syst_instance_type_contexts</text>
<text text-anchor="start" x="787.5" y="-366.2" font-family="Helvetica,sans-Serif" font-size="11.00">[table]</text>
<polygon fill="none" stroke="black" points="591.5,-336 591.5,-358 822.5,-358 822.5,-336 591.5,-336"/>
<image xlink:href="../../images/primaryKeys.png" width="11px" height="12px" preserveAspectRatio="xMinYMin meet" x="596.5" y="-353"/>
<text text-anchor="start" x="620.5" y="-344.2" font-family="Helvetica,sans-Serif" font-size="11.00">id</text>
<polygon fill="#ffffff" stroke="transparent" points="591.5,-314 591.5,-336 822.5,-336 822.5,-314 591.5,-314"/>
<polygon fill="none" stroke="black" points="591.5,-314 591.5,-336 822.5,-336 822.5,-314 591.5,-314"/>
<image xlink:href="../../images/foreignKeys.png" width="11px" height="12px" preserveAspectRatio="xMinYMin meet" x="596.5" y="-331"/>
<text text-anchor="start" x="620.5" y="-322.2" font-family="Helvetica,sans-Serif" font-size="11.00">instance_type_application_id</text>
<polygon fill="#ffffff" stroke="transparent" points="591.5,-292 591.5,-314 822.5,-314 822.5,-292 591.5,-292"/>
<polygon fill="none" stroke="black" points="591.5,-292 591.5,-314 822.5,-314 822.5,-292 591.5,-292"/>
<image xlink:href="../../images/foreignKeys.png" width="11px" height="12px" preserveAspectRatio="xMinYMin meet" x="596.5" y="-309"/>
<text text-anchor="start" x="620.5" y="-300.2" font-family="Helvetica,sans-Serif" font-size="11.00">application_context_id</text>
<polygon fill="none" stroke="black" points="591.5,-274 591.5,-292 822.5,-292 822.5,-274 591.5,-274"/>
<text text-anchor="start" x="594.5" y="-280.2" font-family="Helvetica,sans-Serif" font-size="11.00">...</text>
<polygon fill="#ffffff" stroke="transparent" points="591.5,-256 591.5,-274 704.5,-274 704.5,-256 591.5,-256"/>
<polygon fill="none" stroke="black" points="591.5,-256 591.5,-274 704.5,-274 704.5,-256 591.5,-256"/>
<text text-anchor="start" x="594.5" y="-262.2" font-family="Helvetica,sans-Serif" font-size="11.00">&lt; 2</text>
<polygon fill="#ffffff" stroke="transparent" points="704.5,-256 704.5,-274 763.5,-274 763.5,-256 704.5,-256"/>
<polygon fill="none" stroke="black" points="704.5,-256 704.5,-274 763.5,-274 763.5,-256 704.5,-256"/>
<text text-anchor="start" x="753.5" y="-262.2" font-family="Helvetica,sans-Serif" font-size="11.00"> &#160;</text>
<polygon fill="#ffffff" stroke="transparent" points="763.5,-256 763.5,-274 822.5,-274 822.5,-256 763.5,-256"/>
<polygon fill="none" stroke="black" points="763.5,-256 763.5,-274 822.5,-274 822.5,-256 763.5,-256"/>
<text text-anchor="start" x="812.5" y="-262.2" font-family="Helvetica,sans-Serif" font-size="11.00"> &#160;</text>
</a>
</g>
</g>
<!-- syst_instance_type_contexts&#45;&gt;syst_application_contexts -->
<g id="edge3" class="edge">
<title>syst_instance_type_contexts:w&#45;&gt;syst_application_contexts:e</title>
<path fill="none" stroke="black" d="M576.66,-307.79C558.87,-324.03 574.47,-376 541.5,-376"/>
<polygon fill="black" stroke="black" points="582.94,-305.62 591.68,-306.4 586.72,-304.31 590.5,-303 590.5,-303 590.5,-303 586.72,-304.31 589.32,-299.6 582.94,-305.62 582.94,-305.62"/>
<ellipse fill="none" stroke="black" cx="579.92" cy="-306.66" rx="3.2" ry="3.2"/>
</g>
</g>
</svg>
