<?xml version="1.0" encoding="UTF-8" standalone="no"?>
<!DOCTYPE svg PUBLIC "-//W3C//DTD SVG 1.1//EN"
 "http://www.w3.org/Graphics/SVG/1.1/DTD/svg11.dtd">
<!-- Generated by graphviz version 2.43.0 (0)
 -->
<!-- Title: twoDegreesRelationshipsDiagram Pages: 1 -->
<svg width="1513pt" height="490pt"
 viewBox="0.00 0.00 1513.00 490.00" xmlns="http://www.w3.org/2000/svg" xmlns:xlink="http://www.w3.org/1999/xlink">
<g id="graph0" class="graph" transform="scale(1 1) rotate(0) translate(4 486)">
<title>twoDegreesRelationshipsDiagram</title>
<polygon fill="#ffffff" stroke="transparent" points="-4,4 -4,-486 1509,-486 1509,4 -4,4"/>
<text text-anchor="middle" x="71.5" y="-7.2" font-family="Helvetica,sans-Serif" font-size="11.00">Generated by SchemaSpy</text>
<!-- syst_enum_functional_types -->
<g id="node1" class="node">
<title>syst_enum_functional_types</title>
<g id="a_node1"><a xlink:href="../../tables/syst_enum_functional_types.html" xlink:title="syst_enum_functional_types" target="_top">
<polygon fill="#ffffff" stroke="transparent" points="175,-352 175,-410 404,-410 404,-352 175,-352"/>
<polygon fill="#f5f5f5" stroke="transparent" points="175.5,-388 175.5,-410 404.5,-410 404.5,-388 175.5,-388"/>
<polygon fill="none" stroke="black" points="175.5,-388 175.5,-410 404.5,-410 404.5,-388 175.5,-388"/>
<text text-anchor="start" x="180.5" y="-397.2" font-family="Helvetica,sans-Serif" font-weight="bold" font-size="11.00">syst_enum_functional_types</text>
<text text-anchor="start" x="369.5" y="-396.2" font-family="Helvetica,sans-Serif" font-size="11.00">[table]</text>
<polygon fill="none" stroke="black" points="175.5,-370 175.5,-388 404.5,-388 404.5,-370 175.5,-370"/>
<text text-anchor="start" x="178.5" y="-376.2" font-family="Helvetica,sans-Serif" font-size="11.00">...</text>
<polygon fill="#ffffff" stroke="transparent" points="175.5,-352 175.5,-370 283.5,-370 283.5,-352 175.5,-352"/>
<polygon fill="none" stroke="black" points="175.5,-352 175.5,-370 283.5,-370 283.5,-352 175.5,-352"/>
<text text-anchor="start" x="178.5" y="-358.2" font-family="Helvetica,sans-Serif" font-size="11.00">&lt; 1</text>
<polygon fill="#ffffff" stroke="transparent" points="283.5,-352 283.5,-370 339.5,-370 339.5,-352 283.5,-352"/>
<polygon fill="none" stroke="black" points="283.5,-352 283.5,-370 339.5,-370 339.5,-352 283.5,-352"/>
<text text-anchor="start" x="329.5" y="-358.2" font-family="Helvetica,sans-Serif" font-size="11.00"> &#160;</text>
<polygon fill="#ffffff" stroke="transparent" points="339.5,-352 339.5,-370 404.5,-370 404.5,-352 339.5,-352"/>
<polygon fill="none" stroke="black" points="339.5,-352 339.5,-370 404.5,-370 404.5,-352 339.5,-352"/>
<text text-anchor="start" x="385.5" y="-358.2" font-family="Helvetica,sans-Serif" font-size="11.00">1 &gt;</text>
</a>
</g>
</g>
<!-- syst_enums -->
<g id="node2" class="node">
<title>syst_enums</title>
<g id="a_node2"><a xlink:href="../../tables/syst_enums.html" xlink:title="syst_enums" target="_top">
<polygon fill="#ffffff" stroke="transparent" points="8,-326 8,-384 126,-384 126,-326 8,-326"/>
<polygon fill="#f5f5f5" stroke="transparent" points="8,-362 8,-384 126,-384 126,-362 8,-362"/>
<polygon fill="none" stroke="black" points="8,-362 8,-384 126,-384 126,-362 8,-362"/>
<text text-anchor="start" x="13" y="-371.2" font-family="Helvetica,sans-Serif" font-weight="bold" font-size="11.00">syst_enums</text>
<text text-anchor="start" x="91" y="-370.2" font-family="Helvetica,sans-Serif" font-size="11.00">[table]</text>
<polygon fill="none" stroke="black" points="8,-344 8,-362 126,-362 126,-344 8,-344"/>
<text text-anchor="start" x="11" y="-350.2" font-family="Helvetica,sans-Serif" font-size="11.00">...</text>
<polygon fill="#ffffff" stroke="transparent" points="8,-326 8,-344 56,-344 56,-326 8,-326"/>
<polygon fill="none" stroke="black" points="8,-326 8,-344 56,-344 56,-326 8,-326"/>
<text text-anchor="start" x="11" y="-332.2" font-family="Helvetica,sans-Serif" font-size="11.00"> &#160;</text>
<polygon fill="#ffffff" stroke="transparent" points="56,-326 56,-344 86,-344 86,-326 56,-326"/>
<polygon fill="none" stroke="black" points="56,-326 56,-344 86,-344 86,-326 56,-326"/>
<text text-anchor="start" x="76" y="-332.2" font-family="Helvetica,sans-Serif" font-size="11.00"> &#160;</text>
<polygon fill="#ffffff" stroke="transparent" points="86,-326 86,-344 126,-344 126,-326 86,-326"/>
<polygon fill="none" stroke="black" points="86,-326 86,-344 126,-344 126,-326 86,-326"/>
<text text-anchor="start" x="107" y="-332.2" font-family="Helvetica,sans-Serif" font-size="11.00">2 &gt;</text>
</a>
</g>
</g>
<!-- syst_enum_functional_types&#45;&gt;syst_enums -->
<g id="edge1" class="edge">
<title>syst_enum_functional_types:w&#45;&gt;syst_enums:e</title>
<path fill="none" stroke="black" d="M160.31,-374.94C149.21,-367.62 145.05,-353 127,-353"/>
<polygon fill="black" stroke="black" points="166.81,-376.8 173.51,-382.46 170.65,-377.9 174.5,-379 174.5,-379 174.5,-379 170.65,-377.9 175.49,-375.54 166.81,-376.8 166.81,-376.8"/>
<ellipse fill="none" stroke="black" cx="163.73" cy="-375.92" rx="3.2" ry="3.2"/>
</g>
<!-- syst_enum_items -->
<g id="node3" class="node">
<title>syst_enum_items</title>
<g id="a_node3"><a xlink:href="../../tables/syst_enum_items.html" xlink:title="syst_enum_items" target="_top">
<polygon fill="#ffffff" stroke="transparent" points="453,-324 453,-382 608,-382 608,-324 453,-324"/>
<polygon fill="#f5f5f5" stroke="transparent" points="453.5,-360 453.5,-382 608.5,-382 608.5,-360 453.5,-360"/>
<polygon fill="none" stroke="black" points="453.5,-360 453.5,-382 608.5,-382 608.5,-360 453.5,-360"/>
<text text-anchor="start" x="458.5" y="-369.2" font-family="Helvetica,sans-Serif" font-weight="bold" font-size="11.00">syst_enum_items</text>
<text text-anchor="start" x="573.5" y="-368.2" font-family="Helvetica,sans-Serif" font-size="11.00">[table]</text>
<polygon fill="none" stroke="black" points="453.5,-342 453.5,-360 608.5,-360 608.5,-342 453.5,-342"/>
<text text-anchor="start" x="456.5" y="-348.2" font-family="Helvetica,sans-Serif" font-size="11.00">...</text>
<polygon fill="#ffffff" stroke="transparent" points="453.5,-324 453.5,-342 524.5,-342 524.5,-324 453.5,-324"/>
<polygon fill="none" stroke="black" points="453.5,-324 453.5,-342 524.5,-342 524.5,-324 453.5,-324"/>
<text text-anchor="start" x="456.5" y="-330.2" font-family="Helvetica,sans-Serif" font-size="11.00">&lt; 2</text>
<polygon fill="#ffffff" stroke="transparent" points="524.5,-324 524.5,-342 561.5,-342 561.5,-324 524.5,-324"/>
<polygon fill="none" stroke="black" points="524.5,-324 524.5,-342 561.5,-342 561.5,-324 524.5,-324"/>
<text text-anchor="start" x="551.5" y="-330.2" font-family="Helvetica,sans-Serif" font-size="11.00"> &#160;</text>
<polygon fill="#ffffff" stroke="transparent" points="561.5,-324 561.5,-342 608.5,-342 608.5,-324 561.5,-324"/>
<polygon fill="none" stroke="black" points="561.5,-324 561.5,-342 608.5,-342 608.5,-324 561.5,-324"/>
<text text-anchor="start" x="589.5" y="-330.2" font-family="Helvetica,sans-Serif" font-size="11.00">4 &gt;</text>
</a>
</g>
</g>
<!-- syst_enum_items&#45;&gt;syst_enum_functional_types -->
<g id="edge3" class="edge">
<title>syst_enum_items:w&#45;&gt;syst_enum_functional_types:e</title>
<path fill="none" stroke="black" d="M430.4,-377.53C422.02,-378.46 413.64,-379 405.5,-379"/>
<polygon fill="black" stroke="black" points="437.02,-376.63 445.43,-379.11 440.98,-376.09 444.94,-375.55 444.94,-375.55 444.94,-375.55 440.98,-376.09 444.46,-371.98 437.02,-376.63 437.02,-376.63"/>
<ellipse fill="none" stroke="black" cx="433.84" cy="-377.06" rx="3.2" ry="3.2"/>
</g>
<!-- syst_enum_items&#45;&gt;syst_enums -->
<g id="edge2" class="edge">
<title>syst_enum_items:w&#45;&gt;syst_enums:e</title>
<path fill="none" stroke="black" d="M430.34,-343.06C424.14,-342.64 417.99,-342.28 412,-342 303.23,-336.92 274.91,-327.43 167,-342 148.73,-344.47 145.44,-353 127,-353"/>
<polygon fill="black" stroke="black" points="436.87,-343.54 444.58,-347.71 440.86,-343.83 444.85,-344.12 444.85,-344.12 444.85,-344.12 440.86,-343.83 445.11,-340.53 436.87,-343.54 436.87,-343.54"/>
<ellipse fill="none" stroke="black" cx="433.68" cy="-343.3" rx="3.2" ry="3.2"/>
</g>
<!-- syst_instance_contexts -->
<g id="node4" class="node">
<title>syst_instance_contexts</title>
<g id="a_node4"><a xlink:href="../../tables/syst_instance_contexts.html" xlink:title="syst_instance_contexts" target="_top">
<polygon fill="#ffffff" stroke="transparent" points="1302,-326 1302,-384 1497,-384 1497,-326 1302,-326"/>
<polygon fill="#f5f5f5" stroke="transparent" points="1302.5,-362 1302.5,-384 1497.5,-384 1497.5,-362 1302.5,-362"/>
<polygon fill="none" stroke="black" points="1302.5,-362 1302.5,-384 1497.5,-384 1497.5,-362 1302.5,-362"/>
<text text-anchor="start" x="1307.5" y="-371.2" font-family="Helvetica,sans-Serif" font-weight="bold" font-size="11.00">syst_instance_contexts</text>
<text text-anchor="start" x="1462.5" y="-370.2" font-family="Helvetica,sans-Serif" font-size="11.00">[table]</text>
<polygon fill="none" stroke="black" points="1302.5,-344 1302.5,-362 1497.5,-362 1497.5,-344 1302.5,-344"/>
<text text-anchor="start" x="1305.5" y="-350.2" font-family="Helvetica,sans-Serif" font-size="11.00">...</text>
<polygon fill="#ffffff" stroke="transparent" points="1302.5,-326 1302.5,-344 1397.5,-344 1397.5,-326 1302.5,-326"/>
<polygon fill="none" stroke="black" points="1302.5,-326 1302.5,-344 1397.5,-344 1397.5,-326 1302.5,-326"/>
<text text-anchor="start" x="1305.5" y="-332.2" font-family="Helvetica,sans-Serif" font-size="11.00">&lt; 2</text>
<polygon fill="#ffffff" stroke="transparent" points="1397.5,-326 1397.5,-344 1447.5,-344 1447.5,-326 1397.5,-326"/>
<polygon fill="none" stroke="black" points="1397.5,-326 1397.5,-344 1447.5,-344 1447.5,-326 1397.5,-326"/>
<text text-anchor="start" x="1437.5" y="-332.2" font-family="Helvetica,sans-Serif" font-size="11.00"> &#160;</text>
<polygon fill="#ffffff" stroke="transparent" points="1447.5,-326 1447.5,-344 1497.5,-344 1497.5,-326 1447.5,-326"/>
<polygon fill="none" stroke="black" points="1447.5,-326 1447.5,-344 1497.5,-344 1497.5,-326 1447.5,-326"/>
<text text-anchor="start" x="1487.5" y="-332.2" font-family="Helvetica,sans-Serif" font-size="11.00"> &#160;</text>
</a>
</g>
</g>
<!-- syst_instances -->
<g id="node5" class="node">
<title>syst_instances</title>
<g id="a_node5"><a xlink:href="../../tables/syst_instances.html" xlink:title="syst_instances" target="_top">
<polygon fill="#ffffff" stroke="transparent" points="1056,-324 1056,-382 1194,-382 1194,-324 1056,-324"/>
<polygon fill="#f5f5f5" stroke="transparent" points="1056,-360 1056,-382 1194,-382 1194,-360 1056,-360"/>
<polygon fill="none" stroke="black" points="1056,-360 1056,-382 1194,-382 1194,-360 1056,-360"/>
<text text-anchor="start" x="1061" y="-369.2" font-family="Helvetica,sans-Serif" font-weight="bold" font-size="11.00">syst_instances</text>
<text text-anchor="start" x="1159" y="-368.2" font-family="Helvetica,sans-Serif" font-size="11.00">[table]</text>
<polygon fill="none" stroke="black" points="1056,-342 1056,-360 1194,-360 1194,-342 1056,-342"/>
<text text-anchor="start" x="1059" y="-348.2" font-family="Helvetica,sans-Serif" font-size="11.00">...</text>
<polygon fill="#ffffff" stroke="transparent" points="1056,-324 1056,-342 1118,-342 1118,-324 1056,-324"/>
<polygon fill="none" stroke="black" points="1056,-324 1056,-342 1118,-342 1118,-324 1056,-324"/>
<text text-anchor="start" x="1059" y="-330.2" font-family="Helvetica,sans-Serif" font-size="11.00">&lt; 5</text>
<polygon fill="#ffffff" stroke="transparent" points="1118,-324 1118,-342 1151,-342 1151,-324 1118,-324"/>
<polygon fill="none" stroke="black" points="1118,-324 1118,-342 1151,-342 1151,-324 1118,-324"/>
<text text-anchor="start" x="1141" y="-330.2" font-family="Helvetica,sans-Serif" font-size="11.00"> &#160;</text>
<polygon fill="#ffffff" stroke="transparent" points="1151,-324 1151,-342 1194,-342 1194,-324 1151,-324"/>
<polygon fill="none" stroke="black" points="1151,-324 1151,-342 1194,-342 1194,-324 1151,-324"/>
<text text-anchor="start" x="1175" y="-330.2" font-family="Helvetica,sans-Serif" font-size="11.00">2 &gt;</text>
</a>
</g>
</g>
<!-- syst_instance_contexts&#45;&gt;syst_instances -->
<g id="edge4" class="edge">
<title>syst_instance_contexts:w&#45;&gt;syst_instances:e</title>
<path fill="none" stroke="black" d="M1286.78,-353C1258.32,-353 1228.31,-353 1202.02,-353"/>
<polygon fill="black" stroke="black" points="1293.5,-353 1301.5,-356.6 1297.5,-353 1301.5,-353 1301.5,-353 1301.5,-353 1297.5,-353 1301.5,-349.4 1293.5,-353 1293.5,-353"/>
<ellipse fill="none" stroke="black" cx="1290.3" cy="-353" rx="3.2" ry="3.2"/>
</g>
<!-- syst_instances&#45;&gt;syst_enum_items -->
<g id="edge8" class="edge">
<title>syst_instances:w&#45;&gt;syst_enum_items:e</title>
<path fill="none" stroke="black" d="M1033.29,-349.65C919.72,-348.09 726.67,-348.12 616.06,-349.74"/>
<polygon fill="black" stroke="black" points="1039.75,-349.75 1047.7,-353.46 1043.75,-349.81 1047.75,-349.87 1047.75,-349.87 1047.75,-349.87 1043.75,-349.81 1047.81,-346.27 1039.75,-349.75 1039.75,-349.75"/>
<ellipse fill="none" stroke="black" cx="1036.56" cy="-349.7" rx="3.2" ry="3.2"/>
</g>
<!-- syst_instances&#45;&gt;syst_enum_items -->
<g id="edge9" class="edge">
<title>syst_instances:w&#45;&gt;syst_enum_items:e</title>
<path fill="none" stroke="black" d="M1033.29,-356.91C919.72,-358.73 726.67,-358.7 616.06,-356.81"/>
<polygon fill="black" stroke="black" points="1039.76,-356.8 1047.82,-360.26 1043.75,-356.73 1047.75,-356.66 1047.75,-356.66 1047.75,-356.66 1043.75,-356.73 1047.69,-353.06 1039.76,-356.8 1039.76,-356.8"/>
<ellipse fill="none" stroke="black" cx="1036.56" cy="-356.85" rx="3.2" ry="3.2"/>
</g>
<!-- syst_applications -->
<g id="node7" class="node">
<title>syst_applications</title>
<g id="a_node7"><a xlink:href="../../tables/syst_applications.html" xlink:title="syst_applications" target="_top">
<polygon fill="#ffffff" stroke="transparent" points="724.5,-383 724.5,-441 880.5,-441 880.5,-383 724.5,-383"/>
<polygon fill="#f5f5f5" stroke="transparent" points="724.5,-419 724.5,-441 880.5,-441 880.5,-419 724.5,-419"/>
<polygon fill="none" stroke="black" points="724.5,-419 724.5,-441 880.5,-441 880.5,-419 724.5,-419"/>
<text text-anchor="start" x="729.5" y="-428.2" font-family="Helvetica,sans-Serif" font-weight="bold" font-size="11.00">syst_applications</text>
<text text-anchor="start" x="845.5" y="-427.2" font-family="Helvetica,sans-Serif" font-size="11.00">[table]</text>
<polygon fill="none" stroke="black" points="724.5,-401 724.5,-419 880.5,-419 880.5,-401 724.5,-401"/>
<text text-anchor="start" x="727.5" y="-407.2" font-family="Helvetica,sans-Serif" font-size="11.00">...</text>
<polygon fill="#ffffff" stroke="transparent" points="724.5,-383 724.5,-401 791.5,-401 791.5,-383 724.5,-383"/>
<polygon fill="none" stroke="black" points="724.5,-383 724.5,-401 791.5,-401 791.5,-383 724.5,-383"/>
<text text-anchor="start" x="727.5" y="-389.2" font-family="Helvetica,sans-Serif" font-size="11.00"> &#160;</text>
<polygon fill="#ffffff" stroke="transparent" points="791.5,-383 791.5,-401 831.5,-401 831.5,-383 791.5,-383"/>
<polygon fill="none" stroke="black" points="791.5,-383 791.5,-401 831.5,-401 831.5,-383 791.5,-383"/>
<text text-anchor="start" x="821.5" y="-389.2" font-family="Helvetica,sans-Serif" font-size="11.00"> &#160;</text>
<polygon fill="#ffffff" stroke="transparent" points="831.5,-383 831.5,-401 880.5,-401 880.5,-383 831.5,-383"/>
<polygon fill="none" stroke="black" points="831.5,-383 831.5,-401 880.5,-401 880.5,-383 831.5,-383"/>
<text text-anchor="start" x="861.5" y="-389.2" font-family="Helvetica,sans-Serif" font-size="11.00">3 &gt;</text>
</a>
</g>
</g>
<!-- syst_instances&#45;&gt;syst_applications -->
<g id="edge7" class="edge">
<title>syst_instances:w&#45;&gt;syst_applications:e</title>
<path fill="none" stroke="black" d="M1033.85,-384.6C988.69,-397.75 932.83,-410 881.5,-410"/>
<polygon fill="black" stroke="black" points="1040.14,-382.71 1048.84,-383.86 1043.97,-381.56 1047.8,-380.41 1047.8,-380.41 1047.8,-380.41 1043.97,-381.56 1046.77,-376.97 1040.14,-382.71 1040.14,-382.71"/>
<ellipse fill="none" stroke="black" cx="1037.08" cy="-383.63" rx="3.2" ry="3.2"/>
</g>
<!-- syst_owners -->
<g id="node8" class="node">
<title>syst_owners</title>
<g id="a_node8"><a xlink:href="../../tables/syst_owners.html" xlink:title="syst_owners" target="_top">
<polygon fill="#ffffff" stroke="transparent" points="657,-37 657,-323 948,-323 948,-37 657,-37"/>
<polygon fill="#f5f5f5" stroke="transparent" points="659.5,-299 659.5,-321 946.5,-321 946.5,-299 659.5,-299"/>
<polygon fill="none" stroke="black" points="659.5,-299 659.5,-321 946.5,-321 946.5,-299 659.5,-299"/>
<text text-anchor="start" x="664.5" y="-308.2" font-family="Helvetica,sans-Serif" font-weight="bold" font-size="11.00">syst_owners</text>
<text text-anchor="start" x="911.5" y="-307.2" font-family="Helvetica,sans-Serif" font-size="11.00">[table]</text>
<polygon fill="none" stroke="black" points="659.5,-277 659.5,-299 853.5,-299 853.5,-277 659.5,-277"/>
<image xlink:href="../../images/primaryKeys.png" width="11px" height="12px" preserveAspectRatio="xMinYMin meet" x="664.5" y="-294"/>
<text text-anchor="start" x="679.5" y="-285.2" font-family="Helvetica,sans-Serif" font-size="11.00">id</text>
<polygon fill="none" stroke="black" points="853.5,-277 853.5,-299 946.5,-299 946.5,-277 853.5,-277"/>
<text text-anchor="start" x="856.5" y="-285.2" font-family="Helvetica,sans-Serif" font-size="11.00">uuid[2147483647]</text>
<polygon fill="#ffffff" stroke="transparent" points="659.5,-255 659.5,-277 853.5,-277 853.5,-255 659.5,-255"/>
<polygon fill="none" stroke="black" points="659.5,-255 659.5,-277 853.5,-277 853.5,-255 659.5,-255"/>
<text text-anchor="start" x="679.5" y="-263.2" font-family="Helvetica,sans-Serif" font-size="11.00">internal_name</text>
<polygon fill="none" stroke="black" points="853.5,-255 853.5,-277 946.5,-277 946.5,-255 853.5,-255"/>
<text text-anchor="start" x="856.5" y="-263.2" font-family="Helvetica,sans-Serif" font-size="11.00">text[2147483647]</text>
<polygon fill="#ffffff" stroke="transparent" points="659.5,-233 659.5,-255 853.5,-255 853.5,-233 659.5,-233"/>
<polygon fill="none" stroke="black" points="659.5,-233 659.5,-255 853.5,-255 853.5,-233 659.5,-233"/>
<text text-anchor="start" x="679.5" y="-241.2" font-family="Helvetica,sans-Serif" font-size="11.00">display_name</text>
<polygon fill="none" stroke="black" points="853.5,-233 853.5,-255 946.5,-255 946.5,-233 853.5,-233"/>
<text text-anchor="start" x="856.5" y="-241.2" font-family="Helvetica,sans-Serif" font-size="11.00">text[2147483647]</text>
<polygon fill="none" stroke="black" points="659.5,-211 659.5,-233 853.5,-233 853.5,-211 659.5,-211"/>
<image xlink:href="../../images/foreignKeys.png" width="11px" height="12px" preserveAspectRatio="xMinYMin meet" x="664.5" y="-228"/>
<text text-anchor="start" x="679.5" y="-219.2" font-family="Helvetica,sans-Serif" font-size="11.00">owner_state_id</text>
<polygon fill="none" stroke="black" points="853.5,-211 853.5,-233 946.5,-233 946.5,-211 853.5,-211"/>
<text text-anchor="start" x="856.5" y="-219.2" font-family="Helvetica,sans-Serif" font-size="11.00">uuid[2147483647]</text>
<polygon fill="none" stroke="black" points="659.5,-189 659.5,-211 853.5,-211 853.5,-189 659.5,-189"/>
<text text-anchor="start" x="679.5" y="-197.2" font-family="Helvetica,sans-Serif" font-size="11.00">diag_timestamp_created</text>
<polygon fill="none" stroke="black" points="853.5,-189 853.5,-211 946.5,-211 946.5,-189 853.5,-189"/>
<text text-anchor="start" x="856.5" y="-197.2" font-family="Helvetica,sans-Serif" font-size="11.00">timestamptz[35,6]</text>
<polygon fill="none" stroke="black" points="659.5,-167 659.5,-189 853.5,-189 853.5,-167 659.5,-167"/>
<text text-anchor="start" x="679.5" y="-175.2" font-family="Helvetica,sans-Serif" font-size="11.00">diag_role_created</text>
<polygon fill="none" stroke="black" points="853.5,-167 853.5,-189 946.5,-189 946.5,-167 853.5,-167"/>
<text text-anchor="start" x="856.5" y="-175.2" font-family="Helvetica,sans-Serif" font-size="11.00">text[2147483647]</text>
<polygon fill="none" stroke="black" points="659.5,-145 659.5,-167 853.5,-167 853.5,-145 659.5,-145"/>
<text text-anchor="start" x="679.5" y="-153.2" font-family="Helvetica,sans-Serif" font-size="11.00">diag_timestamp_modified</text>
<polygon fill="none" stroke="black" points="853.5,-145 853.5,-167 946.5,-167 946.5,-145 853.5,-145"/>
<text text-anchor="start" x="856.5" y="-153.2" font-family="Helvetica,sans-Serif" font-size="11.00">timestamptz[35,6]</text>
<polygon fill="none" stroke="black" points="659.5,-123 659.5,-145 853.5,-145 853.5,-123 659.5,-123"/>
<text text-anchor="start" x="679.5" y="-131.2" font-family="Helvetica,sans-Serif" font-size="11.00">diag_wallclock_modified</text>
<polygon fill="none" stroke="black" points="853.5,-123 853.5,-145 946.5,-145 946.5,-123 853.5,-123"/>
<text text-anchor="start" x="856.5" y="-131.2" font-family="Helvetica,sans-Serif" font-size="11.00">timestamptz[35,6]</text>
<polygon fill="none" stroke="black" points="659.5,-101 659.5,-123 853.5,-123 853.5,-101 659.5,-101"/>
<text text-anchor="start" x="679.5" y="-109.2" font-family="Helvetica,sans-Serif" font-size="11.00">diag_role_modified</text>
<polygon fill="none" stroke="black" points="853.5,-101 853.5,-123 946.5,-123 946.5,-101 853.5,-101"/>
<text text-anchor="start" x="856.5" y="-109.2" font-family="Helvetica,sans-Serif" font-size="11.00">text[2147483647]</text>
<polygon fill="none" stroke="black" points="659.5,-79 659.5,-101 853.5,-101 853.5,-79 659.5,-79"/>
<text text-anchor="start" x="679.5" y="-87.2" font-family="Helvetica,sans-Serif" font-size="11.00">diag_row_version</text>
<polygon fill="none" stroke="black" points="853.5,-79 853.5,-101 946.5,-101 946.5,-79 853.5,-79"/>
<text text-anchor="start" x="856.5" y="-87.2" font-family="Helvetica,sans-Serif" font-size="11.00">int8[19]</text>
<polygon fill="none" stroke="black" points="659.5,-57 659.5,-79 853.5,-79 853.5,-57 659.5,-57"/>
<text text-anchor="start" x="679.5" y="-65.2" font-family="Helvetica,sans-Serif" font-size="11.00">diag_update_count</text>
<polygon fill="none" stroke="black" points="853.5,-57 853.5,-79 946.5,-79 946.5,-57 853.5,-57"/>
<text text-anchor="start" x="856.5" y="-65.2" font-family="Helvetica,sans-Serif" font-size="11.00">int8[19]</text>
<polygon fill="#ffffff" stroke="transparent" points="659.5,-39 659.5,-57 760.5,-57 760.5,-39 659.5,-39"/>
<polygon fill="none" stroke="black" points="659.5,-39 659.5,-57 760.5,-57 760.5,-39 659.5,-39"/>
<text text-anchor="start" x="662.5" y="-45.2" font-family="Helvetica,sans-Serif" font-size="11.00">&lt; 1</text>
<polygon fill="#ffffff" stroke="transparent" points="760.5,-39 760.5,-57 853.5,-57 853.5,-39 760.5,-39"/>
<polygon fill="none" stroke="black" points="760.5,-39 760.5,-57 853.5,-57 853.5,-39 760.5,-39"/>
<text text-anchor="start" x="843.5" y="-45.2" font-family="Helvetica,sans-Serif" font-size="11.00"> &#160;</text>
<polygon fill="#ffffff" stroke="transparent" points="853.5,-39 853.5,-57 946.5,-57 946.5,-39 853.5,-39"/>
<polygon fill="none" stroke="black" points="853.5,-39 853.5,-57 946.5,-57 946.5,-39 853.5,-39"/>
<text text-anchor="start" x="927.5" y="-45.2" font-family="Helvetica,sans-Serif" font-size="11.00">1 &gt;</text>
<polygon fill="none" stroke="black" stroke-width="2" points="658,-38 658,-322 947,-322 947,-38 658,-38"/>
</a>
</g>
</g>
<!-- syst_instances&#45;&gt;syst_owners -->
<g id="edge10" class="edge">
<title>syst_instances:w&#45;&gt;syst_owners:e</title>
<path fill="none" stroke="black" d="M1052.47,-313.76C1021.19,-300.04 983.48,-288 947.5,-288"/>
<polygon fill="black" stroke="black" points="1058.64,-316.59 1064.41,-323.2 1062.27,-318.26 1065.91,-319.93 1065.91,-319.93 1065.91,-319.93 1062.27,-318.26 1067.41,-316.66 1058.64,-316.59 1058.64,-316.59"/>
<ellipse fill="none" stroke="black" cx="1055.73" cy="-315.26" rx="3.2" ry="3.2"/>
</g>
<!-- syst_instance_type_applications -->
<g id="node6" class="node">
<title>syst_instance_type_applications</title>
<g id="a_node6"><a xlink:href="../../tables/syst_instance_type_applications.html" xlink:title="syst_instance_type_applications" target="_top">
<polygon fill="#ffffff" stroke="transparent" points="997,-420 997,-478 1253,-478 1253,-420 997,-420"/>
<polygon fill="#f5f5f5" stroke="transparent" points="997,-456 997,-478 1253,-478 1253,-456 997,-456"/>
<polygon fill="none" stroke="black" points="997,-456 997,-478 1253,-478 1253,-456 997,-456"/>
<text text-anchor="start" x="1002" y="-465.2" font-family="Helvetica,sans-Serif" font-weight="bold" font-size="11.00">syst_instance_type_applications</text>
<text text-anchor="start" x="1218" y="-464.2" font-family="Helvetica,sans-Serif" font-size="11.00">[table]</text>
<polygon fill="none" stroke="black" points="997,-438 997,-456 1253,-456 1253,-438 997,-438"/>
<text text-anchor="start" x="1000" y="-444.2" font-family="Helvetica,sans-Serif" font-size="11.00">...</text>
<polygon fill="#ffffff" stroke="transparent" points="997,-420 997,-438 1118,-438 1118,-420 997,-420"/>
<polygon fill="none" stroke="black" points="997,-420 997,-438 1118,-438 1118,-420 997,-420"/>
<text text-anchor="start" x="1000" y="-426.2" font-family="Helvetica,sans-Serif" font-size="11.00">&lt; 2</text>
<polygon fill="#ffffff" stroke="transparent" points="1118,-420 1118,-438 1181,-438 1181,-420 1118,-420"/>
<polygon fill="none" stroke="black" points="1118,-420 1118,-438 1181,-438 1181,-420 1118,-420"/>
<text text-anchor="start" x="1171" y="-426.2" font-family="Helvetica,sans-Serif" font-size="11.00"> &#160;</text>
<polygon fill="#ffffff" stroke="transparent" points="1181,-420 1181,-438 1253,-438 1253,-420 1181,-420"/>
<polygon fill="none" stroke="black" points="1181,-420 1181,-438 1253,-438 1253,-420 1181,-420"/>
<text text-anchor="start" x="1234" y="-426.2" font-family="Helvetica,sans-Serif" font-size="11.00">1 &gt;</text>
</a>
</g>
</g>
<!-- syst_instance_type_applications&#45;&gt;syst_enum_items -->
<g id="edge6" class="edge">
<title>syst_instance_type_applications:w&#45;&gt;syst_enum_items:e</title>
<path fill="none" stroke="black" d="M981.55,-448.06C973.72,-449.3 967.87,-451.26 956,-452 819.82,-460.48 777.17,-498.8 649,-452 613.17,-438.92 580.7,-409.56 559.03,-386.19"/>
<polygon fill="black" stroke="black" points="988.02,-447.59 996.26,-450.59 992.01,-447.29 996,-447 996,-447 996,-447 992.01,-447.29 995.74,-443.41 988.02,-447.59 988.02,-447.59"/>
<ellipse fill="none" stroke="black" cx="984.83" cy="-447.82" rx="3.2" ry="3.2"/>
</g>
<!-- syst_instance_type_applications&#45;&gt;syst_applications -->
<g id="edge5" class="edge">
<title>syst_instance_type_applications:w&#45;&gt;syst_applications:e</title>
<path fill="none" stroke="black" d="M981.56,-446.01C940.61,-440.13 929.76,-410 881.5,-410"/>
<polygon fill="black" stroke="black" points="988.02,-446.45 995.75,-450.59 992.01,-446.73 996,-447 996,-447 996,-447 992.01,-446.73 996.25,-443.41 988.02,-446.45 988.02,-446.45"/>
<ellipse fill="none" stroke="black" cx="984.83" cy="-446.23" rx="3.2" ry="3.2"/>
</g>
<!-- syst_owners&#45;&gt;syst_enum_items -->
<g id="edge11" class="edge">
<title>syst_owners:w&#45;&gt;syst_enum_items:e</title>
<path fill="none" stroke="black" d="M643.9,-223.43C597.09,-232.69 563.63,-284.7 545.95,-319.94"/>
<polygon fill="black" stroke="black" points="650.54,-222.78 658.85,-225.58 654.52,-222.39 658.5,-222 658.5,-222 658.5,-222 654.52,-222.39 658.15,-218.42 650.54,-222.78 650.54,-222.78"/>
<ellipse fill="none" stroke="black" cx="647.35" cy="-223.09" rx="3.2" ry="3.2"/>
</g>
</g>
</svg>
