<?xml version="1.0" encoding="UTF-8" standalone="no"?>
<!DOCTYPE svg PUBLIC "-//W3C//DTD SVG 1.1//EN"
 "http://www.w3.org/Graphics/SVG/1.1/DTD/svg11.dtd">
<!-- Generated by graphviz version 2.43.0 (0)
 -->
<!-- Title: twoDegreesRelationshipsDiagram Pages: 1 -->
<svg width="838pt" height="596pt"
 viewBox="0.00 0.00 838.00 596.00" xmlns="http://www.w3.org/2000/svg" xmlns:xlink="http://www.w3.org/1999/xlink">
<g id="graph0" class="graph" transform="scale(1 1) rotate(0) translate(4 592)">
<title>twoDegreesRelationshipsDiagram</title>
<polygon fill="#ffffff" stroke="transparent" points="-4,4 -4,-592 834,-592 834,4 -4,4"/>
<text text-anchor="middle" x="71.5" y="-7.2" font-family="Helvetica,sans-Serif" font-size="11.00">Generated by SchemaSpy</text>
<!-- syst_application_contexts -->
<g id="node1" class="node">
<title>syst_application_contexts</title>
<g id="a_node1"><a xlink:href="../../tables/syst_application_contexts.html" xlink:title="syst_application_contexts" target="_top">
<polygon fill="#ffffff" stroke="transparent" points="251,-116 251,-490 542,-490 542,-116 251,-116"/>
<polygon fill="#f5f5f5" stroke="transparent" points="253.5,-466 253.5,-488 540.5,-488 540.5,-466 253.5,-466"/>
<polygon fill="none" stroke="black" points="253.5,-466 253.5,-488 540.5,-488 540.5,-466 253.5,-466"/>
<text text-anchor="start" x="258.5" y="-475.2" font-family="Helvetica,sans-Serif" font-weight="bold" font-size="11.00">syst_application_contexts</text>
<text text-anchor="start" x="505.5" y="-474.2" font-family="Helvetica,sans-Serif" font-size="11.00">[table]</text>
<polygon fill="none" stroke="black" points="253.5,-444 253.5,-466 447.5,-466 447.5,-444 253.5,-444"/>
<image xlink:href="../../images/primaryKeys.png" width="11px" height="12px" preserveAspectRatio="xMinYMin meet" x="258.5" y="-461"/>
<text text-anchor="start" x="273.5" y="-452.2" font-family="Helvetica,sans-Serif" font-size="11.00">id</text>
<polygon fill="none" stroke="black" points="447.5,-444 447.5,-466 540.5,-466 540.5,-444 447.5,-444"/>
<text text-anchor="start" x="450.5" y="-452.2" font-family="Helvetica,sans-Serif" font-size="11.00">uuid[2147483647]</text>
<polygon fill="#ffffff" stroke="transparent" points="253.5,-422 253.5,-444 447.5,-444 447.5,-422 253.5,-422"/>
<polygon fill="none" stroke="black" points="253.5,-422 253.5,-444 447.5,-444 447.5,-422 253.5,-422"/>
<text text-anchor="start" x="273.5" y="-430.2" font-family="Helvetica,sans-Serif" font-size="11.00">internal_name</text>
<polygon fill="none" stroke="black" points="447.5,-422 447.5,-444 540.5,-444 540.5,-422 447.5,-422"/>
<text text-anchor="start" x="450.5" y="-430.2" font-family="Helvetica,sans-Serif" font-size="11.00">text[2147483647]</text>
<polygon fill="#ffffff" stroke="transparent" points="253.5,-400 253.5,-422 447.5,-422 447.5,-400 253.5,-400"/>
<polygon fill="none" stroke="black" points="253.5,-400 253.5,-422 447.5,-422 447.5,-400 253.5,-400"/>
<text text-anchor="start" x="273.5" y="-408.2" font-family="Helvetica,sans-Serif" font-size="11.00">display_name</text>
<polygon fill="none" stroke="black" points="447.5,-400 447.5,-422 540.5,-422 540.5,-400 447.5,-400"/>
<text text-anchor="start" x="450.5" y="-408.2" font-family="Helvetica,sans-Serif" font-size="11.00">text[2147483647]</text>
<polygon fill="none" stroke="black" points="253.5,-378 253.5,-400 447.5,-400 447.5,-378 253.5,-378"/>
<image xlink:href="../../images/foreignKeys.png" width="11px" height="12px" preserveAspectRatio="xMinYMin meet" x="258.5" y="-395"/>
<text text-anchor="start" x="273.5" y="-386.2" font-family="Helvetica,sans-Serif" font-size="11.00">application_id</text>
<polygon fill="none" stroke="black" points="447.5,-378 447.5,-400 540.5,-400 540.5,-378 447.5,-378"/>
<text text-anchor="start" x="450.5" y="-386.2" font-family="Helvetica,sans-Serif" font-size="11.00">uuid[2147483647]</text>
<polygon fill="none" stroke="black" points="253.5,-356 253.5,-378 447.5,-378 447.5,-356 253.5,-356"/>
<text text-anchor="start" x="273.5" y="-364.2" font-family="Helvetica,sans-Serif" font-size="11.00">description</text>
<polygon fill="none" stroke="black" points="447.5,-356 447.5,-378 540.5,-378 540.5,-356 447.5,-356"/>
<text text-anchor="start" x="450.5" y="-364.2" font-family="Helvetica,sans-Serif" font-size="11.00">text[2147483647]</text>
<polygon fill="none" stroke="black" points="253.5,-334 253.5,-356 447.5,-356 447.5,-334 253.5,-334"/>
<text text-anchor="start" x="273.5" y="-342.2" font-family="Helvetica,sans-Serif" font-size="11.00">start_context</text>
<polygon fill="none" stroke="black" points="447.5,-334 447.5,-356 540.5,-356 540.5,-334 447.5,-334"/>
<text text-anchor="start" x="450.5" y="-342.2" font-family="Helvetica,sans-Serif" font-size="11.00">bool[1]</text>
<polygon fill="none" stroke="black" points="253.5,-312 253.5,-334 447.5,-334 447.5,-312 253.5,-312"/>
<text text-anchor="start" x="273.5" y="-320.2" font-family="Helvetica,sans-Serif" font-size="11.00">login_context</text>
<polygon fill="none" stroke="black" points="447.5,-312 447.5,-334 540.5,-334 540.5,-312 447.5,-312"/>
<text text-anchor="start" x="450.5" y="-320.2" font-family="Helvetica,sans-Serif" font-size="11.00">bool[1]</text>
<polygon fill="none" stroke="black" points="253.5,-290 253.5,-312 447.5,-312 447.5,-290 253.5,-290"/>
<text text-anchor="start" x="273.5" y="-298.2" font-family="Helvetica,sans-Serif" font-size="11.00">database_owner_context</text>
<polygon fill="none" stroke="black" points="447.5,-290 447.5,-312 540.5,-312 540.5,-290 447.5,-290"/>
<text text-anchor="start" x="450.5" y="-298.2" font-family="Helvetica,sans-Serif" font-size="11.00">bool[1]</text>
<polygon fill="none" stroke="black" points="253.5,-268 253.5,-290 447.5,-290 447.5,-268 253.5,-268"/>
<text text-anchor="start" x="273.5" y="-276.2" font-family="Helvetica,sans-Serif" font-size="11.00">diag_timestamp_created</text>
<polygon fill="none" stroke="black" points="447.5,-268 447.5,-290 540.5,-290 540.5,-268 447.5,-268"/>
<text text-anchor="start" x="450.5" y="-276.2" font-family="Helvetica,sans-Serif" font-size="11.00">timestamptz[35,6]</text>
<polygon fill="none" stroke="black" points="253.5,-246 253.5,-268 447.5,-268 447.5,-246 253.5,-246"/>
<text text-anchor="start" x="273.5" y="-254.2" font-family="Helvetica,sans-Serif" font-size="11.00">diag_role_created</text>
<polygon fill="none" stroke="black" points="447.5,-246 447.5,-268 540.5,-268 540.5,-246 447.5,-246"/>
<text text-anchor="start" x="450.5" y="-254.2" font-family="Helvetica,sans-Serif" font-size="11.00">text[2147483647]</text>
<polygon fill="none" stroke="black" points="253.5,-224 253.5,-246 447.5,-246 447.5,-224 253.5,-224"/>
<text text-anchor="start" x="273.5" y="-232.2" font-family="Helvetica,sans-Serif" font-size="11.00">diag_timestamp_modified</text>
<polygon fill="none" stroke="black" points="447.5,-224 447.5,-246 540.5,-246 540.5,-224 447.5,-224"/>
<text text-anchor="start" x="450.5" y="-232.2" font-family="Helvetica,sans-Serif" font-size="11.00">timestamptz[35,6]</text>
<polygon fill="none" stroke="black" points="253.5,-202 253.5,-224 447.5,-224 447.5,-202 253.5,-202"/>
<text text-anchor="start" x="273.5" y="-210.2" font-family="Helvetica,sans-Serif" font-size="11.00">diag_wallclock_modified</text>
<polygon fill="none" stroke="black" points="447.5,-202 447.5,-224 540.5,-224 540.5,-202 447.5,-202"/>
<text text-anchor="start" x="450.5" y="-210.2" font-family="Helvetica,sans-Serif" font-size="11.00">timestamptz[35,6]</text>
<polygon fill="none" stroke="black" points="253.5,-180 253.5,-202 447.5,-202 447.5,-180 253.5,-180"/>
<text text-anchor="start" x="273.5" y="-188.2" font-family="Helvetica,sans-Serif" font-size="11.00">diag_role_modified</text>
<polygon fill="none" stroke="black" points="447.5,-180 447.5,-202 540.5,-202 540.5,-180 447.5,-180"/>
<text text-anchor="start" x="450.5" y="-188.2" font-family="Helvetica,sans-Serif" font-size="11.00">text[2147483647]</text>
<polygon fill="none" stroke="black" points="253.5,-158 253.5,-180 447.5,-180 447.5,-158 253.5,-158"/>
<text text-anchor="start" x="273.5" y="-166.2" font-family="Helvetica,sans-Serif" font-size="11.00">diag_row_version</text>
<polygon fill="none" stroke="black" points="447.5,-158 447.5,-180 540.5,-180 540.5,-158 447.5,-158"/>
<text text-anchor="start" x="450.5" y="-166.2" font-family="Helvetica,sans-Serif" font-size="11.00">int8[19]</text>
<polygon fill="none" stroke="black" points="253.5,-136 253.5,-158 447.5,-158 447.5,-136 253.5,-136"/>
<text text-anchor="start" x="273.5" y="-144.2" font-family="Helvetica,sans-Serif" font-size="11.00">diag_update_count</text>
<polygon fill="none" stroke="black" points="447.5,-136 447.5,-158 540.5,-158 540.5,-136 447.5,-136"/>
<text text-anchor="start" x="450.5" y="-144.2" font-family="Helvetica,sans-Serif" font-size="11.00">int8[19]</text>
<polygon fill="#ffffff" stroke="transparent" points="253.5,-118 253.5,-136 354.5,-136 354.5,-118 253.5,-118"/>
<polygon fill="none" stroke="black" points="253.5,-118 253.5,-136 354.5,-136 354.5,-118 253.5,-118"/>
<text text-anchor="start" x="256.5" y="-124.2" font-family="Helvetica,sans-Serif" font-size="11.00">&lt; 1</text>
<polygon fill="#ffffff" stroke="transparent" points="354.5,-118 354.5,-136 447.5,-136 447.5,-118 354.5,-118"/>
<polygon fill="none" stroke="black" points="354.5,-118 354.5,-136 447.5,-136 447.5,-118 354.5,-118"/>
<text text-anchor="start" x="437.5" y="-124.2" font-family="Helvetica,sans-Serif" font-size="11.00"> &#160;</text>
<polygon fill="#ffffff" stroke="transparent" points="447.5,-118 447.5,-136 540.5,-136 540.5,-118 447.5,-118"/>
<polygon fill="none" stroke="black" points="447.5,-118 447.5,-136 540.5,-136 540.5,-118 447.5,-118"/>
<text text-anchor="start" x="521.5" y="-124.2" font-family="Helvetica,sans-Serif" font-size="11.00">2 &gt;</text>
<polygon fill="none" stroke="black" stroke-width="2" points="252,-117 252,-489 541,-489 541,-117 252,-117"/>
</a>
</g>
</g>
<!-- syst_applications -->
<g id="node2" class="node">
<title>syst_applications</title>
<g id="a_node2"><a xlink:href="../../tables/syst_applications.html" xlink:title="syst_applications" target="_top">
<polygon fill="#ffffff" stroke="transparent" points="8,-298 8,-422 202,-422 202,-298 8,-298"/>
<polygon fill="#f5f5f5" stroke="transparent" points="8,-400 8,-422 202,-422 202,-400 8,-400"/>
<polygon fill="none" stroke="black" points="8,-400 8,-422 202,-422 202,-400 8,-400"/>
<text text-anchor="start" x="13" y="-409.2" font-family="Helvetica,sans-Serif" font-weight="bold" font-size="11.00">syst_applications</text>
<text text-anchor="start" x="167" y="-408.2" font-family="Helvetica,sans-Serif" font-size="11.00">[table]</text>
<polygon fill="none" stroke="black" points="8,-378 8,-400 202,-400 202,-378 8,-378"/>
<image xlink:href="../../images/primaryKeys.png" width="11px" height="12px" preserveAspectRatio="xMinYMin meet" x="13" y="-395"/>
<text text-anchor="start" x="28" y="-386.2" font-family="Helvetica,sans-Serif" font-size="11.00">id</text>
<polygon fill="#ffffff" stroke="transparent" points="8,-356 8,-378 202,-378 202,-356 8,-356"/>
<polygon fill="none" stroke="black" points="8,-356 8,-378 202,-378 202,-356 8,-356"/>
<text text-anchor="start" x="28" y="-364.2" font-family="Helvetica,sans-Serif" font-size="11.00">internal_name</text>
<polygon fill="#ffffff" stroke="transparent" points="8,-334 8,-356 202,-356 202,-334 8,-334"/>
<polygon fill="none" stroke="black" points="8,-334 8,-356 202,-356 202,-334 8,-334"/>
<text text-anchor="start" x="28" y="-342.2" font-family="Helvetica,sans-Serif" font-size="11.00">display_name</text>
<polygon fill="none" stroke="black" points="8,-316 8,-334 202,-334 202,-316 8,-316"/>
<text text-anchor="start" x="11" y="-322.2" font-family="Helvetica,sans-Serif" font-size="11.00">...</text>
<polygon fill="#ffffff" stroke="transparent" points="8,-298 8,-316 94,-316 94,-298 8,-298"/>
<polygon fill="none" stroke="black" points="8,-298 8,-316 94,-316 94,-298 8,-298"/>
<text text-anchor="start" x="11" y="-304.2" font-family="Helvetica,sans-Serif" font-size="11.00"> &#160;</text>
<polygon fill="#ffffff" stroke="transparent" points="94,-298 94,-316 143,-316 143,-298 94,-298"/>
<polygon fill="none" stroke="black" points="94,-298 94,-316 143,-316 143,-298 94,-298"/>
<text text-anchor="start" x="133" y="-304.2" font-family="Helvetica,sans-Serif" font-size="11.00"> &#160;</text>
<polygon fill="#ffffff" stroke="transparent" points="143,-298 143,-316 202,-316 202,-298 143,-298"/>
<polygon fill="none" stroke="black" points="143,-298 143,-316 202,-316 202,-298 143,-298"/>
<text text-anchor="start" x="183" y="-304.2" font-family="Helvetica,sans-Serif" font-size="11.00">3 &gt;</text>
</a>
</g>
</g>
<!-- syst_application_contexts&#45;&gt;syst_applications -->
<g id="edge1" class="edge">
<title>syst_application_contexts:w&#45;&gt;syst_applications:e</title>
<path fill="none" stroke="black" d="M237.84,-389C226.41,-389 219.16,-389 203,-389"/>
<polygon fill="black" stroke="black" points="244.5,-389 252.5,-392.6 248.5,-389 252.5,-389 252.5,-389 252.5,-389 248.5,-389 252.5,-385.4 244.5,-389 244.5,-389"/>
<ellipse fill="none" stroke="black" cx="241.3" cy="-389" rx="3.2" ry="3.2"/>
</g>
<!-- syst_instance_contexts -->
<g id="node3" class="node">
<title>syst_instance_contexts</title>
<g id="a_node3"><a xlink:href="../../tables/syst_instance_contexts.html" xlink:title="syst_instance_contexts" target="_top">
<polygon fill="#ffffff" stroke="transparent" points="609,-438 609,-584 804,-584 804,-438 609,-438"/>
<polygon fill="#f5f5f5" stroke="transparent" points="609.5,-562 609.5,-584 804.5,-584 804.5,-562 609.5,-562"/>
<polygon fill="none" stroke="black" points="609.5,-562 609.5,-584 804.5,-584 804.5,-562 609.5,-562"/>
<text text-anchor="start" x="614.5" y="-571.2" font-family="Helvetica,sans-Serif" font-weight="bold" font-size="11.00">syst_instance_contexts</text>
<text text-anchor="start" x="769.5" y="-570.2" font-family="Helvetica,sans-Serif" font-size="11.00">[table]</text>
<polygon fill="none" stroke="black" points="609.5,-540 609.5,-562 804.5,-562 804.5,-540 609.5,-540"/>
<image xlink:href="../../images/primaryKeys.png" width="11px" height="12px" preserveAspectRatio="xMinYMin meet" x="614.5" y="-557"/>
<text text-anchor="start" x="630.5" y="-548.2" font-family="Helvetica,sans-Serif" font-size="11.00">id</text>
<polygon fill="#ffffff" stroke="transparent" points="609.5,-518 609.5,-540 804.5,-540 804.5,-518 609.5,-518"/>
<polygon fill="none" stroke="black" points="609.5,-518 609.5,-540 804.5,-540 804.5,-518 609.5,-518"/>
<text text-anchor="start" x="630.5" y="-526.2" font-family="Helvetica,sans-Serif" font-size="11.00">internal_name</text>
<polygon fill="none" stroke="black" points="609.5,-496 609.5,-518 804.5,-518 804.5,-496 609.5,-496"/>
<image xlink:href="../../images/foreignKeys.png" width="11px" height="12px" preserveAspectRatio="xMinYMin meet" x="614.5" y="-513"/>
<text text-anchor="start" x="630.5" y="-504.2" font-family="Helvetica,sans-Serif" font-size="11.00">instance_id</text>
<polygon fill="none" stroke="black" points="609.5,-474 609.5,-496 804.5,-496 804.5,-474 609.5,-474"/>
<image xlink:href="../../images/foreignKeys.png" width="11px" height="12px" preserveAspectRatio="xMinYMin meet" x="614.5" y="-491"/>
<text text-anchor="start" x="630.5" y="-482.2" font-family="Helvetica,sans-Serif" font-size="11.00">application_context_id</text>
<polygon fill="none" stroke="black" points="609.5,-456 609.5,-474 804.5,-474 804.5,-456 609.5,-456"/>
<text text-anchor="start" x="612.5" y="-462.2" font-family="Helvetica,sans-Serif" font-size="11.00">...</text>
<polygon fill="#ffffff" stroke="transparent" points="609.5,-438 609.5,-456 704.5,-456 704.5,-438 609.5,-438"/>
<polygon fill="none" stroke="black" points="609.5,-438 609.5,-456 704.5,-456 704.5,-438 609.5,-438"/>
<text text-anchor="start" x="612.5" y="-444.2" font-family="Helvetica,sans-Serif" font-size="11.00">&lt; 2</text>
<polygon fill="#ffffff" stroke="transparent" points="704.5,-438 704.5,-456 754.5,-456 754.5,-438 704.5,-438"/>
<polygon fill="none" stroke="black" points="704.5,-438 704.5,-456 754.5,-456 754.5,-438 704.5,-438"/>
<text text-anchor="start" x="744.5" y="-444.2" font-family="Helvetica,sans-Serif" font-size="11.00"> &#160;</text>
<polygon fill="#ffffff" stroke="transparent" points="754.5,-438 754.5,-456 804.5,-456 804.5,-438 754.5,-438"/>
<polygon fill="none" stroke="black" points="754.5,-438 754.5,-456 804.5,-456 804.5,-438 754.5,-438"/>
<text text-anchor="start" x="794.5" y="-444.2" font-family="Helvetica,sans-Serif" font-size="11.00"> &#160;</text>
</a>
</g>
</g>
<!-- syst_instance_contexts&#45;&gt;syst_application_contexts -->
<g id="edge2" class="edge">
<title>syst_instance_contexts:w&#45;&gt;syst_application_contexts:e</title>
<path fill="none" stroke="black" d="M594.1,-482.65C574.36,-475.57 568.52,-455 541.5,-455"/>
<polygon fill="black" stroke="black" points="600.6,-483.71 607.92,-488.55 604.55,-484.35 608.5,-485 608.5,-485 608.5,-485 604.55,-484.35 609.08,-481.45 600.6,-483.71 600.6,-483.71"/>
<ellipse fill="none" stroke="black" cx="597.45" cy="-483.19" rx="3.2" ry="3.2"/>
</g>
<!-- syst_instances -->
<g id="node4" class="node">
<title>syst_instances</title>
<g id="a_node4"><a xlink:href="../../tables/syst_instances.html" xlink:title="syst_instances" target="_top">
<polygon fill="#ffffff" stroke="transparent" points="327.5,-511 327.5,-569 465.5,-569 465.5,-511 327.5,-511"/>
<polygon fill="#f5f5f5" stroke="transparent" points="327.5,-547 327.5,-569 465.5,-569 465.5,-547 327.5,-547"/>
<polygon fill="none" stroke="black" points="327.5,-547 327.5,-569 465.5,-569 465.5,-547 327.5,-547"/>
<text text-anchor="start" x="332.5" y="-556.2" font-family="Helvetica,sans-Serif" font-weight="bold" font-size="11.00">syst_instances</text>
<text text-anchor="start" x="430.5" y="-555.2" font-family="Helvetica,sans-Serif" font-size="11.00">[table]</text>
<polygon fill="none" stroke="black" points="327.5,-529 327.5,-547 465.5,-547 465.5,-529 327.5,-529"/>
<text text-anchor="start" x="330.5" y="-535.2" font-family="Helvetica,sans-Serif" font-size="11.00">...</text>
<polygon fill="#ffffff" stroke="transparent" points="327.5,-511 327.5,-529 389.5,-529 389.5,-511 327.5,-511"/>
<polygon fill="none" stroke="black" points="327.5,-511 327.5,-529 389.5,-529 389.5,-511 327.5,-511"/>
<text text-anchor="start" x="330.5" y="-517.2" font-family="Helvetica,sans-Serif" font-size="11.00">&lt; 5</text>
<polygon fill="#ffffff" stroke="transparent" points="389.5,-511 389.5,-529 422.5,-529 422.5,-511 389.5,-511"/>
<polygon fill="none" stroke="black" points="389.5,-511 389.5,-529 422.5,-529 422.5,-511 389.5,-511"/>
<text text-anchor="start" x="412.5" y="-517.2" font-family="Helvetica,sans-Serif" font-size="11.00"> &#160;</text>
<polygon fill="#ffffff" stroke="transparent" points="422.5,-511 422.5,-529 465.5,-529 465.5,-511 422.5,-511"/>
<polygon fill="none" stroke="black" points="422.5,-511 422.5,-529 465.5,-529 465.5,-511 422.5,-511"/>
<text text-anchor="start" x="446.5" y="-517.2" font-family="Helvetica,sans-Serif" font-size="11.00">2 &gt;</text>
</a>
</g>
</g>
<!-- syst_instance_contexts&#45;&gt;syst_instances -->
<g id="edge3" class="edge">
<title>syst_instance_contexts:w&#45;&gt;syst_instances:e</title>
<path fill="none" stroke="black" d="M593.92,-507.56C541.52,-511.77 525.92,-538 466.5,-538"/>
<polygon fill="black" stroke="black" points="600.51,-507.31 608.64,-510.6 604.5,-507.15 608.5,-507 608.5,-507 608.5,-507 604.5,-507.15 608.36,-503.4 600.51,-507.31 600.51,-507.31"/>
<ellipse fill="none" stroke="black" cx="597.31" cy="-507.43" rx="3.2" ry="3.2"/>
</g>
<!-- syst_instances&#45;&gt;syst_applications -->
<g id="edge7" class="edge">
<title>syst_instances:w&#45;&gt;syst_applications:e</title>
<path fill="none" stroke="black" d="M311.98,-537.61C281.76,-535.76 267.06,-526.91 243,-501 207.03,-462.27 255.86,-389 203,-389"/>
<polygon fill="black" stroke="black" points="318.5,-537.78 326.4,-541.6 322.5,-537.89 326.5,-538 326.5,-538 326.5,-538 322.5,-537.89 326.6,-534.4 318.5,-537.78 318.5,-537.78"/>
<ellipse fill="none" stroke="black" cx="315.3" cy="-537.7" rx="3.2" ry="3.2"/>
</g>
<!-- syst_instance_type_applications -->
<g id="node5" class="node">
<title>syst_instance_type_applications</title>
<g id="a_node5"><a xlink:href="../../tables/syst_instance_type_applications.html" xlink:title="syst_instance_type_applications" target="_top">
<polygon fill="#ffffff" stroke="transparent" points="268.5,-37 268.5,-95 524.5,-95 524.5,-37 268.5,-37"/>
<polygon fill="#f5f5f5" stroke="transparent" points="268.5,-73 268.5,-95 524.5,-95 524.5,-73 268.5,-73"/>
<polygon fill="none" stroke="black" points="268.5,-73 268.5,-95 524.5,-95 524.5,-73 268.5,-73"/>
<text text-anchor="start" x="273.5" y="-82.2" font-family="Helvetica,sans-Serif" font-weight="bold" font-size="11.00">syst_instance_type_applications</text>
<text text-anchor="start" x="489.5" y="-81.2" font-family="Helvetica,sans-Serif" font-size="11.00">[table]</text>
<polygon fill="none" stroke="black" points="268.5,-55 268.5,-73 524.5,-73 524.5,-55 268.5,-55"/>
<text text-anchor="start" x="271.5" y="-61.2" font-family="Helvetica,sans-Serif" font-size="11.00">...</text>
<polygon fill="#ffffff" stroke="transparent" points="268.5,-37 268.5,-55 389.5,-55 389.5,-37 268.5,-37"/>
<polygon fill="none" stroke="black" points="268.5,-37 268.5,-55 389.5,-55 389.5,-37 268.5,-37"/>
<text text-anchor="start" x="271.5" y="-43.2" font-family="Helvetica,sans-Serif" font-size="11.00">&lt; 2</text>
<polygon fill="#ffffff" stroke="transparent" points="389.5,-37 389.5,-55 452.5,-55 452.5,-37 389.5,-37"/>
<polygon fill="none" stroke="black" points="389.5,-37 389.5,-55 452.5,-55 452.5,-37 389.5,-37"/>
<text text-anchor="start" x="442.5" y="-43.2" font-family="Helvetica,sans-Serif" font-size="11.00"> &#160;</text>
<polygon fill="#ffffff" stroke="transparent" points="452.5,-37 452.5,-55 524.5,-55 524.5,-37 452.5,-37"/>
<polygon fill="none" stroke="black" points="452.5,-37 452.5,-55 524.5,-55 524.5,-37 452.5,-37"/>
<text text-anchor="start" x="505.5" y="-43.2" font-family="Helvetica,sans-Serif" font-size="11.00">1 &gt;</text>
</a>
</g>
</g>
<!-- syst_instance_type_applications&#45;&gt;syst_applications -->
<g id="edge4" class="edge">
<title>syst_instance_type_applications:w&#45;&gt;syst_applications:e</title>
<path fill="none" stroke="black" d="M253.87,-68.85C205.01,-109.28 271.31,-389 203,-389"/>
<polygon fill="black" stroke="black" points="259.96,-66.68 268.71,-67.39 263.73,-65.34 267.5,-64 267.5,-64 267.5,-64 263.73,-65.34 266.29,-60.61 259.96,-66.68 259.96,-66.68"/>
<ellipse fill="none" stroke="black" cx="256.95" cy="-67.75" rx="3.2" ry="3.2"/>
</g>
<!-- syst_instance_type_contexts -->
<g id="node6" class="node">
<title>syst_instance_type_contexts</title>
<g id="a_node6"><a xlink:href="../../tables/syst_instance_type_contexts.html" xlink:title="syst_instance_type_contexts" target="_top">
<polygon fill="#ffffff" stroke="transparent" points="591,-144 591,-268 822,-268 822,-144 591,-144"/>
<polygon fill="#f5f5f5" stroke="transparent" points="591.5,-246 591.5,-268 822.5,-268 822.5,-246 591.5,-246"/>
<polygon fill="none" stroke="black" points="591.5,-246 591.5,-268 822.5,-268 822.5,-246 591.5,-246"/>
<text text-anchor="start" x="596.5" y="-255.2" font-family="Helvetica,sans-Serif" font-weight="bold" font-size="11.00">syst_instance_type_contexts</text>
<text text-anchor="start" x="787.5" y="-254.2" font-family="Helvetica,sans-Serif" font-size="11.00">[table]</text>
<polygon fill="none" stroke="black" points="591.5,-224 591.5,-246 822.5,-246 822.5,-224 591.5,-224"/>
<image xlink:href="../../images/primaryKeys.png" width="11px" height="12px" preserveAspectRatio="xMinYMin meet" x="596.5" y="-241"/>
<text text-anchor="start" x="620.5" y="-232.2" font-family="Helvetica,sans-Serif" font-size="11.00">id</text>
<polygon fill="#ffffff" stroke="transparent" points="591.5,-202 591.5,-224 822.5,-224 822.5,-202 591.5,-202"/>
<polygon fill="none" stroke="black" points="591.5,-202 591.5,-224 822.5,-224 822.5,-202 591.5,-202"/>
<image xlink:href="../../images/foreignKeys.png" width="11px" height="12px" preserveAspectRatio="xMinYMin meet" x="596.5" y="-219"/>
<text text-anchor="start" x="620.5" y="-210.2" font-family="Helvetica,sans-Serif" font-size="11.00">instance_type_application_id</text>
<polygon fill="#ffffff" stroke="transparent" points="591.5,-180 591.5,-202 822.5,-202 822.5,-180 591.5,-180"/>
<polygon fill="none" stroke="black" points="591.5,-180 591.5,-202 822.5,-202 822.5,-180 591.5,-180"/>
<image xlink:href="../../images/foreignKeys.png" width="11px" height="12px" preserveAspectRatio="xMinYMin meet" x="596.5" y="-197"/>
<text text-anchor="start" x="620.5" y="-188.2" font-family="Helvetica,sans-Serif" font-size="11.00">application_context_id</text>
<polygon fill="none" stroke="black" points="591.5,-162 591.5,-180 822.5,-180 822.5,-162 591.5,-162"/>
<text text-anchor="start" x="594.5" y="-168.2" font-family="Helvetica,sans-Serif" font-size="11.00">...</text>
<polygon fill="#ffffff" stroke="transparent" points="591.5,-144 591.5,-162 704.5,-162 704.5,-144 591.5,-144"/>
<polygon fill="none" stroke="black" points="591.5,-144 591.5,-162 704.5,-162 704.5,-144 591.5,-144"/>
<text text-anchor="start" x="594.5" y="-150.2" font-family="Helvetica,sans-Serif" font-size="11.00">&lt; 2</text>
<polygon fill="#ffffff" stroke="transparent" points="704.5,-144 704.5,-162 763.5,-162 763.5,-144 704.5,-144"/>
<polygon fill="none" stroke="black" points="704.5,-144 704.5,-162 763.5,-162 763.5,-144 704.5,-144"/>
<text text-anchor="start" x="753.5" y="-150.2" font-family="Helvetica,sans-Serif" font-size="11.00"> &#160;</text>
<polygon fill="#ffffff" stroke="transparent" points="763.5,-144 763.5,-162 822.5,-162 822.5,-144 763.5,-144"/>
<polygon fill="none" stroke="black" points="763.5,-144 763.5,-162 822.5,-162 822.5,-144 763.5,-144"/>
<text text-anchor="start" x="812.5" y="-150.2" font-family="Helvetica,sans-Serif" font-size="11.00"> &#160;</text>
</a>
</g>
</g>
<!-- syst_instance_type_contexts&#45;&gt;syst_application_contexts -->
<g id="edge5" class="edge">
<title>syst_instance_type_contexts:w&#45;&gt;syst_application_contexts:e</title>
<path fill="none" stroke="black" d="M575.96,-192.62C487.92,-214.68 655.36,-455 541.5,-455"/>
<polygon fill="black" stroke="black" points="582.55,-191.88 590.9,-194.58 586.52,-191.44 590.5,-191 590.5,-191 590.5,-191 586.52,-191.44 590.1,-187.42 582.55,-191.88 582.55,-191.88"/>
<ellipse fill="none" stroke="black" cx="579.37" cy="-192.24" rx="3.2" ry="3.2"/>
</g>
<!-- syst_instance_type_contexts&#45;&gt;syst_instance_type_applications -->
<g id="edge6" class="edge">
<title>syst_instance_type_contexts:w&#45;&gt;syst_instance_type_applications:e</title>
<path fill="none" stroke="black" d="M576.2,-210.41C529.75,-190.63 592.1,-64 525.5,-64"/>
<polygon fill="black" stroke="black" points="582.63,-211.58 589.86,-216.54 586.56,-212.29 590.5,-213 590.5,-213 590.5,-213 586.56,-212.29 591.14,-209.46 582.63,-211.58 582.63,-211.58"/>
<ellipse fill="none" stroke="black" cx="579.48" cy="-211.01" rx="3.2" ry="3.2"/>
</g>
</g>
</svg>
