<?xml version="1.0" encoding="UTF-8" standalone="no"?>
<!DOCTYPE svg PUBLIC "-//W3C//DTD SVG 1.1//EN"
 "http://www.w3.org/Graphics/SVG/1.1/DTD/svg11.dtd">
<!-- Generated by graphviz version 2.43.0 (0)
 -->
<!-- Title: twoDegreesRelationshipsDiagram Pages: 1 -->
<svg width="992pt" height="502pt"
 viewBox="0.00 0.00 992.00 502.00" xmlns="http://www.w3.org/2000/svg" xmlns:xlink="http://www.w3.org/1999/xlink">
<g id="graph0" class="graph" transform="scale(1 1) rotate(0) translate(4 498)">
<title>twoDegreesRelationshipsDiagram</title>
<polygon fill="#ffffff" stroke="transparent" points="-4,4 -4,-498 988,-498 988,4 -4,4"/>
<text text-anchor="middle" x="71.5" y="-7.2" font-family="Helvetica,sans-Serif" font-size="11.00">Generated by SchemaSpy</text>
<!-- syst_application_contexts -->
<g id="node1" class="node">
<title>syst_application_contexts</title>
<g id="a_node1"><a xlink:href="../../tables/syst_application_contexts.html" xlink:title="syst_application_contexts" target="_top">
<polygon fill="#ffffff" stroke="transparent" points="417,-344 417,-490 630,-490 630,-344 417,-344"/>
<polygon fill="#f5f5f5" stroke="transparent" points="417.5,-468 417.5,-490 630.5,-490 630.5,-468 417.5,-468"/>
<polygon fill="none" stroke="black" points="417.5,-468 417.5,-490 630.5,-490 630.5,-468 417.5,-468"/>
<text text-anchor="start" x="422.5" y="-477.2" font-family="Helvetica,sans-Serif" font-weight="bold" font-size="11.00">syst_application_contexts</text>
<text text-anchor="start" x="595.5" y="-476.2" font-family="Helvetica,sans-Serif" font-size="11.00">[table]</text>
<polygon fill="none" stroke="black" points="417.5,-446 417.5,-468 630.5,-468 630.5,-446 417.5,-446"/>
<image xlink:href="../../images/primaryKeys.png" width="11px" height="12px" preserveAspectRatio="xMinYMin meet" x="422.5" y="-463"/>
<text text-anchor="start" x="447.5" y="-454.2" font-family="Helvetica,sans-Serif" font-size="11.00">id</text>
<polygon fill="#ffffff" stroke="transparent" points="417.5,-424 417.5,-446 630.5,-446 630.5,-424 417.5,-424"/>
<polygon fill="none" stroke="black" points="417.5,-424 417.5,-446 630.5,-446 630.5,-424 417.5,-424"/>
<text text-anchor="start" x="447.5" y="-432.2" font-family="Helvetica,sans-Serif" font-size="11.00">internal_name</text>
<polygon fill="#ffffff" stroke="transparent" points="417.5,-402 417.5,-424 630.5,-424 630.5,-402 417.5,-402"/>
<polygon fill="none" stroke="black" points="417.5,-402 417.5,-424 630.5,-424 630.5,-402 417.5,-402"/>
<text text-anchor="start" x="447.5" y="-410.2" font-family="Helvetica,sans-Serif" font-size="11.00">display_name</text>
<polygon fill="none" stroke="black" points="417.5,-380 417.5,-402 630.5,-402 630.5,-380 417.5,-380"/>
<image xlink:href="../../images/foreignKeys.png" width="11px" height="12px" preserveAspectRatio="xMinYMin meet" x="422.5" y="-397"/>
<text text-anchor="start" x="447.5" y="-388.2" font-family="Helvetica,sans-Serif" font-size="11.00">application_id</text>
<polygon fill="none" stroke="black" points="417.5,-362 417.5,-380 630.5,-380 630.5,-362 417.5,-362"/>
<text text-anchor="start" x="420.5" y="-368.2" font-family="Helvetica,sans-Serif" font-size="11.00">...</text>
<polygon fill="#ffffff" stroke="transparent" points="417.5,-344 417.5,-362 517.5,-362 517.5,-344 417.5,-344"/>
<polygon fill="none" stroke="black" points="417.5,-344 417.5,-362 517.5,-362 517.5,-344 417.5,-344"/>
<text text-anchor="start" x="420.5" y="-350.2" font-family="Helvetica,sans-Serif" font-size="11.00">&lt; 1</text>
<polygon fill="#ffffff" stroke="transparent" points="517.5,-344 517.5,-362 569.5,-362 569.5,-344 517.5,-344"/>
<polygon fill="none" stroke="black" points="517.5,-344 517.5,-362 569.5,-362 569.5,-344 517.5,-344"/>
<text text-anchor="start" x="559.5" y="-350.2" font-family="Helvetica,sans-Serif" font-size="11.00"> &#160;</text>
<polygon fill="#ffffff" stroke="transparent" points="569.5,-344 569.5,-362 630.5,-362 630.5,-344 569.5,-344"/>
<polygon fill="none" stroke="black" points="569.5,-344 569.5,-362 630.5,-362 630.5,-344 569.5,-344"/>
<text text-anchor="start" x="611.5" y="-350.2" font-family="Helvetica,sans-Serif" font-size="11.00">2 &gt;</text>
</a>
</g>
</g>
<!-- syst_applications -->
<g id="node2" class="node">
<title>syst_applications</title>
<g id="a_node2"><a xlink:href="../../tables/syst_applications.html" xlink:title="syst_applications" target="_top">
<polygon fill="#ffffff" stroke="transparent" points="212,-297 212,-355 368,-355 368,-297 212,-297"/>
<polygon fill="#f5f5f5" stroke="transparent" points="212,-333 212,-355 368,-355 368,-333 212,-333"/>
<polygon fill="none" stroke="black" points="212,-333 212,-355 368,-355 368,-333 212,-333"/>
<text text-anchor="start" x="217" y="-342.2" font-family="Helvetica,sans-Serif" font-weight="bold" font-size="11.00">syst_applications</text>
<text text-anchor="start" x="333" y="-341.2" font-family="Helvetica,sans-Serif" font-size="11.00">[table]</text>
<polygon fill="none" stroke="black" points="212,-315 212,-333 368,-333 368,-315 212,-315"/>
<text text-anchor="start" x="215" y="-321.2" font-family="Helvetica,sans-Serif" font-size="11.00">...</text>
<polygon fill="#ffffff" stroke="transparent" points="212,-297 212,-315 279,-315 279,-297 212,-297"/>
<polygon fill="none" stroke="black" points="212,-297 212,-315 279,-315 279,-297 212,-297"/>
<text text-anchor="start" x="215" y="-303.2" font-family="Helvetica,sans-Serif" font-size="11.00"> &#160;</text>
<polygon fill="#ffffff" stroke="transparent" points="279,-297 279,-315 319,-315 319,-297 279,-297"/>
<polygon fill="none" stroke="black" points="279,-297 279,-315 319,-315 319,-297 279,-297"/>
<text text-anchor="start" x="309" y="-303.2" font-family="Helvetica,sans-Serif" font-size="11.00"> &#160;</text>
<polygon fill="#ffffff" stroke="transparent" points="319,-297 319,-315 368,-315 368,-297 319,-297"/>
<polygon fill="none" stroke="black" points="319,-297 319,-315 368,-315 368,-297 319,-297"/>
<text text-anchor="start" x="349" y="-303.2" font-family="Helvetica,sans-Serif" font-size="11.00">3 &gt;</text>
</a>
</g>
</g>
<!-- syst_application_contexts&#45;&gt;syst_applications -->
<g id="edge1" class="edge">
<title>syst_application_contexts:w&#45;&gt;syst_applications:e</title>
<path fill="none" stroke="black" d="M402.54,-385.74C386.93,-369.95 399.23,-324 369,-324"/>
<polygon fill="black" stroke="black" points="409.01,-388.18 415.23,-394.37 412.76,-389.59 416.5,-391 416.5,-391 416.5,-391 412.76,-389.59 417.77,-387.63 409.01,-388.18 409.01,-388.18"/>
<ellipse fill="none" stroke="black" cx="406.02" cy="-387.05" rx="3.2" ry="3.2"/>
</g>
<!-- syst_instance_contexts -->
<g id="node3" class="node">
<title>syst_instance_contexts</title>
<g id="a_node3"><a xlink:href="../../tables/syst_instance_contexts.html" xlink:title="syst_instance_contexts" target="_top">
<polygon fill="#ffffff" stroke="transparent" points="679,-37 679,-389 976,-389 976,-37 679,-37"/>
<polygon fill="#f5f5f5" stroke="transparent" points="681.5,-365 681.5,-387 974.5,-387 974.5,-365 681.5,-365"/>
<polygon fill="none" stroke="black" points="681.5,-365 681.5,-387 974.5,-387 974.5,-365 681.5,-365"/>
<text text-anchor="start" x="686.5" y="-374.2" font-family="Helvetica,sans-Serif" font-weight="bold" font-size="11.00">syst_instance_contexts</text>
<text text-anchor="start" x="939.5" y="-373.2" font-family="Helvetica,sans-Serif" font-size="11.00">[table]</text>
<polygon fill="none" stroke="black" points="681.5,-343 681.5,-365 875.5,-365 875.5,-343 681.5,-343"/>
<image xlink:href="../../images/primaryKeys.png" width="11px" height="12px" preserveAspectRatio="xMinYMin meet" x="686.5" y="-360"/>
<text text-anchor="start" x="701.5" y="-351.2" font-family="Helvetica,sans-Serif" font-size="11.00">id</text>
<polygon fill="none" stroke="black" points="875.5,-343 875.5,-365 974.5,-365 974.5,-343 875.5,-343"/>
<text text-anchor="start" x="878.5" y="-351.2" font-family="Helvetica,sans-Serif" font-size="11.00">uuid[2147483647]</text>
<polygon fill="#ffffff" stroke="transparent" points="681.5,-321 681.5,-343 875.5,-343 875.5,-321 681.5,-321"/>
<polygon fill="none" stroke="black" points="681.5,-321 681.5,-343 875.5,-343 875.5,-321 681.5,-321"/>
<text text-anchor="start" x="701.5" y="-329.2" font-family="Helvetica,sans-Serif" font-size="11.00">internal_name</text>
<polygon fill="none" stroke="black" points="875.5,-321 875.5,-343 974.5,-343 974.5,-321 875.5,-321"/>
<text text-anchor="start" x="878.5" y="-329.2" font-family="Helvetica,sans-Serif" font-size="11.00">text[2147483647]</text>
<polygon fill="none" stroke="black" points="681.5,-299 681.5,-321 875.5,-321 875.5,-299 681.5,-299"/>
<image xlink:href="../../images/foreignKeys.png" width="11px" height="12px" preserveAspectRatio="xMinYMin meet" x="686.5" y="-316"/>
<text text-anchor="start" x="701.5" y="-307.2" font-family="Helvetica,sans-Serif" font-size="11.00">instance_id</text>
<polygon fill="none" stroke="black" points="875.5,-299 875.5,-321 974.5,-321 974.5,-299 875.5,-299"/>
<text text-anchor="start" x="878.5" y="-307.2" font-family="Helvetica,sans-Serif" font-size="11.00">uuid[2147483647]</text>
<polygon fill="none" stroke="black" points="681.5,-277 681.5,-299 875.5,-299 875.5,-277 681.5,-277"/>
<image xlink:href="../../images/foreignKeys.png" width="11px" height="12px" preserveAspectRatio="xMinYMin meet" x="686.5" y="-294"/>
<text text-anchor="start" x="701.5" y="-285.2" font-family="Helvetica,sans-Serif" font-size="11.00">application_context_id</text>
<polygon fill="none" stroke="black" points="875.5,-277 875.5,-299 974.5,-299 974.5,-277 875.5,-277"/>
<text text-anchor="start" x="878.5" y="-285.2" font-family="Helvetica,sans-Serif" font-size="11.00">uuid[2147483647]</text>
<polygon fill="none" stroke="black" points="681.5,-255 681.5,-277 875.5,-277 875.5,-255 681.5,-255"/>
<text text-anchor="start" x="701.5" y="-263.2" font-family="Helvetica,sans-Serif" font-size="11.00">start_context</text>
<polygon fill="none" stroke="black" points="875.5,-255 875.5,-277 974.5,-277 974.5,-255 875.5,-255"/>
<text text-anchor="start" x="878.5" y="-263.2" font-family="Helvetica,sans-Serif" font-size="11.00">bool[1]</text>
<polygon fill="none" stroke="black" points="681.5,-233 681.5,-255 875.5,-255 875.5,-233 681.5,-233"/>
<text text-anchor="start" x="701.5" y="-241.2" font-family="Helvetica,sans-Serif" font-size="11.00">db_pool_size</text>
<polygon fill="none" stroke="black" points="875.5,-233 875.5,-255 974.5,-255 974.5,-233 875.5,-233"/>
<text text-anchor="start" x="878.5" y="-241.2" font-family="Helvetica,sans-Serif" font-size="11.00">int4[10]</text>
<polygon fill="none" stroke="black" points="681.5,-211 681.5,-233 875.5,-233 875.5,-211 681.5,-211"/>
<text text-anchor="start" x="701.5" y="-219.2" font-family="Helvetica,sans-Serif" font-size="11.00">context_code</text>
<polygon fill="none" stroke="black" points="875.5,-211 875.5,-233 974.5,-233 974.5,-211 875.5,-211"/>
<text text-anchor="start" x="878.5" y="-219.2" font-family="Helvetica,sans-Serif" font-size="11.00">bytea[2147483647]</text>
<polygon fill="none" stroke="black" points="681.5,-189 681.5,-211 875.5,-211 875.5,-189 681.5,-189"/>
<text text-anchor="start" x="701.5" y="-197.2" font-family="Helvetica,sans-Serif" font-size="11.00">diag_timestamp_created</text>
<polygon fill="none" stroke="black" points="875.5,-189 875.5,-211 974.5,-211 974.5,-189 875.5,-189"/>
<text text-anchor="start" x="878.5" y="-197.2" font-family="Helvetica,sans-Serif" font-size="11.00">timestamptz[35,6]</text>
<polygon fill="none" stroke="black" points="681.5,-167 681.5,-189 875.5,-189 875.5,-167 681.5,-167"/>
<text text-anchor="start" x="701.5" y="-175.2" font-family="Helvetica,sans-Serif" font-size="11.00">diag_role_created</text>
<polygon fill="none" stroke="black" points="875.5,-167 875.5,-189 974.5,-189 974.5,-167 875.5,-167"/>
<text text-anchor="start" x="878.5" y="-175.2" font-family="Helvetica,sans-Serif" font-size="11.00">text[2147483647]</text>
<polygon fill="none" stroke="black" points="681.5,-145 681.5,-167 875.5,-167 875.5,-145 681.5,-145"/>
<text text-anchor="start" x="701.5" y="-153.2" font-family="Helvetica,sans-Serif" font-size="11.00">diag_timestamp_modified</text>
<polygon fill="none" stroke="black" points="875.5,-145 875.5,-167 974.5,-167 974.5,-145 875.5,-145"/>
<text text-anchor="start" x="878.5" y="-153.2" font-family="Helvetica,sans-Serif" font-size="11.00">timestamptz[35,6]</text>
<polygon fill="none" stroke="black" points="681.5,-123 681.5,-145 875.5,-145 875.5,-123 681.5,-123"/>
<text text-anchor="start" x="701.5" y="-131.2" font-family="Helvetica,sans-Serif" font-size="11.00">diag_wallclock_modified</text>
<polygon fill="none" stroke="black" points="875.5,-123 875.5,-145 974.5,-145 974.5,-123 875.5,-123"/>
<text text-anchor="start" x="878.5" y="-131.2" font-family="Helvetica,sans-Serif" font-size="11.00">timestamptz[35,6]</text>
<polygon fill="none" stroke="black" points="681.5,-101 681.5,-123 875.5,-123 875.5,-101 681.5,-101"/>
<text text-anchor="start" x="701.5" y="-109.2" font-family="Helvetica,sans-Serif" font-size="11.00">diag_role_modified</text>
<polygon fill="none" stroke="black" points="875.5,-101 875.5,-123 974.5,-123 974.5,-101 875.5,-101"/>
<text text-anchor="start" x="878.5" y="-109.2" font-family="Helvetica,sans-Serif" font-size="11.00">text[2147483647]</text>
<polygon fill="none" stroke="black" points="681.5,-79 681.5,-101 875.5,-101 875.5,-79 681.5,-79"/>
<text text-anchor="start" x="701.5" y="-87.2" font-family="Helvetica,sans-Serif" font-size="11.00">diag_row_version</text>
<polygon fill="none" stroke="black" points="875.5,-79 875.5,-101 974.5,-101 974.5,-79 875.5,-79"/>
<text text-anchor="start" x="878.5" y="-87.2" font-family="Helvetica,sans-Serif" font-size="11.00">int8[19]</text>
<polygon fill="none" stroke="black" points="681.5,-57 681.5,-79 875.5,-79 875.5,-57 681.5,-57"/>
<text text-anchor="start" x="701.5" y="-65.2" font-family="Helvetica,sans-Serif" font-size="11.00">diag_update_count</text>
<polygon fill="none" stroke="black" points="875.5,-57 875.5,-79 974.5,-79 974.5,-57 875.5,-57"/>
<text text-anchor="start" x="878.5" y="-65.2" font-family="Helvetica,sans-Serif" font-size="11.00">int8[19]</text>
<polygon fill="#ffffff" stroke="transparent" points="681.5,-39 681.5,-57 782.5,-57 782.5,-39 681.5,-39"/>
<polygon fill="none" stroke="black" points="681.5,-39 681.5,-57 782.5,-57 782.5,-39 681.5,-39"/>
<text text-anchor="start" x="684.5" y="-45.2" font-family="Helvetica,sans-Serif" font-size="11.00">&lt; 2</text>
<polygon fill="#ffffff" stroke="transparent" points="782.5,-39 782.5,-57 875.5,-57 875.5,-39 782.5,-39"/>
<polygon fill="none" stroke="black" points="782.5,-39 782.5,-57 875.5,-57 875.5,-39 782.5,-39"/>
<text text-anchor="start" x="865.5" y="-45.2" font-family="Helvetica,sans-Serif" font-size="11.00"> &#160;</text>
<polygon fill="#ffffff" stroke="transparent" points="875.5,-39 875.5,-57 974.5,-57 974.5,-39 875.5,-39"/>
<polygon fill="none" stroke="black" points="875.5,-39 875.5,-57 974.5,-57 974.5,-39 875.5,-39"/>
<text text-anchor="start" x="955.5" y="-45.2" font-family="Helvetica,sans-Serif" font-size="11.00">0 &gt;</text>
<polygon fill="none" stroke="black" stroke-width="2" points="680,-38 680,-388 975,-388 975,-38 680,-38"/>
</a>
</g>
</g>
<!-- syst_instance_contexts&#45;&gt;syst_application_contexts -->
<g id="edge2" class="edge">
<title>syst_instance_contexts:w&#45;&gt;syst_application_contexts:e</title>
<path fill="none" stroke="black" d="M666.31,-290.52C616.85,-311.54 704.05,-457 631.5,-457"/>
<polygon fill="black" stroke="black" points="672.62,-289.4 681.13,-291.54 676.56,-288.7 680.5,-288 680.5,-288 680.5,-288 676.56,-288.7 679.87,-284.46 672.62,-289.4 672.62,-289.4"/>
<ellipse fill="none" stroke="black" cx="669.47" cy="-289.96" rx="3.2" ry="3.2"/>
</g>
<!-- syst_instances -->
<g id="node4" class="node">
<title>syst_instances</title>
<g id="a_node4"><a xlink:href="../../tables/syst_instances.html" xlink:title="syst_instances" target="_top">
<polygon fill="#ffffff" stroke="transparent" points="426.5,-89 426.5,-323 620.5,-323 620.5,-89 426.5,-89"/>
<polygon fill="#f5f5f5" stroke="transparent" points="426.5,-301 426.5,-323 620.5,-323 620.5,-301 426.5,-301"/>
<polygon fill="none" stroke="black" points="426.5,-301 426.5,-323 620.5,-323 620.5,-301 426.5,-301"/>
<text text-anchor="start" x="431.5" y="-310.2" font-family="Helvetica,sans-Serif" font-weight="bold" font-size="11.00">syst_instances</text>
<text text-anchor="start" x="585.5" y="-309.2" font-family="Helvetica,sans-Serif" font-size="11.00">[table]</text>
<polygon fill="none" stroke="black" points="426.5,-279 426.5,-301 620.5,-301 620.5,-279 426.5,-279"/>
<image xlink:href="../../images/primaryKeys.png" width="11px" height="12px" preserveAspectRatio="xMinYMin meet" x="431.5" y="-296"/>
<text text-anchor="start" x="446.5" y="-287.2" font-family="Helvetica,sans-Serif" font-size="11.00">id</text>
<polygon fill="#ffffff" stroke="transparent" points="426.5,-257 426.5,-279 620.5,-279 620.5,-257 426.5,-257"/>
<polygon fill="none" stroke="black" points="426.5,-257 426.5,-279 620.5,-279 620.5,-257 426.5,-257"/>
<text text-anchor="start" x="446.5" y="-265.2" font-family="Helvetica,sans-Serif" font-size="11.00">internal_name</text>
<polygon fill="#ffffff" stroke="transparent" points="426.5,-235 426.5,-257 620.5,-257 620.5,-235 426.5,-235"/>
<polygon fill="none" stroke="black" points="426.5,-235 426.5,-257 620.5,-257 620.5,-235 426.5,-235"/>
<text text-anchor="start" x="446.5" y="-243.2" font-family="Helvetica,sans-Serif" font-size="11.00">display_name</text>
<polygon fill="none" stroke="black" points="426.5,-213 426.5,-235 620.5,-235 620.5,-213 426.5,-213"/>
<image xlink:href="../../images/foreignKeys.png" width="11px" height="12px" preserveAspectRatio="xMinYMin meet" x="431.5" y="-230"/>
<text text-anchor="start" x="446.5" y="-221.2" font-family="Helvetica,sans-Serif" font-size="11.00">application_id</text>
<polygon fill="none" stroke="black" points="426.5,-191 426.5,-213 620.5,-213 620.5,-191 426.5,-191"/>
<image xlink:href="../../images/foreignKeys.png" width="11px" height="12px" preserveAspectRatio="xMinYMin meet" x="431.5" y="-208"/>
<text text-anchor="start" x="446.5" y="-199.2" font-family="Helvetica,sans-Serif" font-size="11.00">instance_type_id</text>
<polygon fill="none" stroke="black" points="426.5,-169 426.5,-191 620.5,-191 620.5,-169 426.5,-169"/>
<image xlink:href="../../images/foreignKeys.png" width="11px" height="12px" preserveAspectRatio="xMinYMin meet" x="431.5" y="-186"/>
<text text-anchor="start" x="446.5" y="-177.2" font-family="Helvetica,sans-Serif" font-size="11.00">instance_state_id</text>
<polygon fill="none" stroke="black" points="426.5,-147 426.5,-169 620.5,-169 620.5,-147 426.5,-147"/>
<image xlink:href="../../images/foreignKeys.png" width="11px" height="12px" preserveAspectRatio="xMinYMin meet" x="431.5" y="-164"/>
<text text-anchor="start" x="446.5" y="-155.2" font-family="Helvetica,sans-Serif" font-size="11.00">owner_id</text>
<polygon fill="none" stroke="black" points="426.5,-125 426.5,-147 620.5,-147 620.5,-125 426.5,-125"/>
<image xlink:href="../../images/foreignKeys.png" width="11px" height="12px" preserveAspectRatio="xMinYMin meet" x="431.5" y="-142"/>
<text text-anchor="start" x="446.5" y="-133.2" font-family="Helvetica,sans-Serif" font-size="11.00">owning_instance_id</text>
<polygon fill="none" stroke="black" points="426.5,-107 426.5,-125 620.5,-125 620.5,-107 426.5,-107"/>
<text text-anchor="start" x="429.5" y="-113.2" font-family="Helvetica,sans-Serif" font-size="11.00">...</text>
<polygon fill="#ffffff" stroke="transparent" points="426.5,-89 426.5,-107 516.5,-107 516.5,-89 426.5,-89"/>
<polygon fill="none" stroke="black" points="426.5,-89 426.5,-107 516.5,-107 516.5,-89 426.5,-89"/>
<text text-anchor="start" x="429.5" y="-95.2" font-family="Helvetica,sans-Serif" font-size="11.00">&lt; 5</text>
<polygon fill="#ffffff" stroke="transparent" points="516.5,-89 516.5,-107 563.5,-107 563.5,-89 516.5,-89"/>
<polygon fill="none" stroke="black" points="516.5,-89 516.5,-107 563.5,-107 563.5,-89 516.5,-89"/>
<text text-anchor="start" x="553.5" y="-95.2" font-family="Helvetica,sans-Serif" font-size="11.00"> &#160;</text>
<polygon fill="#ffffff" stroke="transparent" points="563.5,-89 563.5,-107 620.5,-107 620.5,-89 563.5,-89"/>
<polygon fill="none" stroke="black" points="563.5,-89 563.5,-107 620.5,-107 620.5,-89 563.5,-89"/>
<text text-anchor="start" x="601.5" y="-95.2" font-family="Helvetica,sans-Serif" font-size="11.00">2 &gt;</text>
</a>
</g>
</g>
<!-- syst_instance_contexts&#45;&gt;syst_instances -->
<g id="edge3" class="edge">
<title>syst_instance_contexts:w&#45;&gt;syst_instances:e</title>
<path fill="none" stroke="black" d="M666.2,-307.86C650.35,-302.7 643.56,-290 621.5,-290"/>
<polygon fill="black" stroke="black" points="672.59,-308.82 679.97,-313.56 676.54,-309.41 680.5,-310 680.5,-310 680.5,-310 676.54,-309.41 681.03,-306.44 672.59,-308.82 672.59,-308.82"/>
<ellipse fill="none" stroke="black" cx="669.42" cy="-308.34" rx="3.2" ry="3.2"/>
</g>
<!-- syst_instances&#45;&gt;syst_applications -->
<g id="edge5" class="edge">
<title>syst_instances:w&#45;&gt;syst_applications:e</title>
<path fill="none" stroke="black" d="M411.22,-227.8C383.81,-246.06 414.07,-324 369,-324"/>
<polygon fill="black" stroke="black" points="417.77,-226.06 426.43,-227.48 421.63,-225.03 425.5,-224 425.5,-224 425.5,-224 421.63,-225.03 424.57,-220.52 417.77,-226.06 417.77,-226.06"/>
<ellipse fill="none" stroke="black" cx="414.68" cy="-226.88" rx="3.2" ry="3.2"/>
</g>
<!-- syst_enum_items -->
<g id="node6" class="node">
<title>syst_enum_items</title>
<g id="a_node6"><a xlink:href="../../tables/syst_enum_items.html" xlink:title="syst_enum_items" target="_top">
<polygon fill="#ffffff" stroke="transparent" points="8,-153 8,-211 163,-211 163,-153 8,-153"/>
<polygon fill="#f5f5f5" stroke="transparent" points="8.5,-189 8.5,-211 163.5,-211 163.5,-189 8.5,-189"/>
<polygon fill="none" stroke="black" points="8.5,-189 8.5,-211 163.5,-211 163.5,-189 8.5,-189"/>
<text text-anchor="start" x="13.5" y="-198.2" font-family="Helvetica,sans-Serif" font-weight="bold" font-size="11.00">syst_enum_items</text>
<text text-anchor="start" x="128.5" y="-197.2" font-family="Helvetica,sans-Serif" font-size="11.00">[table]</text>
<polygon fill="none" stroke="black" points="8.5,-171 8.5,-189 163.5,-189 163.5,-171 8.5,-171"/>
<text text-anchor="start" x="11.5" y="-177.2" font-family="Helvetica,sans-Serif" font-size="11.00">...</text>
<polygon fill="#ffffff" stroke="transparent" points="8.5,-153 8.5,-171 79.5,-171 79.5,-153 8.5,-153"/>
<polygon fill="none" stroke="black" points="8.5,-153 8.5,-171 79.5,-171 79.5,-153 8.5,-153"/>
<text text-anchor="start" x="11.5" y="-159.2" font-family="Helvetica,sans-Serif" font-size="11.00">&lt; 2</text>
<polygon fill="#ffffff" stroke="transparent" points="79.5,-153 79.5,-171 116.5,-171 116.5,-153 79.5,-153"/>
<polygon fill="none" stroke="black" points="79.5,-153 79.5,-171 116.5,-171 116.5,-153 79.5,-153"/>
<text text-anchor="start" x="106.5" y="-159.2" font-family="Helvetica,sans-Serif" font-size="11.00"> &#160;</text>
<polygon fill="#ffffff" stroke="transparent" points="116.5,-153 116.5,-171 163.5,-171 163.5,-153 116.5,-153"/>
<polygon fill="none" stroke="black" points="116.5,-153 116.5,-171 163.5,-171 163.5,-153 116.5,-153"/>
<text text-anchor="start" x="144.5" y="-159.2" font-family="Helvetica,sans-Serif" font-size="11.00">4 &gt;</text>
</a>
</g>
</g>
<!-- syst_instances&#45;&gt;syst_enum_items -->
<g id="edge6" class="edge">
<title>syst_instances:w&#45;&gt;syst_enum_items:e</title>
<path fill="none" stroke="black" d="M411.01,-180C306.85,-180 275.52,-180 164.5,-180"/>
<polygon fill="black" stroke="black" points="417.5,-180 425.5,-183.6 421.5,-180 425.5,-180 425.5,-180 425.5,-180 421.5,-180 425.5,-176.4 417.5,-180 417.5,-180"/>
<ellipse fill="none" stroke="black" cx="414.3" cy="-180" rx="3.2" ry="3.2"/>
</g>
<!-- syst_instances&#45;&gt;syst_enum_items -->
<g id="edge7" class="edge">
<title>syst_instances:w&#45;&gt;syst_enum_items:e</title>
<path fill="none" stroke="black" d="M411.03,-202.02C324.14,-202.24 296.52,-204.08 204,-190 186.1,-187.28 182.61,-180 164.5,-180"/>
<polygon fill="black" stroke="black" points="417.5,-202.01 425.5,-205.6 421.5,-202.01 425.5,-202 425.5,-202 425.5,-202 421.5,-202.01 425.5,-198.4 417.5,-202.01 417.5,-202.01"/>
<ellipse fill="none" stroke="black" cx="414.3" cy="-202.01" rx="3.2" ry="3.2"/>
</g>
<!-- syst_owners -->
<g id="node7" class="node">
<title>syst_owners</title>
<g id="a_node7"><a xlink:href="../../tables/syst_owners.html" xlink:title="syst_owners" target="_top">
<polygon fill="#ffffff" stroke="transparent" points="229,-98 229,-156 351,-156 351,-98 229,-98"/>
<polygon fill="#f5f5f5" stroke="transparent" points="229,-134 229,-156 351,-156 351,-134 229,-134"/>
<polygon fill="none" stroke="black" points="229,-134 229,-156 351,-156 351,-134 229,-134"/>
<text text-anchor="start" x="234" y="-143.2" font-family="Helvetica,sans-Serif" font-weight="bold" font-size="11.00">syst_owners</text>
<text text-anchor="start" x="316" y="-142.2" font-family="Helvetica,sans-Serif" font-size="11.00">[table]</text>
<polygon fill="none" stroke="black" points="229,-116 229,-134 351,-134 351,-116 229,-116"/>
<text text-anchor="start" x="232" y="-122.2" font-family="Helvetica,sans-Serif" font-size="11.00">...</text>
<polygon fill="#ffffff" stroke="transparent" points="229,-98 229,-116 283,-116 283,-98 229,-98"/>
<polygon fill="none" stroke="black" points="229,-98 229,-116 283,-116 283,-98 229,-98"/>
<text text-anchor="start" x="232" y="-104.2" font-family="Helvetica,sans-Serif" font-size="11.00">&lt; 1</text>
<polygon fill="#ffffff" stroke="transparent" points="283,-98 283,-116 312,-116 312,-98 283,-98"/>
<polygon fill="none" stroke="black" points="283,-98 283,-116 312,-116 312,-98 283,-98"/>
<text text-anchor="start" x="302" y="-104.2" font-family="Helvetica,sans-Serif" font-size="11.00"> &#160;</text>
<polygon fill="#ffffff" stroke="transparent" points="312,-98 312,-116 351,-116 351,-98 312,-98"/>
<polygon fill="none" stroke="black" points="312,-98 312,-116 351,-116 351,-98 312,-98"/>
<text text-anchor="start" x="332" y="-104.2" font-family="Helvetica,sans-Serif" font-size="11.00">1 &gt;</text>
</a>
</g>
</g>
<!-- syst_instances&#45;&gt;syst_owners -->
<g id="edge8" class="edge">
<title>syst_instances:w&#45;&gt;syst_owners:e</title>
<path fill="none" stroke="black" d="M410.94,-155.83C388.27,-148.49 382.21,-125 352,-125"/>
<polygon fill="black" stroke="black" points="417.59,-156.82 424.97,-161.56 421.54,-157.41 425.5,-158 425.5,-158 425.5,-158 421.54,-157.41 426.03,-154.44 417.59,-156.82 417.59,-156.82"/>
<ellipse fill="none" stroke="black" cx="414.42" cy="-156.35" rx="3.2" ry="3.2"/>
</g>
<!-- syst_instance_type_contexts -->
<g id="node5" class="node">
<title>syst_instance_type_contexts</title>
<g id="a_node5"><a xlink:href="../../tables/syst_instance_type_contexts.html" xlink:title="syst_instance_type_contexts" target="_top">
<polygon fill="#ffffff" stroke="transparent" points="712,-430 712,-488 943,-488 943,-430 712,-430"/>
<polygon fill="#f5f5f5" stroke="transparent" points="712.5,-466 712.5,-488 943.5,-488 943.5,-466 712.5,-466"/>
<polygon fill="none" stroke="black" points="712.5,-466 712.5,-488 943.5,-488 943.5,-466 712.5,-466"/>
<text text-anchor="start" x="717.5" y="-475.2" font-family="Helvetica,sans-Serif" font-weight="bold" font-size="11.00">syst_instance_type_contexts</text>
<text text-anchor="start" x="908.5" y="-474.2" font-family="Helvetica,sans-Serif" font-size="11.00">[table]</text>
<polygon fill="none" stroke="black" points="712.5,-448 712.5,-466 943.5,-466 943.5,-448 712.5,-448"/>
<text text-anchor="start" x="715.5" y="-454.2" font-family="Helvetica,sans-Serif" font-size="11.00">...</text>
<polygon fill="#ffffff" stroke="transparent" points="712.5,-430 712.5,-448 825.5,-448 825.5,-430 712.5,-430"/>
<polygon fill="none" stroke="black" points="712.5,-430 712.5,-448 825.5,-448 825.5,-430 712.5,-430"/>
<text text-anchor="start" x="715.5" y="-436.2" font-family="Helvetica,sans-Serif" font-size="11.00">&lt; 2</text>
<polygon fill="#ffffff" stroke="transparent" points="825.5,-430 825.5,-448 884.5,-448 884.5,-430 825.5,-430"/>
<polygon fill="none" stroke="black" points="825.5,-430 825.5,-448 884.5,-448 884.5,-430 825.5,-430"/>
<text text-anchor="start" x="874.5" y="-436.2" font-family="Helvetica,sans-Serif" font-size="11.00"> &#160;</text>
<polygon fill="#ffffff" stroke="transparent" points="884.5,-430 884.5,-448 943.5,-448 943.5,-430 884.5,-430"/>
<polygon fill="none" stroke="black" points="884.5,-430 884.5,-448 943.5,-448 943.5,-430 884.5,-430"/>
<text text-anchor="start" x="933.5" y="-436.2" font-family="Helvetica,sans-Serif" font-size="11.00"> &#160;</text>
</a>
</g>
</g>
<!-- syst_instance_type_contexts&#45;&gt;syst_application_contexts -->
<g id="edge4" class="edge">
<title>syst_instance_type_contexts:w&#45;&gt;syst_application_contexts:e</title>
<path fill="none" stroke="black" d="M696.92,-457C672.62,-457 661.64,-457 631.5,-457"/>
<polygon fill="black" stroke="black" points="703.5,-457 711.5,-460.6 707.5,-457 711.5,-457 711.5,-457 711.5,-457 707.5,-457 711.5,-453.4 703.5,-457 703.5,-457"/>
<ellipse fill="none" stroke="black" cx="700.3" cy="-457" rx="3.2" ry="3.2"/>
</g>
<!-- syst_owners&#45;&gt;syst_enum_items -->
<g id="edge9" class="edge">
<title>syst_owners:w&#45;&gt;syst_enum_items:e</title>
<path fill="none" stroke="black" d="M213.97,-128.44C192.94,-140.48 196.15,-180 164.5,-180"/>
<polygon fill="black" stroke="black" points="220.23,-126.91 228.86,-128.5 224.12,-125.95 228,-125 228,-125 228,-125 224.12,-125.95 227.14,-121.5 220.23,-126.91 220.23,-126.91"/>
<ellipse fill="none" stroke="black" cx="217.12" cy="-127.67" rx="3.2" ry="3.2"/>
</g>
</g>
</svg>
