<?xml version="1.0" encoding="UTF-8" standalone="no"?>
<!DOCTYPE svg PUBLIC "-//W3C//DTD SVG 1.1//EN"
 "http://www.w3.org/Graphics/SVG/1.1/DTD/svg11.dtd">
<!-- Generated by graphviz version 2.43.0 (0)
 -->
<!-- Title: twoDegreesRelationshipsDiagram Pages: 1 -->
<svg width="1104pt" height="595pt"
 viewBox="0.00 0.00 1104.00 595.00" xmlns="http://www.w3.org/2000/svg" xmlns:xlink="http://www.w3.org/1999/xlink">
<g id="graph0" class="graph" transform="scale(1 1) rotate(0) translate(4 591)">
<title>twoDegreesRelationshipsDiagram</title>
<polygon fill="#ffffff" stroke="transparent" points="-4,4 -4,-591 1100,-591 1100,4 -4,4"/>
<text text-anchor="middle" x="71.5" y="-7.2" font-family="Helvetica,sans-Serif" font-size="11.00">Generated by SchemaSpy</text>
<!-- syst_application_contexts -->
<g id="node1" class="node">
<title>syst_application_contexts</title>
<g id="a_node1"><a xlink:href="../../tables/syst_application_contexts.html" xlink:title="syst_application_contexts" target="_top">
<polygon fill="#ffffff" stroke="transparent" points="573.5,-292 573.5,-438 786.5,-438 786.5,-292 573.5,-292"/>
<polygon fill="#f5f5f5" stroke="transparent" points="574,-416 574,-438 787,-438 787,-416 574,-416"/>
<polygon fill="none" stroke="black" points="574,-416 574,-438 787,-438 787,-416 574,-416"/>
<text text-anchor="start" x="579" y="-425.2" font-family="Helvetica,sans-Serif" font-weight="bold" font-size="11.00">syst_application_contexts</text>
<text text-anchor="start" x="752" y="-424.2" font-family="Helvetica,sans-Serif" font-size="11.00">[table]</text>
<polygon fill="none" stroke="black" points="574,-394 574,-416 787,-416 787,-394 574,-394"/>
<image xlink:href="../../images/primaryKeys.png" width="11px" height="12px" preserveAspectRatio="xMinYMin meet" x="579" y="-411"/>
<text text-anchor="start" x="604" y="-402.2" font-family="Helvetica,sans-Serif" font-size="11.00">id</text>
<polygon fill="#ffffff" stroke="transparent" points="574,-372 574,-394 787,-394 787,-372 574,-372"/>
<polygon fill="none" stroke="black" points="574,-372 574,-394 787,-394 787,-372 574,-372"/>
<text text-anchor="start" x="604" y="-380.2" font-family="Helvetica,sans-Serif" font-size="11.00">internal_name</text>
<polygon fill="#ffffff" stroke="transparent" points="574,-350 574,-372 787,-372 787,-350 574,-350"/>
<polygon fill="none" stroke="black" points="574,-350 574,-372 787,-372 787,-350 574,-350"/>
<text text-anchor="start" x="604" y="-358.2" font-family="Helvetica,sans-Serif" font-size="11.00">display_name</text>
<polygon fill="none" stroke="black" points="574,-328 574,-350 787,-350 787,-328 574,-328"/>
<image xlink:href="../../images/foreignKeys.png" width="11px" height="12px" preserveAspectRatio="xMinYMin meet" x="579" y="-345"/>
<text text-anchor="start" x="604" y="-336.2" font-family="Helvetica,sans-Serif" font-size="11.00">application_id</text>
<polygon fill="none" stroke="black" points="574,-310 574,-328 787,-328 787,-310 574,-310"/>
<text text-anchor="start" x="577" y="-316.2" font-family="Helvetica,sans-Serif" font-size="11.00">...</text>
<polygon fill="#ffffff" stroke="transparent" points="574,-292 574,-310 674,-310 674,-292 574,-292"/>
<polygon fill="none" stroke="black" points="574,-292 574,-310 674,-310 674,-292 574,-292"/>
<text text-anchor="start" x="577" y="-298.2" font-family="Helvetica,sans-Serif" font-size="11.00">&lt; 1</text>
<polygon fill="#ffffff" stroke="transparent" points="674,-292 674,-310 726,-310 726,-292 674,-292"/>
<polygon fill="none" stroke="black" points="674,-292 674,-310 726,-310 726,-292 674,-292"/>
<text text-anchor="start" x="716" y="-298.2" font-family="Helvetica,sans-Serif" font-size="11.00"> &#160;</text>
<polygon fill="#ffffff" stroke="transparent" points="726,-292 726,-310 787,-310 787,-292 726,-292"/>
<polygon fill="none" stroke="black" points="726,-292 726,-310 787,-310 787,-292 726,-292"/>
<text text-anchor="start" x="768" y="-298.2" font-family="Helvetica,sans-Serif" font-size="11.00">2 &gt;</text>
</a>
</g>
</g>
<!-- syst_applications -->
<g id="node2" class="node">
<title>syst_applications</title>
<g id="a_node2"><a xlink:href="../../tables/syst_applications.html" xlink:title="syst_applications" target="_top">
<polygon fill="#ffffff" stroke="transparent" points="212,-179 212,-465 503,-465 503,-179 212,-179"/>
<polygon fill="#f5f5f5" stroke="transparent" points="214.5,-441 214.5,-463 501.5,-463 501.5,-441 214.5,-441"/>
<polygon fill="none" stroke="black" points="214.5,-441 214.5,-463 501.5,-463 501.5,-441 214.5,-441"/>
<text text-anchor="start" x="219.5" y="-450.2" font-family="Helvetica,sans-Serif" font-weight="bold" font-size="11.00">syst_applications</text>
<text text-anchor="start" x="466.5" y="-449.2" font-family="Helvetica,sans-Serif" font-size="11.00">[table]</text>
<polygon fill="none" stroke="black" points="214.5,-419 214.5,-441 408.5,-441 408.5,-419 214.5,-419"/>
<image xlink:href="../../images/primaryKeys.png" width="11px" height="12px" preserveAspectRatio="xMinYMin meet" x="219.5" y="-436"/>
<text text-anchor="start" x="234.5" y="-427.2" font-family="Helvetica,sans-Serif" font-size="11.00">id</text>
<polygon fill="none" stroke="black" points="408.5,-419 408.5,-441 501.5,-441 501.5,-419 408.5,-419"/>
<text text-anchor="start" x="411.5" y="-427.2" font-family="Helvetica,sans-Serif" font-size="11.00">uuid[2147483647]</text>
<polygon fill="#ffffff" stroke="transparent" points="214.5,-397 214.5,-419 408.5,-419 408.5,-397 214.5,-397"/>
<polygon fill="none" stroke="black" points="214.5,-397 214.5,-419 408.5,-419 408.5,-397 214.5,-397"/>
<text text-anchor="start" x="234.5" y="-405.2" font-family="Helvetica,sans-Serif" font-size="11.00">internal_name</text>
<polygon fill="none" stroke="black" points="408.5,-397 408.5,-419 501.5,-419 501.5,-397 408.5,-397"/>
<text text-anchor="start" x="411.5" y="-405.2" font-family="Helvetica,sans-Serif" font-size="11.00">text[2147483647]</text>
<polygon fill="#ffffff" stroke="transparent" points="214.5,-375 214.5,-397 408.5,-397 408.5,-375 214.5,-375"/>
<polygon fill="none" stroke="black" points="214.5,-375 214.5,-397 408.5,-397 408.5,-375 214.5,-375"/>
<text text-anchor="start" x="234.5" y="-383.2" font-family="Helvetica,sans-Serif" font-size="11.00">display_name</text>
<polygon fill="none" stroke="black" points="408.5,-375 408.5,-397 501.5,-397 501.5,-375 408.5,-375"/>
<text text-anchor="start" x="411.5" y="-383.2" font-family="Helvetica,sans-Serif" font-size="11.00">text[2147483647]</text>
<polygon fill="none" stroke="black" points="214.5,-353 214.5,-375 408.5,-375 408.5,-353 214.5,-353"/>
<text text-anchor="start" x="234.5" y="-361.2" font-family="Helvetica,sans-Serif" font-size="11.00">syst_description</text>
<polygon fill="none" stroke="black" points="408.5,-353 408.5,-375 501.5,-375 501.5,-353 408.5,-353"/>
<text text-anchor="start" x="411.5" y="-361.2" font-family="Helvetica,sans-Serif" font-size="11.00">text[2147483647]</text>
<polygon fill="none" stroke="black" points="214.5,-331 214.5,-353 408.5,-353 408.5,-331 214.5,-331"/>
<text text-anchor="start" x="234.5" y="-339.2" font-family="Helvetica,sans-Serif" font-size="11.00">diag_timestamp_created</text>
<polygon fill="none" stroke="black" points="408.5,-331 408.5,-353 501.5,-353 501.5,-331 408.5,-331"/>
<text text-anchor="start" x="411.5" y="-339.2" font-family="Helvetica,sans-Serif" font-size="11.00">timestamptz[35,6]</text>
<polygon fill="none" stroke="black" points="214.5,-309 214.5,-331 408.5,-331 408.5,-309 214.5,-309"/>
<text text-anchor="start" x="234.5" y="-317.2" font-family="Helvetica,sans-Serif" font-size="11.00">diag_role_created</text>
<polygon fill="none" stroke="black" points="408.5,-309 408.5,-331 501.5,-331 501.5,-309 408.5,-309"/>
<text text-anchor="start" x="411.5" y="-317.2" font-family="Helvetica,sans-Serif" font-size="11.00">text[2147483647]</text>
<polygon fill="none" stroke="black" points="214.5,-287 214.5,-309 408.5,-309 408.5,-287 214.5,-287"/>
<text text-anchor="start" x="234.5" y="-295.2" font-family="Helvetica,sans-Serif" font-size="11.00">diag_timestamp_modified</text>
<polygon fill="none" stroke="black" points="408.5,-287 408.5,-309 501.5,-309 501.5,-287 408.5,-287"/>
<text text-anchor="start" x="411.5" y="-295.2" font-family="Helvetica,sans-Serif" font-size="11.00">timestamptz[35,6]</text>
<polygon fill="none" stroke="black" points="214.5,-265 214.5,-287 408.5,-287 408.5,-265 214.5,-265"/>
<text text-anchor="start" x="234.5" y="-273.2" font-family="Helvetica,sans-Serif" font-size="11.00">diag_wallclock_modified</text>
<polygon fill="none" stroke="black" points="408.5,-265 408.5,-287 501.5,-287 501.5,-265 408.5,-265"/>
<text text-anchor="start" x="411.5" y="-273.2" font-family="Helvetica,sans-Serif" font-size="11.00">timestamptz[35,6]</text>
<polygon fill="none" stroke="black" points="214.5,-243 214.5,-265 408.5,-265 408.5,-243 214.5,-243"/>
<text text-anchor="start" x="234.5" y="-251.2" font-family="Helvetica,sans-Serif" font-size="11.00">diag_role_modified</text>
<polygon fill="none" stroke="black" points="408.5,-243 408.5,-265 501.5,-265 501.5,-243 408.5,-243"/>
<text text-anchor="start" x="411.5" y="-251.2" font-family="Helvetica,sans-Serif" font-size="11.00">text[2147483647]</text>
<polygon fill="none" stroke="black" points="214.5,-221 214.5,-243 408.5,-243 408.5,-221 214.5,-221"/>
<text text-anchor="start" x="234.5" y="-229.2" font-family="Helvetica,sans-Serif" font-size="11.00">diag_row_version</text>
<polygon fill="none" stroke="black" points="408.5,-221 408.5,-243 501.5,-243 501.5,-221 408.5,-221"/>
<text text-anchor="start" x="411.5" y="-229.2" font-family="Helvetica,sans-Serif" font-size="11.00">int8[19]</text>
<polygon fill="none" stroke="black" points="214.5,-199 214.5,-221 408.5,-221 408.5,-199 214.5,-199"/>
<text text-anchor="start" x="234.5" y="-207.2" font-family="Helvetica,sans-Serif" font-size="11.00">diag_update_count</text>
<polygon fill="none" stroke="black" points="408.5,-199 408.5,-221 501.5,-221 501.5,-199 408.5,-199"/>
<text text-anchor="start" x="411.5" y="-207.2" font-family="Helvetica,sans-Serif" font-size="11.00">int8[19]</text>
<polygon fill="#ffffff" stroke="transparent" points="214.5,-181 214.5,-199 315.5,-199 315.5,-181 214.5,-181"/>
<polygon fill="none" stroke="black" points="214.5,-181 214.5,-199 315.5,-199 315.5,-181 214.5,-181"/>
<text text-anchor="start" x="217.5" y="-187.2" font-family="Helvetica,sans-Serif" font-size="11.00">&lt; 0</text>
<polygon fill="#ffffff" stroke="transparent" points="315.5,-181 315.5,-199 408.5,-199 408.5,-181 315.5,-181"/>
<polygon fill="none" stroke="black" points="315.5,-181 315.5,-199 408.5,-199 408.5,-181 315.5,-181"/>
<text text-anchor="start" x="398.5" y="-187.2" font-family="Helvetica,sans-Serif" font-size="11.00"> &#160;</text>
<polygon fill="#ffffff" stroke="transparent" points="408.5,-181 408.5,-199 501.5,-199 501.5,-181 408.5,-181"/>
<polygon fill="none" stroke="black" points="408.5,-181 408.5,-199 501.5,-199 501.5,-181 408.5,-181"/>
<text text-anchor="start" x="482.5" y="-187.2" font-family="Helvetica,sans-Serif" font-size="11.00">3 &gt;</text>
<polygon fill="none" stroke="black" stroke-width="2" points="213,-180 213,-464 502,-464 502,-180 213,-180"/>
</a>
</g>
</g>
<!-- syst_application_contexts&#45;&gt;syst_applications -->
<g id="edge1" class="edge">
<title>syst_application_contexts:w&#45;&gt;syst_applications:e</title>
<path fill="none" stroke="black" d="M558.57,-342.24C527.98,-358.45 547.87,-430 502.5,-430"/>
<polygon fill="black" stroke="black" points="565.19,-340.75 573.79,-342.51 569.1,-339.88 573,-339 573,-339 573,-339 569.1,-339.88 572.21,-335.49 565.19,-340.75 565.19,-340.75"/>
<ellipse fill="none" stroke="black" cx="562.07" cy="-341.45" rx="3.2" ry="3.2"/>
</g>
<!-- syst_instance_contexts -->
<g id="node3" class="node">
<title>syst_instance_contexts</title>
<g id="a_node3"><a xlink:href="../../tables/syst_instance_contexts.html" xlink:title="syst_instance_contexts" target="_top">
<polygon fill="#ffffff" stroke="transparent" points="875,-316 875,-374 1070,-374 1070,-316 875,-316"/>
<polygon fill="#f5f5f5" stroke="transparent" points="875.5,-352 875.5,-374 1070.5,-374 1070.5,-352 875.5,-352"/>
<polygon fill="none" stroke="black" points="875.5,-352 875.5,-374 1070.5,-374 1070.5,-352 875.5,-352"/>
<text text-anchor="start" x="880.5" y="-361.2" font-family="Helvetica,sans-Serif" font-weight="bold" font-size="11.00">syst_instance_contexts</text>
<text text-anchor="start" x="1035.5" y="-360.2" font-family="Helvetica,sans-Serif" font-size="11.00">[table]</text>
<polygon fill="none" stroke="black" points="875.5,-334 875.5,-352 1070.5,-352 1070.5,-334 875.5,-334"/>
<text text-anchor="start" x="878.5" y="-340.2" font-family="Helvetica,sans-Serif" font-size="11.00">...</text>
<polygon fill="#ffffff" stroke="transparent" points="875.5,-316 875.5,-334 970.5,-334 970.5,-316 875.5,-316"/>
<polygon fill="none" stroke="black" points="875.5,-316 875.5,-334 970.5,-334 970.5,-316 875.5,-316"/>
<text text-anchor="start" x="878.5" y="-322.2" font-family="Helvetica,sans-Serif" font-size="11.00">&lt; 2</text>
<polygon fill="#ffffff" stroke="transparent" points="970.5,-316 970.5,-334 1020.5,-334 1020.5,-316 970.5,-316"/>
<polygon fill="none" stroke="black" points="970.5,-316 970.5,-334 1020.5,-334 1020.5,-316 970.5,-316"/>
<text text-anchor="start" x="1010.5" y="-322.2" font-family="Helvetica,sans-Serif" font-size="11.00"> &#160;</text>
<polygon fill="#ffffff" stroke="transparent" points="1020.5,-316 1020.5,-334 1070.5,-334 1070.5,-316 1020.5,-316"/>
<polygon fill="none" stroke="black" points="1020.5,-316 1020.5,-334 1070.5,-334 1070.5,-316 1020.5,-316"/>
<text text-anchor="start" x="1060.5" y="-322.2" font-family="Helvetica,sans-Serif" font-size="11.00"> &#160;</text>
</a>
</g>
</g>
<!-- syst_instance_contexts&#45;&gt;syst_application_contexts -->
<g id="edge2" class="edge">
<title>syst_instance_contexts:w&#45;&gt;syst_application_contexts:e</title>
<path fill="none" stroke="black" d="M859.98,-345.35C828.34,-356.68 829.76,-405 788,-405"/>
<polygon fill="black" stroke="black" points="866.6,-344.28 875.08,-346.55 870.55,-343.64 874.5,-343 874.5,-343 874.5,-343 870.55,-343.64 873.92,-339.45 866.6,-344.28 866.6,-344.28"/>
<ellipse fill="none" stroke="black" cx="863.44" cy="-344.79" rx="3.2" ry="3.2"/>
</g>
<!-- syst_instances -->
<g id="node4" class="node">
<title>syst_instances</title>
<g id="a_node4"><a xlink:href="../../tables/syst_instances.html" xlink:title="syst_instances" target="_top">
<polygon fill="#ffffff" stroke="transparent" points="583,-37 583,-271 777,-271 777,-37 583,-37"/>
<polygon fill="#f5f5f5" stroke="transparent" points="583,-249 583,-271 777,-271 777,-249 583,-249"/>
<polygon fill="none" stroke="black" points="583,-249 583,-271 777,-271 777,-249 583,-249"/>
<text text-anchor="start" x="588" y="-258.2" font-family="Helvetica,sans-Serif" font-weight="bold" font-size="11.00">syst_instances</text>
<text text-anchor="start" x="742" y="-257.2" font-family="Helvetica,sans-Serif" font-size="11.00">[table]</text>
<polygon fill="none" stroke="black" points="583,-227 583,-249 777,-249 777,-227 583,-227"/>
<image xlink:href="../../images/primaryKeys.png" width="11px" height="12px" preserveAspectRatio="xMinYMin meet" x="588" y="-244"/>
<text text-anchor="start" x="603" y="-235.2" font-family="Helvetica,sans-Serif" font-size="11.00">id</text>
<polygon fill="#ffffff" stroke="transparent" points="583,-205 583,-227 777,-227 777,-205 583,-205"/>
<polygon fill="none" stroke="black" points="583,-205 583,-227 777,-227 777,-205 583,-205"/>
<text text-anchor="start" x="603" y="-213.2" font-family="Helvetica,sans-Serif" font-size="11.00">internal_name</text>
<polygon fill="#ffffff" stroke="transparent" points="583,-183 583,-205 777,-205 777,-183 583,-183"/>
<polygon fill="none" stroke="black" points="583,-183 583,-205 777,-205 777,-183 583,-183"/>
<text text-anchor="start" x="603" y="-191.2" font-family="Helvetica,sans-Serif" font-size="11.00">display_name</text>
<polygon fill="none" stroke="black" points="583,-161 583,-183 777,-183 777,-161 583,-161"/>
<image xlink:href="../../images/foreignKeys.png" width="11px" height="12px" preserveAspectRatio="xMinYMin meet" x="588" y="-178"/>
<text text-anchor="start" x="603" y="-169.2" font-family="Helvetica,sans-Serif" font-size="11.00">application_id</text>
<polygon fill="none" stroke="black" points="583,-139 583,-161 777,-161 777,-139 583,-139"/>
<image xlink:href="../../images/foreignKeys.png" width="11px" height="12px" preserveAspectRatio="xMinYMin meet" x="588" y="-156"/>
<text text-anchor="start" x="603" y="-147.2" font-family="Helvetica,sans-Serif" font-size="11.00">instance_type_id</text>
<polygon fill="none" stroke="black" points="583,-117 583,-139 777,-139 777,-117 583,-117"/>
<image xlink:href="../../images/foreignKeys.png" width="11px" height="12px" preserveAspectRatio="xMinYMin meet" x="588" y="-134"/>
<text text-anchor="start" x="603" y="-125.2" font-family="Helvetica,sans-Serif" font-size="11.00">instance_state_id</text>
<polygon fill="none" stroke="black" points="583,-95 583,-117 777,-117 777,-95 583,-95"/>
<image xlink:href="../../images/foreignKeys.png" width="11px" height="12px" preserveAspectRatio="xMinYMin meet" x="588" y="-112"/>
<text text-anchor="start" x="603" y="-103.2" font-family="Helvetica,sans-Serif" font-size="11.00">owner_id</text>
<polygon fill="none" stroke="black" points="583,-73 583,-95 777,-95 777,-73 583,-73"/>
<image xlink:href="../../images/foreignKeys.png" width="11px" height="12px" preserveAspectRatio="xMinYMin meet" x="588" y="-90"/>
<text text-anchor="start" x="603" y="-81.2" font-family="Helvetica,sans-Serif" font-size="11.00">owning_instance_id</text>
<polygon fill="none" stroke="black" points="583,-55 583,-73 777,-73 777,-55 583,-55"/>
<text text-anchor="start" x="586" y="-61.2" font-family="Helvetica,sans-Serif" font-size="11.00">...</text>
<polygon fill="#ffffff" stroke="transparent" points="583,-37 583,-55 673,-55 673,-37 583,-37"/>
<polygon fill="none" stroke="black" points="583,-37 583,-55 673,-55 673,-37 583,-37"/>
<text text-anchor="start" x="586" y="-43.2" font-family="Helvetica,sans-Serif" font-size="11.00">&lt; 5</text>
<polygon fill="#ffffff" stroke="transparent" points="673,-37 673,-55 720,-55 720,-37 673,-37"/>
<polygon fill="none" stroke="black" points="673,-37 673,-55 720,-55 720,-37 673,-37"/>
<text text-anchor="start" x="710" y="-43.2" font-family="Helvetica,sans-Serif" font-size="11.00"> &#160;</text>
<polygon fill="#ffffff" stroke="transparent" points="720,-37 720,-55 777,-55 777,-37 720,-37"/>
<polygon fill="none" stroke="black" points="720,-37 720,-55 777,-55 777,-37 720,-37"/>
<text text-anchor="start" x="758" y="-43.2" font-family="Helvetica,sans-Serif" font-size="11.00">2 &gt;</text>
</a>
</g>
</g>
<!-- syst_instance_contexts&#45;&gt;syst_instances -->
<g id="edge3" class="edge">
<title>syst_instance_contexts:w&#45;&gt;syst_instances:e</title>
<path fill="none" stroke="black" d="M860.12,-340.81C815.63,-325.73 835.93,-238 778,-238"/>
<polygon fill="black" stroke="black" points="866.59,-341.79 873.96,-346.56 870.55,-342.4 874.5,-343 874.5,-343 874.5,-343 870.55,-342.4 875.04,-339.44 866.59,-341.79 866.59,-341.79"/>
<ellipse fill="none" stroke="black" cx="863.43" cy="-341.31" rx="3.2" ry="3.2"/>
</g>
<!-- syst_instances&#45;&gt;syst_applications -->
<g id="edge8" class="edge">
<title>syst_instances:w&#45;&gt;syst_applications:e</title>
<path fill="none" stroke="black" d="M568.63,-177.39C528.22,-214.44 557.34,-430 502.5,-430"/>
<polygon fill="black" stroke="black" points="574.58,-174.99 583.35,-175.34 578.29,-173.5 582,-172 582,-172 582,-172 578.29,-173.5 580.65,-168.66 574.58,-174.99 574.58,-174.99"/>
<ellipse fill="none" stroke="black" cx="571.61" cy="-176.19" rx="3.2" ry="3.2"/>
</g>
<!-- syst_enum_items -->
<g id="node6" class="node">
<title>syst_enum_items</title>
<g id="a_node6"><a xlink:href="../../tables/syst_enum_items.html" xlink:title="syst_enum_items" target="_top">
<polygon fill="#ffffff" stroke="transparent" points="8,-114 8,-172 163,-172 163,-114 8,-114"/>
<polygon fill="#f5f5f5" stroke="transparent" points="8.5,-150 8.5,-172 163.5,-172 163.5,-150 8.5,-150"/>
<polygon fill="none" stroke="black" points="8.5,-150 8.5,-172 163.5,-172 163.5,-150 8.5,-150"/>
<text text-anchor="start" x="13.5" y="-159.2" font-family="Helvetica,sans-Serif" font-weight="bold" font-size="11.00">syst_enum_items</text>
<text text-anchor="start" x="128.5" y="-158.2" font-family="Helvetica,sans-Serif" font-size="11.00">[table]</text>
<polygon fill="none" stroke="black" points="8.5,-132 8.5,-150 163.5,-150 163.5,-132 8.5,-132"/>
<text text-anchor="start" x="11.5" y="-138.2" font-family="Helvetica,sans-Serif" font-size="11.00">...</text>
<polygon fill="#ffffff" stroke="transparent" points="8.5,-114 8.5,-132 79.5,-132 79.5,-114 8.5,-114"/>
<polygon fill="none" stroke="black" points="8.5,-114 8.5,-132 79.5,-132 79.5,-114 8.5,-114"/>
<text text-anchor="start" x="11.5" y="-120.2" font-family="Helvetica,sans-Serif" font-size="11.00">&lt; 2</text>
<polygon fill="#ffffff" stroke="transparent" points="79.5,-114 79.5,-132 116.5,-132 116.5,-114 79.5,-114"/>
<polygon fill="none" stroke="black" points="79.5,-114 79.5,-132 116.5,-132 116.5,-114 79.5,-114"/>
<text text-anchor="start" x="106.5" y="-120.2" font-family="Helvetica,sans-Serif" font-size="11.00"> &#160;</text>
<polygon fill="#ffffff" stroke="transparent" points="116.5,-114 116.5,-132 163.5,-132 163.5,-114 116.5,-114"/>
<polygon fill="none" stroke="black" points="116.5,-114 116.5,-132 163.5,-132 163.5,-114 116.5,-114"/>
<text text-anchor="start" x="144.5" y="-120.2" font-family="Helvetica,sans-Serif" font-size="11.00">4 &gt;</text>
</a>
</g>
</g>
<!-- syst_instances&#45;&gt;syst_enum_items -->
<g id="edge9" class="edge">
<title>syst_instances:w&#45;&gt;syst_enum_items:e</title>
<path fill="none" stroke="black" d="M567.34,-128.03C393.77,-128.69 345.16,-141 164.5,-141"/>
<polygon fill="black" stroke="black" points="574,-128.02 582.01,-131.6 578,-128.01 582,-128 582,-128 582,-128 578,-128.01 581.99,-124.4 574,-128.02 574,-128.02"/>
<ellipse fill="none" stroke="black" cx="570.8" cy="-128.02" rx="3.2" ry="3.2"/>
</g>
<!-- syst_instances&#45;&gt;syst_enum_items -->
<g id="edge10" class="edge">
<title>syst_instances:w&#45;&gt;syst_enum_items:e</title>
<path fill="none" stroke="black" d="M567.55,-150C411.4,-150.09 366.93,-151.47 204,-144 186.41,-143.19 182.11,-141 164.5,-141"/>
<polygon fill="black" stroke="black" points="574,-150 582,-153.6 578,-150 582,-150 582,-150 582,-150 578,-150 582,-146.4 574,-150 574,-150"/>
<ellipse fill="none" stroke="black" cx="570.8" cy="-150" rx="3.2" ry="3.2"/>
</g>
<!-- syst_owners -->
<g id="node8" class="node">
<title>syst_owners</title>
<g id="a_node8"><a xlink:href="../../tables/syst_owners.html" xlink:title="syst_owners" target="_top">
<polygon fill="#ffffff" stroke="transparent" points="296.5,-46 296.5,-104 418.5,-104 418.5,-46 296.5,-46"/>
<polygon fill="#f5f5f5" stroke="transparent" points="296.5,-82 296.5,-104 418.5,-104 418.5,-82 296.5,-82"/>
<polygon fill="none" stroke="black" points="296.5,-82 296.5,-104 418.5,-104 418.5,-82 296.5,-82"/>
<text text-anchor="start" x="301.5" y="-91.2" font-family="Helvetica,sans-Serif" font-weight="bold" font-size="11.00">syst_owners</text>
<text text-anchor="start" x="383.5" y="-90.2" font-family="Helvetica,sans-Serif" font-size="11.00">[table]</text>
<polygon fill="none" stroke="black" points="296.5,-64 296.5,-82 418.5,-82 418.5,-64 296.5,-64"/>
<text text-anchor="start" x="299.5" y="-70.2" font-family="Helvetica,sans-Serif" font-size="11.00">...</text>
<polygon fill="#ffffff" stroke="transparent" points="296.5,-46 296.5,-64 350.5,-64 350.5,-46 296.5,-46"/>
<polygon fill="none" stroke="black" points="296.5,-46 296.5,-64 350.5,-64 350.5,-46 296.5,-46"/>
<text text-anchor="start" x="299.5" y="-52.2" font-family="Helvetica,sans-Serif" font-size="11.00">&lt; 1</text>
<polygon fill="#ffffff" stroke="transparent" points="350.5,-46 350.5,-64 379.5,-64 379.5,-46 350.5,-46"/>
<polygon fill="none" stroke="black" points="350.5,-46 350.5,-64 379.5,-64 379.5,-46 350.5,-46"/>
<text text-anchor="start" x="369.5" y="-52.2" font-family="Helvetica,sans-Serif" font-size="11.00"> &#160;</text>
<polygon fill="#ffffff" stroke="transparent" points="379.5,-46 379.5,-64 418.5,-64 418.5,-46 379.5,-46"/>
<polygon fill="none" stroke="black" points="379.5,-46 379.5,-64 418.5,-64 418.5,-46 379.5,-46"/>
<text text-anchor="start" x="399.5" y="-52.2" font-family="Helvetica,sans-Serif" font-size="11.00">1 &gt;</text>
</a>
</g>
</g>
<!-- syst_instances&#45;&gt;syst_owners -->
<g id="edge11" class="edge">
<title>syst_instances:w&#45;&gt;syst_owners:e</title>
<path fill="none" stroke="black" d="M567.28,-105.53C505.89,-101.52 488.01,-73 419.5,-73"/>
<polygon fill="black" stroke="black" points="574,-105.75 581.89,-109.6 578,-105.87 582,-106 582,-106 582,-106 578,-105.87 582.11,-102.4 574,-105.75 574,-105.75"/>
<ellipse fill="none" stroke="black" cx="570.81" cy="-105.65" rx="3.2" ry="3.2"/>
</g>
<!-- syst_instance_type_applications -->
<g id="node5" class="node">
<title>syst_instance_type_applications</title>
<g id="a_node5"><a xlink:href="../../tables/syst_instance_type_applications.html" xlink:title="syst_instance_type_applications" target="_top">
<polygon fill="#ffffff" stroke="transparent" points="552,-459 552,-583 808,-583 808,-459 552,-459"/>
<polygon fill="#f5f5f5" stroke="transparent" points="552,-561 552,-583 808,-583 808,-561 552,-561"/>
<polygon fill="none" stroke="black" points="552,-561 552,-583 808,-583 808,-561 552,-561"/>
<text text-anchor="start" x="557" y="-570.2" font-family="Helvetica,sans-Serif" font-weight="bold" font-size="11.00">syst_instance_type_applications</text>
<text text-anchor="start" x="773" y="-569.2" font-family="Helvetica,sans-Serif" font-size="11.00">[table]</text>
<polygon fill="none" stroke="black" points="552,-539 552,-561 808,-561 808,-539 552,-539"/>
<image xlink:href="../../images/primaryKeys.png" width="11px" height="12px" preserveAspectRatio="xMinYMin meet" x="557" y="-556"/>
<text text-anchor="start" x="582" y="-547.2" font-family="Helvetica,sans-Serif" font-size="11.00">id</text>
<polygon fill="#ffffff" stroke="transparent" points="552,-517 552,-539 808,-539 808,-517 552,-517"/>
<polygon fill="none" stroke="black" points="552,-517 552,-539 808,-539 808,-517 552,-517"/>
<image xlink:href="../../images/foreignKeys.png" width="11px" height="12px" preserveAspectRatio="xMinYMin meet" x="557" y="-534"/>
<text text-anchor="start" x="582" y="-525.2" font-family="Helvetica,sans-Serif" font-size="11.00">instance_type_id</text>
<polygon fill="#ffffff" stroke="transparent" points="552,-495 552,-517 808,-517 808,-495 552,-495"/>
<polygon fill="none" stroke="black" points="552,-495 552,-517 808,-517 808,-495 552,-495"/>
<image xlink:href="../../images/foreignKeys.png" width="11px" height="12px" preserveAspectRatio="xMinYMin meet" x="557" y="-512"/>
<text text-anchor="start" x="582" y="-503.2" font-family="Helvetica,sans-Serif" font-size="11.00">application_id</text>
<polygon fill="none" stroke="black" points="552,-477 552,-495 808,-495 808,-477 552,-477"/>
<text text-anchor="start" x="555" y="-483.2" font-family="Helvetica,sans-Serif" font-size="11.00">...</text>
<polygon fill="#ffffff" stroke="transparent" points="552,-459 552,-477 673,-477 673,-459 552,-459"/>
<polygon fill="none" stroke="black" points="552,-459 552,-477 673,-477 673,-459 552,-459"/>
<text text-anchor="start" x="555" y="-465.2" font-family="Helvetica,sans-Serif" font-size="11.00">&lt; 2</text>
<polygon fill="#ffffff" stroke="transparent" points="673,-459 673,-477 736,-477 736,-459 673,-459"/>
<polygon fill="none" stroke="black" points="673,-459 673,-477 736,-477 736,-459 673,-459"/>
<text text-anchor="start" x="726" y="-465.2" font-family="Helvetica,sans-Serif" font-size="11.00"> &#160;</text>
<polygon fill="#ffffff" stroke="transparent" points="736,-459 736,-477 808,-477 808,-459 736,-459"/>
<polygon fill="none" stroke="black" points="736,-459 736,-477 808,-477 808,-459 736,-459"/>
<text text-anchor="start" x="789" y="-465.2" font-family="Helvetica,sans-Serif" font-size="11.00">1 &gt;</text>
</a>
</g>
</g>
<!-- syst_instance_type_applications&#45;&gt;syst_applications -->
<g id="edge4" class="edge">
<title>syst_instance_type_applications:w&#45;&gt;syst_applications:e</title>
<path fill="none" stroke="black" d="M537.17,-501.25C518.91,-484.61 536.47,-430 502.5,-430"/>
<polygon fill="black" stroke="black" points="543.43,-503.4 549.83,-509.4 547.22,-504.7 551,-506 551,-506 551,-506 547.22,-504.7 552.17,-502.6 543.43,-503.4 543.43,-503.4"/>
<ellipse fill="none" stroke="black" cx="540.41" cy="-502.36" rx="3.2" ry="3.2"/>
</g>
<!-- syst_instance_type_applications&#45;&gt;syst_enum_items -->
<g id="edge5" class="edge">
<title>syst_instance_type_applications:w&#45;&gt;syst_enum_items:e</title>
<path fill="none" stroke="black" d="M536.59,-528.17C389.87,-531.58 309.13,-584.49 204,-476 151.83,-422.17 239.46,-141 164.5,-141"/>
<polygon fill="black" stroke="black" points="543,-528.09 551.04,-531.6 547,-528.05 551,-528 551,-528 551,-528 547,-528.05 550.96,-524.4 543,-528.09 543,-528.09"/>
<ellipse fill="none" stroke="black" cx="539.8" cy="-528.13" rx="3.2" ry="3.2"/>
</g>
<!-- syst_instance_type_contexts -->
<g id="node7" class="node">
<title>syst_instance_type_contexts</title>
<g id="a_node7"><a xlink:href="../../tables/syst_instance_type_contexts.html" xlink:title="syst_instance_type_contexts" target="_top">
<polygon fill="#ffffff" stroke="transparent" points="857,-439 857,-497 1088,-497 1088,-439 857,-439"/>
<polygon fill="#f5f5f5" stroke="transparent" points="857.5,-475 857.5,-497 1088.5,-497 1088.5,-475 857.5,-475"/>
<polygon fill="none" stroke="black" points="857.5,-475 857.5,-497 1088.5,-497 1088.5,-475 857.5,-475"/>
<text text-anchor="start" x="862.5" y="-484.2" font-family="Helvetica,sans-Serif" font-weight="bold" font-size="11.00">syst_instance_type_contexts</text>
<text text-anchor="start" x="1053.5" y="-483.2" font-family="Helvetica,sans-Serif" font-size="11.00">[table]</text>
<polygon fill="none" stroke="black" points="857.5,-457 857.5,-475 1088.5,-475 1088.5,-457 857.5,-457"/>
<text text-anchor="start" x="860.5" y="-463.2" font-family="Helvetica,sans-Serif" font-size="11.00">...</text>
<polygon fill="#ffffff" stroke="transparent" points="857.5,-439 857.5,-457 970.5,-457 970.5,-439 857.5,-439"/>
<polygon fill="none" stroke="black" points="857.5,-439 857.5,-457 970.5,-457 970.5,-439 857.5,-439"/>
<text text-anchor="start" x="860.5" y="-445.2" font-family="Helvetica,sans-Serif" font-size="11.00">&lt; 2</text>
<polygon fill="#ffffff" stroke="transparent" points="970.5,-439 970.5,-457 1029.5,-457 1029.5,-439 970.5,-439"/>
<polygon fill="none" stroke="black" points="970.5,-439 970.5,-457 1029.5,-457 1029.5,-439 970.5,-439"/>
<text text-anchor="start" x="1019.5" y="-445.2" font-family="Helvetica,sans-Serif" font-size="11.00"> &#160;</text>
<polygon fill="#ffffff" stroke="transparent" points="1029.5,-439 1029.5,-457 1088.5,-457 1088.5,-439 1029.5,-439"/>
<polygon fill="none" stroke="black" points="1029.5,-439 1029.5,-457 1088.5,-457 1088.5,-439 1029.5,-439"/>
<text text-anchor="start" x="1078.5" y="-445.2" font-family="Helvetica,sans-Serif" font-size="11.00"> &#160;</text>
</a>
</g>
</g>
<!-- syst_instance_type_contexts&#45;&gt;syst_application_contexts -->
<g id="edge6" class="edge">
<title>syst_instance_type_contexts:w&#45;&gt;syst_application_contexts:e</title>
<path fill="none" stroke="black" d="M842.19,-462.72C818.34,-450.05 823.03,-405 788,-405"/>
<polygon fill="black" stroke="black" points="848.7,-464.21 855.7,-469.51 852.6,-465.11 856.5,-466 856.5,-466 856.5,-466 852.6,-465.11 857.3,-462.49 848.7,-464.21 848.7,-464.21"/>
<ellipse fill="none" stroke="black" cx="845.58" cy="-463.5" rx="3.2" ry="3.2"/>
</g>
<!-- syst_instance_type_contexts&#45;&gt;syst_instance_type_applications -->
<g id="edge7" class="edge">
<title>syst_instance_type_contexts:w&#45;&gt;syst_instance_type_applications:e</title>
<path fill="none" stroke="black" d="M842.77,-470.52C822.77,-487.96 845.86,-550 809,-550"/>
<polygon fill="black" stroke="black" points="848.9,-468.5 857.62,-469.42 852.7,-467.25 856.5,-466 856.5,-466 856.5,-466 852.7,-467.25 855.38,-462.58 848.9,-468.5 848.9,-468.5"/>
<ellipse fill="none" stroke="black" cx="845.86" cy="-469.5" rx="3.2" ry="3.2"/>
</g>
<!-- syst_owners&#45;&gt;syst_enum_items -->
<g id="edge12" class="edge">
<title>syst_owners:w&#45;&gt;syst_enum_items:e</title>
<path fill="none" stroke="black" d="M281.06,-73.93C248.26,-78.5 239.26,-99.09 204,-118 186.1,-127.6 184.81,-141 164.5,-141"/>
<polygon fill="black" stroke="black" points="287.52,-73.51 295.73,-76.59 291.51,-73.26 295.5,-73 295.5,-73 295.5,-73 291.51,-73.26 295.27,-69.41 287.52,-73.51 287.52,-73.51"/>
<ellipse fill="none" stroke="black" cx="284.32" cy="-73.72" rx="3.2" ry="3.2"/>
</g>
</g>
</svg>
