<?xml version="1.0" encoding="UTF-8" standalone="no"?>
<!DOCTYPE svg PUBLIC "-//W3C//DTD SVG 1.1//EN"
 "http://www.w3.org/Graphics/SVG/1.1/DTD/svg11.dtd">
<!-- Generated by graphviz version 2.43.0 (0)
 -->
<!-- Title: oneDegreeRelationshipsDiagram Pages: 1 -->
<svg width="1051pt" height="531pt"
 viewBox="0.00 0.00 1051.00 531.00" xmlns="http://www.w3.org/2000/svg" xmlns:xlink="http://www.w3.org/1999/xlink">
<g id="graph0" class="graph" transform="scale(1 1) rotate(0) translate(4 527)">
<title>oneDegreeRelationshipsDiagram</title>
<polygon fill="#ffffff" stroke="transparent" points="-4,4 -4,-527 1047,-527 1047,4 -4,4"/>
<text text-anchor="middle" x="71.5" y="-7.2" font-family="Helvetica,sans-Serif" font-size="11.00">Generated by SchemaSpy</text>
<!-- syst_instance_contexts -->
<g id="node1" class="node">
<title>syst_instance_contexts</title>
<g id="a_node1"><a xlink:href="../../tables/syst_instance_contexts.html" xlink:title="syst_instance_contexts" target="_top">
<polygon fill="#ffffff" stroke="transparent" points="840,-373 840,-519 1035,-519 1035,-373 840,-373"/>
<polygon fill="#f5f5f5" stroke="transparent" points="840.5,-497 840.5,-519 1035.5,-519 1035.5,-497 840.5,-497"/>
<polygon fill="none" stroke="black" points="840.5,-497 840.5,-519 1035.5,-519 1035.5,-497 840.5,-497"/>
<text text-anchor="start" x="845.5" y="-506.2" font-family="Helvetica,sans-Serif" font-weight="bold" font-size="11.00">syst_instance_contexts</text>
<text text-anchor="start" x="1000.5" y="-505.2" font-family="Helvetica,sans-Serif" font-size="11.00">[table]</text>
<polygon fill="none" stroke="black" points="840.5,-475 840.5,-497 1035.5,-497 1035.5,-475 840.5,-475"/>
<image xlink:href="../../images/primaryKeys.png" width="11px" height="12px" preserveAspectRatio="xMinYMin meet" x="845.5" y="-492"/>
<text text-anchor="start" x="861.5" y="-483.2" font-family="Helvetica,sans-Serif" font-size="11.00">id</text>
<polygon fill="#ffffff" stroke="transparent" points="840.5,-453 840.5,-475 1035.5,-475 1035.5,-453 840.5,-453"/>
<polygon fill="none" stroke="black" points="840.5,-453 840.5,-475 1035.5,-475 1035.5,-453 840.5,-453"/>
<text text-anchor="start" x="861.5" y="-461.2" font-family="Helvetica,sans-Serif" font-size="11.00">internal_name</text>
<polygon fill="none" stroke="black" points="840.5,-431 840.5,-453 1035.5,-453 1035.5,-431 840.5,-431"/>
<image xlink:href="../../images/foreignKeys.png" width="11px" height="12px" preserveAspectRatio="xMinYMin meet" x="845.5" y="-448"/>
<text text-anchor="start" x="861.5" y="-439.2" font-family="Helvetica,sans-Serif" font-size="11.00">instance_id</text>
<polygon fill="none" stroke="black" points="840.5,-409 840.5,-431 1035.5,-431 1035.5,-409 840.5,-409"/>
<image xlink:href="../../images/foreignKeys.png" width="11px" height="12px" preserveAspectRatio="xMinYMin meet" x="845.5" y="-426"/>
<text text-anchor="start" x="861.5" y="-417.2" font-family="Helvetica,sans-Serif" font-size="11.00">application_context_id</text>
<polygon fill="none" stroke="black" points="840.5,-391 840.5,-409 1035.5,-409 1035.5,-391 840.5,-391"/>
<text text-anchor="start" x="843.5" y="-397.2" font-family="Helvetica,sans-Serif" font-size="11.00">...</text>
<polygon fill="#ffffff" stroke="transparent" points="840.5,-373 840.5,-391 935.5,-391 935.5,-373 840.5,-373"/>
<polygon fill="none" stroke="black" points="840.5,-373 840.5,-391 935.5,-391 935.5,-373 840.5,-373"/>
<text text-anchor="start" x="843.5" y="-379.2" font-family="Helvetica,sans-Serif" font-size="11.00">&lt; 2</text>
<polygon fill="#ffffff" stroke="transparent" points="935.5,-373 935.5,-391 985.5,-391 985.5,-373 935.5,-373"/>
<polygon fill="none" stroke="black" points="935.5,-373 935.5,-391 985.5,-391 985.5,-373 935.5,-373"/>
<text text-anchor="start" x="975.5" y="-379.2" font-family="Helvetica,sans-Serif" font-size="11.00"> &#160;</text>
<polygon fill="#ffffff" stroke="transparent" points="985.5,-373 985.5,-391 1035.5,-391 1035.5,-373 985.5,-373"/>
<polygon fill="none" stroke="black" points="985.5,-373 985.5,-391 1035.5,-391 1035.5,-373 985.5,-373"/>
<text text-anchor="start" x="1025.5" y="-379.2" font-family="Helvetica,sans-Serif" font-size="11.00"> &#160;</text>
</a>
</g>
</g>
<!-- syst_instances -->
<g id="node2" class="node">
<title>syst_instances</title>
<g id="a_node2"><a xlink:href="../../tables/syst_instances.html" xlink:title="syst_instances" target="_top">
<polygon fill="#ffffff" stroke="transparent" points="494,-37 494,-477 791,-477 791,-37 494,-37"/>
<polygon fill="#f5f5f5" stroke="transparent" points="496.5,-453 496.5,-475 789.5,-475 789.5,-453 496.5,-453"/>
<polygon fill="none" stroke="black" points="496.5,-453 496.5,-475 789.5,-475 789.5,-453 496.5,-453"/>
<text text-anchor="start" x="501.5" y="-462.2" font-family="Helvetica,sans-Serif" font-weight="bold" font-size="11.00">syst_instances</text>
<text text-anchor="start" x="754.5" y="-461.2" font-family="Helvetica,sans-Serif" font-size="11.00">[table]</text>
<polygon fill="none" stroke="black" points="496.5,-431 496.5,-453 690.5,-453 690.5,-431 496.5,-431"/>
<image xlink:href="../../images/primaryKeys.png" width="11px" height="12px" preserveAspectRatio="xMinYMin meet" x="501.5" y="-448"/>
<text text-anchor="start" x="516.5" y="-439.2" font-family="Helvetica,sans-Serif" font-size="11.00">id</text>
<polygon fill="none" stroke="black" points="690.5,-431 690.5,-453 789.5,-453 789.5,-431 690.5,-431"/>
<text text-anchor="start" x="693.5" y="-439.2" font-family="Helvetica,sans-Serif" font-size="11.00">uuid[2147483647]</text>
<polygon fill="#ffffff" stroke="transparent" points="496.5,-409 496.5,-431 690.5,-431 690.5,-409 496.5,-409"/>
<polygon fill="none" stroke="black" points="496.5,-409 496.5,-431 690.5,-431 690.5,-409 496.5,-409"/>
<text text-anchor="start" x="516.5" y="-417.2" font-family="Helvetica,sans-Serif" font-size="11.00">internal_name</text>
<polygon fill="none" stroke="black" points="690.5,-409 690.5,-431 789.5,-431 789.5,-409 690.5,-409"/>
<text text-anchor="start" x="693.5" y="-417.2" font-family="Helvetica,sans-Serif" font-size="11.00">text[2147483647]</text>
<polygon fill="#ffffff" stroke="transparent" points="496.5,-387 496.5,-409 690.5,-409 690.5,-387 496.5,-387"/>
<polygon fill="none" stroke="black" points="496.5,-387 496.5,-409 690.5,-409 690.5,-387 496.5,-387"/>
<text text-anchor="start" x="516.5" y="-395.2" font-family="Helvetica,sans-Serif" font-size="11.00">display_name</text>
<polygon fill="none" stroke="black" points="690.5,-387 690.5,-409 789.5,-409 789.5,-387 690.5,-387"/>
<text text-anchor="start" x="693.5" y="-395.2" font-family="Helvetica,sans-Serif" font-size="11.00">text[2147483647]</text>
<polygon fill="none" stroke="black" points="496.5,-365 496.5,-387 690.5,-387 690.5,-365 496.5,-365"/>
<image xlink:href="../../images/foreignKeys.png" width="11px" height="12px" preserveAspectRatio="xMinYMin meet" x="501.5" y="-382"/>
<text text-anchor="start" x="516.5" y="-373.2" font-family="Helvetica,sans-Serif" font-size="11.00">application_id</text>
<polygon fill="none" stroke="black" points="690.5,-365 690.5,-387 789.5,-387 789.5,-365 690.5,-365"/>
<text text-anchor="start" x="693.5" y="-373.2" font-family="Helvetica,sans-Serif" font-size="11.00">uuid[2147483647]</text>
<polygon fill="none" stroke="black" points="496.5,-343 496.5,-365 690.5,-365 690.5,-343 496.5,-343"/>
<image xlink:href="../../images/foreignKeys.png" width="11px" height="12px" preserveAspectRatio="xMinYMin meet" x="501.5" y="-360"/>
<text text-anchor="start" x="516.5" y="-351.2" font-family="Helvetica,sans-Serif" font-size="11.00">instance_type_id</text>
<polygon fill="none" stroke="black" points="690.5,-343 690.5,-365 789.5,-365 789.5,-343 690.5,-343"/>
<text text-anchor="start" x="693.5" y="-351.2" font-family="Helvetica,sans-Serif" font-size="11.00">uuid[2147483647]</text>
<polygon fill="none" stroke="black" points="496.5,-321 496.5,-343 690.5,-343 690.5,-321 496.5,-321"/>
<image xlink:href="../../images/foreignKeys.png" width="11px" height="12px" preserveAspectRatio="xMinYMin meet" x="501.5" y="-338"/>
<text text-anchor="start" x="516.5" y="-329.2" font-family="Helvetica,sans-Serif" font-size="11.00">instance_state_id</text>
<polygon fill="none" stroke="black" points="690.5,-321 690.5,-343 789.5,-343 789.5,-321 690.5,-321"/>
<text text-anchor="start" x="693.5" y="-329.2" font-family="Helvetica,sans-Serif" font-size="11.00">uuid[2147483647]</text>
<polygon fill="none" stroke="black" points="496.5,-299 496.5,-321 690.5,-321 690.5,-299 496.5,-299"/>
<image xlink:href="../../images/foreignKeys.png" width="11px" height="12px" preserveAspectRatio="xMinYMin meet" x="501.5" y="-316"/>
<text text-anchor="start" x="516.5" y="-307.2" font-family="Helvetica,sans-Serif" font-size="11.00">owner_id</text>
<polygon fill="none" stroke="black" points="690.5,-299 690.5,-321 789.5,-321 789.5,-299 690.5,-299"/>
<text text-anchor="start" x="693.5" y="-307.2" font-family="Helvetica,sans-Serif" font-size="11.00">uuid[2147483647]</text>
<polygon fill="none" stroke="black" points="496.5,-277 496.5,-299 690.5,-299 690.5,-277 496.5,-277"/>
<image xlink:href="../../images/foreignKeys.png" width="11px" height="12px" preserveAspectRatio="xMinYMin meet" x="501.5" y="-294"/>
<text text-anchor="start" x="516.5" y="-285.2" font-family="Helvetica,sans-Serif" font-size="11.00">owning_instance_id</text>
<polygon fill="none" stroke="black" points="690.5,-277 690.5,-299 789.5,-299 789.5,-277 690.5,-277"/>
<text text-anchor="start" x="693.5" y="-285.2" font-family="Helvetica,sans-Serif" font-size="11.00">uuid[2147483647]</text>
<polygon fill="none" stroke="black" points="496.5,-255 496.5,-277 690.5,-277 690.5,-255 496.5,-255"/>
<text text-anchor="start" x="516.5" y="-263.2" font-family="Helvetica,sans-Serif" font-size="11.00">dbserver_name</text>
<polygon fill="none" stroke="black" points="690.5,-255 690.5,-277 789.5,-277 789.5,-255 690.5,-255"/>
<text text-anchor="start" x="693.5" y="-263.2" font-family="Helvetica,sans-Serif" font-size="11.00">text[2147483647]</text>
<polygon fill="none" stroke="black" points="496.5,-233 496.5,-255 690.5,-255 690.5,-233 496.5,-233"/>
<text text-anchor="start" x="516.5" y="-241.2" font-family="Helvetica,sans-Serif" font-size="11.00">instance_code</text>
<polygon fill="none" stroke="black" points="690.5,-233 690.5,-255 789.5,-255 789.5,-233 690.5,-233"/>
<text text-anchor="start" x="693.5" y="-241.2" font-family="Helvetica,sans-Serif" font-size="11.00">bytea[2147483647]</text>
<polygon fill="none" stroke="black" points="496.5,-211 496.5,-233 690.5,-233 690.5,-211 496.5,-211"/>
<text text-anchor="start" x="516.5" y="-219.2" font-family="Helvetica,sans-Serif" font-size="11.00">instance_options</text>
<polygon fill="none" stroke="black" points="690.5,-211 690.5,-233 789.5,-233 789.5,-211 690.5,-211"/>
<text text-anchor="start" x="693.5" y="-219.2" font-family="Helvetica,sans-Serif" font-size="11.00">jsonb[2147483647]</text>
<polygon fill="none" stroke="black" points="496.5,-189 496.5,-211 690.5,-211 690.5,-189 496.5,-189"/>
<text text-anchor="start" x="516.5" y="-197.2" font-family="Helvetica,sans-Serif" font-size="11.00">diag_timestamp_created</text>
<polygon fill="none" stroke="black" points="690.5,-189 690.5,-211 789.5,-211 789.5,-189 690.5,-189"/>
<text text-anchor="start" x="693.5" y="-197.2" font-family="Helvetica,sans-Serif" font-size="11.00">timestamptz[35,6]</text>
<polygon fill="none" stroke="black" points="496.5,-167 496.5,-189 690.5,-189 690.5,-167 496.5,-167"/>
<text text-anchor="start" x="516.5" y="-175.2" font-family="Helvetica,sans-Serif" font-size="11.00">diag_role_created</text>
<polygon fill="none" stroke="black" points="690.5,-167 690.5,-189 789.5,-189 789.5,-167 690.5,-167"/>
<text text-anchor="start" x="693.5" y="-175.2" font-family="Helvetica,sans-Serif" font-size="11.00">text[2147483647]</text>
<polygon fill="none" stroke="black" points="496.5,-145 496.5,-167 690.5,-167 690.5,-145 496.5,-145"/>
<text text-anchor="start" x="516.5" y="-153.2" font-family="Helvetica,sans-Serif" font-size="11.00">diag_timestamp_modified</text>
<polygon fill="none" stroke="black" points="690.5,-145 690.5,-167 789.5,-167 789.5,-145 690.5,-145"/>
<text text-anchor="start" x="693.5" y="-153.2" font-family="Helvetica,sans-Serif" font-size="11.00">timestamptz[35,6]</text>
<polygon fill="none" stroke="black" points="496.5,-123 496.5,-145 690.5,-145 690.5,-123 496.5,-123"/>
<text text-anchor="start" x="516.5" y="-131.2" font-family="Helvetica,sans-Serif" font-size="11.00">diag_wallclock_modified</text>
<polygon fill="none" stroke="black" points="690.5,-123 690.5,-145 789.5,-145 789.5,-123 690.5,-123"/>
<text text-anchor="start" x="693.5" y="-131.2" font-family="Helvetica,sans-Serif" font-size="11.00">timestamptz[35,6]</text>
<polygon fill="none" stroke="black" points="496.5,-101 496.5,-123 690.5,-123 690.5,-101 496.5,-101"/>
<text text-anchor="start" x="516.5" y="-109.2" font-family="Helvetica,sans-Serif" font-size="11.00">diag_role_modified</text>
<polygon fill="none" stroke="black" points="690.5,-101 690.5,-123 789.5,-123 789.5,-101 690.5,-101"/>
<text text-anchor="start" x="693.5" y="-109.2" font-family="Helvetica,sans-Serif" font-size="11.00">text[2147483647]</text>
<polygon fill="none" stroke="black" points="496.5,-79 496.5,-101 690.5,-101 690.5,-79 496.5,-79"/>
<text text-anchor="start" x="516.5" y="-87.2" font-family="Helvetica,sans-Serif" font-size="11.00">diag_row_version</text>
<polygon fill="none" stroke="black" points="690.5,-79 690.5,-101 789.5,-101 789.5,-79 690.5,-79"/>
<text text-anchor="start" x="693.5" y="-87.2" font-family="Helvetica,sans-Serif" font-size="11.00">int8[19]</text>
<polygon fill="none" stroke="black" points="496.5,-57 496.5,-79 690.5,-79 690.5,-57 496.5,-57"/>
<text text-anchor="start" x="516.5" y="-65.2" font-family="Helvetica,sans-Serif" font-size="11.00">diag_update_count</text>
<polygon fill="none" stroke="black" points="690.5,-57 690.5,-79 789.5,-79 789.5,-57 690.5,-57"/>
<text text-anchor="start" x="693.5" y="-65.2" font-family="Helvetica,sans-Serif" font-size="11.00">int8[19]</text>
<polygon fill="#ffffff" stroke="transparent" points="496.5,-39 496.5,-57 597.5,-57 597.5,-39 496.5,-39"/>
<polygon fill="none" stroke="black" points="496.5,-39 496.5,-57 597.5,-57 597.5,-39 496.5,-39"/>
<text text-anchor="start" x="499.5" y="-45.2" font-family="Helvetica,sans-Serif" font-size="11.00">&lt; 5</text>
<polygon fill="#ffffff" stroke="transparent" points="597.5,-39 597.5,-57 690.5,-57 690.5,-39 597.5,-39"/>
<polygon fill="none" stroke="black" points="597.5,-39 597.5,-57 690.5,-57 690.5,-39 597.5,-39"/>
<text text-anchor="start" x="680.5" y="-45.2" font-family="Helvetica,sans-Serif" font-size="11.00"> &#160;</text>
<polygon fill="#ffffff" stroke="transparent" points="690.5,-39 690.5,-57 789.5,-57 789.5,-39 690.5,-39"/>
<polygon fill="none" stroke="black" points="690.5,-39 690.5,-57 789.5,-57 789.5,-39 690.5,-39"/>
<text text-anchor="start" x="770.5" y="-45.2" font-family="Helvetica,sans-Serif" font-size="11.00">2 &gt;</text>
<polygon fill="none" stroke="black" stroke-width="2" points="495,-38 495,-476 790,-476 790,-38 495,-38"/>
</a>
</g>
</g>
<!-- syst_instance_contexts&#45;&gt;syst_instances -->
<g id="edge1" class="edge">
<title>syst_instance_contexts:w&#45;&gt;syst_instances:e</title>
<path fill="none" stroke="black" d="M824.99,-442C813.68,-442 806.49,-442 790.5,-442"/>
<polygon fill="black" stroke="black" points="831.5,-442 839.5,-445.6 835.5,-442 839.5,-442 839.5,-442 839.5,-442 835.5,-442 839.5,-438.4 831.5,-442 831.5,-442"/>
<ellipse fill="none" stroke="black" cx="828.3" cy="-442" rx="3.2" ry="3.2"/>
</g>
<!-- syst_instances&#45;&gt;syst_instances -->
<g id="edge6" class="edge">
<title>syst_instances:w&#45;&gt;syst_instances:e</title>
<path fill="none" stroke="black" d="M487.05,-298.92C423.44,-378.15 432.88,-494 643,-494 863,-494 863,-485.33 789.5,-442"/>
<polygon fill="black" stroke="black" points="491.27,-294.05 499.22,-290.36 493.88,-291.03 496.5,-288 496.5,-288 496.5,-288 493.88,-291.03 493.78,-285.64 491.27,-294.05 491.27,-294.05"/>
<ellipse fill="none" stroke="black" cx="489.17" cy="-296.47" rx="3.2" ry="3.2"/>
</g>
<!-- syst_applications -->
<g id="node3" class="node">
<title>syst_applications</title>
<g id="a_node3"><a xlink:href="../../tables/syst_applications.html" xlink:title="syst_applications" target="_top">
<polygon fill="#ffffff" stroke="transparent" points="251,-381 251,-505 445,-505 445,-381 251,-381"/>
<polygon fill="#f5f5f5" stroke="transparent" points="251,-483 251,-505 445,-505 445,-483 251,-483"/>
<polygon fill="none" stroke="black" points="251,-483 251,-505 445,-505 445,-483 251,-483"/>
<text text-anchor="start" x="256" y="-492.2" font-family="Helvetica,sans-Serif" font-weight="bold" font-size="11.00">syst_applications</text>
<text text-anchor="start" x="410" y="-491.2" font-family="Helvetica,sans-Serif" font-size="11.00">[table]</text>
<polygon fill="none" stroke="black" points="251,-461 251,-483 445,-483 445,-461 251,-461"/>
<image xlink:href="../../images/primaryKeys.png" width="11px" height="12px" preserveAspectRatio="xMinYMin meet" x="256" y="-478"/>
<text text-anchor="start" x="271" y="-469.2" font-family="Helvetica,sans-Serif" font-size="11.00">id</text>
<polygon fill="#ffffff" stroke="transparent" points="251,-439 251,-461 445,-461 445,-439 251,-439"/>
<polygon fill="none" stroke="black" points="251,-439 251,-461 445,-461 445,-439 251,-439"/>
<text text-anchor="start" x="271" y="-447.2" font-family="Helvetica,sans-Serif" font-size="11.00">internal_name</text>
<polygon fill="#ffffff" stroke="transparent" points="251,-417 251,-439 445,-439 445,-417 251,-417"/>
<polygon fill="none" stroke="black" points="251,-417 251,-439 445,-439 445,-417 251,-417"/>
<text text-anchor="start" x="271" y="-425.2" font-family="Helvetica,sans-Serif" font-size="11.00">display_name</text>
<polygon fill="none" stroke="black" points="251,-399 251,-417 445,-417 445,-399 251,-399"/>
<text text-anchor="start" x="254" y="-405.2" font-family="Helvetica,sans-Serif" font-size="11.00">...</text>
<polygon fill="#ffffff" stroke="transparent" points="251,-381 251,-399 337,-399 337,-381 251,-381"/>
<polygon fill="none" stroke="black" points="251,-381 251,-399 337,-399 337,-381 251,-381"/>
<text text-anchor="start" x="254" y="-387.2" font-family="Helvetica,sans-Serif" font-size="11.00"> &#160;</text>
<polygon fill="#ffffff" stroke="transparent" points="337,-381 337,-399 386,-399 386,-381 337,-381"/>
<polygon fill="none" stroke="black" points="337,-381 337,-399 386,-399 386,-381 337,-381"/>
<text text-anchor="start" x="376" y="-387.2" font-family="Helvetica,sans-Serif" font-size="11.00"> &#160;</text>
<polygon fill="#ffffff" stroke="transparent" points="386,-381 386,-399 445,-399 445,-381 386,-381"/>
<polygon fill="none" stroke="black" points="386,-381 386,-399 445,-399 445,-381 386,-381"/>
<text text-anchor="start" x="426" y="-387.2" font-family="Helvetica,sans-Serif" font-size="11.00">3 &gt;</text>
</a>
</g>
</g>
<!-- syst_instances&#45;&gt;syst_applications -->
<g id="edge2" class="edge">
<title>syst_instances:w&#45;&gt;syst_applications:e</title>
<path fill="none" stroke="black" d="M481.56,-380.12C457.65,-398.5 488,-472 446,-472"/>
<polygon fill="black" stroke="black" points="487.83,-378.27 496.52,-379.45 491.66,-377.13 495.5,-376 495.5,-376 495.5,-376 491.66,-377.13 494.48,-372.55 487.83,-378.27 487.83,-378.27"/>
<ellipse fill="none" stroke="black" cx="484.76" cy="-379.18" rx="3.2" ry="3.2"/>
</g>
<!-- syst_enum_items -->
<g id="node4" class="node">
<title>syst_enum_items</title>
<g id="a_node4"><a xlink:href="../../tables/syst_enum_items.html" xlink:title="syst_enum_items" target="_top">
<polygon fill="#ffffff" stroke="transparent" points="8,-195 8,-363 202,-363 202,-195 8,-195"/>
<polygon fill="#f5f5f5" stroke="transparent" points="8,-341 8,-363 202,-363 202,-341 8,-341"/>
<polygon fill="none" stroke="black" points="8,-341 8,-363 202,-363 202,-341 8,-341"/>
<text text-anchor="start" x="13" y="-350.2" font-family="Helvetica,sans-Serif" font-weight="bold" font-size="11.00">syst_enum_items</text>
<text text-anchor="start" x="167" y="-349.2" font-family="Helvetica,sans-Serif" font-size="11.00">[table]</text>
<polygon fill="none" stroke="black" points="8,-319 8,-341 202,-341 202,-319 8,-319"/>
<image xlink:href="../../images/primaryKeys.png" width="11px" height="12px" preserveAspectRatio="xMinYMin meet" x="13" y="-336"/>
<text text-anchor="start" x="28" y="-327.2" font-family="Helvetica,sans-Serif" font-size="11.00">id</text>
<polygon fill="#ffffff" stroke="transparent" points="8,-297 8,-319 202,-319 202,-297 8,-297"/>
<polygon fill="none" stroke="black" points="8,-297 8,-319 202,-319 202,-297 8,-297"/>
<text text-anchor="start" x="28" y="-305.2" font-family="Helvetica,sans-Serif" font-size="11.00">internal_name</text>
<polygon fill="#ffffff" stroke="transparent" points="8,-275 8,-297 202,-297 202,-275 8,-275"/>
<polygon fill="none" stroke="black" points="8,-275 8,-297 202,-297 202,-275 8,-275"/>
<text text-anchor="start" x="28" y="-283.2" font-family="Helvetica,sans-Serif" font-size="11.00">display_name</text>
<polygon fill="none" stroke="black" points="8,-253 8,-275 202,-275 202,-253 8,-253"/>
<image xlink:href="../../images/foreignKeys.png" width="11px" height="12px" preserveAspectRatio="xMinYMin meet" x="13" y="-270"/>
<text text-anchor="start" x="28" y="-261.2" font-family="Helvetica,sans-Serif" font-size="11.00">enum_id</text>
<polygon fill="none" stroke="black" points="8,-231 8,-253 202,-253 202,-231 8,-231"/>
<image xlink:href="../../images/foreignKeys.png" width="11px" height="12px" preserveAspectRatio="xMinYMin meet" x="13" y="-248"/>
<text text-anchor="start" x="28" y="-239.2" font-family="Helvetica,sans-Serif" font-size="11.00">functional_type_id</text>
<polygon fill="none" stroke="black" points="8,-213 8,-231 202,-231 202,-213 8,-213"/>
<text text-anchor="start" x="11" y="-219.2" font-family="Helvetica,sans-Serif" font-size="11.00">...</text>
<polygon fill="#ffffff" stroke="transparent" points="8,-195 8,-213 98,-213 98,-195 8,-195"/>
<polygon fill="none" stroke="black" points="8,-195 8,-213 98,-213 98,-195 8,-195"/>
<text text-anchor="start" x="11" y="-201.2" font-family="Helvetica,sans-Serif" font-size="11.00">&lt; 2</text>
<polygon fill="#ffffff" stroke="transparent" points="98,-195 98,-213 145,-213 145,-195 98,-195"/>
<polygon fill="none" stroke="black" points="98,-195 98,-213 145,-213 145,-195 98,-195"/>
<text text-anchor="start" x="135" y="-201.2" font-family="Helvetica,sans-Serif" font-size="11.00"> &#160;</text>
<polygon fill="#ffffff" stroke="transparent" points="145,-195 145,-213 202,-213 202,-195 145,-195"/>
<polygon fill="none" stroke="black" points="145,-195 145,-213 202,-213 202,-195 145,-195"/>
<text text-anchor="start" x="183" y="-201.2" font-family="Helvetica,sans-Serif" font-size="11.00">4 &gt;</text>
</a>
</g>
</g>
<!-- syst_instances&#45;&gt;syst_enum_items -->
<g id="edge3" class="edge">
<title>syst_instances:w&#45;&gt;syst_enum_items:e</title>
<path fill="none" stroke="black" d="M481.06,-331.99C362.88,-331.85 328.05,-330 203,-330"/>
<polygon fill="black" stroke="black" points="487.5,-332 495.5,-335.6 491.5,-332 495.5,-332 495.5,-332 495.5,-332 491.5,-332 495.5,-328.4 487.5,-332 487.5,-332"/>
<ellipse fill="none" stroke="black" cx="484.3" cy="-331.99" rx="3.2" ry="3.2"/>
</g>
<!-- syst_instances&#45;&gt;syst_enum_items -->
<g id="edge4" class="edge">
<title>syst_instances:w&#45;&gt;syst_enum_items:e</title>
<path fill="none" stroke="black" d="M480.84,-354.03C380.34,-354.39 348.95,-358.09 243,-341 224.8,-338.06 221.44,-330 203,-330"/>
<polygon fill="black" stroke="black" points="487.5,-354.01 495.51,-357.6 491.5,-354.01 495.5,-354 495.5,-354 495.5,-354 491.5,-354.01 495.49,-350.4 487.5,-354.01 487.5,-354.01"/>
<ellipse fill="none" stroke="black" cx="484.3" cy="-354.02" rx="3.2" ry="3.2"/>
</g>
<!-- syst_owners -->
<g id="node5" class="node">
<title>syst_owners</title>
<g id="a_node5"><a xlink:href="../../tables/syst_owners.html" xlink:title="syst_owners" target="_top">
<polygon fill="#ffffff" stroke="transparent" points="251,-160 251,-306 445,-306 445,-160 251,-160"/>
<polygon fill="#f5f5f5" stroke="transparent" points="251,-284 251,-306 445,-306 445,-284 251,-284"/>
<polygon fill="none" stroke="black" points="251,-284 251,-306 445,-306 445,-284 251,-284"/>
<text text-anchor="start" x="256" y="-293.2" font-family="Helvetica,sans-Serif" font-weight="bold" font-size="11.00">syst_owners</text>
<text text-anchor="start" x="410" y="-292.2" font-family="Helvetica,sans-Serif" font-size="11.00">[table]</text>
<polygon fill="none" stroke="black" points="251,-262 251,-284 445,-284 445,-262 251,-262"/>
<image xlink:href="../../images/primaryKeys.png" width="11px" height="12px" preserveAspectRatio="xMinYMin meet" x="256" y="-279"/>
<text text-anchor="start" x="271" y="-270.2" font-family="Helvetica,sans-Serif" font-size="11.00">id</text>
<polygon fill="#ffffff" stroke="transparent" points="251,-240 251,-262 445,-262 445,-240 251,-240"/>
<polygon fill="none" stroke="black" points="251,-240 251,-262 445,-262 445,-240 251,-240"/>
<text text-anchor="start" x="271" y="-248.2" font-family="Helvetica,sans-Serif" font-size="11.00">internal_name</text>
<polygon fill="#ffffff" stroke="transparent" points="251,-218 251,-240 445,-240 445,-218 251,-218"/>
<polygon fill="none" stroke="black" points="251,-218 251,-240 445,-240 445,-218 251,-218"/>
<text text-anchor="start" x="271" y="-226.2" font-family="Helvetica,sans-Serif" font-size="11.00">display_name</text>
<polygon fill="none" stroke="black" points="251,-196 251,-218 445,-218 445,-196 251,-196"/>
<image xlink:href="../../images/foreignKeys.png" width="11px" height="12px" preserveAspectRatio="xMinYMin meet" x="256" y="-213"/>
<text text-anchor="start" x="271" y="-204.2" font-family="Helvetica,sans-Serif" font-size="11.00">owner_state_id</text>
<polygon fill="none" stroke="black" points="251,-178 251,-196 445,-196 445,-178 251,-178"/>
<text text-anchor="start" x="254" y="-184.2" font-family="Helvetica,sans-Serif" font-size="11.00">...</text>
<polygon fill="#ffffff" stroke="transparent" points="251,-160 251,-178 341,-178 341,-160 251,-160"/>
<polygon fill="none" stroke="black" points="251,-160 251,-178 341,-178 341,-160 251,-160"/>
<text text-anchor="start" x="254" y="-166.2" font-family="Helvetica,sans-Serif" font-size="11.00">&lt; 1</text>
<polygon fill="#ffffff" stroke="transparent" points="341,-160 341,-178 388,-178 388,-160 341,-160"/>
<polygon fill="none" stroke="black" points="341,-160 341,-178 388,-178 388,-160 341,-160"/>
<text text-anchor="start" x="378" y="-166.2" font-family="Helvetica,sans-Serif" font-size="11.00"> &#160;</text>
<polygon fill="#ffffff" stroke="transparent" points="388,-160 388,-178 445,-178 445,-160 388,-160"/>
<polygon fill="none" stroke="black" points="388,-160 388,-178 445,-178 445,-160 388,-160"/>
<text text-anchor="start" x="426" y="-166.2" font-family="Helvetica,sans-Serif" font-size="11.00">1 &gt;</text>
</a>
</g>
</g>
<!-- syst_instances&#45;&gt;syst_owners -->
<g id="edge5" class="edge">
<title>syst_instances:w&#45;&gt;syst_owners:e</title>
<path fill="none" stroke="black" d="M481.51,-305.46C468.84,-295.58 467.46,-273 446,-273"/>
<polygon fill="black" stroke="black" points="487.89,-307.53 494.39,-313.42 491.7,-308.77 495.5,-310 495.5,-310 495.5,-310 491.7,-308.77 496.61,-306.58 487.89,-307.53 487.89,-307.53"/>
<ellipse fill="none" stroke="black" cx="484.85" cy="-306.55" rx="3.2" ry="3.2"/>
</g>
<!-- syst_owners&#45;&gt;syst_enum_items -->
<g id="edge7" class="edge">
<title>syst_owners:w&#45;&gt;syst_enum_items:e</title>
<path fill="none" stroke="black" d="M235.88,-210.55C204.38,-230.72 255.58,-330 203,-330"/>
<polygon fill="black" stroke="black" points="242.24,-208.95 250.88,-210.49 246.12,-207.97 250,-207 250,-207 250,-207 246.12,-207.97 249.12,-203.51 242.24,-208.95 242.24,-208.95"/>
<ellipse fill="none" stroke="black" cx="239.14" cy="-209.73" rx="3.2" ry="3.2"/>
</g>
</g>
</svg>
