<?xml version="1.0" encoding="UTF-8" standalone="no"?>
<!DOCTYPE svg PUBLIC "-//W3C//DTD SVG 1.1//EN"
 "http://www.w3.org/Graphics/SVG/1.1/DTD/svg11.dtd">
<!-- Generated by graphviz version 2.43.0 (0)
 -->
<!-- Title: twoDegreesRelationshipsDiagram Pages: 1 -->
<svg width="1029pt" height="502pt"
 viewBox="0.00 0.00 1029.00 502.00" xmlns="http://www.w3.org/2000/svg" xmlns:xlink="http://www.w3.org/1999/xlink">
<g id="graph0" class="graph" transform="scale(1 1) rotate(0) translate(4 498)">
<title>twoDegreesRelationshipsDiagram</title>
<polygon fill="#ffffff" stroke="transparent" points="-4,4 -4,-498 1025,-498 1025,4 -4,4"/>
<text text-anchor="middle" x="79.5" y="-7.2" font-family="Helvetica,sans-Serif" font-size="11.00">Generated by SchemaSpy</text>
<!-- syst_application_contexts -->
<g id="node1" class="node">
<title>syst_application_contexts</title>
<g id="a_node1"><a xlink:href="../../tables/syst_application_contexts.html" xlink:title="syst_application_contexts" target="_top">
<polygon fill="#ffffff" stroke="transparent" points="431,-344 431,-490 651,-490 651,-344 431,-344"/>
<polygon fill="#f5f5f5" stroke="transparent" points="431,-468 431,-490 651,-490 651,-468 431,-468"/>
<polygon fill="none" stroke="black" points="431,-468 431,-490 651,-490 651,-468 431,-468"/>
<text text-anchor="start" x="436" y="-477.2" font-family="Helvetica,sans-Serif" font-weight="bold" font-size="11.00">syst_application_contexts</text>
<text text-anchor="start" x="609" y="-476.2" font-family="Helvetica,sans-Serif" font-size="11.00">[table]</text>
<polygon fill="none" stroke="black" points="431,-446 431,-468 651,-468 651,-446 431,-446"/>
<image xlink:href="../../images/primaryKeys.png" width="11px" height="12px" preserveAspectRatio="xMinYMin meet" x="436" y="-463"/>
<text text-anchor="start" x="464" y="-454.2" font-family="Helvetica,sans-Serif" font-size="11.00">id</text>
<polygon fill="#ffffff" stroke="transparent" points="431,-424 431,-446 651,-446 651,-424 431,-424"/>
<polygon fill="none" stroke="black" points="431,-424 431,-446 651,-446 651,-424 431,-424"/>
<text text-anchor="start" x="464" y="-432.2" font-family="Helvetica,sans-Serif" font-size="11.00">internal_name</text>
<polygon fill="#ffffff" stroke="transparent" points="431,-402 431,-424 651,-424 651,-402 431,-402"/>
<polygon fill="none" stroke="black" points="431,-402 431,-424 651,-424 651,-402 431,-402"/>
<text text-anchor="start" x="464" y="-410.2" font-family="Helvetica,sans-Serif" font-size="11.00">display_name</text>
<polygon fill="none" stroke="black" points="431,-380 431,-402 651,-402 651,-380 431,-380"/>
<image xlink:href="../../images/foreignKeys.png" width="11px" height="12px" preserveAspectRatio="xMinYMin meet" x="436" y="-397"/>
<text text-anchor="start" x="464" y="-388.2" font-family="Helvetica,sans-Serif" font-size="11.00">application_id</text>
<polygon fill="none" stroke="black" points="431,-362 431,-380 651,-380 651,-362 431,-362"/>
<text text-anchor="start" x="434" y="-368.2" font-family="Helvetica,sans-Serif" font-size="11.00">...</text>
<polygon fill="#ffffff" stroke="transparent" points="431,-344 431,-362 534,-362 534,-344 431,-344"/>
<polygon fill="none" stroke="black" points="431,-344 431,-362 534,-362 534,-344 431,-344"/>
<text text-anchor="start" x="434" y="-350.2" font-family="Helvetica,sans-Serif" font-size="11.00">&lt; 1</text>
<polygon fill="#ffffff" stroke="transparent" points="534,-344 534,-362 586,-362 586,-344 534,-344"/>
<polygon fill="none" stroke="black" points="534,-344 534,-362 586,-362 586,-344 534,-344"/>
<text text-anchor="start" x="575" y="-350.2" font-family="Helvetica,sans-Serif" font-size="11.00"> &#160;</text>
<polygon fill="#ffffff" stroke="transparent" points="586,-344 586,-362 651,-362 651,-344 586,-344"/>
<polygon fill="none" stroke="black" points="586,-344 586,-362 651,-362 651,-344 586,-344"/>
<text text-anchor="start" x="628" y="-350.2" font-family="Helvetica,sans-Serif" font-size="11.00">2 &gt;</text>
</a>
</g>
</g>
<!-- syst_applications -->
<g id="node2" class="node">
<title>syst_applications</title>
<g id="a_node2"><a xlink:href="../../tables/syst_applications.html" xlink:title="syst_applications" target="_top">
<polygon fill="#ffffff" stroke="transparent" points="219,-297 219,-355 382,-355 382,-297 219,-297"/>
<polygon fill="#f5f5f5" stroke="transparent" points="219.5,-333 219.5,-355 382.5,-355 382.5,-333 219.5,-333"/>
<polygon fill="none" stroke="black" points="219.5,-333 219.5,-355 382.5,-355 382.5,-333 219.5,-333"/>
<text text-anchor="start" x="224.5" y="-342.2" font-family="Helvetica,sans-Serif" font-weight="bold" font-size="11.00">syst_applications</text>
<text text-anchor="start" x="340.5" y="-341.2" font-family="Helvetica,sans-Serif" font-size="11.00">[table]</text>
<polygon fill="none" stroke="black" points="219.5,-315 219.5,-333 382.5,-333 382.5,-315 219.5,-315"/>
<text text-anchor="start" x="222.5" y="-321.2" font-family="Helvetica,sans-Serif" font-size="11.00">...</text>
<polygon fill="#ffffff" stroke="transparent" points="219.5,-297 219.5,-315 287.5,-315 287.5,-297 219.5,-297"/>
<polygon fill="none" stroke="black" points="219.5,-297 219.5,-315 287.5,-315 287.5,-297 219.5,-297"/>
<text text-anchor="start" x="222.5" y="-303.2" font-family="Helvetica,sans-Serif" font-size="11.00"> &#160;</text>
<polygon fill="#ffffff" stroke="transparent" points="287.5,-297 287.5,-315 328.5,-315 328.5,-297 287.5,-297"/>
<polygon fill="none" stroke="black" points="287.5,-297 287.5,-315 328.5,-315 328.5,-297 287.5,-297"/>
<text text-anchor="start" x="317.5" y="-303.2" font-family="Helvetica,sans-Serif" font-size="11.00"> &#160;</text>
<polygon fill="#ffffff" stroke="transparent" points="328.5,-297 328.5,-315 382.5,-315 382.5,-297 328.5,-297"/>
<polygon fill="none" stroke="black" points="328.5,-297 328.5,-315 382.5,-315 382.5,-297 328.5,-297"/>
<text text-anchor="start" x="359.5" y="-303.2" font-family="Helvetica,sans-Serif" font-size="11.00">3 &gt;</text>
</a>
</g>
</g>
<!-- syst_application_contexts&#45;&gt;syst_applications -->
<g id="edge1" class="edge">
<title>syst_application_contexts:w&#45;&gt;syst_applications:e</title>
<path fill="none" stroke="black" d="M416.19,-385.74C400.85,-369.95 413.52,-324 383.5,-324"/>
<polygon fill="black" stroke="black" points="422.52,-388.15 428.72,-394.36 426.26,-389.58 430,-391 430,-391 430,-391 426.26,-389.58 431.28,-387.64 422.52,-388.15 422.52,-388.15"/>
<ellipse fill="none" stroke="black" cx="419.53" cy="-387.01" rx="3.2" ry="3.2"/>
</g>
<!-- syst_instance_contexts -->
<g id="node3" class="node">
<title>syst_instance_contexts</title>
<g id="a_node3"><a xlink:href="../../tables/syst_instance_contexts.html" xlink:title="syst_instance_contexts" target="_top">
<polygon fill="#ffffff" stroke="transparent" points="700,-37 700,-389 1013,-389 1013,-37 700,-37"/>
<polygon fill="#f5f5f5" stroke="transparent" points="702.5,-365 702.5,-387 1011.5,-387 1011.5,-365 702.5,-365"/>
<polygon fill="none" stroke="black" points="702.5,-365 702.5,-387 1011.5,-387 1011.5,-365 702.5,-365"/>
<text text-anchor="start" x="707.5" y="-374.2" font-family="Helvetica,sans-Serif" font-weight="bold" font-size="11.00">syst_instance_contexts</text>
<text text-anchor="start" x="969.5" y="-373.2" font-family="Helvetica,sans-Serif" font-size="11.00">[table]</text>
<polygon fill="none" stroke="black" points="702.5,-343 702.5,-365 896.5,-365 896.5,-343 702.5,-343"/>
<image xlink:href="../../images/primaryKeys.png" width="11px" height="12px" preserveAspectRatio="xMinYMin meet" x="707.5" y="-360"/>
<text text-anchor="start" x="722.5" y="-351.2" font-family="Helvetica,sans-Serif" font-size="11.00">id</text>
<polygon fill="none" stroke="black" points="896.5,-343 896.5,-365 1011.5,-365 1011.5,-343 896.5,-343"/>
<text text-anchor="start" x="899.5" y="-351.2" font-family="Helvetica,sans-Serif" font-size="11.00">uuid[2147483647]</text>
<polygon fill="#ffffff" stroke="transparent" points="702.5,-321 702.5,-343 896.5,-343 896.5,-321 702.5,-321"/>
<polygon fill="none" stroke="black" points="702.5,-321 702.5,-343 896.5,-343 896.5,-321 702.5,-321"/>
<text text-anchor="start" x="722.5" y="-329.2" font-family="Helvetica,sans-Serif" font-size="11.00">internal_name</text>
<polygon fill="none" stroke="black" points="896.5,-321 896.5,-343 1011.5,-343 1011.5,-321 896.5,-321"/>
<text text-anchor="start" x="899.5" y="-329.2" font-family="Helvetica,sans-Serif" font-size="11.00">text[2147483647]</text>
<polygon fill="none" stroke="black" points="702.5,-299 702.5,-321 896.5,-321 896.5,-299 702.5,-299"/>
<image xlink:href="../../images/foreignKeys.png" width="11px" height="12px" preserveAspectRatio="xMinYMin meet" x="707.5" y="-316"/>
<text text-anchor="start" x="722.5" y="-307.2" font-family="Helvetica,sans-Serif" font-size="11.00">instance_id</text>
<polygon fill="none" stroke="black" points="896.5,-299 896.5,-321 1011.5,-321 1011.5,-299 896.5,-299"/>
<text text-anchor="start" x="899.5" y="-307.2" font-family="Helvetica,sans-Serif" font-size="11.00">uuid[2147483647]</text>
<polygon fill="none" stroke="black" points="702.5,-277 702.5,-299 896.5,-299 896.5,-277 702.5,-277"/>
<image xlink:href="../../images/foreignKeys.png" width="11px" height="12px" preserveAspectRatio="xMinYMin meet" x="707.5" y="-294"/>
<text text-anchor="start" x="722.5" y="-285.2" font-family="Helvetica,sans-Serif" font-size="11.00">application_context_id</text>
<polygon fill="none" stroke="black" points="896.5,-277 896.5,-299 1011.5,-299 1011.5,-277 896.5,-277"/>
<text text-anchor="start" x="899.5" y="-285.2" font-family="Helvetica,sans-Serif" font-size="11.00">uuid[2147483647]</text>
<polygon fill="none" stroke="black" points="702.5,-255 702.5,-277 896.5,-277 896.5,-255 702.5,-255"/>
<text text-anchor="start" x="722.5" y="-263.2" font-family="Helvetica,sans-Serif" font-size="11.00">start_context</text>
<polygon fill="none" stroke="black" points="896.5,-255 896.5,-277 1011.5,-277 1011.5,-255 896.5,-255"/>
<text text-anchor="start" x="899.5" y="-263.2" font-family="Helvetica,sans-Serif" font-size="11.00">bool[1]</text>
<polygon fill="none" stroke="black" points="702.5,-233 702.5,-255 896.5,-255 896.5,-233 702.5,-233"/>
<text text-anchor="start" x="722.5" y="-241.2" font-family="Helvetica,sans-Serif" font-size="11.00">db_pool_size</text>
<polygon fill="none" stroke="black" points="896.5,-233 896.5,-255 1011.5,-255 1011.5,-233 896.5,-233"/>
<text text-anchor="start" x="899.5" y="-241.2" font-family="Helvetica,sans-Serif" font-size="11.00">int4[10]</text>
<polygon fill="none" stroke="black" points="702.5,-211 702.5,-233 896.5,-233 896.5,-211 702.5,-211"/>
<text text-anchor="start" x="722.5" y="-219.2" font-family="Helvetica,sans-Serif" font-size="11.00">context_code</text>
<polygon fill="none" stroke="black" points="896.5,-211 896.5,-233 1011.5,-233 1011.5,-211 896.5,-211"/>
<text text-anchor="start" x="899.5" y="-219.2" font-family="Helvetica,sans-Serif" font-size="11.00">bytea[2147483647]</text>
<polygon fill="none" stroke="black" points="702.5,-189 702.5,-211 896.5,-211 896.5,-189 702.5,-189"/>
<text text-anchor="start" x="722.5" y="-197.2" font-family="Helvetica,sans-Serif" font-size="11.00">diag_timestamp_created</text>
<polygon fill="none" stroke="black" points="896.5,-189 896.5,-211 1011.5,-211 1011.5,-189 896.5,-189"/>
<text text-anchor="start" x="899.5" y="-197.2" font-family="Helvetica,sans-Serif" font-size="11.00">timestamptz[35,6]</text>
<polygon fill="none" stroke="black" points="702.5,-167 702.5,-189 896.5,-189 896.5,-167 702.5,-167"/>
<text text-anchor="start" x="722.5" y="-175.2" font-family="Helvetica,sans-Serif" font-size="11.00">diag_role_created</text>
<polygon fill="none" stroke="black" points="896.5,-167 896.5,-189 1011.5,-189 1011.5,-167 896.5,-167"/>
<text text-anchor="start" x="899.5" y="-175.2" font-family="Helvetica,sans-Serif" font-size="11.00">text[2147483647]</text>
<polygon fill="none" stroke="black" points="702.5,-145 702.5,-167 896.5,-167 896.5,-145 702.5,-145"/>
<text text-anchor="start" x="722.5" y="-153.2" font-family="Helvetica,sans-Serif" font-size="11.00">diag_timestamp_modified</text>
<polygon fill="none" stroke="black" points="896.5,-145 896.5,-167 1011.5,-167 1011.5,-145 896.5,-145"/>
<text text-anchor="start" x="899.5" y="-153.2" font-family="Helvetica,sans-Serif" font-size="11.00">timestamptz[35,6]</text>
<polygon fill="none" stroke="black" points="702.5,-123 702.5,-145 896.5,-145 896.5,-123 702.5,-123"/>
<text text-anchor="start" x="722.5" y="-131.2" font-family="Helvetica,sans-Serif" font-size="11.00">diag_wallclock_modified</text>
<polygon fill="none" stroke="black" points="896.5,-123 896.5,-145 1011.5,-145 1011.5,-123 896.5,-123"/>
<text text-anchor="start" x="899.5" y="-131.2" font-family="Helvetica,sans-Serif" font-size="11.00">timestamptz[35,6]</text>
<polygon fill="none" stroke="black" points="702.5,-101 702.5,-123 896.5,-123 896.5,-101 702.5,-101"/>
<text text-anchor="start" x="722.5" y="-109.2" font-family="Helvetica,sans-Serif" font-size="11.00">diag_role_modified</text>
<polygon fill="none" stroke="black" points="896.5,-101 896.5,-123 1011.5,-123 1011.5,-101 896.5,-101"/>
<text text-anchor="start" x="899.5" y="-109.2" font-family="Helvetica,sans-Serif" font-size="11.00">text[2147483647]</text>
<polygon fill="none" stroke="black" points="702.5,-79 702.5,-101 896.5,-101 896.5,-79 702.5,-79"/>
<text text-anchor="start" x="722.5" y="-87.2" font-family="Helvetica,sans-Serif" font-size="11.00">diag_row_version</text>
<polygon fill="none" stroke="black" points="896.5,-79 896.5,-101 1011.5,-101 1011.5,-79 896.5,-79"/>
<text text-anchor="start" x="899.5" y="-87.2" font-family="Helvetica,sans-Serif" font-size="11.00">int8[19]</text>
<polygon fill="none" stroke="black" points="702.5,-57 702.5,-79 896.5,-79 896.5,-57 702.5,-57"/>
<text text-anchor="start" x="722.5" y="-65.2" font-family="Helvetica,sans-Serif" font-size="11.00">diag_update_count</text>
<polygon fill="none" stroke="black" points="896.5,-57 896.5,-79 1011.5,-79 1011.5,-57 896.5,-57"/>
<text text-anchor="start" x="899.5" y="-65.2" font-family="Helvetica,sans-Serif" font-size="11.00">int8[19]</text>
<polygon fill="#ffffff" stroke="transparent" points="702.5,-39 702.5,-57 805.5,-57 805.5,-39 702.5,-39"/>
<polygon fill="none" stroke="black" points="702.5,-39 702.5,-57 805.5,-57 805.5,-39 702.5,-39"/>
<text text-anchor="start" x="705.5" y="-45.2" font-family="Helvetica,sans-Serif" font-size="11.00">&lt; 2</text>
<polygon fill="#ffffff" stroke="transparent" points="805.5,-39 805.5,-57 896.5,-57 896.5,-39 805.5,-39"/>
<polygon fill="none" stroke="black" points="805.5,-39 805.5,-57 896.5,-57 896.5,-39 805.5,-39"/>
<text text-anchor="start" x="885.5" y="-45.2" font-family="Helvetica,sans-Serif" font-size="11.00"> &#160;</text>
<polygon fill="#ffffff" stroke="transparent" points="896.5,-39 896.5,-57 1011.5,-57 1011.5,-39 896.5,-39"/>
<polygon fill="none" stroke="black" points="896.5,-39 896.5,-57 1011.5,-57 1011.5,-39 896.5,-39"/>
<text text-anchor="start" x="988.5" y="-45.2" font-family="Helvetica,sans-Serif" font-size="11.00">0 &gt;</text>
<polygon fill="none" stroke="black" stroke-width="2" points="701,-38 701,-388 1012,-388 1012,-38 701,-38"/>
</a>
</g>
</g>
<!-- syst_instance_contexts&#45;&gt;syst_application_contexts -->
<g id="edge2" class="edge">
<title>syst_instance_contexts:w&#45;&gt;syst_application_contexts:e</title>
<path fill="none" stroke="black" d="M687.3,-290.52C637.74,-311.54 724.61,-457 652,-457"/>
<polygon fill="black" stroke="black" points="693.62,-289.4 702.13,-291.54 697.56,-288.7 701.5,-288 701.5,-288 701.5,-288 697.56,-288.7 700.87,-284.46 693.62,-289.4 693.62,-289.4"/>
<ellipse fill="none" stroke="black" cx="690.47" cy="-289.96" rx="3.2" ry="3.2"/>
</g>
<!-- syst_instances -->
<g id="node4" class="node">
<title>syst_instances</title>
<g id="a_node4"><a xlink:href="../../tables/syst_instances.html" xlink:title="syst_instances" target="_top">
<polygon fill="#ffffff" stroke="transparent" points="441.5,-89 441.5,-323 640.5,-323 640.5,-89 441.5,-89"/>
<polygon fill="#f5f5f5" stroke="transparent" points="442,-301 442,-323 641,-323 641,-301 442,-301"/>
<polygon fill="none" stroke="black" points="442,-301 442,-323 641,-323 641,-301 442,-301"/>
<text text-anchor="start" x="447" y="-310.2" font-family="Helvetica,sans-Serif" font-weight="bold" font-size="11.00">syst_instances</text>
<text text-anchor="start" x="599" y="-309.2" font-family="Helvetica,sans-Serif" font-size="11.00">[table]</text>
<polygon fill="none" stroke="black" points="442,-279 442,-301 641,-301 641,-279 442,-279"/>
<image xlink:href="../../images/primaryKeys.png" width="11px" height="12px" preserveAspectRatio="xMinYMin meet" x="447" y="-296"/>
<text text-anchor="start" x="462" y="-287.2" font-family="Helvetica,sans-Serif" font-size="11.00">id</text>
<polygon fill="#ffffff" stroke="transparent" points="442,-257 442,-279 641,-279 641,-257 442,-257"/>
<polygon fill="none" stroke="black" points="442,-257 442,-279 641,-279 641,-257 442,-257"/>
<text text-anchor="start" x="462" y="-265.2" font-family="Helvetica,sans-Serif" font-size="11.00">internal_name</text>
<polygon fill="#ffffff" stroke="transparent" points="442,-235 442,-257 641,-257 641,-235 442,-235"/>
<polygon fill="none" stroke="black" points="442,-235 442,-257 641,-257 641,-235 442,-235"/>
<text text-anchor="start" x="462" y="-243.2" font-family="Helvetica,sans-Serif" font-size="11.00">display_name</text>
<polygon fill="none" stroke="black" points="442,-213 442,-235 641,-235 641,-213 442,-213"/>
<image xlink:href="../../images/foreignKeys.png" width="11px" height="12px" preserveAspectRatio="xMinYMin meet" x="447" y="-230"/>
<text text-anchor="start" x="462" y="-221.2" font-family="Helvetica,sans-Serif" font-size="11.00">application_id</text>
<polygon fill="none" stroke="black" points="442,-191 442,-213 641,-213 641,-191 442,-191"/>
<image xlink:href="../../images/foreignKeys.png" width="11px" height="12px" preserveAspectRatio="xMinYMin meet" x="447" y="-208"/>
<text text-anchor="start" x="462" y="-199.2" font-family="Helvetica,sans-Serif" font-size="11.00">instance_type_id</text>
<polygon fill="none" stroke="black" points="442,-169 442,-191 641,-191 641,-169 442,-169"/>
<image xlink:href="../../images/foreignKeys.png" width="11px" height="12px" preserveAspectRatio="xMinYMin meet" x="447" y="-186"/>
<text text-anchor="start" x="462" y="-177.2" font-family="Helvetica,sans-Serif" font-size="11.00">instance_lifecycle_state_id</text>
<polygon fill="none" stroke="black" points="442,-147 442,-169 641,-169 641,-147 442,-147"/>
<image xlink:href="../../images/foreignKeys.png" width="11px" height="12px" preserveAspectRatio="xMinYMin meet" x="447" y="-164"/>
<text text-anchor="start" x="462" y="-155.2" font-family="Helvetica,sans-Serif" font-size="11.00">owner_id</text>
<polygon fill="none" stroke="black" points="442,-125 442,-147 641,-147 641,-125 442,-125"/>
<image xlink:href="../../images/foreignKeys.png" width="11px" height="12px" preserveAspectRatio="xMinYMin meet" x="447" y="-142"/>
<text text-anchor="start" x="462" y="-133.2" font-family="Helvetica,sans-Serif" font-size="11.00">owning_instance_id</text>
<polygon fill="none" stroke="black" points="442,-107 442,-125 641,-125 641,-107 442,-107"/>
<text text-anchor="start" x="445" y="-113.2" font-family="Helvetica,sans-Serif" font-size="11.00">...</text>
<polygon fill="#ffffff" stroke="transparent" points="442,-89 442,-107 534,-107 534,-89 442,-89"/>
<polygon fill="none" stroke="black" points="442,-89 442,-107 534,-107 534,-89 442,-89"/>
<text text-anchor="start" x="445" y="-95.2" font-family="Helvetica,sans-Serif" font-size="11.00">&lt; 5</text>
<polygon fill="#ffffff" stroke="transparent" points="534,-89 534,-107 581,-107 581,-89 534,-89"/>
<polygon fill="none" stroke="black" points="534,-89 534,-107 581,-107 581,-89 534,-89"/>
<text text-anchor="start" x="570" y="-95.2" font-family="Helvetica,sans-Serif" font-size="11.00"> &#160;</text>
<polygon fill="#ffffff" stroke="transparent" points="581,-89 581,-107 641,-107 641,-89 581,-89"/>
<polygon fill="none" stroke="black" points="581,-89 581,-107 641,-107 641,-89 581,-89"/>
<text text-anchor="start" x="618" y="-95.2" font-family="Helvetica,sans-Serif" font-size="11.00">2 &gt;</text>
</a>
</g>
</g>
<!-- syst_instance_contexts&#45;&gt;syst_instances -->
<g id="edge3" class="edge">
<title>syst_instance_contexts:w&#45;&gt;syst_instances:e</title>
<path fill="none" stroke="black" d="M687.09,-307.86C671.1,-302.7 664.23,-290 642,-290"/>
<polygon fill="black" stroke="black" points="693.59,-308.82 700.97,-313.56 697.54,-309.41 701.5,-310 701.5,-310 701.5,-310 697.54,-309.41 702.03,-306.44 693.59,-308.82 693.59,-308.82"/>
<ellipse fill="none" stroke="black" cx="690.42" cy="-308.35" rx="3.2" ry="3.2"/>
</g>
<!-- syst_instances&#45;&gt;syst_applications -->
<g id="edge5" class="edge">
<title>syst_instances:w&#45;&gt;syst_applications:e</title>
<path fill="none" stroke="black" d="M427,-227.56C398.7,-245.37 428.96,-324 383.5,-324"/>
<polygon fill="black" stroke="black" points="433.25,-225.97 441.89,-227.49 437.12,-224.99 441,-224 441,-224 441,-224 437.12,-224.99 440.11,-220.51 433.25,-225.97 433.25,-225.97"/>
<ellipse fill="none" stroke="black" cx="430.15" cy="-226.76" rx="3.2" ry="3.2"/>
</g>
<!-- syst_enum_items -->
<g id="node6" class="node">
<title>syst_enum_items</title>
<g id="a_node6"><a xlink:href="../../tables/syst_enum_items.html" xlink:title="syst_enum_items" target="_top">
<polygon fill="#ffffff" stroke="transparent" points="8,-153 8,-211 170,-211 170,-153 8,-153"/>
<polygon fill="#f5f5f5" stroke="transparent" points="8,-189 8,-211 170,-211 170,-189 8,-189"/>
<polygon fill="none" stroke="black" points="8,-189 8,-211 170,-211 170,-189 8,-189"/>
<text text-anchor="start" x="13" y="-198.2" font-family="Helvetica,sans-Serif" font-weight="bold" font-size="11.00">syst_enum_items</text>
<text text-anchor="start" x="128" y="-197.2" font-family="Helvetica,sans-Serif" font-size="11.00">[table]</text>
<polygon fill="none" stroke="black" points="8,-171 8,-189 170,-189 170,-171 8,-171"/>
<text text-anchor="start" x="11" y="-177.2" font-family="Helvetica,sans-Serif" font-size="11.00">...</text>
<polygon fill="#ffffff" stroke="transparent" points="8,-153 8,-171 82,-171 82,-153 8,-153"/>
<polygon fill="none" stroke="black" points="8,-153 8,-171 82,-171 82,-153 8,-153"/>
<text text-anchor="start" x="11" y="-159.2" font-family="Helvetica,sans-Serif" font-size="11.00">&lt; 2</text>
<polygon fill="#ffffff" stroke="transparent" points="82,-153 82,-171 120,-171 120,-153 82,-153"/>
<polygon fill="none" stroke="black" points="82,-153 82,-171 120,-171 120,-153 82,-153"/>
<text text-anchor="start" x="109" y="-159.2" font-family="Helvetica,sans-Serif" font-size="11.00"> &#160;</text>
<polygon fill="#ffffff" stroke="transparent" points="120,-153 120,-171 170,-171 170,-153 120,-153"/>
<polygon fill="none" stroke="black" points="120,-153 120,-171 170,-171 170,-153 120,-153"/>
<text text-anchor="start" x="147" y="-159.2" font-family="Helvetica,sans-Serif" font-size="11.00">4 &gt;</text>
</a>
</g>
</g>
<!-- syst_instances&#45;&gt;syst_enum_items -->
<g id="edge6" class="edge">
<title>syst_instances:w&#45;&gt;syst_enum_items:e</title>
<path fill="none" stroke="black" d="M426.35,-180C318.32,-180 285.96,-180 171,-180"/>
<polygon fill="black" stroke="black" points="433,-180 441,-183.6 437,-180 441,-180 441,-180 441,-180 437,-180 441,-176.4 433,-180 433,-180"/>
<ellipse fill="none" stroke="black" cx="429.8" cy="-180" rx="3.2" ry="3.2"/>
</g>
<!-- syst_instances&#45;&gt;syst_enum_items -->
<g id="edge7" class="edge">
<title>syst_instances:w&#45;&gt;syst_enum_items:e</title>
<path fill="none" stroke="black" d="M426.53,-202.02C335.88,-202.26 307.29,-204.41 211,-190 192.88,-187.29 189.32,-180 171,-180"/>
<polygon fill="black" stroke="black" points="433,-202.01 441.01,-205.6 437,-202.01 441,-202 441,-202 441,-202 437,-202.01 440.99,-198.4 433,-202.01 433,-202.01"/>
<ellipse fill="none" stroke="black" cx="429.8" cy="-202.02" rx="3.2" ry="3.2"/>
</g>
<!-- syst_owners -->
<g id="node7" class="node">
<title>syst_owners</title>
<g id="a_node7"><a xlink:href="../../tables/syst_owners.html" xlink:title="syst_owners" target="_top">
<polygon fill="#ffffff" stroke="transparent" points="236,-98 236,-156 365,-156 365,-98 236,-98"/>
<polygon fill="#f5f5f5" stroke="transparent" points="236.5,-134 236.5,-156 365.5,-156 365.5,-134 236.5,-134"/>
<polygon fill="none" stroke="black" points="236.5,-134 236.5,-156 365.5,-156 365.5,-134 236.5,-134"/>
<text text-anchor="start" x="241.5" y="-143.2" font-family="Helvetica,sans-Serif" font-weight="bold" font-size="11.00">syst_owners</text>
<text text-anchor="start" x="323.5" y="-142.2" font-family="Helvetica,sans-Serif" font-size="11.00">[table]</text>
<polygon fill="none" stroke="black" points="236.5,-116 236.5,-134 365.5,-134 365.5,-116 236.5,-116"/>
<text text-anchor="start" x="239.5" y="-122.2" font-family="Helvetica,sans-Serif" font-size="11.00">...</text>
<polygon fill="#ffffff" stroke="transparent" points="236.5,-98 236.5,-116 293.5,-116 293.5,-98 236.5,-98"/>
<polygon fill="none" stroke="black" points="236.5,-98 236.5,-116 293.5,-116 293.5,-98 236.5,-98"/>
<text text-anchor="start" x="239.5" y="-104.2" font-family="Helvetica,sans-Serif" font-size="11.00">&lt; 1</text>
<polygon fill="#ffffff" stroke="transparent" points="293.5,-98 293.5,-116 323.5,-116 323.5,-98 293.5,-98"/>
<polygon fill="none" stroke="black" points="293.5,-98 293.5,-116 323.5,-116 323.5,-98 293.5,-98"/>
<text text-anchor="start" x="312.5" y="-104.2" font-family="Helvetica,sans-Serif" font-size="11.00"> &#160;</text>
<polygon fill="#ffffff" stroke="transparent" points="323.5,-98 323.5,-116 365.5,-116 365.5,-98 323.5,-98"/>
<polygon fill="none" stroke="black" points="323.5,-98 323.5,-116 365.5,-116 365.5,-98 323.5,-98"/>
<text text-anchor="start" x="342.5" y="-104.2" font-family="Helvetica,sans-Serif" font-size="11.00">1 &gt;</text>
</a>
</g>
</g>
<!-- syst_instances&#45;&gt;syst_owners -->
<g id="edge8" class="edge">
<title>syst_instances:w&#45;&gt;syst_owners:e</title>
<path fill="none" stroke="black" d="M426.58,-155.94C403.36,-148.71 397.2,-125 366.5,-125"/>
<polygon fill="black" stroke="black" points="433.08,-156.87 440.49,-161.56 437.04,-157.43 441,-158 441,-158 441,-158 437.04,-157.43 441.51,-154.44 433.08,-156.87 433.08,-156.87"/>
<ellipse fill="none" stroke="black" cx="429.91" cy="-156.41" rx="3.2" ry="3.2"/>
</g>
<!-- syst_instance_type_contexts -->
<g id="node5" class="node">
<title>syst_instance_type_contexts</title>
<g id="a_node5"><a xlink:href="../../tables/syst_instance_type_contexts.html" xlink:title="syst_instance_type_contexts" target="_top">
<polygon fill="#ffffff" stroke="transparent" points="737.5,-430 737.5,-488 975.5,-488 975.5,-430 737.5,-430"/>
<polygon fill="#f5f5f5" stroke="transparent" points="737.5,-466 737.5,-488 975.5,-488 975.5,-466 737.5,-466"/>
<polygon fill="none" stroke="black" points="737.5,-466 737.5,-488 975.5,-488 975.5,-466 737.5,-466"/>
<text text-anchor="start" x="742.5" y="-475.2" font-family="Helvetica,sans-Serif" font-weight="bold" font-size="11.00">syst_instance_type_contexts</text>
<text text-anchor="start" x="933.5" y="-474.2" font-family="Helvetica,sans-Serif" font-size="11.00">[table]</text>
<polygon fill="none" stroke="black" points="737.5,-448 737.5,-466 975.5,-466 975.5,-448 737.5,-448"/>
<text text-anchor="start" x="740.5" y="-454.2" font-family="Helvetica,sans-Serif" font-size="11.00">...</text>
<polygon fill="#ffffff" stroke="transparent" points="737.5,-430 737.5,-448 855.5,-448 855.5,-430 737.5,-430"/>
<polygon fill="none" stroke="black" points="737.5,-430 737.5,-448 855.5,-448 855.5,-430 737.5,-430"/>
<text text-anchor="start" x="740.5" y="-436.2" font-family="Helvetica,sans-Serif" font-size="11.00">&lt; 2</text>
<polygon fill="#ffffff" stroke="transparent" points="855.5,-430 855.5,-448 915.5,-448 915.5,-430 855.5,-430"/>
<polygon fill="none" stroke="black" points="855.5,-430 855.5,-448 915.5,-448 915.5,-430 855.5,-430"/>
<text text-anchor="start" x="904.5" y="-436.2" font-family="Helvetica,sans-Serif" font-size="11.00"> &#160;</text>
<polygon fill="#ffffff" stroke="transparent" points="915.5,-430 915.5,-448 975.5,-448 975.5,-430 915.5,-430"/>
<polygon fill="none" stroke="black" points="915.5,-430 915.5,-448 975.5,-448 975.5,-430 915.5,-430"/>
<text text-anchor="start" x="964.5" y="-436.2" font-family="Helvetica,sans-Serif" font-size="11.00"> &#160;</text>
</a>
</g>
</g>
<!-- syst_instance_type_contexts&#45;&gt;syst_application_contexts -->
<g id="edge4" class="edge">
<title>syst_instance_type_contexts:w&#45;&gt;syst_application_contexts:e</title>
<path fill="none" stroke="black" d="M721.81,-457C695.64,-457 684.13,-457 652,-457"/>
<polygon fill="black" stroke="black" points="728.5,-457 736.5,-460.6 732.5,-457 736.5,-457 736.5,-457 736.5,-457 732.5,-457 736.5,-453.4 728.5,-457 728.5,-457"/>
<ellipse fill="none" stroke="black" cx="725.3" cy="-457" rx="3.2" ry="3.2"/>
</g>
<!-- syst_owners&#45;&gt;syst_enum_items -->
<g id="edge9" class="edge">
<title>syst_owners:w&#45;&gt;syst_enum_items:e</title>
<path fill="none" stroke="black" d="M221.32,-128.44C200.01,-140.48 202.93,-180 171,-180"/>
<polygon fill="black" stroke="black" points="227.73,-126.89 236.35,-128.5 231.61,-125.94 235.5,-125 235.5,-125 235.5,-125 231.61,-125.94 234.65,-121.5 227.73,-126.89 227.73,-126.89"/>
<ellipse fill="none" stroke="black" cx="224.62" cy="-127.64" rx="3.2" ry="3.2"/>
</g>
</g>
</svg>
