<?xml version="1.0" encoding="UTF-8" standalone="no"?>
<!DOCTYPE svg PUBLIC "-//W3C//DTD SVG 1.1//EN"
 "http://www.w3.org/Graphics/SVG/1.1/DTD/svg11.dtd">
<!-- Generated by graphviz version 2.43.0 (0)
 -->
<!-- Title: twoDegreesRelationshipsDiagram Pages: 1 -->
<svg width="1457pt" height="665pt"
 viewBox="0.00 0.00 1457.00 665.00" xmlns="http://www.w3.org/2000/svg" xmlns:xlink="http://www.w3.org/1999/xlink">
<g id="graph0" class="graph" transform="scale(1 1) rotate(0) translate(4 661)">
<title>twoDegreesRelationshipsDiagram</title>
<polygon fill="#ffffff" stroke="transparent" points="-4,4 -4,-661 1453,-661 1453,4 -4,4"/>
<text text-anchor="middle" x="71.5" y="-7.2" font-family="Helvetica,sans-Serif" font-size="11.00">Generated by SchemaSpy</text>
<!-- syst_application_contexts -->
<g id="node1" class="node">
<title>syst_application_contexts</title>
<g id="a_node1"><a xlink:href="../../tables/syst_application_contexts.html" xlink:title="syst_application_contexts" target="_top">
<polygon fill="#ffffff" stroke="transparent" points="942,-516 942,-574 1155,-574 1155,-516 942,-516"/>
<polygon fill="#f5f5f5" stroke="transparent" points="942.5,-552 942.5,-574 1155.5,-574 1155.5,-552 942.5,-552"/>
<polygon fill="none" stroke="black" points="942.5,-552 942.5,-574 1155.5,-574 1155.5,-552 942.5,-552"/>
<text text-anchor="start" x="947.5" y="-561.2" font-family="Helvetica,sans-Serif" font-weight="bold" font-size="11.00">syst_application_contexts</text>
<text text-anchor="start" x="1120.5" y="-560.2" font-family="Helvetica,sans-Serif" font-size="11.00">[table]</text>
<polygon fill="none" stroke="black" points="942.5,-534 942.5,-552 1155.5,-552 1155.5,-534 942.5,-534"/>
<text text-anchor="start" x="945.5" y="-540.2" font-family="Helvetica,sans-Serif" font-size="11.00">...</text>
<polygon fill="#ffffff" stroke="transparent" points="942.5,-516 942.5,-534 1042.5,-534 1042.5,-516 942.5,-516"/>
<polygon fill="none" stroke="black" points="942.5,-516 942.5,-534 1042.5,-534 1042.5,-516 942.5,-516"/>
<text text-anchor="start" x="945.5" y="-522.2" font-family="Helvetica,sans-Serif" font-size="11.00">&lt; 1</text>
<polygon fill="#ffffff" stroke="transparent" points="1042.5,-516 1042.5,-534 1094.5,-534 1094.5,-516 1042.5,-516"/>
<polygon fill="none" stroke="black" points="1042.5,-516 1042.5,-534 1094.5,-534 1094.5,-516 1042.5,-516"/>
<text text-anchor="start" x="1084.5" y="-522.2" font-family="Helvetica,sans-Serif" font-size="11.00"> &#160;</text>
<polygon fill="#ffffff" stroke="transparent" points="1094.5,-516 1094.5,-534 1155.5,-534 1155.5,-516 1094.5,-516"/>
<polygon fill="none" stroke="black" points="1094.5,-516 1094.5,-534 1155.5,-534 1155.5,-516 1094.5,-516"/>
<text text-anchor="start" x="1136.5" y="-522.2" font-family="Helvetica,sans-Serif" font-size="11.00">2 &gt;</text>
</a>
</g>
</g>
<!-- syst_applications -->
<g id="node2" class="node">
<title>syst_applications</title>
<g id="a_node2"><a xlink:href="../../tables/syst_applications.html" xlink:title="syst_applications" target="_top">
<polygon fill="#ffffff" stroke="transparent" points="657,-452 657,-576 851,-576 851,-452 657,-452"/>
<polygon fill="#f5f5f5" stroke="transparent" points="657,-554 657,-576 851,-576 851,-554 657,-554"/>
<polygon fill="none" stroke="black" points="657,-554 657,-576 851,-576 851,-554 657,-554"/>
<text text-anchor="start" x="662" y="-563.2" font-family="Helvetica,sans-Serif" font-weight="bold" font-size="11.00">syst_applications</text>
<text text-anchor="start" x="816" y="-562.2" font-family="Helvetica,sans-Serif" font-size="11.00">[table]</text>
<polygon fill="none" stroke="black" points="657,-532 657,-554 851,-554 851,-532 657,-532"/>
<image xlink:href="../../images/primaryKeys.png" width="11px" height="12px" preserveAspectRatio="xMinYMin meet" x="662" y="-549"/>
<text text-anchor="start" x="677" y="-540.2" font-family="Helvetica,sans-Serif" font-size="11.00">id</text>
<polygon fill="#ffffff" stroke="transparent" points="657,-510 657,-532 851,-532 851,-510 657,-510"/>
<polygon fill="none" stroke="black" points="657,-510 657,-532 851,-532 851,-510 657,-510"/>
<text text-anchor="start" x="677" y="-518.2" font-family="Helvetica,sans-Serif" font-size="11.00">internal_name</text>
<polygon fill="#ffffff" stroke="transparent" points="657,-488 657,-510 851,-510 851,-488 657,-488"/>
<polygon fill="none" stroke="black" points="657,-488 657,-510 851,-510 851,-488 657,-488"/>
<text text-anchor="start" x="677" y="-496.2" font-family="Helvetica,sans-Serif" font-size="11.00">display_name</text>
<polygon fill="none" stroke="black" points="657,-470 657,-488 851,-488 851,-470 657,-470"/>
<text text-anchor="start" x="660" y="-476.2" font-family="Helvetica,sans-Serif" font-size="11.00">...</text>
<polygon fill="#ffffff" stroke="transparent" points="657,-452 657,-470 743,-470 743,-452 657,-452"/>
<polygon fill="none" stroke="black" points="657,-452 657,-470 743,-470 743,-452 657,-452"/>
<text text-anchor="start" x="660" y="-458.2" font-family="Helvetica,sans-Serif" font-size="11.00"> &#160;</text>
<polygon fill="#ffffff" stroke="transparent" points="743,-452 743,-470 792,-470 792,-452 743,-452"/>
<polygon fill="none" stroke="black" points="743,-452 743,-470 792,-470 792,-452 743,-452"/>
<text text-anchor="start" x="782" y="-458.2" font-family="Helvetica,sans-Serif" font-size="11.00"> &#160;</text>
<polygon fill="#ffffff" stroke="transparent" points="792,-452 792,-470 851,-470 851,-452 792,-452"/>
<polygon fill="none" stroke="black" points="792,-452 792,-470 851,-470 851,-452 792,-452"/>
<text text-anchor="start" x="832" y="-458.2" font-family="Helvetica,sans-Serif" font-size="11.00">3 &gt;</text>
</a>
</g>
</g>
<!-- syst_application_contexts&#45;&gt;syst_applications -->
<g id="edge1" class="edge">
<title>syst_application_contexts:w&#45;&gt;syst_applications:e</title>
<path fill="none" stroke="black" d="M927.09,-543C898.55,-543 886.49,-543 852,-543"/>
<polygon fill="black" stroke="black" points="933.5,-543 941.5,-546.6 937.5,-543 941.5,-543 941.5,-543 941.5,-543 937.5,-543 941.5,-539.4 933.5,-543 933.5,-543"/>
<ellipse fill="none" stroke="black" cx="930.3" cy="-543" rx="3.2" ry="3.2"/>
</g>
<!-- syst_enum_functional_types -->
<g id="node3" class="node">
<title>syst_enum_functional_types</title>
<g id="a_node3"><a xlink:href="../../tables/syst_enum_functional_types.html" xlink:title="syst_enum_functional_types" target="_top">
<polygon fill="#ffffff" stroke="transparent" points="175,-360 175,-418 404,-418 404,-360 175,-360"/>
<polygon fill="#f5f5f5" stroke="transparent" points="175.5,-396 175.5,-418 404.5,-418 404.5,-396 175.5,-396"/>
<polygon fill="none" stroke="black" points="175.5,-396 175.5,-418 404.5,-418 404.5,-396 175.5,-396"/>
<text text-anchor="start" x="180.5" y="-405.2" font-family="Helvetica,sans-Serif" font-weight="bold" font-size="11.00">syst_enum_functional_types</text>
<text text-anchor="start" x="369.5" y="-404.2" font-family="Helvetica,sans-Serif" font-size="11.00">[table]</text>
<polygon fill="none" stroke="black" points="175.5,-378 175.5,-396 404.5,-396 404.5,-378 175.5,-378"/>
<text text-anchor="start" x="178.5" y="-384.2" font-family="Helvetica,sans-Serif" font-size="11.00">...</text>
<polygon fill="#ffffff" stroke="transparent" points="175.5,-360 175.5,-378 283.5,-378 283.5,-360 175.5,-360"/>
<polygon fill="none" stroke="black" points="175.5,-360 175.5,-378 283.5,-378 283.5,-360 175.5,-360"/>
<text text-anchor="start" x="178.5" y="-366.2" font-family="Helvetica,sans-Serif" font-size="11.00">&lt; 1</text>
<polygon fill="#ffffff" stroke="transparent" points="283.5,-360 283.5,-378 339.5,-378 339.5,-360 283.5,-360"/>
<polygon fill="none" stroke="black" points="283.5,-360 283.5,-378 339.5,-378 339.5,-360 283.5,-360"/>
<text text-anchor="start" x="329.5" y="-366.2" font-family="Helvetica,sans-Serif" font-size="11.00"> &#160;</text>
<polygon fill="#ffffff" stroke="transparent" points="339.5,-360 339.5,-378 404.5,-378 404.5,-360 339.5,-360"/>
<polygon fill="none" stroke="black" points="339.5,-360 339.5,-378 404.5,-378 404.5,-360 339.5,-360"/>
<text text-anchor="start" x="385.5" y="-366.2" font-family="Helvetica,sans-Serif" font-size="11.00">1 &gt;</text>
</a>
</g>
</g>
<!-- syst_enums -->
<g id="node4" class="node">
<title>syst_enums</title>
<g id="a_node4"><a xlink:href="../../tables/syst_enums.html" xlink:title="syst_enums" target="_top">
<polygon fill="#ffffff" stroke="transparent" points="8,-334 8,-392 126,-392 126,-334 8,-334"/>
<polygon fill="#f5f5f5" stroke="transparent" points="8,-370 8,-392 126,-392 126,-370 8,-370"/>
<polygon fill="none" stroke="black" points="8,-370 8,-392 126,-392 126,-370 8,-370"/>
<text text-anchor="start" x="13" y="-379.2" font-family="Helvetica,sans-Serif" font-weight="bold" font-size="11.00">syst_enums</text>
<text text-anchor="start" x="91" y="-378.2" font-family="Helvetica,sans-Serif" font-size="11.00">[table]</text>
<polygon fill="none" stroke="black" points="8,-352 8,-370 126,-370 126,-352 8,-352"/>
<text text-anchor="start" x="11" y="-358.2" font-family="Helvetica,sans-Serif" font-size="11.00">...</text>
<polygon fill="#ffffff" stroke="transparent" points="8,-334 8,-352 56,-352 56,-334 8,-334"/>
<polygon fill="none" stroke="black" points="8,-334 8,-352 56,-352 56,-334 8,-334"/>
<text text-anchor="start" x="11" y="-340.2" font-family="Helvetica,sans-Serif" font-size="11.00"> &#160;</text>
<polygon fill="#ffffff" stroke="transparent" points="56,-334 56,-352 86,-352 86,-334 56,-334"/>
<polygon fill="none" stroke="black" points="56,-334 56,-352 86,-352 86,-334 56,-334"/>
<text text-anchor="start" x="76" y="-340.2" font-family="Helvetica,sans-Serif" font-size="11.00"> &#160;</text>
<polygon fill="#ffffff" stroke="transparent" points="86,-334 86,-352 126,-352 126,-334 86,-334"/>
<polygon fill="none" stroke="black" points="86,-334 86,-352 126,-352 126,-334 86,-334"/>
<text text-anchor="start" x="107" y="-340.2" font-family="Helvetica,sans-Serif" font-size="11.00">2 &gt;</text>
</a>
</g>
</g>
<!-- syst_enum_functional_types&#45;&gt;syst_enums -->
<g id="edge2" class="edge">
<title>syst_enum_functional_types:w&#45;&gt;syst_enums:e</title>
<path fill="none" stroke="black" d="M160.31,-382.94C149.21,-375.62 145.05,-361 127,-361"/>
<polygon fill="black" stroke="black" points="166.81,-384.8 173.51,-390.46 170.65,-385.9 174.5,-387 174.5,-387 174.5,-387 170.65,-385.9 175.49,-383.54 166.81,-384.8 166.81,-384.8"/>
<ellipse fill="none" stroke="black" cx="163.73" cy="-383.92" rx="3.2" ry="3.2"/>
</g>
<!-- syst_enum_items -->
<g id="node5" class="node">
<title>syst_enum_items</title>
<g id="a_node5"><a xlink:href="../../tables/syst_enum_items.html" xlink:title="syst_enum_items" target="_top">
<polygon fill="#ffffff" stroke="transparent" points="453,-332 453,-390 608,-390 608,-332 453,-332"/>
<polygon fill="#f5f5f5" stroke="transparent" points="453.5,-368 453.5,-390 608.5,-390 608.5,-368 453.5,-368"/>
<polygon fill="none" stroke="black" points="453.5,-368 453.5,-390 608.5,-390 608.5,-368 453.5,-368"/>
<text text-anchor="start" x="458.5" y="-377.2" font-family="Helvetica,sans-Serif" font-weight="bold" font-size="11.00">syst_enum_items</text>
<text text-anchor="start" x="573.5" y="-376.2" font-family="Helvetica,sans-Serif" font-size="11.00">[table]</text>
<polygon fill="none" stroke="black" points="453.5,-350 453.5,-368 608.5,-368 608.5,-350 453.5,-350"/>
<text text-anchor="start" x="456.5" y="-356.2" font-family="Helvetica,sans-Serif" font-size="11.00">...</text>
<polygon fill="#ffffff" stroke="transparent" points="453.5,-332 453.5,-350 524.5,-350 524.5,-332 453.5,-332"/>
<polygon fill="none" stroke="black" points="453.5,-332 453.5,-350 524.5,-350 524.5,-332 453.5,-332"/>
<text text-anchor="start" x="456.5" y="-338.2" font-family="Helvetica,sans-Serif" font-size="11.00">&lt; 2</text>
<polygon fill="#ffffff" stroke="transparent" points="524.5,-332 524.5,-350 561.5,-350 561.5,-332 524.5,-332"/>
<polygon fill="none" stroke="black" points="524.5,-332 524.5,-350 561.5,-350 561.5,-332 524.5,-332"/>
<text text-anchor="start" x="551.5" y="-338.2" font-family="Helvetica,sans-Serif" font-size="11.00"> &#160;</text>
<polygon fill="#ffffff" stroke="transparent" points="561.5,-332 561.5,-350 608.5,-350 608.5,-332 561.5,-332"/>
<polygon fill="none" stroke="black" points="561.5,-332 561.5,-350 608.5,-350 608.5,-332 561.5,-332"/>
<text text-anchor="start" x="589.5" y="-338.2" font-family="Helvetica,sans-Serif" font-size="11.00">4 &gt;</text>
</a>
</g>
</g>
<!-- syst_enum_items&#45;&gt;syst_enum_functional_types -->
<g id="edge4" class="edge">
<title>syst_enum_items:w&#45;&gt;syst_enum_functional_types:e</title>
<path fill="none" stroke="black" d="M430.4,-385.53C422.02,-386.46 413.64,-387 405.5,-387"/>
<polygon fill="black" stroke="black" points="437.02,-384.63 445.43,-387.11 440.98,-384.09 444.94,-383.55 444.94,-383.55 444.94,-383.55 440.98,-384.09 444.46,-379.98 437.02,-384.63 437.02,-384.63"/>
<ellipse fill="none" stroke="black" cx="433.84" cy="-385.06" rx="3.2" ry="3.2"/>
</g>
<!-- syst_enum_items&#45;&gt;syst_enums -->
<g id="edge3" class="edge">
<title>syst_enum_items:w&#45;&gt;syst_enums:e</title>
<path fill="none" stroke="black" d="M430.34,-351.06C424.14,-350.64 417.99,-350.28 412,-350 303.23,-344.92 274.91,-335.43 167,-350 148.73,-352.47 145.44,-361 127,-361"/>
<polygon fill="black" stroke="black" points="436.87,-351.54 444.58,-355.71 440.86,-351.83 444.85,-352.12 444.85,-352.12 444.85,-352.12 440.86,-351.83 445.11,-348.53 436.87,-351.54 436.87,-351.54"/>
<ellipse fill="none" stroke="black" cx="433.68" cy="-351.3" rx="3.2" ry="3.2"/>
</g>
<!-- syst_instance_contexts -->
<g id="node6" class="node">
<title>syst_instance_contexts</title>
<g id="a_node6"><a xlink:href="../../tables/syst_instance_contexts.html" xlink:title="syst_instance_contexts" target="_top">
<polygon fill="#ffffff" stroke="transparent" points="1246,-434 1246,-580 1441,-580 1441,-434 1246,-434"/>
<polygon fill="#f5f5f5" stroke="transparent" points="1246.5,-558 1246.5,-580 1441.5,-580 1441.5,-558 1246.5,-558"/>
<polygon fill="none" stroke="black" points="1246.5,-558 1246.5,-580 1441.5,-580 1441.5,-558 1246.5,-558"/>
<text text-anchor="start" x="1251.5" y="-567.2" font-family="Helvetica,sans-Serif" font-weight="bold" font-size="11.00">syst_instance_contexts</text>
<text text-anchor="start" x="1406.5" y="-566.2" font-family="Helvetica,sans-Serif" font-size="11.00">[table]</text>
<polygon fill="none" stroke="black" points="1246.5,-536 1246.5,-558 1441.5,-558 1441.5,-536 1246.5,-536"/>
<image xlink:href="../../images/primaryKeys.png" width="11px" height="12px" preserveAspectRatio="xMinYMin meet" x="1251.5" y="-553"/>
<text text-anchor="start" x="1267.5" y="-544.2" font-family="Helvetica,sans-Serif" font-size="11.00">id</text>
<polygon fill="#ffffff" stroke="transparent" points="1246.5,-514 1246.5,-536 1441.5,-536 1441.5,-514 1246.5,-514"/>
<polygon fill="none" stroke="black" points="1246.5,-514 1246.5,-536 1441.5,-536 1441.5,-514 1246.5,-514"/>
<text text-anchor="start" x="1267.5" y="-522.2" font-family="Helvetica,sans-Serif" font-size="11.00">internal_name</text>
<polygon fill="none" stroke="black" points="1246.5,-492 1246.5,-514 1441.5,-514 1441.5,-492 1246.5,-492"/>
<image xlink:href="../../images/foreignKeys.png" width="11px" height="12px" preserveAspectRatio="xMinYMin meet" x="1251.5" y="-509"/>
<text text-anchor="start" x="1267.5" y="-500.2" font-family="Helvetica,sans-Serif" font-size="11.00">instance_id</text>
<polygon fill="none" stroke="black" points="1246.5,-470 1246.5,-492 1441.5,-492 1441.5,-470 1246.5,-470"/>
<image xlink:href="../../images/foreignKeys.png" width="11px" height="12px" preserveAspectRatio="xMinYMin meet" x="1251.5" y="-487"/>
<text text-anchor="start" x="1267.5" y="-478.2" font-family="Helvetica,sans-Serif" font-size="11.00">application_context_id</text>
<polygon fill="none" stroke="black" points="1246.5,-452 1246.5,-470 1441.5,-470 1441.5,-452 1246.5,-452"/>
<text text-anchor="start" x="1249.5" y="-458.2" font-family="Helvetica,sans-Serif" font-size="11.00">...</text>
<polygon fill="#ffffff" stroke="transparent" points="1246.5,-434 1246.5,-452 1341.5,-452 1341.5,-434 1246.5,-434"/>
<polygon fill="none" stroke="black" points="1246.5,-434 1246.5,-452 1341.5,-452 1341.5,-434 1246.5,-434"/>
<text text-anchor="start" x="1249.5" y="-440.2" font-family="Helvetica,sans-Serif" font-size="11.00">&lt; 2</text>
<polygon fill="#ffffff" stroke="transparent" points="1341.5,-434 1341.5,-452 1391.5,-452 1391.5,-434 1341.5,-434"/>
<polygon fill="none" stroke="black" points="1341.5,-434 1341.5,-452 1391.5,-452 1391.5,-434 1341.5,-434"/>
<text text-anchor="start" x="1381.5" y="-440.2" font-family="Helvetica,sans-Serif" font-size="11.00"> &#160;</text>
<polygon fill="#ffffff" stroke="transparent" points="1391.5,-434 1391.5,-452 1441.5,-452 1441.5,-434 1391.5,-434"/>
<polygon fill="none" stroke="black" points="1391.5,-434 1391.5,-452 1441.5,-452 1441.5,-434 1391.5,-434"/>
<text text-anchor="start" x="1431.5" y="-440.2" font-family="Helvetica,sans-Serif" font-size="11.00"> &#160;</text>
</a>
</g>
</g>
<!-- syst_instance_contexts&#45;&gt;syst_application_contexts -->
<g id="edge5" class="edge">
<title>syst_instance_contexts:w&#45;&gt;syst_application_contexts:e</title>
<path fill="none" stroke="black" d="M1231.1,-483.21C1198.26,-494.25 1199.25,-543 1156.5,-543"/>
<polygon fill="black" stroke="black" points="1237.59,-482.21 1246.05,-484.56 1241.55,-481.61 1245.5,-481 1245.5,-481 1245.5,-481 1241.55,-481.61 1244.95,-477.44 1237.59,-482.21 1237.59,-482.21"/>
<ellipse fill="none" stroke="black" cx="1234.43" cy="-482.7" rx="3.2" ry="3.2"/>
</g>
<!-- syst_instances -->
<g id="node7" class="node">
<title>syst_instances</title>
<g id="a_node7"><a xlink:href="../../tables/syst_instances.html" xlink:title="syst_instances" target="_top">
<polygon fill="#ffffff" stroke="transparent" points="900,-37 900,-477 1197,-477 1197,-37 900,-37"/>
<polygon fill="#f5f5f5" stroke="transparent" points="902.5,-453 902.5,-475 1195.5,-475 1195.5,-453 902.5,-453"/>
<polygon fill="none" stroke="black" points="902.5,-453 902.5,-475 1195.5,-475 1195.5,-453 902.5,-453"/>
<text text-anchor="start" x="907.5" y="-462.2" font-family="Helvetica,sans-Serif" font-weight="bold" font-size="11.00">syst_instances</text>
<text text-anchor="start" x="1160.5" y="-461.2" font-family="Helvetica,sans-Serif" font-size="11.00">[table]</text>
<polygon fill="none" stroke="black" points="902.5,-431 902.5,-453 1096.5,-453 1096.5,-431 902.5,-431"/>
<image xlink:href="../../images/primaryKeys.png" width="11px" height="12px" preserveAspectRatio="xMinYMin meet" x="907.5" y="-448"/>
<text text-anchor="start" x="922.5" y="-439.2" font-family="Helvetica,sans-Serif" font-size="11.00">id</text>
<polygon fill="none" stroke="black" points="1096.5,-431 1096.5,-453 1195.5,-453 1195.5,-431 1096.5,-431"/>
<text text-anchor="start" x="1099.5" y="-439.2" font-family="Helvetica,sans-Serif" font-size="11.00">uuid[2147483647]</text>
<polygon fill="#ffffff" stroke="transparent" points="902.5,-409 902.5,-431 1096.5,-431 1096.5,-409 902.5,-409"/>
<polygon fill="none" stroke="black" points="902.5,-409 902.5,-431 1096.5,-431 1096.5,-409 902.5,-409"/>
<text text-anchor="start" x="922.5" y="-417.2" font-family="Helvetica,sans-Serif" font-size="11.00">internal_name</text>
<polygon fill="none" stroke="black" points="1096.5,-409 1096.5,-431 1195.5,-431 1195.5,-409 1096.5,-409"/>
<text text-anchor="start" x="1099.5" y="-417.2" font-family="Helvetica,sans-Serif" font-size="11.00">text[2147483647]</text>
<polygon fill="#ffffff" stroke="transparent" points="902.5,-387 902.5,-409 1096.5,-409 1096.5,-387 902.5,-387"/>
<polygon fill="none" stroke="black" points="902.5,-387 902.5,-409 1096.5,-409 1096.5,-387 902.5,-387"/>
<text text-anchor="start" x="922.5" y="-395.2" font-family="Helvetica,sans-Serif" font-size="11.00">display_name</text>
<polygon fill="none" stroke="black" points="1096.5,-387 1096.5,-409 1195.5,-409 1195.5,-387 1096.5,-387"/>
<text text-anchor="start" x="1099.5" y="-395.2" font-family="Helvetica,sans-Serif" font-size="11.00">text[2147483647]</text>
<polygon fill="none" stroke="black" points="902.5,-365 902.5,-387 1096.5,-387 1096.5,-365 902.5,-365"/>
<image xlink:href="../../images/foreignKeys.png" width="11px" height="12px" preserveAspectRatio="xMinYMin meet" x="907.5" y="-382"/>
<text text-anchor="start" x="922.5" y="-373.2" font-family="Helvetica,sans-Serif" font-size="11.00">application_id</text>
<polygon fill="none" stroke="black" points="1096.5,-365 1096.5,-387 1195.5,-387 1195.5,-365 1096.5,-365"/>
<text text-anchor="start" x="1099.5" y="-373.2" font-family="Helvetica,sans-Serif" font-size="11.00">uuid[2147483647]</text>
<polygon fill="none" stroke="black" points="902.5,-343 902.5,-365 1096.5,-365 1096.5,-343 902.5,-343"/>
<image xlink:href="../../images/foreignKeys.png" width="11px" height="12px" preserveAspectRatio="xMinYMin meet" x="907.5" y="-360"/>
<text text-anchor="start" x="922.5" y="-351.2" font-family="Helvetica,sans-Serif" font-size="11.00">instance_type_id</text>
<polygon fill="none" stroke="black" points="1096.5,-343 1096.5,-365 1195.5,-365 1195.5,-343 1096.5,-343"/>
<text text-anchor="start" x="1099.5" y="-351.2" font-family="Helvetica,sans-Serif" font-size="11.00">uuid[2147483647]</text>
<polygon fill="none" stroke="black" points="902.5,-321 902.5,-343 1096.5,-343 1096.5,-321 902.5,-321"/>
<image xlink:href="../../images/foreignKeys.png" width="11px" height="12px" preserveAspectRatio="xMinYMin meet" x="907.5" y="-338"/>
<text text-anchor="start" x="922.5" y="-329.2" font-family="Helvetica,sans-Serif" font-size="11.00">instance_state_id</text>
<polygon fill="none" stroke="black" points="1096.5,-321 1096.5,-343 1195.5,-343 1195.5,-321 1096.5,-321"/>
<text text-anchor="start" x="1099.5" y="-329.2" font-family="Helvetica,sans-Serif" font-size="11.00">uuid[2147483647]</text>
<polygon fill="none" stroke="black" points="902.5,-299 902.5,-321 1096.5,-321 1096.5,-299 902.5,-299"/>
<image xlink:href="../../images/foreignKeys.png" width="11px" height="12px" preserveAspectRatio="xMinYMin meet" x="907.5" y="-316"/>
<text text-anchor="start" x="922.5" y="-307.2" font-family="Helvetica,sans-Serif" font-size="11.00">owner_id</text>
<polygon fill="none" stroke="black" points="1096.5,-299 1096.5,-321 1195.5,-321 1195.5,-299 1096.5,-299"/>
<text text-anchor="start" x="1099.5" y="-307.2" font-family="Helvetica,sans-Serif" font-size="11.00">uuid[2147483647]</text>
<polygon fill="none" stroke="black" points="902.5,-277 902.5,-299 1096.5,-299 1096.5,-277 902.5,-277"/>
<image xlink:href="../../images/foreignKeys.png" width="11px" height="12px" preserveAspectRatio="xMinYMin meet" x="907.5" y="-294"/>
<text text-anchor="start" x="922.5" y="-285.2" font-family="Helvetica,sans-Serif" font-size="11.00">owning_instance_id</text>
<polygon fill="none" stroke="black" points="1096.5,-277 1096.5,-299 1195.5,-299 1195.5,-277 1096.5,-277"/>
<text text-anchor="start" x="1099.5" y="-285.2" font-family="Helvetica,sans-Serif" font-size="11.00">uuid[2147483647]</text>
<polygon fill="none" stroke="black" points="902.5,-255 902.5,-277 1096.5,-277 1096.5,-255 902.5,-255"/>
<text text-anchor="start" x="922.5" y="-263.2" font-family="Helvetica,sans-Serif" font-size="11.00">dbserver_name</text>
<polygon fill="none" stroke="black" points="1096.5,-255 1096.5,-277 1195.5,-277 1195.5,-255 1096.5,-255"/>
<text text-anchor="start" x="1099.5" y="-263.2" font-family="Helvetica,sans-Serif" font-size="11.00">text[2147483647]</text>
<polygon fill="none" stroke="black" points="902.5,-233 902.5,-255 1096.5,-255 1096.5,-233 902.5,-233"/>
<text text-anchor="start" x="922.5" y="-241.2" font-family="Helvetica,sans-Serif" font-size="11.00">instance_code</text>
<polygon fill="none" stroke="black" points="1096.5,-233 1096.5,-255 1195.5,-255 1195.5,-233 1096.5,-233"/>
<text text-anchor="start" x="1099.5" y="-241.2" font-family="Helvetica,sans-Serif" font-size="11.00">bytea[2147483647]</text>
<polygon fill="none" stroke="black" points="902.5,-211 902.5,-233 1096.5,-233 1096.5,-211 902.5,-211"/>
<text text-anchor="start" x="922.5" y="-219.2" font-family="Helvetica,sans-Serif" font-size="11.00">instance_options</text>
<polygon fill="none" stroke="black" points="1096.5,-211 1096.5,-233 1195.5,-233 1195.5,-211 1096.5,-211"/>
<text text-anchor="start" x="1099.5" y="-219.2" font-family="Helvetica,sans-Serif" font-size="11.00">jsonb[2147483647]</text>
<polygon fill="none" stroke="black" points="902.5,-189 902.5,-211 1096.5,-211 1096.5,-189 902.5,-189"/>
<text text-anchor="start" x="922.5" y="-197.2" font-family="Helvetica,sans-Serif" font-size="11.00">diag_timestamp_created</text>
<polygon fill="none" stroke="black" points="1096.5,-189 1096.5,-211 1195.5,-211 1195.5,-189 1096.5,-189"/>
<text text-anchor="start" x="1099.5" y="-197.2" font-family="Helvetica,sans-Serif" font-size="11.00">timestamptz[35,6]</text>
<polygon fill="none" stroke="black" points="902.5,-167 902.5,-189 1096.5,-189 1096.5,-167 902.5,-167"/>
<text text-anchor="start" x="922.5" y="-175.2" font-family="Helvetica,sans-Serif" font-size="11.00">diag_role_created</text>
<polygon fill="none" stroke="black" points="1096.5,-167 1096.5,-189 1195.5,-189 1195.5,-167 1096.5,-167"/>
<text text-anchor="start" x="1099.5" y="-175.2" font-family="Helvetica,sans-Serif" font-size="11.00">text[2147483647]</text>
<polygon fill="none" stroke="black" points="902.5,-145 902.5,-167 1096.5,-167 1096.5,-145 902.5,-145"/>
<text text-anchor="start" x="922.5" y="-153.2" font-family="Helvetica,sans-Serif" font-size="11.00">diag_timestamp_modified</text>
<polygon fill="none" stroke="black" points="1096.5,-145 1096.5,-167 1195.5,-167 1195.5,-145 1096.5,-145"/>
<text text-anchor="start" x="1099.5" y="-153.2" font-family="Helvetica,sans-Serif" font-size="11.00">timestamptz[35,6]</text>
<polygon fill="none" stroke="black" points="902.5,-123 902.5,-145 1096.5,-145 1096.5,-123 902.5,-123"/>
<text text-anchor="start" x="922.5" y="-131.2" font-family="Helvetica,sans-Serif" font-size="11.00">diag_wallclock_modified</text>
<polygon fill="none" stroke="black" points="1096.5,-123 1096.5,-145 1195.5,-145 1195.5,-123 1096.5,-123"/>
<text text-anchor="start" x="1099.5" y="-131.2" font-family="Helvetica,sans-Serif" font-size="11.00">timestamptz[35,6]</text>
<polygon fill="none" stroke="black" points="902.5,-101 902.5,-123 1096.5,-123 1096.5,-101 902.5,-101"/>
<text text-anchor="start" x="922.5" y="-109.2" font-family="Helvetica,sans-Serif" font-size="11.00">diag_role_modified</text>
<polygon fill="none" stroke="black" points="1096.5,-101 1096.5,-123 1195.5,-123 1195.5,-101 1096.5,-101"/>
<text text-anchor="start" x="1099.5" y="-109.2" font-family="Helvetica,sans-Serif" font-size="11.00">text[2147483647]</text>
<polygon fill="none" stroke="black" points="902.5,-79 902.5,-101 1096.5,-101 1096.5,-79 902.5,-79"/>
<text text-anchor="start" x="922.5" y="-87.2" font-family="Helvetica,sans-Serif" font-size="11.00">diag_row_version</text>
<polygon fill="none" stroke="black" points="1096.5,-79 1096.5,-101 1195.5,-101 1195.5,-79 1096.5,-79"/>
<text text-anchor="start" x="1099.5" y="-87.2" font-family="Helvetica,sans-Serif" font-size="11.00">int8[19]</text>
<polygon fill="none" stroke="black" points="902.5,-57 902.5,-79 1096.5,-79 1096.5,-57 902.5,-57"/>
<text text-anchor="start" x="922.5" y="-65.2" font-family="Helvetica,sans-Serif" font-size="11.00">diag_update_count</text>
<polygon fill="none" stroke="black" points="1096.5,-57 1096.5,-79 1195.5,-79 1195.5,-57 1096.5,-57"/>
<text text-anchor="start" x="1099.5" y="-65.2" font-family="Helvetica,sans-Serif" font-size="11.00">int8[19]</text>
<polygon fill="#ffffff" stroke="transparent" points="902.5,-39 902.5,-57 1003.5,-57 1003.5,-39 902.5,-39"/>
<polygon fill="none" stroke="black" points="902.5,-39 902.5,-57 1003.5,-57 1003.5,-39 902.5,-39"/>
<text text-anchor="start" x="905.5" y="-45.2" font-family="Helvetica,sans-Serif" font-size="11.00">&lt; 5</text>
<polygon fill="#ffffff" stroke="transparent" points="1003.5,-39 1003.5,-57 1096.5,-57 1096.5,-39 1003.5,-39"/>
<polygon fill="none" stroke="black" points="1003.5,-39 1003.5,-57 1096.5,-57 1096.5,-39 1003.5,-39"/>
<text text-anchor="start" x="1086.5" y="-45.2" font-family="Helvetica,sans-Serif" font-size="11.00"> &#160;</text>
<polygon fill="#ffffff" stroke="transparent" points="1096.5,-39 1096.5,-57 1195.5,-57 1195.5,-39 1096.5,-39"/>
<polygon fill="none" stroke="black" points="1096.5,-39 1096.5,-57 1195.5,-57 1195.5,-39 1096.5,-39"/>
<text text-anchor="start" x="1176.5" y="-45.2" font-family="Helvetica,sans-Serif" font-size="11.00">2 &gt;</text>
<polygon fill="none" stroke="black" stroke-width="2" points="901,-38 901,-476 1196,-476 1196,-38 901,-38"/>
</a>
</g>
</g>
<!-- syst_instance_contexts&#45;&gt;syst_instances -->
<g id="edge6" class="edge">
<title>syst_instance_contexts:w&#45;&gt;syst_instances:e</title>
<path fill="none" stroke="black" d="M1231.91,-498.21C1216.15,-483.83 1225.3,-442 1196.5,-442"/>
<polygon fill="black" stroke="black" points="1237.95,-500.34 1244.3,-506.4 1241.73,-501.67 1245.5,-503 1245.5,-503 1245.5,-503 1241.73,-501.67 1246.7,-499.6 1237.95,-500.34 1237.95,-500.34"/>
<ellipse fill="none" stroke="black" cx="1234.94" cy="-499.28" rx="3.2" ry="3.2"/>
</g>
<!-- syst_instances&#45;&gt;syst_applications -->
<g id="edge9" class="edge">
<title>syst_instances:w&#45;&gt;syst_applications:e</title>
<path fill="none" stroke="black" d="M887.13,-378.62C838.71,-399.87 923.67,-543 852,-543"/>
<polygon fill="black" stroke="black" points="893.63,-377.44 902.15,-379.54 897.57,-376.72 901.5,-376 901.5,-376 901.5,-376 897.57,-376.72 900.85,-372.46 893.63,-377.44 893.63,-377.44"/>
<ellipse fill="none" stroke="black" cx="890.48" cy="-378.01" rx="3.2" ry="3.2"/>
</g>
<!-- syst_instances&#45;&gt;syst_enum_items -->
<g id="edge10" class="edge">
<title>syst_instances:w&#45;&gt;syst_enum_items:e</title>
<path fill="none" stroke="black" d="M887.03,-332.93C842.48,-336.14 706.44,-346.97 616.15,-354.2"/>
<polygon fill="black" stroke="black" points="893.52,-332.51 901.73,-335.59 897.51,-332.26 901.5,-332 901.5,-332 901.5,-332 897.51,-332.26 901.27,-328.41 893.52,-332.51 893.52,-332.51"/>
<ellipse fill="none" stroke="black" cx="890.32" cy="-332.72" rx="3.2" ry="3.2"/>
</g>
<!-- syst_instances&#45;&gt;syst_enum_items -->
<g id="edge11" class="edge">
<title>syst_instances:w&#45;&gt;syst_enum_items:e</title>
<path fill="none" stroke="black" d="M887.07,-354.02C792.8,-354.24 687.68,-356.57 616.36,-358.48"/>
<polygon fill="black" stroke="black" points="893.5,-354.01 901.5,-357.6 897.5,-354 901.5,-354 901.5,-354 901.5,-354 897.5,-354 901.5,-350.4 893.5,-354.01 893.5,-354.01"/>
<ellipse fill="none" stroke="black" cx="890.3" cy="-354.01" rx="3.2" ry="3.2"/>
</g>
<!-- syst_instances&#45;&gt;syst_instances -->
<g id="edge13" class="edge">
<title>syst_instances:w&#45;&gt;syst_instances:e</title>
<path fill="none" stroke="black" d="M893.05,-298.92C829.44,-378.15 838.88,-494 1049,-494 1269,-494 1269,-485.33 1195.5,-442"/>
<polygon fill="black" stroke="black" points="897.27,-294.05 905.22,-290.36 899.88,-291.03 902.5,-288 902.5,-288 902.5,-288 899.88,-291.03 899.78,-285.64 897.27,-294.05 897.27,-294.05"/>
<ellipse fill="none" stroke="black" cx="895.17" cy="-296.47" rx="3.2" ry="3.2"/>
</g>
<!-- syst_owners -->
<g id="node9" class="node">
<title>syst_owners</title>
<g id="a_node9"><a xlink:href="../../tables/syst_owners.html" xlink:title="syst_owners" target="_top">
<polygon fill="#ffffff" stroke="transparent" points="693,-266 693,-324 815,-324 815,-266 693,-266"/>
<polygon fill="#f5f5f5" stroke="transparent" points="693,-302 693,-324 815,-324 815,-302 693,-302"/>
<polygon fill="none" stroke="black" points="693,-302 693,-324 815,-324 815,-302 693,-302"/>
<text text-anchor="start" x="698" y="-311.2" font-family="Helvetica,sans-Serif" font-weight="bold" font-size="11.00">syst_owners</text>
<text text-anchor="start" x="780" y="-310.2" font-family="Helvetica,sans-Serif" font-size="11.00">[table]</text>
<polygon fill="none" stroke="black" points="693,-284 693,-302 815,-302 815,-284 693,-284"/>
<text text-anchor="start" x="696" y="-290.2" font-family="Helvetica,sans-Serif" font-size="11.00">...</text>
<polygon fill="#ffffff" stroke="transparent" points="693,-266 693,-284 747,-284 747,-266 693,-266"/>
<polygon fill="none" stroke="black" points="693,-266 693,-284 747,-284 747,-266 693,-266"/>
<text text-anchor="start" x="696" y="-272.2" font-family="Helvetica,sans-Serif" font-size="11.00">&lt; 1</text>
<polygon fill="#ffffff" stroke="transparent" points="747,-266 747,-284 776,-284 776,-266 747,-266"/>
<polygon fill="none" stroke="black" points="747,-266 747,-284 776,-284 776,-266 747,-266"/>
<text text-anchor="start" x="766" y="-272.2" font-family="Helvetica,sans-Serif" font-size="11.00"> &#160;</text>
<polygon fill="#ffffff" stroke="transparent" points="776,-266 776,-284 815,-284 815,-266 776,-266"/>
<polygon fill="none" stroke="black" points="776,-266 776,-284 815,-284 815,-266 776,-266"/>
<text text-anchor="start" x="796" y="-272.2" font-family="Helvetica,sans-Serif" font-size="11.00">1 &gt;</text>
</a>
</g>
</g>
<!-- syst_instances&#45;&gt;syst_owners -->
<g id="edge12" class="edge">
<title>syst_instances:w&#45;&gt;syst_owners:e</title>
<path fill="none" stroke="black" d="M886.83,-309.77C865.39,-309.12 843.08,-307.16 823.05,-304.88"/>
<polygon fill="black" stroke="black" points="893.5,-309.87 901.44,-313.6 897.5,-309.94 901.5,-310 901.5,-310 901.5,-310 897.5,-309.94 901.56,-306.4 893.5,-309.87 893.5,-309.87"/>
<ellipse fill="none" stroke="black" cx="890.3" cy="-309.82" rx="3.2" ry="3.2"/>
</g>
<!-- syst_instance_type_applications -->
<g id="node8" class="node">
<title>syst_instance_type_applications</title>
<g id="a_node8"><a xlink:href="../../tables/syst_instance_type_applications.html" xlink:title="syst_instance_type_applications" target="_top">
<polygon fill="#ffffff" stroke="transparent" points="920.5,-595 920.5,-653 1176.5,-653 1176.5,-595 920.5,-595"/>
<polygon fill="#f5f5f5" stroke="transparent" points="920.5,-631 920.5,-653 1176.5,-653 1176.5,-631 920.5,-631"/>
<polygon fill="none" stroke="black" points="920.5,-631 920.5,-653 1176.5,-653 1176.5,-631 920.5,-631"/>
<text text-anchor="start" x="925.5" y="-640.2" font-family="Helvetica,sans-Serif" font-weight="bold" font-size="11.00">syst_instance_type_applications</text>
<text text-anchor="start" x="1141.5" y="-639.2" font-family="Helvetica,sans-Serif" font-size="11.00">[table]</text>
<polygon fill="none" stroke="black" points="920.5,-613 920.5,-631 1176.5,-631 1176.5,-613 920.5,-613"/>
<text text-anchor="start" x="923.5" y="-619.2" font-family="Helvetica,sans-Serif" font-size="11.00">...</text>
<polygon fill="#ffffff" stroke="transparent" points="920.5,-595 920.5,-613 1041.5,-613 1041.5,-595 920.5,-595"/>
<polygon fill="none" stroke="black" points="920.5,-595 920.5,-613 1041.5,-613 1041.5,-595 920.5,-595"/>
<text text-anchor="start" x="923.5" y="-601.2" font-family="Helvetica,sans-Serif" font-size="11.00">&lt; 2</text>
<polygon fill="#ffffff" stroke="transparent" points="1041.5,-595 1041.5,-613 1104.5,-613 1104.5,-595 1041.5,-595"/>
<polygon fill="none" stroke="black" points="1041.5,-595 1041.5,-613 1104.5,-613 1104.5,-595 1041.5,-595"/>
<text text-anchor="start" x="1094.5" y="-601.2" font-family="Helvetica,sans-Serif" font-size="11.00"> &#160;</text>
<polygon fill="#ffffff" stroke="transparent" points="1104.5,-595 1104.5,-613 1176.5,-613 1176.5,-595 1104.5,-595"/>
<polygon fill="none" stroke="black" points="1104.5,-595 1104.5,-613 1176.5,-613 1176.5,-595 1104.5,-595"/>
<text text-anchor="start" x="1157.5" y="-601.2" font-family="Helvetica,sans-Serif" font-size="11.00">1 &gt;</text>
</a>
</g>
</g>
<!-- syst_instance_type_applications&#45;&gt;syst_applications -->
<g id="edge7" class="edge">
<title>syst_instance_type_applications:w&#45;&gt;syst_applications:e</title>
<path fill="none" stroke="black" d="M905.23,-618.61C878.42,-603.48 892.41,-543 852,-543"/>
<polygon fill="black" stroke="black" points="911.72,-620.15 918.67,-625.5 915.61,-621.07 919.5,-622 919.5,-622 919.5,-622 915.61,-621.07 920.33,-618.5 911.72,-620.15 911.72,-620.15"/>
<ellipse fill="none" stroke="black" cx="908.6" cy="-619.41" rx="3.2" ry="3.2"/>
</g>
<!-- syst_instance_type_applications&#45;&gt;syst_enum_items -->
<g id="edge8" class="edge">
<title>syst_instance_type_applications:w&#45;&gt;syst_enum_items:e</title>
<path fill="none" stroke="black" d="M904.94,-622.16C794.1,-624.65 744.29,-653.6 649,-587 582.67,-540.64 551.13,-445.07 538.53,-394.34"/>
<polygon fill="black" stroke="black" points="911.5,-622.09 919.54,-625.6 915.5,-622.05 919.5,-622 919.5,-622 919.5,-622 915.5,-622.05 919.46,-618.4 911.5,-622.09 911.5,-622.09"/>
<ellipse fill="none" stroke="black" cx="908.3" cy="-622.13" rx="3.2" ry="3.2"/>
</g>
<!-- syst_owners&#45;&gt;syst_enum_items -->
<g id="edge14" class="edge">
<title>syst_owners:w&#45;&gt;syst_enum_items:e</title>
<path fill="none" stroke="black" d="M670.76,-319.51C653,-324.8 634.2,-330.4 616.35,-335.72"/>
<polygon fill="black" stroke="black" points="677.07,-317.63 685.76,-318.79 680.9,-316.48 684.74,-315.34 684.74,-315.34 684.74,-315.34 680.9,-316.48 683.71,-311.89 677.07,-317.63 677.07,-317.63"/>
<ellipse fill="none" stroke="black" cx="674" cy="-318.54" rx="3.2" ry="3.2"/>
</g>
</g>
</svg>
