<?xml version="1.0" encoding="UTF-8" standalone="no"?>
<!DOCTYPE svg PUBLIC "-//W3C//DTD SVG 1.1//EN"
 "http://www.w3.org/Graphics/SVG/1.1/DTD/svg11.dtd">
<!-- Generated by graphviz version 2.43.0 (0)
 -->
<!-- Title: twoDegreesRelationshipsDiagram Pages: 1 -->
<svg width="1246pt" height="531pt"
 viewBox="0.00 0.00 1246.00 531.00" xmlns="http://www.w3.org/2000/svg" xmlns:xlink="http://www.w3.org/1999/xlink">
<g id="graph0" class="graph" transform="scale(1 1) rotate(0) translate(4 527)">
<title>twoDegreesRelationshipsDiagram</title>
<polygon fill="#ffffff" stroke="transparent" points="-4,4 -4,-527 1242,-527 1242,4 -4,4"/>
<text text-anchor="middle" x="71.5" y="-7.2" font-family="Helvetica,sans-Serif" font-size="11.00">Generated by SchemaSpy</text>
<!-- syst_enum_functional_types -->
<g id="node1" class="node">
<title>syst_enum_functional_types</title>
<g id="a_node1"><a xlink:href="../../tables/syst_enum_functional_types.html" xlink:title="syst_enum_functional_types" target="_top">
<polygon fill="#ffffff" stroke="transparent" points="175,-212 175,-270 404,-270 404,-212 175,-212"/>
<polygon fill="#f5f5f5" stroke="transparent" points="175.5,-248 175.5,-270 404.5,-270 404.5,-248 175.5,-248"/>
<polygon fill="none" stroke="black" points="175.5,-248 175.5,-270 404.5,-270 404.5,-248 175.5,-248"/>
<text text-anchor="start" x="180.5" y="-257.2" font-family="Helvetica,sans-Serif" font-weight="bold" font-size="11.00">syst_enum_functional_types</text>
<text text-anchor="start" x="369.5" y="-256.2" font-family="Helvetica,sans-Serif" font-size="11.00">[table]</text>
<polygon fill="none" stroke="black" points="175.5,-230 175.5,-248 404.5,-248 404.5,-230 175.5,-230"/>
<text text-anchor="start" x="178.5" y="-236.2" font-family="Helvetica,sans-Serif" font-size="11.00">...</text>
<polygon fill="#ffffff" stroke="transparent" points="175.5,-212 175.5,-230 283.5,-230 283.5,-212 175.5,-212"/>
<polygon fill="none" stroke="black" points="175.5,-212 175.5,-230 283.5,-230 283.5,-212 175.5,-212"/>
<text text-anchor="start" x="178.5" y="-218.2" font-family="Helvetica,sans-Serif" font-size="11.00">&lt; 1</text>
<polygon fill="#ffffff" stroke="transparent" points="283.5,-212 283.5,-230 339.5,-230 339.5,-212 283.5,-212"/>
<polygon fill="none" stroke="black" points="283.5,-212 283.5,-230 339.5,-230 339.5,-212 283.5,-212"/>
<text text-anchor="start" x="329.5" y="-218.2" font-family="Helvetica,sans-Serif" font-size="11.00"> &#160;</text>
<polygon fill="#ffffff" stroke="transparent" points="339.5,-212 339.5,-230 404.5,-230 404.5,-212 339.5,-212"/>
<polygon fill="none" stroke="black" points="339.5,-212 339.5,-230 404.5,-230 404.5,-212 339.5,-212"/>
<text text-anchor="start" x="385.5" y="-218.2" font-family="Helvetica,sans-Serif" font-size="11.00">1 &gt;</text>
</a>
</g>
</g>
<!-- syst_enums -->
<g id="node2" class="node">
<title>syst_enums</title>
<g id="a_node2"><a xlink:href="../../tables/syst_enums.html" xlink:title="syst_enums" target="_top">
<polygon fill="#ffffff" stroke="transparent" points="8,-239 8,-297 126,-297 126,-239 8,-239"/>
<polygon fill="#f5f5f5" stroke="transparent" points="8,-275 8,-297 126,-297 126,-275 8,-275"/>
<polygon fill="none" stroke="black" points="8,-275 8,-297 126,-297 126,-275 8,-275"/>
<text text-anchor="start" x="13" y="-284.2" font-family="Helvetica,sans-Serif" font-weight="bold" font-size="11.00">syst_enums</text>
<text text-anchor="start" x="91" y="-283.2" font-family="Helvetica,sans-Serif" font-size="11.00">[table]</text>
<polygon fill="none" stroke="black" points="8,-257 8,-275 126,-275 126,-257 8,-257"/>
<text text-anchor="start" x="11" y="-263.2" font-family="Helvetica,sans-Serif" font-size="11.00">...</text>
<polygon fill="#ffffff" stroke="transparent" points="8,-239 8,-257 56,-257 56,-239 8,-239"/>
<polygon fill="none" stroke="black" points="8,-239 8,-257 56,-257 56,-239 8,-239"/>
<text text-anchor="start" x="11" y="-245.2" font-family="Helvetica,sans-Serif" font-size="11.00"> &#160;</text>
<polygon fill="#ffffff" stroke="transparent" points="56,-239 56,-257 86,-257 86,-239 56,-239"/>
<polygon fill="none" stroke="black" points="56,-239 56,-257 86,-257 86,-239 56,-239"/>
<text text-anchor="start" x="76" y="-245.2" font-family="Helvetica,sans-Serif" font-size="11.00"> &#160;</text>
<polygon fill="#ffffff" stroke="transparent" points="86,-239 86,-257 126,-257 126,-239 86,-239"/>
<polygon fill="none" stroke="black" points="86,-239 86,-257 126,-257 126,-239 86,-239"/>
<text text-anchor="start" x="107" y="-245.2" font-family="Helvetica,sans-Serif" font-size="11.00">2 &gt;</text>
</a>
</g>
</g>
<!-- syst_enum_functional_types&#45;&gt;syst_enums -->
<g id="edge1" class="edge">
<title>syst_enum_functional_types:w&#45;&gt;syst_enums:e</title>
<path fill="none" stroke="black" d="M160.6,-242.98C149.25,-250.49 145.4,-266 127,-266"/>
<polygon fill="black" stroke="black" points="166.81,-241.2 175.49,-242.46 170.65,-240.1 174.5,-239 174.5,-239 174.5,-239 170.65,-240.1 173.51,-235.54 166.81,-241.2 166.81,-241.2"/>
<ellipse fill="none" stroke="black" cx="163.73" cy="-242.09" rx="3.2" ry="3.2"/>
</g>
<!-- syst_enum_items -->
<g id="node3" class="node">
<title>syst_enum_items</title>
<g id="a_node3"><a xlink:href="../../tables/syst_enum_items.html" xlink:title="syst_enum_items" target="_top">
<polygon fill="#ffffff" stroke="transparent" points="453,-208 453,-376 647,-376 647,-208 453,-208"/>
<polygon fill="#f5f5f5" stroke="transparent" points="453,-354 453,-376 647,-376 647,-354 453,-354"/>
<polygon fill="none" stroke="black" points="453,-354 453,-376 647,-376 647,-354 453,-354"/>
<text text-anchor="start" x="458" y="-363.2" font-family="Helvetica,sans-Serif" font-weight="bold" font-size="11.00">syst_enum_items</text>
<text text-anchor="start" x="612" y="-362.2" font-family="Helvetica,sans-Serif" font-size="11.00">[table]</text>
<polygon fill="none" stroke="black" points="453,-332 453,-354 647,-354 647,-332 453,-332"/>
<image xlink:href="../../images/primaryKeys.png" width="11px" height="12px" preserveAspectRatio="xMinYMin meet" x="458" y="-349"/>
<text text-anchor="start" x="473" y="-340.2" font-family="Helvetica,sans-Serif" font-size="11.00">id</text>
<polygon fill="#ffffff" stroke="transparent" points="453,-310 453,-332 647,-332 647,-310 453,-310"/>
<polygon fill="none" stroke="black" points="453,-310 453,-332 647,-332 647,-310 453,-310"/>
<text text-anchor="start" x="473" y="-318.2" font-family="Helvetica,sans-Serif" font-size="11.00">internal_name</text>
<polygon fill="#ffffff" stroke="transparent" points="453,-288 453,-310 647,-310 647,-288 453,-288"/>
<polygon fill="none" stroke="black" points="453,-288 453,-310 647,-310 647,-288 453,-288"/>
<text text-anchor="start" x="473" y="-296.2" font-family="Helvetica,sans-Serif" font-size="11.00">display_name</text>
<polygon fill="none" stroke="black" points="453,-266 453,-288 647,-288 647,-266 453,-266"/>
<image xlink:href="../../images/foreignKeys.png" width="11px" height="12px" preserveAspectRatio="xMinYMin meet" x="458" y="-283"/>
<text text-anchor="start" x="473" y="-274.2" font-family="Helvetica,sans-Serif" font-size="11.00">enum_id</text>
<polygon fill="none" stroke="black" points="453,-244 453,-266 647,-266 647,-244 453,-244"/>
<image xlink:href="../../images/foreignKeys.png" width="11px" height="12px" preserveAspectRatio="xMinYMin meet" x="458" y="-261"/>
<text text-anchor="start" x="473" y="-252.2" font-family="Helvetica,sans-Serif" font-size="11.00">functional_type_id</text>
<polygon fill="none" stroke="black" points="453,-226 453,-244 647,-244 647,-226 453,-226"/>
<text text-anchor="start" x="456" y="-232.2" font-family="Helvetica,sans-Serif" font-size="11.00">...</text>
<polygon fill="#ffffff" stroke="transparent" points="453,-208 453,-226 543,-226 543,-208 453,-208"/>
<polygon fill="none" stroke="black" points="453,-208 453,-226 543,-226 543,-208 453,-208"/>
<text text-anchor="start" x="456" y="-214.2" font-family="Helvetica,sans-Serif" font-size="11.00">&lt; 2</text>
<polygon fill="#ffffff" stroke="transparent" points="543,-208 543,-226 590,-226 590,-208 543,-208"/>
<polygon fill="none" stroke="black" points="543,-208 543,-226 590,-226 590,-208 543,-208"/>
<text text-anchor="start" x="580" y="-214.2" font-family="Helvetica,sans-Serif" font-size="11.00"> &#160;</text>
<polygon fill="#ffffff" stroke="transparent" points="590,-208 590,-226 647,-226 647,-208 590,-208"/>
<polygon fill="none" stroke="black" points="590,-208 590,-226 647,-226 647,-208 590,-208"/>
<text text-anchor="start" x="628" y="-214.2" font-family="Helvetica,sans-Serif" font-size="11.00">2 &gt;</text>
</a>
</g>
</g>
<!-- syst_enum_items&#45;&gt;syst_enum_functional_types -->
<g id="edge3" class="edge">
<title>syst_enum_items:w&#45;&gt;syst_enum_functional_types:e</title>
<path fill="none" stroke="black" d="M437.57,-252.07C427.19,-247.45 421.38,-239 405.5,-239"/>
<polygon fill="black" stroke="black" points="444.16,-253.41 451.28,-258.53 448.08,-254.2 452,-255 452,-255 452,-255 448.08,-254.2 452.72,-251.47 444.16,-253.41 444.16,-253.41"/>
<ellipse fill="none" stroke="black" cx="441.02" cy="-252.77" rx="3.2" ry="3.2"/>
</g>
<!-- syst_enum_items&#45;&gt;syst_enums -->
<g id="edge2" class="edge">
<title>syst_enum_items:w&#45;&gt;syst_enums:e</title>
<path fill="none" stroke="black" d="M437.57,-277.64C429.73,-278.38 423.83,-279.56 412,-280 303.19,-284.07 274.35,-298.24 167,-280 148.43,-276.84 145.84,-266 127,-266"/>
<polygon fill="black" stroke="black" points="444.01,-277.35 452.16,-280.6 448,-277.18 452,-277 452,-277 452,-277 448,-277.18 451.84,-273.4 444.01,-277.35 444.01,-277.35"/>
<ellipse fill="none" stroke="black" cx="440.81" cy="-277.5" rx="3.2" ry="3.2"/>
</g>
<!-- syst_hierarchies -->
<g id="node4" class="node">
<title>syst_hierarchies</title>
<g id="a_node4"><a xlink:href="../../tables/syst_hierarchies.html" xlink:title="syst_hierarchies" target="_top">
<polygon fill="#ffffff" stroke="transparent" points="696,-37 696,-455 987,-455 987,-37 696,-37"/>
<polygon fill="#f5f5f5" stroke="transparent" points="698.5,-431 698.5,-453 985.5,-453 985.5,-431 698.5,-431"/>
<polygon fill="none" stroke="black" points="698.5,-431 698.5,-453 985.5,-453 985.5,-431 698.5,-431"/>
<text text-anchor="start" x="703.5" y="-440.2" font-family="Helvetica,sans-Serif" font-weight="bold" font-size="11.00">syst_hierarchies</text>
<text text-anchor="start" x="950.5" y="-439.2" font-family="Helvetica,sans-Serif" font-size="11.00">[table]</text>
<polygon fill="none" stroke="black" points="698.5,-409 698.5,-431 892.5,-431 892.5,-409 698.5,-409"/>
<image xlink:href="../../images/primaryKeys.png" width="11px" height="12px" preserveAspectRatio="xMinYMin meet" x="703.5" y="-426"/>
<text text-anchor="start" x="718.5" y="-417.2" font-family="Helvetica,sans-Serif" font-size="11.00">id</text>
<polygon fill="none" stroke="black" points="892.5,-409 892.5,-431 985.5,-431 985.5,-409 892.5,-409"/>
<text text-anchor="start" x="895.5" y="-417.2" font-family="Helvetica,sans-Serif" font-size="11.00">uuid[2147483647]</text>
<polygon fill="#ffffff" stroke="transparent" points="698.5,-387 698.5,-409 892.5,-409 892.5,-387 698.5,-387"/>
<polygon fill="none" stroke="black" points="698.5,-387 698.5,-409 892.5,-409 892.5,-387 698.5,-387"/>
<text text-anchor="start" x="718.5" y="-395.2" font-family="Helvetica,sans-Serif" font-size="11.00">internal_name</text>
<polygon fill="none" stroke="black" points="892.5,-387 892.5,-409 985.5,-409 985.5,-387 892.5,-387"/>
<text text-anchor="start" x="895.5" y="-395.2" font-family="Helvetica,sans-Serif" font-size="11.00">text[2147483647]</text>
<polygon fill="#ffffff" stroke="transparent" points="698.5,-365 698.5,-387 892.5,-387 892.5,-365 698.5,-365"/>
<polygon fill="none" stroke="black" points="698.5,-365 698.5,-387 892.5,-387 892.5,-365 698.5,-365"/>
<text text-anchor="start" x="718.5" y="-373.2" font-family="Helvetica,sans-Serif" font-size="11.00">display_name</text>
<polygon fill="none" stroke="black" points="892.5,-365 892.5,-387 985.5,-387 985.5,-365 892.5,-365"/>
<text text-anchor="start" x="895.5" y="-373.2" font-family="Helvetica,sans-Serif" font-size="11.00">text[2147483647]</text>
<polygon fill="none" stroke="black" points="698.5,-343 698.5,-365 892.5,-365 892.5,-343 698.5,-343"/>
<image xlink:href="../../images/foreignKeys.png" width="11px" height="12px" preserveAspectRatio="xMinYMin meet" x="703.5" y="-360"/>
<text text-anchor="start" x="718.5" y="-351.2" font-family="Helvetica,sans-Serif" font-size="11.00">hierarchy_type_id</text>
<polygon fill="none" stroke="black" points="892.5,-343 892.5,-365 985.5,-365 985.5,-343 892.5,-343"/>
<text text-anchor="start" x="895.5" y="-351.2" font-family="Helvetica,sans-Serif" font-size="11.00">uuid[2147483647]</text>
<polygon fill="none" stroke="black" points="698.5,-321 698.5,-343 892.5,-343 892.5,-321 698.5,-321"/>
<image xlink:href="../../images/foreignKeys.png" width="11px" height="12px" preserveAspectRatio="xMinYMin meet" x="703.5" y="-338"/>
<text text-anchor="start" x="718.5" y="-329.2" font-family="Helvetica,sans-Serif" font-size="11.00">hierarchy_state_id</text>
<polygon fill="none" stroke="black" points="892.5,-321 892.5,-343 985.5,-343 985.5,-321 892.5,-321"/>
<text text-anchor="start" x="895.5" y="-329.2" font-family="Helvetica,sans-Serif" font-size="11.00">uuid[2147483647]</text>
<polygon fill="none" stroke="black" points="698.5,-299 698.5,-321 892.5,-321 892.5,-299 698.5,-299"/>
<text text-anchor="start" x="718.5" y="-307.2" font-family="Helvetica,sans-Serif" font-size="11.00">syst_defined</text>
<polygon fill="none" stroke="black" points="892.5,-299 892.5,-321 985.5,-321 985.5,-299 892.5,-299"/>
<text text-anchor="start" x="895.5" y="-307.2" font-family="Helvetica,sans-Serif" font-size="11.00">bool[1]</text>
<polygon fill="none" stroke="black" points="698.5,-277 698.5,-299 892.5,-299 892.5,-277 698.5,-277"/>
<text text-anchor="start" x="718.5" y="-285.2" font-family="Helvetica,sans-Serif" font-size="11.00">user_maintainable</text>
<polygon fill="none" stroke="black" points="892.5,-277 892.5,-299 985.5,-299 985.5,-277 892.5,-277"/>
<text text-anchor="start" x="895.5" y="-285.2" font-family="Helvetica,sans-Serif" font-size="11.00">bool[1]</text>
<polygon fill="none" stroke="black" points="698.5,-255 698.5,-277 892.5,-277 892.5,-255 698.5,-255"/>
<text text-anchor="start" x="718.5" y="-263.2" font-family="Helvetica,sans-Serif" font-size="11.00">structured</text>
<polygon fill="none" stroke="black" points="892.5,-255 892.5,-277 985.5,-277 985.5,-255 892.5,-255"/>
<text text-anchor="start" x="895.5" y="-263.2" font-family="Helvetica,sans-Serif" font-size="11.00">bool[1]</text>
<polygon fill="none" stroke="black" points="698.5,-233 698.5,-255 892.5,-255 892.5,-233 698.5,-233"/>
<text text-anchor="start" x="718.5" y="-241.2" font-family="Helvetica,sans-Serif" font-size="11.00">syst_description</text>
<polygon fill="none" stroke="black" points="892.5,-233 892.5,-255 985.5,-255 985.5,-233 892.5,-233"/>
<text text-anchor="start" x="895.5" y="-241.2" font-family="Helvetica,sans-Serif" font-size="11.00">text[2147483647]</text>
<polygon fill="none" stroke="black" points="698.5,-211 698.5,-233 892.5,-233 892.5,-211 698.5,-211"/>
<text text-anchor="start" x="718.5" y="-219.2" font-family="Helvetica,sans-Serif" font-size="11.00">user_description</text>
<polygon fill="none" stroke="black" points="892.5,-211 892.5,-233 985.5,-233 985.5,-211 892.5,-211"/>
<text text-anchor="start" x="895.5" y="-219.2" font-family="Helvetica,sans-Serif" font-size="11.00">text[2147483647]</text>
<polygon fill="none" stroke="black" points="698.5,-189 698.5,-211 892.5,-211 892.5,-189 698.5,-189"/>
<text text-anchor="start" x="718.5" y="-197.2" font-family="Helvetica,sans-Serif" font-size="11.00">diag_timestamp_created</text>
<polygon fill="none" stroke="black" points="892.5,-189 892.5,-211 985.5,-211 985.5,-189 892.5,-189"/>
<text text-anchor="start" x="895.5" y="-197.2" font-family="Helvetica,sans-Serif" font-size="11.00">timestamptz[35,6]</text>
<polygon fill="none" stroke="black" points="698.5,-167 698.5,-189 892.5,-189 892.5,-167 698.5,-167"/>
<text text-anchor="start" x="718.5" y="-175.2" font-family="Helvetica,sans-Serif" font-size="11.00">diag_role_created</text>
<polygon fill="none" stroke="black" points="892.5,-167 892.5,-189 985.5,-189 985.5,-167 892.5,-167"/>
<text text-anchor="start" x="895.5" y="-175.2" font-family="Helvetica,sans-Serif" font-size="11.00">text[2147483647]</text>
<polygon fill="none" stroke="black" points="698.5,-145 698.5,-167 892.5,-167 892.5,-145 698.5,-145"/>
<text text-anchor="start" x="718.5" y="-153.2" font-family="Helvetica,sans-Serif" font-size="11.00">diag_timestamp_modified</text>
<polygon fill="none" stroke="black" points="892.5,-145 892.5,-167 985.5,-167 985.5,-145 892.5,-145"/>
<text text-anchor="start" x="895.5" y="-153.2" font-family="Helvetica,sans-Serif" font-size="11.00">timestamptz[35,6]</text>
<polygon fill="none" stroke="black" points="698.5,-123 698.5,-145 892.5,-145 892.5,-123 698.5,-123"/>
<text text-anchor="start" x="718.5" y="-131.2" font-family="Helvetica,sans-Serif" font-size="11.00">diag_wallclock_modified</text>
<polygon fill="none" stroke="black" points="892.5,-123 892.5,-145 985.5,-145 985.5,-123 892.5,-123"/>
<text text-anchor="start" x="895.5" y="-131.2" font-family="Helvetica,sans-Serif" font-size="11.00">timestamptz[35,6]</text>
<polygon fill="none" stroke="black" points="698.5,-101 698.5,-123 892.5,-123 892.5,-101 698.5,-101"/>
<text text-anchor="start" x="718.5" y="-109.2" font-family="Helvetica,sans-Serif" font-size="11.00">diag_role_modified</text>
<polygon fill="none" stroke="black" points="892.5,-101 892.5,-123 985.5,-123 985.5,-101 892.5,-101"/>
<text text-anchor="start" x="895.5" y="-109.2" font-family="Helvetica,sans-Serif" font-size="11.00">text[2147483647]</text>
<polygon fill="none" stroke="black" points="698.5,-79 698.5,-101 892.5,-101 892.5,-79 698.5,-79"/>
<text text-anchor="start" x="718.5" y="-87.2" font-family="Helvetica,sans-Serif" font-size="11.00">diag_row_version</text>
<polygon fill="none" stroke="black" points="892.5,-79 892.5,-101 985.5,-101 985.5,-79 892.5,-79"/>
<text text-anchor="start" x="895.5" y="-87.2" font-family="Helvetica,sans-Serif" font-size="11.00">int8[19]</text>
<polygon fill="none" stroke="black" points="698.5,-57 698.5,-79 892.5,-79 892.5,-57 698.5,-57"/>
<text text-anchor="start" x="718.5" y="-65.2" font-family="Helvetica,sans-Serif" font-size="11.00">diag_update_count</text>
<polygon fill="none" stroke="black" points="892.5,-57 892.5,-79 985.5,-79 985.5,-57 892.5,-57"/>
<text text-anchor="start" x="895.5" y="-65.2" font-family="Helvetica,sans-Serif" font-size="11.00">int8[19]</text>
<polygon fill="#ffffff" stroke="transparent" points="698.5,-39 698.5,-57 799.5,-57 799.5,-39 698.5,-39"/>
<polygon fill="none" stroke="black" points="698.5,-39 698.5,-57 799.5,-57 799.5,-39 698.5,-39"/>
<text text-anchor="start" x="701.5" y="-45.2" font-family="Helvetica,sans-Serif" font-size="11.00">&lt; 2</text>
<polygon fill="#ffffff" stroke="transparent" points="799.5,-39 799.5,-57 892.5,-57 892.5,-39 799.5,-39"/>
<polygon fill="none" stroke="black" points="799.5,-39 799.5,-57 892.5,-57 892.5,-39 799.5,-39"/>
<text text-anchor="start" x="882.5" y="-45.2" font-family="Helvetica,sans-Serif" font-size="11.00"> &#160;</text>
<polygon fill="#ffffff" stroke="transparent" points="892.5,-39 892.5,-57 985.5,-57 985.5,-39 892.5,-39"/>
<polygon fill="none" stroke="black" points="892.5,-39 892.5,-57 985.5,-57 985.5,-39 892.5,-39"/>
<text text-anchor="start" x="966.5" y="-45.2" font-family="Helvetica,sans-Serif" font-size="11.00">1 &gt;</text>
<polygon fill="none" stroke="black" stroke-width="2" points="697,-38 697,-454 986,-454 986,-38 697,-38"/>
</a>
</g>
</g>
<!-- syst_hierarchies&#45;&gt;syst_enum_items -->
<g id="edge4" class="edge">
<title>syst_hierarchies:w&#45;&gt;syst_enum_items:e</title>
<path fill="none" stroke="black" d="M683.06,-333.82C671.48,-336.94 664.73,-343 648,-343"/>
<polygon fill="black" stroke="black" points="689.56,-333 697.95,-335.57 693.53,-332.5 697.5,-332 697.5,-332 697.5,-332 693.53,-332.5 697.05,-328.43 689.56,-333 689.56,-333"/>
<ellipse fill="none" stroke="black" cx="686.39" cy="-333.4" rx="3.2" ry="3.2"/>
</g>
<!-- syst_hierarchies&#45;&gt;syst_enum_items -->
<g id="edge5" class="edge">
<title>syst_hierarchies:w&#45;&gt;syst_enum_items:e</title>
<path fill="none" stroke="black" d="M683.06,-352.18C671.48,-349.06 664.73,-343 648,-343"/>
<polygon fill="black" stroke="black" points="689.56,-353 697.05,-357.57 693.53,-353.5 697.5,-354 697.5,-354 697.5,-354 693.53,-353.5 697.95,-350.43 689.56,-353 689.56,-353"/>
<ellipse fill="none" stroke="black" cx="686.39" cy="-352.6" rx="3.2" ry="3.2"/>
</g>
<!-- syst_hierarchy_items -->
<g id="node5" class="node">
<title>syst_hierarchy_items</title>
<g id="a_node5"><a xlink:href="../../tables/syst_hierarchy_items.html" xlink:title="syst_hierarchy_items" target="_top">
<polygon fill="#ffffff" stroke="transparent" points="1036,-351 1036,-519 1230,-519 1230,-351 1036,-351"/>
<polygon fill="#f5f5f5" stroke="transparent" points="1036,-497 1036,-519 1230,-519 1230,-497 1036,-497"/>
<polygon fill="none" stroke="black" points="1036,-497 1036,-519 1230,-519 1230,-497 1036,-497"/>
<text text-anchor="start" x="1041" y="-506.2" font-family="Helvetica,sans-Serif" font-weight="bold" font-size="11.00">syst_hierarchy_items</text>
<text text-anchor="start" x="1195" y="-505.2" font-family="Helvetica,sans-Serif" font-size="11.00">[table]</text>
<polygon fill="none" stroke="black" points="1036,-475 1036,-497 1230,-497 1230,-475 1036,-475"/>
<image xlink:href="../../images/primaryKeys.png" width="11px" height="12px" preserveAspectRatio="xMinYMin meet" x="1041" y="-492"/>
<text text-anchor="start" x="1056" y="-483.2" font-family="Helvetica,sans-Serif" font-size="11.00">id</text>
<polygon fill="#ffffff" stroke="transparent" points="1036,-453 1036,-475 1230,-475 1230,-453 1036,-453"/>
<polygon fill="none" stroke="black" points="1036,-453 1036,-475 1230,-475 1230,-453 1036,-453"/>
<text text-anchor="start" x="1056" y="-461.2" font-family="Helvetica,sans-Serif" font-size="11.00">internal_name</text>
<polygon fill="#ffffff" stroke="transparent" points="1036,-431 1036,-453 1230,-453 1230,-431 1036,-431"/>
<polygon fill="none" stroke="black" points="1036,-431 1036,-453 1230,-453 1230,-431 1036,-431"/>
<text text-anchor="start" x="1056" y="-439.2" font-family="Helvetica,sans-Serif" font-size="11.00">display_name</text>
<polygon fill="#ffffff" stroke="transparent" points="1036,-409 1036,-431 1230,-431 1230,-409 1036,-409"/>
<polygon fill="none" stroke="black" points="1036,-409 1036,-431 1230,-431 1230,-409 1036,-409"/>
<image xlink:href="../../images/foreignKeys.png" width="11px" height="12px" preserveAspectRatio="xMinYMin meet" x="1041" y="-426"/>
<text text-anchor="start" x="1056" y="-417.2" font-family="Helvetica,sans-Serif" font-size="11.00">hierarchy_id</text>
<polygon fill="#ffffff" stroke="transparent" points="1036,-387 1036,-409 1230,-409 1230,-387 1036,-387"/>
<polygon fill="none" stroke="black" points="1036,-387 1036,-409 1230,-409 1230,-387 1036,-387"/>
<text text-anchor="start" x="1056" y="-395.2" font-family="Helvetica,sans-Serif" font-size="11.00">hierarchy_depth</text>
<polygon fill="none" stroke="black" points="1036,-369 1036,-387 1230,-387 1230,-369 1036,-369"/>
<text text-anchor="start" x="1039" y="-375.2" font-family="Helvetica,sans-Serif" font-size="11.00">...</text>
<polygon fill="#ffffff" stroke="transparent" points="1036,-351 1036,-369 1131,-369 1131,-351 1036,-351"/>
<polygon fill="none" stroke="black" points="1036,-351 1036,-369 1131,-369 1131,-351 1036,-351"/>
<text text-anchor="start" x="1039" y="-357.2" font-family="Helvetica,sans-Serif" font-size="11.00">&lt; 1</text>
<polygon fill="#ffffff" stroke="transparent" points="1131,-351 1131,-369 1180,-369 1180,-351 1131,-351"/>
<polygon fill="none" stroke="black" points="1131,-351 1131,-369 1180,-369 1180,-351 1131,-351"/>
<text text-anchor="start" x="1170" y="-357.2" font-family="Helvetica,sans-Serif" font-size="11.00"> &#160;</text>
<polygon fill="#ffffff" stroke="transparent" points="1180,-351 1180,-369 1230,-369 1230,-351 1180,-351"/>
<polygon fill="none" stroke="black" points="1180,-351 1180,-369 1230,-369 1230,-351 1180,-351"/>
<text text-anchor="start" x="1220" y="-357.2" font-family="Helvetica,sans-Serif" font-size="11.00"> &#160;</text>
</a>
</g>
</g>
<!-- syst_hierarchy_items&#45;&gt;syst_hierarchies -->
<g id="edge6" class="edge">
<title>syst_hierarchy_items:w&#45;&gt;syst_hierarchies:e</title>
<path fill="none" stroke="black" d="M1020.28,-420C1009.29,-420 1002.16,-420 986.5,-420"/>
<polygon fill="black" stroke="black" points="1027,-420 1035,-423.6 1031,-420 1035,-420 1035,-420 1035,-420 1031,-420 1035,-416.4 1027,-420 1027,-420"/>
<ellipse fill="none" stroke="black" cx="1023.8" cy="-420" rx="3.2" ry="3.2"/>
</g>
</g>
</svg>
