<?xml version="1.0" encoding="UTF-8" standalone="no"?>
<!DOCTYPE svg PUBLIC "-//W3C//DTD SVG 1.1//EN"
 "http://www.w3.org/Graphics/SVG/1.1/DTD/svg11.dtd">
<!-- Generated by graphviz version 2.43.0 (0)
 -->
<!-- Title: oneDegreeRelationshipsDiagram Pages: 1 -->
<svg width="1084pt" height="652pt"
 viewBox="0.00 0.00 1084.00 652.00" xmlns="http://www.w3.org/2000/svg" xmlns:xlink="http://www.w3.org/1999/xlink">
<g id="graph0" class="graph" transform="scale(1 1) rotate(0) translate(4 648)">
<title>oneDegreeRelationshipsDiagram</title>
<polygon fill="#ffffff" stroke="transparent" points="-4,4 -4,-648 1080,-648 1080,4 -4,4"/>
<text text-anchor="middle" x="71.5" y="-7.2" font-family="Helvetica,sans-Serif" font-size="11.00">Generated by SchemaSpy</text>
<!-- syst_enum_functional_types -->
<g id="node1" class="node">
<title>syst_enum_functional_types</title>
<g id="a_node1"><a xlink:href="../../tables/syst_enum_functional_types.html" xlink:title="syst_enum_functional_types" target="_top">
<polygon fill="#ffffff" stroke="transparent" points="251,-289 251,-435 480,-435 480,-289 251,-289"/>
<polygon fill="#f5f5f5" stroke="transparent" points="251.5,-413 251.5,-435 480.5,-435 480.5,-413 251.5,-413"/>
<polygon fill="none" stroke="black" points="251.5,-413 251.5,-435 480.5,-435 480.5,-413 251.5,-413"/>
<text text-anchor="start" x="256.5" y="-422.2" font-family="Helvetica,sans-Serif" font-weight="bold" font-size="11.00">syst_enum_functional_types</text>
<text text-anchor="start" x="445.5" y="-421.2" font-family="Helvetica,sans-Serif" font-size="11.00">[table]</text>
<polygon fill="none" stroke="black" points="251.5,-391 251.5,-413 480.5,-413 480.5,-391 251.5,-391"/>
<image xlink:href="../../images/primaryKeys.png" width="11px" height="12px" preserveAspectRatio="xMinYMin meet" x="256.5" y="-408"/>
<text text-anchor="start" x="281.5" y="-399.2" font-family="Helvetica,sans-Serif" font-size="11.00">id</text>
<polygon fill="#ffffff" stroke="transparent" points="251.5,-369 251.5,-391 480.5,-391 480.5,-369 251.5,-369"/>
<polygon fill="none" stroke="black" points="251.5,-369 251.5,-391 480.5,-391 480.5,-369 251.5,-369"/>
<text text-anchor="start" x="281.5" y="-377.2" font-family="Helvetica,sans-Serif" font-size="11.00">internal_name</text>
<polygon fill="#ffffff" stroke="transparent" points="251.5,-347 251.5,-369 480.5,-369 480.5,-347 251.5,-347"/>
<polygon fill="none" stroke="black" points="251.5,-347 251.5,-369 480.5,-369 480.5,-347 251.5,-347"/>
<text text-anchor="start" x="281.5" y="-355.2" font-family="Helvetica,sans-Serif" font-size="11.00">display_name</text>
<polygon fill="none" stroke="black" points="251.5,-325 251.5,-347 480.5,-347 480.5,-325 251.5,-325"/>
<image xlink:href="../../images/foreignKeys.png" width="11px" height="12px" preserveAspectRatio="xMinYMin meet" x="256.5" y="-342"/>
<text text-anchor="start" x="281.5" y="-333.2" font-family="Helvetica,sans-Serif" font-size="11.00">enum_id</text>
<polygon fill="none" stroke="black" points="251.5,-307 251.5,-325 480.5,-325 480.5,-307 251.5,-307"/>
<text text-anchor="start" x="254.5" y="-313.2" font-family="Helvetica,sans-Serif" font-size="11.00">...</text>
<polygon fill="#ffffff" stroke="transparent" points="251.5,-289 251.5,-307 359.5,-307 359.5,-289 251.5,-289"/>
<polygon fill="none" stroke="black" points="251.5,-289 251.5,-307 359.5,-307 359.5,-289 251.5,-289"/>
<text text-anchor="start" x="254.5" y="-295.2" font-family="Helvetica,sans-Serif" font-size="11.00">&lt; 1</text>
<polygon fill="#ffffff" stroke="transparent" points="359.5,-289 359.5,-307 415.5,-307 415.5,-289 359.5,-289"/>
<polygon fill="none" stroke="black" points="359.5,-289 359.5,-307 415.5,-307 415.5,-289 359.5,-289"/>
<text text-anchor="start" x="405.5" y="-295.2" font-family="Helvetica,sans-Serif" font-size="11.00"> &#160;</text>
<polygon fill="#ffffff" stroke="transparent" points="415.5,-289 415.5,-307 480.5,-307 480.5,-289 415.5,-289"/>
<polygon fill="none" stroke="black" points="415.5,-289 415.5,-307 480.5,-307 480.5,-289 415.5,-289"/>
<text text-anchor="start" x="461.5" y="-295.2" font-family="Helvetica,sans-Serif" font-size="11.00">1 &gt;</text>
</a>
</g>
</g>
<!-- syst_enums -->
<g id="node2" class="node">
<title>syst_enums</title>
<g id="a_node2"><a xlink:href="../../tables/syst_enums.html" xlink:title="syst_enums" target="_top">
<polygon fill="#ffffff" stroke="transparent" points="8,-306 8,-430 202,-430 202,-306 8,-306"/>
<polygon fill="#f5f5f5" stroke="transparent" points="8,-408 8,-430 202,-430 202,-408 8,-408"/>
<polygon fill="none" stroke="black" points="8,-408 8,-430 202,-430 202,-408 8,-408"/>
<text text-anchor="start" x="13" y="-417.2" font-family="Helvetica,sans-Serif" font-weight="bold" font-size="11.00">syst_enums</text>
<text text-anchor="start" x="167" y="-416.2" font-family="Helvetica,sans-Serif" font-size="11.00">[table]</text>
<polygon fill="none" stroke="black" points="8,-386 8,-408 202,-408 202,-386 8,-386"/>
<image xlink:href="../../images/primaryKeys.png" width="11px" height="12px" preserveAspectRatio="xMinYMin meet" x="13" y="-403"/>
<text text-anchor="start" x="28" y="-394.2" font-family="Helvetica,sans-Serif" font-size="11.00">id</text>
<polygon fill="#ffffff" stroke="transparent" points="8,-364 8,-386 202,-386 202,-364 8,-364"/>
<polygon fill="none" stroke="black" points="8,-364 8,-386 202,-386 202,-364 8,-364"/>
<text text-anchor="start" x="28" y="-372.2" font-family="Helvetica,sans-Serif" font-size="11.00">internal_name</text>
<polygon fill="#ffffff" stroke="transparent" points="8,-342 8,-364 202,-364 202,-342 8,-342"/>
<polygon fill="none" stroke="black" points="8,-342 8,-364 202,-364 202,-342 8,-342"/>
<text text-anchor="start" x="28" y="-350.2" font-family="Helvetica,sans-Serif" font-size="11.00">display_name</text>
<polygon fill="none" stroke="black" points="8,-324 8,-342 202,-342 202,-324 8,-324"/>
<text text-anchor="start" x="11" y="-330.2" font-family="Helvetica,sans-Serif" font-size="11.00">...</text>
<polygon fill="#ffffff" stroke="transparent" points="8,-306 8,-324 94,-324 94,-306 8,-306"/>
<polygon fill="none" stroke="black" points="8,-306 8,-324 94,-324 94,-306 8,-306"/>
<text text-anchor="start" x="11" y="-312.2" font-family="Helvetica,sans-Serif" font-size="11.00"> &#160;</text>
<polygon fill="#ffffff" stroke="transparent" points="94,-306 94,-324 143,-324 143,-306 94,-306"/>
<polygon fill="none" stroke="black" points="94,-306 94,-324 143,-324 143,-306 94,-306"/>
<text text-anchor="start" x="133" y="-312.2" font-family="Helvetica,sans-Serif" font-size="11.00"> &#160;</text>
<polygon fill="#ffffff" stroke="transparent" points="143,-306 143,-324 202,-324 202,-306 143,-306"/>
<polygon fill="none" stroke="black" points="143,-306 143,-324 202,-324 202,-306 143,-306"/>
<text text-anchor="start" x="183" y="-312.2" font-family="Helvetica,sans-Serif" font-size="11.00">2 &gt;</text>
</a>
</g>
</g>
<!-- syst_enum_functional_types&#45;&gt;syst_enums -->
<g id="edge1" class="edge">
<title>syst_enum_functional_types:w&#45;&gt;syst_enums:e</title>
<path fill="none" stroke="black" d="M236.72,-341.2C221.97,-355.95 231.19,-397 203,-397"/>
<polygon fill="black" stroke="black" points="243.02,-338.82 251.77,-339.37 246.76,-337.41 250.5,-336 250.5,-336 250.5,-336 246.76,-337.41 249.23,-332.63 243.02,-338.82 243.02,-338.82"/>
<ellipse fill="none" stroke="black" cx="240.02" cy="-339.95" rx="3.2" ry="3.2"/>
</g>
<!-- syst_enum_items -->
<g id="node3" class="node">
<title>syst_enum_items</title>
<g id="a_node3"><a xlink:href="../../tables/syst_enum_items.html" xlink:title="syst_enum_items" target="_top">
<polygon fill="#ffffff" stroke="transparent" points="529,-37 529,-565 825,-565 825,-37 529,-37"/>
<polygon fill="#f5f5f5" stroke="transparent" points="531,-541 531,-563 823,-563 823,-541 531,-541"/>
<polygon fill="none" stroke="black" points="531,-541 531,-563 823,-563 823,-541 531,-541"/>
<text text-anchor="start" x="536" y="-550.2" font-family="Helvetica,sans-Serif" font-weight="bold" font-size="11.00">syst_enum_items</text>
<text text-anchor="start" x="788" y="-549.2" font-family="Helvetica,sans-Serif" font-size="11.00">[table]</text>
<polygon fill="none" stroke="black" points="531,-519 531,-541 725,-541 725,-519 531,-519"/>
<image xlink:href="../../images/primaryKeys.png" width="11px" height="12px" preserveAspectRatio="xMinYMin meet" x="536" y="-536"/>
<text text-anchor="start" x="551" y="-527.2" font-family="Helvetica,sans-Serif" font-size="11.00">id</text>
<polygon fill="none" stroke="black" points="725,-519 725,-541 823,-541 823,-519 725,-519"/>
<text text-anchor="start" x="728" y="-527.2" font-family="Helvetica,sans-Serif" font-size="11.00">uuid[2147483647]</text>
<polygon fill="#ffffff" stroke="transparent" points="531,-497 531,-519 725,-519 725,-497 531,-497"/>
<polygon fill="none" stroke="black" points="531,-497 531,-519 725,-519 725,-497 531,-497"/>
<text text-anchor="start" x="551" y="-505.2" font-family="Helvetica,sans-Serif" font-size="11.00">internal_name</text>
<polygon fill="none" stroke="black" points="725,-497 725,-519 823,-519 823,-497 725,-497"/>
<text text-anchor="start" x="728" y="-505.2" font-family="Helvetica,sans-Serif" font-size="11.00">text[2147483647]</text>
<polygon fill="#ffffff" stroke="transparent" points="531,-475 531,-497 725,-497 725,-475 531,-475"/>
<polygon fill="none" stroke="black" points="531,-475 531,-497 725,-497 725,-475 531,-475"/>
<text text-anchor="start" x="551" y="-483.2" font-family="Helvetica,sans-Serif" font-size="11.00">display_name</text>
<polygon fill="none" stroke="black" points="725,-475 725,-497 823,-497 823,-475 725,-475"/>
<text text-anchor="start" x="728" y="-483.2" font-family="Helvetica,sans-Serif" font-size="11.00">text[2147483647]</text>
<polygon fill="none" stroke="black" points="531,-453 531,-475 725,-475 725,-453 531,-453"/>
<text text-anchor="start" x="551" y="-461.2" font-family="Helvetica,sans-Serif" font-size="11.00">external_name</text>
<polygon fill="none" stroke="black" points="725,-453 725,-475 823,-475 823,-453 725,-453"/>
<text text-anchor="start" x="728" y="-461.2" font-family="Helvetica,sans-Serif" font-size="11.00">text[2147483647]</text>
<polygon fill="none" stroke="black" points="531,-431 531,-453 725,-453 725,-431 531,-431"/>
<image xlink:href="../../images/foreignKeys.png" width="11px" height="12px" preserveAspectRatio="xMinYMin meet" x="536" y="-448"/>
<text text-anchor="start" x="551" y="-439.2" font-family="Helvetica,sans-Serif" font-size="11.00">enum_id</text>
<polygon fill="none" stroke="black" points="725,-431 725,-453 823,-453 823,-431 725,-431"/>
<text text-anchor="start" x="728" y="-439.2" font-family="Helvetica,sans-Serif" font-size="11.00">uuid[2147483647]</text>
<polygon fill="none" stroke="black" points="531,-409 531,-431 725,-431 725,-409 531,-409"/>
<image xlink:href="../../images/foreignKeys.png" width="11px" height="12px" preserveAspectRatio="xMinYMin meet" x="536" y="-426"/>
<text text-anchor="start" x="551" y="-417.2" font-family="Helvetica,sans-Serif" font-size="11.00">functional_type_id</text>
<polygon fill="none" stroke="black" points="725,-409 725,-431 823,-431 823,-409 725,-409"/>
<text text-anchor="start" x="728" y="-417.2" font-family="Helvetica,sans-Serif" font-size="11.00">uuid[2147483647]</text>
<polygon fill="none" stroke="black" points="531,-387 531,-409 725,-409 725,-387 531,-387"/>
<text text-anchor="start" x="551" y="-395.2" font-family="Helvetica,sans-Serif" font-size="11.00">enum_default</text>
<polygon fill="none" stroke="black" points="725,-387 725,-409 823,-409 823,-387 725,-387"/>
<text text-anchor="start" x="728" y="-395.2" font-family="Helvetica,sans-Serif" font-size="11.00">bool[1]</text>
<polygon fill="none" stroke="black" points="531,-365 531,-387 725,-387 725,-365 531,-365"/>
<text text-anchor="start" x="551" y="-373.2" font-family="Helvetica,sans-Serif" font-size="11.00">functional_type_default</text>
<polygon fill="none" stroke="black" points="725,-365 725,-387 823,-387 823,-365 725,-365"/>
<text text-anchor="start" x="728" y="-373.2" font-family="Helvetica,sans-Serif" font-size="11.00">bool[1]</text>
<polygon fill="none" stroke="black" points="531,-343 531,-365 725,-365 725,-343 531,-343"/>
<text text-anchor="start" x="551" y="-351.2" font-family="Helvetica,sans-Serif" font-size="11.00">syst_defined</text>
<polygon fill="none" stroke="black" points="725,-343 725,-365 823,-365 823,-343 725,-343"/>
<text text-anchor="start" x="728" y="-351.2" font-family="Helvetica,sans-Serif" font-size="11.00">bool[1]</text>
<polygon fill="none" stroke="black" points="531,-321 531,-343 725,-343 725,-321 531,-321"/>
<text text-anchor="start" x="551" y="-329.2" font-family="Helvetica,sans-Serif" font-size="11.00">user_maintainable</text>
<polygon fill="none" stroke="black" points="725,-321 725,-343 823,-343 823,-321 725,-321"/>
<text text-anchor="start" x="728" y="-329.2" font-family="Helvetica,sans-Serif" font-size="11.00">bool[1]</text>
<polygon fill="none" stroke="black" points="531,-299 531,-321 725,-321 725,-299 531,-299"/>
<text text-anchor="start" x="551" y="-307.2" font-family="Helvetica,sans-Serif" font-size="11.00">syst_description</text>
<polygon fill="none" stroke="black" points="725,-299 725,-321 823,-321 823,-299 725,-299"/>
<text text-anchor="start" x="728" y="-307.2" font-family="Helvetica,sans-Serif" font-size="11.00">text[2147483647]</text>
<polygon fill="none" stroke="black" points="531,-277 531,-299 725,-299 725,-277 531,-277"/>
<text text-anchor="start" x="551" y="-285.2" font-family="Helvetica,sans-Serif" font-size="11.00">user_description</text>
<polygon fill="none" stroke="black" points="725,-277 725,-299 823,-299 823,-277 725,-277"/>
<text text-anchor="start" x="728" y="-285.2" font-family="Helvetica,sans-Serif" font-size="11.00">text[2147483647]</text>
<polygon fill="none" stroke="black" points="531,-255 531,-277 725,-277 725,-255 531,-255"/>
<text text-anchor="start" x="551" y="-263.2" font-family="Helvetica,sans-Serif" font-size="11.00">sort_order</text>
<polygon fill="none" stroke="black" points="725,-255 725,-277 823,-277 823,-255 725,-255"/>
<text text-anchor="start" x="728" y="-263.2" font-family="Helvetica,sans-Serif" font-size="11.00">int2[5]</text>
<polygon fill="none" stroke="black" points="531,-233 531,-255 725,-255 725,-233 531,-233"/>
<text text-anchor="start" x="551" y="-241.2" font-family="Helvetica,sans-Serif" font-size="11.00">syst_options</text>
<polygon fill="none" stroke="black" points="725,-233 725,-255 823,-255 823,-233 725,-233"/>
<text text-anchor="start" x="728" y="-241.2" font-family="Helvetica,sans-Serif" font-size="11.00">jsonb[2147483647]</text>
<polygon fill="none" stroke="black" points="531,-211 531,-233 725,-233 725,-211 531,-211"/>
<text text-anchor="start" x="551" y="-219.2" font-family="Helvetica,sans-Serif" font-size="11.00">user_options</text>
<polygon fill="none" stroke="black" points="725,-211 725,-233 823,-233 823,-211 725,-211"/>
<text text-anchor="start" x="728" y="-219.2" font-family="Helvetica,sans-Serif" font-size="11.00">jsonb[2147483647]</text>
<polygon fill="none" stroke="black" points="531,-189 531,-211 725,-211 725,-189 531,-189"/>
<text text-anchor="start" x="551" y="-197.2" font-family="Helvetica,sans-Serif" font-size="11.00">diag_timestamp_created</text>
<polygon fill="none" stroke="black" points="725,-189 725,-211 823,-211 823,-189 725,-189"/>
<text text-anchor="start" x="728" y="-197.2" font-family="Helvetica,sans-Serif" font-size="11.00">timestamptz[35,6]</text>
<polygon fill="none" stroke="black" points="531,-167 531,-189 725,-189 725,-167 531,-167"/>
<text text-anchor="start" x="551" y="-175.2" font-family="Helvetica,sans-Serif" font-size="11.00">diag_role_created</text>
<polygon fill="none" stroke="black" points="725,-167 725,-189 823,-189 823,-167 725,-167"/>
<text text-anchor="start" x="728" y="-175.2" font-family="Helvetica,sans-Serif" font-size="11.00">text[2147483647]</text>
<polygon fill="none" stroke="black" points="531,-145 531,-167 725,-167 725,-145 531,-145"/>
<text text-anchor="start" x="551" y="-153.2" font-family="Helvetica,sans-Serif" font-size="11.00">diag_timestamp_modified</text>
<polygon fill="none" stroke="black" points="725,-145 725,-167 823,-167 823,-145 725,-145"/>
<text text-anchor="start" x="728" y="-153.2" font-family="Helvetica,sans-Serif" font-size="11.00">timestamptz[35,6]</text>
<polygon fill="none" stroke="black" points="531,-123 531,-145 725,-145 725,-123 531,-123"/>
<text text-anchor="start" x="551" y="-131.2" font-family="Helvetica,sans-Serif" font-size="11.00">diag_wallclock_modified</text>
<polygon fill="none" stroke="black" points="725,-123 725,-145 823,-145 823,-123 725,-123"/>
<text text-anchor="start" x="728" y="-131.2" font-family="Helvetica,sans-Serif" font-size="11.00">timestamptz[35,6]</text>
<polygon fill="none" stroke="black" points="531,-101 531,-123 725,-123 725,-101 531,-101"/>
<text text-anchor="start" x="551" y="-109.2" font-family="Helvetica,sans-Serif" font-size="11.00">diag_role_modified</text>
<polygon fill="none" stroke="black" points="725,-101 725,-123 823,-123 823,-101 725,-101"/>
<text text-anchor="start" x="728" y="-109.2" font-family="Helvetica,sans-Serif" font-size="11.00">text[2147483647]</text>
<polygon fill="none" stroke="black" points="531,-79 531,-101 725,-101 725,-79 531,-79"/>
<text text-anchor="start" x="551" y="-87.2" font-family="Helvetica,sans-Serif" font-size="11.00">diag_row_version</text>
<polygon fill="none" stroke="black" points="725,-79 725,-101 823,-101 823,-79 725,-79"/>
<text text-anchor="start" x="728" y="-87.2" font-family="Helvetica,sans-Serif" font-size="11.00">int8[19]</text>
<polygon fill="none" stroke="black" points="531,-57 531,-79 725,-79 725,-57 531,-57"/>
<text text-anchor="start" x="551" y="-65.2" font-family="Helvetica,sans-Serif" font-size="11.00">diag_update_count</text>
<polygon fill="none" stroke="black" points="725,-57 725,-79 823,-79 823,-57 725,-57"/>
<text text-anchor="start" x="728" y="-65.2" font-family="Helvetica,sans-Serif" font-size="11.00">int8[19]</text>
<polygon fill="#ffffff" stroke="transparent" points="531,-39 531,-57 632,-57 632,-39 531,-39"/>
<polygon fill="none" stroke="black" points="531,-39 531,-57 632,-57 632,-39 531,-39"/>
<text text-anchor="start" x="534" y="-45.2" font-family="Helvetica,sans-Serif" font-size="11.00">&lt; 2</text>
<polygon fill="#ffffff" stroke="transparent" points="632,-39 632,-57 725,-57 725,-39 632,-39"/>
<polygon fill="none" stroke="black" points="632,-39 632,-57 725,-57 725,-39 632,-39"/>
<text text-anchor="start" x="715" y="-45.2" font-family="Helvetica,sans-Serif" font-size="11.00"> &#160;</text>
<polygon fill="#ffffff" stroke="transparent" points="725,-39 725,-57 823,-57 823,-39 725,-39"/>
<polygon fill="none" stroke="black" points="725,-39 725,-57 823,-57 823,-39 725,-39"/>
<text text-anchor="start" x="804" y="-45.2" font-family="Helvetica,sans-Serif" font-size="11.00">2 &gt;</text>
<polygon fill="none" stroke="black" stroke-width="2" points="530,-38 530,-564 824,-564 824,-38 530,-38"/>
</a>
</g>
</g>
<!-- syst_enum_items&#45;&gt;syst_enum_functional_types -->
<g id="edge3" class="edge">
<title>syst_enum_items:w&#45;&gt;syst_enum_functional_types:e</title>
<path fill="none" stroke="black" d="M515.6,-417.03C504.35,-411.92 498.56,-402 481.5,-402"/>
<polygon fill="black" stroke="black" points="522.17,-418.38 529.27,-423.53 526.08,-419.19 530,-420 530,-420 530,-420 526.08,-419.19 530.73,-416.47 522.17,-418.38 522.17,-418.38"/>
<ellipse fill="none" stroke="black" cx="519.03" cy="-417.74" rx="3.2" ry="3.2"/>
</g>
<!-- syst_enum_items&#45;&gt;syst_enums -->
<g id="edge2" class="edge">
<title>syst_enum_items:w&#45;&gt;syst_enums:e</title>
<path fill="none" stroke="black" d="M515.43,-442.78C506.9,-443.76 500.73,-445.4 488,-446 379.23,-451.17 341.37,-492.68 243,-446 217.6,-433.95 231.11,-397 203,-397"/>
<polygon fill="black" stroke="black" points="522.01,-442.43 530.19,-445.59 526.01,-442.21 530,-442 530,-442 530,-442 526.01,-442.21 529.81,-438.41 522.01,-442.43 522.01,-442.43"/>
<ellipse fill="none" stroke="black" cx="518.82" cy="-442.6" rx="3.2" ry="3.2"/>
</g>
<!-- syst_hierarchies -->
<g id="node4" class="node">
<title>syst_hierarchies</title>
<g id="a_node4"><a xlink:href="../../tables/syst_hierarchies.html" xlink:title="syst_hierarchies" target="_top">
<polygon fill="#ffffff" stroke="transparent" points="874,-472 874,-640 1068,-640 1068,-472 874,-472"/>
<polygon fill="#f5f5f5" stroke="transparent" points="874,-618 874,-640 1068,-640 1068,-618 874,-618"/>
<polygon fill="none" stroke="black" points="874,-618 874,-640 1068,-640 1068,-618 874,-618"/>
<text text-anchor="start" x="879" y="-627.2" font-family="Helvetica,sans-Serif" font-weight="bold" font-size="11.00">syst_hierarchies</text>
<text text-anchor="start" x="1033" y="-626.2" font-family="Helvetica,sans-Serif" font-size="11.00">[table]</text>
<polygon fill="none" stroke="black" points="874,-596 874,-618 1068,-618 1068,-596 874,-596"/>
<image xlink:href="../../images/primaryKeys.png" width="11px" height="12px" preserveAspectRatio="xMinYMin meet" x="879" y="-613"/>
<text text-anchor="start" x="894" y="-604.2" font-family="Helvetica,sans-Serif" font-size="11.00">id</text>
<polygon fill="#ffffff" stroke="transparent" points="874,-574 874,-596 1068,-596 1068,-574 874,-574"/>
<polygon fill="none" stroke="black" points="874,-574 874,-596 1068,-596 1068,-574 874,-574"/>
<text text-anchor="start" x="894" y="-582.2" font-family="Helvetica,sans-Serif" font-size="11.00">internal_name</text>
<polygon fill="#ffffff" stroke="transparent" points="874,-552 874,-574 1068,-574 1068,-552 874,-552"/>
<polygon fill="none" stroke="black" points="874,-552 874,-574 1068,-574 1068,-552 874,-552"/>
<text text-anchor="start" x="894" y="-560.2" font-family="Helvetica,sans-Serif" font-size="11.00">display_name</text>
<polygon fill="none" stroke="black" points="874,-530 874,-552 1068,-552 1068,-530 874,-530"/>
<image xlink:href="../../images/foreignKeys.png" width="11px" height="12px" preserveAspectRatio="xMinYMin meet" x="879" y="-547"/>
<text text-anchor="start" x="894" y="-538.2" font-family="Helvetica,sans-Serif" font-size="11.00">hierarchy_type_id</text>
<polygon fill="none" stroke="black" points="874,-508 874,-530 1068,-530 1068,-508 874,-508"/>
<image xlink:href="../../images/foreignKeys.png" width="11px" height="12px" preserveAspectRatio="xMinYMin meet" x="879" y="-525"/>
<text text-anchor="start" x="894" y="-516.2" font-family="Helvetica,sans-Serif" font-size="11.00">hierarchy_state_id</text>
<polygon fill="none" stroke="black" points="874,-490 874,-508 1068,-508 1068,-490 874,-490"/>
<text text-anchor="start" x="877" y="-496.2" font-family="Helvetica,sans-Serif" font-size="11.00">...</text>
<polygon fill="#ffffff" stroke="transparent" points="874,-472 874,-490 964,-490 964,-472 874,-472"/>
<polygon fill="none" stroke="black" points="874,-472 874,-490 964,-490 964,-472 874,-472"/>
<text text-anchor="start" x="877" y="-478.2" font-family="Helvetica,sans-Serif" font-size="11.00">&lt; 2</text>
<polygon fill="#ffffff" stroke="transparent" points="964,-472 964,-490 1011,-490 1011,-472 964,-472"/>
<polygon fill="none" stroke="black" points="964,-472 964,-490 1011,-490 1011,-472 964,-472"/>
<text text-anchor="start" x="1001" y="-478.2" font-family="Helvetica,sans-Serif" font-size="11.00"> &#160;</text>
<polygon fill="#ffffff" stroke="transparent" points="1011,-472 1011,-490 1068,-490 1068,-472 1011,-472"/>
<polygon fill="none" stroke="black" points="1011,-472 1011,-490 1068,-490 1068,-472 1011,-472"/>
<text text-anchor="start" x="1049" y="-478.2" font-family="Helvetica,sans-Serif" font-size="11.00">1 &gt;</text>
</a>
</g>
</g>
<!-- syst_hierarchies&#45;&gt;syst_enum_items -->
<g id="edge4" class="edge">
<title>syst_hierarchies:w&#45;&gt;syst_enum_items:e</title>
<path fill="none" stroke="black" d="M858.7,-520.82C847.24,-523.94 840.57,-530 824,-530"/>
<polygon fill="black" stroke="black" points="865.06,-520.01 873.45,-522.57 869.03,-519.5 873,-519 873,-519 873,-519 869.03,-519.5 872.55,-515.43 865.06,-520.01 865.06,-520.01"/>
<ellipse fill="none" stroke="black" cx="861.89" cy="-520.41" rx="3.2" ry="3.2"/>
</g>
<!-- syst_hierarchies&#45;&gt;syst_enum_items -->
<g id="edge5" class="edge">
<title>syst_hierarchies:w&#45;&gt;syst_enum_items:e</title>
<path fill="none" stroke="black" d="M858.7,-539.18C847.24,-536.06 840.57,-530 824,-530"/>
<polygon fill="black" stroke="black" points="865.06,-539.99 872.55,-544.57 869.03,-540.5 873,-541 873,-541 873,-541 869.03,-540.5 873.45,-537.43 865.06,-539.99 865.06,-539.99"/>
<ellipse fill="none" stroke="black" cx="861.89" cy="-539.59" rx="3.2" ry="3.2"/>
</g>
</g>
</svg>
