<?xml version="1.0" encoding="UTF-8" standalone="no"?>
<!DOCTYPE svg PUBLIC "-//W3C//DTD SVG 1.1//EN"
 "http://www.w3.org/Graphics/SVG/1.1/DTD/svg11.dtd">
<!-- Generated by graphviz version 2.43.0 (0)
 -->
<!-- Title: twoDegreesRelationshipsDiagram Pages: 1 -->
<svg width="1238pt" height="652pt"
 viewBox="0.00 0.00 1238.00 652.00" xmlns="http://www.w3.org/2000/svg" xmlns:xlink="http://www.w3.org/1999/xlink">
<g id="graph0" class="graph" transform="scale(1 1) rotate(0) translate(4 648)">
<title>twoDegreesRelationshipsDiagram</title>
<polygon fill="#ffffff" stroke="transparent" points="-4,4 -4,-648 1234,-648 1234,4 -4,4"/>
<text text-anchor="middle" x="71.5" y="-7.2" font-family="Helvetica,sans-Serif" font-size="11.00">Generated by SchemaSpy</text>
<!-- syst_enum_functional_types -->
<g id="node1" class="node">
<title>syst_enum_functional_types</title>
<g id="a_node1"><a xlink:href="../../tables/syst_enum_functional_types.html" xlink:title="syst_enum_functional_types" target="_top">
<polygon fill="#ffffff" stroke="transparent" points="175,-375 175,-433 404,-433 404,-375 175,-375"/>
<polygon fill="#f5f5f5" stroke="transparent" points="175.5,-411 175.5,-433 404.5,-433 404.5,-411 175.5,-411"/>
<polygon fill="none" stroke="black" points="175.5,-411 175.5,-433 404.5,-433 404.5,-411 175.5,-411"/>
<text text-anchor="start" x="180.5" y="-420.2" font-family="Helvetica,sans-Serif" font-weight="bold" font-size="11.00">syst_enum_functional_types</text>
<text text-anchor="start" x="369.5" y="-419.2" font-family="Helvetica,sans-Serif" font-size="11.00">[table]</text>
<polygon fill="none" stroke="black" points="175.5,-393 175.5,-411 404.5,-411 404.5,-393 175.5,-393"/>
<text text-anchor="start" x="178.5" y="-399.2" font-family="Helvetica,sans-Serif" font-size="11.00">...</text>
<polygon fill="#ffffff" stroke="transparent" points="175.5,-375 175.5,-393 283.5,-393 283.5,-375 175.5,-375"/>
<polygon fill="none" stroke="black" points="175.5,-375 175.5,-393 283.5,-393 283.5,-375 175.5,-375"/>
<text text-anchor="start" x="178.5" y="-381.2" font-family="Helvetica,sans-Serif" font-size="11.00">&lt; 1</text>
<polygon fill="#ffffff" stroke="transparent" points="283.5,-375 283.5,-393 339.5,-393 339.5,-375 283.5,-375"/>
<polygon fill="none" stroke="black" points="283.5,-375 283.5,-393 339.5,-393 339.5,-375 283.5,-375"/>
<text text-anchor="start" x="329.5" y="-381.2" font-family="Helvetica,sans-Serif" font-size="11.00"> &#160;</text>
<polygon fill="#ffffff" stroke="transparent" points="339.5,-375 339.5,-393 404.5,-393 404.5,-375 339.5,-375"/>
<polygon fill="none" stroke="black" points="339.5,-375 339.5,-393 404.5,-393 404.5,-375 339.5,-375"/>
<text text-anchor="start" x="385.5" y="-381.2" font-family="Helvetica,sans-Serif" font-size="11.00">1 &gt;</text>
</a>
</g>
</g>
<!-- syst_enums -->
<g id="node2" class="node">
<title>syst_enums</title>
<g id="a_node2"><a xlink:href="../../tables/syst_enums.html" xlink:title="syst_enums" target="_top">
<polygon fill="#ffffff" stroke="transparent" points="8,-401 8,-459 126,-459 126,-401 8,-401"/>
<polygon fill="#f5f5f5" stroke="transparent" points="8,-437 8,-459 126,-459 126,-437 8,-437"/>
<polygon fill="none" stroke="black" points="8,-437 8,-459 126,-459 126,-437 8,-437"/>
<text text-anchor="start" x="13" y="-446.2" font-family="Helvetica,sans-Serif" font-weight="bold" font-size="11.00">syst_enums</text>
<text text-anchor="start" x="91" y="-445.2" font-family="Helvetica,sans-Serif" font-size="11.00">[table]</text>
<polygon fill="none" stroke="black" points="8,-419 8,-437 126,-437 126,-419 8,-419"/>
<text text-anchor="start" x="11" y="-425.2" font-family="Helvetica,sans-Serif" font-size="11.00">...</text>
<polygon fill="#ffffff" stroke="transparent" points="8,-401 8,-419 56,-419 56,-401 8,-401"/>
<polygon fill="none" stroke="black" points="8,-401 8,-419 56,-419 56,-401 8,-401"/>
<text text-anchor="start" x="11" y="-407.2" font-family="Helvetica,sans-Serif" font-size="11.00"> &#160;</text>
<polygon fill="#ffffff" stroke="transparent" points="56,-401 56,-419 86,-419 86,-401 56,-401"/>
<polygon fill="none" stroke="black" points="56,-401 56,-419 86,-419 86,-401 56,-401"/>
<text text-anchor="start" x="76" y="-407.2" font-family="Helvetica,sans-Serif" font-size="11.00"> &#160;</text>
<polygon fill="#ffffff" stroke="transparent" points="86,-401 86,-419 126,-419 126,-401 86,-401"/>
<polygon fill="none" stroke="black" points="86,-401 86,-419 126,-419 126,-401 86,-401"/>
<text text-anchor="start" x="107" y="-407.2" font-family="Helvetica,sans-Serif" font-size="11.00">2 &gt;</text>
</a>
</g>
</g>
<!-- syst_enum_functional_types&#45;&gt;syst_enums -->
<g id="edge1" class="edge">
<title>syst_enum_functional_types:w&#45;&gt;syst_enums:e</title>
<path fill="none" stroke="black" d="M152.55,-420.03C146.24,-420.77 140.05,-421.5 134.07,-422.21"/>
<polygon fill="black" stroke="black" points="159.02,-419.27 167.38,-421.91 162.99,-418.8 166.96,-418.33 166.96,-418.33 166.96,-418.33 162.99,-418.8 166.54,-414.76 159.02,-419.27 159.02,-419.27"/>
<ellipse fill="none" stroke="black" cx="155.84" cy="-419.64" rx="3.2" ry="3.2"/>
</g>
<!-- syst_enum_items -->
<g id="node3" class="node">
<title>syst_enum_items</title>
<g id="a_node3"><a xlink:href="../../tables/syst_enum_items.html" xlink:title="syst_enum_items" target="_top">
<polygon fill="#ffffff" stroke="transparent" points="453,-37 453,-565 749,-565 749,-37 453,-37"/>
<polygon fill="#f5f5f5" stroke="transparent" points="455,-541 455,-563 747,-563 747,-541 455,-541"/>
<polygon fill="none" stroke="black" points="455,-541 455,-563 747,-563 747,-541 455,-541"/>
<text text-anchor="start" x="460" y="-550.2" font-family="Helvetica,sans-Serif" font-weight="bold" font-size="11.00">syst_enum_items</text>
<text text-anchor="start" x="712" y="-549.2" font-family="Helvetica,sans-Serif" font-size="11.00">[table]</text>
<polygon fill="none" stroke="black" points="455,-519 455,-541 649,-541 649,-519 455,-519"/>
<image xlink:href="../../images/primaryKeys.png" width="11px" height="12px" preserveAspectRatio="xMinYMin meet" x="460" y="-536"/>
<text text-anchor="start" x="475" y="-527.2" font-family="Helvetica,sans-Serif" font-size="11.00">id</text>
<polygon fill="none" stroke="black" points="649,-519 649,-541 747,-541 747,-519 649,-519"/>
<text text-anchor="start" x="652" y="-527.2" font-family="Helvetica,sans-Serif" font-size="11.00">uuid[2147483647]</text>
<polygon fill="#ffffff" stroke="transparent" points="455,-497 455,-519 649,-519 649,-497 455,-497"/>
<polygon fill="none" stroke="black" points="455,-497 455,-519 649,-519 649,-497 455,-497"/>
<text text-anchor="start" x="475" y="-505.2" font-family="Helvetica,sans-Serif" font-size="11.00">internal_name</text>
<polygon fill="none" stroke="black" points="649,-497 649,-519 747,-519 747,-497 649,-497"/>
<text text-anchor="start" x="652" y="-505.2" font-family="Helvetica,sans-Serif" font-size="11.00">text[2147483647]</text>
<polygon fill="#ffffff" stroke="transparent" points="455,-475 455,-497 649,-497 649,-475 455,-475"/>
<polygon fill="none" stroke="black" points="455,-475 455,-497 649,-497 649,-475 455,-475"/>
<text text-anchor="start" x="475" y="-483.2" font-family="Helvetica,sans-Serif" font-size="11.00">display_name</text>
<polygon fill="none" stroke="black" points="649,-475 649,-497 747,-497 747,-475 649,-475"/>
<text text-anchor="start" x="652" y="-483.2" font-family="Helvetica,sans-Serif" font-size="11.00">text[2147483647]</text>
<polygon fill="none" stroke="black" points="455,-453 455,-475 649,-475 649,-453 455,-453"/>
<text text-anchor="start" x="475" y="-461.2" font-family="Helvetica,sans-Serif" font-size="11.00">external_name</text>
<polygon fill="none" stroke="black" points="649,-453 649,-475 747,-475 747,-453 649,-453"/>
<text text-anchor="start" x="652" y="-461.2" font-family="Helvetica,sans-Serif" font-size="11.00">text[2147483647]</text>
<polygon fill="none" stroke="black" points="455,-431 455,-453 649,-453 649,-431 455,-431"/>
<image xlink:href="../../images/foreignKeys.png" width="11px" height="12px" preserveAspectRatio="xMinYMin meet" x="460" y="-448"/>
<text text-anchor="start" x="475" y="-439.2" font-family="Helvetica,sans-Serif" font-size="11.00">enum_id</text>
<polygon fill="none" stroke="black" points="649,-431 649,-453 747,-453 747,-431 649,-431"/>
<text text-anchor="start" x="652" y="-439.2" font-family="Helvetica,sans-Serif" font-size="11.00">uuid[2147483647]</text>
<polygon fill="none" stroke="black" points="455,-409 455,-431 649,-431 649,-409 455,-409"/>
<image xlink:href="../../images/foreignKeys.png" width="11px" height="12px" preserveAspectRatio="xMinYMin meet" x="460" y="-426"/>
<text text-anchor="start" x="475" y="-417.2" font-family="Helvetica,sans-Serif" font-size="11.00">functional_type_id</text>
<polygon fill="none" stroke="black" points="649,-409 649,-431 747,-431 747,-409 649,-409"/>
<text text-anchor="start" x="652" y="-417.2" font-family="Helvetica,sans-Serif" font-size="11.00">uuid[2147483647]</text>
<polygon fill="none" stroke="black" points="455,-387 455,-409 649,-409 649,-387 455,-387"/>
<text text-anchor="start" x="475" y="-395.2" font-family="Helvetica,sans-Serif" font-size="11.00">enum_default</text>
<polygon fill="none" stroke="black" points="649,-387 649,-409 747,-409 747,-387 649,-387"/>
<text text-anchor="start" x="652" y="-395.2" font-family="Helvetica,sans-Serif" font-size="11.00">bool[1]</text>
<polygon fill="none" stroke="black" points="455,-365 455,-387 649,-387 649,-365 455,-365"/>
<text text-anchor="start" x="475" y="-373.2" font-family="Helvetica,sans-Serif" font-size="11.00">functional_type_default</text>
<polygon fill="none" stroke="black" points="649,-365 649,-387 747,-387 747,-365 649,-365"/>
<text text-anchor="start" x="652" y="-373.2" font-family="Helvetica,sans-Serif" font-size="11.00">bool[1]</text>
<polygon fill="none" stroke="black" points="455,-343 455,-365 649,-365 649,-343 455,-343"/>
<text text-anchor="start" x="475" y="-351.2" font-family="Helvetica,sans-Serif" font-size="11.00">syst_defined</text>
<polygon fill="none" stroke="black" points="649,-343 649,-365 747,-365 747,-343 649,-343"/>
<text text-anchor="start" x="652" y="-351.2" font-family="Helvetica,sans-Serif" font-size="11.00">bool[1]</text>
<polygon fill="none" stroke="black" points="455,-321 455,-343 649,-343 649,-321 455,-321"/>
<text text-anchor="start" x="475" y="-329.2" font-family="Helvetica,sans-Serif" font-size="11.00">user_maintainable</text>
<polygon fill="none" stroke="black" points="649,-321 649,-343 747,-343 747,-321 649,-321"/>
<text text-anchor="start" x="652" y="-329.2" font-family="Helvetica,sans-Serif" font-size="11.00">bool[1]</text>
<polygon fill="none" stroke="black" points="455,-299 455,-321 649,-321 649,-299 455,-299"/>
<text text-anchor="start" x="475" y="-307.2" font-family="Helvetica,sans-Serif" font-size="11.00">syst_description</text>
<polygon fill="none" stroke="black" points="649,-299 649,-321 747,-321 747,-299 649,-299"/>
<text text-anchor="start" x="652" y="-307.2" font-family="Helvetica,sans-Serif" font-size="11.00">text[2147483647]</text>
<polygon fill="none" stroke="black" points="455,-277 455,-299 649,-299 649,-277 455,-277"/>
<text text-anchor="start" x="475" y="-285.2" font-family="Helvetica,sans-Serif" font-size="11.00">user_description</text>
<polygon fill="none" stroke="black" points="649,-277 649,-299 747,-299 747,-277 649,-277"/>
<text text-anchor="start" x="652" y="-285.2" font-family="Helvetica,sans-Serif" font-size="11.00">text[2147483647]</text>
<polygon fill="none" stroke="black" points="455,-255 455,-277 649,-277 649,-255 455,-255"/>
<text text-anchor="start" x="475" y="-263.2" font-family="Helvetica,sans-Serif" font-size="11.00">sort_order</text>
<polygon fill="none" stroke="black" points="649,-255 649,-277 747,-277 747,-255 649,-255"/>
<text text-anchor="start" x="652" y="-263.2" font-family="Helvetica,sans-Serif" font-size="11.00">int2[5]</text>
<polygon fill="none" stroke="black" points="455,-233 455,-255 649,-255 649,-233 455,-233"/>
<text text-anchor="start" x="475" y="-241.2" font-family="Helvetica,sans-Serif" font-size="11.00">syst_options</text>
<polygon fill="none" stroke="black" points="649,-233 649,-255 747,-255 747,-233 649,-233"/>
<text text-anchor="start" x="652" y="-241.2" font-family="Helvetica,sans-Serif" font-size="11.00">jsonb[2147483647]</text>
<polygon fill="none" stroke="black" points="455,-211 455,-233 649,-233 649,-211 455,-211"/>
<text text-anchor="start" x="475" y="-219.2" font-family="Helvetica,sans-Serif" font-size="11.00">user_options</text>
<polygon fill="none" stroke="black" points="649,-211 649,-233 747,-233 747,-211 649,-211"/>
<text text-anchor="start" x="652" y="-219.2" font-family="Helvetica,sans-Serif" font-size="11.00">jsonb[2147483647]</text>
<polygon fill="none" stroke="black" points="455,-189 455,-211 649,-211 649,-189 455,-189"/>
<text text-anchor="start" x="475" y="-197.2" font-family="Helvetica,sans-Serif" font-size="11.00">diag_timestamp_created</text>
<polygon fill="none" stroke="black" points="649,-189 649,-211 747,-211 747,-189 649,-189"/>
<text text-anchor="start" x="652" y="-197.2" font-family="Helvetica,sans-Serif" font-size="11.00">timestamptz[35,6]</text>
<polygon fill="none" stroke="black" points="455,-167 455,-189 649,-189 649,-167 455,-167"/>
<text text-anchor="start" x="475" y="-175.2" font-family="Helvetica,sans-Serif" font-size="11.00">diag_role_created</text>
<polygon fill="none" stroke="black" points="649,-167 649,-189 747,-189 747,-167 649,-167"/>
<text text-anchor="start" x="652" y="-175.2" font-family="Helvetica,sans-Serif" font-size="11.00">text[2147483647]</text>
<polygon fill="none" stroke="black" points="455,-145 455,-167 649,-167 649,-145 455,-145"/>
<text text-anchor="start" x="475" y="-153.2" font-family="Helvetica,sans-Serif" font-size="11.00">diag_timestamp_modified</text>
<polygon fill="none" stroke="black" points="649,-145 649,-167 747,-167 747,-145 649,-145"/>
<text text-anchor="start" x="652" y="-153.2" font-family="Helvetica,sans-Serif" font-size="11.00">timestamptz[35,6]</text>
<polygon fill="none" stroke="black" points="455,-123 455,-145 649,-145 649,-123 455,-123"/>
<text text-anchor="start" x="475" y="-131.2" font-family="Helvetica,sans-Serif" font-size="11.00">diag_wallclock_modified</text>
<polygon fill="none" stroke="black" points="649,-123 649,-145 747,-145 747,-123 649,-123"/>
<text text-anchor="start" x="652" y="-131.2" font-family="Helvetica,sans-Serif" font-size="11.00">timestamptz[35,6]</text>
<polygon fill="none" stroke="black" points="455,-101 455,-123 649,-123 649,-101 455,-101"/>
<text text-anchor="start" x="475" y="-109.2" font-family="Helvetica,sans-Serif" font-size="11.00">diag_role_modified</text>
<polygon fill="none" stroke="black" points="649,-101 649,-123 747,-123 747,-101 649,-101"/>
<text text-anchor="start" x="652" y="-109.2" font-family="Helvetica,sans-Serif" font-size="11.00">text[2147483647]</text>
<polygon fill="none" stroke="black" points="455,-79 455,-101 649,-101 649,-79 455,-79"/>
<text text-anchor="start" x="475" y="-87.2" font-family="Helvetica,sans-Serif" font-size="11.00">diag_row_version</text>
<polygon fill="none" stroke="black" points="649,-79 649,-101 747,-101 747,-79 649,-79"/>
<text text-anchor="start" x="652" y="-87.2" font-family="Helvetica,sans-Serif" font-size="11.00">int8[19]</text>
<polygon fill="none" stroke="black" points="455,-57 455,-79 649,-79 649,-57 455,-57"/>
<text text-anchor="start" x="475" y="-65.2" font-family="Helvetica,sans-Serif" font-size="11.00">diag_update_count</text>
<polygon fill="none" stroke="black" points="649,-57 649,-79 747,-79 747,-57 649,-57"/>
<text text-anchor="start" x="652" y="-65.2" font-family="Helvetica,sans-Serif" font-size="11.00">int8[19]</text>
<polygon fill="#ffffff" stroke="transparent" points="455,-39 455,-57 556,-57 556,-39 455,-39"/>
<polygon fill="none" stroke="black" points="455,-39 455,-57 556,-57 556,-39 455,-39"/>
<text text-anchor="start" x="458" y="-45.2" font-family="Helvetica,sans-Serif" font-size="11.00">&lt; 2</text>
<polygon fill="#ffffff" stroke="transparent" points="556,-39 556,-57 649,-57 649,-39 556,-39"/>
<polygon fill="none" stroke="black" points="556,-39 556,-57 649,-57 649,-39 556,-39"/>
<text text-anchor="start" x="639" y="-45.2" font-family="Helvetica,sans-Serif" font-size="11.00"> &#160;</text>
<polygon fill="#ffffff" stroke="transparent" points="649,-39 649,-57 747,-57 747,-39 649,-39"/>
<polygon fill="none" stroke="black" points="649,-39 649,-57 747,-57 747,-39 649,-39"/>
<text text-anchor="start" x="728" y="-45.2" font-family="Helvetica,sans-Serif" font-size="11.00">2 &gt;</text>
<polygon fill="none" stroke="black" stroke-width="2" points="454,-38 454,-564 748,-564 748,-38 454,-38"/>
</a>
</g>
</g>
<!-- syst_enum_items&#45;&gt;syst_enum_functional_types -->
<g id="edge3" class="edge">
<title>syst_enum_items:w&#45;&gt;syst_enum_functional_types:e</title>
<path fill="none" stroke="black" d="M439.52,-419.8C430.51,-419.57 421.36,-419.13 412.24,-418.55"/>
<polygon fill="black" stroke="black" points="446,-419.89 453.95,-423.6 450,-419.95 454,-420 454,-420 454,-420 450,-419.95 454.05,-416.4 446,-419.89 446,-419.89"/>
<ellipse fill="none" stroke="black" cx="442.8" cy="-419.85" rx="3.2" ry="3.2"/>
</g>
<!-- syst_enum_items&#45;&gt;syst_enums -->
<g id="edge2" class="edge">
<title>syst_enum_items:w&#45;&gt;syst_enums:e</title>
<path fill="none" stroke="black" d="M439.45,-442.2C430.91,-442.44 424.69,-442.85 412,-443 303.12,-444.3 275.66,-450.1 167,-443 156.36,-442.3 145.12,-441.19 134.18,-439.91"/>
<polygon fill="black" stroke="black" points="446,-442.11 454.05,-445.6 450,-442.05 454,-442 454,-442 454,-442 450,-442.05 453.95,-438.4 446,-442.11 446,-442.11"/>
<ellipse fill="none" stroke="black" cx="442.8" cy="-442.15" rx="3.2" ry="3.2"/>
</g>
<!-- syst_hierarchies -->
<g id="node4" class="node">
<title>syst_hierarchies</title>
<g id="a_node4"><a xlink:href="../../tables/syst_hierarchies.html" xlink:title="syst_hierarchies" target="_top">
<polygon fill="#ffffff" stroke="transparent" points="798,-472 798,-640 992,-640 992,-472 798,-472"/>
<polygon fill="#f5f5f5" stroke="transparent" points="798,-618 798,-640 992,-640 992,-618 798,-618"/>
<polygon fill="none" stroke="black" points="798,-618 798,-640 992,-640 992,-618 798,-618"/>
<text text-anchor="start" x="803" y="-627.2" font-family="Helvetica,sans-Serif" font-weight="bold" font-size="11.00">syst_hierarchies</text>
<text text-anchor="start" x="957" y="-626.2" font-family="Helvetica,sans-Serif" font-size="11.00">[table]</text>
<polygon fill="none" stroke="black" points="798,-596 798,-618 992,-618 992,-596 798,-596"/>
<image xlink:href="../../images/primaryKeys.png" width="11px" height="12px" preserveAspectRatio="xMinYMin meet" x="803" y="-613"/>
<text text-anchor="start" x="818" y="-604.2" font-family="Helvetica,sans-Serif" font-size="11.00">id</text>
<polygon fill="#ffffff" stroke="transparent" points="798,-574 798,-596 992,-596 992,-574 798,-574"/>
<polygon fill="none" stroke="black" points="798,-574 798,-596 992,-596 992,-574 798,-574"/>
<text text-anchor="start" x="818" y="-582.2" font-family="Helvetica,sans-Serif" font-size="11.00">internal_name</text>
<polygon fill="#ffffff" stroke="transparent" points="798,-552 798,-574 992,-574 992,-552 798,-552"/>
<polygon fill="none" stroke="black" points="798,-552 798,-574 992,-574 992,-552 798,-552"/>
<text text-anchor="start" x="818" y="-560.2" font-family="Helvetica,sans-Serif" font-size="11.00">display_name</text>
<polygon fill="none" stroke="black" points="798,-530 798,-552 992,-552 992,-530 798,-530"/>
<image xlink:href="../../images/foreignKeys.png" width="11px" height="12px" preserveAspectRatio="xMinYMin meet" x="803" y="-547"/>
<text text-anchor="start" x="818" y="-538.2" font-family="Helvetica,sans-Serif" font-size="11.00">hierarchy_type_id</text>
<polygon fill="none" stroke="black" points="798,-508 798,-530 992,-530 992,-508 798,-508"/>
<image xlink:href="../../images/foreignKeys.png" width="11px" height="12px" preserveAspectRatio="xMinYMin meet" x="803" y="-525"/>
<text text-anchor="start" x="818" y="-516.2" font-family="Helvetica,sans-Serif" font-size="11.00">hierarchy_state_id</text>
<polygon fill="none" stroke="black" points="798,-490 798,-508 992,-508 992,-490 798,-490"/>
<text text-anchor="start" x="801" y="-496.2" font-family="Helvetica,sans-Serif" font-size="11.00">...</text>
<polygon fill="#ffffff" stroke="transparent" points="798,-472 798,-490 888,-490 888,-472 798,-472"/>
<polygon fill="none" stroke="black" points="798,-472 798,-490 888,-490 888,-472 798,-472"/>
<text text-anchor="start" x="801" y="-478.2" font-family="Helvetica,sans-Serif" font-size="11.00">&lt; 2</text>
<polygon fill="#ffffff" stroke="transparent" points="888,-472 888,-490 935,-490 935,-472 888,-472"/>
<polygon fill="none" stroke="black" points="888,-472 888,-490 935,-490 935,-472 888,-472"/>
<text text-anchor="start" x="925" y="-478.2" font-family="Helvetica,sans-Serif" font-size="11.00"> &#160;</text>
<polygon fill="#ffffff" stroke="transparent" points="935,-472 935,-490 992,-490 992,-472 935,-472"/>
<polygon fill="none" stroke="black" points="935,-472 935,-490 992,-490 992,-472 935,-472"/>
<text text-anchor="start" x="973" y="-478.2" font-family="Helvetica,sans-Serif" font-size="11.00">1 &gt;</text>
</a>
</g>
</g>
<!-- syst_hierarchies&#45;&gt;syst_enum_items -->
<g id="edge4" class="edge">
<title>syst_hierarchies:w&#45;&gt;syst_enum_items:e</title>
<path fill="none" stroke="black" d="M782.7,-520.82C771.24,-523.94 764.57,-530 748,-530"/>
<polygon fill="black" stroke="black" points="789.06,-520.01 797.45,-522.57 793.03,-519.5 797,-519 797,-519 797,-519 793.03,-519.5 796.55,-515.43 789.06,-520.01 789.06,-520.01"/>
<ellipse fill="none" stroke="black" cx="785.89" cy="-520.41" rx="3.2" ry="3.2"/>
</g>
<!-- syst_hierarchies&#45;&gt;syst_enum_items -->
<g id="edge5" class="edge">
<title>syst_hierarchies:w&#45;&gt;syst_enum_items:e</title>
<path fill="none" stroke="black" d="M782.7,-539.18C771.24,-536.06 764.57,-530 748,-530"/>
<polygon fill="black" stroke="black" points="789.06,-539.99 796.55,-544.57 793.03,-540.5 797,-541 797,-541 797,-541 793.03,-540.5 797.45,-537.43 789.06,-539.99 789.06,-539.99"/>
<ellipse fill="none" stroke="black" cx="785.89" cy="-539.59" rx="3.2" ry="3.2"/>
</g>
<!-- syst_hierarchy_items -->
<g id="node5" class="node">
<title>syst_hierarchy_items</title>
<g id="a_node5"><a xlink:href="../../tables/syst_hierarchy_items.html" xlink:title="syst_hierarchy_items" target="_top">
<polygon fill="#ffffff" stroke="transparent" points="1041,-580 1041,-638 1222,-638 1222,-580 1041,-580"/>
<polygon fill="#f5f5f5" stroke="transparent" points="1041.5,-616 1041.5,-638 1222.5,-638 1222.5,-616 1041.5,-616"/>
<polygon fill="none" stroke="black" points="1041.5,-616 1041.5,-638 1222.5,-638 1222.5,-616 1041.5,-616"/>
<text text-anchor="start" x="1046.5" y="-625.2" font-family="Helvetica,sans-Serif" font-weight="bold" font-size="11.00">syst_hierarchy_items</text>
<text text-anchor="start" x="1187.5" y="-624.2" font-family="Helvetica,sans-Serif" font-size="11.00">[table]</text>
<polygon fill="none" stroke="black" points="1041.5,-598 1041.5,-616 1222.5,-616 1222.5,-598 1041.5,-598"/>
<text text-anchor="start" x="1044.5" y="-604.2" font-family="Helvetica,sans-Serif" font-size="11.00">...</text>
<polygon fill="#ffffff" stroke="transparent" points="1041.5,-580 1041.5,-598 1129.5,-598 1129.5,-580 1041.5,-580"/>
<polygon fill="none" stroke="black" points="1041.5,-580 1041.5,-598 1129.5,-598 1129.5,-580 1041.5,-580"/>
<text text-anchor="start" x="1044.5" y="-586.2" font-family="Helvetica,sans-Serif" font-size="11.00">&lt; 1</text>
<polygon fill="#ffffff" stroke="transparent" points="1129.5,-580 1129.5,-598 1175.5,-598 1175.5,-580 1129.5,-580"/>
<polygon fill="none" stroke="black" points="1129.5,-580 1129.5,-598 1175.5,-598 1175.5,-580 1129.5,-580"/>
<text text-anchor="start" x="1165.5" y="-586.2" font-family="Helvetica,sans-Serif" font-size="11.00"> &#160;</text>
<polygon fill="#ffffff" stroke="transparent" points="1175.5,-580 1175.5,-598 1222.5,-598 1222.5,-580 1175.5,-580"/>
<polygon fill="none" stroke="black" points="1175.5,-580 1175.5,-598 1222.5,-598 1222.5,-580 1175.5,-580"/>
<text text-anchor="start" x="1212.5" y="-586.2" font-family="Helvetica,sans-Serif" font-size="11.00"> &#160;</text>
</a>
</g>
</g>
<!-- syst_hierarchy_items&#45;&gt;syst_hierarchies -->
<g id="edge6" class="edge">
<title>syst_hierarchy_items:w&#45;&gt;syst_hierarchies:e</title>
<path fill="none" stroke="black" d="M1026.09,-607C1015.32,-607 1008.34,-607 993,-607"/>
<polygon fill="black" stroke="black" points="1032.5,-607 1040.5,-610.6 1036.5,-607 1040.5,-607 1040.5,-607 1040.5,-607 1036.5,-607 1040.5,-603.4 1032.5,-607 1032.5,-607"/>
<ellipse fill="none" stroke="black" cx="1029.3" cy="-607" rx="3.2" ry="3.2"/>
</g>
</g>
</svg>
