<?xml version="1.0" encoding="UTF-8" standalone="no"?>
<!DOCTYPE svg PUBLIC "-//W3C//DTD SVG 1.1//EN"
 "http://www.w3.org/Graphics/SVG/1.1/DTD/svg11.dtd">
<!-- Generated by graphviz version 2.43.0 (0)
 -->
<!-- Title: twoDegreesRelationshipsDiagram Pages: 1 -->
<svg width="900pt" height="454pt"
 viewBox="0.00 0.00 900.00 454.48" xmlns="http://www.w3.org/2000/svg" xmlns:xlink="http://www.w3.org/1999/xlink">
<g id="graph0" class="graph" transform="scale(1 1) rotate(0) translate(4 450.48)">
<title>twoDegreesRelationshipsDiagram</title>
<polygon fill="#ffffff" stroke="transparent" points="-4,4 -4,-450.48 896,-450.48 896,4 -4,4"/>
<text text-anchor="middle" x="71.5" y="-7.2" font-family="Helvetica,sans-Serif" font-size="11.00">Generated by SchemaSpy</text>
<!-- syst_enum_functional_types -->
<g id="node1" class="node">
<title>syst_enum_functional_types</title>
<g id="a_node1"><a xlink:href="../../tables/syst_enum_functional_types.html" xlink:title="syst_enum_functional_types" target="_top">
<polygon fill="#ffffff" stroke="transparent" points="175,-90.48 175,-442.48 482,-442.48 482,-90.48 175,-90.48"/>
<polygon fill="#f5f5f5" stroke="transparent" points="177.5,-418.48 177.5,-440.48 480.5,-440.48 480.5,-418.48 177.5,-418.48"/>
<polygon fill="none" stroke="black" points="177.5,-418.48 177.5,-440.48 480.5,-440.48 480.5,-418.48 177.5,-418.48"/>
<text text-anchor="start" x="182.5" y="-427.68" font-family="Helvetica,sans-Serif" font-weight="bold" font-size="11.00">syst_enum_functional_types</text>
<text text-anchor="start" x="445.5" y="-426.68" font-family="Helvetica,sans-Serif" font-size="11.00">[table]</text>
<polygon fill="none" stroke="black" points="177.5,-396.48 177.5,-418.48 387.5,-418.48 387.5,-396.48 177.5,-396.48"/>
<image xlink:href="../../images/primaryKeys.png" width="11px" height="12px" preserveAspectRatio="xMinYMin meet" x="182.5" y="-413.485"/>
<text text-anchor="start" x="197.5" y="-404.68" font-family="Helvetica,sans-Serif" font-size="11.00">id</text>
<polygon fill="none" stroke="black" points="387.5,-396.48 387.5,-418.48 480.5,-418.48 480.5,-396.48 387.5,-396.48"/>
<text text-anchor="start" x="390.5" y="-404.68" font-family="Helvetica,sans-Serif" font-size="11.00">uuid[2147483647]</text>
<polygon fill="#ffffff" stroke="transparent" points="177.5,-374.48 177.5,-396.48 387.5,-396.48 387.5,-374.48 177.5,-374.48"/>
<polygon fill="none" stroke="black" points="177.5,-374.48 177.5,-396.48 387.5,-396.48 387.5,-374.48 177.5,-374.48"/>
<text text-anchor="start" x="197.5" y="-382.68" font-family="Helvetica,sans-Serif" font-size="11.00">internal_name</text>
<polygon fill="none" stroke="black" points="387.5,-374.48 387.5,-396.48 480.5,-396.48 480.5,-374.48 387.5,-374.48"/>
<text text-anchor="start" x="390.5" y="-382.68" font-family="Helvetica,sans-Serif" font-size="11.00">text[2147483647]</text>
<polygon fill="#ffffff" stroke="transparent" points="177.5,-352.48 177.5,-374.48 387.5,-374.48 387.5,-352.48 177.5,-352.48"/>
<polygon fill="none" stroke="black" points="177.5,-352.48 177.5,-374.48 387.5,-374.48 387.5,-352.48 177.5,-352.48"/>
<text text-anchor="start" x="197.5" y="-360.68" font-family="Helvetica,sans-Serif" font-size="11.00">display_name</text>
<polygon fill="none" stroke="black" points="387.5,-352.48 387.5,-374.48 480.5,-374.48 480.5,-352.48 387.5,-352.48"/>
<text text-anchor="start" x="390.5" y="-360.68" font-family="Helvetica,sans-Serif" font-size="11.00">text[2147483647]</text>
<polygon fill="none" stroke="black" points="177.5,-330.48 177.5,-352.48 387.5,-352.48 387.5,-330.48 177.5,-330.48"/>
<text text-anchor="start" x="197.5" y="-338.68" font-family="Helvetica,sans-Serif" font-size="11.00">external_name</text>
<polygon fill="none" stroke="black" points="387.5,-330.48 387.5,-352.48 480.5,-352.48 480.5,-330.48 387.5,-330.48"/>
<text text-anchor="start" x="390.5" y="-338.68" font-family="Helvetica,sans-Serif" font-size="11.00">text[2147483647]</text>
<polygon fill="none" stroke="black" points="177.5,-308.48 177.5,-330.48 387.5,-330.48 387.5,-308.48 177.5,-308.48"/>
<image xlink:href="../../images/foreignKeys.png" width="11px" height="12px" preserveAspectRatio="xMinYMin meet" x="182.5" y="-325.485"/>
<text text-anchor="start" x="197.5" y="-316.68" font-family="Helvetica,sans-Serif" font-size="11.00">enum_id</text>
<polygon fill="none" stroke="black" points="387.5,-308.48 387.5,-330.48 480.5,-330.48 480.5,-308.48 387.5,-308.48"/>
<text text-anchor="start" x="390.5" y="-316.68" font-family="Helvetica,sans-Serif" font-size="11.00">uuid[2147483647]</text>
<polygon fill="none" stroke="black" points="177.5,-286.48 177.5,-308.48 387.5,-308.48 387.5,-286.48 177.5,-286.48"/>
<text text-anchor="start" x="197.5" y="-294.68" font-family="Helvetica,sans-Serif" font-size="11.00">syst_description</text>
<polygon fill="none" stroke="black" points="387.5,-286.48 387.5,-308.48 480.5,-308.48 480.5,-286.48 387.5,-286.48"/>
<text text-anchor="start" x="390.5" y="-294.68" font-family="Helvetica,sans-Serif" font-size="11.00">text[2147483647]</text>
<polygon fill="none" stroke="black" points="177.5,-264.48 177.5,-286.48 387.5,-286.48 387.5,-264.48 177.5,-264.48"/>
<text text-anchor="start" x="197.5" y="-272.68" font-family="Helvetica,sans-Serif" font-size="11.00">user_description</text>
<polygon fill="none" stroke="black" points="387.5,-264.48 387.5,-286.48 480.5,-286.48 480.5,-264.48 387.5,-264.48"/>
<text text-anchor="start" x="390.5" y="-272.68" font-family="Helvetica,sans-Serif" font-size="11.00">text[2147483647]</text>
<polygon fill="none" stroke="black" points="177.5,-242.48 177.5,-264.48 387.5,-264.48 387.5,-242.48 177.5,-242.48"/>
<text text-anchor="start" x="197.5" y="-250.68" font-family="Helvetica,sans-Serif" font-size="11.00">diag_timestamp_created</text>
<polygon fill="none" stroke="black" points="387.5,-242.48 387.5,-264.48 480.5,-264.48 480.5,-242.48 387.5,-242.48"/>
<text text-anchor="start" x="390.5" y="-250.68" font-family="Helvetica,sans-Serif" font-size="11.00">timestamptz[35,6]</text>
<polygon fill="none" stroke="black" points="177.5,-220.48 177.5,-242.48 387.5,-242.48 387.5,-220.48 177.5,-220.48"/>
<text text-anchor="start" x="197.5" y="-228.68" font-family="Helvetica,sans-Serif" font-size="11.00">diag_role_created</text>
<polygon fill="none" stroke="black" points="387.5,-220.48 387.5,-242.48 480.5,-242.48 480.5,-220.48 387.5,-220.48"/>
<text text-anchor="start" x="390.5" y="-228.68" font-family="Helvetica,sans-Serif" font-size="11.00">text[2147483647]</text>
<polygon fill="none" stroke="black" points="177.5,-198.48 177.5,-220.48 387.5,-220.48 387.5,-198.48 177.5,-198.48"/>
<text text-anchor="start" x="197.5" y="-206.68" font-family="Helvetica,sans-Serif" font-size="11.00">diag_timestamp_modified</text>
<polygon fill="none" stroke="black" points="387.5,-198.48 387.5,-220.48 480.5,-220.48 480.5,-198.48 387.5,-198.48"/>
<text text-anchor="start" x="390.5" y="-206.68" font-family="Helvetica,sans-Serif" font-size="11.00">timestamptz[35,6]</text>
<polygon fill="none" stroke="black" points="177.5,-176.48 177.5,-198.48 387.5,-198.48 387.5,-176.48 177.5,-176.48"/>
<text text-anchor="start" x="197.5" y="-184.68" font-family="Helvetica,sans-Serif" font-size="11.00">diag_wallclock_modified</text>
<polygon fill="none" stroke="black" points="387.5,-176.48 387.5,-198.48 480.5,-198.48 480.5,-176.48 387.5,-176.48"/>
<text text-anchor="start" x="390.5" y="-184.68" font-family="Helvetica,sans-Serif" font-size="11.00">timestamptz[35,6]</text>
<polygon fill="none" stroke="black" points="177.5,-154.48 177.5,-176.48 387.5,-176.48 387.5,-154.48 177.5,-154.48"/>
<text text-anchor="start" x="197.5" y="-162.68" font-family="Helvetica,sans-Serif" font-size="11.00">diag_role_modified</text>
<polygon fill="none" stroke="black" points="387.5,-154.48 387.5,-176.48 480.5,-176.48 480.5,-154.48 387.5,-154.48"/>
<text text-anchor="start" x="390.5" y="-162.68" font-family="Helvetica,sans-Serif" font-size="11.00">text[2147483647]</text>
<polygon fill="none" stroke="black" points="177.5,-132.48 177.5,-154.48 387.5,-154.48 387.5,-132.48 177.5,-132.48"/>
<text text-anchor="start" x="197.5" y="-140.68" font-family="Helvetica,sans-Serif" font-size="11.00">diag_row_version</text>
<polygon fill="none" stroke="black" points="387.5,-132.48 387.5,-154.48 480.5,-154.48 480.5,-132.48 387.5,-132.48"/>
<text text-anchor="start" x="390.5" y="-140.68" font-family="Helvetica,sans-Serif" font-size="11.00">int8[19]</text>
<polygon fill="none" stroke="black" points="177.5,-110.48 177.5,-132.48 387.5,-132.48 387.5,-110.48 177.5,-110.48"/>
<text text-anchor="start" x="197.5" y="-118.68" font-family="Helvetica,sans-Serif" font-size="11.00">diag_update_count</text>
<polygon fill="none" stroke="black" points="387.5,-110.48 387.5,-132.48 480.5,-132.48 480.5,-110.48 387.5,-110.48"/>
<text text-anchor="start" x="390.5" y="-118.68" font-family="Helvetica,sans-Serif" font-size="11.00">int8[19]</text>
<polygon fill="#ffffff" stroke="transparent" points="177.5,-92.48 177.5,-110.48 286.5,-110.48 286.5,-92.48 177.5,-92.48"/>
<polygon fill="none" stroke="black" points="177.5,-92.48 177.5,-110.48 286.5,-110.48 286.5,-92.48 177.5,-92.48"/>
<text text-anchor="start" x="180.5" y="-98.68" font-family="Helvetica,sans-Serif" font-size="11.00">&lt; 1</text>
<polygon fill="#ffffff" stroke="transparent" points="286.5,-92.48 286.5,-110.48 387.5,-110.48 387.5,-92.48 286.5,-92.48"/>
<polygon fill="none" stroke="black" points="286.5,-92.48 286.5,-110.48 387.5,-110.48 387.5,-92.48 286.5,-92.48"/>
<text text-anchor="start" x="377.5" y="-98.68" font-family="Helvetica,sans-Serif" font-size="11.00"> &#160;</text>
<polygon fill="#ffffff" stroke="transparent" points="387.5,-92.48 387.5,-110.48 480.5,-110.48 480.5,-92.48 387.5,-92.48"/>
<polygon fill="none" stroke="black" points="387.5,-92.48 387.5,-110.48 480.5,-110.48 480.5,-92.48 387.5,-92.48"/>
<text text-anchor="start" x="461.5" y="-98.68" font-family="Helvetica,sans-Serif" font-size="11.00">1 &gt;</text>
<polygon fill="none" stroke="black" stroke-width="2" points="176,-91.48 176,-441.48 481,-441.48 481,-91.48 176,-91.48"/>
</a>
</g>
</g>
<!-- syst_enums -->
<g id="node2" class="node">
<title>syst_enums</title>
<g id="a_node2"><a xlink:href="../../tables/syst_enums.html" xlink:title="syst_enums" target="_top">
<polygon fill="#ffffff" stroke="transparent" points="8,-163.48 8,-221.48 126,-221.48 126,-163.48 8,-163.48"/>
<polygon fill="#f5f5f5" stroke="transparent" points="8,-199.48 8,-221.48 126,-221.48 126,-199.48 8,-199.48"/>
<polygon fill="none" stroke="black" points="8,-199.48 8,-221.48 126,-221.48 126,-199.48 8,-199.48"/>
<text text-anchor="start" x="13" y="-208.68" font-family="Helvetica,sans-Serif" font-weight="bold" font-size="11.00">syst_enums</text>
<text text-anchor="start" x="91" y="-207.68" font-family="Helvetica,sans-Serif" font-size="11.00">[table]</text>
<polygon fill="none" stroke="black" points="8,-181.48 8,-199.48 126,-199.48 126,-181.48 8,-181.48"/>
<text text-anchor="start" x="11" y="-187.68" font-family="Helvetica,sans-Serif" font-size="11.00">...</text>
<polygon fill="#ffffff" stroke="transparent" points="8,-163.48 8,-181.48 56,-181.48 56,-163.48 8,-163.48"/>
<polygon fill="none" stroke="black" points="8,-163.48 8,-181.48 56,-181.48 56,-163.48 8,-163.48"/>
<text text-anchor="start" x="11" y="-169.68" font-family="Helvetica,sans-Serif" font-size="11.00"> &#160;</text>
<polygon fill="#ffffff" stroke="transparent" points="56,-163.48 56,-181.48 86,-181.48 86,-163.48 56,-163.48"/>
<polygon fill="none" stroke="black" points="56,-163.48 56,-181.48 86,-181.48 86,-163.48 56,-163.48"/>
<text text-anchor="start" x="76" y="-169.68" font-family="Helvetica,sans-Serif" font-size="11.00"> &#160;</text>
<polygon fill="#ffffff" stroke="transparent" points="86,-163.48 86,-181.48 126,-181.48 126,-163.48 86,-163.48"/>
<polygon fill="none" stroke="black" points="86,-163.48 86,-181.48 126,-181.48 126,-163.48 86,-163.48"/>
<text text-anchor="start" x="107" y="-169.68" font-family="Helvetica,sans-Serif" font-size="11.00">2 &gt;</text>
</a>
</g>
</g>
<!-- syst_enum_functional_types&#45;&gt;syst_enums -->
<g id="edge1" class="edge">
<title>syst_enum_functional_types:w&#45;&gt;syst_enums:e</title>
<path fill="none" stroke="black" d="M161.98,-317.82C120.78,-308.23 93.75,-259.33 79.68,-225.52"/>
<polygon fill="black" stroke="black" points="168.55,-318.57 176.09,-323.06 172.53,-319.03 176.5,-319.48 176.5,-319.48 176.5,-319.48 172.53,-319.03 176.91,-315.91 168.55,-318.57 168.55,-318.57"/>
<ellipse fill="none" stroke="black" cx="165.37" cy="-318.21" rx="3.2" ry="3.2"/>
</g>
<!-- syst_enum_items -->
<g id="node3" class="node">
<title>syst_enum_items</title>
<g id="a_node3"><a xlink:href="../../tables/syst_enum_items.html" xlink:title="syst_enum_items" target="_top">
<polygon fill="#ffffff" stroke="transparent" points="531,-207.48 531,-265.48 686,-265.48 686,-207.48 531,-207.48"/>
<polygon fill="#f5f5f5" stroke="transparent" points="531.5,-243.48 531.5,-265.48 686.5,-265.48 686.5,-243.48 531.5,-243.48"/>
<polygon fill="none" stroke="black" points="531.5,-243.48 531.5,-265.48 686.5,-265.48 686.5,-243.48 531.5,-243.48"/>
<text text-anchor="start" x="536.5" y="-252.68" font-family="Helvetica,sans-Serif" font-weight="bold" font-size="11.00">syst_enum_items</text>
<text text-anchor="start" x="651.5" y="-251.68" font-family="Helvetica,sans-Serif" font-size="11.00">[table]</text>
<polygon fill="none" stroke="black" points="531.5,-225.48 531.5,-243.48 686.5,-243.48 686.5,-225.48 531.5,-225.48"/>
<text text-anchor="start" x="534.5" y="-231.68" font-family="Helvetica,sans-Serif" font-size="11.00">...</text>
<polygon fill="#ffffff" stroke="transparent" points="531.5,-207.48 531.5,-225.48 602.5,-225.48 602.5,-207.48 531.5,-207.48"/>
<polygon fill="none" stroke="black" points="531.5,-207.48 531.5,-225.48 602.5,-225.48 602.5,-207.48 531.5,-207.48"/>
<text text-anchor="start" x="534.5" y="-213.68" font-family="Helvetica,sans-Serif" font-size="11.00">&lt; 2</text>
<polygon fill="#ffffff" stroke="transparent" points="602.5,-207.48 602.5,-225.48 639.5,-225.48 639.5,-207.48 602.5,-207.48"/>
<polygon fill="none" stroke="black" points="602.5,-207.48 602.5,-225.48 639.5,-225.48 639.5,-207.48 602.5,-207.48"/>
<text text-anchor="start" x="629.5" y="-213.68" font-family="Helvetica,sans-Serif" font-size="11.00"> &#160;</text>
<polygon fill="#ffffff" stroke="transparent" points="639.5,-207.48 639.5,-225.48 686.5,-225.48 686.5,-207.48 639.5,-207.48"/>
<polygon fill="none" stroke="black" points="639.5,-207.48 639.5,-225.48 686.5,-225.48 686.5,-207.48 639.5,-207.48"/>
<text text-anchor="start" x="667.5" y="-213.68" font-family="Helvetica,sans-Serif" font-size="11.00">2 &gt;</text>
</a>
</g>
</g>
<!-- syst_enum_items&#45;&gt;syst_enum_functional_types -->
<g id="edge3" class="edge">
<title>syst_enum_items:w&#45;&gt;syst_enum_functional_types:e</title>
<path fill="none" stroke="black" d="M594.84,-283.78C578.09,-334.39 543.22,-407.48 481.5,-407.48"/>
<polygon fill="black" stroke="black" points="596.8,-277.5 602.63,-270.93 598,-273.68 599.19,-269.86 599.19,-269.86 599.19,-269.86 598,-273.68 595.75,-268.79 596.8,-277.5 596.8,-277.5"/>
<ellipse fill="none" stroke="black" cx="595.85" cy="-280.55" rx="3.2" ry="3.2"/>
</g>
<!-- syst_enum_items&#45;&gt;syst_enums -->
<g id="edge2" class="edge">
<title>syst_enum_items:w&#45;&gt;syst_enums:e</title>
<path fill="none" stroke="black" d="M587.43,-190.17C568.38,-152.66 535.82,-102.42 490,-79.48 361.63,-15.22 297.74,-20.21 167,-79.48 131.13,-95.75 103.13,-132.14 86.2,-159.26"/>
<polygon fill="black" stroke="black" points="590.34,-196.14 590.6,-204.91 592.09,-199.74 593.84,-203.34 593.84,-203.34 593.84,-203.34 592.09,-199.74 597.08,-201.76 590.34,-196.14 590.34,-196.14"/>
<ellipse fill="none" stroke="black" cx="588.94" cy="-193.27" rx="3.2" ry="3.2"/>
</g>
<!-- syst_hierarchies -->
<g id="node4" class="node">
<title>syst_hierarchies</title>
<g id="a_node4"><a xlink:href="../../tables/syst_hierarchies.html" xlink:title="syst_hierarchies" target="_top">
<polygon fill="#ffffff" stroke="transparent" points="735,-209.48 735,-267.48 884,-267.48 884,-209.48 735,-209.48"/>
<polygon fill="#f5f5f5" stroke="transparent" points="735.5,-245.48 735.5,-267.48 884.5,-267.48 884.5,-245.48 735.5,-245.48"/>
<polygon fill="none" stroke="black" points="735.5,-245.48 735.5,-267.48 884.5,-267.48 884.5,-245.48 735.5,-245.48"/>
<text text-anchor="start" x="740.5" y="-254.68" font-family="Helvetica,sans-Serif" font-weight="bold" font-size="11.00">syst_hierarchies</text>
<text text-anchor="start" x="849.5" y="-253.68" font-family="Helvetica,sans-Serif" font-size="11.00">[table]</text>
<polygon fill="none" stroke="black" points="735.5,-227.48 735.5,-245.48 884.5,-245.48 884.5,-227.48 735.5,-227.48"/>
<text text-anchor="start" x="738.5" y="-233.68" font-family="Helvetica,sans-Serif" font-size="11.00">...</text>
<polygon fill="#ffffff" stroke="transparent" points="735.5,-209.48 735.5,-227.48 803.5,-227.48 803.5,-209.48 735.5,-209.48"/>
<polygon fill="none" stroke="black" points="735.5,-209.48 735.5,-227.48 803.5,-227.48 803.5,-209.48 735.5,-209.48"/>
<text text-anchor="start" x="738.5" y="-215.68" font-family="Helvetica,sans-Serif" font-size="11.00">&lt; 2</text>
<polygon fill="#ffffff" stroke="transparent" points="803.5,-209.48 803.5,-227.48 839.5,-227.48 839.5,-209.48 803.5,-209.48"/>
<polygon fill="none" stroke="black" points="803.5,-209.48 803.5,-227.48 839.5,-227.48 839.5,-209.48 803.5,-209.48"/>
<text text-anchor="start" x="829.5" y="-215.68" font-family="Helvetica,sans-Serif" font-size="11.00"> &#160;</text>
<polygon fill="#ffffff" stroke="transparent" points="839.5,-209.48 839.5,-227.48 884.5,-227.48 884.5,-209.48 839.5,-209.48"/>
<polygon fill="none" stroke="black" points="839.5,-209.48 839.5,-227.48 884.5,-227.48 884.5,-209.48 839.5,-209.48"/>
<text text-anchor="start" x="865.5" y="-215.68" font-family="Helvetica,sans-Serif" font-size="11.00">1 &gt;</text>
</a>
</g>
</g>
<!-- syst_hierarchies&#45;&gt;syst_enum_items -->
<g id="edge4" class="edge">
<title>syst_hierarchies:w&#45;&gt;syst_enum_items:e</title>
<path fill="none" stroke="black" d="M719.9,-235.07C711.4,-234.33 702.75,-233.73 694.22,-233.25"/>
<polygon fill="black" stroke="black" points="726.54,-235.71 734.15,-240.07 730.52,-236.1 734.5,-236.48 734.5,-236.48 734.5,-236.48 730.52,-236.1 734.85,-232.9 726.54,-235.71 726.54,-235.71"/>
<ellipse fill="none" stroke="black" cx="723.35" cy="-235.4" rx="3.2" ry="3.2"/>
</g>
<!-- syst_hierarchies&#45;&gt;syst_enum_items -->
<g id="edge5" class="edge">
<title>syst_hierarchies:w&#45;&gt;syst_enum_items:e</title>
<path fill="none" stroke="black" d="M719.9,-238.14C711.4,-239 702.75,-239.7 694.22,-240.25"/>
<polygon fill="black" stroke="black" points="726.55,-237.38 734.9,-240.06 730.53,-236.93 734.5,-236.48 734.5,-236.48 734.5,-236.48 730.53,-236.93 734.1,-232.91 726.55,-237.38 726.55,-237.38"/>
<ellipse fill="none" stroke="black" cx="723.37" cy="-237.74" rx="3.2" ry="3.2"/>
</g>
</g>
</svg>
