<?xml version="1.0" encoding="UTF-8" standalone="no"?>
<!DOCTYPE svg PUBLIC "-//W3C//DTD SVG 1.1//EN"
 "http://www.w3.org/Graphics/SVG/1.1/DTD/svg11.dtd">
<!-- Generated by graphviz version 2.43.0 (0)
 -->
<!-- Title: twoDegreesRelationshipsDiagram Pages: 1 -->
<svg width="1273pt" height="652pt"
 viewBox="0.00 0.00 1273.00 652.00" xmlns="http://www.w3.org/2000/svg" xmlns:xlink="http://www.w3.org/1999/xlink">
<g id="graph0" class="graph" transform="scale(1 1) rotate(0) translate(4 648)">
<title>twoDegreesRelationshipsDiagram</title>
<polygon fill="#ffffff" stroke="transparent" points="-4,4 -4,-648 1269,-648 1269,4 -4,4"/>
<text text-anchor="middle" x="79.5" y="-7.2" font-family="Helvetica,sans-Serif" font-size="11.00">Generated by SchemaSpy</text>
<!-- syst_enum_functional_types -->
<g id="node1" class="node">
<title>syst_enum_functional_types</title>
<g id="a_node1"><a xlink:href="../../tables/syst_enum_functional_types.html" xlink:title="syst_enum_functional_types" target="_top">
<polygon fill="#ffffff" stroke="transparent" points="182,-375 182,-433 418,-433 418,-375 182,-375"/>
<polygon fill="#f5f5f5" stroke="transparent" points="182,-411 182,-433 418,-433 418,-411 182,-411"/>
<polygon fill="none" stroke="black" points="182,-411 182,-433 418,-433 418,-411 182,-411"/>
<text text-anchor="start" x="187" y="-420.2" font-family="Helvetica,sans-Serif" font-weight="bold" font-size="11.00">syst_enum_functional_types</text>
<text text-anchor="start" x="376" y="-419.2" font-family="Helvetica,sans-Serif" font-size="11.00">[table]</text>
<polygon fill="none" stroke="black" points="182,-393 182,-411 418,-411 418,-393 182,-393"/>
<text text-anchor="start" x="185" y="-399.2" font-family="Helvetica,sans-Serif" font-size="11.00">...</text>
<polygon fill="#ffffff" stroke="transparent" points="182,-375 182,-393 293,-393 293,-375 182,-375"/>
<polygon fill="none" stroke="black" points="182,-375 182,-393 293,-393 293,-375 182,-375"/>
<text text-anchor="start" x="185" y="-381.2" font-family="Helvetica,sans-Serif" font-size="11.00">&lt; 1</text>
<polygon fill="#ffffff" stroke="transparent" points="293,-375 293,-393 349,-393 349,-375 293,-375"/>
<polygon fill="none" stroke="black" points="293,-375 293,-393 349,-393 349,-375 293,-375"/>
<text text-anchor="start" x="338" y="-381.2" font-family="Helvetica,sans-Serif" font-size="11.00"> &#160;</text>
<polygon fill="#ffffff" stroke="transparent" points="349,-375 349,-393 418,-393 418,-375 349,-375"/>
<polygon fill="none" stroke="black" points="349,-375 349,-393 418,-393 418,-375 349,-375"/>
<text text-anchor="start" x="395" y="-381.2" font-family="Helvetica,sans-Serif" font-size="11.00">1 &gt;</text>
</a>
</g>
</g>
<!-- syst_enums -->
<g id="node2" class="node">
<title>syst_enums</title>
<g id="a_node2"><a xlink:href="../../tables/syst_enums.html" xlink:title="syst_enums" target="_top">
<polygon fill="#ffffff" stroke="transparent" points="8,-401 8,-459 133,-459 133,-401 8,-401"/>
<polygon fill="#f5f5f5" stroke="transparent" points="8.5,-437 8.5,-459 133.5,-459 133.5,-437 8.5,-437"/>
<polygon fill="none" stroke="black" points="8.5,-437 8.5,-459 133.5,-459 133.5,-437 8.5,-437"/>
<text text-anchor="start" x="13.5" y="-446.2" font-family="Helvetica,sans-Serif" font-weight="bold" font-size="11.00">syst_enums</text>
<text text-anchor="start" x="91.5" y="-445.2" font-family="Helvetica,sans-Serif" font-size="11.00">[table]</text>
<polygon fill="none" stroke="black" points="8.5,-419 8.5,-437 133.5,-437 133.5,-419 8.5,-419"/>
<text text-anchor="start" x="11.5" y="-425.2" font-family="Helvetica,sans-Serif" font-size="11.00">...</text>
<polygon fill="#ffffff" stroke="transparent" points="8.5,-401 8.5,-419 57.5,-419 57.5,-401 8.5,-401"/>
<polygon fill="none" stroke="black" points="8.5,-401 8.5,-419 57.5,-419 57.5,-401 8.5,-401"/>
<text text-anchor="start" x="11.5" y="-407.2" font-family="Helvetica,sans-Serif" font-size="11.00"> &#160;</text>
<polygon fill="#ffffff" stroke="transparent" points="57.5,-401 57.5,-419 89.5,-419 89.5,-401 57.5,-401"/>
<polygon fill="none" stroke="black" points="57.5,-401 57.5,-419 89.5,-419 89.5,-401 57.5,-401"/>
<text text-anchor="start" x="78.5" y="-407.2" font-family="Helvetica,sans-Serif" font-size="11.00"> &#160;</text>
<polygon fill="#ffffff" stroke="transparent" points="89.5,-401 89.5,-419 133.5,-419 133.5,-401 89.5,-401"/>
<polygon fill="none" stroke="black" points="89.5,-401 89.5,-419 133.5,-419 133.5,-401 89.5,-401"/>
<text text-anchor="start" x="110.5" y="-407.2" font-family="Helvetica,sans-Serif" font-size="11.00">2 &gt;</text>
</a>
</g>
</g>
<!-- syst_enum_functional_types&#45;&gt;syst_enums -->
<g id="edge1" class="edge">
<title>syst_enum_functional_types:w&#45;&gt;syst_enums:e</title>
<path fill="none" stroke="black" d="M159.55,-419.94C153.25,-420.66 147.06,-421.36 141.07,-422.05"/>
<polygon fill="black" stroke="black" points="165.99,-419.2 174.34,-421.87 169.96,-418.75 173.94,-418.29 173.94,-418.29 173.94,-418.29 169.96,-418.75 173.53,-414.72 165.99,-419.2 165.99,-419.2"/>
<ellipse fill="none" stroke="black" cx="162.81" cy="-419.56" rx="3.2" ry="3.2"/>
</g>
<!-- syst_enum_items -->
<g id="node3" class="node">
<title>syst_enum_items</title>
<g id="a_node3"><a xlink:href="../../tables/syst_enum_items.html" xlink:title="syst_enum_items" target="_top">
<polygon fill="#ffffff" stroke="transparent" points="467,-37 467,-565 777,-565 777,-37 467,-37"/>
<polygon fill="#f5f5f5" stroke="transparent" points="469,-541 469,-563 775,-563 775,-541 469,-541"/>
<polygon fill="none" stroke="black" points="469,-541 469,-563 775,-563 775,-541 469,-541"/>
<text text-anchor="start" x="474" y="-550.2" font-family="Helvetica,sans-Serif" font-weight="bold" font-size="11.00">syst_enum_items</text>
<text text-anchor="start" x="733" y="-549.2" font-family="Helvetica,sans-Serif" font-size="11.00">[table]</text>
<polygon fill="none" stroke="black" points="469,-519 469,-541 663,-541 663,-519 469,-519"/>
<image xlink:href="../../images/primaryKeys.png" width="11px" height="12px" preserveAspectRatio="xMinYMin meet" x="474" y="-536"/>
<text text-anchor="start" x="489" y="-527.2" font-family="Helvetica,sans-Serif" font-size="11.00">id</text>
<polygon fill="none" stroke="black" points="663,-519 663,-541 775,-541 775,-519 663,-519"/>
<text text-anchor="start" x="666" y="-527.2" font-family="Helvetica,sans-Serif" font-size="11.00">uuid[2147483647]</text>
<polygon fill="#ffffff" stroke="transparent" points="469,-497 469,-519 663,-519 663,-497 469,-497"/>
<polygon fill="none" stroke="black" points="469,-497 469,-519 663,-519 663,-497 469,-497"/>
<text text-anchor="start" x="489" y="-505.2" font-family="Helvetica,sans-Serif" font-size="11.00">internal_name</text>
<polygon fill="none" stroke="black" points="663,-497 663,-519 775,-519 775,-497 663,-497"/>
<text text-anchor="start" x="666" y="-505.2" font-family="Helvetica,sans-Serif" font-size="11.00">text[2147483647]</text>
<polygon fill="#ffffff" stroke="transparent" points="469,-475 469,-497 663,-497 663,-475 469,-475"/>
<polygon fill="none" stroke="black" points="469,-475 469,-497 663,-497 663,-475 469,-475"/>
<text text-anchor="start" x="489" y="-483.2" font-family="Helvetica,sans-Serif" font-size="11.00">display_name</text>
<polygon fill="none" stroke="black" points="663,-475 663,-497 775,-497 775,-475 663,-475"/>
<text text-anchor="start" x="666" y="-483.2" font-family="Helvetica,sans-Serif" font-size="11.00">text[2147483647]</text>
<polygon fill="none" stroke="black" points="469,-453 469,-475 663,-475 663,-453 469,-453"/>
<text text-anchor="start" x="489" y="-461.2" font-family="Helvetica,sans-Serif" font-size="11.00">external_name</text>
<polygon fill="none" stroke="black" points="663,-453 663,-475 775,-475 775,-453 663,-453"/>
<text text-anchor="start" x="666" y="-461.2" font-family="Helvetica,sans-Serif" font-size="11.00">text[2147483647]</text>
<polygon fill="none" stroke="black" points="469,-431 469,-453 663,-453 663,-431 469,-431"/>
<image xlink:href="../../images/foreignKeys.png" width="11px" height="12px" preserveAspectRatio="xMinYMin meet" x="474" y="-448"/>
<text text-anchor="start" x="489" y="-439.2" font-family="Helvetica,sans-Serif" font-size="11.00">enum_id</text>
<polygon fill="none" stroke="black" points="663,-431 663,-453 775,-453 775,-431 663,-431"/>
<text text-anchor="start" x="666" y="-439.2" font-family="Helvetica,sans-Serif" font-size="11.00">uuid[2147483647]</text>
<polygon fill="none" stroke="black" points="469,-409 469,-431 663,-431 663,-409 469,-409"/>
<image xlink:href="../../images/foreignKeys.png" width="11px" height="12px" preserveAspectRatio="xMinYMin meet" x="474" y="-426"/>
<text text-anchor="start" x="489" y="-417.2" font-family="Helvetica,sans-Serif" font-size="11.00">functional_type_id</text>
<polygon fill="none" stroke="black" points="663,-409 663,-431 775,-431 775,-409 663,-409"/>
<text text-anchor="start" x="666" y="-417.2" font-family="Helvetica,sans-Serif" font-size="11.00">uuid[2147483647]</text>
<polygon fill="none" stroke="black" points="469,-387 469,-409 663,-409 663,-387 469,-387"/>
<text text-anchor="start" x="489" y="-395.2" font-family="Helvetica,sans-Serif" font-size="11.00">enum_default</text>
<polygon fill="none" stroke="black" points="663,-387 663,-409 775,-409 775,-387 663,-387"/>
<text text-anchor="start" x="666" y="-395.2" font-family="Helvetica,sans-Serif" font-size="11.00">bool[1]</text>
<polygon fill="none" stroke="black" points="469,-365 469,-387 663,-387 663,-365 469,-365"/>
<text text-anchor="start" x="489" y="-373.2" font-family="Helvetica,sans-Serif" font-size="11.00">functional_type_default</text>
<polygon fill="none" stroke="black" points="663,-365 663,-387 775,-387 775,-365 663,-365"/>
<text text-anchor="start" x="666" y="-373.2" font-family="Helvetica,sans-Serif" font-size="11.00">bool[1]</text>
<polygon fill="none" stroke="black" points="469,-343 469,-365 663,-365 663,-343 469,-343"/>
<text text-anchor="start" x="489" y="-351.2" font-family="Helvetica,sans-Serif" font-size="11.00">syst_defined</text>
<polygon fill="none" stroke="black" points="663,-343 663,-365 775,-365 775,-343 663,-343"/>
<text text-anchor="start" x="666" y="-351.2" font-family="Helvetica,sans-Serif" font-size="11.00">bool[1]</text>
<polygon fill="none" stroke="black" points="469,-321 469,-343 663,-343 663,-321 469,-321"/>
<text text-anchor="start" x="489" y="-329.2" font-family="Helvetica,sans-Serif" font-size="11.00">user_maintainable</text>
<polygon fill="none" stroke="black" points="663,-321 663,-343 775,-343 775,-321 663,-321"/>
<text text-anchor="start" x="666" y="-329.2" font-family="Helvetica,sans-Serif" font-size="11.00">bool[1]</text>
<polygon fill="none" stroke="black" points="469,-299 469,-321 663,-321 663,-299 469,-299"/>
<text text-anchor="start" x="489" y="-307.2" font-family="Helvetica,sans-Serif" font-size="11.00">syst_description</text>
<polygon fill="none" stroke="black" points="663,-299 663,-321 775,-321 775,-299 663,-299"/>
<text text-anchor="start" x="666" y="-307.2" font-family="Helvetica,sans-Serif" font-size="11.00">text[2147483647]</text>
<polygon fill="none" stroke="black" points="469,-277 469,-299 663,-299 663,-277 469,-277"/>
<text text-anchor="start" x="489" y="-285.2" font-family="Helvetica,sans-Serif" font-size="11.00">user_description</text>
<polygon fill="none" stroke="black" points="663,-277 663,-299 775,-299 775,-277 663,-277"/>
<text text-anchor="start" x="666" y="-285.2" font-family="Helvetica,sans-Serif" font-size="11.00">text[2147483647]</text>
<polygon fill="none" stroke="black" points="469,-255 469,-277 663,-277 663,-255 469,-255"/>
<text text-anchor="start" x="489" y="-263.2" font-family="Helvetica,sans-Serif" font-size="11.00">sort_order</text>
<polygon fill="none" stroke="black" points="663,-255 663,-277 775,-277 775,-255 663,-255"/>
<text text-anchor="start" x="666" y="-263.2" font-family="Helvetica,sans-Serif" font-size="11.00">int2[5]</text>
<polygon fill="none" stroke="black" points="469,-233 469,-255 663,-255 663,-233 469,-233"/>
<text text-anchor="start" x="489" y="-241.2" font-family="Helvetica,sans-Serif" font-size="11.00">syst_options</text>
<polygon fill="none" stroke="black" points="663,-233 663,-255 775,-255 775,-233 663,-233"/>
<text text-anchor="start" x="666" y="-241.2" font-family="Helvetica,sans-Serif" font-size="11.00">jsonb[2147483647]</text>
<polygon fill="none" stroke="black" points="469,-211 469,-233 663,-233 663,-211 469,-211"/>
<text text-anchor="start" x="489" y="-219.2" font-family="Helvetica,sans-Serif" font-size="11.00">user_options</text>
<polygon fill="none" stroke="black" points="663,-211 663,-233 775,-233 775,-211 663,-211"/>
<text text-anchor="start" x="666" y="-219.2" font-family="Helvetica,sans-Serif" font-size="11.00">jsonb[2147483647]</text>
<polygon fill="none" stroke="black" points="469,-189 469,-211 663,-211 663,-189 469,-189"/>
<text text-anchor="start" x="489" y="-197.2" font-family="Helvetica,sans-Serif" font-size="11.00">diag_timestamp_created</text>
<polygon fill="none" stroke="black" points="663,-189 663,-211 775,-211 775,-189 663,-189"/>
<text text-anchor="start" x="666" y="-197.2" font-family="Helvetica,sans-Serif" font-size="11.00">timestamptz[35,6]</text>
<polygon fill="none" stroke="black" points="469,-167 469,-189 663,-189 663,-167 469,-167"/>
<text text-anchor="start" x="489" y="-175.2" font-family="Helvetica,sans-Serif" font-size="11.00">diag_role_created</text>
<polygon fill="none" stroke="black" points="663,-167 663,-189 775,-189 775,-167 663,-167"/>
<text text-anchor="start" x="666" y="-175.2" font-family="Helvetica,sans-Serif" font-size="11.00">text[2147483647]</text>
<polygon fill="none" stroke="black" points="469,-145 469,-167 663,-167 663,-145 469,-145"/>
<text text-anchor="start" x="489" y="-153.2" font-family="Helvetica,sans-Serif" font-size="11.00">diag_timestamp_modified</text>
<polygon fill="none" stroke="black" points="663,-145 663,-167 775,-167 775,-145 663,-145"/>
<text text-anchor="start" x="666" y="-153.2" font-family="Helvetica,sans-Serif" font-size="11.00">timestamptz[35,6]</text>
<polygon fill="none" stroke="black" points="469,-123 469,-145 663,-145 663,-123 469,-123"/>
<text text-anchor="start" x="489" y="-131.2" font-family="Helvetica,sans-Serif" font-size="11.00">diag_wallclock_modified</text>
<polygon fill="none" stroke="black" points="663,-123 663,-145 775,-145 775,-123 663,-123"/>
<text text-anchor="start" x="666" y="-131.2" font-family="Helvetica,sans-Serif" font-size="11.00">timestamptz[35,6]</text>
<polygon fill="none" stroke="black" points="469,-101 469,-123 663,-123 663,-101 469,-101"/>
<text text-anchor="start" x="489" y="-109.2" font-family="Helvetica,sans-Serif" font-size="11.00">diag_role_modified</text>
<polygon fill="none" stroke="black" points="663,-101 663,-123 775,-123 775,-101 663,-101"/>
<text text-anchor="start" x="666" y="-109.2" font-family="Helvetica,sans-Serif" font-size="11.00">text[2147483647]</text>
<polygon fill="none" stroke="black" points="469,-79 469,-101 663,-101 663,-79 469,-79"/>
<text text-anchor="start" x="489" y="-87.2" font-family="Helvetica,sans-Serif" font-size="11.00">diag_row_version</text>
<polygon fill="none" stroke="black" points="663,-79 663,-101 775,-101 775,-79 663,-79"/>
<text text-anchor="start" x="666" y="-87.2" font-family="Helvetica,sans-Serif" font-size="11.00">int8[19]</text>
<polygon fill="none" stroke="black" points="469,-57 469,-79 663,-79 663,-57 469,-57"/>
<text text-anchor="start" x="489" y="-65.2" font-family="Helvetica,sans-Serif" font-size="11.00">diag_update_count</text>
<polygon fill="none" stroke="black" points="663,-57 663,-79 775,-79 775,-57 663,-57"/>
<text text-anchor="start" x="666" y="-65.2" font-family="Helvetica,sans-Serif" font-size="11.00">int8[19]</text>
<polygon fill="#ffffff" stroke="transparent" points="469,-39 469,-57 572,-57 572,-39 469,-39"/>
<polygon fill="none" stroke="black" points="469,-39 469,-57 572,-57 572,-39 469,-39"/>
<text text-anchor="start" x="472" y="-45.2" font-family="Helvetica,sans-Serif" font-size="11.00">&lt; 2</text>
<polygon fill="#ffffff" stroke="transparent" points="572,-39 572,-57 663,-57 663,-39 572,-39"/>
<polygon fill="none" stroke="black" points="572,-39 572,-57 663,-57 663,-39 572,-39"/>
<text text-anchor="start" x="652" y="-45.2" font-family="Helvetica,sans-Serif" font-size="11.00"> &#160;</text>
<polygon fill="#ffffff" stroke="transparent" points="663,-39 663,-57 775,-57 775,-39 663,-39"/>
<polygon fill="none" stroke="black" points="663,-39 663,-57 775,-57 775,-39 663,-39"/>
<text text-anchor="start" x="752" y="-45.2" font-family="Helvetica,sans-Serif" font-size="11.00">2 &gt;</text>
<polygon fill="none" stroke="black" stroke-width="2" points="468,-38 468,-564 776,-564 776,-38 468,-38"/>
</a>
</g>
</g>
<!-- syst_enum_items&#45;&gt;syst_enum_functional_types -->
<g id="edge3" class="edge">
<title>syst_enum_items:w&#45;&gt;syst_enum_functional_types:e</title>
<path fill="none" stroke="black" d="M453.53,-419.81C444.53,-419.59 435.38,-419.17 426.26,-418.61"/>
<polygon fill="black" stroke="black" points="460,-419.9 467.95,-423.6 464,-419.95 468,-420 468,-420 468,-420 464,-419.95 468.05,-416.4 460,-419.9 460,-419.9"/>
<ellipse fill="none" stroke="black" cx="456.8" cy="-419.85" rx="3.2" ry="3.2"/>
</g>
<!-- syst_enum_items&#45;&gt;syst_enums -->
<g id="edge2" class="edge">
<title>syst_enum_items:w&#45;&gt;syst_enums:e</title>
<path fill="none" stroke="black" d="M453.45,-442.2C444.91,-442.44 438.69,-442.85 426,-443 314.01,-444.33 285.78,-450.06 174,-443 163.35,-442.33 152.11,-441.26 141.14,-440.03"/>
<polygon fill="black" stroke="black" points="460,-442.11 468.05,-445.6 464,-442.05 468,-442 468,-442 468,-442 464,-442.05 467.95,-438.4 460,-442.11 460,-442.11"/>
<ellipse fill="none" stroke="black" cx="456.8" cy="-442.15" rx="3.2" ry="3.2"/>
</g>
<!-- syst_hierarchies -->
<g id="node4" class="node">
<title>syst_hierarchies</title>
<g id="a_node4"><a xlink:href="../../tables/syst_hierarchies.html" xlink:title="syst_hierarchies" target="_top">
<polygon fill="#ffffff" stroke="transparent" points="826,-472 826,-640 1020,-640 1020,-472 826,-472"/>
<polygon fill="#f5f5f5" stroke="transparent" points="826,-618 826,-640 1020,-640 1020,-618 826,-618"/>
<polygon fill="none" stroke="black" points="826,-618 826,-640 1020,-640 1020,-618 826,-618"/>
<text text-anchor="start" x="831" y="-627.2" font-family="Helvetica,sans-Serif" font-weight="bold" font-size="11.00">syst_hierarchies</text>
<text text-anchor="start" x="978" y="-626.2" font-family="Helvetica,sans-Serif" font-size="11.00">[table]</text>
<polygon fill="none" stroke="black" points="826,-596 826,-618 1020,-618 1020,-596 826,-596"/>
<image xlink:href="../../images/primaryKeys.png" width="11px" height="12px" preserveAspectRatio="xMinYMin meet" x="831" y="-613"/>
<text text-anchor="start" x="846" y="-604.2" font-family="Helvetica,sans-Serif" font-size="11.00">id</text>
<polygon fill="#ffffff" stroke="transparent" points="826,-574 826,-596 1020,-596 1020,-574 826,-574"/>
<polygon fill="none" stroke="black" points="826,-574 826,-596 1020,-596 1020,-574 826,-574"/>
<text text-anchor="start" x="846" y="-582.2" font-family="Helvetica,sans-Serif" font-size="11.00">internal_name</text>
<polygon fill="#ffffff" stroke="transparent" points="826,-552 826,-574 1020,-574 1020,-552 826,-552"/>
<polygon fill="none" stroke="black" points="826,-552 826,-574 1020,-574 1020,-552 826,-552"/>
<text text-anchor="start" x="846" y="-560.2" font-family="Helvetica,sans-Serif" font-size="11.00">display_name</text>
<polygon fill="none" stroke="black" points="826,-530 826,-552 1020,-552 1020,-530 826,-530"/>
<image xlink:href="../../images/foreignKeys.png" width="11px" height="12px" preserveAspectRatio="xMinYMin meet" x="831" y="-547"/>
<text text-anchor="start" x="846" y="-538.2" font-family="Helvetica,sans-Serif" font-size="11.00">hierarchy_type_id</text>
<polygon fill="none" stroke="black" points="826,-508 826,-530 1020,-530 1020,-508 826,-508"/>
<image xlink:href="../../images/foreignKeys.png" width="11px" height="12px" preserveAspectRatio="xMinYMin meet" x="831" y="-525"/>
<text text-anchor="start" x="846" y="-516.2" font-family="Helvetica,sans-Serif" font-size="11.00">hierarchy_state_id</text>
<polygon fill="none" stroke="black" points="826,-490 826,-508 1020,-508 1020,-490 826,-490"/>
<text text-anchor="start" x="829" y="-496.2" font-family="Helvetica,sans-Serif" font-size="11.00">...</text>
<polygon fill="#ffffff" stroke="transparent" points="826,-472 826,-490 916,-490 916,-472 826,-472"/>
<polygon fill="none" stroke="black" points="826,-472 826,-490 916,-490 916,-472 826,-472"/>
<text text-anchor="start" x="829" y="-478.2" font-family="Helvetica,sans-Serif" font-size="11.00">&lt; 2</text>
<polygon fill="#ffffff" stroke="transparent" points="916,-472 916,-490 962,-490 962,-472 916,-472"/>
<polygon fill="none" stroke="black" points="916,-472 916,-490 962,-490 962,-472 916,-472"/>
<text text-anchor="start" x="951" y="-478.2" font-family="Helvetica,sans-Serif" font-size="11.00"> &#160;</text>
<polygon fill="#ffffff" stroke="transparent" points="962,-472 962,-490 1020,-490 1020,-472 962,-472"/>
<polygon fill="none" stroke="black" points="962,-472 962,-490 1020,-490 1020,-472 962,-472"/>
<text text-anchor="start" x="997" y="-478.2" font-family="Helvetica,sans-Serif" font-size="11.00">1 &gt;</text>
</a>
</g>
</g>
<!-- syst_hierarchies&#45;&gt;syst_enum_items -->
<g id="edge4" class="edge">
<title>syst_hierarchies:w&#45;&gt;syst_enum_items:e</title>
<path fill="none" stroke="black" d="M810.7,-520.82C799.24,-523.94 792.57,-530 776,-530"/>
<polygon fill="black" stroke="black" points="817.06,-520.01 825.45,-522.57 821.03,-519.5 825,-519 825,-519 825,-519 821.03,-519.5 824.55,-515.43 817.06,-520.01 817.06,-520.01"/>
<ellipse fill="none" stroke="black" cx="813.89" cy="-520.41" rx="3.2" ry="3.2"/>
</g>
<!-- syst_hierarchies&#45;&gt;syst_enum_items -->
<g id="edge5" class="edge">
<title>syst_hierarchies:w&#45;&gt;syst_enum_items:e</title>
<path fill="none" stroke="black" d="M810.7,-539.18C799.24,-536.06 792.57,-530 776,-530"/>
<polygon fill="black" stroke="black" points="817.06,-539.99 824.55,-544.57 821.03,-540.5 825,-541 825,-541 825,-541 821.03,-540.5 825.45,-537.43 817.06,-539.99 817.06,-539.99"/>
<ellipse fill="none" stroke="black" cx="813.89" cy="-539.59" rx="3.2" ry="3.2"/>
</g>
<!-- syst_hierarchy_items -->
<g id="node5" class="node">
<title>syst_hierarchy_items</title>
<g id="a_node5"><a xlink:href="../../tables/syst_hierarchy_items.html" xlink:title="syst_hierarchy_items" target="_top">
<polygon fill="#ffffff" stroke="transparent" points="1069,-580 1069,-638 1257,-638 1257,-580 1069,-580"/>
<polygon fill="#f5f5f5" stroke="transparent" points="1069,-616 1069,-638 1257,-638 1257,-616 1069,-616"/>
<polygon fill="none" stroke="black" points="1069,-616 1069,-638 1257,-638 1257,-616 1069,-616"/>
<text text-anchor="start" x="1074" y="-625.2" font-family="Helvetica,sans-Serif" font-weight="bold" font-size="11.00">syst_hierarchy_items</text>
<text text-anchor="start" x="1215" y="-624.2" font-family="Helvetica,sans-Serif" font-size="11.00">[table]</text>
<polygon fill="none" stroke="black" points="1069,-598 1069,-616 1257,-616 1257,-598 1069,-598"/>
<text text-anchor="start" x="1072" y="-604.2" font-family="Helvetica,sans-Serif" font-size="11.00">...</text>
<polygon fill="#ffffff" stroke="transparent" points="1069,-580 1069,-598 1162,-598 1162,-580 1069,-580"/>
<polygon fill="none" stroke="black" points="1069,-580 1069,-598 1162,-598 1162,-580 1069,-580"/>
<text text-anchor="start" x="1072" y="-586.2" font-family="Helvetica,sans-Serif" font-size="11.00">&lt; 1</text>
<polygon fill="#ffffff" stroke="transparent" points="1162,-580 1162,-598 1209,-598 1209,-580 1162,-580"/>
<polygon fill="none" stroke="black" points="1162,-580 1162,-598 1209,-598 1209,-580 1162,-580"/>
<text text-anchor="start" x="1198" y="-586.2" font-family="Helvetica,sans-Serif" font-size="11.00"> &#160;</text>
<polygon fill="#ffffff" stroke="transparent" points="1209,-580 1209,-598 1257,-598 1257,-580 1209,-580"/>
<polygon fill="none" stroke="black" points="1209,-580 1209,-598 1257,-598 1257,-580 1209,-580"/>
<text text-anchor="start" x="1246" y="-586.2" font-family="Helvetica,sans-Serif" font-size="11.00"> &#160;</text>
</a>
</g>
</g>
<!-- syst_hierarchy_items&#45;&gt;syst_hierarchies -->
<g id="edge6" class="edge">
<title>syst_hierarchy_items:w&#45;&gt;syst_hierarchies:e</title>
<path fill="none" stroke="black" d="M1053.4,-607C1042.93,-607 1036.01,-607 1021,-607"/>
<polygon fill="black" stroke="black" points="1060,-607 1068,-610.6 1064,-607 1068,-607 1068,-607 1068,-607 1064,-607 1068,-603.4 1060,-607 1060,-607"/>
<ellipse fill="none" stroke="black" cx="1056.8" cy="-607" rx="3.2" ry="3.2"/>
</g>
</g>
</svg>
