<?xml version="1.0" encoding="UTF-8" standalone="no"?>
<!DOCTYPE svg PUBLIC "-//W3C//DTD SVG 1.1//EN"
 "http://www.w3.org/Graphics/SVG/1.1/DTD/svg11.dtd">
<!-- Generated by graphviz version 2.43.0 (0)
 -->
<!-- Title: twoDegreesRelationshipsDiagram Pages: 1 -->
<svg width="937pt" height="456pt"
 viewBox="0.00 0.00 937.00 455.99" xmlns="http://www.w3.org/2000/svg" xmlns:xlink="http://www.w3.org/1999/xlink">
<g id="graph0" class="graph" transform="scale(1 1) rotate(0) translate(4 451.99)">
<title>twoDegreesRelationshipsDiagram</title>
<polygon fill="#ffffff" stroke="transparent" points="-4,4 -4,-451.99 933,-451.99 933,4 -4,4"/>
<text text-anchor="middle" x="79.5" y="-7.2" font-family="Helvetica,sans-Serif" font-size="11.00">Generated by SchemaSpy</text>
<!-- syst_enum_functional_types -->
<g id="node1" class="node">
<title>syst_enum_functional_types</title>
<g id="a_node1"><a xlink:href="../../tables/syst_enum_functional_types.html" xlink:title="syst_enum_functional_types" target="_top">
<polygon fill="#ffffff" stroke="transparent" points="182,-91.99 182,-443.99 505,-443.99 505,-91.99 182,-91.99"/>
<polygon fill="#f5f5f5" stroke="transparent" points="184.5,-419.99 184.5,-441.99 503.5,-441.99 503.5,-419.99 184.5,-419.99"/>
<polygon fill="none" stroke="black" points="184.5,-419.99 184.5,-441.99 503.5,-441.99 503.5,-419.99 184.5,-419.99"/>
<text text-anchor="start" x="189.5" y="-429.19" font-family="Helvetica,sans-Serif" font-weight="bold" font-size="11.00">syst_enum_functional_types</text>
<text text-anchor="start" x="461.5" y="-428.19" font-family="Helvetica,sans-Serif" font-size="11.00">[table]</text>
<polygon fill="none" stroke="black" points="184.5,-397.99 184.5,-419.99 394.5,-419.99 394.5,-397.99 184.5,-397.99"/>
<image xlink:href="../../images/primaryKeys.png" width="11px" height="12px" preserveAspectRatio="xMinYMin meet" x="189.5" y="-414.992"/>
<text text-anchor="start" x="204.5" y="-406.19" font-family="Helvetica,sans-Serif" font-size="11.00">id</text>
<polygon fill="none" stroke="black" points="394.5,-397.99 394.5,-419.99 503.5,-419.99 503.5,-397.99 394.5,-397.99"/>
<text text-anchor="start" x="397.5" y="-406.19" font-family="Helvetica,sans-Serif" font-size="11.00">uuid[2147483647]</text>
<polygon fill="#ffffff" stroke="transparent" points="184.5,-375.99 184.5,-397.99 394.5,-397.99 394.5,-375.99 184.5,-375.99"/>
<polygon fill="none" stroke="black" points="184.5,-375.99 184.5,-397.99 394.5,-397.99 394.5,-375.99 184.5,-375.99"/>
<text text-anchor="start" x="204.5" y="-384.19" font-family="Helvetica,sans-Serif" font-size="11.00">internal_name</text>
<polygon fill="none" stroke="black" points="394.5,-375.99 394.5,-397.99 503.5,-397.99 503.5,-375.99 394.5,-375.99"/>
<text text-anchor="start" x="397.5" y="-384.19" font-family="Helvetica,sans-Serif" font-size="11.00">text[2147483647]</text>
<polygon fill="#ffffff" stroke="transparent" points="184.5,-353.99 184.5,-375.99 394.5,-375.99 394.5,-353.99 184.5,-353.99"/>
<polygon fill="none" stroke="black" points="184.5,-353.99 184.5,-375.99 394.5,-375.99 394.5,-353.99 184.5,-353.99"/>
<text text-anchor="start" x="204.5" y="-362.19" font-family="Helvetica,sans-Serif" font-size="11.00">display_name</text>
<polygon fill="none" stroke="black" points="394.5,-353.99 394.5,-375.99 503.5,-375.99 503.5,-353.99 394.5,-353.99"/>
<text text-anchor="start" x="397.5" y="-362.19" font-family="Helvetica,sans-Serif" font-size="11.00">text[2147483647]</text>
<polygon fill="none" stroke="black" points="184.5,-331.99 184.5,-353.99 394.5,-353.99 394.5,-331.99 184.5,-331.99"/>
<text text-anchor="start" x="204.5" y="-340.19" font-family="Helvetica,sans-Serif" font-size="11.00">external_name</text>
<polygon fill="none" stroke="black" points="394.5,-331.99 394.5,-353.99 503.5,-353.99 503.5,-331.99 394.5,-331.99"/>
<text text-anchor="start" x="397.5" y="-340.19" font-family="Helvetica,sans-Serif" font-size="11.00">text[2147483647]</text>
<polygon fill="none" stroke="black" points="184.5,-309.99 184.5,-331.99 394.5,-331.99 394.5,-309.99 184.5,-309.99"/>
<image xlink:href="../../images/foreignKeys.png" width="11px" height="12px" preserveAspectRatio="xMinYMin meet" x="189.5" y="-326.992"/>
<text text-anchor="start" x="204.5" y="-318.19" font-family="Helvetica,sans-Serif" font-size="11.00">enum_id</text>
<polygon fill="none" stroke="black" points="394.5,-309.99 394.5,-331.99 503.5,-331.99 503.5,-309.99 394.5,-309.99"/>
<text text-anchor="start" x="397.5" y="-318.19" font-family="Helvetica,sans-Serif" font-size="11.00">uuid[2147483647]</text>
<polygon fill="none" stroke="black" points="184.5,-287.99 184.5,-309.99 394.5,-309.99 394.5,-287.99 184.5,-287.99"/>
<text text-anchor="start" x="204.5" y="-296.19" font-family="Helvetica,sans-Serif" font-size="11.00">syst_description</text>
<polygon fill="none" stroke="black" points="394.5,-287.99 394.5,-309.99 503.5,-309.99 503.5,-287.99 394.5,-287.99"/>
<text text-anchor="start" x="397.5" y="-296.19" font-family="Helvetica,sans-Serif" font-size="11.00">text[2147483647]</text>
<polygon fill="none" stroke="black" points="184.5,-265.99 184.5,-287.99 394.5,-287.99 394.5,-265.99 184.5,-265.99"/>
<text text-anchor="start" x="204.5" y="-274.19" font-family="Helvetica,sans-Serif" font-size="11.00">user_description</text>
<polygon fill="none" stroke="black" points="394.5,-265.99 394.5,-287.99 503.5,-287.99 503.5,-265.99 394.5,-265.99"/>
<text text-anchor="start" x="397.5" y="-274.19" font-family="Helvetica,sans-Serif" font-size="11.00">text[2147483647]</text>
<polygon fill="none" stroke="black" points="184.5,-243.99 184.5,-265.99 394.5,-265.99 394.5,-243.99 184.5,-243.99"/>
<text text-anchor="start" x="204.5" y="-252.19" font-family="Helvetica,sans-Serif" font-size="11.00">diag_timestamp_created</text>
<polygon fill="none" stroke="black" points="394.5,-243.99 394.5,-265.99 503.5,-265.99 503.5,-243.99 394.5,-243.99"/>
<text text-anchor="start" x="397.5" y="-252.19" font-family="Helvetica,sans-Serif" font-size="11.00">timestamptz[35,6]</text>
<polygon fill="none" stroke="black" points="184.5,-221.99 184.5,-243.99 394.5,-243.99 394.5,-221.99 184.5,-221.99"/>
<text text-anchor="start" x="204.5" y="-230.19" font-family="Helvetica,sans-Serif" font-size="11.00">diag_role_created</text>
<polygon fill="none" stroke="black" points="394.5,-221.99 394.5,-243.99 503.5,-243.99 503.5,-221.99 394.5,-221.99"/>
<text text-anchor="start" x="397.5" y="-230.19" font-family="Helvetica,sans-Serif" font-size="11.00">text[2147483647]</text>
<polygon fill="none" stroke="black" points="184.5,-199.99 184.5,-221.99 394.5,-221.99 394.5,-199.99 184.5,-199.99"/>
<text text-anchor="start" x="204.5" y="-208.19" font-family="Helvetica,sans-Serif" font-size="11.00">diag_timestamp_modified</text>
<polygon fill="none" stroke="black" points="394.5,-199.99 394.5,-221.99 503.5,-221.99 503.5,-199.99 394.5,-199.99"/>
<text text-anchor="start" x="397.5" y="-208.19" font-family="Helvetica,sans-Serif" font-size="11.00">timestamptz[35,6]</text>
<polygon fill="none" stroke="black" points="184.5,-177.99 184.5,-199.99 394.5,-199.99 394.5,-177.99 184.5,-177.99"/>
<text text-anchor="start" x="204.5" y="-186.19" font-family="Helvetica,sans-Serif" font-size="11.00">diag_wallclock_modified</text>
<polygon fill="none" stroke="black" points="394.5,-177.99 394.5,-199.99 503.5,-199.99 503.5,-177.99 394.5,-177.99"/>
<text text-anchor="start" x="397.5" y="-186.19" font-family="Helvetica,sans-Serif" font-size="11.00">timestamptz[35,6]</text>
<polygon fill="none" stroke="black" points="184.5,-155.99 184.5,-177.99 394.5,-177.99 394.5,-155.99 184.5,-155.99"/>
<text text-anchor="start" x="204.5" y="-164.19" font-family="Helvetica,sans-Serif" font-size="11.00">diag_role_modified</text>
<polygon fill="none" stroke="black" points="394.5,-155.99 394.5,-177.99 503.5,-177.99 503.5,-155.99 394.5,-155.99"/>
<text text-anchor="start" x="397.5" y="-164.19" font-family="Helvetica,sans-Serif" font-size="11.00">text[2147483647]</text>
<polygon fill="none" stroke="black" points="184.5,-133.99 184.5,-155.99 394.5,-155.99 394.5,-133.99 184.5,-133.99"/>
<text text-anchor="start" x="204.5" y="-142.19" font-family="Helvetica,sans-Serif" font-size="11.00">diag_row_version</text>
<polygon fill="none" stroke="black" points="394.5,-133.99 394.5,-155.99 503.5,-155.99 503.5,-133.99 394.5,-133.99"/>
<text text-anchor="start" x="397.5" y="-142.19" font-family="Helvetica,sans-Serif" font-size="11.00">int8[19]</text>
<polygon fill="none" stroke="black" points="184.5,-111.99 184.5,-133.99 394.5,-133.99 394.5,-111.99 184.5,-111.99"/>
<text text-anchor="start" x="204.5" y="-120.19" font-family="Helvetica,sans-Serif" font-size="11.00">diag_update_count</text>
<polygon fill="none" stroke="black" points="394.5,-111.99 394.5,-133.99 503.5,-133.99 503.5,-111.99 394.5,-111.99"/>
<text text-anchor="start" x="397.5" y="-120.19" font-family="Helvetica,sans-Serif" font-size="11.00">int8[19]</text>
<polygon fill="#ffffff" stroke="transparent" points="184.5,-93.99 184.5,-111.99 295.5,-111.99 295.5,-93.99 184.5,-93.99"/>
<polygon fill="none" stroke="black" points="184.5,-93.99 184.5,-111.99 295.5,-111.99 295.5,-93.99 184.5,-93.99"/>
<text text-anchor="start" x="187.5" y="-100.19" font-family="Helvetica,sans-Serif" font-size="11.00">&lt; 1</text>
<polygon fill="#ffffff" stroke="transparent" points="295.5,-93.99 295.5,-111.99 394.5,-111.99 394.5,-93.99 295.5,-93.99"/>
<polygon fill="none" stroke="black" points="295.5,-93.99 295.5,-111.99 394.5,-111.99 394.5,-93.99 295.5,-93.99"/>
<text text-anchor="start" x="383.5" y="-100.19" font-family="Helvetica,sans-Serif" font-size="11.00"> &#160;</text>
<polygon fill="#ffffff" stroke="transparent" points="394.5,-93.99 394.5,-111.99 503.5,-111.99 503.5,-93.99 394.5,-93.99"/>
<polygon fill="none" stroke="black" points="394.5,-93.99 394.5,-111.99 503.5,-111.99 503.5,-93.99 394.5,-93.99"/>
<text text-anchor="start" x="480.5" y="-100.19" font-family="Helvetica,sans-Serif" font-size="11.00">1 &gt;</text>
<polygon fill="none" stroke="black" stroke-width="2" points="183,-92.99 183,-442.99 504,-442.99 504,-92.99 183,-92.99"/>
</a>
</g>
</g>
<!-- syst_enums -->
<g id="node2" class="node">
<title>syst_enums</title>
<g id="a_node2"><a xlink:href="../../tables/syst_enums.html" xlink:title="syst_enums" target="_top">
<polygon fill="#ffffff" stroke="transparent" points="8,-164.99 8,-222.99 133,-222.99 133,-164.99 8,-164.99"/>
<polygon fill="#f5f5f5" stroke="transparent" points="8.5,-200.99 8.5,-222.99 133.5,-222.99 133.5,-200.99 8.5,-200.99"/>
<polygon fill="none" stroke="black" points="8.5,-200.99 8.5,-222.99 133.5,-222.99 133.5,-200.99 8.5,-200.99"/>
<text text-anchor="start" x="13.5" y="-210.19" font-family="Helvetica,sans-Serif" font-weight="bold" font-size="11.00">syst_enums</text>
<text text-anchor="start" x="91.5" y="-209.19" font-family="Helvetica,sans-Serif" font-size="11.00">[table]</text>
<polygon fill="none" stroke="black" points="8.5,-182.99 8.5,-200.99 133.5,-200.99 133.5,-182.99 8.5,-182.99"/>
<text text-anchor="start" x="11.5" y="-189.19" font-family="Helvetica,sans-Serif" font-size="11.00">...</text>
<polygon fill="#ffffff" stroke="transparent" points="8.5,-164.99 8.5,-182.99 57.5,-182.99 57.5,-164.99 8.5,-164.99"/>
<polygon fill="none" stroke="black" points="8.5,-164.99 8.5,-182.99 57.5,-182.99 57.5,-164.99 8.5,-164.99"/>
<text text-anchor="start" x="11.5" y="-171.19" font-family="Helvetica,sans-Serif" font-size="11.00"> &#160;</text>
<polygon fill="#ffffff" stroke="transparent" points="57.5,-164.99 57.5,-182.99 89.5,-182.99 89.5,-164.99 57.5,-164.99"/>
<polygon fill="none" stroke="black" points="57.5,-164.99 57.5,-182.99 89.5,-182.99 89.5,-164.99 57.5,-164.99"/>
<text text-anchor="start" x="78.5" y="-171.19" font-family="Helvetica,sans-Serif" font-size="11.00"> &#160;</text>
<polygon fill="#ffffff" stroke="transparent" points="89.5,-164.99 89.5,-182.99 133.5,-182.99 133.5,-164.99 89.5,-164.99"/>
<polygon fill="none" stroke="black" points="89.5,-164.99 89.5,-182.99 133.5,-182.99 133.5,-164.99 89.5,-164.99"/>
<text text-anchor="start" x="110.5" y="-171.19" font-family="Helvetica,sans-Serif" font-size="11.00">2 &gt;</text>
</a>
</g>
</g>
<!-- syst_enum_functional_types&#45;&gt;syst_enums -->
<g id="edge1" class="edge">
<title>syst_enum_functional_types:w&#45;&gt;syst_enums:e</title>
<path fill="none" stroke="black" d="M169.03,-319.39C126.96,-309.95 98.7,-260.91 83.86,-227.03"/>
<polygon fill="black" stroke="black" points="175.55,-320.11 183.1,-324.57 179.52,-320.55 183.5,-320.99 183.5,-320.99 183.5,-320.99 179.52,-320.55 183.9,-317.41 175.55,-320.11 175.55,-320.11"/>
<ellipse fill="none" stroke="black" cx="172.37" cy="-319.76" rx="3.2" ry="3.2"/>
</g>
<!-- syst_enum_items -->
<g id="node3" class="node">
<title>syst_enum_items</title>
<g id="a_node3"><a xlink:href="../../tables/syst_enum_items.html" xlink:title="syst_enum_items" target="_top">
<polygon fill="#ffffff" stroke="transparent" points="554,-208.99 554,-266.99 716,-266.99 716,-208.99 554,-208.99"/>
<polygon fill="#f5f5f5" stroke="transparent" points="554,-244.99 554,-266.99 716,-266.99 716,-244.99 554,-244.99"/>
<polygon fill="none" stroke="black" points="554,-244.99 554,-266.99 716,-266.99 716,-244.99 554,-244.99"/>
<text text-anchor="start" x="559" y="-254.19" font-family="Helvetica,sans-Serif" font-weight="bold" font-size="11.00">syst_enum_items</text>
<text text-anchor="start" x="674" y="-253.19" font-family="Helvetica,sans-Serif" font-size="11.00">[table]</text>
<polygon fill="none" stroke="black" points="554,-226.99 554,-244.99 716,-244.99 716,-226.99 554,-226.99"/>
<text text-anchor="start" x="557" y="-233.19" font-family="Helvetica,sans-Serif" font-size="11.00">...</text>
<polygon fill="#ffffff" stroke="transparent" points="554,-208.99 554,-226.99 628,-226.99 628,-208.99 554,-208.99"/>
<polygon fill="none" stroke="black" points="554,-208.99 554,-226.99 628,-226.99 628,-208.99 554,-208.99"/>
<text text-anchor="start" x="557" y="-215.19" font-family="Helvetica,sans-Serif" font-size="11.00">&lt; 2</text>
<polygon fill="#ffffff" stroke="transparent" points="628,-208.99 628,-226.99 666,-226.99 666,-208.99 628,-208.99"/>
<polygon fill="none" stroke="black" points="628,-208.99 628,-226.99 666,-226.99 666,-208.99 628,-208.99"/>
<text text-anchor="start" x="655" y="-215.19" font-family="Helvetica,sans-Serif" font-size="11.00"> &#160;</text>
<polygon fill="#ffffff" stroke="transparent" points="666,-208.99 666,-226.99 716,-226.99 716,-208.99 666,-208.99"/>
<polygon fill="none" stroke="black" points="666,-208.99 666,-226.99 716,-226.99 716,-208.99 666,-208.99"/>
<text text-anchor="start" x="693" y="-215.19" font-family="Helvetica,sans-Serif" font-size="11.00">2 &gt;</text>
</a>
</g>
</g>
<!-- syst_enum_items&#45;&gt;syst_enum_functional_types -->
<g id="edge3" class="edge">
<title>syst_enum_items:w&#45;&gt;syst_enum_functional_types:e</title>
<path fill="none" stroke="black" d="M620.59,-285.29C603.01,-335.9 566.83,-408.99 504.5,-408.99"/>
<polygon fill="black" stroke="black" points="622.67,-278.97 628.59,-272.49 623.92,-275.17 625.17,-271.37 625.17,-271.37 625.17,-271.37 623.92,-275.17 621.75,-270.25 622.67,-278.97 622.67,-278.97"/>
<ellipse fill="none" stroke="black" cx="621.67" cy="-282.01" rx="3.2" ry="3.2"/>
</g>
<!-- syst_enum_items&#45;&gt;syst_enums -->
<g id="edge2" class="edge">
<title>syst_enum_items:w&#45;&gt;syst_enums:e</title>
<path fill="none" stroke="black" d="M612.97,-191.63C593.13,-154.1 559.48,-103.85 513,-80.99 377.8,-14.5 311.75,-19.96 174,-80.99 137.43,-97.19 108.34,-133.6 90.63,-160.73"/>
<polygon fill="black" stroke="black" points="616.04,-197.68 616.45,-206.44 617.85,-201.24 619.66,-204.81 619.66,-204.81 619.66,-204.81 617.85,-201.24 622.87,-203.18 616.04,-197.68 616.04,-197.68"/>
<ellipse fill="none" stroke="black" cx="614.59" cy="-194.82" rx="3.2" ry="3.2"/>
</g>
<!-- syst_hierarchies -->
<g id="node4" class="node">
<title>syst_hierarchies</title>
<g id="a_node4"><a xlink:href="../../tables/syst_hierarchies.html" xlink:title="syst_hierarchies" target="_top">
<polygon fill="#ffffff" stroke="transparent" points="765,-210.99 765,-268.99 921,-268.99 921,-210.99 765,-210.99"/>
<polygon fill="#f5f5f5" stroke="transparent" points="765,-246.99 765,-268.99 921,-268.99 921,-246.99 765,-246.99"/>
<polygon fill="none" stroke="black" points="765,-246.99 765,-268.99 921,-268.99 921,-246.99 765,-246.99"/>
<text text-anchor="start" x="770" y="-256.19" font-family="Helvetica,sans-Serif" font-weight="bold" font-size="11.00">syst_hierarchies</text>
<text text-anchor="start" x="879" y="-255.19" font-family="Helvetica,sans-Serif" font-size="11.00">[table]</text>
<polygon fill="none" stroke="black" points="765,-228.99 765,-246.99 921,-246.99 921,-228.99 765,-228.99"/>
<text text-anchor="start" x="768" y="-235.19" font-family="Helvetica,sans-Serif" font-size="11.00">...</text>
<polygon fill="#ffffff" stroke="transparent" points="765,-210.99 765,-228.99 836,-228.99 836,-210.99 765,-210.99"/>
<polygon fill="none" stroke="black" points="765,-210.99 765,-228.99 836,-228.99 836,-210.99 765,-210.99"/>
<text text-anchor="start" x="768" y="-217.19" font-family="Helvetica,sans-Serif" font-size="11.00">&lt; 2</text>
<polygon fill="#ffffff" stroke="transparent" points="836,-210.99 836,-228.99 872,-228.99 872,-210.99 836,-210.99"/>
<polygon fill="none" stroke="black" points="836,-210.99 836,-228.99 872,-228.99 872,-210.99 836,-210.99"/>
<text text-anchor="start" x="861" y="-217.19" font-family="Helvetica,sans-Serif" font-size="11.00"> &#160;</text>
<polygon fill="#ffffff" stroke="transparent" points="872,-210.99 872,-228.99 921,-228.99 921,-210.99 872,-210.99"/>
<polygon fill="none" stroke="black" points="872,-210.99 872,-228.99 921,-228.99 921,-210.99 872,-210.99"/>
<text text-anchor="start" x="898" y="-217.19" font-family="Helvetica,sans-Serif" font-size="11.00">1 &gt;</text>
</a>
</g>
</g>
<!-- syst_hierarchies&#45;&gt;syst_enum_items -->
<g id="edge4" class="edge">
<title>syst_hierarchies:w&#45;&gt;syst_enum_items:e</title>
<path fill="none" stroke="black" d="M749.56,-236.62C741.15,-235.9 732.59,-235.31 724.14,-234.84"/>
<polygon fill="black" stroke="black" points="756.04,-237.24 763.66,-241.58 760.02,-237.61 764,-237.99 764,-237.99 764,-237.99 760.02,-237.61 764.34,-234.41 756.04,-237.24 756.04,-237.24"/>
<ellipse fill="none" stroke="black" cx="752.85" cy="-236.93" rx="3.2" ry="3.2"/>
</g>
<!-- syst_hierarchies&#45;&gt;syst_enum_items -->
<g id="edge5" class="edge">
<title>syst_hierarchies:w&#45;&gt;syst_enum_items:e</title>
<path fill="none" stroke="black" d="M749.56,-239.59C741.15,-240.43 732.59,-241.12 724.14,-241.67"/>
<polygon fill="black" stroke="black" points="756.05,-238.87 764.4,-241.57 760.02,-238.43 764,-237.99 764,-237.99 764,-237.99 760.02,-238.43 763.6,-234.41 756.05,-238.87 756.05,-238.87"/>
<ellipse fill="none" stroke="black" cx="752.87" cy="-239.23" rx="3.2" ry="3.2"/>
</g>
</g>
</svg>
