<?xml version="1.0" encoding="UTF-8" standalone="no"?>
<!DOCTYPE svg PUBLIC "-//W3C//DTD SVG 1.1//EN"
 "http://www.w3.org/Graphics/SVG/1.1/DTD/svg11.dtd">
<!-- Generated by graphviz version 2.43.0 (0)
 -->
<!-- Title: twoDegreesRelationshipsDiagram Pages: 1 -->
<svg width="785pt" height="423pt"
 viewBox="0.00 0.00 785.00 423.00" xmlns="http://www.w3.org/2000/svg" xmlns:xlink="http://www.w3.org/1999/xlink">
<g id="graph0" class="graph" transform="scale(1 1) rotate(0) translate(4 419)">
<title>twoDegreesRelationshipsDiagram</title>
<polygon fill="#ffffff" stroke="transparent" points="-4,4 -4,-419 781,-419 781,4 -4,4"/>
<text text-anchor="middle" x="79.5" y="-7.2" font-family="Helvetica,sans-Serif" font-size="11.00">Generated by SchemaSpy</text>
<!-- syst_hierarchies -->
<g id="node1" class="node">
<title>syst_hierarchies</title>
<g id="a_node1"><a xlink:href="../../tables/syst_hierarchies.html" xlink:title="syst_hierarchies" target="_top">
<polygon fill="#ffffff" stroke="transparent" points="219,-153 219,-321 413,-321 413,-153 219,-153"/>
<polygon fill="#f5f5f5" stroke="transparent" points="219,-299 219,-321 413,-321 413,-299 219,-299"/>
<polygon fill="none" stroke="black" points="219,-299 219,-321 413,-321 413,-299 219,-299"/>
<text text-anchor="start" x="224" y="-308.2" font-family="Helvetica,sans-Serif" font-weight="bold" font-size="11.00">syst_hierarchies</text>
<text text-anchor="start" x="371" y="-307.2" font-family="Helvetica,sans-Serif" font-size="11.00">[table]</text>
<polygon fill="none" stroke="black" points="219,-277 219,-299 413,-299 413,-277 219,-277"/>
<image xlink:href="../../images/primaryKeys.png" width="11px" height="12px" preserveAspectRatio="xMinYMin meet" x="224" y="-294"/>
<text text-anchor="start" x="239" y="-285.2" font-family="Helvetica,sans-Serif" font-size="11.00">id</text>
<polygon fill="#ffffff" stroke="transparent" points="219,-255 219,-277 413,-277 413,-255 219,-255"/>
<polygon fill="none" stroke="black" points="219,-255 219,-277 413,-277 413,-255 219,-255"/>
<text text-anchor="start" x="239" y="-263.2" font-family="Helvetica,sans-Serif" font-size="11.00">internal_name</text>
<polygon fill="#ffffff" stroke="transparent" points="219,-233 219,-255 413,-255 413,-233 219,-233"/>
<polygon fill="none" stroke="black" points="219,-233 219,-255 413,-255 413,-233 219,-233"/>
<text text-anchor="start" x="239" y="-241.2" font-family="Helvetica,sans-Serif" font-size="11.00">display_name</text>
<polygon fill="none" stroke="black" points="219,-211 219,-233 413,-233 413,-211 219,-211"/>
<image xlink:href="../../images/foreignKeys.png" width="11px" height="12px" preserveAspectRatio="xMinYMin meet" x="224" y="-228"/>
<text text-anchor="start" x="239" y="-219.2" font-family="Helvetica,sans-Serif" font-size="11.00">hierarchy_type_id</text>
<polygon fill="none" stroke="black" points="219,-189 219,-211 413,-211 413,-189 219,-189"/>
<image xlink:href="../../images/foreignKeys.png" width="11px" height="12px" preserveAspectRatio="xMinYMin meet" x="224" y="-206"/>
<text text-anchor="start" x="239" y="-197.2" font-family="Helvetica,sans-Serif" font-size="11.00">hierarchy_state_id</text>
<polygon fill="none" stroke="black" points="219,-171 219,-189 413,-189 413,-171 219,-171"/>
<text text-anchor="start" x="222" y="-177.2" font-family="Helvetica,sans-Serif" font-size="11.00">...</text>
<polygon fill="#ffffff" stroke="transparent" points="219,-153 219,-171 309,-171 309,-153 219,-153"/>
<polygon fill="none" stroke="black" points="219,-153 219,-171 309,-171 309,-153 219,-153"/>
<text text-anchor="start" x="222" y="-159.2" font-family="Helvetica,sans-Serif" font-size="11.00">&lt; 2</text>
<polygon fill="#ffffff" stroke="transparent" points="309,-153 309,-171 355,-171 355,-153 309,-153"/>
<polygon fill="none" stroke="black" points="309,-153 309,-171 355,-171 355,-153 309,-153"/>
<text text-anchor="start" x="344" y="-159.2" font-family="Helvetica,sans-Serif" font-size="11.00"> &#160;</text>
<polygon fill="#ffffff" stroke="transparent" points="355,-153 355,-171 413,-171 413,-153 355,-153"/>
<polygon fill="none" stroke="black" points="355,-153 355,-171 413,-171 413,-153 355,-153"/>
<text text-anchor="start" x="390" y="-159.2" font-family="Helvetica,sans-Serif" font-size="11.00">1 &gt;</text>
</a>
</g>
</g>
<!-- syst_enum_items -->
<g id="node2" class="node">
<title>syst_enum_items</title>
<g id="a_node2"><a xlink:href="../../tables/syst_enum_items.html" xlink:title="syst_enum_items" target="_top">
<polygon fill="#ffffff" stroke="transparent" points="8,-184 8,-242 170,-242 170,-184 8,-184"/>
<polygon fill="#f5f5f5" stroke="transparent" points="8,-220 8,-242 170,-242 170,-220 8,-220"/>
<polygon fill="none" stroke="black" points="8,-220 8,-242 170,-242 170,-220 8,-220"/>
<text text-anchor="start" x="13" y="-229.2" font-family="Helvetica,sans-Serif" font-weight="bold" font-size="11.00">syst_enum_items</text>
<text text-anchor="start" x="128" y="-228.2" font-family="Helvetica,sans-Serif" font-size="11.00">[table]</text>
<polygon fill="none" stroke="black" points="8,-202 8,-220 170,-220 170,-202 8,-202"/>
<text text-anchor="start" x="11" y="-208.2" font-family="Helvetica,sans-Serif" font-size="11.00">...</text>
<polygon fill="#ffffff" stroke="transparent" points="8,-184 8,-202 82,-202 82,-184 8,-184"/>
<polygon fill="none" stroke="black" points="8,-184 8,-202 82,-202 82,-184 8,-184"/>
<text text-anchor="start" x="11" y="-190.2" font-family="Helvetica,sans-Serif" font-size="11.00">&lt; 2</text>
<polygon fill="#ffffff" stroke="transparent" points="82,-184 82,-202 120,-202 120,-184 82,-184"/>
<polygon fill="none" stroke="black" points="82,-184 82,-202 120,-202 120,-184 82,-184"/>
<text text-anchor="start" x="109" y="-190.2" font-family="Helvetica,sans-Serif" font-size="11.00"> &#160;</text>
<polygon fill="#ffffff" stroke="transparent" points="120,-184 120,-202 170,-202 170,-184 120,-184"/>
<polygon fill="none" stroke="black" points="120,-184 120,-202 170,-202 170,-184 120,-184"/>
<text text-anchor="start" x="147" y="-190.2" font-family="Helvetica,sans-Serif" font-size="11.00">2 &gt;</text>
</a>
</g>
</g>
<!-- syst_hierarchies&#45;&gt;syst_enum_items -->
<g id="edge1" class="edge">
<title>syst_hierarchies:w&#45;&gt;syst_enum_items:e</title>
<path fill="none" stroke="black" d="M203.59,-202.02C193.01,-205.19 186.59,-211 171,-211"/>
<polygon fill="black" stroke="black" points="210.08,-201.11 218.5,-203.57 214.04,-200.55 218,-200 218,-200 218,-200 214.04,-200.55 217.5,-196.43 210.08,-201.11 210.08,-201.11"/>
<ellipse fill="none" stroke="black" cx="206.91" cy="-201.55" rx="3.2" ry="3.2"/>
</g>
<!-- syst_hierarchies&#45;&gt;syst_enum_items -->
<g id="edge2" class="edge">
<title>syst_hierarchies:w&#45;&gt;syst_enum_items:e</title>
<path fill="none" stroke="black" d="M203.59,-219.98C193.01,-216.81 186.59,-211 171,-211"/>
<polygon fill="black" stroke="black" points="210.08,-220.89 217.5,-225.57 214.04,-221.45 218,-222 218,-222 218,-222 214.04,-221.45 218.5,-218.43 210.08,-220.89 210.08,-220.89"/>
<ellipse fill="none" stroke="black" cx="206.91" cy="-220.45" rx="3.2" ry="3.2"/>
</g>
<!-- syst_hierarchy_items -->
<g id="node3" class="node">
<title>syst_hierarchy_items</title>
<g id="a_node3"><a xlink:href="../../tables/syst_hierarchy_items.html" xlink:title="syst_hierarchy_items" target="_top">
<polygon fill="#ffffff" stroke="transparent" points="462,-37 462,-411 769,-411 769,-37 462,-37"/>
<polygon fill="#f5f5f5" stroke="transparent" points="464.5,-387 464.5,-409 767.5,-409 767.5,-387 464.5,-387"/>
<polygon fill="none" stroke="black" points="464.5,-387 464.5,-409 767.5,-409 767.5,-387 464.5,-387"/>
<text text-anchor="start" x="469.5" y="-396.2" font-family="Helvetica,sans-Serif" font-weight="bold" font-size="11.00">syst_hierarchy_items</text>
<text text-anchor="start" x="725.5" y="-395.2" font-family="Helvetica,sans-Serif" font-size="11.00">[table]</text>
<polygon fill="none" stroke="black" points="464.5,-365 464.5,-387 658.5,-387 658.5,-365 464.5,-365"/>
<image xlink:href="../../images/primaryKeys.png" width="11px" height="12px" preserveAspectRatio="xMinYMin meet" x="469.5" y="-382"/>
<text text-anchor="start" x="484.5" y="-373.2" font-family="Helvetica,sans-Serif" font-size="11.00">id</text>
<polygon fill="none" stroke="black" points="658.5,-365 658.5,-387 767.5,-387 767.5,-365 658.5,-365"/>
<text text-anchor="start" x="661.5" y="-373.2" font-family="Helvetica,sans-Serif" font-size="11.00">uuid[2147483647]</text>
<polygon fill="#ffffff" stroke="transparent" points="464.5,-343 464.5,-365 658.5,-365 658.5,-343 464.5,-343"/>
<polygon fill="none" stroke="black" points="464.5,-343 464.5,-365 658.5,-365 658.5,-343 464.5,-343"/>
<text text-anchor="start" x="484.5" y="-351.2" font-family="Helvetica,sans-Serif" font-size="11.00">internal_name</text>
<polygon fill="none" stroke="black" points="658.5,-343 658.5,-365 767.5,-365 767.5,-343 658.5,-343"/>
<text text-anchor="start" x="661.5" y="-351.2" font-family="Helvetica,sans-Serif" font-size="11.00">text[2147483647]</text>
<polygon fill="#ffffff" stroke="transparent" points="464.5,-321 464.5,-343 658.5,-343 658.5,-321 464.5,-321"/>
<polygon fill="none" stroke="black" points="464.5,-321 464.5,-343 658.5,-343 658.5,-321 464.5,-321"/>
<text text-anchor="start" x="484.5" y="-329.2" font-family="Helvetica,sans-Serif" font-size="11.00">display_name</text>
<polygon fill="none" stroke="black" points="658.5,-321 658.5,-343 767.5,-343 767.5,-321 658.5,-321"/>
<text text-anchor="start" x="661.5" y="-329.2" font-family="Helvetica,sans-Serif" font-size="11.00">text[2147483647]</text>
<polygon fill="none" stroke="black" points="464.5,-299 464.5,-321 658.5,-321 658.5,-299 464.5,-299"/>
<text text-anchor="start" x="484.5" y="-307.2" font-family="Helvetica,sans-Serif" font-size="11.00">external_name</text>
<polygon fill="none" stroke="black" points="658.5,-299 658.5,-321 767.5,-321 767.5,-299 658.5,-299"/>
<text text-anchor="start" x="661.5" y="-307.2" font-family="Helvetica,sans-Serif" font-size="11.00">text[2147483647]</text>
<polygon fill="#ffffff" stroke="transparent" points="464.5,-277 464.5,-299 658.5,-299 658.5,-277 464.5,-277"/>
<polygon fill="none" stroke="black" points="464.5,-277 464.5,-299 658.5,-299 658.5,-277 464.5,-277"/>
<image xlink:href="../../images/foreignKeys.png" width="11px" height="12px" preserveAspectRatio="xMinYMin meet" x="469.5" y="-294"/>
<text text-anchor="start" x="484.5" y="-285.2" font-family="Helvetica,sans-Serif" font-size="11.00">hierarchy_id</text>
<polygon fill="none" stroke="black" points="658.5,-277 658.5,-299 767.5,-299 767.5,-277 658.5,-277"/>
<text text-anchor="start" x="661.5" y="-285.2" font-family="Helvetica,sans-Serif" font-size="11.00">uuid[2147483647]</text>
<polygon fill="#ffffff" stroke="transparent" points="464.5,-255 464.5,-277 658.5,-277 658.5,-255 464.5,-255"/>
<polygon fill="none" stroke="black" points="464.5,-255 464.5,-277 658.5,-277 658.5,-255 464.5,-255"/>
<text text-anchor="start" x="484.5" y="-263.2" font-family="Helvetica,sans-Serif" font-size="11.00">hierarchy_depth</text>
<polygon fill="none" stroke="black" points="658.5,-255 658.5,-277 767.5,-277 767.5,-255 658.5,-255"/>
<text text-anchor="start" x="661.5" y="-263.2" font-family="Helvetica,sans-Serif" font-size="11.00">int2[5]</text>
<polygon fill="none" stroke="black" points="464.5,-233 464.5,-255 658.5,-255 658.5,-233 464.5,-233"/>
<text text-anchor="start" x="484.5" y="-241.2" font-family="Helvetica,sans-Serif" font-size="11.00">required</text>
<polygon fill="none" stroke="black" points="658.5,-233 658.5,-255 767.5,-255 767.5,-233 658.5,-233"/>
<text text-anchor="start" x="661.5" y="-241.2" font-family="Helvetica,sans-Serif" font-size="11.00">bool[1]</text>
<polygon fill="none" stroke="black" points="464.5,-211 464.5,-233 658.5,-233 658.5,-211 464.5,-211"/>
<text text-anchor="start" x="484.5" y="-219.2" font-family="Helvetica,sans-Serif" font-size="11.00">allow_leaf_nodes</text>
<polygon fill="none" stroke="black" points="658.5,-211 658.5,-233 767.5,-233 767.5,-211 658.5,-211"/>
<text text-anchor="start" x="661.5" y="-219.2" font-family="Helvetica,sans-Serif" font-size="11.00">bool[1]</text>
<polygon fill="none" stroke="black" points="464.5,-189 464.5,-211 658.5,-211 658.5,-189 464.5,-189"/>
<text text-anchor="start" x="484.5" y="-197.2" font-family="Helvetica,sans-Serif" font-size="11.00">diag_timestamp_created</text>
<polygon fill="none" stroke="black" points="658.5,-189 658.5,-211 767.5,-211 767.5,-189 658.5,-189"/>
<text text-anchor="start" x="661.5" y="-197.2" font-family="Helvetica,sans-Serif" font-size="11.00">timestamptz[35,6]</text>
<polygon fill="none" stroke="black" points="464.5,-167 464.5,-189 658.5,-189 658.5,-167 464.5,-167"/>
<text text-anchor="start" x="484.5" y="-175.2" font-family="Helvetica,sans-Serif" font-size="11.00">diag_role_created</text>
<polygon fill="none" stroke="black" points="658.5,-167 658.5,-189 767.5,-189 767.5,-167 658.5,-167"/>
<text text-anchor="start" x="661.5" y="-175.2" font-family="Helvetica,sans-Serif" font-size="11.00">text[2147483647]</text>
<polygon fill="none" stroke="black" points="464.5,-145 464.5,-167 658.5,-167 658.5,-145 464.5,-145"/>
<text text-anchor="start" x="484.5" y="-153.2" font-family="Helvetica,sans-Serif" font-size="11.00">diag_timestamp_modified</text>
<polygon fill="none" stroke="black" points="658.5,-145 658.5,-167 767.5,-167 767.5,-145 658.5,-145"/>
<text text-anchor="start" x="661.5" y="-153.2" font-family="Helvetica,sans-Serif" font-size="11.00">timestamptz[35,6]</text>
<polygon fill="none" stroke="black" points="464.5,-123 464.5,-145 658.5,-145 658.5,-123 464.5,-123"/>
<text text-anchor="start" x="484.5" y="-131.2" font-family="Helvetica,sans-Serif" font-size="11.00">diag_wallclock_modified</text>
<polygon fill="none" stroke="black" points="658.5,-123 658.5,-145 767.5,-145 767.5,-123 658.5,-123"/>
<text text-anchor="start" x="661.5" y="-131.2" font-family="Helvetica,sans-Serif" font-size="11.00">timestamptz[35,6]</text>
<polygon fill="none" stroke="black" points="464.5,-101 464.5,-123 658.5,-123 658.5,-101 464.5,-101"/>
<text text-anchor="start" x="484.5" y="-109.2" font-family="Helvetica,sans-Serif" font-size="11.00">diag_role_modified</text>
<polygon fill="none" stroke="black" points="658.5,-101 658.5,-123 767.5,-123 767.5,-101 658.5,-101"/>
<text text-anchor="start" x="661.5" y="-109.2" font-family="Helvetica,sans-Serif" font-size="11.00">text[2147483647]</text>
<polygon fill="none" stroke="black" points="464.5,-79 464.5,-101 658.5,-101 658.5,-79 464.5,-79"/>
<text text-anchor="start" x="484.5" y="-87.2" font-family="Helvetica,sans-Serif" font-size="11.00">diag_row_version</text>
<polygon fill="none" stroke="black" points="658.5,-79 658.5,-101 767.5,-101 767.5,-79 658.5,-79"/>
<text text-anchor="start" x="661.5" y="-87.2" font-family="Helvetica,sans-Serif" font-size="11.00">int8[19]</text>
<polygon fill="none" stroke="black" points="464.5,-57 464.5,-79 658.5,-79 658.5,-57 464.5,-57"/>
<text text-anchor="start" x="484.5" y="-65.2" font-family="Helvetica,sans-Serif" font-size="11.00">diag_update_count</text>
<polygon fill="none" stroke="black" points="658.5,-57 658.5,-79 767.5,-79 767.5,-57 658.5,-57"/>
<text text-anchor="start" x="661.5" y="-65.2" font-family="Helvetica,sans-Serif" font-size="11.00">int8[19]</text>
<polygon fill="#ffffff" stroke="transparent" points="464.5,-39 464.5,-57 567.5,-57 567.5,-39 464.5,-39"/>
<polygon fill="none" stroke="black" points="464.5,-39 464.5,-57 567.5,-57 567.5,-39 464.5,-39"/>
<text text-anchor="start" x="467.5" y="-45.2" font-family="Helvetica,sans-Serif" font-size="11.00">&lt; 1</text>
<polygon fill="#ffffff" stroke="transparent" points="567.5,-39 567.5,-57 658.5,-57 658.5,-39 567.5,-39"/>
<polygon fill="none" stroke="black" points="567.5,-39 567.5,-57 658.5,-57 658.5,-39 567.5,-39"/>
<text text-anchor="start" x="647.5" y="-45.2" font-family="Helvetica,sans-Serif" font-size="11.00"> &#160;</text>
<polygon fill="#ffffff" stroke="transparent" points="658.5,-39 658.5,-57 767.5,-57 767.5,-39 658.5,-39"/>
<polygon fill="none" stroke="black" points="658.5,-39 658.5,-57 767.5,-57 767.5,-39 658.5,-39"/>
<text text-anchor="start" x="744.5" y="-45.2" font-family="Helvetica,sans-Serif" font-size="11.00">0 &gt;</text>
<polygon fill="none" stroke="black" stroke-width="2" points="463,-38 463,-410 768,-410 768,-38 463,-38"/>
</a>
</g>
</g>
<!-- syst_hierarchy_items&#45;&gt;syst_hierarchies -->
<g id="edge3" class="edge">
<title>syst_hierarchy_items:w&#45;&gt;syst_hierarchies:e</title>
<path fill="none" stroke="black" d="M448.84,-288C437.41,-288 430.16,-288 414,-288"/>
<polygon fill="black" stroke="black" points="455.5,-288 463.5,-291.6 459.5,-288 463.5,-288 463.5,-288 463.5,-288 459.5,-288 463.5,-284.4 455.5,-288 455.5,-288"/>
<ellipse fill="none" stroke="black" cx="452.3" cy="-288" rx="3.2" ry="3.2"/>
</g>
</g>
</svg>
