<?xml version="1.0" encoding="UTF-8" standalone="no"?>
<!DOCTYPE svg PUBLIC "-//W3C//DTD SVG 1.1//EN"
 "http://www.w3.org/Graphics/SVG/1.1/DTD/svg11.dtd">
<!-- Generated by graphviz version 2.43.0 (0)
 -->
<!-- Title: oneDegreeRelationshipsDiagram Pages: 1 -->
<svg width="320pt" height="317pt"
 viewBox="0.00 0.00 320.00 317.00" xmlns="http://www.w3.org/2000/svg" xmlns:xlink="http://www.w3.org/1999/xlink">
<g id="graph0" class="graph" transform="scale(1 1) rotate(0) translate(4 313)">
<title>oneDegreeRelationshipsDiagram</title>
<polygon fill="#ffffff" stroke="transparent" points="-4,4 -4,-313 316,-313 316,4 -4,4"/>
<text text-anchor="middle" x="71.5" y="-7.2" font-family="Helvetica,sans-Serif" font-size="11.00">Generated by SchemaSpy</text>
<!-- syst_sessions -->
<g id="node1" class="node">
<title>syst_sessions</title>
<g id="a_node1"><a xlink:href="../../tables/syst_sessions.html" xlink:title="syst_sessions" target="_top">
<polygon fill="#ffffff" stroke="transparent" points="8,-37 8,-305 304,-305 304,-37 8,-37"/>
<polygon fill="#f5f5f5" stroke="transparent" points="10,-281 10,-303 302,-303 302,-281 10,-281"/>
<polygon fill="none" stroke="black" points="10,-281 10,-303 302,-303 302,-281 10,-281"/>
<text text-anchor="start" x="15" y="-290.2" font-family="Helvetica,sans-Serif" font-weight="bold" font-size="11.00">syst_sessions</text>
<text text-anchor="start" x="269" y="-289.2" font-family="Helvetica,sans-Serif" font-size="11.00">[view]</text>
<polygon fill="none" stroke="black" points="10,-259 10,-281 204,-281 204,-259 10,-259"/>
<text text-anchor="start" x="30" y="-267.2" font-family="Helvetica,sans-Serif" font-size="11.00">id</text>
<polygon fill="none" stroke="black" points="204,-259 204,-281 302,-281 302,-259 204,-259"/>
<text text-anchor="start" x="207" y="-267.2" font-family="Helvetica,sans-Serif" font-size="11.00">uuid[2147483647]</text>
<polygon fill="none" stroke="black" points="10,-237 10,-259 204,-259 204,-237 10,-237"/>
<text text-anchor="start" x="30" y="-245.2" font-family="Helvetica,sans-Serif" font-size="11.00">internal_name</text>
<polygon fill="none" stroke="black" points="204,-237 204,-259 302,-259 302,-237 204,-237"/>
<text text-anchor="start" x="207" y="-245.2" font-family="Helvetica,sans-Serif" font-size="11.00">text[2147483647]</text>
<polygon fill="none" stroke="black" points="10,-215 10,-237 204,-237 204,-215 10,-215"/>
<text text-anchor="start" x="30" y="-223.2" font-family="Helvetica,sans-Serif" font-size="11.00">session_data</text>
<polygon fill="none" stroke="black" points="204,-215 204,-237 302,-237 302,-215 204,-215"/>
<text text-anchor="start" x="207" y="-223.2" font-family="Helvetica,sans-Serif" font-size="11.00">jsonb[2147483647]</text>
<polygon fill="none" stroke="black" points="10,-193 10,-215 204,-215 204,-193 10,-193"/>
<text text-anchor="start" x="30" y="-201.2" font-family="Helvetica,sans-Serif" font-size="11.00">session_expires</text>
<polygon fill="none" stroke="black" points="204,-193 204,-215 302,-215 302,-193 204,-193"/>
<text text-anchor="start" x="207" y="-201.2" font-family="Helvetica,sans-Serif" font-size="11.00">timestamptz[35,6]</text>
<polygon fill="none" stroke="black" points="10,-171 10,-193 204,-193 204,-171 10,-171"/>
<text text-anchor="start" x="30" y="-179.2" font-family="Helvetica,sans-Serif" font-size="11.00">diag_timestamp_created</text>
<polygon fill="none" stroke="black" points="204,-171 204,-193 302,-193 302,-171 204,-171"/>
<text text-anchor="start" x="207" y="-179.2" font-family="Helvetica,sans-Serif" font-size="11.00">timestamptz[35,6]</text>
<polygon fill="none" stroke="black" points="10,-149 10,-171 204,-171 204,-149 10,-149"/>
<text text-anchor="start" x="30" y="-157.2" font-family="Helvetica,sans-Serif" font-size="11.00">diag_role_created</text>
<polygon fill="none" stroke="black" points="204,-149 204,-171 302,-171 302,-149 204,-149"/>
<text text-anchor="start" x="207" y="-157.2" font-family="Helvetica,sans-Serif" font-size="11.00">text[2147483647]</text>
<polygon fill="none" stroke="black" points="10,-127 10,-149 204,-149 204,-127 10,-127"/>
<text text-anchor="start" x="30" y="-135.2" font-family="Helvetica,sans-Serif" font-size="11.00">diag_timestamp_modified</text>
<polygon fill="none" stroke="black" points="204,-127 204,-149 302,-149 302,-127 204,-127"/>
<text text-anchor="start" x="207" y="-135.2" font-family="Helvetica,sans-Serif" font-size="11.00">timestamptz[35,6]</text>
<polygon fill="none" stroke="black" points="10,-105 10,-127 204,-127 204,-105 10,-105"/>
<text text-anchor="start" x="30" y="-113.2" font-family="Helvetica,sans-Serif" font-size="11.00">diag_wallclock_modified</text>
<polygon fill="none" stroke="black" points="204,-105 204,-127 302,-127 302,-105 204,-105"/>
<text text-anchor="start" x="207" y="-113.2" font-family="Helvetica,sans-Serif" font-size="11.00">timestamptz[35,6]</text>
<polygon fill="none" stroke="black" points="10,-83 10,-105 204,-105 204,-83 10,-83"/>
<text text-anchor="start" x="30" y="-91.2" font-family="Helvetica,sans-Serif" font-size="11.00">diag_role_modified</text>
<polygon fill="none" stroke="black" points="204,-83 204,-105 302,-105 302,-83 204,-83"/>
<text text-anchor="start" x="207" y="-91.2" font-family="Helvetica,sans-Serif" font-size="11.00">text[2147483647]</text>
<polygon fill="none" stroke="black" points="10,-61 10,-83 204,-83 204,-61 10,-61"/>
<text text-anchor="start" x="30" y="-69.2" font-family="Helvetica,sans-Serif" font-size="11.00">diag_row_version</text>
<polygon fill="none" stroke="black" points="204,-61 204,-83 302,-83 302,-61 204,-61"/>
<text text-anchor="start" x="207" y="-69.2" font-family="Helvetica,sans-Serif" font-size="11.00">int8[19]</text>
<polygon fill="none" stroke="black" points="10,-39 10,-61 204,-61 204,-39 10,-39"/>
<text text-anchor="start" x="30" y="-47.2" font-family="Helvetica,sans-Serif" font-size="11.00">diag_update_count</text>
<polygon fill="none" stroke="black" points="204,-39 204,-61 302,-61 302,-39 204,-39"/>
<text text-anchor="start" x="207" y="-47.2" font-family="Helvetica,sans-Serif" font-size="11.00">int8[19]</text>
<polygon fill="none" stroke="black" stroke-width="2" points="9,-38 9,-304 303,-304 303,-38 9,-38"/>
</a>
</g>
</g>
</g>
</svg>
