<?xml version="1.0" encoding="UTF-8" standalone="no"?>
<!DOCTYPE svg PUBLIC "-//W3C//DTD SVG 1.1//EN"
 "http://www.w3.org/Graphics/SVG/1.1/DTD/svg11.dtd">
<!-- Generated by graphviz version 2.43.0 (0)
 -->
<!-- Title: twoDegreesRelationshipsDiagram Pages: 1 -->
<svg width="1067pt" height="581pt"
 viewBox="0.00 0.00 1067.00 581.00" xmlns="http://www.w3.org/2000/svg" xmlns:xlink="http://www.w3.org/1999/xlink">
<g id="graph0" class="graph" transform="scale(1 1) rotate(0) translate(4 577)">
<title>twoDegreesRelationshipsDiagram</title>
<polygon fill="#ffffff" stroke="transparent" points="-4,4 -4,-577 1063,-577 1063,4 -4,4"/>
<text text-anchor="middle" x="71.5" y="-7.2" font-family="Helvetica,sans-Serif" font-size="11.00">Generated by SchemaSpy</text>
<!-- ms_appl_data.mstr_contacts -->
<g id="node1" class="node">
<title>ms_appl_data.mstr_contacts</title>
<g id="a_node1"><a xlink:href="../../../ms_appl_data/tables/mstr_contacts.html" xlink:title="ms_appl_data.mstr_contacts" target="_top">
<polygon fill="#ffffff" stroke="transparent" points="777.5,-511 777.5,-569 1008.5,-569 1008.5,-511 777.5,-511"/>
<polygon fill="#f5f5f5" stroke="transparent" points="778,-547 778,-569 1009,-569 1009,-547 778,-547"/>
<polygon fill="none" stroke="black" points="778,-547 778,-569 1009,-569 1009,-547 778,-547"/>
<text text-anchor="start" x="783" y="-556.2" font-family="Helvetica,sans-Serif" font-weight="bold" font-size="11.00">ms_appl_data.mstr_contacts</text>
<text text-anchor="start" x="974" y="-555.2" font-family="Helvetica,sans-Serif" font-size="11.00">[table]</text>
<polygon fill="none" stroke="black" points="778,-529 778,-547 1009,-547 1009,-529 778,-529"/>
<text text-anchor="start" x="781" y="-535.2" font-family="Helvetica,sans-Serif" font-size="11.00">...</text>
<polygon fill="#ffffff" stroke="transparent" points="778,-511 778,-529 891,-529 891,-511 778,-511"/>
<polygon fill="none" stroke="black" points="778,-511 778,-529 891,-529 891,-511 778,-511"/>
<text text-anchor="start" x="781" y="-517.2" font-family="Helvetica,sans-Serif" font-size="11.00">&lt; 2</text>
<polygon fill="#ffffff" stroke="transparent" points="891,-511 891,-529 950,-529 950,-511 891,-511"/>
<polygon fill="none" stroke="black" points="891,-511 891,-529 950,-529 950,-511 891,-511"/>
<text text-anchor="start" x="940" y="-517.2" font-family="Helvetica,sans-Serif" font-size="11.00"> &#160;</text>
<polygon fill="#ffffff" stroke="transparent" points="950,-511 950,-529 1009,-529 1009,-511 950,-511"/>
<polygon fill="none" stroke="black" points="950,-511 950,-529 1009,-529 1009,-511 950,-511"/>
<text text-anchor="start" x="999" y="-517.2" font-family="Helvetica,sans-Serif" font-size="11.00"> &#160;</text>
</a>
</g>
</g>
<!-- syst_enum_items -->
<g id="node2" class="node">
<title>syst_enum_items</title>
<g id="a_node2"><a xlink:href="../../tables/syst_enum_items.html" xlink:title="syst_enum_items" target="_top">
<polygon fill="#ffffff" stroke="transparent" points="531,-232 531,-290 686,-290 686,-232 531,-232"/>
<polygon fill="#f5f5f5" stroke="transparent" points="531.5,-268 531.5,-290 686.5,-290 686.5,-268 531.5,-268"/>
<polygon fill="none" stroke="black" points="531.5,-268 531.5,-290 686.5,-290 686.5,-268 531.5,-268"/>
<text text-anchor="start" x="536.5" y="-277.2" font-family="Helvetica,sans-Serif" font-weight="bold" font-size="11.00">syst_enum_items</text>
<text text-anchor="start" x="651.5" y="-276.2" font-family="Helvetica,sans-Serif" font-size="11.00">[table]</text>
<polygon fill="none" stroke="black" points="531.5,-250 531.5,-268 686.5,-268 686.5,-250 531.5,-250"/>
<text text-anchor="start" x="534.5" y="-256.2" font-family="Helvetica,sans-Serif" font-size="11.00">...</text>
<polygon fill="#ffffff" stroke="transparent" points="531.5,-232 531.5,-250 599.5,-250 599.5,-232 531.5,-232"/>
<polygon fill="none" stroke="black" points="531.5,-232 531.5,-250 599.5,-250 599.5,-232 531.5,-232"/>
<text text-anchor="start" x="534.5" y="-238.2" font-family="Helvetica,sans-Serif" font-size="11.00">&lt; 2</text>
<polygon fill="#ffffff" stroke="transparent" points="599.5,-232 599.5,-250 635.5,-250 635.5,-232 599.5,-232"/>
<polygon fill="none" stroke="black" points="599.5,-232 599.5,-250 635.5,-250 635.5,-232 599.5,-232"/>
<text text-anchor="start" x="625.5" y="-238.2" font-family="Helvetica,sans-Serif" font-size="11.00"> &#160;</text>
<polygon fill="#ffffff" stroke="transparent" points="635.5,-232 635.5,-250 686.5,-250 686.5,-232 635.5,-232"/>
<polygon fill="none" stroke="black" points="635.5,-232 635.5,-250 686.5,-250 686.5,-232 635.5,-232"/>
<text text-anchor="start" x="661.5" y="-238.2" font-family="Helvetica,sans-Serif" font-size="11.00">12 &gt;</text>
</a>
</g>
</g>
<!-- ms_appl_data.mstr_contacts&#45;&gt;syst_enum_items -->
<g id="edge1" class="edge">
<title>ms_appl_data.mstr_contacts:w&#45;&gt;syst_enum_items:e</title>
<path fill="none" stroke="black" d="M762.44,-536.42C662.25,-518.57 625.84,-363.35 614.26,-294.06"/>
<polygon fill="black" stroke="black" points="769.05,-537.14 776.61,-541.58 773.02,-537.57 777,-538 777,-538 777,-538 773.02,-537.57 777.39,-534.42 769.05,-537.14 769.05,-537.14"/>
<ellipse fill="none" stroke="black" cx="765.87" cy="-536.79" rx="3.2" ry="3.2"/>
</g>
<!-- ms_appl_data.mstr_contacts&#45;&gt;syst_enum_items -->
<g id="edge2" class="edge">
<title>ms_appl_data.mstr_contacts:w&#45;&gt;syst_enum_items:e</title>
<path fill="none" stroke="black" d="M762.32,-537.71C659.04,-528.41 623.59,-365.53 613.23,-294.04"/>
<polygon fill="black" stroke="black" points="769,-537.84 776.93,-541.6 773,-537.92 777,-538 777,-538 777,-538 773,-537.92 777.07,-534.4 769,-537.84 769,-537.84"/>
<ellipse fill="none" stroke="black" cx="765.8" cy="-537.78" rx="3.2" ry="3.2"/>
</g>
<!-- syst_enum_functional_types -->
<g id="node8" class="node">
<title>syst_enum_functional_types</title>
<g id="a_node8"><a xlink:href="../../tables/syst_enum_functional_types.html" xlink:title="syst_enum_functional_types" target="_top">
<polygon fill="#ffffff" stroke="transparent" points="175,-115 175,-467 482,-467 482,-115 175,-115"/>
<polygon fill="#f5f5f5" stroke="transparent" points="177.5,-443 177.5,-465 480.5,-465 480.5,-443 177.5,-443"/>
<polygon fill="none" stroke="black" points="177.5,-443 177.5,-465 480.5,-465 480.5,-443 177.5,-443"/>
<text text-anchor="start" x="182.5" y="-452.2" font-family="Helvetica,sans-Serif" font-weight="bold" font-size="11.00">syst_enum_functional_types</text>
<text text-anchor="start" x="445.5" y="-451.2" font-family="Helvetica,sans-Serif" font-size="11.00">[table]</text>
<polygon fill="none" stroke="black" points="177.5,-421 177.5,-443 387.5,-443 387.5,-421 177.5,-421"/>
<image xlink:href="../../images/primaryKeys.png" width="11px" height="12px" preserveAspectRatio="xMinYMin meet" x="182.5" y="-438"/>
<text text-anchor="start" x="197.5" y="-429.2" font-family="Helvetica,sans-Serif" font-size="11.00">id</text>
<polygon fill="none" stroke="black" points="387.5,-421 387.5,-443 480.5,-443 480.5,-421 387.5,-421"/>
<text text-anchor="start" x="390.5" y="-429.2" font-family="Helvetica,sans-Serif" font-size="11.00">uuid[2147483647]</text>
<polygon fill="#ffffff" stroke="transparent" points="177.5,-399 177.5,-421 387.5,-421 387.5,-399 177.5,-399"/>
<polygon fill="none" stroke="black" points="177.5,-399 177.5,-421 387.5,-421 387.5,-399 177.5,-399"/>
<text text-anchor="start" x="197.5" y="-407.2" font-family="Helvetica,sans-Serif" font-size="11.00">internal_name</text>
<polygon fill="none" stroke="black" points="387.5,-399 387.5,-421 480.5,-421 480.5,-399 387.5,-399"/>
<text text-anchor="start" x="390.5" y="-407.2" font-family="Helvetica,sans-Serif" font-size="11.00">text[2147483647]</text>
<polygon fill="#ffffff" stroke="transparent" points="177.5,-377 177.5,-399 387.5,-399 387.5,-377 177.5,-377"/>
<polygon fill="none" stroke="black" points="177.5,-377 177.5,-399 387.5,-399 387.5,-377 177.5,-377"/>
<text text-anchor="start" x="197.5" y="-385.2" font-family="Helvetica,sans-Serif" font-size="11.00">display_name</text>
<polygon fill="none" stroke="black" points="387.5,-377 387.5,-399 480.5,-399 480.5,-377 387.5,-377"/>
<text text-anchor="start" x="390.5" y="-385.2" font-family="Helvetica,sans-Serif" font-size="11.00">text[2147483647]</text>
<polygon fill="none" stroke="black" points="177.5,-355 177.5,-377 387.5,-377 387.5,-355 177.5,-355"/>
<text text-anchor="start" x="197.5" y="-363.2" font-family="Helvetica,sans-Serif" font-size="11.00">external_name</text>
<polygon fill="none" stroke="black" points="387.5,-355 387.5,-377 480.5,-377 480.5,-355 387.5,-355"/>
<text text-anchor="start" x="390.5" y="-363.2" font-family="Helvetica,sans-Serif" font-size="11.00">text[2147483647]</text>
<polygon fill="none" stroke="black" points="177.5,-333 177.5,-355 387.5,-355 387.5,-333 177.5,-333"/>
<image xlink:href="../../images/foreignKeys.png" width="11px" height="12px" preserveAspectRatio="xMinYMin meet" x="182.5" y="-350"/>
<text text-anchor="start" x="197.5" y="-341.2" font-family="Helvetica,sans-Serif" font-size="11.00">enum_id</text>
<polygon fill="none" stroke="black" points="387.5,-333 387.5,-355 480.5,-355 480.5,-333 387.5,-333"/>
<text text-anchor="start" x="390.5" y="-341.2" font-family="Helvetica,sans-Serif" font-size="11.00">uuid[2147483647]</text>
<polygon fill="none" stroke="black" points="177.5,-311 177.5,-333 387.5,-333 387.5,-311 177.5,-311"/>
<text text-anchor="start" x="197.5" y="-319.2" font-family="Helvetica,sans-Serif" font-size="11.00">syst_description</text>
<polygon fill="none" stroke="black" points="387.5,-311 387.5,-333 480.5,-333 480.5,-311 387.5,-311"/>
<text text-anchor="start" x="390.5" y="-319.2" font-family="Helvetica,sans-Serif" font-size="11.00">text[2147483647]</text>
<polygon fill="none" stroke="black" points="177.5,-289 177.5,-311 387.5,-311 387.5,-289 177.5,-289"/>
<text text-anchor="start" x="197.5" y="-297.2" font-family="Helvetica,sans-Serif" font-size="11.00">user_description</text>
<polygon fill="none" stroke="black" points="387.5,-289 387.5,-311 480.5,-311 480.5,-289 387.5,-289"/>
<text text-anchor="start" x="390.5" y="-297.2" font-family="Helvetica,sans-Serif" font-size="11.00">text[2147483647]</text>
<polygon fill="none" stroke="black" points="177.5,-267 177.5,-289 387.5,-289 387.5,-267 177.5,-267"/>
<text text-anchor="start" x="197.5" y="-275.2" font-family="Helvetica,sans-Serif" font-size="11.00">diag_timestamp_created</text>
<polygon fill="none" stroke="black" points="387.5,-267 387.5,-289 480.5,-289 480.5,-267 387.5,-267"/>
<text text-anchor="start" x="390.5" y="-275.2" font-family="Helvetica,sans-Serif" font-size="11.00">timestamptz[35,6]</text>
<polygon fill="none" stroke="black" points="177.5,-245 177.5,-267 387.5,-267 387.5,-245 177.5,-245"/>
<text text-anchor="start" x="197.5" y="-253.2" font-family="Helvetica,sans-Serif" font-size="11.00">diag_role_created</text>
<polygon fill="none" stroke="black" points="387.5,-245 387.5,-267 480.5,-267 480.5,-245 387.5,-245"/>
<text text-anchor="start" x="390.5" y="-253.2" font-family="Helvetica,sans-Serif" font-size="11.00">text[2147483647]</text>
<polygon fill="none" stroke="black" points="177.5,-223 177.5,-245 387.5,-245 387.5,-223 177.5,-223"/>
<text text-anchor="start" x="197.5" y="-231.2" font-family="Helvetica,sans-Serif" font-size="11.00">diag_timestamp_modified</text>
<polygon fill="none" stroke="black" points="387.5,-223 387.5,-245 480.5,-245 480.5,-223 387.5,-223"/>
<text text-anchor="start" x="390.5" y="-231.2" font-family="Helvetica,sans-Serif" font-size="11.00">timestamptz[35,6]</text>
<polygon fill="none" stroke="black" points="177.5,-201 177.5,-223 387.5,-223 387.5,-201 177.5,-201"/>
<text text-anchor="start" x="197.5" y="-209.2" font-family="Helvetica,sans-Serif" font-size="11.00">diag_wallclock_modified</text>
<polygon fill="none" stroke="black" points="387.5,-201 387.5,-223 480.5,-223 480.5,-201 387.5,-201"/>
<text text-anchor="start" x="390.5" y="-209.2" font-family="Helvetica,sans-Serif" font-size="11.00">timestamptz[35,6]</text>
<polygon fill="none" stroke="black" points="177.5,-179 177.5,-201 387.5,-201 387.5,-179 177.5,-179"/>
<text text-anchor="start" x="197.5" y="-187.2" font-family="Helvetica,sans-Serif" font-size="11.00">diag_role_modified</text>
<polygon fill="none" stroke="black" points="387.5,-179 387.5,-201 480.5,-201 480.5,-179 387.5,-179"/>
<text text-anchor="start" x="390.5" y="-187.2" font-family="Helvetica,sans-Serif" font-size="11.00">text[2147483647]</text>
<polygon fill="none" stroke="black" points="177.5,-157 177.5,-179 387.5,-179 387.5,-157 177.5,-157"/>
<text text-anchor="start" x="197.5" y="-165.2" font-family="Helvetica,sans-Serif" font-size="11.00">diag_row_version</text>
<polygon fill="none" stroke="black" points="387.5,-157 387.5,-179 480.5,-179 480.5,-157 387.5,-157"/>
<text text-anchor="start" x="390.5" y="-165.2" font-family="Helvetica,sans-Serif" font-size="11.00">int8[19]</text>
<polygon fill="none" stroke="black" points="177.5,-135 177.5,-157 387.5,-157 387.5,-135 177.5,-135"/>
<text text-anchor="start" x="197.5" y="-143.2" font-family="Helvetica,sans-Serif" font-size="11.00">diag_update_count</text>
<polygon fill="none" stroke="black" points="387.5,-135 387.5,-157 480.5,-157 480.5,-135 387.5,-135"/>
<text text-anchor="start" x="390.5" y="-143.2" font-family="Helvetica,sans-Serif" font-size="11.00">int8[19]</text>
<polygon fill="#ffffff" stroke="transparent" points="177.5,-117 177.5,-135 286.5,-135 286.5,-117 177.5,-117"/>
<polygon fill="none" stroke="black" points="177.5,-117 177.5,-135 286.5,-135 286.5,-117 177.5,-117"/>
<text text-anchor="start" x="180.5" y="-123.2" font-family="Helvetica,sans-Serif" font-size="11.00">&lt; 1</text>
<polygon fill="#ffffff" stroke="transparent" points="286.5,-117 286.5,-135 387.5,-135 387.5,-117 286.5,-117"/>
<polygon fill="none" stroke="black" points="286.5,-117 286.5,-135 387.5,-135 387.5,-117 286.5,-117"/>
<text text-anchor="start" x="377.5" y="-123.2" font-family="Helvetica,sans-Serif" font-size="11.00"> &#160;</text>
<polygon fill="#ffffff" stroke="transparent" points="387.5,-117 387.5,-135 480.5,-135 480.5,-117 387.5,-117"/>
<polygon fill="none" stroke="black" points="387.5,-117 387.5,-135 480.5,-135 480.5,-117 387.5,-117"/>
<text text-anchor="start" x="461.5" y="-123.2" font-family="Helvetica,sans-Serif" font-size="11.00">1 &gt;</text>
<polygon fill="none" stroke="black" stroke-width="2" points="176,-116 176,-466 481,-466 481,-116 176,-116"/>
</a>
</g>
</g>
<!-- syst_enum_items&#45;&gt;syst_enum_functional_types -->
<g id="edge13" class="edge">
<title>syst_enum_items:w&#45;&gt;syst_enum_functional_types:e</title>
<path fill="none" stroke="black" d="M594.84,-308.3C578.09,-358.91 543.22,-432 481.5,-432"/>
<polygon fill="black" stroke="black" points="596.8,-302.01 602.63,-295.45 598,-298.19 599.19,-294.38 599.19,-294.38 599.19,-294.38 598,-298.19 595.75,-293.3 596.8,-302.01 596.8,-302.01"/>
<ellipse fill="none" stroke="black" cx="595.85" cy="-305.07" rx="3.2" ry="3.2"/>
</g>
<!-- syst_enums -->
<g id="node9" class="node">
<title>syst_enums</title>
<g id="a_node9"><a xlink:href="../../tables/syst_enums.html" xlink:title="syst_enums" target="_top">
<polygon fill="#ffffff" stroke="transparent" points="8,-188 8,-246 126,-246 126,-188 8,-188"/>
<polygon fill="#f5f5f5" stroke="transparent" points="8,-224 8,-246 126,-246 126,-224 8,-224"/>
<polygon fill="none" stroke="black" points="8,-224 8,-246 126,-246 126,-224 8,-224"/>
<text text-anchor="start" x="13" y="-233.2" font-family="Helvetica,sans-Serif" font-weight="bold" font-size="11.00">syst_enums</text>
<text text-anchor="start" x="91" y="-232.2" font-family="Helvetica,sans-Serif" font-size="11.00">[table]</text>
<polygon fill="none" stroke="black" points="8,-206 8,-224 126,-224 126,-206 8,-206"/>
<text text-anchor="start" x="11" y="-212.2" font-family="Helvetica,sans-Serif" font-size="11.00">...</text>
<polygon fill="#ffffff" stroke="transparent" points="8,-188 8,-206 56,-206 56,-188 8,-188"/>
<polygon fill="none" stroke="black" points="8,-188 8,-206 56,-206 56,-188 8,-188"/>
<text text-anchor="start" x="11" y="-194.2" font-family="Helvetica,sans-Serif" font-size="11.00"> &#160;</text>
<polygon fill="#ffffff" stroke="transparent" points="56,-188 56,-206 86,-206 86,-188 56,-188"/>
<polygon fill="none" stroke="black" points="56,-188 56,-206 86,-206 86,-188 56,-188"/>
<text text-anchor="start" x="76" y="-194.2" font-family="Helvetica,sans-Serif" font-size="11.00"> &#160;</text>
<polygon fill="#ffffff" stroke="transparent" points="86,-188 86,-206 126,-206 126,-188 86,-188"/>
<polygon fill="none" stroke="black" points="86,-188 86,-206 126,-206 126,-188 86,-188"/>
<text text-anchor="start" x="107" y="-194.2" font-family="Helvetica,sans-Serif" font-size="11.00">2 &gt;</text>
</a>
</g>
</g>
<!-- syst_enum_items&#45;&gt;syst_enums -->
<g id="edge12" class="edge">
<title>syst_enum_items:w&#45;&gt;syst_enums:e</title>
<path fill="none" stroke="black" d="M587.18,-214.64C568.06,-177.4 535.53,-127.71 490,-105 361.53,-40.93 297.88,-46.01 167,-105 131.39,-121.05 103.44,-156.94 86.44,-183.79"/>
<polygon fill="black" stroke="black" points="590.09,-220.54 590.39,-229.31 591.86,-224.13 593.62,-227.72 593.62,-227.72 593.62,-227.72 591.86,-224.13 596.85,-226.13 590.09,-220.54 590.09,-220.54"/>
<ellipse fill="none" stroke="black" cx="588.68" cy="-217.67" rx="3.2" ry="3.2"/>
</g>
<!-- ms_appl_data.mstr_entities -->
<g id="node3" class="node">
<title>ms_appl_data.mstr_entities</title>
<g id="a_node3"><a xlink:href="../../../ms_appl_data/tables/mstr_entities.html" xlink:title="ms_appl_data.mstr_entities" target="_top">
<polygon fill="#ffffff" stroke="transparent" points="780.5,-432 780.5,-490 1005.5,-490 1005.5,-432 780.5,-432"/>
<polygon fill="#f5f5f5" stroke="transparent" points="781,-468 781,-490 1006,-490 1006,-468 781,-468"/>
<polygon fill="none" stroke="black" points="781,-468 781,-490 1006,-490 1006,-468 781,-468"/>
<text text-anchor="start" x="786" y="-477.2" font-family="Helvetica,sans-Serif" font-weight="bold" font-size="11.00">ms_appl_data.mstr_entities</text>
<text text-anchor="start" x="971" y="-476.2" font-family="Helvetica,sans-Serif" font-size="11.00">[table]</text>
<polygon fill="none" stroke="black" points="781,-450 781,-468 1006,-468 1006,-450 781,-450"/>
<text text-anchor="start" x="784" y="-456.2" font-family="Helvetica,sans-Serif" font-size="11.00">...</text>
<polygon fill="#ffffff" stroke="transparent" points="781,-432 781,-450 891,-450 891,-432 781,-432"/>
<polygon fill="none" stroke="black" points="781,-432 781,-450 891,-450 891,-432 781,-432"/>
<text text-anchor="start" x="784" y="-438.2" font-family="Helvetica,sans-Serif" font-size="11.00">&lt; 2</text>
<polygon fill="#ffffff" stroke="transparent" points="891,-432 891,-450 948,-450 948,-432 891,-432"/>
<polygon fill="none" stroke="black" points="891,-432 891,-450 948,-450 948,-432 891,-432"/>
<text text-anchor="start" x="938" y="-438.2" font-family="Helvetica,sans-Serif" font-size="11.00"> &#160;</text>
<polygon fill="#ffffff" stroke="transparent" points="948,-432 948,-450 1006,-450 1006,-432 948,-432"/>
<polygon fill="none" stroke="black" points="948,-432 948,-450 1006,-450 1006,-432 948,-432"/>
<text text-anchor="start" x="996" y="-438.2" font-family="Helvetica,sans-Serif" font-size="11.00"> &#160;</text>
</a>
</g>
</g>
<!-- ms_appl_data.mstr_entities&#45;&gt;syst_enum_items -->
<g id="edge3" class="edge">
<title>ms_appl_data.mstr_entities:w&#45;&gt;syst_enum_items:e</title>
<path fill="none" stroke="black" d="M765.54,-457.23C689.89,-442.5 642.83,-346.25 622.02,-294.19"/>
<polygon fill="black" stroke="black" points="772.06,-458.03 779.56,-462.57 776.03,-458.51 780,-459 780,-459 780,-459 776.03,-458.51 780.44,-455.43 772.06,-458.03 772.06,-458.03"/>
<ellipse fill="none" stroke="black" cx="768.88" cy="-457.64" rx="3.2" ry="3.2"/>
</g>
<!-- ms_appl_data.mstr_entities&#45;&gt;syst_enum_items -->
<g id="edge4" class="edge">
<title>ms_appl_data.mstr_entities:w&#45;&gt;syst_enum_items:e</title>
<path fill="none" stroke="black" d="M765.39,-458.8C686.15,-451.74 638.31,-348.61 619.17,-294.07"/>
<polygon fill="black" stroke="black" points="772,-458.89 779.95,-462.6 776,-458.95 780,-459 780,-459 780,-459 776,-458.95 780.05,-455.4 772,-458.89 772,-458.89"/>
<ellipse fill="none" stroke="black" cx="768.8" cy="-458.85" rx="3.2" ry="3.2"/>
</g>
<!-- ms_appl_data.mstr_entity_person_roles -->
<g id="node4" class="node">
<title>ms_appl_data.mstr_entity_person_roles</title>
<g id="a_node4"><a xlink:href="../../../ms_appl_data/tables/mstr_entity_person_roles.html" xlink:title="ms_appl_data.mstr_entity_person_roles" target="_top">
<polygon fill="#ffffff" stroke="transparent" points="740.5,-353 740.5,-411 1045.5,-411 1045.5,-353 740.5,-353"/>
<polygon fill="#f5f5f5" stroke="transparent" points="741,-389 741,-411 1046,-411 1046,-389 741,-389"/>
<polygon fill="none" stroke="black" points="741,-389 741,-411 1046,-411 1046,-389 741,-389"/>
<text text-anchor="start" x="746" y="-398.2" font-family="Helvetica,sans-Serif" font-weight="bold" font-size="11.00">ms_appl_data.mstr_entity_person_roles</text>
<text text-anchor="start" x="1011" y="-397.2" font-family="Helvetica,sans-Serif" font-size="11.00">[table]</text>
<polygon fill="none" stroke="black" points="741,-371 741,-389 1046,-389 1046,-371 741,-371"/>
<text text-anchor="start" x="744" y="-377.2" font-family="Helvetica,sans-Serif" font-size="11.00">...</text>
<polygon fill="#ffffff" stroke="transparent" points="741,-353 741,-371 891,-371 891,-353 741,-353"/>
<polygon fill="none" stroke="black" points="741,-353 741,-371 891,-371 891,-353 741,-353"/>
<text text-anchor="start" x="744" y="-359.2" font-family="Helvetica,sans-Serif" font-size="11.00">&lt; 1</text>
<polygon fill="#ffffff" stroke="transparent" points="891,-353 891,-371 968,-371 968,-353 891,-353"/>
<polygon fill="none" stroke="black" points="891,-353 891,-371 968,-371 968,-353 891,-353"/>
<text text-anchor="start" x="958" y="-359.2" font-family="Helvetica,sans-Serif" font-size="11.00"> &#160;</text>
<polygon fill="#ffffff" stroke="transparent" points="968,-353 968,-371 1046,-371 1046,-353 968,-353"/>
<polygon fill="none" stroke="black" points="968,-353 968,-371 1046,-371 1046,-353 968,-353"/>
<text text-anchor="start" x="1036" y="-359.2" font-family="Helvetica,sans-Serif" font-size="11.00"> &#160;</text>
</a>
</g>
</g>
<!-- ms_appl_data.mstr_entity_person_roles&#45;&gt;syst_enum_items -->
<g id="edge5" class="edge">
<title>ms_appl_data.mstr_entity_person_roles:w&#45;&gt;syst_enum_items:e</title>
<path fill="none" stroke="black" d="M725.61,-378.67C681.32,-370.45 646.8,-325.99 627.28,-294.15"/>
<polygon fill="black" stroke="black" points="732.03,-379.26 739.67,-383.58 736.02,-379.63 740,-380 740,-380 740,-380 736.02,-379.63 740.33,-376.42 732.03,-379.26 732.03,-379.26"/>
<ellipse fill="none" stroke="black" cx="728.85" cy="-378.97" rx="3.2" ry="3.2"/>
</g>
<!-- ms_appl_data.mstr_person_contact_roles -->
<g id="node5" class="node">
<title>ms_appl_data.mstr_person_contact_roles</title>
<g id="a_node5"><a xlink:href="../../../ms_appl_data/tables/mstr_person_contact_roles.html" xlink:title="ms_appl_data.mstr_person_contact_roles" target="_top">
<polygon fill="#ffffff" stroke="transparent" points="735,-274 735,-332 1051,-332 1051,-274 735,-274"/>
<polygon fill="#f5f5f5" stroke="transparent" points="735,-310 735,-332 1051,-332 1051,-310 735,-310"/>
<polygon fill="none" stroke="black" points="735,-310 735,-332 1051,-332 1051,-310 735,-310"/>
<text text-anchor="start" x="740" y="-319.2" font-family="Helvetica,sans-Serif" font-weight="bold" font-size="11.00">ms_appl_data.mstr_person_contact_roles</text>
<text text-anchor="start" x="1016" y="-318.2" font-family="Helvetica,sans-Serif" font-size="11.00">[table]</text>
<polygon fill="none" stroke="black" points="735,-292 735,-310 1051,-310 1051,-292 735,-292"/>
<text text-anchor="start" x="738" y="-298.2" font-family="Helvetica,sans-Serif" font-size="11.00">...</text>
<polygon fill="#ffffff" stroke="transparent" points="735,-274 735,-292 891,-292 891,-274 735,-274"/>
<polygon fill="none" stroke="black" points="735,-274 735,-292 891,-292 891,-274 735,-274"/>
<text text-anchor="start" x="738" y="-280.2" font-family="Helvetica,sans-Serif" font-size="11.00">&lt; 1</text>
<polygon fill="#ffffff" stroke="transparent" points="891,-274 891,-292 971,-292 971,-274 891,-274"/>
<polygon fill="none" stroke="black" points="891,-274 891,-292 971,-292 971,-274 891,-274"/>
<text text-anchor="start" x="961" y="-280.2" font-family="Helvetica,sans-Serif" font-size="11.00"> &#160;</text>
<polygon fill="#ffffff" stroke="transparent" points="971,-274 971,-292 1051,-292 1051,-274 971,-274"/>
<polygon fill="none" stroke="black" points="971,-274 971,-292 1051,-292 1051,-274 971,-274"/>
<text text-anchor="start" x="1041" y="-280.2" font-family="Helvetica,sans-Serif" font-size="11.00"> &#160;</text>
</a>
</g>
</g>
<!-- ms_appl_data.mstr_person_contact_roles&#45;&gt;syst_enum_items -->
<g id="edge6" class="edge">
<title>ms_appl_data.mstr_person_contact_roles:w&#45;&gt;syst_enum_items:e</title>
<path fill="none" stroke="black" d="M719.4,-300.22C708.63,-299.11 697.79,-296.88 687.34,-294.03"/>
<polygon fill="black" stroke="black" points="726.01,-300.57 733.81,-304.59 730.01,-300.79 734,-301 734,-301 734,-301 730.01,-300.79 734.19,-297.41 726.01,-300.57 726.01,-300.57"/>
<ellipse fill="none" stroke="black" cx="722.82" cy="-300.4" rx="3.2" ry="3.2"/>
</g>
<!-- ms_appl_data.mstr_persons -->
<g id="node6" class="node">
<title>ms_appl_data.mstr_persons</title>
<g id="a_node6"><a xlink:href="../../../ms_appl_data/tables/mstr_persons.html" xlink:title="ms_appl_data.mstr_persons" target="_top">
<polygon fill="#ffffff" stroke="transparent" points="779.5,-195 779.5,-253 1006.5,-253 1006.5,-195 779.5,-195"/>
<polygon fill="#f5f5f5" stroke="transparent" points="780,-231 780,-253 1007,-253 1007,-231 780,-231"/>
<polygon fill="none" stroke="black" points="780,-231 780,-253 1007,-253 1007,-231 780,-231"/>
<text text-anchor="start" x="785" y="-240.2" font-family="Helvetica,sans-Serif" font-weight="bold" font-size="11.00">ms_appl_data.mstr_persons</text>
<text text-anchor="start" x="972" y="-239.2" font-family="Helvetica,sans-Serif" font-size="11.00">[table]</text>
<polygon fill="none" stroke="black" points="780,-213 780,-231 1007,-231 1007,-213 780,-213"/>
<text text-anchor="start" x="783" y="-219.2" font-family="Helvetica,sans-Serif" font-size="11.00">...</text>
<polygon fill="#ffffff" stroke="transparent" points="780,-195 780,-213 891,-213 891,-195 780,-195"/>
<polygon fill="none" stroke="black" points="780,-195 780,-213 891,-213 891,-195 780,-195"/>
<text text-anchor="start" x="783" y="-201.2" font-family="Helvetica,sans-Serif" font-size="11.00">&lt; 2</text>
<polygon fill="#ffffff" stroke="transparent" points="891,-195 891,-213 949,-213 949,-195 891,-195"/>
<polygon fill="none" stroke="black" points="891,-195 891,-213 949,-213 949,-195 891,-195"/>
<text text-anchor="start" x="939" y="-201.2" font-family="Helvetica,sans-Serif" font-size="11.00"> &#160;</text>
<polygon fill="#ffffff" stroke="transparent" points="949,-195 949,-213 1007,-213 1007,-195 949,-195"/>
<polygon fill="none" stroke="black" points="949,-195 949,-213 1007,-213 1007,-195 949,-195"/>
<text text-anchor="start" x="997" y="-201.2" font-family="Helvetica,sans-Serif" font-size="11.00"> &#160;</text>
</a>
</g>
</g>
<!-- ms_appl_data.mstr_persons&#45;&gt;syst_enum_items -->
<g id="edge7" class="edge">
<title>ms_appl_data.mstr_persons:w&#45;&gt;syst_enum_items:e</title>
<path fill="none" stroke="black" d="M764.45,-221.38C740.89,-221.17 716.59,-224.55 694.42,-229.44"/>
<polygon fill="black" stroke="black" points="771.01,-221.66 778.85,-225.6 775,-221.83 779,-222 779,-222 779,-222 775,-221.83 779.15,-218.4 771.01,-221.66 771.01,-221.66"/>
<ellipse fill="none" stroke="black" cx="767.81" cy="-221.53" rx="3.2" ry="3.2"/>
</g>
<!-- ms_appl_data.mstr_persons&#45;&gt;syst_enum_items -->
<g id="edge8" class="edge">
<title>ms_appl_data.mstr_persons:w&#45;&gt;syst_enum_items:e</title>
<path fill="none" stroke="black" d="M764.45,-223.66C740.89,-226.85 716.59,-232.47 694.42,-238.44"/>
<polygon fill="black" stroke="black" points="771.05,-222.9 779.41,-225.58 775.03,-222.45 779,-222 779,-222 779,-222 775.03,-222.45 778.59,-218.42 771.05,-222.9 771.05,-222.9"/>
<ellipse fill="none" stroke="black" cx="767.87" cy="-223.27" rx="3.2" ry="3.2"/>
</g>
<!-- ms_appl_data.mstr_places -->
<g id="node7" class="node">
<title>ms_appl_data.mstr_places</title>
<g id="a_node7"><a xlink:href="../../../ms_appl_data/tables/mstr_places.html" xlink:title="ms_appl_data.mstr_places" target="_top">
<polygon fill="#ffffff" stroke="transparent" points="785,-116 785,-174 1001,-174 1001,-116 785,-116"/>
<polygon fill="#f5f5f5" stroke="transparent" points="785,-152 785,-174 1001,-174 1001,-152 785,-152"/>
<polygon fill="none" stroke="black" points="785,-152 785,-174 1001,-174 1001,-152 785,-152"/>
<text text-anchor="start" x="790" y="-161.2" font-family="Helvetica,sans-Serif" font-weight="bold" font-size="11.00">ms_appl_data.mstr_places</text>
<text text-anchor="start" x="966" y="-160.2" font-family="Helvetica,sans-Serif" font-size="11.00">[table]</text>
<polygon fill="none" stroke="black" points="785,-134 785,-152 1001,-152 1001,-134 785,-134"/>
<text text-anchor="start" x="788" y="-140.2" font-family="Helvetica,sans-Serif" font-size="11.00">...</text>
<polygon fill="#ffffff" stroke="transparent" points="785,-116 785,-134 891,-134 891,-116 785,-116"/>
<polygon fill="none" stroke="black" points="785,-116 785,-134 891,-134 891,-116 785,-116"/>
<text text-anchor="start" x="788" y="-122.2" font-family="Helvetica,sans-Serif" font-size="11.00">&lt; 2</text>
<polygon fill="#ffffff" stroke="transparent" points="891,-116 891,-134 946,-134 946,-116 891,-116"/>
<polygon fill="none" stroke="black" points="891,-116 891,-134 946,-134 946,-116 891,-116"/>
<text text-anchor="start" x="936" y="-122.2" font-family="Helvetica,sans-Serif" font-size="11.00"> &#160;</text>
<polygon fill="#ffffff" stroke="transparent" points="946,-116 946,-134 1001,-134 1001,-116 946,-116"/>
<polygon fill="none" stroke="black" points="946,-116 946,-134 1001,-134 1001,-116 946,-116"/>
<text text-anchor="start" x="991" y="-122.2" font-family="Helvetica,sans-Serif" font-size="11.00"> &#160;</text>
</a>
</g>
</g>
<!-- ms_appl_data.mstr_places&#45;&gt;syst_enum_items -->
<g id="edge9" class="edge">
<title>ms_appl_data.mstr_places:w&#45;&gt;syst_enum_items:e</title>
<path fill="none" stroke="black" d="M769.29,-143.05C711.92,-147.06 660.89,-194.36 632.68,-227.89"/>
<polygon fill="black" stroke="black" points="776,-143.03 784.01,-146.6 780,-143.01 784,-143 784,-143 784,-143 780,-143.01 783.99,-139.4 776,-143.03 776,-143.03"/>
<ellipse fill="none" stroke="black" cx="772.8" cy="-143.04" rx="3.2" ry="3.2"/>
</g>
<!-- ms_appl_data.mstr_places&#45;&gt;syst_enum_items -->
<g id="edge10" class="edge">
<title>ms_appl_data.mstr_places:w&#45;&gt;syst_enum_items:e</title>
<path fill="none" stroke="black" d="M769.46,-144.97C717.06,-155.17 669.93,-197.32 640.63,-227.96"/>
<polygon fill="black" stroke="black" points="776.07,-144.07 784.48,-146.57 780.04,-143.54 784,-143 784,-143 784,-143 780.04,-143.54 783.52,-139.43 776.07,-144.07 776.07,-144.07"/>
<ellipse fill="none" stroke="black" cx="772.9" cy="-144.5" rx="3.2" ry="3.2"/>
</g>
<!-- syst_enum_functional_types&#45;&gt;syst_enums -->
<g id="edge11" class="edge">
<title>syst_enum_functional_types:w&#45;&gt;syst_enums:e</title>
<path fill="none" stroke="black" d="M161.98,-342.34C120.78,-332.75 93.75,-283.84 79.68,-250.04"/>
<polygon fill="black" stroke="black" points="168.55,-343.09 176.09,-347.58 172.53,-343.54 176.5,-344 176.5,-344 176.5,-344 172.53,-343.54 176.91,-340.42 168.55,-343.09 168.55,-343.09"/>
<ellipse fill="none" stroke="black" cx="165.37" cy="-342.72" rx="3.2" ry="3.2"/>
</g>
<!-- syst_interaction_logs -->
<g id="node10" class="node">
<title>syst_interaction_logs</title>
<g id="a_node10"><a xlink:href="../../tables/syst_interaction_logs.html" xlink:title="syst_interaction_logs" target="_top">
<polygon fill="#ffffff" stroke="transparent" points="802,-37 802,-95 984,-95 984,-37 802,-37"/>
<polygon fill="#f5f5f5" stroke="transparent" points="802,-73 802,-95 984,-95 984,-73 802,-73"/>
<polygon fill="none" stroke="black" points="802,-73 802,-95 984,-95 984,-73 802,-73"/>
<text text-anchor="start" x="807" y="-82.2" font-family="Helvetica,sans-Serif" font-weight="bold" font-size="11.00">syst_interaction_logs</text>
<text text-anchor="start" x="949" y="-81.2" font-family="Helvetica,sans-Serif" font-size="11.00">[table]</text>
<polygon fill="none" stroke="black" points="802,-55 802,-73 984,-73 984,-55 802,-55"/>
<text text-anchor="start" x="805" y="-61.2" font-family="Helvetica,sans-Serif" font-size="11.00">...</text>
<polygon fill="#ffffff" stroke="transparent" points="802,-37 802,-55 891,-55 891,-37 802,-37"/>
<polygon fill="none" stroke="black" points="802,-37 802,-55 891,-55 891,-37 802,-37"/>
<text text-anchor="start" x="805" y="-43.2" font-family="Helvetica,sans-Serif" font-size="11.00">&lt; 2</text>
<polygon fill="#ffffff" stroke="transparent" points="891,-37 891,-55 937,-55 937,-37 891,-37"/>
<polygon fill="none" stroke="black" points="891,-37 891,-55 937,-55 937,-37 891,-37"/>
<text text-anchor="start" x="927" y="-43.2" font-family="Helvetica,sans-Serif" font-size="11.00"> &#160;</text>
<polygon fill="#ffffff" stroke="transparent" points="937,-37 937,-55 984,-55 984,-37 937,-37"/>
<polygon fill="none" stroke="black" points="937,-37 937,-55 984,-55 984,-37 937,-37"/>
<text text-anchor="start" x="974" y="-43.2" font-family="Helvetica,sans-Serif" font-size="11.00"> &#160;</text>
</a>
</g>
</g>
<!-- syst_interaction_logs&#45;&gt;syst_enum_items -->
<g id="edge14" class="edge">
<title>syst_interaction_logs:w&#45;&gt;syst_enum_items:e</title>
<path fill="none" stroke="black" d="M786.43,-64.24C702.38,-71.23 645.51,-173.42 621.86,-227.74"/>
<polygon fill="black" stroke="black" points="793,-64.13 801.06,-67.6 797,-64.07 801,-64 801,-64 801,-64 797,-64.07 800.94,-60.4 793,-64.13 793,-64.13"/>
<ellipse fill="none" stroke="black" cx="789.8" cy="-64.19" rx="3.2" ry="3.2"/>
</g>
<!-- syst_interaction_logs&#45;&gt;syst_enum_items -->
<g id="edge15" class="edge">
<title>syst_interaction_logs:w&#45;&gt;syst_enum_items:e</title>
<path fill="none" stroke="black" d="M786.31,-65.78C706.24,-80.64 650.85,-175.89 625.38,-227.71"/>
<polygon fill="black" stroke="black" points="793.06,-64.96 801.43,-67.57 797.03,-64.48 801,-64 801,-64 801,-64 797.03,-64.48 800.57,-60.43 793.06,-64.96 793.06,-64.96"/>
<ellipse fill="none" stroke="black" cx="789.88" cy="-65.35" rx="3.2" ry="3.2"/>
</g>
</g>
</svg>
