<?xml version="1.0" encoding="UTF-8" standalone="no"?>
<!DOCTYPE svg PUBLIC "-//W3C//DTD SVG 1.1//EN"
 "http://www.w3.org/Graphics/SVG/1.1/DTD/svg11.dtd">
<!-- Generated by graphviz version 2.43.0 (0)
 -->
<!-- Title: twoDegreesRelationshipsDiagram Pages: 1 -->
<svg width="1028pt" height="831pt"
 viewBox="0.00 0.00 1028.00 831.00" xmlns="http://www.w3.org/2000/svg" xmlns:xlink="http://www.w3.org/1999/xlink">
<g id="graph0" class="graph" transform="scale(1 1) rotate(0) translate(4 827)">
<title>twoDegreesRelationshipsDiagram</title>
<polygon fill="#ffffff" stroke="transparent" points="-4,4 -4,-827 1024,-827 1024,4 -4,4"/>
<text text-anchor="middle" x="71.5" y="-7.2" font-family="Helvetica,sans-Serif" font-size="11.00">Generated by SchemaSpy</text>
<!-- ms_appl_data.mstr_contacts -->
<g id="node1" class="node">
<title>ms_appl_data.mstr_contacts</title>
<g id="a_node1"><a xlink:href="../../../ms_appl_data/tables/mstr_contacts.html" xlink:title="ms_appl_data.mstr_contacts" target="_top">
<polygon fill="#ffffff" stroke="transparent" points="738.5,-761 738.5,-819 969.5,-819 969.5,-761 738.5,-761"/>
<polygon fill="#f5f5f5" stroke="transparent" points="739,-797 739,-819 970,-819 970,-797 739,-797"/>
<polygon fill="none" stroke="black" points="739,-797 739,-819 970,-819 970,-797 739,-797"/>
<text text-anchor="start" x="744" y="-806.2" font-family="Helvetica,sans-Serif" font-weight="bold" font-size="11.00">ms_appl_data.mstr_contacts</text>
<text text-anchor="start" x="935" y="-805.2" font-family="Helvetica,sans-Serif" font-size="11.00">[table]</text>
<polygon fill="none" stroke="black" points="739,-779 739,-797 970,-797 970,-779 739,-779"/>
<text text-anchor="start" x="742" y="-785.2" font-family="Helvetica,sans-Serif" font-size="11.00">...</text>
<polygon fill="#ffffff" stroke="transparent" points="739,-761 739,-779 852,-779 852,-761 739,-761"/>
<polygon fill="none" stroke="black" points="739,-761 739,-779 852,-779 852,-761 739,-761"/>
<text text-anchor="start" x="742" y="-767.2" font-family="Helvetica,sans-Serif" font-size="11.00">&lt; 2</text>
<polygon fill="#ffffff" stroke="transparent" points="852,-761 852,-779 911,-779 911,-761 852,-761"/>
<polygon fill="none" stroke="black" points="852,-761 852,-779 911,-779 911,-761 852,-761"/>
<text text-anchor="start" x="901" y="-767.2" font-family="Helvetica,sans-Serif" font-size="11.00"> &#160;</text>
<polygon fill="#ffffff" stroke="transparent" points="911,-761 911,-779 970,-779 970,-761 911,-761"/>
<polygon fill="none" stroke="black" points="911,-761 911,-779 970,-779 970,-761 911,-761"/>
<text text-anchor="start" x="960" y="-767.2" font-family="Helvetica,sans-Serif" font-size="11.00"> &#160;</text>
</a>
</g>
</g>
<!-- syst_enum_items -->
<g id="node2" class="node">
<title>syst_enum_items</title>
<g id="a_node2"><a xlink:href="../../tables/syst_enum_items.html" xlink:title="syst_enum_items" target="_top">
<polygon fill="#ffffff" stroke="transparent" points="453,-376 453,-544 647,-544 647,-376 453,-376"/>
<polygon fill="#f5f5f5" stroke="transparent" points="453,-522 453,-544 647,-544 647,-522 453,-522"/>
<polygon fill="none" stroke="black" points="453,-522 453,-544 647,-544 647,-522 453,-522"/>
<text text-anchor="start" x="458" y="-531.2" font-family="Helvetica,sans-Serif" font-weight="bold" font-size="11.00">syst_enum_items</text>
<text text-anchor="start" x="612" y="-530.2" font-family="Helvetica,sans-Serif" font-size="11.00">[table]</text>
<polygon fill="none" stroke="black" points="453,-500 453,-522 647,-522 647,-500 453,-500"/>
<image xlink:href="../../images/primaryKeys.png" width="11px" height="12px" preserveAspectRatio="xMinYMin meet" x="458" y="-517"/>
<text text-anchor="start" x="473" y="-508.2" font-family="Helvetica,sans-Serif" font-size="11.00">id</text>
<polygon fill="#ffffff" stroke="transparent" points="453,-478 453,-500 647,-500 647,-478 453,-478"/>
<polygon fill="none" stroke="black" points="453,-478 453,-500 647,-500 647,-478 453,-478"/>
<text text-anchor="start" x="473" y="-486.2" font-family="Helvetica,sans-Serif" font-size="11.00">internal_name</text>
<polygon fill="#ffffff" stroke="transparent" points="453,-456 453,-478 647,-478 647,-456 453,-456"/>
<polygon fill="none" stroke="black" points="453,-456 453,-478 647,-478 647,-456 453,-456"/>
<text text-anchor="start" x="473" y="-464.2" font-family="Helvetica,sans-Serif" font-size="11.00">display_name</text>
<polygon fill="none" stroke="black" points="453,-434 453,-456 647,-456 647,-434 453,-434"/>
<image xlink:href="../../images/foreignKeys.png" width="11px" height="12px" preserveAspectRatio="xMinYMin meet" x="458" y="-451"/>
<text text-anchor="start" x="473" y="-442.2" font-family="Helvetica,sans-Serif" font-size="11.00">enum_id</text>
<polygon fill="none" stroke="black" points="453,-412 453,-434 647,-434 647,-412 453,-412"/>
<image xlink:href="../../images/foreignKeys.png" width="11px" height="12px" preserveAspectRatio="xMinYMin meet" x="458" y="-429"/>
<text text-anchor="start" x="473" y="-420.2" font-family="Helvetica,sans-Serif" font-size="11.00">functional_type_id</text>
<polygon fill="none" stroke="black" points="453,-394 453,-412 647,-412 647,-394 453,-394"/>
<text text-anchor="start" x="456" y="-400.2" font-family="Helvetica,sans-Serif" font-size="11.00">...</text>
<polygon fill="#ffffff" stroke="transparent" points="453,-376 453,-394 540,-394 540,-376 453,-376"/>
<polygon fill="none" stroke="black" points="453,-376 453,-394 540,-394 540,-376 453,-376"/>
<text text-anchor="start" x="456" y="-382.2" font-family="Helvetica,sans-Serif" font-size="11.00">&lt; 2</text>
<polygon fill="#ffffff" stroke="transparent" points="540,-376 540,-394 586,-394 586,-376 540,-376"/>
<polygon fill="none" stroke="black" points="540,-376 540,-394 586,-394 586,-376 540,-376"/>
<text text-anchor="start" x="576" y="-382.2" font-family="Helvetica,sans-Serif" font-size="11.00"> &#160;</text>
<polygon fill="#ffffff" stroke="transparent" points="586,-376 586,-394 647,-394 647,-376 586,-376"/>
<polygon fill="none" stroke="black" points="586,-376 586,-394 647,-394 647,-376 586,-376"/>
<text text-anchor="start" x="622" y="-382.2" font-family="Helvetica,sans-Serif" font-size="11.00">12 &gt;</text>
</a>
</g>
</g>
<!-- ms_appl_data.mstr_contacts&#45;&gt;syst_enum_items -->
<g id="edge1" class="edge">
<title>ms_appl_data.mstr_contacts:w&#45;&gt;syst_enum_items:e</title>
<path fill="none" stroke="black" d="M723.86,-783.61C707.01,-776.37 699.62,-763.97 688,-745 659.76,-698.89 702.07,-505 648,-511"/>
<polygon fill="black" stroke="black" points="730.36,-785.63 736.93,-791.44 734.18,-786.81 738,-788 738,-788 738,-788 734.18,-786.81 739.07,-784.56 730.36,-785.63 730.36,-785.63"/>
<ellipse fill="none" stroke="black" cx="727.3" cy="-784.68" rx="3.2" ry="3.2"/>
</g>
<!-- ms_appl_data.mstr_contacts&#45;&gt;syst_enum_items -->
<g id="edge2" class="edge">
<title>ms_appl_data.mstr_contacts:w&#45;&gt;syst_enum_items:e</title>
<path fill="none" stroke="black" d="M723.38,-789.82C706.87,-789.13 699.5,-776.79 688,-758 659.76,-711.89 702.07,-518 648,-511"/>
<polygon fill="black" stroke="black" points="730.06,-788.99 738.45,-791.57 734.03,-788.49 738,-788 738,-788 738,-788 734.03,-788.49 737.55,-784.43 730.06,-788.99 730.06,-788.99"/>
<ellipse fill="none" stroke="black" cx="726.89" cy="-789.39" rx="3.2" ry="3.2"/>
</g>
<!-- syst_enum_functional_types -->
<g id="node8" class="node">
<title>syst_enum_functional_types</title>
<g id="a_node8"><a xlink:href="../../tables/syst_enum_functional_types.html" xlink:title="syst_enum_functional_types" target="_top">
<polygon fill="#ffffff" stroke="transparent" points="175,-380 175,-438 404,-438 404,-380 175,-380"/>
<polygon fill="#f5f5f5" stroke="transparent" points="175.5,-416 175.5,-438 404.5,-438 404.5,-416 175.5,-416"/>
<polygon fill="none" stroke="black" points="175.5,-416 175.5,-438 404.5,-438 404.5,-416 175.5,-416"/>
<text text-anchor="start" x="180.5" y="-425.2" font-family="Helvetica,sans-Serif" font-weight="bold" font-size="11.00">syst_enum_functional_types</text>
<text text-anchor="start" x="369.5" y="-424.2" font-family="Helvetica,sans-Serif" font-size="11.00">[table]</text>
<polygon fill="none" stroke="black" points="175.5,-398 175.5,-416 404.5,-416 404.5,-398 175.5,-398"/>
<text text-anchor="start" x="178.5" y="-404.2" font-family="Helvetica,sans-Serif" font-size="11.00">...</text>
<polygon fill="#ffffff" stroke="transparent" points="175.5,-380 175.5,-398 283.5,-398 283.5,-380 175.5,-380"/>
<polygon fill="none" stroke="black" points="175.5,-380 175.5,-398 283.5,-398 283.5,-380 175.5,-380"/>
<text text-anchor="start" x="178.5" y="-386.2" font-family="Helvetica,sans-Serif" font-size="11.00">&lt; 1</text>
<polygon fill="#ffffff" stroke="transparent" points="283.5,-380 283.5,-398 339.5,-398 339.5,-380 283.5,-380"/>
<polygon fill="none" stroke="black" points="283.5,-380 283.5,-398 339.5,-398 339.5,-380 283.5,-380"/>
<text text-anchor="start" x="329.5" y="-386.2" font-family="Helvetica,sans-Serif" font-size="11.00"> &#160;</text>
<polygon fill="#ffffff" stroke="transparent" points="339.5,-380 339.5,-398 404.5,-398 404.5,-380 339.5,-380"/>
<polygon fill="none" stroke="black" points="339.5,-380 339.5,-398 404.5,-398 404.5,-380 339.5,-380"/>
<text text-anchor="start" x="385.5" y="-386.2" font-family="Helvetica,sans-Serif" font-size="11.00">1 &gt;</text>
</a>
</g>
</g>
<!-- syst_enum_items&#45;&gt;syst_enum_functional_types -->
<g id="edge13" class="edge">
<title>syst_enum_items:w&#45;&gt;syst_enum_functional_types:e</title>
<path fill="none" stroke="black" d="M437.57,-420.07C427.19,-415.45 421.38,-407 405.5,-407"/>
<polygon fill="black" stroke="black" points="444.16,-421.41 451.28,-426.53 448.08,-422.2 452,-423 452,-423 452,-423 448.08,-422.2 452.72,-419.47 444.16,-421.41 444.16,-421.41"/>
<ellipse fill="none" stroke="black" cx="441.02" cy="-420.77" rx="3.2" ry="3.2"/>
</g>
<!-- syst_enums -->
<g id="node9" class="node">
<title>syst_enums</title>
<g id="a_node9"><a xlink:href="../../tables/syst_enums.html" xlink:title="syst_enums" target="_top">
<polygon fill="#ffffff" stroke="transparent" points="8,-407 8,-465 126,-465 126,-407 8,-407"/>
<polygon fill="#f5f5f5" stroke="transparent" points="8,-443 8,-465 126,-465 126,-443 8,-443"/>
<polygon fill="none" stroke="black" points="8,-443 8,-465 126,-465 126,-443 8,-443"/>
<text text-anchor="start" x="13" y="-452.2" font-family="Helvetica,sans-Serif" font-weight="bold" font-size="11.00">syst_enums</text>
<text text-anchor="start" x="91" y="-451.2" font-family="Helvetica,sans-Serif" font-size="11.00">[table]</text>
<polygon fill="none" stroke="black" points="8,-425 8,-443 126,-443 126,-425 8,-425"/>
<text text-anchor="start" x="11" y="-431.2" font-family="Helvetica,sans-Serif" font-size="11.00">...</text>
<polygon fill="#ffffff" stroke="transparent" points="8,-407 8,-425 56,-425 56,-407 8,-407"/>
<polygon fill="none" stroke="black" points="8,-407 8,-425 56,-425 56,-407 8,-407"/>
<text text-anchor="start" x="11" y="-413.2" font-family="Helvetica,sans-Serif" font-size="11.00"> &#160;</text>
<polygon fill="#ffffff" stroke="transparent" points="56,-407 56,-425 86,-425 86,-407 56,-407"/>
<polygon fill="none" stroke="black" points="56,-407 56,-425 86,-425 86,-407 56,-407"/>
<text text-anchor="start" x="76" y="-413.2" font-family="Helvetica,sans-Serif" font-size="11.00"> &#160;</text>
<polygon fill="#ffffff" stroke="transparent" points="86,-407 86,-425 126,-425 126,-407 86,-407"/>
<polygon fill="none" stroke="black" points="86,-407 86,-425 126,-425 126,-407 86,-407"/>
<text text-anchor="start" x="107" y="-413.2" font-family="Helvetica,sans-Serif" font-size="11.00">2 &gt;</text>
</a>
</g>
</g>
<!-- syst_enum_items&#45;&gt;syst_enums -->
<g id="edge12" class="edge">
<title>syst_enum_items:w&#45;&gt;syst_enums:e</title>
<path fill="none" stroke="black" d="M437.56,-445.85C429.72,-446.84 423.85,-448.41 412,-449 303.25,-454.42 274.14,-468.43 167,-449 148.32,-445.61 145.99,-434 127,-434"/>
<polygon fill="black" stroke="black" points="444.01,-445.47 452.21,-448.59 448.01,-445.24 452,-445 452,-445 452,-445 448.01,-445.24 451.79,-441.41 444.01,-445.47 444.01,-445.47"/>
<ellipse fill="none" stroke="black" cx="440.82" cy="-445.66" rx="3.2" ry="3.2"/>
</g>
<!-- ms_appl_data.mstr_entities -->
<g id="node3" class="node">
<title>ms_appl_data.mstr_entities</title>
<g id="a_node3"><a xlink:href="../../../ms_appl_data/tables/mstr_entities.html" xlink:title="ms_appl_data.mstr_entities" target="_top">
<polygon fill="#ffffff" stroke="transparent" points="741.5,-682 741.5,-740 966.5,-740 966.5,-682 741.5,-682"/>
<polygon fill="#f5f5f5" stroke="transparent" points="742,-718 742,-740 967,-740 967,-718 742,-718"/>
<polygon fill="none" stroke="black" points="742,-718 742,-740 967,-740 967,-718 742,-718"/>
<text text-anchor="start" x="747" y="-727.2" font-family="Helvetica,sans-Serif" font-weight="bold" font-size="11.00">ms_appl_data.mstr_entities</text>
<text text-anchor="start" x="932" y="-726.2" font-family="Helvetica,sans-Serif" font-size="11.00">[table]</text>
<polygon fill="none" stroke="black" points="742,-700 742,-718 967,-718 967,-700 742,-700"/>
<text text-anchor="start" x="745" y="-706.2" font-family="Helvetica,sans-Serif" font-size="11.00">...</text>
<polygon fill="#ffffff" stroke="transparent" points="742,-682 742,-700 852,-700 852,-682 742,-682"/>
<polygon fill="none" stroke="black" points="742,-682 742,-700 852,-700 852,-682 742,-682"/>
<text text-anchor="start" x="745" y="-688.2" font-family="Helvetica,sans-Serif" font-size="11.00">&lt; 2</text>
<polygon fill="#ffffff" stroke="transparent" points="852,-682 852,-700 909,-700 909,-682 852,-682"/>
<polygon fill="none" stroke="black" points="852,-682 852,-700 909,-700 909,-682 852,-682"/>
<text text-anchor="start" x="899" y="-688.2" font-family="Helvetica,sans-Serif" font-size="11.00"> &#160;</text>
<polygon fill="#ffffff" stroke="transparent" points="909,-682 909,-700 967,-700 967,-682 909,-682"/>
<polygon fill="none" stroke="black" points="909,-682 909,-700 967,-700 967,-682 909,-682"/>
<text text-anchor="start" x="957" y="-688.2" font-family="Helvetica,sans-Serif" font-size="11.00"> &#160;</text>
</a>
</g>
</g>
<!-- ms_appl_data.mstr_entities&#45;&gt;syst_enum_items -->
<g id="edge3" class="edge">
<title>ms_appl_data.mstr_entities:w&#45;&gt;syst_enum_items:e</title>
<path fill="none" stroke="black" d="M727.09,-704.94C709.06,-697.76 701.29,-685.32 688,-666 646.22,-605.25 721.73,-505 648,-511"/>
<polygon fill="black" stroke="black" points="733.32,-706.76 739.99,-712.46 737.16,-707.88 741,-709 741,-709 741,-709 737.16,-707.88 742.01,-705.54 733.32,-706.76 733.32,-706.76"/>
<ellipse fill="none" stroke="black" cx="730.25" cy="-705.86" rx="3.2" ry="3.2"/>
</g>
<!-- ms_appl_data.mstr_entities&#45;&gt;syst_enum_items -->
<g id="edge4" class="edge">
<title>ms_appl_data.mstr_entities:w&#45;&gt;syst_enum_items:e</title>
<path fill="none" stroke="black" d="M726.58,-710.86C708.91,-710.52 701.16,-698.14 688,-679 646.22,-618.25 721.73,-518 648,-511"/>
<polygon fill="black" stroke="black" points="733.07,-710.02 741.46,-712.57 737.03,-709.51 741,-709 741,-709 741,-709 737.03,-709.51 740.54,-705.43 733.07,-710.02 733.07,-710.02"/>
<ellipse fill="none" stroke="black" cx="729.89" cy="-710.43" rx="3.2" ry="3.2"/>
</g>
<!-- ms_appl_data.mstr_entity_person_roles -->
<g id="node4" class="node">
<title>ms_appl_data.mstr_entity_person_roles</title>
<g id="a_node4"><a xlink:href="../../../ms_appl_data/tables/mstr_entity_person_roles.html" xlink:title="ms_appl_data.mstr_entity_person_roles" target="_top">
<polygon fill="#ffffff" stroke="transparent" points="701.5,-603 701.5,-661 1006.5,-661 1006.5,-603 701.5,-603"/>
<polygon fill="#f5f5f5" stroke="transparent" points="702,-639 702,-661 1007,-661 1007,-639 702,-639"/>
<polygon fill="none" stroke="black" points="702,-639 702,-661 1007,-661 1007,-639 702,-639"/>
<text text-anchor="start" x="707" y="-648.2" font-family="Helvetica,sans-Serif" font-weight="bold" font-size="11.00">ms_appl_data.mstr_entity_person_roles</text>
<text text-anchor="start" x="972" y="-647.2" font-family="Helvetica,sans-Serif" font-size="11.00">[table]</text>
<polygon fill="none" stroke="black" points="702,-621 702,-639 1007,-639 1007,-621 702,-621"/>
<text text-anchor="start" x="705" y="-627.2" font-family="Helvetica,sans-Serif" font-size="11.00">...</text>
<polygon fill="#ffffff" stroke="transparent" points="702,-603 702,-621 852,-621 852,-603 702,-603"/>
<polygon fill="none" stroke="black" points="702,-603 702,-621 852,-621 852,-603 702,-603"/>
<text text-anchor="start" x="705" y="-609.2" font-family="Helvetica,sans-Serif" font-size="11.00">&lt; 1</text>
<polygon fill="#ffffff" stroke="transparent" points="852,-603 852,-621 929,-621 929,-603 852,-603"/>
<polygon fill="none" stroke="black" points="852,-603 852,-621 929,-621 929,-603 852,-603"/>
<text text-anchor="start" x="919" y="-609.2" font-family="Helvetica,sans-Serif" font-size="11.00"> &#160;</text>
<polygon fill="#ffffff" stroke="transparent" points="929,-603 929,-621 1007,-621 1007,-603 929,-603"/>
<polygon fill="none" stroke="black" points="929,-603 929,-621 1007,-621 1007,-603 929,-603"/>
<text text-anchor="start" x="997" y="-609.2" font-family="Helvetica,sans-Serif" font-size="11.00"> &#160;</text>
</a>
</g>
</g>
<!-- ms_appl_data.mstr_entity_person_roles&#45;&gt;syst_enum_items -->
<g id="edge5" class="edge">
<title>ms_appl_data.mstr_entity_person_roles:w&#45;&gt;syst_enum_items:e</title>
<path fill="none" stroke="black" d="M686.84,-626.57C654.61,-607.06 700.02,-511 648,-511"/>
<polygon fill="black" stroke="black" points="693.23,-628.11 700.15,-633.5 697.11,-629.06 701,-630 701,-630 701,-630 697.11,-629.06 701.85,-626.5 693.23,-628.11 693.23,-628.11"/>
<ellipse fill="none" stroke="black" cx="690.12" cy="-627.36" rx="3.2" ry="3.2"/>
</g>
<!-- ms_appl_data.mstr_person_contact_roles -->
<g id="node5" class="node">
<title>ms_appl_data.mstr_person_contact_roles</title>
<g id="a_node5"><a xlink:href="../../../ms_appl_data/tables/mstr_person_contact_roles.html" xlink:title="ms_appl_data.mstr_person_contact_roles" target="_top">
<polygon fill="#ffffff" stroke="transparent" points="696,-524 696,-582 1012,-582 1012,-524 696,-524"/>
<polygon fill="#f5f5f5" stroke="transparent" points="696,-560 696,-582 1012,-582 1012,-560 696,-560"/>
<polygon fill="none" stroke="black" points="696,-560 696,-582 1012,-582 1012,-560 696,-560"/>
<text text-anchor="start" x="701" y="-569.2" font-family="Helvetica,sans-Serif" font-weight="bold" font-size="11.00">ms_appl_data.mstr_person_contact_roles</text>
<text text-anchor="start" x="977" y="-568.2" font-family="Helvetica,sans-Serif" font-size="11.00">[table]</text>
<polygon fill="none" stroke="black" points="696,-542 696,-560 1012,-560 1012,-542 696,-542"/>
<text text-anchor="start" x="699" y="-548.2" font-family="Helvetica,sans-Serif" font-size="11.00">...</text>
<polygon fill="#ffffff" stroke="transparent" points="696,-524 696,-542 852,-542 852,-524 696,-524"/>
<polygon fill="none" stroke="black" points="696,-524 696,-542 852,-542 852,-524 696,-524"/>
<text text-anchor="start" x="699" y="-530.2" font-family="Helvetica,sans-Serif" font-size="11.00">&lt; 1</text>
<polygon fill="#ffffff" stroke="transparent" points="852,-524 852,-542 932,-542 932,-524 852,-524"/>
<polygon fill="none" stroke="black" points="852,-524 852,-542 932,-542 932,-524 852,-524"/>
<text text-anchor="start" x="922" y="-530.2" font-family="Helvetica,sans-Serif" font-size="11.00"> &#160;</text>
<polygon fill="#ffffff" stroke="transparent" points="932,-524 932,-542 1012,-542 1012,-524 932,-524"/>
<polygon fill="none" stroke="black" points="932,-524 932,-542 1012,-542 1012,-524 932,-524"/>
<text text-anchor="start" x="1002" y="-530.2" font-family="Helvetica,sans-Serif" font-size="11.00"> &#160;</text>
</a>
</g>
</g>
<!-- ms_appl_data.mstr_person_contact_roles&#45;&gt;syst_enum_items -->
<g id="edge6" class="edge">
<title>ms_appl_data.mstr_person_contact_roles:w&#45;&gt;syst_enum_items:e</title>
<path fill="none" stroke="black" d="M681.33,-546.1C669.32,-535.41 669.43,-511 648,-511"/>
<polygon fill="black" stroke="black" points="687.47,-548.3 693.78,-554.39 691.23,-549.65 695,-551 695,-551 695,-551 691.23,-549.65 696.22,-547.61 687.47,-548.3 687.47,-548.3"/>
<ellipse fill="none" stroke="black" cx="684.46" cy="-547.22" rx="3.2" ry="3.2"/>
</g>
<!-- ms_appl_data.mstr_persons -->
<g id="node6" class="node">
<title>ms_appl_data.mstr_persons</title>
<g id="a_node6"><a xlink:href="../../../ms_appl_data/tables/mstr_persons.html" xlink:title="ms_appl_data.mstr_persons" target="_top">
<polygon fill="#ffffff" stroke="transparent" points="740.5,-445 740.5,-503 967.5,-503 967.5,-445 740.5,-445"/>
<polygon fill="#f5f5f5" stroke="transparent" points="741,-481 741,-503 968,-503 968,-481 741,-481"/>
<polygon fill="none" stroke="black" points="741,-481 741,-503 968,-503 968,-481 741,-481"/>
<text text-anchor="start" x="746" y="-490.2" font-family="Helvetica,sans-Serif" font-weight="bold" font-size="11.00">ms_appl_data.mstr_persons</text>
<text text-anchor="start" x="933" y="-489.2" font-family="Helvetica,sans-Serif" font-size="11.00">[table]</text>
<polygon fill="none" stroke="black" points="741,-463 741,-481 968,-481 968,-463 741,-463"/>
<text text-anchor="start" x="744" y="-469.2" font-family="Helvetica,sans-Serif" font-size="11.00">...</text>
<polygon fill="#ffffff" stroke="transparent" points="741,-445 741,-463 852,-463 852,-445 741,-445"/>
<polygon fill="none" stroke="black" points="741,-445 741,-463 852,-463 852,-445 741,-445"/>
<text text-anchor="start" x="744" y="-451.2" font-family="Helvetica,sans-Serif" font-size="11.00">&lt; 2</text>
<polygon fill="#ffffff" stroke="transparent" points="852,-445 852,-463 910,-463 910,-445 852,-445"/>
<polygon fill="none" stroke="black" points="852,-445 852,-463 910,-463 910,-445 852,-445"/>
<text text-anchor="start" x="900" y="-451.2" font-family="Helvetica,sans-Serif" font-size="11.00"> &#160;</text>
<polygon fill="#ffffff" stroke="transparent" points="910,-445 910,-463 968,-463 968,-445 910,-445"/>
<polygon fill="none" stroke="black" points="910,-445 910,-463 968,-463 968,-445 910,-445"/>
<text text-anchor="start" x="958" y="-451.2" font-family="Helvetica,sans-Serif" font-size="11.00"> &#160;</text>
</a>
</g>
</g>
<!-- ms_appl_data.mstr_persons&#45;&gt;syst_enum_items -->
<g id="edge7" class="edge">
<title>ms_appl_data.mstr_persons:w&#45;&gt;syst_enum_items:e</title>
<path fill="none" stroke="black" d="M725.53,-471.66C694.21,-474.96 687.03,-505.73 648,-511"/>
<polygon fill="black" stroke="black" points="732,-471.81 739.92,-475.6 736,-471.91 740,-472 740,-472 740,-472 736,-471.91 740.08,-468.4 732,-471.81 732,-471.81"/>
<ellipse fill="none" stroke="black" cx="728.8" cy="-471.74" rx="3.2" ry="3.2"/>
</g>
<!-- ms_appl_data.mstr_persons&#45;&gt;syst_enum_items -->
<g id="edge8" class="edge">
<title>ms_appl_data.mstr_persons:w&#45;&gt;syst_enum_items:e</title>
<path fill="none" stroke="black" d="M725.95,-475.65C694.28,-487.51 687.21,-517.18 648,-511"/>
<polygon fill="black" stroke="black" points="732.26,-474.01 740.91,-475.48 736.13,-473.01 740,-472 740,-472 740,-472 736.13,-473.01 739.09,-468.52 732.26,-474.01 732.26,-474.01"/>
<ellipse fill="none" stroke="black" cx="729.16" cy="-474.82" rx="3.2" ry="3.2"/>
</g>
<!-- ms_appl_data.mstr_places -->
<g id="node7" class="node">
<title>ms_appl_data.mstr_places</title>
<g id="a_node7"><a xlink:href="../../../ms_appl_data/tables/mstr_places.html" xlink:title="ms_appl_data.mstr_places" target="_top">
<polygon fill="#ffffff" stroke="transparent" points="746,-366 746,-424 962,-424 962,-366 746,-366"/>
<polygon fill="#f5f5f5" stroke="transparent" points="746,-402 746,-424 962,-424 962,-402 746,-402"/>
<polygon fill="none" stroke="black" points="746,-402 746,-424 962,-424 962,-402 746,-402"/>
<text text-anchor="start" x="751" y="-411.2" font-family="Helvetica,sans-Serif" font-weight="bold" font-size="11.00">ms_appl_data.mstr_places</text>
<text text-anchor="start" x="927" y="-410.2" font-family="Helvetica,sans-Serif" font-size="11.00">[table]</text>
<polygon fill="none" stroke="black" points="746,-384 746,-402 962,-402 962,-384 746,-384"/>
<text text-anchor="start" x="749" y="-390.2" font-family="Helvetica,sans-Serif" font-size="11.00">...</text>
<polygon fill="#ffffff" stroke="transparent" points="746,-366 746,-384 852,-384 852,-366 746,-366"/>
<polygon fill="none" stroke="black" points="746,-366 746,-384 852,-384 852,-366 746,-366"/>
<text text-anchor="start" x="749" y="-372.2" font-family="Helvetica,sans-Serif" font-size="11.00">&lt; 2</text>
<polygon fill="#ffffff" stroke="transparent" points="852,-366 852,-384 907,-384 907,-366 852,-366"/>
<polygon fill="none" stroke="black" points="852,-366 852,-384 907,-384 907,-366 852,-366"/>
<text text-anchor="start" x="897" y="-372.2" font-family="Helvetica,sans-Serif" font-size="11.00"> &#160;</text>
<polygon fill="#ffffff" stroke="transparent" points="907,-366 907,-384 962,-384 962,-366 907,-366"/>
<polygon fill="none" stroke="black" points="907,-366 907,-384 962,-384 962,-366 907,-366"/>
<text text-anchor="start" x="952" y="-372.2" font-family="Helvetica,sans-Serif" font-size="11.00"> &#160;</text>
</a>
</g>
</g>
<!-- ms_appl_data.mstr_places&#45;&gt;syst_enum_items -->
<g id="edge9" class="edge">
<title>ms_appl_data.mstr_places:w&#45;&gt;syst_enum_items:e</title>
<path fill="none" stroke="black" d="M730.63,-391.97C711.29,-393.55 704.91,-409.33 688,-429 663.12,-457.94 686.17,-505 648,-511"/>
<polygon fill="black" stroke="black" points="737.02,-392.43 744.74,-396.59 741.01,-392.71 745,-393 745,-393 745,-393 741.01,-392.71 745.26,-389.41 737.02,-392.43 737.02,-392.43"/>
<ellipse fill="none" stroke="black" cx="733.83" cy="-392.2" rx="3.2" ry="3.2"/>
</g>
<!-- ms_appl_data.mstr_places&#45;&gt;syst_enum_items -->
<g id="edge10" class="edge">
<title>ms_appl_data.mstr_places:w&#45;&gt;syst_enum_items:e</title>
<path fill="none" stroke="black" d="M731.18,-397.44C711.41,-406.25 705.07,-422.15 688,-442 663.12,-470.94 686.17,-518 648,-511"/>
<polygon fill="black" stroke="black" points="737.38,-395.45 746.1,-396.43 741.19,-394.22 745,-393 745,-393 745,-393 741.19,-394.22 743.9,-389.57 737.38,-395.45 737.38,-395.45"/>
<ellipse fill="none" stroke="black" cx="734.34" cy="-396.43" rx="3.2" ry="3.2"/>
</g>
<!-- syst_enum_functional_types&#45;&gt;syst_enums -->
<g id="edge11" class="edge">
<title>syst_enum_functional_types:w&#45;&gt;syst_enums:e</title>
<path fill="none" stroke="black" d="M160.6,-410.98C149.25,-418.49 145.4,-434 127,-434"/>
<polygon fill="black" stroke="black" points="166.81,-409.2 175.49,-410.46 170.65,-408.1 174.5,-407 174.5,-407 174.5,-407 170.65,-408.1 173.51,-403.54 166.81,-409.2 166.81,-409.2"/>
<ellipse fill="none" stroke="black" cx="163.73" cy="-410.09" rx="3.2" ry="3.2"/>
</g>
<!-- syst_interaction_logs -->
<g id="node10" class="node">
<title>syst_interaction_logs</title>
<g id="a_node10"><a xlink:href="../../tables/syst_interaction_logs.html" xlink:title="syst_interaction_logs" target="_top">
<polygon fill="#ffffff" stroke="transparent" points="706,-37 706,-345 1002,-345 1002,-37 706,-37"/>
<polygon fill="#f5f5f5" stroke="transparent" points="708,-321 708,-343 1000,-343 1000,-321 708,-321"/>
<polygon fill="none" stroke="black" points="708,-321 708,-343 1000,-343 1000,-321 708,-321"/>
<text text-anchor="start" x="713" y="-330.2" font-family="Helvetica,sans-Serif" font-weight="bold" font-size="11.00">syst_interaction_logs</text>
<text text-anchor="start" x="965" y="-329.2" font-family="Helvetica,sans-Serif" font-size="11.00">[table]</text>
<polygon fill="none" stroke="black" points="708,-299 708,-321 902,-321 902,-299 708,-299"/>
<image xlink:href="../../images/primaryKeys.png" width="11px" height="12px" preserveAspectRatio="xMinYMin meet" x="713" y="-316"/>
<text text-anchor="start" x="728" y="-307.2" font-family="Helvetica,sans-Serif" font-size="11.00">id</text>
<polygon fill="none" stroke="black" points="902,-299 902,-321 1000,-321 1000,-299 902,-299"/>
<text text-anchor="start" x="905" y="-307.2" font-family="Helvetica,sans-Serif" font-size="11.00">uuid[2147483647]</text>
<polygon fill="#ffffff" stroke="transparent" points="708,-277 708,-299 902,-299 902,-277 708,-277"/>
<polygon fill="none" stroke="black" points="708,-277 708,-299 902,-299 902,-277 708,-277"/>
<text text-anchor="start" x="728" y="-285.2" font-family="Helvetica,sans-Serif" font-size="11.00">interaction_timestamp</text>
<polygon fill="none" stroke="black" points="902,-277 902,-299 1000,-299 1000,-277 902,-277"/>
<text text-anchor="start" x="905" y="-285.2" font-family="Helvetica,sans-Serif" font-size="11.00">timestamptz[35,6]</text>
<polygon fill="none" stroke="black" points="708,-255 708,-277 902,-277 902,-255 708,-255"/>
<image xlink:href="../../images/foreignKeys.png" width="11px" height="12px" preserveAspectRatio="xMinYMin meet" x="713" y="-272"/>
<text text-anchor="start" x="728" y="-263.2" font-family="Helvetica,sans-Serif" font-size="11.00">interaction_type_id</text>
<polygon fill="none" stroke="black" points="902,-255 902,-277 1000,-277 1000,-255 902,-255"/>
<text text-anchor="start" x="905" y="-263.2" font-family="Helvetica,sans-Serif" font-size="11.00">uuid[2147483647]</text>
<polygon fill="none" stroke="black" points="708,-233 708,-255 902,-255 902,-233 708,-233"/>
<image xlink:href="../../images/foreignKeys.png" width="11px" height="12px" preserveAspectRatio="xMinYMin meet" x="713" y="-250"/>
<text text-anchor="start" x="728" y="-241.2" font-family="Helvetica,sans-Serif" font-size="11.00">interface_type_id</text>
<polygon fill="none" stroke="black" points="902,-233 902,-255 1000,-255 1000,-233 902,-233"/>
<text text-anchor="start" x="905" y="-241.2" font-family="Helvetica,sans-Serif" font-size="11.00">uuid[2147483647]</text>
<polygon fill="none" stroke="black" points="708,-211 708,-233 902,-233 902,-211 708,-211"/>
<text text-anchor="start" x="728" y="-219.2" font-family="Helvetica,sans-Serif" font-size="11.00">data</text>
<polygon fill="none" stroke="black" points="902,-211 902,-233 1000,-233 1000,-211 902,-211"/>
<text text-anchor="start" x="905" y="-219.2" font-family="Helvetica,sans-Serif" font-size="11.00">jsonb[2147483647]</text>
<polygon fill="none" stroke="black" points="708,-189 708,-211 902,-211 902,-189 708,-189"/>
<text text-anchor="start" x="728" y="-197.2" font-family="Helvetica,sans-Serif" font-size="11.00">diag_timestamp_created</text>
<polygon fill="none" stroke="black" points="902,-189 902,-211 1000,-211 1000,-189 902,-189"/>
<text text-anchor="start" x="905" y="-197.2" font-family="Helvetica,sans-Serif" font-size="11.00">timestamptz[35,6]</text>
<polygon fill="none" stroke="black" points="708,-167 708,-189 902,-189 902,-167 708,-167"/>
<text text-anchor="start" x="728" y="-175.2" font-family="Helvetica,sans-Serif" font-size="11.00">diag_role_created</text>
<polygon fill="none" stroke="black" points="902,-167 902,-189 1000,-189 1000,-167 902,-167"/>
<text text-anchor="start" x="905" y="-175.2" font-family="Helvetica,sans-Serif" font-size="11.00">text[2147483647]</text>
<polygon fill="none" stroke="black" points="708,-145 708,-167 902,-167 902,-145 708,-145"/>
<text text-anchor="start" x="728" y="-153.2" font-family="Helvetica,sans-Serif" font-size="11.00">diag_timestamp_modified</text>
<polygon fill="none" stroke="black" points="902,-145 902,-167 1000,-167 1000,-145 902,-145"/>
<text text-anchor="start" x="905" y="-153.2" font-family="Helvetica,sans-Serif" font-size="11.00">timestamptz[35,6]</text>
<polygon fill="none" stroke="black" points="708,-123 708,-145 902,-145 902,-123 708,-123"/>
<text text-anchor="start" x="728" y="-131.2" font-family="Helvetica,sans-Serif" font-size="11.00">diag_wallclock_modified</text>
<polygon fill="none" stroke="black" points="902,-123 902,-145 1000,-145 1000,-123 902,-123"/>
<text text-anchor="start" x="905" y="-131.2" font-family="Helvetica,sans-Serif" font-size="11.00">timestamptz[35,6]</text>
<polygon fill="none" stroke="black" points="708,-101 708,-123 902,-123 902,-101 708,-101"/>
<text text-anchor="start" x="728" y="-109.2" font-family="Helvetica,sans-Serif" font-size="11.00">diag_role_modified</text>
<polygon fill="none" stroke="black" points="902,-101 902,-123 1000,-123 1000,-101 902,-101"/>
<text text-anchor="start" x="905" y="-109.2" font-family="Helvetica,sans-Serif" font-size="11.00">text[2147483647]</text>
<polygon fill="none" stroke="black" points="708,-79 708,-101 902,-101 902,-79 708,-79"/>
<text text-anchor="start" x="728" y="-87.2" font-family="Helvetica,sans-Serif" font-size="11.00">diag_row_version</text>
<polygon fill="none" stroke="black" points="902,-79 902,-101 1000,-101 1000,-79 902,-79"/>
<text text-anchor="start" x="905" y="-87.2" font-family="Helvetica,sans-Serif" font-size="11.00">int8[19]</text>
<polygon fill="none" stroke="black" points="708,-57 708,-79 902,-79 902,-57 708,-57"/>
<text text-anchor="start" x="728" y="-65.2" font-family="Helvetica,sans-Serif" font-size="11.00">diag_update_count</text>
<polygon fill="none" stroke="black" points="902,-57 902,-79 1000,-79 1000,-57 902,-57"/>
<text text-anchor="start" x="905" y="-65.2" font-family="Helvetica,sans-Serif" font-size="11.00">int8[19]</text>
<polygon fill="#ffffff" stroke="transparent" points="708,-39 708,-57 809,-57 809,-39 708,-39"/>
<polygon fill="none" stroke="black" points="708,-39 708,-57 809,-57 809,-39 708,-39"/>
<text text-anchor="start" x="711" y="-45.2" font-family="Helvetica,sans-Serif" font-size="11.00">&lt; 2</text>
<polygon fill="#ffffff" stroke="transparent" points="809,-39 809,-57 902,-57 902,-39 809,-39"/>
<polygon fill="none" stroke="black" points="809,-39 809,-57 902,-57 902,-39 809,-39"/>
<text text-anchor="start" x="892" y="-45.2" font-family="Helvetica,sans-Serif" font-size="11.00"> &#160;</text>
<polygon fill="#ffffff" stroke="transparent" points="902,-39 902,-57 1000,-57 1000,-39 902,-39"/>
<polygon fill="none" stroke="black" points="902,-39 902,-57 1000,-57 1000,-39 902,-39"/>
<text text-anchor="start" x="981" y="-45.2" font-family="Helvetica,sans-Serif" font-size="11.00">0 &gt;</text>
<polygon fill="none" stroke="black" stroke-width="2" points="707,-38 707,-344 1001,-344 1001,-38 707,-38"/>
</a>
</g>
</g>
<!-- syst_interaction_logs&#45;&gt;syst_enum_items -->
<g id="edge14" class="edge">
<title>syst_interaction_logs:w&#45;&gt;syst_enum_items:e</title>
<path fill="none" stroke="black" d="M693.73,-272.3C660.15,-310.65 698.64,-511 648,-511"/>
<polygon fill="black" stroke="black" points="699.77,-269.43 708.54,-269.25 703.39,-267.72 707,-266 707,-266 707,-266 703.39,-267.72 705.46,-262.75 699.77,-269.43 699.77,-269.43"/>
<ellipse fill="none" stroke="black" cx="696.88" cy="-270.8" rx="3.2" ry="3.2"/>
</g>
<!-- syst_interaction_logs&#45;&gt;syst_enum_items -->
<g id="edge15" class="edge">
<title>syst_interaction_logs:w&#45;&gt;syst_enum_items:e</title>
<path fill="none" stroke="black" d="M693.67,-249.82C656.27,-288.87 703.42,-511 648,-511"/>
<polygon fill="black" stroke="black" points="699.67,-247.2 708.44,-247.3 703.33,-245.6 707,-244 707,-244 707,-244 703.33,-245.6 705.56,-240.7 699.67,-247.2 699.67,-247.2"/>
<ellipse fill="none" stroke="black" cx="696.74" cy="-248.48" rx="3.2" ry="3.2"/>
</g>
</g>
</svg>
