<?xml version="1.0" encoding="UTF-8" standalone="no"?>
<!DOCTYPE svg PUBLIC "-//W3C//DTD SVG 1.1//EN"
 "http://www.w3.org/Graphics/SVG/1.1/DTD/svg11.dtd">
<!-- Generated by graphviz version 2.43.0 (0)
 -->
<!-- Title: oneDegreeRelationshipsDiagram Pages: 1 -->
<svg width="1017pt" height="676pt"
 viewBox="0.00 0.00 1017.00 676.00" xmlns="http://www.w3.org/2000/svg" xmlns:xlink="http://www.w3.org/1999/xlink">
<g id="graph0" class="graph" transform="scale(1 1) rotate(0) translate(4 672)">
<title>oneDegreeRelationshipsDiagram</title>
<polygon fill="#ffffff" stroke="transparent" points="-4,4 -4,-672 1013,-672 1013,4 -4,4"/>
<text text-anchor="middle" x="71.5" y="-7.2" font-family="Helvetica,sans-Serif" font-size="11.00">Generated by SchemaSpy</text>
<!-- ms_appl_data.mstr_country_address_format_assocs -->
<g id="node1" class="node">
<title>ms_appl_data.mstr_country_address_format_assocs</title>
<g id="a_node1"><a xlink:href="../../../ms_appl_data/tables/mstr_country_address_format_assocs.html" xlink:title="ms_appl_data.mstr_country_address_format_assocs" target="_top">
<polygon fill="#ffffff" stroke="transparent" points="614,-584 614,-664 1001,-664 1001,-584 614,-584"/>
<polygon fill="#f5f5f5" stroke="transparent" points="614.5,-642 614.5,-664 1001.5,-664 1001.5,-642 614.5,-642"/>
<polygon fill="none" stroke="black" points="614.5,-642 614.5,-664 1001.5,-664 1001.5,-642 614.5,-642"/>
<text text-anchor="start" x="619.5" y="-651.2" font-family="Helvetica,sans-Serif" font-weight="bold" font-size="11.00">ms_appl_data.mstr_country_address_format_assocs</text>
<text text-anchor="start" x="966.5" y="-650.2" font-family="Helvetica,sans-Serif" font-size="11.00">[table]</text>
<polygon fill="none" stroke="black" points="614.5,-620 614.5,-642 1001.5,-642 1001.5,-620 614.5,-620"/>
<image xlink:href="../../images/foreignKeys.png" width="11px" height="12px" preserveAspectRatio="xMinYMin meet" x="619.5" y="-637"/>
<text text-anchor="start" x="692.5" y="-628.2" font-family="Helvetica,sans-Serif" font-size="11.00">address_format_id</text>
<polygon fill="none" stroke="black" points="614.5,-602 614.5,-620 1001.5,-620 1001.5,-602 614.5,-602"/>
<text text-anchor="start" x="617.5" y="-608.2" font-family="Helvetica,sans-Serif" font-size="11.00">...</text>
<polygon fill="#ffffff" stroke="transparent" points="614.5,-584 614.5,-602 805.5,-602 805.5,-584 614.5,-584"/>
<polygon fill="none" stroke="black" points="614.5,-584 614.5,-602 805.5,-602 805.5,-584 614.5,-584"/>
<text text-anchor="start" x="617.5" y="-590.2" font-family="Helvetica,sans-Serif" font-size="11.00">&lt; 1</text>
<polygon fill="#ffffff" stroke="transparent" points="805.5,-584 805.5,-602 903.5,-602 903.5,-584 805.5,-584"/>
<polygon fill="none" stroke="black" points="805.5,-584 805.5,-602 903.5,-602 903.5,-584 805.5,-584"/>
<text text-anchor="start" x="893.5" y="-590.2" font-family="Helvetica,sans-Serif" font-size="11.00"> &#160;</text>
<polygon fill="#ffffff" stroke="transparent" points="903.5,-584 903.5,-602 1001.5,-602 1001.5,-584 903.5,-584"/>
<polygon fill="none" stroke="black" points="903.5,-584 903.5,-602 1001.5,-602 1001.5,-584 903.5,-584"/>
<text text-anchor="start" x="991.5" y="-590.2" font-family="Helvetica,sans-Serif" font-size="11.00"> &#160;</text>
</a>
</g>
</g>
<!-- syst_complex_format_values -->
<g id="node2" class="node">
<title>syst_complex_format_values</title>
<g id="a_node2"><a xlink:href="../../tables/syst_complex_format_values.html" xlink:title="syst_complex_format_values" target="_top">
<polygon fill="#ffffff" stroke="transparent" points="251,-37 251,-565 565,-565 565,-37 251,-37"/>
<polygon fill="#f5f5f5" stroke="transparent" points="253,-541 253,-563 563,-563 563,-541 253,-541"/>
<polygon fill="none" stroke="black" points="253,-541 253,-563 563,-563 563,-541 253,-541"/>
<text text-anchor="start" x="258" y="-550.2" font-family="Helvetica,sans-Serif" font-weight="bold" font-size="11.00">syst_complex_format_values</text>
<text text-anchor="start" x="528" y="-549.2" font-family="Helvetica,sans-Serif" font-size="11.00">[table]</text>
<polygon fill="none" stroke="black" points="253,-519 253,-541 465,-541 465,-519 253,-519"/>
<image xlink:href="../../images/primaryKeys.png" width="11px" height="12px" preserveAspectRatio="xMinYMin meet" x="258" y="-536"/>
<text text-anchor="start" x="273" y="-527.2" font-family="Helvetica,sans-Serif" font-size="11.00">id</text>
<polygon fill="none" stroke="black" points="465,-519 465,-541 563,-541 563,-519 465,-519"/>
<text text-anchor="start" x="468" y="-527.2" font-family="Helvetica,sans-Serif" font-size="11.00">uuid[2147483647]</text>
<polygon fill="#ffffff" stroke="transparent" points="253,-497 253,-519 465,-519 465,-497 253,-497"/>
<polygon fill="none" stroke="black" points="253,-497 253,-519 465,-519 465,-497 253,-497"/>
<text text-anchor="start" x="273" y="-505.2" font-family="Helvetica,sans-Serif" font-size="11.00">internal_name</text>
<polygon fill="none" stroke="black" points="465,-497 465,-519 563,-519 563,-497 465,-497"/>
<text text-anchor="start" x="468" y="-505.2" font-family="Helvetica,sans-Serif" font-size="11.00">text[2147483647]</text>
<polygon fill="#ffffff" stroke="transparent" points="253,-475 253,-497 465,-497 465,-475 253,-475"/>
<polygon fill="none" stroke="black" points="253,-475 253,-497 465,-497 465,-475 253,-475"/>
<text text-anchor="start" x="273" y="-483.2" font-family="Helvetica,sans-Serif" font-size="11.00">display_name</text>
<polygon fill="none" stroke="black" points="465,-475 465,-497 563,-497 563,-475 465,-475"/>
<text text-anchor="start" x="468" y="-483.2" font-family="Helvetica,sans-Serif" font-size="11.00">text[2147483647]</text>
<polygon fill="none" stroke="black" points="253,-453 253,-475 465,-475 465,-453 253,-453"/>
<text text-anchor="start" x="273" y="-461.2" font-family="Helvetica,sans-Serif" font-size="11.00">external_name</text>
<polygon fill="none" stroke="black" points="465,-453 465,-475 563,-475 563,-453 465,-453"/>
<text text-anchor="start" x="468" y="-461.2" font-family="Helvetica,sans-Serif" font-size="11.00">text[2147483647]</text>
<polygon fill="none" stroke="black" points="253,-431 253,-453 465,-453 465,-431 253,-431"/>
<image xlink:href="../../images/foreignKeys.png" width="11px" height="12px" preserveAspectRatio="xMinYMin meet" x="258" y="-448"/>
<text text-anchor="start" x="273" y="-439.2" font-family="Helvetica,sans-Serif" font-size="11.00">complex_format_id</text>
<polygon fill="none" stroke="black" points="465,-431 465,-453 563,-453 563,-431 465,-431"/>
<text text-anchor="start" x="468" y="-439.2" font-family="Helvetica,sans-Serif" font-size="11.00">uuid[2147483647]</text>
<polygon fill="none" stroke="black" points="253,-409 253,-431 465,-431 465,-409 253,-409"/>
<text text-anchor="start" x="273" y="-417.2" font-family="Helvetica,sans-Serif" font-size="11.00">format_default</text>
<polygon fill="none" stroke="black" points="465,-409 465,-431 563,-431 563,-409 465,-409"/>
<text text-anchor="start" x="468" y="-417.2" font-family="Helvetica,sans-Serif" font-size="11.00">bool[1]</text>
<polygon fill="none" stroke="black" points="253,-387 253,-409 465,-409 465,-387 253,-387"/>
<text text-anchor="start" x="273" y="-395.2" font-family="Helvetica,sans-Serif" font-size="11.00">syst_defined</text>
<polygon fill="none" stroke="black" points="465,-387 465,-409 563,-409 563,-387 465,-387"/>
<text text-anchor="start" x="468" y="-395.2" font-family="Helvetica,sans-Serif" font-size="11.00">bool[1]</text>
<polygon fill="none" stroke="black" points="253,-365 253,-387 465,-387 465,-365 253,-365"/>
<text text-anchor="start" x="273" y="-373.2" font-family="Helvetica,sans-Serif" font-size="11.00">user_maintainable</text>
<polygon fill="none" stroke="black" points="465,-365 465,-387 563,-387 563,-365 465,-365"/>
<text text-anchor="start" x="468" y="-373.2" font-family="Helvetica,sans-Serif" font-size="11.00">bool[1]</text>
<polygon fill="none" stroke="black" points="253,-343 253,-365 465,-365 465,-343 253,-343"/>
<text text-anchor="start" x="273" y="-351.2" font-family="Helvetica,sans-Serif" font-size="11.00">syst_description</text>
<polygon fill="none" stroke="black" points="465,-343 465,-365 563,-365 563,-343 465,-343"/>
<text text-anchor="start" x="468" y="-351.2" font-family="Helvetica,sans-Serif" font-size="11.00">text[2147483647]</text>
<polygon fill="none" stroke="black" points="253,-321 253,-343 465,-343 465,-321 253,-321"/>
<text text-anchor="start" x="273" y="-329.2" font-family="Helvetica,sans-Serif" font-size="11.00">user_description</text>
<polygon fill="none" stroke="black" points="465,-321 465,-343 563,-343 563,-321 465,-321"/>
<text text-anchor="start" x="468" y="-329.2" font-family="Helvetica,sans-Serif" font-size="11.00">text[2147483647]</text>
<polygon fill="none" stroke="black" points="253,-299 253,-321 465,-321 465,-299 253,-299"/>
<text text-anchor="start" x="273" y="-307.2" font-family="Helvetica,sans-Serif" font-size="11.00">sort_order</text>
<polygon fill="none" stroke="black" points="465,-299 465,-321 563,-321 563,-299 465,-299"/>
<text text-anchor="start" x="468" y="-307.2" font-family="Helvetica,sans-Serif" font-size="11.00">int4[10]</text>
<polygon fill="none" stroke="black" points="253,-277 253,-299 465,-299 465,-277 253,-277"/>
<text text-anchor="start" x="273" y="-285.2" font-family="Helvetica,sans-Serif" font-size="11.00">syst_data</text>
<polygon fill="none" stroke="black" points="465,-277 465,-299 563,-299 563,-277 465,-277"/>
<text text-anchor="start" x="468" y="-285.2" font-family="Helvetica,sans-Serif" font-size="11.00">jsonb[2147483647]</text>
<polygon fill="none" stroke="black" points="253,-255 253,-277 465,-277 465,-255 253,-255"/>
<text text-anchor="start" x="273" y="-263.2" font-family="Helvetica,sans-Serif" font-size="11.00">syst_form</text>
<polygon fill="none" stroke="black" points="465,-255 465,-277 563,-277 563,-255 465,-255"/>
<text text-anchor="start" x="468" y="-263.2" font-family="Helvetica,sans-Serif" font-size="11.00">jsonb[2147483647]</text>
<polygon fill="none" stroke="black" points="253,-233 253,-255 465,-255 465,-233 253,-233"/>
<text text-anchor="start" x="273" y="-241.2" font-family="Helvetica,sans-Serif" font-size="11.00">user_data</text>
<polygon fill="none" stroke="black" points="465,-233 465,-255 563,-255 563,-233 465,-233"/>
<text text-anchor="start" x="468" y="-241.2" font-family="Helvetica,sans-Serif" font-size="11.00">jsonb[2147483647]</text>
<polygon fill="none" stroke="black" points="253,-211 253,-233 465,-233 465,-211 253,-211"/>
<text text-anchor="start" x="273" y="-219.2" font-family="Helvetica,sans-Serif" font-size="11.00">user_form</text>
<polygon fill="none" stroke="black" points="465,-211 465,-233 563,-233 563,-211 465,-211"/>
<text text-anchor="start" x="468" y="-219.2" font-family="Helvetica,sans-Serif" font-size="11.00">jsonb[2147483647]</text>
<polygon fill="none" stroke="black" points="253,-189 253,-211 465,-211 465,-189 253,-189"/>
<text text-anchor="start" x="273" y="-197.2" font-family="Helvetica,sans-Serif" font-size="11.00">diag_timestamp_created</text>
<polygon fill="none" stroke="black" points="465,-189 465,-211 563,-211 563,-189 465,-189"/>
<text text-anchor="start" x="468" y="-197.2" font-family="Helvetica,sans-Serif" font-size="11.00">timestamptz[35,6]</text>
<polygon fill="none" stroke="black" points="253,-167 253,-189 465,-189 465,-167 253,-167"/>
<text text-anchor="start" x="273" y="-175.2" font-family="Helvetica,sans-Serif" font-size="11.00">diag_role_created</text>
<polygon fill="none" stroke="black" points="465,-167 465,-189 563,-189 563,-167 465,-167"/>
<text text-anchor="start" x="468" y="-175.2" font-family="Helvetica,sans-Serif" font-size="11.00">text[2147483647]</text>
<polygon fill="none" stroke="black" points="253,-145 253,-167 465,-167 465,-145 253,-145"/>
<text text-anchor="start" x="273" y="-153.2" font-family="Helvetica,sans-Serif" font-size="11.00">diag_timestamp_modified</text>
<polygon fill="none" stroke="black" points="465,-145 465,-167 563,-167 563,-145 465,-145"/>
<text text-anchor="start" x="468" y="-153.2" font-family="Helvetica,sans-Serif" font-size="11.00">timestamptz[35,6]</text>
<polygon fill="none" stroke="black" points="253,-123 253,-145 465,-145 465,-123 253,-123"/>
<text text-anchor="start" x="273" y="-131.2" font-family="Helvetica,sans-Serif" font-size="11.00">diag_wallclock_modified</text>
<polygon fill="none" stroke="black" points="465,-123 465,-145 563,-145 563,-123 465,-123"/>
<text text-anchor="start" x="468" y="-131.2" font-family="Helvetica,sans-Serif" font-size="11.00">timestamptz[35,6]</text>
<polygon fill="none" stroke="black" points="253,-101 253,-123 465,-123 465,-101 253,-101"/>
<text text-anchor="start" x="273" y="-109.2" font-family="Helvetica,sans-Serif" font-size="11.00">diag_role_modified</text>
<polygon fill="none" stroke="black" points="465,-101 465,-123 563,-123 563,-101 465,-101"/>
<text text-anchor="start" x="468" y="-109.2" font-family="Helvetica,sans-Serif" font-size="11.00">text[2147483647]</text>
<polygon fill="none" stroke="black" points="253,-79 253,-101 465,-101 465,-79 253,-79"/>
<text text-anchor="start" x="273" y="-87.2" font-family="Helvetica,sans-Serif" font-size="11.00">diag_row_version</text>
<polygon fill="none" stroke="black" points="465,-79 465,-101 563,-101 563,-79 465,-79"/>
<text text-anchor="start" x="468" y="-87.2" font-family="Helvetica,sans-Serif" font-size="11.00">int8[19]</text>
<polygon fill="none" stroke="black" points="253,-57 253,-79 465,-79 465,-57 253,-57"/>
<text text-anchor="start" x="273" y="-65.2" font-family="Helvetica,sans-Serif" font-size="11.00">diag_update_count</text>
<polygon fill="none" stroke="black" points="465,-57 465,-79 563,-79 563,-57 465,-57"/>
<text text-anchor="start" x="468" y="-65.2" font-family="Helvetica,sans-Serif" font-size="11.00">int8[19]</text>
<polygon fill="#ffffff" stroke="transparent" points="253,-39 253,-57 363,-57 363,-39 253,-39"/>
<polygon fill="none" stroke="black" points="253,-39 253,-57 363,-57 363,-39 253,-39"/>
<text text-anchor="start" x="256" y="-45.2" font-family="Helvetica,sans-Serif" font-size="11.00">&lt; 1</text>
<polygon fill="#ffffff" stroke="transparent" points="363,-39 363,-57 465,-57 465,-39 363,-39"/>
<polygon fill="none" stroke="black" points="363,-39 363,-57 465,-57 465,-39 363,-39"/>
<text text-anchor="start" x="455" y="-45.2" font-family="Helvetica,sans-Serif" font-size="11.00"> &#160;</text>
<polygon fill="#ffffff" stroke="transparent" points="465,-39 465,-57 563,-57 563,-39 465,-39"/>
<polygon fill="none" stroke="black" points="465,-39 465,-57 563,-57 563,-39 465,-39"/>
<text text-anchor="start" x="544" y="-45.2" font-family="Helvetica,sans-Serif" font-size="11.00">3 &gt;</text>
<polygon fill="none" stroke="black" stroke-width="2" points="252,-38 252,-564 564,-564 564,-38 252,-38"/>
</a>
</g>
</g>
<!-- ms_appl_data.mstr_country_address_format_assocs&#45;&gt;syst_complex_format_values -->
<g id="edge1" class="edge">
<title>ms_appl_data.mstr_country_address_format_assocs:w&#45;&gt;syst_complex_format_values:e</title>
<path fill="none" stroke="black" d="M599.4,-626.92C574.26,-608.02 607.94,-530 564,-530"/>
<polygon fill="black" stroke="black" points="605.82,-628.77 612.5,-634.46 609.66,-629.89 613.5,-631 613.5,-631 613.5,-631 609.66,-629.89 614.5,-627.54 605.82,-628.77 605.82,-628.77"/>
<ellipse fill="none" stroke="black" cx="602.74" cy="-627.88" rx="3.2" ry="3.2"/>
</g>
<!-- syst_complex_formats -->
<g id="node5" class="node">
<title>syst_complex_formats</title>
<g id="a_node5"><a xlink:href="../../tables/syst_complex_formats.html" xlink:title="syst_complex_formats" target="_top">
<polygon fill="#ffffff" stroke="transparent" points="8,-351 8,-475 202,-475 202,-351 8,-351"/>
<polygon fill="#f5f5f5" stroke="transparent" points="8,-453 8,-475 202,-475 202,-453 8,-453"/>
<polygon fill="none" stroke="black" points="8,-453 8,-475 202,-475 202,-453 8,-453"/>
<text text-anchor="start" x="13" y="-462.2" font-family="Helvetica,sans-Serif" font-weight="bold" font-size="11.00">syst_complex_formats</text>
<text text-anchor="start" x="167" y="-461.2" font-family="Helvetica,sans-Serif" font-size="11.00">[table]</text>
<polygon fill="none" stroke="black" points="8,-431 8,-453 202,-453 202,-431 8,-431"/>
<image xlink:href="../../images/primaryKeys.png" width="11px" height="12px" preserveAspectRatio="xMinYMin meet" x="13" y="-448"/>
<text text-anchor="start" x="28" y="-439.2" font-family="Helvetica,sans-Serif" font-size="11.00">id</text>
<polygon fill="#ffffff" stroke="transparent" points="8,-409 8,-431 202,-431 202,-409 8,-409"/>
<polygon fill="none" stroke="black" points="8,-409 8,-431 202,-431 202,-409 8,-409"/>
<text text-anchor="start" x="28" y="-417.2" font-family="Helvetica,sans-Serif" font-size="11.00">internal_name</text>
<polygon fill="#ffffff" stroke="transparent" points="8,-387 8,-409 202,-409 202,-387 8,-387"/>
<polygon fill="none" stroke="black" points="8,-387 8,-409 202,-409 202,-387 8,-387"/>
<text text-anchor="start" x="28" y="-395.2" font-family="Helvetica,sans-Serif" font-size="11.00">display_name</text>
<polygon fill="none" stroke="black" points="8,-369 8,-387 202,-387 202,-369 8,-369"/>
<text text-anchor="start" x="11" y="-375.2" font-family="Helvetica,sans-Serif" font-size="11.00">...</text>
<polygon fill="#ffffff" stroke="transparent" points="8,-351 8,-369 94,-369 94,-351 8,-351"/>
<polygon fill="none" stroke="black" points="8,-351 8,-369 94,-369 94,-351 8,-351"/>
<text text-anchor="start" x="11" y="-357.2" font-family="Helvetica,sans-Serif" font-size="11.00"> &#160;</text>
<polygon fill="#ffffff" stroke="transparent" points="94,-351 94,-369 143,-369 143,-351 94,-351"/>
<polygon fill="none" stroke="black" points="94,-351 94,-369 143,-369 143,-351 94,-351"/>
<text text-anchor="start" x="133" y="-357.2" font-family="Helvetica,sans-Serif" font-size="11.00"> &#160;</text>
<polygon fill="#ffffff" stroke="transparent" points="143,-351 143,-369 202,-369 202,-351 143,-351"/>
<polygon fill="none" stroke="black" points="143,-351 143,-369 202,-369 202,-351 143,-351"/>
<text text-anchor="start" x="183" y="-357.2" font-family="Helvetica,sans-Serif" font-size="11.00">1 &gt;</text>
</a>
</g>
</g>
<!-- syst_complex_format_values&#45;&gt;syst_complex_formats -->
<g id="edge4" class="edge">
<title>syst_complex_format_values:w&#45;&gt;syst_complex_formats:e</title>
<path fill="none" stroke="black" d="M237.49,-442C226.18,-442 218.99,-442 203,-442"/>
<polygon fill="black" stroke="black" points="244,-442 252,-445.6 248,-442 252,-442 252,-442 252,-442 248,-442 252,-438.4 244,-442 244,-442"/>
<ellipse fill="none" stroke="black" cx="240.8" cy="-442" rx="3.2" ry="3.2"/>
</g>
<!-- ms_appl_data.mstr_country_name_format_assocs -->
<g id="node3" class="node">
<title>ms_appl_data.mstr_country_name_format_assocs</title>
<g id="a_node3"><a xlink:href="../../../ms_appl_data/tables/mstr_country_name_format_assocs.html" xlink:title="ms_appl_data.mstr_country_name_format_assocs" target="_top">
<polygon fill="#ffffff" stroke="transparent" points="622,-483 622,-563 993,-563 993,-483 622,-483"/>
<polygon fill="#f5f5f5" stroke="transparent" points="622.5,-541 622.5,-563 993.5,-563 993.5,-541 622.5,-541"/>
<polygon fill="none" stroke="black" points="622.5,-541 622.5,-563 993.5,-563 993.5,-541 622.5,-541"/>
<text text-anchor="start" x="627.5" y="-550.2" font-family="Helvetica,sans-Serif" font-weight="bold" font-size="11.00">ms_appl_data.mstr_country_name_format_assocs</text>
<text text-anchor="start" x="958.5" y="-549.2" font-family="Helvetica,sans-Serif" font-size="11.00">[table]</text>
<polygon fill="none" stroke="black" points="622.5,-519 622.5,-541 993.5,-541 993.5,-519 622.5,-519"/>
<image xlink:href="../../images/foreignKeys.png" width="11px" height="12px" preserveAspectRatio="xMinYMin meet" x="627.5" y="-536"/>
<text text-anchor="start" x="700.5" y="-527.2" font-family="Helvetica,sans-Serif" font-size="11.00">name_format_id</text>
<polygon fill="none" stroke="black" points="622.5,-501 622.5,-519 993.5,-519 993.5,-501 622.5,-501"/>
<text text-anchor="start" x="625.5" y="-507.2" font-family="Helvetica,sans-Serif" font-size="11.00">...</text>
<polygon fill="#ffffff" stroke="transparent" points="622.5,-483 622.5,-501 805.5,-501 805.5,-483 622.5,-483"/>
<polygon fill="none" stroke="black" points="622.5,-483 622.5,-501 805.5,-501 805.5,-483 622.5,-483"/>
<text text-anchor="start" x="625.5" y="-489.2" font-family="Helvetica,sans-Serif" font-size="11.00">&lt; 1</text>
<polygon fill="#ffffff" stroke="transparent" points="805.5,-483 805.5,-501 899.5,-501 899.5,-483 805.5,-483"/>
<polygon fill="none" stroke="black" points="805.5,-483 805.5,-501 899.5,-501 899.5,-483 805.5,-483"/>
<text text-anchor="start" x="889.5" y="-489.2" font-family="Helvetica,sans-Serif" font-size="11.00"> &#160;</text>
<polygon fill="#ffffff" stroke="transparent" points="899.5,-483 899.5,-501 993.5,-501 993.5,-483 899.5,-483"/>
<polygon fill="none" stroke="black" points="899.5,-483 899.5,-501 993.5,-501 993.5,-483 899.5,-483"/>
<text text-anchor="start" x="983.5" y="-489.2" font-family="Helvetica,sans-Serif" font-size="11.00"> &#160;</text>
</a>
</g>
</g>
<!-- ms_appl_data.mstr_country_name_format_assocs&#45;&gt;syst_complex_format_values -->
<g id="edge2" class="edge">
<title>ms_appl_data.mstr_country_name_format_assocs:w&#45;&gt;syst_complex_format_values:e</title>
<path fill="none" stroke="black" d="M607.08,-530C592.23,-530 583.97,-530 564,-530"/>
<polygon fill="black" stroke="black" points="613.5,-530 621.5,-533.6 617.5,-530 621.5,-530 621.5,-530 621.5,-530 617.5,-530 621.5,-526.4 613.5,-530 613.5,-530"/>
<ellipse fill="none" stroke="black" cx="610.3" cy="-530" rx="3.2" ry="3.2"/>
</g>
<!-- ms_appl_data.mstr_country_phone_format_assocs -->
<g id="node4" class="node">
<title>ms_appl_data.mstr_country_phone_format_assocs</title>
<g id="a_node4"><a xlink:href="../../../ms_appl_data/tables/mstr_country_phone_format_assocs.html" xlink:title="ms_appl_data.mstr_country_phone_format_assocs" target="_top">
<polygon fill="#ffffff" stroke="transparent" points="619.5,-382 619.5,-462 995.5,-462 995.5,-382 619.5,-382"/>
<polygon fill="#f5f5f5" stroke="transparent" points="619.5,-440 619.5,-462 995.5,-462 995.5,-440 619.5,-440"/>
<polygon fill="none" stroke="black" points="619.5,-440 619.5,-462 995.5,-462 995.5,-440 619.5,-440"/>
<text text-anchor="start" x="624.5" y="-449.2" font-family="Helvetica,sans-Serif" font-weight="bold" font-size="11.00">ms_appl_data.mstr_country_phone_format_assocs</text>
<text text-anchor="start" x="960.5" y="-448.2" font-family="Helvetica,sans-Serif" font-size="11.00">[table]</text>
<polygon fill="none" stroke="black" points="619.5,-418 619.5,-440 995.5,-440 995.5,-418 619.5,-418"/>
<image xlink:href="../../images/foreignKeys.png" width="11px" height="12px" preserveAspectRatio="xMinYMin meet" x="624.5" y="-435"/>
<text text-anchor="start" x="697.5" y="-426.2" font-family="Helvetica,sans-Serif" font-size="11.00">phone_format_id</text>
<polygon fill="none" stroke="black" points="619.5,-400 619.5,-418 995.5,-418 995.5,-400 619.5,-400"/>
<text text-anchor="start" x="622.5" y="-406.2" font-family="Helvetica,sans-Serif" font-size="11.00">...</text>
<polygon fill="#ffffff" stroke="transparent" points="619.5,-382 619.5,-400 805.5,-400 805.5,-382 619.5,-382"/>
<polygon fill="none" stroke="black" points="619.5,-382 619.5,-400 805.5,-400 805.5,-382 619.5,-382"/>
<text text-anchor="start" x="622.5" y="-388.2" font-family="Helvetica,sans-Serif" font-size="11.00">&lt; 1</text>
<polygon fill="#ffffff" stroke="transparent" points="805.5,-382 805.5,-400 900.5,-400 900.5,-382 805.5,-382"/>
<polygon fill="none" stroke="black" points="805.5,-382 805.5,-400 900.5,-400 900.5,-382 805.5,-382"/>
<text text-anchor="start" x="890.5" y="-388.2" font-family="Helvetica,sans-Serif" font-size="11.00"> &#160;</text>
<polygon fill="#ffffff" stroke="transparent" points="900.5,-382 900.5,-400 995.5,-400 995.5,-382 900.5,-382"/>
<polygon fill="none" stroke="black" points="900.5,-382 900.5,-400 995.5,-400 995.5,-382 900.5,-382"/>
<text text-anchor="start" x="985.5" y="-388.2" font-family="Helvetica,sans-Serif" font-size="11.00"> &#160;</text>
</a>
</g>
</g>
<!-- ms_appl_data.mstr_country_phone_format_assocs&#45;&gt;syst_complex_format_values -->
<g id="edge3" class="edge">
<title>ms_appl_data.mstr_country_phone_format_assocs:w&#45;&gt;syst_complex_format_values:e</title>
<path fill="none" stroke="black" d="M604.31,-432.84C577.28,-451.28 609.03,-530 564,-530"/>
<polygon fill="black" stroke="black" points="610.78,-431.09 619.44,-432.48 614.64,-430.04 618.5,-429 618.5,-429 618.5,-429 614.64,-430.04 617.56,-425.52 610.78,-431.09 610.78,-431.09"/>
<ellipse fill="none" stroke="black" cx="607.69" cy="-431.92" rx="3.2" ry="3.2"/>
</g>
</g>
</svg>
