<?xml version="1.0" encoding="UTF-8" standalone="no"?>
<!DOCTYPE svg PUBLIC "-//W3C//DTD SVG 1.1//EN"
 "http://www.w3.org/Graphics/SVG/1.1/DTD/svg11.dtd">
<!-- Generated by graphviz version 2.43.0 (0)
 -->
<!-- Title: oneDegreeRelationshipsDiagram Pages: 1 -->
<svg width="1206pt" height="973pt"
 viewBox="0.00 0.00 1206.00 973.00" xmlns="http://www.w3.org/2000/svg" xmlns:xlink="http://www.w3.org/1999/xlink">
<g id="graph0" class="graph" transform="scale(1 1) rotate(0) translate(4 969)">
<title>oneDegreeRelationshipsDiagram</title>
<polygon fill="#ffffff" stroke="transparent" points="-4,4 -4,-969 1202,-969 1202,4 -4,4"/>
<text text-anchor="middle" x="71.5" y="-7.2" font-family="Helvetica,sans-Serif" font-size="11.00">Generated by SchemaSpy</text>
<!-- ms_appl_data.mstr_contacts -->
<g id="node1" class="node">
<title>ms_appl_data.mstr_contacts</title>
<g id="a_node1"><a xlink:href="../../../ms_appl_data/tables/mstr_contacts.html" xlink:title="ms_appl_data.mstr_contacts" target="_top">
<polygon fill="#ffffff" stroke="transparent" points="916.5,-859 916.5,-961 1147.5,-961 1147.5,-859 916.5,-859"/>
<polygon fill="#f5f5f5" stroke="transparent" points="917,-939 917,-961 1148,-961 1148,-939 917,-939"/>
<polygon fill="none" stroke="black" points="917,-939 917,-961 1148,-961 1148,-939 917,-939"/>
<text text-anchor="start" x="922" y="-948.2" font-family="Helvetica,sans-Serif" font-weight="bold" font-size="11.00">ms_appl_data.mstr_contacts</text>
<text text-anchor="start" x="1113" y="-947.2" font-family="Helvetica,sans-Serif" font-size="11.00">[table]</text>
<polygon fill="none" stroke="black" points="917,-917 917,-939 1148,-939 1148,-917 917,-917"/>
<image xlink:href="../../images/foreignKeys.png" width="11px" height="12px" preserveAspectRatio="xMinYMin meet" x="922" y="-934"/>
<text text-anchor="start" x="956" y="-925.2" font-family="Helvetica,sans-Serif" font-size="11.00">contact_type_id</text>
<polygon fill="none" stroke="black" points="917,-895 917,-917 1148,-917 1148,-895 917,-895"/>
<image xlink:href="../../images/foreignKeys.png" width="11px" height="12px" preserveAspectRatio="xMinYMin meet" x="922" y="-912"/>
<text text-anchor="start" x="956" y="-903.2" font-family="Helvetica,sans-Serif" font-size="11.00">contact_state_id</text>
<polygon fill="none" stroke="black" points="917,-877 917,-895 1148,-895 1148,-877 917,-877"/>
<text text-anchor="start" x="920" y="-883.2" font-family="Helvetica,sans-Serif" font-size="11.00">...</text>
<polygon fill="#ffffff" stroke="transparent" points="917,-859 917,-877 1030,-877 1030,-859 917,-859"/>
<polygon fill="none" stroke="black" points="917,-859 917,-877 1030,-877 1030,-859 917,-859"/>
<text text-anchor="start" x="920" y="-865.2" font-family="Helvetica,sans-Serif" font-size="11.00">&lt; 2</text>
<polygon fill="#ffffff" stroke="transparent" points="1030,-859 1030,-877 1089,-877 1089,-859 1030,-859"/>
<polygon fill="none" stroke="black" points="1030,-859 1030,-877 1089,-877 1089,-859 1030,-859"/>
<text text-anchor="start" x="1079" y="-865.2" font-family="Helvetica,sans-Serif" font-size="11.00"> &#160;</text>
<polygon fill="#ffffff" stroke="transparent" points="1089,-859 1089,-877 1148,-877 1148,-859 1089,-859"/>
<polygon fill="none" stroke="black" points="1089,-859 1089,-877 1148,-877 1148,-859 1089,-859"/>
<text text-anchor="start" x="1138" y="-865.2" font-family="Helvetica,sans-Serif" font-size="11.00"> &#160;</text>
</a>
</g>
</g>
<!-- syst_enum_items -->
<g id="node2" class="node">
<title>syst_enum_items</title>
<g id="a_node2"><a xlink:href="../../tables/syst_enum_items.html" xlink:title="syst_enum_items" target="_top">
<polygon fill="#ffffff" stroke="transparent" points="529,-37 529,-565 825,-565 825,-37 529,-37"/>
<polygon fill="#f5f5f5" stroke="transparent" points="531,-541 531,-563 823,-563 823,-541 531,-541"/>
<polygon fill="none" stroke="black" points="531,-541 531,-563 823,-563 823,-541 531,-541"/>
<text text-anchor="start" x="536" y="-550.2" font-family="Helvetica,sans-Serif" font-weight="bold" font-size="11.00">syst_enum_items</text>
<text text-anchor="start" x="788" y="-549.2" font-family="Helvetica,sans-Serif" font-size="11.00">[table]</text>
<polygon fill="none" stroke="black" points="531,-519 531,-541 725,-541 725,-519 531,-519"/>
<image xlink:href="../../images/primaryKeys.png" width="11px" height="12px" preserveAspectRatio="xMinYMin meet" x="536" y="-536"/>
<text text-anchor="start" x="551" y="-527.2" font-family="Helvetica,sans-Serif" font-size="11.00">id</text>
<polygon fill="none" stroke="black" points="725,-519 725,-541 823,-541 823,-519 725,-519"/>
<text text-anchor="start" x="728" y="-527.2" font-family="Helvetica,sans-Serif" font-size="11.00">uuid[2147483647]</text>
<polygon fill="#ffffff" stroke="transparent" points="531,-497 531,-519 725,-519 725,-497 531,-497"/>
<polygon fill="none" stroke="black" points="531,-497 531,-519 725,-519 725,-497 531,-497"/>
<text text-anchor="start" x="551" y="-505.2" font-family="Helvetica,sans-Serif" font-size="11.00">internal_name</text>
<polygon fill="none" stroke="black" points="725,-497 725,-519 823,-519 823,-497 725,-497"/>
<text text-anchor="start" x="728" y="-505.2" font-family="Helvetica,sans-Serif" font-size="11.00">text[2147483647]</text>
<polygon fill="#ffffff" stroke="transparent" points="531,-475 531,-497 725,-497 725,-475 531,-475"/>
<polygon fill="none" stroke="black" points="531,-475 531,-497 725,-497 725,-475 531,-475"/>
<text text-anchor="start" x="551" y="-483.2" font-family="Helvetica,sans-Serif" font-size="11.00">display_name</text>
<polygon fill="none" stroke="black" points="725,-475 725,-497 823,-497 823,-475 725,-475"/>
<text text-anchor="start" x="728" y="-483.2" font-family="Helvetica,sans-Serif" font-size="11.00">text[2147483647]</text>
<polygon fill="none" stroke="black" points="531,-453 531,-475 725,-475 725,-453 531,-453"/>
<text text-anchor="start" x="551" y="-461.2" font-family="Helvetica,sans-Serif" font-size="11.00">external_name</text>
<polygon fill="none" stroke="black" points="725,-453 725,-475 823,-475 823,-453 725,-453"/>
<text text-anchor="start" x="728" y="-461.2" font-family="Helvetica,sans-Serif" font-size="11.00">text[2147483647]</text>
<polygon fill="none" stroke="black" points="531,-431 531,-453 725,-453 725,-431 531,-431"/>
<image xlink:href="../../images/foreignKeys.png" width="11px" height="12px" preserveAspectRatio="xMinYMin meet" x="536" y="-448"/>
<text text-anchor="start" x="551" y="-439.2" font-family="Helvetica,sans-Serif" font-size="11.00">enum_id</text>
<polygon fill="none" stroke="black" points="725,-431 725,-453 823,-453 823,-431 725,-431"/>
<text text-anchor="start" x="728" y="-439.2" font-family="Helvetica,sans-Serif" font-size="11.00">uuid[2147483647]</text>
<polygon fill="none" stroke="black" points="531,-409 531,-431 725,-431 725,-409 531,-409"/>
<image xlink:href="../../images/foreignKeys.png" width="11px" height="12px" preserveAspectRatio="xMinYMin meet" x="536" y="-426"/>
<text text-anchor="start" x="551" y="-417.2" font-family="Helvetica,sans-Serif" font-size="11.00">functional_type_id</text>
<polygon fill="none" stroke="black" points="725,-409 725,-431 823,-431 823,-409 725,-409"/>
<text text-anchor="start" x="728" y="-417.2" font-family="Helvetica,sans-Serif" font-size="11.00">uuid[2147483647]</text>
<polygon fill="none" stroke="black" points="531,-387 531,-409 725,-409 725,-387 531,-387"/>
<text text-anchor="start" x="551" y="-395.2" font-family="Helvetica,sans-Serif" font-size="11.00">enum_default</text>
<polygon fill="none" stroke="black" points="725,-387 725,-409 823,-409 823,-387 725,-387"/>
<text text-anchor="start" x="728" y="-395.2" font-family="Helvetica,sans-Serif" font-size="11.00">bool[1]</text>
<polygon fill="none" stroke="black" points="531,-365 531,-387 725,-387 725,-365 531,-365"/>
<text text-anchor="start" x="551" y="-373.2" font-family="Helvetica,sans-Serif" font-size="11.00">functional_type_default</text>
<polygon fill="none" stroke="black" points="725,-365 725,-387 823,-387 823,-365 725,-365"/>
<text text-anchor="start" x="728" y="-373.2" font-family="Helvetica,sans-Serif" font-size="11.00">bool[1]</text>
<polygon fill="none" stroke="black" points="531,-343 531,-365 725,-365 725,-343 531,-343"/>
<text text-anchor="start" x="551" y="-351.2" font-family="Helvetica,sans-Serif" font-size="11.00">syst_defined</text>
<polygon fill="none" stroke="black" points="725,-343 725,-365 823,-365 823,-343 725,-343"/>
<text text-anchor="start" x="728" y="-351.2" font-family="Helvetica,sans-Serif" font-size="11.00">bool[1]</text>
<polygon fill="none" stroke="black" points="531,-321 531,-343 725,-343 725,-321 531,-321"/>
<text text-anchor="start" x="551" y="-329.2" font-family="Helvetica,sans-Serif" font-size="11.00">user_maintainable</text>
<polygon fill="none" stroke="black" points="725,-321 725,-343 823,-343 823,-321 725,-321"/>
<text text-anchor="start" x="728" y="-329.2" font-family="Helvetica,sans-Serif" font-size="11.00">bool[1]</text>
<polygon fill="none" stroke="black" points="531,-299 531,-321 725,-321 725,-299 531,-299"/>
<text text-anchor="start" x="551" y="-307.2" font-family="Helvetica,sans-Serif" font-size="11.00">syst_description</text>
<polygon fill="none" stroke="black" points="725,-299 725,-321 823,-321 823,-299 725,-299"/>
<text text-anchor="start" x="728" y="-307.2" font-family="Helvetica,sans-Serif" font-size="11.00">text[2147483647]</text>
<polygon fill="none" stroke="black" points="531,-277 531,-299 725,-299 725,-277 531,-277"/>
<text text-anchor="start" x="551" y="-285.2" font-family="Helvetica,sans-Serif" font-size="11.00">user_description</text>
<polygon fill="none" stroke="black" points="725,-277 725,-299 823,-299 823,-277 725,-277"/>
<text text-anchor="start" x="728" y="-285.2" font-family="Helvetica,sans-Serif" font-size="11.00">text[2147483647]</text>
<polygon fill="none" stroke="black" points="531,-255 531,-277 725,-277 725,-255 531,-255"/>
<text text-anchor="start" x="551" y="-263.2" font-family="Helvetica,sans-Serif" font-size="11.00">sort_order</text>
<polygon fill="none" stroke="black" points="725,-255 725,-277 823,-277 823,-255 725,-255"/>
<text text-anchor="start" x="728" y="-263.2" font-family="Helvetica,sans-Serif" font-size="11.00">int2[5]</text>
<polygon fill="none" stroke="black" points="531,-233 531,-255 725,-255 725,-233 531,-233"/>
<text text-anchor="start" x="551" y="-241.2" font-family="Helvetica,sans-Serif" font-size="11.00">syst_options</text>
<polygon fill="none" stroke="black" points="725,-233 725,-255 823,-255 823,-233 725,-233"/>
<text text-anchor="start" x="728" y="-241.2" font-family="Helvetica,sans-Serif" font-size="11.00">jsonb[2147483647]</text>
<polygon fill="none" stroke="black" points="531,-211 531,-233 725,-233 725,-211 531,-211"/>
<text text-anchor="start" x="551" y="-219.2" font-family="Helvetica,sans-Serif" font-size="11.00">user_options</text>
<polygon fill="none" stroke="black" points="725,-211 725,-233 823,-233 823,-211 725,-211"/>
<text text-anchor="start" x="728" y="-219.2" font-family="Helvetica,sans-Serif" font-size="11.00">jsonb[2147483647]</text>
<polygon fill="none" stroke="black" points="531,-189 531,-211 725,-211 725,-189 531,-189"/>
<text text-anchor="start" x="551" y="-197.2" font-family="Helvetica,sans-Serif" font-size="11.00">diag_timestamp_created</text>
<polygon fill="none" stroke="black" points="725,-189 725,-211 823,-211 823,-189 725,-189"/>
<text text-anchor="start" x="728" y="-197.2" font-family="Helvetica,sans-Serif" font-size="11.00">timestamptz[35,6]</text>
<polygon fill="none" stroke="black" points="531,-167 531,-189 725,-189 725,-167 531,-167"/>
<text text-anchor="start" x="551" y="-175.2" font-family="Helvetica,sans-Serif" font-size="11.00">diag_role_created</text>
<polygon fill="none" stroke="black" points="725,-167 725,-189 823,-189 823,-167 725,-167"/>
<text text-anchor="start" x="728" y="-175.2" font-family="Helvetica,sans-Serif" font-size="11.00">text[2147483647]</text>
<polygon fill="none" stroke="black" points="531,-145 531,-167 725,-167 725,-145 531,-145"/>
<text text-anchor="start" x="551" y="-153.2" font-family="Helvetica,sans-Serif" font-size="11.00">diag_timestamp_modified</text>
<polygon fill="none" stroke="black" points="725,-145 725,-167 823,-167 823,-145 725,-145"/>
<text text-anchor="start" x="728" y="-153.2" font-family="Helvetica,sans-Serif" font-size="11.00">timestamptz[35,6]</text>
<polygon fill="none" stroke="black" points="531,-123 531,-145 725,-145 725,-123 531,-123"/>
<text text-anchor="start" x="551" y="-131.2" font-family="Helvetica,sans-Serif" font-size="11.00">diag_wallclock_modified</text>
<polygon fill="none" stroke="black" points="725,-123 725,-145 823,-145 823,-123 725,-123"/>
<text text-anchor="start" x="728" y="-131.2" font-family="Helvetica,sans-Serif" font-size="11.00">timestamptz[35,6]</text>
<polygon fill="none" stroke="black" points="531,-101 531,-123 725,-123 725,-101 531,-101"/>
<text text-anchor="start" x="551" y="-109.2" font-family="Helvetica,sans-Serif" font-size="11.00">diag_role_modified</text>
<polygon fill="none" stroke="black" points="725,-101 725,-123 823,-123 823,-101 725,-101"/>
<text text-anchor="start" x="728" y="-109.2" font-family="Helvetica,sans-Serif" font-size="11.00">text[2147483647]</text>
<polygon fill="none" stroke="black" points="531,-79 531,-101 725,-101 725,-79 531,-79"/>
<text text-anchor="start" x="551" y="-87.2" font-family="Helvetica,sans-Serif" font-size="11.00">diag_row_version</text>
<polygon fill="none" stroke="black" points="725,-79 725,-101 823,-101 823,-79 725,-79"/>
<text text-anchor="start" x="728" y="-87.2" font-family="Helvetica,sans-Serif" font-size="11.00">int8[19]</text>
<polygon fill="none" stroke="black" points="531,-57 531,-79 725,-79 725,-57 531,-57"/>
<text text-anchor="start" x="551" y="-65.2" font-family="Helvetica,sans-Serif" font-size="11.00">diag_update_count</text>
<polygon fill="none" stroke="black" points="725,-57 725,-79 823,-79 823,-57 725,-57"/>
<text text-anchor="start" x="728" y="-65.2" font-family="Helvetica,sans-Serif" font-size="11.00">int8[19]</text>
<polygon fill="#ffffff" stroke="transparent" points="531,-39 531,-57 632,-57 632,-39 531,-39"/>
<polygon fill="none" stroke="black" points="531,-39 531,-57 632,-57 632,-39 531,-39"/>
<text text-anchor="start" x="534" y="-45.2" font-family="Helvetica,sans-Serif" font-size="11.00">&lt; 2</text>
<polygon fill="#ffffff" stroke="transparent" points="632,-39 632,-57 725,-57 725,-39 632,-39"/>
<polygon fill="none" stroke="black" points="632,-39 632,-57 725,-57 725,-39 632,-39"/>
<text text-anchor="start" x="715" y="-45.2" font-family="Helvetica,sans-Serif" font-size="11.00"> &#160;</text>
<polygon fill="#ffffff" stroke="transparent" points="725,-39 725,-57 823,-57 823,-39 725,-39"/>
<polygon fill="none" stroke="black" points="725,-39 725,-57 823,-57 823,-39 725,-39"/>
<text text-anchor="start" x="798" y="-45.2" font-family="Helvetica,sans-Serif" font-size="11.00">12 &gt;</text>
<polygon fill="none" stroke="black" stroke-width="2" points="530,-38 530,-564 824,-564 824,-38 530,-38"/>
</a>
</g>
</g>
<!-- ms_appl_data.mstr_contacts&#45;&gt;syst_enum_items -->
<g id="edge1" class="edge">
<title>ms_appl_data.mstr_contacts:w&#45;&gt;syst_enum_items:e</title>
<path fill="none" stroke="black" d="M901.47,-903.88C881.17,-897.04 877.57,-874.54 866,-849 836.49,-783.87 895.5,-530 824,-530"/>
<polygon fill="black" stroke="black" points="908.08,-904.84 915.48,-909.56 912.04,-905.42 916,-906 916,-906 916,-906 912.04,-905.42 916.52,-902.44 908.08,-904.84 908.08,-904.84"/>
<ellipse fill="none" stroke="black" cx="904.92" cy="-904.38" rx="3.2" ry="3.2"/>
</g>
<!-- ms_appl_data.mstr_contacts&#45;&gt;syst_enum_items -->
<g id="edge2" class="edge">
<title>ms_appl_data.mstr_contacts:w&#45;&gt;syst_enum_items:e</title>
<path fill="none" stroke="black" d="M901.44,-925.87C875.64,-917.1 878.22,-882.73 866,-849 841.64,-781.78 895.5,-530 824,-530"/>
<polygon fill="black" stroke="black" points="908.08,-926.84 915.48,-931.56 912.04,-927.42 916,-928 916,-928 916,-928 912.04,-927.42 916.52,-924.44 908.08,-926.84 908.08,-926.84"/>
<ellipse fill="none" stroke="black" cx="904.92" cy="-926.38" rx="3.2" ry="3.2"/>
</g>
<!-- syst_enum_functional_types -->
<g id="node8" class="node">
<title>syst_enum_functional_types</title>
<g id="a_node8"><a xlink:href="../../tables/syst_enum_functional_types.html" xlink:title="syst_enum_functional_types" target="_top">
<polygon fill="#ffffff" stroke="transparent" points="251,-289 251,-435 480,-435 480,-289 251,-289"/>
<polygon fill="#f5f5f5" stroke="transparent" points="251.5,-413 251.5,-435 480.5,-435 480.5,-413 251.5,-413"/>
<polygon fill="none" stroke="black" points="251.5,-413 251.5,-435 480.5,-435 480.5,-413 251.5,-413"/>
<text text-anchor="start" x="256.5" y="-422.2" font-family="Helvetica,sans-Serif" font-weight="bold" font-size="11.00">syst_enum_functional_types</text>
<text text-anchor="start" x="445.5" y="-421.2" font-family="Helvetica,sans-Serif" font-size="11.00">[table]</text>
<polygon fill="none" stroke="black" points="251.5,-391 251.5,-413 480.5,-413 480.5,-391 251.5,-391"/>
<image xlink:href="../../images/primaryKeys.png" width="11px" height="12px" preserveAspectRatio="xMinYMin meet" x="256.5" y="-408"/>
<text text-anchor="start" x="281.5" y="-399.2" font-family="Helvetica,sans-Serif" font-size="11.00">id</text>
<polygon fill="#ffffff" stroke="transparent" points="251.5,-369 251.5,-391 480.5,-391 480.5,-369 251.5,-369"/>
<polygon fill="none" stroke="black" points="251.5,-369 251.5,-391 480.5,-391 480.5,-369 251.5,-369"/>
<text text-anchor="start" x="281.5" y="-377.2" font-family="Helvetica,sans-Serif" font-size="11.00">internal_name</text>
<polygon fill="#ffffff" stroke="transparent" points="251.5,-347 251.5,-369 480.5,-369 480.5,-347 251.5,-347"/>
<polygon fill="none" stroke="black" points="251.5,-347 251.5,-369 480.5,-369 480.5,-347 251.5,-347"/>
<text text-anchor="start" x="281.5" y="-355.2" font-family="Helvetica,sans-Serif" font-size="11.00">display_name</text>
<polygon fill="none" stroke="black" points="251.5,-325 251.5,-347 480.5,-347 480.5,-325 251.5,-325"/>
<image xlink:href="../../images/foreignKeys.png" width="11px" height="12px" preserveAspectRatio="xMinYMin meet" x="256.5" y="-342"/>
<text text-anchor="start" x="281.5" y="-333.2" font-family="Helvetica,sans-Serif" font-size="11.00">enum_id</text>
<polygon fill="none" stroke="black" points="251.5,-307 251.5,-325 480.5,-325 480.5,-307 251.5,-307"/>
<text text-anchor="start" x="254.5" y="-313.2" font-family="Helvetica,sans-Serif" font-size="11.00">...</text>
<polygon fill="#ffffff" stroke="transparent" points="251.5,-289 251.5,-307 359.5,-307 359.5,-289 251.5,-289"/>
<polygon fill="none" stroke="black" points="251.5,-289 251.5,-307 359.5,-307 359.5,-289 251.5,-289"/>
<text text-anchor="start" x="254.5" y="-295.2" font-family="Helvetica,sans-Serif" font-size="11.00">&lt; 1</text>
<polygon fill="#ffffff" stroke="transparent" points="359.5,-289 359.5,-307 415.5,-307 415.5,-289 359.5,-289"/>
<polygon fill="none" stroke="black" points="359.5,-289 359.5,-307 415.5,-307 415.5,-289 359.5,-289"/>
<text text-anchor="start" x="405.5" y="-295.2" font-family="Helvetica,sans-Serif" font-size="11.00"> &#160;</text>
<polygon fill="#ffffff" stroke="transparent" points="415.5,-289 415.5,-307 480.5,-307 480.5,-289 415.5,-289"/>
<polygon fill="none" stroke="black" points="415.5,-289 415.5,-307 480.5,-307 480.5,-289 415.5,-289"/>
<text text-anchor="start" x="461.5" y="-295.2" font-family="Helvetica,sans-Serif" font-size="11.00">1 &gt;</text>
</a>
</g>
</g>
<!-- syst_enum_items&#45;&gt;syst_enum_functional_types -->
<g id="edge13" class="edge">
<title>syst_enum_items:w&#45;&gt;syst_enum_functional_types:e</title>
<path fill="none" stroke="black" d="M515.6,-417.03C504.35,-411.92 498.56,-402 481.5,-402"/>
<polygon fill="black" stroke="black" points="522.17,-418.38 529.27,-423.53 526.08,-419.19 530,-420 530,-420 530,-420 526.08,-419.19 530.73,-416.47 522.17,-418.38 522.17,-418.38"/>
<ellipse fill="none" stroke="black" cx="519.03" cy="-417.74" rx="3.2" ry="3.2"/>
</g>
<!-- syst_enums -->
<g id="node9" class="node">
<title>syst_enums</title>
<g id="a_node9"><a xlink:href="../../tables/syst_enums.html" xlink:title="syst_enums" target="_top">
<polygon fill="#ffffff" stroke="transparent" points="8,-306 8,-430 202,-430 202,-306 8,-306"/>
<polygon fill="#f5f5f5" stroke="transparent" points="8,-408 8,-430 202,-430 202,-408 8,-408"/>
<polygon fill="none" stroke="black" points="8,-408 8,-430 202,-430 202,-408 8,-408"/>
<text text-anchor="start" x="13" y="-417.2" font-family="Helvetica,sans-Serif" font-weight="bold" font-size="11.00">syst_enums</text>
<text text-anchor="start" x="167" y="-416.2" font-family="Helvetica,sans-Serif" font-size="11.00">[table]</text>
<polygon fill="none" stroke="black" points="8,-386 8,-408 202,-408 202,-386 8,-386"/>
<image xlink:href="../../images/primaryKeys.png" width="11px" height="12px" preserveAspectRatio="xMinYMin meet" x="13" y="-403"/>
<text text-anchor="start" x="28" y="-394.2" font-family="Helvetica,sans-Serif" font-size="11.00">id</text>
<polygon fill="#ffffff" stroke="transparent" points="8,-364 8,-386 202,-386 202,-364 8,-364"/>
<polygon fill="none" stroke="black" points="8,-364 8,-386 202,-386 202,-364 8,-364"/>
<text text-anchor="start" x="28" y="-372.2" font-family="Helvetica,sans-Serif" font-size="11.00">internal_name</text>
<polygon fill="#ffffff" stroke="transparent" points="8,-342 8,-364 202,-364 202,-342 8,-342"/>
<polygon fill="none" stroke="black" points="8,-342 8,-364 202,-364 202,-342 8,-342"/>
<text text-anchor="start" x="28" y="-350.2" font-family="Helvetica,sans-Serif" font-size="11.00">display_name</text>
<polygon fill="none" stroke="black" points="8,-324 8,-342 202,-342 202,-324 8,-324"/>
<text text-anchor="start" x="11" y="-330.2" font-family="Helvetica,sans-Serif" font-size="11.00">...</text>
<polygon fill="#ffffff" stroke="transparent" points="8,-306 8,-324 94,-324 94,-306 8,-306"/>
<polygon fill="none" stroke="black" points="8,-306 8,-324 94,-324 94,-306 8,-306"/>
<text text-anchor="start" x="11" y="-312.2" font-family="Helvetica,sans-Serif" font-size="11.00"> &#160;</text>
<polygon fill="#ffffff" stroke="transparent" points="94,-306 94,-324 143,-324 143,-306 94,-306"/>
<polygon fill="none" stroke="black" points="94,-306 94,-324 143,-324 143,-306 94,-306"/>
<text text-anchor="start" x="133" y="-312.2" font-family="Helvetica,sans-Serif" font-size="11.00"> &#160;</text>
<polygon fill="#ffffff" stroke="transparent" points="143,-306 143,-324 202,-324 202,-306 143,-306"/>
<polygon fill="none" stroke="black" points="143,-306 143,-324 202,-324 202,-306 143,-306"/>
<text text-anchor="start" x="183" y="-312.2" font-family="Helvetica,sans-Serif" font-size="11.00">2 &gt;</text>
</a>
</g>
</g>
<!-- syst_enum_items&#45;&gt;syst_enums -->
<g id="edge12" class="edge">
<title>syst_enum_items:w&#45;&gt;syst_enums:e</title>
<path fill="none" stroke="black" d="M515.43,-442.78C506.9,-443.76 500.73,-445.4 488,-446 379.23,-451.17 341.37,-492.68 243,-446 217.6,-433.95 231.11,-397 203,-397"/>
<polygon fill="black" stroke="black" points="522.01,-442.43 530.19,-445.59 526.01,-442.21 530,-442 530,-442 530,-442 526.01,-442.21 529.81,-438.41 522.01,-442.43 522.01,-442.43"/>
<ellipse fill="none" stroke="black" cx="518.82" cy="-442.6" rx="3.2" ry="3.2"/>
</g>
<!-- ms_appl_data.mstr_entities -->
<g id="node3" class="node">
<title>ms_appl_data.mstr_entities</title>
<g id="a_node3"><a xlink:href="../../../ms_appl_data/tables/mstr_entities.html" xlink:title="ms_appl_data.mstr_entities" target="_top">
<polygon fill="#ffffff" stroke="transparent" points="919.5,-736 919.5,-838 1144.5,-838 1144.5,-736 919.5,-736"/>
<polygon fill="#f5f5f5" stroke="transparent" points="920,-816 920,-838 1145,-838 1145,-816 920,-816"/>
<polygon fill="none" stroke="black" points="920,-816 920,-838 1145,-838 1145,-816 920,-816"/>
<text text-anchor="start" x="925" y="-825.2" font-family="Helvetica,sans-Serif" font-weight="bold" font-size="11.00">ms_appl_data.mstr_entities</text>
<text text-anchor="start" x="1110" y="-824.2" font-family="Helvetica,sans-Serif" font-size="11.00">[table]</text>
<polygon fill="none" stroke="black" points="920,-794 920,-816 1145,-816 1145,-794 920,-794"/>
<image xlink:href="../../images/foreignKeys.png" width="11px" height="12px" preserveAspectRatio="xMinYMin meet" x="925" y="-811"/>
<text text-anchor="start" x="956" y="-802.2" font-family="Helvetica,sans-Serif" font-size="11.00">entity_type_id</text>
<polygon fill="none" stroke="black" points="920,-772 920,-794 1145,-794 1145,-772 920,-772"/>
<image xlink:href="../../images/foreignKeys.png" width="11px" height="12px" preserveAspectRatio="xMinYMin meet" x="925" y="-789"/>
<text text-anchor="start" x="956" y="-780.2" font-family="Helvetica,sans-Serif" font-size="11.00">entity_state_id</text>
<polygon fill="none" stroke="black" points="920,-754 920,-772 1145,-772 1145,-754 920,-754"/>
<text text-anchor="start" x="923" y="-760.2" font-family="Helvetica,sans-Serif" font-size="11.00">...</text>
<polygon fill="#ffffff" stroke="transparent" points="920,-736 920,-754 1030,-754 1030,-736 920,-736"/>
<polygon fill="none" stroke="black" points="920,-736 920,-754 1030,-754 1030,-736 920,-736"/>
<text text-anchor="start" x="923" y="-742.2" font-family="Helvetica,sans-Serif" font-size="11.00">&lt; 2</text>
<polygon fill="#ffffff" stroke="transparent" points="1030,-736 1030,-754 1087,-754 1087,-736 1030,-736"/>
<polygon fill="none" stroke="black" points="1030,-736 1030,-754 1087,-754 1087,-736 1030,-736"/>
<text text-anchor="start" x="1077" y="-742.2" font-family="Helvetica,sans-Serif" font-size="11.00"> &#160;</text>
<polygon fill="#ffffff" stroke="transparent" points="1087,-736 1087,-754 1145,-754 1145,-736 1087,-736"/>
<polygon fill="none" stroke="black" points="1087,-736 1087,-754 1145,-754 1145,-736 1087,-736"/>
<text text-anchor="start" x="1135" y="-742.2" font-family="Helvetica,sans-Serif" font-size="11.00"> &#160;</text>
</a>
</g>
</g>
<!-- ms_appl_data.mstr_entities&#45;&gt;syst_enum_items -->
<g id="edge3" class="edge">
<title>ms_appl_data.mstr_entities:w&#45;&gt;syst_enum_items:e</title>
<path fill="none" stroke="black" d="M904.67,-781.07C883.28,-774.46 879.42,-751.77 866,-726 824.86,-646.98 913.09,-530 824,-530"/>
<polygon fill="black" stroke="black" points="911.07,-781.93 918.52,-786.57 915.04,-782.46 919,-783 919,-783 919,-783 915.04,-782.46 919.48,-779.43 911.07,-781.93 911.07,-781.93"/>
<ellipse fill="none" stroke="black" cx="907.9" cy="-781.5" rx="3.2" ry="3.2"/>
</g>
<!-- ms_appl_data.mstr_entities&#45;&gt;syst_enum_items -->
<g id="edge4" class="edge">
<title>ms_appl_data.mstr_entities:w&#45;&gt;syst_enum_items:e</title>
<path fill="none" stroke="black" d="M904.53,-802.98C877.86,-794.38 880.31,-759.76 866,-726 848.61,-684.99 868.54,-530 824,-530"/>
<polygon fill="black" stroke="black" points="911.08,-803.89 918.5,-808.57 915.04,-804.45 919,-805 919,-805 919,-805 915.04,-804.45 919.5,-801.43 911.08,-803.89 911.08,-803.89"/>
<ellipse fill="none" stroke="black" cx="907.91" cy="-803.45" rx="3.2" ry="3.2"/>
</g>
<!-- ms_appl_data.mstr_entity_person_roles -->
<g id="node4" class="node">
<title>ms_appl_data.mstr_entity_person_roles</title>
<g id="a_node4"><a xlink:href="../../../ms_appl_data/tables/mstr_entity_person_roles.html" xlink:title="ms_appl_data.mstr_entity_person_roles" target="_top">
<polygon fill="#ffffff" stroke="transparent" points="879.5,-635 879.5,-715 1184.5,-715 1184.5,-635 879.5,-635"/>
<polygon fill="#f5f5f5" stroke="transparent" points="880,-693 880,-715 1185,-715 1185,-693 880,-693"/>
<polygon fill="none" stroke="black" points="880,-693 880,-715 1185,-715 1185,-693 880,-693"/>
<text text-anchor="start" x="885" y="-702.2" font-family="Helvetica,sans-Serif" font-weight="bold" font-size="11.00">ms_appl_data.mstr_entity_person_roles</text>
<text text-anchor="start" x="1150" y="-701.2" font-family="Helvetica,sans-Serif" font-size="11.00">[table]</text>
<polygon fill="none" stroke="black" points="880,-671 880,-693 1185,-693 1185,-671 880,-671"/>
<image xlink:href="../../images/foreignKeys.png" width="11px" height="12px" preserveAspectRatio="xMinYMin meet" x="885" y="-688"/>
<text text-anchor="start" x="956" y="-679.2" font-family="Helvetica,sans-Serif" font-size="11.00">entity_person_role_id</text>
<polygon fill="none" stroke="black" points="880,-653 880,-671 1185,-671 1185,-653 880,-653"/>
<text text-anchor="start" x="883" y="-659.2" font-family="Helvetica,sans-Serif" font-size="11.00">...</text>
<polygon fill="#ffffff" stroke="transparent" points="880,-635 880,-653 1030,-653 1030,-635 880,-635"/>
<polygon fill="none" stroke="black" points="880,-635 880,-653 1030,-653 1030,-635 880,-635"/>
<text text-anchor="start" x="883" y="-641.2" font-family="Helvetica,sans-Serif" font-size="11.00">&lt; 1</text>
<polygon fill="#ffffff" stroke="transparent" points="1030,-635 1030,-653 1107,-653 1107,-635 1030,-635"/>
<polygon fill="none" stroke="black" points="1030,-635 1030,-653 1107,-653 1107,-635 1030,-635"/>
<text text-anchor="start" x="1097" y="-641.2" font-family="Helvetica,sans-Serif" font-size="11.00"> &#160;</text>
<polygon fill="#ffffff" stroke="transparent" points="1107,-635 1107,-653 1185,-653 1185,-635 1107,-635"/>
<polygon fill="none" stroke="black" points="1107,-635 1107,-653 1185,-653 1185,-635 1107,-635"/>
<text text-anchor="start" x="1175" y="-641.2" font-family="Helvetica,sans-Serif" font-size="11.00"> &#160;</text>
</a>
</g>
</g>
<!-- ms_appl_data.mstr_entity_person_roles&#45;&gt;syst_enum_items -->
<g id="edge5" class="edge">
<title>ms_appl_data.mstr_entity_person_roles:w&#45;&gt;syst_enum_items:e</title>
<path fill="none" stroke="black" d="M864.66,-679.23C820.33,-658.63 890.09,-530 824,-530"/>
<polygon fill="black" stroke="black" points="871.15,-680.48 878.32,-685.53 875.07,-681.24 879,-682 879,-682 879,-682 875.07,-681.24 879.68,-678.47 871.15,-680.48 871.15,-680.48"/>
<ellipse fill="none" stroke="black" cx="868" cy="-679.88" rx="3.2" ry="3.2"/>
</g>
<!-- ms_appl_data.mstr_person_contact_roles -->
<g id="node5" class="node">
<title>ms_appl_data.mstr_person_contact_roles</title>
<g id="a_node5"><a xlink:href="../../../ms_appl_data/tables/mstr_person_contact_roles.html" xlink:title="ms_appl_data.mstr_person_contact_roles" target="_top">
<polygon fill="#ffffff" stroke="transparent" points="874,-534 874,-614 1190,-614 1190,-534 874,-534"/>
<polygon fill="#f5f5f5" stroke="transparent" points="874,-592 874,-614 1190,-614 1190,-592 874,-592"/>
<polygon fill="none" stroke="black" points="874,-592 874,-614 1190,-614 1190,-592 874,-592"/>
<text text-anchor="start" x="879" y="-601.2" font-family="Helvetica,sans-Serif" font-weight="bold" font-size="11.00">ms_appl_data.mstr_person_contact_roles</text>
<text text-anchor="start" x="1155" y="-600.2" font-family="Helvetica,sans-Serif" font-size="11.00">[table]</text>
<polygon fill="none" stroke="black" points="874,-570 874,-592 1190,-592 1190,-570 874,-570"/>
<image xlink:href="../../images/foreignKeys.png" width="11px" height="12px" preserveAspectRatio="xMinYMin meet" x="879" y="-587"/>
<text text-anchor="start" x="952" y="-578.2" font-family="Helvetica,sans-Serif" font-size="11.00">person_contact_role_id</text>
<polygon fill="none" stroke="black" points="874,-552 874,-570 1190,-570 1190,-552 874,-552"/>
<text text-anchor="start" x="877" y="-558.2" font-family="Helvetica,sans-Serif" font-size="11.00">...</text>
<polygon fill="#ffffff" stroke="transparent" points="874,-534 874,-552 1030,-552 1030,-534 874,-534"/>
<polygon fill="none" stroke="black" points="874,-534 874,-552 1030,-552 1030,-534 874,-534"/>
<text text-anchor="start" x="877" y="-540.2" font-family="Helvetica,sans-Serif" font-size="11.00">&lt; 1</text>
<polygon fill="#ffffff" stroke="transparent" points="1030,-534 1030,-552 1110,-552 1110,-534 1030,-534"/>
<polygon fill="none" stroke="black" points="1030,-534 1030,-552 1110,-552 1110,-534 1030,-534"/>
<text text-anchor="start" x="1100" y="-540.2" font-family="Helvetica,sans-Serif" font-size="11.00"> &#160;</text>
<polygon fill="#ffffff" stroke="transparent" points="1110,-534 1110,-552 1190,-552 1190,-534 1110,-534"/>
<polygon fill="none" stroke="black" points="1110,-534 1110,-552 1190,-552 1190,-534 1110,-534"/>
<text text-anchor="start" x="1180" y="-540.2" font-family="Helvetica,sans-Serif" font-size="11.00"> &#160;</text>
</a>
</g>
</g>
<!-- ms_appl_data.mstr_person_contact_roles&#45;&gt;syst_enum_items -->
<g id="edge6" class="edge">
<title>ms_appl_data.mstr_person_contact_roles:w&#45;&gt;syst_enum_items:e</title>
<path fill="none" stroke="black" d="M859.09,-575.92C845.26,-563.02 849.29,-530 824,-530"/>
<polygon fill="black" stroke="black" points="865.48,-578.26 871.77,-584.38 869.24,-579.63 873,-581 873,-581 873,-581 869.24,-579.63 874.23,-577.62 865.48,-578.26 865.48,-578.26"/>
<ellipse fill="none" stroke="black" cx="862.48" cy="-577.16" rx="3.2" ry="3.2"/>
</g>
<!-- ms_appl_data.mstr_persons -->
<g id="node6" class="node">
<title>ms_appl_data.mstr_persons</title>
<g id="a_node6"><a xlink:href="../../../ms_appl_data/tables/mstr_persons.html" xlink:title="ms_appl_data.mstr_persons" target="_top">
<polygon fill="#ffffff" stroke="transparent" points="918.5,-411 918.5,-513 1145.5,-513 1145.5,-411 918.5,-411"/>
<polygon fill="#f5f5f5" stroke="transparent" points="919,-491 919,-513 1146,-513 1146,-491 919,-491"/>
<polygon fill="none" stroke="black" points="919,-491 919,-513 1146,-513 1146,-491 919,-491"/>
<text text-anchor="start" x="924" y="-500.2" font-family="Helvetica,sans-Serif" font-weight="bold" font-size="11.00">ms_appl_data.mstr_persons</text>
<text text-anchor="start" x="1111" y="-499.2" font-family="Helvetica,sans-Serif" font-size="11.00">[table]</text>
<polygon fill="none" stroke="black" points="919,-469 919,-491 1146,-491 1146,-469 919,-469"/>
<image xlink:href="../../images/foreignKeys.png" width="11px" height="12px" preserveAspectRatio="xMinYMin meet" x="924" y="-486"/>
<text text-anchor="start" x="956" y="-477.2" font-family="Helvetica,sans-Serif" font-size="11.00">person_type_id</text>
<polygon fill="none" stroke="black" points="919,-447 919,-469 1146,-469 1146,-447 919,-447"/>
<image xlink:href="../../images/foreignKeys.png" width="11px" height="12px" preserveAspectRatio="xMinYMin meet" x="924" y="-464"/>
<text text-anchor="start" x="956" y="-455.2" font-family="Helvetica,sans-Serif" font-size="11.00">person_state_id</text>
<polygon fill="none" stroke="black" points="919,-429 919,-447 1146,-447 1146,-429 919,-429"/>
<text text-anchor="start" x="922" y="-435.2" font-family="Helvetica,sans-Serif" font-size="11.00">...</text>
<polygon fill="#ffffff" stroke="transparent" points="919,-411 919,-429 1030,-429 1030,-411 919,-411"/>
<polygon fill="none" stroke="black" points="919,-411 919,-429 1030,-429 1030,-411 919,-411"/>
<text text-anchor="start" x="922" y="-417.2" font-family="Helvetica,sans-Serif" font-size="11.00">&lt; 2</text>
<polygon fill="#ffffff" stroke="transparent" points="1030,-411 1030,-429 1088,-429 1088,-411 1030,-411"/>
<polygon fill="none" stroke="black" points="1030,-411 1030,-429 1088,-429 1088,-411 1030,-411"/>
<text text-anchor="start" x="1078" y="-417.2" font-family="Helvetica,sans-Serif" font-size="11.00"> &#160;</text>
<polygon fill="#ffffff" stroke="transparent" points="1088,-411 1088,-429 1146,-429 1146,-411 1088,-411"/>
<polygon fill="none" stroke="black" points="1088,-411 1088,-429 1146,-429 1146,-411 1088,-411"/>
<text text-anchor="start" x="1136" y="-417.2" font-family="Helvetica,sans-Serif" font-size="11.00"> &#160;</text>
</a>
</g>
</g>
<!-- ms_appl_data.mstr_persons&#45;&gt;syst_enum_items -->
<g id="edge7" class="edge">
<title>ms_appl_data.mstr_persons:w&#45;&gt;syst_enum_items:e</title>
<path fill="none" stroke="black" d="M903.33,-460.23C867.04,-472.39 871.07,-530 824,-530"/>
<polygon fill="black" stroke="black" points="910.09,-459.2 918.54,-461.56 914.05,-458.6 918,-458 918,-458 918,-458 914.05,-458.6 917.46,-454.44 910.09,-459.2 910.09,-459.2"/>
<ellipse fill="none" stroke="black" cx="906.93" cy="-459.69" rx="3.2" ry="3.2"/>
</g>
<!-- ms_appl_data.mstr_persons&#45;&gt;syst_enum_items -->
<g id="edge8" class="edge">
<title>ms_appl_data.mstr_persons:w&#45;&gt;syst_enum_items:e</title>
<path fill="none" stroke="black" d="M903.63,-481.78C870.21,-490.69 865.96,-530 824,-530"/>
<polygon fill="black" stroke="black" points="910.06,-480.98 918.44,-483.57 914.03,-480.49 918,-480 918,-480 918,-480 914.03,-480.49 917.56,-476.43 910.06,-480.98 910.06,-480.98"/>
<ellipse fill="none" stroke="black" cx="906.88" cy="-481.38" rx="3.2" ry="3.2"/>
</g>
<!-- ms_appl_data.mstr_places -->
<g id="node7" class="node">
<title>ms_appl_data.mstr_places</title>
<g id="a_node7"><a xlink:href="../../../ms_appl_data/tables/mstr_places.html" xlink:title="ms_appl_data.mstr_places" target="_top">
<polygon fill="#ffffff" stroke="transparent" points="924,-288 924,-390 1140,-390 1140,-288 924,-288"/>
<polygon fill="#f5f5f5" stroke="transparent" points="924,-368 924,-390 1140,-390 1140,-368 924,-368"/>
<polygon fill="none" stroke="black" points="924,-368 924,-390 1140,-390 1140,-368 924,-368"/>
<text text-anchor="start" x="929" y="-377.2" font-family="Helvetica,sans-Serif" font-weight="bold" font-size="11.00">ms_appl_data.mstr_places</text>
<text text-anchor="start" x="1105" y="-376.2" font-family="Helvetica,sans-Serif" font-size="11.00">[table]</text>
<polygon fill="none" stroke="black" points="924,-346 924,-368 1140,-368 1140,-346 924,-346"/>
<image xlink:href="../../images/foreignKeys.png" width="11px" height="12px" preserveAspectRatio="xMinYMin meet" x="929" y="-363"/>
<text text-anchor="start" x="955" y="-354.2" font-family="Helvetica,sans-Serif" font-size="11.00">place_type_id</text>
<polygon fill="none" stroke="black" points="924,-324 924,-346 1140,-346 1140,-324 924,-324"/>
<image xlink:href="../../images/foreignKeys.png" width="11px" height="12px" preserveAspectRatio="xMinYMin meet" x="929" y="-341"/>
<text text-anchor="start" x="955" y="-332.2" font-family="Helvetica,sans-Serif" font-size="11.00">place_state_id</text>
<polygon fill="none" stroke="black" points="924,-306 924,-324 1140,-324 1140,-306 924,-306"/>
<text text-anchor="start" x="927" y="-312.2" font-family="Helvetica,sans-Serif" font-size="11.00">...</text>
<polygon fill="#ffffff" stroke="transparent" points="924,-288 924,-306 1030,-306 1030,-288 924,-288"/>
<polygon fill="none" stroke="black" points="924,-288 924,-306 1030,-306 1030,-288 924,-288"/>
<text text-anchor="start" x="927" y="-294.2" font-family="Helvetica,sans-Serif" font-size="11.00">&lt; 2</text>
<polygon fill="#ffffff" stroke="transparent" points="1030,-288 1030,-306 1085,-306 1085,-288 1030,-288"/>
<polygon fill="none" stroke="black" points="1030,-288 1030,-306 1085,-306 1085,-288 1030,-288"/>
<text text-anchor="start" x="1075" y="-294.2" font-family="Helvetica,sans-Serif" font-size="11.00"> &#160;</text>
<polygon fill="#ffffff" stroke="transparent" points="1085,-288 1085,-306 1140,-306 1140,-288 1085,-288"/>
<polygon fill="none" stroke="black" points="1085,-288 1085,-306 1140,-306 1140,-288 1085,-288"/>
<text text-anchor="start" x="1130" y="-294.2" font-family="Helvetica,sans-Serif" font-size="11.00"> &#160;</text>
</a>
</g>
</g>
<!-- ms_appl_data.mstr_places&#45;&gt;syst_enum_items -->
<g id="edge9" class="edge">
<title>ms_appl_data.mstr_places:w&#45;&gt;syst_enum_items:e</title>
<path fill="none" stroke="black" d="M908.49,-336.93C884.06,-344.35 882.29,-372.12 866,-401 836.38,-453.52 884.3,-530 824,-530"/>
<polygon fill="black" stroke="black" points="915.07,-336.05 923.47,-338.57 919.03,-335.53 923,-335 923,-335 923,-335 919.03,-335.53 922.53,-331.43 915.07,-336.05 915.07,-336.05"/>
<ellipse fill="none" stroke="black" cx="911.9" cy="-336.48" rx="3.2" ry="3.2"/>
</g>
<!-- ms_appl_data.mstr_places&#45;&gt;syst_enum_items -->
<g id="edge10" class="edge">
<title>ms_appl_data.mstr_places:w&#45;&gt;syst_enum_items:e</title>
<path fill="none" stroke="black" d="M908.56,-358.53C888.39,-363.38 881.27,-379.34 866,-401 831.26,-450.28 884.3,-530 824,-530"/>
<polygon fill="black" stroke="black" points="915.04,-357.84 923.38,-360.58 919.02,-357.42 923,-357 923,-357 923,-357 919.02,-357.42 922.62,-353.42 915.04,-357.84 915.04,-357.84"/>
<ellipse fill="none" stroke="black" cx="911.86" cy="-358.18" rx="3.2" ry="3.2"/>
</g>
<!-- syst_enum_functional_types&#45;&gt;syst_enums -->
<g id="edge11" class="edge">
<title>syst_enum_functional_types:w&#45;&gt;syst_enums:e</title>
<path fill="none" stroke="black" d="M236.72,-341.2C221.97,-355.95 231.19,-397 203,-397"/>
<polygon fill="black" stroke="black" points="243.02,-338.82 251.77,-339.37 246.76,-337.41 250.5,-336 250.5,-336 250.5,-336 246.76,-337.41 249.23,-332.63 243.02,-338.82 243.02,-338.82"/>
<ellipse fill="none" stroke="black" cx="240.02" cy="-339.95" rx="3.2" ry="3.2"/>
</g>
<!-- syst_interaction_logs -->
<g id="node10" class="node">
<title>syst_interaction_logs</title>
<g id="a_node10"><a xlink:href="../../tables/syst_interaction_logs.html" xlink:title="syst_interaction_logs" target="_top">
<polygon fill="#ffffff" stroke="transparent" points="935,-121 935,-267 1129,-267 1129,-121 935,-121"/>
<polygon fill="#f5f5f5" stroke="transparent" points="935,-245 935,-267 1129,-267 1129,-245 935,-245"/>
<polygon fill="none" stroke="black" points="935,-245 935,-267 1129,-267 1129,-245 935,-245"/>
<text text-anchor="start" x="940" y="-254.2" font-family="Helvetica,sans-Serif" font-weight="bold" font-size="11.00">syst_interaction_logs</text>
<text text-anchor="start" x="1094" y="-253.2" font-family="Helvetica,sans-Serif" font-size="11.00">[table]</text>
<polygon fill="none" stroke="black" points="935,-223 935,-245 1129,-245 1129,-223 935,-223"/>
<image xlink:href="../../images/primaryKeys.png" width="11px" height="12px" preserveAspectRatio="xMinYMin meet" x="940" y="-240"/>
<text text-anchor="start" x="955" y="-231.2" font-family="Helvetica,sans-Serif" font-size="11.00">id</text>
<polygon fill="#ffffff" stroke="transparent" points="935,-201 935,-223 1129,-223 1129,-201 935,-201"/>
<polygon fill="none" stroke="black" points="935,-201 935,-223 1129,-223 1129,-201 935,-201"/>
<text text-anchor="start" x="955" y="-209.2" font-family="Helvetica,sans-Serif" font-size="11.00">interaction_timestamp</text>
<polygon fill="none" stroke="black" points="935,-179 935,-201 1129,-201 1129,-179 935,-179"/>
<image xlink:href="../../images/foreignKeys.png" width="11px" height="12px" preserveAspectRatio="xMinYMin meet" x="940" y="-196"/>
<text text-anchor="start" x="955" y="-187.2" font-family="Helvetica,sans-Serif" font-size="11.00">interaction_type_id</text>
<polygon fill="none" stroke="black" points="935,-157 935,-179 1129,-179 1129,-157 935,-157"/>
<image xlink:href="../../images/foreignKeys.png" width="11px" height="12px" preserveAspectRatio="xMinYMin meet" x="940" y="-174"/>
<text text-anchor="start" x="955" y="-165.2" font-family="Helvetica,sans-Serif" font-size="11.00">interface_type_id</text>
<polygon fill="none" stroke="black" points="935,-139 935,-157 1129,-157 1129,-139 935,-139"/>
<text text-anchor="start" x="938" y="-145.2" font-family="Helvetica,sans-Serif" font-size="11.00">...</text>
<polygon fill="#ffffff" stroke="transparent" points="935,-121 935,-139 1030,-139 1030,-121 935,-121"/>
<polygon fill="none" stroke="black" points="935,-121 935,-139 1030,-139 1030,-121 935,-121"/>
<text text-anchor="start" x="938" y="-127.2" font-family="Helvetica,sans-Serif" font-size="11.00">&lt; 2</text>
<polygon fill="#ffffff" stroke="transparent" points="1030,-121 1030,-139 1079,-139 1079,-121 1030,-121"/>
<polygon fill="none" stroke="black" points="1030,-121 1030,-139 1079,-139 1079,-121 1030,-121"/>
<text text-anchor="start" x="1069" y="-127.2" font-family="Helvetica,sans-Serif" font-size="11.00"> &#160;</text>
<polygon fill="#ffffff" stroke="transparent" points="1079,-121 1079,-139 1129,-139 1129,-121 1079,-121"/>
<polygon fill="none" stroke="black" points="1079,-121 1079,-139 1129,-139 1129,-121 1079,-121"/>
<text text-anchor="start" x="1119" y="-127.2" font-family="Helvetica,sans-Serif" font-size="11.00"> &#160;</text>
</a>
</g>
</g>
<!-- syst_interaction_logs&#45;&gt;syst_enum_items -->
<g id="edge14" class="edge">
<title>syst_interaction_logs:w&#45;&gt;syst_enum_items:e</title>
<path fill="none" stroke="black" d="M919.5,-191.48C884.58,-199.37 883.61,-237.65 866,-278 843.29,-330.03 880.77,-530 824,-530"/>
<polygon fill="black" stroke="black" points="926.04,-190.81 934.37,-193.58 930.02,-190.41 934,-190 934,-190 934,-190 930.02,-190.41 933.63,-186.42 926.04,-190.81 926.04,-190.81"/>
<ellipse fill="none" stroke="black" cx="922.86" cy="-191.14" rx="3.2" ry="3.2"/>
</g>
<!-- syst_interaction_logs&#45;&gt;syst_enum_items -->
<g id="edge15" class="edge">
<title>syst_interaction_logs:w&#45;&gt;syst_enum_items:e</title>
<path fill="none" stroke="black" d="M919.53,-169.43C878.08,-178.52 884.32,-229.24 866,-278 846.03,-331.14 880.77,-530 824,-530"/>
<polygon fill="black" stroke="black" points="926.04,-168.79 934.35,-171.58 930.02,-168.39 934,-168 934,-168 934,-168 930.02,-168.39 933.65,-164.42 926.04,-168.79 926.04,-168.79"/>
<ellipse fill="none" stroke="black" cx="922.85" cy="-169.1" rx="3.2" ry="3.2"/>
</g>
</g>
</svg>
