<?xml version="1.0" encoding="UTF-8" standalone="no"?>
<!DOCTYPE svg PUBLIC "-//W3C//DTD SVG 1.1//EN"
 "http://www.w3.org/Graphics/SVG/1.1/DTD/svg11.dtd">
<!-- Generated by graphviz version 2.43.0 (0)
 -->
<!-- Title: oneDegreeRelationshipsDiagram Pages: 1 -->
<svg width="817pt" height="505pt"
 viewBox="0.00 0.00 817.00 505.00" xmlns="http://www.w3.org/2000/svg" xmlns:xlink="http://www.w3.org/1999/xlink">
<g id="graph0" class="graph" transform="scale(1 1) rotate(0) translate(4 501)">
<title>oneDegreeRelationshipsDiagram</title>
<polygon fill="#ffffff" stroke="transparent" points="-4,4 -4,-501 813,-501 813,4 -4,4"/>
<text text-anchor="middle" x="71.5" y="-7.2" font-family="Helvetica,sans-Serif" font-size="11.00">Generated by SchemaSpy</text>
<!-- syst_enum_functional_types -->
<g id="node1" class="node">
<title>syst_enum_functional_types</title>
<g id="a_node1"><a xlink:href="../../tables/syst_enum_functional_types.html" xlink:title="syst_enum_functional_types" target="_top">
<polygon fill="#ffffff" stroke="transparent" points="251,-37 251,-389 558,-389 558,-37 251,-37"/>
<polygon fill="#f5f5f5" stroke="transparent" points="253.5,-365 253.5,-387 556.5,-387 556.5,-365 253.5,-365"/>
<polygon fill="none" stroke="black" points="253.5,-365 253.5,-387 556.5,-387 556.5,-365 253.5,-365"/>
<text text-anchor="start" x="258.5" y="-374.2" font-family="Helvetica,sans-Serif" font-weight="bold" font-size="11.00">syst_enum_functional_types</text>
<text text-anchor="start" x="521.5" y="-373.2" font-family="Helvetica,sans-Serif" font-size="11.00">[table]</text>
<polygon fill="none" stroke="black" points="253.5,-343 253.5,-365 463.5,-365 463.5,-343 253.5,-343"/>
<image xlink:href="../../images/primaryKeys.png" width="11px" height="12px" preserveAspectRatio="xMinYMin meet" x="258.5" y="-360"/>
<text text-anchor="start" x="273.5" y="-351.2" font-family="Helvetica,sans-Serif" font-size="11.00">id</text>
<polygon fill="none" stroke="black" points="463.5,-343 463.5,-365 556.5,-365 556.5,-343 463.5,-343"/>
<text text-anchor="start" x="466.5" y="-351.2" font-family="Helvetica,sans-Serif" font-size="11.00">uuid[2147483647]</text>
<polygon fill="#ffffff" stroke="transparent" points="253.5,-321 253.5,-343 463.5,-343 463.5,-321 253.5,-321"/>
<polygon fill="none" stroke="black" points="253.5,-321 253.5,-343 463.5,-343 463.5,-321 253.5,-321"/>
<text text-anchor="start" x="273.5" y="-329.2" font-family="Helvetica,sans-Serif" font-size="11.00">internal_name</text>
<polygon fill="none" stroke="black" points="463.5,-321 463.5,-343 556.5,-343 556.5,-321 463.5,-321"/>
<text text-anchor="start" x="466.5" y="-329.2" font-family="Helvetica,sans-Serif" font-size="11.00">text[2147483647]</text>
<polygon fill="#ffffff" stroke="transparent" points="253.5,-299 253.5,-321 463.5,-321 463.5,-299 253.5,-299"/>
<polygon fill="none" stroke="black" points="253.5,-299 253.5,-321 463.5,-321 463.5,-299 253.5,-299"/>
<text text-anchor="start" x="273.5" y="-307.2" font-family="Helvetica,sans-Serif" font-size="11.00">display_name</text>
<polygon fill="none" stroke="black" points="463.5,-299 463.5,-321 556.5,-321 556.5,-299 463.5,-299"/>
<text text-anchor="start" x="466.5" y="-307.2" font-family="Helvetica,sans-Serif" font-size="11.00">text[2147483647]</text>
<polygon fill="none" stroke="black" points="253.5,-277 253.5,-299 463.5,-299 463.5,-277 253.5,-277"/>
<text text-anchor="start" x="273.5" y="-285.2" font-family="Helvetica,sans-Serif" font-size="11.00">external_name</text>
<polygon fill="none" stroke="black" points="463.5,-277 463.5,-299 556.5,-299 556.5,-277 463.5,-277"/>
<text text-anchor="start" x="466.5" y="-285.2" font-family="Helvetica,sans-Serif" font-size="11.00">text[2147483647]</text>
<polygon fill="none" stroke="black" points="253.5,-255 253.5,-277 463.5,-277 463.5,-255 253.5,-255"/>
<image xlink:href="../../images/foreignKeys.png" width="11px" height="12px" preserveAspectRatio="xMinYMin meet" x="258.5" y="-272"/>
<text text-anchor="start" x="273.5" y="-263.2" font-family="Helvetica,sans-Serif" font-size="11.00">enum_id</text>
<polygon fill="none" stroke="black" points="463.5,-255 463.5,-277 556.5,-277 556.5,-255 463.5,-255"/>
<text text-anchor="start" x="466.5" y="-263.2" font-family="Helvetica,sans-Serif" font-size="11.00">uuid[2147483647]</text>
<polygon fill="none" stroke="black" points="253.5,-233 253.5,-255 463.5,-255 463.5,-233 253.5,-233"/>
<text text-anchor="start" x="273.5" y="-241.2" font-family="Helvetica,sans-Serif" font-size="11.00">syst_description</text>
<polygon fill="none" stroke="black" points="463.5,-233 463.5,-255 556.5,-255 556.5,-233 463.5,-233"/>
<text text-anchor="start" x="466.5" y="-241.2" font-family="Helvetica,sans-Serif" font-size="11.00">text[2147483647]</text>
<polygon fill="none" stroke="black" points="253.5,-211 253.5,-233 463.5,-233 463.5,-211 253.5,-211"/>
<text text-anchor="start" x="273.5" y="-219.2" font-family="Helvetica,sans-Serif" font-size="11.00">user_description</text>
<polygon fill="none" stroke="black" points="463.5,-211 463.5,-233 556.5,-233 556.5,-211 463.5,-211"/>
<text text-anchor="start" x="466.5" y="-219.2" font-family="Helvetica,sans-Serif" font-size="11.00">text[2147483647]</text>
<polygon fill="none" stroke="black" points="253.5,-189 253.5,-211 463.5,-211 463.5,-189 253.5,-189"/>
<text text-anchor="start" x="273.5" y="-197.2" font-family="Helvetica,sans-Serif" font-size="11.00">diag_timestamp_created</text>
<polygon fill="none" stroke="black" points="463.5,-189 463.5,-211 556.5,-211 556.5,-189 463.5,-189"/>
<text text-anchor="start" x="466.5" y="-197.2" font-family="Helvetica,sans-Serif" font-size="11.00">timestamptz[35,6]</text>
<polygon fill="none" stroke="black" points="253.5,-167 253.5,-189 463.5,-189 463.5,-167 253.5,-167"/>
<text text-anchor="start" x="273.5" y="-175.2" font-family="Helvetica,sans-Serif" font-size="11.00">diag_role_created</text>
<polygon fill="none" stroke="black" points="463.5,-167 463.5,-189 556.5,-189 556.5,-167 463.5,-167"/>
<text text-anchor="start" x="466.5" y="-175.2" font-family="Helvetica,sans-Serif" font-size="11.00">text[2147483647]</text>
<polygon fill="none" stroke="black" points="253.5,-145 253.5,-167 463.5,-167 463.5,-145 253.5,-145"/>
<text text-anchor="start" x="273.5" y="-153.2" font-family="Helvetica,sans-Serif" font-size="11.00">diag_timestamp_modified</text>
<polygon fill="none" stroke="black" points="463.5,-145 463.5,-167 556.5,-167 556.5,-145 463.5,-145"/>
<text text-anchor="start" x="466.5" y="-153.2" font-family="Helvetica,sans-Serif" font-size="11.00">timestamptz[35,6]</text>
<polygon fill="none" stroke="black" points="253.5,-123 253.5,-145 463.5,-145 463.5,-123 253.5,-123"/>
<text text-anchor="start" x="273.5" y="-131.2" font-family="Helvetica,sans-Serif" font-size="11.00">diag_wallclock_modified</text>
<polygon fill="none" stroke="black" points="463.5,-123 463.5,-145 556.5,-145 556.5,-123 463.5,-123"/>
<text text-anchor="start" x="466.5" y="-131.2" font-family="Helvetica,sans-Serif" font-size="11.00">timestamptz[35,6]</text>
<polygon fill="none" stroke="black" points="253.5,-101 253.5,-123 463.5,-123 463.5,-101 253.5,-101"/>
<text text-anchor="start" x="273.5" y="-109.2" font-family="Helvetica,sans-Serif" font-size="11.00">diag_role_modified</text>
<polygon fill="none" stroke="black" points="463.5,-101 463.5,-123 556.5,-123 556.5,-101 463.5,-101"/>
<text text-anchor="start" x="466.5" y="-109.2" font-family="Helvetica,sans-Serif" font-size="11.00">text[2147483647]</text>
<polygon fill="none" stroke="black" points="253.5,-79 253.5,-101 463.5,-101 463.5,-79 253.5,-79"/>
<text text-anchor="start" x="273.5" y="-87.2" font-family="Helvetica,sans-Serif" font-size="11.00">diag_row_version</text>
<polygon fill="none" stroke="black" points="463.5,-79 463.5,-101 556.5,-101 556.5,-79 463.5,-79"/>
<text text-anchor="start" x="466.5" y="-87.2" font-family="Helvetica,sans-Serif" font-size="11.00">int8[19]</text>
<polygon fill="none" stroke="black" points="253.5,-57 253.5,-79 463.5,-79 463.5,-57 253.5,-57"/>
<text text-anchor="start" x="273.5" y="-65.2" font-family="Helvetica,sans-Serif" font-size="11.00">diag_update_count</text>
<polygon fill="none" stroke="black" points="463.5,-57 463.5,-79 556.5,-79 556.5,-57 463.5,-57"/>
<text text-anchor="start" x="466.5" y="-65.2" font-family="Helvetica,sans-Serif" font-size="11.00">int8[19]</text>
<polygon fill="#ffffff" stroke="transparent" points="253.5,-39 253.5,-57 362.5,-57 362.5,-39 253.5,-39"/>
<polygon fill="none" stroke="black" points="253.5,-39 253.5,-57 362.5,-57 362.5,-39 253.5,-39"/>
<text text-anchor="start" x="256.5" y="-45.2" font-family="Helvetica,sans-Serif" font-size="11.00">&lt; 1</text>
<polygon fill="#ffffff" stroke="transparent" points="362.5,-39 362.5,-57 463.5,-57 463.5,-39 362.5,-39"/>
<polygon fill="none" stroke="black" points="362.5,-39 362.5,-57 463.5,-57 463.5,-39 362.5,-39"/>
<text text-anchor="start" x="453.5" y="-45.2" font-family="Helvetica,sans-Serif" font-size="11.00"> &#160;</text>
<polygon fill="#ffffff" stroke="transparent" points="463.5,-39 463.5,-57 556.5,-57 556.5,-39 463.5,-39"/>
<polygon fill="none" stroke="black" points="463.5,-39 463.5,-57 556.5,-57 556.5,-39 463.5,-39"/>
<text text-anchor="start" x="537.5" y="-45.2" font-family="Helvetica,sans-Serif" font-size="11.00">1 &gt;</text>
<polygon fill="none" stroke="black" stroke-width="2" points="252,-38 252,-388 557,-388 557,-38 252,-38"/>
</a>
</g>
</g>
<!-- syst_enums -->
<g id="node2" class="node">
<title>syst_enums</title>
<g id="a_node2"><a xlink:href="../../tables/syst_enums.html" xlink:title="syst_enums" target="_top">
<polygon fill="#ffffff" stroke="transparent" points="8,-248 8,-372 202,-372 202,-248 8,-248"/>
<polygon fill="#f5f5f5" stroke="transparent" points="8,-350 8,-372 202,-372 202,-350 8,-350"/>
<polygon fill="none" stroke="black" points="8,-350 8,-372 202,-372 202,-350 8,-350"/>
<text text-anchor="start" x="13" y="-359.2" font-family="Helvetica,sans-Serif" font-weight="bold" font-size="11.00">syst_enums</text>
<text text-anchor="start" x="167" y="-358.2" font-family="Helvetica,sans-Serif" font-size="11.00">[table]</text>
<polygon fill="none" stroke="black" points="8,-328 8,-350 202,-350 202,-328 8,-328"/>
<image xlink:href="../../images/primaryKeys.png" width="11px" height="12px" preserveAspectRatio="xMinYMin meet" x="13" y="-345"/>
<text text-anchor="start" x="28" y="-336.2" font-family="Helvetica,sans-Serif" font-size="11.00">id</text>
<polygon fill="#ffffff" stroke="transparent" points="8,-306 8,-328 202,-328 202,-306 8,-306"/>
<polygon fill="none" stroke="black" points="8,-306 8,-328 202,-328 202,-306 8,-306"/>
<text text-anchor="start" x="28" y="-314.2" font-family="Helvetica,sans-Serif" font-size="11.00">internal_name</text>
<polygon fill="#ffffff" stroke="transparent" points="8,-284 8,-306 202,-306 202,-284 8,-284"/>
<polygon fill="none" stroke="black" points="8,-284 8,-306 202,-306 202,-284 8,-284"/>
<text text-anchor="start" x="28" y="-292.2" font-family="Helvetica,sans-Serif" font-size="11.00">display_name</text>
<polygon fill="none" stroke="black" points="8,-266 8,-284 202,-284 202,-266 8,-266"/>
<text text-anchor="start" x="11" y="-272.2" font-family="Helvetica,sans-Serif" font-size="11.00">...</text>
<polygon fill="#ffffff" stroke="transparent" points="8,-248 8,-266 94,-266 94,-248 8,-248"/>
<polygon fill="none" stroke="black" points="8,-248 8,-266 94,-266 94,-248 8,-248"/>
<text text-anchor="start" x="11" y="-254.2" font-family="Helvetica,sans-Serif" font-size="11.00"> &#160;</text>
<polygon fill="#ffffff" stroke="transparent" points="94,-248 94,-266 143,-266 143,-248 94,-248"/>
<polygon fill="none" stroke="black" points="94,-248 94,-266 143,-266 143,-248 94,-248"/>
<text text-anchor="start" x="133" y="-254.2" font-family="Helvetica,sans-Serif" font-size="11.00"> &#160;</text>
<polygon fill="#ffffff" stroke="transparent" points="143,-248 143,-266 202,-266 202,-248 143,-248"/>
<polygon fill="none" stroke="black" points="143,-248 143,-266 202,-266 202,-248 143,-248"/>
<text text-anchor="start" x="183" y="-254.2" font-family="Helvetica,sans-Serif" font-size="11.00">2 &gt;</text>
</a>
</g>
</g>
<!-- syst_enum_functional_types&#45;&gt;syst_enums -->
<g id="edge1" class="edge">
<title>syst_enum_functional_types:w&#45;&gt;syst_enums:e</title>
<path fill="none" stroke="black" d="M238.59,-270.79C220.67,-287.03 236.08,-339 203,-339"/>
<polygon fill="black" stroke="black" points="244.94,-268.61 253.67,-269.4 248.72,-267.3 252.5,-266 252.5,-266 252.5,-266 248.72,-267.3 251.33,-262.6 244.94,-268.61 244.94,-268.61"/>
<ellipse fill="none" stroke="black" cx="241.91" cy="-269.65" rx="3.2" ry="3.2"/>
</g>
<!-- syst_enum_items -->
<g id="node3" class="node">
<title>syst_enum_items</title>
<g id="a_node3"><a xlink:href="../../tables/syst_enum_items.html" xlink:title="syst_enum_items" target="_top">
<polygon fill="#ffffff" stroke="transparent" points="607,-325 607,-493 801,-493 801,-325 607,-325"/>
<polygon fill="#f5f5f5" stroke="transparent" points="607,-471 607,-493 801,-493 801,-471 607,-471"/>
<polygon fill="none" stroke="black" points="607,-471 607,-493 801,-493 801,-471 607,-471"/>
<text text-anchor="start" x="612" y="-480.2" font-family="Helvetica,sans-Serif" font-weight="bold" font-size="11.00">syst_enum_items</text>
<text text-anchor="start" x="766" y="-479.2" font-family="Helvetica,sans-Serif" font-size="11.00">[table]</text>
<polygon fill="none" stroke="black" points="607,-449 607,-471 801,-471 801,-449 607,-449"/>
<image xlink:href="../../images/primaryKeys.png" width="11px" height="12px" preserveAspectRatio="xMinYMin meet" x="612" y="-466"/>
<text text-anchor="start" x="627" y="-457.2" font-family="Helvetica,sans-Serif" font-size="11.00">id</text>
<polygon fill="#ffffff" stroke="transparent" points="607,-427 607,-449 801,-449 801,-427 607,-427"/>
<polygon fill="none" stroke="black" points="607,-427 607,-449 801,-449 801,-427 607,-427"/>
<text text-anchor="start" x="627" y="-435.2" font-family="Helvetica,sans-Serif" font-size="11.00">internal_name</text>
<polygon fill="#ffffff" stroke="transparent" points="607,-405 607,-427 801,-427 801,-405 607,-405"/>
<polygon fill="none" stroke="black" points="607,-405 607,-427 801,-427 801,-405 607,-405"/>
<text text-anchor="start" x="627" y="-413.2" font-family="Helvetica,sans-Serif" font-size="11.00">display_name</text>
<polygon fill="none" stroke="black" points="607,-383 607,-405 801,-405 801,-383 607,-383"/>
<image xlink:href="../../images/foreignKeys.png" width="11px" height="12px" preserveAspectRatio="xMinYMin meet" x="612" y="-400"/>
<text text-anchor="start" x="627" y="-391.2" font-family="Helvetica,sans-Serif" font-size="11.00">enum_id</text>
<polygon fill="none" stroke="black" points="607,-361 607,-383 801,-383 801,-361 607,-361"/>
<image xlink:href="../../images/foreignKeys.png" width="11px" height="12px" preserveAspectRatio="xMinYMin meet" x="612" y="-378"/>
<text text-anchor="start" x="627" y="-369.2" font-family="Helvetica,sans-Serif" font-size="11.00">functional_type_id</text>
<polygon fill="none" stroke="black" points="607,-343 607,-361 801,-361 801,-343 607,-343"/>
<text text-anchor="start" x="610" y="-349.2" font-family="Helvetica,sans-Serif" font-size="11.00">...</text>
<polygon fill="#ffffff" stroke="transparent" points="607,-325 607,-343 694,-343 694,-325 607,-325"/>
<polygon fill="none" stroke="black" points="607,-325 607,-343 694,-343 694,-325 607,-325"/>
<text text-anchor="start" x="610" y="-331.2" font-family="Helvetica,sans-Serif" font-size="11.00">&lt; 2</text>
<polygon fill="#ffffff" stroke="transparent" points="694,-325 694,-343 740,-343 740,-325 694,-325"/>
<polygon fill="none" stroke="black" points="694,-325 694,-343 740,-343 740,-325 694,-325"/>
<text text-anchor="start" x="730" y="-331.2" font-family="Helvetica,sans-Serif" font-size="11.00"> &#160;</text>
<polygon fill="#ffffff" stroke="transparent" points="740,-325 740,-343 801,-343 801,-325 740,-325"/>
<polygon fill="none" stroke="black" points="740,-325 740,-343 801,-343 801,-325 740,-325"/>
<text text-anchor="start" x="776" y="-331.2" font-family="Helvetica,sans-Serif" font-size="11.00">12 &gt;</text>
</a>
</g>
</g>
<!-- syst_enum_items&#45;&gt;syst_enum_functional_types -->
<g id="edge3" class="edge">
<title>syst_enum_items:w&#45;&gt;syst_enum_functional_types:e</title>
<path fill="none" stroke="black" d="M591.6,-369.03C580.35,-363.92 574.56,-354 557.5,-354"/>
<polygon fill="black" stroke="black" points="598.17,-370.38 605.27,-375.53 602.08,-371.19 606,-372 606,-372 606,-372 602.08,-371.19 606.73,-368.47 598.17,-370.38 598.17,-370.38"/>
<ellipse fill="none" stroke="black" cx="595.03" cy="-369.74" rx="3.2" ry="3.2"/>
</g>
<!-- syst_enum_items&#45;&gt;syst_enums -->
<g id="edge2" class="edge">
<title>syst_enum_items:w&#45;&gt;syst_enums:e</title>
<path fill="none" stroke="black" d="M591.53,-395.28C583.71,-396.76 577.9,-399.11 566,-400 422.84,-410.68 369.31,-468.22 243,-400 214.47,-384.59 235.42,-339 203,-339"/>
<polygon fill="black" stroke="black" points="598.03,-394.7 606.32,-397.59 602.02,-394.35 606,-394 606,-394 606,-394 602.02,-394.35 605.68,-390.41 598.03,-394.7 598.03,-394.7"/>
<ellipse fill="none" stroke="black" cx="594.84" cy="-394.98" rx="3.2" ry="3.2"/>
</g>
</g>
</svg>
