<?xml version="1.0" encoding="UTF-8" standalone="no"?>
<!DOCTYPE svg PUBLIC "-//W3C//DTD SVG 1.1//EN"
 "http://www.w3.org/Graphics/SVG/1.1/DTD/svg11.dtd">
<!-- Generated by graphviz version 2.43.0 (0)
 -->
<!-- Title: oneDegreeRelationshipsDiagram Pages: 1 -->
<svg width="595pt" height="465pt"
 viewBox="0.00 0.00 595.00 465.00" xmlns="http://www.w3.org/2000/svg" xmlns:xlink="http://www.w3.org/1999/xlink">
<g id="graph0" class="graph" transform="scale(1 1) rotate(0) translate(4 461)">
<title>oneDegreeRelationshipsDiagram</title>
<polygon fill="#ffffff" stroke="transparent" points="-4,4 -4,-461 591,-461 591,4 -4,4"/>
<text text-anchor="middle" x="71.5" y="-7.2" font-family="Helvetica,sans-Serif" font-size="11.00">Generated by SchemaSpy</text>
<!-- syst_complex_format_values -->
<g id="node1" class="node">
<title>syst_complex_format_values</title>
<g id="a_node1"><a xlink:href="../../tables/syst_complex_format_values.html" xlink:title="syst_complex_format_values" target="_top">
<polygon fill="#ffffff" stroke="transparent" points="348,-307 348,-453 579,-453 579,-307 348,-307"/>
<polygon fill="#f5f5f5" stroke="transparent" points="348.5,-431 348.5,-453 579.5,-453 579.5,-431 348.5,-431"/>
<polygon fill="none" stroke="black" points="348.5,-431 348.5,-453 579.5,-453 579.5,-431 348.5,-431"/>
<text text-anchor="start" x="353.5" y="-440.2" font-family="Helvetica,sans-Serif" font-weight="bold" font-size="11.00">syst_complex_format_values</text>
<text text-anchor="start" x="544.5" y="-439.2" font-family="Helvetica,sans-Serif" font-size="11.00">[table]</text>
<polygon fill="none" stroke="black" points="348.5,-409 348.5,-431 579.5,-431 579.5,-409 348.5,-409"/>
<image xlink:href="../../images/primaryKeys.png" width="11px" height="12px" preserveAspectRatio="xMinYMin meet" x="353.5" y="-426"/>
<text text-anchor="start" x="378.5" y="-417.2" font-family="Helvetica,sans-Serif" font-size="11.00">id</text>
<polygon fill="#ffffff" stroke="transparent" points="348.5,-387 348.5,-409 579.5,-409 579.5,-387 348.5,-387"/>
<polygon fill="none" stroke="black" points="348.5,-387 348.5,-409 579.5,-409 579.5,-387 348.5,-387"/>
<text text-anchor="start" x="378.5" y="-395.2" font-family="Helvetica,sans-Serif" font-size="11.00">internal_name</text>
<polygon fill="#ffffff" stroke="transparent" points="348.5,-365 348.5,-387 579.5,-387 579.5,-365 348.5,-365"/>
<polygon fill="none" stroke="black" points="348.5,-365 348.5,-387 579.5,-387 579.5,-365 348.5,-365"/>
<text text-anchor="start" x="378.5" y="-373.2" font-family="Helvetica,sans-Serif" font-size="11.00">display_name</text>
<polygon fill="none" stroke="black" points="348.5,-343 348.5,-365 579.5,-365 579.5,-343 348.5,-343"/>
<image xlink:href="../../images/foreignKeys.png" width="11px" height="12px" preserveAspectRatio="xMinYMin meet" x="353.5" y="-360"/>
<text text-anchor="start" x="378.5" y="-351.2" font-family="Helvetica,sans-Serif" font-size="11.00">complex_format_id</text>
<polygon fill="none" stroke="black" points="348.5,-325 348.5,-343 579.5,-343 579.5,-325 348.5,-325"/>
<text text-anchor="start" x="351.5" y="-331.2" font-family="Helvetica,sans-Serif" font-size="11.00">...</text>
<polygon fill="#ffffff" stroke="transparent" points="348.5,-307 348.5,-325 457.5,-325 457.5,-307 348.5,-307"/>
<polygon fill="none" stroke="black" points="348.5,-307 348.5,-325 457.5,-325 457.5,-307 348.5,-307"/>
<text text-anchor="start" x="351.5" y="-313.2" font-family="Helvetica,sans-Serif" font-size="11.00">&lt; 1</text>
<polygon fill="#ffffff" stroke="transparent" points="457.5,-307 457.5,-325 513.5,-325 513.5,-307 457.5,-307"/>
<polygon fill="none" stroke="black" points="457.5,-307 457.5,-325 513.5,-325 513.5,-307 457.5,-307"/>
<text text-anchor="start" x="503.5" y="-313.2" font-family="Helvetica,sans-Serif" font-size="11.00"> &#160;</text>
<polygon fill="#ffffff" stroke="transparent" points="513.5,-307 513.5,-325 579.5,-325 579.5,-307 513.5,-307"/>
<polygon fill="none" stroke="black" points="513.5,-307 513.5,-325 579.5,-325 579.5,-307 513.5,-307"/>
<text text-anchor="start" x="560.5" y="-313.2" font-family="Helvetica,sans-Serif" font-size="11.00">3 &gt;</text>
</a>
</g>
</g>
<!-- syst_complex_formats -->
<g id="node2" class="node">
<title>syst_complex_formats</title>
<g id="a_node2"><a xlink:href="../../tables/syst_complex_formats.html" xlink:title="syst_complex_formats" target="_top">
<polygon fill="#ffffff" stroke="transparent" points="8,-37 8,-389 299,-389 299,-37 8,-37"/>
<polygon fill="#f5f5f5" stroke="transparent" points="10.5,-365 10.5,-387 297.5,-387 297.5,-365 10.5,-365"/>
<polygon fill="none" stroke="black" points="10.5,-365 10.5,-387 297.5,-387 297.5,-365 10.5,-365"/>
<text text-anchor="start" x="15.5" y="-374.2" font-family="Helvetica,sans-Serif" font-weight="bold" font-size="11.00">syst_complex_formats</text>
<text text-anchor="start" x="262.5" y="-373.2" font-family="Helvetica,sans-Serif" font-size="11.00">[table]</text>
<polygon fill="none" stroke="black" points="10.5,-343 10.5,-365 204.5,-365 204.5,-343 10.5,-343"/>
<image xlink:href="../../images/primaryKeys.png" width="11px" height="12px" preserveAspectRatio="xMinYMin meet" x="15.5" y="-360"/>
<text text-anchor="start" x="30.5" y="-351.2" font-family="Helvetica,sans-Serif" font-size="11.00">id</text>
<polygon fill="none" stroke="black" points="204.5,-343 204.5,-365 297.5,-365 297.5,-343 204.5,-343"/>
<text text-anchor="start" x="207.5" y="-351.2" font-family="Helvetica,sans-Serif" font-size="11.00">uuid[2147483647]</text>
<polygon fill="#ffffff" stroke="transparent" points="10.5,-321 10.5,-343 204.5,-343 204.5,-321 10.5,-321"/>
<polygon fill="none" stroke="black" points="10.5,-321 10.5,-343 204.5,-343 204.5,-321 10.5,-321"/>
<text text-anchor="start" x="30.5" y="-329.2" font-family="Helvetica,sans-Serif" font-size="11.00">internal_name</text>
<polygon fill="none" stroke="black" points="204.5,-321 204.5,-343 297.5,-343 297.5,-321 204.5,-321"/>
<text text-anchor="start" x="207.5" y="-329.2" font-family="Helvetica,sans-Serif" font-size="11.00">text[2147483647]</text>
<polygon fill="#ffffff" stroke="transparent" points="10.5,-299 10.5,-321 204.5,-321 204.5,-299 10.5,-299"/>
<polygon fill="none" stroke="black" points="10.5,-299 10.5,-321 204.5,-321 204.5,-299 10.5,-299"/>
<text text-anchor="start" x="30.5" y="-307.2" font-family="Helvetica,sans-Serif" font-size="11.00">display_name</text>
<polygon fill="none" stroke="black" points="204.5,-299 204.5,-321 297.5,-321 297.5,-299 204.5,-299"/>
<text text-anchor="start" x="207.5" y="-307.2" font-family="Helvetica,sans-Serif" font-size="11.00">text[2147483647]</text>
<polygon fill="none" stroke="black" points="10.5,-277 10.5,-299 204.5,-299 204.5,-277 10.5,-277"/>
<text text-anchor="start" x="30.5" y="-285.2" font-family="Helvetica,sans-Serif" font-size="11.00">syst_description</text>
<polygon fill="none" stroke="black" points="204.5,-277 204.5,-299 297.5,-299 297.5,-277 204.5,-277"/>
<text text-anchor="start" x="207.5" y="-285.2" font-family="Helvetica,sans-Serif" font-size="11.00">text[2147483647]</text>
<polygon fill="none" stroke="black" points="10.5,-255 10.5,-277 204.5,-277 204.5,-255 10.5,-255"/>
<text text-anchor="start" x="30.5" y="-263.2" font-family="Helvetica,sans-Serif" font-size="11.00">user_description</text>
<polygon fill="none" stroke="black" points="204.5,-255 204.5,-277 297.5,-277 297.5,-255 204.5,-255"/>
<text text-anchor="start" x="207.5" y="-263.2" font-family="Helvetica,sans-Serif" font-size="11.00">text[2147483647]</text>
<polygon fill="none" stroke="black" points="10.5,-233 10.5,-255 204.5,-255 204.5,-233 10.5,-233"/>
<text text-anchor="start" x="30.5" y="-241.2" font-family="Helvetica,sans-Serif" font-size="11.00">syst_defined</text>
<polygon fill="none" stroke="black" points="204.5,-233 204.5,-255 297.5,-255 297.5,-233 204.5,-233"/>
<text text-anchor="start" x="207.5" y="-241.2" font-family="Helvetica,sans-Serif" font-size="11.00">bool[1]</text>
<polygon fill="none" stroke="black" points="10.5,-211 10.5,-233 204.5,-233 204.5,-211 10.5,-211"/>
<text text-anchor="start" x="30.5" y="-219.2" font-family="Helvetica,sans-Serif" font-size="11.00">user_maintainable</text>
<polygon fill="none" stroke="black" points="204.5,-211 204.5,-233 297.5,-233 297.5,-211 204.5,-211"/>
<text text-anchor="start" x="207.5" y="-219.2" font-family="Helvetica,sans-Serif" font-size="11.00">bool[1]</text>
<polygon fill="none" stroke="black" points="10.5,-189 10.5,-211 204.5,-211 204.5,-189 10.5,-189"/>
<text text-anchor="start" x="30.5" y="-197.2" font-family="Helvetica,sans-Serif" font-size="11.00">diag_timestamp_created</text>
<polygon fill="none" stroke="black" points="204.5,-189 204.5,-211 297.5,-211 297.5,-189 204.5,-189"/>
<text text-anchor="start" x="207.5" y="-197.2" font-family="Helvetica,sans-Serif" font-size="11.00">timestamptz[35,6]</text>
<polygon fill="none" stroke="black" points="10.5,-167 10.5,-189 204.5,-189 204.5,-167 10.5,-167"/>
<text text-anchor="start" x="30.5" y="-175.2" font-family="Helvetica,sans-Serif" font-size="11.00">diag_role_created</text>
<polygon fill="none" stroke="black" points="204.5,-167 204.5,-189 297.5,-189 297.5,-167 204.5,-167"/>
<text text-anchor="start" x="207.5" y="-175.2" font-family="Helvetica,sans-Serif" font-size="11.00">text[2147483647]</text>
<polygon fill="none" stroke="black" points="10.5,-145 10.5,-167 204.5,-167 204.5,-145 10.5,-145"/>
<text text-anchor="start" x="30.5" y="-153.2" font-family="Helvetica,sans-Serif" font-size="11.00">diag_timestamp_modified</text>
<polygon fill="none" stroke="black" points="204.5,-145 204.5,-167 297.5,-167 297.5,-145 204.5,-145"/>
<text text-anchor="start" x="207.5" y="-153.2" font-family="Helvetica,sans-Serif" font-size="11.00">timestamptz[35,6]</text>
<polygon fill="none" stroke="black" points="10.5,-123 10.5,-145 204.5,-145 204.5,-123 10.5,-123"/>
<text text-anchor="start" x="30.5" y="-131.2" font-family="Helvetica,sans-Serif" font-size="11.00">diag_wallclock_modified</text>
<polygon fill="none" stroke="black" points="204.5,-123 204.5,-145 297.5,-145 297.5,-123 204.5,-123"/>
<text text-anchor="start" x="207.5" y="-131.2" font-family="Helvetica,sans-Serif" font-size="11.00">timestamptz[35,6]</text>
<polygon fill="none" stroke="black" points="10.5,-101 10.5,-123 204.5,-123 204.5,-101 10.5,-101"/>
<text text-anchor="start" x="30.5" y="-109.2" font-family="Helvetica,sans-Serif" font-size="11.00">diag_role_modified</text>
<polygon fill="none" stroke="black" points="204.5,-101 204.5,-123 297.5,-123 297.5,-101 204.5,-101"/>
<text text-anchor="start" x="207.5" y="-109.2" font-family="Helvetica,sans-Serif" font-size="11.00">text[2147483647]</text>
<polygon fill="none" stroke="black" points="10.5,-79 10.5,-101 204.5,-101 204.5,-79 10.5,-79"/>
<text text-anchor="start" x="30.5" y="-87.2" font-family="Helvetica,sans-Serif" font-size="11.00">diag_row_version</text>
<polygon fill="none" stroke="black" points="204.5,-79 204.5,-101 297.5,-101 297.5,-79 204.5,-79"/>
<text text-anchor="start" x="207.5" y="-87.2" font-family="Helvetica,sans-Serif" font-size="11.00">int8[19]</text>
<polygon fill="none" stroke="black" points="10.5,-57 10.5,-79 204.5,-79 204.5,-57 10.5,-57"/>
<text text-anchor="start" x="30.5" y="-65.2" font-family="Helvetica,sans-Serif" font-size="11.00">diag_update_count</text>
<polygon fill="none" stroke="black" points="204.5,-57 204.5,-79 297.5,-79 297.5,-57 204.5,-57"/>
<text text-anchor="start" x="207.5" y="-65.2" font-family="Helvetica,sans-Serif" font-size="11.00">int8[19]</text>
<polygon fill="#ffffff" stroke="transparent" points="10.5,-39 10.5,-57 111.5,-57 111.5,-39 10.5,-39"/>
<polygon fill="none" stroke="black" points="10.5,-39 10.5,-57 111.5,-57 111.5,-39 10.5,-39"/>
<text text-anchor="start" x="13.5" y="-45.2" font-family="Helvetica,sans-Serif" font-size="11.00">&lt; 0</text>
<polygon fill="#ffffff" stroke="transparent" points="111.5,-39 111.5,-57 204.5,-57 204.5,-39 111.5,-39"/>
<polygon fill="none" stroke="black" points="111.5,-39 111.5,-57 204.5,-57 204.5,-39 111.5,-39"/>
<text text-anchor="start" x="194.5" y="-45.2" font-family="Helvetica,sans-Serif" font-size="11.00"> &#160;</text>
<polygon fill="#ffffff" stroke="transparent" points="204.5,-39 204.5,-57 297.5,-57 297.5,-39 204.5,-39"/>
<polygon fill="none" stroke="black" points="204.5,-39 204.5,-57 297.5,-57 297.5,-39 204.5,-39"/>
<text text-anchor="start" x="278.5" y="-45.2" font-family="Helvetica,sans-Serif" font-size="11.00">1 &gt;</text>
<polygon fill="none" stroke="black" stroke-width="2" points="9,-38 9,-388 298,-388 298,-38 9,-38"/>
</a>
</g>
</g>
<!-- syst_complex_format_values&#45;&gt;syst_complex_formats -->
<g id="edge1" class="edge">
<title>syst_complex_format_values:w&#45;&gt;syst_complex_formats:e</title>
<path fill="none" stroke="black" d="M332.99,-354C321.68,-354 314.49,-354 298.5,-354"/>
<polygon fill="black" stroke="black" points="339.5,-354 347.5,-357.6 343.5,-354 347.5,-354 347.5,-354 347.5,-354 343.5,-354 347.5,-350.4 339.5,-354 339.5,-354"/>
<ellipse fill="none" stroke="black" cx="336.3" cy="-354" rx="3.2" ry="3.2"/>
</g>
</g>
</svg>
