<?xml version="1.0" encoding="UTF-8" standalone="no"?>
<!DOCTYPE svg PUBLIC "-//W3C//DTD SVG 1.1//EN"
 "http://www.w3.org/Graphics/SVG/1.1/DTD/svg11.dtd">
<!-- Generated by graphviz version 2.43.0 (0)
 -->
<!-- Title: oneDegreeRelationshipsDiagram Pages: 1 -->
<svg width="563pt" height="357pt"
 viewBox="0.00 0.00 563.00 357.00" xmlns="http://www.w3.org/2000/svg" xmlns:xlink="http://www.w3.org/1999/xlink">
<g id="graph0" class="graph" transform="scale(1 1) rotate(0) translate(4 353)">
<title>oneDegreeRelationshipsDiagram</title>
<polygon fill="#ffffff" stroke="transparent" points="-4,4 -4,-353 559,-353 559,4 -4,4"/>
<text text-anchor="middle" x="71.5" y="-7.2" font-family="Helvetica,sans-Serif" font-size="11.00">Generated by SchemaSpy</text>
<!-- syst_interaction_logs -->
<g id="node1" class="node">
<title>syst_interaction_logs</title>
<g id="a_node1"><a xlink:href="../../tables/syst_interaction_logs.html" xlink:title="syst_interaction_logs" target="_top">
<polygon fill="#ffffff" stroke="transparent" points="251,-37 251,-345 547,-345 547,-37 251,-37"/>
<polygon fill="#f5f5f5" stroke="transparent" points="253,-321 253,-343 545,-343 545,-321 253,-321"/>
<polygon fill="none" stroke="black" points="253,-321 253,-343 545,-343 545,-321 253,-321"/>
<text text-anchor="start" x="258" y="-330.2" font-family="Helvetica,sans-Serif" font-weight="bold" font-size="11.00">syst_interaction_logs</text>
<text text-anchor="start" x="510" y="-329.2" font-family="Helvetica,sans-Serif" font-size="11.00">[table]</text>
<polygon fill="none" stroke="black" points="253,-299 253,-321 447,-321 447,-299 253,-299"/>
<image xlink:href="../../images/primaryKeys.png" width="11px" height="12px" preserveAspectRatio="xMinYMin meet" x="258" y="-316"/>
<text text-anchor="start" x="273" y="-307.2" font-family="Helvetica,sans-Serif" font-size="11.00">id</text>
<polygon fill="none" stroke="black" points="447,-299 447,-321 545,-321 545,-299 447,-299"/>
<text text-anchor="start" x="450" y="-307.2" font-family="Helvetica,sans-Serif" font-size="11.00">uuid[2147483647]</text>
<polygon fill="#ffffff" stroke="transparent" points="253,-277 253,-299 447,-299 447,-277 253,-277"/>
<polygon fill="none" stroke="black" points="253,-277 253,-299 447,-299 447,-277 253,-277"/>
<text text-anchor="start" x="273" y="-285.2" font-family="Helvetica,sans-Serif" font-size="11.00">interaction_timestamp</text>
<polygon fill="none" stroke="black" points="447,-277 447,-299 545,-299 545,-277 447,-277"/>
<text text-anchor="start" x="450" y="-285.2" font-family="Helvetica,sans-Serif" font-size="11.00">timestamptz[35,6]</text>
<polygon fill="none" stroke="black" points="253,-255 253,-277 447,-277 447,-255 253,-255"/>
<image xlink:href="../../images/foreignKeys.png" width="11px" height="12px" preserveAspectRatio="xMinYMin meet" x="258" y="-272"/>
<text text-anchor="start" x="273" y="-263.2" font-family="Helvetica,sans-Serif" font-size="11.00">interaction_type_id</text>
<polygon fill="none" stroke="black" points="447,-255 447,-277 545,-277 545,-255 447,-255"/>
<text text-anchor="start" x="450" y="-263.2" font-family="Helvetica,sans-Serif" font-size="11.00">uuid[2147483647]</text>
<polygon fill="none" stroke="black" points="253,-233 253,-255 447,-255 447,-233 253,-233"/>
<image xlink:href="../../images/foreignKeys.png" width="11px" height="12px" preserveAspectRatio="xMinYMin meet" x="258" y="-250"/>
<text text-anchor="start" x="273" y="-241.2" font-family="Helvetica,sans-Serif" font-size="11.00">interface_type_id</text>
<polygon fill="none" stroke="black" points="447,-233 447,-255 545,-255 545,-233 447,-233"/>
<text text-anchor="start" x="450" y="-241.2" font-family="Helvetica,sans-Serif" font-size="11.00">uuid[2147483647]</text>
<polygon fill="none" stroke="black" points="253,-211 253,-233 447,-233 447,-211 253,-211"/>
<text text-anchor="start" x="273" y="-219.2" font-family="Helvetica,sans-Serif" font-size="11.00">data</text>
<polygon fill="none" stroke="black" points="447,-211 447,-233 545,-233 545,-211 447,-211"/>
<text text-anchor="start" x="450" y="-219.2" font-family="Helvetica,sans-Serif" font-size="11.00">jsonb[2147483647]</text>
<polygon fill="none" stroke="black" points="253,-189 253,-211 447,-211 447,-189 253,-189"/>
<text text-anchor="start" x="273" y="-197.2" font-family="Helvetica,sans-Serif" font-size="11.00">diag_timestamp_created</text>
<polygon fill="none" stroke="black" points="447,-189 447,-211 545,-211 545,-189 447,-189"/>
<text text-anchor="start" x="450" y="-197.2" font-family="Helvetica,sans-Serif" font-size="11.00">timestamptz[35,6]</text>
<polygon fill="none" stroke="black" points="253,-167 253,-189 447,-189 447,-167 253,-167"/>
<text text-anchor="start" x="273" y="-175.2" font-family="Helvetica,sans-Serif" font-size="11.00">diag_role_created</text>
<polygon fill="none" stroke="black" points="447,-167 447,-189 545,-189 545,-167 447,-167"/>
<text text-anchor="start" x="450" y="-175.2" font-family="Helvetica,sans-Serif" font-size="11.00">text[2147483647]</text>
<polygon fill="none" stroke="black" points="253,-145 253,-167 447,-167 447,-145 253,-145"/>
<text text-anchor="start" x="273" y="-153.2" font-family="Helvetica,sans-Serif" font-size="11.00">diag_timestamp_modified</text>
<polygon fill="none" stroke="black" points="447,-145 447,-167 545,-167 545,-145 447,-145"/>
<text text-anchor="start" x="450" y="-153.2" font-family="Helvetica,sans-Serif" font-size="11.00">timestamptz[35,6]</text>
<polygon fill="none" stroke="black" points="253,-123 253,-145 447,-145 447,-123 253,-123"/>
<text text-anchor="start" x="273" y="-131.2" font-family="Helvetica,sans-Serif" font-size="11.00">diag_wallclock_modified</text>
<polygon fill="none" stroke="black" points="447,-123 447,-145 545,-145 545,-123 447,-123"/>
<text text-anchor="start" x="450" y="-131.2" font-family="Helvetica,sans-Serif" font-size="11.00">timestamptz[35,6]</text>
<polygon fill="none" stroke="black" points="253,-101 253,-123 447,-123 447,-101 253,-101"/>
<text text-anchor="start" x="273" y="-109.2" font-family="Helvetica,sans-Serif" font-size="11.00">diag_role_modified</text>
<polygon fill="none" stroke="black" points="447,-101 447,-123 545,-123 545,-101 447,-101"/>
<text text-anchor="start" x="450" y="-109.2" font-family="Helvetica,sans-Serif" font-size="11.00">text[2147483647]</text>
<polygon fill="none" stroke="black" points="253,-79 253,-101 447,-101 447,-79 253,-79"/>
<text text-anchor="start" x="273" y="-87.2" font-family="Helvetica,sans-Serif" font-size="11.00">diag_row_version</text>
<polygon fill="none" stroke="black" points="447,-79 447,-101 545,-101 545,-79 447,-79"/>
<text text-anchor="start" x="450" y="-87.2" font-family="Helvetica,sans-Serif" font-size="11.00">int8[19]</text>
<polygon fill="none" stroke="black" points="253,-57 253,-79 447,-79 447,-57 253,-57"/>
<text text-anchor="start" x="273" y="-65.2" font-family="Helvetica,sans-Serif" font-size="11.00">diag_update_count</text>
<polygon fill="none" stroke="black" points="447,-57 447,-79 545,-79 545,-57 447,-57"/>
<text text-anchor="start" x="450" y="-65.2" font-family="Helvetica,sans-Serif" font-size="11.00">int8[19]</text>
<polygon fill="#ffffff" stroke="transparent" points="253,-39 253,-57 354,-57 354,-39 253,-39"/>
<polygon fill="none" stroke="black" points="253,-39 253,-57 354,-57 354,-39 253,-39"/>
<text text-anchor="start" x="256" y="-45.2" font-family="Helvetica,sans-Serif" font-size="11.00">&lt; 2</text>
<polygon fill="#ffffff" stroke="transparent" points="354,-39 354,-57 447,-57 447,-39 354,-39"/>
<polygon fill="none" stroke="black" points="354,-39 354,-57 447,-57 447,-39 354,-39"/>
<text text-anchor="start" x="437" y="-45.2" font-family="Helvetica,sans-Serif" font-size="11.00"> &#160;</text>
<polygon fill="#ffffff" stroke="transparent" points="447,-39 447,-57 545,-57 545,-39 447,-39"/>
<polygon fill="none" stroke="black" points="447,-39 447,-57 545,-57 545,-39 447,-39"/>
<text text-anchor="start" x="526" y="-45.2" font-family="Helvetica,sans-Serif" font-size="11.00">0 &gt;</text>
<polygon fill="none" stroke="black" stroke-width="2" points="252,-38 252,-344 546,-344 546,-38 252,-38"/>
</a>
</g>
</g>
<!-- syst_enum_items -->
<g id="node2" class="node">
<title>syst_enum_items</title>
<g id="a_node2"><a xlink:href="../../tables/syst_enum_items.html" xlink:title="syst_enum_items" target="_top">
<polygon fill="#ffffff" stroke="transparent" points="8,-120 8,-288 202,-288 202,-120 8,-120"/>
<polygon fill="#f5f5f5" stroke="transparent" points="8,-266 8,-288 202,-288 202,-266 8,-266"/>
<polygon fill="none" stroke="black" points="8,-266 8,-288 202,-288 202,-266 8,-266"/>
<text text-anchor="start" x="13" y="-275.2" font-family="Helvetica,sans-Serif" font-weight="bold" font-size="11.00">syst_enum_items</text>
<text text-anchor="start" x="167" y="-274.2" font-family="Helvetica,sans-Serif" font-size="11.00">[table]</text>
<polygon fill="none" stroke="black" points="8,-244 8,-266 202,-266 202,-244 8,-244"/>
<image xlink:href="../../images/primaryKeys.png" width="11px" height="12px" preserveAspectRatio="xMinYMin meet" x="13" y="-261"/>
<text text-anchor="start" x="28" y="-252.2" font-family="Helvetica,sans-Serif" font-size="11.00">id</text>
<polygon fill="#ffffff" stroke="transparent" points="8,-222 8,-244 202,-244 202,-222 8,-222"/>
<polygon fill="none" stroke="black" points="8,-222 8,-244 202,-244 202,-222 8,-222"/>
<text text-anchor="start" x="28" y="-230.2" font-family="Helvetica,sans-Serif" font-size="11.00">internal_name</text>
<polygon fill="#ffffff" stroke="transparent" points="8,-200 8,-222 202,-222 202,-200 8,-200"/>
<polygon fill="none" stroke="black" points="8,-200 8,-222 202,-222 202,-200 8,-200"/>
<text text-anchor="start" x="28" y="-208.2" font-family="Helvetica,sans-Serif" font-size="11.00">display_name</text>
<polygon fill="none" stroke="black" points="8,-178 8,-200 202,-200 202,-178 8,-178"/>
<image xlink:href="../../images/foreignKeys.png" width="11px" height="12px" preserveAspectRatio="xMinYMin meet" x="13" y="-195"/>
<text text-anchor="start" x="28" y="-186.2" font-family="Helvetica,sans-Serif" font-size="11.00">enum_id</text>
<polygon fill="none" stroke="black" points="8,-156 8,-178 202,-178 202,-156 8,-156"/>
<image xlink:href="../../images/foreignKeys.png" width="11px" height="12px" preserveAspectRatio="xMinYMin meet" x="13" y="-173"/>
<text text-anchor="start" x="28" y="-164.2" font-family="Helvetica,sans-Serif" font-size="11.00">functional_type_id</text>
<polygon fill="none" stroke="black" points="8,-138 8,-156 202,-156 202,-138 8,-138"/>
<text text-anchor="start" x="11" y="-144.2" font-family="Helvetica,sans-Serif" font-size="11.00">...</text>
<polygon fill="#ffffff" stroke="transparent" points="8,-120 8,-138 95,-138 95,-120 8,-120"/>
<polygon fill="none" stroke="black" points="8,-120 8,-138 95,-138 95,-120 8,-120"/>
<text text-anchor="start" x="11" y="-126.2" font-family="Helvetica,sans-Serif" font-size="11.00">&lt; 2</text>
<polygon fill="#ffffff" stroke="transparent" points="95,-120 95,-138 141,-138 141,-120 95,-120"/>
<polygon fill="none" stroke="black" points="95,-120 95,-138 141,-138 141,-120 95,-120"/>
<text text-anchor="start" x="131" y="-126.2" font-family="Helvetica,sans-Serif" font-size="11.00"> &#160;</text>
<polygon fill="#ffffff" stroke="transparent" points="141,-120 141,-138 202,-138 202,-120 141,-120"/>
<polygon fill="none" stroke="black" points="141,-120 141,-138 202,-138 202,-120 141,-120"/>
<text text-anchor="start" x="177" y="-126.2" font-family="Helvetica,sans-Serif" font-size="11.00">12 &gt;</text>
</a>
</g>
</g>
<!-- syst_interaction_logs&#45;&gt;syst_enum_items -->
<g id="edge1" class="edge">
<title>syst_interaction_logs:w&#45;&gt;syst_enum_items:e</title>
<path fill="none" stroke="black" d="M237.7,-264.18C226.24,-261.06 219.57,-255 203,-255"/>
<polygon fill="black" stroke="black" points="244.06,-264.99 251.55,-269.57 248.03,-265.5 252,-266 252,-266 252,-266 248.03,-265.5 252.45,-262.43 244.06,-264.99 244.06,-264.99"/>
<ellipse fill="none" stroke="black" cx="240.89" cy="-264.59" rx="3.2" ry="3.2"/>
</g>
<!-- syst_interaction_logs&#45;&gt;syst_enum_items -->
<g id="edge2" class="edge">
<title>syst_interaction_logs:w&#45;&gt;syst_enum_items:e</title>
<path fill="none" stroke="black" d="M237.7,-245.82C226.24,-248.94 219.57,-255 203,-255"/>
<polygon fill="black" stroke="black" points="244.06,-245.01 252.45,-247.57 248.03,-244.5 252,-244 252,-244 252,-244 248.03,-244.5 251.55,-240.43 244.06,-245.01 244.06,-245.01"/>
<ellipse fill="none" stroke="black" cx="240.89" cy="-245.41" rx="3.2" ry="3.2"/>
</g>
</g>
</svg>
