<?xml version="1.0" encoding="UTF-8" standalone="no"?>
<!DOCTYPE svg PUBLIC "-//W3C//DTD SVG 1.1//EN"
 "http://www.w3.org/Graphics/SVG/1.1/DTD/svg11.dtd">
<!-- Generated by graphviz version 2.43.0 (0)
 -->
<!-- Title: twoDegreesRelationshipsDiagram Pages: 1 -->
<svg width="1031pt" height="542pt"
 viewBox="0.00 0.00 1031.00 542.00" xmlns="http://www.w3.org/2000/svg" xmlns:xlink="http://www.w3.org/1999/xlink">
<g id="graph0" class="graph" transform="scale(1 1) rotate(0) translate(4 538)">
<title>twoDegreesRelationshipsDiagram</title>
<polygon fill="#ffffff" stroke="transparent" points="-4,4 -4,-538 1027,-538 1027,4 -4,4"/>
<text text-anchor="middle" x="71.5" y="-7.2" font-family="Helvetica,sans-Serif" font-size="11.00">Generated by SchemaSpy</text>
<!-- ms_appl_data.mstr_country_address_format_assocs -->
<g id="node1" class="node">
<title>ms_appl_data.mstr_country_address_format_assocs</title>
<g id="a_node1"><a xlink:href="../../../ms_appl_data/tables/mstr_country_address_format_assocs.html" xlink:title="ms_appl_data.mstr_country_address_format_assocs" target="_top">
<polygon fill="#ffffff" stroke="transparent" points="628,-472 628,-530 1015,-530 1015,-472 628,-472"/>
<polygon fill="#f5f5f5" stroke="transparent" points="628.5,-508 628.5,-530 1015.5,-530 1015.5,-508 628.5,-508"/>
<polygon fill="none" stroke="black" points="628.5,-508 628.5,-530 1015.5,-530 1015.5,-508 628.5,-508"/>
<text text-anchor="start" x="633.5" y="-517.2" font-family="Helvetica,sans-Serif" font-weight="bold" font-size="11.00">ms_appl_data.mstr_country_address_format_assocs</text>
<text text-anchor="start" x="980.5" y="-516.2" font-family="Helvetica,sans-Serif" font-size="11.00">[table]</text>
<polygon fill="none" stroke="black" points="628.5,-490 628.5,-508 1015.5,-508 1015.5,-490 628.5,-490"/>
<text text-anchor="start" x="631.5" y="-496.2" font-family="Helvetica,sans-Serif" font-size="11.00">...</text>
<polygon fill="#ffffff" stroke="transparent" points="628.5,-472 628.5,-490 819.5,-490 819.5,-472 628.5,-472"/>
<polygon fill="none" stroke="black" points="628.5,-472 628.5,-490 819.5,-490 819.5,-472 628.5,-472"/>
<text text-anchor="start" x="631.5" y="-478.2" font-family="Helvetica,sans-Serif" font-size="11.00">&lt; 1</text>
<polygon fill="#ffffff" stroke="transparent" points="819.5,-472 819.5,-490 917.5,-490 917.5,-472 819.5,-472"/>
<polygon fill="none" stroke="black" points="819.5,-472 819.5,-490 917.5,-490 917.5,-472 819.5,-472"/>
<text text-anchor="start" x="907.5" y="-478.2" font-family="Helvetica,sans-Serif" font-size="11.00"> &#160;</text>
<polygon fill="#ffffff" stroke="transparent" points="917.5,-472 917.5,-490 1015.5,-490 1015.5,-472 917.5,-472"/>
<polygon fill="none" stroke="black" points="917.5,-472 917.5,-490 1015.5,-490 1015.5,-472 917.5,-472"/>
<text text-anchor="start" x="1005.5" y="-478.2" font-family="Helvetica,sans-Serif" font-size="11.00"> &#160;</text>
</a>
</g>
</g>
<!-- syst_complex_format_values -->
<g id="node2" class="node">
<title>syst_complex_format_values</title>
<g id="a_node2"><a xlink:href="../../tables/syst_complex_format_values.html" xlink:title="syst_complex_format_values" target="_top">
<polygon fill="#ffffff" stroke="transparent" points="348,-307 348,-453 579,-453 579,-307 348,-307"/>
<polygon fill="#f5f5f5" stroke="transparent" points="348.5,-431 348.5,-453 579.5,-453 579.5,-431 348.5,-431"/>
<polygon fill="none" stroke="black" points="348.5,-431 348.5,-453 579.5,-453 579.5,-431 348.5,-431"/>
<text text-anchor="start" x="353.5" y="-440.2" font-family="Helvetica,sans-Serif" font-weight="bold" font-size="11.00">syst_complex_format_values</text>
<text text-anchor="start" x="544.5" y="-439.2" font-family="Helvetica,sans-Serif" font-size="11.00">[table]</text>
<polygon fill="none" stroke="black" points="348.5,-409 348.5,-431 579.5,-431 579.5,-409 348.5,-409"/>
<image xlink:href="../../images/primaryKeys.png" width="11px" height="12px" preserveAspectRatio="xMinYMin meet" x="353.5" y="-426"/>
<text text-anchor="start" x="378.5" y="-417.2" font-family="Helvetica,sans-Serif" font-size="11.00">id</text>
<polygon fill="#ffffff" stroke="transparent" points="348.5,-387 348.5,-409 579.5,-409 579.5,-387 348.5,-387"/>
<polygon fill="none" stroke="black" points="348.5,-387 348.5,-409 579.5,-409 579.5,-387 348.5,-387"/>
<text text-anchor="start" x="378.5" y="-395.2" font-family="Helvetica,sans-Serif" font-size="11.00">internal_name</text>
<polygon fill="#ffffff" stroke="transparent" points="348.5,-365 348.5,-387 579.5,-387 579.5,-365 348.5,-365"/>
<polygon fill="none" stroke="black" points="348.5,-365 348.5,-387 579.5,-387 579.5,-365 348.5,-365"/>
<text text-anchor="start" x="378.5" y="-373.2" font-family="Helvetica,sans-Serif" font-size="11.00">display_name</text>
<polygon fill="none" stroke="black" points="348.5,-343 348.5,-365 579.5,-365 579.5,-343 348.5,-343"/>
<image xlink:href="../../images/foreignKeys.png" width="11px" height="12px" preserveAspectRatio="xMinYMin meet" x="353.5" y="-360"/>
<text text-anchor="start" x="378.5" y="-351.2" font-family="Helvetica,sans-Serif" font-size="11.00">complex_format_id</text>
<polygon fill="none" stroke="black" points="348.5,-325 348.5,-343 579.5,-343 579.5,-325 348.5,-325"/>
<text text-anchor="start" x="351.5" y="-331.2" font-family="Helvetica,sans-Serif" font-size="11.00">...</text>
<polygon fill="#ffffff" stroke="transparent" points="348.5,-307 348.5,-325 457.5,-325 457.5,-307 348.5,-307"/>
<polygon fill="none" stroke="black" points="348.5,-307 348.5,-325 457.5,-325 457.5,-307 348.5,-307"/>
<text text-anchor="start" x="351.5" y="-313.2" font-family="Helvetica,sans-Serif" font-size="11.00">&lt; 1</text>
<polygon fill="#ffffff" stroke="transparent" points="457.5,-307 457.5,-325 513.5,-325 513.5,-307 457.5,-307"/>
<polygon fill="none" stroke="black" points="457.5,-307 457.5,-325 513.5,-325 513.5,-307 457.5,-307"/>
<text text-anchor="start" x="503.5" y="-313.2" font-family="Helvetica,sans-Serif" font-size="11.00"> &#160;</text>
<polygon fill="#ffffff" stroke="transparent" points="513.5,-307 513.5,-325 579.5,-325 579.5,-307 513.5,-307"/>
<polygon fill="none" stroke="black" points="513.5,-307 513.5,-325 579.5,-325 579.5,-307 513.5,-307"/>
<text text-anchor="start" x="560.5" y="-313.2" font-family="Helvetica,sans-Serif" font-size="11.00">3 &gt;</text>
</a>
</g>
</g>
<!-- ms_appl_data.mstr_country_address_format_assocs&#45;&gt;syst_complex_format_values -->
<g id="edge1" class="edge">
<title>ms_appl_data.mstr_country_address_format_assocs:w&#45;&gt;syst_complex_format_values:e</title>
<path fill="none" stroke="black" d="M613.81,-494.29C595.28,-477.29 615.29,-420 580.5,-420"/>
<polygon fill="black" stroke="black" points="619.93,-496.4 626.33,-502.4 623.72,-497.7 627.5,-499 627.5,-499 627.5,-499 623.72,-497.7 628.67,-495.6 619.93,-496.4 619.93,-496.4"/>
<ellipse fill="none" stroke="black" cx="616.91" cy="-495.36" rx="3.2" ry="3.2"/>
</g>
<!-- syst_complex_formats -->
<g id="node5" class="node">
<title>syst_complex_formats</title>
<g id="a_node5"><a xlink:href="../../tables/syst_complex_formats.html" xlink:title="syst_complex_formats" target="_top">
<polygon fill="#ffffff" stroke="transparent" points="8,-37 8,-389 299,-389 299,-37 8,-37"/>
<polygon fill="#f5f5f5" stroke="transparent" points="10.5,-365 10.5,-387 297.5,-387 297.5,-365 10.5,-365"/>
<polygon fill="none" stroke="black" points="10.5,-365 10.5,-387 297.5,-387 297.5,-365 10.5,-365"/>
<text text-anchor="start" x="15.5" y="-374.2" font-family="Helvetica,sans-Serif" font-weight="bold" font-size="11.00">syst_complex_formats</text>
<text text-anchor="start" x="262.5" y="-373.2" font-family="Helvetica,sans-Serif" font-size="11.00">[table]</text>
<polygon fill="none" stroke="black" points="10.5,-343 10.5,-365 204.5,-365 204.5,-343 10.5,-343"/>
<image xlink:href="../../images/primaryKeys.png" width="11px" height="12px" preserveAspectRatio="xMinYMin meet" x="15.5" y="-360"/>
<text text-anchor="start" x="30.5" y="-351.2" font-family="Helvetica,sans-Serif" font-size="11.00">id</text>
<polygon fill="none" stroke="black" points="204.5,-343 204.5,-365 297.5,-365 297.5,-343 204.5,-343"/>
<text text-anchor="start" x="207.5" y="-351.2" font-family="Helvetica,sans-Serif" font-size="11.00">uuid[2147483647]</text>
<polygon fill="#ffffff" stroke="transparent" points="10.5,-321 10.5,-343 204.5,-343 204.5,-321 10.5,-321"/>
<polygon fill="none" stroke="black" points="10.5,-321 10.5,-343 204.5,-343 204.5,-321 10.5,-321"/>
<text text-anchor="start" x="30.5" y="-329.2" font-family="Helvetica,sans-Serif" font-size="11.00">internal_name</text>
<polygon fill="none" stroke="black" points="204.5,-321 204.5,-343 297.5,-343 297.5,-321 204.5,-321"/>
<text text-anchor="start" x="207.5" y="-329.2" font-family="Helvetica,sans-Serif" font-size="11.00">text[2147483647]</text>
<polygon fill="#ffffff" stroke="transparent" points="10.5,-299 10.5,-321 204.5,-321 204.5,-299 10.5,-299"/>
<polygon fill="none" stroke="black" points="10.5,-299 10.5,-321 204.5,-321 204.5,-299 10.5,-299"/>
<text text-anchor="start" x="30.5" y="-307.2" font-family="Helvetica,sans-Serif" font-size="11.00">display_name</text>
<polygon fill="none" stroke="black" points="204.5,-299 204.5,-321 297.5,-321 297.5,-299 204.5,-299"/>
<text text-anchor="start" x="207.5" y="-307.2" font-family="Helvetica,sans-Serif" font-size="11.00">text[2147483647]</text>
<polygon fill="none" stroke="black" points="10.5,-277 10.5,-299 204.5,-299 204.5,-277 10.5,-277"/>
<text text-anchor="start" x="30.5" y="-285.2" font-family="Helvetica,sans-Serif" font-size="11.00">syst_description</text>
<polygon fill="none" stroke="black" points="204.5,-277 204.5,-299 297.5,-299 297.5,-277 204.5,-277"/>
<text text-anchor="start" x="207.5" y="-285.2" font-family="Helvetica,sans-Serif" font-size="11.00">text[2147483647]</text>
<polygon fill="none" stroke="black" points="10.5,-255 10.5,-277 204.5,-277 204.5,-255 10.5,-255"/>
<text text-anchor="start" x="30.5" y="-263.2" font-family="Helvetica,sans-Serif" font-size="11.00">user_description</text>
<polygon fill="none" stroke="black" points="204.5,-255 204.5,-277 297.5,-277 297.5,-255 204.5,-255"/>
<text text-anchor="start" x="207.5" y="-263.2" font-family="Helvetica,sans-Serif" font-size="11.00">text[2147483647]</text>
<polygon fill="none" stroke="black" points="10.5,-233 10.5,-255 204.5,-255 204.5,-233 10.5,-233"/>
<text text-anchor="start" x="30.5" y="-241.2" font-family="Helvetica,sans-Serif" font-size="11.00">syst_defined</text>
<polygon fill="none" stroke="black" points="204.5,-233 204.5,-255 297.5,-255 297.5,-233 204.5,-233"/>
<text text-anchor="start" x="207.5" y="-241.2" font-family="Helvetica,sans-Serif" font-size="11.00">bool[1]</text>
<polygon fill="none" stroke="black" points="10.5,-211 10.5,-233 204.5,-233 204.5,-211 10.5,-211"/>
<text text-anchor="start" x="30.5" y="-219.2" font-family="Helvetica,sans-Serif" font-size="11.00">user_maintainable</text>
<polygon fill="none" stroke="black" points="204.5,-211 204.5,-233 297.5,-233 297.5,-211 204.5,-211"/>
<text text-anchor="start" x="207.5" y="-219.2" font-family="Helvetica,sans-Serif" font-size="11.00">bool[1]</text>
<polygon fill="none" stroke="black" points="10.5,-189 10.5,-211 204.5,-211 204.5,-189 10.5,-189"/>
<text text-anchor="start" x="30.5" y="-197.2" font-family="Helvetica,sans-Serif" font-size="11.00">diag_timestamp_created</text>
<polygon fill="none" stroke="black" points="204.5,-189 204.5,-211 297.5,-211 297.5,-189 204.5,-189"/>
<text text-anchor="start" x="207.5" y="-197.2" font-family="Helvetica,sans-Serif" font-size="11.00">timestamptz[35,6]</text>
<polygon fill="none" stroke="black" points="10.5,-167 10.5,-189 204.5,-189 204.5,-167 10.5,-167"/>
<text text-anchor="start" x="30.5" y="-175.2" font-family="Helvetica,sans-Serif" font-size="11.00">diag_role_created</text>
<polygon fill="none" stroke="black" points="204.5,-167 204.5,-189 297.5,-189 297.5,-167 204.5,-167"/>
<text text-anchor="start" x="207.5" y="-175.2" font-family="Helvetica,sans-Serif" font-size="11.00">text[2147483647]</text>
<polygon fill="none" stroke="black" points="10.5,-145 10.5,-167 204.5,-167 204.5,-145 10.5,-145"/>
<text text-anchor="start" x="30.5" y="-153.2" font-family="Helvetica,sans-Serif" font-size="11.00">diag_timestamp_modified</text>
<polygon fill="none" stroke="black" points="204.5,-145 204.5,-167 297.5,-167 297.5,-145 204.5,-145"/>
<text text-anchor="start" x="207.5" y="-153.2" font-family="Helvetica,sans-Serif" font-size="11.00">timestamptz[35,6]</text>
<polygon fill="none" stroke="black" points="10.5,-123 10.5,-145 204.5,-145 204.5,-123 10.5,-123"/>
<text text-anchor="start" x="30.5" y="-131.2" font-family="Helvetica,sans-Serif" font-size="11.00">diag_wallclock_modified</text>
<polygon fill="none" stroke="black" points="204.5,-123 204.5,-145 297.5,-145 297.5,-123 204.5,-123"/>
<text text-anchor="start" x="207.5" y="-131.2" font-family="Helvetica,sans-Serif" font-size="11.00">timestamptz[35,6]</text>
<polygon fill="none" stroke="black" points="10.5,-101 10.5,-123 204.5,-123 204.5,-101 10.5,-101"/>
<text text-anchor="start" x="30.5" y="-109.2" font-family="Helvetica,sans-Serif" font-size="11.00">diag_role_modified</text>
<polygon fill="none" stroke="black" points="204.5,-101 204.5,-123 297.5,-123 297.5,-101 204.5,-101"/>
<text text-anchor="start" x="207.5" y="-109.2" font-family="Helvetica,sans-Serif" font-size="11.00">text[2147483647]</text>
<polygon fill="none" stroke="black" points="10.5,-79 10.5,-101 204.5,-101 204.5,-79 10.5,-79"/>
<text text-anchor="start" x="30.5" y="-87.2" font-family="Helvetica,sans-Serif" font-size="11.00">diag_row_version</text>
<polygon fill="none" stroke="black" points="204.5,-79 204.5,-101 297.5,-101 297.5,-79 204.5,-79"/>
<text text-anchor="start" x="207.5" y="-87.2" font-family="Helvetica,sans-Serif" font-size="11.00">int8[19]</text>
<polygon fill="none" stroke="black" points="10.5,-57 10.5,-79 204.5,-79 204.5,-57 10.5,-57"/>
<text text-anchor="start" x="30.5" y="-65.2" font-family="Helvetica,sans-Serif" font-size="11.00">diag_update_count</text>
<polygon fill="none" stroke="black" points="204.5,-57 204.5,-79 297.5,-79 297.5,-57 204.5,-57"/>
<text text-anchor="start" x="207.5" y="-65.2" font-family="Helvetica,sans-Serif" font-size="11.00">int8[19]</text>
<polygon fill="#ffffff" stroke="transparent" points="10.5,-39 10.5,-57 111.5,-57 111.5,-39 10.5,-39"/>
<polygon fill="none" stroke="black" points="10.5,-39 10.5,-57 111.5,-57 111.5,-39 10.5,-39"/>
<text text-anchor="start" x="13.5" y="-45.2" font-family="Helvetica,sans-Serif" font-size="11.00">&lt; 0</text>
<polygon fill="#ffffff" stroke="transparent" points="111.5,-39 111.5,-57 204.5,-57 204.5,-39 111.5,-39"/>
<polygon fill="none" stroke="black" points="111.5,-39 111.5,-57 204.5,-57 204.5,-39 111.5,-39"/>
<text text-anchor="start" x="194.5" y="-45.2" font-family="Helvetica,sans-Serif" font-size="11.00"> &#160;</text>
<polygon fill="#ffffff" stroke="transparent" points="204.5,-39 204.5,-57 297.5,-57 297.5,-39 204.5,-39"/>
<polygon fill="none" stroke="black" points="204.5,-39 204.5,-57 297.5,-57 297.5,-39 204.5,-39"/>
<text text-anchor="start" x="278.5" y="-45.2" font-family="Helvetica,sans-Serif" font-size="11.00">1 &gt;</text>
<polygon fill="none" stroke="black" stroke-width="2" points="9,-38 9,-388 298,-388 298,-38 9,-38"/>
</a>
</g>
</g>
<!-- syst_complex_format_values&#45;&gt;syst_complex_formats -->
<g id="edge4" class="edge">
<title>syst_complex_format_values:w&#45;&gt;syst_complex_formats:e</title>
<path fill="none" stroke="black" d="M332.99,-354C321.68,-354 314.49,-354 298.5,-354"/>
<polygon fill="black" stroke="black" points="339.5,-354 347.5,-357.6 343.5,-354 347.5,-354 347.5,-354 347.5,-354 343.5,-354 347.5,-350.4 339.5,-354 339.5,-354"/>
<ellipse fill="none" stroke="black" cx="336.3" cy="-354" rx="3.2" ry="3.2"/>
</g>
<!-- ms_appl_data.mstr_country_name_format_assocs -->
<g id="node3" class="node">
<title>ms_appl_data.mstr_country_name_format_assocs</title>
<g id="a_node3"><a xlink:href="../../../ms_appl_data/tables/mstr_country_name_format_assocs.html" xlink:title="ms_appl_data.mstr_country_name_format_assocs" target="_top">
<polygon fill="#ffffff" stroke="transparent" points="636,-393 636,-451 1007,-451 1007,-393 636,-393"/>
<polygon fill="#f5f5f5" stroke="transparent" points="636.5,-429 636.5,-451 1007.5,-451 1007.5,-429 636.5,-429"/>
<polygon fill="none" stroke="black" points="636.5,-429 636.5,-451 1007.5,-451 1007.5,-429 636.5,-429"/>
<text text-anchor="start" x="641.5" y="-438.2" font-family="Helvetica,sans-Serif" font-weight="bold" font-size="11.00">ms_appl_data.mstr_country_name_format_assocs</text>
<text text-anchor="start" x="972.5" y="-437.2" font-family="Helvetica,sans-Serif" font-size="11.00">[table]</text>
<polygon fill="none" stroke="black" points="636.5,-411 636.5,-429 1007.5,-429 1007.5,-411 636.5,-411"/>
<text text-anchor="start" x="639.5" y="-417.2" font-family="Helvetica,sans-Serif" font-size="11.00">...</text>
<polygon fill="#ffffff" stroke="transparent" points="636.5,-393 636.5,-411 819.5,-411 819.5,-393 636.5,-393"/>
<polygon fill="none" stroke="black" points="636.5,-393 636.5,-411 819.5,-411 819.5,-393 636.5,-393"/>
<text text-anchor="start" x="639.5" y="-399.2" font-family="Helvetica,sans-Serif" font-size="11.00">&lt; 1</text>
<polygon fill="#ffffff" stroke="transparent" points="819.5,-393 819.5,-411 913.5,-411 913.5,-393 819.5,-393"/>
<polygon fill="none" stroke="black" points="819.5,-393 819.5,-411 913.5,-411 913.5,-393 819.5,-393"/>
<text text-anchor="start" x="903.5" y="-399.2" font-family="Helvetica,sans-Serif" font-size="11.00"> &#160;</text>
<polygon fill="#ffffff" stroke="transparent" points="913.5,-393 913.5,-411 1007.5,-411 1007.5,-393 913.5,-393"/>
<polygon fill="none" stroke="black" points="913.5,-393 913.5,-411 1007.5,-411 1007.5,-393 913.5,-393"/>
<text text-anchor="start" x="997.5" y="-399.2" font-family="Helvetica,sans-Serif" font-size="11.00"> &#160;</text>
</a>
</g>
</g>
<!-- ms_appl_data.mstr_country_name_format_assocs&#45;&gt;syst_complex_format_values -->
<g id="edge2" class="edge">
<title>ms_appl_data.mstr_country_name_format_assocs:w&#45;&gt;syst_complex_format_values:e</title>
<path fill="none" stroke="black" d="M620.86,-420C607.18,-420 599.22,-420 580.5,-420"/>
<polygon fill="black" stroke="black" points="627.5,-420 635.5,-423.6 631.5,-420 635.5,-420 635.5,-420 635.5,-420 631.5,-420 635.5,-416.4 627.5,-420 627.5,-420"/>
<ellipse fill="none" stroke="black" cx="624.3" cy="-420" rx="3.2" ry="3.2"/>
</g>
<!-- ms_appl_data.mstr_country_phone_format_assocs -->
<g id="node4" class="node">
<title>ms_appl_data.mstr_country_phone_format_assocs</title>
<g id="a_node4"><a xlink:href="../../../ms_appl_data/tables/mstr_country_phone_format_assocs.html" xlink:title="ms_appl_data.mstr_country_phone_format_assocs" target="_top">
<polygon fill="#ffffff" stroke="transparent" points="633.5,-314 633.5,-372 1009.5,-372 1009.5,-314 633.5,-314"/>
<polygon fill="#f5f5f5" stroke="transparent" points="633.5,-350 633.5,-372 1009.5,-372 1009.5,-350 633.5,-350"/>
<polygon fill="none" stroke="black" points="633.5,-350 633.5,-372 1009.5,-372 1009.5,-350 633.5,-350"/>
<text text-anchor="start" x="638.5" y="-359.2" font-family="Helvetica,sans-Serif" font-weight="bold" font-size="11.00">ms_appl_data.mstr_country_phone_format_assocs</text>
<text text-anchor="start" x="974.5" y="-358.2" font-family="Helvetica,sans-Serif" font-size="11.00">[table]</text>
<polygon fill="none" stroke="black" points="633.5,-332 633.5,-350 1009.5,-350 1009.5,-332 633.5,-332"/>
<text text-anchor="start" x="636.5" y="-338.2" font-family="Helvetica,sans-Serif" font-size="11.00">...</text>
<polygon fill="#ffffff" stroke="transparent" points="633.5,-314 633.5,-332 819.5,-332 819.5,-314 633.5,-314"/>
<polygon fill="none" stroke="black" points="633.5,-314 633.5,-332 819.5,-332 819.5,-314 633.5,-314"/>
<text text-anchor="start" x="636.5" y="-320.2" font-family="Helvetica,sans-Serif" font-size="11.00">&lt; 1</text>
<polygon fill="#ffffff" stroke="transparent" points="819.5,-314 819.5,-332 914.5,-332 914.5,-314 819.5,-314"/>
<polygon fill="none" stroke="black" points="819.5,-314 819.5,-332 914.5,-332 914.5,-314 819.5,-314"/>
<text text-anchor="start" x="904.5" y="-320.2" font-family="Helvetica,sans-Serif" font-size="11.00"> &#160;</text>
<polygon fill="#ffffff" stroke="transparent" points="914.5,-314 914.5,-332 1009.5,-332 1009.5,-314 914.5,-314"/>
<polygon fill="none" stroke="black" points="914.5,-314 914.5,-332 1009.5,-332 1009.5,-314 914.5,-314"/>
<text text-anchor="start" x="999.5" y="-320.2" font-family="Helvetica,sans-Serif" font-size="11.00"> &#160;</text>
</a>
</g>
</g>
<!-- ms_appl_data.mstr_country_phone_format_assocs&#45;&gt;syst_complex_format_values -->
<g id="edge3" class="edge">
<title>ms_appl_data.mstr_country_phone_format_assocs:w&#45;&gt;syst_complex_format_values:e</title>
<path fill="none" stroke="black" d="M618.47,-345.47C598.19,-362.19 616.46,-420 580.5,-420"/>
<polygon fill="black" stroke="black" points="624.88,-343.43 633.59,-344.43 628.69,-342.22 632.5,-341 632.5,-341 632.5,-341 628.69,-342.22 631.41,-337.57 624.88,-343.43 624.88,-343.43"/>
<ellipse fill="none" stroke="black" cx="621.83" cy="-344.4" rx="3.2" ry="3.2"/>
</g>
</g>
</svg>
