<?xml version="1.0" encoding="UTF-8" standalone="no"?>
<!DOCTYPE svg PUBLIC "-//W3C//DTD SVG 1.1//EN"
 "http://www.w3.org/Graphics/SVG/1.1/DTD/svg11.dtd">
<!-- Generated by graphviz version 2.43.0 (0)
 -->
<!-- Title: twoDegreesRelationshipsDiagram Pages: 1 -->
<svg width="1167pt" height="717pt"
 viewBox="0.00 0.00 1167.00 717.00" xmlns="http://www.w3.org/2000/svg" xmlns:xlink="http://www.w3.org/1999/xlink">
<g id="graph0" class="graph" transform="scale(1 1) rotate(0) translate(4 713)">
<title>twoDegreesRelationshipsDiagram</title>
<polygon fill="#ffffff" stroke="transparent" points="-4,4 -4,-713 1163,-713 1163,4 -4,4"/>
<text text-anchor="middle" x="71.5" y="-7.2" font-family="Helvetica,sans-Serif" font-size="11.00">Generated by SchemaSpy</text>
<!-- ms_appl_data.mstr_contacts -->
<g id="node1" class="node">
<title>ms_appl_data.mstr_contacts</title>
<g id="a_node1"><a xlink:href="../../../ms_appl_data/tables/mstr_contacts.html" xlink:title="ms_appl_data.mstr_contacts" target="_top">
<polygon fill="#ffffff" stroke="transparent" points="877.5,-647 877.5,-705 1108.5,-705 1108.5,-647 877.5,-647"/>
<polygon fill="#f5f5f5" stroke="transparent" points="878,-683 878,-705 1109,-705 1109,-683 878,-683"/>
<polygon fill="none" stroke="black" points="878,-683 878,-705 1109,-705 1109,-683 878,-683"/>
<text text-anchor="start" x="883" y="-692.2" font-family="Helvetica,sans-Serif" font-weight="bold" font-size="11.00">ms_appl_data.mstr_contacts</text>
<text text-anchor="start" x="1074" y="-691.2" font-family="Helvetica,sans-Serif" font-size="11.00">[table]</text>
<polygon fill="none" stroke="black" points="878,-665 878,-683 1109,-683 1109,-665 878,-665"/>
<text text-anchor="start" x="881" y="-671.2" font-family="Helvetica,sans-Serif" font-size="11.00">...</text>
<polygon fill="#ffffff" stroke="transparent" points="878,-647 878,-665 991,-665 991,-647 878,-647"/>
<polygon fill="none" stroke="black" points="878,-647 878,-665 991,-665 991,-647 878,-647"/>
<text text-anchor="start" x="881" y="-653.2" font-family="Helvetica,sans-Serif" font-size="11.00">&lt; 2</text>
<polygon fill="#ffffff" stroke="transparent" points="991,-647 991,-665 1050,-665 1050,-647 991,-647"/>
<polygon fill="none" stroke="black" points="991,-647 991,-665 1050,-665 1050,-647 991,-647"/>
<text text-anchor="start" x="1040" y="-653.2" font-family="Helvetica,sans-Serif" font-size="11.00"> &#160;</text>
<polygon fill="#ffffff" stroke="transparent" points="1050,-647 1050,-665 1109,-665 1109,-647 1050,-647"/>
<polygon fill="none" stroke="black" points="1050,-647 1050,-665 1109,-665 1109,-647 1050,-647"/>
<text text-anchor="start" x="1099" y="-653.2" font-family="Helvetica,sans-Serif" font-size="11.00"> &#160;</text>
</a>
</g>
</g>
<!-- syst_enum_items -->
<g id="node2" class="node">
<title>syst_enum_items</title>
<g id="a_node2"><a xlink:href="../../tables/syst_enum_items.html" xlink:title="syst_enum_items" target="_top">
<polygon fill="#ffffff" stroke="transparent" points="631,-368 631,-426 786,-426 786,-368 631,-368"/>
<polygon fill="#f5f5f5" stroke="transparent" points="631.5,-404 631.5,-426 786.5,-426 786.5,-404 631.5,-404"/>
<polygon fill="none" stroke="black" points="631.5,-404 631.5,-426 786.5,-426 786.5,-404 631.5,-404"/>
<text text-anchor="start" x="636.5" y="-413.2" font-family="Helvetica,sans-Serif" font-weight="bold" font-size="11.00">syst_enum_items</text>
<text text-anchor="start" x="751.5" y="-412.2" font-family="Helvetica,sans-Serif" font-size="11.00">[table]</text>
<polygon fill="none" stroke="black" points="631.5,-386 631.5,-404 786.5,-404 786.5,-386 631.5,-386"/>
<text text-anchor="start" x="634.5" y="-392.2" font-family="Helvetica,sans-Serif" font-size="11.00">...</text>
<polygon fill="#ffffff" stroke="transparent" points="631.5,-368 631.5,-386 699.5,-386 699.5,-368 631.5,-368"/>
<polygon fill="none" stroke="black" points="631.5,-368 631.5,-386 699.5,-386 699.5,-368 631.5,-368"/>
<text text-anchor="start" x="634.5" y="-374.2" font-family="Helvetica,sans-Serif" font-size="11.00">&lt; 2</text>
<polygon fill="#ffffff" stroke="transparent" points="699.5,-368 699.5,-386 735.5,-386 735.5,-368 699.5,-368"/>
<polygon fill="none" stroke="black" points="699.5,-368 699.5,-386 735.5,-386 735.5,-368 699.5,-368"/>
<text text-anchor="start" x="725.5" y="-374.2" font-family="Helvetica,sans-Serif" font-size="11.00"> &#160;</text>
<polygon fill="#ffffff" stroke="transparent" points="735.5,-368 735.5,-386 786.5,-386 786.5,-368 735.5,-368"/>
<polygon fill="none" stroke="black" points="735.5,-368 735.5,-386 786.5,-386 786.5,-368 735.5,-368"/>
<text text-anchor="start" x="761.5" y="-374.2" font-family="Helvetica,sans-Serif" font-size="11.00">12 &gt;</text>
</a>
</g>
</g>
<!-- ms_appl_data.mstr_contacts&#45;&gt;syst_enum_items -->
<g id="edge1" class="edge">
<title>ms_appl_data.mstr_contacts:w&#45;&gt;syst_enum_items:e</title>
<path fill="none" stroke="black" d="M862.44,-672.42C762.25,-654.57 725.84,-499.35 714.26,-430.06"/>
<polygon fill="black" stroke="black" points="869.05,-673.14 876.61,-677.58 873.02,-673.57 877,-674 877,-674 877,-674 873.02,-673.57 877.39,-670.42 869.05,-673.14 869.05,-673.14"/>
<ellipse fill="none" stroke="black" cx="865.87" cy="-672.79" rx="3.2" ry="3.2"/>
</g>
<!-- ms_appl_data.mstr_contacts&#45;&gt;syst_enum_items -->
<g id="edge2" class="edge">
<title>ms_appl_data.mstr_contacts:w&#45;&gt;syst_enum_items:e</title>
<path fill="none" stroke="black" d="M862.32,-673.71C759.04,-664.41 723.59,-501.53 713.23,-430.04"/>
<polygon fill="black" stroke="black" points="869,-673.84 876.93,-677.6 873,-673.92 877,-674 877,-674 877,-674 873,-673.92 877.07,-670.4 869,-673.84 869,-673.84"/>
<ellipse fill="none" stroke="black" cx="865.8" cy="-673.78" rx="3.2" ry="3.2"/>
</g>
<!-- syst_enum_functional_types -->
<g id="node8" class="node">
<title>syst_enum_functional_types</title>
<g id="a_node8"><a xlink:href="../../tables/syst_enum_functional_types.html" xlink:title="syst_enum_functional_types" target="_top">
<polygon fill="#ffffff" stroke="transparent" points="353,-395 353,-453 582,-453 582,-395 353,-395"/>
<polygon fill="#f5f5f5" stroke="transparent" points="353.5,-431 353.5,-453 582.5,-453 582.5,-431 353.5,-431"/>
<polygon fill="none" stroke="black" points="353.5,-431 353.5,-453 582.5,-453 582.5,-431 353.5,-431"/>
<text text-anchor="start" x="358.5" y="-440.2" font-family="Helvetica,sans-Serif" font-weight="bold" font-size="11.00">syst_enum_functional_types</text>
<text text-anchor="start" x="547.5" y="-439.2" font-family="Helvetica,sans-Serif" font-size="11.00">[table]</text>
<polygon fill="none" stroke="black" points="353.5,-413 353.5,-431 582.5,-431 582.5,-413 353.5,-413"/>
<text text-anchor="start" x="356.5" y="-419.2" font-family="Helvetica,sans-Serif" font-size="11.00">...</text>
<polygon fill="#ffffff" stroke="transparent" points="353.5,-395 353.5,-413 461.5,-413 461.5,-395 353.5,-395"/>
<polygon fill="none" stroke="black" points="353.5,-395 353.5,-413 461.5,-413 461.5,-395 353.5,-395"/>
<text text-anchor="start" x="356.5" y="-401.2" font-family="Helvetica,sans-Serif" font-size="11.00">&lt; 1</text>
<polygon fill="#ffffff" stroke="transparent" points="461.5,-395 461.5,-413 517.5,-413 517.5,-395 461.5,-395"/>
<polygon fill="none" stroke="black" points="461.5,-395 461.5,-413 517.5,-413 517.5,-395 461.5,-395"/>
<text text-anchor="start" x="507.5" y="-401.2" font-family="Helvetica,sans-Serif" font-size="11.00"> &#160;</text>
<polygon fill="#ffffff" stroke="transparent" points="517.5,-395 517.5,-413 582.5,-413 582.5,-395 517.5,-395"/>
<polygon fill="none" stroke="black" points="517.5,-395 517.5,-413 582.5,-413 582.5,-395 517.5,-395"/>
<text text-anchor="start" x="563.5" y="-401.2" font-family="Helvetica,sans-Serif" font-size="11.00">1 &gt;</text>
</a>
</g>
</g>
<!-- syst_enum_items&#45;&gt;syst_enum_functional_types -->
<g id="edge13" class="edge">
<title>syst_enum_items:w&#45;&gt;syst_enum_functional_types:e</title>
<path fill="none" stroke="black" d="M608.52,-408.18C602.48,-408.86 596.37,-409.55 590.25,-410.25"/>
<polygon fill="black" stroke="black" points="614.95,-407.46 623.31,-410.13 618.93,-407.01 622.9,-406.56 622.9,-406.56 622.9,-406.56 618.93,-407.01 622.5,-402.98 614.95,-407.46 614.95,-407.46"/>
<ellipse fill="none" stroke="black" cx="611.77" cy="-407.81" rx="3.2" ry="3.2"/>
</g>
<!-- syst_enums -->
<g id="node9" class="node">
<title>syst_enums</title>
<g id="a_node9"><a xlink:href="../../tables/syst_enums.html" xlink:title="syst_enums" target="_top">
<polygon fill="#ffffff" stroke="transparent" points="8,-37 8,-433 304,-433 304,-37 8,-37"/>
<polygon fill="#f5f5f5" stroke="transparent" points="10,-409 10,-431 302,-431 302,-409 10,-409"/>
<polygon fill="none" stroke="black" points="10,-409 10,-431 302,-431 302,-409 10,-409"/>
<text text-anchor="start" x="15" y="-418.2" font-family="Helvetica,sans-Serif" font-weight="bold" font-size="11.00">syst_enums</text>
<text text-anchor="start" x="267" y="-417.2" font-family="Helvetica,sans-Serif" font-size="11.00">[table]</text>
<polygon fill="none" stroke="black" points="10,-387 10,-409 204,-409 204,-387 10,-387"/>
<image xlink:href="../../images/primaryKeys.png" width="11px" height="12px" preserveAspectRatio="xMinYMin meet" x="15" y="-404"/>
<text text-anchor="start" x="30" y="-395.2" font-family="Helvetica,sans-Serif" font-size="11.00">id</text>
<polygon fill="none" stroke="black" points="204,-387 204,-409 302,-409 302,-387 204,-387"/>
<text text-anchor="start" x="207" y="-395.2" font-family="Helvetica,sans-Serif" font-size="11.00">uuid[2147483647]</text>
<polygon fill="#ffffff" stroke="transparent" points="10,-365 10,-387 204,-387 204,-365 10,-365"/>
<polygon fill="none" stroke="black" points="10,-365 10,-387 204,-387 204,-365 10,-365"/>
<text text-anchor="start" x="30" y="-373.2" font-family="Helvetica,sans-Serif" font-size="11.00">internal_name</text>
<polygon fill="none" stroke="black" points="204,-365 204,-387 302,-387 302,-365 204,-365"/>
<text text-anchor="start" x="207" y="-373.2" font-family="Helvetica,sans-Serif" font-size="11.00">text[2147483647]</text>
<polygon fill="#ffffff" stroke="transparent" points="10,-343 10,-365 204,-365 204,-343 10,-343"/>
<polygon fill="none" stroke="black" points="10,-343 10,-365 204,-365 204,-343 10,-343"/>
<text text-anchor="start" x="30" y="-351.2" font-family="Helvetica,sans-Serif" font-size="11.00">display_name</text>
<polygon fill="none" stroke="black" points="204,-343 204,-365 302,-365 302,-343 204,-343"/>
<text text-anchor="start" x="207" y="-351.2" font-family="Helvetica,sans-Serif" font-size="11.00">text[2147483647]</text>
<polygon fill="none" stroke="black" points="10,-321 10,-343 204,-343 204,-321 10,-321"/>
<text text-anchor="start" x="30" y="-329.2" font-family="Helvetica,sans-Serif" font-size="11.00">syst_description</text>
<polygon fill="none" stroke="black" points="204,-321 204,-343 302,-343 302,-321 204,-321"/>
<text text-anchor="start" x="207" y="-329.2" font-family="Helvetica,sans-Serif" font-size="11.00">text[2147483647]</text>
<polygon fill="none" stroke="black" points="10,-299 10,-321 204,-321 204,-299 10,-299"/>
<text text-anchor="start" x="30" y="-307.2" font-family="Helvetica,sans-Serif" font-size="11.00">user_description</text>
<polygon fill="none" stroke="black" points="204,-299 204,-321 302,-321 302,-299 204,-299"/>
<text text-anchor="start" x="207" y="-307.2" font-family="Helvetica,sans-Serif" font-size="11.00">text[2147483647]</text>
<polygon fill="none" stroke="black" points="10,-277 10,-299 204,-299 204,-277 10,-277"/>
<text text-anchor="start" x="30" y="-285.2" font-family="Helvetica,sans-Serif" font-size="11.00">syst_defined</text>
<polygon fill="none" stroke="black" points="204,-277 204,-299 302,-299 302,-277 204,-277"/>
<text text-anchor="start" x="207" y="-285.2" font-family="Helvetica,sans-Serif" font-size="11.00">bool[1]</text>
<polygon fill="none" stroke="black" points="10,-255 10,-277 204,-277 204,-255 10,-255"/>
<text text-anchor="start" x="30" y="-263.2" font-family="Helvetica,sans-Serif" font-size="11.00">user_maintainable</text>
<polygon fill="none" stroke="black" points="204,-255 204,-277 302,-277 302,-255 204,-255"/>
<text text-anchor="start" x="207" y="-263.2" font-family="Helvetica,sans-Serif" font-size="11.00">bool[1]</text>
<polygon fill="none" stroke="black" points="10,-233 10,-255 204,-255 204,-233 10,-233"/>
<text text-anchor="start" x="30" y="-241.2" font-family="Helvetica,sans-Serif" font-size="11.00">default_syst_options</text>
<polygon fill="none" stroke="black" points="204,-233 204,-255 302,-255 302,-233 204,-233"/>
<text text-anchor="start" x="207" y="-241.2" font-family="Helvetica,sans-Serif" font-size="11.00">jsonb[2147483647]</text>
<polygon fill="none" stroke="black" points="10,-211 10,-233 204,-233 204,-211 10,-211"/>
<text text-anchor="start" x="30" y="-219.2" font-family="Helvetica,sans-Serif" font-size="11.00">default_user_options</text>
<polygon fill="none" stroke="black" points="204,-211 204,-233 302,-233 302,-211 204,-211"/>
<text text-anchor="start" x="207" y="-219.2" font-family="Helvetica,sans-Serif" font-size="11.00">jsonb[2147483647]</text>
<polygon fill="none" stroke="black" points="10,-189 10,-211 204,-211 204,-189 10,-189"/>
<text text-anchor="start" x="30" y="-197.2" font-family="Helvetica,sans-Serif" font-size="11.00">diag_timestamp_created</text>
<polygon fill="none" stroke="black" points="204,-189 204,-211 302,-211 302,-189 204,-189"/>
<text text-anchor="start" x="207" y="-197.2" font-family="Helvetica,sans-Serif" font-size="11.00">timestamptz[35,6]</text>
<polygon fill="none" stroke="black" points="10,-167 10,-189 204,-189 204,-167 10,-167"/>
<text text-anchor="start" x="30" y="-175.2" font-family="Helvetica,sans-Serif" font-size="11.00">diag_role_created</text>
<polygon fill="none" stroke="black" points="204,-167 204,-189 302,-189 302,-167 204,-167"/>
<text text-anchor="start" x="207" y="-175.2" font-family="Helvetica,sans-Serif" font-size="11.00">text[2147483647]</text>
<polygon fill="none" stroke="black" points="10,-145 10,-167 204,-167 204,-145 10,-145"/>
<text text-anchor="start" x="30" y="-153.2" font-family="Helvetica,sans-Serif" font-size="11.00">diag_timestamp_modified</text>
<polygon fill="none" stroke="black" points="204,-145 204,-167 302,-167 302,-145 204,-145"/>
<text text-anchor="start" x="207" y="-153.2" font-family="Helvetica,sans-Serif" font-size="11.00">timestamptz[35,6]</text>
<polygon fill="none" stroke="black" points="10,-123 10,-145 204,-145 204,-123 10,-123"/>
<text text-anchor="start" x="30" y="-131.2" font-family="Helvetica,sans-Serif" font-size="11.00">diag_wallclock_modified</text>
<polygon fill="none" stroke="black" points="204,-123 204,-145 302,-145 302,-123 204,-123"/>
<text text-anchor="start" x="207" y="-131.2" font-family="Helvetica,sans-Serif" font-size="11.00">timestamptz[35,6]</text>
<polygon fill="none" stroke="black" points="10,-101 10,-123 204,-123 204,-101 10,-101"/>
<text text-anchor="start" x="30" y="-109.2" font-family="Helvetica,sans-Serif" font-size="11.00">diag_role_modified</text>
<polygon fill="none" stroke="black" points="204,-101 204,-123 302,-123 302,-101 204,-101"/>
<text text-anchor="start" x="207" y="-109.2" font-family="Helvetica,sans-Serif" font-size="11.00">text[2147483647]</text>
<polygon fill="none" stroke="black" points="10,-79 10,-101 204,-101 204,-79 10,-79"/>
<text text-anchor="start" x="30" y="-87.2" font-family="Helvetica,sans-Serif" font-size="11.00">diag_row_version</text>
<polygon fill="none" stroke="black" points="204,-79 204,-101 302,-101 302,-79 204,-79"/>
<text text-anchor="start" x="207" y="-87.2" font-family="Helvetica,sans-Serif" font-size="11.00">int8[19]</text>
<polygon fill="none" stroke="black" points="10,-57 10,-79 204,-79 204,-57 10,-57"/>
<text text-anchor="start" x="30" y="-65.2" font-family="Helvetica,sans-Serif" font-size="11.00">diag_update_count</text>
<polygon fill="none" stroke="black" points="204,-57 204,-79 302,-79 302,-57 204,-57"/>
<text text-anchor="start" x="207" y="-65.2" font-family="Helvetica,sans-Serif" font-size="11.00">int8[19]</text>
<polygon fill="#ffffff" stroke="transparent" points="10,-39 10,-57 111,-57 111,-39 10,-39"/>
<polygon fill="none" stroke="black" points="10,-39 10,-57 111,-57 111,-39 10,-39"/>
<text text-anchor="start" x="13" y="-45.2" font-family="Helvetica,sans-Serif" font-size="11.00">&lt; 0</text>
<polygon fill="#ffffff" stroke="transparent" points="111,-39 111,-57 204,-57 204,-39 111,-39"/>
<polygon fill="none" stroke="black" points="111,-39 111,-57 204,-57 204,-39 111,-39"/>
<text text-anchor="start" x="194" y="-45.2" font-family="Helvetica,sans-Serif" font-size="11.00"> &#160;</text>
<polygon fill="#ffffff" stroke="transparent" points="204,-39 204,-57 302,-57 302,-39 204,-39"/>
<polygon fill="none" stroke="black" points="204,-39 204,-57 302,-57 302,-39 204,-39"/>
<text text-anchor="start" x="283" y="-45.2" font-family="Helvetica,sans-Serif" font-size="11.00">2 &gt;</text>
<polygon fill="none" stroke="black" stroke-width="2" points="9,-38 9,-432 303,-432 303,-38 9,-38"/>
</a>
</g>
</g>
<!-- syst_enum_items&#45;&gt;syst_enums -->
<g id="edge12" class="edge">
<title>syst_enum_items:w&#45;&gt;syst_enums:e</title>
<path fill="none" stroke="black" d="M608.35,-386.15C602.15,-385.7 595.99,-385.31 590,-385 481.25,-379.46 452.66,-368.72 345,-385 325.68,-387.92 322.54,-398 303,-398"/>
<polygon fill="black" stroke="black" points="614.89,-386.68 622.57,-390.91 618.87,-387 622.86,-387.32 622.86,-387.32 622.86,-387.32 618.87,-387 623.15,-383.73 614.89,-386.68 614.89,-386.68"/>
<ellipse fill="none" stroke="black" cx="611.7" cy="-386.42" rx="3.2" ry="3.2"/>
</g>
<!-- ms_appl_data.mstr_entities -->
<g id="node3" class="node">
<title>ms_appl_data.mstr_entities</title>
<g id="a_node3"><a xlink:href="../../../ms_appl_data/tables/mstr_entities.html" xlink:title="ms_appl_data.mstr_entities" target="_top">
<polygon fill="#ffffff" stroke="transparent" points="880.5,-568 880.5,-626 1105.5,-626 1105.5,-568 880.5,-568"/>
<polygon fill="#f5f5f5" stroke="transparent" points="881,-604 881,-626 1106,-626 1106,-604 881,-604"/>
<polygon fill="none" stroke="black" points="881,-604 881,-626 1106,-626 1106,-604 881,-604"/>
<text text-anchor="start" x="886" y="-613.2" font-family="Helvetica,sans-Serif" font-weight="bold" font-size="11.00">ms_appl_data.mstr_entities</text>
<text text-anchor="start" x="1071" y="-612.2" font-family="Helvetica,sans-Serif" font-size="11.00">[table]</text>
<polygon fill="none" stroke="black" points="881,-586 881,-604 1106,-604 1106,-586 881,-586"/>
<text text-anchor="start" x="884" y="-592.2" font-family="Helvetica,sans-Serif" font-size="11.00">...</text>
<polygon fill="#ffffff" stroke="transparent" points="881,-568 881,-586 991,-586 991,-568 881,-568"/>
<polygon fill="none" stroke="black" points="881,-568 881,-586 991,-586 991,-568 881,-568"/>
<text text-anchor="start" x="884" y="-574.2" font-family="Helvetica,sans-Serif" font-size="11.00">&lt; 2</text>
<polygon fill="#ffffff" stroke="transparent" points="991,-568 991,-586 1048,-586 1048,-568 991,-568"/>
<polygon fill="none" stroke="black" points="991,-568 991,-586 1048,-586 1048,-568 991,-568"/>
<text text-anchor="start" x="1038" y="-574.2" font-family="Helvetica,sans-Serif" font-size="11.00"> &#160;</text>
<polygon fill="#ffffff" stroke="transparent" points="1048,-568 1048,-586 1106,-586 1106,-568 1048,-568"/>
<polygon fill="none" stroke="black" points="1048,-568 1048,-586 1106,-586 1106,-568 1048,-568"/>
<text text-anchor="start" x="1096" y="-574.2" font-family="Helvetica,sans-Serif" font-size="11.00"> &#160;</text>
</a>
</g>
</g>
<!-- ms_appl_data.mstr_entities&#45;&gt;syst_enum_items -->
<g id="edge3" class="edge">
<title>ms_appl_data.mstr_entities:w&#45;&gt;syst_enum_items:e</title>
<path fill="none" stroke="black" d="M865.54,-593.23C789.89,-578.5 742.83,-482.25 722.02,-430.19"/>
<polygon fill="black" stroke="black" points="872.06,-594.03 879.56,-598.57 876.03,-594.51 880,-595 880,-595 880,-595 876.03,-594.51 880.44,-591.43 872.06,-594.03 872.06,-594.03"/>
<ellipse fill="none" stroke="black" cx="868.88" cy="-593.64" rx="3.2" ry="3.2"/>
</g>
<!-- ms_appl_data.mstr_entities&#45;&gt;syst_enum_items -->
<g id="edge4" class="edge">
<title>ms_appl_data.mstr_entities:w&#45;&gt;syst_enum_items:e</title>
<path fill="none" stroke="black" d="M865.39,-594.8C786.15,-587.74 738.31,-484.61 719.17,-430.07"/>
<polygon fill="black" stroke="black" points="872,-594.89 879.95,-598.6 876,-594.95 880,-595 880,-595 880,-595 876,-594.95 880.05,-591.4 872,-594.89 872,-594.89"/>
<ellipse fill="none" stroke="black" cx="868.8" cy="-594.85" rx="3.2" ry="3.2"/>
</g>
<!-- ms_appl_data.mstr_entity_person_roles -->
<g id="node4" class="node">
<title>ms_appl_data.mstr_entity_person_roles</title>
<g id="a_node4"><a xlink:href="../../../ms_appl_data/tables/mstr_entity_person_roles.html" xlink:title="ms_appl_data.mstr_entity_person_roles" target="_top">
<polygon fill="#ffffff" stroke="transparent" points="840.5,-489 840.5,-547 1145.5,-547 1145.5,-489 840.5,-489"/>
<polygon fill="#f5f5f5" stroke="transparent" points="841,-525 841,-547 1146,-547 1146,-525 841,-525"/>
<polygon fill="none" stroke="black" points="841,-525 841,-547 1146,-547 1146,-525 841,-525"/>
<text text-anchor="start" x="846" y="-534.2" font-family="Helvetica,sans-Serif" font-weight="bold" font-size="11.00">ms_appl_data.mstr_entity_person_roles</text>
<text text-anchor="start" x="1111" y="-533.2" font-family="Helvetica,sans-Serif" font-size="11.00">[table]</text>
<polygon fill="none" stroke="black" points="841,-507 841,-525 1146,-525 1146,-507 841,-507"/>
<text text-anchor="start" x="844" y="-513.2" font-family="Helvetica,sans-Serif" font-size="11.00">...</text>
<polygon fill="#ffffff" stroke="transparent" points="841,-489 841,-507 991,-507 991,-489 841,-489"/>
<polygon fill="none" stroke="black" points="841,-489 841,-507 991,-507 991,-489 841,-489"/>
<text text-anchor="start" x="844" y="-495.2" font-family="Helvetica,sans-Serif" font-size="11.00">&lt; 1</text>
<polygon fill="#ffffff" stroke="transparent" points="991,-489 991,-507 1068,-507 1068,-489 991,-489"/>
<polygon fill="none" stroke="black" points="991,-489 991,-507 1068,-507 1068,-489 991,-489"/>
<text text-anchor="start" x="1058" y="-495.2" font-family="Helvetica,sans-Serif" font-size="11.00"> &#160;</text>
<polygon fill="#ffffff" stroke="transparent" points="1068,-489 1068,-507 1146,-507 1146,-489 1068,-489"/>
<polygon fill="none" stroke="black" points="1068,-489 1068,-507 1146,-507 1146,-489 1068,-489"/>
<text text-anchor="start" x="1136" y="-495.2" font-family="Helvetica,sans-Serif" font-size="11.00"> &#160;</text>
</a>
</g>
</g>
<!-- ms_appl_data.mstr_entity_person_roles&#45;&gt;syst_enum_items -->
<g id="edge5" class="edge">
<title>ms_appl_data.mstr_entity_person_roles:w&#45;&gt;syst_enum_items:e</title>
<path fill="none" stroke="black" d="M825.61,-514.67C781.32,-506.45 746.8,-461.99 727.28,-430.15"/>
<polygon fill="black" stroke="black" points="832.03,-515.26 839.67,-519.58 836.02,-515.63 840,-516 840,-516 840,-516 836.02,-515.63 840.33,-512.42 832.03,-515.26 832.03,-515.26"/>
<ellipse fill="none" stroke="black" cx="828.85" cy="-514.97" rx="3.2" ry="3.2"/>
</g>
<!-- ms_appl_data.mstr_person_contact_roles -->
<g id="node5" class="node">
<title>ms_appl_data.mstr_person_contact_roles</title>
<g id="a_node5"><a xlink:href="../../../ms_appl_data/tables/mstr_person_contact_roles.html" xlink:title="ms_appl_data.mstr_person_contact_roles" target="_top">
<polygon fill="#ffffff" stroke="transparent" points="835,-410 835,-468 1151,-468 1151,-410 835,-410"/>
<polygon fill="#f5f5f5" stroke="transparent" points="835,-446 835,-468 1151,-468 1151,-446 835,-446"/>
<polygon fill="none" stroke="black" points="835,-446 835,-468 1151,-468 1151,-446 835,-446"/>
<text text-anchor="start" x="840" y="-455.2" font-family="Helvetica,sans-Serif" font-weight="bold" font-size="11.00">ms_appl_data.mstr_person_contact_roles</text>
<text text-anchor="start" x="1116" y="-454.2" font-family="Helvetica,sans-Serif" font-size="11.00">[table]</text>
<polygon fill="none" stroke="black" points="835,-428 835,-446 1151,-446 1151,-428 835,-428"/>
<text text-anchor="start" x="838" y="-434.2" font-family="Helvetica,sans-Serif" font-size="11.00">...</text>
<polygon fill="#ffffff" stroke="transparent" points="835,-410 835,-428 991,-428 991,-410 835,-410"/>
<polygon fill="none" stroke="black" points="835,-410 835,-428 991,-428 991,-410 835,-410"/>
<text text-anchor="start" x="838" y="-416.2" font-family="Helvetica,sans-Serif" font-size="11.00">&lt; 1</text>
<polygon fill="#ffffff" stroke="transparent" points="991,-410 991,-428 1071,-428 1071,-410 991,-410"/>
<polygon fill="none" stroke="black" points="991,-410 991,-428 1071,-428 1071,-410 991,-410"/>
<text text-anchor="start" x="1061" y="-416.2" font-family="Helvetica,sans-Serif" font-size="11.00"> &#160;</text>
<polygon fill="#ffffff" stroke="transparent" points="1071,-410 1071,-428 1151,-428 1151,-410 1071,-410"/>
<polygon fill="none" stroke="black" points="1071,-410 1071,-428 1151,-428 1151,-410 1071,-410"/>
<text text-anchor="start" x="1141" y="-416.2" font-family="Helvetica,sans-Serif" font-size="11.00"> &#160;</text>
</a>
</g>
</g>
<!-- ms_appl_data.mstr_person_contact_roles&#45;&gt;syst_enum_items -->
<g id="edge6" class="edge">
<title>ms_appl_data.mstr_person_contact_roles:w&#45;&gt;syst_enum_items:e</title>
<path fill="none" stroke="black" d="M819.4,-436.22C808.63,-435.11 797.79,-432.88 787.34,-430.03"/>
<polygon fill="black" stroke="black" points="826.01,-436.57 833.81,-440.59 830.01,-436.79 834,-437 834,-437 834,-437 830.01,-436.79 834.19,-433.41 826.01,-436.57 826.01,-436.57"/>
<ellipse fill="none" stroke="black" cx="822.82" cy="-436.4" rx="3.2" ry="3.2"/>
</g>
<!-- ms_appl_data.mstr_persons -->
<g id="node6" class="node">
<title>ms_appl_data.mstr_persons</title>
<g id="a_node6"><a xlink:href="../../../ms_appl_data/tables/mstr_persons.html" xlink:title="ms_appl_data.mstr_persons" target="_top">
<polygon fill="#ffffff" stroke="transparent" points="879.5,-331 879.5,-389 1106.5,-389 1106.5,-331 879.5,-331"/>
<polygon fill="#f5f5f5" stroke="transparent" points="880,-367 880,-389 1107,-389 1107,-367 880,-367"/>
<polygon fill="none" stroke="black" points="880,-367 880,-389 1107,-389 1107,-367 880,-367"/>
<text text-anchor="start" x="885" y="-376.2" font-family="Helvetica,sans-Serif" font-weight="bold" font-size="11.00">ms_appl_data.mstr_persons</text>
<text text-anchor="start" x="1072" y="-375.2" font-family="Helvetica,sans-Serif" font-size="11.00">[table]</text>
<polygon fill="none" stroke="black" points="880,-349 880,-367 1107,-367 1107,-349 880,-349"/>
<text text-anchor="start" x="883" y="-355.2" font-family="Helvetica,sans-Serif" font-size="11.00">...</text>
<polygon fill="#ffffff" stroke="transparent" points="880,-331 880,-349 991,-349 991,-331 880,-331"/>
<polygon fill="none" stroke="black" points="880,-331 880,-349 991,-349 991,-331 880,-331"/>
<text text-anchor="start" x="883" y="-337.2" font-family="Helvetica,sans-Serif" font-size="11.00">&lt; 2</text>
<polygon fill="#ffffff" stroke="transparent" points="991,-331 991,-349 1049,-349 1049,-331 991,-331"/>
<polygon fill="none" stroke="black" points="991,-331 991,-349 1049,-349 1049,-331 991,-331"/>
<text text-anchor="start" x="1039" y="-337.2" font-family="Helvetica,sans-Serif" font-size="11.00"> &#160;</text>
<polygon fill="#ffffff" stroke="transparent" points="1049,-331 1049,-349 1107,-349 1107,-331 1049,-331"/>
<polygon fill="none" stroke="black" points="1049,-331 1049,-349 1107,-349 1107,-331 1049,-331"/>
<text text-anchor="start" x="1097" y="-337.2" font-family="Helvetica,sans-Serif" font-size="11.00"> &#160;</text>
</a>
</g>
</g>
<!-- ms_appl_data.mstr_persons&#45;&gt;syst_enum_items -->
<g id="edge7" class="edge">
<title>ms_appl_data.mstr_persons:w&#45;&gt;syst_enum_items:e</title>
<path fill="none" stroke="black" d="M864.45,-357.38C840.89,-357.17 816.59,-360.55 794.42,-365.44"/>
<polygon fill="black" stroke="black" points="871.01,-357.66 878.85,-361.6 875,-357.83 879,-358 879,-358 879,-358 875,-357.83 879.15,-354.4 871.01,-357.66 871.01,-357.66"/>
<ellipse fill="none" stroke="black" cx="867.81" cy="-357.53" rx="3.2" ry="3.2"/>
</g>
<!-- ms_appl_data.mstr_persons&#45;&gt;syst_enum_items -->
<g id="edge8" class="edge">
<title>ms_appl_data.mstr_persons:w&#45;&gt;syst_enum_items:e</title>
<path fill="none" stroke="black" d="M864.45,-359.66C840.89,-362.85 816.59,-368.47 794.42,-374.44"/>
<polygon fill="black" stroke="black" points="871.05,-358.9 879.41,-361.58 875.03,-358.45 879,-358 879,-358 879,-358 875.03,-358.45 878.59,-354.42 871.05,-358.9 871.05,-358.9"/>
<ellipse fill="none" stroke="black" cx="867.87" cy="-359.27" rx="3.2" ry="3.2"/>
</g>
<!-- ms_appl_data.mstr_places -->
<g id="node7" class="node">
<title>ms_appl_data.mstr_places</title>
<g id="a_node7"><a xlink:href="../../../ms_appl_data/tables/mstr_places.html" xlink:title="ms_appl_data.mstr_places" target="_top">
<polygon fill="#ffffff" stroke="transparent" points="885,-252 885,-310 1101,-310 1101,-252 885,-252"/>
<polygon fill="#f5f5f5" stroke="transparent" points="885,-288 885,-310 1101,-310 1101,-288 885,-288"/>
<polygon fill="none" stroke="black" points="885,-288 885,-310 1101,-310 1101,-288 885,-288"/>
<text text-anchor="start" x="890" y="-297.2" font-family="Helvetica,sans-Serif" font-weight="bold" font-size="11.00">ms_appl_data.mstr_places</text>
<text text-anchor="start" x="1066" y="-296.2" font-family="Helvetica,sans-Serif" font-size="11.00">[table]</text>
<polygon fill="none" stroke="black" points="885,-270 885,-288 1101,-288 1101,-270 885,-270"/>
<text text-anchor="start" x="888" y="-276.2" font-family="Helvetica,sans-Serif" font-size="11.00">...</text>
<polygon fill="#ffffff" stroke="transparent" points="885,-252 885,-270 991,-270 991,-252 885,-252"/>
<polygon fill="none" stroke="black" points="885,-252 885,-270 991,-270 991,-252 885,-252"/>
<text text-anchor="start" x="888" y="-258.2" font-family="Helvetica,sans-Serif" font-size="11.00">&lt; 2</text>
<polygon fill="#ffffff" stroke="transparent" points="991,-252 991,-270 1046,-270 1046,-252 991,-252"/>
<polygon fill="none" stroke="black" points="991,-252 991,-270 1046,-270 1046,-252 991,-252"/>
<text text-anchor="start" x="1036" y="-258.2" font-family="Helvetica,sans-Serif" font-size="11.00"> &#160;</text>
<polygon fill="#ffffff" stroke="transparent" points="1046,-252 1046,-270 1101,-270 1101,-252 1046,-252"/>
<polygon fill="none" stroke="black" points="1046,-252 1046,-270 1101,-270 1101,-252 1046,-252"/>
<text text-anchor="start" x="1091" y="-258.2" font-family="Helvetica,sans-Serif" font-size="11.00"> &#160;</text>
</a>
</g>
</g>
<!-- ms_appl_data.mstr_places&#45;&gt;syst_enum_items -->
<g id="edge9" class="edge">
<title>ms_appl_data.mstr_places:w&#45;&gt;syst_enum_items:e</title>
<path fill="none" stroke="black" d="M869.29,-279.05C811.92,-283.06 760.89,-330.36 732.68,-363.89"/>
<polygon fill="black" stroke="black" points="876,-279.03 884.01,-282.6 880,-279.01 884,-279 884,-279 884,-279 880,-279.01 883.99,-275.4 876,-279.03 876,-279.03"/>
<ellipse fill="none" stroke="black" cx="872.8" cy="-279.04" rx="3.2" ry="3.2"/>
</g>
<!-- ms_appl_data.mstr_places&#45;&gt;syst_enum_items -->
<g id="edge10" class="edge">
<title>ms_appl_data.mstr_places:w&#45;&gt;syst_enum_items:e</title>
<path fill="none" stroke="black" d="M869.46,-280.97C817.06,-291.17 769.93,-333.32 740.63,-363.96"/>
<polygon fill="black" stroke="black" points="876.07,-280.07 884.48,-282.57 880.04,-279.54 884,-279 884,-279 884,-279 880.04,-279.54 883.52,-275.43 876.07,-280.07 876.07,-280.07"/>
<ellipse fill="none" stroke="black" cx="872.9" cy="-280.5" rx="3.2" ry="3.2"/>
</g>
<!-- syst_enum_functional_types&#45;&gt;syst_enums -->
<g id="edge11" class="edge">
<title>syst_enum_functional_types:w&#45;&gt;syst_enums:e</title>
<path fill="none" stroke="black" d="M330.41,-399.06C321.16,-398.39 311.96,-398 303,-398"/>
<polygon fill="black" stroke="black" points="337,-399.65 344.65,-403.94 340.98,-400 344.97,-400.35 344.97,-400.35 344.97,-400.35 340.98,-400 345.28,-396.77 337,-399.65 337,-399.65"/>
<ellipse fill="none" stroke="black" cx="333.81" cy="-399.36" rx="3.2" ry="3.2"/>
</g>
<!-- syst_interaction_logs -->
<g id="node10" class="node">
<title>syst_interaction_logs</title>
<g id="a_node10"><a xlink:href="../../tables/syst_interaction_logs.html" xlink:title="syst_interaction_logs" target="_top">
<polygon fill="#ffffff" stroke="transparent" points="902,-173 902,-231 1084,-231 1084,-173 902,-173"/>
<polygon fill="#f5f5f5" stroke="transparent" points="902,-209 902,-231 1084,-231 1084,-209 902,-209"/>
<polygon fill="none" stroke="black" points="902,-209 902,-231 1084,-231 1084,-209 902,-209"/>
<text text-anchor="start" x="907" y="-218.2" font-family="Helvetica,sans-Serif" font-weight="bold" font-size="11.00">syst_interaction_logs</text>
<text text-anchor="start" x="1049" y="-217.2" font-family="Helvetica,sans-Serif" font-size="11.00">[table]</text>
<polygon fill="none" stroke="black" points="902,-191 902,-209 1084,-209 1084,-191 902,-191"/>
<text text-anchor="start" x="905" y="-197.2" font-family="Helvetica,sans-Serif" font-size="11.00">...</text>
<polygon fill="#ffffff" stroke="transparent" points="902,-173 902,-191 991,-191 991,-173 902,-173"/>
<polygon fill="none" stroke="black" points="902,-173 902,-191 991,-191 991,-173 902,-173"/>
<text text-anchor="start" x="905" y="-179.2" font-family="Helvetica,sans-Serif" font-size="11.00">&lt; 2</text>
<polygon fill="#ffffff" stroke="transparent" points="991,-173 991,-191 1037,-191 1037,-173 991,-173"/>
<polygon fill="none" stroke="black" points="991,-173 991,-191 1037,-191 1037,-173 991,-173"/>
<text text-anchor="start" x="1027" y="-179.2" font-family="Helvetica,sans-Serif" font-size="11.00"> &#160;</text>
<polygon fill="#ffffff" stroke="transparent" points="1037,-173 1037,-191 1084,-191 1084,-173 1037,-173"/>
<polygon fill="none" stroke="black" points="1037,-173 1037,-191 1084,-191 1084,-173 1037,-173"/>
<text text-anchor="start" x="1074" y="-179.2" font-family="Helvetica,sans-Serif" font-size="11.00"> &#160;</text>
</a>
</g>
</g>
<!-- syst_interaction_logs&#45;&gt;syst_enum_items -->
<g id="edge14" class="edge">
<title>syst_interaction_logs:w&#45;&gt;syst_enum_items:e</title>
<path fill="none" stroke="black" d="M886.43,-200.24C802.38,-207.23 745.51,-309.42 721.86,-363.74"/>
<polygon fill="black" stroke="black" points="893,-200.13 901.06,-203.6 897,-200.07 901,-200 901,-200 901,-200 897,-200.07 900.94,-196.4 893,-200.13 893,-200.13"/>
<ellipse fill="none" stroke="black" cx="889.8" cy="-200.19" rx="3.2" ry="3.2"/>
</g>
<!-- syst_interaction_logs&#45;&gt;syst_enum_items -->
<g id="edge15" class="edge">
<title>syst_interaction_logs:w&#45;&gt;syst_enum_items:e</title>
<path fill="none" stroke="black" d="M886.31,-201.78C806.24,-216.64 750.85,-311.89 725.38,-363.71"/>
<polygon fill="black" stroke="black" points="893.06,-200.96 901.43,-203.57 897.03,-200.48 901,-200 901,-200 901,-200 897.03,-200.48 900.57,-196.43 893.06,-200.96 893.06,-200.96"/>
<ellipse fill="none" stroke="black" cx="889.88" cy="-201.35" rx="3.2" ry="3.2"/>
</g>
</g>
</svg>
