<?xml version="1.0" encoding="UTF-8" standalone="no"?>
<!DOCTYPE svg PUBLIC "-//W3C//DTD SVG 1.1//EN"
 "http://www.w3.org/Graphics/SVG/1.1/DTD/svg11.dtd">
<!-- Generated by graphviz version 2.43.0 (0)
 -->
<!-- Title: oneDegreeRelationshipsDiagram Pages: 1 -->
<svg width="315pt" height="471pt"
 viewBox="0.00 0.00 315.00 471.00" xmlns="http://www.w3.org/2000/svg" xmlns:xlink="http://www.w3.org/1999/xlink">
<g id="graph0" class="graph" transform="scale(1 1) rotate(0) translate(4 467)">
<title>oneDegreeRelationshipsDiagram</title>
<polygon fill="#ffffff" stroke="transparent" points="-4,4 -4,-467 311,-467 311,4 -4,4"/>
<text text-anchor="middle" x="71.5" y="-7.2" font-family="Helvetica,sans-Serif" font-size="11.00">Generated by SchemaSpy</text>
<!-- syst_menu_items -->
<g id="node1" class="node">
<title>syst_menu_items</title>
<g id="a_node1"><a xlink:href="../../tables/syst_menu_items.html" xlink:title="syst_menu_items" target="_top">
<polygon fill="#ffffff" stroke="transparent" points="8,-37 8,-459 299,-459 299,-37 8,-37"/>
<polygon fill="#f5f5f5" stroke="transparent" points="10.5,-435 10.5,-457 297.5,-457 297.5,-435 10.5,-435"/>
<polygon fill="none" stroke="black" points="10.5,-435 10.5,-457 297.5,-457 297.5,-435 10.5,-435"/>
<text text-anchor="start" x="15.5" y="-444.2" font-family="Helvetica,sans-Serif" font-weight="bold" font-size="11.00">syst_menu_items</text>
<text text-anchor="start" x="264.5" y="-443.2" font-family="Helvetica,sans-Serif" font-size="11.00">[view]</text>
<polygon fill="none" stroke="black" points="10.5,-413 10.5,-435 204.5,-435 204.5,-413 10.5,-413"/>
<text text-anchor="start" x="30.5" y="-421.2" font-family="Helvetica,sans-Serif" font-size="11.00">id</text>
<polygon fill="none" stroke="black" points="204.5,-413 204.5,-435 297.5,-435 297.5,-413 204.5,-413"/>
<text text-anchor="start" x="207.5" y="-421.2" font-family="Helvetica,sans-Serif" font-size="11.00">uuid[2147483647]</text>
<polygon fill="none" stroke="black" points="10.5,-391 10.5,-413 204.5,-413 204.5,-391 10.5,-391"/>
<text text-anchor="start" x="30.5" y="-399.2" font-family="Helvetica,sans-Serif" font-size="11.00">internal_name</text>
<polygon fill="none" stroke="black" points="204.5,-391 204.5,-413 297.5,-413 297.5,-391 204.5,-391"/>
<text text-anchor="start" x="207.5" y="-399.2" font-family="Helvetica,sans-Serif" font-size="11.00">text[2147483647]</text>
<polygon fill="none" stroke="black" points="10.5,-369 10.5,-391 204.5,-391 204.5,-369 10.5,-369"/>
<text text-anchor="start" x="30.5" y="-377.2" font-family="Helvetica,sans-Serif" font-size="11.00">display_name</text>
<polygon fill="none" stroke="black" points="204.5,-369 204.5,-391 297.5,-391 297.5,-369 204.5,-369"/>
<text text-anchor="start" x="207.5" y="-377.2" font-family="Helvetica,sans-Serif" font-size="11.00">text[2147483647]</text>
<polygon fill="none" stroke="black" points="10.5,-347 10.5,-369 204.5,-369 204.5,-347 10.5,-347"/>
<text text-anchor="start" x="30.5" y="-355.2" font-family="Helvetica,sans-Serif" font-size="11.00">external_name</text>
<polygon fill="none" stroke="black" points="204.5,-347 204.5,-369 297.5,-369 297.5,-347 204.5,-347"/>
<text text-anchor="start" x="207.5" y="-355.2" font-family="Helvetica,sans-Serif" font-size="11.00">text[2147483647]</text>
<polygon fill="none" stroke="black" points="10.5,-325 10.5,-347 204.5,-347 204.5,-325 10.5,-325"/>
<text text-anchor="start" x="30.5" y="-333.2" font-family="Helvetica,sans-Serif" font-size="11.00">menu_id</text>
<polygon fill="none" stroke="black" points="204.5,-325 204.5,-347 297.5,-347 297.5,-325 204.5,-325"/>
<text text-anchor="start" x="207.5" y="-333.2" font-family="Helvetica,sans-Serif" font-size="11.00">uuid[2147483647]</text>
<polygon fill="none" stroke="black" points="10.5,-303 10.5,-325 204.5,-325 204.5,-303 10.5,-303"/>
<text text-anchor="start" x="30.5" y="-311.2" font-family="Helvetica,sans-Serif" font-size="11.00">parent_menu_item_id</text>
<polygon fill="none" stroke="black" points="204.5,-303 204.5,-325 297.5,-325 297.5,-303 204.5,-303"/>
<text text-anchor="start" x="207.5" y="-311.2" font-family="Helvetica,sans-Serif" font-size="11.00">uuid[2147483647]</text>
<polygon fill="none" stroke="black" points="10.5,-281 10.5,-303 204.5,-303 204.5,-281 10.5,-281"/>
<text text-anchor="start" x="30.5" y="-289.2" font-family="Helvetica,sans-Serif" font-size="11.00">sort_order</text>
<polygon fill="none" stroke="black" points="204.5,-281 204.5,-303 297.5,-303 297.5,-281 204.5,-281"/>
<text text-anchor="start" x="207.5" y="-289.2" font-family="Helvetica,sans-Serif" font-size="11.00">int2[5]</text>
<polygon fill="none" stroke="black" points="10.5,-259 10.5,-281 204.5,-281 204.5,-259 10.5,-259"/>
<text text-anchor="start" x="30.5" y="-267.2" font-family="Helvetica,sans-Serif" font-size="11.00">submenu_menu_id</text>
<polygon fill="none" stroke="black" points="204.5,-259 204.5,-281 297.5,-281 297.5,-259 204.5,-259"/>
<text text-anchor="start" x="207.5" y="-267.2" font-family="Helvetica,sans-Serif" font-size="11.00">uuid[2147483647]</text>
<polygon fill="none" stroke="black" points="10.5,-237 10.5,-259 204.5,-259 204.5,-237 10.5,-237"/>
<text text-anchor="start" x="30.5" y="-245.2" font-family="Helvetica,sans-Serif" font-size="11.00">action_id</text>
<polygon fill="none" stroke="black" points="204.5,-237 204.5,-259 297.5,-259 297.5,-237 204.5,-237"/>
<text text-anchor="start" x="207.5" y="-245.2" font-family="Helvetica,sans-Serif" font-size="11.00">uuid[2147483647]</text>
<polygon fill="none" stroke="black" points="10.5,-215 10.5,-237 204.5,-237 204.5,-215 10.5,-215"/>
<text text-anchor="start" x="30.5" y="-223.2" font-family="Helvetica,sans-Serif" font-size="11.00">syst_description</text>
<polygon fill="none" stroke="black" points="204.5,-215 204.5,-237 297.5,-237 297.5,-215 204.5,-215"/>
<text text-anchor="start" x="207.5" y="-223.2" font-family="Helvetica,sans-Serif" font-size="11.00">text[2147483647]</text>
<polygon fill="none" stroke="black" points="10.5,-193 10.5,-215 204.5,-215 204.5,-193 10.5,-193"/>
<text text-anchor="start" x="30.5" y="-201.2" font-family="Helvetica,sans-Serif" font-size="11.00">user_description</text>
<polygon fill="none" stroke="black" points="204.5,-193 204.5,-215 297.5,-215 297.5,-193 204.5,-193"/>
<text text-anchor="start" x="207.5" y="-201.2" font-family="Helvetica,sans-Serif" font-size="11.00">text[2147483647]</text>
<polygon fill="none" stroke="black" points="10.5,-171 10.5,-193 204.5,-193 204.5,-171 10.5,-171"/>
<text text-anchor="start" x="30.5" y="-179.2" font-family="Helvetica,sans-Serif" font-size="11.00">diag_timestamp_created</text>
<polygon fill="none" stroke="black" points="204.5,-171 204.5,-193 297.5,-193 297.5,-171 204.5,-171"/>
<text text-anchor="start" x="207.5" y="-179.2" font-family="Helvetica,sans-Serif" font-size="11.00">timestamptz[35,6]</text>
<polygon fill="none" stroke="black" points="10.5,-149 10.5,-171 204.5,-171 204.5,-149 10.5,-149"/>
<text text-anchor="start" x="30.5" y="-157.2" font-family="Helvetica,sans-Serif" font-size="11.00">diag_role_created</text>
<polygon fill="none" stroke="black" points="204.5,-149 204.5,-171 297.5,-171 297.5,-149 204.5,-149"/>
<text text-anchor="start" x="207.5" y="-157.2" font-family="Helvetica,sans-Serif" font-size="11.00">text[2147483647]</text>
<polygon fill="none" stroke="black" points="10.5,-127 10.5,-149 204.5,-149 204.5,-127 10.5,-127"/>
<text text-anchor="start" x="30.5" y="-135.2" font-family="Helvetica,sans-Serif" font-size="11.00">diag_timestamp_modified</text>
<polygon fill="none" stroke="black" points="204.5,-127 204.5,-149 297.5,-149 297.5,-127 204.5,-127"/>
<text text-anchor="start" x="207.5" y="-135.2" font-family="Helvetica,sans-Serif" font-size="11.00">timestamptz[35,6]</text>
<polygon fill="none" stroke="black" points="10.5,-105 10.5,-127 204.5,-127 204.5,-105 10.5,-105"/>
<text text-anchor="start" x="30.5" y="-113.2" font-family="Helvetica,sans-Serif" font-size="11.00">diag_wallclock_modified</text>
<polygon fill="none" stroke="black" points="204.5,-105 204.5,-127 297.5,-127 297.5,-105 204.5,-105"/>
<text text-anchor="start" x="207.5" y="-113.2" font-family="Helvetica,sans-Serif" font-size="11.00">timestamptz[35,6]</text>
<polygon fill="none" stroke="black" points="10.5,-83 10.5,-105 204.5,-105 204.5,-83 10.5,-83"/>
<text text-anchor="start" x="30.5" y="-91.2" font-family="Helvetica,sans-Serif" font-size="11.00">diag_role_modified</text>
<polygon fill="none" stroke="black" points="204.5,-83 204.5,-105 297.5,-105 297.5,-83 204.5,-83"/>
<text text-anchor="start" x="207.5" y="-91.2" font-family="Helvetica,sans-Serif" font-size="11.00">text[2147483647]</text>
<polygon fill="none" stroke="black" points="10.5,-61 10.5,-83 204.5,-83 204.5,-61 10.5,-61"/>
<text text-anchor="start" x="30.5" y="-69.2" font-family="Helvetica,sans-Serif" font-size="11.00">diag_row_version</text>
<polygon fill="none" stroke="black" points="204.5,-61 204.5,-83 297.5,-83 297.5,-61 204.5,-61"/>
<text text-anchor="start" x="207.5" y="-69.2" font-family="Helvetica,sans-Serif" font-size="11.00">int8[19]</text>
<polygon fill="none" stroke="black" points="10.5,-39 10.5,-61 204.5,-61 204.5,-39 10.5,-39"/>
<text text-anchor="start" x="30.5" y="-47.2" font-family="Helvetica,sans-Serif" font-size="11.00">diag_update_count</text>
<polygon fill="none" stroke="black" points="204.5,-39 204.5,-61 297.5,-61 297.5,-39 204.5,-39"/>
<text text-anchor="start" x="207.5" y="-47.2" font-family="Helvetica,sans-Serif" font-size="11.00">int8[19]</text>
<polygon fill="none" stroke="black" stroke-width="2" points="9,-38 9,-458 298,-458 298,-38 9,-38"/>
</a>
</g>
</g>
</g>
</svg>
