<?xml version="1.0" encoding="UTF-8" standalone="no"?>
<!DOCTYPE svg PUBLIC "-//W3C//DTD SVG 1.1//EN"
 "http://www.w3.org/Graphics/SVG/1.1/DTD/svg11.dtd">
<!-- Generated by graphviz version 2.43.0 (0)
 -->
<!-- Title: oneDegreeRelationshipsDiagram Pages: 1 -->
<svg width="320pt" height="559pt"
 viewBox="0.00 0.00 320.00 559.00" xmlns="http://www.w3.org/2000/svg" xmlns:xlink="http://www.w3.org/1999/xlink">
<g id="graph0" class="graph" transform="scale(1 1) rotate(0) translate(4 555)">
<title>oneDegreeRelationshipsDiagram</title>
<polygon fill="#ffffff" stroke="transparent" points="-4,4 -4,-555 316,-555 316,4 -4,4"/>
<text text-anchor="middle" x="71.5" y="-7.2" font-family="Helvetica,sans-Serif" font-size="11.00">Generated by SchemaSpy</text>
<!-- syst_enum_items -->
<g id="node1" class="node">
<title>syst_enum_items</title>
<g id="a_node1"><a xlink:href="../../tables/syst_enum_items.html" xlink:title="syst_enum_items" target="_top">
<polygon fill="#ffffff" stroke="transparent" points="8,-37 8,-547 304,-547 304,-37 8,-37"/>
<polygon fill="#f5f5f5" stroke="transparent" points="10,-523 10,-545 302,-545 302,-523 10,-523"/>
<polygon fill="none" stroke="black" points="10,-523 10,-545 302,-545 302,-523 10,-523"/>
<text text-anchor="start" x="15" y="-532.2" font-family="Helvetica,sans-Serif" font-weight="bold" font-size="11.00">syst_enum_items</text>
<text text-anchor="start" x="269" y="-531.2" font-family="Helvetica,sans-Serif" font-size="11.00">[view]</text>
<polygon fill="none" stroke="black" points="10,-501 10,-523 204,-523 204,-501 10,-501"/>
<text text-anchor="start" x="30" y="-509.2" font-family="Helvetica,sans-Serif" font-size="11.00">id</text>
<polygon fill="none" stroke="black" points="204,-501 204,-523 302,-523 302,-501 204,-501"/>
<text text-anchor="start" x="207" y="-509.2" font-family="Helvetica,sans-Serif" font-size="11.00">uuid[2147483647]</text>
<polygon fill="none" stroke="black" points="10,-479 10,-501 204,-501 204,-479 10,-479"/>
<text text-anchor="start" x="30" y="-487.2" font-family="Helvetica,sans-Serif" font-size="11.00">internal_name</text>
<polygon fill="none" stroke="black" points="204,-479 204,-501 302,-501 302,-479 204,-479"/>
<text text-anchor="start" x="207" y="-487.2" font-family="Helvetica,sans-Serif" font-size="11.00">text[2147483647]</text>
<polygon fill="none" stroke="black" points="10,-457 10,-479 204,-479 204,-457 10,-457"/>
<text text-anchor="start" x="30" y="-465.2" font-family="Helvetica,sans-Serif" font-size="11.00">display_name</text>
<polygon fill="none" stroke="black" points="204,-457 204,-479 302,-479 302,-457 204,-457"/>
<text text-anchor="start" x="207" y="-465.2" font-family="Helvetica,sans-Serif" font-size="11.00">text[2147483647]</text>
<polygon fill="none" stroke="black" points="10,-435 10,-457 204,-457 204,-435 10,-435"/>
<text text-anchor="start" x="30" y="-443.2" font-family="Helvetica,sans-Serif" font-size="11.00">external_name</text>
<polygon fill="none" stroke="black" points="204,-435 204,-457 302,-457 302,-435 204,-435"/>
<text text-anchor="start" x="207" y="-443.2" font-family="Helvetica,sans-Serif" font-size="11.00">text[2147483647]</text>
<polygon fill="none" stroke="black" points="10,-413 10,-435 204,-435 204,-413 10,-413"/>
<text text-anchor="start" x="30" y="-421.2" font-family="Helvetica,sans-Serif" font-size="11.00">enum_id</text>
<polygon fill="none" stroke="black" points="204,-413 204,-435 302,-435 302,-413 204,-413"/>
<text text-anchor="start" x="207" y="-421.2" font-family="Helvetica,sans-Serif" font-size="11.00">uuid[2147483647]</text>
<polygon fill="none" stroke="black" points="10,-391 10,-413 204,-413 204,-391 10,-391"/>
<text text-anchor="start" x="30" y="-399.2" font-family="Helvetica,sans-Serif" font-size="11.00">functional_type_id</text>
<polygon fill="none" stroke="black" points="204,-391 204,-413 302,-413 302,-391 204,-391"/>
<text text-anchor="start" x="207" y="-399.2" font-family="Helvetica,sans-Serif" font-size="11.00">uuid[2147483647]</text>
<polygon fill="none" stroke="black" points="10,-369 10,-391 204,-391 204,-369 10,-369"/>
<text text-anchor="start" x="30" y="-377.2" font-family="Helvetica,sans-Serif" font-size="11.00">enum_default</text>
<polygon fill="none" stroke="black" points="204,-369 204,-391 302,-391 302,-369 204,-369"/>
<text text-anchor="start" x="207" y="-377.2" font-family="Helvetica,sans-Serif" font-size="11.00">bool[1]</text>
<polygon fill="none" stroke="black" points="10,-347 10,-369 204,-369 204,-347 10,-347"/>
<text text-anchor="start" x="30" y="-355.2" font-family="Helvetica,sans-Serif" font-size="11.00">functional_type_default</text>
<polygon fill="none" stroke="black" points="204,-347 204,-369 302,-369 302,-347 204,-347"/>
<text text-anchor="start" x="207" y="-355.2" font-family="Helvetica,sans-Serif" font-size="11.00">bool[1]</text>
<polygon fill="none" stroke="black" points="10,-325 10,-347 204,-347 204,-325 10,-325"/>
<text text-anchor="start" x="30" y="-333.2" font-family="Helvetica,sans-Serif" font-size="11.00">syst_defined</text>
<polygon fill="none" stroke="black" points="204,-325 204,-347 302,-347 302,-325 204,-325"/>
<text text-anchor="start" x="207" y="-333.2" font-family="Helvetica,sans-Serif" font-size="11.00">bool[1]</text>
<polygon fill="none" stroke="black" points="10,-303 10,-325 204,-325 204,-303 10,-303"/>
<text text-anchor="start" x="30" y="-311.2" font-family="Helvetica,sans-Serif" font-size="11.00">user_maintainable</text>
<polygon fill="none" stroke="black" points="204,-303 204,-325 302,-325 302,-303 204,-303"/>
<text text-anchor="start" x="207" y="-311.2" font-family="Helvetica,sans-Serif" font-size="11.00">bool[1]</text>
<polygon fill="none" stroke="black" points="10,-281 10,-303 204,-303 204,-281 10,-281"/>
<text text-anchor="start" x="30" y="-289.2" font-family="Helvetica,sans-Serif" font-size="11.00">syst_description</text>
<polygon fill="none" stroke="black" points="204,-281 204,-303 302,-303 302,-281 204,-281"/>
<text text-anchor="start" x="207" y="-289.2" font-family="Helvetica,sans-Serif" font-size="11.00">text[2147483647]</text>
<polygon fill="none" stroke="black" points="10,-259 10,-281 204,-281 204,-259 10,-259"/>
<text text-anchor="start" x="30" y="-267.2" font-family="Helvetica,sans-Serif" font-size="11.00">user_description</text>
<polygon fill="none" stroke="black" points="204,-259 204,-281 302,-281 302,-259 204,-259"/>
<text text-anchor="start" x="207" y="-267.2" font-family="Helvetica,sans-Serif" font-size="11.00">text[2147483647]</text>
<polygon fill="none" stroke="black" points="10,-237 10,-259 204,-259 204,-237 10,-237"/>
<text text-anchor="start" x="30" y="-245.2" font-family="Helvetica,sans-Serif" font-size="11.00">sort_order</text>
<polygon fill="none" stroke="black" points="204,-237 204,-259 302,-259 302,-237 204,-237"/>
<text text-anchor="start" x="207" y="-245.2" font-family="Helvetica,sans-Serif" font-size="11.00">int2[5]</text>
<polygon fill="none" stroke="black" points="10,-215 10,-237 204,-237 204,-215 10,-215"/>
<text text-anchor="start" x="30" y="-223.2" font-family="Helvetica,sans-Serif" font-size="11.00">syst_options</text>
<polygon fill="none" stroke="black" points="204,-215 204,-237 302,-237 302,-215 204,-215"/>
<text text-anchor="start" x="207" y="-223.2" font-family="Helvetica,sans-Serif" font-size="11.00">jsonb[2147483647]</text>
<polygon fill="none" stroke="black" points="10,-193 10,-215 204,-215 204,-193 10,-193"/>
<text text-anchor="start" x="30" y="-201.2" font-family="Helvetica,sans-Serif" font-size="11.00">user_options</text>
<polygon fill="none" stroke="black" points="204,-193 204,-215 302,-215 302,-193 204,-193"/>
<text text-anchor="start" x="207" y="-201.2" font-family="Helvetica,sans-Serif" font-size="11.00">jsonb[2147483647]</text>
<polygon fill="none" stroke="black" points="10,-171 10,-193 204,-193 204,-171 10,-171"/>
<text text-anchor="start" x="30" y="-179.2" font-family="Helvetica,sans-Serif" font-size="11.00">diag_timestamp_created</text>
<polygon fill="none" stroke="black" points="204,-171 204,-193 302,-193 302,-171 204,-171"/>
<text text-anchor="start" x="207" y="-179.2" font-family="Helvetica,sans-Serif" font-size="11.00">timestamptz[35,6]</text>
<polygon fill="none" stroke="black" points="10,-149 10,-171 204,-171 204,-149 10,-149"/>
<text text-anchor="start" x="30" y="-157.2" font-family="Helvetica,sans-Serif" font-size="11.00">diag_role_created</text>
<polygon fill="none" stroke="black" points="204,-149 204,-171 302,-171 302,-149 204,-149"/>
<text text-anchor="start" x="207" y="-157.2" font-family="Helvetica,sans-Serif" font-size="11.00">text[2147483647]</text>
<polygon fill="none" stroke="black" points="10,-127 10,-149 204,-149 204,-127 10,-127"/>
<text text-anchor="start" x="30" y="-135.2" font-family="Helvetica,sans-Serif" font-size="11.00">diag_timestamp_modified</text>
<polygon fill="none" stroke="black" points="204,-127 204,-149 302,-149 302,-127 204,-127"/>
<text text-anchor="start" x="207" y="-135.2" font-family="Helvetica,sans-Serif" font-size="11.00">timestamptz[35,6]</text>
<polygon fill="none" stroke="black" points="10,-105 10,-127 204,-127 204,-105 10,-105"/>
<text text-anchor="start" x="30" y="-113.2" font-family="Helvetica,sans-Serif" font-size="11.00">diag_wallclock_modified</text>
<polygon fill="none" stroke="black" points="204,-105 204,-127 302,-127 302,-105 204,-105"/>
<text text-anchor="start" x="207" y="-113.2" font-family="Helvetica,sans-Serif" font-size="11.00">timestamptz[35,6]</text>
<polygon fill="none" stroke="black" points="10,-83 10,-105 204,-105 204,-83 10,-83"/>
<text text-anchor="start" x="30" y="-91.2" font-family="Helvetica,sans-Serif" font-size="11.00">diag_role_modified</text>
<polygon fill="none" stroke="black" points="204,-83 204,-105 302,-105 302,-83 204,-83"/>
<text text-anchor="start" x="207" y="-91.2" font-family="Helvetica,sans-Serif" font-size="11.00">text[2147483647]</text>
<polygon fill="none" stroke="black" points="10,-61 10,-83 204,-83 204,-61 10,-61"/>
<text text-anchor="start" x="30" y="-69.2" font-family="Helvetica,sans-Serif" font-size="11.00">diag_row_version</text>
<polygon fill="none" stroke="black" points="204,-61 204,-83 302,-83 302,-61 204,-61"/>
<text text-anchor="start" x="207" y="-69.2" font-family="Helvetica,sans-Serif" font-size="11.00">int8[19]</text>
<polygon fill="none" stroke="black" points="10,-39 10,-61 204,-61 204,-39 10,-39"/>
<text text-anchor="start" x="30" y="-47.2" font-family="Helvetica,sans-Serif" font-size="11.00">diag_update_count</text>
<polygon fill="none" stroke="black" points="204,-39 204,-61 302,-61 302,-39 204,-39"/>
<text text-anchor="start" x="207" y="-47.2" font-family="Helvetica,sans-Serif" font-size="11.00">int8[19]</text>
<polygon fill="none" stroke="black" stroke-width="2" points="9,-38 9,-546 303,-546 303,-38 9,-38"/>
</a>
</g>
</g>
</g>
</svg>
