<?xml version="1.0" encoding="UTF-8" standalone="no"?>
<!DOCTYPE svg PUBLIC "-//W3C//DTD SVG 1.1//EN"
 "http://www.w3.org/Graphics/SVG/1.1/DTD/svg11.dtd">
<!-- Generated by graphviz version 2.43.0 (0)
 -->
<!-- Title: oneDegreeRelationshipsDiagram Pages: 1 -->
<svg width="343pt" height="691pt"
 viewBox="0.00 0.00 343.00 691.00" xmlns="http://www.w3.org/2000/svg" xmlns:xlink="http://www.w3.org/1999/xlink">
<g id="graph0" class="graph" transform="scale(1 1) rotate(0) translate(4 687)">
<title>oneDegreeRelationshipsDiagram</title>
<polygon fill="#ffffff" stroke="transparent" points="-4,4 -4,-687 339,-687 339,4 -4,4"/>
<text text-anchor="middle" x="71.5" y="-7.2" font-family="Helvetica,sans-Serif" font-size="11.00">Generated by SchemaSpy</text>
<!-- syst_settings -->
<g id="node1" class="node">
<title>syst_settings</title>
<g id="a_node1"><a xlink:href="../../tables/syst_settings.html" xlink:title="syst_settings" target="_top">
<polygon fill="#ffffff" stroke="transparent" points="8,-37 8,-679 327,-679 327,-37 8,-37"/>
<polygon fill="#f5f5f5" stroke="transparent" points="10.5,-655 10.5,-677 325.5,-677 325.5,-655 10.5,-655"/>
<polygon fill="none" stroke="black" points="10.5,-655 10.5,-677 325.5,-677 325.5,-655 10.5,-655"/>
<text text-anchor="start" x="15.5" y="-664.2" font-family="Helvetica,sans-Serif" font-weight="bold" font-size="11.00">syst_settings</text>
<text text-anchor="start" x="292.5" y="-663.2" font-family="Helvetica,sans-Serif" font-size="11.00">[view]</text>
<polygon fill="none" stroke="black" points="10.5,-633 10.5,-655 204.5,-655 204.5,-633 10.5,-633"/>
<text text-anchor="start" x="30.5" y="-641.2" font-family="Helvetica,sans-Serif" font-size="11.00">id</text>
<polygon fill="none" stroke="black" points="204.5,-633 204.5,-655 325.5,-655 325.5,-633 204.5,-633"/>
<text text-anchor="start" x="207.5" y="-641.2" font-family="Helvetica,sans-Serif" font-size="11.00">uuid[2147483647]</text>
<polygon fill="none" stroke="black" points="10.5,-611 10.5,-633 204.5,-633 204.5,-611 10.5,-611"/>
<text text-anchor="start" x="30.5" y="-619.2" font-family="Helvetica,sans-Serif" font-size="11.00">internal_name</text>
<polygon fill="none" stroke="black" points="204.5,-611 204.5,-633 325.5,-633 325.5,-611 204.5,-611"/>
<text text-anchor="start" x="207.5" y="-619.2" font-family="Helvetica,sans-Serif" font-size="11.00">text[2147483647]</text>
<polygon fill="none" stroke="black" points="10.5,-589 10.5,-611 204.5,-611 204.5,-589 10.5,-589"/>
<text text-anchor="start" x="30.5" y="-597.2" font-family="Helvetica,sans-Serif" font-size="11.00">display_name</text>
<polygon fill="none" stroke="black" points="204.5,-589 204.5,-611 325.5,-611 325.5,-589 204.5,-589"/>
<text text-anchor="start" x="207.5" y="-597.2" font-family="Helvetica,sans-Serif" font-size="11.00">text[2147483647]</text>
<polygon fill="none" stroke="black" points="10.5,-567 10.5,-589 204.5,-589 204.5,-567 10.5,-567"/>
<text text-anchor="start" x="30.5" y="-575.2" font-family="Helvetica,sans-Serif" font-size="11.00">syst_defined</text>
<polygon fill="none" stroke="black" points="204.5,-567 204.5,-589 325.5,-589 325.5,-567 204.5,-567"/>
<text text-anchor="start" x="207.5" y="-575.2" font-family="Helvetica,sans-Serif" font-size="11.00">bool[1]</text>
<polygon fill="none" stroke="black" points="10.5,-545 10.5,-567 204.5,-567 204.5,-545 10.5,-545"/>
<text text-anchor="start" x="30.5" y="-553.2" font-family="Helvetica,sans-Serif" font-size="11.00">syst_description</text>
<polygon fill="none" stroke="black" points="204.5,-545 204.5,-567 325.5,-567 325.5,-545 204.5,-545"/>
<text text-anchor="start" x="207.5" y="-553.2" font-family="Helvetica,sans-Serif" font-size="11.00">text[2147483647]</text>
<polygon fill="none" stroke="black" points="10.5,-523 10.5,-545 204.5,-545 204.5,-523 10.5,-523"/>
<text text-anchor="start" x="30.5" y="-531.2" font-family="Helvetica,sans-Serif" font-size="11.00">user_description</text>
<polygon fill="none" stroke="black" points="204.5,-523 204.5,-545 325.5,-545 325.5,-523 204.5,-523"/>
<text text-anchor="start" x="207.5" y="-531.2" font-family="Helvetica,sans-Serif" font-size="11.00">text[2147483647]</text>
<polygon fill="none" stroke="black" points="10.5,-501 10.5,-523 204.5,-523 204.5,-501 10.5,-501"/>
<text text-anchor="start" x="30.5" y="-509.2" font-family="Helvetica,sans-Serif" font-size="11.00">setting_flag</text>
<polygon fill="none" stroke="black" points="204.5,-501 204.5,-523 325.5,-523 325.5,-501 204.5,-501"/>
<text text-anchor="start" x="207.5" y="-509.2" font-family="Helvetica,sans-Serif" font-size="11.00">bool[1]</text>
<polygon fill="none" stroke="black" points="10.5,-479 10.5,-501 204.5,-501 204.5,-479 10.5,-479"/>
<text text-anchor="start" x="30.5" y="-487.2" font-family="Helvetica,sans-Serif" font-size="11.00">setting_integer</text>
<polygon fill="none" stroke="black" points="204.5,-479 204.5,-501 325.5,-501 325.5,-479 204.5,-479"/>
<text text-anchor="start" x="207.5" y="-487.2" font-family="Helvetica,sans-Serif" font-size="11.00">int8[19]</text>
<polygon fill="none" stroke="black" points="10.5,-457 10.5,-479 204.5,-479 204.5,-457 10.5,-457"/>
<text text-anchor="start" x="30.5" y="-465.2" font-family="Helvetica,sans-Serif" font-size="11.00">setting_integer_range</text>
<polygon fill="none" stroke="black" points="204.5,-457 204.5,-479 325.5,-479 325.5,-457 204.5,-457"/>
<text text-anchor="start" x="207.5" y="-465.2" font-family="Helvetica,sans-Serif" font-size="11.00">int8range[2147483647]</text>
<polygon fill="none" stroke="black" points="10.5,-435 10.5,-457 204.5,-457 204.5,-435 10.5,-435"/>
<text text-anchor="start" x="30.5" y="-443.2" font-family="Helvetica,sans-Serif" font-size="11.00">setting_decimal</text>
<polygon fill="none" stroke="black" points="204.5,-435 204.5,-457 325.5,-457 325.5,-435 204.5,-435"/>
<text text-anchor="start" x="207.5" y="-443.2" font-family="Helvetica,sans-Serif" font-size="11.00">numeric[0]</text>
<polygon fill="none" stroke="black" points="10.5,-413 10.5,-435 204.5,-435 204.5,-413 10.5,-413"/>
<text text-anchor="start" x="30.5" y="-421.2" font-family="Helvetica,sans-Serif" font-size="11.00">setting_decimal_range</text>
<polygon fill="none" stroke="black" points="204.5,-413 204.5,-435 325.5,-435 325.5,-413 204.5,-413"/>
<text text-anchor="start" x="207.5" y="-421.2" font-family="Helvetica,sans-Serif" font-size="11.00">numrange[2147483647]</text>
<polygon fill="none" stroke="black" points="10.5,-391 10.5,-413 204.5,-413 204.5,-391 10.5,-391"/>
<text text-anchor="start" x="30.5" y="-399.2" font-family="Helvetica,sans-Serif" font-size="11.00">setting_interval</text>
<polygon fill="none" stroke="black" points="204.5,-391 204.5,-413 325.5,-413 325.5,-391 204.5,-391"/>
<text text-anchor="start" x="207.5" y="-399.2" font-family="Helvetica,sans-Serif" font-size="11.00">interval[49,6]</text>
<polygon fill="none" stroke="black" points="10.5,-369 10.5,-391 204.5,-391 204.5,-369 10.5,-369"/>
<text text-anchor="start" x="30.5" y="-377.2" font-family="Helvetica,sans-Serif" font-size="11.00">setting_date</text>
<polygon fill="none" stroke="black" points="204.5,-369 204.5,-391 325.5,-391 325.5,-369 204.5,-369"/>
<text text-anchor="start" x="207.5" y="-377.2" font-family="Helvetica,sans-Serif" font-size="11.00">date[13]</text>
<polygon fill="none" stroke="black" points="10.5,-347 10.5,-369 204.5,-369 204.5,-347 10.5,-347"/>
<text text-anchor="start" x="30.5" y="-355.2" font-family="Helvetica,sans-Serif" font-size="11.00">setting_date_range</text>
<polygon fill="none" stroke="black" points="204.5,-347 204.5,-369 325.5,-369 325.5,-347 204.5,-347"/>
<text text-anchor="start" x="207.5" y="-355.2" font-family="Helvetica,sans-Serif" font-size="11.00">daterange[2147483647]</text>
<polygon fill="none" stroke="black" points="10.5,-325 10.5,-347 204.5,-347 204.5,-325 10.5,-325"/>
<text text-anchor="start" x="30.5" y="-333.2" font-family="Helvetica,sans-Serif" font-size="11.00">setting_time</text>
<polygon fill="none" stroke="black" points="204.5,-325 204.5,-347 325.5,-347 325.5,-325 204.5,-325"/>
<text text-anchor="start" x="207.5" y="-333.2" font-family="Helvetica,sans-Serif" font-size="11.00">time[15,6]</text>
<polygon fill="none" stroke="black" points="10.5,-303 10.5,-325 204.5,-325 204.5,-303 10.5,-303"/>
<text text-anchor="start" x="30.5" y="-311.2" font-family="Helvetica,sans-Serif" font-size="11.00">setting_timestamp</text>
<polygon fill="none" stroke="black" points="204.5,-303 204.5,-325 325.5,-325 325.5,-303 204.5,-303"/>
<text text-anchor="start" x="207.5" y="-311.2" font-family="Helvetica,sans-Serif" font-size="11.00">timestamptz[35,6]</text>
<polygon fill="none" stroke="black" points="10.5,-281 10.5,-303 204.5,-303 204.5,-281 10.5,-281"/>
<text text-anchor="start" x="30.5" y="-289.2" font-family="Helvetica,sans-Serif" font-size="11.00">setting_timestamp_range</text>
<polygon fill="none" stroke="black" points="204.5,-281 204.5,-303 325.5,-303 325.5,-281 204.5,-281"/>
<text text-anchor="start" x="207.5" y="-289.2" font-family="Helvetica,sans-Serif" font-size="11.00">tstzrange[2147483647]</text>
<polygon fill="none" stroke="black" points="10.5,-259 10.5,-281 204.5,-281 204.5,-259 10.5,-259"/>
<text text-anchor="start" x="30.5" y="-267.2" font-family="Helvetica,sans-Serif" font-size="11.00">setting_json</text>
<polygon fill="none" stroke="black" points="204.5,-259 204.5,-281 325.5,-281 325.5,-259 204.5,-259"/>
<text text-anchor="start" x="207.5" y="-267.2" font-family="Helvetica,sans-Serif" font-size="11.00">jsonb[2147483647]</text>
<polygon fill="none" stroke="black" points="10.5,-237 10.5,-259 204.5,-259 204.5,-237 10.5,-237"/>
<text text-anchor="start" x="30.5" y="-245.2" font-family="Helvetica,sans-Serif" font-size="11.00">setting_text</text>
<polygon fill="none" stroke="black" points="204.5,-237 204.5,-259 325.5,-259 325.5,-237 204.5,-237"/>
<text text-anchor="start" x="207.5" y="-245.2" font-family="Helvetica,sans-Serif" font-size="11.00">text[2147483647]</text>
<polygon fill="none" stroke="black" points="10.5,-215 10.5,-237 204.5,-237 204.5,-215 10.5,-215"/>
<text text-anchor="start" x="30.5" y="-223.2" font-family="Helvetica,sans-Serif" font-size="11.00">setting_uuid</text>
<polygon fill="none" stroke="black" points="204.5,-215 204.5,-237 325.5,-237 325.5,-215 204.5,-215"/>
<text text-anchor="start" x="207.5" y="-223.2" font-family="Helvetica,sans-Serif" font-size="11.00">uuid[2147483647]</text>
<polygon fill="none" stroke="black" points="10.5,-193 10.5,-215 204.5,-215 204.5,-193 10.5,-193"/>
<text text-anchor="start" x="30.5" y="-201.2" font-family="Helvetica,sans-Serif" font-size="11.00">setting_blob</text>
<polygon fill="none" stroke="black" points="204.5,-193 204.5,-215 325.5,-215 325.5,-193 204.5,-193"/>
<text text-anchor="start" x="207.5" y="-201.2" font-family="Helvetica,sans-Serif" font-size="11.00">bytea[2147483647]</text>
<polygon fill="none" stroke="black" points="10.5,-171 10.5,-193 204.5,-193 204.5,-171 10.5,-171"/>
<text text-anchor="start" x="30.5" y="-179.2" font-family="Helvetica,sans-Serif" font-size="11.00">diag_timestamp_created</text>
<polygon fill="none" stroke="black" points="204.5,-171 204.5,-193 325.5,-193 325.5,-171 204.5,-171"/>
<text text-anchor="start" x="207.5" y="-179.2" font-family="Helvetica,sans-Serif" font-size="11.00">timestamptz[35,6]</text>
<polygon fill="none" stroke="black" points="10.5,-149 10.5,-171 204.5,-171 204.5,-149 10.5,-149"/>
<text text-anchor="start" x="30.5" y="-157.2" font-family="Helvetica,sans-Serif" font-size="11.00">diag_role_created</text>
<polygon fill="none" stroke="black" points="204.5,-149 204.5,-171 325.5,-171 325.5,-149 204.5,-149"/>
<text text-anchor="start" x="207.5" y="-157.2" font-family="Helvetica,sans-Serif" font-size="11.00">text[2147483647]</text>
<polygon fill="none" stroke="black" points="10.5,-127 10.5,-149 204.5,-149 204.5,-127 10.5,-127"/>
<text text-anchor="start" x="30.5" y="-135.2" font-family="Helvetica,sans-Serif" font-size="11.00">diag_timestamp_modified</text>
<polygon fill="none" stroke="black" points="204.5,-127 204.5,-149 325.5,-149 325.5,-127 204.5,-127"/>
<text text-anchor="start" x="207.5" y="-135.2" font-family="Helvetica,sans-Serif" font-size="11.00">timestamptz[35,6]</text>
<polygon fill="none" stroke="black" points="10.5,-105 10.5,-127 204.5,-127 204.5,-105 10.5,-105"/>
<text text-anchor="start" x="30.5" y="-113.2" font-family="Helvetica,sans-Serif" font-size="11.00">diag_wallclock_modified</text>
<polygon fill="none" stroke="black" points="204.5,-105 204.5,-127 325.5,-127 325.5,-105 204.5,-105"/>
<text text-anchor="start" x="207.5" y="-113.2" font-family="Helvetica,sans-Serif" font-size="11.00">timestamptz[35,6]</text>
<polygon fill="none" stroke="black" points="10.5,-83 10.5,-105 204.5,-105 204.5,-83 10.5,-83"/>
<text text-anchor="start" x="30.5" y="-91.2" font-family="Helvetica,sans-Serif" font-size="11.00">diag_role_modified</text>
<polygon fill="none" stroke="black" points="204.5,-83 204.5,-105 325.5,-105 325.5,-83 204.5,-83"/>
<text text-anchor="start" x="207.5" y="-91.2" font-family="Helvetica,sans-Serif" font-size="11.00">text[2147483647]</text>
<polygon fill="none" stroke="black" points="10.5,-61 10.5,-83 204.5,-83 204.5,-61 10.5,-61"/>
<text text-anchor="start" x="30.5" y="-69.2" font-family="Helvetica,sans-Serif" font-size="11.00">diag_row_version</text>
<polygon fill="none" stroke="black" points="204.5,-61 204.5,-83 325.5,-83 325.5,-61 204.5,-61"/>
<text text-anchor="start" x="207.5" y="-69.2" font-family="Helvetica,sans-Serif" font-size="11.00">int8[19]</text>
<polygon fill="none" stroke="black" points="10.5,-39 10.5,-61 204.5,-61 204.5,-39 10.5,-39"/>
<text text-anchor="start" x="30.5" y="-47.2" font-family="Helvetica,sans-Serif" font-size="11.00">diag_update_count</text>
<polygon fill="none" stroke="black" points="204.5,-39 204.5,-61 325.5,-61 325.5,-39 204.5,-39"/>
<text text-anchor="start" x="207.5" y="-47.2" font-family="Helvetica,sans-Serif" font-size="11.00">int8[19]</text>
<polygon fill="none" stroke="black" stroke-width="2" points="9,-38 9,-678 326,-678 326,-38 9,-38"/>
</a>
</g>
</g>
</g>
</svg>
