<?xml version="1.0" encoding="UTF-8" standalone="no"?>
<!DOCTYPE svg PUBLIC "-//W3C//DTD SVG 1.1//EN"
 "http://www.w3.org/Graphics/SVG/1.1/DTD/svg11.dtd">
<!-- Generated by graphviz version 2.43.0 (0)
 -->
<!-- Title: oneDegreeRelationshipsDiagram Pages: 1 -->
<svg width="343pt" height="709pt"
 viewBox="0.00 0.00 343.00 709.00" xmlns="http://www.w3.org/2000/svg" xmlns:xlink="http://www.w3.org/1999/xlink">
<g id="graph0" class="graph" transform="scale(1 1) rotate(0) translate(4 705)">
<title>oneDegreeRelationshipsDiagram</title>
<polygon fill="#ffffff" stroke="transparent" points="-4,4 -4,-705 339,-705 339,4 -4,4"/>
<text text-anchor="middle" x="71.5" y="-7.2" font-family="Helvetica,sans-Serif" font-size="11.00">Generated by SchemaSpy</text>
<!-- syst_settings -->
<g id="node1" class="node">
<title>syst_settings</title>
<g id="a_node1"><a xlink:href="../../tables/syst_settings.html" xlink:title="syst_settings" target="_top">
<polygon fill="#ffffff" stroke="transparent" points="8,-37 8,-697 327,-697 327,-37 8,-37"/>
<polygon fill="#f5f5f5" stroke="transparent" points="10.5,-673 10.5,-695 325.5,-695 325.5,-673 10.5,-673"/>
<polygon fill="none" stroke="black" points="10.5,-673 10.5,-695 325.5,-695 325.5,-673 10.5,-673"/>
<text text-anchor="start" x="15.5" y="-682.2" font-family="Helvetica,sans-Serif" font-weight="bold" font-size="11.00">syst_settings</text>
<text text-anchor="start" x="290.5" y="-681.2" font-family="Helvetica,sans-Serif" font-size="11.00">[table]</text>
<polygon fill="none" stroke="black" points="10.5,-651 10.5,-673 204.5,-673 204.5,-651 10.5,-651"/>
<image xlink:href="../../images/primaryKeys.png" width="11px" height="12px" preserveAspectRatio="xMinYMin meet" x="15.5" y="-668"/>
<text text-anchor="start" x="30.5" y="-659.2" font-family="Helvetica,sans-Serif" font-size="11.00">id</text>
<polygon fill="none" stroke="black" points="204.5,-651 204.5,-673 325.5,-673 325.5,-651 204.5,-651"/>
<text text-anchor="start" x="207.5" y="-659.2" font-family="Helvetica,sans-Serif" font-size="11.00">uuid[2147483647]</text>
<polygon fill="#ffffff" stroke="transparent" points="10.5,-629 10.5,-651 204.5,-651 204.5,-629 10.5,-629"/>
<polygon fill="none" stroke="black" points="10.5,-629 10.5,-651 204.5,-651 204.5,-629 10.5,-629"/>
<text text-anchor="start" x="30.5" y="-637.2" font-family="Helvetica,sans-Serif" font-size="11.00">internal_name</text>
<polygon fill="none" stroke="black" points="204.5,-629 204.5,-651 325.5,-651 325.5,-629 204.5,-629"/>
<text text-anchor="start" x="207.5" y="-637.2" font-family="Helvetica,sans-Serif" font-size="11.00">text[2147483647]</text>
<polygon fill="#ffffff" stroke="transparent" points="10.5,-607 10.5,-629 204.5,-629 204.5,-607 10.5,-607"/>
<polygon fill="none" stroke="black" points="10.5,-607 10.5,-629 204.5,-629 204.5,-607 10.5,-607"/>
<text text-anchor="start" x="30.5" y="-615.2" font-family="Helvetica,sans-Serif" font-size="11.00">display_name</text>
<polygon fill="none" stroke="black" points="204.5,-607 204.5,-629 325.5,-629 325.5,-607 204.5,-607"/>
<text text-anchor="start" x="207.5" y="-615.2" font-family="Helvetica,sans-Serif" font-size="11.00">text[2147483647]</text>
<polygon fill="none" stroke="black" points="10.5,-585 10.5,-607 204.5,-607 204.5,-585 10.5,-585"/>
<text text-anchor="start" x="30.5" y="-593.2" font-family="Helvetica,sans-Serif" font-size="11.00">syst_defined</text>
<polygon fill="none" stroke="black" points="204.5,-585 204.5,-607 325.5,-607 325.5,-585 204.5,-585"/>
<text text-anchor="start" x="207.5" y="-593.2" font-family="Helvetica,sans-Serif" font-size="11.00">bool[1]</text>
<polygon fill="none" stroke="black" points="10.5,-563 10.5,-585 204.5,-585 204.5,-563 10.5,-563"/>
<text text-anchor="start" x="30.5" y="-571.2" font-family="Helvetica,sans-Serif" font-size="11.00">syst_description</text>
<polygon fill="none" stroke="black" points="204.5,-563 204.5,-585 325.5,-585 325.5,-563 204.5,-563"/>
<text text-anchor="start" x="207.5" y="-571.2" font-family="Helvetica,sans-Serif" font-size="11.00">text[2147483647]</text>
<polygon fill="none" stroke="black" points="10.5,-541 10.5,-563 204.5,-563 204.5,-541 10.5,-541"/>
<text text-anchor="start" x="30.5" y="-549.2" font-family="Helvetica,sans-Serif" font-size="11.00">user_description</text>
<polygon fill="none" stroke="black" points="204.5,-541 204.5,-563 325.5,-563 325.5,-541 204.5,-541"/>
<text text-anchor="start" x="207.5" y="-549.2" font-family="Helvetica,sans-Serif" font-size="11.00">text[2147483647]</text>
<polygon fill="none" stroke="black" points="10.5,-519 10.5,-541 204.5,-541 204.5,-519 10.5,-519"/>
<text text-anchor="start" x="30.5" y="-527.2" font-family="Helvetica,sans-Serif" font-size="11.00">setting_flag</text>
<polygon fill="none" stroke="black" points="204.5,-519 204.5,-541 325.5,-541 325.5,-519 204.5,-519"/>
<text text-anchor="start" x="207.5" y="-527.2" font-family="Helvetica,sans-Serif" font-size="11.00">bool[1]</text>
<polygon fill="none" stroke="black" points="10.5,-497 10.5,-519 204.5,-519 204.5,-497 10.5,-497"/>
<text text-anchor="start" x="30.5" y="-505.2" font-family="Helvetica,sans-Serif" font-size="11.00">setting_integer</text>
<polygon fill="none" stroke="black" points="204.5,-497 204.5,-519 325.5,-519 325.5,-497 204.5,-497"/>
<text text-anchor="start" x="207.5" y="-505.2" font-family="Helvetica,sans-Serif" font-size="11.00">int8[19]</text>
<polygon fill="none" stroke="black" points="10.5,-475 10.5,-497 204.5,-497 204.5,-475 10.5,-475"/>
<text text-anchor="start" x="30.5" y="-483.2" font-family="Helvetica,sans-Serif" font-size="11.00">setting_integer_range</text>
<polygon fill="none" stroke="black" points="204.5,-475 204.5,-497 325.5,-497 325.5,-475 204.5,-475"/>
<text text-anchor="start" x="207.5" y="-483.2" font-family="Helvetica,sans-Serif" font-size="11.00">int8range[2147483647]</text>
<polygon fill="none" stroke="black" points="10.5,-453 10.5,-475 204.5,-475 204.5,-453 10.5,-453"/>
<text text-anchor="start" x="30.5" y="-461.2" font-family="Helvetica,sans-Serif" font-size="11.00">setting_decimal</text>
<polygon fill="none" stroke="black" points="204.5,-453 204.5,-475 325.5,-475 325.5,-453 204.5,-453"/>
<text text-anchor="start" x="207.5" y="-461.2" font-family="Helvetica,sans-Serif" font-size="11.00">numeric[0]</text>
<polygon fill="none" stroke="black" points="10.5,-431 10.5,-453 204.5,-453 204.5,-431 10.5,-431"/>
<text text-anchor="start" x="30.5" y="-439.2" font-family="Helvetica,sans-Serif" font-size="11.00">setting_decimal_range</text>
<polygon fill="none" stroke="black" points="204.5,-431 204.5,-453 325.5,-453 325.5,-431 204.5,-431"/>
<text text-anchor="start" x="207.5" y="-439.2" font-family="Helvetica,sans-Serif" font-size="11.00">numrange[2147483647]</text>
<polygon fill="none" stroke="black" points="10.5,-409 10.5,-431 204.5,-431 204.5,-409 10.5,-409"/>
<text text-anchor="start" x="30.5" y="-417.2" font-family="Helvetica,sans-Serif" font-size="11.00">setting_interval</text>
<polygon fill="none" stroke="black" points="204.5,-409 204.5,-431 325.5,-431 325.5,-409 204.5,-409"/>
<text text-anchor="start" x="207.5" y="-417.2" font-family="Helvetica,sans-Serif" font-size="11.00">interval[49,6]</text>
<polygon fill="none" stroke="black" points="10.5,-387 10.5,-409 204.5,-409 204.5,-387 10.5,-387"/>
<text text-anchor="start" x="30.5" y="-395.2" font-family="Helvetica,sans-Serif" font-size="11.00">setting_date</text>
<polygon fill="none" stroke="black" points="204.5,-387 204.5,-409 325.5,-409 325.5,-387 204.5,-387"/>
<text text-anchor="start" x="207.5" y="-395.2" font-family="Helvetica,sans-Serif" font-size="11.00">date[13]</text>
<polygon fill="none" stroke="black" points="10.5,-365 10.5,-387 204.5,-387 204.5,-365 10.5,-365"/>
<text text-anchor="start" x="30.5" y="-373.2" font-family="Helvetica,sans-Serif" font-size="11.00">setting_date_range</text>
<polygon fill="none" stroke="black" points="204.5,-365 204.5,-387 325.5,-387 325.5,-365 204.5,-365"/>
<text text-anchor="start" x="207.5" y="-373.2" font-family="Helvetica,sans-Serif" font-size="11.00">daterange[2147483647]</text>
<polygon fill="none" stroke="black" points="10.5,-343 10.5,-365 204.5,-365 204.5,-343 10.5,-343"/>
<text text-anchor="start" x="30.5" y="-351.2" font-family="Helvetica,sans-Serif" font-size="11.00">setting_time</text>
<polygon fill="none" stroke="black" points="204.5,-343 204.5,-365 325.5,-365 325.5,-343 204.5,-343"/>
<text text-anchor="start" x="207.5" y="-351.2" font-family="Helvetica,sans-Serif" font-size="11.00">time[15,6]</text>
<polygon fill="none" stroke="black" points="10.5,-321 10.5,-343 204.5,-343 204.5,-321 10.5,-321"/>
<text text-anchor="start" x="30.5" y="-329.2" font-family="Helvetica,sans-Serif" font-size="11.00">setting_timestamp</text>
<polygon fill="none" stroke="black" points="204.5,-321 204.5,-343 325.5,-343 325.5,-321 204.5,-321"/>
<text text-anchor="start" x="207.5" y="-329.2" font-family="Helvetica,sans-Serif" font-size="11.00">timestamptz[35,6]</text>
<polygon fill="none" stroke="black" points="10.5,-299 10.5,-321 204.5,-321 204.5,-299 10.5,-299"/>
<text text-anchor="start" x="30.5" y="-307.2" font-family="Helvetica,sans-Serif" font-size="11.00">setting_timestamp_range</text>
<polygon fill="none" stroke="black" points="204.5,-299 204.5,-321 325.5,-321 325.5,-299 204.5,-299"/>
<text text-anchor="start" x="207.5" y="-307.2" font-family="Helvetica,sans-Serif" font-size="11.00">tstzrange[2147483647]</text>
<polygon fill="none" stroke="black" points="10.5,-277 10.5,-299 204.5,-299 204.5,-277 10.5,-277"/>
<text text-anchor="start" x="30.5" y="-285.2" font-family="Helvetica,sans-Serif" font-size="11.00">setting_json</text>
<polygon fill="none" stroke="black" points="204.5,-277 204.5,-299 325.5,-299 325.5,-277 204.5,-277"/>
<text text-anchor="start" x="207.5" y="-285.2" font-family="Helvetica,sans-Serif" font-size="11.00">jsonb[2147483647]</text>
<polygon fill="none" stroke="black" points="10.5,-255 10.5,-277 204.5,-277 204.5,-255 10.5,-255"/>
<text text-anchor="start" x="30.5" y="-263.2" font-family="Helvetica,sans-Serif" font-size="11.00">setting_text</text>
<polygon fill="none" stroke="black" points="204.5,-255 204.5,-277 325.5,-277 325.5,-255 204.5,-255"/>
<text text-anchor="start" x="207.5" y="-263.2" font-family="Helvetica,sans-Serif" font-size="11.00">text[2147483647]</text>
<polygon fill="none" stroke="black" points="10.5,-233 10.5,-255 204.5,-255 204.5,-233 10.5,-233"/>
<text text-anchor="start" x="30.5" y="-241.2" font-family="Helvetica,sans-Serif" font-size="11.00">setting_uuid</text>
<polygon fill="none" stroke="black" points="204.5,-233 204.5,-255 325.5,-255 325.5,-233 204.5,-233"/>
<text text-anchor="start" x="207.5" y="-241.2" font-family="Helvetica,sans-Serif" font-size="11.00">uuid[2147483647]</text>
<polygon fill="none" stroke="black" points="10.5,-211 10.5,-233 204.5,-233 204.5,-211 10.5,-211"/>
<text text-anchor="start" x="30.5" y="-219.2" font-family="Helvetica,sans-Serif" font-size="11.00">setting_blob</text>
<polygon fill="none" stroke="black" points="204.5,-211 204.5,-233 325.5,-233 325.5,-211 204.5,-211"/>
<text text-anchor="start" x="207.5" y="-219.2" font-family="Helvetica,sans-Serif" font-size="11.00">bytea[2147483647]</text>
<polygon fill="none" stroke="black" points="10.5,-189 10.5,-211 204.5,-211 204.5,-189 10.5,-189"/>
<text text-anchor="start" x="30.5" y="-197.2" font-family="Helvetica,sans-Serif" font-size="11.00">diag_timestamp_created</text>
<polygon fill="none" stroke="black" points="204.5,-189 204.5,-211 325.5,-211 325.5,-189 204.5,-189"/>
<text text-anchor="start" x="207.5" y="-197.2" font-family="Helvetica,sans-Serif" font-size="11.00">timestamptz[35,6]</text>
<polygon fill="none" stroke="black" points="10.5,-167 10.5,-189 204.5,-189 204.5,-167 10.5,-167"/>
<text text-anchor="start" x="30.5" y="-175.2" font-family="Helvetica,sans-Serif" font-size="11.00">diag_role_created</text>
<polygon fill="none" stroke="black" points="204.5,-167 204.5,-189 325.5,-189 325.5,-167 204.5,-167"/>
<text text-anchor="start" x="207.5" y="-175.2" font-family="Helvetica,sans-Serif" font-size="11.00">text[2147483647]</text>
<polygon fill="none" stroke="black" points="10.5,-145 10.5,-167 204.5,-167 204.5,-145 10.5,-145"/>
<text text-anchor="start" x="30.5" y="-153.2" font-family="Helvetica,sans-Serif" font-size="11.00">diag_timestamp_modified</text>
<polygon fill="none" stroke="black" points="204.5,-145 204.5,-167 325.5,-167 325.5,-145 204.5,-145"/>
<text text-anchor="start" x="207.5" y="-153.2" font-family="Helvetica,sans-Serif" font-size="11.00">timestamptz[35,6]</text>
<polygon fill="none" stroke="black" points="10.5,-123 10.5,-145 204.5,-145 204.5,-123 10.5,-123"/>
<text text-anchor="start" x="30.5" y="-131.2" font-family="Helvetica,sans-Serif" font-size="11.00">diag_wallclock_modified</text>
<polygon fill="none" stroke="black" points="204.5,-123 204.5,-145 325.5,-145 325.5,-123 204.5,-123"/>
<text text-anchor="start" x="207.5" y="-131.2" font-family="Helvetica,sans-Serif" font-size="11.00">timestamptz[35,6]</text>
<polygon fill="none" stroke="black" points="10.5,-101 10.5,-123 204.5,-123 204.5,-101 10.5,-101"/>
<text text-anchor="start" x="30.5" y="-109.2" font-family="Helvetica,sans-Serif" font-size="11.00">diag_role_modified</text>
<polygon fill="none" stroke="black" points="204.5,-101 204.5,-123 325.5,-123 325.5,-101 204.5,-101"/>
<text text-anchor="start" x="207.5" y="-109.2" font-family="Helvetica,sans-Serif" font-size="11.00">text[2147483647]</text>
<polygon fill="none" stroke="black" points="10.5,-79 10.5,-101 204.5,-101 204.5,-79 10.5,-79"/>
<text text-anchor="start" x="30.5" y="-87.2" font-family="Helvetica,sans-Serif" font-size="11.00">diag_row_version</text>
<polygon fill="none" stroke="black" points="204.5,-79 204.5,-101 325.5,-101 325.5,-79 204.5,-79"/>
<text text-anchor="start" x="207.5" y="-87.2" font-family="Helvetica,sans-Serif" font-size="11.00">int8[19]</text>
<polygon fill="none" stroke="black" points="10.5,-57 10.5,-79 204.5,-79 204.5,-57 10.5,-57"/>
<text text-anchor="start" x="30.5" y="-65.2" font-family="Helvetica,sans-Serif" font-size="11.00">diag_update_count</text>
<polygon fill="none" stroke="black" points="204.5,-57 204.5,-79 325.5,-79 325.5,-57 204.5,-57"/>
<text text-anchor="start" x="207.5" y="-65.2" font-family="Helvetica,sans-Serif" font-size="11.00">int8[19]</text>
<polygon fill="#ffffff" stroke="transparent" points="10.5,-39 10.5,-57 111.5,-57 111.5,-39 10.5,-39"/>
<polygon fill="none" stroke="black" points="10.5,-39 10.5,-57 111.5,-57 111.5,-39 10.5,-39"/>
<text text-anchor="start" x="13.5" y="-45.2" font-family="Helvetica,sans-Serif" font-size="11.00">&lt; 0</text>
<polygon fill="#ffffff" stroke="transparent" points="111.5,-39 111.5,-57 204.5,-57 204.5,-39 111.5,-39"/>
<polygon fill="none" stroke="black" points="111.5,-39 111.5,-57 204.5,-57 204.5,-39 111.5,-39"/>
<text text-anchor="start" x="194.5" y="-45.2" font-family="Helvetica,sans-Serif" font-size="11.00"> &#160;</text>
<polygon fill="#ffffff" stroke="transparent" points="204.5,-39 204.5,-57 325.5,-57 325.5,-39 204.5,-39"/>
<polygon fill="none" stroke="black" points="204.5,-39 204.5,-57 325.5,-57 325.5,-39 204.5,-39"/>
<text text-anchor="start" x="306.5" y="-45.2" font-family="Helvetica,sans-Serif" font-size="11.00">0 &gt;</text>
<polygon fill="none" stroke="black" stroke-width="2" points="9,-38 9,-696 326,-696 326,-38 9,-38"/>
</a>
</g>
</g>
</g>
</svg>
