<?xml version="1.0" encoding="UTF-8" standalone="no"?>
<!DOCTYPE svg PUBLIC "-//W3C//DTD SVG 1.1//EN"
 "http://www.w3.org/Graphics/SVG/1.1/DTD/svg11.dtd">
<!-- Generated by graphviz version 2.43.0 (0)
 -->
<!-- Title: oneDegreeRelationshipsDiagram Pages: 1 -->
<svg width="319pt" height="383pt"
 viewBox="0.00 0.00 319.00 383.00" xmlns="http://www.w3.org/2000/svg" xmlns:xlink="http://www.w3.org/1999/xlink">
<g id="graph0" class="graph" transform="scale(1 1) rotate(0) translate(4 379)">
<title>oneDegreeRelationshipsDiagram</title>
<polygon fill="#ffffff" stroke="transparent" points="-4,4 -4,-379 315,-379 315,4 -4,4"/>
<text text-anchor="middle" x="71.5" y="-7.2" font-family="Helvetica,sans-Serif" font-size="11.00">Generated by SchemaSpy</text>
<!-- syst_global_network_rules -->
<g id="node1" class="node">
<title>syst_global_network_rules</title>
<g id="a_node1"><a xlink:href="../../tables/syst_global_network_rules.html" xlink:title="syst_global_network_rules" target="_top">
<polygon fill="#ffffff" stroke="transparent" points="8,-37 8,-371 303,-371 303,-37 8,-37"/>
<polygon fill="#f5f5f5" stroke="transparent" points="10.5,-347 10.5,-369 301.5,-369 301.5,-347 10.5,-347"/>
<polygon fill="none" stroke="black" points="10.5,-347 10.5,-369 301.5,-369 301.5,-347 10.5,-347"/>
<text text-anchor="start" x="15.5" y="-356.2" font-family="Helvetica,sans-Serif" font-weight="bold" font-size="11.00">syst_global_network_rules</text>
<text text-anchor="start" x="268.5" y="-355.2" font-family="Helvetica,sans-Serif" font-size="11.00">[view]</text>
<polygon fill="none" stroke="black" points="10.5,-325 10.5,-347 208.5,-347 208.5,-325 10.5,-325"/>
<text text-anchor="start" x="30.5" y="-333.2" font-family="Helvetica,sans-Serif" font-size="11.00">id</text>
<polygon fill="none" stroke="black" points="208.5,-325 208.5,-347 301.5,-347 301.5,-325 208.5,-325"/>
<text text-anchor="start" x="211.5" y="-333.2" font-family="Helvetica,sans-Serif" font-size="11.00">uuid[2147483647]</text>
<polygon fill="none" stroke="black" points="10.5,-303 10.5,-325 208.5,-325 208.5,-303 10.5,-303"/>
<text text-anchor="start" x="30.5" y="-311.2" font-family="Helvetica,sans-Serif" font-size="11.00">ordering</text>
<polygon fill="none" stroke="black" points="208.5,-303 208.5,-325 301.5,-325 301.5,-303 208.5,-303"/>
<text text-anchor="start" x="211.5" y="-311.2" font-family="Helvetica,sans-Serif" font-size="11.00">int4[10]</text>
<polygon fill="none" stroke="black" points="10.5,-281 10.5,-303 208.5,-303 208.5,-281 10.5,-281"/>
<text text-anchor="start" x="30.5" y="-289.2" font-family="Helvetica,sans-Serif" font-size="11.00">functional_type</text>
<polygon fill="none" stroke="black" points="208.5,-281 208.5,-303 301.5,-303 301.5,-281 208.5,-281"/>
<text text-anchor="start" x="211.5" y="-289.2" font-family="Helvetica,sans-Serif" font-size="11.00">text[2147483647]</text>
<polygon fill="none" stroke="black" points="10.5,-259 10.5,-281 208.5,-281 208.5,-259 10.5,-259"/>
<text text-anchor="start" x="30.5" y="-267.2" font-family="Helvetica,sans-Serif" font-size="11.00">ip_host_or_network</text>
<polygon fill="none" stroke="black" points="208.5,-259 208.5,-281 301.5,-281 301.5,-259 208.5,-259"/>
<text text-anchor="start" x="211.5" y="-267.2" font-family="Helvetica,sans-Serif" font-size="11.00">inet[2147483647]</text>
<polygon fill="none" stroke="black" points="10.5,-237 10.5,-259 208.5,-259 208.5,-237 10.5,-237"/>
<text text-anchor="start" x="30.5" y="-245.2" font-family="Helvetica,sans-Serif" font-size="11.00">ip_host_range_lower</text>
<polygon fill="none" stroke="black" points="208.5,-237 208.5,-259 301.5,-259 301.5,-237 208.5,-237"/>
<text text-anchor="start" x="211.5" y="-245.2" font-family="Helvetica,sans-Serif" font-size="11.00">inet[2147483647]</text>
<polygon fill="none" stroke="black" points="10.5,-215 10.5,-237 208.5,-237 208.5,-215 10.5,-215"/>
<text text-anchor="start" x="30.5" y="-223.2" font-family="Helvetica,sans-Serif" font-size="11.00">ip_host_range_upper</text>
<polygon fill="none" stroke="black" points="208.5,-215 208.5,-237 301.5,-237 301.5,-215 208.5,-215"/>
<text text-anchor="start" x="211.5" y="-223.2" font-family="Helvetica,sans-Serif" font-size="11.00">inet[2147483647]</text>
<polygon fill="none" stroke="black" points="10.5,-193 10.5,-215 208.5,-215 208.5,-193 10.5,-193"/>
<text text-anchor="start" x="30.5" y="-201.2" font-family="Helvetica,sans-Serif" font-size="11.00">ip_family</text>
<polygon fill="none" stroke="black" points="208.5,-193 208.5,-215 301.5,-215 301.5,-193 208.5,-193"/>
<text text-anchor="start" x="211.5" y="-201.2" font-family="Helvetica,sans-Serif" font-size="11.00">int4[10]</text>
<polygon fill="none" stroke="black" points="10.5,-171 10.5,-193 208.5,-193 208.5,-171 10.5,-171"/>
<text text-anchor="start" x="30.5" y="-179.2" font-family="Helvetica,sans-Serif" font-size="11.00">diag_timestamp_created</text>
<polygon fill="none" stroke="black" points="208.5,-171 208.5,-193 301.5,-193 301.5,-171 208.5,-171"/>
<text text-anchor="start" x="211.5" y="-179.2" font-family="Helvetica,sans-Serif" font-size="11.00">timestamptz[35,6]</text>
<polygon fill="none" stroke="black" points="10.5,-149 10.5,-171 208.5,-171 208.5,-149 10.5,-149"/>
<text text-anchor="start" x="30.5" y="-157.2" font-family="Helvetica,sans-Serif" font-size="11.00">diag_role_created</text>
<polygon fill="none" stroke="black" points="208.5,-149 208.5,-171 301.5,-171 301.5,-149 208.5,-149"/>
<text text-anchor="start" x="211.5" y="-157.2" font-family="Helvetica,sans-Serif" font-size="11.00">text[2147483647]</text>
<polygon fill="none" stroke="black" points="10.5,-127 10.5,-149 208.5,-149 208.5,-127 10.5,-127"/>
<text text-anchor="start" x="30.5" y="-135.2" font-family="Helvetica,sans-Serif" font-size="11.00">diag_timestamp_modified</text>
<polygon fill="none" stroke="black" points="208.5,-127 208.5,-149 301.5,-149 301.5,-127 208.5,-127"/>
<text text-anchor="start" x="211.5" y="-135.2" font-family="Helvetica,sans-Serif" font-size="11.00">timestamptz[35,6]</text>
<polygon fill="none" stroke="black" points="10.5,-105 10.5,-127 208.5,-127 208.5,-105 10.5,-105"/>
<text text-anchor="start" x="30.5" y="-113.2" font-family="Helvetica,sans-Serif" font-size="11.00">diag_wallclock_modified</text>
<polygon fill="none" stroke="black" points="208.5,-105 208.5,-127 301.5,-127 301.5,-105 208.5,-105"/>
<text text-anchor="start" x="211.5" y="-113.2" font-family="Helvetica,sans-Serif" font-size="11.00">timestamptz[35,6]</text>
<polygon fill="none" stroke="black" points="10.5,-83 10.5,-105 208.5,-105 208.5,-83 10.5,-83"/>
<text text-anchor="start" x="30.5" y="-91.2" font-family="Helvetica,sans-Serif" font-size="11.00">diag_role_modified</text>
<polygon fill="none" stroke="black" points="208.5,-83 208.5,-105 301.5,-105 301.5,-83 208.5,-83"/>
<text text-anchor="start" x="211.5" y="-91.2" font-family="Helvetica,sans-Serif" font-size="11.00">text[2147483647]</text>
<polygon fill="none" stroke="black" points="10.5,-61 10.5,-83 208.5,-83 208.5,-61 10.5,-61"/>
<text text-anchor="start" x="30.5" y="-69.2" font-family="Helvetica,sans-Serif" font-size="11.00">diag_row_version</text>
<polygon fill="none" stroke="black" points="208.5,-61 208.5,-83 301.5,-83 301.5,-61 208.5,-61"/>
<text text-anchor="start" x="211.5" y="-69.2" font-family="Helvetica,sans-Serif" font-size="11.00">int8[19]</text>
<polygon fill="none" stroke="black" points="10.5,-39 10.5,-61 208.5,-61 208.5,-39 10.5,-39"/>
<text text-anchor="start" x="30.5" y="-47.2" font-family="Helvetica,sans-Serif" font-size="11.00">diag_update_count</text>
<polygon fill="none" stroke="black" points="208.5,-39 208.5,-61 301.5,-61 301.5,-39 208.5,-39"/>
<text text-anchor="start" x="211.5" y="-47.2" font-family="Helvetica,sans-Serif" font-size="11.00">int8[19]</text>
<polygon fill="none" stroke="black" stroke-width="2" points="9,-38 9,-370 302,-370 302,-38 9,-38"/>
</a>
</g>
</g>
</g>
</svg>
