<?xml version="1.0" encoding="UTF-8" standalone="no"?>
<!DOCTYPE svg PUBLIC "-//W3C//DTD SVG 1.1//EN"
 "http://www.w3.org/Graphics/SVG/1.1/DTD/svg11.dtd">
<!-- Generated by graphviz version 2.43.0 (0)
 -->
<!-- Title: oneDegreeRelationshipsDiagram Pages: 1 -->
<svg width="410pt" height="295pt"
 viewBox="0.00 0.00 410.00 295.00" xmlns="http://www.w3.org/2000/svg" xmlns:xlink="http://www.w3.org/1999/xlink">
<g id="graph0" class="graph" transform="scale(1 1) rotate(0) translate(4 291)">
<title>oneDegreeRelationshipsDiagram</title>
<polygon fill="#ffffff" stroke="transparent" points="-4,4 -4,-291 406,-291 406,4 -4,4"/>
<text text-anchor="middle" x="71.5" y="-7.2" font-family="Helvetica,sans-Serif" font-size="11.00">Generated by SchemaSpy</text>
<!-- syst_access_account_perm_role_assigns -->
<g id="node1" class="node">
<title>syst_access_account_perm_role_assigns</title>
<g id="a_node1"><a xlink:href="../../tables/syst_access_account_perm_role_assigns.html" xlink:title="syst_access_account_perm_role_assigns" target="_top">
<polygon fill="#ffffff" stroke="transparent" points="8,-37 8,-283 394,-283 394,-37 8,-37"/>
<polygon fill="#f5f5f5" stroke="transparent" points="10,-259 10,-281 392,-281 392,-259 10,-259"/>
<polygon fill="none" stroke="black" points="10,-259 10,-281 392,-281 392,-259 10,-259"/>
<text text-anchor="start" x="15" y="-268.2" font-family="Helvetica,sans-Serif" font-weight="bold" font-size="11.00">syst_access_account_perm_role_assigns</text>
<text text-anchor="start" x="359" y="-267.2" font-family="Helvetica,sans-Serif" font-size="11.00">[view]</text>
<polygon fill="none" stroke="black" points="10,-237 10,-259 299,-259 299,-237 10,-237"/>
<text text-anchor="start" x="30" y="-245.2" font-family="Helvetica,sans-Serif" font-size="11.00">id</text>
<polygon fill="none" stroke="black" points="299,-237 299,-259 392,-259 392,-237 299,-237"/>
<text text-anchor="start" x="302" y="-245.2" font-family="Helvetica,sans-Serif" font-size="11.00">uuid[2147483647]</text>
<polygon fill="none" stroke="black" points="10,-215 10,-237 299,-237 299,-215 10,-215"/>
<text text-anchor="start" x="30" y="-223.2" font-family="Helvetica,sans-Serif" font-size="11.00">access_account_id</text>
<polygon fill="none" stroke="black" points="299,-215 299,-237 392,-237 392,-215 299,-215"/>
<text text-anchor="start" x="302" y="-223.2" font-family="Helvetica,sans-Serif" font-size="11.00">uuid[2147483647]</text>
<polygon fill="none" stroke="black" points="10,-193 10,-215 299,-215 299,-193 10,-193"/>
<text text-anchor="start" x="30" y="-201.2" font-family="Helvetica,sans-Serif" font-size="11.00">perm_role_id</text>
<polygon fill="none" stroke="black" points="299,-193 299,-215 392,-215 392,-193 299,-193"/>
<text text-anchor="start" x="302" y="-201.2" font-family="Helvetica,sans-Serif" font-size="11.00">uuid[2147483647]</text>
<polygon fill="none" stroke="black" points="10,-171 10,-193 299,-193 299,-171 10,-171"/>
<text text-anchor="start" x="30" y="-179.2" font-family="Helvetica,sans-Serif" font-size="11.00">diag_timestamp_created</text>
<polygon fill="none" stroke="black" points="299,-171 299,-193 392,-193 392,-171 299,-171"/>
<text text-anchor="start" x="302" y="-179.2" font-family="Helvetica,sans-Serif" font-size="11.00">timestamptz[35,6]</text>
<polygon fill="none" stroke="black" points="10,-149 10,-171 299,-171 299,-149 10,-149"/>
<text text-anchor="start" x="30" y="-157.2" font-family="Helvetica,sans-Serif" font-size="11.00">diag_role_created</text>
<polygon fill="none" stroke="black" points="299,-149 299,-171 392,-171 392,-149 299,-149"/>
<text text-anchor="start" x="302" y="-157.2" font-family="Helvetica,sans-Serif" font-size="11.00">text[2147483647]</text>
<polygon fill="none" stroke="black" points="10,-127 10,-149 299,-149 299,-127 10,-127"/>
<text text-anchor="start" x="30" y="-135.2" font-family="Helvetica,sans-Serif" font-size="11.00">diag_timestamp_modified</text>
<polygon fill="none" stroke="black" points="299,-127 299,-149 392,-149 392,-127 299,-127"/>
<text text-anchor="start" x="302" y="-135.2" font-family="Helvetica,sans-Serif" font-size="11.00">timestamptz[35,6]</text>
<polygon fill="none" stroke="black" points="10,-105 10,-127 299,-127 299,-105 10,-105"/>
<text text-anchor="start" x="30" y="-113.2" font-family="Helvetica,sans-Serif" font-size="11.00">diag_wallclock_modified</text>
<polygon fill="none" stroke="black" points="299,-105 299,-127 392,-127 392,-105 299,-105"/>
<text text-anchor="start" x="302" y="-113.2" font-family="Helvetica,sans-Serif" font-size="11.00">timestamptz[35,6]</text>
<polygon fill="none" stroke="black" points="10,-83 10,-105 299,-105 299,-83 10,-83"/>
<text text-anchor="start" x="30" y="-91.2" font-family="Helvetica,sans-Serif" font-size="11.00">diag_role_modified</text>
<polygon fill="none" stroke="black" points="299,-83 299,-105 392,-105 392,-83 299,-83"/>
<text text-anchor="start" x="302" y="-91.2" font-family="Helvetica,sans-Serif" font-size="11.00">text[2147483647]</text>
<polygon fill="none" stroke="black" points="10,-61 10,-83 299,-83 299,-61 10,-61"/>
<text text-anchor="start" x="30" y="-69.2" font-family="Helvetica,sans-Serif" font-size="11.00">diag_row_version</text>
<polygon fill="none" stroke="black" points="299,-61 299,-83 392,-83 392,-61 299,-61"/>
<text text-anchor="start" x="302" y="-69.2" font-family="Helvetica,sans-Serif" font-size="11.00">int8[19]</text>
<polygon fill="none" stroke="black" points="10,-39 10,-61 299,-61 299,-39 10,-39"/>
<text text-anchor="start" x="30" y="-47.2" font-family="Helvetica,sans-Serif" font-size="11.00">diag_update_count</text>
<polygon fill="none" stroke="black" points="299,-39 299,-61 392,-61 392,-39 299,-39"/>
<text text-anchor="start" x="302" y="-47.2" font-family="Helvetica,sans-Serif" font-size="11.00">int8[19]</text>
<polygon fill="none" stroke="black" stroke-width="2" points="9,-38 9,-282 393,-282 393,-38 9,-38"/>
</a>
</g>
</g>
</g>
</svg>
