<?xml version="1.0" encoding="UTF-8" standalone="no"?>
<!DOCTYPE svg PUBLIC "-//W3C//DTD SVG 1.1//EN"
 "http://www.w3.org/Graphics/SVG/1.1/DTD/svg11.dtd">
<!-- Generated by graphviz version 2.43.0 (0)
 -->
<!-- Title: oneDegreeRelationshipsDiagram Pages: 1 -->
<svg width="334pt" height="405pt"
 viewBox="0.00 0.00 334.00 405.00" xmlns="http://www.w3.org/2000/svg" xmlns:xlink="http://www.w3.org/1999/xlink">
<g id="graph0" class="graph" transform="scale(1 1) rotate(0) translate(4 401)">
<title>oneDegreeRelationshipsDiagram</title>
<polygon fill="#ffffff" stroke="transparent" points="-4,4 -4,-401 330,-401 330,4 -4,4"/>
<text text-anchor="middle" x="71.5" y="-7.2" font-family="Helvetica,sans-Serif" font-size="11.00">Generated by SchemaSpy</text>
<!-- syst_instance_network_rules -->
<g id="node1" class="node">
<title>syst_instance_network_rules</title>
<g id="a_node1"><a xlink:href="../../tables/syst_instance_network_rules.html" xlink:title="syst_instance_network_rules" target="_top">
<polygon fill="#ffffff" stroke="transparent" points="8,-37 8,-393 318,-393 318,-37 8,-37"/>
<polygon fill="#f5f5f5" stroke="transparent" points="10,-369 10,-391 316,-391 316,-369 10,-369"/>
<polygon fill="none" stroke="black" points="10,-369 10,-391 316,-391 316,-369 10,-369"/>
<text text-anchor="start" x="15" y="-378.2" font-family="Helvetica,sans-Serif" font-weight="bold" font-size="11.00">syst_instance_network_rules</text>
<text text-anchor="start" x="283" y="-377.2" font-family="Helvetica,sans-Serif" font-size="11.00">[view]</text>
<polygon fill="none" stroke="black" points="10,-347 10,-369 223,-369 223,-347 10,-347"/>
<text text-anchor="start" x="30" y="-355.2" font-family="Helvetica,sans-Serif" font-size="11.00">id</text>
<polygon fill="none" stroke="black" points="223,-347 223,-369 316,-369 316,-347 223,-347"/>
<text text-anchor="start" x="226" y="-355.2" font-family="Helvetica,sans-Serif" font-size="11.00">uuid[2147483647]</text>
<polygon fill="none" stroke="black" points="10,-325 10,-347 223,-347 223,-325 10,-325"/>
<text text-anchor="start" x="30" y="-333.2" font-family="Helvetica,sans-Serif" font-size="11.00">instance_id</text>
<polygon fill="none" stroke="black" points="223,-325 223,-347 316,-347 316,-325 223,-325"/>
<text text-anchor="start" x="226" y="-333.2" font-family="Helvetica,sans-Serif" font-size="11.00">uuid[2147483647]</text>
<polygon fill="none" stroke="black" points="10,-303 10,-325 223,-325 223,-303 10,-303"/>
<text text-anchor="start" x="30" y="-311.2" font-family="Helvetica,sans-Serif" font-size="11.00">ordering</text>
<polygon fill="none" stroke="black" points="223,-303 223,-325 316,-325 316,-303 223,-303"/>
<text text-anchor="start" x="226" y="-311.2" font-family="Helvetica,sans-Serif" font-size="11.00">int4[10]</text>
<polygon fill="none" stroke="black" points="10,-281 10,-303 223,-303 223,-281 10,-281"/>
<text text-anchor="start" x="30" y="-289.2" font-family="Helvetica,sans-Serif" font-size="11.00">functional_type</text>
<polygon fill="none" stroke="black" points="223,-281 223,-303 316,-303 316,-281 223,-281"/>
<text text-anchor="start" x="226" y="-289.2" font-family="Helvetica,sans-Serif" font-size="11.00">text[2147483647]</text>
<polygon fill="none" stroke="black" points="10,-259 10,-281 223,-281 223,-259 10,-259"/>
<text text-anchor="start" x="30" y="-267.2" font-family="Helvetica,sans-Serif" font-size="11.00">ip_host_or_network</text>
<polygon fill="none" stroke="black" points="223,-259 223,-281 316,-281 316,-259 223,-259"/>
<text text-anchor="start" x="226" y="-267.2" font-family="Helvetica,sans-Serif" font-size="11.00">inet[2147483647]</text>
<polygon fill="none" stroke="black" points="10,-237 10,-259 223,-259 223,-237 10,-237"/>
<text text-anchor="start" x="30" y="-245.2" font-family="Helvetica,sans-Serif" font-size="11.00">ip_host_range_lower</text>
<polygon fill="none" stroke="black" points="223,-237 223,-259 316,-259 316,-237 223,-237"/>
<text text-anchor="start" x="226" y="-245.2" font-family="Helvetica,sans-Serif" font-size="11.00">inet[2147483647]</text>
<polygon fill="none" stroke="black" points="10,-215 10,-237 223,-237 223,-215 10,-215"/>
<text text-anchor="start" x="30" y="-223.2" font-family="Helvetica,sans-Serif" font-size="11.00">ip_host_range_upper</text>
<polygon fill="none" stroke="black" points="223,-215 223,-237 316,-237 316,-215 223,-215"/>
<text text-anchor="start" x="226" y="-223.2" font-family="Helvetica,sans-Serif" font-size="11.00">inet[2147483647]</text>
<polygon fill="none" stroke="black" points="10,-193 10,-215 223,-215 223,-193 10,-193"/>
<text text-anchor="start" x="30" y="-201.2" font-family="Helvetica,sans-Serif" font-size="11.00">ip_family</text>
<polygon fill="none" stroke="black" points="223,-193 223,-215 316,-215 316,-193 223,-193"/>
<text text-anchor="start" x="226" y="-201.2" font-family="Helvetica,sans-Serif" font-size="11.00">int4[10]</text>
<polygon fill="none" stroke="black" points="10,-171 10,-193 223,-193 223,-171 10,-171"/>
<text text-anchor="start" x="30" y="-179.2" font-family="Helvetica,sans-Serif" font-size="11.00">diag_timestamp_created</text>
<polygon fill="none" stroke="black" points="223,-171 223,-193 316,-193 316,-171 223,-171"/>
<text text-anchor="start" x="226" y="-179.2" font-family="Helvetica,sans-Serif" font-size="11.00">timestamptz[35,6]</text>
<polygon fill="none" stroke="black" points="10,-149 10,-171 223,-171 223,-149 10,-149"/>
<text text-anchor="start" x="30" y="-157.2" font-family="Helvetica,sans-Serif" font-size="11.00">diag_role_created</text>
<polygon fill="none" stroke="black" points="223,-149 223,-171 316,-171 316,-149 223,-149"/>
<text text-anchor="start" x="226" y="-157.2" font-family="Helvetica,sans-Serif" font-size="11.00">text[2147483647]</text>
<polygon fill="none" stroke="black" points="10,-127 10,-149 223,-149 223,-127 10,-127"/>
<text text-anchor="start" x="30" y="-135.2" font-family="Helvetica,sans-Serif" font-size="11.00">diag_timestamp_modified</text>
<polygon fill="none" stroke="black" points="223,-127 223,-149 316,-149 316,-127 223,-127"/>
<text text-anchor="start" x="226" y="-135.2" font-family="Helvetica,sans-Serif" font-size="11.00">timestamptz[35,6]</text>
<polygon fill="none" stroke="black" points="10,-105 10,-127 223,-127 223,-105 10,-105"/>
<text text-anchor="start" x="30" y="-113.2" font-family="Helvetica,sans-Serif" font-size="11.00">diag_wallclock_modified</text>
<polygon fill="none" stroke="black" points="223,-105 223,-127 316,-127 316,-105 223,-105"/>
<text text-anchor="start" x="226" y="-113.2" font-family="Helvetica,sans-Serif" font-size="11.00">timestamptz[35,6]</text>
<polygon fill="none" stroke="black" points="10,-83 10,-105 223,-105 223,-83 10,-83"/>
<text text-anchor="start" x="30" y="-91.2" font-family="Helvetica,sans-Serif" font-size="11.00">diag_role_modified</text>
<polygon fill="none" stroke="black" points="223,-83 223,-105 316,-105 316,-83 223,-83"/>
<text text-anchor="start" x="226" y="-91.2" font-family="Helvetica,sans-Serif" font-size="11.00">text[2147483647]</text>
<polygon fill="none" stroke="black" points="10,-61 10,-83 223,-83 223,-61 10,-61"/>
<text text-anchor="start" x="30" y="-69.2" font-family="Helvetica,sans-Serif" font-size="11.00">diag_row_version</text>
<polygon fill="none" stroke="black" points="223,-61 223,-83 316,-83 316,-61 223,-61"/>
<text text-anchor="start" x="226" y="-69.2" font-family="Helvetica,sans-Serif" font-size="11.00">int8[19]</text>
<polygon fill="none" stroke="black" points="10,-39 10,-61 223,-61 223,-39 10,-39"/>
<text text-anchor="start" x="30" y="-47.2" font-family="Helvetica,sans-Serif" font-size="11.00">diag_update_count</text>
<polygon fill="none" stroke="black" points="223,-39 223,-61 316,-61 316,-39 223,-39"/>
<text text-anchor="start" x="226" y="-47.2" font-family="Helvetica,sans-Serif" font-size="11.00">int8[19]</text>
<polygon fill="none" stroke="black" stroke-width="2" points="9,-38 9,-392 317,-392 317,-38 9,-38"/>
</a>
</g>
</g>
</g>
</svg>
