<?xml version="1.0" encoding="UTF-8" standalone="no"?>
<!DOCTYPE svg PUBLIC "-//W3C//DTD SVG 1.1//EN"
 "http://www.w3.org/Graphics/SVG/1.1/DTD/svg11.dtd">
<!-- Generated by graphviz version 2.43.0 (0)
 -->
<!-- Title: oneDegreeRelationshipsDiagram Pages: 1 -->
<svg width="358pt" height="295pt"
 viewBox="0.00 0.00 358.00 295.00" xmlns="http://www.w3.org/2000/svg" xmlns:xlink="http://www.w3.org/1999/xlink">
<g id="graph0" class="graph" transform="scale(1 1) rotate(0) translate(4 291)">
<title>oneDegreeRelationshipsDiagram</title>
<polygon fill="#ffffff" stroke="transparent" points="-4,4 -4,-291 354,-291 354,4 -4,4"/>
<text text-anchor="middle" x="71.5" y="-7.2" font-family="Helvetica,sans-Serif" font-size="11.00">Generated by SchemaSpy</text>
<!-- syst_instance_type_applications -->
<g id="node1" class="node">
<title>syst_instance_type_applications</title>
<g id="a_node1"><a xlink:href="../../tables/syst_instance_type_applications.html" xlink:title="syst_instance_type_applications" target="_top">
<polygon fill="#ffffff" stroke="transparent" points="8,-37 8,-283 342,-283 342,-37 8,-37"/>
<polygon fill="#f5f5f5" stroke="transparent" points="10,-259 10,-281 340,-281 340,-259 10,-259"/>
<polygon fill="none" stroke="black" points="10,-259 10,-281 340,-281 340,-259 10,-259"/>
<text text-anchor="start" x="15" y="-268.2" font-family="Helvetica,sans-Serif" font-weight="bold" font-size="11.00">syst_instance_type_applications</text>
<text text-anchor="start" x="307" y="-267.2" font-family="Helvetica,sans-Serif" font-size="11.00">[view]</text>
<polygon fill="none" stroke="black" points="10,-237 10,-259 247,-259 247,-237 10,-237"/>
<text text-anchor="start" x="30" y="-245.2" font-family="Helvetica,sans-Serif" font-size="11.00">id</text>
<polygon fill="none" stroke="black" points="247,-237 247,-259 340,-259 340,-237 247,-237"/>
<text text-anchor="start" x="250" y="-245.2" font-family="Helvetica,sans-Serif" font-size="11.00">uuid[2147483647]</text>
<polygon fill="none" stroke="black" points="10,-215 10,-237 247,-237 247,-215 10,-215"/>
<text text-anchor="start" x="30" y="-223.2" font-family="Helvetica,sans-Serif" font-size="11.00">instance_type_id</text>
<polygon fill="none" stroke="black" points="247,-215 247,-237 340,-237 340,-215 247,-215"/>
<text text-anchor="start" x="250" y="-223.2" font-family="Helvetica,sans-Serif" font-size="11.00">uuid[2147483647]</text>
<polygon fill="none" stroke="black" points="10,-193 10,-215 247,-215 247,-193 10,-193"/>
<text text-anchor="start" x="30" y="-201.2" font-family="Helvetica,sans-Serif" font-size="11.00">application_id</text>
<polygon fill="none" stroke="black" points="247,-193 247,-215 340,-215 340,-193 247,-193"/>
<text text-anchor="start" x="250" y="-201.2" font-family="Helvetica,sans-Serif" font-size="11.00">uuid[2147483647]</text>
<polygon fill="none" stroke="black" points="10,-171 10,-193 247,-193 247,-171 10,-171"/>
<text text-anchor="start" x="30" y="-179.2" font-family="Helvetica,sans-Serif" font-size="11.00">diag_timestamp_created</text>
<polygon fill="none" stroke="black" points="247,-171 247,-193 340,-193 340,-171 247,-171"/>
<text text-anchor="start" x="250" y="-179.2" font-family="Helvetica,sans-Serif" font-size="11.00">timestamptz[35,6]</text>
<polygon fill="none" stroke="black" points="10,-149 10,-171 247,-171 247,-149 10,-149"/>
<text text-anchor="start" x="30" y="-157.2" font-family="Helvetica,sans-Serif" font-size="11.00">diag_role_created</text>
<polygon fill="none" stroke="black" points="247,-149 247,-171 340,-171 340,-149 247,-149"/>
<text text-anchor="start" x="250" y="-157.2" font-family="Helvetica,sans-Serif" font-size="11.00">text[2147483647]</text>
<polygon fill="none" stroke="black" points="10,-127 10,-149 247,-149 247,-127 10,-127"/>
<text text-anchor="start" x="30" y="-135.2" font-family="Helvetica,sans-Serif" font-size="11.00">diag_timestamp_modified</text>
<polygon fill="none" stroke="black" points="247,-127 247,-149 340,-149 340,-127 247,-127"/>
<text text-anchor="start" x="250" y="-135.2" font-family="Helvetica,sans-Serif" font-size="11.00">timestamptz[35,6]</text>
<polygon fill="none" stroke="black" points="10,-105 10,-127 247,-127 247,-105 10,-105"/>
<text text-anchor="start" x="30" y="-113.2" font-family="Helvetica,sans-Serif" font-size="11.00">diag_wallclock_modified</text>
<polygon fill="none" stroke="black" points="247,-105 247,-127 340,-127 340,-105 247,-105"/>
<text text-anchor="start" x="250" y="-113.2" font-family="Helvetica,sans-Serif" font-size="11.00">timestamptz[35,6]</text>
<polygon fill="none" stroke="black" points="10,-83 10,-105 247,-105 247,-83 10,-83"/>
<text text-anchor="start" x="30" y="-91.2" font-family="Helvetica,sans-Serif" font-size="11.00">diag_role_modified</text>
<polygon fill="none" stroke="black" points="247,-83 247,-105 340,-105 340,-83 247,-83"/>
<text text-anchor="start" x="250" y="-91.2" font-family="Helvetica,sans-Serif" font-size="11.00">text[2147483647]</text>
<polygon fill="none" stroke="black" points="10,-61 10,-83 247,-83 247,-61 10,-61"/>
<text text-anchor="start" x="30" y="-69.2" font-family="Helvetica,sans-Serif" font-size="11.00">diag_row_version</text>
<polygon fill="none" stroke="black" points="247,-61 247,-83 340,-83 340,-61 247,-61"/>
<text text-anchor="start" x="250" y="-69.2" font-family="Helvetica,sans-Serif" font-size="11.00">int8[19]</text>
<polygon fill="none" stroke="black" points="10,-39 10,-61 247,-61 247,-39 10,-39"/>
<text text-anchor="start" x="30" y="-47.2" font-family="Helvetica,sans-Serif" font-size="11.00">diag_update_count</text>
<polygon fill="none" stroke="black" points="247,-39 247,-61 340,-61 340,-39 247,-39"/>
<text text-anchor="start" x="250" y="-47.2" font-family="Helvetica,sans-Serif" font-size="11.00">int8[19]</text>
<polygon fill="none" stroke="black" stroke-width="2" points="9,-38 9,-282 341,-282 341,-38 9,-38"/>
</a>
</g>
</g>
</g>
</svg>
