<?xml version="1.0" encoding="UTF-8" standalone="no"?>
<!DOCTYPE svg PUBLIC "-//W3C//DTD SVG 1.1//EN"
 "http://www.w3.org/Graphics/SVG/1.1/DTD/svg11.dtd">
<!-- Generated by graphviz version 2.43.0 (0)
 -->
<!-- Title: oneDegreeRelationshipsDiagram Pages: 1 -->
<svg width="332pt" height="97pt"
 viewBox="0.00 0.00 332.00 97.00" xmlns="http://www.w3.org/2000/svg" xmlns:xlink="http://www.w3.org/1999/xlink">
<g id="graph0" class="graph" transform="scale(1 1) rotate(0) translate(4 93)">
<title>oneDegreeRelationshipsDiagram</title>
<polygon fill="#ffffff" stroke="transparent" points="-4,4 -4,-93 328,-93 328,4 -4,4"/>
<text text-anchor="middle" x="71.5" y="-7.2" font-family="Helvetica,sans-Serif" font-size="11.00">Generated by SchemaSpy</text>
<!-- syst_disallowed_passwords -->
<g id="node1" class="node">
<title>syst_disallowed_passwords</title>
<g id="a_node1"><a xlink:href="../../tables/syst_disallowed_passwords.html" xlink:title="syst_disallowed_passwords" target="_top">
<polygon fill="#ffffff" stroke="transparent" points="8,-37 8,-85 316,-85 316,-37 8,-37"/>
<polygon fill="#f5f5f5" stroke="transparent" points="10,-61 10,-83 314,-83 314,-61 10,-61"/>
<polygon fill="none" stroke="black" points="10,-61 10,-83 314,-83 314,-61 10,-61"/>
<text text-anchor="start" x="15" y="-70.2" font-family="Helvetica,sans-Serif" font-weight="bold" font-size="11.00">syst_disallowed_passwords</text>
<text text-anchor="start" x="281" y="-69.2" font-family="Helvetica,sans-Serif" font-size="11.00">[view]</text>
<polygon fill="none" stroke="black" points="10,-39 10,-61 215,-61 215,-39 10,-39"/>
<text text-anchor="start" x="30" y="-47.2" font-family="Helvetica,sans-Serif" font-size="11.00">password_hash</text>
<polygon fill="none" stroke="black" points="215,-39 215,-61 314,-61 314,-39 215,-39"/>
<text text-anchor="start" x="218" y="-47.2" font-family="Helvetica,sans-Serif" font-size="11.00">bytea[2147483647]</text>
<polygon fill="none" stroke="black" stroke-width="2" points="9,-38 9,-84 315,-84 315,-38 9,-38"/>
</a>
</g>
</g>
</g>
</svg>
