<?xml version="1.0" encoding="UTF-8" standalone="no"?>
<!DOCTYPE svg PUBLIC "-//W3C//DTD SVG 1.1//EN"
 "http://www.w3.org/Graphics/SVG/1.1/DTD/svg11.dtd">
<!-- Generated by graphviz version 2.43.0 (0)
 -->
<!-- Title: oneDegreeRelationshipsDiagram Pages: 1 -->
<svg width="353pt" height="493pt"
 viewBox="0.00 0.00 353.00 493.00" xmlns="http://www.w3.org/2000/svg" xmlns:xlink="http://www.w3.org/1999/xlink">
<g id="graph0" class="graph" transform="scale(1 1) rotate(0) translate(4 489)">
<title>oneDegreeRelationshipsDiagram</title>
<polygon fill="#ffffff" stroke="transparent" points="-4,4 -4,-489 349,-489 349,4 -4,4"/>
<text text-anchor="middle" x="71.5" y="-7.2" font-family="Helvetica,sans-Serif" font-size="11.00">Generated by SchemaSpy</text>
<!-- syst_owner_password_rules -->
<g id="node1" class="node">
<title>syst_owner_password_rules</title>
<g id="a_node1"><a xlink:href="../../tables/syst_owner_password_rules.html" xlink:title="syst_owner_password_rules" target="_top">
<polygon fill="#ffffff" stroke="transparent" points="8,-37 8,-481 337,-481 337,-37 8,-37"/>
<polygon fill="#f5f5f5" stroke="transparent" points="10.5,-457 10.5,-479 335.5,-479 335.5,-457 10.5,-457"/>
<polygon fill="none" stroke="black" points="10.5,-457 10.5,-479 335.5,-479 335.5,-457 10.5,-457"/>
<text text-anchor="start" x="15.5" y="-466.2" font-family="Helvetica,sans-Serif" font-weight="bold" font-size="11.00">syst_owner_password_rules</text>
<text text-anchor="start" x="302.5" y="-465.2" font-family="Helvetica,sans-Serif" font-size="11.00">[view]</text>
<polygon fill="none" stroke="black" points="10.5,-435 10.5,-457 217.5,-457 217.5,-435 10.5,-435"/>
<text text-anchor="start" x="30.5" y="-443.2" font-family="Helvetica,sans-Serif" font-size="11.00">id</text>
<polygon fill="none" stroke="black" points="217.5,-435 217.5,-457 335.5,-457 335.5,-435 217.5,-435"/>
<text text-anchor="start" x="220.5" y="-443.2" font-family="Helvetica,sans-Serif" font-size="11.00">uuid[2147483647]</text>
<polygon fill="none" stroke="black" points="10.5,-413 10.5,-435 217.5,-435 217.5,-413 10.5,-413"/>
<text text-anchor="start" x="30.5" y="-421.2" font-family="Helvetica,sans-Serif" font-size="11.00">owner_id</text>
<polygon fill="none" stroke="black" points="217.5,-413 217.5,-435 335.5,-435 335.5,-413 217.5,-413"/>
<text text-anchor="start" x="220.5" y="-421.2" font-family="Helvetica,sans-Serif" font-size="11.00">uuid[2147483647]</text>
<polygon fill="none" stroke="black" points="10.5,-391 10.5,-413 217.5,-413 217.5,-391 10.5,-391"/>
<text text-anchor="start" x="30.5" y="-399.2" font-family="Helvetica,sans-Serif" font-size="11.00">password_length</text>
<polygon fill="none" stroke="black" points="217.5,-391 217.5,-413 335.5,-413 335.5,-391 217.5,-391"/>
<text text-anchor="start" x="220.5" y="-399.2" font-family="Helvetica,sans-Serif" font-size="11.00">int4range[2147483647]</text>
<polygon fill="none" stroke="black" points="10.5,-369 10.5,-391 217.5,-391 217.5,-369 10.5,-369"/>
<text text-anchor="start" x="30.5" y="-377.2" font-family="Helvetica,sans-Serif" font-size="11.00">max_age</text>
<polygon fill="none" stroke="black" points="217.5,-369 217.5,-391 335.5,-391 335.5,-369 217.5,-369"/>
<text text-anchor="start" x="220.5" y="-377.2" font-family="Helvetica,sans-Serif" font-size="11.00">interval[49,6]</text>
<polygon fill="none" stroke="black" points="10.5,-347 10.5,-369 217.5,-369 217.5,-347 10.5,-347"/>
<text text-anchor="start" x="30.5" y="-355.2" font-family="Helvetica,sans-Serif" font-size="11.00">require_upper_case</text>
<polygon fill="none" stroke="black" points="217.5,-347 217.5,-369 335.5,-369 335.5,-347 217.5,-347"/>
<text text-anchor="start" x="220.5" y="-355.2" font-family="Helvetica,sans-Serif" font-size="11.00">int4[10]</text>
<polygon fill="none" stroke="black" points="10.5,-325 10.5,-347 217.5,-347 217.5,-325 10.5,-325"/>
<text text-anchor="start" x="30.5" y="-333.2" font-family="Helvetica,sans-Serif" font-size="11.00">require_lower_case</text>
<polygon fill="none" stroke="black" points="217.5,-325 217.5,-347 335.5,-347 335.5,-325 217.5,-325"/>
<text text-anchor="start" x="220.5" y="-333.2" font-family="Helvetica,sans-Serif" font-size="11.00">int4[10]</text>
<polygon fill="none" stroke="black" points="10.5,-303 10.5,-325 217.5,-325 217.5,-303 10.5,-303"/>
<text text-anchor="start" x="30.5" y="-311.2" font-family="Helvetica,sans-Serif" font-size="11.00">require_numbers</text>
<polygon fill="none" stroke="black" points="217.5,-303 217.5,-325 335.5,-325 335.5,-303 217.5,-303"/>
<text text-anchor="start" x="220.5" y="-311.2" font-family="Helvetica,sans-Serif" font-size="11.00">int4[10]</text>
<polygon fill="none" stroke="black" points="10.5,-281 10.5,-303 217.5,-303 217.5,-281 10.5,-281"/>
<text text-anchor="start" x="30.5" y="-289.2" font-family="Helvetica,sans-Serif" font-size="11.00">require_symbols</text>
<polygon fill="none" stroke="black" points="217.5,-281 217.5,-303 335.5,-303 335.5,-281 217.5,-281"/>
<text text-anchor="start" x="220.5" y="-289.2" font-family="Helvetica,sans-Serif" font-size="11.00">int4[10]</text>
<polygon fill="none" stroke="black" points="10.5,-259 10.5,-281 217.5,-281 217.5,-259 10.5,-259"/>
<text text-anchor="start" x="30.5" y="-267.2" font-family="Helvetica,sans-Serif" font-size="11.00">disallow_recently_used</text>
<polygon fill="none" stroke="black" points="217.5,-259 217.5,-281 335.5,-281 335.5,-259 217.5,-259"/>
<text text-anchor="start" x="220.5" y="-267.2" font-family="Helvetica,sans-Serif" font-size="11.00">int4[10]</text>
<polygon fill="none" stroke="black" points="10.5,-237 10.5,-259 217.5,-259 217.5,-237 10.5,-237"/>
<text text-anchor="start" x="30.5" y="-245.2" font-family="Helvetica,sans-Serif" font-size="11.00">disallow_compromised</text>
<polygon fill="none" stroke="black" points="217.5,-237 217.5,-259 335.5,-259 335.5,-237 217.5,-237"/>
<text text-anchor="start" x="220.5" y="-245.2" font-family="Helvetica,sans-Serif" font-size="11.00">bool[1]</text>
<polygon fill="none" stroke="black" points="10.5,-215 10.5,-237 217.5,-237 217.5,-215 10.5,-215"/>
<text text-anchor="start" x="30.5" y="-223.2" font-family="Helvetica,sans-Serif" font-size="11.00">require_mfa</text>
<polygon fill="none" stroke="black" points="217.5,-215 217.5,-237 335.5,-237 335.5,-215 217.5,-215"/>
<text text-anchor="start" x="220.5" y="-223.2" font-family="Helvetica,sans-Serif" font-size="11.00">bool[1]</text>
<polygon fill="none" stroke="black" points="10.5,-193 10.5,-215 217.5,-215 217.5,-193 10.5,-193"/>
<text text-anchor="start" x="30.5" y="-201.2" font-family="Helvetica,sans-Serif" font-size="11.00">allowed_mfa_types</text>
<polygon fill="none" stroke="black" points="217.5,-193 217.5,-215 335.5,-215 335.5,-193 217.5,-193"/>
<text text-anchor="start" x="220.5" y="-201.2" font-family="Helvetica,sans-Serif" font-size="11.00">_text[2147483647]</text>
<polygon fill="none" stroke="black" points="10.5,-171 10.5,-193 217.5,-193 217.5,-171 10.5,-171"/>
<text text-anchor="start" x="30.5" y="-179.2" font-family="Helvetica,sans-Serif" font-size="11.00">diag_timestamp_created</text>
<polygon fill="none" stroke="black" points="217.5,-171 217.5,-193 335.5,-193 335.5,-171 217.5,-171"/>
<text text-anchor="start" x="220.5" y="-179.2" font-family="Helvetica,sans-Serif" font-size="11.00">timestamptz[35,6]</text>
<polygon fill="none" stroke="black" points="10.5,-149 10.5,-171 217.5,-171 217.5,-149 10.5,-149"/>
<text text-anchor="start" x="30.5" y="-157.2" font-family="Helvetica,sans-Serif" font-size="11.00">diag_role_created</text>
<polygon fill="none" stroke="black" points="217.5,-149 217.5,-171 335.5,-171 335.5,-149 217.5,-149"/>
<text text-anchor="start" x="220.5" y="-157.2" font-family="Helvetica,sans-Serif" font-size="11.00">text[2147483647]</text>
<polygon fill="none" stroke="black" points="10.5,-127 10.5,-149 217.5,-149 217.5,-127 10.5,-127"/>
<text text-anchor="start" x="30.5" y="-135.2" font-family="Helvetica,sans-Serif" font-size="11.00">diag_timestamp_modified</text>
<polygon fill="none" stroke="black" points="217.5,-127 217.5,-149 335.5,-149 335.5,-127 217.5,-127"/>
<text text-anchor="start" x="220.5" y="-135.2" font-family="Helvetica,sans-Serif" font-size="11.00">timestamptz[35,6]</text>
<polygon fill="none" stroke="black" points="10.5,-105 10.5,-127 217.5,-127 217.5,-105 10.5,-105"/>
<text text-anchor="start" x="30.5" y="-113.2" font-family="Helvetica,sans-Serif" font-size="11.00">diag_wallclock_modified</text>
<polygon fill="none" stroke="black" points="217.5,-105 217.5,-127 335.5,-127 335.5,-105 217.5,-105"/>
<text text-anchor="start" x="220.5" y="-113.2" font-family="Helvetica,sans-Serif" font-size="11.00">timestamptz[35,6]</text>
<polygon fill="none" stroke="black" points="10.5,-83 10.5,-105 217.5,-105 217.5,-83 10.5,-83"/>
<text text-anchor="start" x="30.5" y="-91.2" font-family="Helvetica,sans-Serif" font-size="11.00">diag_role_modified</text>
<polygon fill="none" stroke="black" points="217.5,-83 217.5,-105 335.5,-105 335.5,-83 217.5,-83"/>
<text text-anchor="start" x="220.5" y="-91.2" font-family="Helvetica,sans-Serif" font-size="11.00">text[2147483647]</text>
<polygon fill="none" stroke="black" points="10.5,-61 10.5,-83 217.5,-83 217.5,-61 10.5,-61"/>
<text text-anchor="start" x="30.5" y="-69.2" font-family="Helvetica,sans-Serif" font-size="11.00">diag_row_version</text>
<polygon fill="none" stroke="black" points="217.5,-61 217.5,-83 335.5,-83 335.5,-61 217.5,-61"/>
<text text-anchor="start" x="220.5" y="-69.2" font-family="Helvetica,sans-Serif" font-size="11.00">int8[19]</text>
<polygon fill="none" stroke="black" points="10.5,-39 10.5,-61 217.5,-61 217.5,-39 10.5,-39"/>
<text text-anchor="start" x="30.5" y="-47.2" font-family="Helvetica,sans-Serif" font-size="11.00">diag_update_count</text>
<polygon fill="none" stroke="black" points="217.5,-39 217.5,-61 335.5,-61 335.5,-39 217.5,-39"/>
<text text-anchor="start" x="220.5" y="-47.2" font-family="Helvetica,sans-Serif" font-size="11.00">int8[19]</text>
<polygon fill="none" stroke="black" stroke-width="2" points="9,-38 9,-480 336,-480 336,-38 9,-38"/>
</a>
</g>
</g>
</g>
</svg>
