<?xml version="1.0" encoding="UTF-8" standalone="no"?>
<!DOCTYPE svg PUBLIC "-//W3C//DTD SVG 1.1//EN"
 "http://www.w3.org/Graphics/SVG/1.1/DTD/svg11.dtd">
<!-- Generated by graphviz version 2.43.0 (0)
 -->
<!-- Title: oneDegreeRelationshipsDiagram Pages: 1 -->
<svg width="328pt" height="339pt"
 viewBox="0.00 0.00 328.00 339.00" xmlns="http://www.w3.org/2000/svg" xmlns:xlink="http://www.w3.org/1999/xlink">
<g id="graph0" class="graph" transform="scale(1 1) rotate(0) translate(4 335)">
<title>oneDegreeRelationshipsDiagram</title>
<polygon fill="#ffffff" stroke="transparent" points="-4,4 -4,-335 324,-335 324,4 -4,4"/>
<text text-anchor="middle" x="71.5" y="-7.2" font-family="Helvetica,sans-Serif" font-size="11.00">Generated by SchemaSpy</text>
<!-- syst_perm_functional_types -->
<g id="node1" class="node">
<title>syst_perm_functional_types</title>
<g id="a_node1"><a xlink:href="../../tables/syst_perm_functional_types.html" xlink:title="syst_perm_functional_types" target="_top">
<polygon fill="#ffffff" stroke="transparent" points="8,-37 8,-327 312,-327 312,-37 8,-37"/>
<polygon fill="#f5f5f5" stroke="transparent" points="10,-303 10,-325 310,-325 310,-303 10,-303"/>
<polygon fill="none" stroke="black" points="10,-303 10,-325 310,-325 310,-303 10,-303"/>
<text text-anchor="start" x="15" y="-312.2" font-family="Helvetica,sans-Serif" font-weight="bold" font-size="11.00">syst_perm_functional_types</text>
<text text-anchor="start" x="277" y="-311.2" font-family="Helvetica,sans-Serif" font-size="11.00">[view]</text>
<polygon fill="none" stroke="black" points="10,-281 10,-303 217,-303 217,-281 10,-281"/>
<text text-anchor="start" x="30" y="-289.2" font-family="Helvetica,sans-Serif" font-size="11.00">id</text>
<polygon fill="none" stroke="black" points="217,-281 217,-303 310,-303 310,-281 217,-281"/>
<text text-anchor="start" x="220" y="-289.2" font-family="Helvetica,sans-Serif" font-size="11.00">uuid[2147483647]</text>
<polygon fill="none" stroke="black" points="10,-259 10,-281 217,-281 217,-259 10,-259"/>
<text text-anchor="start" x="30" y="-267.2" font-family="Helvetica,sans-Serif" font-size="11.00">internal_name</text>
<polygon fill="none" stroke="black" points="217,-259 217,-281 310,-281 310,-259 217,-259"/>
<text text-anchor="start" x="220" y="-267.2" font-family="Helvetica,sans-Serif" font-size="11.00">text[2147483647]</text>
<polygon fill="none" stroke="black" points="10,-237 10,-259 217,-259 217,-237 10,-237"/>
<text text-anchor="start" x="30" y="-245.2" font-family="Helvetica,sans-Serif" font-size="11.00">display_name</text>
<polygon fill="none" stroke="black" points="217,-237 217,-259 310,-259 310,-237 217,-237"/>
<text text-anchor="start" x="220" y="-245.2" font-family="Helvetica,sans-Serif" font-size="11.00">text[2147483647]</text>
<polygon fill="none" stroke="black" points="10,-215 10,-237 217,-237 217,-215 10,-215"/>
<text text-anchor="start" x="30" y="-223.2" font-family="Helvetica,sans-Serif" font-size="11.00">syst_description</text>
<polygon fill="none" stroke="black" points="217,-215 217,-237 310,-237 310,-215 217,-215"/>
<text text-anchor="start" x="220" y="-223.2" font-family="Helvetica,sans-Serif" font-size="11.00">text[2147483647]</text>
<polygon fill="none" stroke="black" points="10,-193 10,-215 217,-215 217,-193 10,-193"/>
<text text-anchor="start" x="30" y="-201.2" font-family="Helvetica,sans-Serif" font-size="11.00">user_description</text>
<polygon fill="none" stroke="black" points="217,-193 217,-215 310,-215 310,-193 217,-193"/>
<text text-anchor="start" x="220" y="-201.2" font-family="Helvetica,sans-Serif" font-size="11.00">text[2147483647]</text>
<polygon fill="none" stroke="black" points="10,-171 10,-193 217,-193 217,-171 10,-171"/>
<text text-anchor="start" x="30" y="-179.2" font-family="Helvetica,sans-Serif" font-size="11.00">diag_timestamp_created</text>
<polygon fill="none" stroke="black" points="217,-171 217,-193 310,-193 310,-171 217,-171"/>
<text text-anchor="start" x="220" y="-179.2" font-family="Helvetica,sans-Serif" font-size="11.00">timestamptz[35,6]</text>
<polygon fill="none" stroke="black" points="10,-149 10,-171 217,-171 217,-149 10,-149"/>
<text text-anchor="start" x="30" y="-157.2" font-family="Helvetica,sans-Serif" font-size="11.00">diag_role_created</text>
<polygon fill="none" stroke="black" points="217,-149 217,-171 310,-171 310,-149 217,-149"/>
<text text-anchor="start" x="220" y="-157.2" font-family="Helvetica,sans-Serif" font-size="11.00">text[2147483647]</text>
<polygon fill="none" stroke="black" points="10,-127 10,-149 217,-149 217,-127 10,-127"/>
<text text-anchor="start" x="30" y="-135.2" font-family="Helvetica,sans-Serif" font-size="11.00">diag_timestamp_modified</text>
<polygon fill="none" stroke="black" points="217,-127 217,-149 310,-149 310,-127 217,-127"/>
<text text-anchor="start" x="220" y="-135.2" font-family="Helvetica,sans-Serif" font-size="11.00">timestamptz[35,6]</text>
<polygon fill="none" stroke="black" points="10,-105 10,-127 217,-127 217,-105 10,-105"/>
<text text-anchor="start" x="30" y="-113.2" font-family="Helvetica,sans-Serif" font-size="11.00">diag_wallclock_modified</text>
<polygon fill="none" stroke="black" points="217,-105 217,-127 310,-127 310,-105 217,-105"/>
<text text-anchor="start" x="220" y="-113.2" font-family="Helvetica,sans-Serif" font-size="11.00">timestamptz[35,6]</text>
<polygon fill="none" stroke="black" points="10,-83 10,-105 217,-105 217,-83 10,-83"/>
<text text-anchor="start" x="30" y="-91.2" font-family="Helvetica,sans-Serif" font-size="11.00">diag_role_modified</text>
<polygon fill="none" stroke="black" points="217,-83 217,-105 310,-105 310,-83 217,-83"/>
<text text-anchor="start" x="220" y="-91.2" font-family="Helvetica,sans-Serif" font-size="11.00">text[2147483647]</text>
<polygon fill="none" stroke="black" points="10,-61 10,-83 217,-83 217,-61 10,-61"/>
<text text-anchor="start" x="30" y="-69.2" font-family="Helvetica,sans-Serif" font-size="11.00">diag_row_version</text>
<polygon fill="none" stroke="black" points="217,-61 217,-83 310,-83 310,-61 217,-61"/>
<text text-anchor="start" x="220" y="-69.2" font-family="Helvetica,sans-Serif" font-size="11.00">int8[19]</text>
<polygon fill="none" stroke="black" points="10,-39 10,-61 217,-61 217,-39 10,-39"/>
<text text-anchor="start" x="30" y="-47.2" font-family="Helvetica,sans-Serif" font-size="11.00">diag_update_count</text>
<polygon fill="none" stroke="black" points="217,-39 217,-61 310,-61 310,-39 217,-39"/>
<text text-anchor="start" x="220" y="-47.2" font-family="Helvetica,sans-Serif" font-size="11.00">int8[19]</text>
<polygon fill="none" stroke="black" stroke-width="2" points="9,-38 9,-326 311,-326 311,-38 9,-38"/>
</a>
</g>
</g>
</g>
</svg>
