<?xml version="1.0" encoding="UTF-8" standalone="no"?>
<!DOCTYPE svg PUBLIC "-//W3C//DTD SVG 1.1//EN"
 "http://www.w3.org/Graphics/SVG/1.1/DTD/svg11.dtd">
<!-- Generated by graphviz version 2.43.0 (0)
 -->
<!-- Title: twoDegreesRelationshipsDiagram Pages: 1 -->
<svg width="800pt" height="748pt"
 viewBox="0.00 0.00 800.00 748.00" xmlns="http://www.w3.org/2000/svg" xmlns:xlink="http://www.w3.org/1999/xlink">
<g id="graph0" class="graph" transform="scale(1 1) rotate(0) translate(4 744)">
<title>twoDegreesRelationshipsDiagram</title>
<polygon fill="#ffffff" stroke="transparent" points="-4,4 -4,-744 796,-744 796,4 -4,4"/>
<text text-anchor="middle" x="71.5" y="-7.2" font-family="Helvetica,sans-Serif" font-size="11.00">Generated by SchemaSpy</text>
<!-- syst_access_accounts -->
<g id="node1" class="node">
<title>syst_access_accounts</title>
<g id="a_node1"><a xlink:href="../../tables/syst_access_accounts.html" xlink:title="syst_access_accounts" target="_top">
<polygon fill="#ffffff" stroke="transparent" points="527,-678 527,-736 712,-736 712,-678 527,-678"/>
<polygon fill="#f5f5f5" stroke="transparent" points="527.5,-714 527.5,-736 712.5,-736 712.5,-714 527.5,-714"/>
<polygon fill="none" stroke="black" points="527.5,-714 527.5,-736 712.5,-736 712.5,-714 527.5,-714"/>
<text text-anchor="start" x="532.5" y="-723.2" font-family="Helvetica,sans-Serif" font-weight="bold" font-size="11.00">syst_access_accounts</text>
<text text-anchor="start" x="677.5" y="-722.2" font-family="Helvetica,sans-Serif" font-size="11.00">[table]</text>
<polygon fill="none" stroke="black" points="527.5,-696 527.5,-714 712.5,-714 712.5,-696 527.5,-696"/>
<text text-anchor="start" x="530.5" y="-702.2" font-family="Helvetica,sans-Serif" font-size="11.00">...</text>
<polygon fill="#ffffff" stroke="transparent" points="527.5,-678 527.5,-696 613.5,-696 613.5,-678 527.5,-678"/>
<polygon fill="none" stroke="black" points="527.5,-678 527.5,-696 613.5,-696 613.5,-678 527.5,-678"/>
<text text-anchor="start" x="530.5" y="-684.2" font-family="Helvetica,sans-Serif" font-size="11.00">&lt; 2</text>
<polygon fill="#ffffff" stroke="transparent" points="613.5,-678 613.5,-696 658.5,-696 658.5,-678 613.5,-678"/>
<polygon fill="none" stroke="black" points="613.5,-678 613.5,-696 658.5,-696 658.5,-678 613.5,-678"/>
<text text-anchor="start" x="648.5" y="-684.2" font-family="Helvetica,sans-Serif" font-size="11.00"> &#160;</text>
<polygon fill="#ffffff" stroke="transparent" points="658.5,-678 658.5,-696 712.5,-696 712.5,-678 658.5,-678"/>
<polygon fill="none" stroke="black" points="658.5,-678 658.5,-696 712.5,-696 712.5,-678 658.5,-678"/>
<text text-anchor="start" x="693.5" y="-684.2" font-family="Helvetica,sans-Serif" font-size="11.00">4 &gt;</text>
</a>
</g>
</g>
<!-- syst_enum_items -->
<g id="node2" class="node">
<title>syst_enum_items</title>
<g id="a_node2"><a xlink:href="../../tables/syst_enum_items.html" xlink:title="syst_enum_items" target="_top">
<polygon fill="#ffffff" stroke="transparent" points="8,-330 8,-388 163,-388 163,-330 8,-330"/>
<polygon fill="#f5f5f5" stroke="transparent" points="8.5,-366 8.5,-388 163.5,-388 163.5,-366 8.5,-366"/>
<polygon fill="none" stroke="black" points="8.5,-366 8.5,-388 163.5,-388 163.5,-366 8.5,-366"/>
<text text-anchor="start" x="13.5" y="-375.2" font-family="Helvetica,sans-Serif" font-weight="bold" font-size="11.00">syst_enum_items</text>
<text text-anchor="start" x="128.5" y="-374.2" font-family="Helvetica,sans-Serif" font-size="11.00">[table]</text>
<polygon fill="none" stroke="black" points="8.5,-348 8.5,-366 163.5,-366 163.5,-348 8.5,-348"/>
<text text-anchor="start" x="11.5" y="-354.2" font-family="Helvetica,sans-Serif" font-size="11.00">...</text>
<polygon fill="#ffffff" stroke="transparent" points="8.5,-330 8.5,-348 79.5,-348 79.5,-330 8.5,-330"/>
<polygon fill="none" stroke="black" points="8.5,-330 8.5,-348 79.5,-348 79.5,-330 8.5,-330"/>
<text text-anchor="start" x="11.5" y="-336.2" font-family="Helvetica,sans-Serif" font-size="11.00">&lt; 2</text>
<polygon fill="#ffffff" stroke="transparent" points="79.5,-330 79.5,-348 116.5,-348 116.5,-330 79.5,-330"/>
<polygon fill="none" stroke="black" points="79.5,-330 79.5,-348 116.5,-348 116.5,-330 79.5,-330"/>
<text text-anchor="start" x="106.5" y="-336.2" font-family="Helvetica,sans-Serif" font-size="11.00"> &#160;</text>
<polygon fill="#ffffff" stroke="transparent" points="116.5,-330 116.5,-348 163.5,-348 163.5,-330 116.5,-330"/>
<polygon fill="none" stroke="black" points="116.5,-330 116.5,-348 163.5,-348 163.5,-330 116.5,-330"/>
<text text-anchor="start" x="144.5" y="-336.2" font-family="Helvetica,sans-Serif" font-size="11.00">7 &gt;</text>
</a>
</g>
</g>
<!-- syst_access_accounts&#45;&gt;syst_enum_items -->
<g id="edge1" class="edge">
<title>syst_access_accounts:w&#45;&gt;syst_enum_items:e</title>
<path fill="none" stroke="black" d="M511.66,-704.94C365.79,-703.73 298.43,-683.11 204,-565 145.24,-491.51 258.6,-357 164.5,-357"/>
<polygon fill="black" stroke="black" points="518.5,-704.97 526.49,-708.6 522.5,-704.98 526.5,-705 526.5,-705 526.5,-705 522.5,-704.98 526.51,-701.4 518.5,-704.97 518.5,-704.97"/>
<ellipse fill="none" stroke="black" cx="515.3" cy="-704.96" rx="3.2" ry="3.2"/>
</g>
<!-- syst_owners -->
<g id="node3" class="node">
<title>syst_owners</title>
<g id="a_node3"><a xlink:href="../../tables/syst_owners.html" xlink:title="syst_owners" target="_top">
<polygon fill="#ffffff" stroke="transparent" points="212,-408 212,-554 406,-554 406,-408 212,-408"/>
<polygon fill="#f5f5f5" stroke="transparent" points="212,-532 212,-554 406,-554 406,-532 212,-532"/>
<polygon fill="none" stroke="black" points="212,-532 212,-554 406,-554 406,-532 212,-532"/>
<text text-anchor="start" x="217" y="-541.2" font-family="Helvetica,sans-Serif" font-weight="bold" font-size="11.00">syst_owners</text>
<text text-anchor="start" x="371" y="-540.2" font-family="Helvetica,sans-Serif" font-size="11.00">[table]</text>
<polygon fill="none" stroke="black" points="212,-510 212,-532 406,-532 406,-510 212,-510"/>
<image xlink:href="../../images/primaryKeys.png" width="11px" height="12px" preserveAspectRatio="xMinYMin meet" x="217" y="-527"/>
<text text-anchor="start" x="232" y="-518.2" font-family="Helvetica,sans-Serif" font-size="11.00">id</text>
<polygon fill="#ffffff" stroke="transparent" points="212,-488 212,-510 406,-510 406,-488 212,-488"/>
<polygon fill="none" stroke="black" points="212,-488 212,-510 406,-510 406,-488 212,-488"/>
<text text-anchor="start" x="232" y="-496.2" font-family="Helvetica,sans-Serif" font-size="11.00">internal_name</text>
<polygon fill="#ffffff" stroke="transparent" points="212,-466 212,-488 406,-488 406,-466 212,-466"/>
<polygon fill="none" stroke="black" points="212,-466 212,-488 406,-488 406,-466 212,-466"/>
<text text-anchor="start" x="232" y="-474.2" font-family="Helvetica,sans-Serif" font-size="11.00">display_name</text>
<polygon fill="none" stroke="black" points="212,-444 212,-466 406,-466 406,-444 212,-444"/>
<image xlink:href="../../images/foreignKeys.png" width="11px" height="12px" preserveAspectRatio="xMinYMin meet" x="217" y="-461"/>
<text text-anchor="start" x="232" y="-452.2" font-family="Helvetica,sans-Serif" font-size="11.00">owner_state_id</text>
<polygon fill="none" stroke="black" points="212,-426 212,-444 406,-444 406,-426 212,-426"/>
<text text-anchor="start" x="215" y="-432.2" font-family="Helvetica,sans-Serif" font-size="11.00">...</text>
<polygon fill="#ffffff" stroke="transparent" points="212,-408 212,-426 302,-426 302,-408 212,-408"/>
<polygon fill="none" stroke="black" points="212,-408 212,-426 302,-426 302,-408 212,-408"/>
<text text-anchor="start" x="215" y="-414.2" font-family="Helvetica,sans-Serif" font-size="11.00">&lt; 1</text>
<polygon fill="#ffffff" stroke="transparent" points="302,-408 302,-426 349,-426 349,-408 302,-408"/>
<polygon fill="none" stroke="black" points="302,-408 302,-426 349,-426 349,-408 302,-408"/>
<text text-anchor="start" x="339" y="-414.2" font-family="Helvetica,sans-Serif" font-size="11.00"> &#160;</text>
<polygon fill="#ffffff" stroke="transparent" points="349,-408 349,-426 406,-426 406,-408 349,-408"/>
<polygon fill="none" stroke="black" points="349,-408 349,-426 406,-426 406,-408 349,-408"/>
<text text-anchor="start" x="387" y="-414.2" font-family="Helvetica,sans-Serif" font-size="11.00">4 &gt;</text>
</a>
</g>
</g>
<!-- syst_access_accounts&#45;&gt;syst_owners -->
<g id="edge2" class="edge">
<title>syst_access_accounts:w&#45;&gt;syst_owners:e</title>
<path fill="none" stroke="black" d="M511.75,-704.56C483.13,-702.61 468.69,-693.72 447,-668 403.36,-616.23 474.71,-521 407,-521"/>
<polygon fill="black" stroke="black" points="518.5,-704.76 526.39,-708.6 522.5,-704.88 526.5,-705 526.5,-705 526.5,-705 522.5,-704.88 526.61,-701.4 518.5,-704.76 518.5,-704.76"/>
<ellipse fill="none" stroke="black" cx="515.31" cy="-704.66" rx="3.2" ry="3.2"/>
</g>
<!-- syst_owners&#45;&gt;syst_enum_items -->
<g id="edge8" class="edge">
<title>syst_owners:w&#45;&gt;syst_enum_items:e</title>
<path fill="none" stroke="black" d="M197.14,-450.79C173.74,-432.03 206.68,-357 164.5,-357"/>
<polygon fill="black" stroke="black" points="203.35,-452.67 209.95,-458.44 207.17,-453.84 211,-455 211,-455 211,-455 207.17,-453.84 212.05,-451.56 203.35,-452.67 203.35,-452.67"/>
<ellipse fill="none" stroke="black" cx="200.28" cy="-451.74" rx="3.2" ry="3.2"/>
</g>
<!-- syst_instances -->
<g id="node4" class="node">
<title>syst_instances</title>
<g id="a_node4"><a xlink:href="../../tables/syst_instances.html" xlink:title="syst_instances" target="_top">
<polygon fill="#ffffff" stroke="transparent" points="550.5,-37 550.5,-95 688.5,-95 688.5,-37 550.5,-37"/>
<polygon fill="#f5f5f5" stroke="transparent" points="550.5,-73 550.5,-95 688.5,-95 688.5,-73 550.5,-73"/>
<polygon fill="none" stroke="black" points="550.5,-73 550.5,-95 688.5,-95 688.5,-73 550.5,-73"/>
<text text-anchor="start" x="555.5" y="-82.2" font-family="Helvetica,sans-Serif" font-weight="bold" font-size="11.00">syst_instances</text>
<text text-anchor="start" x="653.5" y="-81.2" font-family="Helvetica,sans-Serif" font-size="11.00">[table]</text>
<polygon fill="none" stroke="black" points="550.5,-55 550.5,-73 688.5,-73 688.5,-55 550.5,-55"/>
<text text-anchor="start" x="553.5" y="-61.2" font-family="Helvetica,sans-Serif" font-size="11.00">...</text>
<polygon fill="#ffffff" stroke="transparent" points="550.5,-37 550.5,-55 612.5,-55 612.5,-37 550.5,-37"/>
<polygon fill="none" stroke="black" points="550.5,-37 550.5,-55 612.5,-55 612.5,-37 550.5,-37"/>
<text text-anchor="start" x="553.5" y="-43.2" font-family="Helvetica,sans-Serif" font-size="11.00">&lt; 5</text>
<polygon fill="#ffffff" stroke="transparent" points="612.5,-37 612.5,-55 645.5,-55 645.5,-37 612.5,-37"/>
<polygon fill="none" stroke="black" points="612.5,-37 612.5,-55 645.5,-55 645.5,-37 612.5,-37"/>
<text text-anchor="start" x="635.5" y="-43.2" font-family="Helvetica,sans-Serif" font-size="11.00"> &#160;</text>
<polygon fill="#ffffff" stroke="transparent" points="645.5,-37 645.5,-55 688.5,-55 688.5,-37 645.5,-37"/>
<polygon fill="none" stroke="black" points="645.5,-37 645.5,-55 688.5,-55 688.5,-37 645.5,-37"/>
<text text-anchor="start" x="669.5" y="-43.2" font-family="Helvetica,sans-Serif" font-size="11.00">4 &gt;</text>
</a>
</g>
</g>
<!-- syst_instances&#45;&gt;syst_enum_items -->
<g id="edge3" class="edge">
<title>syst_instances:w&#45;&gt;syst_enum_items:e</title>
<path fill="none" stroke="black" d="M535.1,-64.46C336.4,-77.29 374.59,-357 164.5,-357"/>
<polygon fill="black" stroke="black" points="541.5,-64.25 549.61,-67.6 545.5,-64.13 549.5,-64 549.5,-64 549.5,-64 545.5,-64.13 549.39,-60.4 541.5,-64.25 541.5,-64.25"/>
<ellipse fill="none" stroke="black" cx="538.31" cy="-64.35" rx="3.2" ry="3.2"/>
</g>
<!-- syst_instances&#45;&gt;syst_enum_items -->
<g id="edge4" class="edge">
<title>syst_instances:w&#45;&gt;syst_enum_items:e</title>
<path fill="none" stroke="black" d="M535.1,-64.46C336.4,-77.29 374.59,-357 164.5,-357"/>
<polygon fill="black" stroke="black" points="541.5,-64.25 549.61,-67.6 545.5,-64.13 549.5,-64 549.5,-64 549.5,-64 545.5,-64.13 549.39,-60.4 541.5,-64.25 541.5,-64.25"/>
<ellipse fill="none" stroke="black" cx="538.31" cy="-64.35" rx="3.2" ry="3.2"/>
</g>
<!-- syst_instances&#45;&gt;syst_owners -->
<g id="edge5" class="edge">
<title>syst_instances:w&#45;&gt;syst_owners:e</title>
<path fill="none" stroke="black" d="M535.03,-64.1C495.41,-64.76 473.38,-69.8 447,-105 391.31,-179.32 499.87,-521 407,-521"/>
<polygon fill="black" stroke="black" points="541.5,-64.05 549.52,-67.6 545.5,-64.03 549.5,-64 549.5,-64 549.5,-64 545.5,-64.03 549.48,-60.4 541.5,-64.05 541.5,-64.05"/>
<ellipse fill="none" stroke="black" cx="538.3" cy="-64.07" rx="3.2" ry="3.2"/>
</g>
<!-- syst_owner_network_rules -->
<g id="node5" class="node">
<title>syst_owner_network_rules</title>
<g id="a_node5"><a xlink:href="../../tables/syst_owner_network_rules.html" xlink:title="syst_owner_network_rules" target="_top">
<polygon fill="#ffffff" stroke="transparent" points="511,-599 511,-657 728,-657 728,-599 511,-599"/>
<polygon fill="#f5f5f5" stroke="transparent" points="511.5,-635 511.5,-657 728.5,-657 728.5,-635 511.5,-635"/>
<polygon fill="none" stroke="black" points="511.5,-635 511.5,-657 728.5,-657 728.5,-635 511.5,-635"/>
<text text-anchor="start" x="516.5" y="-644.2" font-family="Helvetica,sans-Serif" font-weight="bold" font-size="11.00">syst_owner_network_rules</text>
<text text-anchor="start" x="693.5" y="-643.2" font-family="Helvetica,sans-Serif" font-size="11.00">[table]</text>
<polygon fill="none" stroke="black" points="511.5,-617 511.5,-635 728.5,-635 728.5,-617 511.5,-617"/>
<text text-anchor="start" x="514.5" y="-623.2" font-family="Helvetica,sans-Serif" font-size="11.00">...</text>
<polygon fill="#ffffff" stroke="transparent" points="511.5,-599 511.5,-617 617.5,-617 617.5,-599 511.5,-599"/>
<polygon fill="none" stroke="black" points="511.5,-599 511.5,-617 617.5,-617 617.5,-599 511.5,-599"/>
<text text-anchor="start" x="514.5" y="-605.2" font-family="Helvetica,sans-Serif" font-size="11.00">&lt; 1</text>
<polygon fill="#ffffff" stroke="transparent" points="617.5,-599 617.5,-617 672.5,-617 672.5,-599 617.5,-599"/>
<polygon fill="none" stroke="black" points="617.5,-599 617.5,-617 672.5,-617 672.5,-599 617.5,-599"/>
<text text-anchor="start" x="662.5" y="-605.2" font-family="Helvetica,sans-Serif" font-size="11.00"> &#160;</text>
<polygon fill="#ffffff" stroke="transparent" points="672.5,-599 672.5,-617 728.5,-617 728.5,-599 672.5,-599"/>
<polygon fill="none" stroke="black" points="672.5,-599 672.5,-617 728.5,-617 728.5,-599 672.5,-599"/>
<text text-anchor="start" x="718.5" y="-605.2" font-family="Helvetica,sans-Serif" font-size="11.00"> &#160;</text>
</a>
</g>
</g>
<!-- syst_owner_network_rules&#45;&gt;syst_owners -->
<g id="edge6" class="edge">
<title>syst_owner_network_rules:w&#45;&gt;syst_owners:e</title>
<path fill="none" stroke="black" d="M495.96,-624.84C474.82,-621.06 466.26,-608.18 447,-589 422.16,-564.26 442.06,-521 407,-521"/>
<polygon fill="black" stroke="black" points="502.53,-625.36 510.21,-629.59 506.51,-625.68 510.5,-626 510.5,-626 510.5,-626 506.51,-625.68 510.79,-622.41 502.53,-625.36 502.53,-625.36"/>
<ellipse fill="none" stroke="black" cx="499.34" cy="-625.11" rx="3.2" ry="3.2"/>
</g>
<!-- syst_owner_password_rules -->
<g id="node6" class="node">
<title>syst_owner_password_rules</title>
<g id="a_node6"><a xlink:href="../../tables/syst_owner_password_rules.html" xlink:title="syst_owner_password_rules" target="_top">
<polygon fill="#ffffff" stroke="transparent" points="455,-116 455,-578 784,-578 784,-116 455,-116"/>
<polygon fill="#f5f5f5" stroke="transparent" points="457.5,-554 457.5,-576 782.5,-576 782.5,-554 457.5,-554"/>
<polygon fill="none" stroke="black" points="457.5,-554 457.5,-576 782.5,-576 782.5,-554 457.5,-554"/>
<text text-anchor="start" x="462.5" y="-563.2" font-family="Helvetica,sans-Serif" font-weight="bold" font-size="11.00">syst_owner_password_rules</text>
<text text-anchor="start" x="747.5" y="-562.2" font-family="Helvetica,sans-Serif" font-size="11.00">[table]</text>
<polygon fill="none" stroke="black" points="457.5,-532 457.5,-554 664.5,-554 664.5,-532 457.5,-532"/>
<image xlink:href="../../images/primaryKeys.png" width="11px" height="12px" preserveAspectRatio="xMinYMin meet" x="462.5" y="-549"/>
<text text-anchor="start" x="477.5" y="-540.2" font-family="Helvetica,sans-Serif" font-size="11.00">id</text>
<polygon fill="none" stroke="black" points="664.5,-532 664.5,-554 782.5,-554 782.5,-532 664.5,-532"/>
<text text-anchor="start" x="667.5" y="-540.2" font-family="Helvetica,sans-Serif" font-size="11.00">uuid[2147483647]</text>
<polygon fill="#ffffff" stroke="transparent" points="457.5,-510 457.5,-532 664.5,-532 664.5,-510 457.5,-510"/>
<polygon fill="none" stroke="black" points="457.5,-510 457.5,-532 664.5,-532 664.5,-510 457.5,-510"/>
<image xlink:href="../../images/foreignKeys.png" width="11px" height="12px" preserveAspectRatio="xMinYMin meet" x="462.5" y="-527"/>
<text text-anchor="start" x="477.5" y="-518.2" font-family="Helvetica,sans-Serif" font-size="11.00">owner_id</text>
<polygon fill="none" stroke="black" points="664.5,-510 664.5,-532 782.5,-532 782.5,-510 664.5,-510"/>
<text text-anchor="start" x="667.5" y="-518.2" font-family="Helvetica,sans-Serif" font-size="11.00">uuid[2147483647]</text>
<polygon fill="none" stroke="black" points="457.5,-488 457.5,-510 664.5,-510 664.5,-488 457.5,-488"/>
<text text-anchor="start" x="477.5" y="-496.2" font-family="Helvetica,sans-Serif" font-size="11.00">password_length</text>
<polygon fill="none" stroke="black" points="664.5,-488 664.5,-510 782.5,-510 782.5,-488 664.5,-488"/>
<text text-anchor="start" x="667.5" y="-496.2" font-family="Helvetica,sans-Serif" font-size="11.00">int4range[2147483647]</text>
<polygon fill="none" stroke="black" points="457.5,-466 457.5,-488 664.5,-488 664.5,-466 457.5,-466"/>
<text text-anchor="start" x="477.5" y="-474.2" font-family="Helvetica,sans-Serif" font-size="11.00">max_age</text>
<polygon fill="none" stroke="black" points="664.5,-466 664.5,-488 782.5,-488 782.5,-466 664.5,-466"/>
<text text-anchor="start" x="667.5" y="-474.2" font-family="Helvetica,sans-Serif" font-size="11.00">interval[49,6]</text>
<polygon fill="none" stroke="black" points="457.5,-444 457.5,-466 664.5,-466 664.5,-444 457.5,-444"/>
<text text-anchor="start" x="477.5" y="-452.2" font-family="Helvetica,sans-Serif" font-size="11.00">require_upper_case</text>
<polygon fill="none" stroke="black" points="664.5,-444 664.5,-466 782.5,-466 782.5,-444 664.5,-444"/>
<text text-anchor="start" x="667.5" y="-452.2" font-family="Helvetica,sans-Serif" font-size="11.00">int4[10]</text>
<polygon fill="none" stroke="black" points="457.5,-422 457.5,-444 664.5,-444 664.5,-422 457.5,-422"/>
<text text-anchor="start" x="477.5" y="-430.2" font-family="Helvetica,sans-Serif" font-size="11.00">require_lower_case</text>
<polygon fill="none" stroke="black" points="664.5,-422 664.5,-444 782.5,-444 782.5,-422 664.5,-422"/>
<text text-anchor="start" x="667.5" y="-430.2" font-family="Helvetica,sans-Serif" font-size="11.00">int4[10]</text>
<polygon fill="none" stroke="black" points="457.5,-400 457.5,-422 664.5,-422 664.5,-400 457.5,-400"/>
<text text-anchor="start" x="477.5" y="-408.2" font-family="Helvetica,sans-Serif" font-size="11.00">require_numbers</text>
<polygon fill="none" stroke="black" points="664.5,-400 664.5,-422 782.5,-422 782.5,-400 664.5,-400"/>
<text text-anchor="start" x="667.5" y="-408.2" font-family="Helvetica,sans-Serif" font-size="11.00">int4[10]</text>
<polygon fill="none" stroke="black" points="457.5,-378 457.5,-400 664.5,-400 664.5,-378 457.5,-378"/>
<text text-anchor="start" x="477.5" y="-386.2" font-family="Helvetica,sans-Serif" font-size="11.00">require_symbols</text>
<polygon fill="none" stroke="black" points="664.5,-378 664.5,-400 782.5,-400 782.5,-378 664.5,-378"/>
<text text-anchor="start" x="667.5" y="-386.2" font-family="Helvetica,sans-Serif" font-size="11.00">int4[10]</text>
<polygon fill="none" stroke="black" points="457.5,-356 457.5,-378 664.5,-378 664.5,-356 457.5,-356"/>
<text text-anchor="start" x="477.5" y="-364.2" font-family="Helvetica,sans-Serif" font-size="11.00">disallow_recently_used</text>
<polygon fill="none" stroke="black" points="664.5,-356 664.5,-378 782.5,-378 782.5,-356 664.5,-356"/>
<text text-anchor="start" x="667.5" y="-364.2" font-family="Helvetica,sans-Serif" font-size="11.00">int4[10]</text>
<polygon fill="none" stroke="black" points="457.5,-334 457.5,-356 664.5,-356 664.5,-334 457.5,-334"/>
<text text-anchor="start" x="477.5" y="-342.2" font-family="Helvetica,sans-Serif" font-size="11.00">disallow_compromised</text>
<polygon fill="none" stroke="black" points="664.5,-334 664.5,-356 782.5,-356 782.5,-334 664.5,-334"/>
<text text-anchor="start" x="667.5" y="-342.2" font-family="Helvetica,sans-Serif" font-size="11.00">bool[1]</text>
<polygon fill="none" stroke="black" points="457.5,-312 457.5,-334 664.5,-334 664.5,-312 457.5,-312"/>
<text text-anchor="start" x="477.5" y="-320.2" font-family="Helvetica,sans-Serif" font-size="11.00">require_mfa</text>
<polygon fill="none" stroke="black" points="664.5,-312 664.5,-334 782.5,-334 782.5,-312 664.5,-312"/>
<text text-anchor="start" x="667.5" y="-320.2" font-family="Helvetica,sans-Serif" font-size="11.00">bool[1]</text>
<polygon fill="none" stroke="black" points="457.5,-290 457.5,-312 664.5,-312 664.5,-290 457.5,-290"/>
<text text-anchor="start" x="477.5" y="-298.2" font-family="Helvetica,sans-Serif" font-size="11.00">allowed_mfa_types</text>
<polygon fill="none" stroke="black" points="664.5,-290 664.5,-312 782.5,-312 782.5,-290 664.5,-290"/>
<text text-anchor="start" x="667.5" y="-298.2" font-family="Helvetica,sans-Serif" font-size="11.00">_text[2147483647]</text>
<polygon fill="none" stroke="black" points="457.5,-268 457.5,-290 664.5,-290 664.5,-268 457.5,-268"/>
<text text-anchor="start" x="477.5" y="-276.2" font-family="Helvetica,sans-Serif" font-size="11.00">diag_timestamp_created</text>
<polygon fill="none" stroke="black" points="664.5,-268 664.5,-290 782.5,-290 782.5,-268 664.5,-268"/>
<text text-anchor="start" x="667.5" y="-276.2" font-family="Helvetica,sans-Serif" font-size="11.00">timestamptz[35,6]</text>
<polygon fill="none" stroke="black" points="457.5,-246 457.5,-268 664.5,-268 664.5,-246 457.5,-246"/>
<text text-anchor="start" x="477.5" y="-254.2" font-family="Helvetica,sans-Serif" font-size="11.00">diag_role_created</text>
<polygon fill="none" stroke="black" points="664.5,-246 664.5,-268 782.5,-268 782.5,-246 664.5,-246"/>
<text text-anchor="start" x="667.5" y="-254.2" font-family="Helvetica,sans-Serif" font-size="11.00">text[2147483647]</text>
<polygon fill="none" stroke="black" points="457.5,-224 457.5,-246 664.5,-246 664.5,-224 457.5,-224"/>
<text text-anchor="start" x="477.5" y="-232.2" font-family="Helvetica,sans-Serif" font-size="11.00">diag_timestamp_modified</text>
<polygon fill="none" stroke="black" points="664.5,-224 664.5,-246 782.5,-246 782.5,-224 664.5,-224"/>
<text text-anchor="start" x="667.5" y="-232.2" font-family="Helvetica,sans-Serif" font-size="11.00">timestamptz[35,6]</text>
<polygon fill="none" stroke="black" points="457.5,-202 457.5,-224 664.5,-224 664.5,-202 457.5,-202"/>
<text text-anchor="start" x="477.5" y="-210.2" font-family="Helvetica,sans-Serif" font-size="11.00">diag_wallclock_modified</text>
<polygon fill="none" stroke="black" points="664.5,-202 664.5,-224 782.5,-224 782.5,-202 664.5,-202"/>
<text text-anchor="start" x="667.5" y="-210.2" font-family="Helvetica,sans-Serif" font-size="11.00">timestamptz[35,6]</text>
<polygon fill="none" stroke="black" points="457.5,-180 457.5,-202 664.5,-202 664.5,-180 457.5,-180"/>
<text text-anchor="start" x="477.5" y="-188.2" font-family="Helvetica,sans-Serif" font-size="11.00">diag_role_modified</text>
<polygon fill="none" stroke="black" points="664.5,-180 664.5,-202 782.5,-202 782.5,-180 664.5,-180"/>
<text text-anchor="start" x="667.5" y="-188.2" font-family="Helvetica,sans-Serif" font-size="11.00">text[2147483647]</text>
<polygon fill="none" stroke="black" points="457.5,-158 457.5,-180 664.5,-180 664.5,-158 457.5,-158"/>
<text text-anchor="start" x="477.5" y="-166.2" font-family="Helvetica,sans-Serif" font-size="11.00">diag_row_version</text>
<polygon fill="none" stroke="black" points="664.5,-158 664.5,-180 782.5,-180 782.5,-158 664.5,-158"/>
<text text-anchor="start" x="667.5" y="-166.2" font-family="Helvetica,sans-Serif" font-size="11.00">int8[19]</text>
<polygon fill="none" stroke="black" points="457.5,-136 457.5,-158 664.5,-158 664.5,-136 457.5,-136"/>
<text text-anchor="start" x="477.5" y="-144.2" font-family="Helvetica,sans-Serif" font-size="11.00">diag_update_count</text>
<polygon fill="none" stroke="black" points="664.5,-136 664.5,-158 782.5,-158 782.5,-136 664.5,-136"/>
<text text-anchor="start" x="667.5" y="-144.2" font-family="Helvetica,sans-Serif" font-size="11.00">int8[19]</text>
<polygon fill="#ffffff" stroke="transparent" points="457.5,-118 457.5,-136 565.5,-136 565.5,-118 457.5,-118"/>
<polygon fill="none" stroke="black" points="457.5,-118 457.5,-136 565.5,-136 565.5,-118 457.5,-118"/>
<text text-anchor="start" x="460.5" y="-124.2" font-family="Helvetica,sans-Serif" font-size="11.00">&lt; 1</text>
<polygon fill="#ffffff" stroke="transparent" points="565.5,-118 565.5,-136 664.5,-136 664.5,-118 565.5,-118"/>
<polygon fill="none" stroke="black" points="565.5,-118 565.5,-136 664.5,-136 664.5,-118 565.5,-118"/>
<text text-anchor="start" x="654.5" y="-124.2" font-family="Helvetica,sans-Serif" font-size="11.00"> &#160;</text>
<polygon fill="#ffffff" stroke="transparent" points="664.5,-118 664.5,-136 782.5,-136 782.5,-118 664.5,-118"/>
<polygon fill="none" stroke="black" points="664.5,-118 664.5,-136 782.5,-136 782.5,-118 664.5,-118"/>
<text text-anchor="start" x="763.5" y="-124.2" font-family="Helvetica,sans-Serif" font-size="11.00">0 &gt;</text>
<polygon fill="none" stroke="black" stroke-width="2" points="456,-117 456,-577 783,-577 783,-117 456,-117"/>
</a>
</g>
</g>
<!-- syst_owner_password_rules&#45;&gt;syst_owners -->
<g id="edge7" class="edge">
<title>syst_owner_password_rules:w&#45;&gt;syst_owners:e</title>
<path fill="none" stroke="black" d="M446.05,-521C431.99,-521 425.05,-521 407,-521"/>
<polygon fill="black" stroke="black" points="455.7,-517 455.7,-525 454.1,-525 454.1,-517 455.7,-517"/>
<polyline fill="none" stroke="black" points="456.5,-521 452.5,-521 "/>
<ellipse fill="none" stroke="black" cx="449.3" cy="-521" rx="3.2" ry="3.2"/>
</g>
</g>
</svg>
