<?xml version="1.0" encoding="UTF-8" standalone="no"?>
<!DOCTYPE svg PUBLIC "-//W3C//DTD SVG 1.1//EN"
 "http://www.w3.org/Graphics/SVG/1.1/DTD/svg11.dtd">
<!-- Generated by graphviz version 2.43.0 (0)
 -->
<!-- Title: twoDegreesRelationshipsDiagram Pages: 1 -->
<svg width="1626pt" height="454pt"
 viewBox="0.00 0.00 1626.00 454.48" xmlns="http://www.w3.org/2000/svg" xmlns:xlink="http://www.w3.org/1999/xlink">
<g id="graph0" class="graph" transform="scale(1 1) rotate(0) translate(4 450.48)">
<title>twoDegreesRelationshipsDiagram</title>
<polygon fill="#ffffff" stroke="transparent" points="-4,4 -4,-450.48 1622,-450.48 1622,4 -4,4"/>
<text text-anchor="middle" x="71.5" y="-7.2" font-family="Helvetica,sans-Serif" font-size="11.00">Generated by SchemaSpy</text>
<!-- syst_access_accounts -->
<g id="node1" class="node">
<title>syst_access_accounts</title>
<g id="a_node1"><a xlink:href="../../tables/syst_access_accounts.html" xlink:title="syst_access_accounts" target="_top">
<polygon fill="#ffffff" stroke="transparent" points="1040,-238.48 1040,-296.48 1225,-296.48 1225,-238.48 1040,-238.48"/>
<polygon fill="#f5f5f5" stroke="transparent" points="1040.5,-274.48 1040.5,-296.48 1225.5,-296.48 1225.5,-274.48 1040.5,-274.48"/>
<polygon fill="none" stroke="black" points="1040.5,-274.48 1040.5,-296.48 1225.5,-296.48 1225.5,-274.48 1040.5,-274.48"/>
<text text-anchor="start" x="1045.5" y="-283.68" font-family="Helvetica,sans-Serif" font-weight="bold" font-size="11.00">syst_access_accounts</text>
<text text-anchor="start" x="1190.5" y="-282.68" font-family="Helvetica,sans-Serif" font-size="11.00">[table]</text>
<polygon fill="none" stroke="black" points="1040.5,-256.48 1040.5,-274.48 1225.5,-274.48 1225.5,-256.48 1040.5,-256.48"/>
<text text-anchor="start" x="1043.5" y="-262.68" font-family="Helvetica,sans-Serif" font-size="11.00">...</text>
<polygon fill="#ffffff" stroke="transparent" points="1040.5,-238.48 1040.5,-256.48 1126.5,-256.48 1126.5,-238.48 1040.5,-238.48"/>
<polygon fill="none" stroke="black" points="1040.5,-238.48 1040.5,-256.48 1126.5,-256.48 1126.5,-238.48 1040.5,-238.48"/>
<text text-anchor="start" x="1043.5" y="-244.68" font-family="Helvetica,sans-Serif" font-size="11.00">&lt; 2</text>
<polygon fill="#ffffff" stroke="transparent" points="1126.5,-238.48 1126.5,-256.48 1171.5,-256.48 1171.5,-238.48 1126.5,-238.48"/>
<polygon fill="none" stroke="black" points="1126.5,-238.48 1126.5,-256.48 1171.5,-256.48 1171.5,-238.48 1126.5,-238.48"/>
<text text-anchor="start" x="1161.5" y="-244.68" font-family="Helvetica,sans-Serif" font-size="11.00"> &#160;</text>
<polygon fill="#ffffff" stroke="transparent" points="1171.5,-238.48 1171.5,-256.48 1225.5,-256.48 1225.5,-238.48 1171.5,-238.48"/>
<polygon fill="none" stroke="black" points="1171.5,-238.48 1171.5,-256.48 1225.5,-256.48 1225.5,-238.48 1171.5,-238.48"/>
<text text-anchor="start" x="1206.5" y="-244.68" font-family="Helvetica,sans-Serif" font-size="11.00">4 &gt;</text>
</a>
</g>
</g>
<!-- syst_enum_items -->
<g id="node2" class="node">
<title>syst_enum_items</title>
<g id="a_node2"><a xlink:href="../../tables/syst_enum_items.html" xlink:title="syst_enum_items" target="_top">
<polygon fill="#ffffff" stroke="transparent" points="531,-207.48 531,-265.48 686,-265.48 686,-207.48 531,-207.48"/>
<polygon fill="#f5f5f5" stroke="transparent" points="531.5,-243.48 531.5,-265.48 686.5,-265.48 686.5,-243.48 531.5,-243.48"/>
<polygon fill="none" stroke="black" points="531.5,-243.48 531.5,-265.48 686.5,-265.48 686.5,-243.48 531.5,-243.48"/>
<text text-anchor="start" x="536.5" y="-252.68" font-family="Helvetica,sans-Serif" font-weight="bold" font-size="11.00">syst_enum_items</text>
<text text-anchor="start" x="651.5" y="-251.68" font-family="Helvetica,sans-Serif" font-size="11.00">[table]</text>
<polygon fill="none" stroke="black" points="531.5,-225.48 531.5,-243.48 686.5,-243.48 686.5,-225.48 531.5,-225.48"/>
<text text-anchor="start" x="534.5" y="-231.68" font-family="Helvetica,sans-Serif" font-size="11.00">...</text>
<polygon fill="#ffffff" stroke="transparent" points="531.5,-207.48 531.5,-225.48 602.5,-225.48 602.5,-207.48 531.5,-207.48"/>
<polygon fill="none" stroke="black" points="531.5,-207.48 531.5,-225.48 602.5,-225.48 602.5,-207.48 531.5,-207.48"/>
<text text-anchor="start" x="534.5" y="-213.68" font-family="Helvetica,sans-Serif" font-size="11.00">&lt; 2</text>
<polygon fill="#ffffff" stroke="transparent" points="602.5,-207.48 602.5,-225.48 639.5,-225.48 639.5,-207.48 602.5,-207.48"/>
<polygon fill="none" stroke="black" points="602.5,-207.48 602.5,-225.48 639.5,-225.48 639.5,-207.48 602.5,-207.48"/>
<text text-anchor="start" x="629.5" y="-213.68" font-family="Helvetica,sans-Serif" font-size="11.00"> &#160;</text>
<polygon fill="#ffffff" stroke="transparent" points="639.5,-207.48 639.5,-225.48 686.5,-225.48 686.5,-207.48 639.5,-207.48"/>
<polygon fill="none" stroke="black" points="639.5,-207.48 639.5,-225.48 686.5,-225.48 686.5,-207.48 639.5,-207.48"/>
<text text-anchor="start" x="667.5" y="-213.68" font-family="Helvetica,sans-Serif" font-size="11.00">7 &gt;</text>
</a>
</g>
</g>
<!-- syst_access_accounts&#45;&gt;syst_enum_items -->
<g id="edge1" class="edge">
<title>syst_access_accounts:w&#45;&gt;syst_enum_items:e</title>
<path fill="none" stroke="black" d="M1025.11,-262.63C1017.04,-259.04 1011.8,-253.02 999,-250.48 895.62,-230.03 773.86,-229.28 694.35,-231.83"/>
<polygon fill="black" stroke="black" points="1031.65,-263.93 1038.8,-269.02 1035.58,-264.71 1039.5,-265.48 1039.5,-265.48 1039.5,-265.48 1035.58,-264.71 1040.2,-261.95 1031.65,-263.93 1031.65,-263.93"/>
<ellipse fill="none" stroke="black" cx="1028.51" cy="-263.31" rx="3.2" ry="3.2"/>
</g>
<!-- syst_owners -->
<g id="node3" class="node">
<title>syst_owners</title>
<g id="a_node3"><a xlink:href="../../tables/syst_owners.html" xlink:title="syst_owners" target="_top">
<polygon fill="#ffffff" stroke="transparent" points="802,-260.48 802,-318.48 924,-318.48 924,-260.48 802,-260.48"/>
<polygon fill="#f5f5f5" stroke="transparent" points="802,-296.48 802,-318.48 924,-318.48 924,-296.48 802,-296.48"/>
<polygon fill="none" stroke="black" points="802,-296.48 802,-318.48 924,-318.48 924,-296.48 802,-296.48"/>
<text text-anchor="start" x="807" y="-305.68" font-family="Helvetica,sans-Serif" font-weight="bold" font-size="11.00">syst_owners</text>
<text text-anchor="start" x="889" y="-304.68" font-family="Helvetica,sans-Serif" font-size="11.00">[table]</text>
<polygon fill="none" stroke="black" points="802,-278.48 802,-296.48 924,-296.48 924,-278.48 802,-278.48"/>
<text text-anchor="start" x="805" y="-284.68" font-family="Helvetica,sans-Serif" font-size="11.00">...</text>
<polygon fill="#ffffff" stroke="transparent" points="802,-260.48 802,-278.48 856,-278.48 856,-260.48 802,-260.48"/>
<polygon fill="none" stroke="black" points="802,-260.48 802,-278.48 856,-278.48 856,-260.48 802,-260.48"/>
<text text-anchor="start" x="805" y="-266.68" font-family="Helvetica,sans-Serif" font-size="11.00">&lt; 1</text>
<polygon fill="#ffffff" stroke="transparent" points="856,-260.48 856,-278.48 885,-278.48 885,-260.48 856,-260.48"/>
<polygon fill="none" stroke="black" points="856,-260.48 856,-278.48 885,-278.48 885,-260.48 856,-260.48"/>
<text text-anchor="start" x="875" y="-266.68" font-family="Helvetica,sans-Serif" font-size="11.00"> &#160;</text>
<polygon fill="#ffffff" stroke="transparent" points="885,-260.48 885,-278.48 924,-278.48 924,-260.48 885,-260.48"/>
<polygon fill="none" stroke="black" points="885,-260.48 885,-278.48 924,-278.48 924,-260.48 885,-260.48"/>
<text text-anchor="start" x="905" y="-266.68" font-family="Helvetica,sans-Serif" font-size="11.00">4 &gt;</text>
</a>
</g>
</g>
<!-- syst_access_accounts&#45;&gt;syst_owners -->
<g id="edge2" class="edge">
<title>syst_access_accounts:w&#45;&gt;syst_owners:e</title>
<path fill="none" stroke="black" d="M1024.89,-266.12C985.05,-269.73 971.56,-287.48 925,-287.48"/>
<polygon fill="black" stroke="black" points="1031.51,-265.83 1039.66,-269.08 1035.5,-265.66 1039.5,-265.48 1039.5,-265.48 1039.5,-265.48 1035.5,-265.66 1039.34,-261.89 1031.51,-265.83 1031.51,-265.83"/>
<ellipse fill="none" stroke="black" cx="1028.31" cy="-265.97" rx="3.2" ry="3.2"/>
</g>
<!-- syst_enum_functional_types -->
<g id="node6" class="node">
<title>syst_enum_functional_types</title>
<g id="a_node6"><a xlink:href="../../tables/syst_enum_functional_types.html" xlink:title="syst_enum_functional_types" target="_top">
<polygon fill="#ffffff" stroke="transparent" points="175,-90.48 175,-442.48 482,-442.48 482,-90.48 175,-90.48"/>
<polygon fill="#f5f5f5" stroke="transparent" points="177.5,-418.48 177.5,-440.48 480.5,-440.48 480.5,-418.48 177.5,-418.48"/>
<polygon fill="none" stroke="black" points="177.5,-418.48 177.5,-440.48 480.5,-440.48 480.5,-418.48 177.5,-418.48"/>
<text text-anchor="start" x="182.5" y="-427.68" font-family="Helvetica,sans-Serif" font-weight="bold" font-size="11.00">syst_enum_functional_types</text>
<text text-anchor="start" x="445.5" y="-426.68" font-family="Helvetica,sans-Serif" font-size="11.00">[table]</text>
<polygon fill="none" stroke="black" points="177.5,-396.48 177.5,-418.48 387.5,-418.48 387.5,-396.48 177.5,-396.48"/>
<image xlink:href="../../images/primaryKeys.png" width="11px" height="12px" preserveAspectRatio="xMinYMin meet" x="182.5" y="-413.485"/>
<text text-anchor="start" x="197.5" y="-404.68" font-family="Helvetica,sans-Serif" font-size="11.00">id</text>
<polygon fill="none" stroke="black" points="387.5,-396.48 387.5,-418.48 480.5,-418.48 480.5,-396.48 387.5,-396.48"/>
<text text-anchor="start" x="390.5" y="-404.68" font-family="Helvetica,sans-Serif" font-size="11.00">uuid[2147483647]</text>
<polygon fill="#ffffff" stroke="transparent" points="177.5,-374.48 177.5,-396.48 387.5,-396.48 387.5,-374.48 177.5,-374.48"/>
<polygon fill="none" stroke="black" points="177.5,-374.48 177.5,-396.48 387.5,-396.48 387.5,-374.48 177.5,-374.48"/>
<text text-anchor="start" x="197.5" y="-382.68" font-family="Helvetica,sans-Serif" font-size="11.00">internal_name</text>
<polygon fill="none" stroke="black" points="387.5,-374.48 387.5,-396.48 480.5,-396.48 480.5,-374.48 387.5,-374.48"/>
<text text-anchor="start" x="390.5" y="-382.68" font-family="Helvetica,sans-Serif" font-size="11.00">text[2147483647]</text>
<polygon fill="#ffffff" stroke="transparent" points="177.5,-352.48 177.5,-374.48 387.5,-374.48 387.5,-352.48 177.5,-352.48"/>
<polygon fill="none" stroke="black" points="177.5,-352.48 177.5,-374.48 387.5,-374.48 387.5,-352.48 177.5,-352.48"/>
<text text-anchor="start" x="197.5" y="-360.68" font-family="Helvetica,sans-Serif" font-size="11.00">display_name</text>
<polygon fill="none" stroke="black" points="387.5,-352.48 387.5,-374.48 480.5,-374.48 480.5,-352.48 387.5,-352.48"/>
<text text-anchor="start" x="390.5" y="-360.68" font-family="Helvetica,sans-Serif" font-size="11.00">text[2147483647]</text>
<polygon fill="none" stroke="black" points="177.5,-330.48 177.5,-352.48 387.5,-352.48 387.5,-330.48 177.5,-330.48"/>
<text text-anchor="start" x="197.5" y="-338.68" font-family="Helvetica,sans-Serif" font-size="11.00">external_name</text>
<polygon fill="none" stroke="black" points="387.5,-330.48 387.5,-352.48 480.5,-352.48 480.5,-330.48 387.5,-330.48"/>
<text text-anchor="start" x="390.5" y="-338.68" font-family="Helvetica,sans-Serif" font-size="11.00">text[2147483647]</text>
<polygon fill="none" stroke="black" points="177.5,-308.48 177.5,-330.48 387.5,-330.48 387.5,-308.48 177.5,-308.48"/>
<image xlink:href="../../images/foreignKeys.png" width="11px" height="12px" preserveAspectRatio="xMinYMin meet" x="182.5" y="-325.485"/>
<text text-anchor="start" x="197.5" y="-316.68" font-family="Helvetica,sans-Serif" font-size="11.00">enum_id</text>
<polygon fill="none" stroke="black" points="387.5,-308.48 387.5,-330.48 480.5,-330.48 480.5,-308.48 387.5,-308.48"/>
<text text-anchor="start" x="390.5" y="-316.68" font-family="Helvetica,sans-Serif" font-size="11.00">uuid[2147483647]</text>
<polygon fill="none" stroke="black" points="177.5,-286.48 177.5,-308.48 387.5,-308.48 387.5,-286.48 177.5,-286.48"/>
<text text-anchor="start" x="197.5" y="-294.68" font-family="Helvetica,sans-Serif" font-size="11.00">syst_description</text>
<polygon fill="none" stroke="black" points="387.5,-286.48 387.5,-308.48 480.5,-308.48 480.5,-286.48 387.5,-286.48"/>
<text text-anchor="start" x="390.5" y="-294.68" font-family="Helvetica,sans-Serif" font-size="11.00">text[2147483647]</text>
<polygon fill="none" stroke="black" points="177.5,-264.48 177.5,-286.48 387.5,-286.48 387.5,-264.48 177.5,-264.48"/>
<text text-anchor="start" x="197.5" y="-272.68" font-family="Helvetica,sans-Serif" font-size="11.00">user_description</text>
<polygon fill="none" stroke="black" points="387.5,-264.48 387.5,-286.48 480.5,-286.48 480.5,-264.48 387.5,-264.48"/>
<text text-anchor="start" x="390.5" y="-272.68" font-family="Helvetica,sans-Serif" font-size="11.00">text[2147483647]</text>
<polygon fill="none" stroke="black" points="177.5,-242.48 177.5,-264.48 387.5,-264.48 387.5,-242.48 177.5,-242.48"/>
<text text-anchor="start" x="197.5" y="-250.68" font-family="Helvetica,sans-Serif" font-size="11.00">diag_timestamp_created</text>
<polygon fill="none" stroke="black" points="387.5,-242.48 387.5,-264.48 480.5,-264.48 480.5,-242.48 387.5,-242.48"/>
<text text-anchor="start" x="390.5" y="-250.68" font-family="Helvetica,sans-Serif" font-size="11.00">timestamptz[35,6]</text>
<polygon fill="none" stroke="black" points="177.5,-220.48 177.5,-242.48 387.5,-242.48 387.5,-220.48 177.5,-220.48"/>
<text text-anchor="start" x="197.5" y="-228.68" font-family="Helvetica,sans-Serif" font-size="11.00">diag_role_created</text>
<polygon fill="none" stroke="black" points="387.5,-220.48 387.5,-242.48 480.5,-242.48 480.5,-220.48 387.5,-220.48"/>
<text text-anchor="start" x="390.5" y="-228.68" font-family="Helvetica,sans-Serif" font-size="11.00">text[2147483647]</text>
<polygon fill="none" stroke="black" points="177.5,-198.48 177.5,-220.48 387.5,-220.48 387.5,-198.48 177.5,-198.48"/>
<text text-anchor="start" x="197.5" y="-206.68" font-family="Helvetica,sans-Serif" font-size="11.00">diag_timestamp_modified</text>
<polygon fill="none" stroke="black" points="387.5,-198.48 387.5,-220.48 480.5,-220.48 480.5,-198.48 387.5,-198.48"/>
<text text-anchor="start" x="390.5" y="-206.68" font-family="Helvetica,sans-Serif" font-size="11.00">timestamptz[35,6]</text>
<polygon fill="none" stroke="black" points="177.5,-176.48 177.5,-198.48 387.5,-198.48 387.5,-176.48 177.5,-176.48"/>
<text text-anchor="start" x="197.5" y="-184.68" font-family="Helvetica,sans-Serif" font-size="11.00">diag_wallclock_modified</text>
<polygon fill="none" stroke="black" points="387.5,-176.48 387.5,-198.48 480.5,-198.48 480.5,-176.48 387.5,-176.48"/>
<text text-anchor="start" x="390.5" y="-184.68" font-family="Helvetica,sans-Serif" font-size="11.00">timestamptz[35,6]</text>
<polygon fill="none" stroke="black" points="177.5,-154.48 177.5,-176.48 387.5,-176.48 387.5,-154.48 177.5,-154.48"/>
<text text-anchor="start" x="197.5" y="-162.68" font-family="Helvetica,sans-Serif" font-size="11.00">diag_role_modified</text>
<polygon fill="none" stroke="black" points="387.5,-154.48 387.5,-176.48 480.5,-176.48 480.5,-154.48 387.5,-154.48"/>
<text text-anchor="start" x="390.5" y="-162.68" font-family="Helvetica,sans-Serif" font-size="11.00">text[2147483647]</text>
<polygon fill="none" stroke="black" points="177.5,-132.48 177.5,-154.48 387.5,-154.48 387.5,-132.48 177.5,-132.48"/>
<text text-anchor="start" x="197.5" y="-140.68" font-family="Helvetica,sans-Serif" font-size="11.00">diag_row_version</text>
<polygon fill="none" stroke="black" points="387.5,-132.48 387.5,-154.48 480.5,-154.48 480.5,-132.48 387.5,-132.48"/>
<text text-anchor="start" x="390.5" y="-140.68" font-family="Helvetica,sans-Serif" font-size="11.00">int8[19]</text>
<polygon fill="none" stroke="black" points="177.5,-110.48 177.5,-132.48 387.5,-132.48 387.5,-110.48 177.5,-110.48"/>
<text text-anchor="start" x="197.5" y="-118.68" font-family="Helvetica,sans-Serif" font-size="11.00">diag_update_count</text>
<polygon fill="none" stroke="black" points="387.5,-110.48 387.5,-132.48 480.5,-132.48 480.5,-110.48 387.5,-110.48"/>
<text text-anchor="start" x="390.5" y="-118.68" font-family="Helvetica,sans-Serif" font-size="11.00">int8[19]</text>
<polygon fill="#ffffff" stroke="transparent" points="177.5,-92.48 177.5,-110.48 286.5,-110.48 286.5,-92.48 177.5,-92.48"/>
<polygon fill="none" stroke="black" points="177.5,-92.48 177.5,-110.48 286.5,-110.48 286.5,-92.48 177.5,-92.48"/>
<text text-anchor="start" x="180.5" y="-98.68" font-family="Helvetica,sans-Serif" font-size="11.00">&lt; 1</text>
<polygon fill="#ffffff" stroke="transparent" points="286.5,-92.48 286.5,-110.48 387.5,-110.48 387.5,-92.48 286.5,-92.48"/>
<polygon fill="none" stroke="black" points="286.5,-92.48 286.5,-110.48 387.5,-110.48 387.5,-92.48 286.5,-92.48"/>
<text text-anchor="start" x="377.5" y="-98.68" font-family="Helvetica,sans-Serif" font-size="11.00"> &#160;</text>
<polygon fill="#ffffff" stroke="transparent" points="387.5,-92.48 387.5,-110.48 480.5,-110.48 480.5,-92.48 387.5,-92.48"/>
<polygon fill="none" stroke="black" points="387.5,-92.48 387.5,-110.48 480.5,-110.48 480.5,-92.48 387.5,-92.48"/>
<text text-anchor="start" x="461.5" y="-98.68" font-family="Helvetica,sans-Serif" font-size="11.00">1 &gt;</text>
<polygon fill="none" stroke="black" stroke-width="2" points="176,-91.48 176,-441.48 481,-441.48 481,-91.48 176,-91.48"/>
</a>
</g>
</g>
<!-- syst_enum_items&#45;&gt;syst_enum_functional_types -->
<g id="edge8" class="edge">
<title>syst_enum_items:w&#45;&gt;syst_enum_functional_types:e</title>
<path fill="none" stroke="black" d="M594.84,-283.78C578.09,-334.39 543.22,-407.48 481.5,-407.48"/>
<polygon fill="black" stroke="black" points="596.8,-277.5 602.63,-270.93 598,-273.68 599.19,-269.86 599.19,-269.86 599.19,-269.86 598,-273.68 595.75,-268.79 596.8,-277.5 596.8,-277.5"/>
<ellipse fill="none" stroke="black" cx="595.85" cy="-280.55" rx="3.2" ry="3.2"/>
</g>
<!-- syst_enums -->
<g id="node7" class="node">
<title>syst_enums</title>
<g id="a_node7"><a xlink:href="../../tables/syst_enums.html" xlink:title="syst_enums" target="_top">
<polygon fill="#ffffff" stroke="transparent" points="8,-163.48 8,-221.48 126,-221.48 126,-163.48 8,-163.48"/>
<polygon fill="#f5f5f5" stroke="transparent" points="8,-199.48 8,-221.48 126,-221.48 126,-199.48 8,-199.48"/>
<polygon fill="none" stroke="black" points="8,-199.48 8,-221.48 126,-221.48 126,-199.48 8,-199.48"/>
<text text-anchor="start" x="13" y="-208.68" font-family="Helvetica,sans-Serif" font-weight="bold" font-size="11.00">syst_enums</text>
<text text-anchor="start" x="91" y="-207.68" font-family="Helvetica,sans-Serif" font-size="11.00">[table]</text>
<polygon fill="none" stroke="black" points="8,-181.48 8,-199.48 126,-199.48 126,-181.48 8,-181.48"/>
<text text-anchor="start" x="11" y="-187.68" font-family="Helvetica,sans-Serif" font-size="11.00">...</text>
<polygon fill="#ffffff" stroke="transparent" points="8,-163.48 8,-181.48 56,-181.48 56,-163.48 8,-163.48"/>
<polygon fill="none" stroke="black" points="8,-163.48 8,-181.48 56,-181.48 56,-163.48 8,-163.48"/>
<text text-anchor="start" x="11" y="-169.68" font-family="Helvetica,sans-Serif" font-size="11.00"> &#160;</text>
<polygon fill="#ffffff" stroke="transparent" points="56,-163.48 56,-181.48 86,-181.48 86,-163.48 56,-163.48"/>
<polygon fill="none" stroke="black" points="56,-163.48 56,-181.48 86,-181.48 86,-163.48 56,-163.48"/>
<text text-anchor="start" x="76" y="-169.68" font-family="Helvetica,sans-Serif" font-size="11.00"> &#160;</text>
<polygon fill="#ffffff" stroke="transparent" points="86,-163.48 86,-181.48 126,-181.48 126,-163.48 86,-163.48"/>
<polygon fill="none" stroke="black" points="86,-163.48 86,-181.48 126,-181.48 126,-163.48 86,-163.48"/>
<text text-anchor="start" x="107" y="-169.68" font-family="Helvetica,sans-Serif" font-size="11.00">2 &gt;</text>
</a>
</g>
</g>
<!-- syst_enum_items&#45;&gt;syst_enums -->
<g id="edge7" class="edge">
<title>syst_enum_items:w&#45;&gt;syst_enums:e</title>
<path fill="none" stroke="black" d="M587.43,-190.17C568.38,-152.66 535.82,-102.42 490,-79.48 361.63,-15.22 297.74,-20.21 167,-79.48 131.13,-95.75 103.13,-132.14 86.2,-159.26"/>
<polygon fill="black" stroke="black" points="590.34,-196.14 590.6,-204.91 592.09,-199.74 593.84,-203.34 593.84,-203.34 593.84,-203.34 592.09,-199.74 597.08,-201.76 590.34,-196.14 590.34,-196.14"/>
<ellipse fill="none" stroke="black" cx="588.94" cy="-193.27" rx="3.2" ry="3.2"/>
</g>
<!-- syst_owners&#45;&gt;syst_enum_items -->
<g id="edge15" class="edge">
<title>syst_owners:w&#45;&gt;syst_enum_items:e</title>
<path fill="none" stroke="black" d="M786.2,-287.03C754.84,-285.15 722.41,-277.7 694.02,-269.07"/>
<polygon fill="black" stroke="black" points="793,-287.24 800.89,-291.08 797,-287.36 801,-287.48 801,-287.48 801,-287.48 797,-287.36 801.11,-283.89 793,-287.24 793,-287.24"/>
<ellipse fill="none" stroke="black" cx="789.81" cy="-287.14" rx="3.2" ry="3.2"/>
</g>
<!-- syst_credentials -->
<g id="node4" class="node">
<title>syst_credentials</title>
<g id="a_node4"><a xlink:href="../../tables/syst_credentials.html" xlink:title="syst_credentials" target="_top">
<polygon fill="#ffffff" stroke="transparent" points="1461,-206.48 1461,-264.48 1610,-264.48 1610,-206.48 1461,-206.48"/>
<polygon fill="#f5f5f5" stroke="transparent" points="1461.5,-242.48 1461.5,-264.48 1610.5,-264.48 1610.5,-242.48 1461.5,-242.48"/>
<polygon fill="none" stroke="black" points="1461.5,-242.48 1461.5,-264.48 1610.5,-264.48 1610.5,-242.48 1461.5,-242.48"/>
<text text-anchor="start" x="1466.5" y="-251.68" font-family="Helvetica,sans-Serif" font-weight="bold" font-size="11.00">syst_credentials</text>
<text text-anchor="start" x="1575.5" y="-250.68" font-family="Helvetica,sans-Serif" font-size="11.00">[table]</text>
<polygon fill="none" stroke="black" points="1461.5,-224.48 1461.5,-242.48 1610.5,-242.48 1610.5,-224.48 1461.5,-224.48"/>
<text text-anchor="start" x="1464.5" y="-230.68" font-family="Helvetica,sans-Serif" font-size="11.00">...</text>
<polygon fill="#ffffff" stroke="transparent" points="1461.5,-206.48 1461.5,-224.48 1533.5,-224.48 1533.5,-206.48 1461.5,-206.48"/>
<polygon fill="none" stroke="black" points="1461.5,-206.48 1461.5,-224.48 1533.5,-224.48 1533.5,-206.48 1461.5,-206.48"/>
<text text-anchor="start" x="1464.5" y="-212.68" font-family="Helvetica,sans-Serif" font-size="11.00">&lt; 3</text>
<polygon fill="#ffffff" stroke="transparent" points="1533.5,-206.48 1533.5,-224.48 1571.5,-224.48 1571.5,-206.48 1533.5,-206.48"/>
<polygon fill="none" stroke="black" points="1533.5,-206.48 1533.5,-224.48 1571.5,-224.48 1571.5,-206.48 1533.5,-206.48"/>
<text text-anchor="start" x="1561.5" y="-212.68" font-family="Helvetica,sans-Serif" font-size="11.00"> &#160;</text>
<polygon fill="#ffffff" stroke="transparent" points="1571.5,-206.48 1571.5,-224.48 1610.5,-224.48 1610.5,-206.48 1571.5,-206.48"/>
<polygon fill="none" stroke="black" points="1571.5,-206.48 1571.5,-224.48 1610.5,-224.48 1610.5,-206.48 1571.5,-206.48"/>
<text text-anchor="start" x="1600.5" y="-212.68" font-family="Helvetica,sans-Serif" font-size="11.00"> &#160;</text>
</a>
</g>
</g>
<!-- syst_credentials&#45;&gt;syst_access_accounts -->
<g id="edge3" class="edge">
<title>syst_credentials:w&#45;&gt;syst_access_accounts:e</title>
<path fill="none" stroke="black" d="M1446.89,-238.33C1437.13,-247.64 1438.09,-267.8 1420,-275.48 1357.01,-302.25 1333.92,-283.95 1266,-275.48 1248.03,-273.25 1244.61,-265.48 1226.5,-265.48"/>
<polygon fill="black" stroke="black" points="1452.96,-236.17 1461.71,-236.88 1456.73,-234.83 1460.5,-233.48 1460.5,-233.48 1460.5,-233.48 1456.73,-234.83 1459.29,-230.09 1452.96,-236.17 1452.96,-236.17"/>
<ellipse fill="none" stroke="black" cx="1449.95" cy="-237.24" rx="3.2" ry="3.2"/>
</g>
<!-- syst_credentials&#45;&gt;syst_enum_items -->
<g id="edge5" class="edge">
<title>syst_credentials:w&#45;&gt;syst_enum_items:e</title>
<path fill="none" stroke="black" d="M1446.79,-228.68C1437.58,-220.24 1436.87,-203.03 1420,-196.48 1356.19,-171.73 1334.42,-194.77 1266,-196.48 1026.22,-202.49 966.09,-204.29 727,-223.48 716.36,-224.34 705.2,-225.38 694.16,-226.5"/>
<polygon fill="black" stroke="black" points="1452.95,-230.84 1459.31,-236.88 1456.73,-232.16 1460.5,-233.48 1460.5,-233.48 1460.5,-233.48 1456.73,-232.16 1461.69,-230.09 1452.95,-230.84 1452.95,-230.84"/>
<ellipse fill="none" stroke="black" cx="1449.93" cy="-229.78" rx="3.2" ry="3.2"/>
</g>
<!-- syst_identities -->
<g id="node5" class="node">
<title>syst_identities</title>
<g id="a_node5"><a xlink:href="../../tables/syst_identities.html" xlink:title="syst_identities" target="_top">
<polygon fill="#ffffff" stroke="transparent" points="1274,-206.48 1274,-264.48 1412,-264.48 1412,-206.48 1274,-206.48"/>
<polygon fill="#f5f5f5" stroke="transparent" points="1274,-242.48 1274,-264.48 1412,-264.48 1412,-242.48 1274,-242.48"/>
<polygon fill="none" stroke="black" points="1274,-242.48 1274,-264.48 1412,-264.48 1412,-242.48 1274,-242.48"/>
<text text-anchor="start" x="1279" y="-251.68" font-family="Helvetica,sans-Serif" font-weight="bold" font-size="11.00">syst_identities</text>
<text text-anchor="start" x="1377" y="-250.68" font-family="Helvetica,sans-Serif" font-size="11.00">[table]</text>
<polygon fill="none" stroke="black" points="1274,-224.48 1274,-242.48 1412,-242.48 1412,-224.48 1274,-224.48"/>
<text text-anchor="start" x="1277" y="-230.68" font-family="Helvetica,sans-Serif" font-size="11.00">...</text>
<polygon fill="#ffffff" stroke="transparent" points="1274,-206.48 1274,-224.48 1336,-224.48 1336,-206.48 1274,-206.48"/>
<polygon fill="none" stroke="black" points="1274,-206.48 1274,-224.48 1336,-224.48 1336,-206.48 1274,-206.48"/>
<text text-anchor="start" x="1277" y="-212.68" font-family="Helvetica,sans-Serif" font-size="11.00">&lt; 3</text>
<polygon fill="#ffffff" stroke="transparent" points="1336,-206.48 1336,-224.48 1369,-224.48 1369,-206.48 1336,-206.48"/>
<polygon fill="none" stroke="black" points="1336,-206.48 1336,-224.48 1369,-224.48 1369,-206.48 1336,-206.48"/>
<text text-anchor="start" x="1359" y="-212.68" font-family="Helvetica,sans-Serif" font-size="11.00"> &#160;</text>
<polygon fill="#ffffff" stroke="transparent" points="1369,-206.48 1369,-224.48 1412,-224.48 1412,-206.48 1369,-206.48"/>
<polygon fill="none" stroke="black" points="1369,-206.48 1369,-224.48 1412,-224.48 1412,-206.48 1369,-206.48"/>
<text text-anchor="start" x="1393" y="-212.68" font-family="Helvetica,sans-Serif" font-size="11.00">2 &gt;</text>
</a>
</g>
</g>
<!-- syst_credentials&#45;&gt;syst_identities -->
<g id="edge4" class="edge">
<title>syst_credentials:w&#45;&gt;syst_identities:e</title>
<path fill="none" stroke="black" d="M1446.09,-233.48C1435.32,-233.48 1428.34,-233.48 1413,-233.48"/>
<polygon fill="black" stroke="black" points="1452.5,-233.48 1460.5,-237.08 1456.5,-233.48 1460.5,-233.48 1460.5,-233.48 1460.5,-233.48 1456.5,-233.48 1460.5,-229.88 1452.5,-233.48 1452.5,-233.48"/>
<ellipse fill="none" stroke="black" cx="1449.3" cy="-233.48" rx="3.2" ry="3.2"/>
</g>
<!-- syst_identities&#45;&gt;syst_access_accounts -->
<g id="edge9" class="edge">
<title>syst_identities:w&#45;&gt;syst_access_accounts:e</title>
<path fill="none" stroke="black" d="M1259.02,-238.21C1248.01,-247.11 1245.51,-265.48 1226.5,-265.48"/>
<polygon fill="black" stroke="black" points="1265.42,-236.04 1274.15,-236.9 1269.21,-234.76 1273,-233.48 1273,-233.48 1273,-233.48 1269.21,-234.76 1271.85,-230.07 1265.42,-236.04 1265.42,-236.04"/>
<ellipse fill="none" stroke="black" cx="1262.39" cy="-237.07" rx="3.2" ry="3.2"/>
</g>
<!-- syst_identities&#45;&gt;syst_enum_items -->
<g id="edge10" class="edge">
<title>syst_identities:w&#45;&gt;syst_enum_items:e</title>
<path fill="none" stroke="black" d="M1258.55,-232.43C1250.72,-231.2 1244.87,-229.25 1233,-228.48 1203.27,-226.57 728.96,-227.41 727,-227.48 716.37,-227.89 705.21,-228.5 694.17,-229.22"/>
<polygon fill="black" stroke="black" points="1265.02,-232.9 1272.74,-237.08 1269.01,-233.19 1273,-233.48 1273,-233.48 1273,-233.48 1269.01,-233.19 1273.26,-229.89 1265.02,-232.9 1265.02,-232.9"/>
<ellipse fill="none" stroke="black" cx="1261.83" cy="-232.67" rx="3.2" ry="3.2"/>
</g>
<!-- syst_enum_functional_types&#45;&gt;syst_enums -->
<g id="edge6" class="edge">
<title>syst_enum_functional_types:w&#45;&gt;syst_enums:e</title>
<path fill="none" stroke="black" d="M161.98,-317.82C120.78,-308.23 93.75,-259.33 79.68,-225.52"/>
<polygon fill="black" stroke="black" points="168.55,-318.57 176.09,-323.06 172.53,-319.03 176.5,-319.48 176.5,-319.48 176.5,-319.48 172.53,-319.03 176.91,-315.91 168.55,-318.57 168.55,-318.57"/>
<ellipse fill="none" stroke="black" cx="165.37" cy="-318.21" rx="3.2" ry="3.2"/>
</g>
<!-- syst_instance_type_applications -->
<g id="node8" class="node">
<title>syst_instance_type_applications</title>
<g id="a_node8"><a xlink:href="../../tables/syst_instance_type_applications.html" xlink:title="syst_instance_type_applications" target="_top">
<polygon fill="#ffffff" stroke="transparent" points="735,-100.48 735,-158.48 991,-158.48 991,-100.48 735,-100.48"/>
<polygon fill="#f5f5f5" stroke="transparent" points="735,-136.48 735,-158.48 991,-158.48 991,-136.48 735,-136.48"/>
<polygon fill="none" stroke="black" points="735,-136.48 735,-158.48 991,-158.48 991,-136.48 735,-136.48"/>
<text text-anchor="start" x="740" y="-145.68" font-family="Helvetica,sans-Serif" font-weight="bold" font-size="11.00">syst_instance_type_applications</text>
<text text-anchor="start" x="956" y="-144.68" font-family="Helvetica,sans-Serif" font-size="11.00">[table]</text>
<polygon fill="none" stroke="black" points="735,-118.48 735,-136.48 991,-136.48 991,-118.48 735,-118.48"/>
<text text-anchor="start" x="738" y="-124.68" font-family="Helvetica,sans-Serif" font-size="11.00">...</text>
<polygon fill="#ffffff" stroke="transparent" points="735,-100.48 735,-118.48 856,-118.48 856,-100.48 735,-100.48"/>
<polygon fill="none" stroke="black" points="735,-100.48 735,-118.48 856,-118.48 856,-100.48 735,-100.48"/>
<text text-anchor="start" x="738" y="-106.68" font-family="Helvetica,sans-Serif" font-size="11.00">&lt; 2</text>
<polygon fill="#ffffff" stroke="transparent" points="856,-100.48 856,-118.48 919,-118.48 919,-100.48 856,-100.48"/>
<polygon fill="none" stroke="black" points="856,-100.48 856,-118.48 919,-118.48 919,-100.48 856,-100.48"/>
<text text-anchor="start" x="909" y="-106.68" font-family="Helvetica,sans-Serif" font-size="11.00"> &#160;</text>
<polygon fill="#ffffff" stroke="transparent" points="919,-100.48 919,-118.48 991,-118.48 991,-100.48 919,-100.48"/>
<polygon fill="none" stroke="black" points="919,-100.48 919,-118.48 991,-118.48 991,-100.48 919,-100.48"/>
<text text-anchor="start" x="972" y="-106.68" font-family="Helvetica,sans-Serif" font-size="11.00">1 &gt;</text>
</a>
</g>
</g>
<!-- syst_instance_type_applications&#45;&gt;syst_enum_items -->
<g id="edge11" class="edge">
<title>syst_instance_type_applications:w&#45;&gt;syst_enum_items:e</title>
<path fill="none" stroke="black" d="M719.58,-128.88C679.73,-136.56 647.72,-174.51 628.71,-203.19"/>
<polygon fill="black" stroke="black" points="726.04,-128.25 734.35,-131.07 730.02,-127.87 734,-127.48 734,-127.48 734,-127.48 730.02,-127.87 733.65,-123.9 726.04,-128.25 726.04,-128.25"/>
<ellipse fill="none" stroke="black" cx="722.85" cy="-128.56" rx="3.2" ry="3.2"/>
</g>
<!-- syst_instances -->
<g id="node9" class="node">
<title>syst_instances</title>
<g id="a_node9"><a xlink:href="../../tables/syst_instances.html" xlink:title="syst_instances" target="_top">
<polygon fill="#ffffff" stroke="transparent" points="1063.5,-321.48 1063.5,-379.48 1201.5,-379.48 1201.5,-321.48 1063.5,-321.48"/>
<polygon fill="#f5f5f5" stroke="transparent" points="1063.5,-357.48 1063.5,-379.48 1201.5,-379.48 1201.5,-357.48 1063.5,-357.48"/>
<polygon fill="none" stroke="black" points="1063.5,-357.48 1063.5,-379.48 1201.5,-379.48 1201.5,-357.48 1063.5,-357.48"/>
<text text-anchor="start" x="1068.5" y="-366.68" font-family="Helvetica,sans-Serif" font-weight="bold" font-size="11.00">syst_instances</text>
<text text-anchor="start" x="1166.5" y="-365.68" font-family="Helvetica,sans-Serif" font-size="11.00">[table]</text>
<polygon fill="none" stroke="black" points="1063.5,-339.48 1063.5,-357.48 1201.5,-357.48 1201.5,-339.48 1063.5,-339.48"/>
<text text-anchor="start" x="1066.5" y="-345.68" font-family="Helvetica,sans-Serif" font-size="11.00">...</text>
<polygon fill="#ffffff" stroke="transparent" points="1063.5,-321.48 1063.5,-339.48 1125.5,-339.48 1125.5,-321.48 1063.5,-321.48"/>
<polygon fill="none" stroke="black" points="1063.5,-321.48 1063.5,-339.48 1125.5,-339.48 1125.5,-321.48 1063.5,-321.48"/>
<text text-anchor="start" x="1066.5" y="-327.68" font-family="Helvetica,sans-Serif" font-size="11.00">&lt; 5</text>
<polygon fill="#ffffff" stroke="transparent" points="1125.5,-321.48 1125.5,-339.48 1158.5,-339.48 1158.5,-321.48 1125.5,-321.48"/>
<polygon fill="none" stroke="black" points="1125.5,-321.48 1125.5,-339.48 1158.5,-339.48 1158.5,-321.48 1125.5,-321.48"/>
<text text-anchor="start" x="1148.5" y="-327.68" font-family="Helvetica,sans-Serif" font-size="11.00"> &#160;</text>
<polygon fill="#ffffff" stroke="transparent" points="1158.5,-321.48 1158.5,-339.48 1201.5,-339.48 1201.5,-321.48 1158.5,-321.48"/>
<polygon fill="none" stroke="black" points="1158.5,-321.48 1158.5,-339.48 1201.5,-339.48 1201.5,-321.48 1158.5,-321.48"/>
<text text-anchor="start" x="1182.5" y="-327.68" font-family="Helvetica,sans-Serif" font-size="11.00">4 &gt;</text>
</a>
</g>
</g>
<!-- syst_instances&#45;&gt;syst_enum_items -->
<g id="edge12" class="edge">
<title>syst_instances:w&#45;&gt;syst_enum_items:e</title>
<path fill="none" stroke="black" d="M1047.96,-348.01C909.96,-344.65 861.98,-374.76 727,-323.48 696.24,-311.8 667.18,-288.95 645.67,-269.55"/>
<polygon fill="black" stroke="black" points="1054.5,-348.23 1062.38,-352.08 1058.5,-348.36 1062.5,-348.48 1062.5,-348.48 1062.5,-348.48 1058.5,-348.36 1062.62,-344.89 1054.5,-348.23 1054.5,-348.23"/>
<ellipse fill="none" stroke="black" cx="1051.31" cy="-348.12" rx="3.2" ry="3.2"/>
</g>
<!-- syst_instances&#45;&gt;syst_enum_items -->
<g id="edge13" class="edge">
<title>syst_instances:w&#45;&gt;syst_enum_items:e</title>
<path fill="none" stroke="black" d="M1047.96,-349.27C909.96,-357.65 861.98,-387.76 727,-336.48 690.52,-322.63 656.45,-293.08 634.49,-269.58"/>
<polygon fill="black" stroke="black" points="1054.51,-348.91 1062.69,-352.08 1058.51,-348.7 1062.5,-348.48 1062.5,-348.48 1062.5,-348.48 1058.51,-348.7 1062.31,-344.89 1054.51,-348.91 1054.51,-348.91"/>
<ellipse fill="none" stroke="black" cx="1051.32" cy="-349.09" rx="3.2" ry="3.2"/>
</g>
<!-- syst_instances&#45;&gt;syst_owners -->
<g id="edge14" class="edge">
<title>syst_instances:w&#45;&gt;syst_owners:e</title>
<path fill="none" stroke="black" d="M1047.93,-347.43C994.67,-339.33 986.63,-287.48 925,-287.48"/>
<polygon fill="black" stroke="black" points="1054.52,-347.91 1062.24,-352.08 1058.51,-348.2 1062.5,-348.48 1062.5,-348.48 1062.5,-348.48 1058.51,-348.2 1062.76,-344.89 1054.52,-347.91 1054.52,-347.91"/>
<ellipse fill="none" stroke="black" cx="1051.33" cy="-347.67" rx="3.2" ry="3.2"/>
</g>
</g>
</svg>
