<?xml version="1.0" encoding="UTF-8" standalone="no"?>
<!DOCTYPE svg PUBLIC "-//W3C//DTD SVG 1.1//EN"
 "http://www.w3.org/Graphics/SVG/1.1/DTD/svg11.dtd">
<!-- Generated by graphviz version 2.43.0 (0)
 -->
<!-- Title: twoDegreesRelationshipsDiagram Pages: 1 -->
<svg width="1702pt" height="754pt"
 viewBox="0.00 0.00 1702.00 753.83" xmlns="http://www.w3.org/2000/svg" xmlns:xlink="http://www.w3.org/1999/xlink">
<g id="graph0" class="graph" transform="scale(1 1) rotate(0) translate(4 749.83)">
<title>twoDegreesRelationshipsDiagram</title>
<polygon fill="#ffffff" stroke="transparent" points="-4,4 -4,-749.83 1698,-749.83 1698,4 -4,4"/>
<text text-anchor="middle" x="71.5" y="-7.2" font-family="Helvetica,sans-Serif" font-size="11.00">Generated by SchemaSpy</text>
<!-- syst_access_account_instance_assocs -->
<g id="node1" class="node">
<title>syst_access_account_instance_assocs</title>
<g id="a_node1"><a xlink:href="../../tables/syst_access_account_instance_assocs.html" xlink:title="syst_access_account_instance_assocs" target="_top">
<polygon fill="#ffffff" stroke="transparent" points="1196,-578 1196,-636 1488,-636 1488,-578 1196,-578"/>
<polygon fill="#f5f5f5" stroke="transparent" points="1196,-614 1196,-636 1488,-636 1488,-614 1196,-614"/>
<polygon fill="none" stroke="black" points="1196,-614 1196,-636 1488,-636 1488,-614 1196,-614"/>
<text text-anchor="start" x="1201" y="-623.2" font-family="Helvetica,sans-Serif" font-weight="bold" font-size="11.00">syst_access_account_instance_assocs</text>
<text text-anchor="start" x="1453" y="-622.2" font-family="Helvetica,sans-Serif" font-size="11.00">[table]</text>
<polygon fill="none" stroke="black" points="1196,-596 1196,-614 1488,-614 1488,-596 1196,-596"/>
<text text-anchor="start" x="1199" y="-602.2" font-family="Helvetica,sans-Serif" font-size="11.00">...</text>
<polygon fill="#ffffff" stroke="transparent" points="1196,-578 1196,-596 1340,-596 1340,-578 1196,-578"/>
<polygon fill="none" stroke="black" points="1196,-578 1196,-596 1340,-596 1340,-578 1196,-578"/>
<text text-anchor="start" x="1199" y="-584.2" font-family="Helvetica,sans-Serif" font-size="11.00">&lt; 2</text>
<polygon fill="#ffffff" stroke="transparent" points="1340,-578 1340,-596 1414,-596 1414,-578 1340,-578"/>
<polygon fill="none" stroke="black" points="1340,-578 1340,-596 1414,-596 1414,-578 1340,-578"/>
<text text-anchor="start" x="1404" y="-584.2" font-family="Helvetica,sans-Serif" font-size="11.00"> &#160;</text>
<polygon fill="#ffffff" stroke="transparent" points="1414,-578 1414,-596 1488,-596 1488,-578 1414,-578"/>
<polygon fill="none" stroke="black" points="1414,-578 1414,-596 1488,-596 1488,-578 1414,-578"/>
<text text-anchor="start" x="1478" y="-584.2" font-family="Helvetica,sans-Serif" font-size="11.00"> &#160;</text>
</a>
</g>
</g>
<!-- syst_access_accounts -->
<g id="node2" class="node">
<title>syst_access_accounts</title>
<g id="a_node2"><a xlink:href="../../tables/syst_access_accounts.html" xlink:title="syst_access_accounts" target="_top">
<polygon fill="#ffffff" stroke="transparent" points="962,-493 962,-551 1147,-551 1147,-493 962,-493"/>
<polygon fill="#f5f5f5" stroke="transparent" points="962.5,-529 962.5,-551 1147.5,-551 1147.5,-529 962.5,-529"/>
<polygon fill="none" stroke="black" points="962.5,-529 962.5,-551 1147.5,-551 1147.5,-529 962.5,-529"/>
<text text-anchor="start" x="967.5" y="-538.2" font-family="Helvetica,sans-Serif" font-weight="bold" font-size="11.00">syst_access_accounts</text>
<text text-anchor="start" x="1112.5" y="-537.2" font-family="Helvetica,sans-Serif" font-size="11.00">[table]</text>
<polygon fill="none" stroke="black" points="962.5,-511 962.5,-529 1147.5,-529 1147.5,-511 962.5,-511"/>
<text text-anchor="start" x="965.5" y="-517.2" font-family="Helvetica,sans-Serif" font-size="11.00">...</text>
<polygon fill="#ffffff" stroke="transparent" points="962.5,-493 962.5,-511 1048.5,-511 1048.5,-493 962.5,-493"/>
<polygon fill="none" stroke="black" points="962.5,-493 962.5,-511 1048.5,-511 1048.5,-493 962.5,-493"/>
<text text-anchor="start" x="965.5" y="-499.2" font-family="Helvetica,sans-Serif" font-size="11.00">&lt; 2</text>
<polygon fill="#ffffff" stroke="transparent" points="1048.5,-493 1048.5,-511 1093.5,-511 1093.5,-493 1048.5,-493"/>
<polygon fill="none" stroke="black" points="1048.5,-493 1048.5,-511 1093.5,-511 1093.5,-493 1048.5,-493"/>
<text text-anchor="start" x="1083.5" y="-499.2" font-family="Helvetica,sans-Serif" font-size="11.00"> &#160;</text>
<polygon fill="#ffffff" stroke="transparent" points="1093.5,-493 1093.5,-511 1147.5,-511 1147.5,-493 1093.5,-493"/>
<polygon fill="none" stroke="black" points="1093.5,-493 1093.5,-511 1147.5,-511 1147.5,-493 1093.5,-493"/>
<text text-anchor="start" x="1128.5" y="-499.2" font-family="Helvetica,sans-Serif" font-size="11.00">4 &gt;</text>
</a>
</g>
</g>
<!-- syst_access_account_instance_assocs&#45;&gt;syst_access_accounts -->
<g id="edge1" class="edge">
<title>syst_access_account_instance_assocs:w&#45;&gt;syst_access_accounts:e</title>
<path fill="none" stroke="black" d="M1181.06,-600.88C1171.4,-593.54 1169.94,-578 1155,-568 1148.2,-563.45 1140.88,-559.13 1133.4,-555.09"/>
<polygon fill="black" stroke="black" points="1187.33,-602.73 1193.98,-608.45 1191.16,-603.87 1195,-605 1195,-605 1195,-605 1191.16,-603.87 1196.02,-601.55 1187.33,-602.73 1187.33,-602.73"/>
<ellipse fill="none" stroke="black" cx="1184.26" cy="-601.83" rx="3.2" ry="3.2"/>
</g>
<!-- syst_instances -->
<g id="node3" class="node">
<title>syst_instances</title>
<g id="a_node3"><a xlink:href="../../tables/syst_instances.html" xlink:title="syst_instances" target="_top">
<polygon fill="#ffffff" stroke="transparent" points="985.5,-578 985.5,-636 1123.5,-636 1123.5,-578 985.5,-578"/>
<polygon fill="#f5f5f5" stroke="transparent" points="985.5,-614 985.5,-636 1123.5,-636 1123.5,-614 985.5,-614"/>
<polygon fill="none" stroke="black" points="985.5,-614 985.5,-636 1123.5,-636 1123.5,-614 985.5,-614"/>
<text text-anchor="start" x="990.5" y="-623.2" font-family="Helvetica,sans-Serif" font-weight="bold" font-size="11.00">syst_instances</text>
<text text-anchor="start" x="1088.5" y="-622.2" font-family="Helvetica,sans-Serif" font-size="11.00">[table]</text>
<polygon fill="none" stroke="black" points="985.5,-596 985.5,-614 1123.5,-614 1123.5,-596 985.5,-596"/>
<text text-anchor="start" x="988.5" y="-602.2" font-family="Helvetica,sans-Serif" font-size="11.00">...</text>
<polygon fill="#ffffff" stroke="transparent" points="985.5,-578 985.5,-596 1047.5,-596 1047.5,-578 985.5,-578"/>
<polygon fill="none" stroke="black" points="985.5,-578 985.5,-596 1047.5,-596 1047.5,-578 985.5,-578"/>
<text text-anchor="start" x="988.5" y="-584.2" font-family="Helvetica,sans-Serif" font-size="11.00">&lt; 5</text>
<polygon fill="#ffffff" stroke="transparent" points="1047.5,-578 1047.5,-596 1080.5,-596 1080.5,-578 1047.5,-578"/>
<polygon fill="none" stroke="black" points="1047.5,-578 1047.5,-596 1080.5,-596 1080.5,-578 1047.5,-578"/>
<text text-anchor="start" x="1070.5" y="-584.2" font-family="Helvetica,sans-Serif" font-size="11.00"> &#160;</text>
<polygon fill="#ffffff" stroke="transparent" points="1080.5,-578 1080.5,-596 1123.5,-596 1123.5,-578 1080.5,-578"/>
<polygon fill="none" stroke="black" points="1080.5,-578 1080.5,-596 1123.5,-596 1123.5,-578 1080.5,-578"/>
<text text-anchor="start" x="1104.5" y="-584.2" font-family="Helvetica,sans-Serif" font-size="11.00">4 &gt;</text>
</a>
</g>
</g>
<!-- syst_access_account_instance_assocs&#45;&gt;syst_instances -->
<g id="edge2" class="edge">
<title>syst_access_account_instance_assocs:w&#45;&gt;syst_instances:e</title>
<path fill="none" stroke="black" d="M1180.4,-605C1160.19,-605 1150.33,-605 1124.5,-605"/>
<polygon fill="black" stroke="black" points="1187,-605 1195,-608.6 1191,-605 1195,-605 1195,-605 1195,-605 1191,-605 1195,-601.4 1187,-605 1187,-605"/>
<ellipse fill="none" stroke="black" cx="1183.8" cy="-605" rx="3.2" ry="3.2"/>
</g>
<!-- syst_enum_items -->
<g id="node4" class="node">
<title>syst_enum_items</title>
<g id="a_node4"><a xlink:href="../../tables/syst_enum_items.html" xlink:title="syst_enum_items" target="_top">
<polygon fill="#ffffff" stroke="transparent" points="453,-515 453,-573 608,-573 608,-515 453,-515"/>
<polygon fill="#f5f5f5" stroke="transparent" points="453.5,-551 453.5,-573 608.5,-573 608.5,-551 453.5,-551"/>
<polygon fill="none" stroke="black" points="453.5,-551 453.5,-573 608.5,-573 608.5,-551 453.5,-551"/>
<text text-anchor="start" x="458.5" y="-560.2" font-family="Helvetica,sans-Serif" font-weight="bold" font-size="11.00">syst_enum_items</text>
<text text-anchor="start" x="573.5" y="-559.2" font-family="Helvetica,sans-Serif" font-size="11.00">[table]</text>
<polygon fill="none" stroke="black" points="453.5,-533 453.5,-551 608.5,-551 608.5,-533 453.5,-533"/>
<text text-anchor="start" x="456.5" y="-539.2" font-family="Helvetica,sans-Serif" font-size="11.00">...</text>
<polygon fill="#ffffff" stroke="transparent" points="453.5,-515 453.5,-533 524.5,-533 524.5,-515 453.5,-515"/>
<polygon fill="none" stroke="black" points="453.5,-515 453.5,-533 524.5,-533 524.5,-515 453.5,-515"/>
<text text-anchor="start" x="456.5" y="-521.2" font-family="Helvetica,sans-Serif" font-size="11.00">&lt; 2</text>
<polygon fill="#ffffff" stroke="transparent" points="524.5,-515 524.5,-533 561.5,-533 561.5,-515 524.5,-515"/>
<polygon fill="none" stroke="black" points="524.5,-515 524.5,-533 561.5,-533 561.5,-515 524.5,-515"/>
<text text-anchor="start" x="551.5" y="-521.2" font-family="Helvetica,sans-Serif" font-size="11.00"> &#160;</text>
<polygon fill="#ffffff" stroke="transparent" points="561.5,-515 561.5,-533 608.5,-533 608.5,-515 561.5,-515"/>
<polygon fill="none" stroke="black" points="561.5,-515 561.5,-533 608.5,-533 608.5,-515 561.5,-515"/>
<text text-anchor="start" x="589.5" y="-521.2" font-family="Helvetica,sans-Serif" font-size="11.00">7 &gt;</text>
</a>
</g>
</g>
<!-- syst_access_accounts&#45;&gt;syst_enum_items -->
<g id="edge3" class="edge">
<title>syst_access_accounts:w&#45;&gt;syst_enum_items:e</title>
<path fill="none" stroke="black" d="M939.66,-506.36C858.24,-497.95 746.3,-492.04 649,-507 638.22,-508.66 627.07,-511.12 616.13,-514.01"/>
<polygon fill="black" stroke="black" points="946.03,-507.04 953.6,-511.48 950.01,-507.47 953.99,-507.9 953.99,-507.9 953.99,-507.9 950.01,-507.47 954.37,-504.32 946.03,-507.04 946.03,-507.04"/>
<ellipse fill="none" stroke="black" cx="942.85" cy="-506.7" rx="3.2" ry="3.2"/>
</g>
<!-- syst_owners -->
<g id="node5" class="node">
<title>syst_owners</title>
<g id="a_node5"><a xlink:href="../../tables/syst_owners.html" xlink:title="syst_owners" target="_top">
<polygon fill="#ffffff" stroke="transparent" points="724,-517 724,-575 846,-575 846,-517 724,-517"/>
<polygon fill="#f5f5f5" stroke="transparent" points="724,-553 724,-575 846,-575 846,-553 724,-553"/>
<polygon fill="none" stroke="black" points="724,-553 724,-575 846,-575 846,-553 724,-553"/>
<text text-anchor="start" x="729" y="-562.2" font-family="Helvetica,sans-Serif" font-weight="bold" font-size="11.00">syst_owners</text>
<text text-anchor="start" x="811" y="-561.2" font-family="Helvetica,sans-Serif" font-size="11.00">[table]</text>
<polygon fill="none" stroke="black" points="724,-535 724,-553 846,-553 846,-535 724,-535"/>
<text text-anchor="start" x="727" y="-541.2" font-family="Helvetica,sans-Serif" font-size="11.00">...</text>
<polygon fill="#ffffff" stroke="transparent" points="724,-517 724,-535 778,-535 778,-517 724,-517"/>
<polygon fill="none" stroke="black" points="724,-517 724,-535 778,-535 778,-517 724,-517"/>
<text text-anchor="start" x="727" y="-523.2" font-family="Helvetica,sans-Serif" font-size="11.00">&lt; 1</text>
<polygon fill="#ffffff" stroke="transparent" points="778,-517 778,-535 807,-535 807,-517 778,-517"/>
<polygon fill="none" stroke="black" points="778,-517 778,-535 807,-535 807,-517 778,-517"/>
<text text-anchor="start" x="797" y="-523.2" font-family="Helvetica,sans-Serif" font-size="11.00"> &#160;</text>
<polygon fill="#ffffff" stroke="transparent" points="807,-517 807,-535 846,-535 846,-517 807,-517"/>
<polygon fill="none" stroke="black" points="807,-517 807,-535 846,-535 846,-517 807,-517"/>
<text text-anchor="start" x="827" y="-523.2" font-family="Helvetica,sans-Serif" font-size="11.00">4 &gt;</text>
</a>
</g>
</g>
<!-- syst_access_accounts&#45;&gt;syst_owners -->
<g id="edge4" class="edge">
<title>syst_access_accounts:w&#45;&gt;syst_owners:e</title>
<path fill="none" stroke="black" d="M939.43,-538.52C909.43,-541.67 877.05,-544 847,-544"/>
<polygon fill="black" stroke="black" points="946,-537.8 954.34,-540.5 949.97,-537.36 953.95,-536.92 953.95,-536.92 953.95,-536.92 949.97,-537.36 953.55,-533.34 946,-537.8 946,-537.8"/>
<ellipse fill="none" stroke="black" cx="942.81" cy="-538.15" rx="3.2" ry="3.2"/>
</g>
<!-- syst_instances&#45;&gt;syst_enum_items -->
<g id="edge15" class="edge">
<title>syst_instances:w&#45;&gt;syst_enum_items:e</title>
<path fill="none" stroke="black" d="M969.98,-604.46C832.39,-599.66 790.51,-608.68 649,-580 638.17,-577.81 626.99,-574.82 616.04,-571.49"/>
<polygon fill="black" stroke="black" points="976.51,-604.7 984.37,-608.6 980.5,-604.85 984.5,-605 984.5,-605 984.5,-605 980.5,-604.85 984.63,-601.4 976.51,-604.7 976.51,-604.7"/>
<ellipse fill="none" stroke="black" cx="973.31" cy="-604.58" rx="3.2" ry="3.2"/>
</g>
<!-- syst_instances&#45;&gt;syst_enum_items -->
<g id="edge16" class="edge">
<title>syst_instances:w&#45;&gt;syst_enum_items:e</title>
<path fill="none" stroke="black" d="M969.98,-605.71C832.39,-612.66 790.51,-621.68 649,-593 630.95,-589.34 611.94,-583.48 594.58,-577.03"/>
<polygon fill="black" stroke="black" points="976.51,-605.39 984.68,-608.6 980.5,-605.19 984.5,-605 984.5,-605 984.5,-605 980.5,-605.19 984.32,-601.4 976.51,-605.39 976.51,-605.39"/>
<ellipse fill="none" stroke="black" cx="973.31" cy="-605.55" rx="3.2" ry="3.2"/>
</g>
<!-- syst_instances&#45;&gt;syst_owners -->
<g id="edge17" class="edge">
<title>syst_instances:w&#45;&gt;syst_owners:e</title>
<path fill="none" stroke="black" d="M969.93,-603.94C916.67,-595.84 908.63,-544 847,-544"/>
<polygon fill="black" stroke="black" points="976.52,-604.42 984.24,-608.59 980.51,-604.71 984.5,-605 984.5,-605 984.5,-605 980.51,-604.71 984.76,-601.41 976.52,-604.42 976.52,-604.42"/>
<ellipse fill="none" stroke="black" cx="973.33" cy="-604.19" rx="3.2" ry="3.2"/>
</g>
<!-- syst_enum_functional_types -->
<g id="node8" class="node">
<title>syst_enum_functional_types</title>
<g id="a_node8"><a xlink:href="../../tables/syst_enum_functional_types.html" xlink:title="syst_enum_functional_types" target="_top">
<polygon fill="#ffffff" stroke="transparent" points="175,-543 175,-601 404,-601 404,-543 175,-543"/>
<polygon fill="#f5f5f5" stroke="transparent" points="175.5,-579 175.5,-601 404.5,-601 404.5,-579 175.5,-579"/>
<polygon fill="none" stroke="black" points="175.5,-579 175.5,-601 404.5,-601 404.5,-579 175.5,-579"/>
<text text-anchor="start" x="180.5" y="-588.2" font-family="Helvetica,sans-Serif" font-weight="bold" font-size="11.00">syst_enum_functional_types</text>
<text text-anchor="start" x="369.5" y="-587.2" font-family="Helvetica,sans-Serif" font-size="11.00">[table]</text>
<polygon fill="none" stroke="black" points="175.5,-561 175.5,-579 404.5,-579 404.5,-561 175.5,-561"/>
<text text-anchor="start" x="178.5" y="-567.2" font-family="Helvetica,sans-Serif" font-size="11.00">...</text>
<polygon fill="#ffffff" stroke="transparent" points="175.5,-543 175.5,-561 283.5,-561 283.5,-543 175.5,-543"/>
<polygon fill="none" stroke="black" points="175.5,-543 175.5,-561 283.5,-561 283.5,-543 175.5,-543"/>
<text text-anchor="start" x="178.5" y="-549.2" font-family="Helvetica,sans-Serif" font-size="11.00">&lt; 1</text>
<polygon fill="#ffffff" stroke="transparent" points="283.5,-543 283.5,-561 339.5,-561 339.5,-543 283.5,-543"/>
<polygon fill="none" stroke="black" points="283.5,-543 283.5,-561 339.5,-561 339.5,-543 283.5,-543"/>
<text text-anchor="start" x="329.5" y="-549.2" font-family="Helvetica,sans-Serif" font-size="11.00"> &#160;</text>
<polygon fill="#ffffff" stroke="transparent" points="339.5,-543 339.5,-561 404.5,-561 404.5,-543 339.5,-543"/>
<polygon fill="none" stroke="black" points="339.5,-543 339.5,-561 404.5,-561 404.5,-543 339.5,-543"/>
<text text-anchor="start" x="385.5" y="-549.2" font-family="Helvetica,sans-Serif" font-size="11.00">1 &gt;</text>
</a>
</g>
</g>
<!-- syst_enum_items&#45;&gt;syst_enum_functional_types -->
<g id="edge10" class="edge">
<title>syst_enum_items:w&#45;&gt;syst_enum_functional_types:e</title>
<path fill="none" stroke="black" d="M430.4,-568.53C422.02,-569.46 413.64,-570 405.5,-570"/>
<polygon fill="black" stroke="black" points="437.02,-567.63 445.43,-570.11 440.98,-567.09 444.94,-566.55 444.94,-566.55 444.94,-566.55 440.98,-567.09 444.46,-562.98 437.02,-567.63 437.02,-567.63"/>
<ellipse fill="none" stroke="black" cx="433.84" cy="-568.06" rx="3.2" ry="3.2"/>
</g>
<!-- syst_enums -->
<g id="node9" class="node">
<title>syst_enums</title>
<g id="a_node9"><a xlink:href="../../tables/syst_enums.html" xlink:title="syst_enums" target="_top">
<polygon fill="#ffffff" stroke="transparent" points="8,-517 8,-575 126,-575 126,-517 8,-517"/>
<polygon fill="#f5f5f5" stroke="transparent" points="8,-553 8,-575 126,-575 126,-553 8,-553"/>
<polygon fill="none" stroke="black" points="8,-553 8,-575 126,-575 126,-553 8,-553"/>
<text text-anchor="start" x="13" y="-562.2" font-family="Helvetica,sans-Serif" font-weight="bold" font-size="11.00">syst_enums</text>
<text text-anchor="start" x="91" y="-561.2" font-family="Helvetica,sans-Serif" font-size="11.00">[table]</text>
<polygon fill="none" stroke="black" points="8,-535 8,-553 126,-553 126,-535 8,-535"/>
<text text-anchor="start" x="11" y="-541.2" font-family="Helvetica,sans-Serif" font-size="11.00">...</text>
<polygon fill="#ffffff" stroke="transparent" points="8,-517 8,-535 56,-535 56,-517 8,-517"/>
<polygon fill="none" stroke="black" points="8,-517 8,-535 56,-535 56,-517 8,-517"/>
<text text-anchor="start" x="11" y="-523.2" font-family="Helvetica,sans-Serif" font-size="11.00"> &#160;</text>
<polygon fill="#ffffff" stroke="transparent" points="56,-517 56,-535 86,-535 86,-517 56,-517"/>
<polygon fill="none" stroke="black" points="56,-517 56,-535 86,-535 86,-517 56,-517"/>
<text text-anchor="start" x="76" y="-523.2" font-family="Helvetica,sans-Serif" font-size="11.00"> &#160;</text>
<polygon fill="#ffffff" stroke="transparent" points="86,-517 86,-535 126,-535 126,-517 86,-517"/>
<polygon fill="none" stroke="black" points="86,-517 86,-535 126,-535 126,-517 86,-517"/>
<text text-anchor="start" x="107" y="-523.2" font-family="Helvetica,sans-Serif" font-size="11.00">2 &gt;</text>
</a>
</g>
</g>
<!-- syst_enum_items&#45;&gt;syst_enums -->
<g id="edge9" class="edge">
<title>syst_enum_items:w&#45;&gt;syst_enums:e</title>
<path fill="none" stroke="black" d="M430.34,-534.06C424.14,-533.64 417.99,-533.28 412,-533 303.23,-527.92 274.91,-518.43 167,-533 148.73,-535.47 145.44,-544 127,-544"/>
<polygon fill="black" stroke="black" points="436.87,-534.54 444.58,-538.71 440.86,-534.83 444.85,-535.12 444.85,-535.12 444.85,-535.12 440.86,-534.83 445.11,-531.53 436.87,-534.54 436.87,-534.54"/>
<ellipse fill="none" stroke="black" cx="433.68" cy="-534.3" rx="3.2" ry="3.2"/>
</g>
<!-- syst_owners&#45;&gt;syst_enum_items -->
<g id="edge18" class="edge">
<title>syst_owners:w&#45;&gt;syst_enum_items:e</title>
<path fill="none" stroke="black" d="M708.5,-544C677.66,-544 645.06,-544 616.34,-544"/>
<polygon fill="black" stroke="black" points="715,-544 723,-547.6 719,-544 723,-544 723,-544 723,-544 719,-544 723,-540.4 715,-544 715,-544"/>
<ellipse fill="none" stroke="black" cx="711.8" cy="-544" rx="3.2" ry="3.2"/>
</g>
<!-- syst_credentials -->
<g id="node6" class="node">
<title>syst_credentials</title>
<g id="a_node6"><a xlink:href="../../tables/syst_credentials.html" xlink:title="syst_credentials" target="_top">
<polygon fill="#ffffff" stroke="transparent" points="1537,-446 1537,-504 1686,-504 1686,-446 1537,-446"/>
<polygon fill="#f5f5f5" stroke="transparent" points="1537.5,-482 1537.5,-504 1686.5,-504 1686.5,-482 1537.5,-482"/>
<polygon fill="none" stroke="black" points="1537.5,-482 1537.5,-504 1686.5,-504 1686.5,-482 1537.5,-482"/>
<text text-anchor="start" x="1542.5" y="-491.2" font-family="Helvetica,sans-Serif" font-weight="bold" font-size="11.00">syst_credentials</text>
<text text-anchor="start" x="1651.5" y="-490.2" font-family="Helvetica,sans-Serif" font-size="11.00">[table]</text>
<polygon fill="none" stroke="black" points="1537.5,-464 1537.5,-482 1686.5,-482 1686.5,-464 1537.5,-464"/>
<text text-anchor="start" x="1540.5" y="-470.2" font-family="Helvetica,sans-Serif" font-size="11.00">...</text>
<polygon fill="#ffffff" stroke="transparent" points="1537.5,-446 1537.5,-464 1609.5,-464 1609.5,-446 1537.5,-446"/>
<polygon fill="none" stroke="black" points="1537.5,-446 1537.5,-464 1609.5,-464 1609.5,-446 1537.5,-446"/>
<text text-anchor="start" x="1540.5" y="-452.2" font-family="Helvetica,sans-Serif" font-size="11.00">&lt; 3</text>
<polygon fill="#ffffff" stroke="transparent" points="1609.5,-446 1609.5,-464 1647.5,-464 1647.5,-446 1609.5,-446"/>
<polygon fill="none" stroke="black" points="1609.5,-446 1609.5,-464 1647.5,-464 1647.5,-446 1609.5,-446"/>
<text text-anchor="start" x="1637.5" y="-452.2" font-family="Helvetica,sans-Serif" font-size="11.00"> &#160;</text>
<polygon fill="#ffffff" stroke="transparent" points="1647.5,-446 1647.5,-464 1686.5,-464 1686.5,-446 1647.5,-446"/>
<polygon fill="none" stroke="black" points="1647.5,-446 1647.5,-464 1686.5,-464 1686.5,-446 1647.5,-446"/>
<text text-anchor="start" x="1676.5" y="-452.2" font-family="Helvetica,sans-Serif" font-size="11.00"> &#160;</text>
</a>
</g>
</g>
<!-- syst_credentials&#45;&gt;syst_access_accounts -->
<g id="edge5" class="edge">
<title>syst_credentials:w&#45;&gt;syst_access_accounts:e</title>
<path fill="none" stroke="black" d="M1514.2,-472.44C1428.24,-471.52 1299.14,-473.5 1188,-489 1177.32,-490.49 1166.25,-492.49 1155.26,-494.78"/>
<polygon fill="black" stroke="black" points="1520.67,-472.52 1528.63,-476.23 1524.67,-472.57 1528.67,-472.63 1528.67,-472.63 1528.67,-472.63 1524.67,-472.57 1528.72,-469.03 1520.67,-472.52 1520.67,-472.52"/>
<ellipse fill="none" stroke="black" cx="1517.47" cy="-472.48" rx="3.2" ry="3.2"/>
</g>
<!-- syst_credentials&#45;&gt;syst_enum_items -->
<g id="edge7" class="edge">
<title>syst_credentials:w&#45;&gt;syst_enum_items:e</title>
<path fill="none" stroke="black" d="M1594.01,-521.86C1576.69,-563.16 1545.04,-620.73 1496,-647 1163.87,-824.89 1006.71,-730.32 649,-612 624.27,-603.82 599,-590.03 578.26,-577"/>
<polygon fill="black" stroke="black" points="1596.48,-515.7 1602.79,-509.61 1597.96,-511.99 1599.45,-508.28 1599.45,-508.28 1599.45,-508.28 1597.96,-511.99 1596.11,-506.94 1596.48,-515.7 1596.48,-515.7"/>
<ellipse fill="none" stroke="black" cx="1595.29" cy="-518.68" rx="3.2" ry="3.2"/>
</g>
<!-- syst_identities -->
<g id="node7" class="node">
<title>syst_identities</title>
<g id="a_node7"><a xlink:href="../../tables/syst_identities.html" xlink:title="syst_identities" target="_top">
<polygon fill="#ffffff" stroke="transparent" points="1196.5,-37 1196.5,-433 1487.5,-433 1487.5,-37 1196.5,-37"/>
<polygon fill="#f5f5f5" stroke="transparent" points="1199,-409 1199,-431 1486,-431 1486,-409 1199,-409"/>
<polygon fill="none" stroke="black" points="1199,-409 1199,-431 1486,-431 1486,-409 1199,-409"/>
<text text-anchor="start" x="1204" y="-418.2" font-family="Helvetica,sans-Serif" font-weight="bold" font-size="11.00">syst_identities</text>
<text text-anchor="start" x="1451" y="-417.2" font-family="Helvetica,sans-Serif" font-size="11.00">[table]</text>
<polygon fill="none" stroke="black" points="1199,-387 1199,-409 1393,-409 1393,-387 1199,-387"/>
<image xlink:href="../../images/primaryKeys.png" width="11px" height="12px" preserveAspectRatio="xMinYMin meet" x="1204" y="-404"/>
<text text-anchor="start" x="1219" y="-395.2" font-family="Helvetica,sans-Serif" font-size="11.00">id</text>
<polygon fill="none" stroke="black" points="1393,-387 1393,-409 1486,-409 1486,-387 1393,-387"/>
<text text-anchor="start" x="1396" y="-395.2" font-family="Helvetica,sans-Serif" font-size="11.00">uuid[2147483647]</text>
<polygon fill="#ffffff" stroke="transparent" points="1199,-365 1199,-387 1393,-387 1393,-365 1199,-365"/>
<polygon fill="none" stroke="black" points="1199,-365 1199,-387 1393,-387 1393,-365 1199,-365"/>
<image xlink:href="../../images/foreignKeys.png" width="11px" height="12px" preserveAspectRatio="xMinYMin meet" x="1204" y="-382"/>
<text text-anchor="start" x="1219" y="-373.2" font-family="Helvetica,sans-Serif" font-size="11.00">access_account_id</text>
<polygon fill="none" stroke="black" points="1393,-365 1393,-387 1486,-387 1486,-365 1393,-365"/>
<text text-anchor="start" x="1396" y="-373.2" font-family="Helvetica,sans-Serif" font-size="11.00">uuid[2147483647]</text>
<polygon fill="#ffffff" stroke="transparent" points="1199,-343 1199,-365 1393,-365 1393,-343 1199,-343"/>
<polygon fill="none" stroke="black" points="1199,-343 1199,-365 1393,-365 1393,-343 1199,-343"/>
<image xlink:href="../../images/foreignKeys.png" width="11px" height="12px" preserveAspectRatio="xMinYMin meet" x="1204" y="-360"/>
<text text-anchor="start" x="1219" y="-351.2" font-family="Helvetica,sans-Serif" font-size="11.00">identity_type_id</text>
<polygon fill="none" stroke="black" points="1393,-343 1393,-365 1486,-365 1486,-343 1393,-343"/>
<text text-anchor="start" x="1396" y="-351.2" font-family="Helvetica,sans-Serif" font-size="11.00">uuid[2147483647]</text>
<polygon fill="#ffffff" stroke="transparent" points="1199,-321 1199,-343 1393,-343 1393,-321 1199,-321"/>
<polygon fill="none" stroke="black" points="1199,-321 1199,-343 1393,-343 1393,-321 1199,-321"/>
<text text-anchor="start" x="1219" y="-329.2" font-family="Helvetica,sans-Serif" font-size="11.00">account_identifier</text>
<polygon fill="none" stroke="black" points="1393,-321 1393,-343 1486,-343 1486,-321 1393,-321"/>
<text text-anchor="start" x="1396" y="-329.2" font-family="Helvetica,sans-Serif" font-size="11.00">text[2147483647]</text>
<polygon fill="none" stroke="black" points="1199,-299 1199,-321 1393,-321 1393,-299 1199,-299"/>
<text text-anchor="start" x="1219" y="-307.2" font-family="Helvetica,sans-Serif" font-size="11.00">validated</text>
<polygon fill="none" stroke="black" points="1393,-299 1393,-321 1486,-321 1486,-299 1393,-299"/>
<text text-anchor="start" x="1396" y="-307.2" font-family="Helvetica,sans-Serif" font-size="11.00">timestamptz[35,6]</text>
<polygon fill="#ffffff" stroke="transparent" points="1199,-277 1199,-299 1393,-299 1393,-277 1199,-277"/>
<polygon fill="none" stroke="black" points="1199,-277 1199,-299 1393,-299 1393,-277 1199,-277"/>
<image xlink:href="../../images/foreignKeys.png" width="11px" height="12px" preserveAspectRatio="xMinYMin meet" x="1204" y="-294"/>
<text text-anchor="start" x="1219" y="-285.2" font-family="Helvetica,sans-Serif" font-size="11.00">validates_identity_id</text>
<polygon fill="none" stroke="black" points="1393,-277 1393,-299 1486,-299 1486,-277 1393,-277"/>
<text text-anchor="start" x="1396" y="-285.2" font-family="Helvetica,sans-Serif" font-size="11.00">uuid[2147483647]</text>
<polygon fill="none" stroke="black" points="1199,-255 1199,-277 1393,-277 1393,-255 1199,-255"/>
<text text-anchor="start" x="1219" y="-263.2" font-family="Helvetica,sans-Serif" font-size="11.00">validation_requested</text>
<polygon fill="none" stroke="black" points="1393,-255 1393,-277 1486,-277 1486,-255 1393,-255"/>
<text text-anchor="start" x="1396" y="-263.2" font-family="Helvetica,sans-Serif" font-size="11.00">timestamptz[35,6]</text>
<polygon fill="none" stroke="black" points="1199,-233 1199,-255 1393,-255 1393,-233 1199,-233"/>
<text text-anchor="start" x="1219" y="-241.2" font-family="Helvetica,sans-Serif" font-size="11.00">identity_expires</text>
<polygon fill="none" stroke="black" points="1393,-233 1393,-255 1486,-255 1486,-233 1393,-233"/>
<text text-anchor="start" x="1396" y="-241.2" font-family="Helvetica,sans-Serif" font-size="11.00">timestamptz[35,6]</text>
<polygon fill="none" stroke="black" points="1199,-211 1199,-233 1393,-233 1393,-211 1199,-211"/>
<text text-anchor="start" x="1219" y="-219.2" font-family="Helvetica,sans-Serif" font-size="11.00">external_name</text>
<polygon fill="none" stroke="black" points="1393,-211 1393,-233 1486,-233 1486,-211 1393,-211"/>
<text text-anchor="start" x="1396" y="-219.2" font-family="Helvetica,sans-Serif" font-size="11.00">text[2147483647]</text>
<polygon fill="none" stroke="black" points="1199,-189 1199,-211 1393,-211 1393,-189 1199,-189"/>
<text text-anchor="start" x="1219" y="-197.2" font-family="Helvetica,sans-Serif" font-size="11.00">diag_timestamp_created</text>
<polygon fill="none" stroke="black" points="1393,-189 1393,-211 1486,-211 1486,-189 1393,-189"/>
<text text-anchor="start" x="1396" y="-197.2" font-family="Helvetica,sans-Serif" font-size="11.00">timestamptz[35,6]</text>
<polygon fill="none" stroke="black" points="1199,-167 1199,-189 1393,-189 1393,-167 1199,-167"/>
<text text-anchor="start" x="1219" y="-175.2" font-family="Helvetica,sans-Serif" font-size="11.00">diag_role_created</text>
<polygon fill="none" stroke="black" points="1393,-167 1393,-189 1486,-189 1486,-167 1393,-167"/>
<text text-anchor="start" x="1396" y="-175.2" font-family="Helvetica,sans-Serif" font-size="11.00">text[2147483647]</text>
<polygon fill="none" stroke="black" points="1199,-145 1199,-167 1393,-167 1393,-145 1199,-145"/>
<text text-anchor="start" x="1219" y="-153.2" font-family="Helvetica,sans-Serif" font-size="11.00">diag_timestamp_modified</text>
<polygon fill="none" stroke="black" points="1393,-145 1393,-167 1486,-167 1486,-145 1393,-145"/>
<text text-anchor="start" x="1396" y="-153.2" font-family="Helvetica,sans-Serif" font-size="11.00">timestamptz[35,6]</text>
<polygon fill="none" stroke="black" points="1199,-123 1199,-145 1393,-145 1393,-123 1199,-123"/>
<text text-anchor="start" x="1219" y="-131.2" font-family="Helvetica,sans-Serif" font-size="11.00">diag_wallclock_modified</text>
<polygon fill="none" stroke="black" points="1393,-123 1393,-145 1486,-145 1486,-123 1393,-123"/>
<text text-anchor="start" x="1396" y="-131.2" font-family="Helvetica,sans-Serif" font-size="11.00">timestamptz[35,6]</text>
<polygon fill="none" stroke="black" points="1199,-101 1199,-123 1393,-123 1393,-101 1199,-101"/>
<text text-anchor="start" x="1219" y="-109.2" font-family="Helvetica,sans-Serif" font-size="11.00">diag_role_modified</text>
<polygon fill="none" stroke="black" points="1393,-101 1393,-123 1486,-123 1486,-101 1393,-101"/>
<text text-anchor="start" x="1396" y="-109.2" font-family="Helvetica,sans-Serif" font-size="11.00">text[2147483647]</text>
<polygon fill="none" stroke="black" points="1199,-79 1199,-101 1393,-101 1393,-79 1199,-79"/>
<text text-anchor="start" x="1219" y="-87.2" font-family="Helvetica,sans-Serif" font-size="11.00">diag_row_version</text>
<polygon fill="none" stroke="black" points="1393,-79 1393,-101 1486,-101 1486,-79 1393,-79"/>
<text text-anchor="start" x="1396" y="-87.2" font-family="Helvetica,sans-Serif" font-size="11.00">int8[19]</text>
<polygon fill="none" stroke="black" points="1199,-57 1199,-79 1393,-79 1393,-57 1199,-57"/>
<text text-anchor="start" x="1219" y="-65.2" font-family="Helvetica,sans-Serif" font-size="11.00">diag_update_count</text>
<polygon fill="none" stroke="black" points="1393,-57 1393,-79 1486,-79 1486,-57 1393,-57"/>
<text text-anchor="start" x="1396" y="-65.2" font-family="Helvetica,sans-Serif" font-size="11.00">int8[19]</text>
<polygon fill="#ffffff" stroke="transparent" points="1199,-39 1199,-57 1300,-57 1300,-39 1199,-39"/>
<polygon fill="none" stroke="black" points="1199,-39 1199,-57 1300,-57 1300,-39 1199,-39"/>
<text text-anchor="start" x="1202" y="-45.2" font-family="Helvetica,sans-Serif" font-size="11.00">&lt; 3</text>
<polygon fill="#ffffff" stroke="transparent" points="1300,-39 1300,-57 1393,-57 1393,-39 1300,-39"/>
<polygon fill="none" stroke="black" points="1300,-39 1300,-57 1393,-57 1393,-39 1300,-39"/>
<text text-anchor="start" x="1383" y="-45.2" font-family="Helvetica,sans-Serif" font-size="11.00"> &#160;</text>
<polygon fill="#ffffff" stroke="transparent" points="1393,-39 1393,-57 1486,-57 1486,-39 1393,-39"/>
<polygon fill="none" stroke="black" points="1393,-39 1393,-57 1486,-57 1486,-39 1393,-39"/>
<text text-anchor="start" x="1467" y="-45.2" font-family="Helvetica,sans-Serif" font-size="11.00">2 &gt;</text>
<polygon fill="none" stroke="black" stroke-width="2" points="1197.5,-38 1197.5,-432 1486.5,-432 1486.5,-38 1197.5,-38"/>
</a>
</g>
</g>
<!-- syst_credentials&#45;&gt;syst_identities -->
<g id="edge6" class="edge">
<title>syst_credentials:w&#45;&gt;syst_identities:e</title>
<path fill="none" stroke="black" d="M1568.2,-432.54C1545.97,-414.7 1517.12,-398 1487,-398"/>
<polygon fill="black" stroke="black" points="1573.1,-436.71 1576.86,-444.64 1576.15,-439.31 1579.2,-441.9 1579.2,-441.9 1579.2,-441.9 1576.15,-439.31 1581.53,-439.16 1573.1,-436.71 1573.1,-436.71"/>
<ellipse fill="none" stroke="black" cx="1570.67" cy="-434.64" rx="3.2" ry="3.2"/>
</g>
<!-- syst_identities&#45;&gt;syst_access_accounts -->
<g id="edge11" class="edge">
<title>syst_identities:w&#45;&gt;syst_access_accounts:e</title>
<path fill="none" stroke="black" d="M1183.65,-378.87C1158.26,-391.85 1184.53,-445.67 1155,-476 1150.49,-480.64 1145.42,-484.85 1140.02,-488.68"/>
<polygon fill="black" stroke="black" points="1190.16,-377.57 1198.71,-379.53 1194.08,-376.79 1198,-376 1198,-376 1198,-376 1194.08,-376.79 1197.29,-372.47 1190.16,-377.57 1190.16,-377.57"/>
<ellipse fill="none" stroke="black" cx="1187.02" cy="-378.2" rx="3.2" ry="3.2"/>
</g>
<!-- syst_identities&#45;&gt;syst_enum_items -->
<g id="edge12" class="edge">
<title>syst_identities:w&#45;&gt;syst_enum_items:e</title>
<path fill="none" stroke="black" d="M1183.55,-354.28C1065.75,-358.99 1042.81,-421.33 921,-452 802.38,-481.86 766.63,-460.46 649,-494 633.22,-498.5 616.75,-504.57 601.3,-510.94"/>
<polygon fill="black" stroke="black" points="1190,-354.16 1198.07,-357.6 1194,-354.08 1198,-354 1198,-354 1198,-354 1194,-354.08 1197.93,-350.4 1190,-354.16 1190,-354.16"/>
<ellipse fill="none" stroke="black" cx="1186.8" cy="-354.22" rx="3.2" ry="3.2"/>
</g>
<!-- syst_identities&#45;&gt;syst_identities -->
<g id="edge13" class="edge">
<title>syst_identities:w&#45;&gt;syst_identities:e</title>
<path fill="none" stroke="black" d="M1191.83,-296.05C1132.29,-366.25 1139.81,-450 1342.5,-450 1553,-450 1553,-441.33 1486,-398"/>
<polygon fill="black" stroke="black" points="1195.48,-285.94 1201.45,-291.26 1200.39,-292.45 1194.42,-287.13 1195.48,-285.94"/>
<polyline fill="none" stroke="black" points="1199,-288 1196.34,-290.99 "/>
<ellipse fill="none" stroke="black" cx="1194.21" cy="-293.37" rx="3.2" ry="3.2"/>
</g>
<!-- syst_enum_functional_types&#45;&gt;syst_enums -->
<g id="edge8" class="edge">
<title>syst_enum_functional_types:w&#45;&gt;syst_enums:e</title>
<path fill="none" stroke="black" d="M160.31,-565.94C149.21,-558.62 145.05,-544 127,-544"/>
<polygon fill="black" stroke="black" points="166.81,-567.8 173.51,-573.46 170.65,-568.9 174.5,-570 174.5,-570 174.5,-570 170.65,-568.9 175.49,-566.54 166.81,-567.8 166.81,-567.8"/>
<ellipse fill="none" stroke="black" cx="163.73" cy="-566.92" rx="3.2" ry="3.2"/>
</g>
<!-- syst_instance_type_applications -->
<g id="node10" class="node">
<title>syst_instance_type_applications</title>
<g id="a_node10"><a xlink:href="../../tables/syst_instance_type_applications.html" xlink:title="syst_instance_type_applications" target="_top">
<polygon fill="#ffffff" stroke="transparent" points="657,-384 657,-442 913,-442 913,-384 657,-384"/>
<polygon fill="#f5f5f5" stroke="transparent" points="657,-420 657,-442 913,-442 913,-420 657,-420"/>
<polygon fill="none" stroke="black" points="657,-420 657,-442 913,-442 913,-420 657,-420"/>
<text text-anchor="start" x="662" y="-429.2" font-family="Helvetica,sans-Serif" font-weight="bold" font-size="11.00">syst_instance_type_applications</text>
<text text-anchor="start" x="878" y="-428.2" font-family="Helvetica,sans-Serif" font-size="11.00">[table]</text>
<polygon fill="none" stroke="black" points="657,-402 657,-420 913,-420 913,-402 657,-402"/>
<text text-anchor="start" x="660" y="-408.2" font-family="Helvetica,sans-Serif" font-size="11.00">...</text>
<polygon fill="#ffffff" stroke="transparent" points="657,-384 657,-402 778,-402 778,-384 657,-384"/>
<polygon fill="none" stroke="black" points="657,-384 657,-402 778,-402 778,-384 657,-384"/>
<text text-anchor="start" x="660" y="-390.2" font-family="Helvetica,sans-Serif" font-size="11.00">&lt; 2</text>
<polygon fill="#ffffff" stroke="transparent" points="778,-384 778,-402 841,-402 841,-384 778,-384"/>
<polygon fill="none" stroke="black" points="778,-384 778,-402 841,-402 841,-384 778,-384"/>
<text text-anchor="start" x="831" y="-390.2" font-family="Helvetica,sans-Serif" font-size="11.00"> &#160;</text>
<polygon fill="#ffffff" stroke="transparent" points="841,-384 841,-402 913,-402 913,-384 841,-384"/>
<polygon fill="none" stroke="black" points="841,-384 841,-402 913,-402 913,-384 841,-384"/>
<text text-anchor="start" x="894" y="-390.2" font-family="Helvetica,sans-Serif" font-size="11.00">1 &gt;</text>
</a>
</g>
</g>
<!-- syst_instance_type_applications&#45;&gt;syst_enum_items -->
<g id="edge14" class="edge">
<title>syst_instance_type_applications:w&#45;&gt;syst_enum_items:e</title>
<path fill="none" stroke="black" d="M641.41,-412.46C594.7,-421.91 562.16,-475 545.18,-510.78"/>
<polygon fill="black" stroke="black" points="648.04,-411.8 656.36,-414.58 652.02,-411.4 656,-411 656,-411 656,-411 652.02,-411.4 655.64,-407.42 648.04,-411.8 648.04,-411.8"/>
<ellipse fill="none" stroke="black" cx="644.86" cy="-412.12" rx="3.2" ry="3.2"/>
</g>
<!-- syst_password_history -->
<g id="node11" class="node">
<title>syst_password_history</title>
<g id="a_node11"><a xlink:href="../../tables/syst_password_history.html" xlink:title="syst_password_history" target="_top">
<polygon fill="#ffffff" stroke="transparent" points="1246,-499 1246,-557 1438,-557 1438,-499 1246,-499"/>
<polygon fill="#f5f5f5" stroke="transparent" points="1246,-535 1246,-557 1438,-557 1438,-535 1246,-535"/>
<polygon fill="none" stroke="black" points="1246,-535 1246,-557 1438,-557 1438,-535 1246,-535"/>
<text text-anchor="start" x="1251" y="-544.2" font-family="Helvetica,sans-Serif" font-weight="bold" font-size="11.00">syst_password_history</text>
<text text-anchor="start" x="1403" y="-543.2" font-family="Helvetica,sans-Serif" font-size="11.00">[table]</text>
<polygon fill="none" stroke="black" points="1246,-517 1246,-535 1438,-535 1438,-517 1246,-517"/>
<text text-anchor="start" x="1249" y="-523.2" font-family="Helvetica,sans-Serif" font-size="11.00">...</text>
<polygon fill="#ffffff" stroke="transparent" points="1246,-499 1246,-517 1340,-517 1340,-499 1246,-499"/>
<polygon fill="none" stroke="black" points="1246,-499 1246,-517 1340,-517 1340,-499 1246,-499"/>
<text text-anchor="start" x="1249" y="-505.2" font-family="Helvetica,sans-Serif" font-size="11.00">&lt; 1</text>
<polygon fill="#ffffff" stroke="transparent" points="1340,-499 1340,-517 1389,-517 1389,-499 1340,-499"/>
<polygon fill="none" stroke="black" points="1340,-499 1340,-517 1389,-517 1389,-499 1340,-499"/>
<text text-anchor="start" x="1379" y="-505.2" font-family="Helvetica,sans-Serif" font-size="11.00"> &#160;</text>
<polygon fill="#ffffff" stroke="transparent" points="1389,-499 1389,-517 1438,-517 1438,-499 1389,-499"/>
<polygon fill="none" stroke="black" points="1389,-499 1389,-517 1438,-517 1438,-499 1389,-499"/>
<text text-anchor="start" x="1428" y="-505.2" font-family="Helvetica,sans-Serif" font-size="11.00"> &#160;</text>
</a>
</g>
</g>
<!-- syst_password_history&#45;&gt;syst_access_accounts -->
<g id="edge19" class="edge">
<title>syst_password_history:w&#45;&gt;syst_access_accounts:e</title>
<path fill="none" stroke="black" d="M1230.49,-525.96C1205.57,-525.84 1179.5,-525.42 1155.31,-524.9"/>
<polygon fill="black" stroke="black" points="1237,-525.98 1244.99,-529.6 1241,-525.99 1245,-526 1245,-526 1245,-526 1241,-525.99 1245.01,-522.4 1237,-525.98 1237,-525.98"/>
<ellipse fill="none" stroke="black" cx="1233.8" cy="-525.97" rx="3.2" ry="3.2"/>
</g>
</g>
</svg>
