<?xml version="1.0" encoding="UTF-8" standalone="no"?>
<!DOCTYPE svg PUBLIC "-//W3C//DTD SVG 1.1//EN"
 "http://www.w3.org/Graphics/SVG/1.1/DTD/svg11.dtd">
<!-- Generated by graphviz version 2.43.0 (0)
 -->
<!-- Title: twoDegreesRelationshipsDiagram Pages: 1 -->
<svg width="1711pt" height="604pt"
 viewBox="0.00 0.00 1711.00 604.00" xmlns="http://www.w3.org/2000/svg" xmlns:xlink="http://www.w3.org/1999/xlink">
<g id="graph0" class="graph" transform="scale(1 1) rotate(0) translate(4 600)">
<title>twoDegreesRelationshipsDiagram</title>
<polygon fill="#ffffff" stroke="transparent" points="-4,4 -4,-600 1707,-600 1707,4 -4,4"/>
<text text-anchor="middle" x="71.5" y="-7.2" font-family="Helvetica,sans-Serif" font-size="11.00">Generated by SchemaSpy</text>
<!-- syst_access_accounts -->
<g id="node1" class="node">
<title>syst_access_accounts</title>
<g id="a_node1"><a xlink:href="../../tables/syst_access_accounts.html" xlink:title="syst_access_accounts" target="_top">
<polygon fill="#ffffff" stroke="transparent" points="1102,-519 1102,-577 1287,-577 1287,-519 1102,-519"/>
<polygon fill="#f5f5f5" stroke="transparent" points="1102.5,-555 1102.5,-577 1287.5,-577 1287.5,-555 1102.5,-555"/>
<polygon fill="none" stroke="black" points="1102.5,-555 1102.5,-577 1287.5,-577 1287.5,-555 1102.5,-555"/>
<text text-anchor="start" x="1107.5" y="-564.2" font-family="Helvetica,sans-Serif" font-weight="bold" font-size="11.00">syst_access_accounts</text>
<text text-anchor="start" x="1252.5" y="-563.2" font-family="Helvetica,sans-Serif" font-size="11.00">[table]</text>
<polygon fill="none" stroke="black" points="1102.5,-537 1102.5,-555 1287.5,-555 1287.5,-537 1102.5,-537"/>
<text text-anchor="start" x="1105.5" y="-543.2" font-family="Helvetica,sans-Serif" font-size="11.00">...</text>
<polygon fill="#ffffff" stroke="transparent" points="1102.5,-519 1102.5,-537 1188.5,-537 1188.5,-519 1102.5,-519"/>
<polygon fill="none" stroke="black" points="1102.5,-519 1102.5,-537 1188.5,-537 1188.5,-519 1102.5,-519"/>
<text text-anchor="start" x="1105.5" y="-525.2" font-family="Helvetica,sans-Serif" font-size="11.00">&lt; 2</text>
<polygon fill="#ffffff" stroke="transparent" points="1188.5,-519 1188.5,-537 1233.5,-537 1233.5,-519 1188.5,-519"/>
<polygon fill="none" stroke="black" points="1188.5,-519 1188.5,-537 1233.5,-537 1233.5,-519 1188.5,-519"/>
<text text-anchor="start" x="1223.5" y="-525.2" font-family="Helvetica,sans-Serif" font-size="11.00"> &#160;</text>
<polygon fill="#ffffff" stroke="transparent" points="1233.5,-519 1233.5,-537 1287.5,-537 1287.5,-519 1233.5,-519"/>
<polygon fill="none" stroke="black" points="1233.5,-519 1233.5,-537 1287.5,-537 1287.5,-519 1233.5,-519"/>
<text text-anchor="start" x="1268.5" y="-525.2" font-family="Helvetica,sans-Serif" font-size="11.00">4 &gt;</text>
</a>
</g>
</g>
<!-- syst_enum_items -->
<g id="node2" class="node">
<title>syst_enum_items</title>
<g id="a_node2"><a xlink:href="../../tables/syst_enum_items.html" xlink:title="syst_enum_items" target="_top">
<polygon fill="#ffffff" stroke="transparent" points="453,-342 453,-510 647,-510 647,-342 453,-342"/>
<polygon fill="#f5f5f5" stroke="transparent" points="453,-488 453,-510 647,-510 647,-488 453,-488"/>
<polygon fill="none" stroke="black" points="453,-488 453,-510 647,-510 647,-488 453,-488"/>
<text text-anchor="start" x="458" y="-497.2" font-family="Helvetica,sans-Serif" font-weight="bold" font-size="11.00">syst_enum_items</text>
<text text-anchor="start" x="612" y="-496.2" font-family="Helvetica,sans-Serif" font-size="11.00">[table]</text>
<polygon fill="none" stroke="black" points="453,-466 453,-488 647,-488 647,-466 453,-466"/>
<image xlink:href="../../images/primaryKeys.png" width="11px" height="12px" preserveAspectRatio="xMinYMin meet" x="458" y="-483"/>
<text text-anchor="start" x="473" y="-474.2" font-family="Helvetica,sans-Serif" font-size="11.00">id</text>
<polygon fill="#ffffff" stroke="transparent" points="453,-444 453,-466 647,-466 647,-444 453,-444"/>
<polygon fill="none" stroke="black" points="453,-444 453,-466 647,-466 647,-444 453,-444"/>
<text text-anchor="start" x="473" y="-452.2" font-family="Helvetica,sans-Serif" font-size="11.00">internal_name</text>
<polygon fill="#ffffff" stroke="transparent" points="453,-422 453,-444 647,-444 647,-422 453,-422"/>
<polygon fill="none" stroke="black" points="453,-422 453,-444 647,-444 647,-422 453,-422"/>
<text text-anchor="start" x="473" y="-430.2" font-family="Helvetica,sans-Serif" font-size="11.00">display_name</text>
<polygon fill="none" stroke="black" points="453,-400 453,-422 647,-422 647,-400 453,-400"/>
<image xlink:href="../../images/foreignKeys.png" width="11px" height="12px" preserveAspectRatio="xMinYMin meet" x="458" y="-417"/>
<text text-anchor="start" x="473" y="-408.2" font-family="Helvetica,sans-Serif" font-size="11.00">enum_id</text>
<polygon fill="none" stroke="black" points="453,-378 453,-400 647,-400 647,-378 453,-378"/>
<image xlink:href="../../images/foreignKeys.png" width="11px" height="12px" preserveAspectRatio="xMinYMin meet" x="458" y="-395"/>
<text text-anchor="start" x="473" y="-386.2" font-family="Helvetica,sans-Serif" font-size="11.00">functional_type_id</text>
<polygon fill="none" stroke="black" points="453,-360 453,-378 647,-378 647,-360 453,-360"/>
<text text-anchor="start" x="456" y="-366.2" font-family="Helvetica,sans-Serif" font-size="11.00">...</text>
<polygon fill="#ffffff" stroke="transparent" points="453,-342 453,-360 543,-360 543,-342 453,-342"/>
<polygon fill="none" stroke="black" points="453,-342 453,-360 543,-360 543,-342 453,-342"/>
<text text-anchor="start" x="456" y="-348.2" font-family="Helvetica,sans-Serif" font-size="11.00">&lt; 2</text>
<polygon fill="#ffffff" stroke="transparent" points="543,-342 543,-360 590,-360 590,-342 543,-342"/>
<polygon fill="none" stroke="black" points="543,-342 543,-360 590,-360 590,-342 543,-342"/>
<text text-anchor="start" x="580" y="-348.2" font-family="Helvetica,sans-Serif" font-size="11.00"> &#160;</text>
<polygon fill="#ffffff" stroke="transparent" points="590,-342 590,-360 647,-360 647,-342 590,-342"/>
<polygon fill="none" stroke="black" points="590,-342 590,-360 647,-360 647,-342 590,-342"/>
<text text-anchor="start" x="628" y="-348.2" font-family="Helvetica,sans-Serif" font-size="11.00">7 &gt;</text>
</a>
</g>
</g>
<!-- syst_access_accounts&#45;&gt;syst_enum_items -->
<g id="edge1" class="edge">
<title>syst_access_accounts:w&#45;&gt;syst_enum_items:e</title>
<path fill="none" stroke="black" d="M1087.02,-547.29C1069.38,-550.71 1061.42,-559.92 1038,-563 960.89,-573.14 753.58,-604.82 688,-563 652.46,-540.33 690.15,-477 648,-477"/>
<polygon fill="black" stroke="black" points="1093.53,-546.71 1101.82,-549.59 1097.52,-546.36 1101.5,-546 1101.5,-546 1101.5,-546 1097.52,-546.36 1101.18,-542.41 1093.53,-546.71 1093.53,-546.71"/>
<ellipse fill="none" stroke="black" cx="1090.34" cy="-546.99" rx="3.2" ry="3.2"/>
</g>
<!-- syst_owners -->
<g id="node3" class="node">
<title>syst_owners</title>
<g id="a_node3"><a xlink:href="../../tables/syst_owners.html" xlink:title="syst_owners" target="_top">
<polygon fill="#ffffff" stroke="transparent" points="802,-494 802,-552 924,-552 924,-494 802,-494"/>
<polygon fill="#f5f5f5" stroke="transparent" points="802,-530 802,-552 924,-552 924,-530 802,-530"/>
<polygon fill="none" stroke="black" points="802,-530 802,-552 924,-552 924,-530 802,-530"/>
<text text-anchor="start" x="807" y="-539.2" font-family="Helvetica,sans-Serif" font-weight="bold" font-size="11.00">syst_owners</text>
<text text-anchor="start" x="889" y="-538.2" font-family="Helvetica,sans-Serif" font-size="11.00">[table]</text>
<polygon fill="none" stroke="black" points="802,-512 802,-530 924,-530 924,-512 802,-512"/>
<text text-anchor="start" x="805" y="-518.2" font-family="Helvetica,sans-Serif" font-size="11.00">...</text>
<polygon fill="#ffffff" stroke="transparent" points="802,-494 802,-512 856,-512 856,-494 802,-494"/>
<polygon fill="none" stroke="black" points="802,-494 802,-512 856,-512 856,-494 802,-494"/>
<text text-anchor="start" x="805" y="-500.2" font-family="Helvetica,sans-Serif" font-size="11.00">&lt; 1</text>
<polygon fill="#ffffff" stroke="transparent" points="856,-494 856,-512 885,-512 885,-494 856,-494"/>
<polygon fill="none" stroke="black" points="856,-494 856,-512 885,-512 885,-494 856,-494"/>
<text text-anchor="start" x="875" y="-500.2" font-family="Helvetica,sans-Serif" font-size="11.00"> &#160;</text>
<polygon fill="#ffffff" stroke="transparent" points="885,-494 885,-512 924,-512 924,-494 885,-494"/>
<polygon fill="none" stroke="black" points="885,-494 885,-512 924,-512 924,-494 885,-494"/>
<text text-anchor="start" x="905" y="-500.2" font-family="Helvetica,sans-Serif" font-size="11.00">4 &gt;</text>
</a>
</g>
</g>
<!-- syst_access_accounts&#45;&gt;syst_owners -->
<g id="edge2" class="edge">
<title>syst_access_accounts:w&#45;&gt;syst_owners:e</title>
<path fill="none" stroke="black" d="M1086.91,-545.7C1019.69,-542.88 999.12,-521 925,-521"/>
<polygon fill="black" stroke="black" points="1093.5,-545.84 1101.43,-549.6 1097.5,-545.92 1101.5,-546 1101.5,-546 1101.5,-546 1097.5,-545.92 1101.57,-542.4 1093.5,-545.84 1093.5,-545.84"/>
<ellipse fill="none" stroke="black" cx="1090.3" cy="-545.77" rx="3.2" ry="3.2"/>
</g>
<!-- syst_enum_functional_types -->
<g id="node8" class="node">
<title>syst_enum_functional_types</title>
<g id="a_node8"><a xlink:href="../../tables/syst_enum_functional_types.html" xlink:title="syst_enum_functional_types" target="_top">
<polygon fill="#ffffff" stroke="transparent" points="175,-345 175,-403 404,-403 404,-345 175,-345"/>
<polygon fill="#f5f5f5" stroke="transparent" points="175.5,-381 175.5,-403 404.5,-403 404.5,-381 175.5,-381"/>
<polygon fill="none" stroke="black" points="175.5,-381 175.5,-403 404.5,-403 404.5,-381 175.5,-381"/>
<text text-anchor="start" x="180.5" y="-390.2" font-family="Helvetica,sans-Serif" font-weight="bold" font-size="11.00">syst_enum_functional_types</text>
<text text-anchor="start" x="369.5" y="-389.2" font-family="Helvetica,sans-Serif" font-size="11.00">[table]</text>
<polygon fill="none" stroke="black" points="175.5,-363 175.5,-381 404.5,-381 404.5,-363 175.5,-363"/>
<text text-anchor="start" x="178.5" y="-369.2" font-family="Helvetica,sans-Serif" font-size="11.00">...</text>
<polygon fill="#ffffff" stroke="transparent" points="175.5,-345 175.5,-363 283.5,-363 283.5,-345 175.5,-345"/>
<polygon fill="none" stroke="black" points="175.5,-345 175.5,-363 283.5,-363 283.5,-345 175.5,-345"/>
<text text-anchor="start" x="178.5" y="-351.2" font-family="Helvetica,sans-Serif" font-size="11.00">&lt; 1</text>
<polygon fill="#ffffff" stroke="transparent" points="283.5,-345 283.5,-363 339.5,-363 339.5,-345 283.5,-345"/>
<polygon fill="none" stroke="black" points="283.5,-345 283.5,-363 339.5,-363 339.5,-345 283.5,-345"/>
<text text-anchor="start" x="329.5" y="-351.2" font-family="Helvetica,sans-Serif" font-size="11.00"> &#160;</text>
<polygon fill="#ffffff" stroke="transparent" points="339.5,-345 339.5,-363 404.5,-363 404.5,-345 339.5,-345"/>
<polygon fill="none" stroke="black" points="339.5,-345 339.5,-363 404.5,-363 404.5,-345 339.5,-345"/>
<text text-anchor="start" x="385.5" y="-351.2" font-family="Helvetica,sans-Serif" font-size="11.00">1 &gt;</text>
</a>
</g>
</g>
<!-- syst_enum_items&#45;&gt;syst_enum_functional_types -->
<g id="edge9" class="edge">
<title>syst_enum_items:w&#45;&gt;syst_enum_functional_types:e</title>
<path fill="none" stroke="black" d="M437.86,-386.04C427.3,-381.17 421.66,-372 405.5,-372"/>
<polygon fill="black" stroke="black" points="444.17,-387.36 451.26,-392.52 448.08,-388.18 452,-389 452,-389 452,-389 448.08,-388.18 452.74,-385.48 444.17,-387.36 444.17,-387.36"/>
<ellipse fill="none" stroke="black" cx="441.04" cy="-386.7" rx="3.2" ry="3.2"/>
</g>
<!-- syst_enums -->
<g id="node9" class="node">
<title>syst_enums</title>
<g id="a_node9"><a xlink:href="../../tables/syst_enums.html" xlink:title="syst_enums" target="_top">
<polygon fill="#ffffff" stroke="transparent" points="8,-372 8,-430 126,-430 126,-372 8,-372"/>
<polygon fill="#f5f5f5" stroke="transparent" points="8,-408 8,-430 126,-430 126,-408 8,-408"/>
<polygon fill="none" stroke="black" points="8,-408 8,-430 126,-430 126,-408 8,-408"/>
<text text-anchor="start" x="13" y="-417.2" font-family="Helvetica,sans-Serif" font-weight="bold" font-size="11.00">syst_enums</text>
<text text-anchor="start" x="91" y="-416.2" font-family="Helvetica,sans-Serif" font-size="11.00">[table]</text>
<polygon fill="none" stroke="black" points="8,-390 8,-408 126,-408 126,-390 8,-390"/>
<text text-anchor="start" x="11" y="-396.2" font-family="Helvetica,sans-Serif" font-size="11.00">...</text>
<polygon fill="#ffffff" stroke="transparent" points="8,-372 8,-390 56,-390 56,-372 8,-372"/>
<polygon fill="none" stroke="black" points="8,-372 8,-390 56,-390 56,-372 8,-372"/>
<text text-anchor="start" x="11" y="-378.2" font-family="Helvetica,sans-Serif" font-size="11.00"> &#160;</text>
<polygon fill="#ffffff" stroke="transparent" points="56,-372 56,-390 86,-390 86,-372 56,-372"/>
<polygon fill="none" stroke="black" points="56,-372 56,-390 86,-390 86,-372 56,-372"/>
<text text-anchor="start" x="76" y="-378.2" font-family="Helvetica,sans-Serif" font-size="11.00"> &#160;</text>
<polygon fill="#ffffff" stroke="transparent" points="86,-372 86,-390 126,-390 126,-372 86,-372"/>
<polygon fill="none" stroke="black" points="86,-372 86,-390 126,-390 126,-372 86,-372"/>
<text text-anchor="start" x="107" y="-378.2" font-family="Helvetica,sans-Serif" font-size="11.00">2 &gt;</text>
</a>
</g>
</g>
<!-- syst_enum_items&#45;&gt;syst_enums -->
<g id="edge8" class="edge">
<title>syst_enum_items:w&#45;&gt;syst_enums:e</title>
<path fill="none" stroke="black" d="M437.57,-411.64C429.73,-412.38 423.83,-413.56 412,-414 303.19,-418.07 274.14,-433.43 167,-414 148.32,-410.61 145.99,-399 127,-399"/>
<polygon fill="black" stroke="black" points="444.01,-411.35 452.16,-414.6 448,-411.18 452,-411 452,-411 452,-411 448,-411.18 451.84,-407.4 444.01,-411.35 444.01,-411.35"/>
<ellipse fill="none" stroke="black" cx="440.81" cy="-411.5" rx="3.2" ry="3.2"/>
</g>
<!-- syst_owners&#45;&gt;syst_enum_items -->
<g id="edge20" class="edge">
<title>syst_owners:w&#45;&gt;syst_enum_items:e</title>
<path fill="none" stroke="black" d="M786.54,-520.34C728.27,-514.87 713.64,-477 648,-477"/>
<polygon fill="black" stroke="black" points="793.01,-520.64 800.84,-524.6 797,-520.82 801,-521 801,-521 801,-521 797,-520.82 801.16,-517.4 793.01,-520.64 793.01,-520.64"/>
<ellipse fill="none" stroke="black" cx="789.81" cy="-520.49" rx="3.2" ry="3.2"/>
</g>
<!-- syst_application_contexts -->
<g id="node4" class="node">
<title>syst_application_contexts</title>
<g id="a_node4"><a xlink:href="../../tables/syst_application_contexts.html" xlink:title="syst_application_contexts" target="_top">
<polygon fill="#ffffff" stroke="transparent" points="756.5,-37 756.5,-95 969.5,-95 969.5,-37 756.5,-37"/>
<polygon fill="#f5f5f5" stroke="transparent" points="757,-73 757,-95 970,-95 970,-73 757,-73"/>
<polygon fill="none" stroke="black" points="757,-73 757,-95 970,-95 970,-73 757,-73"/>
<text text-anchor="start" x="762" y="-82.2" font-family="Helvetica,sans-Serif" font-weight="bold" font-size="11.00">syst_application_contexts</text>
<text text-anchor="start" x="935" y="-81.2" font-family="Helvetica,sans-Serif" font-size="11.00">[table]</text>
<polygon fill="none" stroke="black" points="757,-55 757,-73 970,-73 970,-55 757,-55"/>
<text text-anchor="start" x="760" y="-61.2" font-family="Helvetica,sans-Serif" font-size="11.00">...</text>
<polygon fill="#ffffff" stroke="transparent" points="757,-37 757,-55 857,-55 857,-37 757,-37"/>
<polygon fill="none" stroke="black" points="757,-37 757,-55 857,-55 857,-37 757,-37"/>
<text text-anchor="start" x="760" y="-43.2" font-family="Helvetica,sans-Serif" font-size="11.00">&lt; 1</text>
<polygon fill="#ffffff" stroke="transparent" points="857,-37 857,-55 909,-55 909,-37 857,-37"/>
<polygon fill="none" stroke="black" points="857,-37 857,-55 909,-55 909,-37 857,-37"/>
<text text-anchor="start" x="899" y="-43.2" font-family="Helvetica,sans-Serif" font-size="11.00"> &#160;</text>
<polygon fill="#ffffff" stroke="transparent" points="909,-37 909,-55 970,-55 970,-37 909,-37"/>
<polygon fill="none" stroke="black" points="909,-37 909,-55 970,-55 970,-37 909,-37"/>
<text text-anchor="start" x="951" y="-43.2" font-family="Helvetica,sans-Serif" font-size="11.00">2 &gt;</text>
</a>
</g>
</g>
<!-- syst_applications -->
<g id="node5" class="node">
<title>syst_applications</title>
<g id="a_node5"><a xlink:href="../../tables/syst_applications.html" xlink:title="syst_applications" target="_top">
<polygon fill="#ffffff" stroke="transparent" points="453,-197 453,-321 647,-321 647,-197 453,-197"/>
<polygon fill="#f5f5f5" stroke="transparent" points="453,-299 453,-321 647,-321 647,-299 453,-299"/>
<polygon fill="none" stroke="black" points="453,-299 453,-321 647,-321 647,-299 453,-299"/>
<text text-anchor="start" x="458" y="-308.2" font-family="Helvetica,sans-Serif" font-weight="bold" font-size="11.00">syst_applications</text>
<text text-anchor="start" x="612" y="-307.2" font-family="Helvetica,sans-Serif" font-size="11.00">[table]</text>
<polygon fill="none" stroke="black" points="453,-277 453,-299 647,-299 647,-277 453,-277"/>
<image xlink:href="../../images/primaryKeys.png" width="11px" height="12px" preserveAspectRatio="xMinYMin meet" x="458" y="-294"/>
<text text-anchor="start" x="473" y="-285.2" font-family="Helvetica,sans-Serif" font-size="11.00">id</text>
<polygon fill="#ffffff" stroke="transparent" points="453,-255 453,-277 647,-277 647,-255 453,-255"/>
<polygon fill="none" stroke="black" points="453,-255 453,-277 647,-277 647,-255 453,-255"/>
<text text-anchor="start" x="473" y="-263.2" font-family="Helvetica,sans-Serif" font-size="11.00">internal_name</text>
<polygon fill="#ffffff" stroke="transparent" points="453,-233 453,-255 647,-255 647,-233 453,-233"/>
<polygon fill="none" stroke="black" points="453,-233 453,-255 647,-255 647,-233 453,-233"/>
<text text-anchor="start" x="473" y="-241.2" font-family="Helvetica,sans-Serif" font-size="11.00">display_name</text>
<polygon fill="none" stroke="black" points="453,-215 453,-233 647,-233 647,-215 453,-215"/>
<text text-anchor="start" x="456" y="-221.2" font-family="Helvetica,sans-Serif" font-size="11.00">...</text>
<polygon fill="#ffffff" stroke="transparent" points="453,-197 453,-215 539,-215 539,-197 453,-197"/>
<polygon fill="none" stroke="black" points="453,-197 453,-215 539,-215 539,-197 453,-197"/>
<text text-anchor="start" x="456" y="-203.2" font-family="Helvetica,sans-Serif" font-size="11.00"> &#160;</text>
<polygon fill="#ffffff" stroke="transparent" points="539,-197 539,-215 588,-215 588,-197 539,-197"/>
<polygon fill="none" stroke="black" points="539,-197 539,-215 588,-215 588,-197 539,-197"/>
<text text-anchor="start" x="578" y="-203.2" font-family="Helvetica,sans-Serif" font-size="11.00"> &#160;</text>
<polygon fill="#ffffff" stroke="transparent" points="588,-197 588,-215 647,-215 647,-197 588,-197"/>
<polygon fill="none" stroke="black" points="588,-197 588,-215 647,-215 647,-197 588,-197"/>
<text text-anchor="start" x="628" y="-203.2" font-family="Helvetica,sans-Serif" font-size="11.00">3 &gt;</text>
</a>
</g>
</g>
<!-- syst_application_contexts&#45;&gt;syst_applications -->
<g id="edge3" class="edge">
<title>syst_application_contexts:w&#45;&gt;syst_applications:e</title>
<path fill="none" stroke="black" d="M741.37,-64.87C716.81,-68.13 705.42,-80.68 688,-105 639.51,-172.68 731.25,-288 648,-288"/>
<polygon fill="black" stroke="black" points="748.01,-64.48 756.21,-67.59 752.01,-64.24 756,-64 756,-64 756,-64 752.01,-64.24 755.79,-60.41 748.01,-64.48 748.01,-64.48"/>
<ellipse fill="none" stroke="black" cx="744.82" cy="-64.67" rx="3.2" ry="3.2"/>
</g>
<!-- syst_credentials -->
<g id="node6" class="node">
<title>syst_credentials</title>
<g id="a_node6"><a xlink:href="../../tables/syst_credentials.html" xlink:title="syst_credentials" target="_top">
<polygon fill="#ffffff" stroke="transparent" points="1546,-534 1546,-592 1695,-592 1695,-534 1546,-534"/>
<polygon fill="#f5f5f5" stroke="transparent" points="1546.5,-570 1546.5,-592 1695.5,-592 1695.5,-570 1546.5,-570"/>
<polygon fill="none" stroke="black" points="1546.5,-570 1546.5,-592 1695.5,-592 1695.5,-570 1546.5,-570"/>
<text text-anchor="start" x="1551.5" y="-579.2" font-family="Helvetica,sans-Serif" font-weight="bold" font-size="11.00">syst_credentials</text>
<text text-anchor="start" x="1660.5" y="-578.2" font-family="Helvetica,sans-Serif" font-size="11.00">[table]</text>
<polygon fill="none" stroke="black" points="1546.5,-552 1546.5,-570 1695.5,-570 1695.5,-552 1546.5,-552"/>
<text text-anchor="start" x="1549.5" y="-558.2" font-family="Helvetica,sans-Serif" font-size="11.00">...</text>
<polygon fill="#ffffff" stroke="transparent" points="1546.5,-534 1546.5,-552 1618.5,-552 1618.5,-534 1546.5,-534"/>
<polygon fill="none" stroke="black" points="1546.5,-534 1546.5,-552 1618.5,-552 1618.5,-534 1546.5,-534"/>
<text text-anchor="start" x="1549.5" y="-540.2" font-family="Helvetica,sans-Serif" font-size="11.00">&lt; 3</text>
<polygon fill="#ffffff" stroke="transparent" points="1618.5,-534 1618.5,-552 1656.5,-552 1656.5,-534 1618.5,-534"/>
<polygon fill="none" stroke="black" points="1618.5,-534 1618.5,-552 1656.5,-552 1656.5,-534 1618.5,-534"/>
<text text-anchor="start" x="1646.5" y="-540.2" font-family="Helvetica,sans-Serif" font-size="11.00"> &#160;</text>
<polygon fill="#ffffff" stroke="transparent" points="1656.5,-534 1656.5,-552 1695.5,-552 1695.5,-534 1656.5,-534"/>
<polygon fill="none" stroke="black" points="1656.5,-534 1656.5,-552 1695.5,-552 1695.5,-534 1656.5,-534"/>
<text text-anchor="start" x="1685.5" y="-540.2" font-family="Helvetica,sans-Serif" font-size="11.00"> &#160;</text>
</a>
</g>
</g>
<!-- syst_credentials&#45;&gt;syst_access_accounts -->
<g id="edge4" class="edge">
<title>syst_credentials:w&#45;&gt;syst_access_accounts:e</title>
<path fill="none" stroke="black" d="M1531.02,-560.75C1467.07,-558.8 1341.35,-546 1288.5,-546"/>
<polygon fill="black" stroke="black" points="1537.5,-560.86 1545.44,-564.6 1541.5,-560.93 1545.5,-561 1545.5,-561 1545.5,-561 1541.5,-560.93 1545.56,-557.4 1537.5,-560.86 1537.5,-560.86"/>
<ellipse fill="none" stroke="black" cx="1534.3" cy="-560.81" rx="3.2" ry="3.2"/>
</g>
<!-- syst_credentials&#45;&gt;syst_enum_items -->
<g id="edge6" class="edge">
<title>syst_credentials:w&#45;&gt;syst_enum_items:e</title>
<path fill="none" stroke="black" d="M1530.81,-561.97C1480.72,-566.65 1340.43,-586.67 1318,-588 1219.39,-593.83 689.35,-583.94 688,-583 646.77,-554.09 698.35,-477 648,-477"/>
<polygon fill="black" stroke="black" points="1537.52,-561.53 1545.74,-564.59 1541.51,-561.26 1545.5,-561 1545.5,-561 1545.5,-561 1541.51,-561.26 1545.26,-557.41 1537.52,-561.53 1537.52,-561.53"/>
<ellipse fill="none" stroke="black" cx="1534.32" cy="-561.74" rx="3.2" ry="3.2"/>
</g>
<!-- syst_identities -->
<g id="node7" class="node">
<title>syst_identities</title>
<g id="a_node7"><a xlink:href="../../tables/syst_identities.html" xlink:title="syst_identities" target="_top">
<polygon fill="#ffffff" stroke="transparent" points="1359,-479 1359,-537 1497,-537 1497,-479 1359,-479"/>
<polygon fill="#f5f5f5" stroke="transparent" points="1359,-515 1359,-537 1497,-537 1497,-515 1359,-515"/>
<polygon fill="none" stroke="black" points="1359,-515 1359,-537 1497,-537 1497,-515 1359,-515"/>
<text text-anchor="start" x="1364" y="-524.2" font-family="Helvetica,sans-Serif" font-weight="bold" font-size="11.00">syst_identities</text>
<text text-anchor="start" x="1462" y="-523.2" font-family="Helvetica,sans-Serif" font-size="11.00">[table]</text>
<polygon fill="none" stroke="black" points="1359,-497 1359,-515 1497,-515 1497,-497 1359,-497"/>
<text text-anchor="start" x="1362" y="-503.2" font-family="Helvetica,sans-Serif" font-size="11.00">...</text>
<polygon fill="#ffffff" stroke="transparent" points="1359,-479 1359,-497 1421,-497 1421,-479 1359,-479"/>
<polygon fill="none" stroke="black" points="1359,-479 1359,-497 1421,-497 1421,-479 1359,-479"/>
<text text-anchor="start" x="1362" y="-485.2" font-family="Helvetica,sans-Serif" font-size="11.00">&lt; 3</text>
<polygon fill="#ffffff" stroke="transparent" points="1421,-479 1421,-497 1454,-497 1454,-479 1421,-479"/>
<polygon fill="none" stroke="black" points="1421,-479 1421,-497 1454,-497 1454,-479 1421,-479"/>
<text text-anchor="start" x="1444" y="-485.2" font-family="Helvetica,sans-Serif" font-size="11.00"> &#160;</text>
<polygon fill="#ffffff" stroke="transparent" points="1454,-479 1454,-497 1497,-497 1497,-479 1454,-479"/>
<polygon fill="none" stroke="black" points="1454,-479 1454,-497 1497,-497 1497,-479 1454,-479"/>
<text text-anchor="start" x="1478" y="-485.2" font-family="Helvetica,sans-Serif" font-size="11.00">2 &gt;</text>
</a>
</g>
</g>
<!-- syst_credentials&#45;&gt;syst_identities -->
<g id="edge5" class="edge">
<title>syst_credentials:w&#45;&gt;syst_identities:e</title>
<path fill="none" stroke="black" d="M1531.89,-555.92C1517.88,-542.31 1524.24,-506 1498,-506"/>
<polygon fill="black" stroke="black" points="1538,-558.2 1544.24,-564.37 1541.75,-559.6 1545.5,-561 1545.5,-561 1545.5,-561 1541.75,-559.6 1546.76,-557.63 1538,-558.2 1538,-558.2"/>
<ellipse fill="none" stroke="black" cx="1535.01" cy="-557.09" rx="3.2" ry="3.2"/>
</g>
<!-- syst_identities&#45;&gt;syst_access_accounts -->
<g id="edge10" class="edge">
<title>syst_identities:w&#45;&gt;syst_access_accounts:e</title>
<path fill="none" stroke="black" d="M1343.75,-508.62C1322,-517.52 1318.57,-546 1288.5,-546"/>
<polygon fill="black" stroke="black" points="1350.13,-507.45 1358.65,-509.54 1354.07,-506.72 1358,-506 1358,-506 1358,-506 1354.07,-506.72 1357.35,-502.46 1350.13,-507.45 1350.13,-507.45"/>
<ellipse fill="none" stroke="black" cx="1346.99" cy="-508.03" rx="3.2" ry="3.2"/>
</g>
<!-- syst_identities&#45;&gt;syst_enum_items -->
<g id="edge11" class="edge">
<title>syst_identities:w&#45;&gt;syst_enum_items:e</title>
<path fill="none" stroke="black" d="M1343.85,-501.71C1327.65,-487.86 1346.03,-444.23 1318,-427 1224.47,-369.52 1180.67,-422.14 1071,-427 900.28,-434.56 854.21,-421.29 688,-461 669.38,-465.45 667.15,-477 648,-477"/>
<polygon fill="black" stroke="black" points="1350.34,-503.68 1356.96,-509.45 1354.17,-504.84 1358,-506 1358,-506 1358,-506 1354.17,-504.84 1359.04,-502.55 1350.34,-503.68 1350.34,-503.68"/>
<ellipse fill="none" stroke="black" cx="1347.28" cy="-502.75" rx="3.2" ry="3.2"/>
</g>
<!-- syst_enum_functional_types&#45;&gt;syst_enums -->
<g id="edge7" class="edge">
<title>syst_enum_functional_types:w&#45;&gt;syst_enums:e</title>
<path fill="none" stroke="black" d="M160.6,-375.98C149.25,-383.49 145.4,-399 127,-399"/>
<polygon fill="black" stroke="black" points="166.81,-374.2 175.49,-375.46 170.65,-373.1 174.5,-372 174.5,-372 174.5,-372 170.65,-373.1 173.51,-368.54 166.81,-374.2 166.81,-374.2"/>
<ellipse fill="none" stroke="black" cx="163.73" cy="-375.09" rx="3.2" ry="3.2"/>
</g>
<!-- syst_instance_type_applications -->
<g id="node10" class="node">
<title>syst_instance_type_applications</title>
<g id="a_node10"><a xlink:href="../../tables/syst_instance_type_applications.html" xlink:title="syst_instance_type_applications" target="_top">
<polygon fill="#ffffff" stroke="transparent" points="696,-116 696,-380 1030,-380 1030,-116 696,-116"/>
<polygon fill="#f5f5f5" stroke="transparent" points="698,-356 698,-378 1028,-378 1028,-356 698,-356"/>
<polygon fill="none" stroke="black" points="698,-356 698,-378 1028,-378 1028,-356 698,-356"/>
<text text-anchor="start" x="703" y="-365.2" font-family="Helvetica,sans-Serif" font-weight="bold" font-size="11.00">syst_instance_type_applications</text>
<text text-anchor="start" x="993" y="-364.2" font-family="Helvetica,sans-Serif" font-size="11.00">[table]</text>
<polygon fill="none" stroke="black" points="698,-334 698,-356 935,-356 935,-334 698,-334"/>
<image xlink:href="../../images/primaryKeys.png" width="11px" height="12px" preserveAspectRatio="xMinYMin meet" x="703" y="-351"/>
<text text-anchor="start" x="718" y="-342.2" font-family="Helvetica,sans-Serif" font-size="11.00">id</text>
<polygon fill="none" stroke="black" points="935,-334 935,-356 1028,-356 1028,-334 935,-334"/>
<text text-anchor="start" x="938" y="-342.2" font-family="Helvetica,sans-Serif" font-size="11.00">uuid[2147483647]</text>
<polygon fill="#ffffff" stroke="transparent" points="698,-312 698,-334 935,-334 935,-312 698,-312"/>
<polygon fill="none" stroke="black" points="698,-312 698,-334 935,-334 935,-312 698,-312"/>
<image xlink:href="../../images/foreignKeys.png" width="11px" height="12px" preserveAspectRatio="xMinYMin meet" x="703" y="-329"/>
<text text-anchor="start" x="718" y="-320.2" font-family="Helvetica,sans-Serif" font-size="11.00">instance_type_id</text>
<polygon fill="none" stroke="black" points="935,-312 935,-334 1028,-334 1028,-312 935,-312"/>
<text text-anchor="start" x="938" y="-320.2" font-family="Helvetica,sans-Serif" font-size="11.00">uuid[2147483647]</text>
<polygon fill="#ffffff" stroke="transparent" points="698,-290 698,-312 935,-312 935,-290 698,-290"/>
<polygon fill="none" stroke="black" points="698,-290 698,-312 935,-312 935,-290 698,-290"/>
<image xlink:href="../../images/foreignKeys.png" width="11px" height="12px" preserveAspectRatio="xMinYMin meet" x="703" y="-307"/>
<text text-anchor="start" x="718" y="-298.2" font-family="Helvetica,sans-Serif" font-size="11.00">application_id</text>
<polygon fill="none" stroke="black" points="935,-290 935,-312 1028,-312 1028,-290 935,-290"/>
<text text-anchor="start" x="938" y="-298.2" font-family="Helvetica,sans-Serif" font-size="11.00">uuid[2147483647]</text>
<polygon fill="none" stroke="black" points="698,-268 698,-290 935,-290 935,-268 698,-268"/>
<text text-anchor="start" x="718" y="-276.2" font-family="Helvetica,sans-Serif" font-size="11.00">diag_timestamp_created</text>
<polygon fill="none" stroke="black" points="935,-268 935,-290 1028,-290 1028,-268 935,-268"/>
<text text-anchor="start" x="938" y="-276.2" font-family="Helvetica,sans-Serif" font-size="11.00">timestamptz[35,6]</text>
<polygon fill="none" stroke="black" points="698,-246 698,-268 935,-268 935,-246 698,-246"/>
<text text-anchor="start" x="718" y="-254.2" font-family="Helvetica,sans-Serif" font-size="11.00">diag_role_created</text>
<polygon fill="none" stroke="black" points="935,-246 935,-268 1028,-268 1028,-246 935,-246"/>
<text text-anchor="start" x="938" y="-254.2" font-family="Helvetica,sans-Serif" font-size="11.00">text[2147483647]</text>
<polygon fill="none" stroke="black" points="698,-224 698,-246 935,-246 935,-224 698,-224"/>
<text text-anchor="start" x="718" y="-232.2" font-family="Helvetica,sans-Serif" font-size="11.00">diag_timestamp_modified</text>
<polygon fill="none" stroke="black" points="935,-224 935,-246 1028,-246 1028,-224 935,-224"/>
<text text-anchor="start" x="938" y="-232.2" font-family="Helvetica,sans-Serif" font-size="11.00">timestamptz[35,6]</text>
<polygon fill="none" stroke="black" points="698,-202 698,-224 935,-224 935,-202 698,-202"/>
<text text-anchor="start" x="718" y="-210.2" font-family="Helvetica,sans-Serif" font-size="11.00">diag_wallclock_modified</text>
<polygon fill="none" stroke="black" points="935,-202 935,-224 1028,-224 1028,-202 935,-202"/>
<text text-anchor="start" x="938" y="-210.2" font-family="Helvetica,sans-Serif" font-size="11.00">timestamptz[35,6]</text>
<polygon fill="none" stroke="black" points="698,-180 698,-202 935,-202 935,-180 698,-180"/>
<text text-anchor="start" x="718" y="-188.2" font-family="Helvetica,sans-Serif" font-size="11.00">diag_role_modified</text>
<polygon fill="none" stroke="black" points="935,-180 935,-202 1028,-202 1028,-180 935,-180"/>
<text text-anchor="start" x="938" y="-188.2" font-family="Helvetica,sans-Serif" font-size="11.00">text[2147483647]</text>
<polygon fill="none" stroke="black" points="698,-158 698,-180 935,-180 935,-158 698,-158"/>
<text text-anchor="start" x="718" y="-166.2" font-family="Helvetica,sans-Serif" font-size="11.00">diag_row_version</text>
<polygon fill="none" stroke="black" points="935,-158 935,-180 1028,-180 1028,-158 935,-158"/>
<text text-anchor="start" x="938" y="-166.2" font-family="Helvetica,sans-Serif" font-size="11.00">int8[19]</text>
<polygon fill="none" stroke="black" points="698,-136 698,-158 935,-158 935,-136 698,-136"/>
<text text-anchor="start" x="718" y="-144.2" font-family="Helvetica,sans-Serif" font-size="11.00">diag_update_count</text>
<polygon fill="none" stroke="black" points="935,-136 935,-158 1028,-158 1028,-136 935,-136"/>
<text text-anchor="start" x="938" y="-144.2" font-family="Helvetica,sans-Serif" font-size="11.00">int8[19]</text>
<polygon fill="#ffffff" stroke="transparent" points="698,-118 698,-136 821,-136 821,-118 698,-118"/>
<polygon fill="none" stroke="black" points="698,-118 698,-136 821,-136 821,-118 698,-118"/>
<text text-anchor="start" x="701" y="-124.2" font-family="Helvetica,sans-Serif" font-size="11.00">&lt; 2</text>
<polygon fill="#ffffff" stroke="transparent" points="821,-118 821,-136 935,-136 935,-118 821,-118"/>
<polygon fill="none" stroke="black" points="821,-118 821,-136 935,-136 935,-118 821,-118"/>
<text text-anchor="start" x="925" y="-124.2" font-family="Helvetica,sans-Serif" font-size="11.00"> &#160;</text>
<polygon fill="#ffffff" stroke="transparent" points="935,-118 935,-136 1028,-136 1028,-118 935,-118"/>
<polygon fill="none" stroke="black" points="935,-118 935,-136 1028,-136 1028,-118 935,-118"/>
<text text-anchor="start" x="1009" y="-124.2" font-family="Helvetica,sans-Serif" font-size="11.00">1 &gt;</text>
<polygon fill="none" stroke="black" stroke-width="2" points="697,-117 697,-379 1029,-379 1029,-117 697,-117"/>
</a>
</g>
</g>
<!-- syst_instance_type_applications&#45;&gt;syst_enum_items -->
<g id="edge13" class="edge">
<title>syst_instance_type_applications:w&#45;&gt;syst_enum_items:e</title>
<path fill="none" stroke="black" d="M682.78,-325.8C639.27,-346.68 714.07,-477 648,-477"/>
<polygon fill="black" stroke="black" points="689.15,-324.55 697.7,-326.53 693.08,-323.77 697,-323 697,-323 697,-323 693.08,-323.77 696.3,-319.47 689.15,-324.55 689.15,-324.55"/>
<ellipse fill="none" stroke="black" cx="686.01" cy="-325.17" rx="3.2" ry="3.2"/>
</g>
<!-- syst_instance_type_applications&#45;&gt;syst_applications -->
<g id="edge12" class="edge">
<title>syst_instance_type_applications:w&#45;&gt;syst_applications:e</title>
<path fill="none" stroke="black" d="M682.64,-298.85C671.2,-295.16 664.72,-288 648,-288"/>
<polygon fill="black" stroke="black" points="689.09,-299.82 696.47,-304.56 693.04,-300.41 697,-301 697,-301 697,-301 693.04,-300.41 697.53,-297.44 689.09,-299.82 689.09,-299.82"/>
<ellipse fill="none" stroke="black" cx="685.92" cy="-299.34" rx="3.2" ry="3.2"/>
</g>
<!-- syst_instance_type_contexts -->
<g id="node11" class="node">
<title>syst_instance_type_contexts</title>
<g id="a_node11"><a xlink:href="../../tables/syst_instance_type_contexts.html" xlink:title="syst_instance_type_contexts" target="_top">
<polygon fill="#ffffff" stroke="transparent" points="1079,-136 1079,-260 1310,-260 1310,-136 1079,-136"/>
<polygon fill="#f5f5f5" stroke="transparent" points="1079.5,-238 1079.5,-260 1310.5,-260 1310.5,-238 1079.5,-238"/>
<polygon fill="none" stroke="black" points="1079.5,-238 1079.5,-260 1310.5,-260 1310.5,-238 1079.5,-238"/>
<text text-anchor="start" x="1084.5" y="-247.2" font-family="Helvetica,sans-Serif" font-weight="bold" font-size="11.00">syst_instance_type_contexts</text>
<text text-anchor="start" x="1275.5" y="-246.2" font-family="Helvetica,sans-Serif" font-size="11.00">[table]</text>
<polygon fill="none" stroke="black" points="1079.5,-216 1079.5,-238 1310.5,-238 1310.5,-216 1079.5,-216"/>
<image xlink:href="../../images/primaryKeys.png" width="11px" height="12px" preserveAspectRatio="xMinYMin meet" x="1084.5" y="-233"/>
<text text-anchor="start" x="1108.5" y="-224.2" font-family="Helvetica,sans-Serif" font-size="11.00">id</text>
<polygon fill="#ffffff" stroke="transparent" points="1079.5,-194 1079.5,-216 1310.5,-216 1310.5,-194 1079.5,-194"/>
<polygon fill="none" stroke="black" points="1079.5,-194 1079.5,-216 1310.5,-216 1310.5,-194 1079.5,-194"/>
<image xlink:href="../../images/foreignKeys.png" width="11px" height="12px" preserveAspectRatio="xMinYMin meet" x="1084.5" y="-211"/>
<text text-anchor="start" x="1108.5" y="-202.2" font-family="Helvetica,sans-Serif" font-size="11.00">instance_type_application_id</text>
<polygon fill="#ffffff" stroke="transparent" points="1079.5,-172 1079.5,-194 1310.5,-194 1310.5,-172 1079.5,-172"/>
<polygon fill="none" stroke="black" points="1079.5,-172 1079.5,-194 1310.5,-194 1310.5,-172 1079.5,-172"/>
<image xlink:href="../../images/foreignKeys.png" width="11px" height="12px" preserveAspectRatio="xMinYMin meet" x="1084.5" y="-189"/>
<text text-anchor="start" x="1108.5" y="-180.2" font-family="Helvetica,sans-Serif" font-size="11.00">application_context_id</text>
<polygon fill="none" stroke="black" points="1079.5,-154 1079.5,-172 1310.5,-172 1310.5,-154 1079.5,-154"/>
<text text-anchor="start" x="1082.5" y="-160.2" font-family="Helvetica,sans-Serif" font-size="11.00">...</text>
<polygon fill="#ffffff" stroke="transparent" points="1079.5,-136 1079.5,-154 1192.5,-154 1192.5,-136 1079.5,-136"/>
<polygon fill="none" stroke="black" points="1079.5,-136 1079.5,-154 1192.5,-154 1192.5,-136 1079.5,-136"/>
<text text-anchor="start" x="1082.5" y="-142.2" font-family="Helvetica,sans-Serif" font-size="11.00">&lt; 2</text>
<polygon fill="#ffffff" stroke="transparent" points="1192.5,-136 1192.5,-154 1251.5,-154 1251.5,-136 1192.5,-136"/>
<polygon fill="none" stroke="black" points="1192.5,-136 1192.5,-154 1251.5,-154 1251.5,-136 1192.5,-136"/>
<text text-anchor="start" x="1241.5" y="-142.2" font-family="Helvetica,sans-Serif" font-size="11.00"> &#160;</text>
<polygon fill="#ffffff" stroke="transparent" points="1251.5,-136 1251.5,-154 1310.5,-154 1310.5,-136 1251.5,-136"/>
<polygon fill="none" stroke="black" points="1251.5,-136 1251.5,-154 1310.5,-154 1310.5,-136 1251.5,-136"/>
<text text-anchor="start" x="1300.5" y="-142.2" font-family="Helvetica,sans-Serif" font-size="11.00"> &#160;</text>
</a>
</g>
</g>
<!-- syst_instance_type_contexts&#45;&gt;syst_application_contexts -->
<g id="edge14" class="edge">
<title>syst_instance_type_contexts:w&#45;&gt;syst_application_contexts:e</title>
<path fill="none" stroke="black" d="M1064.45,-179.65C1046.05,-168.06 1060.47,-129.11 1038,-105 1014.2,-79.46 1005.91,-64 971,-64"/>
<polygon fill="black" stroke="black" points="1070.72,-181.14 1077.66,-186.5 1074.61,-182.07 1078.5,-183 1078.5,-183 1078.5,-183 1074.61,-182.07 1079.34,-179.5 1070.72,-181.14 1070.72,-181.14"/>
<ellipse fill="none" stroke="black" cx="1067.61" cy="-180.4" rx="3.2" ry="3.2"/>
</g>
<!-- syst_instance_type_contexts&#45;&gt;syst_instance_type_applications -->
<g id="edge15" class="edge">
<title>syst_instance_type_contexts:w&#45;&gt;syst_instance_type_applications:e</title>
<path fill="none" stroke="black" d="M1064.09,-208.19C1026.13,-229.03 1089.07,-345 1029,-345"/>
<polygon fill="black" stroke="black" points="1070.69,-206.73 1079.28,-208.52 1074.59,-205.86 1078.5,-205 1078.5,-205 1078.5,-205 1074.59,-205.86 1077.72,-201.48 1070.69,-206.73 1070.69,-206.73"/>
<ellipse fill="none" stroke="black" cx="1067.56" cy="-207.42" rx="3.2" ry="3.2"/>
</g>
<!-- syst_instances -->
<g id="node12" class="node">
<title>syst_instances</title>
<g id="a_node12"><a xlink:href="../../tables/syst_instances.html" xlink:title="syst_instances" target="_top">
<polygon fill="#ffffff" stroke="transparent" points="1125.5,-437 1125.5,-495 1263.5,-495 1263.5,-437 1125.5,-437"/>
<polygon fill="#f5f5f5" stroke="transparent" points="1125.5,-473 1125.5,-495 1263.5,-495 1263.5,-473 1125.5,-473"/>
<polygon fill="none" stroke="black" points="1125.5,-473 1125.5,-495 1263.5,-495 1263.5,-473 1125.5,-473"/>
<text text-anchor="start" x="1130.5" y="-482.2" font-family="Helvetica,sans-Serif" font-weight="bold" font-size="11.00">syst_instances</text>
<text text-anchor="start" x="1228.5" y="-481.2" font-family="Helvetica,sans-Serif" font-size="11.00">[table]</text>
<polygon fill="none" stroke="black" points="1125.5,-455 1125.5,-473 1263.5,-473 1263.5,-455 1125.5,-455"/>
<text text-anchor="start" x="1128.5" y="-461.2" font-family="Helvetica,sans-Serif" font-size="11.00">...</text>
<polygon fill="#ffffff" stroke="transparent" points="1125.5,-437 1125.5,-455 1187.5,-455 1187.5,-437 1125.5,-437"/>
<polygon fill="none" stroke="black" points="1125.5,-437 1125.5,-455 1187.5,-455 1187.5,-437 1125.5,-437"/>
<text text-anchor="start" x="1128.5" y="-443.2" font-family="Helvetica,sans-Serif" font-size="11.00">&lt; 5</text>
<polygon fill="#ffffff" stroke="transparent" points="1187.5,-437 1187.5,-455 1220.5,-455 1220.5,-437 1187.5,-437"/>
<polygon fill="none" stroke="black" points="1187.5,-437 1187.5,-455 1220.5,-455 1220.5,-437 1187.5,-437"/>
<text text-anchor="start" x="1210.5" y="-443.2" font-family="Helvetica,sans-Serif" font-size="11.00"> &#160;</text>
<polygon fill="#ffffff" stroke="transparent" points="1220.5,-437 1220.5,-455 1263.5,-455 1263.5,-437 1220.5,-437"/>
<polygon fill="none" stroke="black" points="1220.5,-437 1220.5,-455 1263.5,-455 1263.5,-437 1220.5,-437"/>
<text text-anchor="start" x="1244.5" y="-443.2" font-family="Helvetica,sans-Serif" font-size="11.00">4 &gt;</text>
</a>
</g>
</g>
<!-- syst_instances&#45;&gt;syst_enum_items -->
<g id="edge17" class="edge">
<title>syst_instances:w&#45;&gt;syst_enum_items:e</title>
<path fill="none" stroke="black" d="M1109.86,-464.02C910.08,-464.6 854.89,-477 648,-477"/>
<polygon fill="black" stroke="black" points="1116.5,-464.01 1124.51,-467.6 1120.5,-464.01 1124.5,-464 1124.5,-464 1124.5,-464 1120.5,-464.01 1124.49,-460.4 1116.5,-464.01 1116.5,-464.01"/>
<ellipse fill="none" stroke="black" cx="1113.3" cy="-464.02" rx="3.2" ry="3.2"/>
</g>
<!-- syst_instances&#45;&gt;syst_enum_items -->
<g id="edge18" class="edge">
<title>syst_instances:w&#45;&gt;syst_enum_items:e</title>
<path fill="none" stroke="black" d="M1109.86,-464.02C910.08,-464.6 854.89,-477 648,-477"/>
<polygon fill="black" stroke="black" points="1116.5,-464.01 1124.51,-467.6 1120.5,-464.01 1124.5,-464 1124.5,-464 1124.5,-464 1120.5,-464.01 1124.49,-460.4 1116.5,-464.01 1116.5,-464.01"/>
<ellipse fill="none" stroke="black" cx="1113.3" cy="-464.02" rx="3.2" ry="3.2"/>
</g>
<!-- syst_instances&#45;&gt;syst_owners -->
<g id="edge19" class="edge">
<title>syst_instances:w&#45;&gt;syst_owners:e</title>
<path fill="none" stroke="black" d="M1110.04,-464.49C1030.41,-470.06 1012.17,-521 925,-521"/>
<polygon fill="black" stroke="black" points="1116.5,-464.27 1124.62,-467.6 1120.5,-464.14 1124.5,-464 1124.5,-464 1124.5,-464 1120.5,-464.14 1124.38,-460.4 1116.5,-464.27 1116.5,-464.27"/>
<ellipse fill="none" stroke="black" cx="1113.31" cy="-464.38" rx="3.2" ry="3.2"/>
</g>
<!-- syst_instances&#45;&gt;syst_applications -->
<g id="edge16" class="edge">
<title>syst_instances:w&#45;&gt;syst_applications:e</title>
<path fill="none" stroke="black" d="M1109.89,-463.4C1027.76,-458.15 723.46,-419.85 688,-391 649.91,-360 697.11,-288 648,-288"/>
<polygon fill="black" stroke="black" points="1116.51,-463.67 1124.35,-467.6 1120.5,-463.83 1124.5,-464 1124.5,-464 1124.5,-464 1120.5,-463.83 1124.65,-460.4 1116.51,-463.67 1116.51,-463.67"/>
<ellipse fill="none" stroke="black" cx="1113.31" cy="-463.54" rx="3.2" ry="3.2"/>
</g>
</g>
</svg>
