<?xml version="1.0" encoding="UTF-8" standalone="no"?>
<!DOCTYPE svg PUBLIC "-//W3C//DTD SVG 1.1//EN"
 "http://www.w3.org/Graphics/SVG/1.1/DTD/svg11.dtd">
<!-- Generated by graphviz version 2.43.0 (0)
 -->
<!-- Title: twoDegreesRelationshipsDiagram Pages: 1 -->
<svg width="1844pt" height="510pt"
 viewBox="0.00 0.00 1844.00 510.00" xmlns="http://www.w3.org/2000/svg" xmlns:xlink="http://www.w3.org/1999/xlink">
<g id="graph0" class="graph" transform="scale(1 1) rotate(0) translate(4 506)">
<title>twoDegreesRelationshipsDiagram</title>
<polygon fill="#ffffff" stroke="transparent" points="-4,4 -4,-506 1840,-506 1840,4 -4,4"/>
<text text-anchor="middle" x="71.5" y="-7.2" font-family="Helvetica,sans-Serif" font-size="11.00">Generated by SchemaSpy</text>
<!-- syst_access_account_instance_assocs -->
<g id="node1" class="node">
<title>syst_access_account_instance_assocs</title>
<g id="a_node1"><a xlink:href="../../tables/syst_access_account_instance_assocs.html" xlink:title="syst_access_account_instance_assocs" target="_top">
<polygon fill="#ffffff" stroke="transparent" points="1196,-334 1196,-392 1488,-392 1488,-334 1196,-334"/>
<polygon fill="#f5f5f5" stroke="transparent" points="1196,-370 1196,-392 1488,-392 1488,-370 1196,-370"/>
<polygon fill="none" stroke="black" points="1196,-370 1196,-392 1488,-392 1488,-370 1196,-370"/>
<text text-anchor="start" x="1201" y="-379.2" font-family="Helvetica,sans-Serif" font-weight="bold" font-size="11.00">syst_access_account_instance_assocs</text>
<text text-anchor="start" x="1453" y="-378.2" font-family="Helvetica,sans-Serif" font-size="11.00">[table]</text>
<polygon fill="none" stroke="black" points="1196,-352 1196,-370 1488,-370 1488,-352 1196,-352"/>
<text text-anchor="start" x="1199" y="-358.2" font-family="Helvetica,sans-Serif" font-size="11.00">...</text>
<polygon fill="#ffffff" stroke="transparent" points="1196,-334 1196,-352 1340,-352 1340,-334 1196,-334"/>
<polygon fill="none" stroke="black" points="1196,-334 1196,-352 1340,-352 1340,-334 1196,-334"/>
<text text-anchor="start" x="1199" y="-340.2" font-family="Helvetica,sans-Serif" font-size="11.00">&lt; 2</text>
<polygon fill="#ffffff" stroke="transparent" points="1340,-334 1340,-352 1414,-352 1414,-334 1340,-334"/>
<polygon fill="none" stroke="black" points="1340,-334 1340,-352 1414,-352 1414,-334 1340,-334"/>
<text text-anchor="start" x="1404" y="-340.2" font-family="Helvetica,sans-Serif" font-size="11.00"> &#160;</text>
<polygon fill="#ffffff" stroke="transparent" points="1414,-334 1414,-352 1488,-352 1488,-334 1414,-334"/>
<polygon fill="none" stroke="black" points="1414,-334 1414,-352 1488,-352 1488,-334 1414,-334"/>
<text text-anchor="start" x="1478" y="-340.2" font-family="Helvetica,sans-Serif" font-size="11.00"> &#160;</text>
</a>
</g>
</g>
<!-- syst_access_accounts -->
<g id="node2" class="node">
<title>syst_access_accounts</title>
<g id="a_node2"><a xlink:href="../../tables/syst_access_accounts.html" xlink:title="syst_access_accounts" target="_top">
<polygon fill="#ffffff" stroke="transparent" points="962,-413 962,-471 1147,-471 1147,-413 962,-413"/>
<polygon fill="#f5f5f5" stroke="transparent" points="962.5,-449 962.5,-471 1147.5,-471 1147.5,-449 962.5,-449"/>
<polygon fill="none" stroke="black" points="962.5,-449 962.5,-471 1147.5,-471 1147.5,-449 962.5,-449"/>
<text text-anchor="start" x="967.5" y="-458.2" font-family="Helvetica,sans-Serif" font-weight="bold" font-size="11.00">syst_access_accounts</text>
<text text-anchor="start" x="1112.5" y="-457.2" font-family="Helvetica,sans-Serif" font-size="11.00">[table]</text>
<polygon fill="none" stroke="black" points="962.5,-431 962.5,-449 1147.5,-449 1147.5,-431 962.5,-431"/>
<text text-anchor="start" x="965.5" y="-437.2" font-family="Helvetica,sans-Serif" font-size="11.00">...</text>
<polygon fill="#ffffff" stroke="transparent" points="962.5,-413 962.5,-431 1048.5,-431 1048.5,-413 962.5,-413"/>
<polygon fill="none" stroke="black" points="962.5,-413 962.5,-431 1048.5,-431 1048.5,-413 962.5,-413"/>
<text text-anchor="start" x="965.5" y="-419.2" font-family="Helvetica,sans-Serif" font-size="11.00">&lt; 2</text>
<polygon fill="#ffffff" stroke="transparent" points="1048.5,-413 1048.5,-431 1093.5,-431 1093.5,-413 1048.5,-413"/>
<polygon fill="none" stroke="black" points="1048.5,-413 1048.5,-431 1093.5,-431 1093.5,-413 1048.5,-413"/>
<text text-anchor="start" x="1083.5" y="-419.2" font-family="Helvetica,sans-Serif" font-size="11.00"> &#160;</text>
<polygon fill="#ffffff" stroke="transparent" points="1093.5,-413 1093.5,-431 1147.5,-431 1147.5,-413 1093.5,-413"/>
<polygon fill="none" stroke="black" points="1093.5,-413 1093.5,-431 1147.5,-431 1147.5,-413 1093.5,-413"/>
<text text-anchor="start" x="1128.5" y="-419.2" font-family="Helvetica,sans-Serif" font-size="11.00">4 &gt;</text>
</a>
</g>
</g>
<!-- syst_access_account_instance_assocs&#45;&gt;syst_access_accounts -->
<g id="edge1" class="edge">
<title>syst_access_account_instance_assocs:w&#45;&gt;syst_access_accounts:e</title>
<path fill="none" stroke="black" d="M1181.2,-365.28C1171.02,-373.6 1171.21,-392.1 1155,-403 1151.92,-405.07 1148.71,-407.05 1145.42,-408.95"/>
<polygon fill="black" stroke="black" points="1187.36,-363.37 1196.07,-364.44 1191.18,-362.18 1195,-361 1195,-361 1195,-361 1191.18,-362.18 1193.93,-357.56 1187.36,-363.37 1187.36,-363.37"/>
<ellipse fill="none" stroke="black" cx="1184.3" cy="-364.32" rx="3.2" ry="3.2"/>
</g>
<!-- syst_instances -->
<g id="node3" class="node">
<title>syst_instances</title>
<g id="a_node3"><a xlink:href="../../tables/syst_instances.html" xlink:title="syst_instances" target="_top">
<polygon fill="#ffffff" stroke="transparent" points="985.5,-334 985.5,-392 1123.5,-392 1123.5,-334 985.5,-334"/>
<polygon fill="#f5f5f5" stroke="transparent" points="985.5,-370 985.5,-392 1123.5,-392 1123.5,-370 985.5,-370"/>
<polygon fill="none" stroke="black" points="985.5,-370 985.5,-392 1123.5,-392 1123.5,-370 985.5,-370"/>
<text text-anchor="start" x="990.5" y="-379.2" font-family="Helvetica,sans-Serif" font-weight="bold" font-size="11.00">syst_instances</text>
<text text-anchor="start" x="1088.5" y="-378.2" font-family="Helvetica,sans-Serif" font-size="11.00">[table]</text>
<polygon fill="none" stroke="black" points="985.5,-352 985.5,-370 1123.5,-370 1123.5,-352 985.5,-352"/>
<text text-anchor="start" x="988.5" y="-358.2" font-family="Helvetica,sans-Serif" font-size="11.00">...</text>
<polygon fill="#ffffff" stroke="transparent" points="985.5,-334 985.5,-352 1047.5,-352 1047.5,-334 985.5,-334"/>
<polygon fill="none" stroke="black" points="985.5,-334 985.5,-352 1047.5,-352 1047.5,-334 985.5,-334"/>
<text text-anchor="start" x="988.5" y="-340.2" font-family="Helvetica,sans-Serif" font-size="11.00">&lt; 5</text>
<polygon fill="#ffffff" stroke="transparent" points="1047.5,-334 1047.5,-352 1080.5,-352 1080.5,-334 1047.5,-334"/>
<polygon fill="none" stroke="black" points="1047.5,-334 1047.5,-352 1080.5,-352 1080.5,-334 1047.5,-334"/>
<text text-anchor="start" x="1070.5" y="-340.2" font-family="Helvetica,sans-Serif" font-size="11.00"> &#160;</text>
<polygon fill="#ffffff" stroke="transparent" points="1080.5,-334 1080.5,-352 1123.5,-352 1123.5,-334 1080.5,-334"/>
<polygon fill="none" stroke="black" points="1080.5,-334 1080.5,-352 1123.5,-352 1123.5,-334 1080.5,-334"/>
<text text-anchor="start" x="1104.5" y="-340.2" font-family="Helvetica,sans-Serif" font-size="11.00">4 &gt;</text>
</a>
</g>
</g>
<!-- syst_access_account_instance_assocs&#45;&gt;syst_instances -->
<g id="edge2" class="edge">
<title>syst_access_account_instance_assocs:w&#45;&gt;syst_instances:e</title>
<path fill="none" stroke="black" d="M1180.4,-361C1160.19,-361 1150.33,-361 1124.5,-361"/>
<polygon fill="black" stroke="black" points="1187,-361 1195,-364.6 1191,-361 1195,-361 1195,-361 1195,-361 1191,-361 1195,-357.4 1187,-361 1187,-361"/>
<ellipse fill="none" stroke="black" cx="1183.8" cy="-361" rx="3.2" ry="3.2"/>
</g>
<!-- syst_enum_items -->
<g id="node4" class="node">
<title>syst_enum_items</title>
<g id="a_node4"><a xlink:href="../../tables/syst_enum_items.html" xlink:title="syst_enum_items" target="_top">
<polygon fill="#ffffff" stroke="transparent" points="453,-314 453,-372 608,-372 608,-314 453,-314"/>
<polygon fill="#f5f5f5" stroke="transparent" points="453.5,-350 453.5,-372 608.5,-372 608.5,-350 453.5,-350"/>
<polygon fill="none" stroke="black" points="453.5,-350 453.5,-372 608.5,-372 608.5,-350 453.5,-350"/>
<text text-anchor="start" x="458.5" y="-359.2" font-family="Helvetica,sans-Serif" font-weight="bold" font-size="11.00">syst_enum_items</text>
<text text-anchor="start" x="573.5" y="-358.2" font-family="Helvetica,sans-Serif" font-size="11.00">[table]</text>
<polygon fill="none" stroke="black" points="453.5,-332 453.5,-350 608.5,-350 608.5,-332 453.5,-332"/>
<text text-anchor="start" x="456.5" y="-338.2" font-family="Helvetica,sans-Serif" font-size="11.00">...</text>
<polygon fill="#ffffff" stroke="transparent" points="453.5,-314 453.5,-332 524.5,-332 524.5,-314 453.5,-314"/>
<polygon fill="none" stroke="black" points="453.5,-314 453.5,-332 524.5,-332 524.5,-314 453.5,-314"/>
<text text-anchor="start" x="456.5" y="-320.2" font-family="Helvetica,sans-Serif" font-size="11.00">&lt; 2</text>
<polygon fill="#ffffff" stroke="transparent" points="524.5,-314 524.5,-332 561.5,-332 561.5,-314 524.5,-314"/>
<polygon fill="none" stroke="black" points="524.5,-314 524.5,-332 561.5,-332 561.5,-314 524.5,-314"/>
<text text-anchor="start" x="551.5" y="-320.2" font-family="Helvetica,sans-Serif" font-size="11.00"> &#160;</text>
<polygon fill="#ffffff" stroke="transparent" points="561.5,-314 561.5,-332 608.5,-332 608.5,-314 561.5,-314"/>
<polygon fill="none" stroke="black" points="561.5,-314 561.5,-332 608.5,-332 608.5,-314 561.5,-314"/>
<text text-anchor="start" x="589.5" y="-320.2" font-family="Helvetica,sans-Serif" font-size="11.00">7 &gt;</text>
</a>
</g>
</g>
<!-- syst_access_accounts&#45;&gt;syst_enum_items -->
<g id="edge3" class="edge">
<title>syst_access_accounts:w&#45;&gt;syst_enum_items:e</title>
<path fill="none" stroke="black" d="M939.41,-462.42C856.32,-472.48 742.44,-476.12 649,-442 613.17,-428.92 580.7,-399.56 559.03,-376.19"/>
<polygon fill="black" stroke="black" points="945.84,-461.6 954.23,-464.15 949.81,-461.09 953.77,-460.58 953.77,-460.58 953.77,-460.58 949.81,-461.09 953.32,-457.01 945.84,-461.6 945.84,-461.6"/>
<ellipse fill="none" stroke="black" cx="942.66" cy="-462" rx="3.2" ry="3.2"/>
</g>
<!-- syst_owners -->
<g id="node5" class="node">
<title>syst_owners</title>
<g id="a_node5"><a xlink:href="../../tables/syst_owners.html" xlink:title="syst_owners" target="_top">
<polygon fill="#ffffff" stroke="transparent" points="724,-373 724,-431 846,-431 846,-373 724,-373"/>
<polygon fill="#f5f5f5" stroke="transparent" points="724,-409 724,-431 846,-431 846,-409 724,-409"/>
<polygon fill="none" stroke="black" points="724,-409 724,-431 846,-431 846,-409 724,-409"/>
<text text-anchor="start" x="729" y="-418.2" font-family="Helvetica,sans-Serif" font-weight="bold" font-size="11.00">syst_owners</text>
<text text-anchor="start" x="811" y="-417.2" font-family="Helvetica,sans-Serif" font-size="11.00">[table]</text>
<polygon fill="none" stroke="black" points="724,-391 724,-409 846,-409 846,-391 724,-391"/>
<text text-anchor="start" x="727" y="-397.2" font-family="Helvetica,sans-Serif" font-size="11.00">...</text>
<polygon fill="#ffffff" stroke="transparent" points="724,-373 724,-391 778,-391 778,-373 724,-373"/>
<polygon fill="none" stroke="black" points="724,-373 724,-391 778,-391 778,-373 724,-373"/>
<text text-anchor="start" x="727" y="-379.2" font-family="Helvetica,sans-Serif" font-size="11.00">&lt; 1</text>
<polygon fill="#ffffff" stroke="transparent" points="778,-373 778,-391 807,-391 807,-373 778,-373"/>
<polygon fill="none" stroke="black" points="778,-373 778,-391 807,-391 807,-373 778,-373"/>
<text text-anchor="start" x="797" y="-379.2" font-family="Helvetica,sans-Serif" font-size="11.00"> &#160;</text>
<polygon fill="#ffffff" stroke="transparent" points="807,-373 807,-391 846,-391 846,-373 807,-373"/>
<polygon fill="none" stroke="black" points="807,-373 807,-391 846,-391 846,-373 807,-373"/>
<text text-anchor="start" x="827" y="-379.2" font-family="Helvetica,sans-Serif" font-size="11.00">4 &gt;</text>
</a>
</g>
</g>
<!-- syst_access_accounts&#45;&gt;syst_owners -->
<g id="edge4" class="edge">
<title>syst_access_accounts:w&#45;&gt;syst_owners:e</title>
<path fill="none" stroke="black" d="M939.34,-410.32C909.52,-404.38 877.26,-400 847,-400"/>
<polygon fill="black" stroke="black" points="945.93,-411.7 953.02,-416.87 949.84,-412.53 953.76,-413.35 953.76,-413.35 953.76,-413.35 949.84,-412.53 954.5,-409.82 945.93,-411.7 945.93,-411.7"/>
<ellipse fill="none" stroke="black" cx="942.8" cy="-411.05" rx="3.2" ry="3.2"/>
</g>
<!-- syst_instances&#45;&gt;syst_enum_items -->
<g id="edge14" class="edge">
<title>syst_instances:w&#45;&gt;syst_enum_items:e</title>
<path fill="none" stroke="black" d="M969.73,-360.54C844.76,-356.52 703.71,-348.31 616.2,-344.22"/>
<polygon fill="black" stroke="black" points="976.5,-360.75 984.39,-364.6 980.5,-360.88 984.5,-361 984.5,-361 984.5,-361 980.5,-360.88 984.61,-357.4 976.5,-360.75 976.5,-360.75"/>
<ellipse fill="none" stroke="black" cx="973.31" cy="-360.65" rx="3.2" ry="3.2"/>
</g>
<!-- syst_instances&#45;&gt;syst_enum_items -->
<g id="edge15" class="edge">
<title>syst_instances:w&#45;&gt;syst_enum_items:e</title>
<path fill="none" stroke="black" d="M969.73,-361.47C844.76,-365.03 703.71,-359.51 616.2,-353.23"/>
<polygon fill="black" stroke="black" points="976.5,-361.25 984.61,-364.6 980.5,-361.13 984.5,-361 984.5,-361 984.5,-361 980.5,-361.13 984.39,-357.4 976.5,-361.25 976.5,-361.25"/>
<ellipse fill="none" stroke="black" cx="973.31" cy="-361.35" rx="3.2" ry="3.2"/>
</g>
<!-- syst_instances&#45;&gt;syst_owners -->
<g id="edge16" class="edge">
<title>syst_instances:w&#45;&gt;syst_owners:e</title>
<path fill="none" stroke="black" d="M969.88,-361.74C918.91,-367.14 905.31,-400 847,-400"/>
<polygon fill="black" stroke="black" points="976.51,-361.41 984.68,-364.6 980.51,-361.2 984.5,-361 984.5,-361 984.5,-361 980.51,-361.2 984.32,-357.4 976.51,-361.41 976.51,-361.41"/>
<ellipse fill="none" stroke="black" cx="973.31" cy="-361.57" rx="3.2" ry="3.2"/>
</g>
<!-- syst_enum_functional_types -->
<g id="node8" class="node">
<title>syst_enum_functional_types</title>
<g id="a_node8"><a xlink:href="../../tables/syst_enum_functional_types.html" xlink:title="syst_enum_functional_types" target="_top">
<polygon fill="#ffffff" stroke="transparent" points="175,-289 175,-347 404,-347 404,-289 175,-289"/>
<polygon fill="#f5f5f5" stroke="transparent" points="175.5,-325 175.5,-347 404.5,-347 404.5,-325 175.5,-325"/>
<polygon fill="none" stroke="black" points="175.5,-325 175.5,-347 404.5,-347 404.5,-325 175.5,-325"/>
<text text-anchor="start" x="180.5" y="-334.2" font-family="Helvetica,sans-Serif" font-weight="bold" font-size="11.00">syst_enum_functional_types</text>
<text text-anchor="start" x="369.5" y="-333.2" font-family="Helvetica,sans-Serif" font-size="11.00">[table]</text>
<polygon fill="none" stroke="black" points="175.5,-307 175.5,-325 404.5,-325 404.5,-307 175.5,-307"/>
<text text-anchor="start" x="178.5" y="-313.2" font-family="Helvetica,sans-Serif" font-size="11.00">...</text>
<polygon fill="#ffffff" stroke="transparent" points="175.5,-289 175.5,-307 283.5,-307 283.5,-289 175.5,-289"/>
<polygon fill="none" stroke="black" points="175.5,-289 175.5,-307 283.5,-307 283.5,-289 175.5,-289"/>
<text text-anchor="start" x="178.5" y="-295.2" font-family="Helvetica,sans-Serif" font-size="11.00">&lt; 1</text>
<polygon fill="#ffffff" stroke="transparent" points="283.5,-289 283.5,-307 339.5,-307 339.5,-289 283.5,-289"/>
<polygon fill="none" stroke="black" points="283.5,-289 283.5,-307 339.5,-307 339.5,-289 283.5,-289"/>
<text text-anchor="start" x="329.5" y="-295.2" font-family="Helvetica,sans-Serif" font-size="11.00"> &#160;</text>
<polygon fill="#ffffff" stroke="transparent" points="339.5,-289 339.5,-307 404.5,-307 404.5,-289 339.5,-289"/>
<polygon fill="none" stroke="black" points="339.5,-289 339.5,-307 404.5,-307 404.5,-289 339.5,-289"/>
<text text-anchor="start" x="385.5" y="-295.2" font-family="Helvetica,sans-Serif" font-size="11.00">1 &gt;</text>
</a>
</g>
</g>
<!-- syst_enum_items&#45;&gt;syst_enum_functional_types -->
<g id="edge10" class="edge">
<title>syst_enum_items:w&#45;&gt;syst_enum_functional_types:e</title>
<path fill="none" stroke="black" d="M430.43,-317.53C422.05,-316.56 413.66,-316 405.5,-316"/>
<polygon fill="black" stroke="black" points="437.06,-318.47 444.48,-323.15 441.02,-319.03 444.98,-319.59 444.98,-319.59 444.98,-319.59 441.02,-319.03 445.48,-316.02 437.06,-318.47 437.06,-318.47"/>
<ellipse fill="none" stroke="black" cx="433.89" cy="-318.02" rx="3.2" ry="3.2"/>
</g>
<!-- syst_enums -->
<g id="node9" class="node">
<title>syst_enums</title>
<g id="a_node9"><a xlink:href="../../tables/syst_enums.html" xlink:title="syst_enums" target="_top">
<polygon fill="#ffffff" stroke="transparent" points="8,-316 8,-374 126,-374 126,-316 8,-316"/>
<polygon fill="#f5f5f5" stroke="transparent" points="8,-352 8,-374 126,-374 126,-352 8,-352"/>
<polygon fill="none" stroke="black" points="8,-352 8,-374 126,-374 126,-352 8,-352"/>
<text text-anchor="start" x="13" y="-361.2" font-family="Helvetica,sans-Serif" font-weight="bold" font-size="11.00">syst_enums</text>
<text text-anchor="start" x="91" y="-360.2" font-family="Helvetica,sans-Serif" font-size="11.00">[table]</text>
<polygon fill="none" stroke="black" points="8,-334 8,-352 126,-352 126,-334 8,-334"/>
<text text-anchor="start" x="11" y="-340.2" font-family="Helvetica,sans-Serif" font-size="11.00">...</text>
<polygon fill="#ffffff" stroke="transparent" points="8,-316 8,-334 56,-334 56,-316 8,-316"/>
<polygon fill="none" stroke="black" points="8,-316 8,-334 56,-334 56,-316 8,-316"/>
<text text-anchor="start" x="11" y="-322.2" font-family="Helvetica,sans-Serif" font-size="11.00"> &#160;</text>
<polygon fill="#ffffff" stroke="transparent" points="56,-316 56,-334 86,-334 86,-316 56,-316"/>
<polygon fill="none" stroke="black" points="56,-316 56,-334 86,-334 86,-316 56,-316"/>
<text text-anchor="start" x="76" y="-322.2" font-family="Helvetica,sans-Serif" font-size="11.00"> &#160;</text>
<polygon fill="#ffffff" stroke="transparent" points="86,-316 86,-334 126,-334 126,-316 86,-316"/>
<polygon fill="none" stroke="black" points="86,-316 86,-334 126,-334 126,-316 86,-316"/>
<text text-anchor="start" x="107" y="-322.2" font-family="Helvetica,sans-Serif" font-size="11.00">2 &gt;</text>
</a>
</g>
</g>
<!-- syst_enum_items&#45;&gt;syst_enums -->
<g id="edge9" class="edge">
<title>syst_enum_items:w&#45;&gt;syst_enums:e</title>
<path fill="none" stroke="black" d="M430.38,-356.56C424.17,-357.13 418,-357.62 412,-358 303.33,-364.91 274.14,-377.43 167,-358 148.32,-354.61 145.99,-343 127,-343"/>
<polygon fill="black" stroke="black" points="436.95,-355.9 445.26,-358.68 440.93,-355.5 444.91,-355.1 444.91,-355.1 444.91,-355.1 440.93,-355.5 444.55,-351.52 436.95,-355.9 436.95,-355.9"/>
<ellipse fill="none" stroke="black" cx="433.76" cy="-356.22" rx="3.2" ry="3.2"/>
</g>
<!-- syst_owners&#45;&gt;syst_enum_items -->
<g id="edge17" class="edge">
<title>syst_owners:w&#45;&gt;syst_enum_items:e</title>
<path fill="none" stroke="black" d="M708.53,-399.52C673.32,-397.24 636.95,-387.18 606.4,-376.16"/>
<polygon fill="black" stroke="black" points="715,-399.74 722.88,-403.6 719,-399.87 723,-400 723,-400 723,-400 719,-399.87 723.12,-396.4 715,-399.74 715,-399.74"/>
<ellipse fill="none" stroke="black" cx="711.81" cy="-399.63" rx="3.2" ry="3.2"/>
</g>
<!-- syst_credentials -->
<g id="node6" class="node">
<title>syst_credentials</title>
<g id="a_node6"><a xlink:href="../../tables/syst_credentials.html" xlink:title="syst_credentials" target="_top">
<polygon fill="#ffffff" stroke="transparent" points="1537,-37 1537,-389 1828,-389 1828,-37 1537,-37"/>
<polygon fill="#f5f5f5" stroke="transparent" points="1539.5,-365 1539.5,-387 1826.5,-387 1826.5,-365 1539.5,-365"/>
<polygon fill="none" stroke="black" points="1539.5,-365 1539.5,-387 1826.5,-387 1826.5,-365 1539.5,-365"/>
<text text-anchor="start" x="1544.5" y="-374.2" font-family="Helvetica,sans-Serif" font-weight="bold" font-size="11.00">syst_credentials</text>
<text text-anchor="start" x="1791.5" y="-373.2" font-family="Helvetica,sans-Serif" font-size="11.00">[table]</text>
<polygon fill="none" stroke="black" points="1539.5,-343 1539.5,-365 1733.5,-365 1733.5,-343 1539.5,-343"/>
<image xlink:href="../../images/primaryKeys.png" width="11px" height="12px" preserveAspectRatio="xMinYMin meet" x="1544.5" y="-360"/>
<text text-anchor="start" x="1559.5" y="-351.2" font-family="Helvetica,sans-Serif" font-size="11.00">id</text>
<polygon fill="none" stroke="black" points="1733.5,-343 1733.5,-365 1826.5,-365 1826.5,-343 1733.5,-343"/>
<text text-anchor="start" x="1736.5" y="-351.2" font-family="Helvetica,sans-Serif" font-size="11.00">uuid[2147483647]</text>
<polygon fill="#ffffff" stroke="transparent" points="1539.5,-321 1539.5,-343 1733.5,-343 1733.5,-321 1539.5,-321"/>
<polygon fill="none" stroke="black" points="1539.5,-321 1539.5,-343 1733.5,-343 1733.5,-321 1539.5,-321"/>
<image xlink:href="../../images/foreignKeys.png" width="11px" height="12px" preserveAspectRatio="xMinYMin meet" x="1544.5" y="-338"/>
<text text-anchor="start" x="1559.5" y="-329.2" font-family="Helvetica,sans-Serif" font-size="11.00">access_account_id</text>
<polygon fill="none" stroke="black" points="1733.5,-321 1733.5,-343 1826.5,-343 1826.5,-321 1733.5,-321"/>
<text text-anchor="start" x="1736.5" y="-329.2" font-family="Helvetica,sans-Serif" font-size="11.00">uuid[2147483647]</text>
<polygon fill="#ffffff" stroke="transparent" points="1539.5,-299 1539.5,-321 1733.5,-321 1733.5,-299 1539.5,-299"/>
<polygon fill="none" stroke="black" points="1539.5,-299 1539.5,-321 1733.5,-321 1733.5,-299 1539.5,-299"/>
<image xlink:href="../../images/foreignKeys.png" width="11px" height="12px" preserveAspectRatio="xMinYMin meet" x="1544.5" y="-316"/>
<text text-anchor="start" x="1559.5" y="-307.2" font-family="Helvetica,sans-Serif" font-size="11.00">credential_type_id</text>
<polygon fill="none" stroke="black" points="1733.5,-299 1733.5,-321 1826.5,-321 1826.5,-299 1733.5,-299"/>
<text text-anchor="start" x="1736.5" y="-307.2" font-family="Helvetica,sans-Serif" font-size="11.00">uuid[2147483647]</text>
<polygon fill="#ffffff" stroke="transparent" points="1539.5,-277 1539.5,-299 1733.5,-299 1733.5,-277 1539.5,-277"/>
<polygon fill="none" stroke="black" points="1539.5,-277 1539.5,-299 1733.5,-299 1733.5,-277 1539.5,-277"/>
<image xlink:href="../../images/foreignKeys.png" width="11px" height="12px" preserveAspectRatio="xMinYMin meet" x="1544.5" y="-294"/>
<text text-anchor="start" x="1559.5" y="-285.2" font-family="Helvetica,sans-Serif" font-size="11.00">credential_for_identity_id</text>
<polygon fill="none" stroke="black" points="1733.5,-277 1733.5,-299 1826.5,-299 1826.5,-277 1733.5,-277"/>
<text text-anchor="start" x="1736.5" y="-285.2" font-family="Helvetica,sans-Serif" font-size="11.00">uuid[2147483647]</text>
<polygon fill="none" stroke="black" points="1539.5,-255 1539.5,-277 1733.5,-277 1733.5,-255 1539.5,-255"/>
<text text-anchor="start" x="1559.5" y="-263.2" font-family="Helvetica,sans-Serif" font-size="11.00">credential_data</text>
<polygon fill="none" stroke="black" points="1733.5,-255 1733.5,-277 1826.5,-277 1826.5,-255 1733.5,-255"/>
<text text-anchor="start" x="1736.5" y="-263.2" font-family="Helvetica,sans-Serif" font-size="11.00">text[2147483647]</text>
<polygon fill="none" stroke="black" points="1539.5,-233 1539.5,-255 1733.5,-255 1733.5,-233 1539.5,-233"/>
<text text-anchor="start" x="1559.5" y="-241.2" font-family="Helvetica,sans-Serif" font-size="11.00">last_updated</text>
<polygon fill="none" stroke="black" points="1733.5,-233 1733.5,-255 1826.5,-255 1826.5,-233 1733.5,-233"/>
<text text-anchor="start" x="1736.5" y="-241.2" font-family="Helvetica,sans-Serif" font-size="11.00">timestamptz[35,6]</text>
<polygon fill="none" stroke="black" points="1539.5,-211 1539.5,-233 1733.5,-233 1733.5,-211 1539.5,-211"/>
<text text-anchor="start" x="1559.5" y="-219.2" font-family="Helvetica,sans-Serif" font-size="11.00">force_reset</text>
<polygon fill="none" stroke="black" points="1733.5,-211 1733.5,-233 1826.5,-233 1826.5,-211 1733.5,-211"/>
<text text-anchor="start" x="1736.5" y="-219.2" font-family="Helvetica,sans-Serif" font-size="11.00">timestamptz[35,6]</text>
<polygon fill="none" stroke="black" points="1539.5,-189 1539.5,-211 1733.5,-211 1733.5,-189 1539.5,-189"/>
<text text-anchor="start" x="1559.5" y="-197.2" font-family="Helvetica,sans-Serif" font-size="11.00">diag_timestamp_created</text>
<polygon fill="none" stroke="black" points="1733.5,-189 1733.5,-211 1826.5,-211 1826.5,-189 1733.5,-189"/>
<text text-anchor="start" x="1736.5" y="-197.2" font-family="Helvetica,sans-Serif" font-size="11.00">timestamptz[35,6]</text>
<polygon fill="none" stroke="black" points="1539.5,-167 1539.5,-189 1733.5,-189 1733.5,-167 1539.5,-167"/>
<text text-anchor="start" x="1559.5" y="-175.2" font-family="Helvetica,sans-Serif" font-size="11.00">diag_role_created</text>
<polygon fill="none" stroke="black" points="1733.5,-167 1733.5,-189 1826.5,-189 1826.5,-167 1733.5,-167"/>
<text text-anchor="start" x="1736.5" y="-175.2" font-family="Helvetica,sans-Serif" font-size="11.00">text[2147483647]</text>
<polygon fill="none" stroke="black" points="1539.5,-145 1539.5,-167 1733.5,-167 1733.5,-145 1539.5,-145"/>
<text text-anchor="start" x="1559.5" y="-153.2" font-family="Helvetica,sans-Serif" font-size="11.00">diag_timestamp_modified</text>
<polygon fill="none" stroke="black" points="1733.5,-145 1733.5,-167 1826.5,-167 1826.5,-145 1733.5,-145"/>
<text text-anchor="start" x="1736.5" y="-153.2" font-family="Helvetica,sans-Serif" font-size="11.00">timestamptz[35,6]</text>
<polygon fill="none" stroke="black" points="1539.5,-123 1539.5,-145 1733.5,-145 1733.5,-123 1539.5,-123"/>
<text text-anchor="start" x="1559.5" y="-131.2" font-family="Helvetica,sans-Serif" font-size="11.00">diag_wallclock_modified</text>
<polygon fill="none" stroke="black" points="1733.5,-123 1733.5,-145 1826.5,-145 1826.5,-123 1733.5,-123"/>
<text text-anchor="start" x="1736.5" y="-131.2" font-family="Helvetica,sans-Serif" font-size="11.00">timestamptz[35,6]</text>
<polygon fill="none" stroke="black" points="1539.5,-101 1539.5,-123 1733.5,-123 1733.5,-101 1539.5,-101"/>
<text text-anchor="start" x="1559.5" y="-109.2" font-family="Helvetica,sans-Serif" font-size="11.00">diag_role_modified</text>
<polygon fill="none" stroke="black" points="1733.5,-101 1733.5,-123 1826.5,-123 1826.5,-101 1733.5,-101"/>
<text text-anchor="start" x="1736.5" y="-109.2" font-family="Helvetica,sans-Serif" font-size="11.00">text[2147483647]</text>
<polygon fill="none" stroke="black" points="1539.5,-79 1539.5,-101 1733.5,-101 1733.5,-79 1539.5,-79"/>
<text text-anchor="start" x="1559.5" y="-87.2" font-family="Helvetica,sans-Serif" font-size="11.00">diag_row_version</text>
<polygon fill="none" stroke="black" points="1733.5,-79 1733.5,-101 1826.5,-101 1826.5,-79 1733.5,-79"/>
<text text-anchor="start" x="1736.5" y="-87.2" font-family="Helvetica,sans-Serif" font-size="11.00">int8[19]</text>
<polygon fill="none" stroke="black" points="1539.5,-57 1539.5,-79 1733.5,-79 1733.5,-57 1539.5,-57"/>
<text text-anchor="start" x="1559.5" y="-65.2" font-family="Helvetica,sans-Serif" font-size="11.00">diag_update_count</text>
<polygon fill="none" stroke="black" points="1733.5,-57 1733.5,-79 1826.5,-79 1826.5,-57 1733.5,-57"/>
<text text-anchor="start" x="1736.5" y="-65.2" font-family="Helvetica,sans-Serif" font-size="11.00">int8[19]</text>
<polygon fill="#ffffff" stroke="transparent" points="1539.5,-39 1539.5,-57 1640.5,-57 1640.5,-39 1539.5,-39"/>
<polygon fill="none" stroke="black" points="1539.5,-39 1539.5,-57 1640.5,-57 1640.5,-39 1539.5,-39"/>
<text text-anchor="start" x="1542.5" y="-45.2" font-family="Helvetica,sans-Serif" font-size="11.00">&lt; 3</text>
<polygon fill="#ffffff" stroke="transparent" points="1640.5,-39 1640.5,-57 1733.5,-57 1733.5,-39 1640.5,-39"/>
<polygon fill="none" stroke="black" points="1640.5,-39 1640.5,-57 1733.5,-57 1733.5,-39 1640.5,-39"/>
<text text-anchor="start" x="1723.5" y="-45.2" font-family="Helvetica,sans-Serif" font-size="11.00"> &#160;</text>
<polygon fill="#ffffff" stroke="transparent" points="1733.5,-39 1733.5,-57 1826.5,-57 1826.5,-39 1733.5,-39"/>
<polygon fill="none" stroke="black" points="1733.5,-39 1733.5,-57 1826.5,-57 1826.5,-39 1733.5,-39"/>
<text text-anchor="start" x="1807.5" y="-45.2" font-family="Helvetica,sans-Serif" font-size="11.00">0 &gt;</text>
<polygon fill="none" stroke="black" stroke-width="2" points="1538,-38 1538,-388 1827,-388 1827,-38 1538,-38"/>
</a>
</g>
</g>
<!-- syst_credentials&#45;&gt;syst_access_accounts -->
<g id="edge5" class="edge">
<title>syst_credentials:w&#45;&gt;syst_access_accounts:e</title>
<path fill="none" stroke="black" d="M1524.45,-336.14C1508.8,-348.75 1521.81,-386.84 1496,-403 1437.77,-439.46 1256.44,-423.9 1188,-430 1177.42,-430.94 1166.36,-431.93 1155.34,-432.93"/>
<polygon fill="black" stroke="black" points="1530.83,-334.26 1539.52,-335.45 1534.66,-333.13 1538.5,-332 1538.5,-332 1538.5,-332 1534.66,-333.13 1537.48,-328.55 1530.83,-334.26 1530.83,-334.26"/>
<ellipse fill="none" stroke="black" cx="1527.76" cy="-335.16" rx="3.2" ry="3.2"/>
</g>
<!-- syst_credentials&#45;&gt;syst_enum_items -->
<g id="edge7" class="edge">
<title>syst_credentials:w&#45;&gt;syst_enum_items:e</title>
<path fill="none" stroke="black" d="M1523.93,-310.01C1184.83,-310.54 786.62,-329.4 616.01,-338.36"/>
<polygon fill="black" stroke="black" points="1530.5,-310.01 1538.5,-313.6 1534.5,-310 1538.5,-310 1538.5,-310 1538.5,-310 1534.5,-310 1538.5,-306.4 1530.5,-310.01 1530.5,-310.01"/>
<ellipse fill="none" stroke="black" cx="1527.3" cy="-310.01" rx="3.2" ry="3.2"/>
</g>
<!-- syst_identities -->
<g id="node7" class="node">
<title>syst_identities</title>
<g id="a_node7"><a xlink:href="../../tables/syst_identities.html" xlink:title="syst_identities" target="_top">
<polygon fill="#ffffff" stroke="transparent" points="1273,-228 1273,-286 1411,-286 1411,-228 1273,-228"/>
<polygon fill="#f5f5f5" stroke="transparent" points="1273,-264 1273,-286 1411,-286 1411,-264 1273,-264"/>
<polygon fill="none" stroke="black" points="1273,-264 1273,-286 1411,-286 1411,-264 1273,-264"/>
<text text-anchor="start" x="1278" y="-273.2" font-family="Helvetica,sans-Serif" font-weight="bold" font-size="11.00">syst_identities</text>
<text text-anchor="start" x="1376" y="-272.2" font-family="Helvetica,sans-Serif" font-size="11.00">[table]</text>
<polygon fill="none" stroke="black" points="1273,-246 1273,-264 1411,-264 1411,-246 1273,-246"/>
<text text-anchor="start" x="1276" y="-252.2" font-family="Helvetica,sans-Serif" font-size="11.00">...</text>
<polygon fill="#ffffff" stroke="transparent" points="1273,-228 1273,-246 1335,-246 1335,-228 1273,-228"/>
<polygon fill="none" stroke="black" points="1273,-228 1273,-246 1335,-246 1335,-228 1273,-228"/>
<text text-anchor="start" x="1276" y="-234.2" font-family="Helvetica,sans-Serif" font-size="11.00">&lt; 3</text>
<polygon fill="#ffffff" stroke="transparent" points="1335,-228 1335,-246 1368,-246 1368,-228 1335,-228"/>
<polygon fill="none" stroke="black" points="1335,-228 1335,-246 1368,-246 1368,-228 1335,-228"/>
<text text-anchor="start" x="1358" y="-234.2" font-family="Helvetica,sans-Serif" font-size="11.00"> &#160;</text>
<polygon fill="#ffffff" stroke="transparent" points="1368,-228 1368,-246 1411,-246 1411,-228 1368,-228"/>
<polygon fill="none" stroke="black" points="1368,-228 1368,-246 1411,-246 1411,-228 1368,-228"/>
<text text-anchor="start" x="1392" y="-234.2" font-family="Helvetica,sans-Serif" font-size="11.00">2 &gt;</text>
</a>
</g>
</g>
<!-- syst_credentials&#45;&gt;syst_identities -->
<g id="edge6" class="edge">
<title>syst_credentials:w&#45;&gt;syst_identities:e</title>
<path fill="none" stroke="black" d="M1523.93,-287.73C1488.34,-286.46 1450.78,-280.85 1419.16,-274.76"/>
<polygon fill="black" stroke="black" points="1530.5,-287.85 1538.43,-291.6 1534.5,-287.93 1538.5,-288 1538.5,-288 1538.5,-288 1534.5,-287.93 1538.57,-284.4 1530.5,-287.85 1530.5,-287.85"/>
<ellipse fill="none" stroke="black" cx="1527.3" cy="-287.79" rx="3.2" ry="3.2"/>
</g>
<!-- syst_identities&#45;&gt;syst_access_accounts -->
<g id="edge11" class="edge">
<title>syst_identities:w&#45;&gt;syst_access_accounts:e</title>
<path fill="none" stroke="black" d="M1251.41,-282.83C1228.54,-292.79 1205.5,-306.2 1188,-324 1161.32,-351.13 1182.2,-376.39 1155,-403 1152.88,-405.08 1150.63,-407.04 1148.29,-408.91"/>
<polygon fill="black" stroke="black" points="1257.4,-280.39 1266.17,-280.7 1261.11,-278.88 1264.81,-277.37 1264.81,-277.37 1264.81,-277.37 1261.11,-278.88 1263.45,-274.03 1257.4,-280.39 1257.4,-280.39"/>
<ellipse fill="none" stroke="black" cx="1254.44" cy="-281.6" rx="3.2" ry="3.2"/>
</g>
<!-- syst_identities&#45;&gt;syst_enum_items -->
<g id="edge12" class="edge">
<title>syst_identities:w&#45;&gt;syst_enum_items:e</title>
<path fill="none" stroke="black" d="M1250.45,-259.39C1089.79,-264.16 761.25,-276.49 649,-300 636.99,-302.52 624.55,-306.02 612.47,-309.94"/>
<polygon fill="black" stroke="black" points="1256.99,-259.19 1265.1,-262.56 1260.99,-259.08 1264.99,-258.96 1264.99,-258.96 1264.99,-258.96 1260.99,-259.08 1264.89,-255.36 1256.99,-259.19 1256.99,-259.19"/>
<ellipse fill="none" stroke="black" cx="1253.8" cy="-259.29" rx="3.2" ry="3.2"/>
</g>
<!-- syst_enum_functional_types&#45;&gt;syst_enums -->
<g id="edge8" class="edge">
<title>syst_enum_functional_types:w&#45;&gt;syst_enums:e</title>
<path fill="none" stroke="black" d="M160.6,-319.98C149.25,-327.49 145.4,-343 127,-343"/>
<polygon fill="black" stroke="black" points="166.81,-318.2 175.49,-319.46 170.65,-317.1 174.5,-316 174.5,-316 174.5,-316 170.65,-317.1 173.51,-312.54 166.81,-318.2 166.81,-318.2"/>
<ellipse fill="none" stroke="black" cx="163.73" cy="-319.09" rx="3.2" ry="3.2"/>
</g>
<!-- syst_instance_type_applications -->
<g id="node10" class="node">
<title>syst_instance_type_applications</title>
<g id="a_node10"><a xlink:href="../../tables/syst_instance_type_applications.html" xlink:title="syst_instance_type_applications" target="_top">
<polygon fill="#ffffff" stroke="transparent" points="657,-201 657,-259 913,-259 913,-201 657,-201"/>
<polygon fill="#f5f5f5" stroke="transparent" points="657,-237 657,-259 913,-259 913,-237 657,-237"/>
<polygon fill="none" stroke="black" points="657,-237 657,-259 913,-259 913,-237 657,-237"/>
<text text-anchor="start" x="662" y="-246.2" font-family="Helvetica,sans-Serif" font-weight="bold" font-size="11.00">syst_instance_type_applications</text>
<text text-anchor="start" x="878" y="-245.2" font-family="Helvetica,sans-Serif" font-size="11.00">[table]</text>
<polygon fill="none" stroke="black" points="657,-219 657,-237 913,-237 913,-219 657,-219"/>
<text text-anchor="start" x="660" y="-225.2" font-family="Helvetica,sans-Serif" font-size="11.00">...</text>
<polygon fill="#ffffff" stroke="transparent" points="657,-201 657,-219 778,-219 778,-201 657,-201"/>
<polygon fill="none" stroke="black" points="657,-201 657,-219 778,-219 778,-201 657,-201"/>
<text text-anchor="start" x="660" y="-207.2" font-family="Helvetica,sans-Serif" font-size="11.00">&lt; 2</text>
<polygon fill="#ffffff" stroke="transparent" points="778,-201 778,-219 841,-219 841,-201 778,-201"/>
<polygon fill="none" stroke="black" points="778,-201 778,-219 841,-219 841,-201 778,-201"/>
<text text-anchor="start" x="831" y="-207.2" font-family="Helvetica,sans-Serif" font-size="11.00"> &#160;</text>
<polygon fill="#ffffff" stroke="transparent" points="841,-201 841,-219 913,-219 913,-201 841,-201"/>
<polygon fill="none" stroke="black" points="841,-201 841,-219 913,-219 913,-201 841,-201"/>
<text text-anchor="start" x="894" y="-207.2" font-family="Helvetica,sans-Serif" font-size="11.00">1 &gt;</text>
</a>
</g>
</g>
<!-- syst_instance_type_applications&#45;&gt;syst_enum_items -->
<g id="edge13" class="edge">
<title>syst_instance_type_applications:w&#45;&gt;syst_enum_items:e</title>
<path fill="none" stroke="black" d="M641.55,-229.41C599.97,-237.56 567.67,-279.22 549.11,-309.74"/>
<polygon fill="black" stroke="black" points="648.04,-228.78 656.35,-231.58 652.02,-228.39 656,-228 656,-228 656,-228 652.02,-228.39 655.65,-224.42 648.04,-228.78 648.04,-228.78"/>
<ellipse fill="none" stroke="black" cx="644.85" cy="-229.09" rx="3.2" ry="3.2"/>
</g>
<!-- syst_password_history -->
<g id="node11" class="node">
<title>syst_password_history</title>
<g id="a_node11"><a xlink:href="../../tables/syst_password_history.html" xlink:title="syst_password_history" target="_top">
<polygon fill="#ffffff" stroke="transparent" points="1246,-440 1246,-498 1438,-498 1438,-440 1246,-440"/>
<polygon fill="#f5f5f5" stroke="transparent" points="1246,-476 1246,-498 1438,-498 1438,-476 1246,-476"/>
<polygon fill="none" stroke="black" points="1246,-476 1246,-498 1438,-498 1438,-476 1246,-476"/>
<text text-anchor="start" x="1251" y="-485.2" font-family="Helvetica,sans-Serif" font-weight="bold" font-size="11.00">syst_password_history</text>
<text text-anchor="start" x="1403" y="-484.2" font-family="Helvetica,sans-Serif" font-size="11.00">[table]</text>
<polygon fill="none" stroke="black" points="1246,-458 1246,-476 1438,-476 1438,-458 1246,-458"/>
<text text-anchor="start" x="1249" y="-464.2" font-family="Helvetica,sans-Serif" font-size="11.00">...</text>
<polygon fill="#ffffff" stroke="transparent" points="1246,-440 1246,-458 1340,-458 1340,-440 1246,-440"/>
<polygon fill="none" stroke="black" points="1246,-440 1246,-458 1340,-458 1340,-440 1246,-440"/>
<text text-anchor="start" x="1249" y="-446.2" font-family="Helvetica,sans-Serif" font-size="11.00">&lt; 1</text>
<polygon fill="#ffffff" stroke="transparent" points="1340,-440 1340,-458 1389,-458 1389,-440 1340,-440"/>
<polygon fill="none" stroke="black" points="1340,-440 1340,-458 1389,-458 1389,-440 1340,-440"/>
<text text-anchor="start" x="1379" y="-446.2" font-family="Helvetica,sans-Serif" font-size="11.00"> &#160;</text>
<polygon fill="#ffffff" stroke="transparent" points="1389,-440 1389,-458 1438,-458 1438,-440 1389,-440"/>
<polygon fill="none" stroke="black" points="1389,-440 1389,-458 1438,-458 1438,-440 1389,-440"/>
<text text-anchor="start" x="1428" y="-446.2" font-family="Helvetica,sans-Serif" font-size="11.00"> &#160;</text>
</a>
</g>
</g>
<!-- syst_password_history&#45;&gt;syst_access_accounts -->
<g id="edge18" class="edge">
<title>syst_password_history:w&#45;&gt;syst_access_accounts:e</title>
<path fill="none" stroke="black" d="M1230.46,-466.77C1205.53,-466.01 1179.56,-463.41 1155.49,-460.17"/>
<polygon fill="black" stroke="black" points="1237,-466.87 1244.94,-470.6 1241,-466.94 1245,-467 1245,-467 1245,-467 1241,-466.94 1245.06,-463.4 1237,-466.87 1237,-466.87"/>
<ellipse fill="none" stroke="black" cx="1233.8" cy="-466.82" rx="3.2" ry="3.2"/>
</g>
</g>
</svg>
