<?xml version="1.0" encoding="UTF-8" standalone="no"?>
<!DOCTYPE svg PUBLIC "-//W3C//DTD SVG 1.1//EN"
 "http://www.w3.org/Graphics/SVG/1.1/DTD/svg11.dtd">
<!-- Generated by graphviz version 2.43.0 (0)
 -->
<!-- Title: oneDegreeRelationshipsDiagram Pages: 1 -->
<svg width="620pt" height="595pt"
 viewBox="0.00 0.00 620.00 595.00" xmlns="http://www.w3.org/2000/svg" xmlns:xlink="http://www.w3.org/1999/xlink">
<g id="graph0" class="graph" transform="scale(1 1) rotate(0) translate(4 591)">
<title>oneDegreeRelationshipsDiagram</title>
<polygon fill="#ffffff" stroke="transparent" points="-4,4 -4,-591 616,-591 616,4 -4,4"/>
<text text-anchor="middle" x="71.5" y="-7.2" font-family="Helvetica,sans-Serif" font-size="11.00">Generated by SchemaSpy</text>
<!-- syst_application_contexts -->
<g id="node1" class="node">
<title>syst_application_contexts</title>
<g id="a_node1"><a xlink:href="../../tables/syst_application_contexts.html" xlink:title="syst_application_contexts" target="_top">
<polygon fill="#ffffff" stroke="transparent" points="369.5,-437 369.5,-583 582.5,-583 582.5,-437 369.5,-437"/>
<polygon fill="#f5f5f5" stroke="transparent" points="370,-561 370,-583 583,-583 583,-561 370,-561"/>
<polygon fill="none" stroke="black" points="370,-561 370,-583 583,-583 583,-561 370,-561"/>
<text text-anchor="start" x="375" y="-570.2" font-family="Helvetica,sans-Serif" font-weight="bold" font-size="11.00">syst_application_contexts</text>
<text text-anchor="start" x="548" y="-569.2" font-family="Helvetica,sans-Serif" font-size="11.00">[table]</text>
<polygon fill="none" stroke="black" points="370,-539 370,-561 583,-561 583,-539 370,-539"/>
<image xlink:href="../../images/primaryKeys.png" width="11px" height="12px" preserveAspectRatio="xMinYMin meet" x="375" y="-556"/>
<text text-anchor="start" x="400" y="-547.2" font-family="Helvetica,sans-Serif" font-size="11.00">id</text>
<polygon fill="#ffffff" stroke="transparent" points="370,-517 370,-539 583,-539 583,-517 370,-517"/>
<polygon fill="none" stroke="black" points="370,-517 370,-539 583,-539 583,-517 370,-517"/>
<text text-anchor="start" x="400" y="-525.2" font-family="Helvetica,sans-Serif" font-size="11.00">internal_name</text>
<polygon fill="#ffffff" stroke="transparent" points="370,-495 370,-517 583,-517 583,-495 370,-495"/>
<polygon fill="none" stroke="black" points="370,-495 370,-517 583,-517 583,-495 370,-495"/>
<text text-anchor="start" x="400" y="-503.2" font-family="Helvetica,sans-Serif" font-size="11.00">display_name</text>
<polygon fill="none" stroke="black" points="370,-473 370,-495 583,-495 583,-473 370,-473"/>
<image xlink:href="../../images/foreignKeys.png" width="11px" height="12px" preserveAspectRatio="xMinYMin meet" x="375" y="-490"/>
<text text-anchor="start" x="400" y="-481.2" font-family="Helvetica,sans-Serif" font-size="11.00">application_id</text>
<polygon fill="none" stroke="black" points="370,-455 370,-473 583,-473 583,-455 370,-455"/>
<text text-anchor="start" x="373" y="-461.2" font-family="Helvetica,sans-Serif" font-size="11.00">...</text>
<polygon fill="#ffffff" stroke="transparent" points="370,-437 370,-455 470,-455 470,-437 370,-437"/>
<polygon fill="none" stroke="black" points="370,-437 370,-455 470,-455 470,-437 370,-437"/>
<text text-anchor="start" x="373" y="-443.2" font-family="Helvetica,sans-Serif" font-size="11.00">&lt; 1</text>
<polygon fill="#ffffff" stroke="transparent" points="470,-437 470,-455 522,-455 522,-437 470,-437"/>
<polygon fill="none" stroke="black" points="470,-437 470,-455 522,-455 522,-437 470,-437"/>
<text text-anchor="start" x="512" y="-443.2" font-family="Helvetica,sans-Serif" font-size="11.00"> &#160;</text>
<polygon fill="#ffffff" stroke="transparent" points="522,-437 522,-455 583,-455 583,-437 522,-437"/>
<polygon fill="none" stroke="black" points="522,-437 522,-455 583,-455 583,-437 522,-437"/>
<text text-anchor="start" x="564" y="-443.2" font-family="Helvetica,sans-Serif" font-size="11.00">2 &gt;</text>
</a>
</g>
</g>
<!-- syst_applications -->
<g id="node2" class="node">
<title>syst_applications</title>
<g id="a_node2"><a xlink:href="../../tables/syst_applications.html" xlink:title="syst_applications" target="_top">
<polygon fill="#ffffff" stroke="transparent" points="8,-88 8,-374 299,-374 299,-88 8,-88"/>
<polygon fill="#f5f5f5" stroke="transparent" points="10.5,-350 10.5,-372 297.5,-372 297.5,-350 10.5,-350"/>
<polygon fill="none" stroke="black" points="10.5,-350 10.5,-372 297.5,-372 297.5,-350 10.5,-350"/>
<text text-anchor="start" x="15.5" y="-359.2" font-family="Helvetica,sans-Serif" font-weight="bold" font-size="11.00">syst_applications</text>
<text text-anchor="start" x="262.5" y="-358.2" font-family="Helvetica,sans-Serif" font-size="11.00">[table]</text>
<polygon fill="none" stroke="black" points="10.5,-328 10.5,-350 204.5,-350 204.5,-328 10.5,-328"/>
<image xlink:href="../../images/primaryKeys.png" width="11px" height="12px" preserveAspectRatio="xMinYMin meet" x="15.5" y="-345"/>
<text text-anchor="start" x="30.5" y="-336.2" font-family="Helvetica,sans-Serif" font-size="11.00">id</text>
<polygon fill="none" stroke="black" points="204.5,-328 204.5,-350 297.5,-350 297.5,-328 204.5,-328"/>
<text text-anchor="start" x="207.5" y="-336.2" font-family="Helvetica,sans-Serif" font-size="11.00">uuid[2147483647]</text>
<polygon fill="#ffffff" stroke="transparent" points="10.5,-306 10.5,-328 204.5,-328 204.5,-306 10.5,-306"/>
<polygon fill="none" stroke="black" points="10.5,-306 10.5,-328 204.5,-328 204.5,-306 10.5,-306"/>
<text text-anchor="start" x="30.5" y="-314.2" font-family="Helvetica,sans-Serif" font-size="11.00">internal_name</text>
<polygon fill="none" stroke="black" points="204.5,-306 204.5,-328 297.5,-328 297.5,-306 204.5,-306"/>
<text text-anchor="start" x="207.5" y="-314.2" font-family="Helvetica,sans-Serif" font-size="11.00">text[2147483647]</text>
<polygon fill="#ffffff" stroke="transparent" points="10.5,-284 10.5,-306 204.5,-306 204.5,-284 10.5,-284"/>
<polygon fill="none" stroke="black" points="10.5,-284 10.5,-306 204.5,-306 204.5,-284 10.5,-284"/>
<text text-anchor="start" x="30.5" y="-292.2" font-family="Helvetica,sans-Serif" font-size="11.00">display_name</text>
<polygon fill="none" stroke="black" points="204.5,-284 204.5,-306 297.5,-306 297.5,-284 204.5,-284"/>
<text text-anchor="start" x="207.5" y="-292.2" font-family="Helvetica,sans-Serif" font-size="11.00">text[2147483647]</text>
<polygon fill="none" stroke="black" points="10.5,-262 10.5,-284 204.5,-284 204.5,-262 10.5,-262"/>
<text text-anchor="start" x="30.5" y="-270.2" font-family="Helvetica,sans-Serif" font-size="11.00">syst_description</text>
<polygon fill="none" stroke="black" points="204.5,-262 204.5,-284 297.5,-284 297.5,-262 204.5,-262"/>
<text text-anchor="start" x="207.5" y="-270.2" font-family="Helvetica,sans-Serif" font-size="11.00">text[2147483647]</text>
<polygon fill="none" stroke="black" points="10.5,-240 10.5,-262 204.5,-262 204.5,-240 10.5,-240"/>
<text text-anchor="start" x="30.5" y="-248.2" font-family="Helvetica,sans-Serif" font-size="11.00">diag_timestamp_created</text>
<polygon fill="none" stroke="black" points="204.5,-240 204.5,-262 297.5,-262 297.5,-240 204.5,-240"/>
<text text-anchor="start" x="207.5" y="-248.2" font-family="Helvetica,sans-Serif" font-size="11.00">timestamptz[35,6]</text>
<polygon fill="none" stroke="black" points="10.5,-218 10.5,-240 204.5,-240 204.5,-218 10.5,-218"/>
<text text-anchor="start" x="30.5" y="-226.2" font-family="Helvetica,sans-Serif" font-size="11.00">diag_role_created</text>
<polygon fill="none" stroke="black" points="204.5,-218 204.5,-240 297.5,-240 297.5,-218 204.5,-218"/>
<text text-anchor="start" x="207.5" y="-226.2" font-family="Helvetica,sans-Serif" font-size="11.00">text[2147483647]</text>
<polygon fill="none" stroke="black" points="10.5,-196 10.5,-218 204.5,-218 204.5,-196 10.5,-196"/>
<text text-anchor="start" x="30.5" y="-204.2" font-family="Helvetica,sans-Serif" font-size="11.00">diag_timestamp_modified</text>
<polygon fill="none" stroke="black" points="204.5,-196 204.5,-218 297.5,-218 297.5,-196 204.5,-196"/>
<text text-anchor="start" x="207.5" y="-204.2" font-family="Helvetica,sans-Serif" font-size="11.00">timestamptz[35,6]</text>
<polygon fill="none" stroke="black" points="10.5,-174 10.5,-196 204.5,-196 204.5,-174 10.5,-174"/>
<text text-anchor="start" x="30.5" y="-182.2" font-family="Helvetica,sans-Serif" font-size="11.00">diag_wallclock_modified</text>
<polygon fill="none" stroke="black" points="204.5,-174 204.5,-196 297.5,-196 297.5,-174 204.5,-174"/>
<text text-anchor="start" x="207.5" y="-182.2" font-family="Helvetica,sans-Serif" font-size="11.00">timestamptz[35,6]</text>
<polygon fill="none" stroke="black" points="10.5,-152 10.5,-174 204.5,-174 204.5,-152 10.5,-152"/>
<text text-anchor="start" x="30.5" y="-160.2" font-family="Helvetica,sans-Serif" font-size="11.00">diag_role_modified</text>
<polygon fill="none" stroke="black" points="204.5,-152 204.5,-174 297.5,-174 297.5,-152 204.5,-152"/>
<text text-anchor="start" x="207.5" y="-160.2" font-family="Helvetica,sans-Serif" font-size="11.00">text[2147483647]</text>
<polygon fill="none" stroke="black" points="10.5,-130 10.5,-152 204.5,-152 204.5,-130 10.5,-130"/>
<text text-anchor="start" x="30.5" y="-138.2" font-family="Helvetica,sans-Serif" font-size="11.00">diag_row_version</text>
<polygon fill="none" stroke="black" points="204.5,-130 204.5,-152 297.5,-152 297.5,-130 204.5,-130"/>
<text text-anchor="start" x="207.5" y="-138.2" font-family="Helvetica,sans-Serif" font-size="11.00">int8[19]</text>
<polygon fill="none" stroke="black" points="10.5,-108 10.5,-130 204.5,-130 204.5,-108 10.5,-108"/>
<text text-anchor="start" x="30.5" y="-116.2" font-family="Helvetica,sans-Serif" font-size="11.00">diag_update_count</text>
<polygon fill="none" stroke="black" points="204.5,-108 204.5,-130 297.5,-130 297.5,-108 204.5,-108"/>
<text text-anchor="start" x="207.5" y="-116.2" font-family="Helvetica,sans-Serif" font-size="11.00">int8[19]</text>
<polygon fill="#ffffff" stroke="transparent" points="10.5,-90 10.5,-108 111.5,-108 111.5,-90 10.5,-90"/>
<polygon fill="none" stroke="black" points="10.5,-90 10.5,-108 111.5,-108 111.5,-90 10.5,-90"/>
<text text-anchor="start" x="13.5" y="-96.2" font-family="Helvetica,sans-Serif" font-size="11.00">&lt; 0</text>
<polygon fill="#ffffff" stroke="transparent" points="111.5,-90 111.5,-108 204.5,-108 204.5,-90 111.5,-90"/>
<polygon fill="none" stroke="black" points="111.5,-90 111.5,-108 204.5,-108 204.5,-90 111.5,-90"/>
<text text-anchor="start" x="194.5" y="-96.2" font-family="Helvetica,sans-Serif" font-size="11.00"> &#160;</text>
<polygon fill="#ffffff" stroke="transparent" points="204.5,-90 204.5,-108 297.5,-108 297.5,-90 204.5,-90"/>
<polygon fill="none" stroke="black" points="204.5,-90 204.5,-108 297.5,-108 297.5,-90 204.5,-90"/>
<text text-anchor="start" x="278.5" y="-96.2" font-family="Helvetica,sans-Serif" font-size="11.00">3 &gt;</text>
<polygon fill="none" stroke="black" stroke-width="2" points="9,-89 9,-373 298,-373 298,-89 9,-89"/>
</a>
</g>
</g>
<!-- syst_application_contexts&#45;&gt;syst_applications -->
<g id="edge1" class="edge">
<title>syst_application_contexts:w&#45;&gt;syst_applications:e</title>
<path fill="none" stroke="black" d="M354.71,-481.48C307.84,-462.23 364.56,-339 298.5,-339"/>
<polygon fill="black" stroke="black" points="361.12,-482.61 368.38,-487.55 365.06,-483.31 369,-484 369,-484 369,-484 365.06,-483.31 369.62,-480.45 361.12,-482.61 361.12,-482.61"/>
<ellipse fill="none" stroke="black" cx="357.97" cy="-482.06" rx="3.2" ry="3.2"/>
</g>
<!-- syst_instance_type_applications -->
<g id="node3" class="node">
<title>syst_instance_type_applications</title>
<g id="a_node3"><a xlink:href="../../tables/syst_instance_type_applications.html" xlink:title="syst_instance_type_applications" target="_top">
<polygon fill="#ffffff" stroke="transparent" points="348,-292 348,-416 604,-416 604,-292 348,-292"/>
<polygon fill="#f5f5f5" stroke="transparent" points="348,-394 348,-416 604,-416 604,-394 348,-394"/>
<polygon fill="none" stroke="black" points="348,-394 348,-416 604,-416 604,-394 348,-394"/>
<text text-anchor="start" x="353" y="-403.2" font-family="Helvetica,sans-Serif" font-weight="bold" font-size="11.00">syst_instance_type_applications</text>
<text text-anchor="start" x="569" y="-402.2" font-family="Helvetica,sans-Serif" font-size="11.00">[table]</text>
<polygon fill="none" stroke="black" points="348,-372 348,-394 604,-394 604,-372 348,-372"/>
<image xlink:href="../../images/primaryKeys.png" width="11px" height="12px" preserveAspectRatio="xMinYMin meet" x="353" y="-389"/>
<text text-anchor="start" x="378" y="-380.2" font-family="Helvetica,sans-Serif" font-size="11.00">id</text>
<polygon fill="#ffffff" stroke="transparent" points="348,-350 348,-372 604,-372 604,-350 348,-350"/>
<polygon fill="none" stroke="black" points="348,-350 348,-372 604,-372 604,-350 348,-350"/>
<image xlink:href="../../images/foreignKeys.png" width="11px" height="12px" preserveAspectRatio="xMinYMin meet" x="353" y="-367"/>
<text text-anchor="start" x="378" y="-358.2" font-family="Helvetica,sans-Serif" font-size="11.00">instance_type_id</text>
<polygon fill="#ffffff" stroke="transparent" points="348,-328 348,-350 604,-350 604,-328 348,-328"/>
<polygon fill="none" stroke="black" points="348,-328 348,-350 604,-350 604,-328 348,-328"/>
<image xlink:href="../../images/foreignKeys.png" width="11px" height="12px" preserveAspectRatio="xMinYMin meet" x="353" y="-345"/>
<text text-anchor="start" x="378" y="-336.2" font-family="Helvetica,sans-Serif" font-size="11.00">application_id</text>
<polygon fill="none" stroke="black" points="348,-310 348,-328 604,-328 604,-310 348,-310"/>
<text text-anchor="start" x="351" y="-316.2" font-family="Helvetica,sans-Serif" font-size="11.00">...</text>
<polygon fill="#ffffff" stroke="transparent" points="348,-292 348,-310 469,-310 469,-292 348,-292"/>
<polygon fill="none" stroke="black" points="348,-292 348,-310 469,-310 469,-292 348,-292"/>
<text text-anchor="start" x="351" y="-298.2" font-family="Helvetica,sans-Serif" font-size="11.00">&lt; 2</text>
<polygon fill="#ffffff" stroke="transparent" points="469,-292 469,-310 532,-310 532,-292 469,-292"/>
<polygon fill="none" stroke="black" points="469,-292 469,-310 532,-310 532,-292 469,-292"/>
<text text-anchor="start" x="522" y="-298.2" font-family="Helvetica,sans-Serif" font-size="11.00"> &#160;</text>
<polygon fill="#ffffff" stroke="transparent" points="532,-292 532,-310 604,-310 604,-292 532,-292"/>
<polygon fill="none" stroke="black" points="532,-292 532,-310 604,-310 604,-292 532,-292"/>
<text text-anchor="start" x="585" y="-298.2" font-family="Helvetica,sans-Serif" font-size="11.00">1 &gt;</text>
</a>
</g>
</g>
<!-- syst_instance_type_applications&#45;&gt;syst_applications -->
<g id="edge2" class="edge">
<title>syst_instance_type_applications:w&#45;&gt;syst_applications:e</title>
<path fill="none" stroke="black" d="M332.28,-339C321.29,-339 314.16,-339 298.5,-339"/>
<polygon fill="black" stroke="black" points="339,-339 347,-342.6 343,-339 347,-339 347,-339 347,-339 343,-339 347,-335.4 339,-339 339,-339"/>
<ellipse fill="none" stroke="black" cx="335.8" cy="-339" rx="3.2" ry="3.2"/>
</g>
<!-- syst_instances -->
<g id="node4" class="node">
<title>syst_instances</title>
<g id="a_node4"><a xlink:href="../../tables/syst_instances.html" xlink:title="syst_instances" target="_top">
<polygon fill="#ffffff" stroke="transparent" points="379,-37 379,-271 573,-271 573,-37 379,-37"/>
<polygon fill="#f5f5f5" stroke="transparent" points="379,-249 379,-271 573,-271 573,-249 379,-249"/>
<polygon fill="none" stroke="black" points="379,-249 379,-271 573,-271 573,-249 379,-249"/>
<text text-anchor="start" x="384" y="-258.2" font-family="Helvetica,sans-Serif" font-weight="bold" font-size="11.00">syst_instances</text>
<text text-anchor="start" x="538" y="-257.2" font-family="Helvetica,sans-Serif" font-size="11.00">[table]</text>
<polygon fill="none" stroke="black" points="379,-227 379,-249 573,-249 573,-227 379,-227"/>
<image xlink:href="../../images/primaryKeys.png" width="11px" height="12px" preserveAspectRatio="xMinYMin meet" x="384" y="-244"/>
<text text-anchor="start" x="399" y="-235.2" font-family="Helvetica,sans-Serif" font-size="11.00">id</text>
<polygon fill="#ffffff" stroke="transparent" points="379,-205 379,-227 573,-227 573,-205 379,-205"/>
<polygon fill="none" stroke="black" points="379,-205 379,-227 573,-227 573,-205 379,-205"/>
<text text-anchor="start" x="399" y="-213.2" font-family="Helvetica,sans-Serif" font-size="11.00">internal_name</text>
<polygon fill="#ffffff" stroke="transparent" points="379,-183 379,-205 573,-205 573,-183 379,-183"/>
<polygon fill="none" stroke="black" points="379,-183 379,-205 573,-205 573,-183 379,-183"/>
<text text-anchor="start" x="399" y="-191.2" font-family="Helvetica,sans-Serif" font-size="11.00">display_name</text>
<polygon fill="none" stroke="black" points="379,-161 379,-183 573,-183 573,-161 379,-161"/>
<image xlink:href="../../images/foreignKeys.png" width="11px" height="12px" preserveAspectRatio="xMinYMin meet" x="384" y="-178"/>
<text text-anchor="start" x="399" y="-169.2" font-family="Helvetica,sans-Serif" font-size="11.00">application_id</text>
<polygon fill="none" stroke="black" points="379,-139 379,-161 573,-161 573,-139 379,-139"/>
<image xlink:href="../../images/foreignKeys.png" width="11px" height="12px" preserveAspectRatio="xMinYMin meet" x="384" y="-156"/>
<text text-anchor="start" x="399" y="-147.2" font-family="Helvetica,sans-Serif" font-size="11.00">instance_type_id</text>
<polygon fill="none" stroke="black" points="379,-117 379,-139 573,-139 573,-117 379,-117"/>
<image xlink:href="../../images/foreignKeys.png" width="11px" height="12px" preserveAspectRatio="xMinYMin meet" x="384" y="-134"/>
<text text-anchor="start" x="399" y="-125.2" font-family="Helvetica,sans-Serif" font-size="11.00">instance_state_id</text>
<polygon fill="none" stroke="black" points="379,-95 379,-117 573,-117 573,-95 379,-95"/>
<image xlink:href="../../images/foreignKeys.png" width="11px" height="12px" preserveAspectRatio="xMinYMin meet" x="384" y="-112"/>
<text text-anchor="start" x="399" y="-103.2" font-family="Helvetica,sans-Serif" font-size="11.00">owner_id</text>
<polygon fill="none" stroke="black" points="379,-73 379,-95 573,-95 573,-73 379,-73"/>
<image xlink:href="../../images/foreignKeys.png" width="11px" height="12px" preserveAspectRatio="xMinYMin meet" x="384" y="-90"/>
<text text-anchor="start" x="399" y="-81.2" font-family="Helvetica,sans-Serif" font-size="11.00">owning_instance_id</text>
<polygon fill="none" stroke="black" points="379,-55 379,-73 573,-73 573,-55 379,-55"/>
<text text-anchor="start" x="382" y="-61.2" font-family="Helvetica,sans-Serif" font-size="11.00">...</text>
<polygon fill="#ffffff" stroke="transparent" points="379,-37 379,-55 469,-55 469,-37 379,-37"/>
<polygon fill="none" stroke="black" points="379,-37 379,-55 469,-55 469,-37 379,-37"/>
<text text-anchor="start" x="382" y="-43.2" font-family="Helvetica,sans-Serif" font-size="11.00">&lt; 5</text>
<polygon fill="#ffffff" stroke="transparent" points="469,-37 469,-55 516,-55 516,-37 469,-37"/>
<polygon fill="none" stroke="black" points="469,-37 469,-55 516,-55 516,-37 469,-37"/>
<text text-anchor="start" x="506" y="-43.2" font-family="Helvetica,sans-Serif" font-size="11.00"> &#160;</text>
<polygon fill="#ffffff" stroke="transparent" points="516,-37 516,-55 573,-55 573,-37 516,-37"/>
<polygon fill="none" stroke="black" points="516,-37 516,-55 573,-55 573,-37 516,-37"/>
<text text-anchor="start" x="554" y="-43.2" font-family="Helvetica,sans-Serif" font-size="11.00">4 &gt;</text>
</a>
</g>
</g>
<!-- syst_instances&#45;&gt;syst_applications -->
<g id="edge3" class="edge">
<title>syst_instances:w&#45;&gt;syst_applications:e</title>
<path fill="none" stroke="black" d="M363.74,-174.11C306.34,-193.44 375.24,-339 298.5,-339"/>
<polygon fill="black" stroke="black" points="370.09,-173.17 378.53,-175.56 374.04,-172.59 378,-172 378,-172 378,-172 374.04,-172.59 377.47,-168.44 370.09,-173.17 370.09,-173.17"/>
<ellipse fill="none" stroke="black" cx="366.92" cy="-173.64" rx="3.2" ry="3.2"/>
</g>
</g>
</svg>
