<?xml version="1.0" encoding="UTF-8" standalone="no"?>
<!DOCTYPE svg PUBLIC "-//W3C//DTD SVG 1.1//EN"
 "http://www.w3.org/Graphics/SVG/1.1/DTD/svg11.dtd">
<!-- Generated by graphviz version 2.43.0 (0)
 -->
<!-- Title: oneDegreeRelationshipsDiagram Pages: 1 -->
<svg width="1385pt" height="662pt"
 viewBox="0.00 0.00 1385.00 662.00" xmlns="http://www.w3.org/2000/svg" xmlns:xlink="http://www.w3.org/1999/xlink">
<g id="graph0" class="graph" transform="scale(1 1) rotate(0) translate(4 658)">
<title>oneDegreeRelationshipsDiagram</title>
<polygon fill="#ffffff" stroke="transparent" points="-4,4 -4,-658 1381,-658 1381,4 -4,4"/>
<text text-anchor="middle" x="71.5" y="-7.2" font-family="Helvetica,sans-Serif" font-size="11.00">Generated by SchemaSpy</text>
<!-- syst_access_account_instance_assocs -->
<g id="node1" class="node">
<title>syst_access_account_instance_assocs</title>
<g id="a_node1"><a xlink:href="../../tables/syst_access_account_instance_assocs.html" xlink:title="syst_access_account_instance_assocs" target="_top">
<polygon fill="#ffffff" stroke="transparent" points="834,-526 834,-650 1126,-650 1126,-526 834,-526"/>
<polygon fill="#f5f5f5" stroke="transparent" points="834,-628 834,-650 1126,-650 1126,-628 834,-628"/>
<polygon fill="none" stroke="black" points="834,-628 834,-650 1126,-650 1126,-628 834,-628"/>
<text text-anchor="start" x="839" y="-637.2" font-family="Helvetica,sans-Serif" font-weight="bold" font-size="11.00">syst_access_account_instance_assocs</text>
<text text-anchor="start" x="1091" y="-636.2" font-family="Helvetica,sans-Serif" font-size="11.00">[table]</text>
<polygon fill="none" stroke="black" points="834,-606 834,-628 1126,-628 1126,-606 834,-606"/>
<image xlink:href="../../images/primaryKeys.png" width="11px" height="12px" preserveAspectRatio="xMinYMin meet" x="839" y="-623"/>
<text text-anchor="start" x="864" y="-614.2" font-family="Helvetica,sans-Serif" font-size="11.00">id</text>
<polygon fill="#ffffff" stroke="transparent" points="834,-584 834,-606 1126,-606 1126,-584 834,-584"/>
<polygon fill="none" stroke="black" points="834,-584 834,-606 1126,-606 1126,-584 834,-584"/>
<image xlink:href="../../images/foreignKeys.png" width="11px" height="12px" preserveAspectRatio="xMinYMin meet" x="839" y="-601"/>
<text text-anchor="start" x="864" y="-592.2" font-family="Helvetica,sans-Serif" font-size="11.00">access_account_id</text>
<polygon fill="#ffffff" stroke="transparent" points="834,-562 834,-584 1126,-584 1126,-562 834,-562"/>
<polygon fill="none" stroke="black" points="834,-562 834,-584 1126,-584 1126,-562 834,-562"/>
<image xlink:href="../../images/foreignKeys.png" width="11px" height="12px" preserveAspectRatio="xMinYMin meet" x="839" y="-579"/>
<text text-anchor="start" x="864" y="-570.2" font-family="Helvetica,sans-Serif" font-size="11.00">instance_id</text>
<polygon fill="none" stroke="black" points="834,-544 834,-562 1126,-562 1126,-544 834,-544"/>
<text text-anchor="start" x="837" y="-550.2" font-family="Helvetica,sans-Serif" font-size="11.00">...</text>
<polygon fill="#ffffff" stroke="transparent" points="834,-526 834,-544 978,-544 978,-526 834,-526"/>
<polygon fill="none" stroke="black" points="834,-526 834,-544 978,-544 978,-526 834,-526"/>
<text text-anchor="start" x="837" y="-532.2" font-family="Helvetica,sans-Serif" font-size="11.00">&lt; 2</text>
<polygon fill="#ffffff" stroke="transparent" points="978,-526 978,-544 1052,-544 1052,-526 978,-526"/>
<polygon fill="none" stroke="black" points="978,-526 978,-544 1052,-544 1052,-526 978,-526"/>
<text text-anchor="start" x="1042" y="-532.2" font-family="Helvetica,sans-Serif" font-size="11.00"> &#160;</text>
<polygon fill="#ffffff" stroke="transparent" points="1052,-526 1052,-544 1126,-544 1126,-526 1052,-526"/>
<polygon fill="none" stroke="black" points="1052,-526 1052,-544 1126,-544 1126,-526 1052,-526"/>
<text text-anchor="start" x="1116" y="-532.2" font-family="Helvetica,sans-Serif" font-size="11.00"> &#160;</text>
</a>
</g>
</g>
<!-- syst_access_accounts -->
<g id="node2" class="node">
<title>syst_access_accounts</title>
<g id="a_node2"><a xlink:href="../../tables/syst_access_accounts.html" xlink:title="syst_access_accounts" target="_top">
<polygon fill="#ffffff" stroke="transparent" points="494,-253 494,-583 785,-583 785,-253 494,-253"/>
<polygon fill="#f5f5f5" stroke="transparent" points="496.5,-559 496.5,-581 783.5,-581 783.5,-559 496.5,-559"/>
<polygon fill="none" stroke="black" points="496.5,-559 496.5,-581 783.5,-581 783.5,-559 496.5,-559"/>
<text text-anchor="start" x="501.5" y="-568.2" font-family="Helvetica,sans-Serif" font-weight="bold" font-size="11.00">syst_access_accounts</text>
<text text-anchor="start" x="748.5" y="-567.2" font-family="Helvetica,sans-Serif" font-size="11.00">[table]</text>
<polygon fill="none" stroke="black" points="496.5,-537 496.5,-559 690.5,-559 690.5,-537 496.5,-537"/>
<image xlink:href="../../images/primaryKeys.png" width="11px" height="12px" preserveAspectRatio="xMinYMin meet" x="501.5" y="-554"/>
<text text-anchor="start" x="516.5" y="-545.2" font-family="Helvetica,sans-Serif" font-size="11.00">id</text>
<polygon fill="none" stroke="black" points="690.5,-537 690.5,-559 783.5,-559 783.5,-537 690.5,-537"/>
<text text-anchor="start" x="693.5" y="-545.2" font-family="Helvetica,sans-Serif" font-size="11.00">uuid[2147483647]</text>
<polygon fill="#ffffff" stroke="transparent" points="496.5,-515 496.5,-537 690.5,-537 690.5,-515 496.5,-515"/>
<polygon fill="none" stroke="black" points="496.5,-515 496.5,-537 690.5,-537 690.5,-515 496.5,-515"/>
<text text-anchor="start" x="516.5" y="-523.2" font-family="Helvetica,sans-Serif" font-size="11.00">internal_name</text>
<polygon fill="none" stroke="black" points="690.5,-515 690.5,-537 783.5,-537 783.5,-515 690.5,-515"/>
<text text-anchor="start" x="693.5" y="-523.2" font-family="Helvetica,sans-Serif" font-size="11.00">text[2147483647]</text>
<polygon fill="none" stroke="black" points="496.5,-493 496.5,-515 690.5,-515 690.5,-493 496.5,-493"/>
<text text-anchor="start" x="516.5" y="-501.2" font-family="Helvetica,sans-Serif" font-size="11.00">external_name</text>
<polygon fill="none" stroke="black" points="690.5,-493 690.5,-515 783.5,-515 783.5,-493 690.5,-493"/>
<text text-anchor="start" x="693.5" y="-501.2" font-family="Helvetica,sans-Serif" font-size="11.00">text[2147483647]</text>
<polygon fill="none" stroke="black" points="496.5,-471 496.5,-493 690.5,-493 690.5,-471 496.5,-471"/>
<image xlink:href="../../images/foreignKeys.png" width="11px" height="12px" preserveAspectRatio="xMinYMin meet" x="501.5" y="-488"/>
<text text-anchor="start" x="516.5" y="-479.2" font-family="Helvetica,sans-Serif" font-size="11.00">owning_owner_id</text>
<polygon fill="none" stroke="black" points="690.5,-471 690.5,-493 783.5,-493 783.5,-471 690.5,-471"/>
<text text-anchor="start" x="693.5" y="-479.2" font-family="Helvetica,sans-Serif" font-size="11.00">uuid[2147483647]</text>
<polygon fill="none" stroke="black" points="496.5,-449 496.5,-471 690.5,-471 690.5,-449 496.5,-449"/>
<text text-anchor="start" x="516.5" y="-457.2" font-family="Helvetica,sans-Serif" font-size="11.00">allow_global_logins</text>
<polygon fill="none" stroke="black" points="690.5,-449 690.5,-471 783.5,-471 783.5,-449 690.5,-449"/>
<text text-anchor="start" x="693.5" y="-457.2" font-family="Helvetica,sans-Serif" font-size="11.00">bool[1]</text>
<polygon fill="none" stroke="black" points="496.5,-427 496.5,-449 690.5,-449 690.5,-427 496.5,-427"/>
<image xlink:href="../../images/foreignKeys.png" width="11px" height="12px" preserveAspectRatio="xMinYMin meet" x="501.5" y="-444"/>
<text text-anchor="start" x="516.5" y="-435.2" font-family="Helvetica,sans-Serif" font-size="11.00">access_account_state_id</text>
<polygon fill="none" stroke="black" points="690.5,-427 690.5,-449 783.5,-449 783.5,-427 690.5,-427"/>
<text text-anchor="start" x="693.5" y="-435.2" font-family="Helvetica,sans-Serif" font-size="11.00">uuid[2147483647]</text>
<polygon fill="none" stroke="black" points="496.5,-405 496.5,-427 690.5,-427 690.5,-405 496.5,-405"/>
<text text-anchor="start" x="516.5" y="-413.2" font-family="Helvetica,sans-Serif" font-size="11.00">diag_timestamp_created</text>
<polygon fill="none" stroke="black" points="690.5,-405 690.5,-427 783.5,-427 783.5,-405 690.5,-405"/>
<text text-anchor="start" x="693.5" y="-413.2" font-family="Helvetica,sans-Serif" font-size="11.00">timestamptz[35,6]</text>
<polygon fill="none" stroke="black" points="496.5,-383 496.5,-405 690.5,-405 690.5,-383 496.5,-383"/>
<text text-anchor="start" x="516.5" y="-391.2" font-family="Helvetica,sans-Serif" font-size="11.00">diag_role_created</text>
<polygon fill="none" stroke="black" points="690.5,-383 690.5,-405 783.5,-405 783.5,-383 690.5,-383"/>
<text text-anchor="start" x="693.5" y="-391.2" font-family="Helvetica,sans-Serif" font-size="11.00">text[2147483647]</text>
<polygon fill="none" stroke="black" points="496.5,-361 496.5,-383 690.5,-383 690.5,-361 496.5,-361"/>
<text text-anchor="start" x="516.5" y="-369.2" font-family="Helvetica,sans-Serif" font-size="11.00">diag_timestamp_modified</text>
<polygon fill="none" stroke="black" points="690.5,-361 690.5,-383 783.5,-383 783.5,-361 690.5,-361"/>
<text text-anchor="start" x="693.5" y="-369.2" font-family="Helvetica,sans-Serif" font-size="11.00">timestamptz[35,6]</text>
<polygon fill="none" stroke="black" points="496.5,-339 496.5,-361 690.5,-361 690.5,-339 496.5,-339"/>
<text text-anchor="start" x="516.5" y="-347.2" font-family="Helvetica,sans-Serif" font-size="11.00">diag_wallclock_modified</text>
<polygon fill="none" stroke="black" points="690.5,-339 690.5,-361 783.5,-361 783.5,-339 690.5,-339"/>
<text text-anchor="start" x="693.5" y="-347.2" font-family="Helvetica,sans-Serif" font-size="11.00">timestamptz[35,6]</text>
<polygon fill="none" stroke="black" points="496.5,-317 496.5,-339 690.5,-339 690.5,-317 496.5,-317"/>
<text text-anchor="start" x="516.5" y="-325.2" font-family="Helvetica,sans-Serif" font-size="11.00">diag_role_modified</text>
<polygon fill="none" stroke="black" points="690.5,-317 690.5,-339 783.5,-339 783.5,-317 690.5,-317"/>
<text text-anchor="start" x="693.5" y="-325.2" font-family="Helvetica,sans-Serif" font-size="11.00">text[2147483647]</text>
<polygon fill="none" stroke="black" points="496.5,-295 496.5,-317 690.5,-317 690.5,-295 496.5,-295"/>
<text text-anchor="start" x="516.5" y="-303.2" font-family="Helvetica,sans-Serif" font-size="11.00">diag_row_version</text>
<polygon fill="none" stroke="black" points="690.5,-295 690.5,-317 783.5,-317 783.5,-295 690.5,-295"/>
<text text-anchor="start" x="693.5" y="-303.2" font-family="Helvetica,sans-Serif" font-size="11.00">int8[19]</text>
<polygon fill="none" stroke="black" points="496.5,-273 496.5,-295 690.5,-295 690.5,-273 496.5,-273"/>
<text text-anchor="start" x="516.5" y="-281.2" font-family="Helvetica,sans-Serif" font-size="11.00">diag_update_count</text>
<polygon fill="none" stroke="black" points="690.5,-273 690.5,-295 783.5,-295 783.5,-273 690.5,-273"/>
<text text-anchor="start" x="693.5" y="-281.2" font-family="Helvetica,sans-Serif" font-size="11.00">int8[19]</text>
<polygon fill="#ffffff" stroke="transparent" points="496.5,-255 496.5,-273 597.5,-273 597.5,-255 496.5,-255"/>
<polygon fill="none" stroke="black" points="496.5,-255 496.5,-273 597.5,-273 597.5,-255 496.5,-255"/>
<text text-anchor="start" x="499.5" y="-261.2" font-family="Helvetica,sans-Serif" font-size="11.00">&lt; 2</text>
<polygon fill="#ffffff" stroke="transparent" points="597.5,-255 597.5,-273 690.5,-273 690.5,-255 597.5,-255"/>
<polygon fill="none" stroke="black" points="597.5,-255 597.5,-273 690.5,-273 690.5,-255 597.5,-255"/>
<text text-anchor="start" x="680.5" y="-261.2" font-family="Helvetica,sans-Serif" font-size="11.00"> &#160;</text>
<polygon fill="#ffffff" stroke="transparent" points="690.5,-255 690.5,-273 783.5,-273 783.5,-255 690.5,-255"/>
<polygon fill="none" stroke="black" points="690.5,-255 690.5,-273 783.5,-273 783.5,-255 690.5,-255"/>
<text text-anchor="start" x="764.5" y="-261.2" font-family="Helvetica,sans-Serif" font-size="11.00">4 &gt;</text>
<polygon fill="none" stroke="black" stroke-width="2" points="495,-254 495,-582 784,-582 784,-254 495,-254"/>
</a>
</g>
</g>
<!-- syst_access_account_instance_assocs&#45;&gt;syst_access_accounts -->
<g id="edge1" class="edge">
<title>syst_access_account_instance_assocs:w&#45;&gt;syst_access_accounts:e</title>
<path fill="none" stroke="black" d="M819.16,-589.97C805.95,-577.85 808.42,-548 784.5,-548"/>
<polygon fill="black" stroke="black" points="825.48,-592.27 831.77,-598.38 829.24,-593.63 833,-595 833,-595 833,-595 829.24,-593.63 834.23,-591.62 825.48,-592.27 825.48,-592.27"/>
<ellipse fill="none" stroke="black" cx="822.47" cy="-591.18" rx="3.2" ry="3.2"/>
</g>
<!-- syst_enum_items -->
<g id="node3" class="node">
<title>syst_enum_items</title>
<g id="a_node3"><a xlink:href="../../tables/syst_enum_items.html" xlink:title="syst_enum_items" target="_top">
<polygon fill="#ffffff" stroke="transparent" points="8,-129 8,-297 202,-297 202,-129 8,-129"/>
<polygon fill="#f5f5f5" stroke="transparent" points="8,-275 8,-297 202,-297 202,-275 8,-275"/>
<polygon fill="none" stroke="black" points="8,-275 8,-297 202,-297 202,-275 8,-275"/>
<text text-anchor="start" x="13" y="-284.2" font-family="Helvetica,sans-Serif" font-weight="bold" font-size="11.00">syst_enum_items</text>
<text text-anchor="start" x="167" y="-283.2" font-family="Helvetica,sans-Serif" font-size="11.00">[table]</text>
<polygon fill="none" stroke="black" points="8,-253 8,-275 202,-275 202,-253 8,-253"/>
<image xlink:href="../../images/primaryKeys.png" width="11px" height="12px" preserveAspectRatio="xMinYMin meet" x="13" y="-270"/>
<text text-anchor="start" x="28" y="-261.2" font-family="Helvetica,sans-Serif" font-size="11.00">id</text>
<polygon fill="#ffffff" stroke="transparent" points="8,-231 8,-253 202,-253 202,-231 8,-231"/>
<polygon fill="none" stroke="black" points="8,-231 8,-253 202,-253 202,-231 8,-231"/>
<text text-anchor="start" x="28" y="-239.2" font-family="Helvetica,sans-Serif" font-size="11.00">internal_name</text>
<polygon fill="#ffffff" stroke="transparent" points="8,-209 8,-231 202,-231 202,-209 8,-209"/>
<polygon fill="none" stroke="black" points="8,-209 8,-231 202,-231 202,-209 8,-209"/>
<text text-anchor="start" x="28" y="-217.2" font-family="Helvetica,sans-Serif" font-size="11.00">display_name</text>
<polygon fill="none" stroke="black" points="8,-187 8,-209 202,-209 202,-187 8,-187"/>
<image xlink:href="../../images/foreignKeys.png" width="11px" height="12px" preserveAspectRatio="xMinYMin meet" x="13" y="-204"/>
<text text-anchor="start" x="28" y="-195.2" font-family="Helvetica,sans-Serif" font-size="11.00">enum_id</text>
<polygon fill="none" stroke="black" points="8,-165 8,-187 202,-187 202,-165 8,-165"/>
<image xlink:href="../../images/foreignKeys.png" width="11px" height="12px" preserveAspectRatio="xMinYMin meet" x="13" y="-182"/>
<text text-anchor="start" x="28" y="-173.2" font-family="Helvetica,sans-Serif" font-size="11.00">functional_type_id</text>
<polygon fill="none" stroke="black" points="8,-147 8,-165 202,-165 202,-147 8,-147"/>
<text text-anchor="start" x="11" y="-153.2" font-family="Helvetica,sans-Serif" font-size="11.00">...</text>
<polygon fill="#ffffff" stroke="transparent" points="8,-129 8,-147 98,-147 98,-129 8,-129"/>
<polygon fill="none" stroke="black" points="8,-129 8,-147 98,-147 98,-129 8,-129"/>
<text text-anchor="start" x="11" y="-135.2" font-family="Helvetica,sans-Serif" font-size="11.00">&lt; 2</text>
<polygon fill="#ffffff" stroke="transparent" points="98,-129 98,-147 145,-147 145,-129 98,-129"/>
<polygon fill="none" stroke="black" points="98,-129 98,-147 145,-147 145,-129 98,-129"/>
<text text-anchor="start" x="135" y="-135.2" font-family="Helvetica,sans-Serif" font-size="11.00"> &#160;</text>
<polygon fill="#ffffff" stroke="transparent" points="145,-129 145,-147 202,-147 202,-129 145,-129"/>
<polygon fill="none" stroke="black" points="145,-129 145,-147 202,-147 202,-129 145,-129"/>
<text text-anchor="start" x="183" y="-135.2" font-family="Helvetica,sans-Serif" font-size="11.00">7 &gt;</text>
</a>
</g>
</g>
<!-- syst_access_accounts&#45;&gt;syst_enum_items -->
<g id="edge2" class="edge">
<title>syst_access_accounts:w&#45;&gt;syst_enum_items:e</title>
<path fill="none" stroke="black" d="M481.08,-434.96C455.96,-421.24 485.07,-364.6 453,-336 366.7,-259.05 318.63,-264 203,-264"/>
<polygon fill="black" stroke="black" points="487.67,-436.35 494.76,-441.52 491.59,-437.17 495.5,-438 495.5,-438 495.5,-438 491.59,-437.17 496.24,-434.48 487.67,-436.35 487.67,-436.35"/>
<ellipse fill="none" stroke="black" cx="484.54" cy="-435.69" rx="3.2" ry="3.2"/>
</g>
<!-- syst_owners -->
<g id="node4" class="node">
<title>syst_owners</title>
<g id="a_node4"><a xlink:href="../../tables/syst_owners.html" xlink:title="syst_owners" target="_top">
<polygon fill="#ffffff" stroke="transparent" points="251,-346 251,-492 445,-492 445,-346 251,-346"/>
<polygon fill="#f5f5f5" stroke="transparent" points="251,-470 251,-492 445,-492 445,-470 251,-470"/>
<polygon fill="none" stroke="black" points="251,-470 251,-492 445,-492 445,-470 251,-470"/>
<text text-anchor="start" x="256" y="-479.2" font-family="Helvetica,sans-Serif" font-weight="bold" font-size="11.00">syst_owners</text>
<text text-anchor="start" x="410" y="-478.2" font-family="Helvetica,sans-Serif" font-size="11.00">[table]</text>
<polygon fill="none" stroke="black" points="251,-448 251,-470 445,-470 445,-448 251,-448"/>
<image xlink:href="../../images/primaryKeys.png" width="11px" height="12px" preserveAspectRatio="xMinYMin meet" x="256" y="-465"/>
<text text-anchor="start" x="271" y="-456.2" font-family="Helvetica,sans-Serif" font-size="11.00">id</text>
<polygon fill="#ffffff" stroke="transparent" points="251,-426 251,-448 445,-448 445,-426 251,-426"/>
<polygon fill="none" stroke="black" points="251,-426 251,-448 445,-448 445,-426 251,-426"/>
<text text-anchor="start" x="271" y="-434.2" font-family="Helvetica,sans-Serif" font-size="11.00">internal_name</text>
<polygon fill="#ffffff" stroke="transparent" points="251,-404 251,-426 445,-426 445,-404 251,-404"/>
<polygon fill="none" stroke="black" points="251,-404 251,-426 445,-426 445,-404 251,-404"/>
<text text-anchor="start" x="271" y="-412.2" font-family="Helvetica,sans-Serif" font-size="11.00">display_name</text>
<polygon fill="none" stroke="black" points="251,-382 251,-404 445,-404 445,-382 251,-382"/>
<image xlink:href="../../images/foreignKeys.png" width="11px" height="12px" preserveAspectRatio="xMinYMin meet" x="256" y="-399"/>
<text text-anchor="start" x="271" y="-390.2" font-family="Helvetica,sans-Serif" font-size="11.00">owner_state_id</text>
<polygon fill="none" stroke="black" points="251,-364 251,-382 445,-382 445,-364 251,-364"/>
<text text-anchor="start" x="254" y="-370.2" font-family="Helvetica,sans-Serif" font-size="11.00">...</text>
<polygon fill="#ffffff" stroke="transparent" points="251,-346 251,-364 341,-364 341,-346 251,-346"/>
<polygon fill="none" stroke="black" points="251,-346 251,-364 341,-364 341,-346 251,-346"/>
<text text-anchor="start" x="254" y="-352.2" font-family="Helvetica,sans-Serif" font-size="11.00">&lt; 1</text>
<polygon fill="#ffffff" stroke="transparent" points="341,-346 341,-364 388,-364 388,-346 341,-346"/>
<polygon fill="none" stroke="black" points="341,-346 341,-364 388,-364 388,-346 341,-346"/>
<text text-anchor="start" x="378" y="-352.2" font-family="Helvetica,sans-Serif" font-size="11.00"> &#160;</text>
<polygon fill="#ffffff" stroke="transparent" points="388,-346 388,-364 445,-364 445,-346 388,-346"/>
<polygon fill="none" stroke="black" points="388,-346 388,-364 445,-364 445,-346 388,-346"/>
<text text-anchor="start" x="426" y="-352.2" font-family="Helvetica,sans-Serif" font-size="11.00">4 &gt;</text>
</a>
</g>
</g>
<!-- syst_access_accounts&#45;&gt;syst_owners -->
<g id="edge3" class="edge">
<title>syst_access_accounts:w&#45;&gt;syst_owners:e</title>
<path fill="none" stroke="black" d="M481.31,-478.61C469.4,-472.21 464.38,-459 446,-459"/>
<polygon fill="black" stroke="black" points="487.72,-480.14 494.66,-485.5 491.61,-481.07 495.5,-482 495.5,-482 495.5,-482 491.61,-481.07 496.34,-478.5 487.72,-480.14 487.72,-480.14"/>
<ellipse fill="none" stroke="black" cx="484.61" cy="-479.39" rx="3.2" ry="3.2"/>
</g>
<!-- syst_owners&#45;&gt;syst_enum_items -->
<g id="edge9" class="edge">
<title>syst_owners:w&#45;&gt;syst_enum_items:e</title>
<path fill="none" stroke="black" d="M235.76,-389.55C202.34,-369.03 258.06,-264 203,-264"/>
<polygon fill="black" stroke="black" points="242.23,-391.12 249.15,-396.5 246.11,-392.06 250,-393 250,-393 250,-393 246.11,-392.06 250.85,-389.5 242.23,-391.12 242.23,-391.12"/>
<ellipse fill="none" stroke="black" cx="239.12" cy="-390.36" rx="3.2" ry="3.2"/>
</g>
<!-- syst_credentials -->
<g id="node5" class="node">
<title>syst_credentials</title>
<g id="a_node5"><a xlink:href="../../tables/syst_credentials.html" xlink:title="syst_credentials" target="_top">
<polygon fill="#ffffff" stroke="transparent" points="1175,-160 1175,-306 1369,-306 1369,-160 1175,-160"/>
<polygon fill="#f5f5f5" stroke="transparent" points="1175,-284 1175,-306 1369,-306 1369,-284 1175,-284"/>
<polygon fill="none" stroke="black" points="1175,-284 1175,-306 1369,-306 1369,-284 1175,-284"/>
<text text-anchor="start" x="1180" y="-293.2" font-family="Helvetica,sans-Serif" font-weight="bold" font-size="11.00">syst_credentials</text>
<text text-anchor="start" x="1334" y="-292.2" font-family="Helvetica,sans-Serif" font-size="11.00">[table]</text>
<polygon fill="none" stroke="black" points="1175,-262 1175,-284 1369,-284 1369,-262 1175,-262"/>
<image xlink:href="../../images/primaryKeys.png" width="11px" height="12px" preserveAspectRatio="xMinYMin meet" x="1180" y="-279"/>
<text text-anchor="start" x="1195" y="-270.2" font-family="Helvetica,sans-Serif" font-size="11.00">id</text>
<polygon fill="#ffffff" stroke="transparent" points="1175,-240 1175,-262 1369,-262 1369,-240 1175,-240"/>
<polygon fill="none" stroke="black" points="1175,-240 1175,-262 1369,-262 1369,-240 1175,-240"/>
<image xlink:href="../../images/foreignKeys.png" width="11px" height="12px" preserveAspectRatio="xMinYMin meet" x="1180" y="-257"/>
<text text-anchor="start" x="1195" y="-248.2" font-family="Helvetica,sans-Serif" font-size="11.00">access_account_id</text>
<polygon fill="#ffffff" stroke="transparent" points="1175,-218 1175,-240 1369,-240 1369,-218 1175,-218"/>
<polygon fill="none" stroke="black" points="1175,-218 1175,-240 1369,-240 1369,-218 1175,-218"/>
<image xlink:href="../../images/foreignKeys.png" width="11px" height="12px" preserveAspectRatio="xMinYMin meet" x="1180" y="-235"/>
<text text-anchor="start" x="1195" y="-226.2" font-family="Helvetica,sans-Serif" font-size="11.00">credential_type_id</text>
<polygon fill="#ffffff" stroke="transparent" points="1175,-196 1175,-218 1369,-218 1369,-196 1175,-196"/>
<polygon fill="none" stroke="black" points="1175,-196 1175,-218 1369,-218 1369,-196 1175,-196"/>
<image xlink:href="../../images/foreignKeys.png" width="11px" height="12px" preserveAspectRatio="xMinYMin meet" x="1180" y="-213"/>
<text text-anchor="start" x="1195" y="-204.2" font-family="Helvetica,sans-Serif" font-size="11.00">credential_for_identity_id</text>
<polygon fill="none" stroke="black" points="1175,-178 1175,-196 1369,-196 1369,-178 1175,-178"/>
<text text-anchor="start" x="1178" y="-184.2" font-family="Helvetica,sans-Serif" font-size="11.00">...</text>
<polygon fill="#ffffff" stroke="transparent" points="1175,-160 1175,-178 1270,-178 1270,-160 1175,-160"/>
<polygon fill="none" stroke="black" points="1175,-160 1175,-178 1270,-178 1270,-160 1175,-160"/>
<text text-anchor="start" x="1178" y="-166.2" font-family="Helvetica,sans-Serif" font-size="11.00">&lt; 3</text>
<polygon fill="#ffffff" stroke="transparent" points="1270,-160 1270,-178 1319,-178 1319,-160 1270,-160"/>
<polygon fill="none" stroke="black" points="1270,-160 1270,-178 1319,-178 1319,-160 1270,-160"/>
<text text-anchor="start" x="1309" y="-166.2" font-family="Helvetica,sans-Serif" font-size="11.00"> &#160;</text>
<polygon fill="#ffffff" stroke="transparent" points="1319,-160 1319,-178 1369,-178 1369,-160 1319,-160"/>
<polygon fill="none" stroke="black" points="1319,-160 1319,-178 1369,-178 1369,-160 1319,-160"/>
<text text-anchor="start" x="1359" y="-166.2" font-family="Helvetica,sans-Serif" font-size="11.00"> &#160;</text>
</a>
</g>
</g>
<!-- syst_credentials&#45;&gt;syst_access_accounts -->
<g id="edge4" class="edge">
<title>syst_credentials:w&#45;&gt;syst_access_accounts:e</title>
<path fill="none" stroke="black" d="M1160.75,-256.85C1130.19,-290.25 1169.39,-456.3 1134,-489 1083.53,-535.62 890,-491.02 826,-516 804.3,-524.47 807.79,-548 784.5,-548"/>
<polygon fill="black" stroke="black" points="1166.68,-254.23 1175.46,-254.29 1170.34,-252.62 1174,-251 1174,-251 1174,-251 1170.34,-252.62 1172.54,-247.71 1166.68,-254.23 1166.68,-254.23"/>
<ellipse fill="none" stroke="black" cx="1163.76" cy="-255.53" rx="3.2" ry="3.2"/>
</g>
<!-- syst_credentials&#45;&gt;syst_enum_items -->
<g id="edge6" class="edge">
<title>syst_credentials:w&#45;&gt;syst_enum_items:e</title>
<path fill="none" stroke="black" d="M1159.39,-229C865.63,-229.01 786.61,-229.43 486,-243 377.85,-247.88 350.88,-250.83 243,-260 225.2,-261.51 220.87,-264 203,-264"/>
<polygon fill="black" stroke="black" points="1166,-229 1174,-232.6 1170,-229 1174,-229 1174,-229 1174,-229 1170,-229 1174,-225.4 1166,-229 1166,-229"/>
<ellipse fill="none" stroke="black" cx="1162.8" cy="-229" rx="3.2" ry="3.2"/>
</g>
<!-- syst_identities -->
<g id="node6" class="node">
<title>syst_identities</title>
<g id="a_node6"><a xlink:href="../../tables/syst_identities.html" xlink:title="syst_identities" target="_top">
<polygon fill="#ffffff" stroke="transparent" points="883,-37 883,-205 1077,-205 1077,-37 883,-37"/>
<polygon fill="#f5f5f5" stroke="transparent" points="883,-183 883,-205 1077,-205 1077,-183 883,-183"/>
<polygon fill="none" stroke="black" points="883,-183 883,-205 1077,-205 1077,-183 883,-183"/>
<text text-anchor="start" x="888" y="-192.2" font-family="Helvetica,sans-Serif" font-weight="bold" font-size="11.00">syst_identities</text>
<text text-anchor="start" x="1042" y="-191.2" font-family="Helvetica,sans-Serif" font-size="11.00">[table]</text>
<polygon fill="none" stroke="black" points="883,-161 883,-183 1077,-183 1077,-161 883,-161"/>
<image xlink:href="../../images/primaryKeys.png" width="11px" height="12px" preserveAspectRatio="xMinYMin meet" x="888" y="-178"/>
<text text-anchor="start" x="903" y="-169.2" font-family="Helvetica,sans-Serif" font-size="11.00">id</text>
<polygon fill="#ffffff" stroke="transparent" points="883,-139 883,-161 1077,-161 1077,-139 883,-139"/>
<polygon fill="none" stroke="black" points="883,-139 883,-161 1077,-161 1077,-139 883,-139"/>
<image xlink:href="../../images/foreignKeys.png" width="11px" height="12px" preserveAspectRatio="xMinYMin meet" x="888" y="-156"/>
<text text-anchor="start" x="903" y="-147.2" font-family="Helvetica,sans-Serif" font-size="11.00">access_account_id</text>
<polygon fill="#ffffff" stroke="transparent" points="883,-117 883,-139 1077,-139 1077,-117 883,-117"/>
<polygon fill="none" stroke="black" points="883,-117 883,-139 1077,-139 1077,-117 883,-117"/>
<image xlink:href="../../images/foreignKeys.png" width="11px" height="12px" preserveAspectRatio="xMinYMin meet" x="888" y="-134"/>
<text text-anchor="start" x="903" y="-125.2" font-family="Helvetica,sans-Serif" font-size="11.00">identity_type_id</text>
<polygon fill="#ffffff" stroke="transparent" points="883,-95 883,-117 1077,-117 1077,-95 883,-95"/>
<polygon fill="none" stroke="black" points="883,-95 883,-117 1077,-117 1077,-95 883,-95"/>
<text text-anchor="start" x="903" y="-103.2" font-family="Helvetica,sans-Serif" font-size="11.00">account_identifier</text>
<polygon fill="#ffffff" stroke="transparent" points="883,-73 883,-95 1077,-95 1077,-73 883,-73"/>
<polygon fill="none" stroke="black" points="883,-73 883,-95 1077,-95 1077,-73 883,-73"/>
<image xlink:href="../../images/foreignKeys.png" width="11px" height="12px" preserveAspectRatio="xMinYMin meet" x="888" y="-90"/>
<text text-anchor="start" x="903" y="-81.2" font-family="Helvetica,sans-Serif" font-size="11.00">validates_identity_id</text>
<polygon fill="none" stroke="black" points="883,-55 883,-73 1077,-73 1077,-55 883,-55"/>
<text text-anchor="start" x="886" y="-61.2" font-family="Helvetica,sans-Serif" font-size="11.00">...</text>
<polygon fill="#ffffff" stroke="transparent" points="883,-37 883,-55 973,-55 973,-37 883,-37"/>
<polygon fill="none" stroke="black" points="883,-37 883,-55 973,-55 973,-37 883,-37"/>
<text text-anchor="start" x="886" y="-43.2" font-family="Helvetica,sans-Serif" font-size="11.00">&lt; 3</text>
<polygon fill="#ffffff" stroke="transparent" points="973,-37 973,-55 1020,-55 1020,-37 973,-37"/>
<polygon fill="none" stroke="black" points="973,-37 973,-55 1020,-55 1020,-37 973,-37"/>
<text text-anchor="start" x="1010" y="-43.2" font-family="Helvetica,sans-Serif" font-size="11.00"> &#160;</text>
<polygon fill="#ffffff" stroke="transparent" points="1020,-37 1020,-55 1077,-55 1077,-37 1020,-37"/>
<polygon fill="none" stroke="black" points="1020,-37 1020,-55 1077,-55 1077,-37 1020,-37"/>
<text text-anchor="start" x="1058" y="-43.2" font-family="Helvetica,sans-Serif" font-size="11.00">2 &gt;</text>
</a>
</g>
</g>
<!-- syst_credentials&#45;&gt;syst_identities -->
<g id="edge5" class="edge">
<title>syst_credentials:w&#45;&gt;syst_identities:e</title>
<path fill="none" stroke="black" d="M1159.56,-205.67C1126.82,-199.28 1118.09,-172 1078,-172"/>
<polygon fill="black" stroke="black" points="1166.03,-206.27 1173.67,-210.58 1170.02,-206.63 1174,-207 1174,-207 1174,-207 1170.02,-206.63 1174.33,-203.42 1166.03,-206.27 1166.03,-206.27"/>
<ellipse fill="none" stroke="black" cx="1162.85" cy="-205.97" rx="3.2" ry="3.2"/>
</g>
<!-- syst_identities&#45;&gt;syst_access_accounts -->
<g id="edge7" class="edge">
<title>syst_identities:w&#45;&gt;syst_access_accounts:e</title>
<path fill="none" stroke="black" d="M867.18,-151.05C789.85,-163.02 848.19,-274.91 826,-366 816.18,-406.3 825.98,-548 784.5,-548"/>
<polygon fill="black" stroke="black" points="874.02,-150.57 882.25,-153.59 878.01,-150.28 882,-150 882,-150 882,-150 878.01,-150.28 881.75,-146.41 874.02,-150.57 874.02,-150.57"/>
<ellipse fill="none" stroke="black" cx="870.83" cy="-150.79" rx="3.2" ry="3.2"/>
</g>
<!-- syst_identities&#45;&gt;syst_enum_items -->
<g id="edge8" class="edge">
<title>syst_identities:w&#45;&gt;syst_enum_items:e</title>
<path fill="none" stroke="black" d="M867.46,-127.96C591.69,-126.52 491.41,-85.6 243,-219 219.43,-231.66 229.76,-264 203,-264"/>
<polygon fill="black" stroke="black" points="874,-127.98 881.99,-131.6 878,-127.99 882,-128 882,-128 882,-128 878,-127.99 882.01,-124.4 874,-127.98 874,-127.98"/>
<ellipse fill="none" stroke="black" cx="870.8" cy="-127.97" rx="3.2" ry="3.2"/>
</g>
<!-- syst_password_history -->
<g id="node7" class="node">
<title>syst_password_history</title>
<g id="a_node7"><a xlink:href="../../tables/syst_password_history.html" xlink:title="syst_password_history" target="_top">
<polygon fill="#ffffff" stroke="transparent" points="883,-376 883,-478 1077,-478 1077,-376 883,-376"/>
<polygon fill="#f5f5f5" stroke="transparent" points="883,-456 883,-478 1077,-478 1077,-456 883,-456"/>
<polygon fill="none" stroke="black" points="883,-456 883,-478 1077,-478 1077,-456 883,-456"/>
<text text-anchor="start" x="888" y="-465.2" font-family="Helvetica,sans-Serif" font-weight="bold" font-size="11.00">syst_password_history</text>
<text text-anchor="start" x="1042" y="-464.2" font-family="Helvetica,sans-Serif" font-size="11.00">[table]</text>
<polygon fill="none" stroke="black" points="883,-434 883,-456 1077,-456 1077,-434 883,-434"/>
<image xlink:href="../../images/primaryKeys.png" width="11px" height="12px" preserveAspectRatio="xMinYMin meet" x="888" y="-451"/>
<text text-anchor="start" x="903" y="-442.2" font-family="Helvetica,sans-Serif" font-size="11.00">id</text>
<polygon fill="#ffffff" stroke="transparent" points="883,-412 883,-434 1077,-434 1077,-412 883,-412"/>
<polygon fill="none" stroke="black" points="883,-412 883,-434 1077,-434 1077,-412 883,-412"/>
<image xlink:href="../../images/foreignKeys.png" width="11px" height="12px" preserveAspectRatio="xMinYMin meet" x="888" y="-429"/>
<text text-anchor="start" x="903" y="-420.2" font-family="Helvetica,sans-Serif" font-size="11.00">access_account_id</text>
<polygon fill="none" stroke="black" points="883,-394 883,-412 1077,-412 1077,-394 883,-394"/>
<text text-anchor="start" x="886" y="-400.2" font-family="Helvetica,sans-Serif" font-size="11.00">...</text>
<polygon fill="#ffffff" stroke="transparent" points="883,-376 883,-394 978,-394 978,-376 883,-376"/>
<polygon fill="none" stroke="black" points="883,-376 883,-394 978,-394 978,-376 883,-376"/>
<text text-anchor="start" x="886" y="-382.2" font-family="Helvetica,sans-Serif" font-size="11.00">&lt; 1</text>
<polygon fill="#ffffff" stroke="transparent" points="978,-376 978,-394 1027,-394 1027,-376 978,-376"/>
<polygon fill="none" stroke="black" points="978,-376 978,-394 1027,-394 1027,-376 978,-376"/>
<text text-anchor="start" x="1017" y="-382.2" font-family="Helvetica,sans-Serif" font-size="11.00"> &#160;</text>
<polygon fill="#ffffff" stroke="transparent" points="1027,-376 1027,-394 1077,-394 1077,-376 1027,-376"/>
<polygon fill="none" stroke="black" points="1027,-376 1027,-394 1077,-394 1077,-376 1027,-376"/>
<text text-anchor="start" x="1067" y="-382.2" font-family="Helvetica,sans-Serif" font-size="11.00"> &#160;</text>
</a>
</g>
</g>
<!-- syst_password_history&#45;&gt;syst_access_accounts -->
<g id="edge10" class="edge">
<title>syst_password_history:w&#45;&gt;syst_access_accounts:e</title>
<path fill="none" stroke="black" d="M867.59,-425.23C844.06,-433.79 846.71,-465.3 826,-492 807.01,-516.48 815.48,-548 784.5,-548"/>
<polygon fill="black" stroke="black" points="874.09,-424.23 882.55,-426.56 878.05,-423.61 882,-423 882,-423 882,-423 878.05,-423.61 881.45,-419.44 874.09,-424.23 874.09,-424.23"/>
<ellipse fill="none" stroke="black" cx="870.93" cy="-424.72" rx="3.2" ry="3.2"/>
</g>
</g>
</svg>
