<?xml version="1.0" encoding="UTF-8" standalone="no"?>
<!DOCTYPE svg PUBLIC "-//W3C//DTD SVG 1.1//EN"
 "http://www.w3.org/Graphics/SVG/1.1/DTD/svg11.dtd">
<!-- Generated by graphviz version 2.43.0 (0)
 -->
<!-- Title: twoDegreesRelationshipsDiagram Pages: 1 -->
<svg width="766pt" height="638pt"
 viewBox="0.00 0.00 766.00 638.00" xmlns="http://www.w3.org/2000/svg" xmlns:xlink="http://www.w3.org/1999/xlink">
<g id="graph0" class="graph" transform="scale(1 1) rotate(0) translate(4 634)">
<title>twoDegreesRelationshipsDiagram</title>
<polygon fill="#ffffff" stroke="transparent" points="-4,4 -4,-634 762,-634 762,4 -4,4"/>
<text text-anchor="middle" x="71.5" y="-7.2" font-family="Helvetica,sans-Serif" font-size="11.00">Generated by SchemaSpy</text>
<!-- syst_access_accounts -->
<g id="node1" class="node">
<title>syst_access_accounts</title>
<g id="a_node1"><a xlink:href="../../tables/syst_access_accounts.html" xlink:title="syst_access_accounts" target="_top">
<polygon fill="#ffffff" stroke="transparent" points="510,-568 510,-626 695,-626 695,-568 510,-568"/>
<polygon fill="#f5f5f5" stroke="transparent" points="510.5,-604 510.5,-626 695.5,-626 695.5,-604 510.5,-604"/>
<polygon fill="none" stroke="black" points="510.5,-604 510.5,-626 695.5,-626 695.5,-604 510.5,-604"/>
<text text-anchor="start" x="515.5" y="-613.2" font-family="Helvetica,sans-Serif" font-weight="bold" font-size="11.00">syst_access_accounts</text>
<text text-anchor="start" x="660.5" y="-612.2" font-family="Helvetica,sans-Serif" font-size="11.00">[table]</text>
<polygon fill="none" stroke="black" points="510.5,-586 510.5,-604 695.5,-604 695.5,-586 510.5,-586"/>
<text text-anchor="start" x="513.5" y="-592.2" font-family="Helvetica,sans-Serif" font-size="11.00">...</text>
<polygon fill="#ffffff" stroke="transparent" points="510.5,-568 510.5,-586 596.5,-586 596.5,-568 510.5,-568"/>
<polygon fill="none" stroke="black" points="510.5,-568 510.5,-586 596.5,-586 596.5,-568 510.5,-568"/>
<text text-anchor="start" x="513.5" y="-574.2" font-family="Helvetica,sans-Serif" font-size="11.00">&lt; 2</text>
<polygon fill="#ffffff" stroke="transparent" points="596.5,-568 596.5,-586 641.5,-586 641.5,-568 596.5,-568"/>
<polygon fill="none" stroke="black" points="596.5,-568 596.5,-586 641.5,-586 641.5,-568 596.5,-568"/>
<text text-anchor="start" x="631.5" y="-574.2" font-family="Helvetica,sans-Serif" font-size="11.00"> &#160;</text>
<polygon fill="#ffffff" stroke="transparent" points="641.5,-568 641.5,-586 695.5,-586 695.5,-568 641.5,-568"/>
<polygon fill="none" stroke="black" points="641.5,-568 641.5,-586 695.5,-586 695.5,-568 641.5,-568"/>
<text text-anchor="start" x="676.5" y="-574.2" font-family="Helvetica,sans-Serif" font-size="11.00">4 &gt;</text>
</a>
</g>
</g>
<!-- syst_enum_items -->
<g id="node2" class="node">
<title>syst_enum_items</title>
<g id="a_node2"><a xlink:href="../../tables/syst_enum_items.html" xlink:title="syst_enum_items" target="_top">
<polygon fill="#ffffff" stroke="transparent" points="8,-75 8,-133 163,-133 163,-75 8,-75"/>
<polygon fill="#f5f5f5" stroke="transparent" points="8.5,-111 8.5,-133 163.5,-133 163.5,-111 8.5,-111"/>
<polygon fill="none" stroke="black" points="8.5,-111 8.5,-133 163.5,-133 163.5,-111 8.5,-111"/>
<text text-anchor="start" x="13.5" y="-120.2" font-family="Helvetica,sans-Serif" font-weight="bold" font-size="11.00">syst_enum_items</text>
<text text-anchor="start" x="128.5" y="-119.2" font-family="Helvetica,sans-Serif" font-size="11.00">[table]</text>
<polygon fill="none" stroke="black" points="8.5,-93 8.5,-111 163.5,-111 163.5,-93 8.5,-93"/>
<text text-anchor="start" x="11.5" y="-99.2" font-family="Helvetica,sans-Serif" font-size="11.00">...</text>
<polygon fill="#ffffff" stroke="transparent" points="8.5,-75 8.5,-93 79.5,-93 79.5,-75 8.5,-75"/>
<polygon fill="none" stroke="black" points="8.5,-75 8.5,-93 79.5,-93 79.5,-75 8.5,-75"/>
<text text-anchor="start" x="11.5" y="-81.2" font-family="Helvetica,sans-Serif" font-size="11.00">&lt; 2</text>
<polygon fill="#ffffff" stroke="transparent" points="79.5,-75 79.5,-93 116.5,-93 116.5,-75 79.5,-75"/>
<polygon fill="none" stroke="black" points="79.5,-75 79.5,-93 116.5,-93 116.5,-75 79.5,-75"/>
<text text-anchor="start" x="106.5" y="-81.2" font-family="Helvetica,sans-Serif" font-size="11.00"> &#160;</text>
<polygon fill="#ffffff" stroke="transparent" points="116.5,-75 116.5,-93 163.5,-93 163.5,-75 116.5,-75"/>
<polygon fill="none" stroke="black" points="116.5,-75 116.5,-93 163.5,-93 163.5,-75 116.5,-75"/>
<text text-anchor="start" x="144.5" y="-81.2" font-family="Helvetica,sans-Serif" font-size="11.00">7 &gt;</text>
</a>
</g>
</g>
<!-- syst_access_accounts&#45;&gt;syst_enum_items -->
<g id="edge1" class="edge">
<title>syst_access_accounts:w&#45;&gt;syst_enum_items:e</title>
<path fill="none" stroke="black" d="M494.76,-594.85C368.05,-592.12 353.26,-549 204,-251 173.32,-189.74 233.01,-102 164.5,-102"/>
<polygon fill="black" stroke="black" points="501.5,-594.92 509.46,-598.6 505.5,-594.96 509.5,-595 509.5,-595 509.5,-595 505.5,-594.96 509.54,-591.4 501.5,-594.92 501.5,-594.92"/>
<ellipse fill="none" stroke="black" cx="498.3" cy="-594.89" rx="3.2" ry="3.2"/>
</g>
<!-- syst_owners -->
<g id="node3" class="node">
<title>syst_owners</title>
<g id="a_node3"><a xlink:href="../../tables/syst_owners.html" xlink:title="syst_owners" target="_top">
<polygon fill="#ffffff" stroke="transparent" points="212,-94 212,-240 406,-240 406,-94 212,-94"/>
<polygon fill="#f5f5f5" stroke="transparent" points="212,-218 212,-240 406,-240 406,-218 212,-218"/>
<polygon fill="none" stroke="black" points="212,-218 212,-240 406,-240 406,-218 212,-218"/>
<text text-anchor="start" x="217" y="-227.2" font-family="Helvetica,sans-Serif" font-weight="bold" font-size="11.00">syst_owners</text>
<text text-anchor="start" x="371" y="-226.2" font-family="Helvetica,sans-Serif" font-size="11.00">[table]</text>
<polygon fill="none" stroke="black" points="212,-196 212,-218 406,-218 406,-196 212,-196"/>
<image xlink:href="../../images/primaryKeys.png" width="11px" height="12px" preserveAspectRatio="xMinYMin meet" x="217" y="-213"/>
<text text-anchor="start" x="232" y="-204.2" font-family="Helvetica,sans-Serif" font-size="11.00">id</text>
<polygon fill="#ffffff" stroke="transparent" points="212,-174 212,-196 406,-196 406,-174 212,-174"/>
<polygon fill="none" stroke="black" points="212,-174 212,-196 406,-196 406,-174 212,-174"/>
<text text-anchor="start" x="232" y="-182.2" font-family="Helvetica,sans-Serif" font-size="11.00">internal_name</text>
<polygon fill="#ffffff" stroke="transparent" points="212,-152 212,-174 406,-174 406,-152 212,-152"/>
<polygon fill="none" stroke="black" points="212,-152 212,-174 406,-174 406,-152 212,-152"/>
<text text-anchor="start" x="232" y="-160.2" font-family="Helvetica,sans-Serif" font-size="11.00">display_name</text>
<polygon fill="none" stroke="black" points="212,-130 212,-152 406,-152 406,-130 212,-130"/>
<image xlink:href="../../images/foreignKeys.png" width="11px" height="12px" preserveAspectRatio="xMinYMin meet" x="217" y="-147"/>
<text text-anchor="start" x="232" y="-138.2" font-family="Helvetica,sans-Serif" font-size="11.00">owner_state_id</text>
<polygon fill="none" stroke="black" points="212,-112 212,-130 406,-130 406,-112 212,-112"/>
<text text-anchor="start" x="215" y="-118.2" font-family="Helvetica,sans-Serif" font-size="11.00">...</text>
<polygon fill="#ffffff" stroke="transparent" points="212,-94 212,-112 302,-112 302,-94 212,-94"/>
<polygon fill="none" stroke="black" points="212,-94 212,-112 302,-112 302,-94 212,-94"/>
<text text-anchor="start" x="215" y="-100.2" font-family="Helvetica,sans-Serif" font-size="11.00">&lt; 1</text>
<polygon fill="#ffffff" stroke="transparent" points="302,-94 302,-112 349,-112 349,-94 302,-94"/>
<polygon fill="none" stroke="black" points="302,-94 302,-112 349,-112 349,-94 302,-94"/>
<text text-anchor="start" x="339" y="-100.2" font-family="Helvetica,sans-Serif" font-size="11.00"> &#160;</text>
<polygon fill="#ffffff" stroke="transparent" points="349,-94 349,-112 406,-112 406,-94 349,-94"/>
<polygon fill="none" stroke="black" points="349,-94 349,-112 406,-112 406,-94 349,-94"/>
<text text-anchor="start" x="387" y="-100.2" font-family="Helvetica,sans-Serif" font-size="11.00">4 &gt;</text>
</a>
</g>
</g>
<!-- syst_access_accounts&#45;&gt;syst_owners -->
<g id="edge2" class="edge">
<title>syst_access_accounts:w&#45;&gt;syst_owners:e</title>
<path fill="none" stroke="black" d="M495.09,-594.17C472.93,-591.29 461.67,-580.65 447,-558 404.31,-492.11 485.5,-207 407,-207"/>
<polygon fill="black" stroke="black" points="501.51,-594.54 509.29,-598.59 505.51,-594.77 509.5,-595 509.5,-595 509.5,-595 505.51,-594.77 509.71,-591.41 501.51,-594.54 501.51,-594.54"/>
<ellipse fill="none" stroke="black" cx="498.32" cy="-594.35" rx="3.2" ry="3.2"/>
</g>
<!-- syst_owners&#45;&gt;syst_enum_items -->
<g id="edge8" class="edge">
<title>syst_owners:w&#45;&gt;syst_enum_items:e</title>
<path fill="none" stroke="black" d="M197.17,-135.9C185.63,-125.33 185.36,-102 164.5,-102"/>
<polygon fill="black" stroke="black" points="203.49,-138.23 209.76,-144.38 207.25,-139.62 211,-141 211,-141 211,-141 207.25,-139.62 212.24,-137.62 203.49,-138.23 203.49,-138.23"/>
<ellipse fill="none" stroke="black" cx="200.49" cy="-137.13" rx="3.2" ry="3.2"/>
</g>
<!-- syst_instances -->
<g id="node4" class="node">
<title>syst_instances</title>
<g id="a_node4"><a xlink:href="../../tables/syst_instances.html" xlink:title="syst_instances" target="_top">
<polygon fill="#ffffff" stroke="transparent" points="533.5,-37 533.5,-95 671.5,-95 671.5,-37 533.5,-37"/>
<polygon fill="#f5f5f5" stroke="transparent" points="533.5,-73 533.5,-95 671.5,-95 671.5,-73 533.5,-73"/>
<polygon fill="none" stroke="black" points="533.5,-73 533.5,-95 671.5,-95 671.5,-73 533.5,-73"/>
<text text-anchor="start" x="538.5" y="-82.2" font-family="Helvetica,sans-Serif" font-weight="bold" font-size="11.00">syst_instances</text>
<text text-anchor="start" x="636.5" y="-81.2" font-family="Helvetica,sans-Serif" font-size="11.00">[table]</text>
<polygon fill="none" stroke="black" points="533.5,-55 533.5,-73 671.5,-73 671.5,-55 533.5,-55"/>
<text text-anchor="start" x="536.5" y="-61.2" font-family="Helvetica,sans-Serif" font-size="11.00">...</text>
<polygon fill="#ffffff" stroke="transparent" points="533.5,-37 533.5,-55 595.5,-55 595.5,-37 533.5,-37"/>
<polygon fill="none" stroke="black" points="533.5,-37 533.5,-55 595.5,-55 595.5,-37 533.5,-37"/>
<text text-anchor="start" x="536.5" y="-43.2" font-family="Helvetica,sans-Serif" font-size="11.00">&lt; 5</text>
<polygon fill="#ffffff" stroke="transparent" points="595.5,-37 595.5,-55 628.5,-55 628.5,-37 595.5,-37"/>
<polygon fill="none" stroke="black" points="595.5,-37 595.5,-55 628.5,-55 628.5,-37 595.5,-37"/>
<text text-anchor="start" x="618.5" y="-43.2" font-family="Helvetica,sans-Serif" font-size="11.00"> &#160;</text>
<polygon fill="#ffffff" stroke="transparent" points="628.5,-37 628.5,-55 671.5,-55 671.5,-37 628.5,-37"/>
<polygon fill="none" stroke="black" points="628.5,-37 628.5,-55 671.5,-55 671.5,-37 628.5,-37"/>
<text text-anchor="start" x="652.5" y="-43.2" font-family="Helvetica,sans-Serif" font-size="11.00">4 &gt;</text>
</a>
</g>
</g>
<!-- syst_instances&#45;&gt;syst_enum_items -->
<g id="edge3" class="edge">
<title>syst_instances:w&#45;&gt;syst_enum_items:e</title>
<path fill="none" stroke="black" d="M517.86,-63.95C383.36,-63.01 341.08,-49.84 204,-84 185.28,-88.66 183.79,-102 164.5,-102"/>
<polygon fill="black" stroke="black" points="524.5,-63.97 532.49,-67.6 528.5,-63.99 532.5,-64 532.5,-64 532.5,-64 528.5,-63.99 532.51,-60.4 524.5,-63.97 524.5,-63.97"/>
<ellipse fill="none" stroke="black" cx="521.3" cy="-63.96" rx="3.2" ry="3.2"/>
</g>
<!-- syst_instances&#45;&gt;syst_enum_items -->
<g id="edge4" class="edge">
<title>syst_instances:w&#45;&gt;syst_enum_items:e</title>
<path fill="none" stroke="black" d="M517.86,-63.98C383.33,-63.63 342.37,-58.97 204,-88 185.77,-91.82 183.13,-102 164.5,-102"/>
<polygon fill="black" stroke="black" points="524.5,-63.99 532.5,-67.6 528.5,-63.99 532.5,-64 532.5,-64 532.5,-64 528.5,-63.99 532.5,-60.4 524.5,-63.99 524.5,-63.99"/>
<ellipse fill="none" stroke="black" cx="521.3" cy="-63.98" rx="3.2" ry="3.2"/>
</g>
<!-- syst_instances&#45;&gt;syst_owners -->
<g id="edge5" class="edge">
<title>syst_instances:w&#45;&gt;syst_owners:e</title>
<path fill="none" stroke="black" d="M517.85,-64.53C486.33,-67.04 472.13,-78.78 447,-106 414.24,-141.47 455.28,-207 407,-207"/>
<polygon fill="black" stroke="black" points="524.51,-64.29 532.63,-67.6 528.5,-64.14 532.5,-64 532.5,-64 532.5,-64 528.5,-64.14 532.37,-60.4 524.51,-64.29 524.51,-64.29"/>
<ellipse fill="none" stroke="black" cx="521.31" cy="-64.4" rx="3.2" ry="3.2"/>
</g>
<!-- syst_owner_network_rules -->
<g id="node5" class="node">
<title>syst_owner_network_rules</title>
<g id="a_node5"><a xlink:href="../../tables/syst_owner_network_rules.html" xlink:title="syst_owner_network_rules" target="_top">
<polygon fill="#ffffff" stroke="transparent" points="455,-195 455,-547 750,-547 750,-195 455,-195"/>
<polygon fill="#f5f5f5" stroke="transparent" points="457.5,-523 457.5,-545 748.5,-545 748.5,-523 457.5,-523"/>
<polygon fill="none" stroke="black" points="457.5,-523 457.5,-545 748.5,-545 748.5,-523 457.5,-523"/>
<text text-anchor="start" x="462.5" y="-532.2" font-family="Helvetica,sans-Serif" font-weight="bold" font-size="11.00">syst_owner_network_rules</text>
<text text-anchor="start" x="713.5" y="-531.2" font-family="Helvetica,sans-Serif" font-size="11.00">[table]</text>
<polygon fill="none" stroke="black" points="457.5,-501 457.5,-523 655.5,-523 655.5,-501 457.5,-501"/>
<image xlink:href="../../images/primaryKeys.png" width="11px" height="12px" preserveAspectRatio="xMinYMin meet" x="462.5" y="-518"/>
<text text-anchor="start" x="477.5" y="-509.2" font-family="Helvetica,sans-Serif" font-size="11.00">id</text>
<polygon fill="none" stroke="black" points="655.5,-501 655.5,-523 748.5,-523 748.5,-501 655.5,-501"/>
<text text-anchor="start" x="658.5" y="-509.2" font-family="Helvetica,sans-Serif" font-size="11.00">uuid[2147483647]</text>
<polygon fill="#ffffff" stroke="transparent" points="457.5,-479 457.5,-501 655.5,-501 655.5,-479 457.5,-479"/>
<polygon fill="none" stroke="black" points="457.5,-479 457.5,-501 655.5,-501 655.5,-479 457.5,-479"/>
<image xlink:href="../../images/foreignKeys.png" width="11px" height="12px" preserveAspectRatio="xMinYMin meet" x="462.5" y="-496"/>
<text text-anchor="start" x="477.5" y="-487.2" font-family="Helvetica,sans-Serif" font-size="11.00">owner_id</text>
<polygon fill="none" stroke="black" points="655.5,-479 655.5,-501 748.5,-501 748.5,-479 655.5,-479"/>
<text text-anchor="start" x="658.5" y="-487.2" font-family="Helvetica,sans-Serif" font-size="11.00">uuid[2147483647]</text>
<polygon fill="#ffffff" stroke="transparent" points="457.5,-457 457.5,-479 655.5,-479 655.5,-457 457.5,-457"/>
<polygon fill="none" stroke="black" points="457.5,-457 457.5,-479 655.5,-479 655.5,-457 457.5,-457"/>
<text text-anchor="start" x="477.5" y="-465.2" font-family="Helvetica,sans-Serif" font-size="11.00">ordering</text>
<polygon fill="none" stroke="black" points="655.5,-457 655.5,-479 748.5,-479 748.5,-457 655.5,-457"/>
<text text-anchor="start" x="658.5" y="-465.2" font-family="Helvetica,sans-Serif" font-size="11.00">int4[10]</text>
<polygon fill="none" stroke="black" points="457.5,-435 457.5,-457 655.5,-457 655.5,-435 457.5,-435"/>
<text text-anchor="start" x="477.5" y="-443.2" font-family="Helvetica,sans-Serif" font-size="11.00">functional_type</text>
<polygon fill="none" stroke="black" points="655.5,-435 655.5,-457 748.5,-457 748.5,-435 655.5,-435"/>
<text text-anchor="start" x="658.5" y="-443.2" font-family="Helvetica,sans-Serif" font-size="11.00">text[2147483647]</text>
<polygon fill="none" stroke="black" points="457.5,-413 457.5,-435 655.5,-435 655.5,-413 457.5,-413"/>
<text text-anchor="start" x="477.5" y="-421.2" font-family="Helvetica,sans-Serif" font-size="11.00">ip_host_or_network</text>
<polygon fill="none" stroke="black" points="655.5,-413 655.5,-435 748.5,-435 748.5,-413 655.5,-413"/>
<text text-anchor="start" x="658.5" y="-421.2" font-family="Helvetica,sans-Serif" font-size="11.00">inet[2147483647]</text>
<polygon fill="none" stroke="black" points="457.5,-391 457.5,-413 655.5,-413 655.5,-391 457.5,-391"/>
<text text-anchor="start" x="477.5" y="-399.2" font-family="Helvetica,sans-Serif" font-size="11.00">ip_host_range_lower</text>
<polygon fill="none" stroke="black" points="655.5,-391 655.5,-413 748.5,-413 748.5,-391 655.5,-391"/>
<text text-anchor="start" x="658.5" y="-399.2" font-family="Helvetica,sans-Serif" font-size="11.00">inet[2147483647]</text>
<polygon fill="none" stroke="black" points="457.5,-369 457.5,-391 655.5,-391 655.5,-369 457.5,-369"/>
<text text-anchor="start" x="477.5" y="-377.2" font-family="Helvetica,sans-Serif" font-size="11.00">ip_host_range_upper</text>
<polygon fill="none" stroke="black" points="655.5,-369 655.5,-391 748.5,-391 748.5,-369 655.5,-369"/>
<text text-anchor="start" x="658.5" y="-377.2" font-family="Helvetica,sans-Serif" font-size="11.00">inet[2147483647]</text>
<polygon fill="none" stroke="black" points="457.5,-347 457.5,-369 655.5,-369 655.5,-347 457.5,-347"/>
<text text-anchor="start" x="477.5" y="-355.2" font-family="Helvetica,sans-Serif" font-size="11.00">diag_timestamp_created</text>
<polygon fill="none" stroke="black" points="655.5,-347 655.5,-369 748.5,-369 748.5,-347 655.5,-347"/>
<text text-anchor="start" x="658.5" y="-355.2" font-family="Helvetica,sans-Serif" font-size="11.00">timestamptz[35,6]</text>
<polygon fill="none" stroke="black" points="457.5,-325 457.5,-347 655.5,-347 655.5,-325 457.5,-325"/>
<text text-anchor="start" x="477.5" y="-333.2" font-family="Helvetica,sans-Serif" font-size="11.00">diag_role_created</text>
<polygon fill="none" stroke="black" points="655.5,-325 655.5,-347 748.5,-347 748.5,-325 655.5,-325"/>
<text text-anchor="start" x="658.5" y="-333.2" font-family="Helvetica,sans-Serif" font-size="11.00">text[2147483647]</text>
<polygon fill="none" stroke="black" points="457.5,-303 457.5,-325 655.5,-325 655.5,-303 457.5,-303"/>
<text text-anchor="start" x="477.5" y="-311.2" font-family="Helvetica,sans-Serif" font-size="11.00">diag_timestamp_modified</text>
<polygon fill="none" stroke="black" points="655.5,-303 655.5,-325 748.5,-325 748.5,-303 655.5,-303"/>
<text text-anchor="start" x="658.5" y="-311.2" font-family="Helvetica,sans-Serif" font-size="11.00">timestamptz[35,6]</text>
<polygon fill="none" stroke="black" points="457.5,-281 457.5,-303 655.5,-303 655.5,-281 457.5,-281"/>
<text text-anchor="start" x="477.5" y="-289.2" font-family="Helvetica,sans-Serif" font-size="11.00">diag_wallclock_modified</text>
<polygon fill="none" stroke="black" points="655.5,-281 655.5,-303 748.5,-303 748.5,-281 655.5,-281"/>
<text text-anchor="start" x="658.5" y="-289.2" font-family="Helvetica,sans-Serif" font-size="11.00">timestamptz[35,6]</text>
<polygon fill="none" stroke="black" points="457.5,-259 457.5,-281 655.5,-281 655.5,-259 457.5,-259"/>
<text text-anchor="start" x="477.5" y="-267.2" font-family="Helvetica,sans-Serif" font-size="11.00">diag_role_modified</text>
<polygon fill="none" stroke="black" points="655.5,-259 655.5,-281 748.5,-281 748.5,-259 655.5,-259"/>
<text text-anchor="start" x="658.5" y="-267.2" font-family="Helvetica,sans-Serif" font-size="11.00">text[2147483647]</text>
<polygon fill="none" stroke="black" points="457.5,-237 457.5,-259 655.5,-259 655.5,-237 457.5,-237"/>
<text text-anchor="start" x="477.5" y="-245.2" font-family="Helvetica,sans-Serif" font-size="11.00">diag_row_version</text>
<polygon fill="none" stroke="black" points="655.5,-237 655.5,-259 748.5,-259 748.5,-237 655.5,-237"/>
<text text-anchor="start" x="658.5" y="-245.2" font-family="Helvetica,sans-Serif" font-size="11.00">int8[19]</text>
<polygon fill="none" stroke="black" points="457.5,-215 457.5,-237 655.5,-237 655.5,-215 457.5,-215"/>
<text text-anchor="start" x="477.5" y="-223.2" font-family="Helvetica,sans-Serif" font-size="11.00">diag_update_count</text>
<polygon fill="none" stroke="black" points="655.5,-215 655.5,-237 748.5,-237 748.5,-215 655.5,-215"/>
<text text-anchor="start" x="658.5" y="-223.2" font-family="Helvetica,sans-Serif" font-size="11.00">int8[19]</text>
<polygon fill="#ffffff" stroke="transparent" points="457.5,-197 457.5,-215 560.5,-215 560.5,-197 457.5,-197"/>
<polygon fill="none" stroke="black" points="457.5,-197 457.5,-215 560.5,-215 560.5,-197 457.5,-197"/>
<text text-anchor="start" x="460.5" y="-203.2" font-family="Helvetica,sans-Serif" font-size="11.00">&lt; 1</text>
<polygon fill="#ffffff" stroke="transparent" points="560.5,-197 560.5,-215 655.5,-215 655.5,-197 560.5,-197"/>
<polygon fill="none" stroke="black" points="560.5,-197 560.5,-215 655.5,-215 655.5,-197 560.5,-197"/>
<text text-anchor="start" x="645.5" y="-203.2" font-family="Helvetica,sans-Serif" font-size="11.00"> &#160;</text>
<polygon fill="#ffffff" stroke="transparent" points="655.5,-197 655.5,-215 748.5,-215 748.5,-197 655.5,-197"/>
<polygon fill="none" stroke="black" points="655.5,-197 655.5,-215 748.5,-215 748.5,-197 655.5,-197"/>
<text text-anchor="start" x="729.5" y="-203.2" font-family="Helvetica,sans-Serif" font-size="11.00">0 &gt;</text>
<polygon fill="none" stroke="black" stroke-width="2" points="456,-196 456,-546 749,-546 749,-196 456,-196"/>
</a>
</g>
</g>
<!-- syst_owner_network_rules&#45;&gt;syst_owners -->
<g id="edge6" class="edge">
<title>syst_owner_network_rules:w&#45;&gt;syst_owners:e</title>
<path fill="none" stroke="black" d="M443.25,-484.35C404.79,-444.46 465.48,-207 407,-207"/>
<polygon fill="black" stroke="black" points="449.14,-486.86 455.09,-493.31 452.82,-488.43 456.5,-490 456.5,-490 456.5,-490 452.82,-488.43 457.91,-486.69 449.14,-486.86 449.14,-486.86"/>
<ellipse fill="none" stroke="black" cx="446.2" cy="-485.6" rx="3.2" ry="3.2"/>
</g>
<!-- syst_owner_password_rules -->
<g id="node6" class="node">
<title>syst_owner_password_rules</title>
<g id="a_node6"><a xlink:href="../../tables/syst_owner_password_rules.html" xlink:title="syst_owner_password_rules" target="_top">
<polygon fill="#ffffff" stroke="transparent" points="489.5,-116 489.5,-174 715.5,-174 715.5,-116 489.5,-116"/>
<polygon fill="#f5f5f5" stroke="transparent" points="489.5,-152 489.5,-174 715.5,-174 715.5,-152 489.5,-152"/>
<polygon fill="none" stroke="black" points="489.5,-152 489.5,-174 715.5,-174 715.5,-152 489.5,-152"/>
<text text-anchor="start" x="494.5" y="-161.2" font-family="Helvetica,sans-Serif" font-weight="bold" font-size="11.00">syst_owner_password_rules</text>
<text text-anchor="start" x="680.5" y="-160.2" font-family="Helvetica,sans-Serif" font-size="11.00">[table]</text>
<polygon fill="none" stroke="black" points="489.5,-134 489.5,-152 715.5,-152 715.5,-134 489.5,-134"/>
<text text-anchor="start" x="492.5" y="-140.2" font-family="Helvetica,sans-Serif" font-size="11.00">...</text>
<polygon fill="#ffffff" stroke="transparent" points="489.5,-116 489.5,-134 600.5,-134 600.5,-116 489.5,-116"/>
<polygon fill="none" stroke="black" points="489.5,-116 489.5,-134 600.5,-134 600.5,-116 489.5,-116"/>
<text text-anchor="start" x="492.5" y="-122.2" font-family="Helvetica,sans-Serif" font-size="11.00">&lt; 1</text>
<polygon fill="#ffffff" stroke="transparent" points="600.5,-116 600.5,-134 657.5,-134 657.5,-116 600.5,-116"/>
<polygon fill="none" stroke="black" points="600.5,-116 600.5,-134 657.5,-134 657.5,-116 600.5,-116"/>
<text text-anchor="start" x="647.5" y="-122.2" font-family="Helvetica,sans-Serif" font-size="11.00"> &#160;</text>
<polygon fill="#ffffff" stroke="transparent" points="657.5,-116 657.5,-134 715.5,-134 715.5,-116 657.5,-116"/>
<polygon fill="none" stroke="black" points="657.5,-116 657.5,-134 715.5,-134 715.5,-116 657.5,-116"/>
<text text-anchor="start" x="705.5" y="-122.2" font-family="Helvetica,sans-Serif" font-size="11.00"> &#160;</text>
</a>
</g>
</g>
<!-- syst_owner_password_rules&#45;&gt;syst_owners -->
<g id="edge7" class="edge">
<title>syst_owner_password_rules:w&#45;&gt;syst_owners:e</title>
<path fill="none" stroke="black" d="M477.81,-144.34C443.85,-153.53 449.1,-207 407,-207"/>
<polygon fill="black" stroke="black" points="487.21,-139.13 488.2,-147.07 486.61,-147.27 485.62,-139.33 487.21,-139.13"/>
<polyline fill="none" stroke="black" points="488.5,-143 484.53,-143.5 "/>
<ellipse fill="none" stroke="black" cx="481.36" cy="-143.89" rx="3.2" ry="3.2"/>
</g>
</g>
</svg>
