<?xml version="1.0" encoding="UTF-8" standalone="no"?>
<!DOCTYPE svg PUBLIC "-//W3C//DTD SVG 1.1//EN"
 "http://www.w3.org/Graphics/SVG/1.1/DTD/svg11.dtd">
<!-- Generated by graphviz version 2.43.0 (0)
 -->
<!-- Title: oneDegreeRelationshipsDiagram Pages: 1 -->
<svg width="841pt" height="552pt"
 viewBox="0.00 0.00 841.00 552.00" xmlns="http://www.w3.org/2000/svg" xmlns:xlink="http://www.w3.org/1999/xlink">
<g id="graph0" class="graph" transform="scale(1 1) rotate(0) translate(4 548)">
<title>oneDegreeRelationshipsDiagram</title>
<polygon fill="#ffffff" stroke="transparent" points="-4,4 -4,-548 837,-548 837,4 -4,4"/>
<text text-anchor="middle" x="71.5" y="-7.2" font-family="Helvetica,sans-Serif" font-size="11.00">Generated by SchemaSpy</text>
<!-- syst_enum_functional_types -->
<g id="node1" class="node">
<title>syst_enum_functional_types</title>
<g id="a_node1"><a xlink:href="../../tables/syst_enum_functional_types.html" xlink:title="syst_enum_functional_types" target="_top">
<polygon fill="#ffffff" stroke="transparent" points="353,-289 353,-435 582,-435 582,-289 353,-289"/>
<polygon fill="#f5f5f5" stroke="transparent" points="353.5,-413 353.5,-435 582.5,-435 582.5,-413 353.5,-413"/>
<polygon fill="none" stroke="black" points="353.5,-413 353.5,-435 582.5,-435 582.5,-413 353.5,-413"/>
<text text-anchor="start" x="358.5" y="-422.2" font-family="Helvetica,sans-Serif" font-weight="bold" font-size="11.00">syst_enum_functional_types</text>
<text text-anchor="start" x="547.5" y="-421.2" font-family="Helvetica,sans-Serif" font-size="11.00">[table]</text>
<polygon fill="none" stroke="black" points="353.5,-391 353.5,-413 582.5,-413 582.5,-391 353.5,-391"/>
<image xlink:href="../../images/primaryKeys.png" width="11px" height="12px" preserveAspectRatio="xMinYMin meet" x="358.5" y="-408"/>
<text text-anchor="start" x="383.5" y="-399.2" font-family="Helvetica,sans-Serif" font-size="11.00">id</text>
<polygon fill="#ffffff" stroke="transparent" points="353.5,-369 353.5,-391 582.5,-391 582.5,-369 353.5,-369"/>
<polygon fill="none" stroke="black" points="353.5,-369 353.5,-391 582.5,-391 582.5,-369 353.5,-369"/>
<text text-anchor="start" x="383.5" y="-377.2" font-family="Helvetica,sans-Serif" font-size="11.00">internal_name</text>
<polygon fill="#ffffff" stroke="transparent" points="353.5,-347 353.5,-369 582.5,-369 582.5,-347 353.5,-347"/>
<polygon fill="none" stroke="black" points="353.5,-347 353.5,-369 582.5,-369 582.5,-347 353.5,-347"/>
<text text-anchor="start" x="383.5" y="-355.2" font-family="Helvetica,sans-Serif" font-size="11.00">display_name</text>
<polygon fill="none" stroke="black" points="353.5,-325 353.5,-347 582.5,-347 582.5,-325 353.5,-325"/>
<image xlink:href="../../images/foreignKeys.png" width="11px" height="12px" preserveAspectRatio="xMinYMin meet" x="358.5" y="-342"/>
<text text-anchor="start" x="383.5" y="-333.2" font-family="Helvetica,sans-Serif" font-size="11.00">enum_id</text>
<polygon fill="none" stroke="black" points="353.5,-307 353.5,-325 582.5,-325 582.5,-307 353.5,-307"/>
<text text-anchor="start" x="356.5" y="-313.2" font-family="Helvetica,sans-Serif" font-size="11.00">...</text>
<polygon fill="#ffffff" stroke="transparent" points="353.5,-289 353.5,-307 461.5,-307 461.5,-289 353.5,-289"/>
<polygon fill="none" stroke="black" points="353.5,-289 353.5,-307 461.5,-307 461.5,-289 353.5,-289"/>
<text text-anchor="start" x="356.5" y="-295.2" font-family="Helvetica,sans-Serif" font-size="11.00">&lt; 1</text>
<polygon fill="#ffffff" stroke="transparent" points="461.5,-289 461.5,-307 517.5,-307 517.5,-289 461.5,-289"/>
<polygon fill="none" stroke="black" points="461.5,-289 461.5,-307 517.5,-307 517.5,-289 461.5,-289"/>
<text text-anchor="start" x="507.5" y="-295.2" font-family="Helvetica,sans-Serif" font-size="11.00"> &#160;</text>
<polygon fill="#ffffff" stroke="transparent" points="517.5,-289 517.5,-307 582.5,-307 582.5,-289 517.5,-289"/>
<polygon fill="none" stroke="black" points="517.5,-289 517.5,-307 582.5,-307 582.5,-289 517.5,-289"/>
<text text-anchor="start" x="563.5" y="-295.2" font-family="Helvetica,sans-Serif" font-size="11.00">1 &gt;</text>
</a>
</g>
</g>
<!-- syst_enums -->
<g id="node2" class="node">
<title>syst_enums</title>
<g id="a_node2"><a xlink:href="../../tables/syst_enums.html" xlink:title="syst_enums" target="_top">
<polygon fill="#ffffff" stroke="transparent" points="8,-37 8,-433 304,-433 304,-37 8,-37"/>
<polygon fill="#f5f5f5" stroke="transparent" points="10,-409 10,-431 302,-431 302,-409 10,-409"/>
<polygon fill="none" stroke="black" points="10,-409 10,-431 302,-431 302,-409 10,-409"/>
<text text-anchor="start" x="15" y="-418.2" font-family="Helvetica,sans-Serif" font-weight="bold" font-size="11.00">syst_enums</text>
<text text-anchor="start" x="267" y="-417.2" font-family="Helvetica,sans-Serif" font-size="11.00">[table]</text>
<polygon fill="none" stroke="black" points="10,-387 10,-409 204,-409 204,-387 10,-387"/>
<image xlink:href="../../images/primaryKeys.png" width="11px" height="12px" preserveAspectRatio="xMinYMin meet" x="15" y="-404"/>
<text text-anchor="start" x="30" y="-395.2" font-family="Helvetica,sans-Serif" font-size="11.00">id</text>
<polygon fill="none" stroke="black" points="204,-387 204,-409 302,-409 302,-387 204,-387"/>
<text text-anchor="start" x="207" y="-395.2" font-family="Helvetica,sans-Serif" font-size="11.00">uuid[2147483647]</text>
<polygon fill="#ffffff" stroke="transparent" points="10,-365 10,-387 204,-387 204,-365 10,-365"/>
<polygon fill="none" stroke="black" points="10,-365 10,-387 204,-387 204,-365 10,-365"/>
<text text-anchor="start" x="30" y="-373.2" font-family="Helvetica,sans-Serif" font-size="11.00">internal_name</text>
<polygon fill="none" stroke="black" points="204,-365 204,-387 302,-387 302,-365 204,-365"/>
<text text-anchor="start" x="207" y="-373.2" font-family="Helvetica,sans-Serif" font-size="11.00">text[2147483647]</text>
<polygon fill="#ffffff" stroke="transparent" points="10,-343 10,-365 204,-365 204,-343 10,-343"/>
<polygon fill="none" stroke="black" points="10,-343 10,-365 204,-365 204,-343 10,-343"/>
<text text-anchor="start" x="30" y="-351.2" font-family="Helvetica,sans-Serif" font-size="11.00">display_name</text>
<polygon fill="none" stroke="black" points="204,-343 204,-365 302,-365 302,-343 204,-343"/>
<text text-anchor="start" x="207" y="-351.2" font-family="Helvetica,sans-Serif" font-size="11.00">text[2147483647]</text>
<polygon fill="none" stroke="black" points="10,-321 10,-343 204,-343 204,-321 10,-321"/>
<text text-anchor="start" x="30" y="-329.2" font-family="Helvetica,sans-Serif" font-size="11.00">syst_description</text>
<polygon fill="none" stroke="black" points="204,-321 204,-343 302,-343 302,-321 204,-321"/>
<text text-anchor="start" x="207" y="-329.2" font-family="Helvetica,sans-Serif" font-size="11.00">text[2147483647]</text>
<polygon fill="none" stroke="black" points="10,-299 10,-321 204,-321 204,-299 10,-299"/>
<text text-anchor="start" x="30" y="-307.2" font-family="Helvetica,sans-Serif" font-size="11.00">user_description</text>
<polygon fill="none" stroke="black" points="204,-299 204,-321 302,-321 302,-299 204,-299"/>
<text text-anchor="start" x="207" y="-307.2" font-family="Helvetica,sans-Serif" font-size="11.00">text[2147483647]</text>
<polygon fill="none" stroke="black" points="10,-277 10,-299 204,-299 204,-277 10,-277"/>
<text text-anchor="start" x="30" y="-285.2" font-family="Helvetica,sans-Serif" font-size="11.00">syst_defined</text>
<polygon fill="none" stroke="black" points="204,-277 204,-299 302,-299 302,-277 204,-277"/>
<text text-anchor="start" x="207" y="-285.2" font-family="Helvetica,sans-Serif" font-size="11.00">bool[1]</text>
<polygon fill="none" stroke="black" points="10,-255 10,-277 204,-277 204,-255 10,-255"/>
<text text-anchor="start" x="30" y="-263.2" font-family="Helvetica,sans-Serif" font-size="11.00">user_maintainable</text>
<polygon fill="none" stroke="black" points="204,-255 204,-277 302,-277 302,-255 204,-255"/>
<text text-anchor="start" x="207" y="-263.2" font-family="Helvetica,sans-Serif" font-size="11.00">bool[1]</text>
<polygon fill="none" stroke="black" points="10,-233 10,-255 204,-255 204,-233 10,-233"/>
<text text-anchor="start" x="30" y="-241.2" font-family="Helvetica,sans-Serif" font-size="11.00">default_syst_options</text>
<polygon fill="none" stroke="black" points="204,-233 204,-255 302,-255 302,-233 204,-233"/>
<text text-anchor="start" x="207" y="-241.2" font-family="Helvetica,sans-Serif" font-size="11.00">jsonb[2147483647]</text>
<polygon fill="none" stroke="black" points="10,-211 10,-233 204,-233 204,-211 10,-211"/>
<text text-anchor="start" x="30" y="-219.2" font-family="Helvetica,sans-Serif" font-size="11.00">default_user_options</text>
<polygon fill="none" stroke="black" points="204,-211 204,-233 302,-233 302,-211 204,-211"/>
<text text-anchor="start" x="207" y="-219.2" font-family="Helvetica,sans-Serif" font-size="11.00">jsonb[2147483647]</text>
<polygon fill="none" stroke="black" points="10,-189 10,-211 204,-211 204,-189 10,-189"/>
<text text-anchor="start" x="30" y="-197.2" font-family="Helvetica,sans-Serif" font-size="11.00">diag_timestamp_created</text>
<polygon fill="none" stroke="black" points="204,-189 204,-211 302,-211 302,-189 204,-189"/>
<text text-anchor="start" x="207" y="-197.2" font-family="Helvetica,sans-Serif" font-size="11.00">timestamptz[35,6]</text>
<polygon fill="none" stroke="black" points="10,-167 10,-189 204,-189 204,-167 10,-167"/>
<text text-anchor="start" x="30" y="-175.2" font-family="Helvetica,sans-Serif" font-size="11.00">diag_role_created</text>
<polygon fill="none" stroke="black" points="204,-167 204,-189 302,-189 302,-167 204,-167"/>
<text text-anchor="start" x="207" y="-175.2" font-family="Helvetica,sans-Serif" font-size="11.00">text[2147483647]</text>
<polygon fill="none" stroke="black" points="10,-145 10,-167 204,-167 204,-145 10,-145"/>
<text text-anchor="start" x="30" y="-153.2" font-family="Helvetica,sans-Serif" font-size="11.00">diag_timestamp_modified</text>
<polygon fill="none" stroke="black" points="204,-145 204,-167 302,-167 302,-145 204,-145"/>
<text text-anchor="start" x="207" y="-153.2" font-family="Helvetica,sans-Serif" font-size="11.00">timestamptz[35,6]</text>
<polygon fill="none" stroke="black" points="10,-123 10,-145 204,-145 204,-123 10,-123"/>
<text text-anchor="start" x="30" y="-131.2" font-family="Helvetica,sans-Serif" font-size="11.00">diag_wallclock_modified</text>
<polygon fill="none" stroke="black" points="204,-123 204,-145 302,-145 302,-123 204,-123"/>
<text text-anchor="start" x="207" y="-131.2" font-family="Helvetica,sans-Serif" font-size="11.00">timestamptz[35,6]</text>
<polygon fill="none" stroke="black" points="10,-101 10,-123 204,-123 204,-101 10,-101"/>
<text text-anchor="start" x="30" y="-109.2" font-family="Helvetica,sans-Serif" font-size="11.00">diag_role_modified</text>
<polygon fill="none" stroke="black" points="204,-101 204,-123 302,-123 302,-101 204,-101"/>
<text text-anchor="start" x="207" y="-109.2" font-family="Helvetica,sans-Serif" font-size="11.00">text[2147483647]</text>
<polygon fill="none" stroke="black" points="10,-79 10,-101 204,-101 204,-79 10,-79"/>
<text text-anchor="start" x="30" y="-87.2" font-family="Helvetica,sans-Serif" font-size="11.00">diag_row_version</text>
<polygon fill="none" stroke="black" points="204,-79 204,-101 302,-101 302,-79 204,-79"/>
<text text-anchor="start" x="207" y="-87.2" font-family="Helvetica,sans-Serif" font-size="11.00">int8[19]</text>
<polygon fill="none" stroke="black" points="10,-57 10,-79 204,-79 204,-57 10,-57"/>
<text text-anchor="start" x="30" y="-65.2" font-family="Helvetica,sans-Serif" font-size="11.00">diag_update_count</text>
<polygon fill="none" stroke="black" points="204,-57 204,-79 302,-79 302,-57 204,-57"/>
<text text-anchor="start" x="207" y="-65.2" font-family="Helvetica,sans-Serif" font-size="11.00">int8[19]</text>
<polygon fill="#ffffff" stroke="transparent" points="10,-39 10,-57 111,-57 111,-39 10,-39"/>
<polygon fill="none" stroke="black" points="10,-39 10,-57 111,-57 111,-39 10,-39"/>
<text text-anchor="start" x="13" y="-45.2" font-family="Helvetica,sans-Serif" font-size="11.00">&lt; 0</text>
<polygon fill="#ffffff" stroke="transparent" points="111,-39 111,-57 204,-57 204,-39 111,-39"/>
<polygon fill="none" stroke="black" points="111,-39 111,-57 204,-57 204,-39 111,-39"/>
<text text-anchor="start" x="194" y="-45.2" font-family="Helvetica,sans-Serif" font-size="11.00"> &#160;</text>
<polygon fill="#ffffff" stroke="transparent" points="204,-39 204,-57 302,-57 302,-39 204,-39"/>
<polygon fill="none" stroke="black" points="204,-39 204,-57 302,-57 302,-39 204,-39"/>
<text text-anchor="start" x="283" y="-45.2" font-family="Helvetica,sans-Serif" font-size="11.00">2 &gt;</text>
<polygon fill="none" stroke="black" stroke-width="2" points="9,-38 9,-432 303,-432 303,-38 9,-38"/>
</a>
</g>
</g>
<!-- syst_enum_functional_types&#45;&gt;syst_enums -->
<g id="edge1" class="edge">
<title>syst_enum_functional_types:w&#45;&gt;syst_enums:e</title>
<path fill="none" stroke="black" d="M338.74,-340.87C322.8,-355.48 332.2,-398 303,-398"/>
<polygon fill="black" stroke="black" points="344.96,-338.67 353.7,-339.39 348.73,-337.33 352.5,-336 352.5,-336 352.5,-336 348.73,-337.33 351.3,-332.61 344.96,-338.67 344.96,-338.67"/>
<ellipse fill="none" stroke="black" cx="341.94" cy="-339.73" rx="3.2" ry="3.2"/>
</g>
<!-- syst_enum_items -->
<g id="node3" class="node">
<title>syst_enum_items</title>
<g id="a_node3"><a xlink:href="../../tables/syst_enum_items.html" xlink:title="syst_enum_items" target="_top">
<polygon fill="#ffffff" stroke="transparent" points="631,-372 631,-540 825,-540 825,-372 631,-372"/>
<polygon fill="#f5f5f5" stroke="transparent" points="631,-518 631,-540 825,-540 825,-518 631,-518"/>
<polygon fill="none" stroke="black" points="631,-518 631,-540 825,-540 825,-518 631,-518"/>
<text text-anchor="start" x="636" y="-527.2" font-family="Helvetica,sans-Serif" font-weight="bold" font-size="11.00">syst_enum_items</text>
<text text-anchor="start" x="790" y="-526.2" font-family="Helvetica,sans-Serif" font-size="11.00">[table]</text>
<polygon fill="none" stroke="black" points="631,-496 631,-518 825,-518 825,-496 631,-496"/>
<image xlink:href="../../images/primaryKeys.png" width="11px" height="12px" preserveAspectRatio="xMinYMin meet" x="636" y="-513"/>
<text text-anchor="start" x="651" y="-504.2" font-family="Helvetica,sans-Serif" font-size="11.00">id</text>
<polygon fill="#ffffff" stroke="transparent" points="631,-474 631,-496 825,-496 825,-474 631,-474"/>
<polygon fill="none" stroke="black" points="631,-474 631,-496 825,-496 825,-474 631,-474"/>
<text text-anchor="start" x="651" y="-482.2" font-family="Helvetica,sans-Serif" font-size="11.00">internal_name</text>
<polygon fill="#ffffff" stroke="transparent" points="631,-452 631,-474 825,-474 825,-452 631,-452"/>
<polygon fill="none" stroke="black" points="631,-452 631,-474 825,-474 825,-452 631,-452"/>
<text text-anchor="start" x="651" y="-460.2" font-family="Helvetica,sans-Serif" font-size="11.00">display_name</text>
<polygon fill="none" stroke="black" points="631,-430 631,-452 825,-452 825,-430 631,-430"/>
<image xlink:href="../../images/foreignKeys.png" width="11px" height="12px" preserveAspectRatio="xMinYMin meet" x="636" y="-447"/>
<text text-anchor="start" x="651" y="-438.2" font-family="Helvetica,sans-Serif" font-size="11.00">enum_id</text>
<polygon fill="none" stroke="black" points="631,-408 631,-430 825,-430 825,-408 631,-408"/>
<image xlink:href="../../images/foreignKeys.png" width="11px" height="12px" preserveAspectRatio="xMinYMin meet" x="636" y="-425"/>
<text text-anchor="start" x="651" y="-416.2" font-family="Helvetica,sans-Serif" font-size="11.00">functional_type_id</text>
<polygon fill="none" stroke="black" points="631,-390 631,-408 825,-408 825,-390 631,-390"/>
<text text-anchor="start" x="634" y="-396.2" font-family="Helvetica,sans-Serif" font-size="11.00">...</text>
<polygon fill="#ffffff" stroke="transparent" points="631,-372 631,-390 721,-390 721,-372 631,-372"/>
<polygon fill="none" stroke="black" points="631,-372 631,-390 721,-390 721,-372 631,-372"/>
<text text-anchor="start" x="634" y="-378.2" font-family="Helvetica,sans-Serif" font-size="11.00">&lt; 2</text>
<polygon fill="#ffffff" stroke="transparent" points="721,-372 721,-390 768,-390 768,-372 721,-372"/>
<polygon fill="none" stroke="black" points="721,-372 721,-390 768,-390 768,-372 721,-372"/>
<text text-anchor="start" x="758" y="-378.2" font-family="Helvetica,sans-Serif" font-size="11.00"> &#160;</text>
<polygon fill="#ffffff" stroke="transparent" points="768,-372 768,-390 825,-390 825,-372 768,-372"/>
<polygon fill="none" stroke="black" points="768,-372 768,-390 825,-390 825,-372 768,-372"/>
<text text-anchor="start" x="806" y="-378.2" font-family="Helvetica,sans-Serif" font-size="11.00">7 &gt;</text>
</a>
</g>
</g>
<!-- syst_enum_items&#45;&gt;syst_enum_functional_types -->
<g id="edge3" class="edge">
<title>syst_enum_items:w&#45;&gt;syst_enum_functional_types:e</title>
<path fill="none" stroke="black" d="M615.86,-416.04C605.3,-411.17 599.66,-402 583.5,-402"/>
<polygon fill="black" stroke="black" points="622.17,-417.36 629.26,-422.52 626.08,-418.18 630,-419 630,-419 630,-419 626.08,-418.18 630.74,-415.48 622.17,-417.36 622.17,-417.36"/>
<ellipse fill="none" stroke="black" cx="619.04" cy="-416.7" rx="3.2" ry="3.2"/>
</g>
<!-- syst_enum_items&#45;&gt;syst_enums -->
<g id="edge2" class="edge">
<title>syst_enum_items:w&#45;&gt;syst_enums:e</title>
<path fill="none" stroke="black" d="M615.55,-442.06C607.72,-443.3 601.87,-445.26 590,-446 481.32,-452.77 444.16,-490.99 345,-446 319.19,-434.29 331.35,-398 303,-398"/>
<polygon fill="black" stroke="black" points="622.02,-441.59 630.26,-444.59 626.01,-441.29 630,-441 630,-441 630,-441 626.01,-441.29 629.74,-437.41 622.02,-441.59 622.02,-441.59"/>
<ellipse fill="none" stroke="black" cx="618.83" cy="-441.82" rx="3.2" ry="3.2"/>
</g>
</g>
</svg>
