<?xml version="1.0" encoding="UTF-8" standalone="no"?>
<!DOCTYPE svg PUBLIC "-//W3C//DTD SVG 1.1//EN"
 "http://www.w3.org/Graphics/SVG/1.1/DTD/svg11.dtd">
<!-- Generated by graphviz version 2.43.0 (0)
 -->
<!-- Title: oneDegreeRelationshipsDiagram Pages: 1 -->
<svg width="1044pt" height="657pt"
 viewBox="0.00 0.00 1044.00 657.00" xmlns="http://www.w3.org/2000/svg" xmlns:xlink="http://www.w3.org/1999/xlink">
<g id="graph0" class="graph" transform="scale(1 1) rotate(0) translate(4 653)">
<title>oneDegreeRelationshipsDiagram</title>
<polygon fill="#ffffff" stroke="transparent" points="-4,4 -4,-653 1040,-653 1040,4 -4,4"/>
<text text-anchor="middle" x="71.5" y="-7.2" font-family="Helvetica,sans-Serif" font-size="11.00">Generated by SchemaSpy</text>
<!-- syst_access_accounts -->
<g id="node1" class="node">
<title>syst_access_accounts</title>
<g id="a_node1"><a xlink:href="../../tables/syst_access_accounts.html" xlink:title="syst_access_accounts" target="_top">
<polygon fill="#ffffff" stroke="transparent" points="251,-499 251,-645 445,-645 445,-499 251,-499"/>
<polygon fill="#f5f5f5" stroke="transparent" points="251,-623 251,-645 445,-645 445,-623 251,-623"/>
<polygon fill="none" stroke="black" points="251,-623 251,-645 445,-645 445,-623 251,-623"/>
<text text-anchor="start" x="256" y="-632.2" font-family="Helvetica,sans-Serif" font-weight="bold" font-size="11.00">syst_access_accounts</text>
<text text-anchor="start" x="410" y="-631.2" font-family="Helvetica,sans-Serif" font-size="11.00">[table]</text>
<polygon fill="none" stroke="black" points="251,-601 251,-623 445,-623 445,-601 251,-601"/>
<image xlink:href="../../images/primaryKeys.png" width="11px" height="12px" preserveAspectRatio="xMinYMin meet" x="256" y="-618"/>
<text text-anchor="start" x="271" y="-609.2" font-family="Helvetica,sans-Serif" font-size="11.00">id</text>
<polygon fill="#ffffff" stroke="transparent" points="251,-579 251,-601 445,-601 445,-579 251,-579"/>
<polygon fill="none" stroke="black" points="251,-579 251,-601 445,-601 445,-579 251,-579"/>
<text text-anchor="start" x="271" y="-587.2" font-family="Helvetica,sans-Serif" font-size="11.00">internal_name</text>
<polygon fill="none" stroke="black" points="251,-557 251,-579 445,-579 445,-557 251,-557"/>
<image xlink:href="../../images/foreignKeys.png" width="11px" height="12px" preserveAspectRatio="xMinYMin meet" x="256" y="-574"/>
<text text-anchor="start" x="271" y="-565.2" font-family="Helvetica,sans-Serif" font-size="11.00">owning_owner_id</text>
<polygon fill="none" stroke="black" points="251,-535 251,-557 445,-557 445,-535 251,-535"/>
<image xlink:href="../../images/foreignKeys.png" width="11px" height="12px" preserveAspectRatio="xMinYMin meet" x="256" y="-552"/>
<text text-anchor="start" x="271" y="-543.2" font-family="Helvetica,sans-Serif" font-size="11.00">access_account_state_id</text>
<polygon fill="none" stroke="black" points="251,-517 251,-535 445,-535 445,-517 251,-517"/>
<text text-anchor="start" x="254" y="-523.2" font-family="Helvetica,sans-Serif" font-size="11.00">...</text>
<polygon fill="#ffffff" stroke="transparent" points="251,-499 251,-517 341,-517 341,-499 251,-499"/>
<polygon fill="none" stroke="black" points="251,-499 251,-517 341,-517 341,-499 251,-499"/>
<text text-anchor="start" x="254" y="-505.2" font-family="Helvetica,sans-Serif" font-size="11.00">&lt; 2</text>
<polygon fill="#ffffff" stroke="transparent" points="341,-499 341,-517 388,-517 388,-499 341,-499"/>
<polygon fill="none" stroke="black" points="341,-499 341,-517 388,-517 388,-499 341,-499"/>
<text text-anchor="start" x="378" y="-505.2" font-family="Helvetica,sans-Serif" font-size="11.00"> &#160;</text>
<polygon fill="#ffffff" stroke="transparent" points="388,-499 388,-517 445,-517 445,-499 388,-499"/>
<polygon fill="none" stroke="black" points="388,-499 388,-517 445,-517 445,-499 388,-499"/>
<text text-anchor="start" x="426" y="-505.2" font-family="Helvetica,sans-Serif" font-size="11.00">4 &gt;</text>
</a>
</g>
</g>
<!-- syst_enum_items -->
<g id="node2" class="node">
<title>syst_enum_items</title>
<g id="a_node2"><a xlink:href="../../tables/syst_enum_items.html" xlink:title="syst_enum_items" target="_top">
<polygon fill="#ffffff" stroke="transparent" points="8,-340 8,-508 202,-508 202,-340 8,-340"/>
<polygon fill="#f5f5f5" stroke="transparent" points="8,-486 8,-508 202,-508 202,-486 8,-486"/>
<polygon fill="none" stroke="black" points="8,-486 8,-508 202,-508 202,-486 8,-486"/>
<text text-anchor="start" x="13" y="-495.2" font-family="Helvetica,sans-Serif" font-weight="bold" font-size="11.00">syst_enum_items</text>
<text text-anchor="start" x="167" y="-494.2" font-family="Helvetica,sans-Serif" font-size="11.00">[table]</text>
<polygon fill="none" stroke="black" points="8,-464 8,-486 202,-486 202,-464 8,-464"/>
<image xlink:href="../../images/primaryKeys.png" width="11px" height="12px" preserveAspectRatio="xMinYMin meet" x="13" y="-481"/>
<text text-anchor="start" x="28" y="-472.2" font-family="Helvetica,sans-Serif" font-size="11.00">id</text>
<polygon fill="#ffffff" stroke="transparent" points="8,-442 8,-464 202,-464 202,-442 8,-442"/>
<polygon fill="none" stroke="black" points="8,-442 8,-464 202,-464 202,-442 8,-442"/>
<text text-anchor="start" x="28" y="-450.2" font-family="Helvetica,sans-Serif" font-size="11.00">internal_name</text>
<polygon fill="#ffffff" stroke="transparent" points="8,-420 8,-442 202,-442 202,-420 8,-420"/>
<polygon fill="none" stroke="black" points="8,-420 8,-442 202,-442 202,-420 8,-420"/>
<text text-anchor="start" x="28" y="-428.2" font-family="Helvetica,sans-Serif" font-size="11.00">display_name</text>
<polygon fill="none" stroke="black" points="8,-398 8,-420 202,-420 202,-398 8,-398"/>
<image xlink:href="../../images/foreignKeys.png" width="11px" height="12px" preserveAspectRatio="xMinYMin meet" x="13" y="-415"/>
<text text-anchor="start" x="28" y="-406.2" font-family="Helvetica,sans-Serif" font-size="11.00">enum_id</text>
<polygon fill="none" stroke="black" points="8,-376 8,-398 202,-398 202,-376 8,-376"/>
<image xlink:href="../../images/foreignKeys.png" width="11px" height="12px" preserveAspectRatio="xMinYMin meet" x="13" y="-393"/>
<text text-anchor="start" x="28" y="-384.2" font-family="Helvetica,sans-Serif" font-size="11.00">functional_type_id</text>
<polygon fill="none" stroke="black" points="8,-358 8,-376 202,-376 202,-358 8,-358"/>
<text text-anchor="start" x="11" y="-364.2" font-family="Helvetica,sans-Serif" font-size="11.00">...</text>
<polygon fill="#ffffff" stroke="transparent" points="8,-340 8,-358 98,-358 98,-340 8,-340"/>
<polygon fill="none" stroke="black" points="8,-340 8,-358 98,-358 98,-340 8,-340"/>
<text text-anchor="start" x="11" y="-346.2" font-family="Helvetica,sans-Serif" font-size="11.00">&lt; 2</text>
<polygon fill="#ffffff" stroke="transparent" points="98,-340 98,-358 145,-358 145,-340 98,-340"/>
<polygon fill="none" stroke="black" points="98,-340 98,-358 145,-358 145,-340 98,-340"/>
<text text-anchor="start" x="135" y="-346.2" font-family="Helvetica,sans-Serif" font-size="11.00"> &#160;</text>
<polygon fill="#ffffff" stroke="transparent" points="145,-340 145,-358 202,-358 202,-340 145,-340"/>
<polygon fill="none" stroke="black" points="145,-340 145,-358 202,-358 202,-340 145,-340"/>
<text text-anchor="start" x="183" y="-346.2" font-family="Helvetica,sans-Serif" font-size="11.00">7 &gt;</text>
</a>
</g>
</g>
<!-- syst_access_accounts&#45;&gt;syst_enum_items -->
<g id="edge1" class="edge">
<title>syst_access_accounts:w&#45;&gt;syst_enum_items:e</title>
<path fill="none" stroke="black" d="M236.16,-540.89C219.78,-524.61 234.63,-475 203,-475"/>
<polygon fill="black" stroke="black" points="242.49,-543.23 248.75,-549.38 246.25,-544.62 250,-546 250,-546 250,-546 246.25,-544.62 251.25,-542.62 242.49,-543.23 242.49,-543.23"/>
<ellipse fill="none" stroke="black" cx="239.49" cy="-542.12" rx="3.2" ry="3.2"/>
</g>
<!-- syst_credentials -->
<g id="node3" class="node">
<title>syst_credentials</title>
<g id="a_node3"><a xlink:href="../../tables/syst_credentials.html" xlink:title="syst_credentials" target="_top">
<polygon fill="#ffffff" stroke="transparent" points="834,-406 834,-552 1028,-552 1028,-406 834,-406"/>
<polygon fill="#f5f5f5" stroke="transparent" points="834,-530 834,-552 1028,-552 1028,-530 834,-530"/>
<polygon fill="none" stroke="black" points="834,-530 834,-552 1028,-552 1028,-530 834,-530"/>
<text text-anchor="start" x="839" y="-539.2" font-family="Helvetica,sans-Serif" font-weight="bold" font-size="11.00">syst_credentials</text>
<text text-anchor="start" x="993" y="-538.2" font-family="Helvetica,sans-Serif" font-size="11.00">[table]</text>
<polygon fill="none" stroke="black" points="834,-508 834,-530 1028,-530 1028,-508 834,-508"/>
<image xlink:href="../../images/primaryKeys.png" width="11px" height="12px" preserveAspectRatio="xMinYMin meet" x="839" y="-525"/>
<text text-anchor="start" x="854" y="-516.2" font-family="Helvetica,sans-Serif" font-size="11.00">id</text>
<polygon fill="#ffffff" stroke="transparent" points="834,-486 834,-508 1028,-508 1028,-486 834,-486"/>
<polygon fill="none" stroke="black" points="834,-486 834,-508 1028,-508 1028,-486 834,-486"/>
<image xlink:href="../../images/foreignKeys.png" width="11px" height="12px" preserveAspectRatio="xMinYMin meet" x="839" y="-503"/>
<text text-anchor="start" x="854" y="-494.2" font-family="Helvetica,sans-Serif" font-size="11.00">access_account_id</text>
<polygon fill="#ffffff" stroke="transparent" points="834,-464 834,-486 1028,-486 1028,-464 834,-464"/>
<polygon fill="none" stroke="black" points="834,-464 834,-486 1028,-486 1028,-464 834,-464"/>
<image xlink:href="../../images/foreignKeys.png" width="11px" height="12px" preserveAspectRatio="xMinYMin meet" x="839" y="-481"/>
<text text-anchor="start" x="854" y="-472.2" font-family="Helvetica,sans-Serif" font-size="11.00">credential_type_id</text>
<polygon fill="#ffffff" stroke="transparent" points="834,-442 834,-464 1028,-464 1028,-442 834,-442"/>
<polygon fill="none" stroke="black" points="834,-442 834,-464 1028,-464 1028,-442 834,-442"/>
<image xlink:href="../../images/foreignKeys.png" width="11px" height="12px" preserveAspectRatio="xMinYMin meet" x="839" y="-459"/>
<text text-anchor="start" x="854" y="-450.2" font-family="Helvetica,sans-Serif" font-size="11.00">credential_for_identity_id</text>
<polygon fill="none" stroke="black" points="834,-424 834,-442 1028,-442 1028,-424 834,-424"/>
<text text-anchor="start" x="837" y="-430.2" font-family="Helvetica,sans-Serif" font-size="11.00">...</text>
<polygon fill="#ffffff" stroke="transparent" points="834,-406 834,-424 929,-424 929,-406 834,-406"/>
<polygon fill="none" stroke="black" points="834,-406 834,-424 929,-424 929,-406 834,-406"/>
<text text-anchor="start" x="837" y="-412.2" font-family="Helvetica,sans-Serif" font-size="11.00">&lt; 3</text>
<polygon fill="#ffffff" stroke="transparent" points="929,-406 929,-424 978,-424 978,-406 929,-406"/>
<polygon fill="none" stroke="black" points="929,-406 929,-424 978,-424 978,-406 929,-406"/>
<text text-anchor="start" x="968" y="-412.2" font-family="Helvetica,sans-Serif" font-size="11.00"> &#160;</text>
<polygon fill="#ffffff" stroke="transparent" points="978,-406 978,-424 1028,-424 1028,-406 978,-406"/>
<polygon fill="none" stroke="black" points="978,-406 978,-424 1028,-424 1028,-406 978,-406"/>
<text text-anchor="start" x="1018" y="-412.2" font-family="Helvetica,sans-Serif" font-size="11.00"> &#160;</text>
</a>
</g>
</g>
<!-- syst_credentials&#45;&gt;syst_access_accounts -->
<g id="edge2" class="edge">
<title>syst_credentials:w&#45;&gt;syst_access_accounts:e</title>
<path fill="none" stroke="black" d="M818.36,-497.26C651.88,-503.31 620.44,-612 446,-612"/>
<polygon fill="black" stroke="black" points="825,-497.14 833.06,-500.6 829,-497.07 833,-497 833,-497 833,-497 829,-497.07 832.94,-493.4 825,-497.14 825,-497.14"/>
<ellipse fill="none" stroke="black" cx="821.8" cy="-497.2" rx="3.2" ry="3.2"/>
</g>
<!-- syst_credentials&#45;&gt;syst_enum_items -->
<g id="edge4" class="edge">
<title>syst_credentials:w&#45;&gt;syst_enum_items:e</title>
<path fill="none" stroke="black" d="M818.43,-475C550.47,-475 478.08,-475 203,-475"/>
<polygon fill="black" stroke="black" points="825,-475 833,-478.6 829,-475 833,-475 833,-475 833,-475 829,-475 833,-471.4 825,-475 825,-475"/>
<ellipse fill="none" stroke="black" cx="821.8" cy="-475" rx="3.2" ry="3.2"/>
</g>
<!-- syst_identities -->
<g id="node4" class="node">
<title>syst_identities</title>
<g id="a_node4"><a xlink:href="../../tables/syst_identities.html" xlink:title="syst_identities" target="_top">
<polygon fill="#ffffff" stroke="transparent" points="494,-37 494,-433 785,-433 785,-37 494,-37"/>
<polygon fill="#f5f5f5" stroke="transparent" points="496.5,-409 496.5,-431 783.5,-431 783.5,-409 496.5,-409"/>
<polygon fill="none" stroke="black" points="496.5,-409 496.5,-431 783.5,-431 783.5,-409 496.5,-409"/>
<text text-anchor="start" x="501.5" y="-418.2" font-family="Helvetica,sans-Serif" font-weight="bold" font-size="11.00">syst_identities</text>
<text text-anchor="start" x="748.5" y="-417.2" font-family="Helvetica,sans-Serif" font-size="11.00">[table]</text>
<polygon fill="none" stroke="black" points="496.5,-387 496.5,-409 690.5,-409 690.5,-387 496.5,-387"/>
<image xlink:href="../../images/primaryKeys.png" width="11px" height="12px" preserveAspectRatio="xMinYMin meet" x="501.5" y="-404"/>
<text text-anchor="start" x="516.5" y="-395.2" font-family="Helvetica,sans-Serif" font-size="11.00">id</text>
<polygon fill="none" stroke="black" points="690.5,-387 690.5,-409 783.5,-409 783.5,-387 690.5,-387"/>
<text text-anchor="start" x="693.5" y="-395.2" font-family="Helvetica,sans-Serif" font-size="11.00">uuid[2147483647]</text>
<polygon fill="#ffffff" stroke="transparent" points="496.5,-365 496.5,-387 690.5,-387 690.5,-365 496.5,-365"/>
<polygon fill="none" stroke="black" points="496.5,-365 496.5,-387 690.5,-387 690.5,-365 496.5,-365"/>
<image xlink:href="../../images/foreignKeys.png" width="11px" height="12px" preserveAspectRatio="xMinYMin meet" x="501.5" y="-382"/>
<text text-anchor="start" x="516.5" y="-373.2" font-family="Helvetica,sans-Serif" font-size="11.00">access_account_id</text>
<polygon fill="none" stroke="black" points="690.5,-365 690.5,-387 783.5,-387 783.5,-365 690.5,-365"/>
<text text-anchor="start" x="693.5" y="-373.2" font-family="Helvetica,sans-Serif" font-size="11.00">uuid[2147483647]</text>
<polygon fill="#ffffff" stroke="transparent" points="496.5,-343 496.5,-365 690.5,-365 690.5,-343 496.5,-343"/>
<polygon fill="none" stroke="black" points="496.5,-343 496.5,-365 690.5,-365 690.5,-343 496.5,-343"/>
<image xlink:href="../../images/foreignKeys.png" width="11px" height="12px" preserveAspectRatio="xMinYMin meet" x="501.5" y="-360"/>
<text text-anchor="start" x="516.5" y="-351.2" font-family="Helvetica,sans-Serif" font-size="11.00">identity_type_id</text>
<polygon fill="none" stroke="black" points="690.5,-343 690.5,-365 783.5,-365 783.5,-343 690.5,-343"/>
<text text-anchor="start" x="693.5" y="-351.2" font-family="Helvetica,sans-Serif" font-size="11.00">uuid[2147483647]</text>
<polygon fill="#ffffff" stroke="transparent" points="496.5,-321 496.5,-343 690.5,-343 690.5,-321 496.5,-321"/>
<polygon fill="none" stroke="black" points="496.5,-321 496.5,-343 690.5,-343 690.5,-321 496.5,-321"/>
<text text-anchor="start" x="516.5" y="-329.2" font-family="Helvetica,sans-Serif" font-size="11.00">account_identifier</text>
<polygon fill="none" stroke="black" points="690.5,-321 690.5,-343 783.5,-343 783.5,-321 690.5,-321"/>
<text text-anchor="start" x="693.5" y="-329.2" font-family="Helvetica,sans-Serif" font-size="11.00">text[2147483647]</text>
<polygon fill="none" stroke="black" points="496.5,-299 496.5,-321 690.5,-321 690.5,-299 496.5,-299"/>
<text text-anchor="start" x="516.5" y="-307.2" font-family="Helvetica,sans-Serif" font-size="11.00">validated</text>
<polygon fill="none" stroke="black" points="690.5,-299 690.5,-321 783.5,-321 783.5,-299 690.5,-299"/>
<text text-anchor="start" x="693.5" y="-307.2" font-family="Helvetica,sans-Serif" font-size="11.00">timestamptz[35,6]</text>
<polygon fill="#ffffff" stroke="transparent" points="496.5,-277 496.5,-299 690.5,-299 690.5,-277 496.5,-277"/>
<polygon fill="none" stroke="black" points="496.5,-277 496.5,-299 690.5,-299 690.5,-277 496.5,-277"/>
<image xlink:href="../../images/foreignKeys.png" width="11px" height="12px" preserveAspectRatio="xMinYMin meet" x="501.5" y="-294"/>
<text text-anchor="start" x="516.5" y="-285.2" font-family="Helvetica,sans-Serif" font-size="11.00">validates_identity_id</text>
<polygon fill="none" stroke="black" points="690.5,-277 690.5,-299 783.5,-299 783.5,-277 690.5,-277"/>
<text text-anchor="start" x="693.5" y="-285.2" font-family="Helvetica,sans-Serif" font-size="11.00">uuid[2147483647]</text>
<polygon fill="none" stroke="black" points="496.5,-255 496.5,-277 690.5,-277 690.5,-255 496.5,-255"/>
<text text-anchor="start" x="516.5" y="-263.2" font-family="Helvetica,sans-Serif" font-size="11.00">validation_requested</text>
<polygon fill="none" stroke="black" points="690.5,-255 690.5,-277 783.5,-277 783.5,-255 690.5,-255"/>
<text text-anchor="start" x="693.5" y="-263.2" font-family="Helvetica,sans-Serif" font-size="11.00">timestamptz[35,6]</text>
<polygon fill="none" stroke="black" points="496.5,-233 496.5,-255 690.5,-255 690.5,-233 496.5,-233"/>
<text text-anchor="start" x="516.5" y="-241.2" font-family="Helvetica,sans-Serif" font-size="11.00">identity_expires</text>
<polygon fill="none" stroke="black" points="690.5,-233 690.5,-255 783.5,-255 783.5,-233 690.5,-233"/>
<text text-anchor="start" x="693.5" y="-241.2" font-family="Helvetica,sans-Serif" font-size="11.00">timestamptz[35,6]</text>
<polygon fill="none" stroke="black" points="496.5,-211 496.5,-233 690.5,-233 690.5,-211 496.5,-211"/>
<text text-anchor="start" x="516.5" y="-219.2" font-family="Helvetica,sans-Serif" font-size="11.00">external_name</text>
<polygon fill="none" stroke="black" points="690.5,-211 690.5,-233 783.5,-233 783.5,-211 690.5,-211"/>
<text text-anchor="start" x="693.5" y="-219.2" font-family="Helvetica,sans-Serif" font-size="11.00">text[2147483647]</text>
<polygon fill="none" stroke="black" points="496.5,-189 496.5,-211 690.5,-211 690.5,-189 496.5,-189"/>
<text text-anchor="start" x="516.5" y="-197.2" font-family="Helvetica,sans-Serif" font-size="11.00">diag_timestamp_created</text>
<polygon fill="none" stroke="black" points="690.5,-189 690.5,-211 783.5,-211 783.5,-189 690.5,-189"/>
<text text-anchor="start" x="693.5" y="-197.2" font-family="Helvetica,sans-Serif" font-size="11.00">timestamptz[35,6]</text>
<polygon fill="none" stroke="black" points="496.5,-167 496.5,-189 690.5,-189 690.5,-167 496.5,-167"/>
<text text-anchor="start" x="516.5" y="-175.2" font-family="Helvetica,sans-Serif" font-size="11.00">diag_role_created</text>
<polygon fill="none" stroke="black" points="690.5,-167 690.5,-189 783.5,-189 783.5,-167 690.5,-167"/>
<text text-anchor="start" x="693.5" y="-175.2" font-family="Helvetica,sans-Serif" font-size="11.00">text[2147483647]</text>
<polygon fill="none" stroke="black" points="496.5,-145 496.5,-167 690.5,-167 690.5,-145 496.5,-145"/>
<text text-anchor="start" x="516.5" y="-153.2" font-family="Helvetica,sans-Serif" font-size="11.00">diag_timestamp_modified</text>
<polygon fill="none" stroke="black" points="690.5,-145 690.5,-167 783.5,-167 783.5,-145 690.5,-145"/>
<text text-anchor="start" x="693.5" y="-153.2" font-family="Helvetica,sans-Serif" font-size="11.00">timestamptz[35,6]</text>
<polygon fill="none" stroke="black" points="496.5,-123 496.5,-145 690.5,-145 690.5,-123 496.5,-123"/>
<text text-anchor="start" x="516.5" y="-131.2" font-family="Helvetica,sans-Serif" font-size="11.00">diag_wallclock_modified</text>
<polygon fill="none" stroke="black" points="690.5,-123 690.5,-145 783.5,-145 783.5,-123 690.5,-123"/>
<text text-anchor="start" x="693.5" y="-131.2" font-family="Helvetica,sans-Serif" font-size="11.00">timestamptz[35,6]</text>
<polygon fill="none" stroke="black" points="496.5,-101 496.5,-123 690.5,-123 690.5,-101 496.5,-101"/>
<text text-anchor="start" x="516.5" y="-109.2" font-family="Helvetica,sans-Serif" font-size="11.00">diag_role_modified</text>
<polygon fill="none" stroke="black" points="690.5,-101 690.5,-123 783.5,-123 783.5,-101 690.5,-101"/>
<text text-anchor="start" x="693.5" y="-109.2" font-family="Helvetica,sans-Serif" font-size="11.00">text[2147483647]</text>
<polygon fill="none" stroke="black" points="496.5,-79 496.5,-101 690.5,-101 690.5,-79 496.5,-79"/>
<text text-anchor="start" x="516.5" y="-87.2" font-family="Helvetica,sans-Serif" font-size="11.00">diag_row_version</text>
<polygon fill="none" stroke="black" points="690.5,-79 690.5,-101 783.5,-101 783.5,-79 690.5,-79"/>
<text text-anchor="start" x="693.5" y="-87.2" font-family="Helvetica,sans-Serif" font-size="11.00">int8[19]</text>
<polygon fill="none" stroke="black" points="496.5,-57 496.5,-79 690.5,-79 690.5,-57 496.5,-57"/>
<text text-anchor="start" x="516.5" y="-65.2" font-family="Helvetica,sans-Serif" font-size="11.00">diag_update_count</text>
<polygon fill="none" stroke="black" points="690.5,-57 690.5,-79 783.5,-79 783.5,-57 690.5,-57"/>
<text text-anchor="start" x="693.5" y="-65.2" font-family="Helvetica,sans-Serif" font-size="11.00">int8[19]</text>
<polygon fill="#ffffff" stroke="transparent" points="496.5,-39 496.5,-57 597.5,-57 597.5,-39 496.5,-39"/>
<polygon fill="none" stroke="black" points="496.5,-39 496.5,-57 597.5,-57 597.5,-39 496.5,-39"/>
<text text-anchor="start" x="499.5" y="-45.2" font-family="Helvetica,sans-Serif" font-size="11.00">&lt; 3</text>
<polygon fill="#ffffff" stroke="transparent" points="597.5,-39 597.5,-57 690.5,-57 690.5,-39 597.5,-39"/>
<polygon fill="none" stroke="black" points="597.5,-39 597.5,-57 690.5,-57 690.5,-39 597.5,-39"/>
<text text-anchor="start" x="680.5" y="-45.2" font-family="Helvetica,sans-Serif" font-size="11.00"> &#160;</text>
<polygon fill="#ffffff" stroke="transparent" points="690.5,-39 690.5,-57 783.5,-57 783.5,-39 690.5,-39"/>
<polygon fill="none" stroke="black" points="690.5,-39 690.5,-57 783.5,-57 783.5,-39 690.5,-39"/>
<text text-anchor="start" x="764.5" y="-45.2" font-family="Helvetica,sans-Serif" font-size="11.00">2 &gt;</text>
<polygon fill="none" stroke="black" stroke-width="2" points="495,-38 495,-432 784,-432 784,-38 495,-38"/>
</a>
</g>
</g>
<!-- syst_credentials&#45;&gt;syst_identities -->
<g id="edge3" class="edge">
<title>syst_credentials:w&#45;&gt;syst_identities:e</title>
<path fill="none" stroke="black" d="M819.21,-447.92C804.93,-434.31 810.98,-398 784.5,-398"/>
<polygon fill="black" stroke="black" points="825.49,-450.24 831.76,-456.38 829.25,-451.62 833,-453 833,-453 833,-453 829.25,-451.62 834.24,-449.62 825.49,-450.24 825.49,-450.24"/>
<ellipse fill="none" stroke="black" cx="822.49" cy="-449.13" rx="3.2" ry="3.2"/>
</g>
<!-- syst_identities&#45;&gt;syst_access_accounts -->
<g id="edge5" class="edge">
<title>syst_identities:w&#45;&gt;syst_access_accounts:e</title>
<path fill="none" stroke="black" d="M481.21,-377.76C404.37,-399.36 547.73,-612 446,-612"/>
<polygon fill="black" stroke="black" points="487.56,-376.98 495.94,-379.57 491.53,-376.49 495.5,-376 495.5,-376 495.5,-376 491.53,-376.49 495.06,-372.43 487.56,-376.98 487.56,-376.98"/>
<ellipse fill="none" stroke="black" cx="484.38" cy="-377.37" rx="3.2" ry="3.2"/>
</g>
<!-- syst_identities&#45;&gt;syst_enum_items -->
<g id="edge6" class="edge">
<title>syst_identities:w&#45;&gt;syst_enum_items:e</title>
<path fill="none" stroke="black" d="M481.38,-356.87C421.12,-375.2 234.94,-475 203,-475"/>
<polygon fill="black" stroke="black" points="487.66,-355.59 496.22,-357.53 491.58,-354.8 495.5,-354 495.5,-354 495.5,-354 491.58,-354.8 494.78,-350.47 487.66,-355.59 487.66,-355.59"/>
<ellipse fill="none" stroke="black" cx="484.52" cy="-356.23" rx="3.2" ry="3.2"/>
</g>
<!-- syst_identities&#45;&gt;syst_identities -->
<g id="edge7" class="edge">
<title>syst_identities:w&#45;&gt;syst_identities:e</title>
<path fill="none" stroke="black" d="M489.13,-295.62C424.27,-365.91 431.59,-450 640,-450 856,-450 856,-441.33 783.5,-398"/>
<polygon fill="black" stroke="black" points="493.07,-285.79 498.82,-291.36 497.71,-292.51 491.96,-286.94 493.07,-285.79"/>
<polyline fill="none" stroke="black" points="496.5,-288 493.72,-290.88 "/>
<ellipse fill="none" stroke="black" cx="491.49" cy="-293.18" rx="3.2" ry="3.2"/>
</g>
</g>
</svg>
