<?xml version="1.0" encoding="UTF-8" standalone="no"?>
<!DOCTYPE svg PUBLIC "-//W3C//DTD SVG 1.1//EN"
 "http://www.w3.org/Graphics/SVG/1.1/DTD/svg11.dtd">
<!-- Generated by graphviz version 2.43.0 (0)
 -->
<!-- Title: twoDegreesRelationshipsDiagram Pages: 1 -->
<svg width="1808pt" height="769pt"
 viewBox="0.00 0.00 1808.00 769.00" xmlns="http://www.w3.org/2000/svg" xmlns:xlink="http://www.w3.org/1999/xlink">
<g id="graph0" class="graph" transform="scale(1 1) rotate(0) translate(4 765)">
<title>twoDegreesRelationshipsDiagram</title>
<polygon fill="#ffffff" stroke="transparent" points="-4,4 -4,-765 1804,-765 1804,4 -4,4"/>
<text text-anchor="middle" x="71.5" y="-7.2" font-family="Helvetica,sans-Serif" font-size="11.00">Generated by SchemaSpy</text>
<!-- syst_access_account_instance_assocs -->
<g id="node1" class="node">
<title>syst_access_account_instance_assocs</title>
<g id="a_node1"><a xlink:href="../../tables/syst_access_account_instance_assocs.html" xlink:title="syst_access_account_instance_assocs" target="_top">
<polygon fill="#ffffff" stroke="transparent" points="1302,-273 1302,-397 1594,-397 1594,-273 1302,-273"/>
<polygon fill="#f5f5f5" stroke="transparent" points="1302,-375 1302,-397 1594,-397 1594,-375 1302,-375"/>
<polygon fill="none" stroke="black" points="1302,-375 1302,-397 1594,-397 1594,-375 1302,-375"/>
<text text-anchor="start" x="1307" y="-384.2" font-family="Helvetica,sans-Serif" font-weight="bold" font-size="11.00">syst_access_account_instance_assocs</text>
<text text-anchor="start" x="1559" y="-383.2" font-family="Helvetica,sans-Serif" font-size="11.00">[table]</text>
<polygon fill="none" stroke="black" points="1302,-353 1302,-375 1594,-375 1594,-353 1302,-353"/>
<image xlink:href="../../images/primaryKeys.png" width="11px" height="12px" preserveAspectRatio="xMinYMin meet" x="1307" y="-370"/>
<text text-anchor="start" x="1332" y="-361.2" font-family="Helvetica,sans-Serif" font-size="11.00">id</text>
<polygon fill="#ffffff" stroke="transparent" points="1302,-331 1302,-353 1594,-353 1594,-331 1302,-331"/>
<polygon fill="none" stroke="black" points="1302,-331 1302,-353 1594,-353 1594,-331 1302,-331"/>
<image xlink:href="../../images/foreignKeys.png" width="11px" height="12px" preserveAspectRatio="xMinYMin meet" x="1307" y="-348"/>
<text text-anchor="start" x="1332" y="-339.2" font-family="Helvetica,sans-Serif" font-size="11.00">access_account_id</text>
<polygon fill="#ffffff" stroke="transparent" points="1302,-309 1302,-331 1594,-331 1594,-309 1302,-309"/>
<polygon fill="none" stroke="black" points="1302,-309 1302,-331 1594,-331 1594,-309 1302,-309"/>
<image xlink:href="../../images/foreignKeys.png" width="11px" height="12px" preserveAspectRatio="xMinYMin meet" x="1307" y="-326"/>
<text text-anchor="start" x="1332" y="-317.2" font-family="Helvetica,sans-Serif" font-size="11.00">instance_id</text>
<polygon fill="none" stroke="black" points="1302,-291 1302,-309 1594,-309 1594,-291 1302,-291"/>
<text text-anchor="start" x="1305" y="-297.2" font-family="Helvetica,sans-Serif" font-size="11.00">...</text>
<polygon fill="#ffffff" stroke="transparent" points="1302,-273 1302,-291 1446,-291 1446,-273 1302,-273"/>
<polygon fill="none" stroke="black" points="1302,-273 1302,-291 1446,-291 1446,-273 1302,-273"/>
<text text-anchor="start" x="1305" y="-279.2" font-family="Helvetica,sans-Serif" font-size="11.00">&lt; 2</text>
<polygon fill="#ffffff" stroke="transparent" points="1446,-273 1446,-291 1520,-291 1520,-273 1446,-273"/>
<polygon fill="none" stroke="black" points="1446,-273 1446,-291 1520,-291 1520,-273 1446,-273"/>
<text text-anchor="start" x="1510" y="-279.2" font-family="Helvetica,sans-Serif" font-size="11.00"> &#160;</text>
<polygon fill="#ffffff" stroke="transparent" points="1520,-273 1520,-291 1594,-291 1594,-273 1520,-273"/>
<polygon fill="none" stroke="black" points="1520,-273 1520,-291 1594,-291 1594,-273 1520,-273"/>
<text text-anchor="start" x="1584" y="-279.2" font-family="Helvetica,sans-Serif" font-size="11.00"> &#160;</text>
</a>
</g>
</g>
<!-- syst_access_accounts -->
<g id="node2" class="node">
<title>syst_access_accounts</title>
<g id="a_node2"><a xlink:href="../../tables/syst_access_accounts.html" xlink:title="syst_access_accounts" target="_top">
<polygon fill="#ffffff" stroke="transparent" points="962,-380 962,-710 1253,-710 1253,-380 962,-380"/>
<polygon fill="#f5f5f5" stroke="transparent" points="964.5,-686 964.5,-708 1251.5,-708 1251.5,-686 964.5,-686"/>
<polygon fill="none" stroke="black" points="964.5,-686 964.5,-708 1251.5,-708 1251.5,-686 964.5,-686"/>
<text text-anchor="start" x="969.5" y="-695.2" font-family="Helvetica,sans-Serif" font-weight="bold" font-size="11.00">syst_access_accounts</text>
<text text-anchor="start" x="1216.5" y="-694.2" font-family="Helvetica,sans-Serif" font-size="11.00">[table]</text>
<polygon fill="none" stroke="black" points="964.5,-664 964.5,-686 1158.5,-686 1158.5,-664 964.5,-664"/>
<image xlink:href="../../images/primaryKeys.png" width="11px" height="12px" preserveAspectRatio="xMinYMin meet" x="969.5" y="-681"/>
<text text-anchor="start" x="984.5" y="-672.2" font-family="Helvetica,sans-Serif" font-size="11.00">id</text>
<polygon fill="none" stroke="black" points="1158.5,-664 1158.5,-686 1251.5,-686 1251.5,-664 1158.5,-664"/>
<text text-anchor="start" x="1161.5" y="-672.2" font-family="Helvetica,sans-Serif" font-size="11.00">uuid[2147483647]</text>
<polygon fill="#ffffff" stroke="transparent" points="964.5,-642 964.5,-664 1158.5,-664 1158.5,-642 964.5,-642"/>
<polygon fill="none" stroke="black" points="964.5,-642 964.5,-664 1158.5,-664 1158.5,-642 964.5,-642"/>
<text text-anchor="start" x="984.5" y="-650.2" font-family="Helvetica,sans-Serif" font-size="11.00">internal_name</text>
<polygon fill="none" stroke="black" points="1158.5,-642 1158.5,-664 1251.5,-664 1251.5,-642 1158.5,-642"/>
<text text-anchor="start" x="1161.5" y="-650.2" font-family="Helvetica,sans-Serif" font-size="11.00">text[2147483647]</text>
<polygon fill="none" stroke="black" points="964.5,-620 964.5,-642 1158.5,-642 1158.5,-620 964.5,-620"/>
<text text-anchor="start" x="984.5" y="-628.2" font-family="Helvetica,sans-Serif" font-size="11.00">external_name</text>
<polygon fill="none" stroke="black" points="1158.5,-620 1158.5,-642 1251.5,-642 1251.5,-620 1158.5,-620"/>
<text text-anchor="start" x="1161.5" y="-628.2" font-family="Helvetica,sans-Serif" font-size="11.00">text[2147483647]</text>
<polygon fill="none" stroke="black" points="964.5,-598 964.5,-620 1158.5,-620 1158.5,-598 964.5,-598"/>
<image xlink:href="../../images/foreignKeys.png" width="11px" height="12px" preserveAspectRatio="xMinYMin meet" x="969.5" y="-615"/>
<text text-anchor="start" x="984.5" y="-606.2" font-family="Helvetica,sans-Serif" font-size="11.00">owning_owner_id</text>
<polygon fill="none" stroke="black" points="1158.5,-598 1158.5,-620 1251.5,-620 1251.5,-598 1158.5,-598"/>
<text text-anchor="start" x="1161.5" y="-606.2" font-family="Helvetica,sans-Serif" font-size="11.00">uuid[2147483647]</text>
<polygon fill="none" stroke="black" points="964.5,-576 964.5,-598 1158.5,-598 1158.5,-576 964.5,-576"/>
<text text-anchor="start" x="984.5" y="-584.2" font-family="Helvetica,sans-Serif" font-size="11.00">allow_global_logins</text>
<polygon fill="none" stroke="black" points="1158.5,-576 1158.5,-598 1251.5,-598 1251.5,-576 1158.5,-576"/>
<text text-anchor="start" x="1161.5" y="-584.2" font-family="Helvetica,sans-Serif" font-size="11.00">bool[1]</text>
<polygon fill="none" stroke="black" points="964.5,-554 964.5,-576 1158.5,-576 1158.5,-554 964.5,-554"/>
<image xlink:href="../../images/foreignKeys.png" width="11px" height="12px" preserveAspectRatio="xMinYMin meet" x="969.5" y="-571"/>
<text text-anchor="start" x="984.5" y="-562.2" font-family="Helvetica,sans-Serif" font-size="11.00">access_account_state_id</text>
<polygon fill="none" stroke="black" points="1158.5,-554 1158.5,-576 1251.5,-576 1251.5,-554 1158.5,-554"/>
<text text-anchor="start" x="1161.5" y="-562.2" font-family="Helvetica,sans-Serif" font-size="11.00">uuid[2147483647]</text>
<polygon fill="none" stroke="black" points="964.5,-532 964.5,-554 1158.5,-554 1158.5,-532 964.5,-532"/>
<text text-anchor="start" x="984.5" y="-540.2" font-family="Helvetica,sans-Serif" font-size="11.00">diag_timestamp_created</text>
<polygon fill="none" stroke="black" points="1158.5,-532 1158.5,-554 1251.5,-554 1251.5,-532 1158.5,-532"/>
<text text-anchor="start" x="1161.5" y="-540.2" font-family="Helvetica,sans-Serif" font-size="11.00">timestamptz[35,6]</text>
<polygon fill="none" stroke="black" points="964.5,-510 964.5,-532 1158.5,-532 1158.5,-510 964.5,-510"/>
<text text-anchor="start" x="984.5" y="-518.2" font-family="Helvetica,sans-Serif" font-size="11.00">diag_role_created</text>
<polygon fill="none" stroke="black" points="1158.5,-510 1158.5,-532 1251.5,-532 1251.5,-510 1158.5,-510"/>
<text text-anchor="start" x="1161.5" y="-518.2" font-family="Helvetica,sans-Serif" font-size="11.00">text[2147483647]</text>
<polygon fill="none" stroke="black" points="964.5,-488 964.5,-510 1158.5,-510 1158.5,-488 964.5,-488"/>
<text text-anchor="start" x="984.5" y="-496.2" font-family="Helvetica,sans-Serif" font-size="11.00">diag_timestamp_modified</text>
<polygon fill="none" stroke="black" points="1158.5,-488 1158.5,-510 1251.5,-510 1251.5,-488 1158.5,-488"/>
<text text-anchor="start" x="1161.5" y="-496.2" font-family="Helvetica,sans-Serif" font-size="11.00">timestamptz[35,6]</text>
<polygon fill="none" stroke="black" points="964.5,-466 964.5,-488 1158.5,-488 1158.5,-466 964.5,-466"/>
<text text-anchor="start" x="984.5" y="-474.2" font-family="Helvetica,sans-Serif" font-size="11.00">diag_wallclock_modified</text>
<polygon fill="none" stroke="black" points="1158.5,-466 1158.5,-488 1251.5,-488 1251.5,-466 1158.5,-466"/>
<text text-anchor="start" x="1161.5" y="-474.2" font-family="Helvetica,sans-Serif" font-size="11.00">timestamptz[35,6]</text>
<polygon fill="none" stroke="black" points="964.5,-444 964.5,-466 1158.5,-466 1158.5,-444 964.5,-444"/>
<text text-anchor="start" x="984.5" y="-452.2" font-family="Helvetica,sans-Serif" font-size="11.00">diag_role_modified</text>
<polygon fill="none" stroke="black" points="1158.5,-444 1158.5,-466 1251.5,-466 1251.5,-444 1158.5,-444"/>
<text text-anchor="start" x="1161.5" y="-452.2" font-family="Helvetica,sans-Serif" font-size="11.00">text[2147483647]</text>
<polygon fill="none" stroke="black" points="964.5,-422 964.5,-444 1158.5,-444 1158.5,-422 964.5,-422"/>
<text text-anchor="start" x="984.5" y="-430.2" font-family="Helvetica,sans-Serif" font-size="11.00">diag_row_version</text>
<polygon fill="none" stroke="black" points="1158.5,-422 1158.5,-444 1251.5,-444 1251.5,-422 1158.5,-422"/>
<text text-anchor="start" x="1161.5" y="-430.2" font-family="Helvetica,sans-Serif" font-size="11.00">int8[19]</text>
<polygon fill="none" stroke="black" points="964.5,-400 964.5,-422 1158.5,-422 1158.5,-400 964.5,-400"/>
<text text-anchor="start" x="984.5" y="-408.2" font-family="Helvetica,sans-Serif" font-size="11.00">diag_update_count</text>
<polygon fill="none" stroke="black" points="1158.5,-400 1158.5,-422 1251.5,-422 1251.5,-400 1158.5,-400"/>
<text text-anchor="start" x="1161.5" y="-408.2" font-family="Helvetica,sans-Serif" font-size="11.00">int8[19]</text>
<polygon fill="#ffffff" stroke="transparent" points="964.5,-382 964.5,-400 1065.5,-400 1065.5,-382 964.5,-382"/>
<polygon fill="none" stroke="black" points="964.5,-382 964.5,-400 1065.5,-400 1065.5,-382 964.5,-382"/>
<text text-anchor="start" x="967.5" y="-388.2" font-family="Helvetica,sans-Serif" font-size="11.00">&lt; 2</text>
<polygon fill="#ffffff" stroke="transparent" points="1065.5,-382 1065.5,-400 1158.5,-400 1158.5,-382 1065.5,-382"/>
<polygon fill="none" stroke="black" points="1065.5,-382 1065.5,-400 1158.5,-400 1158.5,-382 1065.5,-382"/>
<text text-anchor="start" x="1148.5" y="-388.2" font-family="Helvetica,sans-Serif" font-size="11.00"> &#160;</text>
<polygon fill="#ffffff" stroke="transparent" points="1158.5,-382 1158.5,-400 1251.5,-400 1251.5,-382 1158.5,-382"/>
<polygon fill="none" stroke="black" points="1158.5,-382 1158.5,-400 1251.5,-400 1251.5,-382 1158.5,-382"/>
<text text-anchor="start" x="1232.5" y="-388.2" font-family="Helvetica,sans-Serif" font-size="11.00">4 &gt;</text>
<polygon fill="none" stroke="black" stroke-width="2" points="963,-381 963,-709 1252,-709 1252,-381 963,-381"/>
</a>
</g>
</g>
<!-- syst_access_account_instance_assocs&#45;&gt;syst_access_accounts -->
<g id="edge1" class="edge">
<title>syst_access_account_instance_assocs:w&#45;&gt;syst_access_accounts:e</title>
<path fill="none" stroke="black" d="M1287.41,-346.97C1239.91,-388.39 1321.88,-675 1252.5,-675"/>
<polygon fill="black" stroke="black" points="1293.49,-344.75 1302.24,-345.38 1297.24,-343.37 1301,-342 1301,-342 1301,-342 1297.24,-343.37 1299.76,-338.62 1293.49,-344.75 1293.49,-344.75"/>
<ellipse fill="none" stroke="black" cx="1290.48" cy="-345.84" rx="3.2" ry="3.2"/>
</g>
<!-- syst_instances -->
<g id="node3" class="node">
<title>syst_instances</title>
<g id="a_node3"><a xlink:href="../../tables/syst_instances.html" xlink:title="syst_instances" target="_top">
<polygon fill="#ffffff" stroke="transparent" points="1038.5,-143 1038.5,-201 1176.5,-201 1176.5,-143 1038.5,-143"/>
<polygon fill="#f5f5f5" stroke="transparent" points="1038.5,-179 1038.5,-201 1176.5,-201 1176.5,-179 1038.5,-179"/>
<polygon fill="none" stroke="black" points="1038.5,-179 1038.5,-201 1176.5,-201 1176.5,-179 1038.5,-179"/>
<text text-anchor="start" x="1043.5" y="-188.2" font-family="Helvetica,sans-Serif" font-weight="bold" font-size="11.00">syst_instances</text>
<text text-anchor="start" x="1141.5" y="-187.2" font-family="Helvetica,sans-Serif" font-size="11.00">[table]</text>
<polygon fill="none" stroke="black" points="1038.5,-161 1038.5,-179 1176.5,-179 1176.5,-161 1038.5,-161"/>
<text text-anchor="start" x="1041.5" y="-167.2" font-family="Helvetica,sans-Serif" font-size="11.00">...</text>
<polygon fill="#ffffff" stroke="transparent" points="1038.5,-143 1038.5,-161 1100.5,-161 1100.5,-143 1038.5,-143"/>
<polygon fill="none" stroke="black" points="1038.5,-143 1038.5,-161 1100.5,-161 1100.5,-143 1038.5,-143"/>
<text text-anchor="start" x="1041.5" y="-149.2" font-family="Helvetica,sans-Serif" font-size="11.00">&lt; 5</text>
<polygon fill="#ffffff" stroke="transparent" points="1100.5,-143 1100.5,-161 1133.5,-161 1133.5,-143 1100.5,-143"/>
<polygon fill="none" stroke="black" points="1100.5,-143 1100.5,-161 1133.5,-161 1133.5,-143 1100.5,-143"/>
<text text-anchor="start" x="1123.5" y="-149.2" font-family="Helvetica,sans-Serif" font-size="11.00"> &#160;</text>
<polygon fill="#ffffff" stroke="transparent" points="1133.5,-143 1133.5,-161 1176.5,-161 1176.5,-143 1133.5,-143"/>
<polygon fill="none" stroke="black" points="1133.5,-143 1133.5,-161 1176.5,-161 1176.5,-143 1133.5,-143"/>
<text text-anchor="start" x="1157.5" y="-149.2" font-family="Helvetica,sans-Serif" font-size="11.00">4 &gt;</text>
</a>
</g>
</g>
<!-- syst_access_account_instance_assocs&#45;&gt;syst_instances -->
<g id="edge2" class="edge">
<title>syst_access_account_instance_assocs:w&#45;&gt;syst_instances:e</title>
<path fill="none" stroke="black" d="M1286.6,-317.25C1259.1,-303.88 1291.48,-244.85 1261,-211 1233.34,-180.28 1218.84,-170 1177.5,-170"/>
<polygon fill="black" stroke="black" points="1293.14,-318.5 1300.33,-323.54 1297.07,-319.25 1301,-320 1301,-320 1301,-320 1297.07,-319.25 1301.67,-316.46 1293.14,-318.5 1293.14,-318.5"/>
<ellipse fill="none" stroke="black" cx="1290" cy="-317.9" rx="3.2" ry="3.2"/>
</g>
<!-- syst_enum_items -->
<g id="node4" class="node">
<title>syst_enum_items</title>
<g id="a_node4"><a xlink:href="../../tables/syst_enum_items.html" xlink:title="syst_enum_items" target="_top">
<polygon fill="#ffffff" stroke="transparent" points="453,-141 453,-199 608,-199 608,-141 453,-141"/>
<polygon fill="#f5f5f5" stroke="transparent" points="453.5,-177 453.5,-199 608.5,-199 608.5,-177 453.5,-177"/>
<polygon fill="none" stroke="black" points="453.5,-177 453.5,-199 608.5,-199 608.5,-177 453.5,-177"/>
<text text-anchor="start" x="458.5" y="-186.2" font-family="Helvetica,sans-Serif" font-weight="bold" font-size="11.00">syst_enum_items</text>
<text text-anchor="start" x="573.5" y="-185.2" font-family="Helvetica,sans-Serif" font-size="11.00">[table]</text>
<polygon fill="none" stroke="black" points="453.5,-159 453.5,-177 608.5,-177 608.5,-159 453.5,-159"/>
<text text-anchor="start" x="456.5" y="-165.2" font-family="Helvetica,sans-Serif" font-size="11.00">...</text>
<polygon fill="#ffffff" stroke="transparent" points="453.5,-141 453.5,-159 524.5,-159 524.5,-141 453.5,-141"/>
<polygon fill="none" stroke="black" points="453.5,-141 453.5,-159 524.5,-159 524.5,-141 453.5,-141"/>
<text text-anchor="start" x="456.5" y="-147.2" font-family="Helvetica,sans-Serif" font-size="11.00">&lt; 2</text>
<polygon fill="#ffffff" stroke="transparent" points="524.5,-141 524.5,-159 561.5,-159 561.5,-141 524.5,-141"/>
<polygon fill="none" stroke="black" points="524.5,-141 524.5,-159 561.5,-159 561.5,-141 524.5,-141"/>
<text text-anchor="start" x="551.5" y="-147.2" font-family="Helvetica,sans-Serif" font-size="11.00"> &#160;</text>
<polygon fill="#ffffff" stroke="transparent" points="561.5,-141 561.5,-159 608.5,-159 608.5,-141 561.5,-141"/>
<polygon fill="none" stroke="black" points="561.5,-141 561.5,-159 608.5,-159 608.5,-141 561.5,-141"/>
<text text-anchor="start" x="589.5" y="-147.2" font-family="Helvetica,sans-Serif" font-size="11.00">7 &gt;</text>
</a>
</g>
</g>
<!-- syst_access_accounts&#45;&gt;syst_enum_items -->
<g id="edge3" class="edge">
<title>syst_access_accounts:w&#45;&gt;syst_enum_items:e</title>
<path fill="none" stroke="black" d="M948.88,-564.58C742.82,-552.86 594.63,-296.38 547.49,-203.34"/>
<polygon fill="black" stroke="black" points="955.5,-564.77 963.4,-568.6 959.5,-564.89 963.5,-565 963.5,-565 963.5,-565 959.5,-564.89 963.6,-561.4 955.5,-564.77 955.5,-564.77"/>
<ellipse fill="none" stroke="black" cx="952.3" cy="-564.68" rx="3.2" ry="3.2"/>
</g>
<!-- syst_owners -->
<g id="node5" class="node">
<title>syst_owners</title>
<g id="a_node5"><a xlink:href="../../tables/syst_owners.html" xlink:title="syst_owners" target="_top">
<polygon fill="#ffffff" stroke="transparent" points="724,-220 724,-278 846,-278 846,-220 724,-220"/>
<polygon fill="#f5f5f5" stroke="transparent" points="724,-256 724,-278 846,-278 846,-256 724,-256"/>
<polygon fill="none" stroke="black" points="724,-256 724,-278 846,-278 846,-256 724,-256"/>
<text text-anchor="start" x="729" y="-265.2" font-family="Helvetica,sans-Serif" font-weight="bold" font-size="11.00">syst_owners</text>
<text text-anchor="start" x="811" y="-264.2" font-family="Helvetica,sans-Serif" font-size="11.00">[table]</text>
<polygon fill="none" stroke="black" points="724,-238 724,-256 846,-256 846,-238 724,-238"/>
<text text-anchor="start" x="727" y="-244.2" font-family="Helvetica,sans-Serif" font-size="11.00">...</text>
<polygon fill="#ffffff" stroke="transparent" points="724,-220 724,-238 778,-238 778,-220 724,-220"/>
<polygon fill="none" stroke="black" points="724,-220 724,-238 778,-238 778,-220 724,-220"/>
<text text-anchor="start" x="727" y="-226.2" font-family="Helvetica,sans-Serif" font-size="11.00">&lt; 1</text>
<polygon fill="#ffffff" stroke="transparent" points="778,-220 778,-238 807,-238 807,-220 778,-220"/>
<polygon fill="none" stroke="black" points="778,-220 778,-238 807,-238 807,-220 778,-220"/>
<text text-anchor="start" x="797" y="-226.2" font-family="Helvetica,sans-Serif" font-size="11.00"> &#160;</text>
<polygon fill="#ffffff" stroke="transparent" points="807,-220 807,-238 846,-238 846,-220 807,-220"/>
<polygon fill="none" stroke="black" points="807,-220 807,-238 846,-238 846,-220 807,-220"/>
<text text-anchor="start" x="827" y="-226.2" font-family="Helvetica,sans-Serif" font-size="11.00">4 &gt;</text>
</a>
</g>
</g>
<!-- syst_access_accounts&#45;&gt;syst_owners -->
<g id="edge4" class="edge">
<title>syst_access_accounts:w&#45;&gt;syst_owners:e</title>
<path fill="none" stroke="black" d="M949.14,-607.68C888.71,-595.12 954.72,-495.36 921,-424 895.1,-369.18 849.74,-315.37 818.82,-282.2"/>
<polygon fill="black" stroke="black" points="955.53,-608.27 963.17,-612.58 959.52,-608.63 963.5,-609 963.5,-609 963.5,-609 959.52,-608.63 963.83,-605.42 955.53,-608.27 955.53,-608.27"/>
<ellipse fill="none" stroke="black" cx="952.35" cy="-607.98" rx="3.2" ry="3.2"/>
</g>
<!-- syst_instances&#45;&gt;syst_enum_items -->
<g id="edge14" class="edge">
<title>syst_instances:w&#45;&gt;syst_enum_items:e</title>
<path fill="none" stroke="black" d="M1023.1,-169.63C878.2,-165.96 713.35,-164.74 616.11,-165.96"/>
<polygon fill="black" stroke="black" points="1029.5,-169.79 1037.41,-173.6 1033.5,-169.9 1037.5,-170 1037.5,-170 1037.5,-170 1033.5,-169.9 1037.59,-166.4 1029.5,-169.79 1029.5,-169.79"/>
<ellipse fill="none" stroke="black" cx="1026.3" cy="-169.71" rx="3.2" ry="3.2"/>
</g>
<!-- syst_instances&#45;&gt;syst_enum_items -->
<g id="edge15" class="edge">
<title>syst_instances:w&#45;&gt;syst_enum_items:e</title>
<path fill="none" stroke="black" d="M1023.1,-170.44C878.2,-174.71 713.35,-176.14 616.11,-174.72"/>
<polygon fill="black" stroke="black" points="1029.5,-170.24 1037.61,-173.6 1033.5,-170.12 1037.5,-170 1037.5,-170 1037.5,-170 1033.5,-170.12 1037.39,-166.4 1029.5,-170.24 1029.5,-170.24"/>
<ellipse fill="none" stroke="black" cx="1026.31" cy="-170.34" rx="3.2" ry="3.2"/>
</g>
<!-- syst_instances&#45;&gt;syst_owners -->
<g id="edge16" class="edge">
<title>syst_instances:w&#45;&gt;syst_owners:e</title>
<path fill="none" stroke="black" d="M1022.95,-170.39C962.19,-173.59 898.55,-195.91 852.54,-215.95"/>
<polygon fill="black" stroke="black" points="1029.5,-170.21 1037.6,-173.6 1033.5,-170.11 1037.5,-170 1037.5,-170 1037.5,-170 1033.5,-170.11 1037.4,-166.4 1029.5,-170.21 1029.5,-170.21"/>
<ellipse fill="none" stroke="black" cx="1026.3" cy="-170.3" rx="3.2" ry="3.2"/>
</g>
<!-- syst_enum_functional_types -->
<g id="node8" class="node">
<title>syst_enum_functional_types</title>
<g id="a_node8"><a xlink:href="../../tables/syst_enum_functional_types.html" xlink:title="syst_enum_functional_types" target="_top">
<polygon fill="#ffffff" stroke="transparent" points="175,-116 175,-174 404,-174 404,-116 175,-116"/>
<polygon fill="#f5f5f5" stroke="transparent" points="175.5,-152 175.5,-174 404.5,-174 404.5,-152 175.5,-152"/>
<polygon fill="none" stroke="black" points="175.5,-152 175.5,-174 404.5,-174 404.5,-152 175.5,-152"/>
<text text-anchor="start" x="180.5" y="-161.2" font-family="Helvetica,sans-Serif" font-weight="bold" font-size="11.00">syst_enum_functional_types</text>
<text text-anchor="start" x="369.5" y="-160.2" font-family="Helvetica,sans-Serif" font-size="11.00">[table]</text>
<polygon fill="none" stroke="black" points="175.5,-134 175.5,-152 404.5,-152 404.5,-134 175.5,-134"/>
<text text-anchor="start" x="178.5" y="-140.2" font-family="Helvetica,sans-Serif" font-size="11.00">...</text>
<polygon fill="#ffffff" stroke="transparent" points="175.5,-116 175.5,-134 283.5,-134 283.5,-116 175.5,-116"/>
<polygon fill="none" stroke="black" points="175.5,-116 175.5,-134 283.5,-134 283.5,-116 175.5,-116"/>
<text text-anchor="start" x="178.5" y="-122.2" font-family="Helvetica,sans-Serif" font-size="11.00">&lt; 1</text>
<polygon fill="#ffffff" stroke="transparent" points="283.5,-116 283.5,-134 339.5,-134 339.5,-116 283.5,-116"/>
<polygon fill="none" stroke="black" points="283.5,-116 283.5,-134 339.5,-134 339.5,-116 283.5,-116"/>
<text text-anchor="start" x="329.5" y="-122.2" font-family="Helvetica,sans-Serif" font-size="11.00"> &#160;</text>
<polygon fill="#ffffff" stroke="transparent" points="339.5,-116 339.5,-134 404.5,-134 404.5,-116 339.5,-116"/>
<polygon fill="none" stroke="black" points="339.5,-116 339.5,-134 404.5,-134 404.5,-116 339.5,-116"/>
<text text-anchor="start" x="385.5" y="-122.2" font-family="Helvetica,sans-Serif" font-size="11.00">1 &gt;</text>
</a>
</g>
</g>
<!-- syst_enum_items&#45;&gt;syst_enum_functional_types -->
<g id="edge10" class="edge">
<title>syst_enum_items:w&#45;&gt;syst_enum_functional_types:e</title>
<path fill="none" stroke="black" d="M430.43,-144.53C422.05,-143.56 413.66,-143 405.5,-143"/>
<polygon fill="black" stroke="black" points="437.06,-145.47 444.48,-150.15 441.02,-146.03 444.98,-146.59 444.98,-146.59 444.98,-146.59 441.02,-146.03 445.48,-143.02 437.06,-145.47 437.06,-145.47"/>
<ellipse fill="none" stroke="black" cx="433.89" cy="-145.02" rx="3.2" ry="3.2"/>
</g>
<!-- syst_enums -->
<g id="node9" class="node">
<title>syst_enums</title>
<g id="a_node9"><a xlink:href="../../tables/syst_enums.html" xlink:title="syst_enums" target="_top">
<polygon fill="#ffffff" stroke="transparent" points="8,-143 8,-201 126,-201 126,-143 8,-143"/>
<polygon fill="#f5f5f5" stroke="transparent" points="8,-179 8,-201 126,-201 126,-179 8,-179"/>
<polygon fill="none" stroke="black" points="8,-179 8,-201 126,-201 126,-179 8,-179"/>
<text text-anchor="start" x="13" y="-188.2" font-family="Helvetica,sans-Serif" font-weight="bold" font-size="11.00">syst_enums</text>
<text text-anchor="start" x="91" y="-187.2" font-family="Helvetica,sans-Serif" font-size="11.00">[table]</text>
<polygon fill="none" stroke="black" points="8,-161 8,-179 126,-179 126,-161 8,-161"/>
<text text-anchor="start" x="11" y="-167.2" font-family="Helvetica,sans-Serif" font-size="11.00">...</text>
<polygon fill="#ffffff" stroke="transparent" points="8,-143 8,-161 56,-161 56,-143 8,-143"/>
<polygon fill="none" stroke="black" points="8,-143 8,-161 56,-161 56,-143 8,-143"/>
<text text-anchor="start" x="11" y="-149.2" font-family="Helvetica,sans-Serif" font-size="11.00"> &#160;</text>
<polygon fill="#ffffff" stroke="transparent" points="56,-143 56,-161 86,-161 86,-143 56,-143"/>
<polygon fill="none" stroke="black" points="56,-143 56,-161 86,-161 86,-143 56,-143"/>
<text text-anchor="start" x="76" y="-149.2" font-family="Helvetica,sans-Serif" font-size="11.00"> &#160;</text>
<polygon fill="#ffffff" stroke="transparent" points="86,-143 86,-161 126,-161 126,-143 86,-143"/>
<polygon fill="none" stroke="black" points="86,-143 86,-161 126,-161 126,-143 86,-143"/>
<text text-anchor="start" x="107" y="-149.2" font-family="Helvetica,sans-Serif" font-size="11.00">2 &gt;</text>
</a>
</g>
</g>
<!-- syst_enum_items&#45;&gt;syst_enums -->
<g id="edge9" class="edge">
<title>syst_enum_items:w&#45;&gt;syst_enums:e</title>
<path fill="none" stroke="black" d="M430.37,-182.66C424.16,-183.19 418,-183.64 412,-184 303.3,-190.45 274.35,-202.24 167,-184 148.43,-180.84 145.84,-170 127,-170"/>
<polygon fill="black" stroke="black" points="436.92,-182.04 445.23,-184.88 440.91,-181.67 444.89,-181.3 444.89,-181.3 444.89,-181.3 440.91,-181.67 444.55,-177.71 436.92,-182.04 436.92,-182.04"/>
<ellipse fill="none" stroke="black" cx="433.74" cy="-182.34" rx="3.2" ry="3.2"/>
</g>
<!-- syst_owners&#45;&gt;syst_enum_items -->
<g id="edge19" class="edge">
<title>syst_owners:w&#45;&gt;syst_enum_items:e</title>
<path fill="none" stroke="black" d="M701.66,-223.24C674.26,-214.66 643.7,-205.1 616.12,-196.48"/>
<polygon fill="black" stroke="black" points="708.03,-225.23 714.59,-231.06 711.85,-226.43 715.67,-227.62 715.67,-227.62 715.67,-227.62 711.85,-226.43 716.74,-224.19 708.03,-225.23 708.03,-225.23"/>
<ellipse fill="none" stroke="black" cx="704.98" cy="-224.28" rx="3.2" ry="3.2"/>
</g>
<!-- syst_credentials -->
<g id="node6" class="node">
<title>syst_credentials</title>
<g id="a_node6"><a xlink:href="../../tables/syst_credentials.html" xlink:title="syst_credentials" target="_top">
<polygon fill="#ffffff" stroke="transparent" points="1643,-646 1643,-704 1792,-704 1792,-646 1643,-646"/>
<polygon fill="#f5f5f5" stroke="transparent" points="1643.5,-682 1643.5,-704 1792.5,-704 1792.5,-682 1643.5,-682"/>
<polygon fill="none" stroke="black" points="1643.5,-682 1643.5,-704 1792.5,-704 1792.5,-682 1643.5,-682"/>
<text text-anchor="start" x="1648.5" y="-691.2" font-family="Helvetica,sans-Serif" font-weight="bold" font-size="11.00">syst_credentials</text>
<text text-anchor="start" x="1757.5" y="-690.2" font-family="Helvetica,sans-Serif" font-size="11.00">[table]</text>
<polygon fill="none" stroke="black" points="1643.5,-664 1643.5,-682 1792.5,-682 1792.5,-664 1643.5,-664"/>
<text text-anchor="start" x="1646.5" y="-670.2" font-family="Helvetica,sans-Serif" font-size="11.00">...</text>
<polygon fill="#ffffff" stroke="transparent" points="1643.5,-646 1643.5,-664 1715.5,-664 1715.5,-646 1643.5,-646"/>
<polygon fill="none" stroke="black" points="1643.5,-646 1643.5,-664 1715.5,-664 1715.5,-646 1643.5,-646"/>
<text text-anchor="start" x="1646.5" y="-652.2" font-family="Helvetica,sans-Serif" font-size="11.00">&lt; 3</text>
<polygon fill="#ffffff" stroke="transparent" points="1715.5,-646 1715.5,-664 1753.5,-664 1753.5,-646 1715.5,-646"/>
<polygon fill="none" stroke="black" points="1715.5,-646 1715.5,-664 1753.5,-664 1753.5,-646 1715.5,-646"/>
<text text-anchor="start" x="1743.5" y="-652.2" font-family="Helvetica,sans-Serif" font-size="11.00"> &#160;</text>
<polygon fill="#ffffff" stroke="transparent" points="1753.5,-646 1753.5,-664 1792.5,-664 1792.5,-646 1753.5,-646"/>
<polygon fill="none" stroke="black" points="1753.5,-646 1753.5,-664 1792.5,-664 1792.5,-646 1753.5,-646"/>
<text text-anchor="start" x="1782.5" y="-652.2" font-family="Helvetica,sans-Serif" font-size="11.00"> &#160;</text>
</a>
</g>
</g>
<!-- syst_credentials&#45;&gt;syst_access_accounts -->
<g id="edge5" class="edge">
<title>syst_credentials:w&#45;&gt;syst_access_accounts:e</title>
<path fill="none" stroke="black" d="M1620.18,-675C1526.34,-675 1379.62,-675 1252.5,-675"/>
<polygon fill="black" stroke="black" points="1626.78,-675 1634.78,-678.6 1630.78,-675 1634.78,-675 1634.78,-675 1634.78,-675 1630.78,-675 1634.78,-671.4 1626.78,-675 1626.78,-675"/>
<ellipse fill="none" stroke="black" cx="1623.58" cy="-675" rx="3.2" ry="3.2"/>
</g>
<!-- syst_credentials&#45;&gt;syst_enum_items -->
<g id="edge7" class="edge">
<title>syst_credentials:w&#45;&gt;syst_enum_items:e</title>
<path fill="none" stroke="black" d="M1716.56,-627.24C1714.09,-542.83 1697.02,-366.37 1602,-262 1404.26,-44.79 1247.44,-118.83 954,-132 836.65,-137.27 701.52,-150.72 616.32,-160.12"/>
<polygon fill="black" stroke="black" points="1716.7,-633.89 1713.27,-641.97 1716.78,-637.89 1716.86,-641.89 1716.86,-641.89 1716.86,-641.89 1716.78,-637.89 1720.46,-641.81 1716.7,-633.89 1716.7,-633.89"/>
<ellipse fill="none" stroke="black" cx="1716.63" cy="-630.69" rx="3.2" ry="3.2"/>
</g>
<!-- syst_identities -->
<g id="node7" class="node">
<title>syst_identities</title>
<g id="a_node7"><a xlink:href="../../tables/syst_identities.html" xlink:title="syst_identities" target="_top">
<polygon fill="#ffffff" stroke="transparent" points="1379,-699 1379,-757 1517,-757 1517,-699 1379,-699"/>
<polygon fill="#f5f5f5" stroke="transparent" points="1379,-735 1379,-757 1517,-757 1517,-735 1379,-735"/>
<polygon fill="none" stroke="black" points="1379,-735 1379,-757 1517,-757 1517,-735 1379,-735"/>
<text text-anchor="start" x="1384" y="-744.2" font-family="Helvetica,sans-Serif" font-weight="bold" font-size="11.00">syst_identities</text>
<text text-anchor="start" x="1482" y="-743.2" font-family="Helvetica,sans-Serif" font-size="11.00">[table]</text>
<polygon fill="none" stroke="black" points="1379,-717 1379,-735 1517,-735 1517,-717 1379,-717"/>
<text text-anchor="start" x="1382" y="-723.2" font-family="Helvetica,sans-Serif" font-size="11.00">...</text>
<polygon fill="#ffffff" stroke="transparent" points="1379,-699 1379,-717 1441,-717 1441,-699 1379,-699"/>
<polygon fill="none" stroke="black" points="1379,-699 1379,-717 1441,-717 1441,-699 1379,-699"/>
<text text-anchor="start" x="1382" y="-705.2" font-family="Helvetica,sans-Serif" font-size="11.00">&lt; 3</text>
<polygon fill="#ffffff" stroke="transparent" points="1441,-699 1441,-717 1474,-717 1474,-699 1441,-699"/>
<polygon fill="none" stroke="black" points="1441,-699 1441,-717 1474,-717 1474,-699 1441,-699"/>
<text text-anchor="start" x="1464" y="-705.2" font-family="Helvetica,sans-Serif" font-size="11.00"> &#160;</text>
<polygon fill="#ffffff" stroke="transparent" points="1474,-699 1474,-717 1517,-717 1517,-699 1474,-699"/>
<polygon fill="none" stroke="black" points="1474,-699 1474,-717 1517,-717 1517,-699 1474,-699"/>
<text text-anchor="start" x="1498" y="-705.2" font-family="Helvetica,sans-Serif" font-size="11.00">2 &gt;</text>
</a>
</g>
</g>
<!-- syst_credentials&#45;&gt;syst_identities -->
<g id="edge6" class="edge">
<title>syst_credentials:w&#45;&gt;syst_identities:e</title>
<path fill="none" stroke="black" d="M1620.62,-694C1589.27,-700.21 1554.89,-707.02 1525.19,-712.9"/>
<polygon fill="black" stroke="black" points="1626.94,-692.74 1635.49,-694.72 1630.86,-691.97 1634.79,-691.19 1634.79,-691.19 1634.79,-691.19 1630.86,-691.97 1634.09,-687.66 1626.94,-692.74 1626.94,-692.74"/>
<ellipse fill="none" stroke="black" cx="1623.8" cy="-693.37" rx="3.2" ry="3.2"/>
</g>
<!-- syst_identities&#45;&gt;syst_access_accounts -->
<g id="edge11" class="edge">
<title>syst_identities:w&#45;&gt;syst_access_accounts:e</title>
<path fill="none" stroke="black" d="M1356.63,-702.82C1307.21,-689.15 1255.39,-675 1252.5,-675"/>
<polygon fill="black" stroke="black" points="1363.09,-704.61 1369.84,-710.22 1366.94,-705.68 1370.8,-706.75 1370.8,-706.75 1370.8,-706.75 1366.94,-705.68 1371.76,-703.28 1363.09,-704.61 1363.09,-704.61"/>
<ellipse fill="none" stroke="black" cx="1360.01" cy="-703.76" rx="3.2" ry="3.2"/>
</g>
<!-- syst_identities&#45;&gt;syst_enum_items -->
<g id="edge12" class="edge">
<title>syst_identities:w&#45;&gt;syst_enum_items:e</title>
<path fill="none" stroke="black" d="M1356.3,-743.99C1254.92,-757.98 1087.48,-769.34 954,-721 789.99,-661.61 751.69,-615 649,-474 585.88,-387.33 551.82,-262.39 538.39,-203.34"/>
<polygon fill="black" stroke="black" points="1362.84,-743.05 1371.27,-745.48 1366.8,-742.48 1370.76,-741.92 1370.76,-741.92 1370.76,-741.92 1366.8,-742.48 1370.25,-738.35 1362.84,-743.05 1362.84,-743.05"/>
<ellipse fill="none" stroke="black" cx="1359.68" cy="-743.51" rx="3.2" ry="3.2"/>
</g>
<!-- syst_enum_functional_types&#45;&gt;syst_enums -->
<g id="edge8" class="edge">
<title>syst_enum_functional_types:w&#45;&gt;syst_enums:e</title>
<path fill="none" stroke="black" d="M160.6,-146.98C149.25,-154.49 145.4,-170 127,-170"/>
<polygon fill="black" stroke="black" points="166.81,-145.2 175.49,-146.46 170.65,-144.1 174.5,-143 174.5,-143 174.5,-143 170.65,-144.1 173.51,-139.54 166.81,-145.2 166.81,-145.2"/>
<ellipse fill="none" stroke="black" cx="163.73" cy="-146.09" rx="3.2" ry="3.2"/>
</g>
<!-- syst_instance_type_applications -->
<g id="node10" class="node">
<title>syst_instance_type_applications</title>
<g id="a_node10"><a xlink:href="../../tables/syst_instance_type_applications.html" xlink:title="syst_instance_type_applications" target="_top">
<polygon fill="#ffffff" stroke="transparent" points="657,-37 657,-95 913,-95 913,-37 657,-37"/>
<polygon fill="#f5f5f5" stroke="transparent" points="657,-73 657,-95 913,-95 913,-73 657,-73"/>
<polygon fill="none" stroke="black" points="657,-73 657,-95 913,-95 913,-73 657,-73"/>
<text text-anchor="start" x="662" y="-82.2" font-family="Helvetica,sans-Serif" font-weight="bold" font-size="11.00">syst_instance_type_applications</text>
<text text-anchor="start" x="878" y="-81.2" font-family="Helvetica,sans-Serif" font-size="11.00">[table]</text>
<polygon fill="none" stroke="black" points="657,-55 657,-73 913,-73 913,-55 657,-55"/>
<text text-anchor="start" x="660" y="-61.2" font-family="Helvetica,sans-Serif" font-size="11.00">...</text>
<polygon fill="#ffffff" stroke="transparent" points="657,-37 657,-55 778,-55 778,-37 657,-37"/>
<polygon fill="none" stroke="black" points="657,-37 657,-55 778,-55 778,-37 657,-37"/>
<text text-anchor="start" x="660" y="-43.2" font-family="Helvetica,sans-Serif" font-size="11.00">&lt; 2</text>
<polygon fill="#ffffff" stroke="transparent" points="778,-37 778,-55 841,-55 841,-37 778,-37"/>
<polygon fill="none" stroke="black" points="778,-37 778,-55 841,-55 841,-37 778,-37"/>
<text text-anchor="start" x="831" y="-43.2" font-family="Helvetica,sans-Serif" font-size="11.00"> &#160;</text>
<polygon fill="#ffffff" stroke="transparent" points="841,-37 841,-55 913,-55 913,-37 841,-37"/>
<polygon fill="none" stroke="black" points="841,-37 841,-55 913,-55 913,-37 841,-37"/>
<text text-anchor="start" x="894" y="-43.2" font-family="Helvetica,sans-Serif" font-size="11.00">1 &gt;</text>
</a>
</g>
</g>
<!-- syst_instance_type_applications&#45;&gt;syst_enum_items -->
<g id="edge13" class="edge">
<title>syst_instance_type_applications:w&#45;&gt;syst_enum_items:e</title>
<path fill="none" stroke="black" d="M641.61,-65.38C602.59,-72.83 570.76,-109 551.53,-136.75"/>
<polygon fill="black" stroke="black" points="648.04,-64.76 656.34,-67.58 652.02,-64.38 656,-64 656,-64 656,-64 652.02,-64.38 655.66,-60.42 648.04,-64.76 648.04,-64.76"/>
<ellipse fill="none" stroke="black" cx="644.85" cy="-65.07" rx="3.2" ry="3.2"/>
</g>
<!-- syst_owner_network_rules -->
<g id="node11" class="node">
<title>syst_owner_network_rules</title>
<g id="a_node11"><a xlink:href="../../tables/syst_owner_network_rules.html" xlink:title="syst_owner_network_rules" target="_top">
<polygon fill="#ffffff" stroke="transparent" points="999,-301 999,-359 1216,-359 1216,-301 999,-301"/>
<polygon fill="#f5f5f5" stroke="transparent" points="999.5,-337 999.5,-359 1216.5,-359 1216.5,-337 999.5,-337"/>
<polygon fill="none" stroke="black" points="999.5,-337 999.5,-359 1216.5,-359 1216.5,-337 999.5,-337"/>
<text text-anchor="start" x="1004.5" y="-346.2" font-family="Helvetica,sans-Serif" font-weight="bold" font-size="11.00">syst_owner_network_rules</text>
<text text-anchor="start" x="1181.5" y="-345.2" font-family="Helvetica,sans-Serif" font-size="11.00">[table]</text>
<polygon fill="none" stroke="black" points="999.5,-319 999.5,-337 1216.5,-337 1216.5,-319 999.5,-319"/>
<text text-anchor="start" x="1002.5" y="-325.2" font-family="Helvetica,sans-Serif" font-size="11.00">...</text>
<polygon fill="#ffffff" stroke="transparent" points="999.5,-301 999.5,-319 1105.5,-319 1105.5,-301 999.5,-301"/>
<polygon fill="none" stroke="black" points="999.5,-301 999.5,-319 1105.5,-319 1105.5,-301 999.5,-301"/>
<text text-anchor="start" x="1002.5" y="-307.2" font-family="Helvetica,sans-Serif" font-size="11.00">&lt; 1</text>
<polygon fill="#ffffff" stroke="transparent" points="1105.5,-301 1105.5,-319 1160.5,-319 1160.5,-301 1105.5,-301"/>
<polygon fill="none" stroke="black" points="1105.5,-301 1105.5,-319 1160.5,-319 1160.5,-301 1105.5,-301"/>
<text text-anchor="start" x="1150.5" y="-307.2" font-family="Helvetica,sans-Serif" font-size="11.00"> &#160;</text>
<polygon fill="#ffffff" stroke="transparent" points="1160.5,-301 1160.5,-319 1216.5,-319 1216.5,-301 1160.5,-301"/>
<polygon fill="none" stroke="black" points="1160.5,-301 1160.5,-319 1216.5,-319 1216.5,-301 1160.5,-301"/>
<text text-anchor="start" x="1206.5" y="-307.2" font-family="Helvetica,sans-Serif" font-size="11.00"> &#160;</text>
</a>
</g>
</g>
<!-- syst_owner_network_rules&#45;&gt;syst_owners -->
<g id="edge17" class="edge">
<title>syst_owner_network_rules:w&#45;&gt;syst_owners:e</title>
<path fill="none" stroke="black" d="M984.03,-327.48C932.55,-323.84 879.76,-301.83 841.64,-282.05"/>
<polygon fill="black" stroke="black" points="990.51,-327.71 998.37,-331.6 994.5,-327.86 998.5,-328 998.5,-328 998.5,-328 994.5,-327.86 998.63,-324.4 990.51,-327.71 990.51,-327.71"/>
<ellipse fill="none" stroke="black" cx="987.31" cy="-327.6" rx="3.2" ry="3.2"/>
</g>
<!-- syst_owner_password_rules -->
<g id="node12" class="node">
<title>syst_owner_password_rules</title>
<g id="a_node12"><a xlink:href="../../tables/syst_owner_password_rules.html" xlink:title="syst_owner_password_rules" target="_top">
<polygon fill="#ffffff" stroke="transparent" points="994.5,-222 994.5,-280 1220.5,-280 1220.5,-222 994.5,-222"/>
<polygon fill="#f5f5f5" stroke="transparent" points="994.5,-258 994.5,-280 1220.5,-280 1220.5,-258 994.5,-258"/>
<polygon fill="none" stroke="black" points="994.5,-258 994.5,-280 1220.5,-280 1220.5,-258 994.5,-258"/>
<text text-anchor="start" x="999.5" y="-267.2" font-family="Helvetica,sans-Serif" font-weight="bold" font-size="11.00">syst_owner_password_rules</text>
<text text-anchor="start" x="1185.5" y="-266.2" font-family="Helvetica,sans-Serif" font-size="11.00">[table]</text>
<polygon fill="none" stroke="black" points="994.5,-240 994.5,-258 1220.5,-258 1220.5,-240 994.5,-240"/>
<text text-anchor="start" x="997.5" y="-246.2" font-family="Helvetica,sans-Serif" font-size="11.00">...</text>
<polygon fill="#ffffff" stroke="transparent" points="994.5,-222 994.5,-240 1105.5,-240 1105.5,-222 994.5,-222"/>
<polygon fill="none" stroke="black" points="994.5,-222 994.5,-240 1105.5,-240 1105.5,-222 994.5,-222"/>
<text text-anchor="start" x="997.5" y="-228.2" font-family="Helvetica,sans-Serif" font-size="11.00">&lt; 1</text>
<polygon fill="#ffffff" stroke="transparent" points="1105.5,-222 1105.5,-240 1162.5,-240 1162.5,-222 1105.5,-222"/>
<polygon fill="none" stroke="black" points="1105.5,-222 1105.5,-240 1162.5,-240 1162.5,-222 1105.5,-222"/>
<text text-anchor="start" x="1152.5" y="-228.2" font-family="Helvetica,sans-Serif" font-size="11.00"> &#160;</text>
<polygon fill="#ffffff" stroke="transparent" points="1162.5,-222 1162.5,-240 1220.5,-240 1220.5,-222 1162.5,-222"/>
<polygon fill="none" stroke="black" points="1162.5,-222 1162.5,-240 1220.5,-240 1220.5,-222 1162.5,-222"/>
<text text-anchor="start" x="1210.5" y="-228.2" font-family="Helvetica,sans-Serif" font-size="11.00"> &#160;</text>
</a>
</g>
</g>
<!-- syst_owner_password_rules&#45;&gt;syst_owners -->
<g id="edge18" class="edge">
<title>syst_owner_password_rules:w&#45;&gt;syst_owners:e</title>
<path fill="none" stroke="black" d="M983.06,-249C939.33,-249 891.7,-249 854.22,-249"/>
<polygon fill="black" stroke="black" points="992.7,-245 992.7,-253 991.1,-253 991.1,-245 992.7,-245"/>
<polyline fill="none" stroke="black" points="993.5,-249 989.5,-249 "/>
<ellipse fill="none" stroke="black" cx="986.3" cy="-249" rx="3.2" ry="3.2"/>
</g>
<!-- syst_password_history -->
<g id="node13" class="node">
<title>syst_password_history</title>
<g id="a_node13"><a xlink:href="../../tables/syst_password_history.html" xlink:title="syst_password_history" target="_top">
<polygon fill="#ffffff" stroke="transparent" points="1351,-549 1351,-651 1545,-651 1545,-549 1351,-549"/>
<polygon fill="#f5f5f5" stroke="transparent" points="1351,-629 1351,-651 1545,-651 1545,-629 1351,-629"/>
<polygon fill="none" stroke="black" points="1351,-629 1351,-651 1545,-651 1545,-629 1351,-629"/>
<text text-anchor="start" x="1356" y="-638.2" font-family="Helvetica,sans-Serif" font-weight="bold" font-size="11.00">syst_password_history</text>
<text text-anchor="start" x="1510" y="-637.2" font-family="Helvetica,sans-Serif" font-size="11.00">[table]</text>
<polygon fill="none" stroke="black" points="1351,-607 1351,-629 1545,-629 1545,-607 1351,-607"/>
<image xlink:href="../../images/primaryKeys.png" width="11px" height="12px" preserveAspectRatio="xMinYMin meet" x="1356" y="-624"/>
<text text-anchor="start" x="1371" y="-615.2" font-family="Helvetica,sans-Serif" font-size="11.00">id</text>
<polygon fill="#ffffff" stroke="transparent" points="1351,-585 1351,-607 1545,-607 1545,-585 1351,-585"/>
<polygon fill="none" stroke="black" points="1351,-585 1351,-607 1545,-607 1545,-585 1351,-585"/>
<image xlink:href="../../images/foreignKeys.png" width="11px" height="12px" preserveAspectRatio="xMinYMin meet" x="1356" y="-602"/>
<text text-anchor="start" x="1371" y="-593.2" font-family="Helvetica,sans-Serif" font-size="11.00">access_account_id</text>
<polygon fill="none" stroke="black" points="1351,-567 1351,-585 1545,-585 1545,-567 1351,-567"/>
<text text-anchor="start" x="1354" y="-573.2" font-family="Helvetica,sans-Serif" font-size="11.00">...</text>
<polygon fill="#ffffff" stroke="transparent" points="1351,-549 1351,-567 1446,-567 1446,-549 1351,-549"/>
<polygon fill="none" stroke="black" points="1351,-549 1351,-567 1446,-567 1446,-549 1351,-549"/>
<text text-anchor="start" x="1354" y="-555.2" font-family="Helvetica,sans-Serif" font-size="11.00">&lt; 1</text>
<polygon fill="#ffffff" stroke="transparent" points="1446,-549 1446,-567 1495,-567 1495,-549 1446,-549"/>
<polygon fill="none" stroke="black" points="1446,-549 1446,-567 1495,-567 1495,-549 1446,-549"/>
<text text-anchor="start" x="1485" y="-555.2" font-family="Helvetica,sans-Serif" font-size="11.00"> &#160;</text>
<polygon fill="#ffffff" stroke="transparent" points="1495,-549 1495,-567 1545,-567 1545,-549 1495,-549"/>
<polygon fill="none" stroke="black" points="1495,-549 1495,-567 1545,-567 1545,-549 1495,-549"/>
<text text-anchor="start" x="1535" y="-555.2" font-family="Helvetica,sans-Serif" font-size="11.00"> &#160;</text>
</a>
</g>
</g>
<!-- syst_password_history&#45;&gt;syst_access_accounts -->
<g id="edge20" class="edge">
<title>syst_password_history:w&#45;&gt;syst_access_accounts:e</title>
<path fill="none" stroke="black" d="M1335.53,-598.11C1296.3,-610.68 1302.83,-675 1252.5,-675"/>
<polygon fill="black" stroke="black" points="1342.08,-597.16 1350.52,-599.56 1346.04,-596.58 1350,-596 1350,-596 1350,-596 1346.04,-596.58 1349.48,-592.44 1342.08,-597.16 1342.08,-597.16"/>
<ellipse fill="none" stroke="black" cx="1338.92" cy="-597.62" rx="3.2" ry="3.2"/>
</g>
</g>
</svg>
