<?xml version="1.0" encoding="UTF-8" standalone="no"?>
<!DOCTYPE svg PUBLIC "-//W3C//DTD SVG 1.1//EN"
 "http://www.w3.org/Graphics/SVG/1.1/DTD/svg11.dtd">
<!-- Generated by graphviz version 2.43.0 (0)
 -->
<!-- Title: twoDegreesRelationshipsDiagram Pages: 1 -->
<svg width="1726pt" height="552pt"
 viewBox="0.00 0.00 1726.00 552.00" xmlns="http://www.w3.org/2000/svg" xmlns:xlink="http://www.w3.org/1999/xlink">
<g id="graph0" class="graph" transform="scale(1 1) rotate(0) translate(4 548)">
<title>twoDegreesRelationshipsDiagram</title>
<polygon fill="#ffffff" stroke="transparent" points="-4,4 -4,-548 1722,-548 1722,4 -4,4"/>
<text text-anchor="middle" x="71.5" y="-7.2" font-family="Helvetica,sans-Serif" font-size="11.00">Generated by SchemaSpy</text>
<!-- syst_access_accounts -->
<g id="node1" class="node">
<title>syst_access_accounts</title>
<g id="a_node1"><a xlink:href="../../tables/syst_access_accounts.html" xlink:title="syst_access_accounts" target="_top">
<polygon fill="#ffffff" stroke="transparent" points="1140,-399 1140,-457 1325,-457 1325,-399 1140,-399"/>
<polygon fill="#f5f5f5" stroke="transparent" points="1140.5,-435 1140.5,-457 1325.5,-457 1325.5,-435 1140.5,-435"/>
<polygon fill="none" stroke="black" points="1140.5,-435 1140.5,-457 1325.5,-457 1325.5,-435 1140.5,-435"/>
<text text-anchor="start" x="1145.5" y="-444.2" font-family="Helvetica,sans-Serif" font-weight="bold" font-size="11.00">syst_access_accounts</text>
<text text-anchor="start" x="1290.5" y="-443.2" font-family="Helvetica,sans-Serif" font-size="11.00">[table]</text>
<polygon fill="none" stroke="black" points="1140.5,-417 1140.5,-435 1325.5,-435 1325.5,-417 1140.5,-417"/>
<text text-anchor="start" x="1143.5" y="-423.2" font-family="Helvetica,sans-Serif" font-size="11.00">...</text>
<polygon fill="#ffffff" stroke="transparent" points="1140.5,-399 1140.5,-417 1226.5,-417 1226.5,-399 1140.5,-399"/>
<polygon fill="none" stroke="black" points="1140.5,-399 1140.5,-417 1226.5,-417 1226.5,-399 1140.5,-399"/>
<text text-anchor="start" x="1143.5" y="-405.2" font-family="Helvetica,sans-Serif" font-size="11.00">&lt; 2</text>
<polygon fill="#ffffff" stroke="transparent" points="1226.5,-399 1226.5,-417 1271.5,-417 1271.5,-399 1226.5,-399"/>
<polygon fill="none" stroke="black" points="1226.5,-399 1226.5,-417 1271.5,-417 1271.5,-399 1226.5,-399"/>
<text text-anchor="start" x="1261.5" y="-405.2" font-family="Helvetica,sans-Serif" font-size="11.00"> &#160;</text>
<polygon fill="#ffffff" stroke="transparent" points="1271.5,-399 1271.5,-417 1325.5,-417 1325.5,-399 1271.5,-399"/>
<polygon fill="none" stroke="black" points="1271.5,-399 1271.5,-417 1325.5,-417 1325.5,-399 1271.5,-399"/>
<text text-anchor="start" x="1306.5" y="-405.2" font-family="Helvetica,sans-Serif" font-size="11.00">4 &gt;</text>
</a>
</g>
</g>
<!-- syst_enum_items -->
<g id="node2" class="node">
<title>syst_enum_items</title>
<g id="a_node2"><a xlink:href="../../tables/syst_enum_items.html" xlink:title="syst_enum_items" target="_top">
<polygon fill="#ffffff" stroke="transparent" points="631,-368 631,-426 786,-426 786,-368 631,-368"/>
<polygon fill="#f5f5f5" stroke="transparent" points="631.5,-404 631.5,-426 786.5,-426 786.5,-404 631.5,-404"/>
<polygon fill="none" stroke="black" points="631.5,-404 631.5,-426 786.5,-426 786.5,-404 631.5,-404"/>
<text text-anchor="start" x="636.5" y="-413.2" font-family="Helvetica,sans-Serif" font-weight="bold" font-size="11.00">syst_enum_items</text>
<text text-anchor="start" x="751.5" y="-412.2" font-family="Helvetica,sans-Serif" font-size="11.00">[table]</text>
<polygon fill="none" stroke="black" points="631.5,-386 631.5,-404 786.5,-404 786.5,-386 631.5,-386"/>
<text text-anchor="start" x="634.5" y="-392.2" font-family="Helvetica,sans-Serif" font-size="11.00">...</text>
<polygon fill="#ffffff" stroke="transparent" points="631.5,-368 631.5,-386 702.5,-386 702.5,-368 631.5,-368"/>
<polygon fill="none" stroke="black" points="631.5,-368 631.5,-386 702.5,-386 702.5,-368 631.5,-368"/>
<text text-anchor="start" x="634.5" y="-374.2" font-family="Helvetica,sans-Serif" font-size="11.00">&lt; 2</text>
<polygon fill="#ffffff" stroke="transparent" points="702.5,-368 702.5,-386 739.5,-386 739.5,-368 702.5,-368"/>
<polygon fill="none" stroke="black" points="702.5,-368 702.5,-386 739.5,-386 739.5,-368 702.5,-368"/>
<text text-anchor="start" x="729.5" y="-374.2" font-family="Helvetica,sans-Serif" font-size="11.00"> &#160;</text>
<polygon fill="#ffffff" stroke="transparent" points="739.5,-368 739.5,-386 786.5,-386 786.5,-368 739.5,-368"/>
<polygon fill="none" stroke="black" points="739.5,-368 739.5,-386 786.5,-386 786.5,-368 739.5,-368"/>
<text text-anchor="start" x="767.5" y="-374.2" font-family="Helvetica,sans-Serif" font-size="11.00">7 &gt;</text>
</a>
</g>
</g>
<!-- syst_access_accounts&#45;&gt;syst_enum_items -->
<g id="edge1" class="edge">
<title>syst_access_accounts:w&#45;&gt;syst_enum_items:e</title>
<path fill="none" stroke="black" d="M1125.11,-423.15C1117.04,-419.55 1111.8,-413.53 1099,-411 995.62,-390.55 873.86,-389.8 794.35,-392.35"/>
<polygon fill="black" stroke="black" points="1131.65,-424.44 1138.8,-429.53 1135.58,-425.22 1139.5,-426 1139.5,-426 1139.5,-426 1135.58,-425.22 1140.2,-422.47 1131.65,-424.44 1131.65,-424.44"/>
<ellipse fill="none" stroke="black" cx="1128.51" cy="-423.82" rx="3.2" ry="3.2"/>
</g>
<!-- syst_owners -->
<g id="node3" class="node">
<title>syst_owners</title>
<g id="a_node3"><a xlink:href="../../tables/syst_owners.html" xlink:title="syst_owners" target="_top">
<polygon fill="#ffffff" stroke="transparent" points="902,-421 902,-479 1024,-479 1024,-421 902,-421"/>
<polygon fill="#f5f5f5" stroke="transparent" points="902,-457 902,-479 1024,-479 1024,-457 902,-457"/>
<polygon fill="none" stroke="black" points="902,-457 902,-479 1024,-479 1024,-457 902,-457"/>
<text text-anchor="start" x="907" y="-466.2" font-family="Helvetica,sans-Serif" font-weight="bold" font-size="11.00">syst_owners</text>
<text text-anchor="start" x="989" y="-465.2" font-family="Helvetica,sans-Serif" font-size="11.00">[table]</text>
<polygon fill="none" stroke="black" points="902,-439 902,-457 1024,-457 1024,-439 902,-439"/>
<text text-anchor="start" x="905" y="-445.2" font-family="Helvetica,sans-Serif" font-size="11.00">...</text>
<polygon fill="#ffffff" stroke="transparent" points="902,-421 902,-439 956,-439 956,-421 902,-421"/>
<polygon fill="none" stroke="black" points="902,-421 902,-439 956,-439 956,-421 902,-421"/>
<text text-anchor="start" x="905" y="-427.2" font-family="Helvetica,sans-Serif" font-size="11.00">&lt; 1</text>
<polygon fill="#ffffff" stroke="transparent" points="956,-421 956,-439 985,-439 985,-421 956,-421"/>
<polygon fill="none" stroke="black" points="956,-421 956,-439 985,-439 985,-421 956,-421"/>
<text text-anchor="start" x="975" y="-427.2" font-family="Helvetica,sans-Serif" font-size="11.00"> &#160;</text>
<polygon fill="#ffffff" stroke="transparent" points="985,-421 985,-439 1024,-439 1024,-421 985,-421"/>
<polygon fill="none" stroke="black" points="985,-421 985,-439 1024,-439 1024,-421 985,-421"/>
<text text-anchor="start" x="1005" y="-427.2" font-family="Helvetica,sans-Serif" font-size="11.00">4 &gt;</text>
</a>
</g>
</g>
<!-- syst_access_accounts&#45;&gt;syst_owners -->
<g id="edge2" class="edge">
<title>syst_access_accounts:w&#45;&gt;syst_owners:e</title>
<path fill="none" stroke="black" d="M1124.89,-426.63C1085.05,-430.24 1071.56,-448 1025,-448"/>
<polygon fill="black" stroke="black" points="1131.51,-426.35 1139.66,-429.6 1135.5,-426.17 1139.5,-426 1139.5,-426 1139.5,-426 1135.5,-426.17 1139.34,-422.4 1131.51,-426.35 1131.51,-426.35"/>
<ellipse fill="none" stroke="black" cx="1128.31" cy="-426.49" rx="3.2" ry="3.2"/>
</g>
<!-- syst_enum_functional_types -->
<g id="node6" class="node">
<title>syst_enum_functional_types</title>
<g id="a_node6"><a xlink:href="../../tables/syst_enum_functional_types.html" xlink:title="syst_enum_functional_types" target="_top">
<polygon fill="#ffffff" stroke="transparent" points="353,-395 353,-453 582,-453 582,-395 353,-395"/>
<polygon fill="#f5f5f5" stroke="transparent" points="353.5,-431 353.5,-453 582.5,-453 582.5,-431 353.5,-431"/>
<polygon fill="none" stroke="black" points="353.5,-431 353.5,-453 582.5,-453 582.5,-431 353.5,-431"/>
<text text-anchor="start" x="358.5" y="-440.2" font-family="Helvetica,sans-Serif" font-weight="bold" font-size="11.00">syst_enum_functional_types</text>
<text text-anchor="start" x="547.5" y="-439.2" font-family="Helvetica,sans-Serif" font-size="11.00">[table]</text>
<polygon fill="none" stroke="black" points="353.5,-413 353.5,-431 582.5,-431 582.5,-413 353.5,-413"/>
<text text-anchor="start" x="356.5" y="-419.2" font-family="Helvetica,sans-Serif" font-size="11.00">...</text>
<polygon fill="#ffffff" stroke="transparent" points="353.5,-395 353.5,-413 461.5,-413 461.5,-395 353.5,-395"/>
<polygon fill="none" stroke="black" points="353.5,-395 353.5,-413 461.5,-413 461.5,-395 353.5,-395"/>
<text text-anchor="start" x="356.5" y="-401.2" font-family="Helvetica,sans-Serif" font-size="11.00">&lt; 1</text>
<polygon fill="#ffffff" stroke="transparent" points="461.5,-395 461.5,-413 517.5,-413 517.5,-395 461.5,-395"/>
<polygon fill="none" stroke="black" points="461.5,-395 461.5,-413 517.5,-413 517.5,-395 461.5,-395"/>
<text text-anchor="start" x="507.5" y="-401.2" font-family="Helvetica,sans-Serif" font-size="11.00"> &#160;</text>
<polygon fill="#ffffff" stroke="transparent" points="517.5,-395 517.5,-413 582.5,-413 582.5,-395 517.5,-395"/>
<polygon fill="none" stroke="black" points="517.5,-395 517.5,-413 582.5,-413 582.5,-395 517.5,-395"/>
<text text-anchor="start" x="563.5" y="-401.2" font-family="Helvetica,sans-Serif" font-size="11.00">1 &gt;</text>
</a>
</g>
</g>
<!-- syst_enum_items&#45;&gt;syst_enum_functional_types -->
<g id="edge8" class="edge">
<title>syst_enum_items:w&#45;&gt;syst_enum_functional_types:e</title>
<path fill="none" stroke="black" d="M608.52,-408.18C602.48,-408.86 596.37,-409.55 590.25,-410.25"/>
<polygon fill="black" stroke="black" points="614.95,-407.46 623.31,-410.13 618.93,-407.01 622.9,-406.56 622.9,-406.56 622.9,-406.56 618.93,-407.01 622.5,-402.98 614.95,-407.46 614.95,-407.46"/>
<ellipse fill="none" stroke="black" cx="611.77" cy="-407.81" rx="3.2" ry="3.2"/>
</g>
<!-- syst_enums -->
<g id="node7" class="node">
<title>syst_enums</title>
<g id="a_node7"><a xlink:href="../../tables/syst_enums.html" xlink:title="syst_enums" target="_top">
<polygon fill="#ffffff" stroke="transparent" points="8,-37 8,-433 304,-433 304,-37 8,-37"/>
<polygon fill="#f5f5f5" stroke="transparent" points="10,-409 10,-431 302,-431 302,-409 10,-409"/>
<polygon fill="none" stroke="black" points="10,-409 10,-431 302,-431 302,-409 10,-409"/>
<text text-anchor="start" x="15" y="-418.2" font-family="Helvetica,sans-Serif" font-weight="bold" font-size="11.00">syst_enums</text>
<text text-anchor="start" x="267" y="-417.2" font-family="Helvetica,sans-Serif" font-size="11.00">[table]</text>
<polygon fill="none" stroke="black" points="10,-387 10,-409 204,-409 204,-387 10,-387"/>
<image xlink:href="../../images/primaryKeys.png" width="11px" height="12px" preserveAspectRatio="xMinYMin meet" x="15" y="-404"/>
<text text-anchor="start" x="30" y="-395.2" font-family="Helvetica,sans-Serif" font-size="11.00">id</text>
<polygon fill="none" stroke="black" points="204,-387 204,-409 302,-409 302,-387 204,-387"/>
<text text-anchor="start" x="207" y="-395.2" font-family="Helvetica,sans-Serif" font-size="11.00">uuid[2147483647]</text>
<polygon fill="#ffffff" stroke="transparent" points="10,-365 10,-387 204,-387 204,-365 10,-365"/>
<polygon fill="none" stroke="black" points="10,-365 10,-387 204,-387 204,-365 10,-365"/>
<text text-anchor="start" x="30" y="-373.2" font-family="Helvetica,sans-Serif" font-size="11.00">internal_name</text>
<polygon fill="none" stroke="black" points="204,-365 204,-387 302,-387 302,-365 204,-365"/>
<text text-anchor="start" x="207" y="-373.2" font-family="Helvetica,sans-Serif" font-size="11.00">text[2147483647]</text>
<polygon fill="#ffffff" stroke="transparent" points="10,-343 10,-365 204,-365 204,-343 10,-343"/>
<polygon fill="none" stroke="black" points="10,-343 10,-365 204,-365 204,-343 10,-343"/>
<text text-anchor="start" x="30" y="-351.2" font-family="Helvetica,sans-Serif" font-size="11.00">display_name</text>
<polygon fill="none" stroke="black" points="204,-343 204,-365 302,-365 302,-343 204,-343"/>
<text text-anchor="start" x="207" y="-351.2" font-family="Helvetica,sans-Serif" font-size="11.00">text[2147483647]</text>
<polygon fill="none" stroke="black" points="10,-321 10,-343 204,-343 204,-321 10,-321"/>
<text text-anchor="start" x="30" y="-329.2" font-family="Helvetica,sans-Serif" font-size="11.00">syst_description</text>
<polygon fill="none" stroke="black" points="204,-321 204,-343 302,-343 302,-321 204,-321"/>
<text text-anchor="start" x="207" y="-329.2" font-family="Helvetica,sans-Serif" font-size="11.00">text[2147483647]</text>
<polygon fill="none" stroke="black" points="10,-299 10,-321 204,-321 204,-299 10,-299"/>
<text text-anchor="start" x="30" y="-307.2" font-family="Helvetica,sans-Serif" font-size="11.00">user_description</text>
<polygon fill="none" stroke="black" points="204,-299 204,-321 302,-321 302,-299 204,-299"/>
<text text-anchor="start" x="207" y="-307.2" font-family="Helvetica,sans-Serif" font-size="11.00">text[2147483647]</text>
<polygon fill="none" stroke="black" points="10,-277 10,-299 204,-299 204,-277 10,-277"/>
<text text-anchor="start" x="30" y="-285.2" font-family="Helvetica,sans-Serif" font-size="11.00">syst_defined</text>
<polygon fill="none" stroke="black" points="204,-277 204,-299 302,-299 302,-277 204,-277"/>
<text text-anchor="start" x="207" y="-285.2" font-family="Helvetica,sans-Serif" font-size="11.00">bool[1]</text>
<polygon fill="none" stroke="black" points="10,-255 10,-277 204,-277 204,-255 10,-255"/>
<text text-anchor="start" x="30" y="-263.2" font-family="Helvetica,sans-Serif" font-size="11.00">user_maintainable</text>
<polygon fill="none" stroke="black" points="204,-255 204,-277 302,-277 302,-255 204,-255"/>
<text text-anchor="start" x="207" y="-263.2" font-family="Helvetica,sans-Serif" font-size="11.00">bool[1]</text>
<polygon fill="none" stroke="black" points="10,-233 10,-255 204,-255 204,-233 10,-233"/>
<text text-anchor="start" x="30" y="-241.2" font-family="Helvetica,sans-Serif" font-size="11.00">default_syst_options</text>
<polygon fill="none" stroke="black" points="204,-233 204,-255 302,-255 302,-233 204,-233"/>
<text text-anchor="start" x="207" y="-241.2" font-family="Helvetica,sans-Serif" font-size="11.00">jsonb[2147483647]</text>
<polygon fill="none" stroke="black" points="10,-211 10,-233 204,-233 204,-211 10,-211"/>
<text text-anchor="start" x="30" y="-219.2" font-family="Helvetica,sans-Serif" font-size="11.00">default_user_options</text>
<polygon fill="none" stroke="black" points="204,-211 204,-233 302,-233 302,-211 204,-211"/>
<text text-anchor="start" x="207" y="-219.2" font-family="Helvetica,sans-Serif" font-size="11.00">jsonb[2147483647]</text>
<polygon fill="none" stroke="black" points="10,-189 10,-211 204,-211 204,-189 10,-189"/>
<text text-anchor="start" x="30" y="-197.2" font-family="Helvetica,sans-Serif" font-size="11.00">diag_timestamp_created</text>
<polygon fill="none" stroke="black" points="204,-189 204,-211 302,-211 302,-189 204,-189"/>
<text text-anchor="start" x="207" y="-197.2" font-family="Helvetica,sans-Serif" font-size="11.00">timestamptz[35,6]</text>
<polygon fill="none" stroke="black" points="10,-167 10,-189 204,-189 204,-167 10,-167"/>
<text text-anchor="start" x="30" y="-175.2" font-family="Helvetica,sans-Serif" font-size="11.00">diag_role_created</text>
<polygon fill="none" stroke="black" points="204,-167 204,-189 302,-189 302,-167 204,-167"/>
<text text-anchor="start" x="207" y="-175.2" font-family="Helvetica,sans-Serif" font-size="11.00">text[2147483647]</text>
<polygon fill="none" stroke="black" points="10,-145 10,-167 204,-167 204,-145 10,-145"/>
<text text-anchor="start" x="30" y="-153.2" font-family="Helvetica,sans-Serif" font-size="11.00">diag_timestamp_modified</text>
<polygon fill="none" stroke="black" points="204,-145 204,-167 302,-167 302,-145 204,-145"/>
<text text-anchor="start" x="207" y="-153.2" font-family="Helvetica,sans-Serif" font-size="11.00">timestamptz[35,6]</text>
<polygon fill="none" stroke="black" points="10,-123 10,-145 204,-145 204,-123 10,-123"/>
<text text-anchor="start" x="30" y="-131.2" font-family="Helvetica,sans-Serif" font-size="11.00">diag_wallclock_modified</text>
<polygon fill="none" stroke="black" points="204,-123 204,-145 302,-145 302,-123 204,-123"/>
<text text-anchor="start" x="207" y="-131.2" font-family="Helvetica,sans-Serif" font-size="11.00">timestamptz[35,6]</text>
<polygon fill="none" stroke="black" points="10,-101 10,-123 204,-123 204,-101 10,-101"/>
<text text-anchor="start" x="30" y="-109.2" font-family="Helvetica,sans-Serif" font-size="11.00">diag_role_modified</text>
<polygon fill="none" stroke="black" points="204,-101 204,-123 302,-123 302,-101 204,-101"/>
<text text-anchor="start" x="207" y="-109.2" font-family="Helvetica,sans-Serif" font-size="11.00">text[2147483647]</text>
<polygon fill="none" stroke="black" points="10,-79 10,-101 204,-101 204,-79 10,-79"/>
<text text-anchor="start" x="30" y="-87.2" font-family="Helvetica,sans-Serif" font-size="11.00">diag_row_version</text>
<polygon fill="none" stroke="black" points="204,-79 204,-101 302,-101 302,-79 204,-79"/>
<text text-anchor="start" x="207" y="-87.2" font-family="Helvetica,sans-Serif" font-size="11.00">int8[19]</text>
<polygon fill="none" stroke="black" points="10,-57 10,-79 204,-79 204,-57 10,-57"/>
<text text-anchor="start" x="30" y="-65.2" font-family="Helvetica,sans-Serif" font-size="11.00">diag_update_count</text>
<polygon fill="none" stroke="black" points="204,-57 204,-79 302,-79 302,-57 204,-57"/>
<text text-anchor="start" x="207" y="-65.2" font-family="Helvetica,sans-Serif" font-size="11.00">int8[19]</text>
<polygon fill="#ffffff" stroke="transparent" points="10,-39 10,-57 111,-57 111,-39 10,-39"/>
<polygon fill="none" stroke="black" points="10,-39 10,-57 111,-57 111,-39 10,-39"/>
<text text-anchor="start" x="13" y="-45.2" font-family="Helvetica,sans-Serif" font-size="11.00">&lt; 0</text>
<polygon fill="#ffffff" stroke="transparent" points="111,-39 111,-57 204,-57 204,-39 111,-39"/>
<polygon fill="none" stroke="black" points="111,-39 111,-57 204,-57 204,-39 111,-39"/>
<text text-anchor="start" x="194" y="-45.2" font-family="Helvetica,sans-Serif" font-size="11.00"> &#160;</text>
<polygon fill="#ffffff" stroke="transparent" points="204,-39 204,-57 302,-57 302,-39 204,-39"/>
<polygon fill="none" stroke="black" points="204,-39 204,-57 302,-57 302,-39 204,-39"/>
<text text-anchor="start" x="283" y="-45.2" font-family="Helvetica,sans-Serif" font-size="11.00">2 &gt;</text>
<polygon fill="none" stroke="black" stroke-width="2" points="9,-38 9,-432 303,-432 303,-38 9,-38"/>
</a>
</g>
</g>
<!-- syst_enum_items&#45;&gt;syst_enums -->
<g id="edge7" class="edge">
<title>syst_enum_items:w&#45;&gt;syst_enums:e</title>
<path fill="none" stroke="black" d="M608.35,-386.15C602.15,-385.7 595.99,-385.31 590,-385 481.25,-379.46 452.66,-368.72 345,-385 325.68,-387.92 322.54,-398 303,-398"/>
<polygon fill="black" stroke="black" points="614.89,-386.68 622.57,-390.91 618.87,-387 622.86,-387.32 622.86,-387.32 622.86,-387.32 618.87,-387 623.15,-383.73 614.89,-386.68 614.89,-386.68"/>
<ellipse fill="none" stroke="black" cx="611.7" cy="-386.42" rx="3.2" ry="3.2"/>
</g>
<!-- syst_owners&#45;&gt;syst_enum_items -->
<g id="edge15" class="edge">
<title>syst_owners:w&#45;&gt;syst_enum_items:e</title>
<path fill="none" stroke="black" d="M886.2,-447.55C854.84,-445.67 822.41,-438.22 794.02,-429.59"/>
<polygon fill="black" stroke="black" points="893,-447.75 900.89,-451.6 897,-447.88 901,-448 901,-448 901,-448 897,-447.88 901.11,-444.4 893,-447.75 893,-447.75"/>
<ellipse fill="none" stroke="black" cx="889.81" cy="-447.66" rx="3.2" ry="3.2"/>
</g>
<!-- syst_credentials -->
<g id="node4" class="node">
<title>syst_credentials</title>
<g id="a_node4"><a xlink:href="../../tables/syst_credentials.html" xlink:title="syst_credentials" target="_top">
<polygon fill="#ffffff" stroke="transparent" points="1561,-367 1561,-425 1710,-425 1710,-367 1561,-367"/>
<polygon fill="#f5f5f5" stroke="transparent" points="1561.5,-403 1561.5,-425 1710.5,-425 1710.5,-403 1561.5,-403"/>
<polygon fill="none" stroke="black" points="1561.5,-403 1561.5,-425 1710.5,-425 1710.5,-403 1561.5,-403"/>
<text text-anchor="start" x="1566.5" y="-412.2" font-family="Helvetica,sans-Serif" font-weight="bold" font-size="11.00">syst_credentials</text>
<text text-anchor="start" x="1675.5" y="-411.2" font-family="Helvetica,sans-Serif" font-size="11.00">[table]</text>
<polygon fill="none" stroke="black" points="1561.5,-385 1561.5,-403 1710.5,-403 1710.5,-385 1561.5,-385"/>
<text text-anchor="start" x="1564.5" y="-391.2" font-family="Helvetica,sans-Serif" font-size="11.00">...</text>
<polygon fill="#ffffff" stroke="transparent" points="1561.5,-367 1561.5,-385 1633.5,-385 1633.5,-367 1561.5,-367"/>
<polygon fill="none" stroke="black" points="1561.5,-367 1561.5,-385 1633.5,-385 1633.5,-367 1561.5,-367"/>
<text text-anchor="start" x="1564.5" y="-373.2" font-family="Helvetica,sans-Serif" font-size="11.00">&lt; 3</text>
<polygon fill="#ffffff" stroke="transparent" points="1633.5,-367 1633.5,-385 1671.5,-385 1671.5,-367 1633.5,-367"/>
<polygon fill="none" stroke="black" points="1633.5,-367 1633.5,-385 1671.5,-385 1671.5,-367 1633.5,-367"/>
<text text-anchor="start" x="1661.5" y="-373.2" font-family="Helvetica,sans-Serif" font-size="11.00"> &#160;</text>
<polygon fill="#ffffff" stroke="transparent" points="1671.5,-367 1671.5,-385 1710.5,-385 1710.5,-367 1671.5,-367"/>
<polygon fill="none" stroke="black" points="1671.5,-367 1671.5,-385 1710.5,-385 1710.5,-367 1671.5,-367"/>
<text text-anchor="start" x="1700.5" y="-373.2" font-family="Helvetica,sans-Serif" font-size="11.00"> &#160;</text>
</a>
</g>
</g>
<!-- syst_credentials&#45;&gt;syst_access_accounts -->
<g id="edge3" class="edge">
<title>syst_credentials:w&#45;&gt;syst_access_accounts:e</title>
<path fill="none" stroke="black" d="M1546.89,-398.84C1537.13,-408.16 1538.09,-428.32 1520,-436 1457.01,-462.77 1433.92,-444.46 1366,-436 1348.03,-433.76 1344.61,-426 1326.5,-426"/>
<polygon fill="black" stroke="black" points="1552.96,-396.68 1561.71,-397.39 1556.73,-395.34 1560.5,-394 1560.5,-394 1560.5,-394 1556.73,-395.34 1559.29,-390.61 1552.96,-396.68 1552.96,-396.68"/>
<ellipse fill="none" stroke="black" cx="1549.95" cy="-397.76" rx="3.2" ry="3.2"/>
</g>
<!-- syst_credentials&#45;&gt;syst_enum_items -->
<g id="edge5" class="edge">
<title>syst_credentials:w&#45;&gt;syst_enum_items:e</title>
<path fill="none" stroke="black" d="M1546.79,-389.2C1537.58,-380.76 1536.87,-363.55 1520,-357 1456.19,-332.24 1434.42,-355.29 1366,-357 1126.22,-363 1066.09,-364.8 827,-384 816.36,-384.85 805.2,-385.9 794.16,-387.02"/>
<polygon fill="black" stroke="black" points="1552.95,-391.35 1559.31,-397.4 1556.73,-392.68 1560.5,-394 1560.5,-394 1560.5,-394 1556.73,-392.68 1561.69,-390.6 1552.95,-391.35 1552.95,-391.35"/>
<ellipse fill="none" stroke="black" cx="1549.93" cy="-390.3" rx="3.2" ry="3.2"/>
</g>
<!-- syst_identities -->
<g id="node5" class="node">
<title>syst_identities</title>
<g id="a_node5"><a xlink:href="../../tables/syst_identities.html" xlink:title="syst_identities" target="_top">
<polygon fill="#ffffff" stroke="transparent" points="1374,-367 1374,-425 1512,-425 1512,-367 1374,-367"/>
<polygon fill="#f5f5f5" stroke="transparent" points="1374,-403 1374,-425 1512,-425 1512,-403 1374,-403"/>
<polygon fill="none" stroke="black" points="1374,-403 1374,-425 1512,-425 1512,-403 1374,-403"/>
<text text-anchor="start" x="1379" y="-412.2" font-family="Helvetica,sans-Serif" font-weight="bold" font-size="11.00">syst_identities</text>
<text text-anchor="start" x="1477" y="-411.2" font-family="Helvetica,sans-Serif" font-size="11.00">[table]</text>
<polygon fill="none" stroke="black" points="1374,-385 1374,-403 1512,-403 1512,-385 1374,-385"/>
<text text-anchor="start" x="1377" y="-391.2" font-family="Helvetica,sans-Serif" font-size="11.00">...</text>
<polygon fill="#ffffff" stroke="transparent" points="1374,-367 1374,-385 1436,-385 1436,-367 1374,-367"/>
<polygon fill="none" stroke="black" points="1374,-367 1374,-385 1436,-385 1436,-367 1374,-367"/>
<text text-anchor="start" x="1377" y="-373.2" font-family="Helvetica,sans-Serif" font-size="11.00">&lt; 3</text>
<polygon fill="#ffffff" stroke="transparent" points="1436,-367 1436,-385 1469,-385 1469,-367 1436,-367"/>
<polygon fill="none" stroke="black" points="1436,-367 1436,-385 1469,-385 1469,-367 1436,-367"/>
<text text-anchor="start" x="1459" y="-373.2" font-family="Helvetica,sans-Serif" font-size="11.00"> &#160;</text>
<polygon fill="#ffffff" stroke="transparent" points="1469,-367 1469,-385 1512,-385 1512,-367 1469,-367"/>
<polygon fill="none" stroke="black" points="1469,-367 1469,-385 1512,-385 1512,-367 1469,-367"/>
<text text-anchor="start" x="1493" y="-373.2" font-family="Helvetica,sans-Serif" font-size="11.00">2 &gt;</text>
</a>
</g>
</g>
<!-- syst_credentials&#45;&gt;syst_identities -->
<g id="edge4" class="edge">
<title>syst_credentials:w&#45;&gt;syst_identities:e</title>
<path fill="none" stroke="black" d="M1546.09,-394C1535.32,-394 1528.34,-394 1513,-394"/>
<polygon fill="black" stroke="black" points="1552.5,-394 1560.5,-397.6 1556.5,-394 1560.5,-394 1560.5,-394 1560.5,-394 1556.5,-394 1560.5,-390.4 1552.5,-394 1552.5,-394"/>
<ellipse fill="none" stroke="black" cx="1549.3" cy="-394" rx="3.2" ry="3.2"/>
</g>
<!-- syst_identities&#45;&gt;syst_access_accounts -->
<g id="edge9" class="edge">
<title>syst_identities:w&#45;&gt;syst_access_accounts:e</title>
<path fill="none" stroke="black" d="M1359.02,-398.72C1348.01,-407.62 1345.51,-426 1326.5,-426"/>
<polygon fill="black" stroke="black" points="1365.42,-396.56 1374.15,-397.41 1369.21,-395.28 1373,-394 1373,-394 1373,-394 1369.21,-395.28 1371.85,-390.59 1365.42,-396.56 1365.42,-396.56"/>
<ellipse fill="none" stroke="black" cx="1362.39" cy="-397.58" rx="3.2" ry="3.2"/>
</g>
<!-- syst_identities&#45;&gt;syst_enum_items -->
<g id="edge10" class="edge">
<title>syst_identities:w&#45;&gt;syst_enum_items:e</title>
<path fill="none" stroke="black" d="M1358.55,-392.95C1350.72,-391.72 1344.87,-389.76 1333,-389 1303.27,-387.09 828.96,-387.93 827,-388 816.37,-388.41 805.21,-389.02 794.17,-389.74"/>
<polygon fill="black" stroke="black" points="1365.02,-393.42 1372.74,-397.59 1369.01,-393.71 1373,-394 1373,-394 1373,-394 1369.01,-393.71 1373.26,-390.41 1365.02,-393.42 1365.02,-393.42"/>
<ellipse fill="none" stroke="black" cx="1361.83" cy="-393.18" rx="3.2" ry="3.2"/>
</g>
<!-- syst_enum_functional_types&#45;&gt;syst_enums -->
<g id="edge6" class="edge">
<title>syst_enum_functional_types:w&#45;&gt;syst_enums:e</title>
<path fill="none" stroke="black" d="M330.41,-399.06C321.16,-398.39 311.96,-398 303,-398"/>
<polygon fill="black" stroke="black" points="337,-399.65 344.65,-403.94 340.98,-400 344.97,-400.35 344.97,-400.35 344.97,-400.35 340.98,-400 345.28,-396.77 337,-399.65 337,-399.65"/>
<ellipse fill="none" stroke="black" cx="333.81" cy="-399.36" rx="3.2" ry="3.2"/>
</g>
<!-- syst_instance_type_applications -->
<g id="node8" class="node">
<title>syst_instance_type_applications</title>
<g id="a_node8"><a xlink:href="../../tables/syst_instance_type_applications.html" xlink:title="syst_instance_type_applications" target="_top">
<polygon fill="#ffffff" stroke="transparent" points="835,-261 835,-319 1091,-319 1091,-261 835,-261"/>
<polygon fill="#f5f5f5" stroke="transparent" points="835,-297 835,-319 1091,-319 1091,-297 835,-297"/>
<polygon fill="none" stroke="black" points="835,-297 835,-319 1091,-319 1091,-297 835,-297"/>
<text text-anchor="start" x="840" y="-306.2" font-family="Helvetica,sans-Serif" font-weight="bold" font-size="11.00">syst_instance_type_applications</text>
<text text-anchor="start" x="1056" y="-305.2" font-family="Helvetica,sans-Serif" font-size="11.00">[table]</text>
<polygon fill="none" stroke="black" points="835,-279 835,-297 1091,-297 1091,-279 835,-279"/>
<text text-anchor="start" x="838" y="-285.2" font-family="Helvetica,sans-Serif" font-size="11.00">...</text>
<polygon fill="#ffffff" stroke="transparent" points="835,-261 835,-279 956,-279 956,-261 835,-261"/>
<polygon fill="none" stroke="black" points="835,-261 835,-279 956,-279 956,-261 835,-261"/>
<text text-anchor="start" x="838" y="-267.2" font-family="Helvetica,sans-Serif" font-size="11.00">&lt; 2</text>
<polygon fill="#ffffff" stroke="transparent" points="956,-261 956,-279 1019,-279 1019,-261 956,-261"/>
<polygon fill="none" stroke="black" points="956,-261 956,-279 1019,-279 1019,-261 956,-261"/>
<text text-anchor="start" x="1009" y="-267.2" font-family="Helvetica,sans-Serif" font-size="11.00"> &#160;</text>
<polygon fill="#ffffff" stroke="transparent" points="1019,-261 1019,-279 1091,-279 1091,-261 1019,-261"/>
<polygon fill="none" stroke="black" points="1019,-261 1019,-279 1091,-279 1091,-261 1019,-261"/>
<text text-anchor="start" x="1072" y="-267.2" font-family="Helvetica,sans-Serif" font-size="11.00">1 &gt;</text>
</a>
</g>
</g>
<!-- syst_instance_type_applications&#45;&gt;syst_enum_items -->
<g id="edge11" class="edge">
<title>syst_instance_type_applications:w&#45;&gt;syst_enum_items:e</title>
<path fill="none" stroke="black" d="M819.58,-289.39C779.73,-297.08 747.72,-335.03 728.71,-363.7"/>
<polygon fill="black" stroke="black" points="826.04,-288.77 834.35,-291.58 830.02,-288.38 834,-288 834,-288 834,-288 830.02,-288.38 833.65,-284.42 826.04,-288.77 826.04,-288.77"/>
<ellipse fill="none" stroke="black" cx="822.85" cy="-289.08" rx="3.2" ry="3.2"/>
</g>
<!-- syst_instances -->
<g id="node9" class="node">
<title>syst_instances</title>
<g id="a_node9"><a xlink:href="../../tables/syst_instances.html" xlink:title="syst_instances" target="_top">
<polygon fill="#ffffff" stroke="transparent" points="1163.5,-482 1163.5,-540 1301.5,-540 1301.5,-482 1163.5,-482"/>
<polygon fill="#f5f5f5" stroke="transparent" points="1163.5,-518 1163.5,-540 1301.5,-540 1301.5,-518 1163.5,-518"/>
<polygon fill="none" stroke="black" points="1163.5,-518 1163.5,-540 1301.5,-540 1301.5,-518 1163.5,-518"/>
<text text-anchor="start" x="1168.5" y="-527.2" font-family="Helvetica,sans-Serif" font-weight="bold" font-size="11.00">syst_instances</text>
<text text-anchor="start" x="1266.5" y="-526.2" font-family="Helvetica,sans-Serif" font-size="11.00">[table]</text>
<polygon fill="none" stroke="black" points="1163.5,-500 1163.5,-518 1301.5,-518 1301.5,-500 1163.5,-500"/>
<text text-anchor="start" x="1166.5" y="-506.2" font-family="Helvetica,sans-Serif" font-size="11.00">...</text>
<polygon fill="#ffffff" stroke="transparent" points="1163.5,-482 1163.5,-500 1225.5,-500 1225.5,-482 1163.5,-482"/>
<polygon fill="none" stroke="black" points="1163.5,-482 1163.5,-500 1225.5,-500 1225.5,-482 1163.5,-482"/>
<text text-anchor="start" x="1166.5" y="-488.2" font-family="Helvetica,sans-Serif" font-size="11.00">&lt; 5</text>
<polygon fill="#ffffff" stroke="transparent" points="1225.5,-482 1225.5,-500 1258.5,-500 1258.5,-482 1225.5,-482"/>
<polygon fill="none" stroke="black" points="1225.5,-482 1225.5,-500 1258.5,-500 1258.5,-482 1225.5,-482"/>
<text text-anchor="start" x="1248.5" y="-488.2" font-family="Helvetica,sans-Serif" font-size="11.00"> &#160;</text>
<polygon fill="#ffffff" stroke="transparent" points="1258.5,-482 1258.5,-500 1301.5,-500 1301.5,-482 1258.5,-482"/>
<polygon fill="none" stroke="black" points="1258.5,-482 1258.5,-500 1301.5,-500 1301.5,-482 1258.5,-482"/>
<text text-anchor="start" x="1282.5" y="-488.2" font-family="Helvetica,sans-Serif" font-size="11.00">4 &gt;</text>
</a>
</g>
</g>
<!-- syst_instances&#45;&gt;syst_enum_items -->
<g id="edge12" class="edge">
<title>syst_instances:w&#45;&gt;syst_enum_items:e</title>
<path fill="none" stroke="black" d="M1147.96,-508.53C1009.96,-505.16 961.98,-535.28 827,-484 796.24,-472.31 767.18,-449.47 745.67,-430.07"/>
<polygon fill="black" stroke="black" points="1154.5,-508.74 1162.38,-512.6 1158.5,-508.87 1162.5,-509 1162.5,-509 1162.5,-509 1158.5,-508.87 1162.62,-505.4 1154.5,-508.74 1154.5,-508.74"/>
<ellipse fill="none" stroke="black" cx="1151.31" cy="-508.64" rx="3.2" ry="3.2"/>
</g>
<!-- syst_instances&#45;&gt;syst_enum_items -->
<g id="edge13" class="edge">
<title>syst_instances:w&#45;&gt;syst_enum_items:e</title>
<path fill="none" stroke="black" d="M1147.96,-509.78C1009.96,-518.16 961.98,-548.28 827,-497 790.52,-483.14 756.45,-453.59 734.49,-430.09"/>
<polygon fill="black" stroke="black" points="1154.51,-509.43 1162.69,-512.59 1158.51,-509.21 1162.5,-509 1162.5,-509 1162.5,-509 1158.51,-509.21 1162.31,-505.41 1154.51,-509.43 1154.51,-509.43"/>
<ellipse fill="none" stroke="black" cx="1151.32" cy="-509.6" rx="3.2" ry="3.2"/>
</g>
<!-- syst_instances&#45;&gt;syst_owners -->
<g id="edge14" class="edge">
<title>syst_instances:w&#45;&gt;syst_owners:e</title>
<path fill="none" stroke="black" d="M1147.93,-507.94C1094.67,-499.84 1086.63,-448 1025,-448"/>
<polygon fill="black" stroke="black" points="1154.52,-508.42 1162.24,-512.59 1158.51,-508.71 1162.5,-509 1162.5,-509 1162.5,-509 1158.51,-508.71 1162.76,-505.41 1154.52,-508.42 1154.52,-508.42"/>
<ellipse fill="none" stroke="black" cx="1151.33" cy="-508.19" rx="3.2" ry="3.2"/>
</g>
</g>
</svg>
