<?xml version="1.0" encoding="UTF-8" standalone="no"?>
<!DOCTYPE svg PUBLIC "-//W3C//DTD SVG 1.1//EN"
 "http://www.w3.org/Graphics/SVG/1.1/DTD/svg11.dtd">
<!-- Generated by graphviz version 2.43.0 (0)
 -->
<!-- Title: twoDegreesRelationshipsDiagram Pages: 1 -->
<svg width="1244pt" height="813pt"
 viewBox="0.00 0.00 1244.00 813.33" xmlns="http://www.w3.org/2000/svg" xmlns:xlink="http://www.w3.org/1999/xlink">
<g id="graph0" class="graph" transform="scale(1 1) rotate(0) translate(4 809.33)">
<title>twoDegreesRelationshipsDiagram</title>
<polygon fill="#ffffff" stroke="transparent" points="-4,4 -4,-809.33 1240,-809.33 1240,4 -4,4"/>
<text text-anchor="middle" x="71.5" y="-7.2" font-family="Helvetica,sans-Serif" font-size="11.00">Generated by SchemaSpy</text>
<!-- syst_access_account_instance_assocs -->
<g id="node1" class="node">
<title>syst_access_account_instance_assocs</title>
<g id="a_node1"><a xlink:href="../../tables/syst_access_account_instance_assocs.html" xlink:title="syst_access_account_instance_assocs" target="_top">
<polygon fill="#ffffff" stroke="transparent" points="660,-264.33 660,-616.33 1030,-616.33 1030,-264.33 660,-264.33"/>
<polygon fill="#f5f5f5" stroke="transparent" points="662,-592.33 662,-614.33 1028,-614.33 1028,-592.33 662,-592.33"/>
<polygon fill="none" stroke="black" points="662,-592.33 662,-614.33 1028,-614.33 1028,-592.33 662,-592.33"/>
<text text-anchor="start" x="667" y="-601.53" font-family="Helvetica,sans-Serif" font-weight="bold" font-size="11.00">syst_access_account_instance_assocs</text>
<text text-anchor="start" x="993" y="-600.53" font-family="Helvetica,sans-Serif" font-size="11.00">[table]</text>
<polygon fill="none" stroke="black" points="662,-570.33 662,-592.33 935,-592.33 935,-570.33 662,-570.33"/>
<image xlink:href="../../images/primaryKeys.png" width="11px" height="12px" preserveAspectRatio="xMinYMin meet" x="667" y="-587.327"/>
<text text-anchor="start" x="682" y="-578.53" font-family="Helvetica,sans-Serif" font-size="11.00">id</text>
<polygon fill="none" stroke="black" points="935,-570.33 935,-592.33 1028,-592.33 1028,-570.33 935,-570.33"/>
<text text-anchor="start" x="938" y="-578.53" font-family="Helvetica,sans-Serif" font-size="11.00">uuid[2147483647]</text>
<polygon fill="#ffffff" stroke="transparent" points="662,-548.33 662,-570.33 935,-570.33 935,-548.33 662,-548.33"/>
<polygon fill="none" stroke="black" points="662,-548.33 662,-570.33 935,-570.33 935,-548.33 662,-548.33"/>
<image xlink:href="../../images/foreignKeys.png" width="11px" height="12px" preserveAspectRatio="xMinYMin meet" x="667" y="-565.327"/>
<text text-anchor="start" x="682" y="-556.53" font-family="Helvetica,sans-Serif" font-size="11.00">access_account_id</text>
<polygon fill="none" stroke="black" points="935,-548.33 935,-570.33 1028,-570.33 1028,-548.33 935,-548.33"/>
<text text-anchor="start" x="938" y="-556.53" font-family="Helvetica,sans-Serif" font-size="11.00">uuid[2147483647]</text>
<polygon fill="#ffffff" stroke="transparent" points="662,-526.33 662,-548.33 935,-548.33 935,-526.33 662,-526.33"/>
<polygon fill="none" stroke="black" points="662,-526.33 662,-548.33 935,-548.33 935,-526.33 662,-526.33"/>
<image xlink:href="../../images/foreignKeys.png" width="11px" height="12px" preserveAspectRatio="xMinYMin meet" x="667" y="-543.327"/>
<text text-anchor="start" x="682" y="-534.53" font-family="Helvetica,sans-Serif" font-size="11.00">instance_id</text>
<polygon fill="none" stroke="black" points="935,-526.33 935,-548.33 1028,-548.33 1028,-526.33 935,-526.33"/>
<text text-anchor="start" x="938" y="-534.53" font-family="Helvetica,sans-Serif" font-size="11.00">uuid[2147483647]</text>
<polygon fill="none" stroke="black" points="662,-504.33 662,-526.33 935,-526.33 935,-504.33 662,-504.33"/>
<text text-anchor="start" x="682" y="-512.53" font-family="Helvetica,sans-Serif" font-size="11.00">access_granted</text>
<polygon fill="none" stroke="black" points="935,-504.33 935,-526.33 1028,-526.33 1028,-504.33 935,-504.33"/>
<text text-anchor="start" x="938" y="-512.53" font-family="Helvetica,sans-Serif" font-size="11.00">timestamptz[35,6]</text>
<polygon fill="none" stroke="black" points="662,-482.33 662,-504.33 935,-504.33 935,-482.33 662,-482.33"/>
<text text-anchor="start" x="682" y="-490.53" font-family="Helvetica,sans-Serif" font-size="11.00">invitation_issued</text>
<polygon fill="none" stroke="black" points="935,-482.33 935,-504.33 1028,-504.33 1028,-482.33 935,-482.33"/>
<text text-anchor="start" x="938" y="-490.53" font-family="Helvetica,sans-Serif" font-size="11.00">timestamptz[35,6]</text>
<polygon fill="none" stroke="black" points="662,-460.33 662,-482.33 935,-482.33 935,-460.33 662,-460.33"/>
<text text-anchor="start" x="682" y="-468.53" font-family="Helvetica,sans-Serif" font-size="11.00">invitation_expires</text>
<polygon fill="none" stroke="black" points="935,-460.33 935,-482.33 1028,-482.33 1028,-460.33 935,-460.33"/>
<text text-anchor="start" x="938" y="-468.53" font-family="Helvetica,sans-Serif" font-size="11.00">timestamptz[35,6]</text>
<polygon fill="none" stroke="black" points="662,-438.33 662,-460.33 935,-460.33 935,-438.33 662,-438.33"/>
<text text-anchor="start" x="682" y="-446.53" font-family="Helvetica,sans-Serif" font-size="11.00">invitation_declined</text>
<polygon fill="none" stroke="black" points="935,-438.33 935,-460.33 1028,-460.33 1028,-438.33 935,-438.33"/>
<text text-anchor="start" x="938" y="-446.53" font-family="Helvetica,sans-Serif" font-size="11.00">timestamptz[35,6]</text>
<polygon fill="none" stroke="black" points="662,-416.33 662,-438.33 935,-438.33 935,-416.33 662,-416.33"/>
<text text-anchor="start" x="682" y="-424.53" font-family="Helvetica,sans-Serif" font-size="11.00">diag_timestamp_created</text>
<polygon fill="none" stroke="black" points="935,-416.33 935,-438.33 1028,-438.33 1028,-416.33 935,-416.33"/>
<text text-anchor="start" x="938" y="-424.53" font-family="Helvetica,sans-Serif" font-size="11.00">timestamptz[35,6]</text>
<polygon fill="none" stroke="black" points="662,-394.33 662,-416.33 935,-416.33 935,-394.33 662,-394.33"/>
<text text-anchor="start" x="682" y="-402.53" font-family="Helvetica,sans-Serif" font-size="11.00">diag_role_created</text>
<polygon fill="none" stroke="black" points="935,-394.33 935,-416.33 1028,-416.33 1028,-394.33 935,-394.33"/>
<text text-anchor="start" x="938" y="-402.53" font-family="Helvetica,sans-Serif" font-size="11.00">text[2147483647]</text>
<polygon fill="none" stroke="black" points="662,-372.33 662,-394.33 935,-394.33 935,-372.33 662,-372.33"/>
<text text-anchor="start" x="682" y="-380.53" font-family="Helvetica,sans-Serif" font-size="11.00">diag_timestamp_modified</text>
<polygon fill="none" stroke="black" points="935,-372.33 935,-394.33 1028,-394.33 1028,-372.33 935,-372.33"/>
<text text-anchor="start" x="938" y="-380.53" font-family="Helvetica,sans-Serif" font-size="11.00">timestamptz[35,6]</text>
<polygon fill="none" stroke="black" points="662,-350.33 662,-372.33 935,-372.33 935,-350.33 662,-350.33"/>
<text text-anchor="start" x="682" y="-358.53" font-family="Helvetica,sans-Serif" font-size="11.00">diag_wallclock_modified</text>
<polygon fill="none" stroke="black" points="935,-350.33 935,-372.33 1028,-372.33 1028,-350.33 935,-350.33"/>
<text text-anchor="start" x="938" y="-358.53" font-family="Helvetica,sans-Serif" font-size="11.00">timestamptz[35,6]</text>
<polygon fill="none" stroke="black" points="662,-328.33 662,-350.33 935,-350.33 935,-328.33 662,-328.33"/>
<text text-anchor="start" x="682" y="-336.53" font-family="Helvetica,sans-Serif" font-size="11.00">diag_role_modified</text>
<polygon fill="none" stroke="black" points="935,-328.33 935,-350.33 1028,-350.33 1028,-328.33 935,-328.33"/>
<text text-anchor="start" x="938" y="-336.53" font-family="Helvetica,sans-Serif" font-size="11.00">text[2147483647]</text>
<polygon fill="none" stroke="black" points="662,-306.33 662,-328.33 935,-328.33 935,-306.33 662,-306.33"/>
<text text-anchor="start" x="682" y="-314.53" font-family="Helvetica,sans-Serif" font-size="11.00">diag_row_version</text>
<polygon fill="none" stroke="black" points="935,-306.33 935,-328.33 1028,-328.33 1028,-306.33 935,-306.33"/>
<text text-anchor="start" x="938" y="-314.53" font-family="Helvetica,sans-Serif" font-size="11.00">int8[19]</text>
<polygon fill="none" stroke="black" points="662,-284.33 662,-306.33 935,-306.33 935,-284.33 662,-284.33"/>
<text text-anchor="start" x="682" y="-292.53" font-family="Helvetica,sans-Serif" font-size="11.00">diag_update_count</text>
<polygon fill="none" stroke="black" points="935,-284.33 935,-306.33 1028,-306.33 1028,-284.33 935,-284.33"/>
<text text-anchor="start" x="938" y="-292.53" font-family="Helvetica,sans-Serif" font-size="11.00">int8[19]</text>
<polygon fill="#ffffff" stroke="transparent" points="662,-266.33 662,-284.33 803,-284.33 803,-266.33 662,-266.33"/>
<polygon fill="none" stroke="black" points="662,-266.33 662,-284.33 803,-284.33 803,-266.33 662,-266.33"/>
<text text-anchor="start" x="665" y="-272.53" font-family="Helvetica,sans-Serif" font-size="11.00">&lt; 2</text>
<polygon fill="#ffffff" stroke="transparent" points="803,-266.33 803,-284.33 935,-284.33 935,-266.33 803,-266.33"/>
<polygon fill="none" stroke="black" points="803,-266.33 803,-284.33 935,-284.33 935,-266.33 803,-266.33"/>
<text text-anchor="start" x="925" y="-272.53" font-family="Helvetica,sans-Serif" font-size="11.00"> &#160;</text>
<polygon fill="#ffffff" stroke="transparent" points="935,-266.33 935,-284.33 1028,-284.33 1028,-266.33 935,-266.33"/>
<polygon fill="none" stroke="black" points="935,-266.33 935,-284.33 1028,-284.33 1028,-266.33 935,-266.33"/>
<text text-anchor="start" x="1009" y="-272.53" font-family="Helvetica,sans-Serif" font-size="11.00">0 &gt;</text>
<polygon fill="none" stroke="black" stroke-width="2" points="661,-265.33 661,-615.33 1029,-615.33 1029,-265.33 661,-265.33"/>
</a>
</g>
</g>
<!-- syst_access_accounts -->
<g id="node2" class="node">
<title>syst_access_accounts</title>
<g id="a_node2"><a xlink:href="../../tables/syst_access_accounts.html" xlink:title="syst_access_accounts" target="_top">
<polygon fill="#ffffff" stroke="transparent" points="417,-551.33 417,-697.33 611,-697.33 611,-551.33 417,-551.33"/>
<polygon fill="#f5f5f5" stroke="transparent" points="417,-675.33 417,-697.33 611,-697.33 611,-675.33 417,-675.33"/>
<polygon fill="none" stroke="black" points="417,-675.33 417,-697.33 611,-697.33 611,-675.33 417,-675.33"/>
<text text-anchor="start" x="422" y="-684.53" font-family="Helvetica,sans-Serif" font-weight="bold" font-size="11.00">syst_access_accounts</text>
<text text-anchor="start" x="576" y="-683.53" font-family="Helvetica,sans-Serif" font-size="11.00">[table]</text>
<polygon fill="none" stroke="black" points="417,-653.33 417,-675.33 611,-675.33 611,-653.33 417,-653.33"/>
<image xlink:href="../../images/primaryKeys.png" width="11px" height="12px" preserveAspectRatio="xMinYMin meet" x="422" y="-670.327"/>
<text text-anchor="start" x="437" y="-661.53" font-family="Helvetica,sans-Serif" font-size="11.00">id</text>
<polygon fill="#ffffff" stroke="transparent" points="417,-631.33 417,-653.33 611,-653.33 611,-631.33 417,-631.33"/>
<polygon fill="none" stroke="black" points="417,-631.33 417,-653.33 611,-653.33 611,-631.33 417,-631.33"/>
<text text-anchor="start" x="437" y="-639.53" font-family="Helvetica,sans-Serif" font-size="11.00">internal_name</text>
<polygon fill="none" stroke="black" points="417,-609.33 417,-631.33 611,-631.33 611,-609.33 417,-609.33"/>
<image xlink:href="../../images/foreignKeys.png" width="11px" height="12px" preserveAspectRatio="xMinYMin meet" x="422" y="-626.327"/>
<text text-anchor="start" x="437" y="-617.53" font-family="Helvetica,sans-Serif" font-size="11.00">owning_owner_id</text>
<polygon fill="none" stroke="black" points="417,-587.33 417,-609.33 611,-609.33 611,-587.33 417,-587.33"/>
<image xlink:href="../../images/foreignKeys.png" width="11px" height="12px" preserveAspectRatio="xMinYMin meet" x="422" y="-604.327"/>
<text text-anchor="start" x="437" y="-595.53" font-family="Helvetica,sans-Serif" font-size="11.00">access_account_state_id</text>
<polygon fill="none" stroke="black" points="417,-569.33 417,-587.33 611,-587.33 611,-569.33 417,-569.33"/>
<text text-anchor="start" x="420" y="-575.53" font-family="Helvetica,sans-Serif" font-size="11.00">...</text>
<polygon fill="#ffffff" stroke="transparent" points="417,-551.33 417,-569.33 507,-569.33 507,-551.33 417,-551.33"/>
<polygon fill="none" stroke="black" points="417,-551.33 417,-569.33 507,-569.33 507,-551.33 417,-551.33"/>
<text text-anchor="start" x="420" y="-557.53" font-family="Helvetica,sans-Serif" font-size="11.00">&lt; 2</text>
<polygon fill="#ffffff" stroke="transparent" points="507,-551.33 507,-569.33 554,-569.33 554,-551.33 507,-551.33"/>
<polygon fill="none" stroke="black" points="507,-551.33 507,-569.33 554,-569.33 554,-551.33 507,-551.33"/>
<text text-anchor="start" x="544" y="-557.53" font-family="Helvetica,sans-Serif" font-size="11.00"> &#160;</text>
<polygon fill="#ffffff" stroke="transparent" points="554,-551.33 554,-569.33 611,-569.33 611,-551.33 554,-551.33"/>
<polygon fill="none" stroke="black" points="554,-551.33 554,-569.33 611,-569.33 611,-551.33 554,-551.33"/>
<text text-anchor="start" x="592" y="-557.53" font-family="Helvetica,sans-Serif" font-size="11.00">4 &gt;</text>
</a>
</g>
</g>
<!-- syst_access_account_instance_assocs&#45;&gt;syst_access_accounts -->
<g id="edge1" class="edge">
<title>syst_access_account_instance_assocs:w&#45;&gt;syst_access_accounts:e</title>
<path fill="none" stroke="black" d="M646.9,-563.31C620.71,-582.49 657.46,-664.33 612,-664.33"/>
<polygon fill="black" stroke="black" points="653.3,-561.5 661.98,-562.79 657.15,-560.42 661,-559.33 661,-559.33 661,-559.33 657.15,-560.42 660.02,-555.86 653.3,-561.5 653.3,-561.5"/>
<ellipse fill="none" stroke="black" cx="650.22" cy="-562.38" rx="3.2" ry="3.2"/>
</g>
<!-- syst_instances -->
<g id="node3" class="node">
<title>syst_instances</title>
<g id="a_node3"><a xlink:href="../../tables/syst_instances.html" xlink:title="syst_instances" target="_top">
<polygon fill="#ffffff" stroke="transparent" points="417,-296.33 417,-530.33 611,-530.33 611,-296.33 417,-296.33"/>
<polygon fill="#f5f5f5" stroke="transparent" points="417,-508.33 417,-530.33 611,-530.33 611,-508.33 417,-508.33"/>
<polygon fill="none" stroke="black" points="417,-508.33 417,-530.33 611,-530.33 611,-508.33 417,-508.33"/>
<text text-anchor="start" x="422" y="-517.53" font-family="Helvetica,sans-Serif" font-weight="bold" font-size="11.00">syst_instances</text>
<text text-anchor="start" x="576" y="-516.53" font-family="Helvetica,sans-Serif" font-size="11.00">[table]</text>
<polygon fill="none" stroke="black" points="417,-486.33 417,-508.33 611,-508.33 611,-486.33 417,-486.33"/>
<image xlink:href="../../images/primaryKeys.png" width="11px" height="12px" preserveAspectRatio="xMinYMin meet" x="422" y="-503.327"/>
<text text-anchor="start" x="437" y="-494.53" font-family="Helvetica,sans-Serif" font-size="11.00">id</text>
<polygon fill="#ffffff" stroke="transparent" points="417,-464.33 417,-486.33 611,-486.33 611,-464.33 417,-464.33"/>
<polygon fill="none" stroke="black" points="417,-464.33 417,-486.33 611,-486.33 611,-464.33 417,-464.33"/>
<text text-anchor="start" x="437" y="-472.53" font-family="Helvetica,sans-Serif" font-size="11.00">internal_name</text>
<polygon fill="#ffffff" stroke="transparent" points="417,-442.33 417,-464.33 611,-464.33 611,-442.33 417,-442.33"/>
<polygon fill="none" stroke="black" points="417,-442.33 417,-464.33 611,-464.33 611,-442.33 417,-442.33"/>
<text text-anchor="start" x="437" y="-450.53" font-family="Helvetica,sans-Serif" font-size="11.00">display_name</text>
<polygon fill="none" stroke="black" points="417,-420.33 417,-442.33 611,-442.33 611,-420.33 417,-420.33"/>
<image xlink:href="../../images/foreignKeys.png" width="11px" height="12px" preserveAspectRatio="xMinYMin meet" x="422" y="-437.327"/>
<text text-anchor="start" x="437" y="-428.53" font-family="Helvetica,sans-Serif" font-size="11.00">application_id</text>
<polygon fill="none" stroke="black" points="417,-398.33 417,-420.33 611,-420.33 611,-398.33 417,-398.33"/>
<image xlink:href="../../images/foreignKeys.png" width="11px" height="12px" preserveAspectRatio="xMinYMin meet" x="422" y="-415.327"/>
<text text-anchor="start" x="437" y="-406.53" font-family="Helvetica,sans-Serif" font-size="11.00">instance_type_id</text>
<polygon fill="none" stroke="black" points="417,-376.33 417,-398.33 611,-398.33 611,-376.33 417,-376.33"/>
<image xlink:href="../../images/foreignKeys.png" width="11px" height="12px" preserveAspectRatio="xMinYMin meet" x="422" y="-393.327"/>
<text text-anchor="start" x="437" y="-384.53" font-family="Helvetica,sans-Serif" font-size="11.00">instance_state_id</text>
<polygon fill="none" stroke="black" points="417,-354.33 417,-376.33 611,-376.33 611,-354.33 417,-354.33"/>
<image xlink:href="../../images/foreignKeys.png" width="11px" height="12px" preserveAspectRatio="xMinYMin meet" x="422" y="-371.327"/>
<text text-anchor="start" x="437" y="-362.53" font-family="Helvetica,sans-Serif" font-size="11.00">owner_id</text>
<polygon fill="none" stroke="black" points="417,-332.33 417,-354.33 611,-354.33 611,-332.33 417,-332.33"/>
<image xlink:href="../../images/foreignKeys.png" width="11px" height="12px" preserveAspectRatio="xMinYMin meet" x="422" y="-349.327"/>
<text text-anchor="start" x="437" y="-340.53" font-family="Helvetica,sans-Serif" font-size="11.00">owning_instance_id</text>
<polygon fill="none" stroke="black" points="417,-314.33 417,-332.33 611,-332.33 611,-314.33 417,-314.33"/>
<text text-anchor="start" x="420" y="-320.53" font-family="Helvetica,sans-Serif" font-size="11.00">...</text>
<polygon fill="#ffffff" stroke="transparent" points="417,-296.33 417,-314.33 507,-314.33 507,-296.33 417,-296.33"/>
<polygon fill="none" stroke="black" points="417,-296.33 417,-314.33 507,-314.33 507,-296.33 417,-296.33"/>
<text text-anchor="start" x="420" y="-302.53" font-family="Helvetica,sans-Serif" font-size="11.00">&lt; 5</text>
<polygon fill="#ffffff" stroke="transparent" points="507,-296.33 507,-314.33 554,-314.33 554,-296.33 507,-296.33"/>
<polygon fill="none" stroke="black" points="507,-296.33 507,-314.33 554,-314.33 554,-296.33 507,-296.33"/>
<text text-anchor="start" x="544" y="-302.53" font-family="Helvetica,sans-Serif" font-size="11.00"> &#160;</text>
<polygon fill="#ffffff" stroke="transparent" points="554,-296.33 554,-314.33 611,-314.33 611,-296.33 554,-296.33"/>
<polygon fill="none" stroke="black" points="554,-296.33 554,-314.33 611,-314.33 611,-296.33 554,-296.33"/>
<text text-anchor="start" x="592" y="-302.53" font-family="Helvetica,sans-Serif" font-size="11.00">4 &gt;</text>
</a>
</g>
</g>
<!-- syst_access_account_instance_assocs&#45;&gt;syst_instances -->
<g id="edge2" class="edge">
<title>syst_access_account_instance_assocs:w&#45;&gt;syst_instances:e</title>
<path fill="none" stroke="black" d="M647.26,-532.74C634.36,-522.23 634.18,-497.33 612,-497.33"/>
<polygon fill="black" stroke="black" points="653.41,-534.79 659.86,-540.74 657.21,-536.06 661,-537.33 661,-537.33 661,-537.33 657.21,-536.06 662.14,-533.91 653.41,-534.79 653.41,-534.79"/>
<ellipse fill="none" stroke="black" cx="650.38" cy="-533.78" rx="3.2" ry="3.2"/>
</g>
<!-- syst_enum_items -->
<g id="node4" class="node">
<title>syst_enum_items</title>
<g id="a_node4"><a xlink:href="../../tables/syst_enum_items.html" xlink:title="syst_enum_items" target="_top">
<polygon fill="#ffffff" stroke="transparent" points="8,-383.33 8,-441.33 163,-441.33 163,-383.33 8,-383.33"/>
<polygon fill="#f5f5f5" stroke="transparent" points="8.5,-419.33 8.5,-441.33 163.5,-441.33 163.5,-419.33 8.5,-419.33"/>
<polygon fill="none" stroke="black" points="8.5,-419.33 8.5,-441.33 163.5,-441.33 163.5,-419.33 8.5,-419.33"/>
<text text-anchor="start" x="13.5" y="-428.53" font-family="Helvetica,sans-Serif" font-weight="bold" font-size="11.00">syst_enum_items</text>
<text text-anchor="start" x="128.5" y="-427.53" font-family="Helvetica,sans-Serif" font-size="11.00">[table]</text>
<polygon fill="none" stroke="black" points="8.5,-401.33 8.5,-419.33 163.5,-419.33 163.5,-401.33 8.5,-401.33"/>
<text text-anchor="start" x="11.5" y="-407.53" font-family="Helvetica,sans-Serif" font-size="11.00">...</text>
<polygon fill="#ffffff" stroke="transparent" points="8.5,-383.33 8.5,-401.33 79.5,-401.33 79.5,-383.33 8.5,-383.33"/>
<polygon fill="none" stroke="black" points="8.5,-383.33 8.5,-401.33 79.5,-401.33 79.5,-383.33 8.5,-383.33"/>
<text text-anchor="start" x="11.5" y="-389.53" font-family="Helvetica,sans-Serif" font-size="11.00">&lt; 2</text>
<polygon fill="#ffffff" stroke="transparent" points="79.5,-383.33 79.5,-401.33 116.5,-401.33 116.5,-383.33 79.5,-383.33"/>
<polygon fill="none" stroke="black" points="79.5,-383.33 79.5,-401.33 116.5,-401.33 116.5,-383.33 79.5,-383.33"/>
<text text-anchor="start" x="106.5" y="-389.53" font-family="Helvetica,sans-Serif" font-size="11.00"> &#160;</text>
<polygon fill="#ffffff" stroke="transparent" points="116.5,-383.33 116.5,-401.33 163.5,-401.33 163.5,-383.33 116.5,-383.33"/>
<polygon fill="none" stroke="black" points="116.5,-383.33 116.5,-401.33 163.5,-401.33 163.5,-383.33 116.5,-383.33"/>
<text text-anchor="start" x="144.5" y="-389.53" font-family="Helvetica,sans-Serif" font-size="11.00">7 &gt;</text>
</a>
</g>
</g>
<!-- syst_access_accounts&#45;&gt;syst_enum_items -->
<g id="edge3" class="edge">
<title>syst_access_accounts:w&#45;&gt;syst_enum_items:e</title>
<path fill="none" stroke="black" d="M401.37,-598.34C312.75,-598.4 270.64,-597.34 204,-531.33 163.81,-491.51 221.07,-410.33 164.5,-410.33"/>
<polygon fill="black" stroke="black" points="408,-598.33 416,-601.93 412,-598.33 416,-598.33 416,-598.33 416,-598.33 412,-598.33 416,-594.73 408,-598.33 408,-598.33"/>
<ellipse fill="none" stroke="black" cx="404.8" cy="-598.33" rx="3.2" ry="3.2"/>
</g>
<!-- syst_owners -->
<g id="node5" class="node">
<title>syst_owners</title>
<g id="a_node5"><a xlink:href="../../tables/syst_owners.html" xlink:title="syst_owners" target="_top">
<polygon fill="#ffffff" stroke="transparent" points="229,-356.33 229,-414.33 351,-414.33 351,-356.33 229,-356.33"/>
<polygon fill="#f5f5f5" stroke="transparent" points="229,-392.33 229,-414.33 351,-414.33 351,-392.33 229,-392.33"/>
<polygon fill="none" stroke="black" points="229,-392.33 229,-414.33 351,-414.33 351,-392.33 229,-392.33"/>
<text text-anchor="start" x="234" y="-401.53" font-family="Helvetica,sans-Serif" font-weight="bold" font-size="11.00">syst_owners</text>
<text text-anchor="start" x="316" y="-400.53" font-family="Helvetica,sans-Serif" font-size="11.00">[table]</text>
<polygon fill="none" stroke="black" points="229,-374.33 229,-392.33 351,-392.33 351,-374.33 229,-374.33"/>
<text text-anchor="start" x="232" y="-380.53" font-family="Helvetica,sans-Serif" font-size="11.00">...</text>
<polygon fill="#ffffff" stroke="transparent" points="229,-356.33 229,-374.33 283,-374.33 283,-356.33 229,-356.33"/>
<polygon fill="none" stroke="black" points="229,-356.33 229,-374.33 283,-374.33 283,-356.33 229,-356.33"/>
<text text-anchor="start" x="232" y="-362.53" font-family="Helvetica,sans-Serif" font-size="11.00">&lt; 1</text>
<polygon fill="#ffffff" stroke="transparent" points="283,-356.33 283,-374.33 312,-374.33 312,-356.33 283,-356.33"/>
<polygon fill="none" stroke="black" points="283,-356.33 283,-374.33 312,-374.33 312,-356.33 283,-356.33"/>
<text text-anchor="start" x="302" y="-362.53" font-family="Helvetica,sans-Serif" font-size="11.00"> &#160;</text>
<polygon fill="#ffffff" stroke="transparent" points="312,-356.33 312,-374.33 351,-374.33 351,-356.33 312,-356.33"/>
<polygon fill="none" stroke="black" points="312,-356.33 312,-374.33 351,-374.33 351,-356.33 312,-356.33"/>
<text text-anchor="start" x="332" y="-362.53" font-family="Helvetica,sans-Serif" font-size="11.00">4 &gt;</text>
</a>
</g>
</g>
<!-- syst_access_accounts&#45;&gt;syst_owners -->
<g id="edge4" class="edge">
<title>syst_access_accounts:w&#45;&gt;syst_owners:e</title>
<path fill="none" stroke="black" d="M402.68,-613.99C369.31,-576.3 401.23,-383.33 352,-383.33"/>
<polygon fill="black" stroke="black" points="408.78,-616.89 414.45,-623.58 412.39,-618.61 416,-620.33 416,-620.33 416,-620.33 412.39,-618.61 417.55,-617.08 408.78,-616.89 408.78,-616.89"/>
<ellipse fill="none" stroke="black" cx="405.89" cy="-615.51" rx="3.2" ry="3.2"/>
</g>
<!-- syst_instances&#45;&gt;syst_enum_items -->
<g id="edge13" class="edge">
<title>syst_instances:w&#45;&gt;syst_enum_items:e</title>
<path fill="none" stroke="black" d="M402.31,-382.31C392.98,-373.1 393.59,-353.74 376,-346.33 305.56,-316.64 270.76,-309.08 204,-346.33 174.81,-362.61 197.93,-410.33 164.5,-410.33"/>
<polygon fill="black" stroke="black" points="408.49,-384.57 414.76,-390.71 412.24,-385.95 416,-387.33 416,-387.33 416,-387.33 412.24,-385.95 417.24,-383.95 408.49,-384.57 408.49,-384.57"/>
<ellipse fill="none" stroke="black" cx="405.48" cy="-383.47" rx="3.2" ry="3.2"/>
</g>
<!-- syst_instances&#45;&gt;syst_enum_items -->
<g id="edge14" class="edge">
<title>syst_instances:w&#45;&gt;syst_enum_items:e</title>
<path fill="none" stroke="black" d="M401.75,-412.44C393.82,-416.36 388.78,-422.87 376,-425.33 300.93,-439.78 279.19,-439.12 204,-425.33 185.53,-421.94 183.28,-410.33 164.5,-410.33"/>
<polygon fill="black" stroke="black" points="408.18,-411.04 416.77,-412.84 412.09,-410.18 416,-409.33 416,-409.33 416,-409.33 412.09,-410.18 415.23,-405.81 408.18,-411.04 408.18,-411.04"/>
<ellipse fill="none" stroke="black" cx="405.06" cy="-411.72" rx="3.2" ry="3.2"/>
</g>
<!-- syst_instances&#45;&gt;syst_owners -->
<g id="edge15" class="edge">
<title>syst_instances:w&#45;&gt;syst_owners:e</title>
<path fill="none" stroke="black" d="M401.65,-366.99C383.75,-371.44 376.01,-383.33 352,-383.33"/>
<polygon fill="black" stroke="black" points="408.05,-366.25 416.41,-368.9 412.03,-365.79 416,-365.33 416,-365.33 416,-365.33 412.03,-365.79 415.59,-361.75 408.05,-366.25 408.05,-366.25"/>
<ellipse fill="none" stroke="black" cx="404.87" cy="-366.61" rx="3.2" ry="3.2"/>
</g>
<!-- syst_applications -->
<g id="node10" class="node">
<title>syst_applications</title>
<g id="a_node10"><a xlink:href="../../tables/syst_applications.html" xlink:title="syst_applications" target="_top">
<polygon fill="#ffffff" stroke="transparent" points="212,-462.33 212,-520.33 368,-520.33 368,-462.33 212,-462.33"/>
<polygon fill="#f5f5f5" stroke="transparent" points="212,-498.33 212,-520.33 368,-520.33 368,-498.33 212,-498.33"/>
<polygon fill="none" stroke="black" points="212,-498.33 212,-520.33 368,-520.33 368,-498.33 212,-498.33"/>
<text text-anchor="start" x="217" y="-507.53" font-family="Helvetica,sans-Serif" font-weight="bold" font-size="11.00">syst_applications</text>
<text text-anchor="start" x="333" y="-506.53" font-family="Helvetica,sans-Serif" font-size="11.00">[table]</text>
<polygon fill="none" stroke="black" points="212,-480.33 212,-498.33 368,-498.33 368,-480.33 212,-480.33"/>
<text text-anchor="start" x="215" y="-486.53" font-family="Helvetica,sans-Serif" font-size="11.00">...</text>
<polygon fill="#ffffff" stroke="transparent" points="212,-462.33 212,-480.33 279,-480.33 279,-462.33 212,-462.33"/>
<polygon fill="none" stroke="black" points="212,-462.33 212,-480.33 279,-480.33 279,-462.33 212,-462.33"/>
<text text-anchor="start" x="215" y="-468.53" font-family="Helvetica,sans-Serif" font-size="11.00"> &#160;</text>
<polygon fill="#ffffff" stroke="transparent" points="279,-462.33 279,-480.33 319,-480.33 319,-462.33 279,-462.33"/>
<polygon fill="none" stroke="black" points="279,-462.33 279,-480.33 319,-480.33 319,-462.33 279,-462.33"/>
<text text-anchor="start" x="309" y="-468.53" font-family="Helvetica,sans-Serif" font-size="11.00"> &#160;</text>
<polygon fill="#ffffff" stroke="transparent" points="319,-462.33 319,-480.33 368,-480.33 368,-462.33 319,-462.33"/>
<polygon fill="none" stroke="black" points="319,-462.33 319,-480.33 368,-480.33 368,-462.33 319,-462.33"/>
<text text-anchor="start" x="349" y="-468.53" font-family="Helvetica,sans-Serif" font-size="11.00">3 &gt;</text>
</a>
</g>
</g>
<!-- syst_instances&#45;&gt;syst_applications -->
<g id="edge12" class="edge">
<title>syst_instances:w&#45;&gt;syst_applications:e</title>
<path fill="none" stroke="black" d="M402.19,-436.68C388.23,-451.04 395.96,-489.33 369,-489.33"/>
<polygon fill="black" stroke="black" points="408.54,-434.22 417.3,-434.68 412.27,-432.77 416,-431.33 416,-431.33 416,-431.33 412.27,-432.77 414.7,-427.97 408.54,-434.22 408.54,-434.22"/>
<ellipse fill="none" stroke="black" cx="405.56" cy="-435.37" rx="3.2" ry="3.2"/>
</g>
<!-- syst_owners&#45;&gt;syst_enum_items -->
<g id="edge16" class="edge">
<title>syst_owners:w&#45;&gt;syst_enum_items:e</title>
<path fill="none" stroke="black" d="M213.64,-385.72C195.58,-392.33 189.54,-410.33 164.5,-410.33"/>
<polygon fill="black" stroke="black" points="220.11,-384.64 228.59,-386.88 224.05,-383.98 228,-383.33 228,-383.33 228,-383.33 224.05,-383.98 227.41,-379.78 220.11,-384.64 220.11,-384.64"/>
<ellipse fill="none" stroke="black" cx="216.95" cy="-385.17" rx="3.2" ry="3.2"/>
</g>
<!-- syst_credentials -->
<g id="node6" class="node">
<title>syst_credentials</title>
<g id="a_node6"><a xlink:href="../../tables/syst_credentials.html" xlink:title="syst_credentials" target="_top">
<polygon fill="#ffffff" stroke="transparent" points="1079,-692.33 1079,-750.33 1228,-750.33 1228,-692.33 1079,-692.33"/>
<polygon fill="#f5f5f5" stroke="transparent" points="1079.5,-728.33 1079.5,-750.33 1228.5,-750.33 1228.5,-728.33 1079.5,-728.33"/>
<polygon fill="none" stroke="black" points="1079.5,-728.33 1079.5,-750.33 1228.5,-750.33 1228.5,-728.33 1079.5,-728.33"/>
<text text-anchor="start" x="1084.5" y="-737.53" font-family="Helvetica,sans-Serif" font-weight="bold" font-size="11.00">syst_credentials</text>
<text text-anchor="start" x="1193.5" y="-736.53" font-family="Helvetica,sans-Serif" font-size="11.00">[table]</text>
<polygon fill="none" stroke="black" points="1079.5,-710.33 1079.5,-728.33 1228.5,-728.33 1228.5,-710.33 1079.5,-710.33"/>
<text text-anchor="start" x="1082.5" y="-716.53" font-family="Helvetica,sans-Serif" font-size="11.00">...</text>
<polygon fill="#ffffff" stroke="transparent" points="1079.5,-692.33 1079.5,-710.33 1151.5,-710.33 1151.5,-692.33 1079.5,-692.33"/>
<polygon fill="none" stroke="black" points="1079.5,-692.33 1079.5,-710.33 1151.5,-710.33 1151.5,-692.33 1079.5,-692.33"/>
<text text-anchor="start" x="1082.5" y="-698.53" font-family="Helvetica,sans-Serif" font-size="11.00">&lt; 3</text>
<polygon fill="#ffffff" stroke="transparent" points="1151.5,-692.33 1151.5,-710.33 1189.5,-710.33 1189.5,-692.33 1151.5,-692.33"/>
<polygon fill="none" stroke="black" points="1151.5,-692.33 1151.5,-710.33 1189.5,-710.33 1189.5,-692.33 1151.5,-692.33"/>
<text text-anchor="start" x="1179.5" y="-698.53" font-family="Helvetica,sans-Serif" font-size="11.00"> &#160;</text>
<polygon fill="#ffffff" stroke="transparent" points="1189.5,-692.33 1189.5,-710.33 1228.5,-710.33 1228.5,-692.33 1189.5,-692.33"/>
<polygon fill="none" stroke="black" points="1189.5,-692.33 1189.5,-710.33 1228.5,-710.33 1228.5,-692.33 1189.5,-692.33"/>
<text text-anchor="start" x="1218.5" y="-698.53" font-family="Helvetica,sans-Serif" font-size="11.00"> &#160;</text>
</a>
</g>
</g>
<!-- syst_credentials&#45;&gt;syst_access_accounts -->
<g id="edge5" class="edge">
<title>syst_credentials:w&#45;&gt;syst_access_accounts:e</title>
<path fill="none" stroke="black" d="M1063.89,-719.49C960.58,-721.64 734.43,-743.15 652,-706.33 628.46,-695.81 637.78,-664.33 612,-664.33"/>
<polygon fill="black" stroke="black" points="1070.5,-719.42 1078.54,-722.93 1074.5,-719.37 1078.5,-719.33 1078.5,-719.33 1078.5,-719.33 1074.5,-719.37 1078.46,-715.73 1070.5,-719.42 1070.5,-719.42"/>
<ellipse fill="none" stroke="black" cx="1067.3" cy="-719.45" rx="3.2" ry="3.2"/>
</g>
<!-- syst_credentials&#45;&gt;syst_enum_items -->
<g id="edge7" class="edge">
<title>syst_credentials:w&#45;&gt;syst_enum_items:e</title>
<path fill="none" stroke="black" d="M1066.25,-711.6C1019.3,-642.98 1085.23,-139.59 1038,-95.33 912.83,21.99 819.04,-56.21 652,-95.33 435.64,-145.99 356.47,-155.67 204,-317.33 173.19,-349.99 209.41,-410.33 164.5,-410.33"/>
<polygon fill="black" stroke="black" points="1071.73,-715.06 1076.58,-722.37 1075.12,-717.19 1078.5,-719.33 1078.5,-719.33 1078.5,-719.33 1075.12,-717.19 1080.42,-716.28 1071.73,-715.06 1071.73,-715.06"/>
<ellipse fill="none" stroke="black" cx="1069.03" cy="-713.35" rx="3.2" ry="3.2"/>
</g>
<!-- syst_identities -->
<g id="node7" class="node">
<title>syst_identities</title>
<g id="a_node7"><a xlink:href="../../tables/syst_identities.html" xlink:title="syst_identities" target="_top">
<polygon fill="#ffffff" stroke="transparent" points="776,-743.33 776,-801.33 914,-801.33 914,-743.33 776,-743.33"/>
<polygon fill="#f5f5f5" stroke="transparent" points="776,-779.33 776,-801.33 914,-801.33 914,-779.33 776,-779.33"/>
<polygon fill="none" stroke="black" points="776,-779.33 776,-801.33 914,-801.33 914,-779.33 776,-779.33"/>
<text text-anchor="start" x="781" y="-788.53" font-family="Helvetica,sans-Serif" font-weight="bold" font-size="11.00">syst_identities</text>
<text text-anchor="start" x="879" y="-787.53" font-family="Helvetica,sans-Serif" font-size="11.00">[table]</text>
<polygon fill="none" stroke="black" points="776,-761.33 776,-779.33 914,-779.33 914,-761.33 776,-761.33"/>
<text text-anchor="start" x="779" y="-767.53" font-family="Helvetica,sans-Serif" font-size="11.00">...</text>
<polygon fill="#ffffff" stroke="transparent" points="776,-743.33 776,-761.33 838,-761.33 838,-743.33 776,-743.33"/>
<polygon fill="none" stroke="black" points="776,-743.33 776,-761.33 838,-761.33 838,-743.33 776,-743.33"/>
<text text-anchor="start" x="779" y="-749.53" font-family="Helvetica,sans-Serif" font-size="11.00">&lt; 3</text>
<polygon fill="#ffffff" stroke="transparent" points="838,-743.33 838,-761.33 871,-761.33 871,-743.33 838,-743.33"/>
<polygon fill="none" stroke="black" points="838,-743.33 838,-761.33 871,-761.33 871,-743.33 838,-743.33"/>
<text text-anchor="start" x="861" y="-749.53" font-family="Helvetica,sans-Serif" font-size="11.00"> &#160;</text>
<polygon fill="#ffffff" stroke="transparent" points="871,-743.33 871,-761.33 914,-761.33 914,-743.33 871,-743.33"/>
<polygon fill="none" stroke="black" points="871,-743.33 871,-761.33 914,-761.33 914,-743.33 871,-743.33"/>
<text text-anchor="start" x="895" y="-749.53" font-family="Helvetica,sans-Serif" font-size="11.00">2 &gt;</text>
</a>
</g>
</g>
<!-- syst_credentials&#45;&gt;syst_identities -->
<g id="edge6" class="edge">
<title>syst_credentials:w&#45;&gt;syst_identities:e</title>
<path fill="none" stroke="black" d="M1064.22,-722.21C1025.43,-733 931.28,-770.33 915,-770.33"/>
<polygon fill="black" stroke="black" points="1070.66,-720.91 1079.21,-722.86 1074.58,-720.12 1078.5,-719.33 1078.5,-719.33 1078.5,-719.33 1074.58,-720.12 1077.79,-715.8 1070.66,-720.91 1070.66,-720.91"/>
<ellipse fill="none" stroke="black" cx="1067.52" cy="-721.55" rx="3.2" ry="3.2"/>
</g>
<!-- syst_identities&#45;&gt;syst_access_accounts -->
<g id="edge8" class="edge">
<title>syst_identities:w&#45;&gt;syst_access_accounts:e</title>
<path fill="none" stroke="black" d="M760.33,-770.18C713.54,-769.15 693.09,-761.91 652,-729.33 625.42,-708.25 645.92,-664.33 612,-664.33"/>
<polygon fill="black" stroke="black" points="767,-770.25 774.96,-773.93 771,-770.29 775,-770.33 775,-770.33 775,-770.33 771,-770.29 775.04,-766.73 767,-770.25 767,-770.25"/>
<ellipse fill="none" stroke="black" cx="763.8" cy="-770.22" rx="3.2" ry="3.2"/>
</g>
<!-- syst_identities&#45;&gt;syst_enum_items -->
<g id="edge9" class="edge">
<title>syst_identities:w&#45;&gt;syst_enum_items:e</title>
<path fill="none" stroke="black" d="M760.57,-770.35C501.34,-771.09 355.82,-789.65 204,-574.33 160.8,-513.05 239.47,-410.33 164.5,-410.33"/>
<polygon fill="black" stroke="black" points="767,-770.34 775.01,-773.93 771,-770.33 775,-770.33 775,-770.33 775,-770.33 771,-770.33 774.99,-766.73 767,-770.34 767,-770.34"/>
<ellipse fill="none" stroke="black" cx="763.8" cy="-770.34" rx="3.2" ry="3.2"/>
</g>
<!-- syst_instance_contexts -->
<g id="node8" class="node">
<title>syst_instance_contexts</title>
<g id="a_node8"><a xlink:href="../../tables/syst_instance_contexts.html" xlink:title="syst_instance_contexts" target="_top">
<polygon fill="#ffffff" stroke="transparent" points="747.5,-185.33 747.5,-243.33 942.5,-243.33 942.5,-185.33 747.5,-185.33"/>
<polygon fill="#f5f5f5" stroke="transparent" points="748,-221.33 748,-243.33 943,-243.33 943,-221.33 748,-221.33"/>
<polygon fill="none" stroke="black" points="748,-221.33 748,-243.33 943,-243.33 943,-221.33 748,-221.33"/>
<text text-anchor="start" x="753" y="-230.53" font-family="Helvetica,sans-Serif" font-weight="bold" font-size="11.00">syst_instance_contexts</text>
<text text-anchor="start" x="908" y="-229.53" font-family="Helvetica,sans-Serif" font-size="11.00">[table]</text>
<polygon fill="none" stroke="black" points="748,-203.33 748,-221.33 943,-221.33 943,-203.33 748,-203.33"/>
<text text-anchor="start" x="751" y="-209.53" font-family="Helvetica,sans-Serif" font-size="11.00">...</text>
<polygon fill="#ffffff" stroke="transparent" points="748,-185.33 748,-203.33 843,-203.33 843,-185.33 748,-185.33"/>
<polygon fill="none" stroke="black" points="748,-185.33 748,-203.33 843,-203.33 843,-185.33 748,-185.33"/>
<text text-anchor="start" x="751" y="-191.53" font-family="Helvetica,sans-Serif" font-size="11.00">&lt; 2</text>
<polygon fill="#ffffff" stroke="transparent" points="843,-185.33 843,-203.33 893,-203.33 893,-185.33 843,-185.33"/>
<polygon fill="none" stroke="black" points="843,-185.33 843,-203.33 893,-203.33 893,-185.33 843,-185.33"/>
<text text-anchor="start" x="883" y="-191.53" font-family="Helvetica,sans-Serif" font-size="11.00"> &#160;</text>
<polygon fill="#ffffff" stroke="transparent" points="893,-185.33 893,-203.33 943,-203.33 943,-185.33 893,-185.33"/>
<polygon fill="none" stroke="black" points="893,-185.33 893,-203.33 943,-203.33 943,-185.33 893,-185.33"/>
<text text-anchor="start" x="933" y="-191.53" font-family="Helvetica,sans-Serif" font-size="11.00"> &#160;</text>
</a>
</g>
</g>
<!-- syst_instance_contexts&#45;&gt;syst_instances -->
<g id="edge10" class="edge">
<title>syst_instance_contexts:w&#45;&gt;syst_instances:e</title>
<path fill="none" stroke="black" d="M732.3,-212.55C696.22,-213.81 677.1,-221.19 652,-253.33 618.18,-296.63 666.95,-497.33 612,-497.33"/>
<polygon fill="black" stroke="black" points="739,-212.45 747.05,-215.93 743,-212.39 747,-212.33 747,-212.33 747,-212.33 743,-212.39 746.95,-208.73 739,-212.45 739,-212.45"/>
<ellipse fill="none" stroke="black" cx="735.8" cy="-212.5" rx="3.2" ry="3.2"/>
</g>
<!-- syst_instance_network_rules -->
<g id="node9" class="node">
<title>syst_instance_network_rules</title>
<g id="a_node9"><a xlink:href="../../tables/syst_instance_network_rules.html" xlink:title="syst_instance_network_rules" target="_top">
<polygon fill="#ffffff" stroke="transparent" points="729,-106.33 729,-164.33 961,-164.33 961,-106.33 729,-106.33"/>
<polygon fill="#f5f5f5" stroke="transparent" points="729,-142.33 729,-164.33 961,-164.33 961,-142.33 729,-142.33"/>
<polygon fill="none" stroke="black" points="729,-142.33 729,-164.33 961,-164.33 961,-142.33 729,-142.33"/>
<text text-anchor="start" x="734" y="-151.53" font-family="Helvetica,sans-Serif" font-weight="bold" font-size="11.00">syst_instance_network_rules</text>
<text text-anchor="start" x="926" y="-150.53" font-family="Helvetica,sans-Serif" font-size="11.00">[table]</text>
<polygon fill="none" stroke="black" points="729,-124.33 729,-142.33 961,-142.33 961,-124.33 729,-124.33"/>
<text text-anchor="start" x="732" y="-130.53" font-family="Helvetica,sans-Serif" font-size="11.00">...</text>
<polygon fill="#ffffff" stroke="transparent" points="729,-106.33 729,-124.33 843,-124.33 843,-106.33 729,-106.33"/>
<polygon fill="none" stroke="black" points="729,-106.33 729,-124.33 843,-124.33 843,-106.33 729,-106.33"/>
<text text-anchor="start" x="732" y="-112.53" font-family="Helvetica,sans-Serif" font-size="11.00">&lt; 1</text>
<polygon fill="#ffffff" stroke="transparent" points="843,-106.33 843,-124.33 902,-124.33 902,-106.33 843,-106.33"/>
<polygon fill="none" stroke="black" points="843,-106.33 843,-124.33 902,-124.33 902,-106.33 843,-106.33"/>
<text text-anchor="start" x="892" y="-112.53" font-family="Helvetica,sans-Serif" font-size="11.00"> &#160;</text>
<polygon fill="#ffffff" stroke="transparent" points="902,-106.33 902,-124.33 961,-124.33 961,-106.33 902,-106.33"/>
<polygon fill="none" stroke="black" points="902,-106.33 902,-124.33 961,-124.33 961,-106.33 902,-106.33"/>
<text text-anchor="start" x="951" y="-112.53" font-family="Helvetica,sans-Serif" font-size="11.00"> &#160;</text>
</a>
</g>
</g>
<!-- syst_instance_network_rules&#45;&gt;syst_instances -->
<g id="edge11" class="edge">
<title>syst_instance_network_rules:w&#45;&gt;syst_instances:e</title>
<path fill="none" stroke="black" d="M713.44,-133.88C685.15,-136.29 670.7,-146.97 652,-174.33 611.18,-234.03 684.33,-497.33 612,-497.33"/>
<polygon fill="black" stroke="black" points="720.01,-133.63 728.14,-136.92 724,-133.48 728,-133.33 728,-133.33 728,-133.33 724,-133.48 727.86,-129.73 720.01,-133.63 720.01,-133.63"/>
<ellipse fill="none" stroke="black" cx="716.81" cy="-133.75" rx="3.2" ry="3.2"/>
</g>
<!-- syst_password_history -->
<g id="node11" class="node">
<title>syst_password_history</title>
<g id="a_node11"><a xlink:href="../../tables/syst_password_history.html" xlink:title="syst_password_history" target="_top">
<polygon fill="#ffffff" stroke="transparent" points="749,-637.33 749,-695.33 941,-695.33 941,-637.33 749,-637.33"/>
<polygon fill="#f5f5f5" stroke="transparent" points="749,-673.33 749,-695.33 941,-695.33 941,-673.33 749,-673.33"/>
<polygon fill="none" stroke="black" points="749,-673.33 749,-695.33 941,-695.33 941,-673.33 749,-673.33"/>
<text text-anchor="start" x="754" y="-682.53" font-family="Helvetica,sans-Serif" font-weight="bold" font-size="11.00">syst_password_history</text>
<text text-anchor="start" x="906" y="-681.53" font-family="Helvetica,sans-Serif" font-size="11.00">[table]</text>
<polygon fill="none" stroke="black" points="749,-655.33 749,-673.33 941,-673.33 941,-655.33 749,-655.33"/>
<text text-anchor="start" x="752" y="-661.53" font-family="Helvetica,sans-Serif" font-size="11.00">...</text>
<polygon fill="#ffffff" stroke="transparent" points="749,-637.33 749,-655.33 843,-655.33 843,-637.33 749,-637.33"/>
<polygon fill="none" stroke="black" points="749,-637.33 749,-655.33 843,-655.33 843,-637.33 749,-637.33"/>
<text text-anchor="start" x="752" y="-643.53" font-family="Helvetica,sans-Serif" font-size="11.00">&lt; 1</text>
<polygon fill="#ffffff" stroke="transparent" points="843,-637.33 843,-655.33 892,-655.33 892,-637.33 843,-637.33"/>
<polygon fill="none" stroke="black" points="843,-637.33 843,-655.33 892,-655.33 892,-637.33 843,-637.33"/>
<text text-anchor="start" x="882" y="-643.53" font-family="Helvetica,sans-Serif" font-size="11.00"> &#160;</text>
<polygon fill="#ffffff" stroke="transparent" points="892,-637.33 892,-655.33 941,-655.33 941,-637.33 892,-637.33"/>
<polygon fill="none" stroke="black" points="892,-637.33 892,-655.33 941,-655.33 941,-637.33 892,-637.33"/>
<text text-anchor="start" x="931" y="-643.53" font-family="Helvetica,sans-Serif" font-size="11.00"> &#160;</text>
</a>
</g>
</g>
<!-- syst_password_history&#45;&gt;syst_access_accounts -->
<g id="edge17" class="edge">
<title>syst_password_history:w&#45;&gt;syst_access_accounts:e</title>
<path fill="none" stroke="black" d="M733.36,-664.33C684.62,-664.33 667.25,-664.33 612,-664.33"/>
<polygon fill="black" stroke="black" points="740,-664.33 748,-667.93 744,-664.33 748,-664.33 748,-664.33 748,-664.33 744,-664.33 748,-660.73 740,-664.33 740,-664.33"/>
<ellipse fill="none" stroke="black" cx="736.8" cy="-664.33" rx="3.2" ry="3.2"/>
</g>
</g>
</svg>
