<?xml version="1.0" encoding="UTF-8" standalone="no"?>
<!DOCTYPE svg PUBLIC "-//W3C//DTD SVG 1.1//EN"
 "http://www.w3.org/Graphics/SVG/1.1/DTD/svg11.dtd">
<!-- Generated by graphviz version 2.43.0 (0)
 -->
<!-- Title: twoDegreesRelationshipsDiagram Pages: 1 -->
<svg width="1286pt" height="816pt"
 viewBox="0.00 0.00 1286.00 815.61" xmlns="http://www.w3.org/2000/svg" xmlns:xlink="http://www.w3.org/1999/xlink">
<g id="graph0" class="graph" transform="scale(1 1) rotate(0) translate(4 811.61)">
<title>twoDegreesRelationshipsDiagram</title>
<polygon fill="#ffffff" stroke="transparent" points="-4,4 -4,-811.61 1282,-811.61 1282,4 -4,4"/>
<text text-anchor="middle" x="79.5" y="-7.2" font-family="Helvetica,sans-Serif" font-size="11.00">Generated by SchemaSpy</text>
<!-- syst_access_account_instance_assocs -->
<g id="node1" class="node">
<title>syst_access_account_instance_assocs</title>
<g id="a_node1"><a xlink:href="../../tables/syst_access_account_instance_assocs.html" xlink:title="syst_access_account_instance_assocs" target="_top">
<polygon fill="#ffffff" stroke="transparent" points="679,-266.61 679,-618.61 1065,-618.61 1065,-266.61 679,-266.61"/>
<polygon fill="#f5f5f5" stroke="transparent" points="681,-594.61 681,-616.61 1063,-616.61 1063,-594.61 681,-594.61"/>
<polygon fill="none" stroke="black" points="681,-594.61 681,-616.61 1063,-616.61 1063,-594.61 681,-594.61"/>
<text text-anchor="start" x="686" y="-603.81" font-family="Helvetica,sans-Serif" font-weight="bold" font-size="11.00">syst_access_account_instance_assocs</text>
<text text-anchor="start" x="1021" y="-602.81" font-family="Helvetica,sans-Serif" font-size="11.00">[table]</text>
<polygon fill="none" stroke="black" points="681,-572.61 681,-594.61 954,-594.61 954,-572.61 681,-572.61"/>
<image xlink:href="../../images/primaryKeys.png" width="11px" height="12px" preserveAspectRatio="xMinYMin meet" x="686" y="-589.609"/>
<text text-anchor="start" x="701" y="-580.81" font-family="Helvetica,sans-Serif" font-size="11.00">id</text>
<polygon fill="none" stroke="black" points="954,-572.61 954,-594.61 1063,-594.61 1063,-572.61 954,-572.61"/>
<text text-anchor="start" x="957" y="-580.81" font-family="Helvetica,sans-Serif" font-size="11.00">uuid[2147483647]</text>
<polygon fill="#ffffff" stroke="transparent" points="681,-550.61 681,-572.61 954,-572.61 954,-550.61 681,-550.61"/>
<polygon fill="none" stroke="black" points="681,-550.61 681,-572.61 954,-572.61 954,-550.61 681,-550.61"/>
<image xlink:href="../../images/foreignKeys.png" width="11px" height="12px" preserveAspectRatio="xMinYMin meet" x="686" y="-567.609"/>
<text text-anchor="start" x="701" y="-558.81" font-family="Helvetica,sans-Serif" font-size="11.00">access_account_id</text>
<polygon fill="none" stroke="black" points="954,-550.61 954,-572.61 1063,-572.61 1063,-550.61 954,-550.61"/>
<text text-anchor="start" x="957" y="-558.81" font-family="Helvetica,sans-Serif" font-size="11.00">uuid[2147483647]</text>
<polygon fill="#ffffff" stroke="transparent" points="681,-528.61 681,-550.61 954,-550.61 954,-528.61 681,-528.61"/>
<polygon fill="none" stroke="black" points="681,-528.61 681,-550.61 954,-550.61 954,-528.61 681,-528.61"/>
<image xlink:href="../../images/foreignKeys.png" width="11px" height="12px" preserveAspectRatio="xMinYMin meet" x="686" y="-545.609"/>
<text text-anchor="start" x="701" y="-536.81" font-family="Helvetica,sans-Serif" font-size="11.00">instance_id</text>
<polygon fill="none" stroke="black" points="954,-528.61 954,-550.61 1063,-550.61 1063,-528.61 954,-528.61"/>
<text text-anchor="start" x="957" y="-536.81" font-family="Helvetica,sans-Serif" font-size="11.00">uuid[2147483647]</text>
<polygon fill="none" stroke="black" points="681,-506.61 681,-528.61 954,-528.61 954,-506.61 681,-506.61"/>
<text text-anchor="start" x="701" y="-514.81" font-family="Helvetica,sans-Serif" font-size="11.00">access_granted</text>
<polygon fill="none" stroke="black" points="954,-506.61 954,-528.61 1063,-528.61 1063,-506.61 954,-506.61"/>
<text text-anchor="start" x="957" y="-514.81" font-family="Helvetica,sans-Serif" font-size="11.00">timestamptz[35,6]</text>
<polygon fill="none" stroke="black" points="681,-484.61 681,-506.61 954,-506.61 954,-484.61 681,-484.61"/>
<text text-anchor="start" x="701" y="-492.81" font-family="Helvetica,sans-Serif" font-size="11.00">invitation_issued</text>
<polygon fill="none" stroke="black" points="954,-484.61 954,-506.61 1063,-506.61 1063,-484.61 954,-484.61"/>
<text text-anchor="start" x="957" y="-492.81" font-family="Helvetica,sans-Serif" font-size="11.00">timestamptz[35,6]</text>
<polygon fill="none" stroke="black" points="681,-462.61 681,-484.61 954,-484.61 954,-462.61 681,-462.61"/>
<text text-anchor="start" x="701" y="-470.81" font-family="Helvetica,sans-Serif" font-size="11.00">invitation_expires</text>
<polygon fill="none" stroke="black" points="954,-462.61 954,-484.61 1063,-484.61 1063,-462.61 954,-462.61"/>
<text text-anchor="start" x="957" y="-470.81" font-family="Helvetica,sans-Serif" font-size="11.00">timestamptz[35,6]</text>
<polygon fill="none" stroke="black" points="681,-440.61 681,-462.61 954,-462.61 954,-440.61 681,-440.61"/>
<text text-anchor="start" x="701" y="-448.81" font-family="Helvetica,sans-Serif" font-size="11.00">invitation_declined</text>
<polygon fill="none" stroke="black" points="954,-440.61 954,-462.61 1063,-462.61 1063,-440.61 954,-440.61"/>
<text text-anchor="start" x="957" y="-448.81" font-family="Helvetica,sans-Serif" font-size="11.00">timestamptz[35,6]</text>
<polygon fill="none" stroke="black" points="681,-418.61 681,-440.61 954,-440.61 954,-418.61 681,-418.61"/>
<text text-anchor="start" x="701" y="-426.81" font-family="Helvetica,sans-Serif" font-size="11.00">diag_timestamp_created</text>
<polygon fill="none" stroke="black" points="954,-418.61 954,-440.61 1063,-440.61 1063,-418.61 954,-418.61"/>
<text text-anchor="start" x="957" y="-426.81" font-family="Helvetica,sans-Serif" font-size="11.00">timestamptz[35,6]</text>
<polygon fill="none" stroke="black" points="681,-396.61 681,-418.61 954,-418.61 954,-396.61 681,-396.61"/>
<text text-anchor="start" x="701" y="-404.81" font-family="Helvetica,sans-Serif" font-size="11.00">diag_role_created</text>
<polygon fill="none" stroke="black" points="954,-396.61 954,-418.61 1063,-418.61 1063,-396.61 954,-396.61"/>
<text text-anchor="start" x="957" y="-404.81" font-family="Helvetica,sans-Serif" font-size="11.00">text[2147483647]</text>
<polygon fill="none" stroke="black" points="681,-374.61 681,-396.61 954,-396.61 954,-374.61 681,-374.61"/>
<text text-anchor="start" x="701" y="-382.81" font-family="Helvetica,sans-Serif" font-size="11.00">diag_timestamp_modified</text>
<polygon fill="none" stroke="black" points="954,-374.61 954,-396.61 1063,-396.61 1063,-374.61 954,-374.61"/>
<text text-anchor="start" x="957" y="-382.81" font-family="Helvetica,sans-Serif" font-size="11.00">timestamptz[35,6]</text>
<polygon fill="none" stroke="black" points="681,-352.61 681,-374.61 954,-374.61 954,-352.61 681,-352.61"/>
<text text-anchor="start" x="701" y="-360.81" font-family="Helvetica,sans-Serif" font-size="11.00">diag_wallclock_modified</text>
<polygon fill="none" stroke="black" points="954,-352.61 954,-374.61 1063,-374.61 1063,-352.61 954,-352.61"/>
<text text-anchor="start" x="957" y="-360.81" font-family="Helvetica,sans-Serif" font-size="11.00">timestamptz[35,6]</text>
<polygon fill="none" stroke="black" points="681,-330.61 681,-352.61 954,-352.61 954,-330.61 681,-330.61"/>
<text text-anchor="start" x="701" y="-338.81" font-family="Helvetica,sans-Serif" font-size="11.00">diag_role_modified</text>
<polygon fill="none" stroke="black" points="954,-330.61 954,-352.61 1063,-352.61 1063,-330.61 954,-330.61"/>
<text text-anchor="start" x="957" y="-338.81" font-family="Helvetica,sans-Serif" font-size="11.00">text[2147483647]</text>
<polygon fill="none" stroke="black" points="681,-308.61 681,-330.61 954,-330.61 954,-308.61 681,-308.61"/>
<text text-anchor="start" x="701" y="-316.81" font-family="Helvetica,sans-Serif" font-size="11.00">diag_row_version</text>
<polygon fill="none" stroke="black" points="954,-308.61 954,-330.61 1063,-330.61 1063,-308.61 954,-308.61"/>
<text text-anchor="start" x="957" y="-316.81" font-family="Helvetica,sans-Serif" font-size="11.00">int8[19]</text>
<polygon fill="none" stroke="black" points="681,-286.61 681,-308.61 954,-308.61 954,-286.61 681,-286.61"/>
<text text-anchor="start" x="701" y="-294.81" font-family="Helvetica,sans-Serif" font-size="11.00">diag_update_count</text>
<polygon fill="none" stroke="black" points="954,-286.61 954,-308.61 1063,-308.61 1063,-286.61 954,-286.61"/>
<text text-anchor="start" x="957" y="-294.81" font-family="Helvetica,sans-Serif" font-size="11.00">int8[19]</text>
<polygon fill="#ffffff" stroke="transparent" points="681,-268.61 681,-286.61 823,-286.61 823,-268.61 681,-268.61"/>
<polygon fill="none" stroke="black" points="681,-268.61 681,-286.61 823,-286.61 823,-268.61 681,-268.61"/>
<text text-anchor="start" x="684" y="-274.81" font-family="Helvetica,sans-Serif" font-size="11.00">&lt; 2</text>
<polygon fill="#ffffff" stroke="transparent" points="823,-268.61 823,-286.61 954,-286.61 954,-268.61 823,-268.61"/>
<polygon fill="none" stroke="black" points="823,-268.61 823,-286.61 954,-286.61 954,-268.61 823,-268.61"/>
<text text-anchor="start" x="943" y="-274.81" font-family="Helvetica,sans-Serif" font-size="11.00"> &#160;</text>
<polygon fill="#ffffff" stroke="transparent" points="954,-268.61 954,-286.61 1063,-286.61 1063,-268.61 954,-268.61"/>
<polygon fill="none" stroke="black" points="954,-268.61 954,-286.61 1063,-286.61 1063,-268.61 954,-268.61"/>
<text text-anchor="start" x="1040" y="-274.81" font-family="Helvetica,sans-Serif" font-size="11.00">0 &gt;</text>
<polygon fill="none" stroke="black" stroke-width="2" points="680,-267.61 680,-617.61 1064,-617.61 1064,-267.61 680,-267.61"/>
</a>
</g>
</g>
<!-- syst_access_accounts -->
<g id="node2" class="node">
<title>syst_access_accounts</title>
<g id="a_node2"><a xlink:href="../../tables/syst_access_accounts.html" xlink:title="syst_access_accounts" target="_top">
<polygon fill="#ffffff" stroke="transparent" points="433.5,-553.61 433.5,-699.61 627.5,-699.61 627.5,-553.61 433.5,-553.61"/>
<polygon fill="#f5f5f5" stroke="transparent" points="433.5,-677.61 433.5,-699.61 627.5,-699.61 627.5,-677.61 433.5,-677.61"/>
<polygon fill="none" stroke="black" points="433.5,-677.61 433.5,-699.61 627.5,-699.61 627.5,-677.61 433.5,-677.61"/>
<text text-anchor="start" x="438.5" y="-686.81" font-family="Helvetica,sans-Serif" font-weight="bold" font-size="11.00">syst_access_accounts</text>
<text text-anchor="start" x="585.5" y="-685.81" font-family="Helvetica,sans-Serif" font-size="11.00">[table]</text>
<polygon fill="none" stroke="black" points="433.5,-655.61 433.5,-677.61 627.5,-677.61 627.5,-655.61 433.5,-655.61"/>
<image xlink:href="../../images/primaryKeys.png" width="11px" height="12px" preserveAspectRatio="xMinYMin meet" x="438.5" y="-672.609"/>
<text text-anchor="start" x="453.5" y="-663.81" font-family="Helvetica,sans-Serif" font-size="11.00">id</text>
<polygon fill="#ffffff" stroke="transparent" points="433.5,-633.61 433.5,-655.61 627.5,-655.61 627.5,-633.61 433.5,-633.61"/>
<polygon fill="none" stroke="black" points="433.5,-633.61 433.5,-655.61 627.5,-655.61 627.5,-633.61 433.5,-633.61"/>
<text text-anchor="start" x="453.5" y="-641.81" font-family="Helvetica,sans-Serif" font-size="11.00">internal_name</text>
<polygon fill="none" stroke="black" points="433.5,-611.61 433.5,-633.61 627.5,-633.61 627.5,-611.61 433.5,-611.61"/>
<image xlink:href="../../images/foreignKeys.png" width="11px" height="12px" preserveAspectRatio="xMinYMin meet" x="438.5" y="-628.609"/>
<text text-anchor="start" x="453.5" y="-619.81" font-family="Helvetica,sans-Serif" font-size="11.00">owning_owner_id</text>
<polygon fill="none" stroke="black" points="433.5,-589.61 433.5,-611.61 627.5,-611.61 627.5,-589.61 433.5,-589.61"/>
<image xlink:href="../../images/foreignKeys.png" width="11px" height="12px" preserveAspectRatio="xMinYMin meet" x="438.5" y="-606.609"/>
<text text-anchor="start" x="453.5" y="-597.81" font-family="Helvetica,sans-Serif" font-size="11.00">access_account_state_id</text>
<polygon fill="none" stroke="black" points="433.5,-571.61 433.5,-589.61 627.5,-589.61 627.5,-571.61 433.5,-571.61"/>
<text text-anchor="start" x="436.5" y="-577.81" font-family="Helvetica,sans-Serif" font-size="11.00">...</text>
<polygon fill="#ffffff" stroke="transparent" points="433.5,-553.61 433.5,-571.61 523.5,-571.61 523.5,-553.61 433.5,-553.61"/>
<polygon fill="none" stroke="black" points="433.5,-553.61 433.5,-571.61 523.5,-571.61 523.5,-553.61 433.5,-553.61"/>
<text text-anchor="start" x="436.5" y="-559.81" font-family="Helvetica,sans-Serif" font-size="11.00">&lt; 2</text>
<polygon fill="#ffffff" stroke="transparent" points="523.5,-553.61 523.5,-571.61 569.5,-571.61 569.5,-553.61 523.5,-553.61"/>
<polygon fill="none" stroke="black" points="523.5,-553.61 523.5,-571.61 569.5,-571.61 569.5,-553.61 523.5,-553.61"/>
<text text-anchor="start" x="558.5" y="-559.81" font-family="Helvetica,sans-Serif" font-size="11.00"> &#160;</text>
<polygon fill="#ffffff" stroke="transparent" points="569.5,-553.61 569.5,-571.61 627.5,-571.61 627.5,-553.61 569.5,-553.61"/>
<polygon fill="none" stroke="black" points="569.5,-553.61 569.5,-571.61 627.5,-571.61 627.5,-553.61 569.5,-553.61"/>
<text text-anchor="start" x="604.5" y="-559.81" font-family="Helvetica,sans-Serif" font-size="11.00">4 &gt;</text>
</a>
</g>
</g>
<!-- syst_access_account_instance_assocs&#45;&gt;syst_access_accounts -->
<g id="edge1" class="edge">
<title>syst_access_account_instance_assocs:w&#45;&gt;syst_access_accounts:e</title>
<path fill="none" stroke="black" d="M666.05,-565.35C638.57,-584.05 674.59,-666.61 628.5,-666.61"/>
<polygon fill="black" stroke="black" points="672.27,-563.68 680.93,-565.09 676.14,-562.64 680,-561.61 680,-561.61 680,-561.61 676.14,-562.64 679.07,-558.13 672.27,-563.68 672.27,-563.68"/>
<ellipse fill="none" stroke="black" cx="669.18" cy="-564.51" rx="3.2" ry="3.2"/>
</g>
<!-- syst_instances -->
<g id="node3" class="node">
<title>syst_instances</title>
<g id="a_node3"><a xlink:href="../../tables/syst_instances.html" xlink:title="syst_instances" target="_top">
<polygon fill="#ffffff" stroke="transparent" points="431,-298.61 431,-532.61 630,-532.61 630,-298.61 431,-298.61"/>
<polygon fill="#f5f5f5" stroke="transparent" points="431.5,-510.61 431.5,-532.61 630.5,-532.61 630.5,-510.61 431.5,-510.61"/>
<polygon fill="none" stroke="black" points="431.5,-510.61 431.5,-532.61 630.5,-532.61 630.5,-510.61 431.5,-510.61"/>
<text text-anchor="start" x="436.5" y="-519.81" font-family="Helvetica,sans-Serif" font-weight="bold" font-size="11.00">syst_instances</text>
<text text-anchor="start" x="588.5" y="-518.81" font-family="Helvetica,sans-Serif" font-size="11.00">[table]</text>
<polygon fill="none" stroke="black" points="431.5,-488.61 431.5,-510.61 630.5,-510.61 630.5,-488.61 431.5,-488.61"/>
<image xlink:href="../../images/primaryKeys.png" width="11px" height="12px" preserveAspectRatio="xMinYMin meet" x="436.5" y="-505.609"/>
<text text-anchor="start" x="451.5" y="-496.81" font-family="Helvetica,sans-Serif" font-size="11.00">id</text>
<polygon fill="#ffffff" stroke="transparent" points="431.5,-466.61 431.5,-488.61 630.5,-488.61 630.5,-466.61 431.5,-466.61"/>
<polygon fill="none" stroke="black" points="431.5,-466.61 431.5,-488.61 630.5,-488.61 630.5,-466.61 431.5,-466.61"/>
<text text-anchor="start" x="451.5" y="-474.81" font-family="Helvetica,sans-Serif" font-size="11.00">internal_name</text>
<polygon fill="#ffffff" stroke="transparent" points="431.5,-444.61 431.5,-466.61 630.5,-466.61 630.5,-444.61 431.5,-444.61"/>
<polygon fill="none" stroke="black" points="431.5,-444.61 431.5,-466.61 630.5,-466.61 630.5,-444.61 431.5,-444.61"/>
<text text-anchor="start" x="451.5" y="-452.81" font-family="Helvetica,sans-Serif" font-size="11.00">display_name</text>
<polygon fill="none" stroke="black" points="431.5,-422.61 431.5,-444.61 630.5,-444.61 630.5,-422.61 431.5,-422.61"/>
<image xlink:href="../../images/foreignKeys.png" width="11px" height="12px" preserveAspectRatio="xMinYMin meet" x="436.5" y="-439.609"/>
<text text-anchor="start" x="451.5" y="-430.81" font-family="Helvetica,sans-Serif" font-size="11.00">application_id</text>
<polygon fill="none" stroke="black" points="431.5,-400.61 431.5,-422.61 630.5,-422.61 630.5,-400.61 431.5,-400.61"/>
<image xlink:href="../../images/foreignKeys.png" width="11px" height="12px" preserveAspectRatio="xMinYMin meet" x="436.5" y="-417.609"/>
<text text-anchor="start" x="451.5" y="-408.81" font-family="Helvetica,sans-Serif" font-size="11.00">instance_type_id</text>
<polygon fill="none" stroke="black" points="431.5,-378.61 431.5,-400.61 630.5,-400.61 630.5,-378.61 431.5,-378.61"/>
<image xlink:href="../../images/foreignKeys.png" width="11px" height="12px" preserveAspectRatio="xMinYMin meet" x="436.5" y="-395.609"/>
<text text-anchor="start" x="451.5" y="-386.81" font-family="Helvetica,sans-Serif" font-size="11.00">instance_lifecycle_state_id</text>
<polygon fill="none" stroke="black" points="431.5,-356.61 431.5,-378.61 630.5,-378.61 630.5,-356.61 431.5,-356.61"/>
<image xlink:href="../../images/foreignKeys.png" width="11px" height="12px" preserveAspectRatio="xMinYMin meet" x="436.5" y="-373.609"/>
<text text-anchor="start" x="451.5" y="-364.81" font-family="Helvetica,sans-Serif" font-size="11.00">owner_id</text>
<polygon fill="none" stroke="black" points="431.5,-334.61 431.5,-356.61 630.5,-356.61 630.5,-334.61 431.5,-334.61"/>
<image xlink:href="../../images/foreignKeys.png" width="11px" height="12px" preserveAspectRatio="xMinYMin meet" x="436.5" y="-351.609"/>
<text text-anchor="start" x="451.5" y="-342.81" font-family="Helvetica,sans-Serif" font-size="11.00">owning_instance_id</text>
<polygon fill="none" stroke="black" points="431.5,-316.61 431.5,-334.61 630.5,-334.61 630.5,-316.61 431.5,-316.61"/>
<text text-anchor="start" x="434.5" y="-322.81" font-family="Helvetica,sans-Serif" font-size="11.00">...</text>
<polygon fill="#ffffff" stroke="transparent" points="431.5,-298.61 431.5,-316.61 523.5,-316.61 523.5,-298.61 431.5,-298.61"/>
<polygon fill="none" stroke="black" points="431.5,-298.61 431.5,-316.61 523.5,-316.61 523.5,-298.61 431.5,-298.61"/>
<text text-anchor="start" x="434.5" y="-304.81" font-family="Helvetica,sans-Serif" font-size="11.00">&lt; 5</text>
<polygon fill="#ffffff" stroke="transparent" points="523.5,-298.61 523.5,-316.61 570.5,-316.61 570.5,-298.61 523.5,-298.61"/>
<polygon fill="none" stroke="black" points="523.5,-298.61 523.5,-316.61 570.5,-316.61 570.5,-298.61 523.5,-298.61"/>
<text text-anchor="start" x="559.5" y="-304.81" font-family="Helvetica,sans-Serif" font-size="11.00"> &#160;</text>
<polygon fill="#ffffff" stroke="transparent" points="570.5,-298.61 570.5,-316.61 630.5,-316.61 630.5,-298.61 570.5,-298.61"/>
<polygon fill="none" stroke="black" points="570.5,-298.61 570.5,-316.61 630.5,-316.61 630.5,-298.61 570.5,-298.61"/>
<text text-anchor="start" x="607.5" y="-304.81" font-family="Helvetica,sans-Serif" font-size="11.00">4 &gt;</text>
</a>
</g>
</g>
<!-- syst_access_account_instance_assocs&#45;&gt;syst_instances -->
<g id="edge2" class="edge">
<title>syst_access_account_instance_assocs:w&#45;&gt;syst_instances:e</title>
<path fill="none" stroke="black" d="M666,-534.7C653.6,-524.02 653.33,-499.61 631.5,-499.61"/>
<polygon fill="black" stroke="black" points="672.45,-536.96 678.81,-543.01 676.22,-538.29 680,-539.61 680,-539.61 680,-539.61 676.22,-538.29 681.19,-536.21 672.45,-536.96 672.45,-536.96"/>
<ellipse fill="none" stroke="black" cx="669.43" cy="-535.91" rx="3.2" ry="3.2"/>
</g>
<!-- syst_enum_items -->
<g id="node4" class="node">
<title>syst_enum_items</title>
<g id="a_node4"><a xlink:href="../../tables/syst_enum_items.html" xlink:title="syst_enum_items" target="_top">
<polygon fill="#ffffff" stroke="transparent" points="8,-385.61 8,-443.61 170,-443.61 170,-385.61 8,-385.61"/>
<polygon fill="#f5f5f5" stroke="transparent" points="8,-421.61 8,-443.61 170,-443.61 170,-421.61 8,-421.61"/>
<polygon fill="none" stroke="black" points="8,-421.61 8,-443.61 170,-443.61 170,-421.61 8,-421.61"/>
<text text-anchor="start" x="13" y="-430.81" font-family="Helvetica,sans-Serif" font-weight="bold" font-size="11.00">syst_enum_items</text>
<text text-anchor="start" x="128" y="-429.81" font-family="Helvetica,sans-Serif" font-size="11.00">[table]</text>
<polygon fill="none" stroke="black" points="8,-403.61 8,-421.61 170,-421.61 170,-403.61 8,-403.61"/>
<text text-anchor="start" x="11" y="-409.81" font-family="Helvetica,sans-Serif" font-size="11.00">...</text>
<polygon fill="#ffffff" stroke="transparent" points="8,-385.61 8,-403.61 82,-403.61 82,-385.61 8,-385.61"/>
<polygon fill="none" stroke="black" points="8,-385.61 8,-403.61 82,-403.61 82,-385.61 8,-385.61"/>
<text text-anchor="start" x="11" y="-391.81" font-family="Helvetica,sans-Serif" font-size="11.00">&lt; 2</text>
<polygon fill="#ffffff" stroke="transparent" points="82,-385.61 82,-403.61 120,-403.61 120,-385.61 82,-385.61"/>
<polygon fill="none" stroke="black" points="82,-385.61 82,-403.61 120,-403.61 120,-385.61 82,-385.61"/>
<text text-anchor="start" x="109" y="-391.81" font-family="Helvetica,sans-Serif" font-size="11.00"> &#160;</text>
<polygon fill="#ffffff" stroke="transparent" points="120,-385.61 120,-403.61 170,-403.61 170,-385.61 120,-385.61"/>
<polygon fill="none" stroke="black" points="120,-385.61 120,-403.61 170,-403.61 170,-385.61 120,-385.61"/>
<text text-anchor="start" x="147" y="-391.81" font-family="Helvetica,sans-Serif" font-size="11.00">7 &gt;</text>
</a>
</g>
</g>
<!-- syst_access_accounts&#45;&gt;syst_enum_items -->
<g id="edge3" class="edge">
<title>syst_access_accounts:w&#45;&gt;syst_enum_items:e</title>
<path fill="none" stroke="black" d="M417.84,-600.63C325.19,-600.89 281.05,-601.89 211,-533.61 170.44,-494.07 227.64,-412.61 171,-412.61"/>
<polygon fill="black" stroke="black" points="424.5,-600.62 432.51,-604.21 428.5,-600.62 432.5,-600.61 432.5,-600.61 432.5,-600.61 428.5,-600.62 432.49,-597.01 424.5,-600.62 424.5,-600.62"/>
<ellipse fill="none" stroke="black" cx="421.3" cy="-600.63" rx="3.2" ry="3.2"/>
</g>
<!-- syst_owners -->
<g id="node5" class="node">
<title>syst_owners</title>
<g id="a_node5"><a xlink:href="../../tables/syst_owners.html" xlink:title="syst_owners" target="_top">
<polygon fill="#ffffff" stroke="transparent" points="236,-358.61 236,-416.61 365,-416.61 365,-358.61 236,-358.61"/>
<polygon fill="#f5f5f5" stroke="transparent" points="236.5,-394.61 236.5,-416.61 365.5,-416.61 365.5,-394.61 236.5,-394.61"/>
<polygon fill="none" stroke="black" points="236.5,-394.61 236.5,-416.61 365.5,-416.61 365.5,-394.61 236.5,-394.61"/>
<text text-anchor="start" x="241.5" y="-403.81" font-family="Helvetica,sans-Serif" font-weight="bold" font-size="11.00">syst_owners</text>
<text text-anchor="start" x="323.5" y="-402.81" font-family="Helvetica,sans-Serif" font-size="11.00">[table]</text>
<polygon fill="none" stroke="black" points="236.5,-376.61 236.5,-394.61 365.5,-394.61 365.5,-376.61 236.5,-376.61"/>
<text text-anchor="start" x="239.5" y="-382.81" font-family="Helvetica,sans-Serif" font-size="11.00">...</text>
<polygon fill="#ffffff" stroke="transparent" points="236.5,-358.61 236.5,-376.61 293.5,-376.61 293.5,-358.61 236.5,-358.61"/>
<polygon fill="none" stroke="black" points="236.5,-358.61 236.5,-376.61 293.5,-376.61 293.5,-358.61 236.5,-358.61"/>
<text text-anchor="start" x="239.5" y="-364.81" font-family="Helvetica,sans-Serif" font-size="11.00">&lt; 1</text>
<polygon fill="#ffffff" stroke="transparent" points="293.5,-358.61 293.5,-376.61 323.5,-376.61 323.5,-358.61 293.5,-358.61"/>
<polygon fill="none" stroke="black" points="293.5,-358.61 293.5,-376.61 323.5,-376.61 323.5,-358.61 293.5,-358.61"/>
<text text-anchor="start" x="312.5" y="-364.81" font-family="Helvetica,sans-Serif" font-size="11.00"> &#160;</text>
<polygon fill="#ffffff" stroke="transparent" points="323.5,-358.61 323.5,-376.61 365.5,-376.61 365.5,-358.61 323.5,-358.61"/>
<polygon fill="none" stroke="black" points="323.5,-358.61 323.5,-376.61 365.5,-376.61 365.5,-358.61 323.5,-358.61"/>
<text text-anchor="start" x="342.5" y="-364.81" font-family="Helvetica,sans-Serif" font-size="11.00">4 &gt;</text>
</a>
</g>
</g>
<!-- syst_access_accounts&#45;&gt;syst_owners -->
<g id="edge4" class="edge">
<title>syst_access_accounts:w&#45;&gt;syst_owners:e</title>
<path fill="none" stroke="black" d="M417.8,-620.84C337.99,-599.15 470.29,-385.61 366.5,-385.61"/>
<polygon fill="black" stroke="black" points="424.56,-621.65 432.07,-626.18 428.53,-622.13 432.5,-622.61 432.5,-622.61 432.5,-622.61 428.53,-622.13 432.93,-619.03 424.56,-621.65 424.56,-621.65"/>
<ellipse fill="none" stroke="black" cx="421.38" cy="-621.27" rx="3.2" ry="3.2"/>
</g>
<!-- syst_instances&#45;&gt;syst_enum_items -->
<g id="edge13" class="edge">
<title>syst_instances:w&#45;&gt;syst_enum_items:e</title>
<path fill="none" stroke="black" d="M416.69,-384.59C407.24,-375.37 407.73,-356.01 390,-348.61 316.59,-317.94 280.58,-310.04 211,-348.61 181.66,-364.87 204.54,-412.61 171,-412.61"/>
<polygon fill="black" stroke="black" points="422.98,-386.88 429.27,-392.99 426.74,-388.24 430.5,-389.61 430.5,-389.61 430.5,-389.61 426.74,-388.24 431.73,-386.23 422.98,-386.88 422.98,-386.88"/>
<ellipse fill="none" stroke="black" cx="419.97" cy="-385.78" rx="3.2" ry="3.2"/>
</g>
<!-- syst_instances&#45;&gt;syst_enum_items -->
<g id="edge14" class="edge">
<title>syst_instances:w&#45;&gt;syst_enum_items:e</title>
<path fill="none" stroke="black" d="M416.36,-414.59C408.16,-418.49 403.07,-425.12 390,-427.61 311.85,-442.49 289.28,-441.8 211,-427.61 192.32,-424.22 189.99,-412.61 171,-412.61"/>
<polygon fill="black" stroke="black" points="422.67,-413.26 431.24,-415.13 426.59,-412.43 430.5,-411.61 430.5,-411.61 430.5,-411.61 426.59,-412.43 429.76,-408.09 422.67,-413.26 422.67,-413.26"/>
<ellipse fill="none" stroke="black" cx="419.54" cy="-413.92" rx="3.2" ry="3.2"/>
</g>
<!-- syst_instances&#45;&gt;syst_owners -->
<g id="edge15" class="edge">
<title>syst_instances:w&#45;&gt;syst_owners:e</title>
<path fill="none" stroke="black" d="M416.15,-369.27C398.25,-373.73 390.51,-385.61 366.5,-385.61"/>
<polygon fill="black" stroke="black" points="422.55,-368.53 430.91,-371.19 426.53,-368.07 430.5,-367.61 430.5,-367.61 430.5,-367.61 426.53,-368.07 430.09,-364.03 422.55,-368.53 422.55,-368.53"/>
<ellipse fill="none" stroke="black" cx="419.37" cy="-368.9" rx="3.2" ry="3.2"/>
</g>
<!-- syst_applications -->
<g id="node10" class="node">
<title>syst_applications</title>
<g id="a_node10"><a xlink:href="../../tables/syst_applications.html" xlink:title="syst_applications" target="_top">
<polygon fill="#ffffff" stroke="transparent" points="219,-464.61 219,-522.61 382,-522.61 382,-464.61 219,-464.61"/>
<polygon fill="#f5f5f5" stroke="transparent" points="219.5,-500.61 219.5,-522.61 382.5,-522.61 382.5,-500.61 219.5,-500.61"/>
<polygon fill="none" stroke="black" points="219.5,-500.61 219.5,-522.61 382.5,-522.61 382.5,-500.61 219.5,-500.61"/>
<text text-anchor="start" x="224.5" y="-509.81" font-family="Helvetica,sans-Serif" font-weight="bold" font-size="11.00">syst_applications</text>
<text text-anchor="start" x="340.5" y="-508.81" font-family="Helvetica,sans-Serif" font-size="11.00">[table]</text>
<polygon fill="none" stroke="black" points="219.5,-482.61 219.5,-500.61 382.5,-500.61 382.5,-482.61 219.5,-482.61"/>
<text text-anchor="start" x="222.5" y="-488.81" font-family="Helvetica,sans-Serif" font-size="11.00">...</text>
<polygon fill="#ffffff" stroke="transparent" points="219.5,-464.61 219.5,-482.61 287.5,-482.61 287.5,-464.61 219.5,-464.61"/>
<polygon fill="none" stroke="black" points="219.5,-464.61 219.5,-482.61 287.5,-482.61 287.5,-464.61 219.5,-464.61"/>
<text text-anchor="start" x="222.5" y="-470.81" font-family="Helvetica,sans-Serif" font-size="11.00"> &#160;</text>
<polygon fill="#ffffff" stroke="transparent" points="287.5,-464.61 287.5,-482.61 328.5,-482.61 328.5,-464.61 287.5,-464.61"/>
<polygon fill="none" stroke="black" points="287.5,-464.61 287.5,-482.61 328.5,-482.61 328.5,-464.61 287.5,-464.61"/>
<text text-anchor="start" x="317.5" y="-470.81" font-family="Helvetica,sans-Serif" font-size="11.00"> &#160;</text>
<polygon fill="#ffffff" stroke="transparent" points="328.5,-464.61 328.5,-482.61 382.5,-482.61 382.5,-464.61 328.5,-464.61"/>
<polygon fill="none" stroke="black" points="328.5,-464.61 328.5,-482.61 382.5,-482.61 382.5,-464.61 328.5,-464.61"/>
<text text-anchor="start" x="359.5" y="-470.81" font-family="Helvetica,sans-Serif" font-size="11.00">3 &gt;</text>
</a>
</g>
</g>
<!-- syst_instances&#45;&gt;syst_applications -->
<g id="edge12" class="edge">
<title>syst_instances:w&#45;&gt;syst_applications:e</title>
<path fill="none" stroke="black" d="M416.69,-438.96C402.73,-453.32 410.46,-491.61 383.5,-491.61"/>
<polygon fill="black" stroke="black" points="423.04,-436.5 431.8,-436.97 426.77,-435.05 430.5,-433.61 430.5,-433.61 430.5,-433.61 426.77,-435.05 429.2,-430.25 423.04,-436.5 423.04,-436.5"/>
<ellipse fill="none" stroke="black" cx="420.06" cy="-437.66" rx="3.2" ry="3.2"/>
</g>
<!-- syst_owners&#45;&gt;syst_enum_items -->
<g id="edge16" class="edge">
<title>syst_owners:w&#45;&gt;syst_enum_items:e</title>
<path fill="none" stroke="black" d="M221.2,-387.91C202.65,-394.44 196.49,-412.61 171,-412.61"/>
<polygon fill="black" stroke="black" points="227.6,-386.88 236.07,-389.16 231.55,-386.24 235.5,-385.61 235.5,-385.61 235.5,-385.61 231.55,-386.24 234.93,-382.05 227.6,-386.88 227.6,-386.88"/>
<ellipse fill="none" stroke="black" cx="224.44" cy="-387.39" rx="3.2" ry="3.2"/>
</g>
<!-- syst_credentials -->
<g id="node6" class="node">
<title>syst_credentials</title>
<g id="a_node6"><a xlink:href="../../tables/syst_credentials.html" xlink:title="syst_credentials" target="_top">
<polygon fill="#ffffff" stroke="transparent" points="1114,-694.61 1114,-752.61 1270,-752.61 1270,-694.61 1114,-694.61"/>
<polygon fill="#f5f5f5" stroke="transparent" points="1114,-730.61 1114,-752.61 1270,-752.61 1270,-730.61 1114,-730.61"/>
<polygon fill="none" stroke="black" points="1114,-730.61 1114,-752.61 1270,-752.61 1270,-730.61 1114,-730.61"/>
<text text-anchor="start" x="1119" y="-739.81" font-family="Helvetica,sans-Serif" font-weight="bold" font-size="11.00">syst_credentials</text>
<text text-anchor="start" x="1228" y="-738.81" font-family="Helvetica,sans-Serif" font-size="11.00">[table]</text>
<polygon fill="none" stroke="black" points="1114,-712.61 1114,-730.61 1270,-730.61 1270,-712.61 1114,-712.61"/>
<text text-anchor="start" x="1117" y="-718.81" font-family="Helvetica,sans-Serif" font-size="11.00">...</text>
<polygon fill="#ffffff" stroke="transparent" points="1114,-694.61 1114,-712.61 1191,-712.61 1191,-694.61 1114,-694.61"/>
<polygon fill="none" stroke="black" points="1114,-694.61 1114,-712.61 1191,-712.61 1191,-694.61 1114,-694.61"/>
<text text-anchor="start" x="1117" y="-700.81" font-family="Helvetica,sans-Serif" font-size="11.00">&lt; 3</text>
<polygon fill="#ffffff" stroke="transparent" points="1191,-694.61 1191,-712.61 1230,-712.61 1230,-694.61 1191,-694.61"/>
<polygon fill="none" stroke="black" points="1191,-694.61 1191,-712.61 1230,-712.61 1230,-694.61 1191,-694.61"/>
<text text-anchor="start" x="1219" y="-700.81" font-family="Helvetica,sans-Serif" font-size="11.00"> &#160;</text>
<polygon fill="#ffffff" stroke="transparent" points="1230,-694.61 1230,-712.61 1270,-712.61 1270,-694.61 1230,-694.61"/>
<polygon fill="none" stroke="black" points="1230,-694.61 1230,-712.61 1270,-712.61 1270,-694.61 1230,-694.61"/>
<text text-anchor="start" x="1259" y="-700.81" font-family="Helvetica,sans-Serif" font-size="11.00"> &#160;</text>
</a>
</g>
</g>
<!-- syst_credentials&#45;&gt;syst_access_accounts -->
<g id="edge5" class="edge">
<title>syst_credentials:w&#45;&gt;syst_access_accounts:e</title>
<path fill="none" stroke="black" d="M1098.52,-721.76C991.82,-723.83 757.19,-745.5 671,-708.61 646.59,-698.16 655.06,-666.61 628.5,-666.61"/>
<polygon fill="black" stroke="black" points="1105,-721.69 1113.04,-725.21 1109,-721.65 1113,-721.61 1113,-721.61 1113,-721.61 1109,-721.65 1112.96,-718.01 1105,-721.69 1105,-721.69"/>
<ellipse fill="none" stroke="black" cx="1101.8" cy="-721.73" rx="3.2" ry="3.2"/>
</g>
<!-- syst_credentials&#45;&gt;syst_enum_items -->
<g id="edge7" class="edge">
<title>syst_credentials:w&#45;&gt;syst_enum_items:e</title>
<path fill="none" stroke="black" d="M1100.76,-713.88C1053.87,-645.27 1120.21,-141.89 1073,-97.61 942.69,24.62 845.21,-57.93 671,-97.61 449.85,-147.98 367.69,-154.62 211,-318.61 179.63,-351.44 216.4,-412.61 171,-412.61"/>
<polygon fill="black" stroke="black" points="1106.24,-717.34 1111.08,-724.65 1109.62,-719.47 1113,-721.61 1113,-721.61 1113,-721.61 1109.62,-719.47 1114.92,-718.57 1106.24,-717.34 1106.24,-717.34"/>
<ellipse fill="none" stroke="black" cx="1103.53" cy="-715.63" rx="3.2" ry="3.2"/>
</g>
<!-- syst_identities -->
<g id="node7" class="node">
<title>syst_identities</title>
<g id="a_node7"><a xlink:href="../../tables/syst_identities.html" xlink:title="syst_identities" target="_top">
<polygon fill="#ffffff" stroke="transparent" points="799.5,-745.61 799.5,-803.61 944.5,-803.61 944.5,-745.61 799.5,-745.61"/>
<polygon fill="#f5f5f5" stroke="transparent" points="800,-781.61 800,-803.61 945,-803.61 945,-781.61 800,-781.61"/>
<polygon fill="none" stroke="black" points="800,-781.61 800,-803.61 945,-803.61 945,-781.61 800,-781.61"/>
<text text-anchor="start" x="805" y="-790.81" font-family="Helvetica,sans-Serif" font-weight="bold" font-size="11.00">syst_identities</text>
<text text-anchor="start" x="903" y="-789.81" font-family="Helvetica,sans-Serif" font-size="11.00">[table]</text>
<polygon fill="none" stroke="black" points="800,-763.61 800,-781.61 945,-781.61 945,-763.61 800,-763.61"/>
<text text-anchor="start" x="803" y="-769.81" font-family="Helvetica,sans-Serif" font-size="11.00">...</text>
<polygon fill="#ffffff" stroke="transparent" points="800,-745.61 800,-763.61 865,-763.61 865,-745.61 800,-745.61"/>
<polygon fill="none" stroke="black" points="800,-745.61 800,-763.61 865,-763.61 865,-745.61 800,-745.61"/>
<text text-anchor="start" x="803" y="-751.81" font-family="Helvetica,sans-Serif" font-size="11.00">&lt; 3</text>
<polygon fill="#ffffff" stroke="transparent" points="865,-745.61 865,-763.61 899,-763.61 899,-745.61 865,-745.61"/>
<polygon fill="none" stroke="black" points="865,-745.61 865,-763.61 899,-763.61 899,-745.61 865,-745.61"/>
<text text-anchor="start" x="888" y="-751.81" font-family="Helvetica,sans-Serif" font-size="11.00"> &#160;</text>
<polygon fill="#ffffff" stroke="transparent" points="899,-745.61 899,-763.61 945,-763.61 945,-745.61 899,-745.61"/>
<polygon fill="none" stroke="black" points="899,-745.61 899,-763.61 945,-763.61 945,-745.61 899,-745.61"/>
<text text-anchor="start" x="922" y="-751.81" font-family="Helvetica,sans-Serif" font-size="11.00">2 &gt;</text>
</a>
</g>
</g>
<!-- syst_credentials&#45;&gt;syst_identities -->
<g id="edge6" class="edge">
<title>syst_credentials:w&#45;&gt;syst_identities:e</title>
<path fill="none" stroke="black" d="M1098.7,-724.42C1059.25,-735.12 962.64,-772.61 946,-772.61"/>
<polygon fill="black" stroke="black" points="1105.15,-723.15 1113.7,-725.14 1109.08,-722.38 1113,-721.61 1113,-721.61 1113,-721.61 1109.08,-722.38 1112.3,-718.08 1105.15,-723.15 1105.15,-723.15"/>
<ellipse fill="none" stroke="black" cx="1102.01" cy="-723.77" rx="3.2" ry="3.2"/>
</g>
<!-- syst_identities&#45;&gt;syst_access_accounts -->
<g id="edge8" class="edge">
<title>syst_identities:w&#45;&gt;syst_access_accounts:e</title>
<path fill="none" stroke="black" d="M784.42,-772.49C735.5,-771.55 714.44,-764.69 671,-731.61 643.54,-710.7 663.02,-666.61 628.5,-666.61"/>
<polygon fill="black" stroke="black" points="791,-772.54 798.97,-776.21 795,-772.58 799,-772.61 799,-772.61 799,-772.61 795,-772.58 799.03,-769.01 791,-772.54 791,-772.54"/>
<ellipse fill="none" stroke="black" cx="787.8" cy="-772.51" rx="3.2" ry="3.2"/>
</g>
<!-- syst_identities&#45;&gt;syst_enum_items -->
<g id="edge9" class="edge">
<title>syst_identities:w&#45;&gt;syst_enum_items:e</title>
<path fill="none" stroke="black" d="M784.59,-772.63C518.19,-773.5 368.94,-796.37 211,-576.61 167.21,-515.69 246.03,-412.61 171,-412.61"/>
<polygon fill="black" stroke="black" points="791,-772.62 799.01,-776.21 795,-772.62 799,-772.61 799,-772.61 799,-772.61 795,-772.62 798.99,-769.01 791,-772.62 791,-772.62"/>
<ellipse fill="none" stroke="black" cx="787.8" cy="-772.63" rx="3.2" ry="3.2"/>
</g>
<!-- syst_instance_contexts -->
<g id="node8" class="node">
<title>syst_instance_contexts</title>
<g id="a_node8"><a xlink:href="../../tables/syst_instance_contexts.html" xlink:title="syst_instance_contexts" target="_top">
<polygon fill="#ffffff" stroke="transparent" points="771,-187.61 771,-245.61 973,-245.61 973,-187.61 771,-187.61"/>
<polygon fill="#f5f5f5" stroke="transparent" points="771,-223.61 771,-245.61 973,-245.61 973,-223.61 771,-223.61"/>
<polygon fill="none" stroke="black" points="771,-223.61 771,-245.61 973,-245.61 973,-223.61 771,-223.61"/>
<text text-anchor="start" x="776" y="-232.81" font-family="Helvetica,sans-Serif" font-weight="bold" font-size="11.00">syst_instance_contexts</text>
<text text-anchor="start" x="931" y="-231.81" font-family="Helvetica,sans-Serif" font-size="11.00">[table]</text>
<polygon fill="none" stroke="black" points="771,-205.61 771,-223.61 973,-223.61 973,-205.61 771,-205.61"/>
<text text-anchor="start" x="774" y="-211.81" font-family="Helvetica,sans-Serif" font-size="11.00">...</text>
<polygon fill="#ffffff" stroke="transparent" points="771,-187.61 771,-205.61 871,-205.61 871,-187.61 771,-187.61"/>
<polygon fill="none" stroke="black" points="771,-187.61 771,-205.61 871,-205.61 871,-187.61 771,-187.61"/>
<text text-anchor="start" x="774" y="-193.81" font-family="Helvetica,sans-Serif" font-size="11.00">&lt; 2</text>
<polygon fill="#ffffff" stroke="transparent" points="871,-187.61 871,-205.61 922,-205.61 922,-187.61 871,-187.61"/>
<polygon fill="none" stroke="black" points="871,-187.61 871,-205.61 922,-205.61 922,-187.61 871,-187.61"/>
<text text-anchor="start" x="911" y="-193.81" font-family="Helvetica,sans-Serif" font-size="11.00"> &#160;</text>
<polygon fill="#ffffff" stroke="transparent" points="922,-187.61 922,-205.61 973,-205.61 973,-187.61 922,-187.61"/>
<polygon fill="none" stroke="black" points="922,-187.61 922,-205.61 973,-205.61 973,-187.61 922,-187.61"/>
<text text-anchor="start" x="962" y="-193.81" font-family="Helvetica,sans-Serif" font-size="11.00"> &#160;</text>
</a>
</g>
</g>
<!-- syst_instance_contexts&#45;&gt;syst_instances -->
<g id="edge10" class="edge">
<title>syst_instance_contexts:w&#45;&gt;syst_instances:e</title>
<path fill="none" stroke="black" d="M755.26,-214.78C717.51,-215.81 697.32,-222.35 671,-255.61 636.92,-298.69 686.43,-499.61 631.5,-499.61"/>
<polygon fill="black" stroke="black" points="762,-214.7 770.04,-218.21 766,-214.66 770,-214.61 770,-214.61 770,-214.61 766,-214.66 769.96,-211.01 762,-214.7 762,-214.7"/>
<ellipse fill="none" stroke="black" cx="758.8" cy="-214.74" rx="3.2" ry="3.2"/>
</g>
<!-- syst_instance_network_rules -->
<g id="node9" class="node">
<title>syst_instance_network_rules</title>
<g id="a_node9"><a xlink:href="../../tables/syst_instance_network_rules.html" xlink:title="syst_instance_network_rules" target="_top">
<polygon fill="#ffffff" stroke="transparent" points="752.5,-108.61 752.5,-166.61 991.5,-166.61 991.5,-108.61 752.5,-108.61"/>
<polygon fill="#f5f5f5" stroke="transparent" points="753,-144.61 753,-166.61 992,-166.61 992,-144.61 753,-144.61"/>
<polygon fill="none" stroke="black" points="753,-144.61 753,-166.61 992,-166.61 992,-144.61 753,-144.61"/>
<text text-anchor="start" x="758" y="-153.81" font-family="Helvetica,sans-Serif" font-weight="bold" font-size="11.00">syst_instance_network_rules</text>
<text text-anchor="start" x="950" y="-152.81" font-family="Helvetica,sans-Serif" font-size="11.00">[table]</text>
<polygon fill="none" stroke="black" points="753,-126.61 753,-144.61 992,-144.61 992,-126.61 753,-126.61"/>
<text text-anchor="start" x="756" y="-132.81" font-family="Helvetica,sans-Serif" font-size="11.00">...</text>
<polygon fill="#ffffff" stroke="transparent" points="753,-108.61 753,-126.61 871,-126.61 871,-108.61 753,-108.61"/>
<polygon fill="none" stroke="black" points="753,-108.61 753,-126.61 871,-126.61 871,-108.61 753,-108.61"/>
<text text-anchor="start" x="756" y="-114.81" font-family="Helvetica,sans-Serif" font-size="11.00">&lt; 1</text>
<polygon fill="#ffffff" stroke="transparent" points="871,-108.61 871,-126.61 931,-126.61 931,-108.61 871,-108.61"/>
<polygon fill="none" stroke="black" points="871,-108.61 871,-126.61 931,-126.61 931,-108.61 871,-108.61"/>
<text text-anchor="start" x="920" y="-114.81" font-family="Helvetica,sans-Serif" font-size="11.00"> &#160;</text>
<polygon fill="#ffffff" stroke="transparent" points="931,-108.61 931,-126.61 992,-126.61 992,-108.61 931,-108.61"/>
<polygon fill="none" stroke="black" points="931,-108.61 931,-126.61 992,-126.61 992,-108.61 931,-108.61"/>
<text text-anchor="start" x="981" y="-114.81" font-family="Helvetica,sans-Serif" font-size="11.00"> &#160;</text>
</a>
</g>
</g>
<!-- syst_instance_network_rules&#45;&gt;syst_instances -->
<g id="edge11" class="edge">
<title>syst_instance_network_rules:w&#45;&gt;syst_instances:e</title>
<path fill="none" stroke="black" d="M737.48,-136.04C707.05,-138.08 691.19,-147.84 671,-176.61 629.46,-235.8 703.81,-499.61 631.5,-499.61"/>
<polygon fill="black" stroke="black" points="744,-135.85 752.11,-139.21 748,-135.73 752,-135.61 752,-135.61 752,-135.61 748,-135.73 751.89,-132.01 744,-135.85 744,-135.85"/>
<ellipse fill="none" stroke="black" cx="740.8" cy="-135.94" rx="3.2" ry="3.2"/>
</g>
<!-- syst_password_history -->
<g id="node11" class="node">
<title>syst_password_history</title>
<g id="a_node11"><a xlink:href="../../tables/syst_password_history.html" xlink:title="syst_password_history" target="_top">
<polygon fill="#ffffff" stroke="transparent" points="772.5,-639.61 772.5,-697.61 971.5,-697.61 971.5,-639.61 772.5,-639.61"/>
<polygon fill="#f5f5f5" stroke="transparent" points="773,-675.61 773,-697.61 972,-697.61 972,-675.61 773,-675.61"/>
<polygon fill="none" stroke="black" points="773,-675.61 773,-697.61 972,-697.61 972,-675.61 773,-675.61"/>
<text text-anchor="start" x="778" y="-684.81" font-family="Helvetica,sans-Serif" font-weight="bold" font-size="11.00">syst_password_history</text>
<text text-anchor="start" x="930" y="-683.81" font-family="Helvetica,sans-Serif" font-size="11.00">[table]</text>
<polygon fill="none" stroke="black" points="773,-657.61 773,-675.61 972,-675.61 972,-657.61 773,-657.61"/>
<text text-anchor="start" x="776" y="-663.81" font-family="Helvetica,sans-Serif" font-size="11.00">...</text>
<polygon fill="#ffffff" stroke="transparent" points="773,-639.61 773,-657.61 871,-657.61 871,-639.61 773,-639.61"/>
<polygon fill="none" stroke="black" points="773,-639.61 773,-657.61 871,-657.61 871,-639.61 773,-639.61"/>
<text text-anchor="start" x="776" y="-645.81" font-family="Helvetica,sans-Serif" font-size="11.00">&lt; 1</text>
<polygon fill="#ffffff" stroke="transparent" points="871,-639.61 871,-657.61 921,-657.61 921,-639.61 871,-639.61"/>
<polygon fill="none" stroke="black" points="871,-639.61 871,-657.61 921,-657.61 921,-639.61 871,-639.61"/>
<text text-anchor="start" x="910" y="-645.81" font-family="Helvetica,sans-Serif" font-size="11.00"> &#160;</text>
<polygon fill="#ffffff" stroke="transparent" points="921,-639.61 921,-657.61 972,-657.61 972,-639.61 921,-639.61"/>
<polygon fill="none" stroke="black" points="921,-639.61 921,-657.61 972,-657.61 972,-639.61 921,-639.61"/>
<text text-anchor="start" x="961" y="-645.81" font-family="Helvetica,sans-Serif" font-size="11.00"> &#160;</text>
</a>
</g>
</g>
<!-- syst_password_history&#45;&gt;syst_access_accounts -->
<g id="edge17" class="edge">
<title>syst_password_history:w&#45;&gt;syst_access_accounts:e</title>
<path fill="none" stroke="black" d="M757.55,-666.61C705.36,-666.61 687.17,-666.61 628.5,-666.61"/>
<polygon fill="black" stroke="black" points="764,-666.61 772,-670.21 768,-666.61 772,-666.61 772,-666.61 772,-666.61 768,-666.61 772,-663.01 764,-666.61 764,-666.61"/>
<ellipse fill="none" stroke="black" cx="760.8" cy="-666.61" rx="3.2" ry="3.2"/>
</g>
</g>
</svg>
