<?xml version="1.0" encoding="UTF-8" standalone="no"?>
<!DOCTYPE svg PUBLIC "-//W3C//DTD SVG 1.1//EN"
 "http://www.w3.org/Graphics/SVG/1.1/DTD/svg11.dtd">
<!-- Generated by graphviz version 2.43.0 (0)
 -->
<!-- Title: oneDegreeRelationshipsDiagram Pages: 1 -->
<svg width="562pt" height="401pt"
 viewBox="0.00 0.00 562.00 401.00" xmlns="http://www.w3.org/2000/svg" xmlns:xlink="http://www.w3.org/1999/xlink">
<g id="graph0" class="graph" transform="scale(1 1) rotate(0) translate(4 397)">
<title>oneDegreeRelationshipsDiagram</title>
<polygon fill="#ffffff" stroke="transparent" points="-4,4 -4,-397 558,-397 558,4 -4,4"/>
<text text-anchor="middle" x="71.5" y="-7.2" font-family="Helvetica,sans-Serif" font-size="11.00">Generated by SchemaSpy</text>
<!-- syst_owner_network_rules -->
<g id="node1" class="node">
<title>syst_owner_network_rules</title>
<g id="a_node1"><a xlink:href="../../tables/syst_owner_network_rules.html" xlink:title="syst_owner_network_rules" target="_top">
<polygon fill="#ffffff" stroke="transparent" points="251,-37 251,-389 546,-389 546,-37 251,-37"/>
<polygon fill="#f5f5f5" stroke="transparent" points="253.5,-365 253.5,-387 544.5,-387 544.5,-365 253.5,-365"/>
<polygon fill="none" stroke="black" points="253.5,-365 253.5,-387 544.5,-387 544.5,-365 253.5,-365"/>
<text text-anchor="start" x="258.5" y="-374.2" font-family="Helvetica,sans-Serif" font-weight="bold" font-size="11.00">syst_owner_network_rules</text>
<text text-anchor="start" x="509.5" y="-373.2" font-family="Helvetica,sans-Serif" font-size="11.00">[table]</text>
<polygon fill="none" stroke="black" points="253.5,-343 253.5,-365 451.5,-365 451.5,-343 253.5,-343"/>
<image xlink:href="../../images/primaryKeys.png" width="11px" height="12px" preserveAspectRatio="xMinYMin meet" x="258.5" y="-360"/>
<text text-anchor="start" x="273.5" y="-351.2" font-family="Helvetica,sans-Serif" font-size="11.00">id</text>
<polygon fill="none" stroke="black" points="451.5,-343 451.5,-365 544.5,-365 544.5,-343 451.5,-343"/>
<text text-anchor="start" x="454.5" y="-351.2" font-family="Helvetica,sans-Serif" font-size="11.00">uuid[2147483647]</text>
<polygon fill="#ffffff" stroke="transparent" points="253.5,-321 253.5,-343 451.5,-343 451.5,-321 253.5,-321"/>
<polygon fill="none" stroke="black" points="253.5,-321 253.5,-343 451.5,-343 451.5,-321 253.5,-321"/>
<image xlink:href="../../images/foreignKeys.png" width="11px" height="12px" preserveAspectRatio="xMinYMin meet" x="258.5" y="-338"/>
<text text-anchor="start" x="273.5" y="-329.2" font-family="Helvetica,sans-Serif" font-size="11.00">owner_id</text>
<polygon fill="none" stroke="black" points="451.5,-321 451.5,-343 544.5,-343 544.5,-321 451.5,-321"/>
<text text-anchor="start" x="454.5" y="-329.2" font-family="Helvetica,sans-Serif" font-size="11.00">uuid[2147483647]</text>
<polygon fill="#ffffff" stroke="transparent" points="253.5,-299 253.5,-321 451.5,-321 451.5,-299 253.5,-299"/>
<polygon fill="none" stroke="black" points="253.5,-299 253.5,-321 451.5,-321 451.5,-299 253.5,-299"/>
<text text-anchor="start" x="273.5" y="-307.2" font-family="Helvetica,sans-Serif" font-size="11.00">ordering</text>
<polygon fill="none" stroke="black" points="451.5,-299 451.5,-321 544.5,-321 544.5,-299 451.5,-299"/>
<text text-anchor="start" x="454.5" y="-307.2" font-family="Helvetica,sans-Serif" font-size="11.00">int4[10]</text>
<polygon fill="none" stroke="black" points="253.5,-277 253.5,-299 451.5,-299 451.5,-277 253.5,-277"/>
<text text-anchor="start" x="273.5" y="-285.2" font-family="Helvetica,sans-Serif" font-size="11.00">functional_type</text>
<polygon fill="none" stroke="black" points="451.5,-277 451.5,-299 544.5,-299 544.5,-277 451.5,-277"/>
<text text-anchor="start" x="454.5" y="-285.2" font-family="Helvetica,sans-Serif" font-size="11.00">text[2147483647]</text>
<polygon fill="none" stroke="black" points="253.5,-255 253.5,-277 451.5,-277 451.5,-255 253.5,-255"/>
<text text-anchor="start" x="273.5" y="-263.2" font-family="Helvetica,sans-Serif" font-size="11.00">ip_host_or_network</text>
<polygon fill="none" stroke="black" points="451.5,-255 451.5,-277 544.5,-277 544.5,-255 451.5,-255"/>
<text text-anchor="start" x="454.5" y="-263.2" font-family="Helvetica,sans-Serif" font-size="11.00">inet[2147483647]</text>
<polygon fill="none" stroke="black" points="253.5,-233 253.5,-255 451.5,-255 451.5,-233 253.5,-233"/>
<text text-anchor="start" x="273.5" y="-241.2" font-family="Helvetica,sans-Serif" font-size="11.00">ip_host_range_lower</text>
<polygon fill="none" stroke="black" points="451.5,-233 451.5,-255 544.5,-255 544.5,-233 451.5,-233"/>
<text text-anchor="start" x="454.5" y="-241.2" font-family="Helvetica,sans-Serif" font-size="11.00">inet[2147483647]</text>
<polygon fill="none" stroke="black" points="253.5,-211 253.5,-233 451.5,-233 451.5,-211 253.5,-211"/>
<text text-anchor="start" x="273.5" y="-219.2" font-family="Helvetica,sans-Serif" font-size="11.00">ip_host_range_upper</text>
<polygon fill="none" stroke="black" points="451.5,-211 451.5,-233 544.5,-233 544.5,-211 451.5,-211"/>
<text text-anchor="start" x="454.5" y="-219.2" font-family="Helvetica,sans-Serif" font-size="11.00">inet[2147483647]</text>
<polygon fill="none" stroke="black" points="253.5,-189 253.5,-211 451.5,-211 451.5,-189 253.5,-189"/>
<text text-anchor="start" x="273.5" y="-197.2" font-family="Helvetica,sans-Serif" font-size="11.00">diag_timestamp_created</text>
<polygon fill="none" stroke="black" points="451.5,-189 451.5,-211 544.5,-211 544.5,-189 451.5,-189"/>
<text text-anchor="start" x="454.5" y="-197.2" font-family="Helvetica,sans-Serif" font-size="11.00">timestamptz[35,6]</text>
<polygon fill="none" stroke="black" points="253.5,-167 253.5,-189 451.5,-189 451.5,-167 253.5,-167"/>
<text text-anchor="start" x="273.5" y="-175.2" font-family="Helvetica,sans-Serif" font-size="11.00">diag_role_created</text>
<polygon fill="none" stroke="black" points="451.5,-167 451.5,-189 544.5,-189 544.5,-167 451.5,-167"/>
<text text-anchor="start" x="454.5" y="-175.2" font-family="Helvetica,sans-Serif" font-size="11.00">text[2147483647]</text>
<polygon fill="none" stroke="black" points="253.5,-145 253.5,-167 451.5,-167 451.5,-145 253.5,-145"/>
<text text-anchor="start" x="273.5" y="-153.2" font-family="Helvetica,sans-Serif" font-size="11.00">diag_timestamp_modified</text>
<polygon fill="none" stroke="black" points="451.5,-145 451.5,-167 544.5,-167 544.5,-145 451.5,-145"/>
<text text-anchor="start" x="454.5" y="-153.2" font-family="Helvetica,sans-Serif" font-size="11.00">timestamptz[35,6]</text>
<polygon fill="none" stroke="black" points="253.5,-123 253.5,-145 451.5,-145 451.5,-123 253.5,-123"/>
<text text-anchor="start" x="273.5" y="-131.2" font-family="Helvetica,sans-Serif" font-size="11.00">diag_wallclock_modified</text>
<polygon fill="none" stroke="black" points="451.5,-123 451.5,-145 544.5,-145 544.5,-123 451.5,-123"/>
<text text-anchor="start" x="454.5" y="-131.2" font-family="Helvetica,sans-Serif" font-size="11.00">timestamptz[35,6]</text>
<polygon fill="none" stroke="black" points="253.5,-101 253.5,-123 451.5,-123 451.5,-101 253.5,-101"/>
<text text-anchor="start" x="273.5" y="-109.2" font-family="Helvetica,sans-Serif" font-size="11.00">diag_role_modified</text>
<polygon fill="none" stroke="black" points="451.5,-101 451.5,-123 544.5,-123 544.5,-101 451.5,-101"/>
<text text-anchor="start" x="454.5" y="-109.2" font-family="Helvetica,sans-Serif" font-size="11.00">text[2147483647]</text>
<polygon fill="none" stroke="black" points="253.5,-79 253.5,-101 451.5,-101 451.5,-79 253.5,-79"/>
<text text-anchor="start" x="273.5" y="-87.2" font-family="Helvetica,sans-Serif" font-size="11.00">diag_row_version</text>
<polygon fill="none" stroke="black" points="451.5,-79 451.5,-101 544.5,-101 544.5,-79 451.5,-79"/>
<text text-anchor="start" x="454.5" y="-87.2" font-family="Helvetica,sans-Serif" font-size="11.00">int8[19]</text>
<polygon fill="none" stroke="black" points="253.5,-57 253.5,-79 451.5,-79 451.5,-57 253.5,-57"/>
<text text-anchor="start" x="273.5" y="-65.2" font-family="Helvetica,sans-Serif" font-size="11.00">diag_update_count</text>
<polygon fill="none" stroke="black" points="451.5,-57 451.5,-79 544.5,-79 544.5,-57 451.5,-57"/>
<text text-anchor="start" x="454.5" y="-65.2" font-family="Helvetica,sans-Serif" font-size="11.00">int8[19]</text>
<polygon fill="#ffffff" stroke="transparent" points="253.5,-39 253.5,-57 356.5,-57 356.5,-39 253.5,-39"/>
<polygon fill="none" stroke="black" points="253.5,-39 253.5,-57 356.5,-57 356.5,-39 253.5,-39"/>
<text text-anchor="start" x="256.5" y="-45.2" font-family="Helvetica,sans-Serif" font-size="11.00">&lt; 1</text>
<polygon fill="#ffffff" stroke="transparent" points="356.5,-39 356.5,-57 451.5,-57 451.5,-39 356.5,-39"/>
<polygon fill="none" stroke="black" points="356.5,-39 356.5,-57 451.5,-57 451.5,-39 356.5,-39"/>
<text text-anchor="start" x="441.5" y="-45.2" font-family="Helvetica,sans-Serif" font-size="11.00"> &#160;</text>
<polygon fill="#ffffff" stroke="transparent" points="451.5,-39 451.5,-57 544.5,-57 544.5,-39 451.5,-39"/>
<polygon fill="none" stroke="black" points="451.5,-39 451.5,-57 544.5,-57 544.5,-39 451.5,-39"/>
<text text-anchor="start" x="525.5" y="-45.2" font-family="Helvetica,sans-Serif" font-size="11.00">0 &gt;</text>
<polygon fill="none" stroke="black" stroke-width="2" points="252,-38 252,-388 545,-388 545,-38 252,-38"/>
</a>
</g>
</g>
<!-- syst_owners -->
<g id="node2" class="node">
<title>syst_owners</title>
<g id="a_node2"><a xlink:href="../../tables/syst_owners.html" xlink:title="syst_owners" target="_top">
<polygon fill="#ffffff" stroke="transparent" points="8,-219 8,-365 202,-365 202,-219 8,-219"/>
<polygon fill="#f5f5f5" stroke="transparent" points="8,-343 8,-365 202,-365 202,-343 8,-343"/>
<polygon fill="none" stroke="black" points="8,-343 8,-365 202,-365 202,-343 8,-343"/>
<text text-anchor="start" x="13" y="-352.2" font-family="Helvetica,sans-Serif" font-weight="bold" font-size="11.00">syst_owners</text>
<text text-anchor="start" x="167" y="-351.2" font-family="Helvetica,sans-Serif" font-size="11.00">[table]</text>
<polygon fill="none" stroke="black" points="8,-321 8,-343 202,-343 202,-321 8,-321"/>
<image xlink:href="../../images/primaryKeys.png" width="11px" height="12px" preserveAspectRatio="xMinYMin meet" x="13" y="-338"/>
<text text-anchor="start" x="28" y="-329.2" font-family="Helvetica,sans-Serif" font-size="11.00">id</text>
<polygon fill="#ffffff" stroke="transparent" points="8,-299 8,-321 202,-321 202,-299 8,-299"/>
<polygon fill="none" stroke="black" points="8,-299 8,-321 202,-321 202,-299 8,-299"/>
<text text-anchor="start" x="28" y="-307.2" font-family="Helvetica,sans-Serif" font-size="11.00">internal_name</text>
<polygon fill="#ffffff" stroke="transparent" points="8,-277 8,-299 202,-299 202,-277 8,-277"/>
<polygon fill="none" stroke="black" points="8,-277 8,-299 202,-299 202,-277 8,-277"/>
<text text-anchor="start" x="28" y="-285.2" font-family="Helvetica,sans-Serif" font-size="11.00">display_name</text>
<polygon fill="none" stroke="black" points="8,-255 8,-277 202,-277 202,-255 8,-255"/>
<image xlink:href="../../images/foreignKeys.png" width="11px" height="12px" preserveAspectRatio="xMinYMin meet" x="13" y="-272"/>
<text text-anchor="start" x="28" y="-263.2" font-family="Helvetica,sans-Serif" font-size="11.00">owner_state_id</text>
<polygon fill="none" stroke="black" points="8,-237 8,-255 202,-255 202,-237 8,-237"/>
<text text-anchor="start" x="11" y="-243.2" font-family="Helvetica,sans-Serif" font-size="11.00">...</text>
<polygon fill="#ffffff" stroke="transparent" points="8,-219 8,-237 98,-237 98,-219 8,-219"/>
<polygon fill="none" stroke="black" points="8,-219 8,-237 98,-237 98,-219 8,-219"/>
<text text-anchor="start" x="11" y="-225.2" font-family="Helvetica,sans-Serif" font-size="11.00">&lt; 1</text>
<polygon fill="#ffffff" stroke="transparent" points="98,-219 98,-237 145,-237 145,-219 98,-219"/>
<polygon fill="none" stroke="black" points="98,-219 98,-237 145,-237 145,-219 98,-219"/>
<text text-anchor="start" x="135" y="-225.2" font-family="Helvetica,sans-Serif" font-size="11.00"> &#160;</text>
<polygon fill="#ffffff" stroke="transparent" points="145,-219 145,-237 202,-237 202,-219 145,-219"/>
<polygon fill="none" stroke="black" points="145,-219 145,-237 202,-237 202,-219 145,-219"/>
<text text-anchor="start" x="183" y="-225.2" font-family="Helvetica,sans-Serif" font-size="11.00">4 &gt;</text>
</a>
</g>
</g>
<!-- syst_owner_network_rules&#45;&gt;syst_owners -->
<g id="edge1" class="edge">
<title>syst_owner_network_rules:w&#45;&gt;syst_owners:e</title>
<path fill="none" stroke="black" d="M237.84,-332C226.41,-332 219.16,-332 203,-332"/>
<polygon fill="black" stroke="black" points="244.5,-332 252.5,-335.6 248.5,-332 252.5,-332 252.5,-332 252.5,-332 248.5,-332 252.5,-328.4 244.5,-332 244.5,-332"/>
<ellipse fill="none" stroke="black" cx="241.3" cy="-332" rx="3.2" ry="3.2"/>
</g>
</g>
</svg>
