<?xml version="1.0" encoding="UTF-8" standalone="no"?>
<!DOCTYPE svg PUBLIC "-//W3C//DTD SVG 1.1//EN"
 "http://www.w3.org/Graphics/SVG/1.1/DTD/svg11.dtd">
<!-- Generated by graphviz version 2.43.0 (0)
 -->
<!-- Title: twoDegreesRelationshipsDiagram Pages: 1 -->
<svg width="1132pt" height="553pt"
 viewBox="0.00 0.00 1132.00 552.51" xmlns="http://www.w3.org/2000/svg" xmlns:xlink="http://www.w3.org/1999/xlink">
<g id="graph0" class="graph" transform="scale(1 1) rotate(0) translate(4 548.51)">
<title>twoDegreesRelationshipsDiagram</title>
<polygon fill="#ffffff" stroke="transparent" points="-4,4 -4,-548.51 1128,-548.51 1128,4 -4,4"/>
<text text-anchor="middle" x="71.5" y="-7.2" font-family="Helvetica,sans-Serif" font-size="11.00">Generated by SchemaSpy</text>
<!-- syst_access_account_instance_assocs -->
<g id="node1" class="node">
<title>syst_access_account_instance_assocs</title>
<g id="a_node1"><a xlink:href="../../tables/syst_access_account_instance_assocs.html" xlink:title="syst_access_account_instance_assocs" target="_top">
<polygon fill="#ffffff" stroke="transparent" points="626,-428 626,-486 918,-486 918,-428 626,-428"/>
<polygon fill="#f5f5f5" stroke="transparent" points="626,-464 626,-486 918,-486 918,-464 626,-464"/>
<polygon fill="none" stroke="black" points="626,-464 626,-486 918,-486 918,-464 626,-464"/>
<text text-anchor="start" x="631" y="-473.2" font-family="Helvetica,sans-Serif" font-weight="bold" font-size="11.00">syst_access_account_instance_assocs</text>
<text text-anchor="start" x="883" y="-472.2" font-family="Helvetica,sans-Serif" font-size="11.00">[table]</text>
<polygon fill="none" stroke="black" points="626,-446 626,-464 918,-464 918,-446 626,-446"/>
<text text-anchor="start" x="629" y="-452.2" font-family="Helvetica,sans-Serif" font-size="11.00">...</text>
<polygon fill="#ffffff" stroke="transparent" points="626,-428 626,-446 770,-446 770,-428 626,-428"/>
<polygon fill="none" stroke="black" points="626,-428 626,-446 770,-446 770,-428 626,-428"/>
<text text-anchor="start" x="629" y="-434.2" font-family="Helvetica,sans-Serif" font-size="11.00">&lt; 2</text>
<polygon fill="#ffffff" stroke="transparent" points="770,-428 770,-446 844,-446 844,-428 770,-428"/>
<polygon fill="none" stroke="black" points="770,-428 770,-446 844,-446 844,-428 770,-428"/>
<text text-anchor="start" x="834" y="-434.2" font-family="Helvetica,sans-Serif" font-size="11.00"> &#160;</text>
<polygon fill="#ffffff" stroke="transparent" points="844,-428 844,-446 918,-446 918,-428 844,-428"/>
<polygon fill="none" stroke="black" points="844,-428 844,-446 918,-446 918,-428 844,-428"/>
<text text-anchor="start" x="908" y="-434.2" font-family="Helvetica,sans-Serif" font-size="11.00"> &#160;</text>
</a>
</g>
</g>
<!-- syst_access_accounts -->
<g id="node2" class="node">
<title>syst_access_accounts</title>
<g id="a_node2"><a xlink:href="../../tables/syst_access_accounts.html" xlink:title="syst_access_accounts" target="_top">
<polygon fill="#ffffff" stroke="transparent" points="383,-199 383,-345 577,-345 577,-199 383,-199"/>
<polygon fill="#f5f5f5" stroke="transparent" points="383,-323 383,-345 577,-345 577,-323 383,-323"/>
<polygon fill="none" stroke="black" points="383,-323 383,-345 577,-345 577,-323 383,-323"/>
<text text-anchor="start" x="388" y="-332.2" font-family="Helvetica,sans-Serif" font-weight="bold" font-size="11.00">syst_access_accounts</text>
<text text-anchor="start" x="542" y="-331.2" font-family="Helvetica,sans-Serif" font-size="11.00">[table]</text>
<polygon fill="none" stroke="black" points="383,-301 383,-323 577,-323 577,-301 383,-301"/>
<image xlink:href="../../images/primaryKeys.png" width="11px" height="12px" preserveAspectRatio="xMinYMin meet" x="388" y="-318"/>
<text text-anchor="start" x="403" y="-309.2" font-family="Helvetica,sans-Serif" font-size="11.00">id</text>
<polygon fill="#ffffff" stroke="transparent" points="383,-279 383,-301 577,-301 577,-279 383,-279"/>
<polygon fill="none" stroke="black" points="383,-279 383,-301 577,-301 577,-279 383,-279"/>
<text text-anchor="start" x="403" y="-287.2" font-family="Helvetica,sans-Serif" font-size="11.00">internal_name</text>
<polygon fill="none" stroke="black" points="383,-257 383,-279 577,-279 577,-257 383,-257"/>
<image xlink:href="../../images/foreignKeys.png" width="11px" height="12px" preserveAspectRatio="xMinYMin meet" x="388" y="-274"/>
<text text-anchor="start" x="403" y="-265.2" font-family="Helvetica,sans-Serif" font-size="11.00">owning_owner_id</text>
<polygon fill="none" stroke="black" points="383,-235 383,-257 577,-257 577,-235 383,-235"/>
<image xlink:href="../../images/foreignKeys.png" width="11px" height="12px" preserveAspectRatio="xMinYMin meet" x="388" y="-252"/>
<text text-anchor="start" x="403" y="-243.2" font-family="Helvetica,sans-Serif" font-size="11.00">access_account_state_id</text>
<polygon fill="none" stroke="black" points="383,-217 383,-235 577,-235 577,-217 383,-217"/>
<text text-anchor="start" x="386" y="-223.2" font-family="Helvetica,sans-Serif" font-size="11.00">...</text>
<polygon fill="#ffffff" stroke="transparent" points="383,-199 383,-217 473,-217 473,-199 383,-199"/>
<polygon fill="none" stroke="black" points="383,-199 383,-217 473,-217 473,-199 383,-199"/>
<text text-anchor="start" x="386" y="-205.2" font-family="Helvetica,sans-Serif" font-size="11.00">&lt; 2</text>
<polygon fill="#ffffff" stroke="transparent" points="473,-199 473,-217 520,-217 520,-199 473,-199"/>
<polygon fill="none" stroke="black" points="473,-199 473,-217 520,-217 520,-199 473,-199"/>
<text text-anchor="start" x="510" y="-205.2" font-family="Helvetica,sans-Serif" font-size="11.00"> &#160;</text>
<polygon fill="#ffffff" stroke="transparent" points="520,-199 520,-217 577,-217 577,-199 520,-199"/>
<polygon fill="none" stroke="black" points="520,-199 520,-217 577,-217 577,-199 520,-199"/>
<text text-anchor="start" x="558" y="-205.2" font-family="Helvetica,sans-Serif" font-size="11.00">4 &gt;</text>
</a>
</g>
</g>
<!-- syst_access_account_instance_assocs&#45;&gt;syst_access_accounts -->
<g id="edge1" class="edge">
<title>syst_access_account_instance_assocs:w&#45;&gt;syst_access_accounts:e</title>
<path fill="none" stroke="black" d="M610.47,-451.74C572.46,-430.46 638.89,-312 578,-312"/>
<polygon fill="black" stroke="black" points="617.19,-453.25 624.21,-458.51 621.1,-454.13 625,-455 625,-455 625,-455 621.1,-454.13 625.79,-451.49 617.19,-453.25 617.19,-453.25"/>
<ellipse fill="none" stroke="black" cx="614.07" cy="-452.55" rx="3.2" ry="3.2"/>
</g>
<!-- syst_enum_items -->
<g id="node3" class="node">
<title>syst_enum_items</title>
<g id="a_node3"><a xlink:href="../../tables/syst_enum_items.html" xlink:title="syst_enum_items" target="_top">
<polygon fill="#ffffff" stroke="transparent" points="8,-229 8,-287 163,-287 163,-229 8,-229"/>
<polygon fill="#f5f5f5" stroke="transparent" points="8.5,-265 8.5,-287 163.5,-287 163.5,-265 8.5,-265"/>
<polygon fill="none" stroke="black" points="8.5,-265 8.5,-287 163.5,-287 163.5,-265 8.5,-265"/>
<text text-anchor="start" x="13.5" y="-274.2" font-family="Helvetica,sans-Serif" font-weight="bold" font-size="11.00">syst_enum_items</text>
<text text-anchor="start" x="128.5" y="-273.2" font-family="Helvetica,sans-Serif" font-size="11.00">[table]</text>
<polygon fill="none" stroke="black" points="8.5,-247 8.5,-265 163.5,-265 163.5,-247 8.5,-247"/>
<text text-anchor="start" x="11.5" y="-253.2" font-family="Helvetica,sans-Serif" font-size="11.00">...</text>
<polygon fill="#ffffff" stroke="transparent" points="8.5,-229 8.5,-247 79.5,-247 79.5,-229 8.5,-229"/>
<polygon fill="none" stroke="black" points="8.5,-229 8.5,-247 79.5,-247 79.5,-229 8.5,-229"/>
<text text-anchor="start" x="11.5" y="-235.2" font-family="Helvetica,sans-Serif" font-size="11.00">&lt; 2</text>
<polygon fill="#ffffff" stroke="transparent" points="79.5,-229 79.5,-247 116.5,-247 116.5,-229 79.5,-229"/>
<polygon fill="none" stroke="black" points="79.5,-229 79.5,-247 116.5,-247 116.5,-229 79.5,-229"/>
<text text-anchor="start" x="106.5" y="-235.2" font-family="Helvetica,sans-Serif" font-size="11.00"> &#160;</text>
<polygon fill="#ffffff" stroke="transparent" points="116.5,-229 116.5,-247 163.5,-247 163.5,-229 116.5,-229"/>
<polygon fill="none" stroke="black" points="116.5,-229 116.5,-247 163.5,-247 163.5,-229 116.5,-229"/>
<text text-anchor="start" x="144.5" y="-235.2" font-family="Helvetica,sans-Serif" font-size="11.00">7 &gt;</text>
</a>
</g>
</g>
<!-- syst_access_accounts&#45;&gt;syst_enum_items -->
<g id="edge2" class="edge">
<title>syst_access_accounts:w&#45;&gt;syst_enum_items:e</title>
<path fill="none" stroke="black" d="M367.4,-245.86C300,-244.58 277.33,-234.98 204,-245 185.94,-247.47 182.72,-256 164.5,-256"/>
<polygon fill="black" stroke="black" points="374,-245.92 381.97,-249.6 378,-245.96 382,-246 382,-246 382,-246 378,-245.96 382.03,-242.4 374,-245.92 374,-245.92"/>
<ellipse fill="none" stroke="black" cx="370.8" cy="-245.89" rx="3.2" ry="3.2"/>
</g>
<!-- syst_owners -->
<g id="node4" class="node">
<title>syst_owners</title>
<g id="a_node4"><a xlink:href="../../tables/syst_owners.html" xlink:title="syst_owners" target="_top">
<polygon fill="#ffffff" stroke="transparent" points="212,-255 212,-313 334,-313 334,-255 212,-255"/>
<polygon fill="#f5f5f5" stroke="transparent" points="212,-291 212,-313 334,-313 334,-291 212,-291"/>
<polygon fill="none" stroke="black" points="212,-291 212,-313 334,-313 334,-291 212,-291"/>
<text text-anchor="start" x="217" y="-300.2" font-family="Helvetica,sans-Serif" font-weight="bold" font-size="11.00">syst_owners</text>
<text text-anchor="start" x="299" y="-299.2" font-family="Helvetica,sans-Serif" font-size="11.00">[table]</text>
<polygon fill="none" stroke="black" points="212,-273 212,-291 334,-291 334,-273 212,-273"/>
<text text-anchor="start" x="215" y="-279.2" font-family="Helvetica,sans-Serif" font-size="11.00">...</text>
<polygon fill="#ffffff" stroke="transparent" points="212,-255 212,-273 266,-273 266,-255 212,-255"/>
<polygon fill="none" stroke="black" points="212,-255 212,-273 266,-273 266,-255 212,-255"/>
<text text-anchor="start" x="215" y="-261.2" font-family="Helvetica,sans-Serif" font-size="11.00">&lt; 1</text>
<polygon fill="#ffffff" stroke="transparent" points="266,-255 266,-273 295,-273 295,-255 266,-255"/>
<polygon fill="none" stroke="black" points="266,-255 266,-273 295,-273 295,-255 266,-255"/>
<text text-anchor="start" x="285" y="-261.2" font-family="Helvetica,sans-Serif" font-size="11.00"> &#160;</text>
<polygon fill="#ffffff" stroke="transparent" points="295,-255 295,-273 334,-273 334,-255 295,-255"/>
<polygon fill="none" stroke="black" points="295,-255 295,-273 334,-273 334,-255 295,-255"/>
<text text-anchor="start" x="315" y="-261.2" font-family="Helvetica,sans-Serif" font-size="11.00">4 &gt;</text>
</a>
</g>
</g>
<!-- syst_access_accounts&#45;&gt;syst_owners -->
<g id="edge3" class="edge">
<title>syst_access_accounts:w&#45;&gt;syst_owners:e</title>
<path fill="none" stroke="black" d="M367.49,-270.57C356.97,-274.61 350.84,-282 335,-282"/>
<polygon fill="black" stroke="black" points="374.12,-269.39 382.63,-271.54 378.06,-268.7 382,-268 382,-268 382,-268 378.06,-268.7 381.37,-264.46 374.12,-269.39 374.12,-269.39"/>
<ellipse fill="none" stroke="black" cx="370.97" cy="-269.95" rx="3.2" ry="3.2"/>
</g>
<!-- syst_owners&#45;&gt;syst_enum_items -->
<g id="edge9" class="edge">
<title>syst_owners:w&#45;&gt;syst_enum_items:e</title>
<path fill="none" stroke="black" d="M197.07,-277.94C186.22,-270.62 182.26,-256 164.5,-256"/>
<polygon fill="black" stroke="black" points="203.32,-279.76 209.99,-285.46 207.16,-280.88 211,-282 211,-282 211,-282 207.16,-280.88 212.01,-278.54 203.32,-279.76 203.32,-279.76"/>
<ellipse fill="none" stroke="black" cx="200.25" cy="-278.86" rx="3.2" ry="3.2"/>
</g>
<!-- syst_credentials -->
<g id="node5" class="node">
<title>syst_credentials</title>
<g id="a_node5"><a xlink:href="../../tables/syst_credentials.html" xlink:title="syst_credentials" target="_top">
<polygon fill="#ffffff" stroke="transparent" points="967,-92 967,-150 1116,-150 1116,-92 967,-92"/>
<polygon fill="#f5f5f5" stroke="transparent" points="967.5,-128 967.5,-150 1116.5,-150 1116.5,-128 967.5,-128"/>
<polygon fill="none" stroke="black" points="967.5,-128 967.5,-150 1116.5,-150 1116.5,-128 967.5,-128"/>
<text text-anchor="start" x="972.5" y="-137.2" font-family="Helvetica,sans-Serif" font-weight="bold" font-size="11.00">syst_credentials</text>
<text text-anchor="start" x="1081.5" y="-136.2" font-family="Helvetica,sans-Serif" font-size="11.00">[table]</text>
<polygon fill="none" stroke="black" points="967.5,-110 967.5,-128 1116.5,-128 1116.5,-110 967.5,-110"/>
<text text-anchor="start" x="970.5" y="-116.2" font-family="Helvetica,sans-Serif" font-size="11.00">...</text>
<polygon fill="#ffffff" stroke="transparent" points="967.5,-92 967.5,-110 1039.5,-110 1039.5,-92 967.5,-92"/>
<polygon fill="none" stroke="black" points="967.5,-92 967.5,-110 1039.5,-110 1039.5,-92 967.5,-92"/>
<text text-anchor="start" x="970.5" y="-98.2" font-family="Helvetica,sans-Serif" font-size="11.00">&lt; 3</text>
<polygon fill="#ffffff" stroke="transparent" points="1039.5,-92 1039.5,-110 1077.5,-110 1077.5,-92 1039.5,-92"/>
<polygon fill="none" stroke="black" points="1039.5,-92 1039.5,-110 1077.5,-110 1077.5,-92 1039.5,-92"/>
<text text-anchor="start" x="1067.5" y="-98.2" font-family="Helvetica,sans-Serif" font-size="11.00"> &#160;</text>
<polygon fill="#ffffff" stroke="transparent" points="1077.5,-92 1077.5,-110 1116.5,-110 1116.5,-92 1077.5,-92"/>
<polygon fill="none" stroke="black" points="1077.5,-92 1077.5,-110 1116.5,-110 1116.5,-92 1077.5,-92"/>
<text text-anchor="start" x="1106.5" y="-98.2" font-family="Helvetica,sans-Serif" font-size="11.00"> &#160;</text>
</a>
</g>
</g>
<!-- syst_credentials&#45;&gt;syst_access_accounts -->
<g id="edge4" class="edge">
<title>syst_credentials:w&#45;&gt;syst_access_accounts:e</title>
<path fill="none" stroke="black" d="M952.09,-118.67C865.53,-115.13 674.17,-85.2 618,-132 555.04,-184.46 659.95,-312 578,-312"/>
<polygon fill="black" stroke="black" points="958.5,-118.82 966.42,-122.6 962.5,-118.91 966.5,-119 966.5,-119 966.5,-119 962.5,-118.91 966.58,-115.4 958.5,-118.82 958.5,-118.82"/>
<ellipse fill="none" stroke="black" cx="955.3" cy="-118.74" rx="3.2" ry="3.2"/>
</g>
<!-- syst_credentials&#45;&gt;syst_enum_items -->
<g id="edge6" class="edge">
<title>syst_credentials:w&#45;&gt;syst_enum_items:e</title>
<path fill="none" stroke="black" d="M952.45,-122.85C895.08,-159.35 984.79,-444.17 926,-497 824.18,-588.49 752.22,-523.92 618,-497 422.47,-457.79 353.9,-455.52 204,-324 177.73,-300.95 199.45,-256 164.5,-256"/>
<polygon fill="black" stroke="black" points="958.78,-121.11 967.45,-122.47 962.64,-120.06 966.5,-119 966.5,-119 966.5,-119 962.64,-120.06 965.55,-115.53 958.78,-121.11 958.78,-121.11"/>
<ellipse fill="none" stroke="black" cx="955.7" cy="-121.96" rx="3.2" ry="3.2"/>
</g>
<!-- syst_identities -->
<g id="node6" class="node">
<title>syst_identities</title>
<g id="a_node6"><a xlink:href="../../tables/syst_identities.html" xlink:title="syst_identities" target="_top">
<polygon fill="#ffffff" stroke="transparent" points="703,-37 703,-95 841,-95 841,-37 703,-37"/>
<polygon fill="#f5f5f5" stroke="transparent" points="703,-73 703,-95 841,-95 841,-73 703,-73"/>
<polygon fill="none" stroke="black" points="703,-73 703,-95 841,-95 841,-73 703,-73"/>
<text text-anchor="start" x="708" y="-82.2" font-family="Helvetica,sans-Serif" font-weight="bold" font-size="11.00">syst_identities</text>
<text text-anchor="start" x="806" y="-81.2" font-family="Helvetica,sans-Serif" font-size="11.00">[table]</text>
<polygon fill="none" stroke="black" points="703,-55 703,-73 841,-73 841,-55 703,-55"/>
<text text-anchor="start" x="706" y="-61.2" font-family="Helvetica,sans-Serif" font-size="11.00">...</text>
<polygon fill="#ffffff" stroke="transparent" points="703,-37 703,-55 765,-55 765,-37 703,-37"/>
<polygon fill="none" stroke="black" points="703,-37 703,-55 765,-55 765,-37 703,-37"/>
<text text-anchor="start" x="706" y="-43.2" font-family="Helvetica,sans-Serif" font-size="11.00">&lt; 3</text>
<polygon fill="#ffffff" stroke="transparent" points="765,-37 765,-55 798,-55 798,-37 765,-37"/>
<polygon fill="none" stroke="black" points="765,-37 765,-55 798,-55 798,-37 765,-37"/>
<text text-anchor="start" x="788" y="-43.2" font-family="Helvetica,sans-Serif" font-size="11.00"> &#160;</text>
<polygon fill="#ffffff" stroke="transparent" points="798,-37 798,-55 841,-55 841,-37 798,-37"/>
<polygon fill="none" stroke="black" points="798,-37 798,-55 841,-55 841,-37 798,-37"/>
<text text-anchor="start" x="822" y="-43.2" font-family="Helvetica,sans-Serif" font-size="11.00">2 &gt;</text>
</a>
</g>
</g>
<!-- syst_credentials&#45;&gt;syst_identities -->
<g id="edge5" class="edge">
<title>syst_credentials:w&#45;&gt;syst_identities:e</title>
<path fill="none" stroke="black" d="M952.09,-117.85C904.98,-109.95 897.29,-64 842,-64"/>
<polygon fill="black" stroke="black" points="958.53,-118.36 966.21,-122.59 962.51,-118.68 966.5,-119 966.5,-119 966.5,-119 962.51,-118.68 966.79,-115.41 958.53,-118.36 958.53,-118.36"/>
<ellipse fill="none" stroke="black" cx="955.34" cy="-118.11" rx="3.2" ry="3.2"/>
</g>
<!-- syst_identities&#45;&gt;syst_access_accounts -->
<g id="edge7" class="edge">
<title>syst_identities:w&#45;&gt;syst_access_accounts:e</title>
<path fill="none" stroke="black" d="M687.26,-64.54C655.39,-67.1 640.04,-79.2 618,-109 563.32,-182.94 669.96,-312 578,-312"/>
<polygon fill="black" stroke="black" points="694.01,-64.29 702.13,-67.6 698,-64.15 702,-64 702,-64 702,-64 698,-64.15 701.87,-60.4 694.01,-64.29 694.01,-64.29"/>
<ellipse fill="none" stroke="black" cx="690.81" cy="-64.41" rx="3.2" ry="3.2"/>
</g>
<!-- syst_identities&#45;&gt;syst_enum_items -->
<g id="edge8" class="edge">
<title>syst_identities:w&#45;&gt;syst_enum_items:e</title>
<path fill="none" stroke="black" d="M687.49,-64.11C465.64,-67.51 416.05,-149.5 204,-237 185.99,-244.43 183.98,-256 164.5,-256"/>
<polygon fill="black" stroke="black" points="694,-64.06 702.03,-67.6 698,-64.03 702,-64 702,-64 702,-64 698,-64.03 701.97,-60.4 694,-64.06 694,-64.06"/>
<ellipse fill="none" stroke="black" cx="690.8" cy="-64.08" rx="3.2" ry="3.2"/>
</g>
<!-- syst_password_history -->
<g id="node7" class="node">
<title>syst_password_history</title>
<g id="a_node7"><a xlink:href="../../tables/syst_password_history.html" xlink:title="syst_password_history" target="_top">
<polygon fill="#ffffff" stroke="transparent" points="626.5,-143 626.5,-407 917.5,-407 917.5,-143 626.5,-143"/>
<polygon fill="#f5f5f5" stroke="transparent" points="629,-383 629,-405 916,-405 916,-383 629,-383"/>
<polygon fill="none" stroke="black" points="629,-383 629,-405 916,-405 916,-383 629,-383"/>
<text text-anchor="start" x="634" y="-392.2" font-family="Helvetica,sans-Serif" font-weight="bold" font-size="11.00">syst_password_history</text>
<text text-anchor="start" x="881" y="-391.2" font-family="Helvetica,sans-Serif" font-size="11.00">[table]</text>
<polygon fill="none" stroke="black" points="629,-361 629,-383 823,-383 823,-361 629,-361"/>
<image xlink:href="../../images/primaryKeys.png" width="11px" height="12px" preserveAspectRatio="xMinYMin meet" x="634" y="-378"/>
<text text-anchor="start" x="649" y="-369.2" font-family="Helvetica,sans-Serif" font-size="11.00">id</text>
<polygon fill="none" stroke="black" points="823,-361 823,-383 916,-383 916,-361 823,-361"/>
<text text-anchor="start" x="826" y="-369.2" font-family="Helvetica,sans-Serif" font-size="11.00">uuid[2147483647]</text>
<polygon fill="#ffffff" stroke="transparent" points="629,-339 629,-361 823,-361 823,-339 629,-339"/>
<polygon fill="none" stroke="black" points="629,-339 629,-361 823,-361 823,-339 629,-339"/>
<image xlink:href="../../images/foreignKeys.png" width="11px" height="12px" preserveAspectRatio="xMinYMin meet" x="634" y="-356"/>
<text text-anchor="start" x="649" y="-347.2" font-family="Helvetica,sans-Serif" font-size="11.00">access_account_id</text>
<polygon fill="none" stroke="black" points="823,-339 823,-361 916,-361 916,-339 823,-339"/>
<text text-anchor="start" x="826" y="-347.2" font-family="Helvetica,sans-Serif" font-size="11.00">uuid[2147483647]</text>
<polygon fill="none" stroke="black" points="629,-317 629,-339 823,-339 823,-317 629,-317"/>
<text text-anchor="start" x="649" y="-325.2" font-family="Helvetica,sans-Serif" font-size="11.00">credential_data</text>
<polygon fill="none" stroke="black" points="823,-317 823,-339 916,-339 916,-317 823,-317"/>
<text text-anchor="start" x="826" y="-325.2" font-family="Helvetica,sans-Serif" font-size="11.00">text[2147483647]</text>
<polygon fill="none" stroke="black" points="629,-295 629,-317 823,-317 823,-295 629,-295"/>
<text text-anchor="start" x="649" y="-303.2" font-family="Helvetica,sans-Serif" font-size="11.00">diag_timestamp_created</text>
<polygon fill="none" stroke="black" points="823,-295 823,-317 916,-317 916,-295 823,-295"/>
<text text-anchor="start" x="826" y="-303.2" font-family="Helvetica,sans-Serif" font-size="11.00">timestamptz[35,6]</text>
<polygon fill="none" stroke="black" points="629,-273 629,-295 823,-295 823,-273 629,-273"/>
<text text-anchor="start" x="649" y="-281.2" font-family="Helvetica,sans-Serif" font-size="11.00">diag_role_created</text>
<polygon fill="none" stroke="black" points="823,-273 823,-295 916,-295 916,-273 823,-273"/>
<text text-anchor="start" x="826" y="-281.2" font-family="Helvetica,sans-Serif" font-size="11.00">text[2147483647]</text>
<polygon fill="none" stroke="black" points="629,-251 629,-273 823,-273 823,-251 629,-251"/>
<text text-anchor="start" x="649" y="-259.2" font-family="Helvetica,sans-Serif" font-size="11.00">diag_timestamp_modified</text>
<polygon fill="none" stroke="black" points="823,-251 823,-273 916,-273 916,-251 823,-251"/>
<text text-anchor="start" x="826" y="-259.2" font-family="Helvetica,sans-Serif" font-size="11.00">timestamptz[35,6]</text>
<polygon fill="none" stroke="black" points="629,-229 629,-251 823,-251 823,-229 629,-229"/>
<text text-anchor="start" x="649" y="-237.2" font-family="Helvetica,sans-Serif" font-size="11.00">diag_wallclock_modified</text>
<polygon fill="none" stroke="black" points="823,-229 823,-251 916,-251 916,-229 823,-229"/>
<text text-anchor="start" x="826" y="-237.2" font-family="Helvetica,sans-Serif" font-size="11.00">timestamptz[35,6]</text>
<polygon fill="none" stroke="black" points="629,-207 629,-229 823,-229 823,-207 629,-207"/>
<text text-anchor="start" x="649" y="-215.2" font-family="Helvetica,sans-Serif" font-size="11.00">diag_role_modified</text>
<polygon fill="none" stroke="black" points="823,-207 823,-229 916,-229 916,-207 823,-207"/>
<text text-anchor="start" x="826" y="-215.2" font-family="Helvetica,sans-Serif" font-size="11.00">text[2147483647]</text>
<polygon fill="none" stroke="black" points="629,-185 629,-207 823,-207 823,-185 629,-185"/>
<text text-anchor="start" x="649" y="-193.2" font-family="Helvetica,sans-Serif" font-size="11.00">diag_row_version</text>
<polygon fill="none" stroke="black" points="823,-185 823,-207 916,-207 916,-185 823,-185"/>
<text text-anchor="start" x="826" y="-193.2" font-family="Helvetica,sans-Serif" font-size="11.00">int8[19]</text>
<polygon fill="none" stroke="black" points="629,-163 629,-185 823,-185 823,-163 629,-163"/>
<text text-anchor="start" x="649" y="-171.2" font-family="Helvetica,sans-Serif" font-size="11.00">diag_update_count</text>
<polygon fill="none" stroke="black" points="823,-163 823,-185 916,-185 916,-163 823,-163"/>
<text text-anchor="start" x="826" y="-171.2" font-family="Helvetica,sans-Serif" font-size="11.00">int8[19]</text>
<polygon fill="#ffffff" stroke="transparent" points="629,-145 629,-163 730,-163 730,-145 629,-145"/>
<polygon fill="none" stroke="black" points="629,-145 629,-163 730,-163 730,-145 629,-145"/>
<text text-anchor="start" x="632" y="-151.2" font-family="Helvetica,sans-Serif" font-size="11.00">&lt; 1</text>
<polygon fill="#ffffff" stroke="transparent" points="730,-145 730,-163 823,-163 823,-145 730,-145"/>
<polygon fill="none" stroke="black" points="730,-145 730,-163 823,-163 823,-145 730,-145"/>
<text text-anchor="start" x="813" y="-151.2" font-family="Helvetica,sans-Serif" font-size="11.00"> &#160;</text>
<polygon fill="#ffffff" stroke="transparent" points="823,-145 823,-163 916,-163 916,-145 823,-145"/>
<polygon fill="none" stroke="black" points="823,-145 823,-163 916,-163 916,-145 823,-145"/>
<text text-anchor="start" x="897" y="-151.2" font-family="Helvetica,sans-Serif" font-size="11.00">0 &gt;</text>
<polygon fill="none" stroke="black" stroke-width="2" points="627.5,-144 627.5,-406 916.5,-406 916.5,-144 627.5,-144"/>
</a>
</g>
</g>
<!-- syst_password_history&#45;&gt;syst_access_accounts -->
<g id="edge10" class="edge">
<title>syst_password_history:w&#45;&gt;syst_access_accounts:e</title>
<path fill="none" stroke="black" d="M614.21,-345.64C601.04,-335.66 600.02,-312 578,-312"/>
<polygon fill="black" stroke="black" points="620.37,-347.59 626.92,-353.43 624.19,-348.79 628,-350 628,-350 628,-350 624.19,-348.79 629.08,-346.57 620.37,-347.59 620.37,-347.59"/>
<ellipse fill="none" stroke="black" cx="617.32" cy="-346.62" rx="3.2" ry="3.2"/>
</g>
</g>
</svg>
