<?xml version="1.0" encoding="UTF-8" standalone="no"?>
<!DOCTYPE svg PUBLIC "-//W3C//DTD SVG 1.1//EN"
 "http://www.w3.org/Graphics/SVG/1.1/DTD/svg11.dtd">
<!-- Generated by graphviz version 2.43.0 (0)
 -->
<!-- Title: oneDegreeRelationshipsDiagram Pages: 1 -->
<svg width="833pt" height="718pt"
 viewBox="0.00 0.00 833.00 718.00" xmlns="http://www.w3.org/2000/svg" xmlns:xlink="http://www.w3.org/1999/xlink">
<g id="graph0" class="graph" transform="scale(1 1) rotate(0) translate(4 714)">
<title>oneDegreeRelationshipsDiagram</title>
<polygon fill="#ffffff" stroke="transparent" points="-4,4 -4,-714 829,-714 829,4 -4,4"/>
<text text-anchor="middle" x="71.5" y="-7.2" font-family="Helvetica,sans-Serif" font-size="11.00">Generated by SchemaSpy</text>
<!-- syst_access_accounts -->
<g id="node1" class="node">
<title>syst_access_accounts</title>
<g id="a_node1"><a xlink:href="../../tables/syst_access_accounts.html" xlink:title="syst_access_accounts" target="_top">
<polygon fill="#ffffff" stroke="transparent" points="607,-560 607,-706 801,-706 801,-560 607,-560"/>
<polygon fill="#f5f5f5" stroke="transparent" points="607,-684 607,-706 801,-706 801,-684 607,-684"/>
<polygon fill="none" stroke="black" points="607,-684 607,-706 801,-706 801,-684 607,-684"/>
<text text-anchor="start" x="612" y="-693.2" font-family="Helvetica,sans-Serif" font-weight="bold" font-size="11.00">syst_access_accounts</text>
<text text-anchor="start" x="766" y="-692.2" font-family="Helvetica,sans-Serif" font-size="11.00">[table]</text>
<polygon fill="none" stroke="black" points="607,-662 607,-684 801,-684 801,-662 607,-662"/>
<image xlink:href="../../images/primaryKeys.png" width="11px" height="12px" preserveAspectRatio="xMinYMin meet" x="612" y="-679"/>
<text text-anchor="start" x="627" y="-670.2" font-family="Helvetica,sans-Serif" font-size="11.00">id</text>
<polygon fill="#ffffff" stroke="transparent" points="607,-640 607,-662 801,-662 801,-640 607,-640"/>
<polygon fill="none" stroke="black" points="607,-640 607,-662 801,-662 801,-640 607,-640"/>
<text text-anchor="start" x="627" y="-648.2" font-family="Helvetica,sans-Serif" font-size="11.00">internal_name</text>
<polygon fill="none" stroke="black" points="607,-618 607,-640 801,-640 801,-618 607,-618"/>
<image xlink:href="../../images/foreignKeys.png" width="11px" height="12px" preserveAspectRatio="xMinYMin meet" x="612" y="-635"/>
<text text-anchor="start" x="627" y="-626.2" font-family="Helvetica,sans-Serif" font-size="11.00">owning_owner_id</text>
<polygon fill="none" stroke="black" points="607,-596 607,-618 801,-618 801,-596 607,-596"/>
<image xlink:href="../../images/foreignKeys.png" width="11px" height="12px" preserveAspectRatio="xMinYMin meet" x="612" y="-613"/>
<text text-anchor="start" x="627" y="-604.2" font-family="Helvetica,sans-Serif" font-size="11.00">access_account_state_id</text>
<polygon fill="none" stroke="black" points="607,-578 607,-596 801,-596 801,-578 607,-578"/>
<text text-anchor="start" x="610" y="-584.2" font-family="Helvetica,sans-Serif" font-size="11.00">...</text>
<polygon fill="#ffffff" stroke="transparent" points="607,-560 607,-578 697,-578 697,-560 607,-560"/>
<polygon fill="none" stroke="black" points="607,-560 607,-578 697,-578 697,-560 607,-560"/>
<text text-anchor="start" x="610" y="-566.2" font-family="Helvetica,sans-Serif" font-size="11.00">&lt; 2</text>
<polygon fill="#ffffff" stroke="transparent" points="697,-560 697,-578 744,-578 744,-560 697,-560"/>
<polygon fill="none" stroke="black" points="697,-560 697,-578 744,-578 744,-560 697,-560"/>
<text text-anchor="start" x="734" y="-566.2" font-family="Helvetica,sans-Serif" font-size="11.00"> &#160;</text>
<polygon fill="#ffffff" stroke="transparent" points="744,-560 744,-578 801,-578 801,-560 744,-560"/>
<polygon fill="none" stroke="black" points="744,-560 744,-578 801,-578 801,-560 744,-560"/>
<text text-anchor="start" x="782" y="-566.2" font-family="Helvetica,sans-Serif" font-size="11.00">4 &gt;</text>
</a>
</g>
</g>
<!-- syst_enum_items -->
<g id="node2" class="node">
<title>syst_enum_items</title>
<g id="a_node2"><a xlink:href="../../tables/syst_enum_items.html" xlink:title="syst_enum_items" target="_top">
<polygon fill="#ffffff" stroke="transparent" points="8,-124 8,-292 202,-292 202,-124 8,-124"/>
<polygon fill="#f5f5f5" stroke="transparent" points="8,-270 8,-292 202,-292 202,-270 8,-270"/>
<polygon fill="none" stroke="black" points="8,-270 8,-292 202,-292 202,-270 8,-270"/>
<text text-anchor="start" x="13" y="-279.2" font-family="Helvetica,sans-Serif" font-weight="bold" font-size="11.00">syst_enum_items</text>
<text text-anchor="start" x="167" y="-278.2" font-family="Helvetica,sans-Serif" font-size="11.00">[table]</text>
<polygon fill="none" stroke="black" points="8,-248 8,-270 202,-270 202,-248 8,-248"/>
<image xlink:href="../../images/primaryKeys.png" width="11px" height="12px" preserveAspectRatio="xMinYMin meet" x="13" y="-265"/>
<text text-anchor="start" x="28" y="-256.2" font-family="Helvetica,sans-Serif" font-size="11.00">id</text>
<polygon fill="#ffffff" stroke="transparent" points="8,-226 8,-248 202,-248 202,-226 8,-226"/>
<polygon fill="none" stroke="black" points="8,-226 8,-248 202,-248 202,-226 8,-226"/>
<text text-anchor="start" x="28" y="-234.2" font-family="Helvetica,sans-Serif" font-size="11.00">internal_name</text>
<polygon fill="#ffffff" stroke="transparent" points="8,-204 8,-226 202,-226 202,-204 8,-204"/>
<polygon fill="none" stroke="black" points="8,-204 8,-226 202,-226 202,-204 8,-204"/>
<text text-anchor="start" x="28" y="-212.2" font-family="Helvetica,sans-Serif" font-size="11.00">display_name</text>
<polygon fill="none" stroke="black" points="8,-182 8,-204 202,-204 202,-182 8,-182"/>
<image xlink:href="../../images/foreignKeys.png" width="11px" height="12px" preserveAspectRatio="xMinYMin meet" x="13" y="-199"/>
<text text-anchor="start" x="28" y="-190.2" font-family="Helvetica,sans-Serif" font-size="11.00">enum_id</text>
<polygon fill="none" stroke="black" points="8,-160 8,-182 202,-182 202,-160 8,-160"/>
<image xlink:href="../../images/foreignKeys.png" width="11px" height="12px" preserveAspectRatio="xMinYMin meet" x="13" y="-177"/>
<text text-anchor="start" x="28" y="-168.2" font-family="Helvetica,sans-Serif" font-size="11.00">functional_type_id</text>
<polygon fill="none" stroke="black" points="8,-142 8,-160 202,-160 202,-142 8,-142"/>
<text text-anchor="start" x="11" y="-148.2" font-family="Helvetica,sans-Serif" font-size="11.00">...</text>
<polygon fill="#ffffff" stroke="transparent" points="8,-124 8,-142 98,-142 98,-124 8,-124"/>
<polygon fill="none" stroke="black" points="8,-124 8,-142 98,-142 98,-124 8,-124"/>
<text text-anchor="start" x="11" y="-130.2" font-family="Helvetica,sans-Serif" font-size="11.00">&lt; 2</text>
<polygon fill="#ffffff" stroke="transparent" points="98,-124 98,-142 145,-142 145,-124 98,-124"/>
<polygon fill="none" stroke="black" points="98,-124 98,-142 145,-142 145,-124 98,-124"/>
<text text-anchor="start" x="135" y="-130.2" font-family="Helvetica,sans-Serif" font-size="11.00"> &#160;</text>
<polygon fill="#ffffff" stroke="transparent" points="145,-124 145,-142 202,-142 202,-124 145,-124"/>
<polygon fill="none" stroke="black" points="145,-124 145,-142 202,-142 202,-124 145,-124"/>
<text text-anchor="start" x="183" y="-130.2" font-family="Helvetica,sans-Serif" font-size="11.00">7 &gt;</text>
</a>
</g>
</g>
<!-- syst_access_accounts&#45;&gt;syst_enum_items -->
<g id="edge1" class="edge">
<title>syst_access_accounts:w&#45;&gt;syst_enum_items:e</title>
<path fill="none" stroke="black" d="M591.16,-607C429.74,-606.88 350.69,-602.98 243,-476 179.57,-401.21 301.07,-259 203,-259"/>
<polygon fill="black" stroke="black" points="598,-607 606,-610.6 602,-607 606,-607 606,-607 606,-607 602,-607 606,-603.4 598,-607 598,-607"/>
<ellipse fill="none" stroke="black" cx="594.8" cy="-607" rx="3.2" ry="3.2"/>
</g>
<!-- syst_owners -->
<g id="node3" class="node">
<title>syst_owners</title>
<g id="a_node3"><a xlink:href="../../tables/syst_owners.html" xlink:title="syst_owners" target="_top">
<polygon fill="#ffffff" stroke="transparent" points="251,-179 251,-465 542,-465 542,-179 251,-179"/>
<polygon fill="#f5f5f5" stroke="transparent" points="253.5,-441 253.5,-463 540.5,-463 540.5,-441 253.5,-441"/>
<polygon fill="none" stroke="black" points="253.5,-441 253.5,-463 540.5,-463 540.5,-441 253.5,-441"/>
<text text-anchor="start" x="258.5" y="-450.2" font-family="Helvetica,sans-Serif" font-weight="bold" font-size="11.00">syst_owners</text>
<text text-anchor="start" x="505.5" y="-449.2" font-family="Helvetica,sans-Serif" font-size="11.00">[table]</text>
<polygon fill="none" stroke="black" points="253.5,-419 253.5,-441 447.5,-441 447.5,-419 253.5,-419"/>
<image xlink:href="../../images/primaryKeys.png" width="11px" height="12px" preserveAspectRatio="xMinYMin meet" x="258.5" y="-436"/>
<text text-anchor="start" x="273.5" y="-427.2" font-family="Helvetica,sans-Serif" font-size="11.00">id</text>
<polygon fill="none" stroke="black" points="447.5,-419 447.5,-441 540.5,-441 540.5,-419 447.5,-419"/>
<text text-anchor="start" x="450.5" y="-427.2" font-family="Helvetica,sans-Serif" font-size="11.00">uuid[2147483647]</text>
<polygon fill="#ffffff" stroke="transparent" points="253.5,-397 253.5,-419 447.5,-419 447.5,-397 253.5,-397"/>
<polygon fill="none" stroke="black" points="253.5,-397 253.5,-419 447.5,-419 447.5,-397 253.5,-397"/>
<text text-anchor="start" x="273.5" y="-405.2" font-family="Helvetica,sans-Serif" font-size="11.00">internal_name</text>
<polygon fill="none" stroke="black" points="447.5,-397 447.5,-419 540.5,-419 540.5,-397 447.5,-397"/>
<text text-anchor="start" x="450.5" y="-405.2" font-family="Helvetica,sans-Serif" font-size="11.00">text[2147483647]</text>
<polygon fill="#ffffff" stroke="transparent" points="253.5,-375 253.5,-397 447.5,-397 447.5,-375 253.5,-375"/>
<polygon fill="none" stroke="black" points="253.5,-375 253.5,-397 447.5,-397 447.5,-375 253.5,-375"/>
<text text-anchor="start" x="273.5" y="-383.2" font-family="Helvetica,sans-Serif" font-size="11.00">display_name</text>
<polygon fill="none" stroke="black" points="447.5,-375 447.5,-397 540.5,-397 540.5,-375 447.5,-375"/>
<text text-anchor="start" x="450.5" y="-383.2" font-family="Helvetica,sans-Serif" font-size="11.00">text[2147483647]</text>
<polygon fill="none" stroke="black" points="253.5,-353 253.5,-375 447.5,-375 447.5,-353 253.5,-353"/>
<image xlink:href="../../images/foreignKeys.png" width="11px" height="12px" preserveAspectRatio="xMinYMin meet" x="258.5" y="-370"/>
<text text-anchor="start" x="273.5" y="-361.2" font-family="Helvetica,sans-Serif" font-size="11.00">owner_state_id</text>
<polygon fill="none" stroke="black" points="447.5,-353 447.5,-375 540.5,-375 540.5,-353 447.5,-353"/>
<text text-anchor="start" x="450.5" y="-361.2" font-family="Helvetica,sans-Serif" font-size="11.00">uuid[2147483647]</text>
<polygon fill="none" stroke="black" points="253.5,-331 253.5,-353 447.5,-353 447.5,-331 253.5,-331"/>
<text text-anchor="start" x="273.5" y="-339.2" font-family="Helvetica,sans-Serif" font-size="11.00">diag_timestamp_created</text>
<polygon fill="none" stroke="black" points="447.5,-331 447.5,-353 540.5,-353 540.5,-331 447.5,-331"/>
<text text-anchor="start" x="450.5" y="-339.2" font-family="Helvetica,sans-Serif" font-size="11.00">timestamptz[35,6]</text>
<polygon fill="none" stroke="black" points="253.5,-309 253.5,-331 447.5,-331 447.5,-309 253.5,-309"/>
<text text-anchor="start" x="273.5" y="-317.2" font-family="Helvetica,sans-Serif" font-size="11.00">diag_role_created</text>
<polygon fill="none" stroke="black" points="447.5,-309 447.5,-331 540.5,-331 540.5,-309 447.5,-309"/>
<text text-anchor="start" x="450.5" y="-317.2" font-family="Helvetica,sans-Serif" font-size="11.00">text[2147483647]</text>
<polygon fill="none" stroke="black" points="253.5,-287 253.5,-309 447.5,-309 447.5,-287 253.5,-287"/>
<text text-anchor="start" x="273.5" y="-295.2" font-family="Helvetica,sans-Serif" font-size="11.00">diag_timestamp_modified</text>
<polygon fill="none" stroke="black" points="447.5,-287 447.5,-309 540.5,-309 540.5,-287 447.5,-287"/>
<text text-anchor="start" x="450.5" y="-295.2" font-family="Helvetica,sans-Serif" font-size="11.00">timestamptz[35,6]</text>
<polygon fill="none" stroke="black" points="253.5,-265 253.5,-287 447.5,-287 447.5,-265 253.5,-265"/>
<text text-anchor="start" x="273.5" y="-273.2" font-family="Helvetica,sans-Serif" font-size="11.00">diag_wallclock_modified</text>
<polygon fill="none" stroke="black" points="447.5,-265 447.5,-287 540.5,-287 540.5,-265 447.5,-265"/>
<text text-anchor="start" x="450.5" y="-273.2" font-family="Helvetica,sans-Serif" font-size="11.00">timestamptz[35,6]</text>
<polygon fill="none" stroke="black" points="253.5,-243 253.5,-265 447.5,-265 447.5,-243 253.5,-243"/>
<text text-anchor="start" x="273.5" y="-251.2" font-family="Helvetica,sans-Serif" font-size="11.00">diag_role_modified</text>
<polygon fill="none" stroke="black" points="447.5,-243 447.5,-265 540.5,-265 540.5,-243 447.5,-243"/>
<text text-anchor="start" x="450.5" y="-251.2" font-family="Helvetica,sans-Serif" font-size="11.00">text[2147483647]</text>
<polygon fill="none" stroke="black" points="253.5,-221 253.5,-243 447.5,-243 447.5,-221 253.5,-221"/>
<text text-anchor="start" x="273.5" y="-229.2" font-family="Helvetica,sans-Serif" font-size="11.00">diag_row_version</text>
<polygon fill="none" stroke="black" points="447.5,-221 447.5,-243 540.5,-243 540.5,-221 447.5,-221"/>
<text text-anchor="start" x="450.5" y="-229.2" font-family="Helvetica,sans-Serif" font-size="11.00">int8[19]</text>
<polygon fill="none" stroke="black" points="253.5,-199 253.5,-221 447.5,-221 447.5,-199 253.5,-199"/>
<text text-anchor="start" x="273.5" y="-207.2" font-family="Helvetica,sans-Serif" font-size="11.00">diag_update_count</text>
<polygon fill="none" stroke="black" points="447.5,-199 447.5,-221 540.5,-221 540.5,-199 447.5,-199"/>
<text text-anchor="start" x="450.5" y="-207.2" font-family="Helvetica,sans-Serif" font-size="11.00">int8[19]</text>
<polygon fill="#ffffff" stroke="transparent" points="253.5,-181 253.5,-199 354.5,-199 354.5,-181 253.5,-181"/>
<polygon fill="none" stroke="black" points="253.5,-181 253.5,-199 354.5,-199 354.5,-181 253.5,-181"/>
<text text-anchor="start" x="256.5" y="-187.2" font-family="Helvetica,sans-Serif" font-size="11.00">&lt; 1</text>
<polygon fill="#ffffff" stroke="transparent" points="354.5,-181 354.5,-199 447.5,-199 447.5,-181 354.5,-181"/>
<polygon fill="none" stroke="black" points="354.5,-181 354.5,-199 447.5,-199 447.5,-181 354.5,-181"/>
<text text-anchor="start" x="437.5" y="-187.2" font-family="Helvetica,sans-Serif" font-size="11.00"> &#160;</text>
<polygon fill="#ffffff" stroke="transparent" points="447.5,-181 447.5,-199 540.5,-199 540.5,-181 447.5,-181"/>
<polygon fill="none" stroke="black" points="447.5,-181 447.5,-199 540.5,-199 540.5,-181 447.5,-181"/>
<text text-anchor="start" x="521.5" y="-187.2" font-family="Helvetica,sans-Serif" font-size="11.00">4 &gt;</text>
<polygon fill="none" stroke="black" stroke-width="2" points="252,-180 252,-464 541,-464 541,-180 252,-180"/>
</a>
</g>
</g>
<!-- syst_access_accounts&#45;&gt;syst_owners -->
<g id="edge2" class="edge">
<title>syst_access_accounts:w&#45;&gt;syst_owners:e</title>
<path fill="none" stroke="black" d="M591.38,-626.9C526.95,-605.63 628.84,-430 541.5,-430"/>
<polygon fill="black" stroke="black" points="598.08,-627.86 605.49,-632.56 602.04,-628.43 606,-629 606,-629 606,-629 602.04,-628.43 606.51,-625.44 598.08,-627.86 598.08,-627.86"/>
<ellipse fill="none" stroke="black" cx="594.91" cy="-627.41" rx="3.2" ry="3.2"/>
</g>
<!-- syst_owners&#45;&gt;syst_enum_items -->
<g id="edge8" class="edge">
<title>syst_owners:w&#45;&gt;syst_enum_items:e</title>
<path fill="none" stroke="black" d="M238.36,-360.01C212.04,-340.83 248.55,-259 203,-259"/>
<polygon fill="black" stroke="black" points="244.8,-361.83 251.52,-367.46 248.65,-362.91 252.5,-364 252.5,-364 252.5,-364 248.65,-362.91 253.48,-360.54 244.8,-361.83 244.8,-361.83"/>
<ellipse fill="none" stroke="black" cx="241.72" cy="-360.96" rx="3.2" ry="3.2"/>
</g>
<!-- syst_instances -->
<g id="node4" class="node">
<title>syst_instances</title>
<g id="a_node4"><a xlink:href="../../tables/syst_instances.html" xlink:title="syst_instances" target="_top">
<polygon fill="#ffffff" stroke="transparent" points="607,-37 607,-271 801,-271 801,-37 607,-37"/>
<polygon fill="#f5f5f5" stroke="transparent" points="607,-249 607,-271 801,-271 801,-249 607,-249"/>
<polygon fill="none" stroke="black" points="607,-249 607,-271 801,-271 801,-249 607,-249"/>
<text text-anchor="start" x="612" y="-258.2" font-family="Helvetica,sans-Serif" font-weight="bold" font-size="11.00">syst_instances</text>
<text text-anchor="start" x="766" y="-257.2" font-family="Helvetica,sans-Serif" font-size="11.00">[table]</text>
<polygon fill="none" stroke="black" points="607,-227 607,-249 801,-249 801,-227 607,-227"/>
<image xlink:href="../../images/primaryKeys.png" width="11px" height="12px" preserveAspectRatio="xMinYMin meet" x="612" y="-244"/>
<text text-anchor="start" x="627" y="-235.2" font-family="Helvetica,sans-Serif" font-size="11.00">id</text>
<polygon fill="#ffffff" stroke="transparent" points="607,-205 607,-227 801,-227 801,-205 607,-205"/>
<polygon fill="none" stroke="black" points="607,-205 607,-227 801,-227 801,-205 607,-205"/>
<text text-anchor="start" x="627" y="-213.2" font-family="Helvetica,sans-Serif" font-size="11.00">internal_name</text>
<polygon fill="#ffffff" stroke="transparent" points="607,-183 607,-205 801,-205 801,-183 607,-183"/>
<polygon fill="none" stroke="black" points="607,-183 607,-205 801,-205 801,-183 607,-183"/>
<text text-anchor="start" x="627" y="-191.2" font-family="Helvetica,sans-Serif" font-size="11.00">display_name</text>
<polygon fill="none" stroke="black" points="607,-161 607,-183 801,-183 801,-161 607,-161"/>
<image xlink:href="../../images/foreignKeys.png" width="11px" height="12px" preserveAspectRatio="xMinYMin meet" x="612" y="-178"/>
<text text-anchor="start" x="627" y="-169.2" font-family="Helvetica,sans-Serif" font-size="11.00">application_id</text>
<polygon fill="none" stroke="black" points="607,-139 607,-161 801,-161 801,-139 607,-139"/>
<image xlink:href="../../images/foreignKeys.png" width="11px" height="12px" preserveAspectRatio="xMinYMin meet" x="612" y="-156"/>
<text text-anchor="start" x="627" y="-147.2" font-family="Helvetica,sans-Serif" font-size="11.00">instance_type_id</text>
<polygon fill="none" stroke="black" points="607,-117 607,-139 801,-139 801,-117 607,-117"/>
<image xlink:href="../../images/foreignKeys.png" width="11px" height="12px" preserveAspectRatio="xMinYMin meet" x="612" y="-134"/>
<text text-anchor="start" x="627" y="-125.2" font-family="Helvetica,sans-Serif" font-size="11.00">instance_state_id</text>
<polygon fill="none" stroke="black" points="607,-95 607,-117 801,-117 801,-95 607,-95"/>
<image xlink:href="../../images/foreignKeys.png" width="11px" height="12px" preserveAspectRatio="xMinYMin meet" x="612" y="-112"/>
<text text-anchor="start" x="627" y="-103.2" font-family="Helvetica,sans-Serif" font-size="11.00">owner_id</text>
<polygon fill="none" stroke="black" points="607,-73 607,-95 801,-95 801,-73 607,-73"/>
<image xlink:href="../../images/foreignKeys.png" width="11px" height="12px" preserveAspectRatio="xMinYMin meet" x="612" y="-90"/>
<text text-anchor="start" x="627" y="-81.2" font-family="Helvetica,sans-Serif" font-size="11.00">owning_instance_id</text>
<polygon fill="none" stroke="black" points="607,-55 607,-73 801,-73 801,-55 607,-55"/>
<text text-anchor="start" x="610" y="-61.2" font-family="Helvetica,sans-Serif" font-size="11.00">...</text>
<polygon fill="#ffffff" stroke="transparent" points="607,-37 607,-55 697,-55 697,-37 607,-37"/>
<polygon fill="none" stroke="black" points="607,-37 607,-55 697,-55 697,-37 607,-37"/>
<text text-anchor="start" x="610" y="-43.2" font-family="Helvetica,sans-Serif" font-size="11.00">&lt; 5</text>
<polygon fill="#ffffff" stroke="transparent" points="697,-37 697,-55 744,-55 744,-37 697,-37"/>
<polygon fill="none" stroke="black" points="697,-37 697,-55 744,-55 744,-37 697,-37"/>
<text text-anchor="start" x="734" y="-43.2" font-family="Helvetica,sans-Serif" font-size="11.00"> &#160;</text>
<polygon fill="#ffffff" stroke="transparent" points="744,-37 744,-55 801,-55 801,-37 744,-37"/>
<polygon fill="none" stroke="black" points="744,-37 744,-55 801,-55 801,-37 744,-37"/>
<text text-anchor="start" x="782" y="-43.2" font-family="Helvetica,sans-Serif" font-size="11.00">4 &gt;</text>
</a>
</g>
</g>
<!-- syst_instances&#45;&gt;syst_enum_items -->
<g id="edge3" class="edge">
<title>syst_instances:w&#45;&gt;syst_enum_items:e</title>
<path fill="none" stroke="black" d="M591.57,-127.79C440.08,-123.35 368.62,-51.46 243,-145 199.93,-177.07 256.7,-259 203,-259"/>
<polygon fill="black" stroke="black" points="598,-127.88 605.95,-131.6 602,-127.94 606,-128 606,-128 606,-128 602,-127.94 606.05,-124.4 598,-127.88 598,-127.88"/>
<ellipse fill="none" stroke="black" cx="594.8" cy="-127.84" rx="3.2" ry="3.2"/>
</g>
<!-- syst_instances&#45;&gt;syst_enum_items -->
<g id="edge4" class="edge">
<title>syst_instances:w&#45;&gt;syst_enum_items:e</title>
<path fill="none" stroke="black" d="M591.58,-149.78C502.08,-147.29 305.92,-125.73 243,-169 206.93,-193.8 246.77,-259 203,-259"/>
<polygon fill="black" stroke="black" points="598,-149.88 605.94,-153.6 602,-149.94 606,-150 606,-150 606,-150 602,-149.94 606.06,-146.4 598,-149.88 598,-149.88"/>
<ellipse fill="none" stroke="black" cx="594.8" cy="-149.83" rx="3.2" ry="3.2"/>
</g>
<!-- syst_instances&#45;&gt;syst_owners -->
<g id="edge5" class="edge">
<title>syst_instances:w&#45;&gt;syst_owners:e</title>
<path fill="none" stroke="black" d="M592.41,-110.83C543.67,-151.14 609.61,-430 541.5,-430"/>
<polygon fill="black" stroke="black" points="598.46,-108.68 607.21,-109.39 602.23,-107.34 606,-106 606,-106 606,-106 602.23,-107.34 604.79,-102.61 598.46,-108.68 598.46,-108.68"/>
<ellipse fill="none" stroke="black" cx="595.45" cy="-109.75" rx="3.2" ry="3.2"/>
</g>
<!-- syst_owner_network_rules -->
<g id="node5" class="node">
<title>syst_owner_network_rules</title>
<g id="a_node5"><a xlink:href="../../tables/syst_owner_network_rules.html" xlink:title="syst_owner_network_rules" target="_top">
<polygon fill="#ffffff" stroke="transparent" points="595.5,-415 595.5,-539 812.5,-539 812.5,-415 595.5,-415"/>
<polygon fill="#f5f5f5" stroke="transparent" points="596,-517 596,-539 813,-539 813,-517 596,-517"/>
<polygon fill="none" stroke="black" points="596,-517 596,-539 813,-539 813,-517 596,-517"/>
<text text-anchor="start" x="601" y="-526.2" font-family="Helvetica,sans-Serif" font-weight="bold" font-size="11.00">syst_owner_network_rules</text>
<text text-anchor="start" x="778" y="-525.2" font-family="Helvetica,sans-Serif" font-size="11.00">[table]</text>
<polygon fill="none" stroke="black" points="596,-495 596,-517 813,-517 813,-495 596,-495"/>
<image xlink:href="../../images/primaryKeys.png" width="11px" height="12px" preserveAspectRatio="xMinYMin meet" x="601" y="-512"/>
<text text-anchor="start" x="626" y="-503.2" font-family="Helvetica,sans-Serif" font-size="11.00">id</text>
<polygon fill="#ffffff" stroke="transparent" points="596,-473 596,-495 813,-495 813,-473 596,-473"/>
<polygon fill="none" stroke="black" points="596,-473 596,-495 813,-495 813,-473 596,-473"/>
<image xlink:href="../../images/foreignKeys.png" width="11px" height="12px" preserveAspectRatio="xMinYMin meet" x="601" y="-490"/>
<text text-anchor="start" x="626" y="-481.2" font-family="Helvetica,sans-Serif" font-size="11.00">owner_id</text>
<polygon fill="#ffffff" stroke="transparent" points="596,-451 596,-473 813,-473 813,-451 596,-451"/>
<polygon fill="none" stroke="black" points="596,-451 596,-473 813,-473 813,-451 596,-451"/>
<text text-anchor="start" x="626" y="-459.2" font-family="Helvetica,sans-Serif" font-size="11.00">ordering</text>
<polygon fill="none" stroke="black" points="596,-433 596,-451 813,-451 813,-433 596,-433"/>
<text text-anchor="start" x="599" y="-439.2" font-family="Helvetica,sans-Serif" font-size="11.00">...</text>
<polygon fill="#ffffff" stroke="transparent" points="596,-415 596,-433 702,-433 702,-415 596,-415"/>
<polygon fill="none" stroke="black" points="596,-415 596,-433 702,-433 702,-415 596,-415"/>
<text text-anchor="start" x="599" y="-421.2" font-family="Helvetica,sans-Serif" font-size="11.00">&lt; 1</text>
<polygon fill="#ffffff" stroke="transparent" points="702,-415 702,-433 757,-433 757,-415 702,-415"/>
<polygon fill="none" stroke="black" points="702,-415 702,-433 757,-433 757,-415 702,-415"/>
<text text-anchor="start" x="747" y="-421.2" font-family="Helvetica,sans-Serif" font-size="11.00"> &#160;</text>
<polygon fill="#ffffff" stroke="transparent" points="757,-415 757,-433 813,-433 813,-415 757,-415"/>
<polygon fill="none" stroke="black" points="757,-415 757,-433 813,-433 813,-415 757,-415"/>
<text text-anchor="start" x="803" y="-421.2" font-family="Helvetica,sans-Serif" font-size="11.00"> &#160;</text>
</a>
</g>
</g>
<!-- syst_owner_network_rules&#45;&gt;syst_owners -->
<g id="edge6" class="edge">
<title>syst_owner_network_rules:w&#45;&gt;syst_owners:e</title>
<path fill="none" stroke="black" d="M580.87,-479.4C564.73,-466.34 569.21,-430 541.5,-430"/>
<polygon fill="black" stroke="black" points="587.39,-481.52 593.88,-487.42 591.2,-482.76 595,-484 595,-484 595,-484 591.2,-482.76 596.12,-480.58 587.39,-481.52 587.39,-481.52"/>
<ellipse fill="none" stroke="black" cx="584.35" cy="-480.53" rx="3.2" ry="3.2"/>
</g>
<!-- syst_owner_password_rules -->
<g id="node6" class="node">
<title>syst_owner_password_rules</title>
<g id="a_node6"><a xlink:href="../../tables/syst_owner_password_rules.html" xlink:title="syst_owner_password_rules" target="_top">
<polygon fill="#ffffff" stroke="transparent" points="591,-292 591,-394 817,-394 817,-292 591,-292"/>
<polygon fill="#f5f5f5" stroke="transparent" points="591,-372 591,-394 817,-394 817,-372 591,-372"/>
<polygon fill="none" stroke="black" points="591,-372 591,-394 817,-394 817,-372 591,-372"/>
<text text-anchor="start" x="596" y="-381.2" font-family="Helvetica,sans-Serif" font-weight="bold" font-size="11.00">syst_owner_password_rules</text>
<text text-anchor="start" x="782" y="-380.2" font-family="Helvetica,sans-Serif" font-size="11.00">[table]</text>
<polygon fill="none" stroke="black" points="591,-350 591,-372 817,-372 817,-350 591,-350"/>
<image xlink:href="../../images/primaryKeys.png" width="11px" height="12px" preserveAspectRatio="xMinYMin meet" x="596" y="-367"/>
<text text-anchor="start" x="621" y="-358.2" font-family="Helvetica,sans-Serif" font-size="11.00">id</text>
<polygon fill="#ffffff" stroke="transparent" points="591,-328 591,-350 817,-350 817,-328 591,-328"/>
<polygon fill="none" stroke="black" points="591,-328 591,-350 817,-350 817,-328 591,-328"/>
<image xlink:href="../../images/foreignKeys.png" width="11px" height="12px" preserveAspectRatio="xMinYMin meet" x="596" y="-345"/>
<text text-anchor="start" x="621" y="-336.2" font-family="Helvetica,sans-Serif" font-size="11.00">owner_id</text>
<polygon fill="none" stroke="black" points="591,-310 591,-328 817,-328 817,-310 591,-310"/>
<text text-anchor="start" x="594" y="-316.2" font-family="Helvetica,sans-Serif" font-size="11.00">...</text>
<polygon fill="#ffffff" stroke="transparent" points="591,-292 591,-310 702,-310 702,-292 591,-292"/>
<polygon fill="none" stroke="black" points="591,-292 591,-310 702,-310 702,-292 591,-292"/>
<text text-anchor="start" x="594" y="-298.2" font-family="Helvetica,sans-Serif" font-size="11.00">&lt; 1</text>
<polygon fill="#ffffff" stroke="transparent" points="702,-292 702,-310 759,-310 759,-292 702,-292"/>
<polygon fill="none" stroke="black" points="702,-292 702,-310 759,-310 759,-292 702,-292"/>
<text text-anchor="start" x="749" y="-298.2" font-family="Helvetica,sans-Serif" font-size="11.00"> &#160;</text>
<polygon fill="#ffffff" stroke="transparent" points="759,-292 759,-310 817,-310 817,-292 759,-292"/>
<polygon fill="none" stroke="black" points="759,-292 759,-310 817,-310 817,-292 759,-292"/>
<text text-anchor="start" x="807" y="-298.2" font-family="Helvetica,sans-Serif" font-size="11.00"> &#160;</text>
</a>
</g>
</g>
<!-- syst_owner_password_rules&#45;&gt;syst_owners -->
<g id="edge7" class="edge">
<title>syst_owner_password_rules:w&#45;&gt;syst_owners:e</title>
<path fill="none" stroke="black" d="M579.67,-341.07C551.21,-354.62 583.21,-430 541.5,-430"/>
<polygon fill="black" stroke="black" points="588.43,-335.24 590,-343.08 588.43,-343.39 586.86,-335.55 588.43,-335.24"/>
<polyline fill="none" stroke="black" points="590,-339 586.08,-339.79 "/>
<ellipse fill="none" stroke="black" cx="582.94" cy="-340.42" rx="3.2" ry="3.2"/>
</g>
</g>
</svg>
