<?xml version="1.0" encoding="UTF-8" standalone="no"?>
<!DOCTYPE svg PUBLIC "-//W3C//DTD SVG 1.1//EN"
 "http://www.w3.org/Graphics/SVG/1.1/DTD/svg11.dtd">
<!-- Generated by graphviz version 2.43.0 (0)
 -->
<!-- Title: twoDegreesRelationshipsDiagram Pages: 1 -->
<svg width="1021pt" height="559pt"
 viewBox="0.00 0.00 1021.00 559.00" xmlns="http://www.w3.org/2000/svg" xmlns:xlink="http://www.w3.org/1999/xlink">
<g id="graph0" class="graph" transform="scale(1 1) rotate(0) translate(4 555)">
<title>twoDegreesRelationshipsDiagram</title>
<polygon fill="#ffffff" stroke="transparent" points="-4,4 -4,-555 1017,-555 1017,4 -4,4"/>
<text text-anchor="middle" x="79.5" y="-7.2" font-family="Helvetica,sans-Serif" font-size="11.00">Generated by SchemaSpy</text>
<!-- syst_access_account_instance_assocs -->
<g id="node1" class="node">
<title>syst_access_account_instance_assocs</title>
<g id="a_node1"><a xlink:href="../../tables/syst_access_account_instance_assocs.html" xlink:title="syst_access_account_instance_assocs" target="_top">
<polygon fill="#ffffff" stroke="transparent" points="692.5,-489 692.5,-547 991.5,-547 991.5,-489 692.5,-489"/>
<polygon fill="#f5f5f5" stroke="transparent" points="693,-525 693,-547 992,-547 992,-525 693,-525"/>
<polygon fill="none" stroke="black" points="693,-525 693,-547 992,-547 992,-525 693,-525"/>
<text text-anchor="start" x="698" y="-534.2" font-family="Helvetica,sans-Serif" font-weight="bold" font-size="11.00">syst_access_account_instance_assocs</text>
<text text-anchor="start" x="950" y="-533.2" font-family="Helvetica,sans-Serif" font-size="11.00">[table]</text>
<polygon fill="none" stroke="black" points="693,-507 693,-525 992,-525 992,-507 693,-507"/>
<text text-anchor="start" x="696" y="-513.2" font-family="Helvetica,sans-Serif" font-size="11.00">...</text>
<polygon fill="#ffffff" stroke="transparent" points="693,-489 693,-507 841,-507 841,-489 693,-489"/>
<polygon fill="none" stroke="black" points="693,-489 693,-507 841,-507 841,-489 693,-489"/>
<text text-anchor="start" x="696" y="-495.2" font-family="Helvetica,sans-Serif" font-size="11.00">&lt; 2</text>
<polygon fill="#ffffff" stroke="transparent" points="841,-489 841,-507 916,-507 916,-489 841,-489"/>
<polygon fill="none" stroke="black" points="841,-489 841,-507 916,-507 916,-489 841,-489"/>
<text text-anchor="start" x="905" y="-495.2" font-family="Helvetica,sans-Serif" font-size="11.00"> &#160;</text>
<polygon fill="#ffffff" stroke="transparent" points="916,-489 916,-507 992,-507 992,-489 916,-489"/>
<polygon fill="none" stroke="black" points="916,-489 916,-507 992,-507 992,-489 916,-489"/>
<text text-anchor="start" x="981" y="-495.2" font-family="Helvetica,sans-Serif" font-size="11.00"> &#160;</text>
</a>
</g>
</g>
<!-- syst_instances -->
<g id="node2" class="node">
<title>syst_instances</title>
<g id="a_node2"><a xlink:href="../../tables/syst_instances.html" xlink:title="syst_instances" target="_top">
<polygon fill="#ffffff" stroke="transparent" points="431,-236 431,-470 630,-470 630,-236 431,-236"/>
<polygon fill="#f5f5f5" stroke="transparent" points="431.5,-448 431.5,-470 630.5,-470 630.5,-448 431.5,-448"/>
<polygon fill="none" stroke="black" points="431.5,-448 431.5,-470 630.5,-470 630.5,-448 431.5,-448"/>
<text text-anchor="start" x="436.5" y="-457.2" font-family="Helvetica,sans-Serif" font-weight="bold" font-size="11.00">syst_instances</text>
<text text-anchor="start" x="588.5" y="-456.2" font-family="Helvetica,sans-Serif" font-size="11.00">[table]</text>
<polygon fill="none" stroke="black" points="431.5,-426 431.5,-448 630.5,-448 630.5,-426 431.5,-426"/>
<image xlink:href="../../images/primaryKeys.png" width="11px" height="12px" preserveAspectRatio="xMinYMin meet" x="436.5" y="-443"/>
<text text-anchor="start" x="451.5" y="-434.2" font-family="Helvetica,sans-Serif" font-size="11.00">id</text>
<polygon fill="#ffffff" stroke="transparent" points="431.5,-404 431.5,-426 630.5,-426 630.5,-404 431.5,-404"/>
<polygon fill="none" stroke="black" points="431.5,-404 431.5,-426 630.5,-426 630.5,-404 431.5,-404"/>
<text text-anchor="start" x="451.5" y="-412.2" font-family="Helvetica,sans-Serif" font-size="11.00">internal_name</text>
<polygon fill="#ffffff" stroke="transparent" points="431.5,-382 431.5,-404 630.5,-404 630.5,-382 431.5,-382"/>
<polygon fill="none" stroke="black" points="431.5,-382 431.5,-404 630.5,-404 630.5,-382 431.5,-382"/>
<text text-anchor="start" x="451.5" y="-390.2" font-family="Helvetica,sans-Serif" font-size="11.00">display_name</text>
<polygon fill="none" stroke="black" points="431.5,-360 431.5,-382 630.5,-382 630.5,-360 431.5,-360"/>
<image xlink:href="../../images/foreignKeys.png" width="11px" height="12px" preserveAspectRatio="xMinYMin meet" x="436.5" y="-377"/>
<text text-anchor="start" x="451.5" y="-368.2" font-family="Helvetica,sans-Serif" font-size="11.00">application_id</text>
<polygon fill="none" stroke="black" points="431.5,-338 431.5,-360 630.5,-360 630.5,-338 431.5,-338"/>
<image xlink:href="../../images/foreignKeys.png" width="11px" height="12px" preserveAspectRatio="xMinYMin meet" x="436.5" y="-355"/>
<text text-anchor="start" x="451.5" y="-346.2" font-family="Helvetica,sans-Serif" font-size="11.00">instance_type_id</text>
<polygon fill="none" stroke="black" points="431.5,-316 431.5,-338 630.5,-338 630.5,-316 431.5,-316"/>
<image xlink:href="../../images/foreignKeys.png" width="11px" height="12px" preserveAspectRatio="xMinYMin meet" x="436.5" y="-333"/>
<text text-anchor="start" x="451.5" y="-324.2" font-family="Helvetica,sans-Serif" font-size="11.00">instance_lifecycle_state_id</text>
<polygon fill="none" stroke="black" points="431.5,-294 431.5,-316 630.5,-316 630.5,-294 431.5,-294"/>
<image xlink:href="../../images/foreignKeys.png" width="11px" height="12px" preserveAspectRatio="xMinYMin meet" x="436.5" y="-311"/>
<text text-anchor="start" x="451.5" y="-302.2" font-family="Helvetica,sans-Serif" font-size="11.00">owner_id</text>
<polygon fill="none" stroke="black" points="431.5,-272 431.5,-294 630.5,-294 630.5,-272 431.5,-272"/>
<image xlink:href="../../images/foreignKeys.png" width="11px" height="12px" preserveAspectRatio="xMinYMin meet" x="436.5" y="-289"/>
<text text-anchor="start" x="451.5" y="-280.2" font-family="Helvetica,sans-Serif" font-size="11.00">owning_instance_id</text>
<polygon fill="none" stroke="black" points="431.5,-254 431.5,-272 630.5,-272 630.5,-254 431.5,-254"/>
<text text-anchor="start" x="434.5" y="-260.2" font-family="Helvetica,sans-Serif" font-size="11.00">...</text>
<polygon fill="#ffffff" stroke="transparent" points="431.5,-236 431.5,-254 523.5,-254 523.5,-236 431.5,-236"/>
<polygon fill="none" stroke="black" points="431.5,-236 431.5,-254 523.5,-254 523.5,-236 431.5,-236"/>
<text text-anchor="start" x="434.5" y="-242.2" font-family="Helvetica,sans-Serif" font-size="11.00">&lt; 5</text>
<polygon fill="#ffffff" stroke="transparent" points="523.5,-236 523.5,-254 570.5,-254 570.5,-236 523.5,-236"/>
<polygon fill="none" stroke="black" points="523.5,-236 523.5,-254 570.5,-254 570.5,-236 523.5,-236"/>
<text text-anchor="start" x="559.5" y="-242.2" font-family="Helvetica,sans-Serif" font-size="11.00"> &#160;</text>
<polygon fill="#ffffff" stroke="transparent" points="570.5,-236 570.5,-254 630.5,-254 630.5,-236 570.5,-236"/>
<polygon fill="none" stroke="black" points="570.5,-236 570.5,-254 630.5,-254 630.5,-236 570.5,-236"/>
<text text-anchor="start" x="607.5" y="-242.2" font-family="Helvetica,sans-Serif" font-size="11.00">4 &gt;</text>
</a>
</g>
</g>
<!-- syst_access_account_instance_assocs&#45;&gt;syst_instances -->
<g id="edge1" class="edge">
<title>syst_access_account_instance_assocs:w&#45;&gt;syst_instances:e</title>
<path fill="none" stroke="black" d="M677.86,-512.19C653.93,-496.41 669.85,-437 631.5,-437"/>
<polygon fill="black" stroke="black" points="684.28,-513.92 691.06,-519.48 688.14,-514.96 692,-516 692,-516 692,-516 688.14,-514.96 692.94,-512.52 684.28,-513.92 684.28,-513.92"/>
<ellipse fill="none" stroke="black" cx="681.19" cy="-513.09" rx="3.2" ry="3.2"/>
</g>
<!-- syst_applications -->
<g id="node5" class="node">
<title>syst_applications</title>
<g id="a_node5"><a xlink:href="../../tables/syst_applications.html" xlink:title="syst_applications" target="_top">
<polygon fill="#ffffff" stroke="transparent" points="219,-376 219,-434 382,-434 382,-376 219,-376"/>
<polygon fill="#f5f5f5" stroke="transparent" points="219.5,-412 219.5,-434 382.5,-434 382.5,-412 219.5,-412"/>
<polygon fill="none" stroke="black" points="219.5,-412 219.5,-434 382.5,-434 382.5,-412 219.5,-412"/>
<text text-anchor="start" x="224.5" y="-421.2" font-family="Helvetica,sans-Serif" font-weight="bold" font-size="11.00">syst_applications</text>
<text text-anchor="start" x="340.5" y="-420.2" font-family="Helvetica,sans-Serif" font-size="11.00">[table]</text>
<polygon fill="none" stroke="black" points="219.5,-394 219.5,-412 382.5,-412 382.5,-394 219.5,-394"/>
<text text-anchor="start" x="222.5" y="-400.2" font-family="Helvetica,sans-Serif" font-size="11.00">...</text>
<polygon fill="#ffffff" stroke="transparent" points="219.5,-376 219.5,-394 287.5,-394 287.5,-376 219.5,-376"/>
<polygon fill="none" stroke="black" points="219.5,-376 219.5,-394 287.5,-394 287.5,-376 219.5,-376"/>
<text text-anchor="start" x="222.5" y="-382.2" font-family="Helvetica,sans-Serif" font-size="11.00"> &#160;</text>
<polygon fill="#ffffff" stroke="transparent" points="287.5,-376 287.5,-394 328.5,-394 328.5,-376 287.5,-376"/>
<polygon fill="none" stroke="black" points="287.5,-376 287.5,-394 328.5,-394 328.5,-376 287.5,-376"/>
<text text-anchor="start" x="317.5" y="-382.2" font-family="Helvetica,sans-Serif" font-size="11.00"> &#160;</text>
<polygon fill="#ffffff" stroke="transparent" points="328.5,-376 328.5,-394 382.5,-394 382.5,-376 328.5,-376"/>
<polygon fill="none" stroke="black" points="328.5,-376 328.5,-394 382.5,-394 382.5,-376 328.5,-376"/>
<text text-anchor="start" x="359.5" y="-382.2" font-family="Helvetica,sans-Serif" font-size="11.00">3 &gt;</text>
</a>
</g>
</g>
<!-- syst_instances&#45;&gt;syst_applications -->
<g id="edge4" class="edge">
<title>syst_instances:w&#45;&gt;syst_applications:e</title>
<path fill="none" stroke="black" d="M416.74,-375.45C405.31,-384.24 402.85,-403 383.5,-403"/>
<polygon fill="black" stroke="black" points="422.89,-373.46 431.61,-374.43 426.69,-372.23 430.5,-371 430.5,-371 430.5,-371 426.69,-372.23 429.39,-367.57 422.89,-373.46 422.89,-373.46"/>
<ellipse fill="none" stroke="black" cx="419.84" cy="-374.45" rx="3.2" ry="3.2"/>
</g>
<!-- syst_enum_items -->
<g id="node6" class="node">
<title>syst_enum_items</title>
<g id="a_node6"><a xlink:href="../../tables/syst_enum_items.html" xlink:title="syst_enum_items" target="_top">
<polygon fill="#ffffff" stroke="transparent" points="8,-298 8,-356 170,-356 170,-298 8,-298"/>
<polygon fill="#f5f5f5" stroke="transparent" points="8,-334 8,-356 170,-356 170,-334 8,-334"/>
<polygon fill="none" stroke="black" points="8,-334 8,-356 170,-356 170,-334 8,-334"/>
<text text-anchor="start" x="13" y="-343.2" font-family="Helvetica,sans-Serif" font-weight="bold" font-size="11.00">syst_enum_items</text>
<text text-anchor="start" x="128" y="-342.2" font-family="Helvetica,sans-Serif" font-size="11.00">[table]</text>
<polygon fill="none" stroke="black" points="8,-316 8,-334 170,-334 170,-316 8,-316"/>
<text text-anchor="start" x="11" y="-322.2" font-family="Helvetica,sans-Serif" font-size="11.00">...</text>
<polygon fill="#ffffff" stroke="transparent" points="8,-298 8,-316 82,-316 82,-298 8,-298"/>
<polygon fill="none" stroke="black" points="8,-298 8,-316 82,-316 82,-298 8,-298"/>
<text text-anchor="start" x="11" y="-304.2" font-family="Helvetica,sans-Serif" font-size="11.00">&lt; 2</text>
<polygon fill="#ffffff" stroke="transparent" points="82,-298 82,-316 120,-316 120,-298 82,-298"/>
<polygon fill="none" stroke="black" points="82,-298 82,-316 120,-316 120,-298 82,-298"/>
<text text-anchor="start" x="109" y="-304.2" font-family="Helvetica,sans-Serif" font-size="11.00"> &#160;</text>
<polygon fill="#ffffff" stroke="transparent" points="120,-298 120,-316 170,-316 170,-298 120,-298"/>
<polygon fill="none" stroke="black" points="120,-298 120,-316 170,-316 170,-298 120,-298"/>
<text text-anchor="start" x="147" y="-304.2" font-family="Helvetica,sans-Serif" font-size="11.00">7 &gt;</text>
</a>
</g>
</g>
<!-- syst_instances&#45;&gt;syst_enum_items -->
<g id="edge5" class="edge">
<title>syst_instances:w&#45;&gt;syst_enum_items:e</title>
<path fill="none" stroke="black" d="M416.1,-326.99C312.53,-326.83 281.38,-325 171,-325"/>
<polygon fill="black" stroke="black" points="422.5,-326.99 430.5,-330.6 426.5,-327 430.5,-327 430.5,-327 430.5,-327 426.5,-327 430.5,-323.4 422.5,-326.99 422.5,-326.99"/>
<ellipse fill="none" stroke="black" cx="419.3" cy="-326.99" rx="3.2" ry="3.2"/>
</g>
<!-- syst_instances&#45;&gt;syst_enum_items -->
<g id="edge6" class="edge">
<title>syst_instances:w&#45;&gt;syst_enum_items:e</title>
<path fill="none" stroke="black" d="M415.89,-349.02C329.96,-349.25 302.43,-351.11 211,-336 192.81,-332.99 189.44,-325 171,-325"/>
<polygon fill="black" stroke="black" points="422.5,-349.01 430.51,-352.6 426.5,-349.01 430.5,-349 430.5,-349 430.5,-349 426.5,-349.01 430.49,-345.4 422.5,-349.01 422.5,-349.01"/>
<ellipse fill="none" stroke="black" cx="419.3" cy="-349.02" rx="3.2" ry="3.2"/>
</g>
<!-- syst_owners -->
<g id="node7" class="node">
<title>syst_owners</title>
<g id="a_node7"><a xlink:href="../../tables/syst_owners.html" xlink:title="syst_owners" target="_top">
<polygon fill="#ffffff" stroke="transparent" points="236,-243 236,-301 365,-301 365,-243 236,-243"/>
<polygon fill="#f5f5f5" stroke="transparent" points="236.5,-279 236.5,-301 365.5,-301 365.5,-279 236.5,-279"/>
<polygon fill="none" stroke="black" points="236.5,-279 236.5,-301 365.5,-301 365.5,-279 236.5,-279"/>
<text text-anchor="start" x="241.5" y="-288.2" font-family="Helvetica,sans-Serif" font-weight="bold" font-size="11.00">syst_owners</text>
<text text-anchor="start" x="323.5" y="-287.2" font-family="Helvetica,sans-Serif" font-size="11.00">[table]</text>
<polygon fill="none" stroke="black" points="236.5,-261 236.5,-279 365.5,-279 365.5,-261 236.5,-261"/>
<text text-anchor="start" x="239.5" y="-267.2" font-family="Helvetica,sans-Serif" font-size="11.00">...</text>
<polygon fill="#ffffff" stroke="transparent" points="236.5,-243 236.5,-261 293.5,-261 293.5,-243 236.5,-243"/>
<polygon fill="none" stroke="black" points="236.5,-243 236.5,-261 293.5,-261 293.5,-243 236.5,-243"/>
<text text-anchor="start" x="239.5" y="-249.2" font-family="Helvetica,sans-Serif" font-size="11.00">&lt; 1</text>
<polygon fill="#ffffff" stroke="transparent" points="293.5,-243 293.5,-261 323.5,-261 323.5,-243 293.5,-243"/>
<polygon fill="none" stroke="black" points="293.5,-243 293.5,-261 323.5,-261 323.5,-243 293.5,-243"/>
<text text-anchor="start" x="312.5" y="-249.2" font-family="Helvetica,sans-Serif" font-size="11.00"> &#160;</text>
<polygon fill="#ffffff" stroke="transparent" points="323.5,-243 323.5,-261 365.5,-261 365.5,-243 323.5,-243"/>
<polygon fill="none" stroke="black" points="323.5,-243 323.5,-261 365.5,-261 365.5,-243 323.5,-243"/>
<text text-anchor="start" x="342.5" y="-249.2" font-family="Helvetica,sans-Serif" font-size="11.00">4 &gt;</text>
</a>
</g>
</g>
<!-- syst_instances&#45;&gt;syst_owners -->
<g id="edge7" class="edge">
<title>syst_instances:w&#45;&gt;syst_owners:e</title>
<path fill="none" stroke="black" d="M416.13,-302.14C397.35,-293.78 393.22,-270 366.5,-270"/>
<polygon fill="black" stroke="black" points="422.65,-303.44 429.8,-308.53 426.58,-304.22 430.5,-305 430.5,-305 430.5,-305 426.58,-304.22 431.2,-301.47 422.65,-303.44 422.65,-303.44"/>
<ellipse fill="none" stroke="black" cx="419.52" cy="-302.81" rx="3.2" ry="3.2"/>
</g>
<!-- syst_instance_contexts -->
<g id="node3" class="node">
<title>syst_instance_contexts</title>
<g id="a_node3"><a xlink:href="../../tables/syst_instance_contexts.html" xlink:title="syst_instance_contexts" target="_top">
<polygon fill="#ffffff" stroke="transparent" points="741,-410 741,-468 943,-468 943,-410 741,-410"/>
<polygon fill="#f5f5f5" stroke="transparent" points="741,-446 741,-468 943,-468 943,-446 741,-446"/>
<polygon fill="none" stroke="black" points="741,-446 741,-468 943,-468 943,-446 741,-446"/>
<text text-anchor="start" x="746" y="-455.2" font-family="Helvetica,sans-Serif" font-weight="bold" font-size="11.00">syst_instance_contexts</text>
<text text-anchor="start" x="901" y="-454.2" font-family="Helvetica,sans-Serif" font-size="11.00">[table]</text>
<polygon fill="none" stroke="black" points="741,-428 741,-446 943,-446 943,-428 741,-428"/>
<text text-anchor="start" x="744" y="-434.2" font-family="Helvetica,sans-Serif" font-size="11.00">...</text>
<polygon fill="#ffffff" stroke="transparent" points="741,-410 741,-428 841,-428 841,-410 741,-410"/>
<polygon fill="none" stroke="black" points="741,-410 741,-428 841,-428 841,-410 741,-410"/>
<text text-anchor="start" x="744" y="-416.2" font-family="Helvetica,sans-Serif" font-size="11.00">&lt; 2</text>
<polygon fill="#ffffff" stroke="transparent" points="841,-410 841,-428 892,-428 892,-410 841,-410"/>
<polygon fill="none" stroke="black" points="841,-410 841,-428 892,-428 892,-410 841,-410"/>
<text text-anchor="start" x="881" y="-416.2" font-family="Helvetica,sans-Serif" font-size="11.00"> &#160;</text>
<polygon fill="#ffffff" stroke="transparent" points="892,-410 892,-428 943,-428 943,-410 892,-410"/>
<polygon fill="none" stroke="black" points="892,-410 892,-428 943,-428 943,-410 892,-410"/>
<text text-anchor="start" x="932" y="-416.2" font-family="Helvetica,sans-Serif" font-size="11.00"> &#160;</text>
</a>
</g>
</g>
<!-- syst_instance_contexts&#45;&gt;syst_instances -->
<g id="edge2" class="edge">
<title>syst_instance_contexts:w&#45;&gt;syst_instances:e</title>
<path fill="none" stroke="black" d="M725.38,-437C688.71,-437 674.45,-437 631.5,-437"/>
<polygon fill="black" stroke="black" points="732,-437 740,-440.6 736,-437 740,-437 740,-437 740,-437 736,-437 740,-433.4 732,-437 732,-437"/>
<ellipse fill="none" stroke="black" cx="728.8" cy="-437" rx="3.2" ry="3.2"/>
</g>
<!-- syst_instance_network_rules -->
<g id="node4" class="node">
<title>syst_instance_network_rules</title>
<g id="a_node4"><a xlink:href="../../tables/syst_instance_network_rules.html" xlink:title="syst_instance_network_rules" target="_top">
<polygon fill="#ffffff" stroke="transparent" points="679,-37 679,-389 1005,-389 1005,-37 679,-37"/>
<polygon fill="#f5f5f5" stroke="transparent" points="681,-365 681,-387 1003,-387 1003,-365 681,-365"/>
<polygon fill="none" stroke="black" points="681,-365 681,-387 1003,-387 1003,-365 681,-365"/>
<text text-anchor="start" x="686" y="-374.2" font-family="Helvetica,sans-Serif" font-weight="bold" font-size="11.00">syst_instance_network_rules</text>
<text text-anchor="start" x="961" y="-373.2" font-family="Helvetica,sans-Serif" font-size="11.00">[table]</text>
<polygon fill="none" stroke="black" points="681,-343 681,-365 894,-365 894,-343 681,-343"/>
<image xlink:href="../../images/primaryKeys.png" width="11px" height="12px" preserveAspectRatio="xMinYMin meet" x="686" y="-360"/>
<text text-anchor="start" x="701" y="-351.2" font-family="Helvetica,sans-Serif" font-size="11.00">id</text>
<polygon fill="none" stroke="black" points="894,-343 894,-365 1003,-365 1003,-343 894,-343"/>
<text text-anchor="start" x="897" y="-351.2" font-family="Helvetica,sans-Serif" font-size="11.00">uuid[2147483647]</text>
<polygon fill="#ffffff" stroke="transparent" points="681,-321 681,-343 894,-343 894,-321 681,-321"/>
<polygon fill="none" stroke="black" points="681,-321 681,-343 894,-343 894,-321 681,-321"/>
<image xlink:href="../../images/foreignKeys.png" width="11px" height="12px" preserveAspectRatio="xMinYMin meet" x="686" y="-338"/>
<text text-anchor="start" x="701" y="-329.2" font-family="Helvetica,sans-Serif" font-size="11.00">instance_id</text>
<polygon fill="none" stroke="black" points="894,-321 894,-343 1003,-343 1003,-321 894,-321"/>
<text text-anchor="start" x="897" y="-329.2" font-family="Helvetica,sans-Serif" font-size="11.00">uuid[2147483647]</text>
<polygon fill="#ffffff" stroke="transparent" points="681,-299 681,-321 894,-321 894,-299 681,-299"/>
<polygon fill="none" stroke="black" points="681,-299 681,-321 894,-321 894,-299 681,-299"/>
<text text-anchor="start" x="701" y="-307.2" font-family="Helvetica,sans-Serif" font-size="11.00">ordering</text>
<polygon fill="none" stroke="black" points="894,-299 894,-321 1003,-321 1003,-299 894,-299"/>
<text text-anchor="start" x="897" y="-307.2" font-family="Helvetica,sans-Serif" font-size="11.00">int4[10]</text>
<polygon fill="none" stroke="black" points="681,-277 681,-299 894,-299 894,-277 681,-277"/>
<text text-anchor="start" x="701" y="-285.2" font-family="Helvetica,sans-Serif" font-size="11.00">functional_type</text>
<polygon fill="none" stroke="black" points="894,-277 894,-299 1003,-299 1003,-277 894,-277"/>
<text text-anchor="start" x="897" y="-285.2" font-family="Helvetica,sans-Serif" font-size="11.00">text[2147483647]</text>
<polygon fill="none" stroke="black" points="681,-255 681,-277 894,-277 894,-255 681,-255"/>
<text text-anchor="start" x="701" y="-263.2" font-family="Helvetica,sans-Serif" font-size="11.00">ip_host_or_network</text>
<polygon fill="none" stroke="black" points="894,-255 894,-277 1003,-277 1003,-255 894,-255"/>
<text text-anchor="start" x="897" y="-263.2" font-family="Helvetica,sans-Serif" font-size="11.00">inet[2147483647]</text>
<polygon fill="none" stroke="black" points="681,-233 681,-255 894,-255 894,-233 681,-233"/>
<text text-anchor="start" x="701" y="-241.2" font-family="Helvetica,sans-Serif" font-size="11.00">ip_host_range_lower</text>
<polygon fill="none" stroke="black" points="894,-233 894,-255 1003,-255 1003,-233 894,-233"/>
<text text-anchor="start" x="897" y="-241.2" font-family="Helvetica,sans-Serif" font-size="11.00">inet[2147483647]</text>
<polygon fill="none" stroke="black" points="681,-211 681,-233 894,-233 894,-211 681,-211"/>
<text text-anchor="start" x="701" y="-219.2" font-family="Helvetica,sans-Serif" font-size="11.00">ip_host_range_upper</text>
<polygon fill="none" stroke="black" points="894,-211 894,-233 1003,-233 1003,-211 894,-211"/>
<text text-anchor="start" x="897" y="-219.2" font-family="Helvetica,sans-Serif" font-size="11.00">inet[2147483647]</text>
<polygon fill="none" stroke="black" points="681,-189 681,-211 894,-211 894,-189 681,-189"/>
<text text-anchor="start" x="701" y="-197.2" font-family="Helvetica,sans-Serif" font-size="11.00">diag_timestamp_created</text>
<polygon fill="none" stroke="black" points="894,-189 894,-211 1003,-211 1003,-189 894,-189"/>
<text text-anchor="start" x="897" y="-197.2" font-family="Helvetica,sans-Serif" font-size="11.00">timestamptz[35,6]</text>
<polygon fill="none" stroke="black" points="681,-167 681,-189 894,-189 894,-167 681,-167"/>
<text text-anchor="start" x="701" y="-175.2" font-family="Helvetica,sans-Serif" font-size="11.00">diag_role_created</text>
<polygon fill="none" stroke="black" points="894,-167 894,-189 1003,-189 1003,-167 894,-167"/>
<text text-anchor="start" x="897" y="-175.2" font-family="Helvetica,sans-Serif" font-size="11.00">text[2147483647]</text>
<polygon fill="none" stroke="black" points="681,-145 681,-167 894,-167 894,-145 681,-145"/>
<text text-anchor="start" x="701" y="-153.2" font-family="Helvetica,sans-Serif" font-size="11.00">diag_timestamp_modified</text>
<polygon fill="none" stroke="black" points="894,-145 894,-167 1003,-167 1003,-145 894,-145"/>
<text text-anchor="start" x="897" y="-153.2" font-family="Helvetica,sans-Serif" font-size="11.00">timestamptz[35,6]</text>
<polygon fill="none" stroke="black" points="681,-123 681,-145 894,-145 894,-123 681,-123"/>
<text text-anchor="start" x="701" y="-131.2" font-family="Helvetica,sans-Serif" font-size="11.00">diag_wallclock_modified</text>
<polygon fill="none" stroke="black" points="894,-123 894,-145 1003,-145 1003,-123 894,-123"/>
<text text-anchor="start" x="897" y="-131.2" font-family="Helvetica,sans-Serif" font-size="11.00">timestamptz[35,6]</text>
<polygon fill="none" stroke="black" points="681,-101 681,-123 894,-123 894,-101 681,-101"/>
<text text-anchor="start" x="701" y="-109.2" font-family="Helvetica,sans-Serif" font-size="11.00">diag_role_modified</text>
<polygon fill="none" stroke="black" points="894,-101 894,-123 1003,-123 1003,-101 894,-101"/>
<text text-anchor="start" x="897" y="-109.2" font-family="Helvetica,sans-Serif" font-size="11.00">text[2147483647]</text>
<polygon fill="none" stroke="black" points="681,-79 681,-101 894,-101 894,-79 681,-79"/>
<text text-anchor="start" x="701" y="-87.2" font-family="Helvetica,sans-Serif" font-size="11.00">diag_row_version</text>
<polygon fill="none" stroke="black" points="894,-79 894,-101 1003,-101 1003,-79 894,-79"/>
<text text-anchor="start" x="897" y="-87.2" font-family="Helvetica,sans-Serif" font-size="11.00">int8[19]</text>
<polygon fill="none" stroke="black" points="681,-57 681,-79 894,-79 894,-57 681,-57"/>
<text text-anchor="start" x="701" y="-65.2" font-family="Helvetica,sans-Serif" font-size="11.00">diag_update_count</text>
<polygon fill="none" stroke="black" points="894,-57 894,-79 1003,-79 1003,-57 894,-57"/>
<text text-anchor="start" x="897" y="-65.2" font-family="Helvetica,sans-Serif" font-size="11.00">int8[19]</text>
<polygon fill="#ffffff" stroke="transparent" points="681,-39 681,-57 793,-57 793,-39 681,-39"/>
<polygon fill="none" stroke="black" points="681,-39 681,-57 793,-57 793,-39 681,-39"/>
<text text-anchor="start" x="684" y="-45.2" font-family="Helvetica,sans-Serif" font-size="11.00">&lt; 1</text>
<polygon fill="#ffffff" stroke="transparent" points="793,-39 793,-57 894,-57 894,-39 793,-39"/>
<polygon fill="none" stroke="black" points="793,-39 793,-57 894,-57 894,-39 793,-39"/>
<text text-anchor="start" x="883" y="-45.2" font-family="Helvetica,sans-Serif" font-size="11.00"> &#160;</text>
<polygon fill="#ffffff" stroke="transparent" points="894,-39 894,-57 1003,-57 1003,-39 894,-39"/>
<polygon fill="none" stroke="black" points="894,-39 894,-57 1003,-57 1003,-39 894,-39"/>
<text text-anchor="start" x="980" y="-45.2" font-family="Helvetica,sans-Serif" font-size="11.00">0 &gt;</text>
<polygon fill="none" stroke="black" stroke-width="2" points="680,-38 680,-388 1004,-388 1004,-38 680,-38"/>
</a>
</g>
</g>
<!-- syst_instance_network_rules&#45;&gt;syst_instances -->
<g id="edge3" class="edge">
<title>syst_instance_network_rules:w&#45;&gt;syst_instances:e</title>
<path fill="none" stroke="black" d="M665.94,-335.99C639.87,-355.17 676.88,-437 631.5,-437"/>
<polygon fill="black" stroke="black" points="672.3,-334.18 680.98,-335.46 676.15,-333.09 680,-332 680,-332 680,-332 676.15,-333.09 679.02,-328.54 672.3,-334.18 672.3,-334.18"/>
<ellipse fill="none" stroke="black" cx="669.23" cy="-335.06" rx="3.2" ry="3.2"/>
</g>
<!-- syst_owners&#45;&gt;syst_enum_items -->
<g id="edge8" class="edge">
<title>syst_owners:w&#45;&gt;syst_enum_items:e</title>
<path fill="none" stroke="black" d="M221.32,-273.44C200.01,-285.48 202.93,-325 171,-325"/>
<polygon fill="black" stroke="black" points="227.73,-271.89 236.35,-273.5 231.61,-270.94 235.5,-270 235.5,-270 235.5,-270 231.61,-270.94 234.65,-266.5 227.73,-271.89 227.73,-271.89"/>
<ellipse fill="none" stroke="black" cx="224.62" cy="-272.64" rx="3.2" ry="3.2"/>
</g>
</g>
</svg>
