<?xml version="1.0" encoding="UTF-8" standalone="no"?>
<!DOCTYPE svg PUBLIC "-//W3C//DTD SVG 1.1//EN"
 "http://www.w3.org/Graphics/SVG/1.1/DTD/svg11.dtd">
<!-- Generated by graphviz version 2.43.0 (0)
 -->
<!-- Title: twoDegreesRelationshipsDiagram Pages: 1 -->
<svg width="1866pt" height="769pt"
 viewBox="0.00 0.00 1866.00 769.00" xmlns="http://www.w3.org/2000/svg" xmlns:xlink="http://www.w3.org/1999/xlink">
<g id="graph0" class="graph" transform="scale(1 1) rotate(0) translate(4 765)">
<title>twoDegreesRelationshipsDiagram</title>
<polygon fill="#ffffff" stroke="transparent" points="-4,4 -4,-765 1862,-765 1862,4 -4,4"/>
<text text-anchor="middle" x="79.5" y="-7.2" font-family="Helvetica,sans-Serif" font-size="11.00">Generated by SchemaSpy</text>
<!-- syst_access_account_instance_assocs -->
<g id="node1" class="node">
<title>syst_access_account_instance_assocs</title>
<g id="a_node1"><a xlink:href="../../tables/syst_access_account_instance_assocs.html" xlink:title="syst_access_account_instance_assocs" target="_top">
<polygon fill="#ffffff" stroke="transparent" points="1346,-273 1346,-397 1645,-397 1645,-273 1346,-273"/>
<polygon fill="#f5f5f5" stroke="transparent" points="1346.5,-375 1346.5,-397 1645.5,-397 1645.5,-375 1346.5,-375"/>
<polygon fill="none" stroke="black" points="1346.5,-375 1346.5,-397 1645.5,-397 1645.5,-375 1346.5,-375"/>
<text text-anchor="start" x="1351.5" y="-384.2" font-family="Helvetica,sans-Serif" font-weight="bold" font-size="11.00">syst_access_account_instance_assocs</text>
<text text-anchor="start" x="1603.5" y="-383.2" font-family="Helvetica,sans-Serif" font-size="11.00">[table]</text>
<polygon fill="none" stroke="black" points="1346.5,-353 1346.5,-375 1645.5,-375 1645.5,-353 1346.5,-353"/>
<image xlink:href="../../images/primaryKeys.png" width="11px" height="12px" preserveAspectRatio="xMinYMin meet" x="1351.5" y="-370"/>
<text text-anchor="start" x="1379.5" y="-361.2" font-family="Helvetica,sans-Serif" font-size="11.00">id</text>
<polygon fill="#ffffff" stroke="transparent" points="1346.5,-331 1346.5,-353 1645.5,-353 1645.5,-331 1346.5,-331"/>
<polygon fill="none" stroke="black" points="1346.5,-331 1346.5,-353 1645.5,-353 1645.5,-331 1346.5,-331"/>
<image xlink:href="../../images/foreignKeys.png" width="11px" height="12px" preserveAspectRatio="xMinYMin meet" x="1351.5" y="-348"/>
<text text-anchor="start" x="1379.5" y="-339.2" font-family="Helvetica,sans-Serif" font-size="11.00">access_account_id</text>
<polygon fill="#ffffff" stroke="transparent" points="1346.5,-309 1346.5,-331 1645.5,-331 1645.5,-309 1346.5,-309"/>
<polygon fill="none" stroke="black" points="1346.5,-309 1346.5,-331 1645.5,-331 1645.5,-309 1346.5,-309"/>
<image xlink:href="../../images/foreignKeys.png" width="11px" height="12px" preserveAspectRatio="xMinYMin meet" x="1351.5" y="-326"/>
<text text-anchor="start" x="1379.5" y="-317.2" font-family="Helvetica,sans-Serif" font-size="11.00">instance_id</text>
<polygon fill="none" stroke="black" points="1346.5,-291 1346.5,-309 1645.5,-309 1645.5,-291 1346.5,-291"/>
<text text-anchor="start" x="1349.5" y="-297.2" font-family="Helvetica,sans-Serif" font-size="11.00">...</text>
<polygon fill="#ffffff" stroke="transparent" points="1346.5,-273 1346.5,-291 1494.5,-291 1494.5,-273 1346.5,-273"/>
<polygon fill="none" stroke="black" points="1346.5,-273 1346.5,-291 1494.5,-291 1494.5,-273 1346.5,-273"/>
<text text-anchor="start" x="1349.5" y="-279.2" font-family="Helvetica,sans-Serif" font-size="11.00">&lt; 2</text>
<polygon fill="#ffffff" stroke="transparent" points="1494.5,-273 1494.5,-291 1569.5,-291 1569.5,-273 1494.5,-273"/>
<polygon fill="none" stroke="black" points="1494.5,-273 1494.5,-291 1569.5,-291 1569.5,-273 1494.5,-273"/>
<text text-anchor="start" x="1558.5" y="-279.2" font-family="Helvetica,sans-Serif" font-size="11.00"> &#160;</text>
<polygon fill="#ffffff" stroke="transparent" points="1569.5,-273 1569.5,-291 1645.5,-291 1645.5,-273 1569.5,-273"/>
<polygon fill="none" stroke="black" points="1569.5,-273 1569.5,-291 1645.5,-291 1645.5,-273 1569.5,-273"/>
<text text-anchor="start" x="1634.5" y="-279.2" font-family="Helvetica,sans-Serif" font-size="11.00"> &#160;</text>
</a>
</g>
</g>
<!-- syst_access_accounts -->
<g id="node2" class="node">
<title>syst_access_accounts</title>
<g id="a_node2"><a xlink:href="../../tables/syst_access_accounts.html" xlink:title="syst_access_accounts" target="_top">
<polygon fill="#ffffff" stroke="transparent" points="990,-380 990,-710 1297,-710 1297,-380 990,-380"/>
<polygon fill="#f5f5f5" stroke="transparent" points="992.5,-686 992.5,-708 1295.5,-708 1295.5,-686 992.5,-686"/>
<polygon fill="none" stroke="black" points="992.5,-686 992.5,-708 1295.5,-708 1295.5,-686 992.5,-686"/>
<text text-anchor="start" x="997.5" y="-695.2" font-family="Helvetica,sans-Serif" font-weight="bold" font-size="11.00">syst_access_accounts</text>
<text text-anchor="start" x="1253.5" y="-694.2" font-family="Helvetica,sans-Serif" font-size="11.00">[table]</text>
<polygon fill="none" stroke="black" points="992.5,-664 992.5,-686 1186.5,-686 1186.5,-664 992.5,-664"/>
<image xlink:href="../../images/primaryKeys.png" width="11px" height="12px" preserveAspectRatio="xMinYMin meet" x="997.5" y="-681"/>
<text text-anchor="start" x="1012.5" y="-672.2" font-family="Helvetica,sans-Serif" font-size="11.00">id</text>
<polygon fill="none" stroke="black" points="1186.5,-664 1186.5,-686 1295.5,-686 1295.5,-664 1186.5,-664"/>
<text text-anchor="start" x="1189.5" y="-672.2" font-family="Helvetica,sans-Serif" font-size="11.00">uuid[2147483647]</text>
<polygon fill="#ffffff" stroke="transparent" points="992.5,-642 992.5,-664 1186.5,-664 1186.5,-642 992.5,-642"/>
<polygon fill="none" stroke="black" points="992.5,-642 992.5,-664 1186.5,-664 1186.5,-642 992.5,-642"/>
<text text-anchor="start" x="1012.5" y="-650.2" font-family="Helvetica,sans-Serif" font-size="11.00">internal_name</text>
<polygon fill="none" stroke="black" points="1186.5,-642 1186.5,-664 1295.5,-664 1295.5,-642 1186.5,-642"/>
<text text-anchor="start" x="1189.5" y="-650.2" font-family="Helvetica,sans-Serif" font-size="11.00">text[2147483647]</text>
<polygon fill="none" stroke="black" points="992.5,-620 992.5,-642 1186.5,-642 1186.5,-620 992.5,-620"/>
<text text-anchor="start" x="1012.5" y="-628.2" font-family="Helvetica,sans-Serif" font-size="11.00">external_name</text>
<polygon fill="none" stroke="black" points="1186.5,-620 1186.5,-642 1295.5,-642 1295.5,-620 1186.5,-620"/>
<text text-anchor="start" x="1189.5" y="-628.2" font-family="Helvetica,sans-Serif" font-size="11.00">text[2147483647]</text>
<polygon fill="none" stroke="black" points="992.5,-598 992.5,-620 1186.5,-620 1186.5,-598 992.5,-598"/>
<image xlink:href="../../images/foreignKeys.png" width="11px" height="12px" preserveAspectRatio="xMinYMin meet" x="997.5" y="-615"/>
<text text-anchor="start" x="1012.5" y="-606.2" font-family="Helvetica,sans-Serif" font-size="11.00">owning_owner_id</text>
<polygon fill="none" stroke="black" points="1186.5,-598 1186.5,-620 1295.5,-620 1295.5,-598 1186.5,-598"/>
<text text-anchor="start" x="1189.5" y="-606.2" font-family="Helvetica,sans-Serif" font-size="11.00">uuid[2147483647]</text>
<polygon fill="none" stroke="black" points="992.5,-576 992.5,-598 1186.5,-598 1186.5,-576 992.5,-576"/>
<text text-anchor="start" x="1012.5" y="-584.2" font-family="Helvetica,sans-Serif" font-size="11.00">allow_global_logins</text>
<polygon fill="none" stroke="black" points="1186.5,-576 1186.5,-598 1295.5,-598 1295.5,-576 1186.5,-576"/>
<text text-anchor="start" x="1189.5" y="-584.2" font-family="Helvetica,sans-Serif" font-size="11.00">bool[1]</text>
<polygon fill="none" stroke="black" points="992.5,-554 992.5,-576 1186.5,-576 1186.5,-554 992.5,-554"/>
<image xlink:href="../../images/foreignKeys.png" width="11px" height="12px" preserveAspectRatio="xMinYMin meet" x="997.5" y="-571"/>
<text text-anchor="start" x="1012.5" y="-562.2" font-family="Helvetica,sans-Serif" font-size="11.00">access_account_state_id</text>
<polygon fill="none" stroke="black" points="1186.5,-554 1186.5,-576 1295.5,-576 1295.5,-554 1186.5,-554"/>
<text text-anchor="start" x="1189.5" y="-562.2" font-family="Helvetica,sans-Serif" font-size="11.00">uuid[2147483647]</text>
<polygon fill="none" stroke="black" points="992.5,-532 992.5,-554 1186.5,-554 1186.5,-532 992.5,-532"/>
<text text-anchor="start" x="1012.5" y="-540.2" font-family="Helvetica,sans-Serif" font-size="11.00">diag_timestamp_created</text>
<polygon fill="none" stroke="black" points="1186.5,-532 1186.5,-554 1295.5,-554 1295.5,-532 1186.5,-532"/>
<text text-anchor="start" x="1189.5" y="-540.2" font-family="Helvetica,sans-Serif" font-size="11.00">timestamptz[35,6]</text>
<polygon fill="none" stroke="black" points="992.5,-510 992.5,-532 1186.5,-532 1186.5,-510 992.5,-510"/>
<text text-anchor="start" x="1012.5" y="-518.2" font-family="Helvetica,sans-Serif" font-size="11.00">diag_role_created</text>
<polygon fill="none" stroke="black" points="1186.5,-510 1186.5,-532 1295.5,-532 1295.5,-510 1186.5,-510"/>
<text text-anchor="start" x="1189.5" y="-518.2" font-family="Helvetica,sans-Serif" font-size="11.00">text[2147483647]</text>
<polygon fill="none" stroke="black" points="992.5,-488 992.5,-510 1186.5,-510 1186.5,-488 992.5,-488"/>
<text text-anchor="start" x="1012.5" y="-496.2" font-family="Helvetica,sans-Serif" font-size="11.00">diag_timestamp_modified</text>
<polygon fill="none" stroke="black" points="1186.5,-488 1186.5,-510 1295.5,-510 1295.5,-488 1186.5,-488"/>
<text text-anchor="start" x="1189.5" y="-496.2" font-family="Helvetica,sans-Serif" font-size="11.00">timestamptz[35,6]</text>
<polygon fill="none" stroke="black" points="992.5,-466 992.5,-488 1186.5,-488 1186.5,-466 992.5,-466"/>
<text text-anchor="start" x="1012.5" y="-474.2" font-family="Helvetica,sans-Serif" font-size="11.00">diag_wallclock_modified</text>
<polygon fill="none" stroke="black" points="1186.5,-466 1186.5,-488 1295.5,-488 1295.5,-466 1186.5,-466"/>
<text text-anchor="start" x="1189.5" y="-474.2" font-family="Helvetica,sans-Serif" font-size="11.00">timestamptz[35,6]</text>
<polygon fill="none" stroke="black" points="992.5,-444 992.5,-466 1186.5,-466 1186.5,-444 992.5,-444"/>
<text text-anchor="start" x="1012.5" y="-452.2" font-family="Helvetica,sans-Serif" font-size="11.00">diag_role_modified</text>
<polygon fill="none" stroke="black" points="1186.5,-444 1186.5,-466 1295.5,-466 1295.5,-444 1186.5,-444"/>
<text text-anchor="start" x="1189.5" y="-452.2" font-family="Helvetica,sans-Serif" font-size="11.00">text[2147483647]</text>
<polygon fill="none" stroke="black" points="992.5,-422 992.5,-444 1186.5,-444 1186.5,-422 992.5,-422"/>
<text text-anchor="start" x="1012.5" y="-430.2" font-family="Helvetica,sans-Serif" font-size="11.00">diag_row_version</text>
<polygon fill="none" stroke="black" points="1186.5,-422 1186.5,-444 1295.5,-444 1295.5,-422 1186.5,-422"/>
<text text-anchor="start" x="1189.5" y="-430.2" font-family="Helvetica,sans-Serif" font-size="11.00">int8[19]</text>
<polygon fill="none" stroke="black" points="992.5,-400 992.5,-422 1186.5,-422 1186.5,-400 992.5,-400"/>
<text text-anchor="start" x="1012.5" y="-408.2" font-family="Helvetica,sans-Serif" font-size="11.00">diag_update_count</text>
<polygon fill="none" stroke="black" points="1186.5,-400 1186.5,-422 1295.5,-422 1295.5,-400 1186.5,-400"/>
<text text-anchor="start" x="1189.5" y="-408.2" font-family="Helvetica,sans-Serif" font-size="11.00">int8[19]</text>
<polygon fill="#ffffff" stroke="transparent" points="992.5,-382 992.5,-400 1095.5,-400 1095.5,-382 992.5,-382"/>
<polygon fill="none" stroke="black" points="992.5,-382 992.5,-400 1095.5,-400 1095.5,-382 992.5,-382"/>
<text text-anchor="start" x="995.5" y="-388.2" font-family="Helvetica,sans-Serif" font-size="11.00">&lt; 2</text>
<polygon fill="#ffffff" stroke="transparent" points="1095.5,-382 1095.5,-400 1186.5,-400 1186.5,-382 1095.5,-382"/>
<polygon fill="none" stroke="black" points="1095.5,-382 1095.5,-400 1186.5,-400 1186.5,-382 1095.5,-382"/>
<text text-anchor="start" x="1175.5" y="-388.2" font-family="Helvetica,sans-Serif" font-size="11.00"> &#160;</text>
<polygon fill="#ffffff" stroke="transparent" points="1186.5,-382 1186.5,-400 1295.5,-400 1295.5,-382 1186.5,-382"/>
<polygon fill="none" stroke="black" points="1186.5,-382 1186.5,-400 1295.5,-400 1295.5,-382 1186.5,-382"/>
<text text-anchor="start" x="1272.5" y="-388.2" font-family="Helvetica,sans-Serif" font-size="11.00">4 &gt;</text>
<polygon fill="none" stroke="black" stroke-width="2" points="991,-381 991,-709 1296,-709 1296,-381 991,-381"/>
</a>
</g>
</g>
<!-- syst_access_account_instance_assocs&#45;&gt;syst_access_accounts -->
<g id="edge1" class="edge">
<title>syst_access_account_instance_assocs:w&#45;&gt;syst_access_accounts:e</title>
<path fill="none" stroke="black" d="M1331.9,-346.97C1284.33,-388.39 1365.89,-675 1296.5,-675"/>
<polygon fill="black" stroke="black" points="1337.99,-344.74 1346.73,-345.38 1341.74,-343.37 1345.5,-342 1345.5,-342 1345.5,-342 1341.74,-343.37 1344.27,-338.62 1337.99,-344.74 1337.99,-344.74"/>
<ellipse fill="none" stroke="black" cx="1334.98" cy="-345.84" rx="3.2" ry="3.2"/>
</g>
<!-- syst_instances -->
<g id="node3" class="node">
<title>syst_instances</title>
<g id="a_node3"><a xlink:href="../../tables/syst_instances.html" xlink:title="syst_instances" target="_top">
<polygon fill="#ffffff" stroke="transparent" points="1071,-143 1071,-201 1216,-201 1216,-143 1071,-143"/>
<polygon fill="#f5f5f5" stroke="transparent" points="1071.5,-179 1071.5,-201 1216.5,-201 1216.5,-179 1071.5,-179"/>
<polygon fill="none" stroke="black" points="1071.5,-179 1071.5,-201 1216.5,-201 1216.5,-179 1071.5,-179"/>
<text text-anchor="start" x="1076.5" y="-188.2" font-family="Helvetica,sans-Serif" font-weight="bold" font-size="11.00">syst_instances</text>
<text text-anchor="start" x="1174.5" y="-187.2" font-family="Helvetica,sans-Serif" font-size="11.00">[table]</text>
<polygon fill="none" stroke="black" points="1071.5,-161 1071.5,-179 1216.5,-179 1216.5,-161 1071.5,-161"/>
<text text-anchor="start" x="1074.5" y="-167.2" font-family="Helvetica,sans-Serif" font-size="11.00">...</text>
<polygon fill="#ffffff" stroke="transparent" points="1071.5,-143 1071.5,-161 1136.5,-161 1136.5,-143 1071.5,-143"/>
<polygon fill="none" stroke="black" points="1071.5,-143 1071.5,-161 1136.5,-161 1136.5,-143 1071.5,-143"/>
<text text-anchor="start" x="1074.5" y="-149.2" font-family="Helvetica,sans-Serif" font-size="11.00">&lt; 5</text>
<polygon fill="#ffffff" stroke="transparent" points="1136.5,-143 1136.5,-161 1170.5,-161 1170.5,-143 1136.5,-143"/>
<polygon fill="none" stroke="black" points="1136.5,-143 1136.5,-161 1170.5,-161 1170.5,-143 1136.5,-143"/>
<text text-anchor="start" x="1159.5" y="-149.2" font-family="Helvetica,sans-Serif" font-size="11.00"> &#160;</text>
<polygon fill="#ffffff" stroke="transparent" points="1170.5,-143 1170.5,-161 1216.5,-161 1216.5,-143 1170.5,-143"/>
<polygon fill="none" stroke="black" points="1170.5,-143 1170.5,-161 1216.5,-161 1216.5,-143 1170.5,-143"/>
<text text-anchor="start" x="1193.5" y="-149.2" font-family="Helvetica,sans-Serif" font-size="11.00">4 &gt;</text>
</a>
</g>
</g>
<!-- syst_access_account_instance_assocs&#45;&gt;syst_instances -->
<g id="edge2" class="edge">
<title>syst_access_account_instance_assocs:w&#45;&gt;syst_instances:e</title>
<path fill="none" stroke="black" d="M1331.07,-317.24C1303.53,-303.82 1335.9,-244.56 1305,-211 1275.91,-179.41 1260.45,-170 1217.5,-170"/>
<polygon fill="black" stroke="black" points="1337.64,-318.5 1344.82,-323.54 1341.57,-319.25 1345.5,-320 1345.5,-320 1345.5,-320 1341.57,-319.25 1346.18,-316.46 1337.64,-318.5 1337.64,-318.5"/>
<ellipse fill="none" stroke="black" cx="1334.5" cy="-317.9" rx="3.2" ry="3.2"/>
</g>
<!-- syst_enum_items -->
<g id="node4" class="node">
<title>syst_enum_items</title>
<g id="a_node4"><a xlink:href="../../tables/syst_enum_items.html" xlink:title="syst_enum_items" target="_top">
<polygon fill="#ffffff" stroke="transparent" points="467,-141 467,-199 629,-199 629,-141 467,-141"/>
<polygon fill="#f5f5f5" stroke="transparent" points="467,-177 467,-199 629,-199 629,-177 467,-177"/>
<polygon fill="none" stroke="black" points="467,-177 467,-199 629,-199 629,-177 467,-177"/>
<text text-anchor="start" x="472" y="-186.2" font-family="Helvetica,sans-Serif" font-weight="bold" font-size="11.00">syst_enum_items</text>
<text text-anchor="start" x="587" y="-185.2" font-family="Helvetica,sans-Serif" font-size="11.00">[table]</text>
<polygon fill="none" stroke="black" points="467,-159 467,-177 629,-177 629,-159 467,-159"/>
<text text-anchor="start" x="470" y="-165.2" font-family="Helvetica,sans-Serif" font-size="11.00">...</text>
<polygon fill="#ffffff" stroke="transparent" points="467,-141 467,-159 541,-159 541,-141 467,-141"/>
<polygon fill="none" stroke="black" points="467,-141 467,-159 541,-159 541,-141 467,-141"/>
<text text-anchor="start" x="470" y="-147.2" font-family="Helvetica,sans-Serif" font-size="11.00">&lt; 2</text>
<polygon fill="#ffffff" stroke="transparent" points="541,-141 541,-159 579,-159 579,-141 541,-141"/>
<polygon fill="none" stroke="black" points="541,-141 541,-159 579,-159 579,-141 541,-141"/>
<text text-anchor="start" x="568" y="-147.2" font-family="Helvetica,sans-Serif" font-size="11.00"> &#160;</text>
<polygon fill="#ffffff" stroke="transparent" points="579,-141 579,-159 629,-159 629,-141 579,-141"/>
<polygon fill="none" stroke="black" points="579,-141 579,-159 629,-159 629,-141 579,-141"/>
<text text-anchor="start" x="606" y="-147.2" font-family="Helvetica,sans-Serif" font-size="11.00">7 &gt;</text>
</a>
</g>
</g>
<!-- syst_access_accounts&#45;&gt;syst_enum_items -->
<g id="edge3" class="edge">
<title>syst_access_accounts:w&#45;&gt;syst_enum_items:e</title>
<path fill="none" stroke="black" d="M977,-564.6C767.89,-553.12 614.52,-296.43 565.6,-203.34"/>
<polygon fill="black" stroke="black" points="983.5,-564.78 991.4,-568.6 987.5,-564.89 991.5,-565 991.5,-565 991.5,-565 987.5,-564.89 991.6,-561.4 983.5,-564.78 983.5,-564.78"/>
<ellipse fill="none" stroke="black" cx="980.3" cy="-564.69" rx="3.2" ry="3.2"/>
</g>
<!-- syst_owners -->
<g id="node5" class="node">
<title>syst_owners</title>
<g id="a_node5"><a xlink:href="../../tables/syst_owners.html" xlink:title="syst_owners" target="_top">
<polygon fill="#ffffff" stroke="transparent" points="745,-220 745,-278 874,-278 874,-220 745,-220"/>
<polygon fill="#f5f5f5" stroke="transparent" points="745.5,-256 745.5,-278 874.5,-278 874.5,-256 745.5,-256"/>
<polygon fill="none" stroke="black" points="745.5,-256 745.5,-278 874.5,-278 874.5,-256 745.5,-256"/>
<text text-anchor="start" x="750.5" y="-265.2" font-family="Helvetica,sans-Serif" font-weight="bold" font-size="11.00">syst_owners</text>
<text text-anchor="start" x="832.5" y="-264.2" font-family="Helvetica,sans-Serif" font-size="11.00">[table]</text>
<polygon fill="none" stroke="black" points="745.5,-238 745.5,-256 874.5,-256 874.5,-238 745.5,-238"/>
<text text-anchor="start" x="748.5" y="-244.2" font-family="Helvetica,sans-Serif" font-size="11.00">...</text>
<polygon fill="#ffffff" stroke="transparent" points="745.5,-220 745.5,-238 802.5,-238 802.5,-220 745.5,-220"/>
<polygon fill="none" stroke="black" points="745.5,-220 745.5,-238 802.5,-238 802.5,-220 745.5,-220"/>
<text text-anchor="start" x="748.5" y="-226.2" font-family="Helvetica,sans-Serif" font-size="11.00">&lt; 1</text>
<polygon fill="#ffffff" stroke="transparent" points="802.5,-220 802.5,-238 832.5,-238 832.5,-220 802.5,-220"/>
<polygon fill="none" stroke="black" points="802.5,-220 802.5,-238 832.5,-238 832.5,-220 802.5,-220"/>
<text text-anchor="start" x="821.5" y="-226.2" font-family="Helvetica,sans-Serif" font-size="11.00"> &#160;</text>
<polygon fill="#ffffff" stroke="transparent" points="832.5,-220 832.5,-238 874.5,-238 874.5,-220 832.5,-220"/>
<polygon fill="none" stroke="black" points="832.5,-220 832.5,-238 874.5,-238 874.5,-220 832.5,-220"/>
<text text-anchor="start" x="851.5" y="-226.2" font-family="Helvetica,sans-Serif" font-size="11.00">4 &gt;</text>
</a>
</g>
</g>
<!-- syst_access_accounts&#45;&gt;syst_owners -->
<g id="edge4" class="edge">
<title>syst_access_accounts:w&#45;&gt;syst_owners:e</title>
<path fill="none" stroke="black" d="M977.14,-607.68C916.76,-595.09 983.16,-495.15 949,-424 922.5,-368.81 875.95,-315.09 844.2,-282.04"/>
<polygon fill="black" stroke="black" points="983.53,-608.27 991.17,-612.58 987.52,-608.63 991.5,-609 991.5,-609 991.5,-609 987.52,-608.63 991.83,-605.42 983.53,-608.27 983.53,-608.27"/>
<ellipse fill="none" stroke="black" cx="980.35" cy="-607.97" rx="3.2" ry="3.2"/>
</g>
<!-- syst_instances&#45;&gt;syst_enum_items -->
<g id="edge14" class="edge">
<title>syst_instances:w&#45;&gt;syst_enum_items:e</title>
<path fill="none" stroke="black" d="M1055.7,-169.63C906.81,-165.97 737.47,-164.74 637.12,-165.94"/>
<polygon fill="black" stroke="black" points="1062.5,-169.8 1070.41,-173.6 1066.5,-169.9 1070.5,-170 1070.5,-170 1070.5,-170 1066.5,-169.9 1070.59,-166.4 1062.5,-169.8 1062.5,-169.8"/>
<ellipse fill="none" stroke="black" cx="1059.3" cy="-169.72" rx="3.2" ry="3.2"/>
</g>
<!-- syst_instances&#45;&gt;syst_enum_items -->
<g id="edge15" class="edge">
<title>syst_instances:w&#45;&gt;syst_enum_items:e</title>
<path fill="none" stroke="black" d="M1055.7,-170.44C906.81,-174.7 737.47,-176.13 637.12,-174.73"/>
<polygon fill="black" stroke="black" points="1062.5,-170.24 1070.61,-173.6 1066.5,-170.12 1070.5,-170 1070.5,-170 1070.5,-170 1066.5,-170.12 1070.39,-166.4 1062.5,-170.24 1062.5,-170.24"/>
<ellipse fill="none" stroke="black" cx="1059.3" cy="-170.33" rx="3.2" ry="3.2"/>
</g>
<!-- syst_instances&#45;&gt;syst_owners -->
<g id="edge16" class="edge">
<title>syst_instances:w&#45;&gt;syst_owners:e</title>
<path fill="none" stroke="black" d="M1055.9,-170.37C993.12,-173.5 927.12,-195.87 879.4,-215.95"/>
<polygon fill="black" stroke="black" points="1062.5,-170.2 1070.59,-173.6 1066.5,-170.1 1070.5,-170 1070.5,-170 1070.5,-170 1066.5,-170.1 1070.41,-166.4 1062.5,-170.2 1062.5,-170.2"/>
<ellipse fill="none" stroke="black" cx="1059.3" cy="-170.28" rx="3.2" ry="3.2"/>
</g>
<!-- syst_enum_functional_types -->
<g id="node8" class="node">
<title>syst_enum_functional_types</title>
<g id="a_node8"><a xlink:href="../../tables/syst_enum_functional_types.html" xlink:title="syst_enum_functional_types" target="_top">
<polygon fill="#ffffff" stroke="transparent" points="182,-116 182,-174 418,-174 418,-116 182,-116"/>
<polygon fill="#f5f5f5" stroke="transparent" points="182,-152 182,-174 418,-174 418,-152 182,-152"/>
<polygon fill="none" stroke="black" points="182,-152 182,-174 418,-174 418,-152 182,-152"/>
<text text-anchor="start" x="187" y="-161.2" font-family="Helvetica,sans-Serif" font-weight="bold" font-size="11.00">syst_enum_functional_types</text>
<text text-anchor="start" x="376" y="-160.2" font-family="Helvetica,sans-Serif" font-size="11.00">[table]</text>
<polygon fill="none" stroke="black" points="182,-134 182,-152 418,-152 418,-134 182,-134"/>
<text text-anchor="start" x="185" y="-140.2" font-family="Helvetica,sans-Serif" font-size="11.00">...</text>
<polygon fill="#ffffff" stroke="transparent" points="182,-116 182,-134 293,-134 293,-116 182,-116"/>
<polygon fill="none" stroke="black" points="182,-116 182,-134 293,-134 293,-116 182,-116"/>
<text text-anchor="start" x="185" y="-122.2" font-family="Helvetica,sans-Serif" font-size="11.00">&lt; 1</text>
<polygon fill="#ffffff" stroke="transparent" points="293,-116 293,-134 349,-134 349,-116 293,-116"/>
<polygon fill="none" stroke="black" points="293,-116 293,-134 349,-134 349,-116 293,-116"/>
<text text-anchor="start" x="338" y="-122.2" font-family="Helvetica,sans-Serif" font-size="11.00"> &#160;</text>
<polygon fill="#ffffff" stroke="transparent" points="349,-116 349,-134 418,-134 418,-116 349,-116"/>
<polygon fill="none" stroke="black" points="349,-116 349,-134 418,-134 418,-116 349,-116"/>
<text text-anchor="start" x="395" y="-122.2" font-family="Helvetica,sans-Serif" font-size="11.00">1 &gt;</text>
</a>
</g>
</g>
<!-- syst_enum_items&#45;&gt;syst_enum_functional_types -->
<g id="edge10" class="edge">
<title>syst_enum_items:w&#45;&gt;syst_enum_functional_types:e</title>
<path fill="none" stroke="black" d="M444.36,-144.49C435.82,-143.55 427.29,-143 419,-143"/>
<polygon fill="black" stroke="black" points="450.75,-145.35 458.2,-149.99 454.71,-145.89 458.68,-146.42 458.68,-146.42 458.68,-146.42 454.71,-145.89 459.16,-142.85 450.75,-145.35 450.75,-145.35"/>
<ellipse fill="none" stroke="black" cx="447.58" cy="-144.92" rx="3.2" ry="3.2"/>
</g>
<!-- syst_enums -->
<g id="node9" class="node">
<title>syst_enums</title>
<g id="a_node9"><a xlink:href="../../tables/syst_enums.html" xlink:title="syst_enums" target="_top">
<polygon fill="#ffffff" stroke="transparent" points="8,-143 8,-201 133,-201 133,-143 8,-143"/>
<polygon fill="#f5f5f5" stroke="transparent" points="8.5,-179 8.5,-201 133.5,-201 133.5,-179 8.5,-179"/>
<polygon fill="none" stroke="black" points="8.5,-179 8.5,-201 133.5,-201 133.5,-179 8.5,-179"/>
<text text-anchor="start" x="13.5" y="-188.2" font-family="Helvetica,sans-Serif" font-weight="bold" font-size="11.00">syst_enums</text>
<text text-anchor="start" x="91.5" y="-187.2" font-family="Helvetica,sans-Serif" font-size="11.00">[table]</text>
<polygon fill="none" stroke="black" points="8.5,-161 8.5,-179 133.5,-179 133.5,-161 8.5,-161"/>
<text text-anchor="start" x="11.5" y="-167.2" font-family="Helvetica,sans-Serif" font-size="11.00">...</text>
<polygon fill="#ffffff" stroke="transparent" points="8.5,-143 8.5,-161 57.5,-161 57.5,-143 8.5,-143"/>
<polygon fill="none" stroke="black" points="8.5,-143 8.5,-161 57.5,-161 57.5,-143 8.5,-143"/>
<text text-anchor="start" x="11.5" y="-149.2" font-family="Helvetica,sans-Serif" font-size="11.00"> &#160;</text>
<polygon fill="#ffffff" stroke="transparent" points="57.5,-143 57.5,-161 89.5,-161 89.5,-143 57.5,-143"/>
<polygon fill="none" stroke="black" points="57.5,-143 57.5,-161 89.5,-161 89.5,-143 57.5,-143"/>
<text text-anchor="start" x="78.5" y="-149.2" font-family="Helvetica,sans-Serif" font-size="11.00"> &#160;</text>
<polygon fill="#ffffff" stroke="transparent" points="89.5,-143 89.5,-161 133.5,-161 133.5,-143 89.5,-143"/>
<polygon fill="none" stroke="black" points="89.5,-143 89.5,-161 133.5,-161 133.5,-143 89.5,-143"/>
<text text-anchor="start" x="110.5" y="-149.2" font-family="Helvetica,sans-Serif" font-size="11.00">2 &gt;</text>
</a>
</g>
</g>
<!-- syst_enum_items&#45;&gt;syst_enums -->
<g id="edge9" class="edge">
<title>syst_enum_items:w&#45;&gt;syst_enums:e</title>
<path fill="none" stroke="black" d="M444.36,-182.7C438.15,-183.21 432,-183.65 426,-184 314.19,-190.45 284.38,-202.98 174,-184 155.64,-180.84 153.13,-170 134.5,-170"/>
<polygon fill="black" stroke="black" points="450.91,-182.11 459.2,-184.98 454.89,-181.75 458.88,-181.39 458.88,-181.39 458.88,-181.39 454.89,-181.75 458.56,-177.81 450.91,-182.11 450.91,-182.11"/>
<ellipse fill="none" stroke="black" cx="447.72" cy="-182.4" rx="3.2" ry="3.2"/>
</g>
<!-- syst_owners&#45;&gt;syst_enum_items -->
<g id="edge19" class="edge">
<title>syst_owners:w&#45;&gt;syst_enum_items:e</title>
<path fill="none" stroke="black" d="M722.81,-222.91C695.26,-214.53 664.72,-205.23 637.01,-196.79"/>
<polygon fill="black" stroke="black" points="729.25,-224.87 735.86,-230.65 733.08,-226.04 736.9,-227.2 736.9,-227.2 736.9,-227.2 733.08,-226.04 737.95,-223.76 729.25,-224.87 729.25,-224.87"/>
<ellipse fill="none" stroke="black" cx="726.19" cy="-223.94" rx="3.2" ry="3.2"/>
</g>
<!-- syst_credentials -->
<g id="node6" class="node">
<title>syst_credentials</title>
<g id="a_node6"><a xlink:href="../../tables/syst_credentials.html" xlink:title="syst_credentials" target="_top">
<polygon fill="#ffffff" stroke="transparent" points="1694,-646 1694,-704 1850,-704 1850,-646 1694,-646"/>
<polygon fill="#f5f5f5" stroke="transparent" points="1694,-682 1694,-704 1850,-704 1850,-682 1694,-682"/>
<polygon fill="none" stroke="black" points="1694,-682 1694,-704 1850,-704 1850,-682 1694,-682"/>
<text text-anchor="start" x="1699" y="-691.2" font-family="Helvetica,sans-Serif" font-weight="bold" font-size="11.00">syst_credentials</text>
<text text-anchor="start" x="1808" y="-690.2" font-family="Helvetica,sans-Serif" font-size="11.00">[table]</text>
<polygon fill="none" stroke="black" points="1694,-664 1694,-682 1850,-682 1850,-664 1694,-664"/>
<text text-anchor="start" x="1697" y="-670.2" font-family="Helvetica,sans-Serif" font-size="11.00">...</text>
<polygon fill="#ffffff" stroke="transparent" points="1694,-646 1694,-664 1771,-664 1771,-646 1694,-646"/>
<polygon fill="none" stroke="black" points="1694,-646 1694,-664 1771,-664 1771,-646 1694,-646"/>
<text text-anchor="start" x="1697" y="-652.2" font-family="Helvetica,sans-Serif" font-size="11.00">&lt; 3</text>
<polygon fill="#ffffff" stroke="transparent" points="1771,-646 1771,-664 1810,-664 1810,-646 1771,-646"/>
<polygon fill="none" stroke="black" points="1771,-646 1771,-664 1810,-664 1810,-646 1771,-646"/>
<text text-anchor="start" x="1799" y="-652.2" font-family="Helvetica,sans-Serif" font-size="11.00"> &#160;</text>
<polygon fill="#ffffff" stroke="transparent" points="1810,-646 1810,-664 1850,-664 1850,-646 1810,-646"/>
<polygon fill="none" stroke="black" points="1810,-646 1810,-664 1850,-664 1850,-646 1810,-646"/>
<text text-anchor="start" x="1839" y="-652.2" font-family="Helvetica,sans-Serif" font-size="11.00"> &#160;</text>
</a>
</g>
</g>
<!-- syst_credentials&#45;&gt;syst_access_accounts -->
<g id="edge5" class="edge">
<title>syst_credentials:w&#45;&gt;syst_access_accounts:e</title>
<path fill="none" stroke="black" d="M1671.06,-675C1575.04,-675 1425.85,-675 1296.5,-675"/>
<polygon fill="black" stroke="black" points="1677.71,-675 1685.71,-678.6 1681.71,-675 1685.71,-675 1685.71,-675 1685.71,-675 1681.71,-675 1685.71,-671.4 1677.71,-675 1677.71,-675"/>
<ellipse fill="none" stroke="black" cx="1674.51" cy="-675" rx="3.2" ry="3.2"/>
</g>
<!-- syst_credentials&#45;&gt;syst_enum_items -->
<g id="edge7" class="edge">
<title>syst_credentials:w&#45;&gt;syst_enum_items:e</title>
<path fill="none" stroke="black" d="M1770.68,-627.41C1767.55,-542.96 1749.08,-366.01 1653,-262 1446.88,-38.87 1285.48,-118.71 982,-132 862.32,-137.24 724.56,-150.6 637.17,-159.98"/>
<polygon fill="black" stroke="black" points="1770.87,-633.83 1767.5,-641.93 1770.98,-637.82 1771.1,-641.82 1771.1,-641.82 1771.1,-641.82 1770.98,-637.82 1774.69,-641.72 1770.87,-633.83 1770.87,-633.83"/>
<ellipse fill="none" stroke="black" cx="1770.77" cy="-630.63" rx="3.2" ry="3.2"/>
</g>
<!-- syst_identities -->
<g id="node7" class="node">
<title>syst_identities</title>
<g id="a_node7"><a xlink:href="../../tables/syst_identities.html" xlink:title="syst_identities" target="_top">
<polygon fill="#ffffff" stroke="transparent" points="1423,-699 1423,-757 1568,-757 1568,-699 1423,-699"/>
<polygon fill="#f5f5f5" stroke="transparent" points="1423.5,-735 1423.5,-757 1568.5,-757 1568.5,-735 1423.5,-735"/>
<polygon fill="none" stroke="black" points="1423.5,-735 1423.5,-757 1568.5,-757 1568.5,-735 1423.5,-735"/>
<text text-anchor="start" x="1428.5" y="-744.2" font-family="Helvetica,sans-Serif" font-weight="bold" font-size="11.00">syst_identities</text>
<text text-anchor="start" x="1526.5" y="-743.2" font-family="Helvetica,sans-Serif" font-size="11.00">[table]</text>
<polygon fill="none" stroke="black" points="1423.5,-717 1423.5,-735 1568.5,-735 1568.5,-717 1423.5,-717"/>
<text text-anchor="start" x="1426.5" y="-723.2" font-family="Helvetica,sans-Serif" font-size="11.00">...</text>
<polygon fill="#ffffff" stroke="transparent" points="1423.5,-699 1423.5,-717 1488.5,-717 1488.5,-699 1423.5,-699"/>
<polygon fill="none" stroke="black" points="1423.5,-699 1423.5,-717 1488.5,-717 1488.5,-699 1423.5,-699"/>
<text text-anchor="start" x="1426.5" y="-705.2" font-family="Helvetica,sans-Serif" font-size="11.00">&lt; 3</text>
<polygon fill="#ffffff" stroke="transparent" points="1488.5,-699 1488.5,-717 1522.5,-717 1522.5,-699 1488.5,-699"/>
<polygon fill="none" stroke="black" points="1488.5,-699 1488.5,-717 1522.5,-717 1522.5,-699 1488.5,-699"/>
<text text-anchor="start" x="1511.5" y="-705.2" font-family="Helvetica,sans-Serif" font-size="11.00"> &#160;</text>
<polygon fill="#ffffff" stroke="transparent" points="1522.5,-699 1522.5,-717 1568.5,-717 1568.5,-699 1522.5,-699"/>
<polygon fill="none" stroke="black" points="1522.5,-699 1522.5,-717 1568.5,-717 1568.5,-699 1522.5,-699"/>
<text text-anchor="start" x="1545.5" y="-705.2" font-family="Helvetica,sans-Serif" font-size="11.00">2 &gt;</text>
</a>
</g>
</g>
<!-- syst_credentials&#45;&gt;syst_identities -->
<g id="edge6" class="edge">
<title>syst_credentials:w&#45;&gt;syst_identities:e</title>
<path fill="none" stroke="black" d="M1671.48,-694.22C1640.14,-700.27 1605.95,-706.87 1576.18,-712.62"/>
<polygon fill="black" stroke="black" points="1677.8,-693 1686.33,-695.01 1681.72,-692.24 1685.65,-691.48 1685.65,-691.48 1685.65,-691.48 1681.72,-692.24 1684.97,-687.94 1677.8,-693 1677.8,-693"/>
<ellipse fill="none" stroke="black" cx="1674.65" cy="-693.6" rx="3.2" ry="3.2"/>
</g>
<!-- syst_identities&#45;&gt;syst_access_accounts -->
<g id="edge11" class="edge">
<title>syst_identities:w&#45;&gt;syst_access_accounts:e</title>
<path fill="none" stroke="black" d="M1400.99,-702.41C1351.14,-688.87 1299.41,-675 1296.5,-675"/>
<polygon fill="black" stroke="black" points="1407.24,-704.11 1414.02,-709.69 1411.1,-705.16 1414.96,-706.21 1414.96,-706.21 1414.96,-706.21 1411.1,-705.16 1415.91,-702.74 1407.24,-704.11 1407.24,-704.11"/>
<ellipse fill="none" stroke="black" cx="1404.16" cy="-703.27" rx="3.2" ry="3.2"/>
</g>
<!-- syst_identities&#45;&gt;syst_enum_items -->
<g id="edge12" class="edge">
<title>syst_identities:w&#45;&gt;syst_enum_items:e</title>
<path fill="none" stroke="black" d="M1400.51,-744.38C1295.23,-758.75 1121.13,-770.47 982,-721 815.36,-661.74 775.62,-615.86 670,-474 605.72,-387.66 570.3,-262.57 556.24,-203.4"/>
<polygon fill="black" stroke="black" points="1406.98,-743.46 1415.4,-745.9 1410.94,-742.9 1414.9,-742.34 1414.9,-742.34 1414.9,-742.34 1410.94,-742.9 1414.39,-738.77 1406.98,-743.46 1406.98,-743.46"/>
<ellipse fill="none" stroke="black" cx="1403.81" cy="-743.91" rx="3.2" ry="3.2"/>
</g>
<!-- syst_enum_functional_types&#45;&gt;syst_enums -->
<g id="edge8" class="edge">
<title>syst_enum_functional_types:w&#45;&gt;syst_enums:e</title>
<path fill="none" stroke="black" d="M167.01,-147.22C156.18,-154.81 152.42,-170 134.5,-170"/>
<polygon fill="black" stroke="black" points="173.34,-145.31 182.04,-146.45 177.17,-144.16 181,-143 181,-143 181,-143 177.17,-144.16 179.96,-139.55 173.34,-145.31 173.34,-145.31"/>
<ellipse fill="none" stroke="black" cx="170.28" cy="-146.23" rx="3.2" ry="3.2"/>
</g>
<!-- syst_instance_type_applications -->
<g id="node10" class="node">
<title>syst_instance_type_applications</title>
<g id="a_node10"><a xlink:href="../../tables/syst_instance_type_applications.html" xlink:title="syst_instance_type_applications" target="_top">
<polygon fill="#ffffff" stroke="transparent" points="678,-37 678,-95 941,-95 941,-37 678,-37"/>
<polygon fill="#f5f5f5" stroke="transparent" points="678.5,-73 678.5,-95 941.5,-95 941.5,-73 678.5,-73"/>
<polygon fill="none" stroke="black" points="678.5,-73 678.5,-95 941.5,-95 941.5,-73 678.5,-73"/>
<text text-anchor="start" x="683.5" y="-82.2" font-family="Helvetica,sans-Serif" font-weight="bold" font-size="11.00">syst_instance_type_applications</text>
<text text-anchor="start" x="899.5" y="-81.2" font-family="Helvetica,sans-Serif" font-size="11.00">[table]</text>
<polygon fill="none" stroke="black" points="678.5,-55 678.5,-73 941.5,-73 941.5,-55 678.5,-55"/>
<text text-anchor="start" x="681.5" y="-61.2" font-family="Helvetica,sans-Serif" font-size="11.00">...</text>
<polygon fill="#ffffff" stroke="transparent" points="678.5,-37 678.5,-55 802.5,-55 802.5,-37 678.5,-37"/>
<polygon fill="none" stroke="black" points="678.5,-37 678.5,-55 802.5,-55 802.5,-37 678.5,-37"/>
<text text-anchor="start" x="681.5" y="-43.2" font-family="Helvetica,sans-Serif" font-size="11.00">&lt; 2</text>
<polygon fill="#ffffff" stroke="transparent" points="802.5,-37 802.5,-55 865.5,-55 865.5,-37 802.5,-37"/>
<polygon fill="none" stroke="black" points="802.5,-37 802.5,-55 865.5,-55 865.5,-37 802.5,-37"/>
<text text-anchor="start" x="854.5" y="-43.2" font-family="Helvetica,sans-Serif" font-size="11.00"> &#160;</text>
<polygon fill="#ffffff" stroke="transparent" points="865.5,-37 865.5,-55 941.5,-55 941.5,-37 865.5,-37"/>
<polygon fill="none" stroke="black" points="865.5,-37 865.5,-55 941.5,-55 941.5,-37 865.5,-37"/>
<text text-anchor="start" x="918.5" y="-43.2" font-family="Helvetica,sans-Serif" font-size="11.00">1 &gt;</text>
</a>
</g>
</g>
<!-- syst_instance_type_applications&#45;&gt;syst_enum_items -->
<g id="edge13" class="edge">
<title>syst_instance_type_applications:w&#45;&gt;syst_enum_items:e</title>
<path fill="none" stroke="black" d="M663.08,-65.33C623.1,-72.67 589.99,-108.94 569.93,-136.75"/>
<polygon fill="black" stroke="black" points="669.53,-64.73 677.83,-67.58 673.52,-64.37 677.5,-64 677.5,-64 677.5,-64 673.52,-64.37 677.17,-60.42 669.53,-64.73 669.53,-64.73"/>
<ellipse fill="none" stroke="black" cx="666.35" cy="-65.03" rx="3.2" ry="3.2"/>
</g>
<!-- syst_owner_network_rules -->
<g id="node11" class="node">
<title>syst_owner_network_rules</title>
<g id="a_node11"><a xlink:href="../../tables/syst_owner_network_rules.html" xlink:title="syst_owner_network_rules" target="_top">
<polygon fill="#ffffff" stroke="transparent" points="1031.5,-301 1031.5,-359 1255.5,-359 1255.5,-301 1031.5,-301"/>
<polygon fill="#f5f5f5" stroke="transparent" points="1031.5,-337 1031.5,-359 1255.5,-359 1255.5,-337 1031.5,-337"/>
<polygon fill="none" stroke="black" points="1031.5,-337 1031.5,-359 1255.5,-359 1255.5,-337 1031.5,-337"/>
<text text-anchor="start" x="1036.5" y="-346.2" font-family="Helvetica,sans-Serif" font-weight="bold" font-size="11.00">syst_owner_network_rules</text>
<text text-anchor="start" x="1213.5" y="-345.2" font-family="Helvetica,sans-Serif" font-size="11.00">[table]</text>
<polygon fill="none" stroke="black" points="1031.5,-319 1031.5,-337 1255.5,-337 1255.5,-319 1031.5,-319"/>
<text text-anchor="start" x="1034.5" y="-325.2" font-family="Helvetica,sans-Serif" font-size="11.00">...</text>
<polygon fill="#ffffff" stroke="transparent" points="1031.5,-301 1031.5,-319 1142.5,-319 1142.5,-301 1031.5,-301"/>
<polygon fill="none" stroke="black" points="1031.5,-301 1031.5,-319 1142.5,-319 1142.5,-301 1031.5,-301"/>
<text text-anchor="start" x="1034.5" y="-307.2" font-family="Helvetica,sans-Serif" font-size="11.00">&lt; 1</text>
<polygon fill="#ffffff" stroke="transparent" points="1142.5,-301 1142.5,-319 1198.5,-319 1198.5,-301 1142.5,-301"/>
<polygon fill="none" stroke="black" points="1142.5,-301 1142.5,-319 1198.5,-319 1198.5,-301 1142.5,-301"/>
<text text-anchor="start" x="1187.5" y="-307.2" font-family="Helvetica,sans-Serif" font-size="11.00"> &#160;</text>
<polygon fill="#ffffff" stroke="transparent" points="1198.5,-301 1198.5,-319 1255.5,-319 1255.5,-301 1198.5,-301"/>
<polygon fill="none" stroke="black" points="1198.5,-301 1198.5,-319 1255.5,-319 1255.5,-301 1198.5,-301"/>
<text text-anchor="start" x="1244.5" y="-307.2" font-family="Helvetica,sans-Serif" font-size="11.00"> &#160;</text>
</a>
</g>
</g>
<!-- syst_owner_network_rules&#45;&gt;syst_owners -->
<g id="edge17" class="edge">
<title>syst_owner_network_rules:w&#45;&gt;syst_owners:e</title>
<path fill="none" stroke="black" d="M1015.91,-327.5C962.69,-323.94 907.85,-301.88 868.24,-282.05"/>
<polygon fill="black" stroke="black" points="1022.5,-327.73 1030.38,-331.6 1026.5,-327.86 1030.5,-328 1030.5,-328 1030.5,-328 1026.5,-327.86 1030.62,-324.4 1022.5,-327.73 1022.5,-327.73"/>
<ellipse fill="none" stroke="black" cx="1019.31" cy="-327.62" rx="3.2" ry="3.2"/>
</g>
<!-- syst_owner_password_rules -->
<g id="node12" class="node">
<title>syst_owner_password_rules</title>
<g id="a_node12"><a xlink:href="../../tables/syst_owner_password_rules.html" xlink:title="syst_owner_password_rules" target="_top">
<polygon fill="#ffffff" stroke="transparent" points="1027,-222 1027,-280 1260,-280 1260,-222 1027,-222"/>
<polygon fill="#f5f5f5" stroke="transparent" points="1027.5,-258 1027.5,-280 1260.5,-280 1260.5,-258 1027.5,-258"/>
<polygon fill="none" stroke="black" points="1027.5,-258 1027.5,-280 1260.5,-280 1260.5,-258 1027.5,-258"/>
<text text-anchor="start" x="1032.5" y="-267.2" font-family="Helvetica,sans-Serif" font-weight="bold" font-size="11.00">syst_owner_password_rules</text>
<text text-anchor="start" x="1218.5" y="-266.2" font-family="Helvetica,sans-Serif" font-size="11.00">[table]</text>
<polygon fill="none" stroke="black" points="1027.5,-240 1027.5,-258 1260.5,-258 1260.5,-240 1027.5,-240"/>
<text text-anchor="start" x="1030.5" y="-246.2" font-family="Helvetica,sans-Serif" font-size="11.00">...</text>
<polygon fill="#ffffff" stroke="transparent" points="1027.5,-222 1027.5,-240 1142.5,-240 1142.5,-222 1027.5,-222"/>
<polygon fill="none" stroke="black" points="1027.5,-222 1027.5,-240 1142.5,-240 1142.5,-222 1027.5,-222"/>
<text text-anchor="start" x="1030.5" y="-228.2" font-family="Helvetica,sans-Serif" font-size="11.00">&lt; 1</text>
<polygon fill="#ffffff" stroke="transparent" points="1142.5,-222 1142.5,-240 1201.5,-240 1201.5,-222 1142.5,-222"/>
<polygon fill="none" stroke="black" points="1142.5,-222 1142.5,-240 1201.5,-240 1201.5,-222 1142.5,-222"/>
<text text-anchor="start" x="1190.5" y="-228.2" font-family="Helvetica,sans-Serif" font-size="11.00"> &#160;</text>
<polygon fill="#ffffff" stroke="transparent" points="1201.5,-222 1201.5,-240 1260.5,-240 1260.5,-222 1201.5,-222"/>
<polygon fill="none" stroke="black" points="1201.5,-222 1201.5,-240 1260.5,-240 1260.5,-222 1201.5,-222"/>
<text text-anchor="start" x="1249.5" y="-228.2" font-family="Helvetica,sans-Serif" font-size="11.00"> &#160;</text>
</a>
</g>
</g>
<!-- syst_owner_password_rules&#45;&gt;syst_owners -->
<g id="edge18" class="edge">
<title>syst_owner_password_rules:w&#45;&gt;syst_owners:e</title>
<path fill="none" stroke="black" d="M1015.97,-249C970.54,-249 921.04,-249 882.01,-249"/>
<polygon fill="black" stroke="black" points="1025.7,-245 1025.7,-253 1024.1,-253 1024.1,-245 1025.7,-245"/>
<polyline fill="none" stroke="black" points="1026.5,-249 1022.5,-249 "/>
<ellipse fill="none" stroke="black" cx="1019.3" cy="-249" rx="3.2" ry="3.2"/>
</g>
<!-- syst_password_history -->
<g id="node13" class="node">
<title>syst_password_history</title>
<g id="a_node13"><a xlink:href="../../tables/syst_password_history.html" xlink:title="syst_password_history" target="_top">
<polygon fill="#ffffff" stroke="transparent" points="1396,-549 1396,-651 1595,-651 1595,-549 1396,-549"/>
<polygon fill="#f5f5f5" stroke="transparent" points="1396.5,-629 1396.5,-651 1595.5,-651 1595.5,-629 1396.5,-629"/>
<polygon fill="none" stroke="black" points="1396.5,-629 1396.5,-651 1595.5,-651 1595.5,-629 1396.5,-629"/>
<text text-anchor="start" x="1401.5" y="-638.2" font-family="Helvetica,sans-Serif" font-weight="bold" font-size="11.00">syst_password_history</text>
<text text-anchor="start" x="1553.5" y="-637.2" font-family="Helvetica,sans-Serif" font-size="11.00">[table]</text>
<polygon fill="none" stroke="black" points="1396.5,-607 1396.5,-629 1595.5,-629 1595.5,-607 1396.5,-607"/>
<image xlink:href="../../images/primaryKeys.png" width="11px" height="12px" preserveAspectRatio="xMinYMin meet" x="1401.5" y="-624"/>
<text text-anchor="start" x="1419.5" y="-615.2" font-family="Helvetica,sans-Serif" font-size="11.00">id</text>
<polygon fill="#ffffff" stroke="transparent" points="1396.5,-585 1396.5,-607 1595.5,-607 1595.5,-585 1396.5,-585"/>
<polygon fill="none" stroke="black" points="1396.5,-585 1396.5,-607 1595.5,-607 1595.5,-585 1396.5,-585"/>
<image xlink:href="../../images/foreignKeys.png" width="11px" height="12px" preserveAspectRatio="xMinYMin meet" x="1401.5" y="-602"/>
<text text-anchor="start" x="1419.5" y="-593.2" font-family="Helvetica,sans-Serif" font-size="11.00">access_account_id</text>
<polygon fill="none" stroke="black" points="1396.5,-567 1396.5,-585 1595.5,-585 1595.5,-567 1396.5,-567"/>
<text text-anchor="start" x="1399.5" y="-573.2" font-family="Helvetica,sans-Serif" font-size="11.00">...</text>
<polygon fill="#ffffff" stroke="transparent" points="1396.5,-549 1396.5,-567 1494.5,-567 1494.5,-549 1396.5,-549"/>
<polygon fill="none" stroke="black" points="1396.5,-549 1396.5,-567 1494.5,-567 1494.5,-549 1396.5,-549"/>
<text text-anchor="start" x="1399.5" y="-555.2" font-family="Helvetica,sans-Serif" font-size="11.00">&lt; 1</text>
<polygon fill="#ffffff" stroke="transparent" points="1494.5,-549 1494.5,-567 1544.5,-567 1544.5,-549 1494.5,-549"/>
<polygon fill="none" stroke="black" points="1494.5,-549 1494.5,-567 1544.5,-567 1544.5,-549 1494.5,-549"/>
<text text-anchor="start" x="1533.5" y="-555.2" font-family="Helvetica,sans-Serif" font-size="11.00"> &#160;</text>
<polygon fill="#ffffff" stroke="transparent" points="1544.5,-549 1544.5,-567 1595.5,-567 1595.5,-549 1544.5,-549"/>
<polygon fill="none" stroke="black" points="1544.5,-549 1544.5,-567 1595.5,-567 1595.5,-549 1544.5,-549"/>
<text text-anchor="start" x="1584.5" y="-555.2" font-family="Helvetica,sans-Serif" font-size="11.00"> &#160;</text>
</a>
</g>
</g>
<!-- syst_password_history&#45;&gt;syst_access_accounts -->
<g id="edge20" class="edge">
<title>syst_password_history:w&#45;&gt;syst_access_accounts:e</title>
<path fill="none" stroke="black" d="M1381.14,-598.03C1341.17,-610.4 1347.4,-675 1296.5,-675"/>
<polygon fill="black" stroke="black" points="1387.58,-597.12 1396,-599.56 1391.54,-596.56 1395.5,-596 1395.5,-596 1395.5,-596 1391.54,-596.56 1395,-592.44 1387.58,-597.12 1387.58,-597.12"/>
<ellipse fill="none" stroke="black" cx="1384.41" cy="-597.57" rx="3.2" ry="3.2"/>
</g>
</g>
</svg>
