<?xml version="1.0" encoding="UTF-8" standalone="no"?>
<!DOCTYPE svg PUBLIC "-//W3C//DTD SVG 1.1//EN"
 "http://www.w3.org/Graphics/SVG/1.1/DTD/svg11.dtd">
<!-- Generated by graphviz version 2.43.0 (0)
 -->
<!-- Title: oneDegreeRelationshipsDiagram Pages: 1 -->
<svg width="353pt" height="489pt"
 viewBox="0.00 0.00 353.00 489.00" xmlns="http://www.w3.org/2000/svg" xmlns:xlink="http://www.w3.org/1999/xlink">
<g id="graph0" class="graph" transform="scale(1 1) rotate(0) translate(4 485)">
<title>oneDegreeRelationshipsDiagram</title>
<polygon fill="#ffffff" stroke="transparent" points="-4,4 -4,-485 349,-485 349,4 -4,4"/>
<text text-anchor="middle" x="71.5" y="-7.2" font-family="Helvetica,sans-Serif" font-size="11.00">Generated by SchemaSpy</text>
<!-- syst_global_password_rules -->
<g id="node1" class="node">
<title>syst_global_password_rules</title>
<g id="a_node1"><a xlink:href="../../tables/syst_global_password_rules.html" xlink:title="syst_global_password_rules" target="_top">
<polygon fill="#ffffff" stroke="transparent" points="8,-37 8,-477 337,-477 337,-37 8,-37"/>
<polygon fill="#f5f5f5" stroke="transparent" points="10.5,-453 10.5,-475 335.5,-475 335.5,-453 10.5,-453"/>
<polygon fill="none" stroke="black" points="10.5,-453 10.5,-475 335.5,-475 335.5,-453 10.5,-453"/>
<text text-anchor="start" x="15.5" y="-462.2" font-family="Helvetica,sans-Serif" font-weight="bold" font-size="11.00">syst_global_password_rules</text>
<text text-anchor="start" x="300.5" y="-461.2" font-family="Helvetica,sans-Serif" font-size="11.00">[table]</text>
<polygon fill="none" stroke="black" points="10.5,-431 10.5,-453 217.5,-453 217.5,-431 10.5,-431"/>
<image xlink:href="../../images/primaryKeys.png" width="11px" height="12px" preserveAspectRatio="xMinYMin meet" x="15.5" y="-448"/>
<text text-anchor="start" x="30.5" y="-439.2" font-family="Helvetica,sans-Serif" font-size="11.00">id</text>
<polygon fill="none" stroke="black" points="217.5,-431 217.5,-453 335.5,-453 335.5,-431 217.5,-431"/>
<text text-anchor="start" x="220.5" y="-439.2" font-family="Helvetica,sans-Serif" font-size="11.00">uuid[2147483647]</text>
<polygon fill="none" stroke="black" points="10.5,-409 10.5,-431 217.5,-431 217.5,-409 10.5,-409"/>
<text text-anchor="start" x="30.5" y="-417.2" font-family="Helvetica,sans-Serif" font-size="11.00">password_length</text>
<polygon fill="none" stroke="black" points="217.5,-409 217.5,-431 335.5,-431 335.5,-409 217.5,-409"/>
<text text-anchor="start" x="220.5" y="-417.2" font-family="Helvetica,sans-Serif" font-size="11.00">int4range[2147483647]</text>
<polygon fill="none" stroke="black" points="10.5,-387 10.5,-409 217.5,-409 217.5,-387 10.5,-387"/>
<text text-anchor="start" x="30.5" y="-395.2" font-family="Helvetica,sans-Serif" font-size="11.00">max_age</text>
<polygon fill="none" stroke="black" points="217.5,-387 217.5,-409 335.5,-409 335.5,-387 217.5,-387"/>
<text text-anchor="start" x="220.5" y="-395.2" font-family="Helvetica,sans-Serif" font-size="11.00">interval[49,6]</text>
<polygon fill="none" stroke="black" points="10.5,-365 10.5,-387 217.5,-387 217.5,-365 10.5,-365"/>
<text text-anchor="start" x="30.5" y="-373.2" font-family="Helvetica,sans-Serif" font-size="11.00">require_upper_case</text>
<polygon fill="none" stroke="black" points="217.5,-365 217.5,-387 335.5,-387 335.5,-365 217.5,-365"/>
<text text-anchor="start" x="220.5" y="-373.2" font-family="Helvetica,sans-Serif" font-size="11.00">int4[10]</text>
<polygon fill="none" stroke="black" points="10.5,-343 10.5,-365 217.5,-365 217.5,-343 10.5,-343"/>
<text text-anchor="start" x="30.5" y="-351.2" font-family="Helvetica,sans-Serif" font-size="11.00">require_lower_case</text>
<polygon fill="none" stroke="black" points="217.5,-343 217.5,-365 335.5,-365 335.5,-343 217.5,-343"/>
<text text-anchor="start" x="220.5" y="-351.2" font-family="Helvetica,sans-Serif" font-size="11.00">int4[10]</text>
<polygon fill="none" stroke="black" points="10.5,-321 10.5,-343 217.5,-343 217.5,-321 10.5,-321"/>
<text text-anchor="start" x="30.5" y="-329.2" font-family="Helvetica,sans-Serif" font-size="11.00">require_numbers</text>
<polygon fill="none" stroke="black" points="217.5,-321 217.5,-343 335.5,-343 335.5,-321 217.5,-321"/>
<text text-anchor="start" x="220.5" y="-329.2" font-family="Helvetica,sans-Serif" font-size="11.00">int4[10]</text>
<polygon fill="none" stroke="black" points="10.5,-299 10.5,-321 217.5,-321 217.5,-299 10.5,-299"/>
<text text-anchor="start" x="30.5" y="-307.2" font-family="Helvetica,sans-Serif" font-size="11.00">require_symbols</text>
<polygon fill="none" stroke="black" points="217.5,-299 217.5,-321 335.5,-321 335.5,-299 217.5,-299"/>
<text text-anchor="start" x="220.5" y="-307.2" font-family="Helvetica,sans-Serif" font-size="11.00">int4[10]</text>
<polygon fill="none" stroke="black" points="10.5,-277 10.5,-299 217.5,-299 217.5,-277 10.5,-277"/>
<text text-anchor="start" x="30.5" y="-285.2" font-family="Helvetica,sans-Serif" font-size="11.00">disallow_recently_used</text>
<polygon fill="none" stroke="black" points="217.5,-277 217.5,-299 335.5,-299 335.5,-277 217.5,-277"/>
<text text-anchor="start" x="220.5" y="-285.2" font-family="Helvetica,sans-Serif" font-size="11.00">int4[10]</text>
<polygon fill="none" stroke="black" points="10.5,-255 10.5,-277 217.5,-277 217.5,-255 10.5,-255"/>
<text text-anchor="start" x="30.5" y="-263.2" font-family="Helvetica,sans-Serif" font-size="11.00">disallow_compromised</text>
<polygon fill="none" stroke="black" points="217.5,-255 217.5,-277 335.5,-277 335.5,-255 217.5,-255"/>
<text text-anchor="start" x="220.5" y="-263.2" font-family="Helvetica,sans-Serif" font-size="11.00">bool[1]</text>
<polygon fill="none" stroke="black" points="10.5,-233 10.5,-255 217.5,-255 217.5,-233 10.5,-233"/>
<text text-anchor="start" x="30.5" y="-241.2" font-family="Helvetica,sans-Serif" font-size="11.00">require_mfa</text>
<polygon fill="none" stroke="black" points="217.5,-233 217.5,-255 335.5,-255 335.5,-233 217.5,-233"/>
<text text-anchor="start" x="220.5" y="-241.2" font-family="Helvetica,sans-Serif" font-size="11.00">bool[1]</text>
<polygon fill="none" stroke="black" points="10.5,-211 10.5,-233 217.5,-233 217.5,-211 10.5,-211"/>
<text text-anchor="start" x="30.5" y="-219.2" font-family="Helvetica,sans-Serif" font-size="11.00">allowed_mfa_types</text>
<polygon fill="none" stroke="black" points="217.5,-211 217.5,-233 335.5,-233 335.5,-211 217.5,-211"/>
<text text-anchor="start" x="220.5" y="-219.2" font-family="Helvetica,sans-Serif" font-size="11.00">_text[2147483647]</text>
<polygon fill="none" stroke="black" points="10.5,-189 10.5,-211 217.5,-211 217.5,-189 10.5,-189"/>
<text text-anchor="start" x="30.5" y="-197.2" font-family="Helvetica,sans-Serif" font-size="11.00">diag_timestamp_created</text>
<polygon fill="none" stroke="black" points="217.5,-189 217.5,-211 335.5,-211 335.5,-189 217.5,-189"/>
<text text-anchor="start" x="220.5" y="-197.2" font-family="Helvetica,sans-Serif" font-size="11.00">timestamptz[35,6]</text>
<polygon fill="none" stroke="black" points="10.5,-167 10.5,-189 217.5,-189 217.5,-167 10.5,-167"/>
<text text-anchor="start" x="30.5" y="-175.2" font-family="Helvetica,sans-Serif" font-size="11.00">diag_role_created</text>
<polygon fill="none" stroke="black" points="217.5,-167 217.5,-189 335.5,-189 335.5,-167 217.5,-167"/>
<text text-anchor="start" x="220.5" y="-175.2" font-family="Helvetica,sans-Serif" font-size="11.00">text[2147483647]</text>
<polygon fill="none" stroke="black" points="10.5,-145 10.5,-167 217.5,-167 217.5,-145 10.5,-145"/>
<text text-anchor="start" x="30.5" y="-153.2" font-family="Helvetica,sans-Serif" font-size="11.00">diag_timestamp_modified</text>
<polygon fill="none" stroke="black" points="217.5,-145 217.5,-167 335.5,-167 335.5,-145 217.5,-145"/>
<text text-anchor="start" x="220.5" y="-153.2" font-family="Helvetica,sans-Serif" font-size="11.00">timestamptz[35,6]</text>
<polygon fill="none" stroke="black" points="10.5,-123 10.5,-145 217.5,-145 217.5,-123 10.5,-123"/>
<text text-anchor="start" x="30.5" y="-131.2" font-family="Helvetica,sans-Serif" font-size="11.00">diag_wallclock_modified</text>
<polygon fill="none" stroke="black" points="217.5,-123 217.5,-145 335.5,-145 335.5,-123 217.5,-123"/>
<text text-anchor="start" x="220.5" y="-131.2" font-family="Helvetica,sans-Serif" font-size="11.00">timestamptz[35,6]</text>
<polygon fill="none" stroke="black" points="10.5,-101 10.5,-123 217.5,-123 217.5,-101 10.5,-101"/>
<text text-anchor="start" x="30.5" y="-109.2" font-family="Helvetica,sans-Serif" font-size="11.00">diag_role_modified</text>
<polygon fill="none" stroke="black" points="217.5,-101 217.5,-123 335.5,-123 335.5,-101 217.5,-101"/>
<text text-anchor="start" x="220.5" y="-109.2" font-family="Helvetica,sans-Serif" font-size="11.00">text[2147483647]</text>
<polygon fill="none" stroke="black" points="10.5,-79 10.5,-101 217.5,-101 217.5,-79 10.5,-79"/>
<text text-anchor="start" x="30.5" y="-87.2" font-family="Helvetica,sans-Serif" font-size="11.00">diag_row_version</text>
<polygon fill="none" stroke="black" points="217.5,-79 217.5,-101 335.5,-101 335.5,-79 217.5,-79"/>
<text text-anchor="start" x="220.5" y="-87.2" font-family="Helvetica,sans-Serif" font-size="11.00">int8[19]</text>
<polygon fill="none" stroke="black" points="10.5,-57 10.5,-79 217.5,-79 217.5,-57 10.5,-57"/>
<text text-anchor="start" x="30.5" y="-65.2" font-family="Helvetica,sans-Serif" font-size="11.00">diag_update_count</text>
<polygon fill="none" stroke="black" points="217.5,-57 217.5,-79 335.5,-79 335.5,-57 217.5,-57"/>
<text text-anchor="start" x="220.5" y="-65.2" font-family="Helvetica,sans-Serif" font-size="11.00">int8[19]</text>
<polygon fill="#ffffff" stroke="transparent" points="10.5,-39 10.5,-57 118.5,-57 118.5,-39 10.5,-39"/>
<polygon fill="none" stroke="black" points="10.5,-39 10.5,-57 118.5,-57 118.5,-39 10.5,-39"/>
<text text-anchor="start" x="13.5" y="-45.2" font-family="Helvetica,sans-Serif" font-size="11.00">&lt; 0</text>
<polygon fill="#ffffff" stroke="transparent" points="118.5,-39 118.5,-57 217.5,-57 217.5,-39 118.5,-39"/>
<polygon fill="none" stroke="black" points="118.5,-39 118.5,-57 217.5,-57 217.5,-39 118.5,-39"/>
<text text-anchor="start" x="207.5" y="-45.2" font-family="Helvetica,sans-Serif" font-size="11.00"> &#160;</text>
<polygon fill="#ffffff" stroke="transparent" points="217.5,-39 217.5,-57 335.5,-57 335.5,-39 217.5,-39"/>
<polygon fill="none" stroke="black" points="217.5,-39 217.5,-57 335.5,-57 335.5,-39 217.5,-39"/>
<text text-anchor="start" x="316.5" y="-45.2" font-family="Helvetica,sans-Serif" font-size="11.00">0 &gt;</text>
<polygon fill="none" stroke="black" stroke-width="2" points="9,-38 9,-476 336,-476 336,-38 9,-38"/>
</a>
</g>
</g>
</g>
</svg>
