<svg xmlns="http://www.w3.org/2000/svg" viewBox="0 0 135.89 16.933">
  <g fill="none">
    <rect width="16.404" height="16.404" x=".265" y=".265" stroke="#000" stroke-width=".529" ry="0"/>
    <circle cx="8.467" cy="8.467" r="7.669" stroke="gray" stroke-width=".529"/>
    <path stroke="red" stroke-width=".53" d="m2.478 11.935 5.97-10.35 5.979 10.346z"/>
  </g>
  <g stroke-width=".265">
    <path fill="red" stroke="red" d="M28.541 4.974q.57-1.025 1.364-1.513.794-.488 1.869-.488 1.447 0 2.232 1.017.786 1.009.786 2.878v5.589h-1.53v-5.54q0-1.331-.471-1.976t-1.439-.645q-1.182 0-1.868.786-.687.785-.687 2.141v5.234h-1.53v-5.54q0-1.34-.47-1.976-.472-.645-1.456-.645-1.166 0-1.852.794-.686.785-.686 2.133v5.234h-1.53v-9.26h1.53v1.438q.52-.851 1.248-1.257.728-.405 1.728-.405 1.01 0 1.712.513.711.513 1.05 1.488zm9.128 3.828V3.197h1.521v5.548q0 1.314.513 1.976.513.653 1.538.653 1.232 0 1.943-.786.72-.785.72-2.141v-5.25h1.52v9.26h-1.52v-1.422q-.555.843-1.29 1.257-.728.405-1.696.405-1.595 0-2.422-.992-.827-.993-.827-2.903zM54.461 3.47v1.438q-.645-.33-1.34-.496t-1.438-.165q-1.133 0-1.703.347-.563.347-.563 1.042 0 .529.405.835.406.297 1.63.57l.52.116q1.62.347 2.299.984.686.628.686 1.761 0 1.29-1.025 2.042-1.017.753-2.803.753-.744 0-1.555-.15-.802-.14-1.695-.43v-1.57q.844.438 1.662.661.819.215 1.62.215 1.076 0 1.654-.364.58-.372.58-1.041 0-.62-.422-.951-.414-.33-1.828-.637l-.529-.124q-1.414-.298-2.042-.91-.628-.62-.628-1.694 0-1.307.926-2.018.926-.71 2.629-.71.843 0 1.587.123t1.373.372zm10.84 3.976v.745h-6.995q.1 1.57.943 2.397.851.819 2.364.819.877 0 1.695-.215.827-.215 1.637-.645v1.439q-.818.347-1.678.529-.86.182-1.745.182-2.215 0-3.514-1.29-1.29-1.29-1.29-3.49 0-2.273 1.224-3.604 1.232-1.34 3.316-1.34 1.869 0 2.952 1.208 1.09 1.198 1.09 3.265zM63.78 7q-.017-1.249-.703-1.993-.678-.744-1.803-.744-1.273 0-2.042.72-.76.719-.876 2.025z" aria-label="muse"/>
    <path stroke="#000" d="M74.042 3.47v1.438q-.645-.33-1.34-.496t-1.438-.165q-1.133 0-1.703.347-.563.347-.563 1.042 0 .529.406.835.405.297 1.628.57l.521.116q1.62.347 2.299.984.686.628.686 1.761 0 1.29-1.025 2.042-1.017.753-2.803.753-.744 0-1.555-.15-.802-.14-1.695-.43v-1.57q.844.438 1.662.661.819.215 1.621.215 1.075 0 1.654-.364.578-.372.578-1.041 0-.62-.421-.951-.414-.33-1.828-.637l-.529-.124q-1.414-.298-2.042-.91-.628-.62-.628-1.694 0-1.307.926-2.018.926-.71 2.629-.71.843 0 1.587.123t1.373.372zm6.771 9.847q-.645 1.654-1.257 2.158t-1.637.504h-1.215v-1.273h.893q.628 0 .975-.298.348-.297.77-1.405l.272-.695-3.745-9.111h1.612l2.894 7.243 2.894-7.243h1.612zM92.885 3.47v1.438q-.645-.33-1.34-.496t-1.438-.165q-1.133 0-1.703.347-.563.347-.563 1.042 0 .529.406.835.405.297 1.628.57l.521.116q1.62.347 2.299.984.686.628.686 1.761 0 1.29-1.025 2.042-1.017.753-2.803.753-.744 0-1.555-.15-.802-.14-1.695-.43v-1.57q.844.438 1.662.661.819.215 1.621.215 1.075 0 1.654-.364.578-.372.578-1.041 0-.62-.421-.951-.414-.33-1.828-.637l-.529-.124q-1.414-.298-2.042-.91-.628-.62-.628-1.694 0-1.307.926-2.018.926-.71 2.629-.71.843 0 1.587.123t1.373.372zM97.308.567v2.63h3.134v1.182h-3.134v5.027q0 1.133.306 1.455.314.323 1.265.323h1.563v1.273h-1.563q-1.761 0-2.431-.653-.67-.662-.67-2.398V4.379h-1.116V3.196h1.116V.567zm13.052 6.879v.745h-6.995q.1 1.57.943 2.397.851.819 2.364.819.877 0 1.695-.215.827-.215 1.637-.645v1.439q-.818.347-1.678.529-.86.182-1.745.182-2.215 0-3.514-1.29-1.29-1.29-1.29-3.49 0-2.273 1.224-3.604 1.232-1.34 3.316-1.34 1.869 0 2.952 1.208 1.091 1.198 1.091 3.265zM108.839 7q-.017-1.249-.703-1.993-.678-.744-1.803-.744-1.273 0-2.042.72-.76.719-.876 2.025zm11.231-2.026q.57-1.025 1.364-1.513t1.869-.488q1.447 0 2.232 1.017.786 1.009.786 2.878v5.589h-1.53v-5.54q0-1.331-.471-1.976t-1.439-.645q-1.182 0-1.869.786-.686.785-.686 2.141v5.234h-1.53v-5.54q0-1.34-.47-1.976-.472-.645-1.456-.645-1.166 0-1.852.794-.686.785-.686 2.133v5.234h-1.53v-9.26h1.53v1.438q.52-.851 1.248-1.257.728-.405 1.728-.405 1.01 0 1.712.513.71.513 1.05 1.488zm15.19-1.504v1.438q-.645-.33-1.34-.496t-1.438-.165q-1.133 0-1.703.347-.563.347-.563 1.042 0 .529.406.835.405.297 1.628.57l.521.116q1.62.347 2.299.984.686.628.686 1.761 0 1.29-1.025 2.042-1.017.753-2.803.753-.744 0-1.554-.15-.802-.14-1.695-.43v-1.57q.843.438 1.661.661.819.215 1.621.215 1.075 0 1.654-.364.578-.372.578-1.041 0-.62-.421-.951-.414-.33-1.828-.637l-.529-.124q-1.414-.298-2.042-.91-.628-.62-.628-1.694 0-1.307.926-2.018.926-.71 2.63-.71.842 0 1.587.123t1.372.372z" aria-label="systems"/>
  </g>
</svg>
