<?xml version="1.0" encoding="UTF-8" standalone="no"?>
<!DOCTYPE svg PUBLIC "-//W3C//DTD SVG 1.1//EN"
 "http://www.w3.org/Graphics/SVG/1.1/DTD/svg11.dtd">
<!-- Generated by graphviz version 2.43.0 (0)
 -->
<!-- Title: oneDegreeRelationshipsDiagram Pages: 1 -->
<svg width="1130pt" height="622pt"
 viewBox="0.00 0.00 1130.00 621.56" xmlns="http://www.w3.org/2000/svg" xmlns:xlink="http://www.w3.org/1999/xlink">
<g id="graph0" class="graph" transform="scale(1 1) rotate(0) translate(4 617.56)">
<title>oneDegreeRelationshipsDiagram</title>
<polygon fill="#ffffff" stroke="transparent" points="-4,4 -4,-617.56 1126,-617.56 1126,4 -4,4"/>
<text text-anchor="middle" x="71.5" y="-7.2" font-family="Helvetica,sans-Serif" font-size="11.00">Generated by SchemaSpy</text>
<!-- mstr_entities -->
<g id="node1" class="node">
<title>mstr_entities</title>
<g id="a_node1"><a xlink:href="../../tables/mstr_entities.html" xlink:title="mstr_entities" target="_top">
<polygon fill="#ffffff" stroke="transparent" points="306,-380.56 306,-570.56 500,-570.56 500,-380.56 306,-380.56"/>
<polygon fill="#f5f5f5" stroke="transparent" points="306,-548.56 306,-570.56 500,-570.56 500,-548.56 306,-548.56"/>
<polygon fill="none" stroke="black" points="306,-548.56 306,-570.56 500,-570.56 500,-548.56 306,-548.56"/>
<text text-anchor="start" x="311" y="-557.76" font-family="Helvetica,sans-Serif" font-weight="bold" font-size="11.00">mstr_entities</text>
<text text-anchor="start" x="465" y="-556.76" font-family="Helvetica,sans-Serif" font-size="11.00">[table]</text>
<polygon fill="none" stroke="black" points="306,-526.56 306,-548.56 500,-548.56 500,-526.56 306,-526.56"/>
<image xlink:href="../../images/primaryKeys.png" width="11px" height="12px" preserveAspectRatio="xMinYMin meet" x="311" y="-543.556"/>
<text text-anchor="start" x="326" y="-534.76" font-family="Helvetica,sans-Serif" font-size="11.00">id</text>
<polygon fill="none" stroke="black" points="306,-504.56 306,-526.56 500,-526.56 500,-504.56 306,-504.56"/>
<image xlink:href="../../images/foreignKeys.png" width="11px" height="12px" preserveAspectRatio="xMinYMin meet" x="311" y="-521.556"/>
<text text-anchor="start" x="326" y="-512.76" font-family="Helvetica,sans-Serif" font-size="11.00">owning_entity_id</text>
<polygon fill="#ffffff" stroke="transparent" points="306,-482.56 306,-504.56 500,-504.56 500,-482.56 306,-482.56"/>
<polygon fill="none" stroke="black" points="306,-482.56 306,-504.56 500,-504.56 500,-482.56 306,-482.56"/>
<text text-anchor="start" x="326" y="-490.76" font-family="Helvetica,sans-Serif" font-size="11.00">internal_name</text>
<polygon fill="#ffffff" stroke="transparent" points="306,-460.56 306,-482.56 500,-482.56 500,-460.56 306,-460.56"/>
<polygon fill="none" stroke="black" points="306,-460.56 306,-482.56 500,-482.56 500,-460.56 306,-460.56"/>
<text text-anchor="start" x="326" y="-468.76" font-family="Helvetica,sans-Serif" font-size="11.00">display_name</text>
<polygon fill="none" stroke="black" points="306,-438.56 306,-460.56 500,-460.56 500,-438.56 306,-438.56"/>
<image xlink:href="../../images/foreignKeys.png" width="11px" height="12px" preserveAspectRatio="xMinYMin meet" x="311" y="-455.556"/>
<text text-anchor="start" x="326" y="-446.76" font-family="Helvetica,sans-Serif" font-size="11.00">entity_type_id</text>
<polygon fill="none" stroke="black" points="306,-416.56 306,-438.56 500,-438.56 500,-416.56 306,-416.56"/>
<image xlink:href="../../images/foreignKeys.png" width="11px" height="12px" preserveAspectRatio="xMinYMin meet" x="311" y="-433.556"/>
<text text-anchor="start" x="326" y="-424.76" font-family="Helvetica,sans-Serif" font-size="11.00">entity_state_id</text>
<polygon fill="none" stroke="black" points="306,-398.56 306,-416.56 500,-416.56 500,-398.56 306,-398.56"/>
<text text-anchor="start" x="309" y="-404.76" font-family="Helvetica,sans-Serif" font-size="11.00">...</text>
<polygon fill="#ffffff" stroke="transparent" points="306,-380.56 306,-398.56 393,-398.56 393,-380.56 306,-380.56"/>
<polygon fill="none" stroke="black" points="306,-380.56 306,-398.56 393,-398.56 393,-380.56 306,-380.56"/>
<text text-anchor="start" x="309" y="-386.76" font-family="Helvetica,sans-Serif" font-size="11.00">&lt; 3</text>
<polygon fill="#ffffff" stroke="transparent" points="393,-380.56 393,-398.56 439,-398.56 439,-380.56 393,-380.56"/>
<polygon fill="none" stroke="black" points="393,-380.56 393,-398.56 439,-398.56 439,-380.56 393,-380.56"/>
<text text-anchor="start" x="429" y="-386.76" font-family="Helvetica,sans-Serif" font-size="11.00"> &#160;</text>
<polygon fill="#ffffff" stroke="transparent" points="439,-380.56 439,-398.56 500,-398.56 500,-380.56 439,-380.56"/>
<polygon fill="none" stroke="black" points="439,-380.56 439,-398.56 500,-398.56 500,-380.56 439,-380.56"/>
<text text-anchor="start" x="475" y="-386.76" font-family="Helvetica,sans-Serif" font-size="11.00">15 &gt;</text>
</a>
</g>
</g>
<!-- ms_syst_data.syst_enum_items -->
<g id="node2" class="node">
<title>ms_syst_data.syst_enum_items</title>
<g id="a_node2"><a xlink:href="../../../ms_syst_data/tables/syst_enum_items.html" xlink:title="ms_syst_data.syst_enum_items" target="_top">
<polygon fill="#ffffff" stroke="transparent" points="8,-313.56 8,-371.56 257,-371.56 257,-313.56 8,-313.56"/>
<polygon fill="#f5f5f5" stroke="transparent" points="8.5,-349.56 8.5,-371.56 257.5,-371.56 257.5,-349.56 8.5,-349.56"/>
<polygon fill="none" stroke="black" points="8.5,-349.56 8.5,-371.56 257.5,-371.56 257.5,-349.56 8.5,-349.56"/>
<text text-anchor="start" x="13.5" y="-358.76" font-family="Helvetica,sans-Serif" font-weight="bold" font-size="11.00">ms_syst_data.syst_enum_items</text>
<text text-anchor="start" x="222.5" y="-357.76" font-family="Helvetica,sans-Serif" font-size="11.00">[table]</text>
<polygon fill="none" stroke="black" points="8.5,-331.56 8.5,-349.56 257.5,-349.56 257.5,-331.56 8.5,-331.56"/>
<text text-anchor="start" x="11.5" y="-337.76" font-family="Helvetica,sans-Serif" font-size="11.00">...</text>
<polygon fill="#ffffff" stroke="transparent" points="8.5,-313.56 8.5,-331.56 118.5,-331.56 118.5,-313.56 8.5,-313.56"/>
<polygon fill="none" stroke="black" points="8.5,-313.56 8.5,-331.56 118.5,-331.56 118.5,-313.56 8.5,-313.56"/>
<text text-anchor="start" x="11.5" y="-319.76" font-family="Helvetica,sans-Serif" font-size="11.00"> &#160;</text>
<polygon fill="#ffffff" stroke="transparent" points="118.5,-313.56 118.5,-331.56 180.5,-331.56 180.5,-313.56 118.5,-313.56"/>
<polygon fill="none" stroke="black" points="118.5,-313.56 118.5,-331.56 180.5,-331.56 180.5,-313.56 118.5,-313.56"/>
<text text-anchor="start" x="170.5" y="-319.76" font-family="Helvetica,sans-Serif" font-size="11.00"> &#160;</text>
<polygon fill="#ffffff" stroke="transparent" points="180.5,-313.56 180.5,-331.56 257.5,-331.56 257.5,-313.56 180.5,-313.56"/>
<polygon fill="none" stroke="black" points="180.5,-313.56 180.5,-331.56 257.5,-331.56 257.5,-313.56 180.5,-313.56"/>
<text text-anchor="start" x="232.5" y="-319.76" font-family="Helvetica,sans-Serif" font-size="11.00">10 &gt;</text>
</a>
</g>
</g>
<!-- mstr_entities&#45;&gt;ms_syst_data.syst_enum_items -->
<g id="edge1" class="edge">
<title>mstr_entities:w&#45;&gt;ms_syst_data.syst_enum_items:e</title>
<path fill="none" stroke="black" d="M290.41,-426.75C246.49,-422.01 203.55,-397.15 173.73,-375.66"/>
<polygon fill="black" stroke="black" points="297.01,-427.12 304.8,-431.15 301.01,-427.34 305,-427.56 305,-427.56 305,-427.56 301.01,-427.34 305.2,-423.96 297.01,-427.12 297.01,-427.12"/>
<ellipse fill="none" stroke="black" cx="293.82" cy="-426.94" rx="3.2" ry="3.2"/>
</g>
<!-- mstr_entities&#45;&gt;ms_syst_data.syst_enum_items -->
<g id="edge2" class="edge">
<title>mstr_entities:w&#45;&gt;ms_syst_data.syst_enum_items:e</title>
<path fill="none" stroke="black" d="M290.52,-448.65C239.5,-442.36 192.5,-404.54 163.48,-375.82"/>
<polygon fill="black" stroke="black" points="297.02,-449.06 304.78,-453.15 301.01,-449.31 305,-449.56 305,-449.56 305,-449.56 301.01,-449.31 305.22,-445.96 297.02,-449.06 297.02,-449.06"/>
<ellipse fill="none" stroke="black" cx="293.82" cy="-448.86" rx="3.2" ry="3.2"/>
</g>
<!-- mstr_entity_person_roles -->
<g id="node3" class="node">
<title>mstr_entity_person_roles</title>
<g id="a_node3"><a xlink:href="../../tables/mstr_entity_person_roles.html" xlink:title="mstr_entity_person_roles" target="_top">
<polygon fill="#ffffff" stroke="transparent" points="899.5,-463.56 899.5,-609.56 1108.5,-609.56 1108.5,-463.56 899.5,-463.56"/>
<polygon fill="#f5f5f5" stroke="transparent" points="900,-587.56 900,-609.56 1109,-609.56 1109,-587.56 900,-587.56"/>
<polygon fill="none" stroke="black" points="900,-587.56 900,-609.56 1109,-609.56 1109,-587.56 900,-587.56"/>
<text text-anchor="start" x="905" y="-596.76" font-family="Helvetica,sans-Serif" font-weight="bold" font-size="11.00">mstr_entity_person_roles</text>
<text text-anchor="start" x="1074" y="-595.76" font-family="Helvetica,sans-Serif" font-size="11.00">[table]</text>
<polygon fill="none" stroke="black" points="900,-565.56 900,-587.56 1109,-587.56 1109,-565.56 900,-565.56"/>
<image xlink:href="../../images/primaryKeys.png" width="11px" height="12px" preserveAspectRatio="xMinYMin meet" x="905" y="-582.556"/>
<text text-anchor="start" x="928" y="-573.76" font-family="Helvetica,sans-Serif" font-size="11.00">id</text>
<polygon fill="#ffffff" stroke="transparent" points="900,-543.56 900,-565.56 1109,-565.56 1109,-543.56 900,-543.56"/>
<polygon fill="none" stroke="black" points="900,-543.56 900,-565.56 1109,-565.56 1109,-543.56 900,-543.56"/>
<image xlink:href="../../images/foreignKeys.png" width="11px" height="12px" preserveAspectRatio="xMinYMin meet" x="905" y="-560.556"/>
<text text-anchor="start" x="928" y="-551.76" font-family="Helvetica,sans-Serif" font-size="11.00">person_id</text>
<polygon fill="#ffffff" stroke="transparent" points="900,-521.56 900,-543.56 1109,-543.56 1109,-521.56 900,-521.56"/>
<polygon fill="none" stroke="black" points="900,-521.56 900,-543.56 1109,-543.56 1109,-521.56 900,-521.56"/>
<image xlink:href="../../images/foreignKeys.png" width="11px" height="12px" preserveAspectRatio="xMinYMin meet" x="905" y="-538.556"/>
<text text-anchor="start" x="928" y="-529.76" font-family="Helvetica,sans-Serif" font-size="11.00">entity_id</text>
<polygon fill="#ffffff" stroke="transparent" points="900,-499.56 900,-521.56 1109,-521.56 1109,-499.56 900,-499.56"/>
<polygon fill="none" stroke="black" points="900,-499.56 900,-521.56 1109,-521.56 1109,-499.56 900,-499.56"/>
<image xlink:href="../../images/foreignKeys.png" width="11px" height="12px" preserveAspectRatio="xMinYMin meet" x="905" y="-516.556"/>
<text text-anchor="start" x="928" y="-507.76" font-family="Helvetica,sans-Serif" font-size="11.00">entity_person_role_id</text>
<polygon fill="none" stroke="black" points="900,-481.56 900,-499.56 1109,-499.56 1109,-481.56 900,-481.56"/>
<text text-anchor="start" x="903" y="-487.76" font-family="Helvetica,sans-Serif" font-size="11.00">...</text>
<polygon fill="#ffffff" stroke="transparent" points="900,-463.56 900,-481.56 1002,-481.56 1002,-463.56 900,-463.56"/>
<polygon fill="none" stroke="black" points="900,-463.56 900,-481.56 1002,-481.56 1002,-463.56 900,-463.56"/>
<text text-anchor="start" x="903" y="-469.76" font-family="Helvetica,sans-Serif" font-size="11.00">&lt; 3</text>
<polygon fill="#ffffff" stroke="transparent" points="1002,-463.56 1002,-481.56 1055,-481.56 1055,-463.56 1002,-463.56"/>
<polygon fill="none" stroke="black" points="1002,-463.56 1002,-481.56 1055,-481.56 1055,-463.56 1002,-463.56"/>
<text text-anchor="start" x="1045" y="-469.76" font-family="Helvetica,sans-Serif" font-size="11.00"> &#160;</text>
<polygon fill="#ffffff" stroke="transparent" points="1055,-463.56 1055,-481.56 1109,-481.56 1109,-463.56 1055,-463.56"/>
<polygon fill="none" stroke="black" points="1055,-463.56 1055,-481.56 1109,-481.56 1109,-463.56 1055,-463.56"/>
<text text-anchor="start" x="1099" y="-469.76" font-family="Helvetica,sans-Serif" font-size="11.00"> &#160;</text>
</a>
</g>
</g>
<!-- mstr_entity_person_roles&#45;&gt;mstr_entities -->
<g id="edge3" class="edge">
<title>mstr_entity_person_roles:w&#45;&gt;mstr_entities:e</title>
<path fill="none" stroke="black" d="M884.28,-532.57C719.49,-532.83 672.89,-537.56 501,-537.56"/>
<polygon fill="black" stroke="black" points="891,-532.56 899,-536.16 895,-532.56 899,-532.56 899,-532.56 899,-532.56 895,-532.56 899,-528.96 891,-532.56 891,-532.56"/>
<ellipse fill="none" stroke="black" cx="887.8" cy="-532.56" rx="3.2" ry="3.2"/>
</g>
<!-- mstr_entity_person_roles&#45;&gt;ms_syst_data.syst_enum_items -->
<g id="edge4" class="edge">
<title>mstr_entity_person_roles:w&#45;&gt;ms_syst_data.syst_enum_items:e</title>
<path fill="none" stroke="black" d="M884.49,-510.88C795.79,-514.39 599.62,-544.62 541,-497.56 495.52,-461.05 552.77,-407.93 508,-370.56 471.96,-340.47 357.97,-335.37 265.13,-336.67"/>
<polygon fill="black" stroke="black" points="891,-510.73 899.08,-514.15 895,-510.64 899,-510.56 899,-510.56 899,-510.56 895,-510.64 898.92,-506.96 891,-510.73 891,-510.73"/>
<ellipse fill="none" stroke="black" cx="887.8" cy="-510.8" rx="3.2" ry="3.2"/>
</g>
<!-- mstr_persons -->
<g id="node4" class="node">
<title>mstr_persons</title>
<g id="a_node4"><a xlink:href="../../tables/mstr_persons.html" xlink:title="mstr_persons" target="_top">
<polygon fill="#ffffff" stroke="transparent" points="549,-90.56 549,-486.56 845,-486.56 845,-90.56 549,-90.56"/>
<polygon fill="#f5f5f5" stroke="transparent" points="551,-462.56 551,-484.56 843,-484.56 843,-462.56 551,-462.56"/>
<polygon fill="none" stroke="black" points="551,-462.56 551,-484.56 843,-484.56 843,-462.56 551,-462.56"/>
<text text-anchor="start" x="556" y="-471.76" font-family="Helvetica,sans-Serif" font-weight="bold" font-size="11.00">mstr_persons</text>
<text text-anchor="start" x="808" y="-470.76" font-family="Helvetica,sans-Serif" font-size="11.00">[table]</text>
<polygon fill="none" stroke="black" points="551,-440.56 551,-462.56 745,-462.56 745,-440.56 551,-440.56"/>
<image xlink:href="../../images/primaryKeys.png" width="11px" height="12px" preserveAspectRatio="xMinYMin meet" x="556" y="-457.556"/>
<text text-anchor="start" x="571" y="-448.76" font-family="Helvetica,sans-Serif" font-size="11.00">id</text>
<polygon fill="none" stroke="black" points="745,-440.56 745,-462.56 843,-462.56 843,-440.56 745,-440.56"/>
<text text-anchor="start" x="748" y="-448.76" font-family="Helvetica,sans-Serif" font-size="11.00">uuid[2147483647]</text>
<polygon fill="#ffffff" stroke="transparent" points="551,-418.56 551,-440.56 745,-440.56 745,-418.56 551,-418.56"/>
<polygon fill="none" stroke="black" points="551,-418.56 551,-440.56 745,-440.56 745,-418.56 551,-418.56"/>
<text text-anchor="start" x="571" y="-426.76" font-family="Helvetica,sans-Serif" font-size="11.00">internal_name</text>
<polygon fill="none" stroke="black" points="745,-418.56 745,-440.56 843,-440.56 843,-418.56 745,-418.56"/>
<text text-anchor="start" x="748" y="-426.76" font-family="Helvetica,sans-Serif" font-size="11.00">text[2147483647]</text>
<polygon fill="#ffffff" stroke="transparent" points="551,-396.56 551,-418.56 745,-418.56 745,-396.56 551,-396.56"/>
<polygon fill="none" stroke="black" points="551,-396.56 551,-418.56 745,-418.56 745,-396.56 551,-396.56"/>
<text text-anchor="start" x="571" y="-404.76" font-family="Helvetica,sans-Serif" font-size="11.00">display_name</text>
<polygon fill="none" stroke="black" points="745,-396.56 745,-418.56 843,-418.56 843,-396.56 745,-396.56"/>
<text text-anchor="start" x="748" y="-404.76" font-family="Helvetica,sans-Serif" font-size="11.00">text[2147483647]</text>
<polygon fill="none" stroke="black" points="551,-374.56 551,-396.56 745,-396.56 745,-374.56 551,-374.56"/>
<text text-anchor="start" x="571" y="-382.76" font-family="Helvetica,sans-Serif" font-size="11.00">external_name</text>
<polygon fill="none" stroke="black" points="745,-374.56 745,-396.56 843,-396.56 843,-374.56 745,-374.56"/>
<text text-anchor="start" x="748" y="-382.76" font-family="Helvetica,sans-Serif" font-size="11.00">text[2147483647]</text>
<polygon fill="none" stroke="black" points="551,-352.56 551,-374.56 745,-374.56 745,-352.56 551,-352.56"/>
<image xlink:href="../../images/foreignKeys.png" width="11px" height="12px" preserveAspectRatio="xMinYMin meet" x="556" y="-369.556"/>
<text text-anchor="start" x="571" y="-360.76" font-family="Helvetica,sans-Serif" font-size="11.00">owning_entity_id</text>
<polygon fill="none" stroke="black" points="745,-352.56 745,-374.56 843,-374.56 843,-352.56 745,-352.56"/>
<text text-anchor="start" x="748" y="-360.76" font-family="Helvetica,sans-Serif" font-size="11.00">uuid[2147483647]</text>
<polygon fill="none" stroke="black" points="551,-330.56 551,-352.56 745,-352.56 745,-330.56 551,-330.56"/>
<text text-anchor="start" x="571" y="-338.76" font-family="Helvetica,sans-Serif" font-size="11.00">formatted_name</text>
<polygon fill="none" stroke="black" points="745,-330.56 745,-352.56 843,-352.56 843,-330.56 745,-330.56"/>
<text text-anchor="start" x="748" y="-338.76" font-family="Helvetica,sans-Serif" font-size="11.00">jsonb[2147483647]</text>
<polygon fill="none" stroke="black" points="551,-308.56 551,-330.56 745,-330.56 745,-308.56 551,-308.56"/>
<image xlink:href="../../images/foreignKeys.png" width="11px" height="12px" preserveAspectRatio="xMinYMin meet" x="556" y="-325.556"/>
<text text-anchor="start" x="571" y="-316.76" font-family="Helvetica,sans-Serif" font-size="11.00">person_type_id</text>
<polygon fill="none" stroke="black" points="745,-308.56 745,-330.56 843,-330.56 843,-308.56 745,-308.56"/>
<text text-anchor="start" x="748" y="-316.76" font-family="Helvetica,sans-Serif" font-size="11.00">uuid[2147483647]</text>
<polygon fill="none" stroke="black" points="551,-286.56 551,-308.56 745,-308.56 745,-286.56 551,-286.56"/>
<image xlink:href="../../images/foreignKeys.png" width="11px" height="12px" preserveAspectRatio="xMinYMin meet" x="556" y="-303.556"/>
<text text-anchor="start" x="571" y="-294.76" font-family="Helvetica,sans-Serif" font-size="11.00">person_state_id</text>
<polygon fill="none" stroke="black" points="745,-286.56 745,-308.56 843,-308.56 843,-286.56 745,-286.56"/>
<text text-anchor="start" x="748" y="-294.76" font-family="Helvetica,sans-Serif" font-size="11.00">uuid[2147483647]</text>
<polygon fill="#ffffff" stroke="transparent" points="551,-264.56 551,-286.56 745,-286.56 745,-264.56 551,-264.56"/>
<polygon fill="none" stroke="black" points="551,-264.56 551,-286.56 745,-286.56 745,-264.56 551,-264.56"/>
<text text-anchor="start" x="571" y="-272.76" font-family="Helvetica,sans-Serif" font-size="11.00">access_account_id</text>
<polygon fill="none" stroke="black" points="745,-264.56 745,-286.56 843,-286.56 843,-264.56 745,-264.56"/>
<text text-anchor="start" x="748" y="-272.76" font-family="Helvetica,sans-Serif" font-size="11.00">uuid[2147483647]</text>
<polygon fill="none" stroke="black" points="551,-242.56 551,-264.56 745,-264.56 745,-242.56 551,-242.56"/>
<text text-anchor="start" x="571" y="-250.76" font-family="Helvetica,sans-Serif" font-size="11.00">diag_timestamp_created</text>
<polygon fill="none" stroke="black" points="745,-242.56 745,-264.56 843,-264.56 843,-242.56 745,-242.56"/>
<text text-anchor="start" x="748" y="-250.76" font-family="Helvetica,sans-Serif" font-size="11.00">timestamptz[35,6]</text>
<polygon fill="none" stroke="black" points="551,-220.56 551,-242.56 745,-242.56 745,-220.56 551,-220.56"/>
<text text-anchor="start" x="571" y="-228.76" font-family="Helvetica,sans-Serif" font-size="11.00">diag_role_created</text>
<polygon fill="none" stroke="black" points="745,-220.56 745,-242.56 843,-242.56 843,-220.56 745,-220.56"/>
<text text-anchor="start" x="748" y="-228.76" font-family="Helvetica,sans-Serif" font-size="11.00">text[2147483647]</text>
<polygon fill="none" stroke="black" points="551,-198.56 551,-220.56 745,-220.56 745,-198.56 551,-198.56"/>
<text text-anchor="start" x="571" y="-206.76" font-family="Helvetica,sans-Serif" font-size="11.00">diag_timestamp_modified</text>
<polygon fill="none" stroke="black" points="745,-198.56 745,-220.56 843,-220.56 843,-198.56 745,-198.56"/>
<text text-anchor="start" x="748" y="-206.76" font-family="Helvetica,sans-Serif" font-size="11.00">timestamptz[35,6]</text>
<polygon fill="none" stroke="black" points="551,-176.56 551,-198.56 745,-198.56 745,-176.56 551,-176.56"/>
<text text-anchor="start" x="571" y="-184.76" font-family="Helvetica,sans-Serif" font-size="11.00">diag_wallclock_modified</text>
<polygon fill="none" stroke="black" points="745,-176.56 745,-198.56 843,-198.56 843,-176.56 745,-176.56"/>
<text text-anchor="start" x="748" y="-184.76" font-family="Helvetica,sans-Serif" font-size="11.00">timestamptz[35,6]</text>
<polygon fill="none" stroke="black" points="551,-154.56 551,-176.56 745,-176.56 745,-154.56 551,-154.56"/>
<text text-anchor="start" x="571" y="-162.76" font-family="Helvetica,sans-Serif" font-size="11.00">diag_role_modified</text>
<polygon fill="none" stroke="black" points="745,-154.56 745,-176.56 843,-176.56 843,-154.56 745,-154.56"/>
<text text-anchor="start" x="748" y="-162.76" font-family="Helvetica,sans-Serif" font-size="11.00">text[2147483647]</text>
<polygon fill="none" stroke="black" points="551,-132.56 551,-154.56 745,-154.56 745,-132.56 551,-132.56"/>
<text text-anchor="start" x="571" y="-140.76" font-family="Helvetica,sans-Serif" font-size="11.00">diag_row_version</text>
<polygon fill="none" stroke="black" points="745,-132.56 745,-154.56 843,-154.56 843,-132.56 745,-132.56"/>
<text text-anchor="start" x="748" y="-140.76" font-family="Helvetica,sans-Serif" font-size="11.00">int8[19]</text>
<polygon fill="none" stroke="black" points="551,-110.56 551,-132.56 745,-132.56 745,-110.56 551,-110.56"/>
<text text-anchor="start" x="571" y="-118.76" font-family="Helvetica,sans-Serif" font-size="11.00">diag_update_count</text>
<polygon fill="none" stroke="black" points="745,-110.56 745,-132.56 843,-132.56 843,-110.56 745,-110.56"/>
<text text-anchor="start" x="748" y="-118.76" font-family="Helvetica,sans-Serif" font-size="11.00">int8[19]</text>
<polygon fill="#ffffff" stroke="transparent" points="551,-92.56 551,-110.56 652,-110.56 652,-92.56 551,-92.56"/>
<polygon fill="none" stroke="black" points="551,-92.56 551,-110.56 652,-110.56 652,-92.56 551,-92.56"/>
<text text-anchor="start" x="554" y="-98.76" font-family="Helvetica,sans-Serif" font-size="11.00">&lt; 3</text>
<polygon fill="#ffffff" stroke="transparent" points="652,-92.56 652,-110.56 745,-110.56 745,-92.56 652,-92.56"/>
<polygon fill="none" stroke="black" points="652,-92.56 652,-110.56 745,-110.56 745,-92.56 652,-92.56"/>
<text text-anchor="start" x="735" y="-98.76" font-family="Helvetica,sans-Serif" font-size="11.00"> &#160;</text>
<polygon fill="#ffffff" stroke="transparent" points="745,-92.56 745,-110.56 843,-110.56 843,-92.56 745,-92.56"/>
<polygon fill="none" stroke="black" points="745,-92.56 745,-110.56 843,-110.56 843,-92.56 745,-92.56"/>
<text text-anchor="start" x="824" y="-98.76" font-family="Helvetica,sans-Serif" font-size="11.00">2 &gt;</text>
<polygon fill="none" stroke="black" stroke-width="2" points="550,-91.56 550,-485.56 844,-485.56 844,-91.56 550,-91.56"/>
</a>
</g>
</g>
<!-- mstr_entity_person_roles&#45;&gt;mstr_persons -->
<g id="edge5" class="edge">
<title>mstr_entity_person_roles:w&#45;&gt;mstr_persons:e</title>
<path fill="none" stroke="black" d="M884.95,-550.89C856.87,-532.54 890.02,-451.56 844,-451.56"/>
<polygon fill="black" stroke="black" points="891.26,-552.54 898.09,-558.04 895.13,-553.55 899,-554.56 899,-554.56 899,-554.56 895.13,-553.55 899.91,-551.07 891.26,-552.54 891.26,-552.54"/>
<ellipse fill="none" stroke="black" cx="888.16" cy="-551.73" rx="3.2" ry="3.2"/>
</g>
<!-- mstr_persons&#45;&gt;mstr_entities -->
<g id="edge8" class="edge">
<title>mstr_persons:w&#45;&gt;mstr_entities:e</title>
<path fill="none" stroke="black" d="M535.77,-366.02C484.41,-387.16 575.69,-537.56 501,-537.56"/>
<polygon fill="black" stroke="black" points="542.12,-364.92 550.61,-367.1 546.06,-364.24 550,-363.56 550,-363.56 550,-363.56 546.06,-364.24 549.39,-360.01 542.12,-364.92 542.12,-364.92"/>
<ellipse fill="none" stroke="black" cx="538.96" cy="-365.46" rx="3.2" ry="3.2"/>
</g>
<!-- mstr_persons&#45;&gt;ms_syst_data.syst_enum_items -->
<g id="edge9" class="edge">
<title>mstr_persons:w&#45;&gt;ms_syst_data.syst_enum_items:e</title>
<path fill="none" stroke="black" d="M535.34,-297.65C443.53,-298.76 342.93,-310.02 265.35,-320.98"/>
<polygon fill="black" stroke="black" points="542,-297.6 550.02,-301.16 546,-297.58 550,-297.56 550,-297.56 550,-297.56 546,-297.58 549.98,-293.96 542,-297.6 542,-297.6"/>
<ellipse fill="none" stroke="black" cx="538.8" cy="-297.62" rx="3.2" ry="3.2"/>
</g>
<!-- mstr_persons&#45;&gt;ms_syst_data.syst_enum_items -->
<g id="edge10" class="edge">
<title>mstr_persons:w&#45;&gt;ms_syst_data.syst_enum_items:e</title>
<path fill="none" stroke="black" d="M535.38,-319.6C443.73,-320.17 342.91,-325.95 265.17,-331.56"/>
<polygon fill="black" stroke="black" points="542,-319.58 550.01,-323.16 546,-319.57 550,-319.56 550,-319.56 550,-319.56 546,-319.57 549.99,-315.96 542,-319.58 542,-319.58"/>
<ellipse fill="none" stroke="black" cx="538.8" cy="-319.59" rx="3.2" ry="3.2"/>
</g>
<!-- mstr_person_contact_roles -->
<g id="node5" class="node">
<title>mstr_person_contact_roles</title>
<g id="a_node5"><a xlink:href="../../tables/mstr_person_contact_roles.html" xlink:title="mstr_person_contact_roles" target="_top">
<polygon fill="#ffffff" stroke="transparent" points="894,-124.56 894,-292.56 1114,-292.56 1114,-124.56 894,-124.56"/>
<polygon fill="#f5f5f5" stroke="transparent" points="894,-270.56 894,-292.56 1114,-292.56 1114,-270.56 894,-270.56"/>
<polygon fill="none" stroke="black" points="894,-270.56 894,-292.56 1114,-292.56 1114,-270.56 894,-270.56"/>
<text text-anchor="start" x="899" y="-279.76" font-family="Helvetica,sans-Serif" font-weight="bold" font-size="11.00">mstr_person_contact_roles</text>
<text text-anchor="start" x="1079" y="-278.76" font-family="Helvetica,sans-Serif" font-size="11.00">[table]</text>
<polygon fill="none" stroke="black" points="894,-248.56 894,-270.56 1114,-270.56 1114,-248.56 894,-248.56"/>
<image xlink:href="../../images/primaryKeys.png" width="11px" height="12px" preserveAspectRatio="xMinYMin meet" x="899" y="-265.556"/>
<text text-anchor="start" x="924" y="-256.76" font-family="Helvetica,sans-Serif" font-size="11.00">id</text>
<polygon fill="none" stroke="black" points="894,-226.56 894,-248.56 1114,-248.56 1114,-226.56 894,-226.56"/>
<image xlink:href="../../images/foreignKeys.png" width="11px" height="12px" preserveAspectRatio="xMinYMin meet" x="899" y="-243.556"/>
<text text-anchor="start" x="924" y="-234.76" font-family="Helvetica,sans-Serif" font-size="11.00">person_id</text>
<polygon fill="none" stroke="black" points="894,-204.56 894,-226.56 1114,-226.56 1114,-204.56 894,-204.56"/>
<image xlink:href="../../images/foreignKeys.png" width="11px" height="12px" preserveAspectRatio="xMinYMin meet" x="899" y="-221.556"/>
<text text-anchor="start" x="924" y="-212.76" font-family="Helvetica,sans-Serif" font-size="11.00">person_contact_role_id</text>
<polygon fill="none" stroke="black" points="894,-182.56 894,-204.56 1114,-204.56 1114,-182.56 894,-182.56"/>
<image xlink:href="../../images/foreignKeys.png" width="11px" height="12px" preserveAspectRatio="xMinYMin meet" x="899" y="-199.556"/>
<text text-anchor="start" x="924" y="-190.76" font-family="Helvetica,sans-Serif" font-size="11.00">place_id</text>
<polygon fill="none" stroke="black" points="894,-160.56 894,-182.56 1114,-182.56 1114,-160.56 894,-160.56"/>
<image xlink:href="../../images/foreignKeys.png" width="11px" height="12px" preserveAspectRatio="xMinYMin meet" x="899" y="-177.556"/>
<text text-anchor="start" x="924" y="-168.76" font-family="Helvetica,sans-Serif" font-size="11.00">contact_id</text>
<polygon fill="none" stroke="black" points="894,-142.56 894,-160.56 1114,-160.56 1114,-142.56 894,-142.56"/>
<text text-anchor="start" x="897" y="-148.76" font-family="Helvetica,sans-Serif" font-size="11.00">...</text>
<polygon fill="#ffffff" stroke="transparent" points="894,-124.56 894,-142.56 1002,-142.56 1002,-124.56 894,-124.56"/>
<polygon fill="none" stroke="black" points="894,-124.56 894,-142.56 1002,-142.56 1002,-124.56 894,-124.56"/>
<text text-anchor="start" x="897" y="-130.76" font-family="Helvetica,sans-Serif" font-size="11.00">&lt; 4</text>
<polygon fill="#ffffff" stroke="transparent" points="1002,-124.56 1002,-142.56 1058,-142.56 1058,-124.56 1002,-124.56"/>
<polygon fill="none" stroke="black" points="1002,-124.56 1002,-142.56 1058,-142.56 1058,-124.56 1002,-124.56"/>
<text text-anchor="start" x="1048" y="-130.76" font-family="Helvetica,sans-Serif" font-size="11.00"> &#160;</text>
<polygon fill="#ffffff" stroke="transparent" points="1058,-124.56 1058,-142.56 1114,-142.56 1114,-124.56 1058,-124.56"/>
<polygon fill="none" stroke="black" points="1058,-124.56 1058,-142.56 1114,-142.56 1114,-124.56 1058,-124.56"/>
<text text-anchor="start" x="1104" y="-130.76" font-family="Helvetica,sans-Serif" font-size="11.00"> &#160;</text>
</a>
</g>
</g>
<!-- mstr_person_contact_roles&#45;&gt;ms_syst_data.syst_enum_items -->
<g id="edge6" class="edge">
<title>mstr_person_contact_roles:w&#45;&gt;ms_syst_data.syst_enum_items:e</title>
<path fill="none" stroke="black" d="M878.75,-213.11C842.98,-197.79 898.44,-114.49 853,-80.56 741.89,2.41 674.05,-41.48 541,-80.56 386.66,-125.89 235.5,-249.71 168.9,-309.45"/>
<polygon fill="black" stroke="black" points="885.12,-214.2 892.39,-219.1 889.06,-214.88 893,-215.56 893,-215.56 893,-215.56 889.06,-214.88 893.61,-212.01 885.12,-214.2 885.12,-214.2"/>
<ellipse fill="none" stroke="black" cx="881.96" cy="-213.66" rx="3.2" ry="3.2"/>
</g>
<!-- mstr_person_contact_roles&#45;&gt;mstr_persons -->
<g id="edge7" class="edge">
<title>mstr_person_contact_roles:w&#45;&gt;mstr_persons:e</title>
<path fill="none" stroke="black" d="M878.68,-239.54C811.2,-261.11 936.05,-451.56 844,-451.56"/>
<polygon fill="black" stroke="black" points="885.08,-238.65 893.49,-241.12 889.04,-238.1 893,-237.56 893,-237.56 893,-237.56 889.04,-238.1 892.51,-233.99 885.08,-238.65 885.08,-238.65"/>
<ellipse fill="none" stroke="black" cx="881.91" cy="-239.09" rx="3.2" ry="3.2"/>
</g>
</g>
</svg>
