<?xml version="1.0" encoding="UTF-8" standalone="no"?>
<!DOCTYPE svg PUBLIC "-//W3C//DTD SVG 1.1//EN"
 "http://www.w3.org/Graphics/SVG/1.1/DTD/svg11.dtd">
<!-- Generated by graphviz version 2.43.0 (0)
 -->
<!-- Title: twoDegreesRelationshipsDiagram Pages: 1 -->
<svg width="752pt" height="493pt"
 viewBox="0.00 0.00 752.00 493.00" xmlns="http://www.w3.org/2000/svg" xmlns:xlink="http://www.w3.org/1999/xlink">
<g id="graph0" class="graph" transform="scale(1 1) rotate(0) translate(4 489)">
<title>twoDegreesRelationshipsDiagram</title>
<polygon fill="#ffffff" stroke="transparent" points="-4,4 -4,-489 748,-489 748,4 -4,4"/>
<text text-anchor="middle" x="71.5" y="-7.2" font-family="Helvetica,sans-Serif" font-size="11.00">Generated by SchemaSpy</text>
<!-- mstr_country_address_format_assocs -->
<g id="node1" class="node">
<title>mstr_country_address_format_assocs</title>
<g id="a_node1"><a xlink:href="../../tables/mstr_country_address_format_assocs.html" xlink:title="mstr_country_address_format_assocs" target="_top">
<polygon fill="#ffffff" stroke="transparent" points="414,-423 414,-481 705,-481 705,-423 414,-423"/>
<polygon fill="#f5f5f5" stroke="transparent" points="414.5,-459 414.5,-481 705.5,-481 705.5,-459 414.5,-459"/>
<polygon fill="none" stroke="black" points="414.5,-459 414.5,-481 705.5,-481 705.5,-459 414.5,-459"/>
<text text-anchor="start" x="419.5" y="-468.2" font-family="Helvetica,sans-Serif" font-weight="bold" font-size="11.00">mstr_country_address_format_assocs</text>
<text text-anchor="start" x="670.5" y="-467.2" font-family="Helvetica,sans-Serif" font-size="11.00">[table]</text>
<polygon fill="none" stroke="black" points="414.5,-441 414.5,-459 705.5,-459 705.5,-441 414.5,-441"/>
<text text-anchor="start" x="417.5" y="-447.2" font-family="Helvetica,sans-Serif" font-size="11.00">...</text>
<polygon fill="#ffffff" stroke="transparent" points="414.5,-423 414.5,-441 557.5,-441 557.5,-423 414.5,-423"/>
<polygon fill="none" stroke="black" points="414.5,-423 414.5,-441 557.5,-441 557.5,-423 414.5,-423"/>
<text text-anchor="start" x="417.5" y="-429.2" font-family="Helvetica,sans-Serif" font-size="11.00">&lt; 2</text>
<polygon fill="#ffffff" stroke="transparent" points="557.5,-423 557.5,-441 631.5,-441 631.5,-423 557.5,-423"/>
<polygon fill="none" stroke="black" points="557.5,-423 557.5,-441 631.5,-441 631.5,-423 557.5,-423"/>
<text text-anchor="start" x="621.5" y="-429.2" font-family="Helvetica,sans-Serif" font-size="11.00"> &#160;</text>
<polygon fill="#ffffff" stroke="transparent" points="631.5,-423 631.5,-441 705.5,-441 705.5,-423 631.5,-423"/>
<polygon fill="none" stroke="black" points="631.5,-423 631.5,-441 705.5,-441 705.5,-423 631.5,-423"/>
<text text-anchor="start" x="695.5" y="-429.2" font-family="Helvetica,sans-Serif" font-size="11.00"> &#160;</text>
</a>
</g>
</g>
<!-- ms_syst_data.syst_complex_format_values -->
<g id="node2" class="node">
<title>ms_syst_data.syst_complex_format_values</title>
<g id="a_node2"><a xlink:href="../../../ms_syst_data/tables/syst_complex_format_values.html" xlink:title="ms_syst_data.syst_complex_format_values" target="_top">
<polygon fill="#ffffff" stroke="transparent" points="8,-227 8,-285 334,-285 334,-227 8,-227"/>
<polygon fill="#f5f5f5" stroke="transparent" points="8,-263 8,-285 334,-285 334,-263 8,-263"/>
<polygon fill="none" stroke="black" points="8,-263 8,-285 334,-285 334,-263 8,-263"/>
<text text-anchor="start" x="13" y="-272.2" font-family="Helvetica,sans-Serif" font-weight="bold" font-size="11.00">ms_syst_data.syst_complex_format_values</text>
<text text-anchor="start" x="299" y="-271.2" font-family="Helvetica,sans-Serif" font-size="11.00">[table]</text>
<polygon fill="none" stroke="black" points="8,-245 8,-263 334,-263 334,-245 8,-245"/>
<text text-anchor="start" x="11" y="-251.2" font-family="Helvetica,sans-Serif" font-size="11.00">...</text>
<polygon fill="#ffffff" stroke="transparent" points="8,-227 8,-245 160,-245 160,-227 8,-227"/>
<polygon fill="none" stroke="black" points="8,-227 8,-245 160,-245 160,-227 8,-227"/>
<text text-anchor="start" x="11" y="-233.2" font-family="Helvetica,sans-Serif" font-size="11.00"> &#160;</text>
<polygon fill="#ffffff" stroke="transparent" points="160,-227 160,-245 242,-245 242,-227 160,-227"/>
<polygon fill="none" stroke="black" points="160,-227 160,-245 242,-245 242,-227 160,-227"/>
<text text-anchor="start" x="232" y="-233.2" font-family="Helvetica,sans-Serif" font-size="11.00"> &#160;</text>
<polygon fill="#ffffff" stroke="transparent" points="242,-227 242,-245 334,-245 334,-227 242,-227"/>
<polygon fill="none" stroke="black" points="242,-227 242,-245 334,-245 334,-227 242,-227"/>
<text text-anchor="start" x="315" y="-233.2" font-family="Helvetica,sans-Serif" font-size="11.00">3 &gt;</text>
</a>
</g>
</g>
<!-- mstr_country_address_format_assocs&#45;&gt;ms_syst_data.syst_complex_format_values -->
<g id="edge1" class="edge">
<title>mstr_country_address_format_assocs:w&#45;&gt;ms_syst_data.syst_complex_format_values:e</title>
<path fill="none" stroke="black" d="M399.29,-447.04C355.08,-427.12 359.82,-313.06 342,-296 339.48,-293.59 336.85,-291.31 334.11,-289.17"/>
<polygon fill="black" stroke="black" points="405.67,-448.37 412.76,-453.52 409.58,-449.18 413.5,-450 413.5,-450 413.5,-450 409.58,-449.18 414.24,-446.48 405.67,-448.37 405.67,-448.37"/>
<ellipse fill="none" stroke="black" cx="402.54" cy="-447.71" rx="3.2" ry="3.2"/>
</g>
<!-- mstr_countries -->
<g id="node3" class="node">
<title>mstr_countries</title>
<g id="a_node3"><a xlink:href="../../tables/mstr_countries.html" xlink:title="mstr_countries" target="_top">
<polygon fill="#ffffff" stroke="transparent" points="44,-306 44,-430 298,-430 298,-306 44,-306"/>
<polygon fill="#f5f5f5" stroke="transparent" points="44,-408 44,-430 298,-430 298,-408 44,-408"/>
<polygon fill="none" stroke="black" points="44,-408 44,-430 298,-430 298,-408 44,-408"/>
<text text-anchor="start" x="49" y="-417.2" font-family="Helvetica,sans-Serif" font-weight="bold" font-size="11.00">mstr_countries</text>
<text text-anchor="start" x="263" y="-416.2" font-family="Helvetica,sans-Serif" font-size="11.00">[table]</text>
<polygon fill="none" stroke="black" points="44,-386 44,-408 298,-408 298,-386 44,-386"/>
<image xlink:href="../../images/primaryKeys.png" width="11px" height="12px" preserveAspectRatio="xMinYMin meet" x="49" y="-403"/>
<text text-anchor="start" x="64" y="-394.2" font-family="Helvetica,sans-Serif" font-size="11.00">id</text>
<polygon fill="#ffffff" stroke="transparent" points="44,-364 44,-386 298,-386 298,-364 44,-364"/>
<polygon fill="none" stroke="black" points="44,-364 44,-386 298,-386 298,-364 44,-364"/>
<text text-anchor="start" x="64" y="-372.2" font-family="Helvetica,sans-Serif" font-size="11.00">internal_name</text>
<polygon fill="#ffffff" stroke="transparent" points="44,-342 44,-364 298,-364 298,-342 44,-342"/>
<polygon fill="none" stroke="black" points="44,-342 44,-364 298,-364 298,-342 44,-342"/>
<text text-anchor="start" x="64" y="-350.2" font-family="Helvetica,sans-Serif" font-size="11.00">display_name</text>
<polygon fill="none" stroke="black" points="44,-324 44,-342 298,-342 298,-324 44,-324"/>
<text text-anchor="start" x="47" y="-330.2" font-family="Helvetica,sans-Serif" font-size="11.00">...</text>
<polygon fill="#ffffff" stroke="transparent" points="44,-306 44,-324 160,-324 160,-306 44,-306"/>
<polygon fill="none" stroke="black" points="44,-306 44,-324 160,-324 160,-306 44,-306"/>
<text text-anchor="start" x="47" y="-312.2" font-family="Helvetica,sans-Serif" font-size="11.00"> &#160;</text>
<polygon fill="#ffffff" stroke="transparent" points="160,-306 160,-324 224,-324 224,-306 160,-306"/>
<polygon fill="none" stroke="black" points="160,-306 160,-324 224,-324 224,-306 160,-306"/>
<text text-anchor="start" x="214" y="-312.2" font-family="Helvetica,sans-Serif" font-size="11.00"> &#160;</text>
<polygon fill="#ffffff" stroke="transparent" points="224,-306 224,-324 298,-324 298,-306 224,-306"/>
<polygon fill="none" stroke="black" points="224,-306 224,-324 298,-324 298,-306 224,-306"/>
<text text-anchor="start" x="279" y="-312.2" font-family="Helvetica,sans-Serif" font-size="11.00">3 &gt;</text>
</a>
</g>
</g>
<!-- mstr_country_address_format_assocs&#45;&gt;mstr_countries -->
<g id="edge2" class="edge">
<title>mstr_country_address_format_assocs:w&#45;&gt;mstr_countries:e</title>
<path fill="none" stroke="black" d="M399.06,-448.69C356.51,-440.53 349.82,-397 299,-397"/>
<polygon fill="black" stroke="black" points="405.53,-449.28 413.17,-453.59 409.52,-449.64 413.5,-450 413.5,-450 413.5,-450 409.52,-449.64 413.83,-446.41 405.53,-449.28 405.53,-449.28"/>
<ellipse fill="none" stroke="black" cx="402.35" cy="-448.99" rx="3.2" ry="3.2"/>
</g>
<!-- mstr_country_name_format_assocs -->
<g id="node4" class="node">
<title>mstr_country_name_format_assocs</title>
<g id="a_node4"><a xlink:href="../../tables/mstr_country_name_format_assocs.html" xlink:title="mstr_country_name_format_assocs" target="_top">
<polygon fill="#ffffff" stroke="transparent" points="383,-116 383,-402 736,-402 736,-116 383,-116"/>
<polygon fill="#f5f5f5" stroke="transparent" points="385.5,-378 385.5,-400 734.5,-400 734.5,-378 385.5,-378"/>
<polygon fill="none" stroke="black" points="385.5,-378 385.5,-400 734.5,-400 734.5,-378 385.5,-378"/>
<text text-anchor="start" x="390.5" y="-387.2" font-family="Helvetica,sans-Serif" font-weight="bold" font-size="11.00">mstr_country_name_format_assocs</text>
<text text-anchor="start" x="699.5" y="-386.2" font-family="Helvetica,sans-Serif" font-size="11.00">[table]</text>
<polygon fill="none" stroke="black" points="385.5,-356 385.5,-378 641.5,-378 641.5,-356 385.5,-356"/>
<image xlink:href="../../images/primaryKeys.png" width="11px" height="12px" preserveAspectRatio="xMinYMin meet" x="390.5" y="-373"/>
<text text-anchor="start" x="405.5" y="-364.2" font-family="Helvetica,sans-Serif" font-size="11.00">id</text>
<polygon fill="none" stroke="black" points="641.5,-356 641.5,-378 734.5,-378 734.5,-356 641.5,-356"/>
<text text-anchor="start" x="644.5" y="-364.2" font-family="Helvetica,sans-Serif" font-size="11.00">uuid[2147483647]</text>
<polygon fill="none" stroke="black" points="385.5,-334 385.5,-356 641.5,-356 641.5,-334 385.5,-334"/>
<image xlink:href="../../images/foreignKeys.png" width="11px" height="12px" preserveAspectRatio="xMinYMin meet" x="390.5" y="-351"/>
<text text-anchor="start" x="405.5" y="-342.2" font-family="Helvetica,sans-Serif" font-size="11.00">country_id</text>
<polygon fill="none" stroke="black" points="641.5,-334 641.5,-356 734.5,-356 734.5,-334 641.5,-334"/>
<text text-anchor="start" x="644.5" y="-342.2" font-family="Helvetica,sans-Serif" font-size="11.00">uuid[2147483647]</text>
<polygon fill="none" stroke="black" points="385.5,-312 385.5,-334 641.5,-334 641.5,-312 385.5,-312"/>
<image xlink:href="../../images/foreignKeys.png" width="11px" height="12px" preserveAspectRatio="xMinYMin meet" x="390.5" y="-329"/>
<text text-anchor="start" x="405.5" y="-320.2" font-family="Helvetica,sans-Serif" font-size="11.00">name_format_id</text>
<polygon fill="none" stroke="black" points="641.5,-312 641.5,-334 734.5,-334 734.5,-312 641.5,-312"/>
<text text-anchor="start" x="644.5" y="-320.2" font-family="Helvetica,sans-Serif" font-size="11.00">uuid[2147483647]</text>
<polygon fill="none" stroke="black" points="385.5,-290 385.5,-312 641.5,-312 641.5,-290 385.5,-290"/>
<text text-anchor="start" x="405.5" y="-298.2" font-family="Helvetica,sans-Serif" font-size="11.00">is_default_for_country</text>
<polygon fill="none" stroke="black" points="641.5,-290 641.5,-312 734.5,-312 734.5,-290 641.5,-290"/>
<text text-anchor="start" x="644.5" y="-298.2" font-family="Helvetica,sans-Serif" font-size="11.00">bool[1]</text>
<polygon fill="none" stroke="black" points="385.5,-268 385.5,-290 641.5,-290 641.5,-268 385.5,-268"/>
<text text-anchor="start" x="405.5" y="-276.2" font-family="Helvetica,sans-Serif" font-size="11.00">diag_timestamp_created</text>
<polygon fill="none" stroke="black" points="641.5,-268 641.5,-290 734.5,-290 734.5,-268 641.5,-268"/>
<text text-anchor="start" x="644.5" y="-276.2" font-family="Helvetica,sans-Serif" font-size="11.00">timestamptz[35,6]</text>
<polygon fill="none" stroke="black" points="385.5,-246 385.5,-268 641.5,-268 641.5,-246 385.5,-246"/>
<text text-anchor="start" x="405.5" y="-254.2" font-family="Helvetica,sans-Serif" font-size="11.00">diag_role_created</text>
<polygon fill="none" stroke="black" points="641.5,-246 641.5,-268 734.5,-268 734.5,-246 641.5,-246"/>
<text text-anchor="start" x="644.5" y="-254.2" font-family="Helvetica,sans-Serif" font-size="11.00">text[2147483647]</text>
<polygon fill="none" stroke="black" points="385.5,-224 385.5,-246 641.5,-246 641.5,-224 385.5,-224"/>
<text text-anchor="start" x="405.5" y="-232.2" font-family="Helvetica,sans-Serif" font-size="11.00">diag_timestamp_modified</text>
<polygon fill="none" stroke="black" points="641.5,-224 641.5,-246 734.5,-246 734.5,-224 641.5,-224"/>
<text text-anchor="start" x="644.5" y="-232.2" font-family="Helvetica,sans-Serif" font-size="11.00">timestamptz[35,6]</text>
<polygon fill="none" stroke="black" points="385.5,-202 385.5,-224 641.5,-224 641.5,-202 385.5,-202"/>
<text text-anchor="start" x="405.5" y="-210.2" font-family="Helvetica,sans-Serif" font-size="11.00">diag_wallclock_modified</text>
<polygon fill="none" stroke="black" points="641.5,-202 641.5,-224 734.5,-224 734.5,-202 641.5,-202"/>
<text text-anchor="start" x="644.5" y="-210.2" font-family="Helvetica,sans-Serif" font-size="11.00">timestamptz[35,6]</text>
<polygon fill="none" stroke="black" points="385.5,-180 385.5,-202 641.5,-202 641.5,-180 385.5,-180"/>
<text text-anchor="start" x="405.5" y="-188.2" font-family="Helvetica,sans-Serif" font-size="11.00">diag_role_modified</text>
<polygon fill="none" stroke="black" points="641.5,-180 641.5,-202 734.5,-202 734.5,-180 641.5,-180"/>
<text text-anchor="start" x="644.5" y="-188.2" font-family="Helvetica,sans-Serif" font-size="11.00">text[2147483647]</text>
<polygon fill="none" stroke="black" points="385.5,-158 385.5,-180 641.5,-180 641.5,-158 385.5,-158"/>
<text text-anchor="start" x="405.5" y="-166.2" font-family="Helvetica,sans-Serif" font-size="11.00">diag_row_version</text>
<polygon fill="none" stroke="black" points="641.5,-158 641.5,-180 734.5,-180 734.5,-158 641.5,-158"/>
<text text-anchor="start" x="644.5" y="-166.2" font-family="Helvetica,sans-Serif" font-size="11.00">int8[19]</text>
<polygon fill="none" stroke="black" points="385.5,-136 385.5,-158 641.5,-158 641.5,-136 385.5,-136"/>
<text text-anchor="start" x="405.5" y="-144.2" font-family="Helvetica,sans-Serif" font-size="11.00">diag_update_count</text>
<polygon fill="none" stroke="black" points="641.5,-136 641.5,-158 734.5,-158 734.5,-136 641.5,-136"/>
<text text-anchor="start" x="644.5" y="-144.2" font-family="Helvetica,sans-Serif" font-size="11.00">int8[19]</text>
<polygon fill="#ffffff" stroke="transparent" points="385.5,-118 385.5,-136 517.5,-136 517.5,-118 385.5,-118"/>
<polygon fill="none" stroke="black" points="385.5,-118 385.5,-136 517.5,-136 517.5,-118 385.5,-118"/>
<text text-anchor="start" x="388.5" y="-124.2" font-family="Helvetica,sans-Serif" font-size="11.00">&lt; 2</text>
<polygon fill="#ffffff" stroke="transparent" points="517.5,-118 517.5,-136 641.5,-136 641.5,-118 517.5,-118"/>
<polygon fill="none" stroke="black" points="517.5,-118 517.5,-136 641.5,-136 641.5,-118 517.5,-118"/>
<text text-anchor="start" x="631.5" y="-124.2" font-family="Helvetica,sans-Serif" font-size="11.00"> &#160;</text>
<polygon fill="#ffffff" stroke="transparent" points="641.5,-118 641.5,-136 734.5,-136 734.5,-118 641.5,-118"/>
<polygon fill="none" stroke="black" points="641.5,-118 641.5,-136 734.5,-136 734.5,-118 641.5,-118"/>
<text text-anchor="start" x="715.5" y="-124.2" font-family="Helvetica,sans-Serif" font-size="11.00">0 &gt;</text>
<polygon fill="none" stroke="black" stroke-width="2" points="384,-117 384,-401 735,-401 735,-117 384,-117"/>
</a>
</g>
</g>
<!-- mstr_country_name_format_assocs&#45;&gt;ms_syst_data.syst_complex_format_values -->
<g id="edge4" class="edge">
<title>mstr_country_name_format_assocs:w&#45;&gt;ms_syst_data.syst_complex_format_values:e</title>
<path fill="none" stroke="black" d="M370.38,-319.46C360.82,-313.7 356.99,-302.31 342,-296 336.27,-293.59 330.37,-291.31 324.36,-289.15"/>
<polygon fill="black" stroke="black" points="376.74,-321.06 383.63,-326.49 380.62,-322.03 384.5,-323 384.5,-323 384.5,-323 380.62,-322.03 385.37,-319.51 376.74,-321.06 376.74,-321.06"/>
<ellipse fill="none" stroke="black" cx="373.64" cy="-320.28" rx="3.2" ry="3.2"/>
</g>
<!-- mstr_country_name_format_assocs&#45;&gt;mstr_countries -->
<g id="edge3" class="edge">
<title>mstr_country_name_format_assocs:w&#45;&gt;mstr_countries:e</title>
<path fill="none" stroke="black" d="M369.88,-347.23C340.14,-357.19 337.92,-397 299,-397"/>
<polygon fill="black" stroke="black" points="376.59,-346.21 385.04,-348.56 380.55,-345.6 384.5,-345 384.5,-345 384.5,-345 380.55,-345.6 383.96,-341.44 376.59,-346.21 376.59,-346.21"/>
<ellipse fill="none" stroke="black" cx="373.43" cy="-346.69" rx="3.2" ry="3.2"/>
</g>
<!-- mstr_country_phone_format_assocs -->
<g id="node5" class="node">
<title>mstr_country_phone_format_assocs</title>
<g id="a_node5"><a xlink:href="../../tables/mstr_country_phone_format_assocs.html" xlink:title="mstr_country_phone_format_assocs" target="_top">
<polygon fill="#ffffff" stroke="transparent" points="420,-37 420,-95 699,-95 699,-37 420,-37"/>
<polygon fill="#f5f5f5" stroke="transparent" points="420.5,-73 420.5,-95 699.5,-95 699.5,-73 420.5,-73"/>
<polygon fill="none" stroke="black" points="420.5,-73 420.5,-95 699.5,-95 699.5,-73 420.5,-73"/>
<text text-anchor="start" x="425.5" y="-82.2" font-family="Helvetica,sans-Serif" font-weight="bold" font-size="11.00">mstr_country_phone_format_assocs</text>
<text text-anchor="start" x="664.5" y="-81.2" font-family="Helvetica,sans-Serif" font-size="11.00">[table]</text>
<polygon fill="none" stroke="black" points="420.5,-55 420.5,-73 699.5,-73 699.5,-55 420.5,-55"/>
<text text-anchor="start" x="423.5" y="-61.2" font-family="Helvetica,sans-Serif" font-size="11.00">...</text>
<polygon fill="#ffffff" stroke="transparent" points="420.5,-37 420.5,-55 557.5,-55 557.5,-37 420.5,-37"/>
<polygon fill="none" stroke="black" points="420.5,-37 420.5,-55 557.5,-55 557.5,-37 420.5,-37"/>
<text text-anchor="start" x="423.5" y="-43.2" font-family="Helvetica,sans-Serif" font-size="11.00">&lt; 2</text>
<polygon fill="#ffffff" stroke="transparent" points="557.5,-37 557.5,-55 628.5,-55 628.5,-37 557.5,-37"/>
<polygon fill="none" stroke="black" points="557.5,-37 557.5,-55 628.5,-55 628.5,-37 557.5,-37"/>
<text text-anchor="start" x="618.5" y="-43.2" font-family="Helvetica,sans-Serif" font-size="11.00"> &#160;</text>
<polygon fill="#ffffff" stroke="transparent" points="628.5,-37 628.5,-55 699.5,-55 699.5,-37 628.5,-37"/>
<polygon fill="none" stroke="black" points="628.5,-37 628.5,-55 699.5,-55 699.5,-37 628.5,-37"/>
<text text-anchor="start" x="689.5" y="-43.2" font-family="Helvetica,sans-Serif" font-size="11.00"> &#160;</text>
</a>
</g>
</g>
<!-- mstr_country_phone_format_assocs&#45;&gt;ms_syst_data.syst_complex_format_values -->
<g id="edge6" class="edge">
<title>mstr_country_phone_format_assocs:w&#45;&gt;ms_syst_data.syst_complex_format_values:e</title>
<path fill="none" stroke="black" d="M404.9,-64.7C308.89,-73.85 229.43,-170.73 193.17,-222.99"/>
<polygon fill="black" stroke="black" points="411.51,-64.38 419.67,-67.6 415.5,-64.19 419.5,-64 419.5,-64 419.5,-64 415.5,-64.19 419.33,-60.4 411.51,-64.38 411.51,-64.38"/>
<ellipse fill="none" stroke="black" cx="408.31" cy="-64.54" rx="3.2" ry="3.2"/>
</g>
<!-- mstr_country_phone_format_assocs&#45;&gt;mstr_countries -->
<g id="edge5" class="edge">
<title>mstr_country_phone_format_assocs:w&#45;&gt;mstr_countries:e</title>
<path fill="none" stroke="black" d="M404.96,-65.08C274.62,-85.75 451.17,-397 299,-397"/>
<polygon fill="black" stroke="black" points="411.52,-64.59 419.77,-67.59 415.51,-64.3 419.5,-64 419.5,-64 419.5,-64 415.51,-64.3 419.23,-60.41 411.52,-64.59 411.52,-64.59"/>
<ellipse fill="none" stroke="black" cx="408.33" cy="-64.83" rx="3.2" ry="3.2"/>
</g>
</g>
</svg>
