<?xml version="1.0" encoding="UTF-8" standalone="no"?>
<!DOCTYPE svg PUBLIC "-//W3C//DTD SVG 1.1//EN"
 "http://www.w3.org/Graphics/SVG/1.1/DTD/svg11.dtd">
<!-- Generated by graphviz version 2.43.0 (0)
 -->
<!-- Title: oneDegreeRelationshipsDiagram Pages: 1 -->
<svg width="1142pt" height="601pt"
 viewBox="0.00 0.00 1142.00 600.98" xmlns="http://www.w3.org/2000/svg" xmlns:xlink="http://www.w3.org/1999/xlink">
<g id="graph0" class="graph" transform="scale(1 1) rotate(0) translate(4 596.98)">
<title>oneDegreeRelationshipsDiagram</title>
<polygon fill="#ffffff" stroke="transparent" points="-4,4 -4,-596.98 1138,-596.98 1138,4 -4,4"/>
<text text-anchor="middle" x="71.5" y="-7.2" font-family="Helvetica,sans-Serif" font-size="11.00">Generated by SchemaSpy</text>
<!-- mstr_entities -->
<g id="node1" class="node">
<title>mstr_entities</title>
<g id="a_node1"><a xlink:href="../../tables/mstr_entities.html" xlink:title="mstr_entities" target="_top">
<polygon fill="#ffffff" stroke="transparent" points="306,-307.98 306,-497.98 500,-497.98 500,-307.98 306,-307.98"/>
<polygon fill="#f5f5f5" stroke="transparent" points="306,-475.98 306,-497.98 500,-497.98 500,-475.98 306,-475.98"/>
<polygon fill="none" stroke="black" points="306,-475.98 306,-497.98 500,-497.98 500,-475.98 306,-475.98"/>
<text text-anchor="start" x="311" y="-485.18" font-family="Helvetica,sans-Serif" font-weight="bold" font-size="11.00">mstr_entities</text>
<text text-anchor="start" x="465" y="-484.18" font-family="Helvetica,sans-Serif" font-size="11.00">[table]</text>
<polygon fill="none" stroke="black" points="306,-453.98 306,-475.98 500,-475.98 500,-453.98 306,-453.98"/>
<image xlink:href="../../images/primaryKeys.png" width="11px" height="12px" preserveAspectRatio="xMinYMin meet" x="311" y="-470.979"/>
<text text-anchor="start" x="326" y="-462.18" font-family="Helvetica,sans-Serif" font-size="11.00">id</text>
<polygon fill="none" stroke="black" points="306,-431.98 306,-453.98 500,-453.98 500,-431.98 306,-431.98"/>
<image xlink:href="../../images/foreignKeys.png" width="11px" height="12px" preserveAspectRatio="xMinYMin meet" x="311" y="-448.979"/>
<text text-anchor="start" x="326" y="-440.18" font-family="Helvetica,sans-Serif" font-size="11.00">owning_entity_id</text>
<polygon fill="#ffffff" stroke="transparent" points="306,-409.98 306,-431.98 500,-431.98 500,-409.98 306,-409.98"/>
<polygon fill="none" stroke="black" points="306,-409.98 306,-431.98 500,-431.98 500,-409.98 306,-409.98"/>
<text text-anchor="start" x="326" y="-418.18" font-family="Helvetica,sans-Serif" font-size="11.00">internal_name</text>
<polygon fill="#ffffff" stroke="transparent" points="306,-387.98 306,-409.98 500,-409.98 500,-387.98 306,-387.98"/>
<polygon fill="none" stroke="black" points="306,-387.98 306,-409.98 500,-409.98 500,-387.98 306,-387.98"/>
<text text-anchor="start" x="326" y="-396.18" font-family="Helvetica,sans-Serif" font-size="11.00">display_name</text>
<polygon fill="none" stroke="black" points="306,-365.98 306,-387.98 500,-387.98 500,-365.98 306,-365.98"/>
<image xlink:href="../../images/foreignKeys.png" width="11px" height="12px" preserveAspectRatio="xMinYMin meet" x="311" y="-382.979"/>
<text text-anchor="start" x="326" y="-374.18" font-family="Helvetica,sans-Serif" font-size="11.00">entity_type_id</text>
<polygon fill="none" stroke="black" points="306,-343.98 306,-365.98 500,-365.98 500,-343.98 306,-343.98"/>
<image xlink:href="../../images/foreignKeys.png" width="11px" height="12px" preserveAspectRatio="xMinYMin meet" x="311" y="-360.979"/>
<text text-anchor="start" x="326" y="-352.18" font-family="Helvetica,sans-Serif" font-size="11.00">entity_state_id</text>
<polygon fill="none" stroke="black" points="306,-325.98 306,-343.98 500,-343.98 500,-325.98 306,-325.98"/>
<text text-anchor="start" x="309" y="-332.18" font-family="Helvetica,sans-Serif" font-size="11.00">...</text>
<polygon fill="#ffffff" stroke="transparent" points="306,-307.98 306,-325.98 393,-325.98 393,-307.98 306,-307.98"/>
<polygon fill="none" stroke="black" points="306,-307.98 306,-325.98 393,-325.98 393,-307.98 306,-307.98"/>
<text text-anchor="start" x="309" y="-314.18" font-family="Helvetica,sans-Serif" font-size="11.00">&lt; 3</text>
<polygon fill="#ffffff" stroke="transparent" points="393,-307.98 393,-325.98 439,-325.98 439,-307.98 393,-307.98"/>
<polygon fill="none" stroke="black" points="393,-307.98 393,-325.98 439,-325.98 439,-307.98 393,-307.98"/>
<text text-anchor="start" x="429" y="-314.18" font-family="Helvetica,sans-Serif" font-size="11.00"> &#160;</text>
<polygon fill="#ffffff" stroke="transparent" points="439,-307.98 439,-325.98 500,-325.98 500,-307.98 439,-307.98"/>
<polygon fill="none" stroke="black" points="439,-307.98 439,-325.98 500,-325.98 500,-307.98 439,-307.98"/>
<text text-anchor="start" x="475" y="-314.18" font-family="Helvetica,sans-Serif" font-size="11.00">15 &gt;</text>
</a>
</g>
</g>
<!-- ms_syst_data.syst_enum_items -->
<g id="node2" class="node">
<title>ms_syst_data.syst_enum_items</title>
<g id="a_node2"><a xlink:href="../../../ms_syst_data/tables/syst_enum_items.html" xlink:title="ms_syst_data.syst_enum_items" target="_top">
<polygon fill="#ffffff" stroke="transparent" points="8,-254.98 8,-312.98 257,-312.98 257,-254.98 8,-254.98"/>
<polygon fill="#f5f5f5" stroke="transparent" points="8.5,-290.98 8.5,-312.98 257.5,-312.98 257.5,-290.98 8.5,-290.98"/>
<polygon fill="none" stroke="black" points="8.5,-290.98 8.5,-312.98 257.5,-312.98 257.5,-290.98 8.5,-290.98"/>
<text text-anchor="start" x="13.5" y="-300.18" font-family="Helvetica,sans-Serif" font-weight="bold" font-size="11.00">ms_syst_data.syst_enum_items</text>
<text text-anchor="start" x="222.5" y="-299.18" font-family="Helvetica,sans-Serif" font-size="11.00">[table]</text>
<polygon fill="none" stroke="black" points="8.5,-272.98 8.5,-290.98 257.5,-290.98 257.5,-272.98 8.5,-272.98"/>
<text text-anchor="start" x="11.5" y="-279.18" font-family="Helvetica,sans-Serif" font-size="11.00">...</text>
<polygon fill="#ffffff" stroke="transparent" points="8.5,-254.98 8.5,-272.98 118.5,-272.98 118.5,-254.98 8.5,-254.98"/>
<polygon fill="none" stroke="black" points="8.5,-254.98 8.5,-272.98 118.5,-272.98 118.5,-254.98 8.5,-254.98"/>
<text text-anchor="start" x="11.5" y="-261.18" font-family="Helvetica,sans-Serif" font-size="11.00"> &#160;</text>
<polygon fill="#ffffff" stroke="transparent" points="118.5,-254.98 118.5,-272.98 180.5,-272.98 180.5,-254.98 118.5,-254.98"/>
<polygon fill="none" stroke="black" points="118.5,-254.98 118.5,-272.98 180.5,-272.98 180.5,-254.98 118.5,-254.98"/>
<text text-anchor="start" x="170.5" y="-261.18" font-family="Helvetica,sans-Serif" font-size="11.00"> &#160;</text>
<polygon fill="#ffffff" stroke="transparent" points="180.5,-254.98 180.5,-272.98 257.5,-272.98 257.5,-254.98 180.5,-254.98"/>
<polygon fill="none" stroke="black" points="180.5,-254.98 180.5,-272.98 257.5,-272.98 257.5,-254.98 180.5,-254.98"/>
<text text-anchor="start" x="232.5" y="-261.18" font-family="Helvetica,sans-Serif" font-size="11.00">10 &gt;</text>
</a>
</g>
</g>
<!-- mstr_entities&#45;&gt;ms_syst_data.syst_enum_items -->
<g id="edge1" class="edge">
<title>mstr_entities:w&#45;&gt;ms_syst_data.syst_enum_items:e</title>
<path fill="none" stroke="black" d="M290.53,-354.28C251.95,-350.66 213.17,-333.46 183.8,-316.98"/>
<polygon fill="black" stroke="black" points="297.01,-354.59 304.83,-358.57 301,-354.79 305,-354.98 305,-354.98 305,-354.98 301,-354.79 305.17,-351.38 297.01,-354.59 297.01,-354.59"/>
<ellipse fill="none" stroke="black" cx="293.81" cy="-354.44" rx="3.2" ry="3.2"/>
</g>
<!-- mstr_entities&#45;&gt;ms_syst_data.syst_enum_items -->
<g id="edge2" class="edge">
<title>mstr_entities:w&#45;&gt;ms_syst_data.syst_enum_items:e</title>
<path fill="none" stroke="black" d="M290.46,-376.14C243.75,-370.81 198.97,-341.25 169.28,-317.03"/>
<polygon fill="black" stroke="black" points="297.01,-376.52 304.79,-380.57 301.01,-376.75 305,-376.98 305,-376.98 305,-376.98 301.01,-376.75 305.21,-373.38 297.01,-376.52 297.01,-376.52"/>
<ellipse fill="none" stroke="black" cx="293.82" cy="-376.33" rx="3.2" ry="3.2"/>
</g>
<!-- mstr_entity_facility_places -->
<g id="node3" class="node">
<title>mstr_entity_facility_places</title>
<g id="a_node3"><a xlink:href="../../tables/mstr_entity_facility_places.html" xlink:title="mstr_entity_facility_places" target="_top">
<polygon fill="#ffffff" stroke="transparent" points="898.5,-464.98 898.5,-588.98 1116.5,-588.98 1116.5,-464.98 898.5,-464.98"/>
<polygon fill="#f5f5f5" stroke="transparent" points="898.5,-566.98 898.5,-588.98 1116.5,-588.98 1116.5,-566.98 898.5,-566.98"/>
<polygon fill="none" stroke="black" points="898.5,-566.98 898.5,-588.98 1116.5,-588.98 1116.5,-566.98 898.5,-566.98"/>
<text text-anchor="start" x="903.5" y="-576.18" font-family="Helvetica,sans-Serif" font-weight="bold" font-size="11.00">mstr_entity_facility_places</text>
<text text-anchor="start" x="1081.5" y="-575.18" font-family="Helvetica,sans-Serif" font-size="11.00">[table]</text>
<polygon fill="none" stroke="black" points="898.5,-544.98 898.5,-566.98 1116.5,-566.98 1116.5,-544.98 898.5,-544.98"/>
<image xlink:href="../../images/primaryKeys.png" width="11px" height="12px" preserveAspectRatio="xMinYMin meet" x="903.5" y="-561.979"/>
<text text-anchor="start" x="928.5" y="-553.18" font-family="Helvetica,sans-Serif" font-size="11.00">id</text>
<polygon fill="none" stroke="black" points="898.5,-522.98 898.5,-544.98 1116.5,-544.98 1116.5,-522.98 898.5,-522.98"/>
<image xlink:href="../../images/foreignKeys.png" width="11px" height="12px" preserveAspectRatio="xMinYMin meet" x="903.5" y="-539.979"/>
<text text-anchor="start" x="928.5" y="-531.18" font-family="Helvetica,sans-Serif" font-size="11.00">place_id</text>
<polygon fill="none" stroke="black" points="898.5,-500.98 898.5,-522.98 1116.5,-522.98 1116.5,-500.98 898.5,-500.98"/>
<image xlink:href="../../images/foreignKeys.png" width="11px" height="12px" preserveAspectRatio="xMinYMin meet" x="903.5" y="-517.979"/>
<text text-anchor="start" x="928.5" y="-509.18" font-family="Helvetica,sans-Serif" font-size="11.00">owning_entity_id</text>
<polygon fill="none" stroke="black" points="898.5,-482.98 898.5,-500.98 1116.5,-500.98 1116.5,-482.98 898.5,-482.98"/>
<text text-anchor="start" x="901.5" y="-489.18" font-family="Helvetica,sans-Serif" font-size="11.00">...</text>
<polygon fill="#ffffff" stroke="transparent" points="898.5,-464.98 898.5,-482.98 1005.5,-482.98 1005.5,-464.98 898.5,-464.98"/>
<polygon fill="none" stroke="black" points="898.5,-464.98 898.5,-482.98 1005.5,-482.98 1005.5,-464.98 898.5,-464.98"/>
<text text-anchor="start" x="901.5" y="-471.18" font-family="Helvetica,sans-Serif" font-size="11.00">&lt; 2</text>
<polygon fill="#ffffff" stroke="transparent" points="1005.5,-464.98 1005.5,-482.98 1060.5,-482.98 1060.5,-464.98 1005.5,-464.98"/>
<polygon fill="none" stroke="black" points="1005.5,-464.98 1005.5,-482.98 1060.5,-482.98 1060.5,-464.98 1005.5,-464.98"/>
<text text-anchor="start" x="1050.5" y="-471.18" font-family="Helvetica,sans-Serif" font-size="11.00"> &#160;</text>
<polygon fill="#ffffff" stroke="transparent" points="1060.5,-464.98 1060.5,-482.98 1116.5,-482.98 1116.5,-464.98 1060.5,-464.98"/>
<polygon fill="none" stroke="black" points="1060.5,-464.98 1060.5,-482.98 1116.5,-482.98 1116.5,-464.98 1060.5,-464.98"/>
<text text-anchor="start" x="1106.5" y="-471.18" font-family="Helvetica,sans-Serif" font-size="11.00"> &#160;</text>
</a>
</g>
</g>
<!-- mstr_entity_facility_places&#45;&gt;mstr_entities -->
<g id="edge3" class="edge">
<title>mstr_entity_facility_places:w&#45;&gt;mstr_entities:e</title>
<path fill="none" stroke="black" d="M882.9,-511.94C735.55,-511.21 693.3,-499.14 541,-473.98 523.02,-471.01 519.22,-464.98 501,-464.98"/>
<polygon fill="black" stroke="black" points="889.5,-511.96 897.49,-515.58 893.5,-511.97 897.5,-511.98 897.5,-511.98 897.5,-511.98 893.5,-511.97 897.51,-508.38 889.5,-511.96 889.5,-511.96"/>
<ellipse fill="none" stroke="black" cx="886.3" cy="-511.95" rx="3.2" ry="3.2"/>
</g>
<!-- mstr_places -->
<g id="node4" class="node">
<title>mstr_places</title>
<g id="a_node4"><a xlink:href="../../tables/mstr_places.html" xlink:title="mstr_places" target="_top">
<polygon fill="#ffffff" stroke="transparent" points="549,-79.98 549,-431.98 840,-431.98 840,-79.98 549,-79.98"/>
<polygon fill="#f5f5f5" stroke="transparent" points="551.5,-407.98 551.5,-429.98 838.5,-429.98 838.5,-407.98 551.5,-407.98"/>
<polygon fill="none" stroke="black" points="551.5,-407.98 551.5,-429.98 838.5,-429.98 838.5,-407.98 551.5,-407.98"/>
<text text-anchor="start" x="556.5" y="-417.18" font-family="Helvetica,sans-Serif" font-weight="bold" font-size="11.00">mstr_places</text>
<text text-anchor="start" x="803.5" y="-416.18" font-family="Helvetica,sans-Serif" font-size="11.00">[table]</text>
<polygon fill="none" stroke="black" points="551.5,-385.98 551.5,-407.98 745.5,-407.98 745.5,-385.98 551.5,-385.98"/>
<image xlink:href="../../images/primaryKeys.png" width="11px" height="12px" preserveAspectRatio="xMinYMin meet" x="556.5" y="-402.979"/>
<text text-anchor="start" x="571.5" y="-394.18" font-family="Helvetica,sans-Serif" font-size="11.00">id</text>
<polygon fill="none" stroke="black" points="745.5,-385.98 745.5,-407.98 838.5,-407.98 838.5,-385.98 745.5,-385.98"/>
<text text-anchor="start" x="748.5" y="-394.18" font-family="Helvetica,sans-Serif" font-size="11.00">uuid[2147483647]</text>
<polygon fill="none" stroke="black" points="551.5,-363.98 551.5,-385.98 745.5,-385.98 745.5,-363.98 551.5,-363.98"/>
<image xlink:href="../../images/foreignKeys.png" width="11px" height="12px" preserveAspectRatio="xMinYMin meet" x="556.5" y="-380.979"/>
<text text-anchor="start" x="571.5" y="-372.18" font-family="Helvetica,sans-Serif" font-size="11.00">owning_entity_id</text>
<polygon fill="none" stroke="black" points="745.5,-363.98 745.5,-385.98 838.5,-385.98 838.5,-363.98 745.5,-363.98"/>
<text text-anchor="start" x="748.5" y="-372.18" font-family="Helvetica,sans-Serif" font-size="11.00">uuid[2147483647]</text>
<polygon fill="#ffffff" stroke="transparent" points="551.5,-341.98 551.5,-363.98 745.5,-363.98 745.5,-341.98 551.5,-341.98"/>
<polygon fill="none" stroke="black" points="551.5,-341.98 551.5,-363.98 745.5,-363.98 745.5,-341.98 551.5,-341.98"/>
<text text-anchor="start" x="571.5" y="-350.18" font-family="Helvetica,sans-Serif" font-size="11.00">internal_name</text>
<polygon fill="none" stroke="black" points="745.5,-341.98 745.5,-363.98 838.5,-363.98 838.5,-341.98 745.5,-341.98"/>
<text text-anchor="start" x="748.5" y="-350.18" font-family="Helvetica,sans-Serif" font-size="11.00">text[2147483647]</text>
<polygon fill="#ffffff" stroke="transparent" points="551.5,-319.98 551.5,-341.98 745.5,-341.98 745.5,-319.98 551.5,-319.98"/>
<polygon fill="none" stroke="black" points="551.5,-319.98 551.5,-341.98 745.5,-341.98 745.5,-319.98 551.5,-319.98"/>
<text text-anchor="start" x="571.5" y="-328.18" font-family="Helvetica,sans-Serif" font-size="11.00">display_name</text>
<polygon fill="none" stroke="black" points="745.5,-319.98 745.5,-341.98 838.5,-341.98 838.5,-319.98 745.5,-319.98"/>
<text text-anchor="start" x="748.5" y="-328.18" font-family="Helvetica,sans-Serif" font-size="11.00">text[2147483647]</text>
<polygon fill="none" stroke="black" points="551.5,-297.98 551.5,-319.98 745.5,-319.98 745.5,-297.98 551.5,-297.98"/>
<text text-anchor="start" x="571.5" y="-306.18" font-family="Helvetica,sans-Serif" font-size="11.00">external_name</text>
<polygon fill="none" stroke="black" points="745.5,-297.98 745.5,-319.98 838.5,-319.98 838.5,-297.98 745.5,-297.98"/>
<text text-anchor="start" x="748.5" y="-306.18" font-family="Helvetica,sans-Serif" font-size="11.00">text[2147483647]</text>
<polygon fill="none" stroke="black" points="551.5,-275.98 551.5,-297.98 745.5,-297.98 745.5,-275.98 551.5,-275.98"/>
<image xlink:href="../../images/foreignKeys.png" width="11px" height="12px" preserveAspectRatio="xMinYMin meet" x="556.5" y="-292.979"/>
<text text-anchor="start" x="571.5" y="-284.18" font-family="Helvetica,sans-Serif" font-size="11.00">place_type_id</text>
<polygon fill="none" stroke="black" points="745.5,-275.98 745.5,-297.98 838.5,-297.98 838.5,-275.98 745.5,-275.98"/>
<text text-anchor="start" x="748.5" y="-284.18" font-family="Helvetica,sans-Serif" font-size="11.00">uuid[2147483647]</text>
<polygon fill="none" stroke="black" points="551.5,-253.98 551.5,-275.98 745.5,-275.98 745.5,-253.98 551.5,-253.98"/>
<image xlink:href="../../images/foreignKeys.png" width="11px" height="12px" preserveAspectRatio="xMinYMin meet" x="556.5" y="-270.979"/>
<text text-anchor="start" x="571.5" y="-262.18" font-family="Helvetica,sans-Serif" font-size="11.00">place_state_id</text>
<polygon fill="none" stroke="black" points="745.5,-253.98 745.5,-275.98 838.5,-275.98 838.5,-253.98 745.5,-253.98"/>
<text text-anchor="start" x="748.5" y="-262.18" font-family="Helvetica,sans-Serif" font-size="11.00">uuid[2147483647]</text>
<polygon fill="none" stroke="black" points="551.5,-231.98 551.5,-253.98 745.5,-253.98 745.5,-231.98 551.5,-231.98"/>
<text text-anchor="start" x="571.5" y="-240.18" font-family="Helvetica,sans-Serif" font-size="11.00">diag_timestamp_created</text>
<polygon fill="none" stroke="black" points="745.5,-231.98 745.5,-253.98 838.5,-253.98 838.5,-231.98 745.5,-231.98"/>
<text text-anchor="start" x="748.5" y="-240.18" font-family="Helvetica,sans-Serif" font-size="11.00">timestamptz[35,6]</text>
<polygon fill="none" stroke="black" points="551.5,-209.98 551.5,-231.98 745.5,-231.98 745.5,-209.98 551.5,-209.98"/>
<text text-anchor="start" x="571.5" y="-218.18" font-family="Helvetica,sans-Serif" font-size="11.00">diag_role_created</text>
<polygon fill="none" stroke="black" points="745.5,-209.98 745.5,-231.98 838.5,-231.98 838.5,-209.98 745.5,-209.98"/>
<text text-anchor="start" x="748.5" y="-218.18" font-family="Helvetica,sans-Serif" font-size="11.00">text[2147483647]</text>
<polygon fill="none" stroke="black" points="551.5,-187.98 551.5,-209.98 745.5,-209.98 745.5,-187.98 551.5,-187.98"/>
<text text-anchor="start" x="571.5" y="-196.18" font-family="Helvetica,sans-Serif" font-size="11.00">diag_timestamp_modified</text>
<polygon fill="none" stroke="black" points="745.5,-187.98 745.5,-209.98 838.5,-209.98 838.5,-187.98 745.5,-187.98"/>
<text text-anchor="start" x="748.5" y="-196.18" font-family="Helvetica,sans-Serif" font-size="11.00">timestamptz[35,6]</text>
<polygon fill="none" stroke="black" points="551.5,-165.98 551.5,-187.98 745.5,-187.98 745.5,-165.98 551.5,-165.98"/>
<text text-anchor="start" x="571.5" y="-174.18" font-family="Helvetica,sans-Serif" font-size="11.00">diag_wallclock_modified</text>
<polygon fill="none" stroke="black" points="745.5,-165.98 745.5,-187.98 838.5,-187.98 838.5,-165.98 745.5,-165.98"/>
<text text-anchor="start" x="748.5" y="-174.18" font-family="Helvetica,sans-Serif" font-size="11.00">timestamptz[35,6]</text>
<polygon fill="none" stroke="black" points="551.5,-143.98 551.5,-165.98 745.5,-165.98 745.5,-143.98 551.5,-143.98"/>
<text text-anchor="start" x="571.5" y="-152.18" font-family="Helvetica,sans-Serif" font-size="11.00">diag_role_modified</text>
<polygon fill="none" stroke="black" points="745.5,-143.98 745.5,-165.98 838.5,-165.98 838.5,-143.98 745.5,-143.98"/>
<text text-anchor="start" x="748.5" y="-152.18" font-family="Helvetica,sans-Serif" font-size="11.00">text[2147483647]</text>
<polygon fill="none" stroke="black" points="551.5,-121.98 551.5,-143.98 745.5,-143.98 745.5,-121.98 551.5,-121.98"/>
<text text-anchor="start" x="571.5" y="-130.18" font-family="Helvetica,sans-Serif" font-size="11.00">diag_row_version</text>
<polygon fill="none" stroke="black" points="745.5,-121.98 745.5,-143.98 838.5,-143.98 838.5,-121.98 745.5,-121.98"/>
<text text-anchor="start" x="748.5" y="-130.18" font-family="Helvetica,sans-Serif" font-size="11.00">int8[19]</text>
<polygon fill="none" stroke="black" points="551.5,-99.98 551.5,-121.98 745.5,-121.98 745.5,-99.98 551.5,-99.98"/>
<text text-anchor="start" x="571.5" y="-108.18" font-family="Helvetica,sans-Serif" font-size="11.00">diag_update_count</text>
<polygon fill="none" stroke="black" points="745.5,-99.98 745.5,-121.98 838.5,-121.98 838.5,-99.98 745.5,-99.98"/>
<text text-anchor="start" x="748.5" y="-108.18" font-family="Helvetica,sans-Serif" font-size="11.00">int8[19]</text>
<polygon fill="#ffffff" stroke="transparent" points="551.5,-81.98 551.5,-99.98 652.5,-99.98 652.5,-81.98 551.5,-81.98"/>
<polygon fill="none" stroke="black" points="551.5,-81.98 551.5,-99.98 652.5,-99.98 652.5,-81.98 551.5,-81.98"/>
<text text-anchor="start" x="554.5" y="-88.18" font-family="Helvetica,sans-Serif" font-size="11.00">&lt; 3</text>
<polygon fill="#ffffff" stroke="transparent" points="652.5,-81.98 652.5,-99.98 745.5,-99.98 745.5,-81.98 652.5,-81.98"/>
<polygon fill="none" stroke="black" points="652.5,-81.98 652.5,-99.98 745.5,-99.98 745.5,-81.98 652.5,-81.98"/>
<text text-anchor="start" x="735.5" y="-88.18" font-family="Helvetica,sans-Serif" font-size="11.00"> &#160;</text>
<polygon fill="#ffffff" stroke="transparent" points="745.5,-81.98 745.5,-99.98 838.5,-99.98 838.5,-81.98 745.5,-81.98"/>
<polygon fill="none" stroke="black" points="745.5,-81.98 745.5,-99.98 838.5,-99.98 838.5,-81.98 745.5,-81.98"/>
<text text-anchor="start" x="819.5" y="-88.18" font-family="Helvetica,sans-Serif" font-size="11.00">3 &gt;</text>
<polygon fill="none" stroke="black" stroke-width="2" points="550,-80.98 550,-430.98 839,-430.98 839,-80.98 550,-80.98"/>
</a>
</g>
</g>
<!-- mstr_entity_facility_places&#45;&gt;mstr_places -->
<g id="edge4" class="edge">
<title>mstr_entity_facility_places:w&#45;&gt;mstr_places:e</title>
<path fill="none" stroke="black" d="M883.38,-531.12C843.1,-511.44 899.94,-396.98 839.5,-396.98"/>
<polygon fill="black" stroke="black" points="889.66,-532.39 896.78,-537.51 893.58,-533.18 897.5,-533.98 897.5,-533.98 897.5,-533.98 893.58,-533.18 898.22,-530.45 889.66,-532.39 889.66,-532.39"/>
<ellipse fill="none" stroke="black" cx="886.52" cy="-531.75" rx="3.2" ry="3.2"/>
</g>
<!-- mstr_places&#45;&gt;mstr_entities -->
<g id="edge9" class="edge">
<title>mstr_places:w&#45;&gt;mstr_entities:e</title>
<path fill="none" stroke="black" d="M536.53,-379.32C514.41,-397.3 540.59,-464.98 501,-464.98"/>
<polygon fill="black" stroke="black" points="542.86,-377.35 551.57,-378.42 546.68,-376.17 550.5,-374.98 550.5,-374.98 550.5,-374.98 546.68,-376.17 549.43,-371.54 542.86,-377.35 542.86,-377.35"/>
<ellipse fill="none" stroke="black" cx="539.8" cy="-378.3" rx="3.2" ry="3.2"/>
</g>
<!-- mstr_places&#45;&gt;ms_syst_data.syst_enum_items -->
<g id="edge10" class="edge">
<title>mstr_places:w&#45;&gt;ms_syst_data.syst_enum_items:e</title>
<path fill="none" stroke="black" d="M535.86,-265.02C444.15,-265.49 343.2,-270.26 265.36,-274.9"/>
<polygon fill="black" stroke="black" points="542.5,-265 550.51,-268.58 546.5,-264.99 550.5,-264.98 550.5,-264.98 550.5,-264.98 546.5,-264.99 550.49,-261.38 542.5,-265 542.5,-265"/>
<ellipse fill="none" stroke="black" cx="539.3" cy="-265.01" rx="3.2" ry="3.2"/>
</g>
<!-- mstr_places&#45;&gt;ms_syst_data.syst_enum_items -->
<g id="edge11" class="edge">
<title>mstr_places:w&#45;&gt;ms_syst_data.syst_enum_items:e</title>
<path fill="none" stroke="black" d="M535.88,-286.97C444.25,-286.9 343.3,-286.14 265.43,-285.41"/>
<polygon fill="black" stroke="black" points="542.5,-286.98 550.5,-290.58 546.5,-286.98 550.5,-286.98 550.5,-286.98 550.5,-286.98 546.5,-286.98 550.5,-283.38 542.5,-286.98 542.5,-286.98"/>
<ellipse fill="none" stroke="black" cx="539.3" cy="-286.97" rx="3.2" ry="3.2"/>
</g>
<!-- mstr_entity_inventory_places -->
<g id="node5" class="node">
<title>mstr_entity_inventory_places</title>
<g id="a_node5"><a xlink:href="../../tables/mstr_entity_inventory_places.html" xlink:title="mstr_entity_inventory_places" target="_top">
<polygon fill="#ffffff" stroke="transparent" points="889,-319.98 889,-443.98 1126,-443.98 1126,-319.98 889,-319.98"/>
<polygon fill="#f5f5f5" stroke="transparent" points="889.5,-421.98 889.5,-443.98 1126.5,-443.98 1126.5,-421.98 889.5,-421.98"/>
<polygon fill="none" stroke="black" points="889.5,-421.98 889.5,-443.98 1126.5,-443.98 1126.5,-421.98 889.5,-421.98"/>
<text text-anchor="start" x="894.5" y="-431.18" font-family="Helvetica,sans-Serif" font-weight="bold" font-size="11.00">mstr_entity_inventory_places</text>
<text text-anchor="start" x="1091.5" y="-430.18" font-family="Helvetica,sans-Serif" font-size="11.00">[table]</text>
<polygon fill="none" stroke="black" points="889.5,-399.98 889.5,-421.98 1126.5,-421.98 1126.5,-399.98 889.5,-399.98"/>
<image xlink:href="../../images/primaryKeys.png" width="11px" height="12px" preserveAspectRatio="xMinYMin meet" x="894.5" y="-416.979"/>
<text text-anchor="start" x="919.5" y="-408.18" font-family="Helvetica,sans-Serif" font-size="11.00">id</text>
<polygon fill="none" stroke="black" points="889.5,-377.98 889.5,-399.98 1126.5,-399.98 1126.5,-377.98 889.5,-377.98"/>
<image xlink:href="../../images/foreignKeys.png" width="11px" height="12px" preserveAspectRatio="xMinYMin meet" x="894.5" y="-394.979"/>
<text text-anchor="start" x="919.5" y="-386.18" font-family="Helvetica,sans-Serif" font-size="11.00">place_id</text>
<polygon fill="none" stroke="black" points="889.5,-355.98 889.5,-377.98 1126.5,-377.98 1126.5,-355.98 889.5,-355.98"/>
<image xlink:href="../../images/foreignKeys.png" width="11px" height="12px" preserveAspectRatio="xMinYMin meet" x="894.5" y="-372.979"/>
<text text-anchor="start" x="919.5" y="-364.18" font-family="Helvetica,sans-Serif" font-size="11.00">owning_entity_id</text>
<polygon fill="none" stroke="black" points="889.5,-337.98 889.5,-355.98 1126.5,-355.98 1126.5,-337.98 889.5,-337.98"/>
<text text-anchor="start" x="892.5" y="-344.18" font-family="Helvetica,sans-Serif" font-size="11.00">...</text>
<polygon fill="#ffffff" stroke="transparent" points="889.5,-319.98 889.5,-337.98 1005.5,-337.98 1005.5,-319.98 889.5,-319.98"/>
<polygon fill="none" stroke="black" points="889.5,-319.98 889.5,-337.98 1005.5,-337.98 1005.5,-319.98 889.5,-319.98"/>
<text text-anchor="start" x="892.5" y="-326.18" font-family="Helvetica,sans-Serif" font-size="11.00">&lt; 2</text>
<polygon fill="#ffffff" stroke="transparent" points="1005.5,-319.98 1005.5,-337.98 1065.5,-337.98 1065.5,-319.98 1005.5,-319.98"/>
<polygon fill="none" stroke="black" points="1005.5,-319.98 1005.5,-337.98 1065.5,-337.98 1065.5,-319.98 1005.5,-319.98"/>
<text text-anchor="start" x="1055.5" y="-326.18" font-family="Helvetica,sans-Serif" font-size="11.00"> &#160;</text>
<polygon fill="#ffffff" stroke="transparent" points="1065.5,-319.98 1065.5,-337.98 1126.5,-337.98 1126.5,-319.98 1065.5,-319.98"/>
<polygon fill="none" stroke="black" points="1065.5,-319.98 1065.5,-337.98 1126.5,-337.98 1126.5,-319.98 1065.5,-319.98"/>
<text text-anchor="start" x="1116.5" y="-326.18" font-family="Helvetica,sans-Serif" font-size="11.00"> &#160;</text>
</a>
</g>
</g>
<!-- mstr_entity_inventory_places&#45;&gt;mstr_entities -->
<g id="edge5" class="edge">
<title>mstr_entity_inventory_places:w&#45;&gt;mstr_entities:e</title>
<path fill="none" stroke="black" d="M874.6,-371.05C858.38,-384.19 874.9,-425.65 848,-442.98 718.09,-526.66 655.53,-464.98 501,-464.98"/>
<polygon fill="black" stroke="black" points="880.82,-369.22 889.51,-370.43 884.66,-368.1 888.5,-366.98 888.5,-366.98 888.5,-366.98 884.66,-368.1 887.49,-363.52 880.82,-369.22 880.82,-369.22"/>
<ellipse fill="none" stroke="black" cx="877.75" cy="-370.12" rx="3.2" ry="3.2"/>
</g>
<!-- mstr_entity_inventory_places&#45;&gt;mstr_places -->
<g id="edge6" class="edge">
<title>mstr_entity_inventory_places:w&#45;&gt;mstr_places:e</title>
<path fill="none" stroke="black" d="M873.91,-390.37C862.63,-392.66 855.7,-396.98 839.5,-396.98"/>
<polygon fill="black" stroke="black" points="880.54,-389.74 888.84,-392.56 884.52,-389.36 888.5,-388.98 888.5,-388.98 888.5,-388.98 884.52,-389.36 888.16,-385.4 880.54,-389.74 880.54,-389.74"/>
<ellipse fill="none" stroke="black" cx="877.35" cy="-390.04" rx="3.2" ry="3.2"/>
</g>
<!-- mstr_person_contact_roles -->
<g id="node6" class="node">
<title>mstr_person_contact_roles</title>
<g id="a_node6"><a xlink:href="../../tables/mstr_person_contact_roles.html" xlink:title="mstr_person_contact_roles" target="_top">
<polygon fill="#ffffff" stroke="transparent" points="897.5,-47.98 897.5,-215.98 1117.5,-215.98 1117.5,-47.98 897.5,-47.98"/>
<polygon fill="#f5f5f5" stroke="transparent" points="897.5,-193.98 897.5,-215.98 1117.5,-215.98 1117.5,-193.98 897.5,-193.98"/>
<polygon fill="none" stroke="black" points="897.5,-193.98 897.5,-215.98 1117.5,-215.98 1117.5,-193.98 897.5,-193.98"/>
<text text-anchor="start" x="902.5" y="-203.18" font-family="Helvetica,sans-Serif" font-weight="bold" font-size="11.00">mstr_person_contact_roles</text>
<text text-anchor="start" x="1082.5" y="-202.18" font-family="Helvetica,sans-Serif" font-size="11.00">[table]</text>
<polygon fill="none" stroke="black" points="897.5,-171.98 897.5,-193.98 1117.5,-193.98 1117.5,-171.98 897.5,-171.98"/>
<image xlink:href="../../images/primaryKeys.png" width="11px" height="12px" preserveAspectRatio="xMinYMin meet" x="902.5" y="-188.979"/>
<text text-anchor="start" x="927.5" y="-180.18" font-family="Helvetica,sans-Serif" font-size="11.00">id</text>
<polygon fill="none" stroke="black" points="897.5,-149.98 897.5,-171.98 1117.5,-171.98 1117.5,-149.98 897.5,-149.98"/>
<image xlink:href="../../images/foreignKeys.png" width="11px" height="12px" preserveAspectRatio="xMinYMin meet" x="902.5" y="-166.979"/>
<text text-anchor="start" x="927.5" y="-158.18" font-family="Helvetica,sans-Serif" font-size="11.00">person_id</text>
<polygon fill="none" stroke="black" points="897.5,-127.98 897.5,-149.98 1117.5,-149.98 1117.5,-127.98 897.5,-127.98"/>
<image xlink:href="../../images/foreignKeys.png" width="11px" height="12px" preserveAspectRatio="xMinYMin meet" x="902.5" y="-144.979"/>
<text text-anchor="start" x="927.5" y="-136.18" font-family="Helvetica,sans-Serif" font-size="11.00">person_contact_role_id</text>
<polygon fill="none" stroke="black" points="897.5,-105.98 897.5,-127.98 1117.5,-127.98 1117.5,-105.98 897.5,-105.98"/>
<image xlink:href="../../images/foreignKeys.png" width="11px" height="12px" preserveAspectRatio="xMinYMin meet" x="902.5" y="-122.979"/>
<text text-anchor="start" x="927.5" y="-114.18" font-family="Helvetica,sans-Serif" font-size="11.00">place_id</text>
<polygon fill="none" stroke="black" points="897.5,-83.98 897.5,-105.98 1117.5,-105.98 1117.5,-83.98 897.5,-83.98"/>
<image xlink:href="../../images/foreignKeys.png" width="11px" height="12px" preserveAspectRatio="xMinYMin meet" x="902.5" y="-100.979"/>
<text text-anchor="start" x="927.5" y="-92.18" font-family="Helvetica,sans-Serif" font-size="11.00">contact_id</text>
<polygon fill="none" stroke="black" points="897.5,-65.98 897.5,-83.98 1117.5,-83.98 1117.5,-65.98 897.5,-65.98"/>
<text text-anchor="start" x="900.5" y="-72.18" font-family="Helvetica,sans-Serif" font-size="11.00">...</text>
<polygon fill="#ffffff" stroke="transparent" points="897.5,-47.98 897.5,-65.98 1005.5,-65.98 1005.5,-47.98 897.5,-47.98"/>
<polygon fill="none" stroke="black" points="897.5,-47.98 897.5,-65.98 1005.5,-65.98 1005.5,-47.98 897.5,-47.98"/>
<text text-anchor="start" x="900.5" y="-54.18" font-family="Helvetica,sans-Serif" font-size="11.00">&lt; 4</text>
<polygon fill="#ffffff" stroke="transparent" points="1005.5,-47.98 1005.5,-65.98 1061.5,-65.98 1061.5,-47.98 1005.5,-47.98"/>
<polygon fill="none" stroke="black" points="1005.5,-47.98 1005.5,-65.98 1061.5,-65.98 1061.5,-47.98 1005.5,-47.98"/>
<text text-anchor="start" x="1051.5" y="-54.18" font-family="Helvetica,sans-Serif" font-size="11.00"> &#160;</text>
<polygon fill="#ffffff" stroke="transparent" points="1061.5,-47.98 1061.5,-65.98 1117.5,-65.98 1117.5,-47.98 1061.5,-47.98"/>
<polygon fill="none" stroke="black" points="1061.5,-47.98 1061.5,-65.98 1117.5,-65.98 1117.5,-47.98 1061.5,-47.98"/>
<text text-anchor="start" x="1107.5" y="-54.18" font-family="Helvetica,sans-Serif" font-size="11.00"> &#160;</text>
</a>
</g>
</g>
<!-- mstr_person_contact_roles&#45;&gt;ms_syst_data.syst_enum_items -->
<g id="edge7" class="edge">
<title>mstr_person_contact_roles:w&#45;&gt;ms_syst_data.syst_enum_items:e</title>
<path fill="none" stroke="black" d="M882.37,-135.18C864.82,-122.93 875.81,-84.42 848,-69.98 726.92,-7.08 673.48,-37.31 541,-69.98 398.44,-105.14 250.59,-200.08 178.49,-250.86"/>
<polygon fill="black" stroke="black" points="888.77,-136.9 895.57,-142.46 892.64,-137.94 896.5,-138.98 896.5,-138.98 896.5,-138.98 892.64,-137.94 897.43,-135.5 888.77,-136.9 888.77,-136.9"/>
<ellipse fill="none" stroke="black" cx="885.68" cy="-136.07" rx="3.2" ry="3.2"/>
</g>
<!-- mstr_person_contact_roles&#45;&gt;mstr_places -->
<g id="edge8" class="edge">
<title>mstr_person_contact_roles:w&#45;&gt;mstr_places:e</title>
<path fill="none" stroke="black" d="M883.17,-122.57C843.82,-162.04 897.67,-396.98 839.5,-396.98"/>
<polygon fill="black" stroke="black" points="889.12,-120.07 897.89,-120.3 892.81,-118.53 896.5,-116.98 896.5,-116.98 896.5,-116.98 892.81,-118.53 895.11,-113.66 889.12,-120.07 889.12,-120.07"/>
<ellipse fill="none" stroke="black" cx="886.17" cy="-121.31" rx="3.2" ry="3.2"/>
</g>
</g>
</svg>
