<?xml version="1.0" encoding="UTF-8" standalone="no"?>
<!DOCTYPE svg PUBLIC "-//W3C//DTD SVG 1.1//EN"
 "http://www.w3.org/Graphics/SVG/1.1/DTD/svg11.dtd">
<!-- Generated by graphviz version 2.43.0 (0)
 -->
<!-- Title: oneDegreeRelationshipsDiagram Pages: 1 -->
<svg width="863pt" height="710pt"
 viewBox="0.00 0.00 863.00 710.00" xmlns="http://www.w3.org/2000/svg" xmlns:xlink="http://www.w3.org/1999/xlink">
<g id="graph0" class="graph" transform="scale(1 1) rotate(0) translate(4 706)">
<title>oneDegreeRelationshipsDiagram</title>
<polygon fill="#ffffff" stroke="transparent" points="-4,4 -4,-706 859,-706 859,4 -4,4"/>
<text text-anchor="middle" x="71.5" y="-7.2" font-family="Helvetica,sans-Serif" font-size="11.00">Generated by SchemaSpy</text>
<!-- mstr_contacts -->
<g id="node1" class="node">
<title>mstr_contacts</title>
<g id="a_node1"><a xlink:href="../../tables/mstr_contacts.html" xlink:title="mstr_contacts" target="_top">
<polygon fill="#ffffff" stroke="transparent" points="306,-37 306,-227 500,-227 500,-37 306,-37"/>
<polygon fill="#f5f5f5" stroke="transparent" points="306,-205 306,-227 500,-227 500,-205 306,-205"/>
<polygon fill="none" stroke="black" points="306,-205 306,-227 500,-227 500,-205 306,-205"/>
<text text-anchor="start" x="311" y="-214.2" font-family="Helvetica,sans-Serif" font-weight="bold" font-size="11.00">mstr_contacts</text>
<text text-anchor="start" x="465" y="-213.2" font-family="Helvetica,sans-Serif" font-size="11.00">[table]</text>
<polygon fill="none" stroke="black" points="306,-183 306,-205 500,-205 500,-183 306,-183"/>
<image xlink:href="../../images/primaryKeys.png" width="11px" height="12px" preserveAspectRatio="xMinYMin meet" x="311" y="-200"/>
<text text-anchor="start" x="326" y="-191.2" font-family="Helvetica,sans-Serif" font-size="11.00">id</text>
<polygon fill="#ffffff" stroke="transparent" points="306,-161 306,-183 500,-183 500,-161 306,-161"/>
<polygon fill="none" stroke="black" points="306,-161 306,-183 500,-183 500,-161 306,-161"/>
<text text-anchor="start" x="326" y="-169.2" font-family="Helvetica,sans-Serif" font-size="11.00">internal_name</text>
<polygon fill="#ffffff" stroke="transparent" points="306,-139 306,-161 500,-161 500,-139 306,-139"/>
<polygon fill="none" stroke="black" points="306,-139 306,-161 500,-161 500,-139 306,-139"/>
<text text-anchor="start" x="326" y="-147.2" font-family="Helvetica,sans-Serif" font-size="11.00">display_name</text>
<polygon fill="none" stroke="black" points="306,-117 306,-139 500,-139 500,-117 306,-117"/>
<image xlink:href="../../images/foreignKeys.png" width="11px" height="12px" preserveAspectRatio="xMinYMin meet" x="311" y="-134"/>
<text text-anchor="start" x="326" y="-125.2" font-family="Helvetica,sans-Serif" font-size="11.00">owning_entity_id</text>
<polygon fill="none" stroke="black" points="306,-95 306,-117 500,-117 500,-95 306,-95"/>
<image xlink:href="../../images/foreignKeys.png" width="11px" height="12px" preserveAspectRatio="xMinYMin meet" x="311" y="-112"/>
<text text-anchor="start" x="326" y="-103.2" font-family="Helvetica,sans-Serif" font-size="11.00">contact_type_id</text>
<polygon fill="none" stroke="black" points="306,-73 306,-95 500,-95 500,-73 306,-73"/>
<image xlink:href="../../images/foreignKeys.png" width="11px" height="12px" preserveAspectRatio="xMinYMin meet" x="311" y="-90"/>
<text text-anchor="start" x="326" y="-81.2" font-family="Helvetica,sans-Serif" font-size="11.00">contact_state_id</text>
<polygon fill="none" stroke="black" points="306,-55 306,-73 500,-73 500,-55 306,-55"/>
<text text-anchor="start" x="309" y="-61.2" font-family="Helvetica,sans-Serif" font-size="11.00">...</text>
<polygon fill="#ffffff" stroke="transparent" points="306,-37 306,-55 396,-55 396,-37 306,-37"/>
<polygon fill="none" stroke="black" points="306,-37 306,-55 396,-55 396,-37 306,-37"/>
<text text-anchor="start" x="309" y="-43.2" font-family="Helvetica,sans-Serif" font-size="11.00">&lt; 3</text>
<polygon fill="#ffffff" stroke="transparent" points="396,-37 396,-55 443,-55 443,-37 396,-37"/>
<polygon fill="none" stroke="black" points="396,-37 396,-55 443,-55 443,-37 396,-37"/>
<text text-anchor="start" x="433" y="-43.2" font-family="Helvetica,sans-Serif" font-size="11.00"> &#160;</text>
<polygon fill="#ffffff" stroke="transparent" points="443,-37 443,-55 500,-55 500,-37 443,-37"/>
<polygon fill="none" stroke="black" points="443,-37 443,-55 500,-55 500,-37 443,-37"/>
<text text-anchor="start" x="481" y="-43.2" font-family="Helvetica,sans-Serif" font-size="11.00">1 &gt;</text>
</a>
</g>
</g>
<!-- ms_syst_data.syst_enum_items -->
<g id="node2" class="node">
<title>ms_syst_data.syst_enum_items</title>
<g id="a_node2"><a xlink:href="../../../ms_syst_data/tables/syst_enum_items.html" xlink:title="ms_syst_data.syst_enum_items" target="_top">
<polygon fill="#ffffff" stroke="transparent" points="8,-288 8,-346 257,-346 257,-288 8,-288"/>
<polygon fill="#f5f5f5" stroke="transparent" points="8.5,-324 8.5,-346 257.5,-346 257.5,-324 8.5,-324"/>
<polygon fill="none" stroke="black" points="8.5,-324 8.5,-346 257.5,-346 257.5,-324 8.5,-324"/>
<text text-anchor="start" x="13.5" y="-333.2" font-family="Helvetica,sans-Serif" font-weight="bold" font-size="11.00">ms_syst_data.syst_enum_items</text>
<text text-anchor="start" x="222.5" y="-332.2" font-family="Helvetica,sans-Serif" font-size="11.00">[table]</text>
<polygon fill="none" stroke="black" points="8.5,-306 8.5,-324 257.5,-324 257.5,-306 8.5,-306"/>
<text text-anchor="start" x="11.5" y="-312.2" font-family="Helvetica,sans-Serif" font-size="11.00">...</text>
<polygon fill="#ffffff" stroke="transparent" points="8.5,-288 8.5,-306 118.5,-306 118.5,-288 8.5,-288"/>
<polygon fill="none" stroke="black" points="8.5,-288 8.5,-306 118.5,-306 118.5,-288 8.5,-288"/>
<text text-anchor="start" x="11.5" y="-294.2" font-family="Helvetica,sans-Serif" font-size="11.00"> &#160;</text>
<polygon fill="#ffffff" stroke="transparent" points="118.5,-288 118.5,-306 180.5,-306 180.5,-288 118.5,-288"/>
<polygon fill="none" stroke="black" points="118.5,-288 118.5,-306 180.5,-306 180.5,-288 118.5,-288"/>
<text text-anchor="start" x="170.5" y="-294.2" font-family="Helvetica,sans-Serif" font-size="11.00"> &#160;</text>
<polygon fill="#ffffff" stroke="transparent" points="180.5,-288 180.5,-306 257.5,-306 257.5,-288 180.5,-288"/>
<polygon fill="none" stroke="black" points="180.5,-288 180.5,-306 257.5,-306 257.5,-288 180.5,-288"/>
<text text-anchor="start" x="232.5" y="-294.2" font-family="Helvetica,sans-Serif" font-size="11.00">10 &gt;</text>
</a>
</g>
</g>
<!-- mstr_contacts&#45;&gt;ms_syst_data.syst_enum_items -->
<g id="edge1" class="edge">
<title>mstr_contacts:w&#45;&gt;ms_syst_data.syst_enum_items:e</title>
<path fill="none" stroke="black" d="M290.46,-85.02C202.24,-97.55 157.93,-222.46 141.39,-283.62"/>
<polygon fill="black" stroke="black" points="297.02,-84.56 305.25,-87.59 301.01,-84.28 305,-84 305,-84 305,-84 301.01,-84.28 304.75,-80.41 297.02,-84.56 297.02,-84.56"/>
<ellipse fill="none" stroke="black" cx="293.83" cy="-84.78" rx="3.2" ry="3.2"/>
</g>
<!-- mstr_contacts&#45;&gt;ms_syst_data.syst_enum_items -->
<g id="edge2" class="edge">
<title>mstr_contacts:w&#45;&gt;ms_syst_data.syst_enum_items:e</title>
<path fill="none" stroke="black" d="M290.52,-107.03C209.1,-118.74 162.39,-227.32 143.46,-283.57"/>
<polygon fill="black" stroke="black" points="297.02,-106.57 305.26,-109.59 301.01,-106.28 305,-106 305,-106 305,-106 301.01,-106.28 304.74,-102.41 297.02,-106.57 297.02,-106.57"/>
<ellipse fill="none" stroke="black" cx="293.83" cy="-106.8" rx="3.2" ry="3.2"/>
</g>
<!-- mstr_person_contact_roles -->
<g id="node3" class="node">
<title>mstr_person_contact_roles</title>
<g id="a_node3"><a xlink:href="../../tables/mstr_person_contact_roles.html" xlink:title="mstr_person_contact_roles" target="_top">
<polygon fill="#ffffff" stroke="transparent" points="549,-215 549,-523 847,-523 847,-215 549,-215"/>
<polygon fill="#f5f5f5" stroke="transparent" points="551,-499 551,-521 845,-521 845,-499 551,-499"/>
<polygon fill="none" stroke="black" points="551,-499 551,-521 845,-521 845,-499 551,-499"/>
<text text-anchor="start" x="556" y="-508.2" font-family="Helvetica,sans-Serif" font-weight="bold" font-size="11.00">mstr_person_contact_roles</text>
<text text-anchor="start" x="810" y="-507.2" font-family="Helvetica,sans-Serif" font-size="11.00">[table]</text>
<polygon fill="none" stroke="black" points="551,-477 551,-499 752,-499 752,-477 551,-477"/>
<image xlink:href="../../images/primaryKeys.png" width="11px" height="12px" preserveAspectRatio="xMinYMin meet" x="556" y="-494"/>
<text text-anchor="start" x="571" y="-485.2" font-family="Helvetica,sans-Serif" font-size="11.00">id</text>
<polygon fill="none" stroke="black" points="752,-477 752,-499 845,-499 845,-477 752,-477"/>
<text text-anchor="start" x="755" y="-485.2" font-family="Helvetica,sans-Serif" font-size="11.00">uuid[2147483647]</text>
<polygon fill="none" stroke="black" points="551,-455 551,-477 752,-477 752,-455 551,-455"/>
<image xlink:href="../../images/foreignKeys.png" width="11px" height="12px" preserveAspectRatio="xMinYMin meet" x="556" y="-472"/>
<text text-anchor="start" x="571" y="-463.2" font-family="Helvetica,sans-Serif" font-size="11.00">person_id</text>
<polygon fill="none" stroke="black" points="752,-455 752,-477 845,-477 845,-455 752,-455"/>
<text text-anchor="start" x="755" y="-463.2" font-family="Helvetica,sans-Serif" font-size="11.00">uuid[2147483647]</text>
<polygon fill="none" stroke="black" points="551,-433 551,-455 752,-455 752,-433 551,-433"/>
<image xlink:href="../../images/foreignKeys.png" width="11px" height="12px" preserveAspectRatio="xMinYMin meet" x="556" y="-450"/>
<text text-anchor="start" x="571" y="-441.2" font-family="Helvetica,sans-Serif" font-size="11.00">person_contact_role_id</text>
<polygon fill="none" stroke="black" points="752,-433 752,-455 845,-455 845,-433 752,-433"/>
<text text-anchor="start" x="755" y="-441.2" font-family="Helvetica,sans-Serif" font-size="11.00">uuid[2147483647]</text>
<polygon fill="none" stroke="black" points="551,-411 551,-433 752,-433 752,-411 551,-411"/>
<image xlink:href="../../images/foreignKeys.png" width="11px" height="12px" preserveAspectRatio="xMinYMin meet" x="556" y="-428"/>
<text text-anchor="start" x="571" y="-419.2" font-family="Helvetica,sans-Serif" font-size="11.00">place_id</text>
<polygon fill="none" stroke="black" points="752,-411 752,-433 845,-433 845,-411 752,-411"/>
<text text-anchor="start" x="755" y="-419.2" font-family="Helvetica,sans-Serif" font-size="11.00">uuid[2147483647]</text>
<polygon fill="none" stroke="black" points="551,-389 551,-411 752,-411 752,-389 551,-389"/>
<image xlink:href="../../images/foreignKeys.png" width="11px" height="12px" preserveAspectRatio="xMinYMin meet" x="556" y="-406"/>
<text text-anchor="start" x="571" y="-397.2" font-family="Helvetica,sans-Serif" font-size="11.00">contact_id</text>
<polygon fill="none" stroke="black" points="752,-389 752,-411 845,-411 845,-389 752,-389"/>
<text text-anchor="start" x="755" y="-397.2" font-family="Helvetica,sans-Serif" font-size="11.00">uuid[2147483647]</text>
<polygon fill="none" stroke="black" points="551,-367 551,-389 752,-389 752,-367 551,-367"/>
<text text-anchor="start" x="571" y="-375.2" font-family="Helvetica,sans-Serif" font-size="11.00">diag_timestamp_created</text>
<polygon fill="none" stroke="black" points="752,-367 752,-389 845,-389 845,-367 752,-367"/>
<text text-anchor="start" x="755" y="-375.2" font-family="Helvetica,sans-Serif" font-size="11.00">timestamptz[35,6]</text>
<polygon fill="none" stroke="black" points="551,-345 551,-367 752,-367 752,-345 551,-345"/>
<text text-anchor="start" x="571" y="-353.2" font-family="Helvetica,sans-Serif" font-size="11.00">diag_role_created</text>
<polygon fill="none" stroke="black" points="752,-345 752,-367 845,-367 845,-345 752,-345"/>
<text text-anchor="start" x="755" y="-353.2" font-family="Helvetica,sans-Serif" font-size="11.00">text[2147483647]</text>
<polygon fill="none" stroke="black" points="551,-323 551,-345 752,-345 752,-323 551,-323"/>
<text text-anchor="start" x="571" y="-331.2" font-family="Helvetica,sans-Serif" font-size="11.00">diag_timestamp_modified</text>
<polygon fill="none" stroke="black" points="752,-323 752,-345 845,-345 845,-323 752,-323"/>
<text text-anchor="start" x="755" y="-331.2" font-family="Helvetica,sans-Serif" font-size="11.00">timestamptz[35,6]</text>
<polygon fill="none" stroke="black" points="551,-301 551,-323 752,-323 752,-301 551,-301"/>
<text text-anchor="start" x="571" y="-309.2" font-family="Helvetica,sans-Serif" font-size="11.00">diag_wallclock_modified</text>
<polygon fill="none" stroke="black" points="752,-301 752,-323 845,-323 845,-301 752,-301"/>
<text text-anchor="start" x="755" y="-309.2" font-family="Helvetica,sans-Serif" font-size="11.00">timestamptz[35,6]</text>
<polygon fill="none" stroke="black" points="551,-279 551,-301 752,-301 752,-279 551,-279"/>
<text text-anchor="start" x="571" y="-287.2" font-family="Helvetica,sans-Serif" font-size="11.00">diag_role_modified</text>
<polygon fill="none" stroke="black" points="752,-279 752,-301 845,-301 845,-279 752,-279"/>
<text text-anchor="start" x="755" y="-287.2" font-family="Helvetica,sans-Serif" font-size="11.00">text[2147483647]</text>
<polygon fill="none" stroke="black" points="551,-257 551,-279 752,-279 752,-257 551,-257"/>
<text text-anchor="start" x="571" y="-265.2" font-family="Helvetica,sans-Serif" font-size="11.00">diag_row_version</text>
<polygon fill="none" stroke="black" points="752,-257 752,-279 845,-279 845,-257 752,-257"/>
<text text-anchor="start" x="755" y="-265.2" font-family="Helvetica,sans-Serif" font-size="11.00">int8[19]</text>
<polygon fill="none" stroke="black" points="551,-235 551,-257 752,-257 752,-235 551,-235"/>
<text text-anchor="start" x="571" y="-243.2" font-family="Helvetica,sans-Serif" font-size="11.00">diag_update_count</text>
<polygon fill="none" stroke="black" points="752,-235 752,-257 845,-257 845,-235 752,-235"/>
<text text-anchor="start" x="755" y="-243.2" font-family="Helvetica,sans-Serif" font-size="11.00">int8[19]</text>
<polygon fill="#ffffff" stroke="transparent" points="551,-217 551,-235 656,-235 656,-217 551,-217"/>
<polygon fill="none" stroke="black" points="551,-217 551,-235 656,-235 656,-217 551,-217"/>
<text text-anchor="start" x="554" y="-223.2" font-family="Helvetica,sans-Serif" font-size="11.00">&lt; 4</text>
<polygon fill="#ffffff" stroke="transparent" points="656,-217 656,-235 752,-235 752,-217 656,-217"/>
<polygon fill="none" stroke="black" points="656,-217 656,-235 752,-235 752,-217 656,-217"/>
<text text-anchor="start" x="742" y="-223.2" font-family="Helvetica,sans-Serif" font-size="11.00"> &#160;</text>
<polygon fill="#ffffff" stroke="transparent" points="752,-217 752,-235 845,-235 845,-217 752,-217"/>
<polygon fill="none" stroke="black" points="752,-217 752,-235 845,-235 845,-217 752,-217"/>
<text text-anchor="start" x="826" y="-223.2" font-family="Helvetica,sans-Serif" font-size="11.00">0 &gt;</text>
<polygon fill="none" stroke="black" stroke-width="2" points="550,-216 550,-522 846,-522 846,-216 550,-216"/>
</a>
</g>
</g>
<!-- mstr_person_contact_roles&#45;&gt;mstr_contacts -->
<g id="edge3" class="edge">
<title>mstr_person_contact_roles:w&#45;&gt;mstr_contacts:e</title>
<path fill="none" stroke="black" d="M535.37,-397.83C471.89,-375.81 589.41,-194 501,-194"/>
<polygon fill="black" stroke="black" points="542.09,-398.82 549.47,-403.56 546.04,-399.41 550,-400 550,-400 550,-400 546.04,-399.41 550.53,-396.44 542.09,-398.82 542.09,-398.82"/>
<ellipse fill="none" stroke="black" cx="538.92" cy="-398.35" rx="3.2" ry="3.2"/>
</g>
<!-- mstr_person_contact_roles&#45;&gt;ms_syst_data.syst_enum_items -->
<g id="edge4" class="edge">
<title>mstr_person_contact_roles:w&#45;&gt;ms_syst_data.syst_enum_items:e</title>
<path fill="none" stroke="black" d="M535.41,-444.98C526.89,-446.21 520.75,-448.24 508,-449 414.83,-454.53 386.05,-479.96 298,-449 242.56,-429.51 191.97,-382.57 161.95,-350.26"/>
<polygon fill="black" stroke="black" points="542.02,-444.53 550.24,-447.59 546.01,-444.27 550,-444 550,-444 550,-444 546.01,-444.27 549.76,-440.41 542.02,-444.53 542.02,-444.53"/>
<ellipse fill="none" stroke="black" cx="538.83" cy="-444.75" rx="3.2" ry="3.2"/>
</g>
<!-- mstr_persons -->
<g id="node4" class="node">
<title>mstr_persons</title>
<g id="a_node4"><a xlink:href="../../tables/mstr_persons.html" xlink:title="mstr_persons" target="_top">
<polygon fill="#ffffff" stroke="transparent" points="306,-486 306,-698 500,-698 500,-486 306,-486"/>
<polygon fill="#f5f5f5" stroke="transparent" points="306,-676 306,-698 500,-698 500,-676 306,-676"/>
<polygon fill="none" stroke="black" points="306,-676 306,-698 500,-698 500,-676 306,-676"/>
<text text-anchor="start" x="311" y="-685.2" font-family="Helvetica,sans-Serif" font-weight="bold" font-size="11.00">mstr_persons</text>
<text text-anchor="start" x="465" y="-684.2" font-family="Helvetica,sans-Serif" font-size="11.00">[table]</text>
<polygon fill="none" stroke="black" points="306,-654 306,-676 500,-676 500,-654 306,-654"/>
<image xlink:href="../../images/primaryKeys.png" width="11px" height="12px" preserveAspectRatio="xMinYMin meet" x="311" y="-671"/>
<text text-anchor="start" x="326" y="-662.2" font-family="Helvetica,sans-Serif" font-size="11.00">id</text>
<polygon fill="#ffffff" stroke="transparent" points="306,-632 306,-654 500,-654 500,-632 306,-632"/>
<polygon fill="none" stroke="black" points="306,-632 306,-654 500,-654 500,-632 306,-632"/>
<text text-anchor="start" x="326" y="-640.2" font-family="Helvetica,sans-Serif" font-size="11.00">internal_name</text>
<polygon fill="#ffffff" stroke="transparent" points="306,-610 306,-632 500,-632 500,-610 306,-610"/>
<polygon fill="none" stroke="black" points="306,-610 306,-632 500,-632 500,-610 306,-610"/>
<text text-anchor="start" x="326" y="-618.2" font-family="Helvetica,sans-Serif" font-size="11.00">display_name</text>
<polygon fill="none" stroke="black" points="306,-588 306,-610 500,-610 500,-588 306,-588"/>
<image xlink:href="../../images/foreignKeys.png" width="11px" height="12px" preserveAspectRatio="xMinYMin meet" x="311" y="-605"/>
<text text-anchor="start" x="326" y="-596.2" font-family="Helvetica,sans-Serif" font-size="11.00">owning_entity_id</text>
<polygon fill="none" stroke="black" points="306,-566 306,-588 500,-588 500,-566 306,-566"/>
<image xlink:href="../../images/foreignKeys.png" width="11px" height="12px" preserveAspectRatio="xMinYMin meet" x="311" y="-583"/>
<text text-anchor="start" x="326" y="-574.2" font-family="Helvetica,sans-Serif" font-size="11.00">person_type_id</text>
<polygon fill="none" stroke="black" points="306,-544 306,-566 500,-566 500,-544 306,-544"/>
<image xlink:href="../../images/foreignKeys.png" width="11px" height="12px" preserveAspectRatio="xMinYMin meet" x="311" y="-561"/>
<text text-anchor="start" x="326" y="-552.2" font-family="Helvetica,sans-Serif" font-size="11.00">person_state_id</text>
<polygon fill="#ffffff" stroke="transparent" points="306,-522 306,-544 500,-544 500,-522 306,-522"/>
<polygon fill="none" stroke="black" points="306,-522 306,-544 500,-544 500,-522 306,-522"/>
<text text-anchor="start" x="326" y="-530.2" font-family="Helvetica,sans-Serif" font-size="11.00">access_account_id</text>
<polygon fill="none" stroke="black" points="306,-504 306,-522 500,-522 500,-504 306,-504"/>
<text text-anchor="start" x="309" y="-510.2" font-family="Helvetica,sans-Serif" font-size="11.00">...</text>
<polygon fill="#ffffff" stroke="transparent" points="306,-486 306,-504 396,-504 396,-486 306,-486"/>
<polygon fill="none" stroke="black" points="306,-486 306,-504 396,-504 396,-486 306,-486"/>
<text text-anchor="start" x="309" y="-492.2" font-family="Helvetica,sans-Serif" font-size="11.00">&lt; 3</text>
<polygon fill="#ffffff" stroke="transparent" points="396,-486 396,-504 443,-504 443,-486 396,-486"/>
<polygon fill="none" stroke="black" points="396,-486 396,-504 443,-504 443,-486 396,-486"/>
<text text-anchor="start" x="433" y="-492.2" font-family="Helvetica,sans-Serif" font-size="11.00"> &#160;</text>
<polygon fill="#ffffff" stroke="transparent" points="443,-486 443,-504 500,-504 500,-486 443,-486"/>
<polygon fill="none" stroke="black" points="443,-486 443,-504 500,-504 500,-486 443,-486"/>
<text text-anchor="start" x="481" y="-492.2" font-family="Helvetica,sans-Serif" font-size="11.00">2 &gt;</text>
</a>
</g>
</g>
<!-- mstr_person_contact_roles&#45;&gt;mstr_persons -->
<g id="edge5" class="edge">
<title>mstr_person_contact_roles:w&#45;&gt;mstr_persons:e</title>
<path fill="none" stroke="black" d="M535.44,-468.23C474.68,-490.1 586.39,-665 501,-665"/>
<polygon fill="black" stroke="black" points="542.09,-467.21 550.55,-469.56 546.05,-466.61 550,-466 550,-466 550,-466 546.05,-466.61 549.45,-462.44 542.09,-467.21 542.09,-467.21"/>
<ellipse fill="none" stroke="black" cx="538.93" cy="-467.7" rx="3.2" ry="3.2"/>
</g>
<!-- mstr_places -->
<g id="node5" class="node">
<title>mstr_places</title>
<g id="a_node5"><a xlink:href="../../tables/mstr_places.html" xlink:title="mstr_places" target="_top">
<polygon fill="#ffffff" stroke="transparent" points="306,-248 306,-438 500,-438 500,-248 306,-248"/>
<polygon fill="#f5f5f5" stroke="transparent" points="306,-416 306,-438 500,-438 500,-416 306,-416"/>
<polygon fill="none" stroke="black" points="306,-416 306,-438 500,-438 500,-416 306,-416"/>
<text text-anchor="start" x="311" y="-425.2" font-family="Helvetica,sans-Serif" font-weight="bold" font-size="11.00">mstr_places</text>
<text text-anchor="start" x="465" y="-424.2" font-family="Helvetica,sans-Serif" font-size="11.00">[table]</text>
<polygon fill="none" stroke="black" points="306,-394 306,-416 500,-416 500,-394 306,-394"/>
<image xlink:href="../../images/primaryKeys.png" width="11px" height="12px" preserveAspectRatio="xMinYMin meet" x="311" y="-411"/>
<text text-anchor="start" x="326" y="-402.2" font-family="Helvetica,sans-Serif" font-size="11.00">id</text>
<polygon fill="none" stroke="black" points="306,-372 306,-394 500,-394 500,-372 306,-372"/>
<image xlink:href="../../images/foreignKeys.png" width="11px" height="12px" preserveAspectRatio="xMinYMin meet" x="311" y="-389"/>
<text text-anchor="start" x="326" y="-380.2" font-family="Helvetica,sans-Serif" font-size="11.00">owning_entity_id</text>
<polygon fill="#ffffff" stroke="transparent" points="306,-350 306,-372 500,-372 500,-350 306,-350"/>
<polygon fill="none" stroke="black" points="306,-350 306,-372 500,-372 500,-350 306,-350"/>
<text text-anchor="start" x="326" y="-358.2" font-family="Helvetica,sans-Serif" font-size="11.00">internal_name</text>
<polygon fill="#ffffff" stroke="transparent" points="306,-328 306,-350 500,-350 500,-328 306,-328"/>
<polygon fill="none" stroke="black" points="306,-328 306,-350 500,-350 500,-328 306,-328"/>
<text text-anchor="start" x="326" y="-336.2" font-family="Helvetica,sans-Serif" font-size="11.00">display_name</text>
<polygon fill="none" stroke="black" points="306,-306 306,-328 500,-328 500,-306 306,-306"/>
<image xlink:href="../../images/foreignKeys.png" width="11px" height="12px" preserveAspectRatio="xMinYMin meet" x="311" y="-323"/>
<text text-anchor="start" x="326" y="-314.2" font-family="Helvetica,sans-Serif" font-size="11.00">place_type_id</text>
<polygon fill="none" stroke="black" points="306,-284 306,-306 500,-306 500,-284 306,-284"/>
<image xlink:href="../../images/foreignKeys.png" width="11px" height="12px" preserveAspectRatio="xMinYMin meet" x="311" y="-301"/>
<text text-anchor="start" x="326" y="-292.2" font-family="Helvetica,sans-Serif" font-size="11.00">place_state_id</text>
<polygon fill="none" stroke="black" points="306,-266 306,-284 500,-284 500,-266 306,-266"/>
<text text-anchor="start" x="309" y="-272.2" font-family="Helvetica,sans-Serif" font-size="11.00">...</text>
<polygon fill="#ffffff" stroke="transparent" points="306,-248 306,-266 396,-266 396,-248 306,-248"/>
<polygon fill="none" stroke="black" points="306,-248 306,-266 396,-266 396,-248 306,-248"/>
<text text-anchor="start" x="309" y="-254.2" font-family="Helvetica,sans-Serif" font-size="11.00">&lt; 3</text>
<polygon fill="#ffffff" stroke="transparent" points="396,-248 396,-266 443,-266 443,-248 396,-248"/>
<polygon fill="none" stroke="black" points="396,-248 396,-266 443,-266 443,-248 396,-248"/>
<text text-anchor="start" x="433" y="-254.2" font-family="Helvetica,sans-Serif" font-size="11.00"> &#160;</text>
<polygon fill="#ffffff" stroke="transparent" points="443,-248 443,-266 500,-266 500,-248 443,-248"/>
<polygon fill="none" stroke="black" points="443,-248 443,-266 500,-266 500,-248 443,-248"/>
<text text-anchor="start" x="481" y="-254.2" font-family="Helvetica,sans-Serif" font-size="11.00">3 &gt;</text>
</a>
</g>
</g>
<!-- mstr_person_contact_roles&#45;&gt;mstr_places -->
<g id="edge6" class="edge">
<title>mstr_person_contact_roles:w&#45;&gt;mstr_places:e</title>
<path fill="none" stroke="black" d="M535.5,-419.19C524.12,-414.36 518.11,-405 501,-405"/>
<polygon fill="black" stroke="black" points="542.15,-420.48 549.32,-425.53 546.07,-421.24 550,-422 550,-422 550,-422 546.07,-421.24 550.68,-418.47 542.15,-420.48 542.15,-420.48"/>
<ellipse fill="none" stroke="black" cx="539" cy="-419.87" rx="3.2" ry="3.2"/>
</g>
<!-- mstr_persons&#45;&gt;ms_syst_data.syst_enum_items -->
<g id="edge7" class="edge">
<title>mstr_persons:w&#45;&gt;ms_syst_data.syst_enum_items:e</title>
<path fill="none" stroke="black" d="M290.47,-553.99C200.52,-541.29 156.84,-412.23 140.9,-350.09"/>
<polygon fill="black" stroke="black" points="297.02,-554.44 304.75,-558.59 301.01,-554.72 305,-555 305,-555 305,-555 301.01,-554.72 305.25,-551.41 297.02,-554.44 297.02,-554.44"/>
<ellipse fill="none" stroke="black" cx="293.83" cy="-554.22" rx="3.2" ry="3.2"/>
</g>
<!-- mstr_persons&#45;&gt;ms_syst_data.syst_enum_items -->
<g id="edge8" class="edge">
<title>mstr_persons:w&#45;&gt;ms_syst_data.syst_enum_items:e</title>
<path fill="none" stroke="black" d="M290.6,-576.03C193.55,-562.8 152.9,-417.07 139.27,-350.19"/>
<polygon fill="black" stroke="black" points="297.02,-576.46 304.76,-580.59 301.01,-576.73 305,-577 305,-577 305,-577 301.01,-576.73 305.24,-573.41 297.02,-576.46 297.02,-576.46"/>
<ellipse fill="none" stroke="black" cx="293.83" cy="-576.25" rx="3.2" ry="3.2"/>
</g>
<!-- mstr_places&#45;&gt;ms_syst_data.syst_enum_items -->
<g id="edge9" class="edge">
<title>mstr_places:w&#45;&gt;ms_syst_data.syst_enum_items:e</title>
<path fill="none" stroke="black" d="M290.29,-295.25C282.04,-295.52 273.66,-296.01 265.3,-296.65"/>
<polygon fill="black" stroke="black" points="297,-295.14 305.06,-298.6 301,-295.07 305,-295 305,-295 305,-295 301,-295.07 304.94,-291.4 297,-295.14 297,-295.14"/>
<ellipse fill="none" stroke="black" cx="293.8" cy="-295.19" rx="3.2" ry="3.2"/>
</g>
<!-- mstr_places&#45;&gt;ms_syst_data.syst_enum_items -->
<g id="edge10" class="edge">
<title>mstr_places:w&#45;&gt;ms_syst_data.syst_enum_items:e</title>
<path fill="none" stroke="black" d="M290.54,-317C282.13,-317 273.59,-317 265.05,-317"/>
<polygon fill="black" stroke="black" points="297,-317 305,-320.6 301,-317 305,-317 305,-317 305,-317 301,-317 305,-313.4 297,-317 297,-317"/>
<ellipse fill="none" stroke="black" cx="293.8" cy="-317" rx="3.2" ry="3.2"/>
</g>
</g>
</svg>
