<?xml version="1.0" encoding="UTF-8" standalone="no"?>
<!DOCTYPE svg PUBLIC "-//W3C//DTD SVG 1.1//EN"
 "http://www.w3.org/Graphics/SVG/1.1/DTD/svg11.dtd">
<!-- Generated by graphviz version 2.43.0 (0)
 -->
<!-- Title: oneDegreeRelationshipsDiagram Pages: 1 -->
<svg width="768pt" height="370pt"
 viewBox="0.00 0.00 768.00 370.00" xmlns="http://www.w3.org/2000/svg" xmlns:xlink="http://www.w3.org/1999/xlink">
<g id="graph0" class="graph" transform="scale(1 1) rotate(0) translate(4 366)">
<title>oneDegreeRelationshipsDiagram</title>
<polygon fill="#ffffff" stroke="transparent" points="-4,4 -4,-366 764,-366 764,4 -4,4"/>
<text text-anchor="middle" x="71.5" y="-7.2" font-family="Helvetica,sans-Serif" font-size="11.00">Generated by SchemaSpy</text>
<!-- mstr_country_address_format_assocs -->
<g id="node1" class="node">
<title>mstr_country_address_format_assocs</title>
<g id="a_node1"><a xlink:href="../../tables/mstr_country_address_format_assocs.html" xlink:title="mstr_country_address_format_assocs" target="_top">
<polygon fill="#ffffff" stroke="transparent" points="383,-37 383,-323 752,-323 752,-37 383,-37"/>
<polygon fill="#f5f5f5" stroke="transparent" points="385.5,-299 385.5,-321 750.5,-321 750.5,-299 385.5,-299"/>
<polygon fill="none" stroke="black" points="385.5,-299 385.5,-321 750.5,-321 750.5,-299 385.5,-299"/>
<text text-anchor="start" x="390.5" y="-308.2" font-family="Helvetica,sans-Serif" font-weight="bold" font-size="11.00">mstr_country_address_format_assocs</text>
<text text-anchor="start" x="715.5" y="-307.2" font-family="Helvetica,sans-Serif" font-size="11.00">[table]</text>
<polygon fill="none" stroke="black" points="385.5,-277 385.5,-299 657.5,-299 657.5,-277 385.5,-277"/>
<image xlink:href="../../images/primaryKeys.png" width="11px" height="12px" preserveAspectRatio="xMinYMin meet" x="390.5" y="-294"/>
<text text-anchor="start" x="405.5" y="-285.2" font-family="Helvetica,sans-Serif" font-size="11.00">id</text>
<polygon fill="none" stroke="black" points="657.5,-277 657.5,-299 750.5,-299 750.5,-277 657.5,-277"/>
<text text-anchor="start" x="660.5" y="-285.2" font-family="Helvetica,sans-Serif" font-size="11.00">uuid[2147483647]</text>
<polygon fill="none" stroke="black" points="385.5,-255 385.5,-277 657.5,-277 657.5,-255 385.5,-255"/>
<image xlink:href="../../images/foreignKeys.png" width="11px" height="12px" preserveAspectRatio="xMinYMin meet" x="390.5" y="-272"/>
<text text-anchor="start" x="405.5" y="-263.2" font-family="Helvetica,sans-Serif" font-size="11.00">country_id</text>
<polygon fill="none" stroke="black" points="657.5,-255 657.5,-277 750.5,-277 750.5,-255 657.5,-255"/>
<text text-anchor="start" x="660.5" y="-263.2" font-family="Helvetica,sans-Serif" font-size="11.00">uuid[2147483647]</text>
<polygon fill="none" stroke="black" points="385.5,-233 385.5,-255 657.5,-255 657.5,-233 385.5,-233"/>
<image xlink:href="../../images/foreignKeys.png" width="11px" height="12px" preserveAspectRatio="xMinYMin meet" x="390.5" y="-250"/>
<text text-anchor="start" x="405.5" y="-241.2" font-family="Helvetica,sans-Serif" font-size="11.00">address_format_id</text>
<polygon fill="none" stroke="black" points="657.5,-233 657.5,-255 750.5,-255 750.5,-233 657.5,-233"/>
<text text-anchor="start" x="660.5" y="-241.2" font-family="Helvetica,sans-Serif" font-size="11.00">uuid[2147483647]</text>
<polygon fill="none" stroke="black" points="385.5,-211 385.5,-233 657.5,-233 657.5,-211 385.5,-211"/>
<text text-anchor="start" x="405.5" y="-219.2" font-family="Helvetica,sans-Serif" font-size="11.00">is_default_for_country</text>
<polygon fill="none" stroke="black" points="657.5,-211 657.5,-233 750.5,-233 750.5,-211 657.5,-211"/>
<text text-anchor="start" x="660.5" y="-219.2" font-family="Helvetica,sans-Serif" font-size="11.00">bool[1]</text>
<polygon fill="none" stroke="black" points="385.5,-189 385.5,-211 657.5,-211 657.5,-189 385.5,-189"/>
<text text-anchor="start" x="405.5" y="-197.2" font-family="Helvetica,sans-Serif" font-size="11.00">diag_timestamp_created</text>
<polygon fill="none" stroke="black" points="657.5,-189 657.5,-211 750.5,-211 750.5,-189 657.5,-189"/>
<text text-anchor="start" x="660.5" y="-197.2" font-family="Helvetica,sans-Serif" font-size="11.00">timestamptz[35,6]</text>
<polygon fill="none" stroke="black" points="385.5,-167 385.5,-189 657.5,-189 657.5,-167 385.5,-167"/>
<text text-anchor="start" x="405.5" y="-175.2" font-family="Helvetica,sans-Serif" font-size="11.00">diag_role_created</text>
<polygon fill="none" stroke="black" points="657.5,-167 657.5,-189 750.5,-189 750.5,-167 657.5,-167"/>
<text text-anchor="start" x="660.5" y="-175.2" font-family="Helvetica,sans-Serif" font-size="11.00">text[2147483647]</text>
<polygon fill="none" stroke="black" points="385.5,-145 385.5,-167 657.5,-167 657.5,-145 385.5,-145"/>
<text text-anchor="start" x="405.5" y="-153.2" font-family="Helvetica,sans-Serif" font-size="11.00">diag_timestamp_modified</text>
<polygon fill="none" stroke="black" points="657.5,-145 657.5,-167 750.5,-167 750.5,-145 657.5,-145"/>
<text text-anchor="start" x="660.5" y="-153.2" font-family="Helvetica,sans-Serif" font-size="11.00">timestamptz[35,6]</text>
<polygon fill="none" stroke="black" points="385.5,-123 385.5,-145 657.5,-145 657.5,-123 385.5,-123"/>
<text text-anchor="start" x="405.5" y="-131.2" font-family="Helvetica,sans-Serif" font-size="11.00">diag_wallclock_modified</text>
<polygon fill="none" stroke="black" points="657.5,-123 657.5,-145 750.5,-145 750.5,-123 657.5,-123"/>
<text text-anchor="start" x="660.5" y="-131.2" font-family="Helvetica,sans-Serif" font-size="11.00">timestamptz[35,6]</text>
<polygon fill="none" stroke="black" points="385.5,-101 385.5,-123 657.5,-123 657.5,-101 385.5,-101"/>
<text text-anchor="start" x="405.5" y="-109.2" font-family="Helvetica,sans-Serif" font-size="11.00">diag_role_modified</text>
<polygon fill="none" stroke="black" points="657.5,-101 657.5,-123 750.5,-123 750.5,-101 657.5,-101"/>
<text text-anchor="start" x="660.5" y="-109.2" font-family="Helvetica,sans-Serif" font-size="11.00">text[2147483647]</text>
<polygon fill="none" stroke="black" points="385.5,-79 385.5,-101 657.5,-101 657.5,-79 385.5,-79"/>
<text text-anchor="start" x="405.5" y="-87.2" font-family="Helvetica,sans-Serif" font-size="11.00">diag_row_version</text>
<polygon fill="none" stroke="black" points="657.5,-79 657.5,-101 750.5,-101 750.5,-79 657.5,-79"/>
<text text-anchor="start" x="660.5" y="-87.2" font-family="Helvetica,sans-Serif" font-size="11.00">int8[19]</text>
<polygon fill="none" stroke="black" points="385.5,-57 385.5,-79 657.5,-79 657.5,-57 385.5,-57"/>
<text text-anchor="start" x="405.5" y="-65.2" font-family="Helvetica,sans-Serif" font-size="11.00">diag_update_count</text>
<polygon fill="none" stroke="black" points="657.5,-57 657.5,-79 750.5,-79 750.5,-57 657.5,-57"/>
<text text-anchor="start" x="660.5" y="-65.2" font-family="Helvetica,sans-Serif" font-size="11.00">int8[19]</text>
<polygon fill="#ffffff" stroke="transparent" points="385.5,-39 385.5,-57 525.5,-57 525.5,-39 385.5,-39"/>
<polygon fill="none" stroke="black" points="385.5,-39 385.5,-57 525.5,-57 525.5,-39 385.5,-39"/>
<text text-anchor="start" x="388.5" y="-45.2" font-family="Helvetica,sans-Serif" font-size="11.00">&lt; 2</text>
<polygon fill="#ffffff" stroke="transparent" points="525.5,-39 525.5,-57 657.5,-57 657.5,-39 525.5,-39"/>
<polygon fill="none" stroke="black" points="525.5,-39 525.5,-57 657.5,-57 657.5,-39 525.5,-39"/>
<text text-anchor="start" x="647.5" y="-45.2" font-family="Helvetica,sans-Serif" font-size="11.00"> &#160;</text>
<polygon fill="#ffffff" stroke="transparent" points="657.5,-39 657.5,-57 750.5,-57 750.5,-39 657.5,-39"/>
<polygon fill="none" stroke="black" points="657.5,-39 657.5,-57 750.5,-57 750.5,-39 657.5,-39"/>
<text text-anchor="start" x="731.5" y="-45.2" font-family="Helvetica,sans-Serif" font-size="11.00">0 &gt;</text>
<polygon fill="none" stroke="black" stroke-width="2" points="384,-38 384,-322 751,-322 751,-38 384,-38"/>
</a>
</g>
</g>
<!-- ms_syst_data.syst_complex_format_values -->
<g id="node2" class="node">
<title>ms_syst_data.syst_complex_format_values</title>
<g id="a_node2"><a xlink:href="../../../ms_syst_data/tables/syst_complex_format_values.html" xlink:title="ms_syst_data.syst_complex_format_values" target="_top">
<polygon fill="#ffffff" stroke="transparent" points="8,-155 8,-213 334,-213 334,-155 8,-155"/>
<polygon fill="#f5f5f5" stroke="transparent" points="8,-191 8,-213 334,-213 334,-191 8,-191"/>
<polygon fill="none" stroke="black" points="8,-191 8,-213 334,-213 334,-191 8,-191"/>
<text text-anchor="start" x="13" y="-200.2" font-family="Helvetica,sans-Serif" font-weight="bold" font-size="11.00">ms_syst_data.syst_complex_format_values</text>
<text text-anchor="start" x="299" y="-199.2" font-family="Helvetica,sans-Serif" font-size="11.00">[table]</text>
<polygon fill="none" stroke="black" points="8,-173 8,-191 334,-191 334,-173 8,-173"/>
<text text-anchor="start" x="11" y="-179.2" font-family="Helvetica,sans-Serif" font-size="11.00">...</text>
<polygon fill="#ffffff" stroke="transparent" points="8,-155 8,-173 160,-173 160,-155 8,-155"/>
<polygon fill="none" stroke="black" points="8,-155 8,-173 160,-173 160,-155 8,-155"/>
<text text-anchor="start" x="11" y="-161.2" font-family="Helvetica,sans-Serif" font-size="11.00"> &#160;</text>
<polygon fill="#ffffff" stroke="transparent" points="160,-155 160,-173 242,-173 242,-155 160,-155"/>
<polygon fill="none" stroke="black" points="160,-155 160,-173 242,-173 242,-155 160,-155"/>
<text text-anchor="start" x="232" y="-161.2" font-family="Helvetica,sans-Serif" font-size="11.00"> &#160;</text>
<polygon fill="#ffffff" stroke="transparent" points="242,-155 242,-173 334,-173 334,-155 242,-155"/>
<polygon fill="none" stroke="black" points="242,-155 242,-173 334,-173 334,-155 242,-155"/>
<text text-anchor="start" x="315" y="-161.2" font-family="Helvetica,sans-Serif" font-size="11.00">3 &gt;</text>
</a>
</g>
</g>
<!-- mstr_country_address_format_assocs&#45;&gt;ms_syst_data.syst_complex_format_values -->
<g id="edge1" class="edge">
<title>mstr_country_address_format_assocs:w&#45;&gt;ms_syst_data.syst_complex_format_values:e</title>
<path fill="none" stroke="black" d="M370.26,-241.18C361.03,-236.93 356.01,-228.89 342,-224 335.13,-221.6 328.05,-219.31 320.87,-217.11"/>
<polygon fill="black" stroke="black" points="376.65,-242.44 383.8,-247.53 380.58,-243.22 384.5,-244 384.5,-244 384.5,-244 380.58,-243.22 385.2,-240.47 376.65,-242.44 376.65,-242.44"/>
<ellipse fill="none" stroke="black" cx="373.51" cy="-241.82" rx="3.2" ry="3.2"/>
</g>
<!-- mstr_countries -->
<g id="node3" class="node">
<title>mstr_countries</title>
<g id="a_node3"><a xlink:href="../../tables/mstr_countries.html" xlink:title="mstr_countries" target="_top">
<polygon fill="#ffffff" stroke="transparent" points="44,-234 44,-358 298,-358 298,-234 44,-234"/>
<polygon fill="#f5f5f5" stroke="transparent" points="44,-336 44,-358 298,-358 298,-336 44,-336"/>
<polygon fill="none" stroke="black" points="44,-336 44,-358 298,-358 298,-336 44,-336"/>
<text text-anchor="start" x="49" y="-345.2" font-family="Helvetica,sans-Serif" font-weight="bold" font-size="11.00">mstr_countries</text>
<text text-anchor="start" x="263" y="-344.2" font-family="Helvetica,sans-Serif" font-size="11.00">[table]</text>
<polygon fill="none" stroke="black" points="44,-314 44,-336 298,-336 298,-314 44,-314"/>
<image xlink:href="../../images/primaryKeys.png" width="11px" height="12px" preserveAspectRatio="xMinYMin meet" x="49" y="-331"/>
<text text-anchor="start" x="64" y="-322.2" font-family="Helvetica,sans-Serif" font-size="11.00">id</text>
<polygon fill="#ffffff" stroke="transparent" points="44,-292 44,-314 298,-314 298,-292 44,-292"/>
<polygon fill="none" stroke="black" points="44,-292 44,-314 298,-314 298,-292 44,-292"/>
<text text-anchor="start" x="64" y="-300.2" font-family="Helvetica,sans-Serif" font-size="11.00">internal_name</text>
<polygon fill="#ffffff" stroke="transparent" points="44,-270 44,-292 298,-292 298,-270 44,-270"/>
<polygon fill="none" stroke="black" points="44,-270 44,-292 298,-292 298,-270 44,-270"/>
<text text-anchor="start" x="64" y="-278.2" font-family="Helvetica,sans-Serif" font-size="11.00">display_name</text>
<polygon fill="none" stroke="black" points="44,-252 44,-270 298,-270 298,-252 44,-252"/>
<text text-anchor="start" x="47" y="-258.2" font-family="Helvetica,sans-Serif" font-size="11.00">...</text>
<polygon fill="#ffffff" stroke="transparent" points="44,-234 44,-252 160,-252 160,-234 44,-234"/>
<polygon fill="none" stroke="black" points="44,-234 44,-252 160,-252 160,-234 44,-234"/>
<text text-anchor="start" x="47" y="-240.2" font-family="Helvetica,sans-Serif" font-size="11.00"> &#160;</text>
<polygon fill="#ffffff" stroke="transparent" points="160,-234 160,-252 224,-252 224,-234 160,-234"/>
<polygon fill="none" stroke="black" points="160,-234 160,-252 224,-252 224,-234 160,-234"/>
<text text-anchor="start" x="214" y="-240.2" font-family="Helvetica,sans-Serif" font-size="11.00"> &#160;</text>
<polygon fill="#ffffff" stroke="transparent" points="224,-234 224,-252 298,-252 298,-234 224,-234"/>
<polygon fill="none" stroke="black" points="224,-234 224,-252 298,-252 298,-234 224,-234"/>
<text text-anchor="start" x="279" y="-240.2" font-family="Helvetica,sans-Serif" font-size="11.00">3 &gt;</text>
</a>
</g>
</g>
<!-- mstr_country_address_format_assocs&#45;&gt;mstr_countries -->
<g id="edge2" class="edge">
<title>mstr_country_address_format_assocs:w&#45;&gt;mstr_countries:e</title>
<path fill="none" stroke="black" d="M369.87,-268.39C339.21,-279.42 339.58,-325 299,-325"/>
<polygon fill="black" stroke="black" points="376.6,-267.29 385.08,-269.55 380.55,-266.64 384.5,-266 384.5,-266 384.5,-266 380.55,-266.64 383.92,-262.45 376.6,-267.29 376.6,-267.29"/>
<ellipse fill="none" stroke="black" cx="373.45" cy="-267.8" rx="3.2" ry="3.2"/>
</g>
</g>
</svg>
