<?xml version="1.0" encoding="UTF-8" standalone="no"?>
<!DOCTYPE svg PUBLIC "-//W3C//DTD SVG 1.1//EN"
 "http://www.w3.org/Graphics/SVG/1.1/DTD/svg11.dtd">
<!-- Generated by graphviz version 2.43.0 (0)
 -->
<!-- Title: twoDegreesRelationshipsDiagram Pages: 1 -->
<svg width="768pt" height="493pt"
 viewBox="0.00 0.00 768.00 493.00" xmlns="http://www.w3.org/2000/svg" xmlns:xlink="http://www.w3.org/1999/xlink">
<g id="graph0" class="graph" transform="scale(1 1) rotate(0) translate(4 489)">
<title>twoDegreesRelationshipsDiagram</title>
<polygon fill="#ffffff" stroke="transparent" points="-4,4 -4,-489 764,-489 764,4 -4,4"/>
<text text-anchor="middle" x="71.5" y="-7.2" font-family="Helvetica,sans-Serif" font-size="11.00">Generated by SchemaSpy</text>
<!-- mstr_country_address_format_assocs -->
<g id="node1" class="node">
<title>mstr_country_address_format_assocs</title>
<g id="a_node1"><a xlink:href="../../tables/mstr_country_address_format_assocs.html" xlink:title="mstr_country_address_format_assocs" target="_top">
<polygon fill="#ffffff" stroke="transparent" points="383,-195 383,-481 752,-481 752,-195 383,-195"/>
<polygon fill="#f5f5f5" stroke="transparent" points="385.5,-457 385.5,-479 750.5,-479 750.5,-457 385.5,-457"/>
<polygon fill="none" stroke="black" points="385.5,-457 385.5,-479 750.5,-479 750.5,-457 385.5,-457"/>
<text text-anchor="start" x="390.5" y="-466.2" font-family="Helvetica,sans-Serif" font-weight="bold" font-size="11.00">mstr_country_address_format_assocs</text>
<text text-anchor="start" x="715.5" y="-465.2" font-family="Helvetica,sans-Serif" font-size="11.00">[table]</text>
<polygon fill="none" stroke="black" points="385.5,-435 385.5,-457 657.5,-457 657.5,-435 385.5,-435"/>
<image xlink:href="../../images/primaryKeys.png" width="11px" height="12px" preserveAspectRatio="xMinYMin meet" x="390.5" y="-452"/>
<text text-anchor="start" x="405.5" y="-443.2" font-family="Helvetica,sans-Serif" font-size="11.00">id</text>
<polygon fill="none" stroke="black" points="657.5,-435 657.5,-457 750.5,-457 750.5,-435 657.5,-435"/>
<text text-anchor="start" x="660.5" y="-443.2" font-family="Helvetica,sans-Serif" font-size="11.00">uuid[2147483647]</text>
<polygon fill="none" stroke="black" points="385.5,-413 385.5,-435 657.5,-435 657.5,-413 385.5,-413"/>
<image xlink:href="../../images/foreignKeys.png" width="11px" height="12px" preserveAspectRatio="xMinYMin meet" x="390.5" y="-430"/>
<text text-anchor="start" x="405.5" y="-421.2" font-family="Helvetica,sans-Serif" font-size="11.00">country_id</text>
<polygon fill="none" stroke="black" points="657.5,-413 657.5,-435 750.5,-435 750.5,-413 657.5,-413"/>
<text text-anchor="start" x="660.5" y="-421.2" font-family="Helvetica,sans-Serif" font-size="11.00">uuid[2147483647]</text>
<polygon fill="none" stroke="black" points="385.5,-391 385.5,-413 657.5,-413 657.5,-391 385.5,-391"/>
<image xlink:href="../../images/foreignKeys.png" width="11px" height="12px" preserveAspectRatio="xMinYMin meet" x="390.5" y="-408"/>
<text text-anchor="start" x="405.5" y="-399.2" font-family="Helvetica,sans-Serif" font-size="11.00">address_format_id</text>
<polygon fill="none" stroke="black" points="657.5,-391 657.5,-413 750.5,-413 750.5,-391 657.5,-391"/>
<text text-anchor="start" x="660.5" y="-399.2" font-family="Helvetica,sans-Serif" font-size="11.00">uuid[2147483647]</text>
<polygon fill="none" stroke="black" points="385.5,-369 385.5,-391 657.5,-391 657.5,-369 385.5,-369"/>
<text text-anchor="start" x="405.5" y="-377.2" font-family="Helvetica,sans-Serif" font-size="11.00">is_default_for_country</text>
<polygon fill="none" stroke="black" points="657.5,-369 657.5,-391 750.5,-391 750.5,-369 657.5,-369"/>
<text text-anchor="start" x="660.5" y="-377.2" font-family="Helvetica,sans-Serif" font-size="11.00">bool[1]</text>
<polygon fill="none" stroke="black" points="385.5,-347 385.5,-369 657.5,-369 657.5,-347 385.5,-347"/>
<text text-anchor="start" x="405.5" y="-355.2" font-family="Helvetica,sans-Serif" font-size="11.00">diag_timestamp_created</text>
<polygon fill="none" stroke="black" points="657.5,-347 657.5,-369 750.5,-369 750.5,-347 657.5,-347"/>
<text text-anchor="start" x="660.5" y="-355.2" font-family="Helvetica,sans-Serif" font-size="11.00">timestamptz[35,6]</text>
<polygon fill="none" stroke="black" points="385.5,-325 385.5,-347 657.5,-347 657.5,-325 385.5,-325"/>
<text text-anchor="start" x="405.5" y="-333.2" font-family="Helvetica,sans-Serif" font-size="11.00">diag_role_created</text>
<polygon fill="none" stroke="black" points="657.5,-325 657.5,-347 750.5,-347 750.5,-325 657.5,-325"/>
<text text-anchor="start" x="660.5" y="-333.2" font-family="Helvetica,sans-Serif" font-size="11.00">text[2147483647]</text>
<polygon fill="none" stroke="black" points="385.5,-303 385.5,-325 657.5,-325 657.5,-303 385.5,-303"/>
<text text-anchor="start" x="405.5" y="-311.2" font-family="Helvetica,sans-Serif" font-size="11.00">diag_timestamp_modified</text>
<polygon fill="none" stroke="black" points="657.5,-303 657.5,-325 750.5,-325 750.5,-303 657.5,-303"/>
<text text-anchor="start" x="660.5" y="-311.2" font-family="Helvetica,sans-Serif" font-size="11.00">timestamptz[35,6]</text>
<polygon fill="none" stroke="black" points="385.5,-281 385.5,-303 657.5,-303 657.5,-281 385.5,-281"/>
<text text-anchor="start" x="405.5" y="-289.2" font-family="Helvetica,sans-Serif" font-size="11.00">diag_wallclock_modified</text>
<polygon fill="none" stroke="black" points="657.5,-281 657.5,-303 750.5,-303 750.5,-281 657.5,-281"/>
<text text-anchor="start" x="660.5" y="-289.2" font-family="Helvetica,sans-Serif" font-size="11.00">timestamptz[35,6]</text>
<polygon fill="none" stroke="black" points="385.5,-259 385.5,-281 657.5,-281 657.5,-259 385.5,-259"/>
<text text-anchor="start" x="405.5" y="-267.2" font-family="Helvetica,sans-Serif" font-size="11.00">diag_role_modified</text>
<polygon fill="none" stroke="black" points="657.5,-259 657.5,-281 750.5,-281 750.5,-259 657.5,-259"/>
<text text-anchor="start" x="660.5" y="-267.2" font-family="Helvetica,sans-Serif" font-size="11.00">text[2147483647]</text>
<polygon fill="none" stroke="black" points="385.5,-237 385.5,-259 657.5,-259 657.5,-237 385.5,-237"/>
<text text-anchor="start" x="405.5" y="-245.2" font-family="Helvetica,sans-Serif" font-size="11.00">diag_row_version</text>
<polygon fill="none" stroke="black" points="657.5,-237 657.5,-259 750.5,-259 750.5,-237 657.5,-237"/>
<text text-anchor="start" x="660.5" y="-245.2" font-family="Helvetica,sans-Serif" font-size="11.00">int8[19]</text>
<polygon fill="none" stroke="black" points="385.5,-215 385.5,-237 657.5,-237 657.5,-215 385.5,-215"/>
<text text-anchor="start" x="405.5" y="-223.2" font-family="Helvetica,sans-Serif" font-size="11.00">diag_update_count</text>
<polygon fill="none" stroke="black" points="657.5,-215 657.5,-237 750.5,-237 750.5,-215 657.5,-215"/>
<text text-anchor="start" x="660.5" y="-223.2" font-family="Helvetica,sans-Serif" font-size="11.00">int8[19]</text>
<polygon fill="#ffffff" stroke="transparent" points="385.5,-197 385.5,-215 525.5,-215 525.5,-197 385.5,-197"/>
<polygon fill="none" stroke="black" points="385.5,-197 385.5,-215 525.5,-215 525.5,-197 385.5,-197"/>
<text text-anchor="start" x="388.5" y="-203.2" font-family="Helvetica,sans-Serif" font-size="11.00">&lt; 2</text>
<polygon fill="#ffffff" stroke="transparent" points="525.5,-197 525.5,-215 657.5,-215 657.5,-197 525.5,-197"/>
<polygon fill="none" stroke="black" points="525.5,-197 525.5,-215 657.5,-215 657.5,-197 525.5,-197"/>
<text text-anchor="start" x="647.5" y="-203.2" font-family="Helvetica,sans-Serif" font-size="11.00"> &#160;</text>
<polygon fill="#ffffff" stroke="transparent" points="657.5,-197 657.5,-215 750.5,-215 750.5,-197 657.5,-197"/>
<polygon fill="none" stroke="black" points="657.5,-197 657.5,-215 750.5,-215 750.5,-197 657.5,-197"/>
<text text-anchor="start" x="731.5" y="-203.2" font-family="Helvetica,sans-Serif" font-size="11.00">0 &gt;</text>
<polygon fill="none" stroke="black" stroke-width="2" points="384,-196 384,-480 751,-480 751,-196 384,-196"/>
</a>
</g>
</g>
<!-- ms_syst_data.syst_complex_format_values -->
<g id="node2" class="node">
<title>ms_syst_data.syst_complex_format_values</title>
<g id="a_node2"><a xlink:href="../../../ms_syst_data/tables/syst_complex_format_values.html" xlink:title="ms_syst_data.syst_complex_format_values" target="_top">
<polygon fill="#ffffff" stroke="transparent" points="8,-74 8,-132 334,-132 334,-74 8,-74"/>
<polygon fill="#f5f5f5" stroke="transparent" points="8,-110 8,-132 334,-132 334,-110 8,-110"/>
<polygon fill="none" stroke="black" points="8,-110 8,-132 334,-132 334,-110 8,-110"/>
<text text-anchor="start" x="13" y="-119.2" font-family="Helvetica,sans-Serif" font-weight="bold" font-size="11.00">ms_syst_data.syst_complex_format_values</text>
<text text-anchor="start" x="299" y="-118.2" font-family="Helvetica,sans-Serif" font-size="11.00">[table]</text>
<polygon fill="none" stroke="black" points="8,-92 8,-110 334,-110 334,-92 8,-92"/>
<text text-anchor="start" x="11" y="-98.2" font-family="Helvetica,sans-Serif" font-size="11.00">...</text>
<polygon fill="#ffffff" stroke="transparent" points="8,-74 8,-92 160,-92 160,-74 8,-74"/>
<polygon fill="none" stroke="black" points="8,-74 8,-92 160,-92 160,-74 8,-74"/>
<text text-anchor="start" x="11" y="-80.2" font-family="Helvetica,sans-Serif" font-size="11.00"> &#160;</text>
<polygon fill="#ffffff" stroke="transparent" points="160,-74 160,-92 242,-92 242,-74 160,-74"/>
<polygon fill="none" stroke="black" points="160,-74 160,-92 242,-92 242,-74 160,-74"/>
<text text-anchor="start" x="232" y="-80.2" font-family="Helvetica,sans-Serif" font-size="11.00"> &#160;</text>
<polygon fill="#ffffff" stroke="transparent" points="242,-74 242,-92 334,-92 334,-74 242,-74"/>
<polygon fill="none" stroke="black" points="242,-74 242,-92 334,-92 334,-74 242,-74"/>
<text text-anchor="start" x="315" y="-80.2" font-family="Helvetica,sans-Serif" font-size="11.00">3 &gt;</text>
</a>
</g>
</g>
<!-- mstr_country_address_format_assocs&#45;&gt;ms_syst_data.syst_complex_format_values -->
<g id="edge1" class="edge">
<title>mstr_country_address_format_assocs:w&#45;&gt;ms_syst_data.syst_complex_format_values:e</title>
<path fill="none" stroke="black" d="M370.93,-396.62C335.77,-362.96 378.07,-181.63 342,-143 339.72,-140.56 337.33,-138.26 334.83,-136.09"/>
<polygon fill="black" stroke="black" points="377.06,-399.05 383.17,-405.35 380.78,-400.53 384.5,-402 384.5,-402 384.5,-402 380.78,-400.53 385.83,-398.65 377.06,-399.05 377.06,-399.05"/>
<ellipse fill="none" stroke="black" cx="374.09" cy="-397.87" rx="3.2" ry="3.2"/>
</g>
<!-- mstr_countries -->
<g id="node3" class="node">
<title>mstr_countries</title>
<g id="a_node3"><a xlink:href="../../tables/mstr_countries.html" xlink:title="mstr_countries" target="_top">
<polygon fill="#ffffff" stroke="transparent" points="44,-153 44,-277 298,-277 298,-153 44,-153"/>
<polygon fill="#f5f5f5" stroke="transparent" points="44,-255 44,-277 298,-277 298,-255 44,-255"/>
<polygon fill="none" stroke="black" points="44,-255 44,-277 298,-277 298,-255 44,-255"/>
<text text-anchor="start" x="49" y="-264.2" font-family="Helvetica,sans-Serif" font-weight="bold" font-size="11.00">mstr_countries</text>
<text text-anchor="start" x="263" y="-263.2" font-family="Helvetica,sans-Serif" font-size="11.00">[table]</text>
<polygon fill="none" stroke="black" points="44,-233 44,-255 298,-255 298,-233 44,-233"/>
<image xlink:href="../../images/primaryKeys.png" width="11px" height="12px" preserveAspectRatio="xMinYMin meet" x="49" y="-250"/>
<text text-anchor="start" x="64" y="-241.2" font-family="Helvetica,sans-Serif" font-size="11.00">id</text>
<polygon fill="#ffffff" stroke="transparent" points="44,-211 44,-233 298,-233 298,-211 44,-211"/>
<polygon fill="none" stroke="black" points="44,-211 44,-233 298,-233 298,-211 44,-211"/>
<text text-anchor="start" x="64" y="-219.2" font-family="Helvetica,sans-Serif" font-size="11.00">internal_name</text>
<polygon fill="#ffffff" stroke="transparent" points="44,-189 44,-211 298,-211 298,-189 44,-189"/>
<polygon fill="none" stroke="black" points="44,-189 44,-211 298,-211 298,-189 44,-189"/>
<text text-anchor="start" x="64" y="-197.2" font-family="Helvetica,sans-Serif" font-size="11.00">display_name</text>
<polygon fill="none" stroke="black" points="44,-171 44,-189 298,-189 298,-171 44,-171"/>
<text text-anchor="start" x="47" y="-177.2" font-family="Helvetica,sans-Serif" font-size="11.00">...</text>
<polygon fill="#ffffff" stroke="transparent" points="44,-153 44,-171 160,-171 160,-153 44,-153"/>
<polygon fill="none" stroke="black" points="44,-153 44,-171 160,-171 160,-153 44,-153"/>
<text text-anchor="start" x="47" y="-159.2" font-family="Helvetica,sans-Serif" font-size="11.00"> &#160;</text>
<polygon fill="#ffffff" stroke="transparent" points="160,-153 160,-171 224,-171 224,-153 160,-153"/>
<polygon fill="none" stroke="black" points="160,-153 160,-171 224,-171 224,-153 160,-153"/>
<text text-anchor="start" x="214" y="-159.2" font-family="Helvetica,sans-Serif" font-size="11.00"> &#160;</text>
<polygon fill="#ffffff" stroke="transparent" points="224,-153 224,-171 298,-171 298,-153 224,-153"/>
<polygon fill="none" stroke="black" points="224,-153 224,-171 298,-171 298,-153 224,-153"/>
<text text-anchor="start" x="279" y="-159.2" font-family="Helvetica,sans-Serif" font-size="11.00">3 &gt;</text>
</a>
</g>
</g>
<!-- mstr_country_address_format_assocs&#45;&gt;mstr_countries -->
<g id="edge2" class="edge">
<title>mstr_country_address_format_assocs:w&#45;&gt;mstr_countries:e</title>
<path fill="none" stroke="black" d="M369.92,-421.98C306.68,-402.2 382.03,-244 299,-244"/>
<polygon fill="black" stroke="black" points="376.58,-422.9 384.01,-427.57 380.54,-423.45 384.5,-424 384.5,-424 384.5,-424 380.54,-423.45 384.99,-420.43 376.58,-422.9 376.58,-422.9"/>
<ellipse fill="none" stroke="black" cx="373.41" cy="-422.46" rx="3.2" ry="3.2"/>
</g>
<!-- mstr_country_name_format_assocs -->
<g id="node4" class="node">
<title>mstr_country_name_format_assocs</title>
<g id="a_node4"><a xlink:href="../../tables/mstr_country_name_format_assocs.html" xlink:title="mstr_country_name_format_assocs" target="_top">
<polygon fill="#ffffff" stroke="transparent" points="430,-116 430,-174 705,-174 705,-116 430,-116"/>
<polygon fill="#f5f5f5" stroke="transparent" points="430.5,-152 430.5,-174 705.5,-174 705.5,-152 430.5,-152"/>
<polygon fill="none" stroke="black" points="430.5,-152 430.5,-174 705.5,-174 705.5,-152 430.5,-152"/>
<text text-anchor="start" x="435.5" y="-161.2" font-family="Helvetica,sans-Serif" font-weight="bold" font-size="11.00">mstr_country_name_format_assocs</text>
<text text-anchor="start" x="670.5" y="-160.2" font-family="Helvetica,sans-Serif" font-size="11.00">[table]</text>
<polygon fill="none" stroke="black" points="430.5,-134 430.5,-152 705.5,-152 705.5,-134 430.5,-134"/>
<text text-anchor="start" x="433.5" y="-140.2" font-family="Helvetica,sans-Serif" font-size="11.00">...</text>
<polygon fill="#ffffff" stroke="transparent" points="430.5,-116 430.5,-134 565.5,-134 565.5,-116 430.5,-116"/>
<polygon fill="none" stroke="black" points="430.5,-116 430.5,-134 565.5,-134 565.5,-116 430.5,-116"/>
<text text-anchor="start" x="433.5" y="-122.2" font-family="Helvetica,sans-Serif" font-size="11.00">&lt; 2</text>
<polygon fill="#ffffff" stroke="transparent" points="565.5,-116 565.5,-134 635.5,-134 635.5,-116 565.5,-116"/>
<polygon fill="none" stroke="black" points="565.5,-116 565.5,-134 635.5,-134 635.5,-116 565.5,-116"/>
<text text-anchor="start" x="625.5" y="-122.2" font-family="Helvetica,sans-Serif" font-size="11.00"> &#160;</text>
<polygon fill="#ffffff" stroke="transparent" points="635.5,-116 635.5,-134 705.5,-134 705.5,-116 635.5,-116"/>
<polygon fill="none" stroke="black" points="635.5,-116 635.5,-134 705.5,-134 705.5,-116 635.5,-116"/>
<text text-anchor="start" x="695.5" y="-122.2" font-family="Helvetica,sans-Serif" font-size="11.00"> &#160;</text>
</a>
</g>
</g>
<!-- mstr_country_name_format_assocs&#45;&gt;ms_syst_data.syst_complex_format_values -->
<g id="edge4" class="edge">
<title>mstr_country_name_format_assocs:w&#45;&gt;ms_syst_data.syst_complex_format_values:e</title>
<path fill="none" stroke="black" d="M414.96,-142.8C388.58,-142.09 361.26,-139.53 334.87,-136.03"/>
<polygon fill="black" stroke="black" points="421.5,-142.89 429.45,-146.6 425.5,-142.94 429.5,-143 429.5,-143 429.5,-143 425.5,-142.94 429.55,-139.4 421.5,-142.89 421.5,-142.89"/>
<ellipse fill="none" stroke="black" cx="418.3" cy="-142.85" rx="3.2" ry="3.2"/>
</g>
<!-- mstr_country_name_format_assocs&#45;&gt;mstr_countries -->
<g id="edge3" class="edge">
<title>mstr_country_name_format_assocs:w&#45;&gt;mstr_countries:e</title>
<path fill="none" stroke="black" d="M414.93,-144.51C358.03,-157.07 367.04,-244 299,-244"/>
<polygon fill="black" stroke="black" points="421.54,-143.82 429.87,-146.58 425.52,-143.41 429.5,-143 429.5,-143 429.5,-143 425.52,-143.41 429.13,-139.42 421.54,-143.82 421.54,-143.82"/>
<ellipse fill="none" stroke="black" cx="418.36" cy="-144.15" rx="3.2" ry="3.2"/>
</g>
<!-- mstr_country_phone_format_assocs -->
<g id="node5" class="node">
<title>mstr_country_phone_format_assocs</title>
<g id="a_node5"><a xlink:href="../../tables/mstr_country_phone_format_assocs.html" xlink:title="mstr_country_phone_format_assocs" target="_top">
<polygon fill="#ffffff" stroke="transparent" points="428,-37 428,-95 707,-95 707,-37 428,-37"/>
<polygon fill="#f5f5f5" stroke="transparent" points="428.5,-73 428.5,-95 707.5,-95 707.5,-73 428.5,-73"/>
<polygon fill="none" stroke="black" points="428.5,-73 428.5,-95 707.5,-95 707.5,-73 428.5,-73"/>
<text text-anchor="start" x="433.5" y="-82.2" font-family="Helvetica,sans-Serif" font-weight="bold" font-size="11.00">mstr_country_phone_format_assocs</text>
<text text-anchor="start" x="672.5" y="-81.2" font-family="Helvetica,sans-Serif" font-size="11.00">[table]</text>
<polygon fill="none" stroke="black" points="428.5,-55 428.5,-73 707.5,-73 707.5,-55 428.5,-55"/>
<text text-anchor="start" x="431.5" y="-61.2" font-family="Helvetica,sans-Serif" font-size="11.00">...</text>
<polygon fill="#ffffff" stroke="transparent" points="428.5,-37 428.5,-55 565.5,-55 565.5,-37 428.5,-37"/>
<polygon fill="none" stroke="black" points="428.5,-37 428.5,-55 565.5,-55 565.5,-37 428.5,-37"/>
<text text-anchor="start" x="431.5" y="-43.2" font-family="Helvetica,sans-Serif" font-size="11.00">&lt; 2</text>
<polygon fill="#ffffff" stroke="transparent" points="565.5,-37 565.5,-55 636.5,-55 636.5,-37 565.5,-37"/>
<polygon fill="none" stroke="black" points="565.5,-37 565.5,-55 636.5,-55 636.5,-37 565.5,-37"/>
<text text-anchor="start" x="626.5" y="-43.2" font-family="Helvetica,sans-Serif" font-size="11.00"> &#160;</text>
<polygon fill="#ffffff" stroke="transparent" points="636.5,-37 636.5,-55 707.5,-55 707.5,-37 636.5,-37"/>
<polygon fill="none" stroke="black" points="636.5,-37 636.5,-55 707.5,-55 707.5,-37 636.5,-37"/>
<text text-anchor="start" x="697.5" y="-43.2" font-family="Helvetica,sans-Serif" font-size="11.00"> &#160;</text>
</a>
</g>
</g>
<!-- mstr_country_phone_format_assocs&#45;&gt;ms_syst_data.syst_complex_format_values -->
<g id="edge6" class="edge">
<title>mstr_country_phone_format_assocs:w&#45;&gt;ms_syst_data.syst_complex_format_values:e</title>
<path fill="none" stroke="black" d="M413.08,-64.2C389.08,-64.83 364.29,-66.98 340.15,-69.97"/>
<polygon fill="black" stroke="black" points="419.5,-64.11 427.55,-67.6 423.5,-64.05 427.5,-64 427.5,-64 427.5,-64 423.5,-64.05 427.45,-60.4 419.5,-64.11 419.5,-64.11"/>
<ellipse fill="none" stroke="black" cx="416.3" cy="-64.15" rx="3.2" ry="3.2"/>
</g>
<!-- mstr_country_phone_format_assocs&#45;&gt;mstr_countries -->
<g id="edge5" class="edge">
<title>mstr_country_phone_format_assocs:w&#45;&gt;mstr_countries:e</title>
<path fill="none" stroke="black" d="M412.81,-65.56C336.16,-83.15 391.92,-244 299,-244"/>
<polygon fill="black" stroke="black" points="419.54,-64.84 427.88,-67.58 423.52,-64.42 427.5,-64 427.5,-64 427.5,-64 423.52,-64.42 427.12,-60.42 419.54,-64.84 419.54,-64.84"/>
<ellipse fill="none" stroke="black" cx="416.36" cy="-65.18" rx="3.2" ry="3.2"/>
</g>
</g>
</svg>
