<?xml version="1.0" encoding="UTF-8" standalone="no"?>
<!DOCTYPE svg PUBLIC "-//W3C//DTD SVG 1.1//EN"
 "http://www.w3.org/Graphics/SVG/1.1/DTD/svg11.dtd">
<!-- Generated by graphviz version 2.43.0 (0)
 -->
<!-- Title: twoDegreesRelationshipsDiagram Pages: 1 -->
<svg width="1095pt" height="901pt"
 viewBox="0.00 0.00 1095.00 900.58" xmlns="http://www.w3.org/2000/svg" xmlns:xlink="http://www.w3.org/1999/xlink">
<g id="graph0" class="graph" transform="scale(1 1) rotate(0) translate(4 896.58)">
<title>twoDegreesRelationshipsDiagram</title>
<polygon fill="#ffffff" stroke="transparent" points="-4,4 -4,-896.58 1091,-896.58 1091,4 -4,4"/>
<text text-anchor="middle" x="71.5" y="-7.2" font-family="Helvetica,sans-Serif" font-size="11.00">Generated by SchemaSpy</text>
<!-- mstr_contacts -->
<g id="node1" class="node">
<title>mstr_contacts</title>
<g id="a_node1"><a xlink:href="../../tables/mstr_contacts.html" xlink:title="mstr_contacts" target="_top">
<polygon fill="#ffffff" stroke="transparent" points="543.5,-796 543.5,-854 678.5,-854 678.5,-796 543.5,-796"/>
<polygon fill="#f5f5f5" stroke="transparent" points="544,-832 544,-854 679,-854 679,-832 544,-832"/>
<polygon fill="none" stroke="black" points="544,-832 544,-854 679,-854 679,-832 544,-832"/>
<text text-anchor="start" x="549" y="-841.2" font-family="Helvetica,sans-Serif" font-weight="bold" font-size="11.00">mstr_contacts</text>
<text text-anchor="start" x="644" y="-840.2" font-family="Helvetica,sans-Serif" font-size="11.00">[table]</text>
<polygon fill="none" stroke="black" points="544,-814 544,-832 679,-832 679,-814 544,-814"/>
<text text-anchor="start" x="547" y="-820.2" font-family="Helvetica,sans-Serif" font-size="11.00">...</text>
<polygon fill="#ffffff" stroke="transparent" points="544,-796 544,-814 605,-814 605,-796 544,-796"/>
<polygon fill="none" stroke="black" points="544,-796 544,-814 605,-814 605,-796 544,-796"/>
<text text-anchor="start" x="547" y="-802.2" font-family="Helvetica,sans-Serif" font-size="11.00">&lt; 3</text>
<polygon fill="#ffffff" stroke="transparent" points="605,-796 605,-814 637,-814 637,-796 605,-796"/>
<polygon fill="none" stroke="black" points="605,-796 605,-814 637,-814 637,-796 605,-796"/>
<text text-anchor="start" x="627" y="-802.2" font-family="Helvetica,sans-Serif" font-size="11.00"> &#160;</text>
<polygon fill="#ffffff" stroke="transparent" points="637,-796 637,-814 679,-814 679,-796 637,-796"/>
<polygon fill="none" stroke="black" points="637,-796 637,-814 679,-814 679,-796 637,-796"/>
<text text-anchor="start" x="660" y="-802.2" font-family="Helvetica,sans-Serif" font-size="11.00">1 &gt;</text>
</a>
</g>
</g>
<!-- ms_syst_data.syst_enum_items -->
<g id="node2" class="node">
<title>ms_syst_data.syst_enum_items</title>
<g id="a_node2"><a xlink:href="../../../ms_syst_data/tables/syst_enum_items.html" xlink:title="ms_syst_data.syst_enum_items" target="_top">
<polygon fill="#ffffff" stroke="transparent" points="8,-616 8,-674 257,-674 257,-616 8,-616"/>
<polygon fill="#f5f5f5" stroke="transparent" points="8.5,-652 8.5,-674 257.5,-674 257.5,-652 8.5,-652"/>
<polygon fill="none" stroke="black" points="8.5,-652 8.5,-674 257.5,-674 257.5,-652 8.5,-652"/>
<text text-anchor="start" x="13.5" y="-661.2" font-family="Helvetica,sans-Serif" font-weight="bold" font-size="11.00">ms_syst_data.syst_enum_items</text>
<text text-anchor="start" x="222.5" y="-660.2" font-family="Helvetica,sans-Serif" font-size="11.00">[table]</text>
<polygon fill="none" stroke="black" points="8.5,-634 8.5,-652 257.5,-652 257.5,-634 8.5,-634"/>
<text text-anchor="start" x="11.5" y="-640.2" font-family="Helvetica,sans-Serif" font-size="11.00">...</text>
<polygon fill="#ffffff" stroke="transparent" points="8.5,-616 8.5,-634 118.5,-634 118.5,-616 8.5,-616"/>
<polygon fill="none" stroke="black" points="8.5,-616 8.5,-634 118.5,-634 118.5,-616 8.5,-616"/>
<text text-anchor="start" x="11.5" y="-622.2" font-family="Helvetica,sans-Serif" font-size="11.00"> &#160;</text>
<polygon fill="#ffffff" stroke="transparent" points="118.5,-616 118.5,-634 180.5,-634 180.5,-616 118.5,-616"/>
<polygon fill="none" stroke="black" points="118.5,-616 118.5,-634 180.5,-634 180.5,-616 118.5,-616"/>
<text text-anchor="start" x="170.5" y="-622.2" font-family="Helvetica,sans-Serif" font-size="11.00"> &#160;</text>
<polygon fill="#ffffff" stroke="transparent" points="180.5,-616 180.5,-634 257.5,-634 257.5,-616 180.5,-616"/>
<polygon fill="none" stroke="black" points="180.5,-616 180.5,-634 257.5,-634 257.5,-616 180.5,-616"/>
<text text-anchor="start" x="232.5" y="-622.2" font-family="Helvetica,sans-Serif" font-size="11.00">10 &gt;</text>
</a>
</g>
</g>
<!-- mstr_contacts&#45;&gt;ms_syst_data.syst_enum_items -->
<g id="edge1" class="edge">
<title>mstr_contacts:w&#45;&gt;ms_syst_data.syst_enum_items:e</title>
<path fill="none" stroke="black" d="M528.59,-822.27C392.75,-812.64 253.56,-726.81 182.22,-678.15"/>
<polygon fill="black" stroke="black" points="535.01,-822.59 542.82,-826.6 539.01,-822.8 543,-823 543,-823 543,-823 539.01,-822.8 543.18,-819.4 535.01,-822.59 535.01,-822.59"/>
<ellipse fill="none" stroke="black" cx="531.81" cy="-822.43" rx="3.2" ry="3.2"/>
</g>
<!-- mstr_contacts&#45;&gt;ms_syst_data.syst_enum_items -->
<g id="edge2" class="edge">
<title>mstr_contacts:w&#45;&gt;ms_syst_data.syst_enum_items:e</title>
<path fill="none" stroke="black" d="M528.29,-823.19C385.36,-821.81 238.77,-729.47 171.48,-678.2"/>
<polygon fill="black" stroke="black" points="535,-823.1 543.05,-826.6 539,-823.05 543,-823 543,-823 543,-823 539,-823.05 542.95,-819.4 535,-823.1 535,-823.1"/>
<ellipse fill="none" stroke="black" cx="531.8" cy="-823.14" rx="3.2" ry="3.2"/>
</g>
<!-- mstr_entities -->
<g id="node3" class="node">
<title>mstr_entities</title>
<g id="a_node3"><a xlink:href="../../tables/mstr_entities.html" xlink:title="mstr_entities" target="_top">
<polygon fill="#ffffff" stroke="transparent" points="306,-518 306,-576 434,-576 434,-518 306,-518"/>
<polygon fill="#f5f5f5" stroke="transparent" points="306,-554 306,-576 434,-576 434,-554 306,-554"/>
<polygon fill="none" stroke="black" points="306,-554 306,-576 434,-576 434,-554 306,-554"/>
<text text-anchor="start" x="311" y="-563.2" font-family="Helvetica,sans-Serif" font-weight="bold" font-size="11.00">mstr_entities</text>
<text text-anchor="start" x="399" y="-562.2" font-family="Helvetica,sans-Serif" font-size="11.00">[table]</text>
<polygon fill="none" stroke="black" points="306,-536 306,-554 434,-554 434,-536 306,-536"/>
<text text-anchor="start" x="309" y="-542.2" font-family="Helvetica,sans-Serif" font-size="11.00">...</text>
<polygon fill="#ffffff" stroke="transparent" points="306,-518 306,-536 360,-536 360,-518 306,-518"/>
<polygon fill="none" stroke="black" points="306,-518 306,-536 360,-536 360,-518 306,-518"/>
<text text-anchor="start" x="309" y="-524.2" font-family="Helvetica,sans-Serif" font-size="11.00">&lt; 3</text>
<polygon fill="#ffffff" stroke="transparent" points="360,-518 360,-536 389,-536 389,-518 360,-518"/>
<polygon fill="none" stroke="black" points="360,-518 360,-536 389,-536 389,-518 360,-518"/>
<text text-anchor="start" x="379" y="-524.2" font-family="Helvetica,sans-Serif" font-size="11.00"> &#160;</text>
<polygon fill="#ffffff" stroke="transparent" points="389,-518 389,-536 434,-536 434,-518 389,-518"/>
<polygon fill="none" stroke="black" points="389,-518 389,-536 434,-536 434,-518 389,-518"/>
<text text-anchor="start" x="409" y="-524.2" font-family="Helvetica,sans-Serif" font-size="11.00">15 &gt;</text>
</a>
</g>
</g>
<!-- mstr_contacts&#45;&gt;mstr_entities -->
<g id="edge3" class="edge">
<title>mstr_contacts:w&#45;&gt;mstr_entities:e</title>
<path fill="none" stroke="black" d="M528.49,-822.14C505.04,-819.03 494.61,-807.41 475,-786 419.38,-725.26 390.28,-630.09 378.1,-580.14"/>
<polygon fill="black" stroke="black" points="535.01,-822.53 542.79,-826.59 539.01,-822.76 543,-823 543,-823 543,-823 539.01,-822.76 543.21,-819.41 535.01,-822.53 535.01,-822.53"/>
<ellipse fill="none" stroke="black" cx="531.82" cy="-822.34" rx="3.2" ry="3.2"/>
</g>
<!-- mstr_entities&#45;&gt;ms_syst_data.syst_enum_items -->
<g id="edge4" class="edge">
<title>mstr_entities:w&#45;&gt;ms_syst_data.syst_enum_items:e</title>
<path fill="none" stroke="black" d="M284.03,-578.02C257.41,-588.83 228.36,-600.99 202.94,-611.96"/>
<polygon fill="black" stroke="black" points="290.29,-575.49 299.05,-575.83 293.99,-573.99 297.7,-572.5 297.7,-572.5 297.7,-572.5 293.99,-573.99 296.36,-569.16 290.29,-575.49 290.29,-575.49"/>
<ellipse fill="none" stroke="black" cx="287.32" cy="-576.69" rx="3.2" ry="3.2"/>
</g>
<!-- mstr_entities&#45;&gt;ms_syst_data.syst_enum_items -->
<g id="edge5" class="edge">
<title>mstr_entities:w&#45;&gt;ms_syst_data.syst_enum_items:e</title>
<path fill="none" stroke="black" d="M287.87,-585.78C267.72,-594.43 245.98,-603.52 225.35,-611.91"/>
<polygon fill="black" stroke="black" points="293.86,-583.19 302.63,-583.32 297.53,-581.61 301.2,-580.02 301.2,-580.02 301.2,-580.02 297.53,-581.61 299.77,-576.71 293.86,-583.19 293.86,-583.19"/>
<ellipse fill="none" stroke="black" cx="290.92" cy="-584.46" rx="3.2" ry="3.2"/>
</g>
<!-- mstr_entity_bank_entities -->
<g id="node4" class="node">
<title>mstr_entity_bank_entities</title>
<g id="a_node4"><a xlink:href="../../tables/mstr_entity_bank_entities.html" xlink:title="mstr_entity_bank_entities" target="_top">
<polygon fill="#ffffff" stroke="transparent" points="504,-374 504,-432 718,-432 718,-374 504,-374"/>
<polygon fill="#f5f5f5" stroke="transparent" points="504,-410 504,-432 718,-432 718,-410 504,-410"/>
<polygon fill="none" stroke="black" points="504,-410 504,-432 718,-432 718,-410 504,-410"/>
<text text-anchor="start" x="509" y="-419.2" font-family="Helvetica,sans-Serif" font-weight="bold" font-size="11.00">mstr_entity_bank_entities</text>
<text text-anchor="start" x="683" y="-418.2" font-family="Helvetica,sans-Serif" font-size="11.00">[table]</text>
<polygon fill="none" stroke="black" points="504,-392 504,-410 718,-410 718,-392 504,-392"/>
<text text-anchor="start" x="507" y="-398.2" font-family="Helvetica,sans-Serif" font-size="11.00">...</text>
<polygon fill="#ffffff" stroke="transparent" points="504,-374 504,-392 609,-392 609,-374 504,-374"/>
<polygon fill="none" stroke="black" points="504,-374 504,-392 609,-392 609,-374 504,-374"/>
<text text-anchor="start" x="507" y="-380.2" font-family="Helvetica,sans-Serif" font-size="11.00">&lt; 2</text>
<polygon fill="#ffffff" stroke="transparent" points="609,-374 609,-392 663,-392 663,-374 609,-374"/>
<polygon fill="none" stroke="black" points="609,-374 609,-392 663,-392 663,-374 609,-374"/>
<text text-anchor="start" x="653" y="-380.2" font-family="Helvetica,sans-Serif" font-size="11.00"> &#160;</text>
<polygon fill="#ffffff" stroke="transparent" points="663,-374 663,-392 718,-392 718,-374 663,-374"/>
<polygon fill="none" stroke="black" points="663,-374 663,-392 718,-392 718,-374 663,-374"/>
<text text-anchor="start" x="708" y="-380.2" font-family="Helvetica,sans-Serif" font-size="11.00"> &#160;</text>
</a>
</g>
</g>
<!-- mstr_entity_bank_entities&#45;&gt;mstr_entities -->
<g id="edge6" class="edge">
<title>mstr_entity_bank_entities:w&#45;&gt;mstr_entities:e</title>
<path fill="none" stroke="black" d="M488.48,-401.4C434.47,-408.18 398.87,-472.85 382.12,-513.76"/>
<polygon fill="black" stroke="black" points="495,-401.22 503.1,-404.6 499,-401.11 503,-401 503,-401 503,-401 499,-401.11 502.9,-397.4 495,-401.22 495,-401.22"/>
<ellipse fill="none" stroke="black" cx="491.8" cy="-401.31" rx="3.2" ry="3.2"/>
</g>
<!-- mstr_entity_bank_entities&#45;&gt;mstr_entities -->
<g id="edge7" class="edge">
<title>mstr_entity_bank_entities:w&#45;&gt;mstr_entities:e</title>
<path fill="none" stroke="black" d="M488.72,-403.43C438.29,-416.63 403.88,-475.48 385.84,-513.69"/>
<polygon fill="black" stroke="black" points="495.11,-402.34 503.6,-404.55 499.06,-401.67 503,-401 503,-401 503,-401 499.06,-401.67 502.4,-397.45 495.11,-402.34 495.11,-402.34"/>
<ellipse fill="none" stroke="black" cx="491.96" cy="-402.88" rx="3.2" ry="3.2"/>
</g>
<!-- mstr_entity_facility_places -->
<g id="node5" class="node">
<title>mstr_entity_facility_places</title>
<g id="a_node5"><a xlink:href="../../tables/mstr_entity_facility_places.html" xlink:title="mstr_entity_facility_places" target="_top">
<polygon fill="#ffffff" stroke="transparent" points="824.5,-533 824.5,-591 1042.5,-591 1042.5,-533 824.5,-533"/>
<polygon fill="#f5f5f5" stroke="transparent" points="824.5,-569 824.5,-591 1042.5,-591 1042.5,-569 824.5,-569"/>
<polygon fill="none" stroke="black" points="824.5,-569 824.5,-591 1042.5,-591 1042.5,-569 824.5,-569"/>
<text text-anchor="start" x="829.5" y="-578.2" font-family="Helvetica,sans-Serif" font-weight="bold" font-size="11.00">mstr_entity_facility_places</text>
<text text-anchor="start" x="1007.5" y="-577.2" font-family="Helvetica,sans-Serif" font-size="11.00">[table]</text>
<polygon fill="none" stroke="black" points="824.5,-551 824.5,-569 1042.5,-569 1042.5,-551 824.5,-551"/>
<text text-anchor="start" x="827.5" y="-557.2" font-family="Helvetica,sans-Serif" font-size="11.00">...</text>
<polygon fill="#ffffff" stroke="transparent" points="824.5,-533 824.5,-551 931.5,-551 931.5,-533 824.5,-533"/>
<polygon fill="none" stroke="black" points="824.5,-533 824.5,-551 931.5,-551 931.5,-533 824.5,-533"/>
<text text-anchor="start" x="827.5" y="-539.2" font-family="Helvetica,sans-Serif" font-size="11.00">&lt; 2</text>
<polygon fill="#ffffff" stroke="transparent" points="931.5,-533 931.5,-551 986.5,-551 986.5,-533 931.5,-533"/>
<polygon fill="none" stroke="black" points="931.5,-533 931.5,-551 986.5,-551 986.5,-533 931.5,-533"/>
<text text-anchor="start" x="976.5" y="-539.2" font-family="Helvetica,sans-Serif" font-size="11.00"> &#160;</text>
<polygon fill="#ffffff" stroke="transparent" points="986.5,-533 986.5,-551 1042.5,-551 1042.5,-533 986.5,-533"/>
<polygon fill="none" stroke="black" points="986.5,-533 986.5,-551 1042.5,-551 1042.5,-533 986.5,-533"/>
<text text-anchor="start" x="1032.5" y="-539.2" font-family="Helvetica,sans-Serif" font-size="11.00"> &#160;</text>
</a>
</g>
</g>
<!-- mstr_entity_facility_places&#45;&gt;mstr_entities -->
<g id="edge8" class="edge">
<title>mstr_entity_facility_places:w&#45;&gt;mstr_entities:e</title>
<path fill="none" stroke="black" d="M809.26,-557.87C775.2,-546.17 789.62,-489.71 747,-470 692.14,-444.63 532.4,-451.06 475,-470 448.54,-478.73 423.32,-497.07 404.34,-513.66"/>
<polygon fill="black" stroke="black" points="815.59,-558.81 822.97,-563.56 819.54,-559.41 823.5,-560 823.5,-560 823.5,-560 819.54,-559.41 824.03,-556.44 815.59,-558.81 815.59,-558.81"/>
<ellipse fill="none" stroke="black" cx="812.42" cy="-558.34" rx="3.2" ry="3.2"/>
</g>
<!-- mstr_places -->
<g id="node6" class="node">
<title>mstr_places</title>
<g id="a_node6"><a xlink:href="../../tables/mstr_places.html" xlink:title="mstr_places" target="_top">
<polygon fill="#ffffff" stroke="transparent" points="551,-717 551,-775 671,-775 671,-717 551,-717"/>
<polygon fill="#f5f5f5" stroke="transparent" points="551,-753 551,-775 671,-775 671,-753 551,-753"/>
<polygon fill="none" stroke="black" points="551,-753 551,-775 671,-775 671,-753 551,-753"/>
<text text-anchor="start" x="556" y="-762.2" font-family="Helvetica,sans-Serif" font-weight="bold" font-size="11.00">mstr_places</text>
<text text-anchor="start" x="636" y="-761.2" font-family="Helvetica,sans-Serif" font-size="11.00">[table]</text>
<polygon fill="none" stroke="black" points="551,-735 551,-753 671,-753 671,-735 551,-735"/>
<text text-anchor="start" x="554" y="-741.2" font-family="Helvetica,sans-Serif" font-size="11.00">...</text>
<polygon fill="#ffffff" stroke="transparent" points="551,-717 551,-735 604,-735 604,-717 551,-717"/>
<polygon fill="none" stroke="black" points="551,-717 551,-735 604,-735 604,-717 551,-717"/>
<text text-anchor="start" x="554" y="-723.2" font-family="Helvetica,sans-Serif" font-size="11.00">&lt; 3</text>
<polygon fill="#ffffff" stroke="transparent" points="604,-717 604,-735 633,-735 633,-717 604,-717"/>
<polygon fill="none" stroke="black" points="604,-717 604,-735 633,-735 633,-717 604,-717"/>
<text text-anchor="start" x="623" y="-723.2" font-family="Helvetica,sans-Serif" font-size="11.00"> &#160;</text>
<polygon fill="#ffffff" stroke="transparent" points="633,-717 633,-735 671,-735 671,-717 633,-717"/>
<polygon fill="none" stroke="black" points="633,-717 633,-735 671,-735 671,-717 633,-717"/>
<text text-anchor="start" x="652" y="-723.2" font-family="Helvetica,sans-Serif" font-size="11.00">3 &gt;</text>
</a>
</g>
</g>
<!-- mstr_entity_facility_places&#45;&gt;mstr_places -->
<g id="edge9" class="edge">
<title>mstr_entity_facility_places:w&#45;&gt;mstr_places:e</title>
<path fill="none" stroke="black" d="M809.05,-561.52C756.68,-573.93 795.73,-659.31 747,-707 720.44,-733 709.17,-744 672,-744"/>
<polygon fill="black" stroke="black" points="815.54,-560.84 823.88,-563.58 819.52,-560.42 823.5,-560 823.5,-560 823.5,-560 819.52,-560.42 823.12,-556.42 815.54,-560.84 815.54,-560.84"/>
<ellipse fill="none" stroke="black" cx="812.36" cy="-561.17" rx="3.2" ry="3.2"/>
</g>
<!-- mstr_places&#45;&gt;ms_syst_data.syst_enum_items -->
<g id="edge29" class="edge">
<title>mstr_places:w&#45;&gt;ms_syst_data.syst_enum_items:e</title>
<path fill="none" stroke="black" d="M535.33,-743.36C428.53,-737.45 312.67,-704.3 232.92,-678.05"/>
<polygon fill="black" stroke="black" points="542.01,-743.65 549.84,-747.6 546,-743.83 550,-744 550,-744 550,-744 546,-743.83 550.16,-740.4 542.01,-743.65 542.01,-743.65"/>
<ellipse fill="none" stroke="black" cx="538.81" cy="-743.51" rx="3.2" ry="3.2"/>
</g>
<!-- mstr_places&#45;&gt;ms_syst_data.syst_enum_items -->
<g id="edge30" class="edge">
<title>mstr_places:w&#45;&gt;ms_syst_data.syst_enum_items:e</title>
<path fill="none" stroke="black" d="M535.5,-744.33C416.09,-745.43 285.33,-707.43 206.36,-678.03"/>
<polygon fill="black" stroke="black" points="542,-744.18 550.08,-747.6 546,-744.09 550,-744 550,-744 550,-744 546,-744.09 549.92,-740.4 542,-744.18 542,-744.18"/>
<ellipse fill="none" stroke="black" cx="538.8" cy="-744.26" rx="3.2" ry="3.2"/>
</g>
<!-- mstr_places&#45;&gt;mstr_entities -->
<g id="edge28" class="edge">
<title>mstr_places:w&#45;&gt;mstr_entities:e</title>
<path fill="none" stroke="black" d="M535.45,-743.23C509.56,-740.18 498.77,-728.12 475,-707 434.38,-670.91 403.12,-615.4 385.9,-580.16"/>
<polygon fill="black" stroke="black" points="542.01,-743.58 549.81,-747.59 546.01,-743.79 550,-744 550,-744 550,-744 546.01,-743.79 550.19,-740.41 542.01,-743.58 542.01,-743.58"/>
<ellipse fill="none" stroke="black" cx="538.82" cy="-743.41" rx="3.2" ry="3.2"/>
</g>
<!-- mstr_entity_inventory_places -->
<g id="node7" class="node">
<title>mstr_entity_inventory_places</title>
<g id="a_node7"><a xlink:href="../../tables/mstr_entity_inventory_places.html" xlink:title="mstr_entity_inventory_places" target="_top">
<polygon fill="#ffffff" stroke="transparent" points="815,-399 815,-457 1052,-457 1052,-399 815,-399"/>
<polygon fill="#f5f5f5" stroke="transparent" points="815.5,-435 815.5,-457 1052.5,-457 1052.5,-435 815.5,-435"/>
<polygon fill="none" stroke="black" points="815.5,-435 815.5,-457 1052.5,-457 1052.5,-435 815.5,-435"/>
<text text-anchor="start" x="820.5" y="-444.2" font-family="Helvetica,sans-Serif" font-weight="bold" font-size="11.00">mstr_entity_inventory_places</text>
<text text-anchor="start" x="1017.5" y="-443.2" font-family="Helvetica,sans-Serif" font-size="11.00">[table]</text>
<polygon fill="none" stroke="black" points="815.5,-417 815.5,-435 1052.5,-435 1052.5,-417 815.5,-417"/>
<text text-anchor="start" x="818.5" y="-423.2" font-family="Helvetica,sans-Serif" font-size="11.00">...</text>
<polygon fill="#ffffff" stroke="transparent" points="815.5,-399 815.5,-417 931.5,-417 931.5,-399 815.5,-399"/>
<polygon fill="none" stroke="black" points="815.5,-399 815.5,-417 931.5,-417 931.5,-399 815.5,-399"/>
<text text-anchor="start" x="818.5" y="-405.2" font-family="Helvetica,sans-Serif" font-size="11.00">&lt; 2</text>
<polygon fill="#ffffff" stroke="transparent" points="931.5,-399 931.5,-417 991.5,-417 991.5,-399 931.5,-399"/>
<polygon fill="none" stroke="black" points="931.5,-399 931.5,-417 991.5,-417 991.5,-399 931.5,-399"/>
<text text-anchor="start" x="981.5" y="-405.2" font-family="Helvetica,sans-Serif" font-size="11.00"> &#160;</text>
<polygon fill="#ffffff" stroke="transparent" points="991.5,-399 991.5,-417 1052.5,-417 1052.5,-399 991.5,-399"/>
<polygon fill="none" stroke="black" points="991.5,-399 991.5,-417 1052.5,-417 1052.5,-399 991.5,-399"/>
<text text-anchor="start" x="1042.5" y="-405.2" font-family="Helvetica,sans-Serif" font-size="11.00"> &#160;</text>
</a>
</g>
</g>
<!-- mstr_entity_inventory_places&#45;&gt;mstr_entities -->
<g id="edge10" class="edge">
<title>mstr_entity_inventory_places:w&#45;&gt;mstr_entities:e</title>
<path fill="none" stroke="black" d="M800.03,-423.38C775.77,-413.16 779.81,-375.93 747,-363 690.77,-340.83 527.21,-332.54 475,-363 460.38,-371.53 412.82,-463.34 387.39,-513.95"/>
<polygon fill="black" stroke="black" points="806.63,-424.57 813.86,-429.54 810.56,-425.29 814.5,-426 814.5,-426 814.5,-426 810.56,-425.29 815.14,-422.46 806.63,-424.57 806.63,-424.57"/>
<ellipse fill="none" stroke="black" cx="803.48" cy="-424" rx="3.2" ry="3.2"/>
</g>
<!-- mstr_entity_inventory_places&#45;&gt;mstr_places -->
<g id="edge11" class="edge">
<title>mstr_entity_inventory_places:w&#45;&gt;mstr_places:e</title>
<path fill="none" stroke="black" d="M800.01,-428.5C774.1,-439.46 790.23,-484.48 780,-523 758.67,-603.3 796.95,-640.61 747,-707 724.65,-736.7 709.17,-744 672,-744"/>
<polygon fill="black" stroke="black" points="806.62,-427.36 815.11,-429.55 810.56,-426.68 814.5,-426 814.5,-426 814.5,-426 810.56,-426.68 813.89,-422.45 806.62,-427.36 806.62,-427.36"/>
<ellipse fill="none" stroke="black" cx="803.46" cy="-427.9" rx="3.2" ry="3.2"/>
</g>
<!-- mstr_entity_person_roles -->
<g id="node8" class="node">
<title>mstr_entity_person_roles</title>
<g id="a_node8"><a xlink:href="../../tables/mstr_entity_person_roles.html" xlink:title="mstr_entity_person_roles" target="_top">
<polygon fill="#ffffff" stroke="transparent" points="788,-37 788,-323 1079,-323 1079,-37 788,-37"/>
<polygon fill="#f5f5f5" stroke="transparent" points="790.5,-299 790.5,-321 1077.5,-321 1077.5,-299 790.5,-299"/>
<polygon fill="none" stroke="black" points="790.5,-299 790.5,-321 1077.5,-321 1077.5,-299 790.5,-299"/>
<text text-anchor="start" x="795.5" y="-308.2" font-family="Helvetica,sans-Serif" font-weight="bold" font-size="11.00">mstr_entity_person_roles</text>
<text text-anchor="start" x="1042.5" y="-307.2" font-family="Helvetica,sans-Serif" font-size="11.00">[table]</text>
<polygon fill="none" stroke="black" points="790.5,-277 790.5,-299 984.5,-299 984.5,-277 790.5,-277"/>
<image xlink:href="../../images/primaryKeys.png" width="11px" height="12px" preserveAspectRatio="xMinYMin meet" x="795.5" y="-294"/>
<text text-anchor="start" x="810.5" y="-285.2" font-family="Helvetica,sans-Serif" font-size="11.00">id</text>
<polygon fill="none" stroke="black" points="984.5,-277 984.5,-299 1077.5,-299 1077.5,-277 984.5,-277"/>
<text text-anchor="start" x="987.5" y="-285.2" font-family="Helvetica,sans-Serif" font-size="11.00">uuid[2147483647]</text>
<polygon fill="#ffffff" stroke="transparent" points="790.5,-255 790.5,-277 984.5,-277 984.5,-255 790.5,-255"/>
<polygon fill="none" stroke="black" points="790.5,-255 790.5,-277 984.5,-277 984.5,-255 790.5,-255"/>
<image xlink:href="../../images/foreignKeys.png" width="11px" height="12px" preserveAspectRatio="xMinYMin meet" x="795.5" y="-272"/>
<text text-anchor="start" x="810.5" y="-263.2" font-family="Helvetica,sans-Serif" font-size="11.00">person_id</text>
<polygon fill="none" stroke="black" points="984.5,-255 984.5,-277 1077.5,-277 1077.5,-255 984.5,-255"/>
<text text-anchor="start" x="987.5" y="-263.2" font-family="Helvetica,sans-Serif" font-size="11.00">uuid[2147483647]</text>
<polygon fill="#ffffff" stroke="transparent" points="790.5,-233 790.5,-255 984.5,-255 984.5,-233 790.5,-233"/>
<polygon fill="none" stroke="black" points="790.5,-233 790.5,-255 984.5,-255 984.5,-233 790.5,-233"/>
<image xlink:href="../../images/foreignKeys.png" width="11px" height="12px" preserveAspectRatio="xMinYMin meet" x="795.5" y="-250"/>
<text text-anchor="start" x="810.5" y="-241.2" font-family="Helvetica,sans-Serif" font-size="11.00">entity_id</text>
<polygon fill="none" stroke="black" points="984.5,-233 984.5,-255 1077.5,-255 1077.5,-233 984.5,-233"/>
<text text-anchor="start" x="987.5" y="-241.2" font-family="Helvetica,sans-Serif" font-size="11.00">uuid[2147483647]</text>
<polygon fill="#ffffff" stroke="transparent" points="790.5,-211 790.5,-233 984.5,-233 984.5,-211 790.5,-211"/>
<polygon fill="none" stroke="black" points="790.5,-211 790.5,-233 984.5,-233 984.5,-211 790.5,-211"/>
<image xlink:href="../../images/foreignKeys.png" width="11px" height="12px" preserveAspectRatio="xMinYMin meet" x="795.5" y="-228"/>
<text text-anchor="start" x="810.5" y="-219.2" font-family="Helvetica,sans-Serif" font-size="11.00">entity_person_role_id</text>
<polygon fill="none" stroke="black" points="984.5,-211 984.5,-233 1077.5,-233 1077.5,-211 984.5,-211"/>
<text text-anchor="start" x="987.5" y="-219.2" font-family="Helvetica,sans-Serif" font-size="11.00">uuid[2147483647]</text>
<polygon fill="none" stroke="black" points="790.5,-189 790.5,-211 984.5,-211 984.5,-189 790.5,-189"/>
<text text-anchor="start" x="810.5" y="-197.2" font-family="Helvetica,sans-Serif" font-size="11.00">diag_timestamp_created</text>
<polygon fill="none" stroke="black" points="984.5,-189 984.5,-211 1077.5,-211 1077.5,-189 984.5,-189"/>
<text text-anchor="start" x="987.5" y="-197.2" font-family="Helvetica,sans-Serif" font-size="11.00">timestamptz[35,6]</text>
<polygon fill="none" stroke="black" points="790.5,-167 790.5,-189 984.5,-189 984.5,-167 790.5,-167"/>
<text text-anchor="start" x="810.5" y="-175.2" font-family="Helvetica,sans-Serif" font-size="11.00">diag_role_created</text>
<polygon fill="none" stroke="black" points="984.5,-167 984.5,-189 1077.5,-189 1077.5,-167 984.5,-167"/>
<text text-anchor="start" x="987.5" y="-175.2" font-family="Helvetica,sans-Serif" font-size="11.00">text[2147483647]</text>
<polygon fill="none" stroke="black" points="790.5,-145 790.5,-167 984.5,-167 984.5,-145 790.5,-145"/>
<text text-anchor="start" x="810.5" y="-153.2" font-family="Helvetica,sans-Serif" font-size="11.00">diag_timestamp_modified</text>
<polygon fill="none" stroke="black" points="984.5,-145 984.5,-167 1077.5,-167 1077.5,-145 984.5,-145"/>
<text text-anchor="start" x="987.5" y="-153.2" font-family="Helvetica,sans-Serif" font-size="11.00">timestamptz[35,6]</text>
<polygon fill="none" stroke="black" points="790.5,-123 790.5,-145 984.5,-145 984.5,-123 790.5,-123"/>
<text text-anchor="start" x="810.5" y="-131.2" font-family="Helvetica,sans-Serif" font-size="11.00">diag_wallclock_modified</text>
<polygon fill="none" stroke="black" points="984.5,-123 984.5,-145 1077.5,-145 1077.5,-123 984.5,-123"/>
<text text-anchor="start" x="987.5" y="-131.2" font-family="Helvetica,sans-Serif" font-size="11.00">timestamptz[35,6]</text>
<polygon fill="none" stroke="black" points="790.5,-101 790.5,-123 984.5,-123 984.5,-101 790.5,-101"/>
<text text-anchor="start" x="810.5" y="-109.2" font-family="Helvetica,sans-Serif" font-size="11.00">diag_role_modified</text>
<polygon fill="none" stroke="black" points="984.5,-101 984.5,-123 1077.5,-123 1077.5,-101 984.5,-101"/>
<text text-anchor="start" x="987.5" y="-109.2" font-family="Helvetica,sans-Serif" font-size="11.00">text[2147483647]</text>
<polygon fill="none" stroke="black" points="790.5,-79 790.5,-101 984.5,-101 984.5,-79 790.5,-79"/>
<text text-anchor="start" x="810.5" y="-87.2" font-family="Helvetica,sans-Serif" font-size="11.00">diag_row_version</text>
<polygon fill="none" stroke="black" points="984.5,-79 984.5,-101 1077.5,-101 1077.5,-79 984.5,-79"/>
<text text-anchor="start" x="987.5" y="-87.2" font-family="Helvetica,sans-Serif" font-size="11.00">int8[19]</text>
<polygon fill="none" stroke="black" points="790.5,-57 790.5,-79 984.5,-79 984.5,-57 790.5,-57"/>
<text text-anchor="start" x="810.5" y="-65.2" font-family="Helvetica,sans-Serif" font-size="11.00">diag_update_count</text>
<polygon fill="none" stroke="black" points="984.5,-57 984.5,-79 1077.5,-79 1077.5,-57 984.5,-57"/>
<text text-anchor="start" x="987.5" y="-65.2" font-family="Helvetica,sans-Serif" font-size="11.00">int8[19]</text>
<polygon fill="#ffffff" stroke="transparent" points="790.5,-39 790.5,-57 891.5,-57 891.5,-39 790.5,-39"/>
<polygon fill="none" stroke="black" points="790.5,-39 790.5,-57 891.5,-57 891.5,-39 790.5,-39"/>
<text text-anchor="start" x="793.5" y="-45.2" font-family="Helvetica,sans-Serif" font-size="11.00">&lt; 3</text>
<polygon fill="#ffffff" stroke="transparent" points="891.5,-39 891.5,-57 984.5,-57 984.5,-39 891.5,-39"/>
<polygon fill="none" stroke="black" points="891.5,-39 891.5,-57 984.5,-57 984.5,-39 891.5,-39"/>
<text text-anchor="start" x="974.5" y="-45.2" font-family="Helvetica,sans-Serif" font-size="11.00"> &#160;</text>
<polygon fill="#ffffff" stroke="transparent" points="984.5,-39 984.5,-57 1077.5,-57 1077.5,-39 984.5,-39"/>
<polygon fill="none" stroke="black" points="984.5,-39 984.5,-57 1077.5,-57 1077.5,-39 984.5,-39"/>
<text text-anchor="start" x="1058.5" y="-45.2" font-family="Helvetica,sans-Serif" font-size="11.00">0 &gt;</text>
<polygon fill="none" stroke="black" stroke-width="2" points="789,-38 789,-322 1078,-322 1078,-38 789,-38"/>
</a>
</g>
</g>
<!-- mstr_entity_person_roles&#45;&gt;ms_syst_data.syst_enum_items -->
<g id="edge13" class="edge">
<title>mstr_entity_person_roles:w&#45;&gt;ms_syst_data.syst_enum_items:e</title>
<path fill="none" stroke="black" d="M774.71,-221.86C646.45,-219.48 602.16,-187.29 475,-232 382.17,-264.64 363.53,-291.6 298,-365 227.98,-443.44 172.67,-556.2 147.81,-611.64"/>
<polygon fill="black" stroke="black" points="781.5,-221.93 789.47,-225.6 785.5,-221.96 789.5,-222 789.5,-222 789.5,-222 785.5,-221.96 789.53,-218.4 781.5,-221.93 781.5,-221.93"/>
<ellipse fill="none" stroke="black" cx="778.3" cy="-221.9" rx="3.2" ry="3.2"/>
</g>
<!-- mstr_entity_person_roles&#45;&gt;mstr_entities -->
<g id="edge12" class="edge">
<title>mstr_entity_person_roles:w&#45;&gt;mstr_entities:e</title>
<path fill="none" stroke="black" d="M775.06,-243.69C696.54,-240.72 527.84,-218.16 475,-257 392.04,-317.98 375.04,-451.23 371.71,-513.58"/>
<polygon fill="black" stroke="black" points="781.5,-243.83 789.42,-247.6 785.5,-243.91 789.5,-244 789.5,-244 789.5,-244 785.5,-243.91 789.58,-240.4 781.5,-243.83 781.5,-243.83"/>
<ellipse fill="none" stroke="black" cx="778.3" cy="-243.76" rx="3.2" ry="3.2"/>
</g>
<!-- mstr_persons -->
<g id="node9" class="node">
<title>mstr_persons</title>
<g id="a_node9"><a xlink:href="../../tables/mstr_persons.html" xlink:title="mstr_persons" target="_top">
<polygon fill="#ffffff" stroke="transparent" points="545.5,-268 545.5,-326 676.5,-326 676.5,-268 545.5,-268"/>
<polygon fill="#f5f5f5" stroke="transparent" points="546,-304 546,-326 677,-326 677,-304 546,-304"/>
<polygon fill="none" stroke="black" points="546,-304 546,-326 677,-326 677,-304 546,-304"/>
<text text-anchor="start" x="551" y="-313.2" font-family="Helvetica,sans-Serif" font-weight="bold" font-size="11.00">mstr_persons</text>
<text text-anchor="start" x="642" y="-312.2" font-family="Helvetica,sans-Serif" font-size="11.00">[table]</text>
<polygon fill="none" stroke="black" points="546,-286 546,-304 677,-304 677,-286 546,-286"/>
<text text-anchor="start" x="549" y="-292.2" font-family="Helvetica,sans-Serif" font-size="11.00">...</text>
<polygon fill="#ffffff" stroke="transparent" points="546,-268 546,-286 605,-286 605,-268 546,-268"/>
<polygon fill="none" stroke="black" points="546,-268 546,-286 605,-286 605,-268 546,-268"/>
<text text-anchor="start" x="549" y="-274.2" font-family="Helvetica,sans-Serif" font-size="11.00">&lt; 3</text>
<polygon fill="#ffffff" stroke="transparent" points="605,-268 605,-286 636,-286 636,-268 605,-268"/>
<polygon fill="none" stroke="black" points="605,-268 605,-286 636,-286 636,-268 605,-268"/>
<text text-anchor="start" x="626" y="-274.2" font-family="Helvetica,sans-Serif" font-size="11.00"> &#160;</text>
<polygon fill="#ffffff" stroke="transparent" points="636,-268 636,-286 677,-286 677,-268 636,-268"/>
<polygon fill="none" stroke="black" points="636,-268 636,-286 677,-286 677,-268 636,-268"/>
<text text-anchor="start" x="658" y="-274.2" font-family="Helvetica,sans-Serif" font-size="11.00">2 &gt;</text>
</a>
</g>
</g>
<!-- mstr_entity_person_roles&#45;&gt;mstr_persons -->
<g id="edge14" class="edge">
<title>mstr_entity_person_roles:w&#45;&gt;mstr_persons:e</title>
<path fill="none" stroke="black" d="M775.1,-266.31C744.5,-267.61 712.43,-272.73 684.91,-278.43"/>
<polygon fill="black" stroke="black" points="781.5,-266.17 789.58,-269.6 785.5,-266.09 789.5,-266 789.5,-266 789.5,-266 785.5,-266.09 789.42,-262.4 781.5,-266.17 781.5,-266.17"/>
<ellipse fill="none" stroke="black" cx="778.3" cy="-266.24" rx="3.2" ry="3.2"/>
</g>
<!-- mstr_persons&#45;&gt;ms_syst_data.syst_enum_items -->
<g id="edge26" class="edge">
<title>mstr_persons:w&#45;&gt;ms_syst_data.syst_enum_items:e</title>
<path fill="none" stroke="black" d="M523.4,-313.46C506.8,-319.24 489.95,-326.42 475,-335 340.43,-412.27 212.23,-548.81 159.16,-611.71"/>
<polygon fill="black" stroke="black" points="529.64,-311.43 538.36,-312.36 533.44,-310.18 537.24,-308.94 537.24,-308.94 537.24,-308.94 533.44,-310.18 536.13,-305.52 529.64,-311.43 529.64,-311.43"/>
<ellipse fill="none" stroke="black" cx="526.6" cy="-312.42" rx="3.2" ry="3.2"/>
</g>
<!-- mstr_persons&#45;&gt;ms_syst_data.syst_enum_items -->
<g id="edge27" class="edge">
<title>mstr_persons:w&#45;&gt;ms_syst_data.syst_enum_items:e</title>
<path fill="none" stroke="black" d="M523.4,-326.2C506.8,-332.24 489.95,-339.42 475,-348 345.93,-422.11 222.73,-550.74 166.04,-611.52"/>
<polygon fill="black" stroke="black" points="529.69,-324.01 538.43,-324.79 533.47,-322.7 537.24,-321.39 537.24,-321.39 537.24,-321.39 533.47,-322.7 536.06,-317.99 529.69,-324.01 529.69,-324.01"/>
<ellipse fill="none" stroke="black" cx="526.67" cy="-325.07" rx="3.2" ry="3.2"/>
</g>
<!-- mstr_persons&#45;&gt;mstr_entities -->
<g id="edge25" class="edge">
<title>mstr_persons:w&#45;&gt;mstr_entities:e</title>
<path fill="none" stroke="black" d="M523.3,-313.19C505.93,-319.42 488.79,-328.06 475,-340 449.6,-361.99 456.97,-377.93 442,-408 423.88,-444.38 402.62,-485.85 388.12,-513.96"/>
<polygon fill="black" stroke="black" points="529.63,-311.14 538.34,-312.11 533.43,-309.91 537.24,-308.68 537.24,-308.68 537.24,-308.68 533.43,-309.91 536.13,-305.26 529.63,-311.14 529.63,-311.14"/>
<ellipse fill="none" stroke="black" cx="526.58" cy="-312.13" rx="3.2" ry="3.2"/>
</g>
<!-- mstr_entity_purchasing_entities -->
<g id="node10" class="node">
<title>mstr_entity_purchasing_entities</title>
<g id="a_node10"><a xlink:href="../../tables/mstr_entity_purchasing_entities.html" xlink:title="mstr_entity_purchasing_entities" target="_top">
<polygon fill="#ffffff" stroke="transparent" points="483,-638 483,-696 739,-696 739,-638 483,-638"/>
<polygon fill="#f5f5f5" stroke="transparent" points="483,-674 483,-696 739,-696 739,-674 483,-674"/>
<polygon fill="none" stroke="black" points="483,-674 483,-696 739,-696 739,-674 483,-674"/>
<text text-anchor="start" x="488" y="-683.2" font-family="Helvetica,sans-Serif" font-weight="bold" font-size="11.00">mstr_entity_purchasing_entities</text>
<text text-anchor="start" x="704" y="-682.2" font-family="Helvetica,sans-Serif" font-size="11.00">[table]</text>
<polygon fill="none" stroke="black" points="483,-656 483,-674 739,-674 739,-656 483,-656"/>
<text text-anchor="start" x="486" y="-662.2" font-family="Helvetica,sans-Serif" font-size="11.00">...</text>
<polygon fill="#ffffff" stroke="transparent" points="483,-638 483,-656 609,-656 609,-638 483,-638"/>
<polygon fill="none" stroke="black" points="483,-638 483,-656 609,-656 609,-638 483,-638"/>
<text text-anchor="start" x="486" y="-644.2" font-family="Helvetica,sans-Serif" font-size="11.00">&lt; 2</text>
<polygon fill="#ffffff" stroke="transparent" points="609,-638 609,-656 674,-656 674,-638 609,-638"/>
<polygon fill="none" stroke="black" points="609,-638 609,-656 674,-656 674,-638 609,-638"/>
<text text-anchor="start" x="664" y="-644.2" font-family="Helvetica,sans-Serif" font-size="11.00"> &#160;</text>
<polygon fill="#ffffff" stroke="transparent" points="674,-638 674,-656 739,-656 739,-638 674,-638"/>
<polygon fill="none" stroke="black" points="674,-638 674,-656 739,-656 739,-638 674,-638"/>
<text text-anchor="start" x="729" y="-644.2" font-family="Helvetica,sans-Serif" font-size="11.00"> &#160;</text>
</a>
</g>
</g>
<!-- mstr_entity_purchasing_entities&#45;&gt;mstr_entities -->
<g id="edge15" class="edge">
<title>mstr_entity_purchasing_entities:w&#45;&gt;mstr_entities:e</title>
<path fill="none" stroke="black" d="M467.7,-662.27C430.15,-651.03 402.95,-610.07 387.14,-580.12"/>
<polygon fill="black" stroke="black" points="474.14,-663.5 481.33,-668.54 478.07,-664.25 482,-665 482,-665 482,-665 478.07,-664.25 482.67,-661.46 474.14,-663.5 474.14,-663.5"/>
<ellipse fill="none" stroke="black" cx="471" cy="-662.9" rx="3.2" ry="3.2"/>
</g>
<!-- mstr_entity_purchasing_entities&#45;&gt;mstr_entities -->
<g id="edge16" class="edge">
<title>mstr_entity_purchasing_entities:w&#45;&gt;mstr_entities:e</title>
<path fill="none" stroke="black" d="M467.56,-664.74C426.39,-659.16 397.69,-613.05 382.81,-580.14"/>
<polygon fill="black" stroke="black" points="474,-664.86 481.94,-668.6 478,-664.93 482,-665 482,-665 482,-665 478,-664.93 482.06,-661.4 474,-664.86 474,-664.86"/>
<ellipse fill="none" stroke="black" cx="470.8" cy="-664.8" rx="3.2" ry="3.2"/>
</g>
<!-- mstr_entity_selling_entities -->
<g id="node11" class="node">
<title>mstr_entity_selling_entities</title>
<g id="a_node11"><a xlink:href="../../tables/mstr_entity_selling_entities.html" xlink:title="mstr_entity_selling_entities" target="_top">
<polygon fill="#ffffff" stroke="transparent" points="498.5,-559 498.5,-617 723.5,-617 723.5,-559 498.5,-559"/>
<polygon fill="#f5f5f5" stroke="transparent" points="499,-595 499,-617 724,-617 724,-595 499,-595"/>
<polygon fill="none" stroke="black" points="499,-595 499,-617 724,-617 724,-595 499,-595"/>
<text text-anchor="start" x="504" y="-604.2" font-family="Helvetica,sans-Serif" font-weight="bold" font-size="11.00">mstr_entity_selling_entities</text>
<text text-anchor="start" x="689" y="-603.2" font-family="Helvetica,sans-Serif" font-size="11.00">[table]</text>
<polygon fill="none" stroke="black" points="499,-577 499,-595 724,-595 724,-577 499,-577"/>
<text text-anchor="start" x="502" y="-583.2" font-family="Helvetica,sans-Serif" font-size="11.00">...</text>
<polygon fill="#ffffff" stroke="transparent" points="499,-559 499,-577 609,-577 609,-559 499,-559"/>
<polygon fill="none" stroke="black" points="499,-559 499,-577 609,-577 609,-559 499,-559"/>
<text text-anchor="start" x="502" y="-565.2" font-family="Helvetica,sans-Serif" font-size="11.00">&lt; 2</text>
<polygon fill="#ffffff" stroke="transparent" points="609,-559 609,-577 666,-577 666,-559 609,-559"/>
<polygon fill="none" stroke="black" points="609,-559 609,-577 666,-577 666,-559 609,-559"/>
<text text-anchor="start" x="656" y="-565.2" font-family="Helvetica,sans-Serif" font-size="11.00"> &#160;</text>
<polygon fill="#ffffff" stroke="transparent" points="666,-559 666,-577 724,-577 724,-559 666,-559"/>
<polygon fill="none" stroke="black" points="666,-559 666,-577 724,-577 724,-559 666,-559"/>
<text text-anchor="start" x="714" y="-565.2" font-family="Helvetica,sans-Serif" font-size="11.00"> &#160;</text>
</a>
</g>
</g>
<!-- mstr_entity_selling_entities&#45;&gt;mstr_entities -->
<g id="edge17" class="edge">
<title>mstr_entity_selling_entities:w&#45;&gt;mstr_entities:e</title>
<path fill="none" stroke="black" d="M483.5,-583.93C469.51,-581.4 455.36,-577.42 442.05,-572.98"/>
<polygon fill="black" stroke="black" points="490.08,-584.87 497.49,-589.56 494.04,-585.43 498,-586 498,-586 498,-586 494.04,-585.43 498.51,-582.44 490.08,-584.87 490.08,-584.87"/>
<ellipse fill="none" stroke="black" cx="486.91" cy="-584.42" rx="3.2" ry="3.2"/>
</g>
<!-- mstr_entity_selling_entities&#45;&gt;mstr_entities -->
<g id="edge18" class="edge">
<title>mstr_entity_selling_entities:w&#45;&gt;mstr_entities:e</title>
<path fill="none" stroke="black" d="M483.6,-586.84C467.81,-586.86 451.83,-584.14 437.07,-580.08"/>
<polygon fill="black" stroke="black" points="490.01,-586.46 498.21,-589.59 494.01,-586.23 498,-586 498,-586 498,-586 494.01,-586.23 497.79,-582.41 490.01,-586.46 490.01,-586.46"/>
<ellipse fill="none" stroke="black" cx="486.82" cy="-586.65" rx="3.2" ry="3.2"/>
</g>
<!-- mstr_entity_staff_entities -->
<g id="node12" class="node">
<title>mstr_entity_staff_entities</title>
<g id="a_node12"><a xlink:href="../../tables/mstr_entity_staff_entities.html" xlink:title="mstr_entity_staff_entities" target="_top">
<polygon fill="#ffffff" stroke="transparent" points="505,-480 505,-538 717,-538 717,-480 505,-480"/>
<polygon fill="#f5f5f5" stroke="transparent" points="505,-516 505,-538 717,-538 717,-516 505,-516"/>
<polygon fill="none" stroke="black" points="505,-516 505,-538 717,-538 717,-516 505,-516"/>
<text text-anchor="start" x="510" y="-525.2" font-family="Helvetica,sans-Serif" font-weight="bold" font-size="11.00">mstr_entity_staff_entities</text>
<text text-anchor="start" x="682" y="-524.2" font-family="Helvetica,sans-Serif" font-size="11.00">[table]</text>
<polygon fill="none" stroke="black" points="505,-498 505,-516 717,-516 717,-498 505,-498"/>
<text text-anchor="start" x="508" y="-504.2" font-family="Helvetica,sans-Serif" font-size="11.00">...</text>
<polygon fill="#ffffff" stroke="transparent" points="505,-480 505,-498 609,-498 609,-480 505,-480"/>
<polygon fill="none" stroke="black" points="505,-480 505,-498 609,-498 609,-480 505,-480"/>
<text text-anchor="start" x="508" y="-486.2" font-family="Helvetica,sans-Serif" font-size="11.00">&lt; 2</text>
<polygon fill="#ffffff" stroke="transparent" points="609,-480 609,-498 663,-498 663,-480 609,-480"/>
<polygon fill="none" stroke="black" points="609,-480 609,-498 663,-498 663,-480 609,-480"/>
<text text-anchor="start" x="653" y="-486.2" font-family="Helvetica,sans-Serif" font-size="11.00"> &#160;</text>
<polygon fill="#ffffff" stroke="transparent" points="663,-480 663,-498 717,-498 717,-480 663,-480"/>
<polygon fill="none" stroke="black" points="663,-480 663,-498 717,-498 717,-480 663,-480"/>
<text text-anchor="start" x="707" y="-486.2" font-family="Helvetica,sans-Serif" font-size="11.00"> &#160;</text>
</a>
</g>
</g>
<!-- mstr_entity_staff_entities&#45;&gt;mstr_entities -->
<g id="edge19" class="edge">
<title>mstr_entity_staff_entities:w&#45;&gt;mstr_entities:e</title>
<path fill="none" stroke="black" d="M489.36,-506.4C472.59,-506.59 455.59,-509.62 439.9,-513.96"/>
<polygon fill="black" stroke="black" points="496.01,-506.67 503.85,-510.6 500,-506.84 504,-507 504,-507 504,-507 500,-506.84 504.15,-503.4 496.01,-506.67 496.01,-506.67"/>
<ellipse fill="none" stroke="black" cx="492.81" cy="-506.54" rx="3.2" ry="3.2"/>
</g>
<!-- mstr_entity_staff_entities&#45;&gt;mstr_entities -->
<g id="edge20" class="edge">
<title>mstr_entity_staff_entities:w&#45;&gt;mstr_entities:e</title>
<path fill="none" stroke="black" d="M489.45,-509.2C473.51,-512.16 457.35,-516.85 442.32,-521.96"/>
<polygon fill="black" stroke="black" points="496.09,-508.19 504.54,-510.56 500.04,-507.6 504,-507 504,-507 504,-507 500.04,-507.6 503.46,-503.44 496.09,-508.19 496.09,-508.19"/>
<ellipse fill="none" stroke="black" cx="492.93" cy="-508.67" rx="3.2" ry="3.2"/>
</g>
<!-- mstr_person_contact_roles -->
<g id="node13" class="node">
<title>mstr_person_contact_roles</title>
<g id="a_node13"><a xlink:href="../../tables/mstr_person_contact_roles.html" xlink:title="mstr_person_contact_roles" target="_top">
<polygon fill="#ffffff" stroke="transparent" points="823.5,-756 823.5,-814 1043.5,-814 1043.5,-756 823.5,-756"/>
<polygon fill="#f5f5f5" stroke="transparent" points="823.5,-792 823.5,-814 1043.5,-814 1043.5,-792 823.5,-792"/>
<polygon fill="none" stroke="black" points="823.5,-792 823.5,-814 1043.5,-814 1043.5,-792 823.5,-792"/>
<text text-anchor="start" x="828.5" y="-801.2" font-family="Helvetica,sans-Serif" font-weight="bold" font-size="11.00">mstr_person_contact_roles</text>
<text text-anchor="start" x="1008.5" y="-800.2" font-family="Helvetica,sans-Serif" font-size="11.00">[table]</text>
<polygon fill="none" stroke="black" points="823.5,-774 823.5,-792 1043.5,-792 1043.5,-774 823.5,-774"/>
<text text-anchor="start" x="826.5" y="-780.2" font-family="Helvetica,sans-Serif" font-size="11.00">...</text>
<polygon fill="#ffffff" stroke="transparent" points="823.5,-756 823.5,-774 931.5,-774 931.5,-756 823.5,-756"/>
<polygon fill="none" stroke="black" points="823.5,-756 823.5,-774 931.5,-774 931.5,-756 823.5,-756"/>
<text text-anchor="start" x="826.5" y="-762.2" font-family="Helvetica,sans-Serif" font-size="11.00">&lt; 4</text>
<polygon fill="#ffffff" stroke="transparent" points="931.5,-756 931.5,-774 987.5,-774 987.5,-756 931.5,-756"/>
<polygon fill="none" stroke="black" points="931.5,-756 931.5,-774 987.5,-774 987.5,-756 931.5,-756"/>
<text text-anchor="start" x="977.5" y="-762.2" font-family="Helvetica,sans-Serif" font-size="11.00"> &#160;</text>
<polygon fill="#ffffff" stroke="transparent" points="987.5,-756 987.5,-774 1043.5,-774 1043.5,-756 987.5,-756"/>
<polygon fill="none" stroke="black" points="987.5,-756 987.5,-774 1043.5,-774 1043.5,-756 987.5,-756"/>
<text text-anchor="start" x="1033.5" y="-762.2" font-family="Helvetica,sans-Serif" font-size="11.00"> &#160;</text>
</a>
</g>
</g>
<!-- mstr_person_contact_roles&#45;&gt;mstr_contacts -->
<g id="edge21" class="edge">
<title>mstr_person_contact_roles:w&#45;&gt;mstr_contacts:e</title>
<path fill="none" stroke="black" d="M808.03,-783.69C754.68,-789.01 740.64,-823 680,-823"/>
<polygon fill="black" stroke="black" points="814.51,-783.38 822.67,-786.6 818.5,-783.19 822.5,-783 822.5,-783 822.5,-783 818.5,-783.19 822.33,-779.4 814.51,-783.38 814.51,-783.38"/>
<ellipse fill="none" stroke="black" cx="811.31" cy="-783.54" rx="3.2" ry="3.2"/>
</g>
<!-- mstr_person_contact_roles&#45;&gt;ms_syst_data.syst_enum_items -->
<g id="edge22" class="edge">
<title>mstr_person_contact_roles:w&#45;&gt;ms_syst_data.syst_enum_items:e</title>
<path fill="none" stroke="black" d="M808.12,-785.24C776.53,-796.53 787.23,-847.36 747,-865 636.29,-913.56 593.86,-887.05 475,-865 392.14,-849.63 369.56,-841.5 298,-797 244.67,-763.84 193.16,-712.02 162.4,-678.29"/>
<polygon fill="black" stroke="black" points="814.6,-784.23 823.05,-786.56 818.55,-783.62 822.5,-783 822.5,-783 822.5,-783 818.55,-783.62 821.95,-779.44 814.6,-784.23 814.6,-784.23"/>
<ellipse fill="none" stroke="black" cx="811.43" cy="-784.72" rx="3.2" ry="3.2"/>
</g>
<!-- mstr_person_contact_roles&#45;&gt;mstr_places -->
<g id="edge24" class="edge">
<title>mstr_person_contact_roles:w&#45;&gt;mstr_places:e</title>
<path fill="none" stroke="black" d="M808.01,-782.39C751.26,-777.43 735.97,-744 672,-744"/>
<polygon fill="black" stroke="black" points="814.51,-782.66 822.35,-786.6 818.5,-782.83 822.5,-783 822.5,-783 822.5,-783 818.5,-782.83 822.65,-779.4 814.51,-782.66 814.51,-782.66"/>
<ellipse fill="none" stroke="black" cx="811.31" cy="-782.53" rx="3.2" ry="3.2"/>
</g>
<!-- mstr_person_contact_roles&#45;&gt;mstr_persons -->
<g id="edge23" class="edge">
<title>mstr_person_contact_roles:w&#45;&gt;mstr_persons:e</title>
<path fill="none" stroke="black" d="M807.8,-781.71C746.89,-769.83 794.11,-677.84 780,-602 770.19,-549.29 778.44,-406.43 747,-363 731.78,-341.97 707.99,-327.32 684.6,-317.27"/>
<polygon fill="black" stroke="black" points="814.53,-782.3 822.19,-786.59 818.52,-782.65 822.5,-783 822.5,-783 822.5,-783 818.52,-782.65 822.81,-779.41 814.53,-782.3 814.53,-782.3"/>
<ellipse fill="none" stroke="black" cx="811.34" cy="-782.02" rx="3.2" ry="3.2"/>
</g>
</g>
</svg>
