<?xml version="1.0" encoding="UTF-8" standalone="no"?>
<!DOCTYPE svg PUBLIC "-//W3C//DTD SVG 1.1//EN"
 "http://www.w3.org/Graphics/SVG/1.1/DTD/svg11.dtd">
<!-- Generated by graphviz version 2.43.0 (0)
 -->
<!-- Title: oneDegreeRelationshipsDiagram Pages: 1 -->
<svg width="1130pt" height="573pt"
 viewBox="0.00 0.00 1130.00 573.00" xmlns="http://www.w3.org/2000/svg" xmlns:xlink="http://www.w3.org/1999/xlink">
<g id="graph0" class="graph" transform="scale(1 1) rotate(0) translate(4 569)">
<title>oneDegreeRelationshipsDiagram</title>
<polygon fill="#ffffff" stroke="transparent" points="-4,4 -4,-569 1126,-569 1126,4 -4,4"/>
<text text-anchor="middle" x="71.5" y="-7.2" font-family="Helvetica,sans-Serif" font-size="11.00">Generated by SchemaSpy</text>
<!-- mstr_contacts -->
<g id="node1" class="node">
<title>mstr_contacts</title>
<g id="a_node1"><a xlink:href="../../tables/mstr_contacts.html" xlink:title="mstr_contacts" target="_top">
<polygon fill="#ffffff" stroke="transparent" points="549,-37 549,-433 845,-433 845,-37 549,-37"/>
<polygon fill="#f5f5f5" stroke="transparent" points="551,-409 551,-431 843,-431 843,-409 551,-409"/>
<polygon fill="none" stroke="black" points="551,-409 551,-431 843,-431 843,-409 551,-409"/>
<text text-anchor="start" x="556" y="-418.2" font-family="Helvetica,sans-Serif" font-weight="bold" font-size="11.00">mstr_contacts</text>
<text text-anchor="start" x="808" y="-417.2" font-family="Helvetica,sans-Serif" font-size="11.00">[table]</text>
<polygon fill="none" stroke="black" points="551,-387 551,-409 745,-409 745,-387 551,-387"/>
<image xlink:href="../../images/primaryKeys.png" width="11px" height="12px" preserveAspectRatio="xMinYMin meet" x="556" y="-404"/>
<text text-anchor="start" x="571" y="-395.2" font-family="Helvetica,sans-Serif" font-size="11.00">id</text>
<polygon fill="none" stroke="black" points="745,-387 745,-409 843,-409 843,-387 745,-387"/>
<text text-anchor="start" x="748" y="-395.2" font-family="Helvetica,sans-Serif" font-size="11.00">uuid[2147483647]</text>
<polygon fill="#ffffff" stroke="transparent" points="551,-365 551,-387 745,-387 745,-365 551,-365"/>
<polygon fill="none" stroke="black" points="551,-365 551,-387 745,-387 745,-365 551,-365"/>
<text text-anchor="start" x="571" y="-373.2" font-family="Helvetica,sans-Serif" font-size="11.00">internal_name</text>
<polygon fill="none" stroke="black" points="745,-365 745,-387 843,-387 843,-365 745,-365"/>
<text text-anchor="start" x="748" y="-373.2" font-family="Helvetica,sans-Serif" font-size="11.00">text[2147483647]</text>
<polygon fill="#ffffff" stroke="transparent" points="551,-343 551,-365 745,-365 745,-343 551,-343"/>
<polygon fill="none" stroke="black" points="551,-343 551,-365 745,-365 745,-343 551,-343"/>
<text text-anchor="start" x="571" y="-351.2" font-family="Helvetica,sans-Serif" font-size="11.00">display_name</text>
<polygon fill="none" stroke="black" points="745,-343 745,-365 843,-365 843,-343 745,-343"/>
<text text-anchor="start" x="748" y="-351.2" font-family="Helvetica,sans-Serif" font-size="11.00">text[2147483647]</text>
<polygon fill="none" stroke="black" points="551,-321 551,-343 745,-343 745,-321 551,-321"/>
<image xlink:href="../../images/foreignKeys.png" width="11px" height="12px" preserveAspectRatio="xMinYMin meet" x="556" y="-338"/>
<text text-anchor="start" x="571" y="-329.2" font-family="Helvetica,sans-Serif" font-size="11.00">owning_entity_id</text>
<polygon fill="none" stroke="black" points="745,-321 745,-343 843,-343 843,-321 745,-321"/>
<text text-anchor="start" x="748" y="-329.2" font-family="Helvetica,sans-Serif" font-size="11.00">uuid[2147483647]</text>
<polygon fill="none" stroke="black" points="551,-299 551,-321 745,-321 745,-299 551,-299"/>
<text text-anchor="start" x="571" y="-307.2" font-family="Helvetica,sans-Serif" font-size="11.00">external_name</text>
<polygon fill="none" stroke="black" points="745,-299 745,-321 843,-321 843,-299 745,-299"/>
<text text-anchor="start" x="748" y="-307.2" font-family="Helvetica,sans-Serif" font-size="11.00">text[2147483647]</text>
<polygon fill="none" stroke="black" points="551,-277 551,-299 745,-299 745,-277 551,-277"/>
<image xlink:href="../../images/foreignKeys.png" width="11px" height="12px" preserveAspectRatio="xMinYMin meet" x="556" y="-294"/>
<text text-anchor="start" x="571" y="-285.2" font-family="Helvetica,sans-Serif" font-size="11.00">contact_type_id</text>
<polygon fill="none" stroke="black" points="745,-277 745,-299 843,-299 843,-277 745,-277"/>
<text text-anchor="start" x="748" y="-285.2" font-family="Helvetica,sans-Serif" font-size="11.00">uuid[2147483647]</text>
<polygon fill="none" stroke="black" points="551,-255 551,-277 745,-277 745,-255 551,-255"/>
<image xlink:href="../../images/foreignKeys.png" width="11px" height="12px" preserveAspectRatio="xMinYMin meet" x="556" y="-272"/>
<text text-anchor="start" x="571" y="-263.2" font-family="Helvetica,sans-Serif" font-size="11.00">contact_state_id</text>
<polygon fill="none" stroke="black" points="745,-255 745,-277 843,-277 843,-255 745,-255"/>
<text text-anchor="start" x="748" y="-263.2" font-family="Helvetica,sans-Serif" font-size="11.00">uuid[2147483647]</text>
<polygon fill="none" stroke="black" points="551,-233 551,-255 745,-255 745,-233 551,-233"/>
<text text-anchor="start" x="571" y="-241.2" font-family="Helvetica,sans-Serif" font-size="11.00">contact_data</text>
<polygon fill="none" stroke="black" points="745,-233 745,-255 843,-255 843,-233 745,-233"/>
<text text-anchor="start" x="748" y="-241.2" font-family="Helvetica,sans-Serif" font-size="11.00">jsonb[2147483647]</text>
<polygon fill="none" stroke="black" points="551,-211 551,-233 745,-233 745,-211 551,-211"/>
<text text-anchor="start" x="571" y="-219.2" font-family="Helvetica,sans-Serif" font-size="11.00">contact_notes</text>
<polygon fill="none" stroke="black" points="745,-211 745,-233 843,-233 843,-211 745,-211"/>
<text text-anchor="start" x="748" y="-219.2" font-family="Helvetica,sans-Serif" font-size="11.00">text[2147483647]</text>
<polygon fill="none" stroke="black" points="551,-189 551,-211 745,-211 745,-189 551,-189"/>
<text text-anchor="start" x="571" y="-197.2" font-family="Helvetica,sans-Serif" font-size="11.00">diag_timestamp_created</text>
<polygon fill="none" stroke="black" points="745,-189 745,-211 843,-211 843,-189 745,-189"/>
<text text-anchor="start" x="748" y="-197.2" font-family="Helvetica,sans-Serif" font-size="11.00">timestamptz[35,6]</text>
<polygon fill="none" stroke="black" points="551,-167 551,-189 745,-189 745,-167 551,-167"/>
<text text-anchor="start" x="571" y="-175.2" font-family="Helvetica,sans-Serif" font-size="11.00">diag_role_created</text>
<polygon fill="none" stroke="black" points="745,-167 745,-189 843,-189 843,-167 745,-167"/>
<text text-anchor="start" x="748" y="-175.2" font-family="Helvetica,sans-Serif" font-size="11.00">text[2147483647]</text>
<polygon fill="none" stroke="black" points="551,-145 551,-167 745,-167 745,-145 551,-145"/>
<text text-anchor="start" x="571" y="-153.2" font-family="Helvetica,sans-Serif" font-size="11.00">diag_timestamp_modified</text>
<polygon fill="none" stroke="black" points="745,-145 745,-167 843,-167 843,-145 745,-145"/>
<text text-anchor="start" x="748" y="-153.2" font-family="Helvetica,sans-Serif" font-size="11.00">timestamptz[35,6]</text>
<polygon fill="none" stroke="black" points="551,-123 551,-145 745,-145 745,-123 551,-123"/>
<text text-anchor="start" x="571" y="-131.2" font-family="Helvetica,sans-Serif" font-size="11.00">diag_wallclock_modified</text>
<polygon fill="none" stroke="black" points="745,-123 745,-145 843,-145 843,-123 745,-123"/>
<text text-anchor="start" x="748" y="-131.2" font-family="Helvetica,sans-Serif" font-size="11.00">timestamptz[35,6]</text>
<polygon fill="none" stroke="black" points="551,-101 551,-123 745,-123 745,-101 551,-101"/>
<text text-anchor="start" x="571" y="-109.2" font-family="Helvetica,sans-Serif" font-size="11.00">diag_role_modified</text>
<polygon fill="none" stroke="black" points="745,-101 745,-123 843,-123 843,-101 745,-101"/>
<text text-anchor="start" x="748" y="-109.2" font-family="Helvetica,sans-Serif" font-size="11.00">text[2147483647]</text>
<polygon fill="none" stroke="black" points="551,-79 551,-101 745,-101 745,-79 551,-79"/>
<text text-anchor="start" x="571" y="-87.2" font-family="Helvetica,sans-Serif" font-size="11.00">diag_row_version</text>
<polygon fill="none" stroke="black" points="745,-79 745,-101 843,-101 843,-79 745,-79"/>
<text text-anchor="start" x="748" y="-87.2" font-family="Helvetica,sans-Serif" font-size="11.00">int8[19]</text>
<polygon fill="none" stroke="black" points="551,-57 551,-79 745,-79 745,-57 551,-57"/>
<text text-anchor="start" x="571" y="-65.2" font-family="Helvetica,sans-Serif" font-size="11.00">diag_update_count</text>
<polygon fill="none" stroke="black" points="745,-57 745,-79 843,-79 843,-57 745,-57"/>
<text text-anchor="start" x="748" y="-65.2" font-family="Helvetica,sans-Serif" font-size="11.00">int8[19]</text>
<polygon fill="#ffffff" stroke="transparent" points="551,-39 551,-57 652,-57 652,-39 551,-39"/>
<polygon fill="none" stroke="black" points="551,-39 551,-57 652,-57 652,-39 551,-39"/>
<text text-anchor="start" x="554" y="-45.2" font-family="Helvetica,sans-Serif" font-size="11.00">&lt; 3</text>
<polygon fill="#ffffff" stroke="transparent" points="652,-39 652,-57 745,-57 745,-39 652,-39"/>
<polygon fill="none" stroke="black" points="652,-39 652,-57 745,-57 745,-39 652,-39"/>
<text text-anchor="start" x="735" y="-45.2" font-family="Helvetica,sans-Serif" font-size="11.00"> &#160;</text>
<polygon fill="#ffffff" stroke="transparent" points="745,-39 745,-57 843,-57 843,-39 745,-39"/>
<polygon fill="none" stroke="black" points="745,-39 745,-57 843,-57 843,-39 745,-39"/>
<text text-anchor="start" x="824" y="-45.2" font-family="Helvetica,sans-Serif" font-size="11.00">1 &gt;</text>
<polygon fill="none" stroke="black" stroke-width="2" points="550,-38 550,-432 844,-432 844,-38 550,-38"/>
</a>
</g>
</g>
<!-- ms_syst_data.syst_enum_items -->
<g id="node2" class="node">
<title>ms_syst_data.syst_enum_items</title>
<g id="a_node2"><a xlink:href="../../../ms_syst_data/tables/syst_enum_items.html" xlink:title="ms_syst_data.syst_enum_items" target="_top">
<polygon fill="#ffffff" stroke="transparent" points="8,-309 8,-367 257,-367 257,-309 8,-309"/>
<polygon fill="#f5f5f5" stroke="transparent" points="8.5,-345 8.5,-367 257.5,-367 257.5,-345 8.5,-345"/>
<polygon fill="none" stroke="black" points="8.5,-345 8.5,-367 257.5,-367 257.5,-345 8.5,-345"/>
<text text-anchor="start" x="13.5" y="-354.2" font-family="Helvetica,sans-Serif" font-weight="bold" font-size="11.00">ms_syst_data.syst_enum_items</text>
<text text-anchor="start" x="222.5" y="-353.2" font-family="Helvetica,sans-Serif" font-size="11.00">[table]</text>
<polygon fill="none" stroke="black" points="8.5,-327 8.5,-345 257.5,-345 257.5,-327 8.5,-327"/>
<text text-anchor="start" x="11.5" y="-333.2" font-family="Helvetica,sans-Serif" font-size="11.00">...</text>
<polygon fill="#ffffff" stroke="transparent" points="8.5,-309 8.5,-327 118.5,-327 118.5,-309 8.5,-309"/>
<polygon fill="none" stroke="black" points="8.5,-309 8.5,-327 118.5,-327 118.5,-309 8.5,-309"/>
<text text-anchor="start" x="11.5" y="-315.2" font-family="Helvetica,sans-Serif" font-size="11.00"> &#160;</text>
<polygon fill="#ffffff" stroke="transparent" points="118.5,-309 118.5,-327 180.5,-327 180.5,-309 118.5,-309"/>
<polygon fill="none" stroke="black" points="118.5,-309 118.5,-327 180.5,-327 180.5,-309 118.5,-309"/>
<text text-anchor="start" x="170.5" y="-315.2" font-family="Helvetica,sans-Serif" font-size="11.00"> &#160;</text>
<polygon fill="#ffffff" stroke="transparent" points="180.5,-309 180.5,-327 257.5,-327 257.5,-309 180.5,-309"/>
<polygon fill="none" stroke="black" points="180.5,-309 180.5,-327 257.5,-327 257.5,-309 180.5,-309"/>
<text text-anchor="start" x="232.5" y="-315.2" font-family="Helvetica,sans-Serif" font-size="11.00">10 &gt;</text>
</a>
</g>
</g>
<!-- mstr_contacts&#45;&gt;ms_syst_data.syst_enum_items -->
<g id="edge1" class="edge">
<title>mstr_contacts:w&#45;&gt;ms_syst_data.syst_enum_items:e</title>
<path fill="none" stroke="black" d="M535.62,-264.32C526.99,-262.12 521.05,-258.38 508,-257 415.19,-247.17 388.9,-235.83 298,-257 258,-266.31 216.55,-286.81 185.26,-304.85"/>
<polygon fill="black" stroke="black" points="542.05,-265.07 549.58,-269.58 546.03,-265.54 550,-266 550,-266 550,-266 546.03,-265.54 550.42,-262.42 542.05,-265.07 542.05,-265.07"/>
<ellipse fill="none" stroke="black" cx="538.88" cy="-264.7" rx="3.2" ry="3.2"/>
</g>
<!-- mstr_contacts&#45;&gt;ms_syst_data.syst_enum_items -->
<g id="edge2" class="edge">
<title>mstr_contacts:w&#45;&gt;ms_syst_data.syst_enum_items:e</title>
<path fill="none" stroke="black" d="M535.38,-286.63C526.87,-284.91 520.82,-282.06 508,-281 414.98,-273.3 390.04,-265.51 298,-281 269.09,-285.87 238.47,-295.23 211.59,-304.98"/>
<polygon fill="black" stroke="black" points="542.03,-287.25 549.66,-291.58 546.02,-287.63 550,-288 550,-288 550,-288 546.02,-287.63 550.34,-284.42 542.03,-287.25 542.03,-287.25"/>
<ellipse fill="none" stroke="black" cx="538.85" cy="-286.96" rx="3.2" ry="3.2"/>
</g>
<!-- mstr_entities -->
<g id="node3" class="node">
<title>mstr_entities</title>
<g id="a_node3"><a xlink:href="../../tables/mstr_entities.html" xlink:title="mstr_entities" target="_top">
<polygon fill="#ffffff" stroke="transparent" points="306,-291 306,-481 500,-481 500,-291 306,-291"/>
<polygon fill="#f5f5f5" stroke="transparent" points="306,-459 306,-481 500,-481 500,-459 306,-459"/>
<polygon fill="none" stroke="black" points="306,-459 306,-481 500,-481 500,-459 306,-459"/>
<text text-anchor="start" x="311" y="-468.2" font-family="Helvetica,sans-Serif" font-weight="bold" font-size="11.00">mstr_entities</text>
<text text-anchor="start" x="465" y="-467.2" font-family="Helvetica,sans-Serif" font-size="11.00">[table]</text>
<polygon fill="none" stroke="black" points="306,-437 306,-459 500,-459 500,-437 306,-437"/>
<image xlink:href="../../images/primaryKeys.png" width="11px" height="12px" preserveAspectRatio="xMinYMin meet" x="311" y="-454"/>
<text text-anchor="start" x="326" y="-445.2" font-family="Helvetica,sans-Serif" font-size="11.00">id</text>
<polygon fill="none" stroke="black" points="306,-415 306,-437 500,-437 500,-415 306,-415"/>
<image xlink:href="../../images/foreignKeys.png" width="11px" height="12px" preserveAspectRatio="xMinYMin meet" x="311" y="-432"/>
<text text-anchor="start" x="326" y="-423.2" font-family="Helvetica,sans-Serif" font-size="11.00">owning_entity_id</text>
<polygon fill="#ffffff" stroke="transparent" points="306,-393 306,-415 500,-415 500,-393 306,-393"/>
<polygon fill="none" stroke="black" points="306,-393 306,-415 500,-415 500,-393 306,-393"/>
<text text-anchor="start" x="326" y="-401.2" font-family="Helvetica,sans-Serif" font-size="11.00">internal_name</text>
<polygon fill="#ffffff" stroke="transparent" points="306,-371 306,-393 500,-393 500,-371 306,-371"/>
<polygon fill="none" stroke="black" points="306,-371 306,-393 500,-393 500,-371 306,-371"/>
<text text-anchor="start" x="326" y="-379.2" font-family="Helvetica,sans-Serif" font-size="11.00">display_name</text>
<polygon fill="none" stroke="black" points="306,-349 306,-371 500,-371 500,-349 306,-349"/>
<image xlink:href="../../images/foreignKeys.png" width="11px" height="12px" preserveAspectRatio="xMinYMin meet" x="311" y="-366"/>
<text text-anchor="start" x="326" y="-357.2" font-family="Helvetica,sans-Serif" font-size="11.00">entity_type_id</text>
<polygon fill="none" stroke="black" points="306,-327 306,-349 500,-349 500,-327 306,-327"/>
<image xlink:href="../../images/foreignKeys.png" width="11px" height="12px" preserveAspectRatio="xMinYMin meet" x="311" y="-344"/>
<text text-anchor="start" x="326" y="-335.2" font-family="Helvetica,sans-Serif" font-size="11.00">entity_state_id</text>
<polygon fill="none" stroke="black" points="306,-309 306,-327 500,-327 500,-309 306,-309"/>
<text text-anchor="start" x="309" y="-315.2" font-family="Helvetica,sans-Serif" font-size="11.00">...</text>
<polygon fill="#ffffff" stroke="transparent" points="306,-291 306,-309 393,-309 393,-291 306,-291"/>
<polygon fill="none" stroke="black" points="306,-291 306,-309 393,-309 393,-291 306,-291"/>
<text text-anchor="start" x="309" y="-297.2" font-family="Helvetica,sans-Serif" font-size="11.00">&lt; 3</text>
<polygon fill="#ffffff" stroke="transparent" points="393,-291 393,-309 439,-309 439,-291 393,-291"/>
<polygon fill="none" stroke="black" points="393,-291 393,-309 439,-309 439,-291 393,-291"/>
<text text-anchor="start" x="429" y="-297.2" font-family="Helvetica,sans-Serif" font-size="11.00"> &#160;</text>
<polygon fill="#ffffff" stroke="transparent" points="439,-291 439,-309 500,-309 500,-291 439,-291"/>
<polygon fill="none" stroke="black" points="439,-291 439,-309 500,-309 500,-291 439,-291"/>
<text text-anchor="start" x="475" y="-297.2" font-family="Helvetica,sans-Serif" font-size="11.00">15 &gt;</text>
</a>
</g>
</g>
<!-- mstr_contacts&#45;&gt;mstr_entities -->
<g id="edge3" class="edge">
<title>mstr_contacts:w&#45;&gt;mstr_entities:e</title>
<path fill="none" stroke="black" d="M535.98,-335.6C505.99,-355.18 551.06,-448 501,-448"/>
<polygon fill="black" stroke="black" points="542.25,-333.99 550.9,-335.49 546.13,-332.99 550,-332 550,-332 550,-332 546.13,-332.99 549.1,-328.51 542.25,-333.99 542.25,-333.99"/>
<ellipse fill="none" stroke="black" cx="539.15" cy="-334.78" rx="3.2" ry="3.2"/>
</g>
<!-- mstr_entities&#45;&gt;ms_syst_data.syst_enum_items -->
<g id="edge4" class="edge">
<title>mstr_entities:w&#45;&gt;ms_syst_data.syst_enum_items:e</title>
<path fill="none" stroke="black" d="M290.54,-338C282.13,-338 273.59,-338 265.05,-338"/>
<polygon fill="black" stroke="black" points="297,-338 305,-341.6 301,-338 305,-338 305,-338 305,-338 301,-338 305,-334.4 297,-338 297,-338"/>
<ellipse fill="none" stroke="black" cx="293.8" cy="-338" rx="3.2" ry="3.2"/>
</g>
<!-- mstr_entities&#45;&gt;ms_syst_data.syst_enum_items -->
<g id="edge5" class="edge">
<title>mstr_entities:w&#45;&gt;ms_syst_data.syst_enum_items:e</title>
<path fill="none" stroke="black" d="M290.29,-359.75C282.04,-359.48 273.66,-358.99 265.3,-358.35"/>
<polygon fill="black" stroke="black" points="297,-359.86 304.94,-363.6 301,-359.93 305,-360 305,-360 305,-360 301,-359.93 305.06,-356.4 297,-359.86 297,-359.86"/>
<ellipse fill="none" stroke="black" cx="293.8" cy="-359.81" rx="3.2" ry="3.2"/>
</g>
<!-- mstr_person_contact_roles -->
<g id="node4" class="node">
<title>mstr_person_contact_roles</title>
<g id="a_node4"><a xlink:href="../../tables/mstr_person_contact_roles.html" xlink:title="mstr_person_contact_roles" target="_top">
<polygon fill="#ffffff" stroke="transparent" points="894,-393 894,-561 1114,-561 1114,-393 894,-393"/>
<polygon fill="#f5f5f5" stroke="transparent" points="894,-539 894,-561 1114,-561 1114,-539 894,-539"/>
<polygon fill="none" stroke="black" points="894,-539 894,-561 1114,-561 1114,-539 894,-539"/>
<text text-anchor="start" x="899" y="-548.2" font-family="Helvetica,sans-Serif" font-weight="bold" font-size="11.00">mstr_person_contact_roles</text>
<text text-anchor="start" x="1079" y="-547.2" font-family="Helvetica,sans-Serif" font-size="11.00">[table]</text>
<polygon fill="none" stroke="black" points="894,-517 894,-539 1114,-539 1114,-517 894,-517"/>
<image xlink:href="../../images/primaryKeys.png" width="11px" height="12px" preserveAspectRatio="xMinYMin meet" x="899" y="-534"/>
<text text-anchor="start" x="924" y="-525.2" font-family="Helvetica,sans-Serif" font-size="11.00">id</text>
<polygon fill="none" stroke="black" points="894,-495 894,-517 1114,-517 1114,-495 894,-495"/>
<image xlink:href="../../images/foreignKeys.png" width="11px" height="12px" preserveAspectRatio="xMinYMin meet" x="899" y="-512"/>
<text text-anchor="start" x="924" y="-503.2" font-family="Helvetica,sans-Serif" font-size="11.00">person_id</text>
<polygon fill="none" stroke="black" points="894,-473 894,-495 1114,-495 1114,-473 894,-473"/>
<image xlink:href="../../images/foreignKeys.png" width="11px" height="12px" preserveAspectRatio="xMinYMin meet" x="899" y="-490"/>
<text text-anchor="start" x="924" y="-481.2" font-family="Helvetica,sans-Serif" font-size="11.00">person_contact_role_id</text>
<polygon fill="none" stroke="black" points="894,-451 894,-473 1114,-473 1114,-451 894,-451"/>
<image xlink:href="../../images/foreignKeys.png" width="11px" height="12px" preserveAspectRatio="xMinYMin meet" x="899" y="-468"/>
<text text-anchor="start" x="924" y="-459.2" font-family="Helvetica,sans-Serif" font-size="11.00">place_id</text>
<polygon fill="none" stroke="black" points="894,-429 894,-451 1114,-451 1114,-429 894,-429"/>
<image xlink:href="../../images/foreignKeys.png" width="11px" height="12px" preserveAspectRatio="xMinYMin meet" x="899" y="-446"/>
<text text-anchor="start" x="924" y="-437.2" font-family="Helvetica,sans-Serif" font-size="11.00">contact_id</text>
<polygon fill="none" stroke="black" points="894,-411 894,-429 1114,-429 1114,-411 894,-411"/>
<text text-anchor="start" x="897" y="-417.2" font-family="Helvetica,sans-Serif" font-size="11.00">...</text>
<polygon fill="#ffffff" stroke="transparent" points="894,-393 894,-411 1002,-411 1002,-393 894,-393"/>
<polygon fill="none" stroke="black" points="894,-393 894,-411 1002,-411 1002,-393 894,-393"/>
<text text-anchor="start" x="897" y="-399.2" font-family="Helvetica,sans-Serif" font-size="11.00">&lt; 4</text>
<polygon fill="#ffffff" stroke="transparent" points="1002,-393 1002,-411 1058,-411 1058,-393 1002,-393"/>
<polygon fill="none" stroke="black" points="1002,-393 1002,-411 1058,-411 1058,-393 1002,-393"/>
<text text-anchor="start" x="1048" y="-399.2" font-family="Helvetica,sans-Serif" font-size="11.00"> &#160;</text>
<polygon fill="#ffffff" stroke="transparent" points="1058,-393 1058,-411 1114,-411 1114,-393 1058,-393"/>
<polygon fill="none" stroke="black" points="1058,-393 1058,-411 1114,-411 1114,-393 1058,-393"/>
<text text-anchor="start" x="1104" y="-399.2" font-family="Helvetica,sans-Serif" font-size="11.00"> &#160;</text>
</a>
</g>
</g>
<!-- mstr_person_contact_roles&#45;&gt;mstr_contacts -->
<g id="edge6" class="edge">
<title>mstr_person_contact_roles:w&#45;&gt;mstr_contacts:e</title>
<path fill="none" stroke="black" d="M879.1,-435.18C866.2,-424.15 866.63,-398 844,-398"/>
<polygon fill="black" stroke="black" points="885.44,-437.38 891.82,-443.4 889.22,-438.69 893,-440 893,-440 893,-440 889.22,-438.69 894.18,-436.6 885.44,-437.38 885.44,-437.38"/>
<ellipse fill="none" stroke="black" cx="882.42" cy="-436.33" rx="3.2" ry="3.2"/>
</g>
<!-- mstr_person_contact_roles&#45;&gt;ms_syst_data.syst_enum_items -->
<g id="edge7" class="edge">
<title>mstr_person_contact_roles:w&#45;&gt;ms_syst_data.syst_enum_items:e</title>
<path fill="none" stroke="black" d="M878.46,-484.11C625.34,-487.83 539.41,-587.37 298,-492 236.69,-467.78 184.82,-408.73 156.53,-371.19"/>
<polygon fill="black" stroke="black" points="885,-484.06 893.03,-487.6 889,-484.03 893,-484 893,-484 893,-484 889,-484.03 892.97,-480.4 885,-484.06 885,-484.06"/>
<ellipse fill="none" stroke="black" cx="881.8" cy="-484.08" rx="3.2" ry="3.2"/>
</g>
</g>
</svg>
