<?xml version="1.0" encoding="UTF-8" standalone="no"?>
<!DOCTYPE svg PUBLIC "-//W3C//DTD SVG 1.1//EN"
 "http://www.w3.org/Graphics/SVG/1.1/DTD/svg11.dtd">
<!-- Generated by graphviz version 2.43.0 (0)
 -->
<!-- Title: twoDegreesRelationshipsDiagram Pages: 1 -->
<svg width="756pt" height="493pt"
 viewBox="0.00 0.00 756.00 493.00" xmlns="http://www.w3.org/2000/svg" xmlns:xlink="http://www.w3.org/1999/xlink">
<g id="graph0" class="graph" transform="scale(1 1) rotate(0) translate(4 489)">
<title>twoDegreesRelationshipsDiagram</title>
<polygon fill="#ffffff" stroke="transparent" points="-4,4 -4,-489 752,-489 752,4 -4,4"/>
<text text-anchor="middle" x="71.5" y="-7.2" font-family="Helvetica,sans-Serif" font-size="11.00">Generated by SchemaSpy</text>
<!-- mstr_country_address_format_assocs -->
<g id="node1" class="node">
<title>mstr_country_address_format_assocs</title>
<g id="a_node1"><a xlink:href="../../tables/mstr_country_address_format_assocs.html" xlink:title="mstr_country_address_format_assocs" target="_top">
<polygon fill="#ffffff" stroke="transparent" points="416,-423 416,-481 707,-481 707,-423 416,-423"/>
<polygon fill="#f5f5f5" stroke="transparent" points="416.5,-459 416.5,-481 707.5,-481 707.5,-459 416.5,-459"/>
<polygon fill="none" stroke="black" points="416.5,-459 416.5,-481 707.5,-481 707.5,-459 416.5,-459"/>
<text text-anchor="start" x="421.5" y="-468.2" font-family="Helvetica,sans-Serif" font-weight="bold" font-size="11.00">mstr_country_address_format_assocs</text>
<text text-anchor="start" x="672.5" y="-467.2" font-family="Helvetica,sans-Serif" font-size="11.00">[table]</text>
<polygon fill="none" stroke="black" points="416.5,-441 416.5,-459 707.5,-459 707.5,-441 416.5,-441"/>
<text text-anchor="start" x="419.5" y="-447.2" font-family="Helvetica,sans-Serif" font-size="11.00">...</text>
<polygon fill="#ffffff" stroke="transparent" points="416.5,-423 416.5,-441 559.5,-441 559.5,-423 416.5,-423"/>
<polygon fill="none" stroke="black" points="416.5,-423 416.5,-441 559.5,-441 559.5,-423 416.5,-423"/>
<text text-anchor="start" x="419.5" y="-429.2" font-family="Helvetica,sans-Serif" font-size="11.00">&lt; 2</text>
<polygon fill="#ffffff" stroke="transparent" points="559.5,-423 559.5,-441 633.5,-441 633.5,-423 559.5,-423"/>
<polygon fill="none" stroke="black" points="559.5,-423 559.5,-441 633.5,-441 633.5,-423 559.5,-423"/>
<text text-anchor="start" x="623.5" y="-429.2" font-family="Helvetica,sans-Serif" font-size="11.00"> &#160;</text>
<polygon fill="#ffffff" stroke="transparent" points="633.5,-423 633.5,-441 707.5,-441 707.5,-423 633.5,-423"/>
<polygon fill="none" stroke="black" points="633.5,-423 633.5,-441 707.5,-441 707.5,-423 633.5,-423"/>
<text text-anchor="start" x="697.5" y="-429.2" font-family="Helvetica,sans-Serif" font-size="11.00"> &#160;</text>
</a>
</g>
</g>
<!-- ms_syst_data.syst_complex_format_values -->
<g id="node2" class="node">
<title>ms_syst_data.syst_complex_format_values</title>
<g id="a_node2"><a xlink:href="../../../ms_syst_data/tables/syst_complex_format_values.html" xlink:title="ms_syst_data.syst_complex_format_values" target="_top">
<polygon fill="#ffffff" stroke="transparent" points="8,-247 8,-305 334,-305 334,-247 8,-247"/>
<polygon fill="#f5f5f5" stroke="transparent" points="8,-283 8,-305 334,-305 334,-283 8,-283"/>
<polygon fill="none" stroke="black" points="8,-283 8,-305 334,-305 334,-283 8,-283"/>
<text text-anchor="start" x="13" y="-292.2" font-family="Helvetica,sans-Serif" font-weight="bold" font-size="11.00">ms_syst_data.syst_complex_format_values</text>
<text text-anchor="start" x="299" y="-291.2" font-family="Helvetica,sans-Serif" font-size="11.00">[table]</text>
<polygon fill="none" stroke="black" points="8,-265 8,-283 334,-283 334,-265 8,-265"/>
<text text-anchor="start" x="11" y="-271.2" font-family="Helvetica,sans-Serif" font-size="11.00">...</text>
<polygon fill="#ffffff" stroke="transparent" points="8,-247 8,-265 160,-265 160,-247 8,-247"/>
<polygon fill="none" stroke="black" points="8,-247 8,-265 160,-265 160,-247 8,-247"/>
<text text-anchor="start" x="11" y="-253.2" font-family="Helvetica,sans-Serif" font-size="11.00"> &#160;</text>
<polygon fill="#ffffff" stroke="transparent" points="160,-247 160,-265 242,-265 242,-247 160,-247"/>
<polygon fill="none" stroke="black" points="160,-247 160,-265 242,-265 242,-247 160,-247"/>
<text text-anchor="start" x="232" y="-253.2" font-family="Helvetica,sans-Serif" font-size="11.00"> &#160;</text>
<polygon fill="#ffffff" stroke="transparent" points="242,-247 242,-265 334,-265 334,-247 242,-247"/>
<polygon fill="none" stroke="black" points="242,-247 242,-265 334,-265 334,-247 242,-247"/>
<text text-anchor="start" x="315" y="-253.2" font-family="Helvetica,sans-Serif" font-size="11.00">3 &gt;</text>
</a>
</g>
</g>
<!-- mstr_country_address_format_assocs&#45;&gt;ms_syst_data.syst_complex_format_values -->
<g id="edge1" class="edge">
<title>mstr_country_address_format_assocs:w&#45;&gt;ms_syst_data.syst_complex_format_values:e</title>
<path fill="none" stroke="black" d="M400.94,-448.29C354.27,-435.79 388.17,-357.91 342,-316 339.31,-313.55 336.49,-311.25 333.57,-309.08"/>
<polygon fill="black" stroke="black" points="407.55,-449.07 415.08,-453.58 411.53,-449.53 415.5,-450 415.5,-450 415.5,-450 411.53,-449.53 415.92,-446.42 407.55,-449.07 407.55,-449.07"/>
<ellipse fill="none" stroke="black" cx="404.38" cy="-448.69" rx="3.2" ry="3.2"/>
</g>
<!-- mstr_countries -->
<g id="node3" class="node">
<title>mstr_countries</title>
<g id="a_node3"><a xlink:href="../../tables/mstr_countries.html" xlink:title="mstr_countries" target="_top">
<polygon fill="#ffffff" stroke="transparent" points="44,-326 44,-450 298,-450 298,-326 44,-326"/>
<polygon fill="#f5f5f5" stroke="transparent" points="44,-428 44,-450 298,-450 298,-428 44,-428"/>
<polygon fill="none" stroke="black" points="44,-428 44,-450 298,-450 298,-428 44,-428"/>
<text text-anchor="start" x="49" y="-437.2" font-family="Helvetica,sans-Serif" font-weight="bold" font-size="11.00">mstr_countries</text>
<text text-anchor="start" x="263" y="-436.2" font-family="Helvetica,sans-Serif" font-size="11.00">[table]</text>
<polygon fill="none" stroke="black" points="44,-406 44,-428 298,-428 298,-406 44,-406"/>
<image xlink:href="../../images/primaryKeys.png" width="11px" height="12px" preserveAspectRatio="xMinYMin meet" x="49" y="-423"/>
<text text-anchor="start" x="64" y="-414.2" font-family="Helvetica,sans-Serif" font-size="11.00">id</text>
<polygon fill="#ffffff" stroke="transparent" points="44,-384 44,-406 298,-406 298,-384 44,-384"/>
<polygon fill="none" stroke="black" points="44,-384 44,-406 298,-406 298,-384 44,-384"/>
<text text-anchor="start" x="64" y="-392.2" font-family="Helvetica,sans-Serif" font-size="11.00">internal_name</text>
<polygon fill="#ffffff" stroke="transparent" points="44,-362 44,-384 298,-384 298,-362 44,-362"/>
<polygon fill="none" stroke="black" points="44,-362 44,-384 298,-384 298,-362 44,-362"/>
<text text-anchor="start" x="64" y="-370.2" font-family="Helvetica,sans-Serif" font-size="11.00">display_name</text>
<polygon fill="none" stroke="black" points="44,-344 44,-362 298,-362 298,-344 44,-344"/>
<text text-anchor="start" x="47" y="-350.2" font-family="Helvetica,sans-Serif" font-size="11.00">...</text>
<polygon fill="#ffffff" stroke="transparent" points="44,-326 44,-344 160,-344 160,-326 44,-326"/>
<polygon fill="none" stroke="black" points="44,-326 44,-344 160,-344 160,-326 44,-326"/>
<text text-anchor="start" x="47" y="-332.2" font-family="Helvetica,sans-Serif" font-size="11.00"> &#160;</text>
<polygon fill="#ffffff" stroke="transparent" points="160,-326 160,-344 224,-344 224,-326 160,-326"/>
<polygon fill="none" stroke="black" points="160,-326 160,-344 224,-344 224,-326 160,-326"/>
<text text-anchor="start" x="214" y="-332.2" font-family="Helvetica,sans-Serif" font-size="11.00"> &#160;</text>
<polygon fill="#ffffff" stroke="transparent" points="224,-326 224,-344 298,-344 298,-326 224,-326"/>
<polygon fill="none" stroke="black" points="224,-326 224,-344 298,-344 298,-326 224,-326"/>
<text text-anchor="start" x="279" y="-332.2" font-family="Helvetica,sans-Serif" font-size="11.00">3 &gt;</text>
</a>
</g>
</g>
<!-- mstr_country_address_format_assocs&#45;&gt;mstr_countries -->
<g id="edge2" class="edge">
<title>mstr_country_address_format_assocs:w&#45;&gt;mstr_countries:e</title>
<path fill="none" stroke="black" d="M400.94,-449.12C359.52,-443.87 347.56,-417 299,-417"/>
<polygon fill="black" stroke="black" points="407.51,-449.52 415.28,-453.59 411.51,-449.76 415.5,-450 415.5,-450 415.5,-450 411.51,-449.76 415.72,-446.41 407.51,-449.52 407.51,-449.52"/>
<ellipse fill="none" stroke="black" cx="404.32" cy="-449.32" rx="3.2" ry="3.2"/>
</g>
<!-- mstr_country_name_format_assocs -->
<g id="node4" class="node">
<title>mstr_country_name_format_assocs</title>
<g id="a_node4"><a xlink:href="../../tables/mstr_country_name_format_assocs.html" xlink:title="mstr_country_name_format_assocs" target="_top">
<polygon fill="#ffffff" stroke="transparent" points="424,-344 424,-402 699,-402 699,-344 424,-344"/>
<polygon fill="#f5f5f5" stroke="transparent" points="424.5,-380 424.5,-402 699.5,-402 699.5,-380 424.5,-380"/>
<polygon fill="none" stroke="black" points="424.5,-380 424.5,-402 699.5,-402 699.5,-380 424.5,-380"/>
<text text-anchor="start" x="429.5" y="-389.2" font-family="Helvetica,sans-Serif" font-weight="bold" font-size="11.00">mstr_country_name_format_assocs</text>
<text text-anchor="start" x="664.5" y="-388.2" font-family="Helvetica,sans-Serif" font-size="11.00">[table]</text>
<polygon fill="none" stroke="black" points="424.5,-362 424.5,-380 699.5,-380 699.5,-362 424.5,-362"/>
<text text-anchor="start" x="427.5" y="-368.2" font-family="Helvetica,sans-Serif" font-size="11.00">...</text>
<polygon fill="#ffffff" stroke="transparent" points="424.5,-344 424.5,-362 559.5,-362 559.5,-344 424.5,-344"/>
<polygon fill="none" stroke="black" points="424.5,-344 424.5,-362 559.5,-362 559.5,-344 424.5,-344"/>
<text text-anchor="start" x="427.5" y="-350.2" font-family="Helvetica,sans-Serif" font-size="11.00">&lt; 2</text>
<polygon fill="#ffffff" stroke="transparent" points="559.5,-344 559.5,-362 629.5,-362 629.5,-344 559.5,-344"/>
<polygon fill="none" stroke="black" points="559.5,-344 559.5,-362 629.5,-362 629.5,-344 559.5,-344"/>
<text text-anchor="start" x="619.5" y="-350.2" font-family="Helvetica,sans-Serif" font-size="11.00"> &#160;</text>
<polygon fill="#ffffff" stroke="transparent" points="629.5,-344 629.5,-362 699.5,-362 699.5,-344 629.5,-344"/>
<polygon fill="none" stroke="black" points="629.5,-344 629.5,-362 699.5,-362 699.5,-344 629.5,-344"/>
<text text-anchor="start" x="689.5" y="-350.2" font-family="Helvetica,sans-Serif" font-size="11.00"> &#160;</text>
</a>
</g>
</g>
<!-- mstr_country_name_format_assocs&#45;&gt;ms_syst_data.syst_complex_format_values -->
<g id="edge4" class="edge">
<title>mstr_country_name_format_assocs:w&#45;&gt;ms_syst_data.syst_complex_format_values:e</title>
<path fill="none" stroke="black" d="M409.09,-369.36C379.7,-361.94 377.03,-331.32 342,-316 336.44,-313.57 330.72,-311.27 324.88,-309.11"/>
<polygon fill="black" stroke="black" points="415.55,-370.09 423.09,-374.58 419.53,-370.55 423.5,-371 423.5,-371 423.5,-371 419.53,-370.55 423.91,-367.42 415.55,-370.09 415.55,-370.09"/>
<ellipse fill="none" stroke="black" cx="412.37" cy="-369.73" rx="3.2" ry="3.2"/>
</g>
<!-- mstr_country_name_format_assocs&#45;&gt;mstr_countries -->
<g id="edge3" class="edge">
<title>mstr_country_name_format_assocs:w&#45;&gt;mstr_countries:e</title>
<path fill="none" stroke="black" d="M409.09,-372C362.96,-378.73 352.8,-417 299,-417"/>
<polygon fill="black" stroke="black" points="415.52,-371.56 423.75,-374.59 419.51,-371.28 423.5,-371 423.5,-371 423.5,-371 419.51,-371.28 423.25,-367.41 415.52,-371.56 415.52,-371.56"/>
<ellipse fill="none" stroke="black" cx="412.33" cy="-371.78" rx="3.2" ry="3.2"/>
</g>
<!-- mstr_country_phone_format_assocs -->
<g id="node5" class="node">
<title>mstr_country_phone_format_assocs</title>
<g id="a_node5"><a xlink:href="../../tables/mstr_country_phone_format_assocs.html" xlink:title="mstr_country_phone_format_assocs" target="_top">
<polygon fill="#ffffff" stroke="transparent" points="383,-37 383,-323 740,-323 740,-37 383,-37"/>
<polygon fill="#f5f5f5" stroke="transparent" points="385.5,-299 385.5,-321 738.5,-321 738.5,-299 385.5,-299"/>
<polygon fill="none" stroke="black" points="385.5,-299 385.5,-321 738.5,-321 738.5,-299 385.5,-299"/>
<text text-anchor="start" x="390.5" y="-308.2" font-family="Helvetica,sans-Serif" font-weight="bold" font-size="11.00">mstr_country_phone_format_assocs</text>
<text text-anchor="start" x="703.5" y="-307.2" font-family="Helvetica,sans-Serif" font-size="11.00">[table]</text>
<polygon fill="none" stroke="black" points="385.5,-277 385.5,-299 645.5,-299 645.5,-277 385.5,-277"/>
<image xlink:href="../../images/primaryKeys.png" width="11px" height="12px" preserveAspectRatio="xMinYMin meet" x="390.5" y="-294"/>
<text text-anchor="start" x="405.5" y="-285.2" font-family="Helvetica,sans-Serif" font-size="11.00">id</text>
<polygon fill="none" stroke="black" points="645.5,-277 645.5,-299 738.5,-299 738.5,-277 645.5,-277"/>
<text text-anchor="start" x="648.5" y="-285.2" font-family="Helvetica,sans-Serif" font-size="11.00">uuid[2147483647]</text>
<polygon fill="none" stroke="black" points="385.5,-255 385.5,-277 645.5,-277 645.5,-255 385.5,-255"/>
<image xlink:href="../../images/foreignKeys.png" width="11px" height="12px" preserveAspectRatio="xMinYMin meet" x="390.5" y="-272"/>
<text text-anchor="start" x="405.5" y="-263.2" font-family="Helvetica,sans-Serif" font-size="11.00">country_id</text>
<polygon fill="none" stroke="black" points="645.5,-255 645.5,-277 738.5,-277 738.5,-255 645.5,-255"/>
<text text-anchor="start" x="648.5" y="-263.2" font-family="Helvetica,sans-Serif" font-size="11.00">uuid[2147483647]</text>
<polygon fill="none" stroke="black" points="385.5,-233 385.5,-255 645.5,-255 645.5,-233 385.5,-233"/>
<image xlink:href="../../images/foreignKeys.png" width="11px" height="12px" preserveAspectRatio="xMinYMin meet" x="390.5" y="-250"/>
<text text-anchor="start" x="405.5" y="-241.2" font-family="Helvetica,sans-Serif" font-size="11.00">phone_format_id</text>
<polygon fill="none" stroke="black" points="645.5,-233 645.5,-255 738.5,-255 738.5,-233 645.5,-233"/>
<text text-anchor="start" x="648.5" y="-241.2" font-family="Helvetica,sans-Serif" font-size="11.00">uuid[2147483647]</text>
<polygon fill="none" stroke="black" points="385.5,-211 385.5,-233 645.5,-233 645.5,-211 385.5,-211"/>
<text text-anchor="start" x="405.5" y="-219.2" font-family="Helvetica,sans-Serif" font-size="11.00">is_default_for_country</text>
<polygon fill="none" stroke="black" points="645.5,-211 645.5,-233 738.5,-233 738.5,-211 645.5,-211"/>
<text text-anchor="start" x="648.5" y="-219.2" font-family="Helvetica,sans-Serif" font-size="11.00">bool[1]</text>
<polygon fill="none" stroke="black" points="385.5,-189 385.5,-211 645.5,-211 645.5,-189 385.5,-189"/>
<text text-anchor="start" x="405.5" y="-197.2" font-family="Helvetica,sans-Serif" font-size="11.00">diag_timestamp_created</text>
<polygon fill="none" stroke="black" points="645.5,-189 645.5,-211 738.5,-211 738.5,-189 645.5,-189"/>
<text text-anchor="start" x="648.5" y="-197.2" font-family="Helvetica,sans-Serif" font-size="11.00">timestamptz[35,6]</text>
<polygon fill="none" stroke="black" points="385.5,-167 385.5,-189 645.5,-189 645.5,-167 385.5,-167"/>
<text text-anchor="start" x="405.5" y="-175.2" font-family="Helvetica,sans-Serif" font-size="11.00">diag_role_created</text>
<polygon fill="none" stroke="black" points="645.5,-167 645.5,-189 738.5,-189 738.5,-167 645.5,-167"/>
<text text-anchor="start" x="648.5" y="-175.2" font-family="Helvetica,sans-Serif" font-size="11.00">text[2147483647]</text>
<polygon fill="none" stroke="black" points="385.5,-145 385.5,-167 645.5,-167 645.5,-145 385.5,-145"/>
<text text-anchor="start" x="405.5" y="-153.2" font-family="Helvetica,sans-Serif" font-size="11.00">diag_timestamp_modified</text>
<polygon fill="none" stroke="black" points="645.5,-145 645.5,-167 738.5,-167 738.5,-145 645.5,-145"/>
<text text-anchor="start" x="648.5" y="-153.2" font-family="Helvetica,sans-Serif" font-size="11.00">timestamptz[35,6]</text>
<polygon fill="none" stroke="black" points="385.5,-123 385.5,-145 645.5,-145 645.5,-123 385.5,-123"/>
<text text-anchor="start" x="405.5" y="-131.2" font-family="Helvetica,sans-Serif" font-size="11.00">diag_wallclock_modified</text>
<polygon fill="none" stroke="black" points="645.5,-123 645.5,-145 738.5,-145 738.5,-123 645.5,-123"/>
<text text-anchor="start" x="648.5" y="-131.2" font-family="Helvetica,sans-Serif" font-size="11.00">timestamptz[35,6]</text>
<polygon fill="none" stroke="black" points="385.5,-101 385.5,-123 645.5,-123 645.5,-101 385.5,-101"/>
<text text-anchor="start" x="405.5" y="-109.2" font-family="Helvetica,sans-Serif" font-size="11.00">diag_role_modified</text>
<polygon fill="none" stroke="black" points="645.5,-101 645.5,-123 738.5,-123 738.5,-101 645.5,-101"/>
<text text-anchor="start" x="648.5" y="-109.2" font-family="Helvetica,sans-Serif" font-size="11.00">text[2147483647]</text>
<polygon fill="none" stroke="black" points="385.5,-79 385.5,-101 645.5,-101 645.5,-79 385.5,-79"/>
<text text-anchor="start" x="405.5" y="-87.2" font-family="Helvetica,sans-Serif" font-size="11.00">diag_row_version</text>
<polygon fill="none" stroke="black" points="645.5,-79 645.5,-101 738.5,-101 738.5,-79 645.5,-79"/>
<text text-anchor="start" x="648.5" y="-87.2" font-family="Helvetica,sans-Serif" font-size="11.00">int8[19]</text>
<polygon fill="none" stroke="black" points="385.5,-57 385.5,-79 645.5,-79 645.5,-57 385.5,-57"/>
<text text-anchor="start" x="405.5" y="-65.2" font-family="Helvetica,sans-Serif" font-size="11.00">diag_update_count</text>
<polygon fill="none" stroke="black" points="645.5,-57 645.5,-79 738.5,-79 738.5,-57 645.5,-57"/>
<text text-anchor="start" x="648.5" y="-65.2" font-family="Helvetica,sans-Serif" font-size="11.00">int8[19]</text>
<polygon fill="#ffffff" stroke="transparent" points="385.5,-39 385.5,-57 519.5,-57 519.5,-39 385.5,-39"/>
<polygon fill="none" stroke="black" points="385.5,-39 385.5,-57 519.5,-57 519.5,-39 385.5,-39"/>
<text text-anchor="start" x="388.5" y="-45.2" font-family="Helvetica,sans-Serif" font-size="11.00">&lt; 2</text>
<polygon fill="#ffffff" stroke="transparent" points="519.5,-39 519.5,-57 645.5,-57 645.5,-39 519.5,-39"/>
<polygon fill="none" stroke="black" points="519.5,-39 519.5,-57 645.5,-57 645.5,-39 519.5,-39"/>
<text text-anchor="start" x="635.5" y="-45.2" font-family="Helvetica,sans-Serif" font-size="11.00"> &#160;</text>
<polygon fill="#ffffff" stroke="transparent" points="645.5,-39 645.5,-57 738.5,-57 738.5,-39 645.5,-39"/>
<polygon fill="none" stroke="black" points="645.5,-39 645.5,-57 738.5,-57 738.5,-39 645.5,-39"/>
<text text-anchor="start" x="719.5" y="-45.2" font-family="Helvetica,sans-Serif" font-size="11.00">0 &gt;</text>
<polygon fill="none" stroke="black" stroke-width="2" points="384,-38 384,-322 739,-322 739,-38 384,-38"/>
</a>
</g>
</g>
<!-- mstr_country_phone_format_assocs&#45;&gt;ms_syst_data.syst_complex_format_values -->
<g id="edge6" class="edge">
<title>mstr_country_phone_format_assocs:w&#45;&gt;ms_syst_data.syst_complex_format_values:e</title>
<path fill="none" stroke="black" d="M369.79,-244.24C360.67,-244.53 351.42,-245.07 342.16,-245.81"/>
<polygon fill="black" stroke="black" points="376.5,-244.13 384.56,-247.6 380.5,-244.07 384.5,-244 384.5,-244 384.5,-244 380.5,-244.07 384.44,-240.4 376.5,-244.13 376.5,-244.13"/>
<ellipse fill="none" stroke="black" cx="373.3" cy="-244.18" rx="3.2" ry="3.2"/>
</g>
<!-- mstr_country_phone_format_assocs&#45;&gt;mstr_countries -->
<g id="edge5" class="edge">
<title>mstr_country_phone_format_assocs:w&#45;&gt;mstr_countries:e</title>
<path fill="none" stroke="black" d="M369.96,-268.25C316.55,-287.04 370.55,-417 299,-417"/>
<polygon fill="black" stroke="black" points="376.59,-267.22 385.05,-269.56 380.55,-266.61 384.5,-266 384.5,-266 384.5,-266 380.55,-266.61 383.95,-262.44 376.59,-267.22 376.59,-267.22"/>
<ellipse fill="none" stroke="black" cx="373.43" cy="-267.71" rx="3.2" ry="3.2"/>
</g>
</g>
</svg>
