<?xml version="1.0" encoding="UTF-8" standalone="no"?>
<!DOCTYPE svg PUBLIC "-//W3C//DTD SVG 1.1//EN"
 "http://www.w3.org/Graphics/SVG/1.1/DTD/svg11.dtd">
<!-- Generated by graphviz version 2.43.0 (0)
 -->
<!-- Title: twoDegreesRelationshipsDiagram Pages: 1 -->
<svg width="715pt" height="1250pt"
 viewBox="0.00 0.00 715.00 1250.00" xmlns="http://www.w3.org/2000/svg" xmlns:xlink="http://www.w3.org/1999/xlink">
<g id="graph0" class="graph" transform="scale(1 1) rotate(0) translate(4 1246)">
<title>twoDegreesRelationshipsDiagram</title>
<polygon fill="#ffffff" stroke="transparent" points="-4,4 -4,-1246 711,-1246 711,4 -4,4"/>
<text text-anchor="middle" x="71.5" y="-7.2" font-family="Helvetica,sans-Serif" font-size="11.00">Generated by SchemaSpy</text>
<!-- mstr_country_address_format_assocs -->
<g id="node1" class="node">
<title>mstr_country_address_format_assocs</title>
<g id="a_node1"><a xlink:href="../../tables/mstr_country_address_format_assocs.html" xlink:title="mstr_country_address_format_assocs" target="_top">
<polygon fill="#ffffff" stroke="transparent" points="408,-1030 408,-1154 699,-1154 699,-1030 408,-1030"/>
<polygon fill="#f5f5f5" stroke="transparent" points="408.5,-1132 408.5,-1154 699.5,-1154 699.5,-1132 408.5,-1132"/>
<polygon fill="none" stroke="black" points="408.5,-1132 408.5,-1154 699.5,-1154 699.5,-1132 408.5,-1132"/>
<text text-anchor="start" x="413.5" y="-1141.2" font-family="Helvetica,sans-Serif" font-weight="bold" font-size="11.00">mstr_country_address_format_assocs</text>
<text text-anchor="start" x="664.5" y="-1140.2" font-family="Helvetica,sans-Serif" font-size="11.00">[table]</text>
<polygon fill="none" stroke="black" points="408.5,-1110 408.5,-1132 699.5,-1132 699.5,-1110 408.5,-1110"/>
<image xlink:href="../../images/primaryKeys.png" width="11px" height="12px" preserveAspectRatio="xMinYMin meet" x="413.5" y="-1127"/>
<text text-anchor="start" x="438.5" y="-1118.2" font-family="Helvetica,sans-Serif" font-size="11.00">id</text>
<polygon fill="none" stroke="black" points="408.5,-1088 408.5,-1110 699.5,-1110 699.5,-1088 408.5,-1088"/>
<image xlink:href="../../images/foreignKeys.png" width="11px" height="12px" preserveAspectRatio="xMinYMin meet" x="413.5" y="-1105"/>
<text text-anchor="start" x="438.5" y="-1096.2" font-family="Helvetica,sans-Serif" font-size="11.00">country_id</text>
<polygon fill="none" stroke="black" points="408.5,-1066 408.5,-1088 699.5,-1088 699.5,-1066 408.5,-1066"/>
<image xlink:href="../../images/foreignKeys.png" width="11px" height="12px" preserveAspectRatio="xMinYMin meet" x="413.5" y="-1083"/>
<text text-anchor="start" x="438.5" y="-1074.2" font-family="Helvetica,sans-Serif" font-size="11.00">address_format_id</text>
<polygon fill="none" stroke="black" points="408.5,-1048 408.5,-1066 699.5,-1066 699.5,-1048 408.5,-1048"/>
<text text-anchor="start" x="411.5" y="-1054.2" font-family="Helvetica,sans-Serif" font-size="11.00">...</text>
<polygon fill="#ffffff" stroke="transparent" points="408.5,-1030 408.5,-1048 551.5,-1048 551.5,-1030 408.5,-1030"/>
<polygon fill="none" stroke="black" points="408.5,-1030 408.5,-1048 551.5,-1048 551.5,-1030 408.5,-1030"/>
<text text-anchor="start" x="411.5" y="-1036.2" font-family="Helvetica,sans-Serif" font-size="11.00">&lt; 2</text>
<polygon fill="#ffffff" stroke="transparent" points="551.5,-1030 551.5,-1048 625.5,-1048 625.5,-1030 551.5,-1030"/>
<polygon fill="none" stroke="black" points="551.5,-1030 551.5,-1048 625.5,-1048 625.5,-1030 551.5,-1030"/>
<text text-anchor="start" x="615.5" y="-1036.2" font-family="Helvetica,sans-Serif" font-size="11.00"> &#160;</text>
<polygon fill="#ffffff" stroke="transparent" points="625.5,-1030 625.5,-1048 699.5,-1048 699.5,-1030 625.5,-1030"/>
<polygon fill="none" stroke="black" points="625.5,-1030 625.5,-1048 699.5,-1048 699.5,-1030 625.5,-1030"/>
<text text-anchor="start" x="689.5" y="-1036.2" font-family="Helvetica,sans-Serif" font-size="11.00"> &#160;</text>
</a>
</g>
</g>
<!-- ms_syst_data.syst_complex_format_values -->
<g id="node2" class="node">
<title>ms_syst_data.syst_complex_format_values</title>
<g id="a_node2"><a xlink:href="../../../ms_syst_data/tables/syst_complex_format_values.html" xlink:title="ms_syst_data.syst_complex_format_values" target="_top">
<polygon fill="#ffffff" stroke="transparent" points="20.5,-37 20.5,-95 346.5,-95 346.5,-37 20.5,-37"/>
<polygon fill="#f5f5f5" stroke="transparent" points="20.5,-73 20.5,-95 346.5,-95 346.5,-73 20.5,-73"/>
<polygon fill="none" stroke="black" points="20.5,-73 20.5,-95 346.5,-95 346.5,-73 20.5,-73"/>
<text text-anchor="start" x="25.5" y="-82.2" font-family="Helvetica,sans-Serif" font-weight="bold" font-size="11.00">ms_syst_data.syst_complex_format_values</text>
<text text-anchor="start" x="311.5" y="-81.2" font-family="Helvetica,sans-Serif" font-size="11.00">[table]</text>
<polygon fill="none" stroke="black" points="20.5,-55 20.5,-73 346.5,-73 346.5,-55 20.5,-55"/>
<text text-anchor="start" x="23.5" y="-61.2" font-family="Helvetica,sans-Serif" font-size="11.00">...</text>
<polygon fill="#ffffff" stroke="transparent" points="20.5,-37 20.5,-55 172.5,-55 172.5,-37 20.5,-37"/>
<polygon fill="none" stroke="black" points="20.5,-37 20.5,-55 172.5,-55 172.5,-37 20.5,-37"/>
<text text-anchor="start" x="23.5" y="-43.2" font-family="Helvetica,sans-Serif" font-size="11.00"> &#160;</text>
<polygon fill="#ffffff" stroke="transparent" points="172.5,-37 172.5,-55 254.5,-55 254.5,-37 172.5,-37"/>
<polygon fill="none" stroke="black" points="172.5,-37 172.5,-55 254.5,-55 254.5,-37 172.5,-37"/>
<text text-anchor="start" x="244.5" y="-43.2" font-family="Helvetica,sans-Serif" font-size="11.00"> &#160;</text>
<polygon fill="#ffffff" stroke="transparent" points="254.5,-37 254.5,-55 346.5,-55 346.5,-37 254.5,-37"/>
<polygon fill="none" stroke="black" points="254.5,-37 254.5,-55 346.5,-55 346.5,-37 254.5,-37"/>
<text text-anchor="start" x="327.5" y="-43.2" font-family="Helvetica,sans-Serif" font-size="11.00">3 &gt;</text>
</a>
</g>
</g>
<!-- mstr_country_address_format_assocs&#45;&gt;ms_syst_data.syst_complex_format_values -->
<g id="edge1" class="edge">
<title>mstr_country_address_format_assocs:w&#45;&gt;ms_syst_data.syst_complex_format_values:e</title>
<path fill="none" stroke="black" d="M392.95,-1075.34C346.56,-1062.88 402.86,-982.43 400,-917 392.11,-736.58 410.33,-280.32 367,-105 362.16,-85.41 367.68,-64 347.5,-64"/>
<polygon fill="black" stroke="black" points="399.55,-1076.1 407.09,-1080.58 403.53,-1076.55 407.5,-1077 407.5,-1077 407.5,-1077 403.53,-1076.55 407.91,-1073.42 399.55,-1076.1 399.55,-1076.1"/>
<ellipse fill="none" stroke="black" cx="396.37" cy="-1075.73" rx="3.2" ry="3.2"/>
</g>
<!-- mstr_countries -->
<g id="node3" class="node">
<title>mstr_countries</title>
<g id="a_node3"><a xlink:href="../../tables/mstr_countries.html" xlink:title="mstr_countries" target="_top">
<polygon fill="#ffffff" stroke="transparent" points="8,-116 8,-1238 359,-1238 359,-116 8,-116"/>
<polygon fill="#f5f5f5" stroke="transparent" points="10.5,-1214 10.5,-1236 357.5,-1236 357.5,-1214 10.5,-1214"/>
<polygon fill="none" stroke="black" points="10.5,-1214 10.5,-1236 357.5,-1236 357.5,-1214 10.5,-1214"/>
<text text-anchor="start" x="15.5" y="-1223.2" font-family="Helvetica,sans-Serif" font-weight="bold" font-size="11.00">mstr_countries</text>
<text text-anchor="start" x="322.5" y="-1222.2" font-family="Helvetica,sans-Serif" font-size="11.00">[table]</text>
<polygon fill="none" stroke="black" points="10.5,-1192 10.5,-1214 264.5,-1214 264.5,-1192 10.5,-1192"/>
<image xlink:href="../../images/primaryKeys.png" width="11px" height="12px" preserveAspectRatio="xMinYMin meet" x="15.5" y="-1209"/>
<text text-anchor="start" x="30.5" y="-1200.2" font-family="Helvetica,sans-Serif" font-size="11.00">id</text>
<polygon fill="none" stroke="black" points="264.5,-1192 264.5,-1214 357.5,-1214 357.5,-1192 264.5,-1192"/>
<text text-anchor="start" x="267.5" y="-1200.2" font-family="Helvetica,sans-Serif" font-size="11.00">uuid[2147483647]</text>
<polygon fill="#ffffff" stroke="transparent" points="10.5,-1170 10.5,-1192 264.5,-1192 264.5,-1170 10.5,-1170"/>
<polygon fill="none" stroke="black" points="10.5,-1170 10.5,-1192 264.5,-1192 264.5,-1170 10.5,-1170"/>
<text text-anchor="start" x="30.5" y="-1178.2" font-family="Helvetica,sans-Serif" font-size="11.00">internal_name</text>
<polygon fill="none" stroke="black" points="264.5,-1170 264.5,-1192 357.5,-1192 357.5,-1170 264.5,-1170"/>
<text text-anchor="start" x="267.5" y="-1178.2" font-family="Helvetica,sans-Serif" font-size="11.00">text[2147483647]</text>
<polygon fill="#ffffff" stroke="transparent" points="10.5,-1148 10.5,-1170 264.5,-1170 264.5,-1148 10.5,-1148"/>
<polygon fill="none" stroke="black" points="10.5,-1148 10.5,-1170 264.5,-1170 264.5,-1148 10.5,-1148"/>
<text text-anchor="start" x="30.5" y="-1156.2" font-family="Helvetica,sans-Serif" font-size="11.00">display_name</text>
<polygon fill="none" stroke="black" points="264.5,-1148 264.5,-1170 357.5,-1170 357.5,-1148 264.5,-1148"/>
<text text-anchor="start" x="267.5" y="-1156.2" font-family="Helvetica,sans-Serif" font-size="11.00">text[2147483647]</text>
<polygon fill="none" stroke="black" points="10.5,-1126 10.5,-1148 264.5,-1148 264.5,-1126 10.5,-1126"/>
<text text-anchor="start" x="30.5" y="-1134.2" font-family="Helvetica,sans-Serif" font-size="11.00">external_name</text>
<polygon fill="none" stroke="black" points="264.5,-1126 264.5,-1148 357.5,-1148 357.5,-1126 264.5,-1126"/>
<text text-anchor="start" x="267.5" y="-1134.2" font-family="Helvetica,sans-Serif" font-size="11.00">text[2147483647]</text>
<polygon fill="none" stroke="black" points="10.5,-1104 10.5,-1126 264.5,-1126 264.5,-1104 10.5,-1104"/>
<text text-anchor="start" x="30.5" y="-1112.2" font-family="Helvetica,sans-Serif" font-size="11.00">official_name_ar</text>
<polygon fill="none" stroke="black" points="264.5,-1104 264.5,-1126 357.5,-1126 357.5,-1104 264.5,-1104"/>
<text text-anchor="start" x="267.5" y="-1112.2" font-family="Helvetica,sans-Serif" font-size="11.00">text[2147483647]</text>
<polygon fill="none" stroke="black" points="10.5,-1082 10.5,-1104 264.5,-1104 264.5,-1082 10.5,-1082"/>
<text text-anchor="start" x="30.5" y="-1090.2" font-family="Helvetica,sans-Serif" font-size="11.00">official_name_cn</text>
<polygon fill="none" stroke="black" points="264.5,-1082 264.5,-1104 357.5,-1104 357.5,-1082 264.5,-1082"/>
<text text-anchor="start" x="267.5" y="-1090.2" font-family="Helvetica,sans-Serif" font-size="11.00">text[2147483647]</text>
<polygon fill="none" stroke="black" points="10.5,-1060 10.5,-1082 264.5,-1082 264.5,-1060 10.5,-1060"/>
<text text-anchor="start" x="30.5" y="-1068.2" font-family="Helvetica,sans-Serif" font-size="11.00">official_name_en</text>
<polygon fill="none" stroke="black" points="264.5,-1060 264.5,-1082 357.5,-1082 357.5,-1060 264.5,-1060"/>
<text text-anchor="start" x="267.5" y="-1068.2" font-family="Helvetica,sans-Serif" font-size="11.00">text[2147483647]</text>
<polygon fill="none" stroke="black" points="10.5,-1038 10.5,-1060 264.5,-1060 264.5,-1038 10.5,-1038"/>
<text text-anchor="start" x="30.5" y="-1046.2" font-family="Helvetica,sans-Serif" font-size="11.00">official_name_es</text>
<polygon fill="none" stroke="black" points="264.5,-1038 264.5,-1060 357.5,-1060 357.5,-1038 264.5,-1038"/>
<text text-anchor="start" x="267.5" y="-1046.2" font-family="Helvetica,sans-Serif" font-size="11.00">text[2147483647]</text>
<polygon fill="none" stroke="black" points="10.5,-1016 10.5,-1038 264.5,-1038 264.5,-1016 10.5,-1016"/>
<text text-anchor="start" x="30.5" y="-1024.2" font-family="Helvetica,sans-Serif" font-size="11.00">official_name_fr</text>
<polygon fill="none" stroke="black" points="264.5,-1016 264.5,-1038 357.5,-1038 357.5,-1016 264.5,-1016"/>
<text text-anchor="start" x="267.5" y="-1024.2" font-family="Helvetica,sans-Serif" font-size="11.00">text[2147483647]</text>
<polygon fill="none" stroke="black" points="10.5,-994 10.5,-1016 264.5,-1016 264.5,-994 10.5,-994"/>
<text text-anchor="start" x="30.5" y="-1002.2" font-family="Helvetica,sans-Serif" font-size="11.00">official_name_ru</text>
<polygon fill="none" stroke="black" points="264.5,-994 264.5,-1016 357.5,-1016 357.5,-994 264.5,-994"/>
<text text-anchor="start" x="267.5" y="-1002.2" font-family="Helvetica,sans-Serif" font-size="11.00">text[2147483647]</text>
<polygon fill="none" stroke="black" points="10.5,-972 10.5,-994 264.5,-994 264.5,-972 10.5,-972"/>
<text text-anchor="start" x="30.5" y="-980.2" font-family="Helvetica,sans-Serif" font-size="11.00">iso3166_1_alpha_2</text>
<polygon fill="none" stroke="black" points="264.5,-972 264.5,-994 357.5,-994 357.5,-972 264.5,-972"/>
<text text-anchor="start" x="267.5" y="-980.2" font-family="Helvetica,sans-Serif" font-size="11.00">text[2147483647]</text>
<polygon fill="none" stroke="black" points="10.5,-950 10.5,-972 264.5,-972 264.5,-950 10.5,-950"/>
<text text-anchor="start" x="30.5" y="-958.2" font-family="Helvetica,sans-Serif" font-size="11.00">iso3166_1_alpha_3</text>
<polygon fill="none" stroke="black" points="264.5,-950 264.5,-972 357.5,-972 357.5,-950 264.5,-950"/>
<text text-anchor="start" x="267.5" y="-958.2" font-family="Helvetica,sans-Serif" font-size="11.00">text[2147483647]</text>
<polygon fill="none" stroke="black" points="10.5,-928 10.5,-950 264.5,-950 264.5,-928 10.5,-928"/>
<text text-anchor="start" x="30.5" y="-936.2" font-family="Helvetica,sans-Serif" font-size="11.00">iso3166_1_numeric</text>
<polygon fill="none" stroke="black" points="264.5,-928 264.5,-950 357.5,-950 357.5,-928 264.5,-928"/>
<text text-anchor="start" x="267.5" y="-936.2" font-family="Helvetica,sans-Serif" font-size="11.00">text[2147483647]</text>
<polygon fill="none" stroke="black" points="10.5,-906 10.5,-928 264.5,-928 264.5,-906 10.5,-906"/>
<text text-anchor="start" x="30.5" y="-914.2" font-family="Helvetica,sans-Serif" font-size="11.00">iso4217_currency_alphabetic_code</text>
<polygon fill="none" stroke="black" points="264.5,-906 264.5,-928 357.5,-928 357.5,-906 264.5,-906"/>
<text text-anchor="start" x="267.5" y="-914.2" font-family="Helvetica,sans-Serif" font-size="11.00">text[2147483647]</text>
<polygon fill="none" stroke="black" points="10.5,-884 10.5,-906 264.5,-906 264.5,-884 10.5,-884"/>
<text text-anchor="start" x="30.5" y="-892.2" font-family="Helvetica,sans-Serif" font-size="11.00">iso4217_currency_country_name</text>
<polygon fill="none" stroke="black" points="264.5,-884 264.5,-906 357.5,-906 357.5,-884 264.5,-884"/>
<text text-anchor="start" x="267.5" y="-892.2" font-family="Helvetica,sans-Serif" font-size="11.00">text[2147483647]</text>
<polygon fill="none" stroke="black" points="10.5,-862 10.5,-884 264.5,-884 264.5,-862 10.5,-862"/>
<text text-anchor="start" x="30.5" y="-870.2" font-family="Helvetica,sans-Serif" font-size="11.00">iso4217_currency_minor_unit</text>
<polygon fill="none" stroke="black" points="264.5,-862 264.5,-884 357.5,-884 357.5,-862 264.5,-862"/>
<text text-anchor="start" x="267.5" y="-870.2" font-family="Helvetica,sans-Serif" font-size="11.00">text[2147483647]</text>
<polygon fill="none" stroke="black" points="10.5,-840 10.5,-862 264.5,-862 264.5,-840 10.5,-840"/>
<text text-anchor="start" x="30.5" y="-848.2" font-family="Helvetica,sans-Serif" font-size="11.00">iso4217_currency_name</text>
<polygon fill="none" stroke="black" points="264.5,-840 264.5,-862 357.5,-862 357.5,-840 264.5,-840"/>
<text text-anchor="start" x="267.5" y="-848.2" font-family="Helvetica,sans-Serif" font-size="11.00">text[2147483647]</text>
<polygon fill="none" stroke="black" points="10.5,-818 10.5,-840 264.5,-840 264.5,-818 10.5,-818"/>
<text text-anchor="start" x="30.5" y="-826.2" font-family="Helvetica,sans-Serif" font-size="11.00">iso4217_currency_numeric_code</text>
<polygon fill="none" stroke="black" points="264.5,-818 264.5,-840 357.5,-840 357.5,-818 264.5,-818"/>
<text text-anchor="start" x="267.5" y="-826.2" font-family="Helvetica,sans-Serif" font-size="11.00">text[2147483647]</text>
<polygon fill="none" stroke="black" points="10.5,-796 10.5,-818 264.5,-818 264.5,-796 10.5,-796"/>
<text text-anchor="start" x="30.5" y="-804.2" font-family="Helvetica,sans-Serif" font-size="11.00">cldr_display_name</text>
<polygon fill="none" stroke="black" points="264.5,-796 264.5,-818 357.5,-818 357.5,-796 264.5,-796"/>
<text text-anchor="start" x="267.5" y="-804.2" font-family="Helvetica,sans-Serif" font-size="11.00">text[2147483647]</text>
<polygon fill="none" stroke="black" points="10.5,-774 10.5,-796 264.5,-796 264.5,-774 10.5,-774"/>
<text text-anchor="start" x="30.5" y="-782.2" font-family="Helvetica,sans-Serif" font-size="11.00">capital</text>
<polygon fill="none" stroke="black" points="264.5,-774 264.5,-796 357.5,-796 357.5,-774 264.5,-774"/>
<text text-anchor="start" x="267.5" y="-782.2" font-family="Helvetica,sans-Serif" font-size="11.00">text[2147483647]</text>
<polygon fill="none" stroke="black" points="10.5,-752 10.5,-774 264.5,-774 264.5,-752 10.5,-752"/>
<text text-anchor="start" x="30.5" y="-760.2" font-family="Helvetica,sans-Serif" font-size="11.00">continent</text>
<polygon fill="none" stroke="black" points="264.5,-752 264.5,-774 357.5,-774 357.5,-752 264.5,-752"/>
<text text-anchor="start" x="267.5" y="-760.2" font-family="Helvetica,sans-Serif" font-size="11.00">text[2147483647]</text>
<polygon fill="none" stroke="black" points="10.5,-730 10.5,-752 264.5,-752 264.5,-730 10.5,-730"/>
<text text-anchor="start" x="30.5" y="-738.2" font-family="Helvetica,sans-Serif" font-size="11.00">ds</text>
<polygon fill="none" stroke="black" points="264.5,-730 264.5,-752 357.5,-752 357.5,-730 264.5,-730"/>
<text text-anchor="start" x="267.5" y="-738.2" font-family="Helvetica,sans-Serif" font-size="11.00">text[2147483647]</text>
<polygon fill="none" stroke="black" points="10.5,-708 10.5,-730 264.5,-730 264.5,-708 10.5,-708"/>
<text text-anchor="start" x="30.5" y="-716.2" font-family="Helvetica,sans-Serif" font-size="11.00">dial</text>
<polygon fill="none" stroke="black" points="264.5,-708 264.5,-730 357.5,-730 357.5,-708 264.5,-708"/>
<text text-anchor="start" x="267.5" y="-716.2" font-family="Helvetica,sans-Serif" font-size="11.00">text[2147483647]</text>
<polygon fill="none" stroke="black" points="10.5,-686 10.5,-708 264.5,-708 264.5,-686 10.5,-686"/>
<text text-anchor="start" x="30.5" y="-694.2" font-family="Helvetica,sans-Serif" font-size="11.00">edgar</text>
<polygon fill="none" stroke="black" points="264.5,-686 264.5,-708 357.5,-708 357.5,-686 264.5,-686"/>
<text text-anchor="start" x="267.5" y="-694.2" font-family="Helvetica,sans-Serif" font-size="11.00">text[2147483647]</text>
<polygon fill="none" stroke="black" points="10.5,-664 10.5,-686 264.5,-686 264.5,-664 10.5,-664"/>
<text text-anchor="start" x="30.5" y="-672.2" font-family="Helvetica,sans-Serif" font-size="11.00">fips</text>
<polygon fill="none" stroke="black" points="264.5,-664 264.5,-686 357.5,-686 357.5,-664 264.5,-664"/>
<text text-anchor="start" x="267.5" y="-672.2" font-family="Helvetica,sans-Serif" font-size="11.00">text[2147483647]</text>
<polygon fill="none" stroke="black" points="10.5,-642 10.5,-664 264.5,-664 264.5,-642 10.5,-642"/>
<text text-anchor="start" x="30.5" y="-650.2" font-family="Helvetica,sans-Serif" font-size="11.00">gaul</text>
<polygon fill="none" stroke="black" points="264.5,-642 264.5,-664 357.5,-664 357.5,-642 264.5,-642"/>
<text text-anchor="start" x="267.5" y="-650.2" font-family="Helvetica,sans-Serif" font-size="11.00">text[2147483647]</text>
<polygon fill="none" stroke="black" points="10.5,-620 10.5,-642 264.5,-642 264.5,-620 10.5,-620"/>
<text text-anchor="start" x="30.5" y="-628.2" font-family="Helvetica,sans-Serif" font-size="11.00">geoname_id</text>
<polygon fill="none" stroke="black" points="264.5,-620 264.5,-642 357.5,-642 357.5,-620 264.5,-620"/>
<text text-anchor="start" x="267.5" y="-628.2" font-family="Helvetica,sans-Serif" font-size="11.00">text[2147483647]</text>
<polygon fill="none" stroke="black" points="10.5,-598 10.5,-620 264.5,-620 264.5,-598 10.5,-598"/>
<text text-anchor="start" x="30.5" y="-606.2" font-family="Helvetica,sans-Serif" font-size="11.00">global_code</text>
<polygon fill="none" stroke="black" points="264.5,-598 264.5,-620 357.5,-620 357.5,-598 264.5,-598"/>
<text text-anchor="start" x="267.5" y="-606.2" font-family="Helvetica,sans-Serif" font-size="11.00">text[2147483647]</text>
<polygon fill="none" stroke="black" points="10.5,-576 10.5,-598 264.5,-598 264.5,-576 10.5,-576"/>
<text text-anchor="start" x="30.5" y="-584.2" font-family="Helvetica,sans-Serif" font-size="11.00">global_name</text>
<polygon fill="none" stroke="black" points="264.5,-576 264.5,-598 357.5,-598 357.5,-576 264.5,-576"/>
<text text-anchor="start" x="267.5" y="-584.2" font-family="Helvetica,sans-Serif" font-size="11.00">text[2147483647]</text>
<polygon fill="none" stroke="black" points="10.5,-554 10.5,-576 264.5,-576 264.5,-554 10.5,-554"/>
<text text-anchor="start" x="30.5" y="-562.2" font-family="Helvetica,sans-Serif" font-size="11.00">ioc</text>
<polygon fill="none" stroke="black" points="264.5,-554 264.5,-576 357.5,-576 357.5,-554 264.5,-554"/>
<text text-anchor="start" x="267.5" y="-562.2" font-family="Helvetica,sans-Serif" font-size="11.00">text[2147483647]</text>
<polygon fill="none" stroke="black" points="10.5,-532 10.5,-554 264.5,-554 264.5,-532 10.5,-532"/>
<text text-anchor="start" x="30.5" y="-540.2" font-family="Helvetica,sans-Serif" font-size="11.00">itu</text>
<polygon fill="none" stroke="black" points="264.5,-532 264.5,-554 357.5,-554 357.5,-532 264.5,-532"/>
<text text-anchor="start" x="267.5" y="-540.2" font-family="Helvetica,sans-Serif" font-size="11.00">text[2147483647]</text>
<polygon fill="none" stroke="black" points="10.5,-510 10.5,-532 264.5,-532 264.5,-510 10.5,-510"/>
<text text-anchor="start" x="30.5" y="-518.2" font-family="Helvetica,sans-Serif" font-size="11.00">intermediate_region_code</text>
<polygon fill="none" stroke="black" points="264.5,-510 264.5,-532 357.5,-532 357.5,-510 264.5,-510"/>
<text text-anchor="start" x="267.5" y="-518.2" font-family="Helvetica,sans-Serif" font-size="11.00">text[2147483647]</text>
<polygon fill="none" stroke="black" points="10.5,-488 10.5,-510 264.5,-510 264.5,-488 10.5,-488"/>
<text text-anchor="start" x="30.5" y="-496.2" font-family="Helvetica,sans-Serif" font-size="11.00">intermediate_region_name</text>
<polygon fill="none" stroke="black" points="264.5,-488 264.5,-510 357.5,-510 357.5,-488 264.5,-488"/>
<text text-anchor="start" x="267.5" y="-496.2" font-family="Helvetica,sans-Serif" font-size="11.00">text[2147483647]</text>
<polygon fill="none" stroke="black" points="10.5,-466 10.5,-488 264.5,-488 264.5,-466 10.5,-466"/>
<text text-anchor="start" x="30.5" y="-474.2" font-family="Helvetica,sans-Serif" font-size="11.00">languages</text>
<polygon fill="none" stroke="black" points="264.5,-466 264.5,-488 357.5,-488 357.5,-466 264.5,-466"/>
<text text-anchor="start" x="267.5" y="-474.2" font-family="Helvetica,sans-Serif" font-size="11.00">text[2147483647]</text>
<polygon fill="none" stroke="black" points="10.5,-444 10.5,-466 264.5,-466 264.5,-444 10.5,-444"/>
<text text-anchor="start" x="30.5" y="-452.2" font-family="Helvetica,sans-Serif" font-size="11.00">marc</text>
<polygon fill="none" stroke="black" points="264.5,-444 264.5,-466 357.5,-466 357.5,-444 264.5,-444"/>
<text text-anchor="start" x="267.5" y="-452.2" font-family="Helvetica,sans-Serif" font-size="11.00">text[2147483647]</text>
<polygon fill="none" stroke="black" points="10.5,-422 10.5,-444 264.5,-444 264.5,-422 10.5,-422"/>
<text text-anchor="start" x="30.5" y="-430.2" font-family="Helvetica,sans-Serif" font-size="11.00">region_code</text>
<polygon fill="none" stroke="black" points="264.5,-422 264.5,-444 357.5,-444 357.5,-422 264.5,-422"/>
<text text-anchor="start" x="267.5" y="-430.2" font-family="Helvetica,sans-Serif" font-size="11.00">text[2147483647]</text>
<polygon fill="none" stroke="black" points="10.5,-400 10.5,-422 264.5,-422 264.5,-400 10.5,-400"/>
<text text-anchor="start" x="30.5" y="-408.2" font-family="Helvetica,sans-Serif" font-size="11.00">region_name</text>
<polygon fill="none" stroke="black" points="264.5,-400 264.5,-422 357.5,-422 357.5,-400 264.5,-400"/>
<text text-anchor="start" x="267.5" y="-408.2" font-family="Helvetica,sans-Serif" font-size="11.00">text[2147483647]</text>
<polygon fill="none" stroke="black" points="10.5,-378 10.5,-400 264.5,-400 264.5,-378 10.5,-378"/>
<text text-anchor="start" x="30.5" y="-386.2" font-family="Helvetica,sans-Serif" font-size="11.00">sub_region_code</text>
<polygon fill="none" stroke="black" points="264.5,-378 264.5,-400 357.5,-400 357.5,-378 264.5,-378"/>
<text text-anchor="start" x="267.5" y="-386.2" font-family="Helvetica,sans-Serif" font-size="11.00">text[2147483647]</text>
<polygon fill="none" stroke="black" points="10.5,-356 10.5,-378 264.5,-378 264.5,-356 10.5,-356"/>
<text text-anchor="start" x="30.5" y="-364.2" font-family="Helvetica,sans-Serif" font-size="11.00">sub_region_name</text>
<polygon fill="none" stroke="black" points="264.5,-356 264.5,-378 357.5,-378 357.5,-356 264.5,-356"/>
<text text-anchor="start" x="267.5" y="-364.2" font-family="Helvetica,sans-Serif" font-size="11.00">text[2147483647]</text>
<polygon fill="none" stroke="black" points="10.5,-334 10.5,-356 264.5,-356 264.5,-334 10.5,-334"/>
<text text-anchor="start" x="30.5" y="-342.2" font-family="Helvetica,sans-Serif" font-size="11.00">tld</text>
<polygon fill="none" stroke="black" points="264.5,-334 264.5,-356 357.5,-356 357.5,-334 264.5,-334"/>
<text text-anchor="start" x="267.5" y="-342.2" font-family="Helvetica,sans-Serif" font-size="11.00">text[2147483647]</text>
<polygon fill="none" stroke="black" points="10.5,-312 10.5,-334 264.5,-334 264.5,-312 10.5,-312"/>
<text text-anchor="start" x="30.5" y="-320.2" font-family="Helvetica,sans-Serif" font-size="11.00">wmo</text>
<polygon fill="none" stroke="black" points="264.5,-312 264.5,-334 357.5,-334 357.5,-312 264.5,-312"/>
<text text-anchor="start" x="267.5" y="-320.2" font-family="Helvetica,sans-Serif" font-size="11.00">text[2147483647]</text>
<polygon fill="none" stroke="black" points="10.5,-290 10.5,-312 264.5,-312 264.5,-290 10.5,-290"/>
<text text-anchor="start" x="30.5" y="-298.2" font-family="Helvetica,sans-Serif" font-size="11.00">is_independent</text>
<polygon fill="none" stroke="black" points="264.5,-290 264.5,-312 357.5,-312 357.5,-290 264.5,-290"/>
<text text-anchor="start" x="267.5" y="-298.2" font-family="Helvetica,sans-Serif" font-size="11.00">text[2147483647]</text>
<polygon fill="none" stroke="black" points="10.5,-268 10.5,-290 264.5,-290 264.5,-268 10.5,-268"/>
<text text-anchor="start" x="30.5" y="-276.2" font-family="Helvetica,sans-Serif" font-size="11.00">diag_timestamp_created</text>
<polygon fill="none" stroke="black" points="264.5,-268 264.5,-290 357.5,-290 357.5,-268 264.5,-268"/>
<text text-anchor="start" x="267.5" y="-276.2" font-family="Helvetica,sans-Serif" font-size="11.00">timestamptz[35,6]</text>
<polygon fill="none" stroke="black" points="10.5,-246 10.5,-268 264.5,-268 264.5,-246 10.5,-246"/>
<text text-anchor="start" x="30.5" y="-254.2" font-family="Helvetica,sans-Serif" font-size="11.00">diag_role_created</text>
<polygon fill="none" stroke="black" points="264.5,-246 264.5,-268 357.5,-268 357.5,-246 264.5,-246"/>
<text text-anchor="start" x="267.5" y="-254.2" font-family="Helvetica,sans-Serif" font-size="11.00">text[2147483647]</text>
<polygon fill="none" stroke="black" points="10.5,-224 10.5,-246 264.5,-246 264.5,-224 10.5,-224"/>
<text text-anchor="start" x="30.5" y="-232.2" font-family="Helvetica,sans-Serif" font-size="11.00">diag_timestamp_modified</text>
<polygon fill="none" stroke="black" points="264.5,-224 264.5,-246 357.5,-246 357.5,-224 264.5,-224"/>
<text text-anchor="start" x="267.5" y="-232.2" font-family="Helvetica,sans-Serif" font-size="11.00">timestamptz[35,6]</text>
<polygon fill="none" stroke="black" points="10.5,-202 10.5,-224 264.5,-224 264.5,-202 10.5,-202"/>
<text text-anchor="start" x="30.5" y="-210.2" font-family="Helvetica,sans-Serif" font-size="11.00">diag_wallclock_modified</text>
<polygon fill="none" stroke="black" points="264.5,-202 264.5,-224 357.5,-224 357.5,-202 264.5,-202"/>
<text text-anchor="start" x="267.5" y="-210.2" font-family="Helvetica,sans-Serif" font-size="11.00">timestamptz[35,6]</text>
<polygon fill="none" stroke="black" points="10.5,-180 10.5,-202 264.5,-202 264.5,-180 10.5,-180"/>
<text text-anchor="start" x="30.5" y="-188.2" font-family="Helvetica,sans-Serif" font-size="11.00">diag_role_modified</text>
<polygon fill="none" stroke="black" points="264.5,-180 264.5,-202 357.5,-202 357.5,-180 264.5,-180"/>
<text text-anchor="start" x="267.5" y="-188.2" font-family="Helvetica,sans-Serif" font-size="11.00">text[2147483647]</text>
<polygon fill="none" stroke="black" points="10.5,-158 10.5,-180 264.5,-180 264.5,-158 10.5,-158"/>
<text text-anchor="start" x="30.5" y="-166.2" font-family="Helvetica,sans-Serif" font-size="11.00">diag_row_version</text>
<polygon fill="none" stroke="black" points="264.5,-158 264.5,-180 357.5,-180 357.5,-158 264.5,-158"/>
<text text-anchor="start" x="267.5" y="-166.2" font-family="Helvetica,sans-Serif" font-size="11.00">int8[19]</text>
<polygon fill="none" stroke="black" points="10.5,-136 10.5,-158 264.5,-158 264.5,-136 10.5,-136"/>
<text text-anchor="start" x="30.5" y="-144.2" font-family="Helvetica,sans-Serif" font-size="11.00">diag_update_count</text>
<polygon fill="none" stroke="black" points="264.5,-136 264.5,-158 357.5,-158 357.5,-136 264.5,-136"/>
<text text-anchor="start" x="267.5" y="-144.2" font-family="Helvetica,sans-Serif" font-size="11.00">int8[19]</text>
<polygon fill="#ffffff" stroke="transparent" points="10.5,-118 10.5,-136 141.5,-136 141.5,-118 10.5,-118"/>
<polygon fill="none" stroke="black" points="10.5,-118 10.5,-136 141.5,-136 141.5,-118 10.5,-118"/>
<text text-anchor="start" x="13.5" y="-124.2" font-family="Helvetica,sans-Serif" font-size="11.00">&lt; 0</text>
<polygon fill="#ffffff" stroke="transparent" points="141.5,-118 141.5,-136 264.5,-136 264.5,-118 141.5,-118"/>
<polygon fill="none" stroke="black" points="141.5,-118 141.5,-136 264.5,-136 264.5,-118 141.5,-118"/>
<text text-anchor="start" x="254.5" y="-124.2" font-family="Helvetica,sans-Serif" font-size="11.00"> &#160;</text>
<polygon fill="#ffffff" stroke="transparent" points="264.5,-118 264.5,-136 357.5,-136 357.5,-118 264.5,-118"/>
<polygon fill="none" stroke="black" points="264.5,-118 264.5,-136 357.5,-136 357.5,-118 264.5,-118"/>
<text text-anchor="start" x="338.5" y="-124.2" font-family="Helvetica,sans-Serif" font-size="11.00">3 &gt;</text>
<polygon fill="none" stroke="black" stroke-width="2" points="9,-117 9,-1237 358,-1237 358,-117 9,-117"/>
</a>
</g>
</g>
<!-- mstr_country_address_format_assocs&#45;&gt;mstr_countries -->
<g id="edge2" class="edge">
<title>mstr_country_address_format_assocs:w&#45;&gt;mstr_countries:e</title>
<path fill="none" stroke="black" d="M393.5,-1102.95C367.44,-1121.95 403.61,-1203 358.5,-1203"/>
<polygon fill="black" stroke="black" points="399.8,-1101.17 408.48,-1102.46 403.65,-1100.09 407.5,-1099 407.5,-1099 407.5,-1099 403.65,-1100.09 406.52,-1095.54 399.8,-1101.17 399.8,-1101.17"/>
<ellipse fill="none" stroke="black" cx="396.72" cy="-1102.04" rx="3.2" ry="3.2"/>
</g>
<!-- mstr_country_name_format_assocs -->
<g id="node4" class="node">
<title>mstr_country_name_format_assocs</title>
<g id="a_node4"><a xlink:href="../../tables/mstr_country_name_format_assocs.html" xlink:title="mstr_country_name_format_assocs" target="_top">
<polygon fill="#ffffff" stroke="transparent" points="416,-782 416,-906 691,-906 691,-782 416,-782"/>
<polygon fill="#f5f5f5" stroke="transparent" points="416.5,-884 416.5,-906 691.5,-906 691.5,-884 416.5,-884"/>
<polygon fill="none" stroke="black" points="416.5,-884 416.5,-906 691.5,-906 691.5,-884 416.5,-884"/>
<text text-anchor="start" x="421.5" y="-893.2" font-family="Helvetica,sans-Serif" font-weight="bold" font-size="11.00">mstr_country_name_format_assocs</text>
<text text-anchor="start" x="656.5" y="-892.2" font-family="Helvetica,sans-Serif" font-size="11.00">[table]</text>
<polygon fill="none" stroke="black" points="416.5,-862 416.5,-884 691.5,-884 691.5,-862 416.5,-862"/>
<image xlink:href="../../images/primaryKeys.png" width="11px" height="12px" preserveAspectRatio="xMinYMin meet" x="421.5" y="-879"/>
<text text-anchor="start" x="446.5" y="-870.2" font-family="Helvetica,sans-Serif" font-size="11.00">id</text>
<polygon fill="none" stroke="black" points="416.5,-840 416.5,-862 691.5,-862 691.5,-840 416.5,-840"/>
<image xlink:href="../../images/foreignKeys.png" width="11px" height="12px" preserveAspectRatio="xMinYMin meet" x="421.5" y="-857"/>
<text text-anchor="start" x="446.5" y="-848.2" font-family="Helvetica,sans-Serif" font-size="11.00">country_id</text>
<polygon fill="none" stroke="black" points="416.5,-818 416.5,-840 691.5,-840 691.5,-818 416.5,-818"/>
<image xlink:href="../../images/foreignKeys.png" width="11px" height="12px" preserveAspectRatio="xMinYMin meet" x="421.5" y="-835"/>
<text text-anchor="start" x="446.5" y="-826.2" font-family="Helvetica,sans-Serif" font-size="11.00">name_format_id</text>
<polygon fill="none" stroke="black" points="416.5,-800 416.5,-818 691.5,-818 691.5,-800 416.5,-800"/>
<text text-anchor="start" x="419.5" y="-806.2" font-family="Helvetica,sans-Serif" font-size="11.00">...</text>
<polygon fill="#ffffff" stroke="transparent" points="416.5,-782 416.5,-800 551.5,-800 551.5,-782 416.5,-782"/>
<polygon fill="none" stroke="black" points="416.5,-782 416.5,-800 551.5,-800 551.5,-782 416.5,-782"/>
<text text-anchor="start" x="419.5" y="-788.2" font-family="Helvetica,sans-Serif" font-size="11.00">&lt; 2</text>
<polygon fill="#ffffff" stroke="transparent" points="551.5,-782 551.5,-800 621.5,-800 621.5,-782 551.5,-782"/>
<polygon fill="none" stroke="black" points="551.5,-782 551.5,-800 621.5,-800 621.5,-782 551.5,-782"/>
<text text-anchor="start" x="611.5" y="-788.2" font-family="Helvetica,sans-Serif" font-size="11.00"> &#160;</text>
<polygon fill="#ffffff" stroke="transparent" points="621.5,-782 621.5,-800 691.5,-800 691.5,-782 621.5,-782"/>
<polygon fill="none" stroke="black" points="621.5,-782 621.5,-800 691.5,-800 691.5,-782 621.5,-782"/>
<text text-anchor="start" x="681.5" y="-788.2" font-family="Helvetica,sans-Serif" font-size="11.00"> &#160;</text>
</a>
</g>
</g>
<!-- mstr_country_name_format_assocs&#45;&gt;ms_syst_data.syst_complex_format_values -->
<g id="edge4" class="edge">
<title>mstr_country_name_format_assocs:w&#45;&gt;ms_syst_data.syst_complex_format_values:e</title>
<path fill="none" stroke="black" d="M402.74,-821.92C341.19,-744.79 428,-64 347.5,-64"/>
<polygon fill="black" stroke="black" points="408.51,-825.12 413.75,-832.15 412,-827.06 415.5,-829 415.5,-829 415.5,-829 412,-827.06 417.25,-825.85 408.51,-825.12 408.51,-825.12"/>
<ellipse fill="none" stroke="black" cx="405.71" cy="-823.56" rx="3.2" ry="3.2"/>
</g>
<!-- mstr_country_name_format_assocs&#45;&gt;mstr_countries -->
<g id="edge3" class="edge">
<title>mstr_country_name_format_assocs:w&#45;&gt;mstr_countries:e</title>
<path fill="none" stroke="black" d="M401.67,-855.71C349.29,-897.48 432.32,-1203 358.5,-1203"/>
<polygon fill="black" stroke="black" points="407.93,-853.58 416.66,-854.41 411.71,-852.29 415.5,-851 415.5,-851 415.5,-851 411.71,-852.29 414.34,-847.59 407.93,-853.58 407.93,-853.58"/>
<ellipse fill="none" stroke="black" cx="404.9" cy="-854.61" rx="3.2" ry="3.2"/>
</g>
<!-- mstr_country_phone_format_assocs -->
<g id="node5" class="node">
<title>mstr_country_phone_format_assocs</title>
<g id="a_node5"><a xlink:href="../../tables/mstr_country_phone_format_assocs.html" xlink:title="mstr_country_phone_format_assocs" target="_top">
<polygon fill="#ffffff" stroke="transparent" points="414,-430 414,-554 693,-554 693,-430 414,-430"/>
<polygon fill="#f5f5f5" stroke="transparent" points="414.5,-532 414.5,-554 693.5,-554 693.5,-532 414.5,-532"/>
<polygon fill="none" stroke="black" points="414.5,-532 414.5,-554 693.5,-554 693.5,-532 414.5,-532"/>
<text text-anchor="start" x="419.5" y="-541.2" font-family="Helvetica,sans-Serif" font-weight="bold" font-size="11.00">mstr_country_phone_format_assocs</text>
<text text-anchor="start" x="658.5" y="-540.2" font-family="Helvetica,sans-Serif" font-size="11.00">[table]</text>
<polygon fill="none" stroke="black" points="414.5,-510 414.5,-532 693.5,-532 693.5,-510 414.5,-510"/>
<image xlink:href="../../images/primaryKeys.png" width="11px" height="12px" preserveAspectRatio="xMinYMin meet" x="419.5" y="-527"/>
<text text-anchor="start" x="444.5" y="-518.2" font-family="Helvetica,sans-Serif" font-size="11.00">id</text>
<polygon fill="none" stroke="black" points="414.5,-488 414.5,-510 693.5,-510 693.5,-488 414.5,-488"/>
<image xlink:href="../../images/foreignKeys.png" width="11px" height="12px" preserveAspectRatio="xMinYMin meet" x="419.5" y="-505"/>
<text text-anchor="start" x="444.5" y="-496.2" font-family="Helvetica,sans-Serif" font-size="11.00">country_id</text>
<polygon fill="none" stroke="black" points="414.5,-466 414.5,-488 693.5,-488 693.5,-466 414.5,-466"/>
<image xlink:href="../../images/foreignKeys.png" width="11px" height="12px" preserveAspectRatio="xMinYMin meet" x="419.5" y="-483"/>
<text text-anchor="start" x="444.5" y="-474.2" font-family="Helvetica,sans-Serif" font-size="11.00">phone_format_id</text>
<polygon fill="none" stroke="black" points="414.5,-448 414.5,-466 693.5,-466 693.5,-448 414.5,-448"/>
<text text-anchor="start" x="417.5" y="-454.2" font-family="Helvetica,sans-Serif" font-size="11.00">...</text>
<polygon fill="#ffffff" stroke="transparent" points="414.5,-430 414.5,-448 551.5,-448 551.5,-430 414.5,-430"/>
<polygon fill="none" stroke="black" points="414.5,-430 414.5,-448 551.5,-448 551.5,-430 414.5,-430"/>
<text text-anchor="start" x="417.5" y="-436.2" font-family="Helvetica,sans-Serif" font-size="11.00">&lt; 2</text>
<polygon fill="#ffffff" stroke="transparent" points="551.5,-430 551.5,-448 622.5,-448 622.5,-430 551.5,-430"/>
<polygon fill="none" stroke="black" points="551.5,-430 551.5,-448 622.5,-448 622.5,-430 551.5,-430"/>
<text text-anchor="start" x="612.5" y="-436.2" font-family="Helvetica,sans-Serif" font-size="11.00"> &#160;</text>
<polygon fill="#ffffff" stroke="transparent" points="622.5,-430 622.5,-448 693.5,-448 693.5,-430 622.5,-430"/>
<polygon fill="none" stroke="black" points="622.5,-430 622.5,-448 693.5,-448 693.5,-430 622.5,-430"/>
<text text-anchor="start" x="683.5" y="-436.2" font-family="Helvetica,sans-Serif" font-size="11.00"> &#160;</text>
</a>
</g>
</g>
<!-- mstr_country_phone_format_assocs&#45;&gt;ms_syst_data.syst_complex_format_values -->
<g id="edge6" class="edge">
<title>mstr_country_phone_format_assocs:w&#45;&gt;ms_syst_data.syst_complex_format_values:e</title>
<path fill="none" stroke="black" d="M399.27,-472.91C333.88,-430.02 435,-64 347.5,-64"/>
<polygon fill="black" stroke="black" points="405.81,-474.79 412.51,-480.46 409.66,-475.9 413.5,-477 413.5,-477 413.5,-477 409.66,-475.9 414.49,-473.54 405.81,-474.79 405.81,-474.79"/>
<ellipse fill="none" stroke="black" cx="402.74" cy="-473.91" rx="3.2" ry="3.2"/>
</g>
<!-- mstr_country_phone_format_assocs&#45;&gt;mstr_countries -->
<g id="edge5" class="edge">
<title>mstr_country_phone_format_assocs:w&#45;&gt;mstr_countries:e</title>
<path fill="none" stroke="black" d="M401.15,-506.43C346.72,-581.67 432.21,-1203 358.5,-1203"/>
<polygon fill="black" stroke="black" points="406.65,-503.12 415.36,-502.08 410.07,-501.06 413.5,-499 413.5,-499 413.5,-499 410.07,-501.06 411.64,-495.92 406.65,-503.12 406.65,-503.12"/>
<ellipse fill="none" stroke="black" cx="403.9" cy="-504.77" rx="3.2" ry="3.2"/>
</g>
</g>
</svg>
