<?xml version="1.0" encoding="UTF-8" standalone="no"?>
<!DOCTYPE svg PUBLIC "-//W3C//DTD SVG 1.1//EN"
 "http://www.w3.org/Graphics/SVG/1.1/DTD/svg11.dtd">
<!-- Generated by graphviz version 2.43.0 (0)
 -->
<!-- Title: oneDegreeRelationshipsDiagram Pages: 1 -->
<svg width="715pt" height="1336pt"
 viewBox="0.00 0.00 715.00 1336.00" xmlns="http://www.w3.org/2000/svg" xmlns:xlink="http://www.w3.org/1999/xlink">
<g id="graph0" class="graph" transform="scale(1 1) rotate(0) translate(4 1332)">
<title>oneDegreeRelationshipsDiagram</title>
<polygon fill="#ffffff" stroke="transparent" points="-4,4 -4,-1332 711,-1332 711,4 -4,4"/>
<text text-anchor="middle" x="71.5" y="-7.2" font-family="Helvetica,sans-Serif" font-size="11.00">Generated by SchemaSpy</text>
<!-- mstr_country_address_format_assocs -->
<g id="node1" class="node">
<title>mstr_country_address_format_assocs</title>
<g id="a_node1"><a xlink:href="../../tables/mstr_country_address_format_assocs.html" xlink:title="mstr_country_address_format_assocs" target="_top">
<polygon fill="#ffffff" stroke="transparent" points="408,-1200 408,-1324 699,-1324 699,-1200 408,-1200"/>
<polygon fill="#f5f5f5" stroke="transparent" points="408.5,-1302 408.5,-1324 699.5,-1324 699.5,-1302 408.5,-1302"/>
<polygon fill="none" stroke="black" points="408.5,-1302 408.5,-1324 699.5,-1324 699.5,-1302 408.5,-1302"/>
<text text-anchor="start" x="413.5" y="-1311.2" font-family="Helvetica,sans-Serif" font-weight="bold" font-size="11.00">mstr_country_address_format_assocs</text>
<text text-anchor="start" x="664.5" y="-1310.2" font-family="Helvetica,sans-Serif" font-size="11.00">[table]</text>
<polygon fill="none" stroke="black" points="408.5,-1280 408.5,-1302 699.5,-1302 699.5,-1280 408.5,-1280"/>
<image xlink:href="../../images/primaryKeys.png" width="11px" height="12px" preserveAspectRatio="xMinYMin meet" x="413.5" y="-1297"/>
<text text-anchor="start" x="438.5" y="-1288.2" font-family="Helvetica,sans-Serif" font-size="11.00">id</text>
<polygon fill="none" stroke="black" points="408.5,-1258 408.5,-1280 699.5,-1280 699.5,-1258 408.5,-1258"/>
<image xlink:href="../../images/foreignKeys.png" width="11px" height="12px" preserveAspectRatio="xMinYMin meet" x="413.5" y="-1275"/>
<text text-anchor="start" x="438.5" y="-1266.2" font-family="Helvetica,sans-Serif" font-size="11.00">country_id</text>
<polygon fill="none" stroke="black" points="408.5,-1236 408.5,-1258 699.5,-1258 699.5,-1236 408.5,-1236"/>
<image xlink:href="../../images/foreignKeys.png" width="11px" height="12px" preserveAspectRatio="xMinYMin meet" x="413.5" y="-1253"/>
<text text-anchor="start" x="438.5" y="-1244.2" font-family="Helvetica,sans-Serif" font-size="11.00">address_format_id</text>
<polygon fill="none" stroke="black" points="408.5,-1218 408.5,-1236 699.5,-1236 699.5,-1218 408.5,-1218"/>
<text text-anchor="start" x="411.5" y="-1224.2" font-family="Helvetica,sans-Serif" font-size="11.00">...</text>
<polygon fill="#ffffff" stroke="transparent" points="408.5,-1200 408.5,-1218 551.5,-1218 551.5,-1200 408.5,-1200"/>
<polygon fill="none" stroke="black" points="408.5,-1200 408.5,-1218 551.5,-1218 551.5,-1200 408.5,-1200"/>
<text text-anchor="start" x="411.5" y="-1206.2" font-family="Helvetica,sans-Serif" font-size="11.00">&lt; 2</text>
<polygon fill="#ffffff" stroke="transparent" points="551.5,-1200 551.5,-1218 625.5,-1218 625.5,-1200 551.5,-1200"/>
<polygon fill="none" stroke="black" points="551.5,-1200 551.5,-1218 625.5,-1218 625.5,-1200 551.5,-1200"/>
<text text-anchor="start" x="615.5" y="-1206.2" font-family="Helvetica,sans-Serif" font-size="11.00"> &#160;</text>
<polygon fill="#ffffff" stroke="transparent" points="625.5,-1200 625.5,-1218 699.5,-1218 699.5,-1200 625.5,-1200"/>
<polygon fill="none" stroke="black" points="625.5,-1200 625.5,-1218 699.5,-1218 699.5,-1200 625.5,-1200"/>
<text text-anchor="start" x="689.5" y="-1206.2" font-family="Helvetica,sans-Serif" font-size="11.00"> &#160;</text>
</a>
</g>
</g>
<!-- mstr_countries -->
<g id="node2" class="node">
<title>mstr_countries</title>
<g id="a_node2"><a xlink:href="../../tables/mstr_countries.html" xlink:title="mstr_countries" target="_top">
<polygon fill="#ffffff" stroke="transparent" points="8,-37 8,-1159 359,-1159 359,-37 8,-37"/>
<polygon fill="#f5f5f5" stroke="transparent" points="10.5,-1135 10.5,-1157 357.5,-1157 357.5,-1135 10.5,-1135"/>
<polygon fill="none" stroke="black" points="10.5,-1135 10.5,-1157 357.5,-1157 357.5,-1135 10.5,-1135"/>
<text text-anchor="start" x="15.5" y="-1144.2" font-family="Helvetica,sans-Serif" font-weight="bold" font-size="11.00">mstr_countries</text>
<text text-anchor="start" x="322.5" y="-1143.2" font-family="Helvetica,sans-Serif" font-size="11.00">[table]</text>
<polygon fill="none" stroke="black" points="10.5,-1113 10.5,-1135 264.5,-1135 264.5,-1113 10.5,-1113"/>
<image xlink:href="../../images/primaryKeys.png" width="11px" height="12px" preserveAspectRatio="xMinYMin meet" x="15.5" y="-1130"/>
<text text-anchor="start" x="30.5" y="-1121.2" font-family="Helvetica,sans-Serif" font-size="11.00">id</text>
<polygon fill="none" stroke="black" points="264.5,-1113 264.5,-1135 357.5,-1135 357.5,-1113 264.5,-1113"/>
<text text-anchor="start" x="267.5" y="-1121.2" font-family="Helvetica,sans-Serif" font-size="11.00">uuid[2147483647]</text>
<polygon fill="#ffffff" stroke="transparent" points="10.5,-1091 10.5,-1113 264.5,-1113 264.5,-1091 10.5,-1091"/>
<polygon fill="none" stroke="black" points="10.5,-1091 10.5,-1113 264.5,-1113 264.5,-1091 10.5,-1091"/>
<text text-anchor="start" x="30.5" y="-1099.2" font-family="Helvetica,sans-Serif" font-size="11.00">internal_name</text>
<polygon fill="none" stroke="black" points="264.5,-1091 264.5,-1113 357.5,-1113 357.5,-1091 264.5,-1091"/>
<text text-anchor="start" x="267.5" y="-1099.2" font-family="Helvetica,sans-Serif" font-size="11.00">text[2147483647]</text>
<polygon fill="#ffffff" stroke="transparent" points="10.5,-1069 10.5,-1091 264.5,-1091 264.5,-1069 10.5,-1069"/>
<polygon fill="none" stroke="black" points="10.5,-1069 10.5,-1091 264.5,-1091 264.5,-1069 10.5,-1069"/>
<text text-anchor="start" x="30.5" y="-1077.2" font-family="Helvetica,sans-Serif" font-size="11.00">display_name</text>
<polygon fill="none" stroke="black" points="264.5,-1069 264.5,-1091 357.5,-1091 357.5,-1069 264.5,-1069"/>
<text text-anchor="start" x="267.5" y="-1077.2" font-family="Helvetica,sans-Serif" font-size="11.00">text[2147483647]</text>
<polygon fill="none" stroke="black" points="10.5,-1047 10.5,-1069 264.5,-1069 264.5,-1047 10.5,-1047"/>
<text text-anchor="start" x="30.5" y="-1055.2" font-family="Helvetica,sans-Serif" font-size="11.00">external_name</text>
<polygon fill="none" stroke="black" points="264.5,-1047 264.5,-1069 357.5,-1069 357.5,-1047 264.5,-1047"/>
<text text-anchor="start" x="267.5" y="-1055.2" font-family="Helvetica,sans-Serif" font-size="11.00">text[2147483647]</text>
<polygon fill="none" stroke="black" points="10.5,-1025 10.5,-1047 264.5,-1047 264.5,-1025 10.5,-1025"/>
<text text-anchor="start" x="30.5" y="-1033.2" font-family="Helvetica,sans-Serif" font-size="11.00">official_name_ar</text>
<polygon fill="none" stroke="black" points="264.5,-1025 264.5,-1047 357.5,-1047 357.5,-1025 264.5,-1025"/>
<text text-anchor="start" x="267.5" y="-1033.2" font-family="Helvetica,sans-Serif" font-size="11.00">text[2147483647]</text>
<polygon fill="none" stroke="black" points="10.5,-1003 10.5,-1025 264.5,-1025 264.5,-1003 10.5,-1003"/>
<text text-anchor="start" x="30.5" y="-1011.2" font-family="Helvetica,sans-Serif" font-size="11.00">official_name_cn</text>
<polygon fill="none" stroke="black" points="264.5,-1003 264.5,-1025 357.5,-1025 357.5,-1003 264.5,-1003"/>
<text text-anchor="start" x="267.5" y="-1011.2" font-family="Helvetica,sans-Serif" font-size="11.00">text[2147483647]</text>
<polygon fill="none" stroke="black" points="10.5,-981 10.5,-1003 264.5,-1003 264.5,-981 10.5,-981"/>
<text text-anchor="start" x="30.5" y="-989.2" font-family="Helvetica,sans-Serif" font-size="11.00">official_name_en</text>
<polygon fill="none" stroke="black" points="264.5,-981 264.5,-1003 357.5,-1003 357.5,-981 264.5,-981"/>
<text text-anchor="start" x="267.5" y="-989.2" font-family="Helvetica,sans-Serif" font-size="11.00">text[2147483647]</text>
<polygon fill="none" stroke="black" points="10.5,-959 10.5,-981 264.5,-981 264.5,-959 10.5,-959"/>
<text text-anchor="start" x="30.5" y="-967.2" font-family="Helvetica,sans-Serif" font-size="11.00">official_name_es</text>
<polygon fill="none" stroke="black" points="264.5,-959 264.5,-981 357.5,-981 357.5,-959 264.5,-959"/>
<text text-anchor="start" x="267.5" y="-967.2" font-family="Helvetica,sans-Serif" font-size="11.00">text[2147483647]</text>
<polygon fill="none" stroke="black" points="10.5,-937 10.5,-959 264.5,-959 264.5,-937 10.5,-937"/>
<text text-anchor="start" x="30.5" y="-945.2" font-family="Helvetica,sans-Serif" font-size="11.00">official_name_fr</text>
<polygon fill="none" stroke="black" points="264.5,-937 264.5,-959 357.5,-959 357.5,-937 264.5,-937"/>
<text text-anchor="start" x="267.5" y="-945.2" font-family="Helvetica,sans-Serif" font-size="11.00">text[2147483647]</text>
<polygon fill="none" stroke="black" points="10.5,-915 10.5,-937 264.5,-937 264.5,-915 10.5,-915"/>
<text text-anchor="start" x="30.5" y="-923.2" font-family="Helvetica,sans-Serif" font-size="11.00">official_name_ru</text>
<polygon fill="none" stroke="black" points="264.5,-915 264.5,-937 357.5,-937 357.5,-915 264.5,-915"/>
<text text-anchor="start" x="267.5" y="-923.2" font-family="Helvetica,sans-Serif" font-size="11.00">text[2147483647]</text>
<polygon fill="none" stroke="black" points="10.5,-893 10.5,-915 264.5,-915 264.5,-893 10.5,-893"/>
<text text-anchor="start" x="30.5" y="-901.2" font-family="Helvetica,sans-Serif" font-size="11.00">iso3166_1_alpha_2</text>
<polygon fill="none" stroke="black" points="264.5,-893 264.5,-915 357.5,-915 357.5,-893 264.5,-893"/>
<text text-anchor="start" x="267.5" y="-901.2" font-family="Helvetica,sans-Serif" font-size="11.00">text[2147483647]</text>
<polygon fill="none" stroke="black" points="10.5,-871 10.5,-893 264.5,-893 264.5,-871 10.5,-871"/>
<text text-anchor="start" x="30.5" y="-879.2" font-family="Helvetica,sans-Serif" font-size="11.00">iso3166_1_alpha_3</text>
<polygon fill="none" stroke="black" points="264.5,-871 264.5,-893 357.5,-893 357.5,-871 264.5,-871"/>
<text text-anchor="start" x="267.5" y="-879.2" font-family="Helvetica,sans-Serif" font-size="11.00">text[2147483647]</text>
<polygon fill="none" stroke="black" points="10.5,-849 10.5,-871 264.5,-871 264.5,-849 10.5,-849"/>
<text text-anchor="start" x="30.5" y="-857.2" font-family="Helvetica,sans-Serif" font-size="11.00">iso3166_1_numeric</text>
<polygon fill="none" stroke="black" points="264.5,-849 264.5,-871 357.5,-871 357.5,-849 264.5,-849"/>
<text text-anchor="start" x="267.5" y="-857.2" font-family="Helvetica,sans-Serif" font-size="11.00">text[2147483647]</text>
<polygon fill="none" stroke="black" points="10.5,-827 10.5,-849 264.5,-849 264.5,-827 10.5,-827"/>
<text text-anchor="start" x="30.5" y="-835.2" font-family="Helvetica,sans-Serif" font-size="11.00">iso4217_currency_alphabetic_code</text>
<polygon fill="none" stroke="black" points="264.5,-827 264.5,-849 357.5,-849 357.5,-827 264.5,-827"/>
<text text-anchor="start" x="267.5" y="-835.2" font-family="Helvetica,sans-Serif" font-size="11.00">text[2147483647]</text>
<polygon fill="none" stroke="black" points="10.5,-805 10.5,-827 264.5,-827 264.5,-805 10.5,-805"/>
<text text-anchor="start" x="30.5" y="-813.2" font-family="Helvetica,sans-Serif" font-size="11.00">iso4217_currency_country_name</text>
<polygon fill="none" stroke="black" points="264.5,-805 264.5,-827 357.5,-827 357.5,-805 264.5,-805"/>
<text text-anchor="start" x="267.5" y="-813.2" font-family="Helvetica,sans-Serif" font-size="11.00">text[2147483647]</text>
<polygon fill="none" stroke="black" points="10.5,-783 10.5,-805 264.5,-805 264.5,-783 10.5,-783"/>
<text text-anchor="start" x="30.5" y="-791.2" font-family="Helvetica,sans-Serif" font-size="11.00">iso4217_currency_minor_unit</text>
<polygon fill="none" stroke="black" points="264.5,-783 264.5,-805 357.5,-805 357.5,-783 264.5,-783"/>
<text text-anchor="start" x="267.5" y="-791.2" font-family="Helvetica,sans-Serif" font-size="11.00">text[2147483647]</text>
<polygon fill="none" stroke="black" points="10.5,-761 10.5,-783 264.5,-783 264.5,-761 10.5,-761"/>
<text text-anchor="start" x="30.5" y="-769.2" font-family="Helvetica,sans-Serif" font-size="11.00">iso4217_currency_name</text>
<polygon fill="none" stroke="black" points="264.5,-761 264.5,-783 357.5,-783 357.5,-761 264.5,-761"/>
<text text-anchor="start" x="267.5" y="-769.2" font-family="Helvetica,sans-Serif" font-size="11.00">text[2147483647]</text>
<polygon fill="none" stroke="black" points="10.5,-739 10.5,-761 264.5,-761 264.5,-739 10.5,-739"/>
<text text-anchor="start" x="30.5" y="-747.2" font-family="Helvetica,sans-Serif" font-size="11.00">iso4217_currency_numeric_code</text>
<polygon fill="none" stroke="black" points="264.5,-739 264.5,-761 357.5,-761 357.5,-739 264.5,-739"/>
<text text-anchor="start" x="267.5" y="-747.2" font-family="Helvetica,sans-Serif" font-size="11.00">text[2147483647]</text>
<polygon fill="none" stroke="black" points="10.5,-717 10.5,-739 264.5,-739 264.5,-717 10.5,-717"/>
<text text-anchor="start" x="30.5" y="-725.2" font-family="Helvetica,sans-Serif" font-size="11.00">cldr_display_name</text>
<polygon fill="none" stroke="black" points="264.5,-717 264.5,-739 357.5,-739 357.5,-717 264.5,-717"/>
<text text-anchor="start" x="267.5" y="-725.2" font-family="Helvetica,sans-Serif" font-size="11.00">text[2147483647]</text>
<polygon fill="none" stroke="black" points="10.5,-695 10.5,-717 264.5,-717 264.5,-695 10.5,-695"/>
<text text-anchor="start" x="30.5" y="-703.2" font-family="Helvetica,sans-Serif" font-size="11.00">capital</text>
<polygon fill="none" stroke="black" points="264.5,-695 264.5,-717 357.5,-717 357.5,-695 264.5,-695"/>
<text text-anchor="start" x="267.5" y="-703.2" font-family="Helvetica,sans-Serif" font-size="11.00">text[2147483647]</text>
<polygon fill="none" stroke="black" points="10.5,-673 10.5,-695 264.5,-695 264.5,-673 10.5,-673"/>
<text text-anchor="start" x="30.5" y="-681.2" font-family="Helvetica,sans-Serif" font-size="11.00">continent</text>
<polygon fill="none" stroke="black" points="264.5,-673 264.5,-695 357.5,-695 357.5,-673 264.5,-673"/>
<text text-anchor="start" x="267.5" y="-681.2" font-family="Helvetica,sans-Serif" font-size="11.00">text[2147483647]</text>
<polygon fill="none" stroke="black" points="10.5,-651 10.5,-673 264.5,-673 264.5,-651 10.5,-651"/>
<text text-anchor="start" x="30.5" y="-659.2" font-family="Helvetica,sans-Serif" font-size="11.00">ds</text>
<polygon fill="none" stroke="black" points="264.5,-651 264.5,-673 357.5,-673 357.5,-651 264.5,-651"/>
<text text-anchor="start" x="267.5" y="-659.2" font-family="Helvetica,sans-Serif" font-size="11.00">text[2147483647]</text>
<polygon fill="none" stroke="black" points="10.5,-629 10.5,-651 264.5,-651 264.5,-629 10.5,-629"/>
<text text-anchor="start" x="30.5" y="-637.2" font-family="Helvetica,sans-Serif" font-size="11.00">dial</text>
<polygon fill="none" stroke="black" points="264.5,-629 264.5,-651 357.5,-651 357.5,-629 264.5,-629"/>
<text text-anchor="start" x="267.5" y="-637.2" font-family="Helvetica,sans-Serif" font-size="11.00">text[2147483647]</text>
<polygon fill="none" stroke="black" points="10.5,-607 10.5,-629 264.5,-629 264.5,-607 10.5,-607"/>
<text text-anchor="start" x="30.5" y="-615.2" font-family="Helvetica,sans-Serif" font-size="11.00">edgar</text>
<polygon fill="none" stroke="black" points="264.5,-607 264.5,-629 357.5,-629 357.5,-607 264.5,-607"/>
<text text-anchor="start" x="267.5" y="-615.2" font-family="Helvetica,sans-Serif" font-size="11.00">text[2147483647]</text>
<polygon fill="none" stroke="black" points="10.5,-585 10.5,-607 264.5,-607 264.5,-585 10.5,-585"/>
<text text-anchor="start" x="30.5" y="-593.2" font-family="Helvetica,sans-Serif" font-size="11.00">fips</text>
<polygon fill="none" stroke="black" points="264.5,-585 264.5,-607 357.5,-607 357.5,-585 264.5,-585"/>
<text text-anchor="start" x="267.5" y="-593.2" font-family="Helvetica,sans-Serif" font-size="11.00">text[2147483647]</text>
<polygon fill="none" stroke="black" points="10.5,-563 10.5,-585 264.5,-585 264.5,-563 10.5,-563"/>
<text text-anchor="start" x="30.5" y="-571.2" font-family="Helvetica,sans-Serif" font-size="11.00">gaul</text>
<polygon fill="none" stroke="black" points="264.5,-563 264.5,-585 357.5,-585 357.5,-563 264.5,-563"/>
<text text-anchor="start" x="267.5" y="-571.2" font-family="Helvetica,sans-Serif" font-size="11.00">text[2147483647]</text>
<polygon fill="none" stroke="black" points="10.5,-541 10.5,-563 264.5,-563 264.5,-541 10.5,-541"/>
<text text-anchor="start" x="30.5" y="-549.2" font-family="Helvetica,sans-Serif" font-size="11.00">geoname_id</text>
<polygon fill="none" stroke="black" points="264.5,-541 264.5,-563 357.5,-563 357.5,-541 264.5,-541"/>
<text text-anchor="start" x="267.5" y="-549.2" font-family="Helvetica,sans-Serif" font-size="11.00">text[2147483647]</text>
<polygon fill="none" stroke="black" points="10.5,-519 10.5,-541 264.5,-541 264.5,-519 10.5,-519"/>
<text text-anchor="start" x="30.5" y="-527.2" font-family="Helvetica,sans-Serif" font-size="11.00">global_code</text>
<polygon fill="none" stroke="black" points="264.5,-519 264.5,-541 357.5,-541 357.5,-519 264.5,-519"/>
<text text-anchor="start" x="267.5" y="-527.2" font-family="Helvetica,sans-Serif" font-size="11.00">text[2147483647]</text>
<polygon fill="none" stroke="black" points="10.5,-497 10.5,-519 264.5,-519 264.5,-497 10.5,-497"/>
<text text-anchor="start" x="30.5" y="-505.2" font-family="Helvetica,sans-Serif" font-size="11.00">global_name</text>
<polygon fill="none" stroke="black" points="264.5,-497 264.5,-519 357.5,-519 357.5,-497 264.5,-497"/>
<text text-anchor="start" x="267.5" y="-505.2" font-family="Helvetica,sans-Serif" font-size="11.00">text[2147483647]</text>
<polygon fill="none" stroke="black" points="10.5,-475 10.5,-497 264.5,-497 264.5,-475 10.5,-475"/>
<text text-anchor="start" x="30.5" y="-483.2" font-family="Helvetica,sans-Serif" font-size="11.00">ioc</text>
<polygon fill="none" stroke="black" points="264.5,-475 264.5,-497 357.5,-497 357.5,-475 264.5,-475"/>
<text text-anchor="start" x="267.5" y="-483.2" font-family="Helvetica,sans-Serif" font-size="11.00">text[2147483647]</text>
<polygon fill="none" stroke="black" points="10.5,-453 10.5,-475 264.5,-475 264.5,-453 10.5,-453"/>
<text text-anchor="start" x="30.5" y="-461.2" font-family="Helvetica,sans-Serif" font-size="11.00">itu</text>
<polygon fill="none" stroke="black" points="264.5,-453 264.5,-475 357.5,-475 357.5,-453 264.5,-453"/>
<text text-anchor="start" x="267.5" y="-461.2" font-family="Helvetica,sans-Serif" font-size="11.00">text[2147483647]</text>
<polygon fill="none" stroke="black" points="10.5,-431 10.5,-453 264.5,-453 264.5,-431 10.5,-431"/>
<text text-anchor="start" x="30.5" y="-439.2" font-family="Helvetica,sans-Serif" font-size="11.00">intermediate_region_code</text>
<polygon fill="none" stroke="black" points="264.5,-431 264.5,-453 357.5,-453 357.5,-431 264.5,-431"/>
<text text-anchor="start" x="267.5" y="-439.2" font-family="Helvetica,sans-Serif" font-size="11.00">text[2147483647]</text>
<polygon fill="none" stroke="black" points="10.5,-409 10.5,-431 264.5,-431 264.5,-409 10.5,-409"/>
<text text-anchor="start" x="30.5" y="-417.2" font-family="Helvetica,sans-Serif" font-size="11.00">intermediate_region_name</text>
<polygon fill="none" stroke="black" points="264.5,-409 264.5,-431 357.5,-431 357.5,-409 264.5,-409"/>
<text text-anchor="start" x="267.5" y="-417.2" font-family="Helvetica,sans-Serif" font-size="11.00">text[2147483647]</text>
<polygon fill="none" stroke="black" points="10.5,-387 10.5,-409 264.5,-409 264.5,-387 10.5,-387"/>
<text text-anchor="start" x="30.5" y="-395.2" font-family="Helvetica,sans-Serif" font-size="11.00">languages</text>
<polygon fill="none" stroke="black" points="264.5,-387 264.5,-409 357.5,-409 357.5,-387 264.5,-387"/>
<text text-anchor="start" x="267.5" y="-395.2" font-family="Helvetica,sans-Serif" font-size="11.00">text[2147483647]</text>
<polygon fill="none" stroke="black" points="10.5,-365 10.5,-387 264.5,-387 264.5,-365 10.5,-365"/>
<text text-anchor="start" x="30.5" y="-373.2" font-family="Helvetica,sans-Serif" font-size="11.00">marc</text>
<polygon fill="none" stroke="black" points="264.5,-365 264.5,-387 357.5,-387 357.5,-365 264.5,-365"/>
<text text-anchor="start" x="267.5" y="-373.2" font-family="Helvetica,sans-Serif" font-size="11.00">text[2147483647]</text>
<polygon fill="none" stroke="black" points="10.5,-343 10.5,-365 264.5,-365 264.5,-343 10.5,-343"/>
<text text-anchor="start" x="30.5" y="-351.2" font-family="Helvetica,sans-Serif" font-size="11.00">region_code</text>
<polygon fill="none" stroke="black" points="264.5,-343 264.5,-365 357.5,-365 357.5,-343 264.5,-343"/>
<text text-anchor="start" x="267.5" y="-351.2" font-family="Helvetica,sans-Serif" font-size="11.00">text[2147483647]</text>
<polygon fill="none" stroke="black" points="10.5,-321 10.5,-343 264.5,-343 264.5,-321 10.5,-321"/>
<text text-anchor="start" x="30.5" y="-329.2" font-family="Helvetica,sans-Serif" font-size="11.00">region_name</text>
<polygon fill="none" stroke="black" points="264.5,-321 264.5,-343 357.5,-343 357.5,-321 264.5,-321"/>
<text text-anchor="start" x="267.5" y="-329.2" font-family="Helvetica,sans-Serif" font-size="11.00">text[2147483647]</text>
<polygon fill="none" stroke="black" points="10.5,-299 10.5,-321 264.5,-321 264.5,-299 10.5,-299"/>
<text text-anchor="start" x="30.5" y="-307.2" font-family="Helvetica,sans-Serif" font-size="11.00">sub_region_code</text>
<polygon fill="none" stroke="black" points="264.5,-299 264.5,-321 357.5,-321 357.5,-299 264.5,-299"/>
<text text-anchor="start" x="267.5" y="-307.2" font-family="Helvetica,sans-Serif" font-size="11.00">text[2147483647]</text>
<polygon fill="none" stroke="black" points="10.5,-277 10.5,-299 264.5,-299 264.5,-277 10.5,-277"/>
<text text-anchor="start" x="30.5" y="-285.2" font-family="Helvetica,sans-Serif" font-size="11.00">sub_region_name</text>
<polygon fill="none" stroke="black" points="264.5,-277 264.5,-299 357.5,-299 357.5,-277 264.5,-277"/>
<text text-anchor="start" x="267.5" y="-285.2" font-family="Helvetica,sans-Serif" font-size="11.00">text[2147483647]</text>
<polygon fill="none" stroke="black" points="10.5,-255 10.5,-277 264.5,-277 264.5,-255 10.5,-255"/>
<text text-anchor="start" x="30.5" y="-263.2" font-family="Helvetica,sans-Serif" font-size="11.00">tld</text>
<polygon fill="none" stroke="black" points="264.5,-255 264.5,-277 357.5,-277 357.5,-255 264.5,-255"/>
<text text-anchor="start" x="267.5" y="-263.2" font-family="Helvetica,sans-Serif" font-size="11.00">text[2147483647]</text>
<polygon fill="none" stroke="black" points="10.5,-233 10.5,-255 264.5,-255 264.5,-233 10.5,-233"/>
<text text-anchor="start" x="30.5" y="-241.2" font-family="Helvetica,sans-Serif" font-size="11.00">wmo</text>
<polygon fill="none" stroke="black" points="264.5,-233 264.5,-255 357.5,-255 357.5,-233 264.5,-233"/>
<text text-anchor="start" x="267.5" y="-241.2" font-family="Helvetica,sans-Serif" font-size="11.00">text[2147483647]</text>
<polygon fill="none" stroke="black" points="10.5,-211 10.5,-233 264.5,-233 264.5,-211 10.5,-211"/>
<text text-anchor="start" x="30.5" y="-219.2" font-family="Helvetica,sans-Serif" font-size="11.00">is_independent</text>
<polygon fill="none" stroke="black" points="264.5,-211 264.5,-233 357.5,-233 357.5,-211 264.5,-211"/>
<text text-anchor="start" x="267.5" y="-219.2" font-family="Helvetica,sans-Serif" font-size="11.00">text[2147483647]</text>
<polygon fill="none" stroke="black" points="10.5,-189 10.5,-211 264.5,-211 264.5,-189 10.5,-189"/>
<text text-anchor="start" x="30.5" y="-197.2" font-family="Helvetica,sans-Serif" font-size="11.00">diag_timestamp_created</text>
<polygon fill="none" stroke="black" points="264.5,-189 264.5,-211 357.5,-211 357.5,-189 264.5,-189"/>
<text text-anchor="start" x="267.5" y="-197.2" font-family="Helvetica,sans-Serif" font-size="11.00">timestamptz[35,6]</text>
<polygon fill="none" stroke="black" points="10.5,-167 10.5,-189 264.5,-189 264.5,-167 10.5,-167"/>
<text text-anchor="start" x="30.5" y="-175.2" font-family="Helvetica,sans-Serif" font-size="11.00">diag_role_created</text>
<polygon fill="none" stroke="black" points="264.5,-167 264.5,-189 357.5,-189 357.5,-167 264.5,-167"/>
<text text-anchor="start" x="267.5" y="-175.2" font-family="Helvetica,sans-Serif" font-size="11.00">text[2147483647]</text>
<polygon fill="none" stroke="black" points="10.5,-145 10.5,-167 264.5,-167 264.5,-145 10.5,-145"/>
<text text-anchor="start" x="30.5" y="-153.2" font-family="Helvetica,sans-Serif" font-size="11.00">diag_timestamp_modified</text>
<polygon fill="none" stroke="black" points="264.5,-145 264.5,-167 357.5,-167 357.5,-145 264.5,-145"/>
<text text-anchor="start" x="267.5" y="-153.2" font-family="Helvetica,sans-Serif" font-size="11.00">timestamptz[35,6]</text>
<polygon fill="none" stroke="black" points="10.5,-123 10.5,-145 264.5,-145 264.5,-123 10.5,-123"/>
<text text-anchor="start" x="30.5" y="-131.2" font-family="Helvetica,sans-Serif" font-size="11.00">diag_wallclock_modified</text>
<polygon fill="none" stroke="black" points="264.5,-123 264.5,-145 357.5,-145 357.5,-123 264.5,-123"/>
<text text-anchor="start" x="267.5" y="-131.2" font-family="Helvetica,sans-Serif" font-size="11.00">timestamptz[35,6]</text>
<polygon fill="none" stroke="black" points="10.5,-101 10.5,-123 264.5,-123 264.5,-101 10.5,-101"/>
<text text-anchor="start" x="30.5" y="-109.2" font-family="Helvetica,sans-Serif" font-size="11.00">diag_role_modified</text>
<polygon fill="none" stroke="black" points="264.5,-101 264.5,-123 357.5,-123 357.5,-101 264.5,-101"/>
<text text-anchor="start" x="267.5" y="-109.2" font-family="Helvetica,sans-Serif" font-size="11.00">text[2147483647]</text>
<polygon fill="none" stroke="black" points="10.5,-79 10.5,-101 264.5,-101 264.5,-79 10.5,-79"/>
<text text-anchor="start" x="30.5" y="-87.2" font-family="Helvetica,sans-Serif" font-size="11.00">diag_row_version</text>
<polygon fill="none" stroke="black" points="264.5,-79 264.5,-101 357.5,-101 357.5,-79 264.5,-79"/>
<text text-anchor="start" x="267.5" y="-87.2" font-family="Helvetica,sans-Serif" font-size="11.00">int8[19]</text>
<polygon fill="none" stroke="black" points="10.5,-57 10.5,-79 264.5,-79 264.5,-57 10.5,-57"/>
<text text-anchor="start" x="30.5" y="-65.2" font-family="Helvetica,sans-Serif" font-size="11.00">diag_update_count</text>
<polygon fill="none" stroke="black" points="264.5,-57 264.5,-79 357.5,-79 357.5,-57 264.5,-57"/>
<text text-anchor="start" x="267.5" y="-65.2" font-family="Helvetica,sans-Serif" font-size="11.00">int8[19]</text>
<polygon fill="#ffffff" stroke="transparent" points="10.5,-39 10.5,-57 141.5,-57 141.5,-39 10.5,-39"/>
<polygon fill="none" stroke="black" points="10.5,-39 10.5,-57 141.5,-57 141.5,-39 10.5,-39"/>
<text text-anchor="start" x="13.5" y="-45.2" font-family="Helvetica,sans-Serif" font-size="11.00">&lt; 0</text>
<polygon fill="#ffffff" stroke="transparent" points="141.5,-39 141.5,-57 264.5,-57 264.5,-39 141.5,-39"/>
<polygon fill="none" stroke="black" points="141.5,-39 141.5,-57 264.5,-57 264.5,-39 141.5,-39"/>
<text text-anchor="start" x="254.5" y="-45.2" font-family="Helvetica,sans-Serif" font-size="11.00"> &#160;</text>
<polygon fill="#ffffff" stroke="transparent" points="264.5,-39 264.5,-57 357.5,-57 357.5,-39 264.5,-39"/>
<polygon fill="none" stroke="black" points="264.5,-39 264.5,-57 357.5,-57 357.5,-39 264.5,-39"/>
<text text-anchor="start" x="338.5" y="-45.2" font-family="Helvetica,sans-Serif" font-size="11.00">3 &gt;</text>
<polygon fill="none" stroke="black" stroke-width="2" points="9,-38 9,-1158 358,-1158 358,-38 9,-38"/>
</a>
</g>
</g>
<!-- mstr_country_address_format_assocs&#45;&gt;mstr_countries -->
<g id="edge1" class="edge">
<title>mstr_country_address_format_assocs:w&#45;&gt;mstr_countries:e</title>
<path fill="none" stroke="black" d="M393.2,-1265.97C353.29,-1245.15 420.68,-1124 358.5,-1124"/>
<polygon fill="black" stroke="black" points="399.67,-1267.34 406.75,-1272.52 403.59,-1268.17 407.5,-1269 407.5,-1269 407.5,-1269 403.59,-1268.17 408.25,-1265.48 399.67,-1267.34 399.67,-1267.34"/>
<ellipse fill="none" stroke="black" cx="396.54" cy="-1266.68" rx="3.2" ry="3.2"/>
</g>
<!-- mstr_country_name_format_assocs -->
<g id="node3" class="node">
<title>mstr_country_name_format_assocs</title>
<g id="a_node3"><a xlink:href="../../tables/mstr_country_name_format_assocs.html" xlink:title="mstr_country_name_format_assocs" target="_top">
<polygon fill="#ffffff" stroke="transparent" points="416,-1055 416,-1179 691,-1179 691,-1055 416,-1055"/>
<polygon fill="#f5f5f5" stroke="transparent" points="416.5,-1157 416.5,-1179 691.5,-1179 691.5,-1157 416.5,-1157"/>
<polygon fill="none" stroke="black" points="416.5,-1157 416.5,-1179 691.5,-1179 691.5,-1157 416.5,-1157"/>
<text text-anchor="start" x="421.5" y="-1166.2" font-family="Helvetica,sans-Serif" font-weight="bold" font-size="11.00">mstr_country_name_format_assocs</text>
<text text-anchor="start" x="656.5" y="-1165.2" font-family="Helvetica,sans-Serif" font-size="11.00">[table]</text>
<polygon fill="none" stroke="black" points="416.5,-1135 416.5,-1157 691.5,-1157 691.5,-1135 416.5,-1135"/>
<image xlink:href="../../images/primaryKeys.png" width="11px" height="12px" preserveAspectRatio="xMinYMin meet" x="421.5" y="-1152"/>
<text text-anchor="start" x="446.5" y="-1143.2" font-family="Helvetica,sans-Serif" font-size="11.00">id</text>
<polygon fill="none" stroke="black" points="416.5,-1113 416.5,-1135 691.5,-1135 691.5,-1113 416.5,-1113"/>
<image xlink:href="../../images/foreignKeys.png" width="11px" height="12px" preserveAspectRatio="xMinYMin meet" x="421.5" y="-1130"/>
<text text-anchor="start" x="446.5" y="-1121.2" font-family="Helvetica,sans-Serif" font-size="11.00">country_id</text>
<polygon fill="none" stroke="black" points="416.5,-1091 416.5,-1113 691.5,-1113 691.5,-1091 416.5,-1091"/>
<image xlink:href="../../images/foreignKeys.png" width="11px" height="12px" preserveAspectRatio="xMinYMin meet" x="421.5" y="-1108"/>
<text text-anchor="start" x="446.5" y="-1099.2" font-family="Helvetica,sans-Serif" font-size="11.00">name_format_id</text>
<polygon fill="none" stroke="black" points="416.5,-1073 416.5,-1091 691.5,-1091 691.5,-1073 416.5,-1073"/>
<text text-anchor="start" x="419.5" y="-1079.2" font-family="Helvetica,sans-Serif" font-size="11.00">...</text>
<polygon fill="#ffffff" stroke="transparent" points="416.5,-1055 416.5,-1073 551.5,-1073 551.5,-1055 416.5,-1055"/>
<polygon fill="none" stroke="black" points="416.5,-1055 416.5,-1073 551.5,-1073 551.5,-1055 416.5,-1055"/>
<text text-anchor="start" x="419.5" y="-1061.2" font-family="Helvetica,sans-Serif" font-size="11.00">&lt; 2</text>
<polygon fill="#ffffff" stroke="transparent" points="551.5,-1055 551.5,-1073 621.5,-1073 621.5,-1055 551.5,-1055"/>
<polygon fill="none" stroke="black" points="551.5,-1055 551.5,-1073 621.5,-1073 621.5,-1055 551.5,-1055"/>
<text text-anchor="start" x="611.5" y="-1061.2" font-family="Helvetica,sans-Serif" font-size="11.00"> &#160;</text>
<polygon fill="#ffffff" stroke="transparent" points="621.5,-1055 621.5,-1073 691.5,-1073 691.5,-1055 621.5,-1055"/>
<polygon fill="none" stroke="black" points="621.5,-1055 621.5,-1073 691.5,-1073 691.5,-1055 621.5,-1055"/>
<text text-anchor="start" x="681.5" y="-1061.2" font-family="Helvetica,sans-Serif" font-size="11.00"> &#160;</text>
</a>
</g>
</g>
<!-- mstr_country_name_format_assocs&#45;&gt;mstr_countries -->
<g id="edge2" class="edge">
<title>mstr_country_name_format_assocs:w&#45;&gt;mstr_countries:e</title>
<path fill="none" stroke="black" d="M400.77,-1124C386.32,-1124 378.09,-1124 358.5,-1124"/>
<polygon fill="black" stroke="black" points="407.5,-1124 415.5,-1127.6 411.5,-1124 415.5,-1124 415.5,-1124 415.5,-1124 411.5,-1124 415.5,-1120.4 407.5,-1124 407.5,-1124"/>
<ellipse fill="none" stroke="black" cx="404.3" cy="-1124" rx="3.2" ry="3.2"/>
</g>
<!-- mstr_country_phone_format_assocs -->
<g id="node4" class="node">
<title>mstr_country_phone_format_assocs</title>
<g id="a_node4"><a xlink:href="../../tables/mstr_country_phone_format_assocs.html" xlink:title="mstr_country_phone_format_assocs" target="_top">
<polygon fill="#ffffff" stroke="transparent" points="414,-910 414,-1034 693,-1034 693,-910 414,-910"/>
<polygon fill="#f5f5f5" stroke="transparent" points="414.5,-1012 414.5,-1034 693.5,-1034 693.5,-1012 414.5,-1012"/>
<polygon fill="none" stroke="black" points="414.5,-1012 414.5,-1034 693.5,-1034 693.5,-1012 414.5,-1012"/>
<text text-anchor="start" x="419.5" y="-1021.2" font-family="Helvetica,sans-Serif" font-weight="bold" font-size="11.00">mstr_country_phone_format_assocs</text>
<text text-anchor="start" x="658.5" y="-1020.2" font-family="Helvetica,sans-Serif" font-size="11.00">[table]</text>
<polygon fill="none" stroke="black" points="414.5,-990 414.5,-1012 693.5,-1012 693.5,-990 414.5,-990"/>
<image xlink:href="../../images/primaryKeys.png" width="11px" height="12px" preserveAspectRatio="xMinYMin meet" x="419.5" y="-1007"/>
<text text-anchor="start" x="444.5" y="-998.2" font-family="Helvetica,sans-Serif" font-size="11.00">id</text>
<polygon fill="none" stroke="black" points="414.5,-968 414.5,-990 693.5,-990 693.5,-968 414.5,-968"/>
<image xlink:href="../../images/foreignKeys.png" width="11px" height="12px" preserveAspectRatio="xMinYMin meet" x="419.5" y="-985"/>
<text text-anchor="start" x="444.5" y="-976.2" font-family="Helvetica,sans-Serif" font-size="11.00">country_id</text>
<polygon fill="none" stroke="black" points="414.5,-946 414.5,-968 693.5,-968 693.5,-946 414.5,-946"/>
<image xlink:href="../../images/foreignKeys.png" width="11px" height="12px" preserveAspectRatio="xMinYMin meet" x="419.5" y="-963"/>
<text text-anchor="start" x="444.5" y="-954.2" font-family="Helvetica,sans-Serif" font-size="11.00">phone_format_id</text>
<polygon fill="none" stroke="black" points="414.5,-928 414.5,-946 693.5,-946 693.5,-928 414.5,-928"/>
<text text-anchor="start" x="417.5" y="-934.2" font-family="Helvetica,sans-Serif" font-size="11.00">...</text>
<polygon fill="#ffffff" stroke="transparent" points="414.5,-910 414.5,-928 551.5,-928 551.5,-910 414.5,-910"/>
<polygon fill="none" stroke="black" points="414.5,-910 414.5,-928 551.5,-928 551.5,-910 414.5,-910"/>
<text text-anchor="start" x="417.5" y="-916.2" font-family="Helvetica,sans-Serif" font-size="11.00">&lt; 2</text>
<polygon fill="#ffffff" stroke="transparent" points="551.5,-910 551.5,-928 622.5,-928 622.5,-910 551.5,-910"/>
<polygon fill="none" stroke="black" points="551.5,-910 551.5,-928 622.5,-928 622.5,-910 551.5,-910"/>
<text text-anchor="start" x="612.5" y="-916.2" font-family="Helvetica,sans-Serif" font-size="11.00"> &#160;</text>
<polygon fill="#ffffff" stroke="transparent" points="622.5,-910 622.5,-928 693.5,-928 693.5,-910 622.5,-910"/>
<polygon fill="none" stroke="black" points="622.5,-910 622.5,-928 693.5,-928 693.5,-910 622.5,-910"/>
<text text-anchor="start" x="683.5" y="-916.2" font-family="Helvetica,sans-Serif" font-size="11.00"> &#160;</text>
</a>
</g>
</g>
<!-- mstr_country_phone_format_assocs&#45;&gt;mstr_countries -->
<g id="edge3" class="edge">
<title>mstr_country_phone_format_assocs:w&#45;&gt;mstr_countries:e</title>
<path fill="none" stroke="black" d="M399.17,-981.9C357.42,-1002.33 421.64,-1124 358.5,-1124"/>
<polygon fill="black" stroke="black" points="405.66,-980.58 414.21,-982.53 409.58,-979.79 413.5,-979 413.5,-979 413.5,-979 409.58,-979.79 412.79,-975.47 405.66,-980.58 405.66,-980.58"/>
<ellipse fill="none" stroke="black" cx="402.52" cy="-981.22" rx="3.2" ry="3.2"/>
</g>
</g>
</svg>
