<?xml version="1.0" encoding="UTF-8" standalone="no"?>
<!DOCTYPE svg PUBLIC "-//W3C//DTD SVG 1.1//EN"
 "http://www.w3.org/Graphics/SVG/1.1/DTD/svg11.dtd">
<!-- Generated by graphviz version 2.43.0 (0)
 -->
<!-- Title: twoDegreesRelationshipsDiagram Pages: 1 -->
<svg width="1100pt" height="728pt"
 viewBox="0.00 0.00 1100.00 727.68" xmlns="http://www.w3.org/2000/svg" xmlns:xlink="http://www.w3.org/1999/xlink">
<g id="graph0" class="graph" transform="scale(1 1) rotate(0) translate(4 723.68)">
<title>twoDegreesRelationshipsDiagram</title>
<polygon fill="#ffffff" stroke="transparent" points="-4,4 -4,-723.68 1096,-723.68 1096,4 -4,4"/>
<text text-anchor="middle" x="71.5" y="-7.2" font-family="Helvetica,sans-Serif" font-size="11.00">Generated by SchemaSpy</text>
<!-- mstr_contacts -->
<g id="node1" class="node">
<title>mstr_contacts</title>
<g id="a_node1"><a xlink:href="../../tables/mstr_contacts.html" xlink:title="mstr_contacts" target="_top">
<polygon fill="#ffffff" stroke="transparent" points="543.5,-618.59 543.5,-676.59 678.5,-676.59 678.5,-618.59 543.5,-618.59"/>
<polygon fill="#f5f5f5" stroke="transparent" points="544,-654.59 544,-676.59 679,-676.59 679,-654.59 544,-654.59"/>
<polygon fill="none" stroke="black" points="544,-654.59 544,-676.59 679,-676.59 679,-654.59 544,-654.59"/>
<text text-anchor="start" x="549" y="-663.79" font-family="Helvetica,sans-Serif" font-weight="bold" font-size="11.00">mstr_contacts</text>
<text text-anchor="start" x="644" y="-662.79" font-family="Helvetica,sans-Serif" font-size="11.00">[table]</text>
<polygon fill="none" stroke="black" points="544,-636.59 544,-654.59 679,-654.59 679,-636.59 544,-636.59"/>
<text text-anchor="start" x="547" y="-642.79" font-family="Helvetica,sans-Serif" font-size="11.00">...</text>
<polygon fill="#ffffff" stroke="transparent" points="544,-618.59 544,-636.59 605,-636.59 605,-618.59 544,-618.59"/>
<polygon fill="none" stroke="black" points="544,-618.59 544,-636.59 605,-636.59 605,-618.59 544,-618.59"/>
<text text-anchor="start" x="547" y="-624.79" font-family="Helvetica,sans-Serif" font-size="11.00">&lt; 3</text>
<polygon fill="#ffffff" stroke="transparent" points="605,-618.59 605,-636.59 637,-636.59 637,-618.59 605,-618.59"/>
<polygon fill="none" stroke="black" points="605,-618.59 605,-636.59 637,-636.59 637,-618.59 605,-618.59"/>
<text text-anchor="start" x="627" y="-624.79" font-family="Helvetica,sans-Serif" font-size="11.00"> &#160;</text>
<polygon fill="#ffffff" stroke="transparent" points="637,-618.59 637,-636.59 679,-636.59 679,-618.59 637,-618.59"/>
<polygon fill="none" stroke="black" points="637,-618.59 637,-636.59 679,-636.59 679,-618.59 637,-618.59"/>
<text text-anchor="start" x="660" y="-624.79" font-family="Helvetica,sans-Serif" font-size="11.00">1 &gt;</text>
</a>
</g>
</g>
<!-- ms_syst_data.syst_enum_items -->
<g id="node2" class="node">
<title>ms_syst_data.syst_enum_items</title>
<g id="a_node2"><a xlink:href="../../../ms_syst_data/tables/syst_enum_items.html" xlink:title="ms_syst_data.syst_enum_items" target="_top">
<polygon fill="#ffffff" stroke="transparent" points="8,-406.59 8,-464.59 257,-464.59 257,-406.59 8,-406.59"/>
<polygon fill="#f5f5f5" stroke="transparent" points="8.5,-442.59 8.5,-464.59 257.5,-464.59 257.5,-442.59 8.5,-442.59"/>
<polygon fill="none" stroke="black" points="8.5,-442.59 8.5,-464.59 257.5,-464.59 257.5,-442.59 8.5,-442.59"/>
<text text-anchor="start" x="13.5" y="-451.79" font-family="Helvetica,sans-Serif" font-weight="bold" font-size="11.00">ms_syst_data.syst_enum_items</text>
<text text-anchor="start" x="222.5" y="-450.79" font-family="Helvetica,sans-Serif" font-size="11.00">[table]</text>
<polygon fill="none" stroke="black" points="8.5,-424.59 8.5,-442.59 257.5,-442.59 257.5,-424.59 8.5,-424.59"/>
<text text-anchor="start" x="11.5" y="-430.79" font-family="Helvetica,sans-Serif" font-size="11.00">...</text>
<polygon fill="#ffffff" stroke="transparent" points="8.5,-406.59 8.5,-424.59 118.5,-424.59 118.5,-406.59 8.5,-406.59"/>
<polygon fill="none" stroke="black" points="8.5,-406.59 8.5,-424.59 118.5,-424.59 118.5,-406.59 8.5,-406.59"/>
<text text-anchor="start" x="11.5" y="-412.79" font-family="Helvetica,sans-Serif" font-size="11.00"> &#160;</text>
<polygon fill="#ffffff" stroke="transparent" points="118.5,-406.59 118.5,-424.59 180.5,-424.59 180.5,-406.59 118.5,-406.59"/>
<polygon fill="none" stroke="black" points="118.5,-406.59 118.5,-424.59 180.5,-424.59 180.5,-406.59 118.5,-406.59"/>
<text text-anchor="start" x="170.5" y="-412.79" font-family="Helvetica,sans-Serif" font-size="11.00"> &#160;</text>
<polygon fill="#ffffff" stroke="transparent" points="180.5,-406.59 180.5,-424.59 257.5,-424.59 257.5,-406.59 180.5,-406.59"/>
<polygon fill="none" stroke="black" points="180.5,-406.59 180.5,-424.59 257.5,-424.59 257.5,-406.59 180.5,-406.59"/>
<text text-anchor="start" x="232.5" y="-412.79" font-family="Helvetica,sans-Serif" font-size="11.00">10 &gt;</text>
</a>
</g>
</g>
<!-- mstr_contacts&#45;&gt;ms_syst_data.syst_enum_items -->
<g id="edge1" class="edge">
<title>mstr_contacts:w&#45;&gt;ms_syst_data.syst_enum_items:e</title>
<path fill="none" stroke="black" d="M528.56,-643.82C475.84,-632.33 375.04,-566.25 298,-490.59 276.01,-468.99 289.32,-433.59 258.5,-433.59"/>
<polygon fill="black" stroke="black" points="535.06,-644.62 542.56,-649.16 539.03,-645.1 543,-645.59 543,-645.59 543,-645.59 539.03,-645.1 543.44,-642.01 535.06,-644.62 535.06,-644.62"/>
<ellipse fill="none" stroke="black" cx="531.88" cy="-644.23" rx="3.2" ry="3.2"/>
</g>
<!-- mstr_contacts&#45;&gt;ms_syst_data.syst_enum_items -->
<g id="edge2" class="edge">
<title>mstr_contacts:w&#45;&gt;ms_syst_data.syst_enum_items:e</title>
<path fill="none" stroke="black" d="M528.37,-643.77C474.29,-631.65 375.07,-560.86 298,-486.59 276.85,-466.2 287.88,-433.59 258.5,-433.59"/>
<polygon fill="black" stroke="black" points="535.06,-644.6 542.56,-649.16 539.03,-645.09 543,-645.59 543,-645.59 543,-645.59 539.03,-645.09 543.44,-642.01 535.06,-644.6 535.06,-644.6"/>
<ellipse fill="none" stroke="black" cx="531.89" cy="-644.2" rx="3.2" ry="3.2"/>
</g>
<!-- mstr_entities -->
<g id="node3" class="node">
<title>mstr_entities</title>
<g id="a_node3"><a xlink:href="../../tables/mstr_entities.html" xlink:title="mstr_entities" target="_top">
<polygon fill="#ffffff" stroke="transparent" points="306,-340.59 306,-398.59 434,-398.59 434,-340.59 306,-340.59"/>
<polygon fill="#f5f5f5" stroke="transparent" points="306,-376.59 306,-398.59 434,-398.59 434,-376.59 306,-376.59"/>
<polygon fill="none" stroke="black" points="306,-376.59 306,-398.59 434,-398.59 434,-376.59 306,-376.59"/>
<text text-anchor="start" x="311" y="-385.79" font-family="Helvetica,sans-Serif" font-weight="bold" font-size="11.00">mstr_entities</text>
<text text-anchor="start" x="399" y="-384.79" font-family="Helvetica,sans-Serif" font-size="11.00">[table]</text>
<polygon fill="none" stroke="black" points="306,-358.59 306,-376.59 434,-376.59 434,-358.59 306,-358.59"/>
<text text-anchor="start" x="309" y="-364.79" font-family="Helvetica,sans-Serif" font-size="11.00">...</text>
<polygon fill="#ffffff" stroke="transparent" points="306,-340.59 306,-358.59 360,-358.59 360,-340.59 306,-340.59"/>
<polygon fill="none" stroke="black" points="306,-340.59 306,-358.59 360,-358.59 360,-340.59 306,-340.59"/>
<text text-anchor="start" x="309" y="-346.79" font-family="Helvetica,sans-Serif" font-size="11.00">&lt; 3</text>
<polygon fill="#ffffff" stroke="transparent" points="360,-340.59 360,-358.59 389,-358.59 389,-340.59 360,-340.59"/>
<polygon fill="none" stroke="black" points="360,-340.59 360,-358.59 389,-358.59 389,-340.59 360,-340.59"/>
<text text-anchor="start" x="379" y="-346.79" font-family="Helvetica,sans-Serif" font-size="11.00"> &#160;</text>
<polygon fill="#ffffff" stroke="transparent" points="389,-340.59 389,-358.59 434,-358.59 434,-340.59 389,-340.59"/>
<polygon fill="none" stroke="black" points="389,-340.59 389,-358.59 434,-358.59 434,-340.59 389,-340.59"/>
<text text-anchor="start" x="409" y="-346.79" font-family="Helvetica,sans-Serif" font-size="11.00">15 &gt;</text>
</a>
</g>
</g>
<!-- mstr_contacts&#45;&gt;mstr_entities -->
<g id="edge3" class="edge">
<title>mstr_contacts:w&#45;&gt;mstr_entities:e</title>
<path fill="none" stroke="black" d="M528.49,-644.73C505.04,-641.62 494.61,-630 475,-608.59 419.38,-547.85 390.28,-452.67 378.1,-402.73"/>
<polygon fill="black" stroke="black" points="535.01,-645.11 542.79,-649.18 539.01,-645.35 543,-645.59 543,-645.59 543,-645.59 539.01,-645.35 543.21,-641.99 535.01,-645.11 535.01,-645.11"/>
<ellipse fill="none" stroke="black" cx="531.82" cy="-644.92" rx="3.2" ry="3.2"/>
</g>
<!-- mstr_entities&#45;&gt;ms_syst_data.syst_enum_items -->
<g id="edge4" class="edge">
<title>mstr_entities:w&#45;&gt;ms_syst_data.syst_enum_items:e</title>
<path fill="none" stroke="black" d="M315.56,-410.98C298.44,-422.01 278.66,-431.46 258.5,-433.59"/>
<polygon fill="black" stroke="black" points="320.94,-407.28 329.57,-405.71 324.24,-405.01 327.53,-402.75 327.53,-402.75 327.53,-402.75 324.24,-405.01 325.49,-399.78 320.94,-407.28 320.94,-407.28"/>
<ellipse fill="none" stroke="black" cx="318.3" cy="-409.09" rx="3.2" ry="3.2"/>
</g>
<!-- mstr_entities&#45;&gt;ms_syst_data.syst_enum_items -->
<g id="edge5" class="edge">
<title>mstr_entities:w&#45;&gt;ms_syst_data.syst_enum_items:e</title>
<path fill="none" stroke="black" d="M328.62,-411.6C308.93,-425.53 284.02,-436.73 258.5,-433.59"/>
<polygon fill="black" stroke="black" points="333.83,-407.57 342.37,-405.53 337,-405.13 340.16,-402.68 340.16,-402.68 340.16,-402.68 337,-405.13 337.96,-399.83 333.83,-407.57 333.83,-407.57"/>
<ellipse fill="none" stroke="black" cx="331.3" cy="-409.53" rx="3.2" ry="3.2"/>
</g>
<!-- mstr_entity_bank_entities -->
<g id="node4" class="node">
<title>mstr_entity_bank_entities</title>
<g id="a_node4"><a xlink:href="../../tables/mstr_entity_bank_entities.html" xlink:title="mstr_entity_bank_entities" target="_top">
<polygon fill="#ffffff" stroke="transparent" points="504,-381.59 504,-439.59 718,-439.59 718,-381.59 504,-381.59"/>
<polygon fill="#f5f5f5" stroke="transparent" points="504,-417.59 504,-439.59 718,-439.59 718,-417.59 504,-417.59"/>
<polygon fill="none" stroke="black" points="504,-417.59 504,-439.59 718,-439.59 718,-417.59 504,-417.59"/>
<text text-anchor="start" x="509" y="-426.79" font-family="Helvetica,sans-Serif" font-weight="bold" font-size="11.00">mstr_entity_bank_entities</text>
<text text-anchor="start" x="683" y="-425.79" font-family="Helvetica,sans-Serif" font-size="11.00">[table]</text>
<polygon fill="none" stroke="black" points="504,-399.59 504,-417.59 718,-417.59 718,-399.59 504,-399.59"/>
<text text-anchor="start" x="507" y="-405.79" font-family="Helvetica,sans-Serif" font-size="11.00">...</text>
<polygon fill="#ffffff" stroke="transparent" points="504,-381.59 504,-399.59 609,-399.59 609,-381.59 504,-381.59"/>
<polygon fill="none" stroke="black" points="504,-381.59 504,-399.59 609,-399.59 609,-381.59 504,-381.59"/>
<text text-anchor="start" x="507" y="-387.79" font-family="Helvetica,sans-Serif" font-size="11.00">&lt; 2</text>
<polygon fill="#ffffff" stroke="transparent" points="609,-381.59 609,-399.59 663,-399.59 663,-381.59 609,-381.59"/>
<polygon fill="none" stroke="black" points="609,-381.59 609,-399.59 663,-399.59 663,-381.59 609,-381.59"/>
<text text-anchor="start" x="653" y="-387.79" font-family="Helvetica,sans-Serif" font-size="11.00"> &#160;</text>
<polygon fill="#ffffff" stroke="transparent" points="663,-381.59 663,-399.59 718,-399.59 718,-381.59 663,-381.59"/>
<polygon fill="none" stroke="black" points="663,-381.59 663,-399.59 718,-399.59 718,-381.59 663,-381.59"/>
<text text-anchor="start" x="708" y="-387.79" font-family="Helvetica,sans-Serif" font-size="11.00"> &#160;</text>
</a>
</g>
</g>
<!-- mstr_entity_bank_entities&#45;&gt;mstr_entities -->
<g id="edge6" class="edge">
<title>mstr_entity_bank_entities:w&#45;&gt;mstr_entities:e</title>
<path fill="none" stroke="black" d="M488.67,-406.64C472.95,-403.95 457.02,-399.54 442.16,-394.66"/>
<polygon fill="black" stroke="black" points="495.07,-407.51 502.51,-412.15 499.04,-408.05 503,-408.59 503,-408.59 503,-408.59 499.04,-408.05 503.49,-405.02 495.07,-407.51 495.07,-407.51"/>
<ellipse fill="none" stroke="black" cx="491.9" cy="-407.08" rx="3.2" ry="3.2"/>
</g>
<!-- mstr_entity_bank_entities&#45;&gt;mstr_entities -->
<g id="edge7" class="edge">
<title>mstr_entity_bank_entities:w&#45;&gt;mstr_entities:e</title>
<path fill="none" stroke="black" d="M488.57,-409.42C472.04,-409.5 455.26,-406.76 439.76,-402.67"/>
<polygon fill="black" stroke="black" points="495.01,-409.05 503.21,-412.18 499.01,-408.82 503,-408.59 503,-408.59 503,-408.59 499.01,-408.82 502.79,-404.99 495.01,-409.05 495.01,-409.05"/>
<ellipse fill="none" stroke="black" cx="491.82" cy="-409.23" rx="3.2" ry="3.2"/>
</g>
<!-- mstr_entity_facility_places -->
<g id="node5" class="node">
<title>mstr_entity_facility_places</title>
<g id="a_node5"><a xlink:href="../../tables/mstr_entity_facility_places.html" xlink:title="mstr_entity_facility_places" target="_top">
<polygon fill="#ffffff" stroke="transparent" points="788,-189.59 788,-453.59 1084,-453.59 1084,-189.59 788,-189.59"/>
<polygon fill="#f5f5f5" stroke="transparent" points="790,-429.59 790,-451.59 1082,-451.59 1082,-429.59 790,-429.59"/>
<polygon fill="none" stroke="black" points="790,-429.59 790,-451.59 1082,-451.59 1082,-429.59 790,-429.59"/>
<text text-anchor="start" x="795" y="-438.79" font-family="Helvetica,sans-Serif" font-weight="bold" font-size="11.00">mstr_entity_facility_places</text>
<text text-anchor="start" x="1047" y="-437.79" font-family="Helvetica,sans-Serif" font-size="11.00">[table]</text>
<polygon fill="none" stroke="black" points="790,-407.59 790,-429.59 989,-429.59 989,-407.59 790,-407.59"/>
<image xlink:href="../../images/primaryKeys.png" width="11px" height="12px" preserveAspectRatio="xMinYMin meet" x="795" y="-424.586"/>
<text text-anchor="start" x="810" y="-415.79" font-family="Helvetica,sans-Serif" font-size="11.00">id</text>
<polygon fill="none" stroke="black" points="989,-407.59 989,-429.59 1082,-429.59 1082,-407.59 989,-407.59"/>
<text text-anchor="start" x="992" y="-415.79" font-family="Helvetica,sans-Serif" font-size="11.00">uuid[2147483647]</text>
<polygon fill="none" stroke="black" points="790,-385.59 790,-407.59 989,-407.59 989,-385.59 790,-385.59"/>
<image xlink:href="../../images/foreignKeys.png" width="11px" height="12px" preserveAspectRatio="xMinYMin meet" x="795" y="-402.586"/>
<text text-anchor="start" x="810" y="-393.79" font-family="Helvetica,sans-Serif" font-size="11.00">place_id</text>
<polygon fill="none" stroke="black" points="989,-385.59 989,-407.59 1082,-407.59 1082,-385.59 989,-385.59"/>
<text text-anchor="start" x="992" y="-393.79" font-family="Helvetica,sans-Serif" font-size="11.00">uuid[2147483647]</text>
<polygon fill="none" stroke="black" points="790,-363.59 790,-385.59 989,-385.59 989,-363.59 790,-363.59"/>
<image xlink:href="../../images/foreignKeys.png" width="11px" height="12px" preserveAspectRatio="xMinYMin meet" x="795" y="-380.586"/>
<text text-anchor="start" x="810" y="-371.79" font-family="Helvetica,sans-Serif" font-size="11.00">owning_entity_id</text>
<polygon fill="none" stroke="black" points="989,-363.59 989,-385.59 1082,-385.59 1082,-363.59 989,-363.59"/>
<text text-anchor="start" x="992" y="-371.79" font-family="Helvetica,sans-Serif" font-size="11.00">uuid[2147483647]</text>
<polygon fill="none" stroke="black" points="790,-341.59 790,-363.59 989,-363.59 989,-341.59 790,-341.59"/>
<text text-anchor="start" x="810" y="-349.79" font-family="Helvetica,sans-Serif" font-size="11.00">diag_timestamp_created</text>
<polygon fill="none" stroke="black" points="989,-341.59 989,-363.59 1082,-363.59 1082,-341.59 989,-341.59"/>
<text text-anchor="start" x="992" y="-349.79" font-family="Helvetica,sans-Serif" font-size="11.00">timestamptz[35,6]</text>
<polygon fill="none" stroke="black" points="790,-319.59 790,-341.59 989,-341.59 989,-319.59 790,-319.59"/>
<text text-anchor="start" x="810" y="-327.79" font-family="Helvetica,sans-Serif" font-size="11.00">diag_role_created</text>
<polygon fill="none" stroke="black" points="989,-319.59 989,-341.59 1082,-341.59 1082,-319.59 989,-319.59"/>
<text text-anchor="start" x="992" y="-327.79" font-family="Helvetica,sans-Serif" font-size="11.00">text[2147483647]</text>
<polygon fill="none" stroke="black" points="790,-297.59 790,-319.59 989,-319.59 989,-297.59 790,-297.59"/>
<text text-anchor="start" x="810" y="-305.79" font-family="Helvetica,sans-Serif" font-size="11.00">diag_timestamp_modified</text>
<polygon fill="none" stroke="black" points="989,-297.59 989,-319.59 1082,-319.59 1082,-297.59 989,-297.59"/>
<text text-anchor="start" x="992" y="-305.79" font-family="Helvetica,sans-Serif" font-size="11.00">timestamptz[35,6]</text>
<polygon fill="none" stroke="black" points="790,-275.59 790,-297.59 989,-297.59 989,-275.59 790,-275.59"/>
<text text-anchor="start" x="810" y="-283.79" font-family="Helvetica,sans-Serif" font-size="11.00">diag_wallclock_modified</text>
<polygon fill="none" stroke="black" points="989,-275.59 989,-297.59 1082,-297.59 1082,-275.59 989,-275.59"/>
<text text-anchor="start" x="992" y="-283.79" font-family="Helvetica,sans-Serif" font-size="11.00">timestamptz[35,6]</text>
<polygon fill="none" stroke="black" points="790,-253.59 790,-275.59 989,-275.59 989,-253.59 790,-253.59"/>
<text text-anchor="start" x="810" y="-261.79" font-family="Helvetica,sans-Serif" font-size="11.00">diag_role_modified</text>
<polygon fill="none" stroke="black" points="989,-253.59 989,-275.59 1082,-275.59 1082,-253.59 989,-253.59"/>
<text text-anchor="start" x="992" y="-261.79" font-family="Helvetica,sans-Serif" font-size="11.00">text[2147483647]</text>
<polygon fill="none" stroke="black" points="790,-231.59 790,-253.59 989,-253.59 989,-231.59 790,-231.59"/>
<text text-anchor="start" x="810" y="-239.79" font-family="Helvetica,sans-Serif" font-size="11.00">diag_row_version</text>
<polygon fill="none" stroke="black" points="989,-231.59 989,-253.59 1082,-253.59 1082,-231.59 989,-231.59"/>
<text text-anchor="start" x="992" y="-239.79" font-family="Helvetica,sans-Serif" font-size="11.00">int8[19]</text>
<polygon fill="none" stroke="black" points="790,-209.59 790,-231.59 989,-231.59 989,-209.59 790,-209.59"/>
<text text-anchor="start" x="810" y="-217.79" font-family="Helvetica,sans-Serif" font-size="11.00">diag_update_count</text>
<polygon fill="none" stroke="black" points="989,-209.59 989,-231.59 1082,-231.59 1082,-209.59 989,-209.59"/>
<text text-anchor="start" x="992" y="-217.79" font-family="Helvetica,sans-Serif" font-size="11.00">int8[19]</text>
<polygon fill="#ffffff" stroke="transparent" points="790,-191.59 790,-209.59 894,-209.59 894,-191.59 790,-191.59"/>
<polygon fill="none" stroke="black" points="790,-191.59 790,-209.59 894,-209.59 894,-191.59 790,-191.59"/>
<text text-anchor="start" x="793" y="-197.79" font-family="Helvetica,sans-Serif" font-size="11.00">&lt; 2</text>
<polygon fill="#ffffff" stroke="transparent" points="894,-191.59 894,-209.59 989,-209.59 989,-191.59 894,-191.59"/>
<polygon fill="none" stroke="black" points="894,-191.59 894,-209.59 989,-209.59 989,-191.59 894,-191.59"/>
<text text-anchor="start" x="979" y="-197.79" font-family="Helvetica,sans-Serif" font-size="11.00"> &#160;</text>
<polygon fill="#ffffff" stroke="transparent" points="989,-191.59 989,-209.59 1082,-209.59 1082,-191.59 989,-191.59"/>
<polygon fill="none" stroke="black" points="989,-191.59 989,-209.59 1082,-209.59 1082,-191.59 989,-191.59"/>
<text text-anchor="start" x="1063" y="-197.79" font-family="Helvetica,sans-Serif" font-size="11.00">0 &gt;</text>
<polygon fill="none" stroke="black" stroke-width="2" points="789,-190.59 789,-452.59 1083,-452.59 1083,-190.59 789,-190.59"/>
</a>
</g>
</g>
<!-- mstr_entity_facility_places&#45;&gt;mstr_entities -->
<g id="edge8" class="edge">
<title>mstr_entity_facility_places:w&#45;&gt;mstr_entities:e</title>
<path fill="none" stroke="black" d="M774.36,-372.86C716.93,-356.99 809.66,-235.85 747,-185.59 699.85,-147.76 527.21,-155.13 475,-185.59 467.65,-189.87 416.35,-284.56 388.65,-336.38"/>
<polygon fill="black" stroke="black" points="781.05,-373.65 788.58,-378.16 785.03,-374.12 789,-374.59 789,-374.59 789,-374.59 785.03,-374.12 789.42,-371.01 781.05,-373.65 781.05,-373.65"/>
<ellipse fill="none" stroke="black" cx="777.88" cy="-373.28" rx="3.2" ry="3.2"/>
</g>
<!-- mstr_places -->
<g id="node6" class="node">
<title>mstr_places</title>
<g id="a_node6"><a xlink:href="../../tables/mstr_places.html" xlink:title="mstr_places" target="_top">
<polygon fill="#ffffff" stroke="transparent" points="551,-539.59 551,-597.59 671,-597.59 671,-539.59 551,-539.59"/>
<polygon fill="#f5f5f5" stroke="transparent" points="551,-575.59 551,-597.59 671,-597.59 671,-575.59 551,-575.59"/>
<polygon fill="none" stroke="black" points="551,-575.59 551,-597.59 671,-597.59 671,-575.59 551,-575.59"/>
<text text-anchor="start" x="556" y="-584.79" font-family="Helvetica,sans-Serif" font-weight="bold" font-size="11.00">mstr_places</text>
<text text-anchor="start" x="636" y="-583.79" font-family="Helvetica,sans-Serif" font-size="11.00">[table]</text>
<polygon fill="none" stroke="black" points="551,-557.59 551,-575.59 671,-575.59 671,-557.59 551,-557.59"/>
<text text-anchor="start" x="554" y="-563.79" font-family="Helvetica,sans-Serif" font-size="11.00">...</text>
<polygon fill="#ffffff" stroke="transparent" points="551,-539.59 551,-557.59 604,-557.59 604,-539.59 551,-539.59"/>
<polygon fill="none" stroke="black" points="551,-539.59 551,-557.59 604,-557.59 604,-539.59 551,-539.59"/>
<text text-anchor="start" x="554" y="-545.79" font-family="Helvetica,sans-Serif" font-size="11.00">&lt; 3</text>
<polygon fill="#ffffff" stroke="transparent" points="604,-539.59 604,-557.59 633,-557.59 633,-539.59 604,-539.59"/>
<polygon fill="none" stroke="black" points="604,-539.59 604,-557.59 633,-557.59 633,-539.59 604,-539.59"/>
<text text-anchor="start" x="623" y="-545.79" font-family="Helvetica,sans-Serif" font-size="11.00"> &#160;</text>
<polygon fill="#ffffff" stroke="transparent" points="633,-539.59 633,-557.59 671,-557.59 671,-539.59 633,-539.59"/>
<polygon fill="none" stroke="black" points="633,-539.59 633,-557.59 671,-557.59 671,-539.59 633,-539.59"/>
<text text-anchor="start" x="652" y="-545.79" font-family="Helvetica,sans-Serif" font-size="11.00">3 &gt;</text>
</a>
</g>
</g>
<!-- mstr_entity_facility_places&#45;&gt;mstr_places -->
<g id="edge9" class="edge">
<title>mstr_entity_facility_places:w&#45;&gt;mstr_places:e</title>
<path fill="none" stroke="black" d="M774.7,-398.84C738.12,-413 787.21,-490.36 747,-529.59 728.84,-547.3 703.15,-557.06 679.06,-562.41"/>
<polygon fill="black" stroke="black" points="781.1,-397.83 789.56,-400.14 785.05,-397.21 789,-396.59 789,-396.59 789,-396.59 785.05,-397.21 788.44,-393.03 781.1,-397.83 781.1,-397.83"/>
<ellipse fill="none" stroke="black" cx="777.94" cy="-398.33" rx="3.2" ry="3.2"/>
</g>
<!-- mstr_places&#45;&gt;ms_syst_data.syst_enum_items -->
<g id="edge29" class="edge">
<title>mstr_places:w&#45;&gt;ms_syst_data.syst_enum_items:e</title>
<path fill="none" stroke="black" d="M528.99,-541.28C511.06,-535.84 492.27,-529.88 475,-523.59 376.1,-487.56 363.76,-427.59 258.5,-433.59"/>
<polygon fill="black" stroke="black" points="535.15,-543.13 541.78,-548.88 538.98,-544.28 542.81,-545.43 542.81,-545.43 542.81,-545.43 538.98,-544.28 543.85,-541.98 535.15,-543.13 535.15,-543.13"/>
<ellipse fill="none" stroke="black" cx="532.09" cy="-542.21" rx="3.2" ry="3.2"/>
</g>
<!-- mstr_places&#45;&gt;ms_syst_data.syst_enum_items -->
<g id="edge30" class="edge">
<title>mstr_places:w&#45;&gt;ms_syst_data.syst_enum_items:e</title>
<path fill="none" stroke="black" d="M528.73,-553.87C510.88,-548.78 492.18,-542.85 475,-536.59 376.1,-500.56 363.76,-440.59 258.5,-433.59"/>
<polygon fill="black" stroke="black" points="535.1,-555.64 541.86,-561.24 538.96,-556.7 542.81,-557.77 542.81,-557.77 542.81,-557.77 538.96,-556.7 543.77,-554.3 535.1,-555.64 535.1,-555.64"/>
<ellipse fill="none" stroke="black" cx="532.02" cy="-554.78" rx="3.2" ry="3.2"/>
</g>
<!-- mstr_places&#45;&gt;mstr_entities -->
<g id="edge28" class="edge">
<title>mstr_places:w&#45;&gt;mstr_entities:e</title>
<path fill="none" stroke="black" d="M528.88,-555.21C509.97,-549.47 490.77,-541.28 475,-529.59 469.03,-525.16 420.3,-448.28 391.71,-402.72"/>
<polygon fill="black" stroke="black" points="535.17,-556.94 541.93,-562.53 539.03,-558 542.88,-559.06 542.88,-559.06 542.88,-559.06 539.03,-558 543.84,-555.59 535.17,-556.94 535.17,-556.94"/>
<ellipse fill="none" stroke="black" cx="532.08" cy="-556.09" rx="3.2" ry="3.2"/>
</g>
<!-- mstr_entity_inventory_places -->
<g id="node7" class="node">
<title>mstr_entity_inventory_places</title>
<g id="a_node7"><a xlink:href="../../tables/mstr_entity_inventory_places.html" xlink:title="mstr_entity_inventory_places" target="_top">
<polygon fill="#ffffff" stroke="transparent" points="817.5,-491.59 817.5,-549.59 1054.5,-549.59 1054.5,-491.59 817.5,-491.59"/>
<polygon fill="#f5f5f5" stroke="transparent" points="818,-527.59 818,-549.59 1055,-549.59 1055,-527.59 818,-527.59"/>
<polygon fill="none" stroke="black" points="818,-527.59 818,-549.59 1055,-549.59 1055,-527.59 818,-527.59"/>
<text text-anchor="start" x="823" y="-536.79" font-family="Helvetica,sans-Serif" font-weight="bold" font-size="11.00">mstr_entity_inventory_places</text>
<text text-anchor="start" x="1020" y="-535.79" font-family="Helvetica,sans-Serif" font-size="11.00">[table]</text>
<polygon fill="none" stroke="black" points="818,-509.59 818,-527.59 1055,-527.59 1055,-509.59 818,-509.59"/>
<text text-anchor="start" x="821" y="-515.79" font-family="Helvetica,sans-Serif" font-size="11.00">...</text>
<polygon fill="#ffffff" stroke="transparent" points="818,-491.59 818,-509.59 934,-509.59 934,-491.59 818,-491.59"/>
<polygon fill="none" stroke="black" points="818,-491.59 818,-509.59 934,-509.59 934,-491.59 818,-491.59"/>
<text text-anchor="start" x="821" y="-497.79" font-family="Helvetica,sans-Serif" font-size="11.00">&lt; 2</text>
<polygon fill="#ffffff" stroke="transparent" points="934,-491.59 934,-509.59 994,-509.59 994,-491.59 934,-491.59"/>
<polygon fill="none" stroke="black" points="934,-491.59 934,-509.59 994,-509.59 994,-491.59 934,-491.59"/>
<text text-anchor="start" x="984" y="-497.79" font-family="Helvetica,sans-Serif" font-size="11.00"> &#160;</text>
<polygon fill="#ffffff" stroke="transparent" points="994,-491.59 994,-509.59 1055,-509.59 1055,-491.59 994,-491.59"/>
<polygon fill="none" stroke="black" points="994,-491.59 994,-509.59 1055,-509.59 1055,-491.59 994,-491.59"/>
<text text-anchor="start" x="1045" y="-497.79" font-family="Helvetica,sans-Serif" font-size="11.00"> &#160;</text>
</a>
</g>
</g>
<!-- mstr_entity_inventory_places&#45;&gt;mstr_entities -->
<g id="edge10" class="edge">
<title>mstr_entity_inventory_places:w&#45;&gt;mstr_entities:e</title>
<path fill="none" stroke="black" d="M802.89,-515.46C788.65,-507.57 788.92,-485.98 780,-464.59 750.04,-392.75 807,-342.17 747,-292.59 700.41,-254.08 532.4,-273.65 475,-292.59 448.54,-301.31 423.32,-319.65 404.34,-336.24"/>
<polygon fill="black" stroke="black" points="809.19,-516.85 816.22,-522.1 813.09,-517.72 817,-518.59 817,-518.59 817,-518.59 813.09,-517.72 817.78,-515.07 809.19,-516.85 809.19,-516.85"/>
<ellipse fill="none" stroke="black" cx="806.07" cy="-516.16" rx="3.2" ry="3.2"/>
</g>
<!-- mstr_entity_inventory_places&#45;&gt;mstr_places -->
<g id="edge11" class="edge">
<title>mstr_entity_inventory_places:w&#45;&gt;mstr_places:e</title>
<path fill="none" stroke="black" d="M802.55,-519.64C771.78,-523.42 720.74,-536.75 679.22,-548.54"/>
<polygon fill="black" stroke="black" points="809.02,-519.17 817.26,-522.18 813.01,-518.88 817,-518.59 817,-518.59 817,-518.59 813.01,-518.88 816.74,-515 809.02,-519.17 809.02,-519.17"/>
<ellipse fill="none" stroke="black" cx="805.83" cy="-519.4" rx="3.2" ry="3.2"/>
</g>
<!-- mstr_entity_person_roles -->
<g id="node8" class="node">
<title>mstr_entity_person_roles</title>
<g id="a_node8"><a xlink:href="../../tables/mstr_entity_person_roles.html" xlink:title="mstr_entity_person_roles" target="_top">
<polygon fill="#ffffff" stroke="transparent" points="831.5,-63.59 831.5,-121.59 1040.5,-121.59 1040.5,-63.59 831.5,-63.59"/>
<polygon fill="#f5f5f5" stroke="transparent" points="832,-99.59 832,-121.59 1041,-121.59 1041,-99.59 832,-99.59"/>
<polygon fill="none" stroke="black" points="832,-99.59 832,-121.59 1041,-121.59 1041,-99.59 832,-99.59"/>
<text text-anchor="start" x="837" y="-108.79" font-family="Helvetica,sans-Serif" font-weight="bold" font-size="11.00">mstr_entity_person_roles</text>
<text text-anchor="start" x="1006" y="-107.79" font-family="Helvetica,sans-Serif" font-size="11.00">[table]</text>
<polygon fill="none" stroke="black" points="832,-81.59 832,-99.59 1041,-99.59 1041,-81.59 832,-81.59"/>
<text text-anchor="start" x="835" y="-87.79" font-family="Helvetica,sans-Serif" font-size="11.00">...</text>
<polygon fill="#ffffff" stroke="transparent" points="832,-63.59 832,-81.59 934,-81.59 934,-63.59 832,-63.59"/>
<polygon fill="none" stroke="black" points="832,-63.59 832,-81.59 934,-81.59 934,-63.59 832,-63.59"/>
<text text-anchor="start" x="835" y="-69.79" font-family="Helvetica,sans-Serif" font-size="11.00">&lt; 3</text>
<polygon fill="#ffffff" stroke="transparent" points="934,-63.59 934,-81.59 987,-81.59 987,-63.59 934,-63.59"/>
<polygon fill="none" stroke="black" points="934,-63.59 934,-81.59 987,-81.59 987,-63.59 934,-63.59"/>
<text text-anchor="start" x="977" y="-69.79" font-family="Helvetica,sans-Serif" font-size="11.00"> &#160;</text>
<polygon fill="#ffffff" stroke="transparent" points="987,-63.59 987,-81.59 1041,-81.59 1041,-63.59 987,-63.59"/>
<polygon fill="none" stroke="black" points="987,-63.59 987,-81.59 1041,-81.59 1041,-63.59 987,-63.59"/>
<text text-anchor="start" x="1031" y="-69.79" font-family="Helvetica,sans-Serif" font-size="11.00"> &#160;</text>
</a>
</g>
</g>
<!-- mstr_entity_person_roles&#45;&gt;ms_syst_data.syst_enum_items -->
<g id="edge13" class="edge">
<title>mstr_entity_person_roles:w&#45;&gt;ms_syst_data.syst_enum_items:e</title>
<path fill="none" stroke="black" d="M816.51,-89.15C788.58,-83.15 781.74,-60.08 747,-52.59 628.83,-27.1 592.93,-26.02 475,-52.59 390.05,-71.72 349.3,-66.22 298,-136.59 258.78,-190.39 325.08,-433.59 258.5,-433.59"/>
<polygon fill="black" stroke="black" points="823.04,-89.8 830.64,-94.17 827.02,-90.19 831,-90.59 831,-90.59 831,-90.59 827.02,-90.19 831.36,-87 823.04,-89.8 823.04,-89.8"/>
<ellipse fill="none" stroke="black" cx="819.85" cy="-89.48" rx="3.2" ry="3.2"/>
</g>
<!-- mstr_entity_person_roles&#45;&gt;mstr_entities -->
<g id="edge12" class="edge">
<title>mstr_entity_person_roles:w&#45;&gt;mstr_entities:e</title>
<path fill="none" stroke="black" d="M816.34,-92.05C788.14,-98.16 781.68,-121.81 747,-131.59 688.56,-148.06 523.96,-121.67 475,-157.59 444.65,-179.85 458.16,-201.59 442,-235.59 425.38,-270.54 404.44,-309.53 389.62,-336.4"/>
<polygon fill="black" stroke="black" points="823.04,-91.38 831.36,-94.17 827.02,-90.98 831,-90.59 831,-90.59 831,-90.59 827.02,-90.98 830.64,-87 823.04,-91.38 823.04,-91.38"/>
<ellipse fill="none" stroke="black" cx="819.86" cy="-91.7" rx="3.2" ry="3.2"/>
</g>
<!-- mstr_persons -->
<g id="node9" class="node">
<title>mstr_persons</title>
<g id="a_node9"><a xlink:href="../../tables/mstr_persons.html" xlink:title="mstr_persons" target="_top">
<polygon fill="#ffffff" stroke="transparent" points="545.5,-63.59 545.5,-121.59 676.5,-121.59 676.5,-63.59 545.5,-63.59"/>
<polygon fill="#f5f5f5" stroke="transparent" points="546,-99.59 546,-121.59 677,-121.59 677,-99.59 546,-99.59"/>
<polygon fill="none" stroke="black" points="546,-99.59 546,-121.59 677,-121.59 677,-99.59 546,-99.59"/>
<text text-anchor="start" x="551" y="-108.79" font-family="Helvetica,sans-Serif" font-weight="bold" font-size="11.00">mstr_persons</text>
<text text-anchor="start" x="642" y="-107.79" font-family="Helvetica,sans-Serif" font-size="11.00">[table]</text>
<polygon fill="none" stroke="black" points="546,-81.59 546,-99.59 677,-99.59 677,-81.59 546,-81.59"/>
<text text-anchor="start" x="549" y="-87.79" font-family="Helvetica,sans-Serif" font-size="11.00">...</text>
<polygon fill="#ffffff" stroke="transparent" points="546,-63.59 546,-81.59 605,-81.59 605,-63.59 546,-63.59"/>
<polygon fill="none" stroke="black" points="546,-63.59 546,-81.59 605,-81.59 605,-63.59 546,-63.59"/>
<text text-anchor="start" x="549" y="-69.79" font-family="Helvetica,sans-Serif" font-size="11.00">&lt; 3</text>
<polygon fill="#ffffff" stroke="transparent" points="605,-63.59 605,-81.59 636,-81.59 636,-63.59 605,-63.59"/>
<polygon fill="none" stroke="black" points="605,-63.59 605,-81.59 636,-81.59 636,-63.59 605,-63.59"/>
<text text-anchor="start" x="626" y="-69.79" font-family="Helvetica,sans-Serif" font-size="11.00"> &#160;</text>
<polygon fill="#ffffff" stroke="transparent" points="636,-63.59 636,-81.59 677,-81.59 677,-63.59 636,-63.59"/>
<polygon fill="none" stroke="black" points="636,-63.59 636,-81.59 677,-81.59 677,-63.59 636,-63.59"/>
<text text-anchor="start" x="658" y="-69.79" font-family="Helvetica,sans-Serif" font-size="11.00">2 &gt;</text>
</a>
</g>
</g>
<!-- mstr_entity_person_roles&#45;&gt;mstr_persons -->
<g id="edge14" class="edge">
<title>mstr_entity_person_roles:w&#45;&gt;mstr_persons:e</title>
<path fill="none" stroke="black" d="M816.3,-90.59C760.11,-90.59 740.82,-90.59 678,-90.59"/>
<polygon fill="black" stroke="black" points="823,-90.59 831,-94.19 827,-90.59 831,-90.59 831,-90.59 831,-90.59 827,-90.59 831,-86.99 823,-90.59 823,-90.59"/>
<ellipse fill="none" stroke="black" cx="819.8" cy="-90.59" rx="3.2" ry="3.2"/>
</g>
<!-- mstr_persons&#45;&gt;ms_syst_data.syst_enum_items -->
<g id="edge26" class="edge">
<title>mstr_persons:w&#45;&gt;ms_syst_data.syst_enum_items:e</title>
<path fill="none" stroke="black" d="M530.4,-91.62C429.75,-105.74 339.97,-261.22 298,-330.59 272.62,-372.54 307.53,-433.59 258.5,-433.59"/>
<polygon fill="black" stroke="black" points="537.02,-91.15 545.25,-94.18 541.01,-90.87 545,-90.59 545,-90.59 545,-90.59 541.01,-90.87 544.75,-87 537.02,-91.15 537.02,-91.15"/>
<ellipse fill="none" stroke="black" cx="533.83" cy="-91.38" rx="3.2" ry="3.2"/>
</g>
<!-- mstr_persons&#45;&gt;ms_syst_data.syst_enum_items -->
<g id="edge27" class="edge">
<title>mstr_persons:w&#45;&gt;ms_syst_data.syst_enum_items:e</title>
<path fill="none" stroke="black" d="M530.46,-91.59C428.1,-105.71 340.64,-264.4 298,-334.59 273.4,-375.07 305.87,-433.59 258.5,-433.59"/>
<polygon fill="black" stroke="black" points="537.02,-91.14 545.25,-94.18 541.01,-90.86 545,-90.59 545,-90.59 545,-90.59 541.01,-90.86 544.75,-86.99 537.02,-91.14 537.02,-91.14"/>
<ellipse fill="none" stroke="black" cx="533.83" cy="-91.36" rx="3.2" ry="3.2"/>
</g>
<!-- mstr_persons&#45;&gt;mstr_entities -->
<g id="edge25" class="edge">
<title>mstr_persons:w&#45;&gt;mstr_entities:e</title>
<path fill="none" stroke="black" d="M530.51,-91.57C504.76,-95.42 494.38,-110.57 475,-135.59 446.34,-172.59 460.35,-192.53 442,-235.59 426.87,-271.07 405.81,-309.82 390.55,-336.48"/>
<polygon fill="black" stroke="black" points="537.02,-91.13 545.24,-94.18 541.01,-90.86 545,-90.59 545,-90.59 545,-90.59 541.01,-90.86 544.76,-86.99 537.02,-91.13 537.02,-91.13"/>
<ellipse fill="none" stroke="black" cx="533.83" cy="-91.34" rx="3.2" ry="3.2"/>
</g>
<!-- mstr_entity_purchasing_entities -->
<g id="node10" class="node">
<title>mstr_entity_purchasing_entities</title>
<g id="a_node10"><a xlink:href="../../tables/mstr_entity_purchasing_entities.html" xlink:title="mstr_entity_purchasing_entities" target="_top">
<polygon fill="#ffffff" stroke="transparent" points="483,-302.59 483,-360.59 739,-360.59 739,-302.59 483,-302.59"/>
<polygon fill="#f5f5f5" stroke="transparent" points="483,-338.59 483,-360.59 739,-360.59 739,-338.59 483,-338.59"/>
<polygon fill="none" stroke="black" points="483,-338.59 483,-360.59 739,-360.59 739,-338.59 483,-338.59"/>
<text text-anchor="start" x="488" y="-347.79" font-family="Helvetica,sans-Serif" font-weight="bold" font-size="11.00">mstr_entity_purchasing_entities</text>
<text text-anchor="start" x="704" y="-346.79" font-family="Helvetica,sans-Serif" font-size="11.00">[table]</text>
<polygon fill="none" stroke="black" points="483,-320.59 483,-338.59 739,-338.59 739,-320.59 483,-320.59"/>
<text text-anchor="start" x="486" y="-326.79" font-family="Helvetica,sans-Serif" font-size="11.00">...</text>
<polygon fill="#ffffff" stroke="transparent" points="483,-302.59 483,-320.59 609,-320.59 609,-302.59 483,-302.59"/>
<polygon fill="none" stroke="black" points="483,-302.59 483,-320.59 609,-320.59 609,-302.59 483,-302.59"/>
<text text-anchor="start" x="486" y="-308.79" font-family="Helvetica,sans-Serif" font-size="11.00">&lt; 2</text>
<polygon fill="#ffffff" stroke="transparent" points="609,-302.59 609,-320.59 674,-320.59 674,-302.59 609,-302.59"/>
<polygon fill="none" stroke="black" points="609,-302.59 609,-320.59 674,-320.59 674,-302.59 609,-302.59"/>
<text text-anchor="start" x="664" y="-308.79" font-family="Helvetica,sans-Serif" font-size="11.00"> &#160;</text>
<polygon fill="#ffffff" stroke="transparent" points="674,-302.59 674,-320.59 739,-320.59 739,-302.59 674,-302.59"/>
<polygon fill="none" stroke="black" points="674,-302.59 674,-320.59 739,-320.59 739,-302.59 674,-302.59"/>
<text text-anchor="start" x="729" y="-308.79" font-family="Helvetica,sans-Serif" font-size="11.00"> &#160;</text>
</a>
</g>
</g>
<!-- mstr_entity_purchasing_entities&#45;&gt;mstr_entities -->
<g id="edge15" class="edge">
<title>mstr_entity_purchasing_entities:w&#45;&gt;mstr_entities:e</title>
<path fill="none" stroke="black" d="M467.45,-329.04C453.99,-329.49 440.52,-332.43 428.09,-336.55"/>
<polygon fill="black" stroke="black" points="474.01,-329.28 481.86,-333.18 478,-329.43 482,-329.59 482,-329.59 482,-329.59 478,-329.43 482.14,-325.99 474.01,-329.28 474.01,-329.28"/>
<ellipse fill="none" stroke="black" cx="470.81" cy="-329.16" rx="3.2" ry="3.2"/>
</g>
<!-- mstr_entity_purchasing_entities&#45;&gt;mstr_entities -->
<g id="edge16" class="edge">
<title>mstr_entity_purchasing_entities:w&#45;&gt;mstr_entities:e</title>
<path fill="none" stroke="black" d="M467.65,-332.24C459.1,-334.23 450.53,-336.89 442.23,-339.88"/>
<polygon fill="black" stroke="black" points="474.13,-331.04 482.65,-333.13 478.07,-330.31 482,-329.59 482,-329.59 482,-329.59 478.07,-330.31 481.35,-326.05 474.13,-331.04 474.13,-331.04"/>
<ellipse fill="none" stroke="black" cx="470.99" cy="-331.62" rx="3.2" ry="3.2"/>
</g>
<!-- mstr_entity_selling_entities -->
<g id="node11" class="node">
<title>mstr_entity_selling_entities</title>
<g id="a_node11"><a xlink:href="../../tables/mstr_entity_selling_entities.html" xlink:title="mstr_entity_selling_entities" target="_top">
<polygon fill="#ffffff" stroke="transparent" points="498.5,-196.59 498.5,-254.59 723.5,-254.59 723.5,-196.59 498.5,-196.59"/>
<polygon fill="#f5f5f5" stroke="transparent" points="499,-232.59 499,-254.59 724,-254.59 724,-232.59 499,-232.59"/>
<polygon fill="none" stroke="black" points="499,-232.59 499,-254.59 724,-254.59 724,-232.59 499,-232.59"/>
<text text-anchor="start" x="504" y="-241.79" font-family="Helvetica,sans-Serif" font-weight="bold" font-size="11.00">mstr_entity_selling_entities</text>
<text text-anchor="start" x="689" y="-240.79" font-family="Helvetica,sans-Serif" font-size="11.00">[table]</text>
<polygon fill="none" stroke="black" points="499,-214.59 499,-232.59 724,-232.59 724,-214.59 499,-214.59"/>
<text text-anchor="start" x="502" y="-220.79" font-family="Helvetica,sans-Serif" font-size="11.00">...</text>
<polygon fill="#ffffff" stroke="transparent" points="499,-196.59 499,-214.59 609,-214.59 609,-196.59 499,-196.59"/>
<polygon fill="none" stroke="black" points="499,-196.59 499,-214.59 609,-214.59 609,-196.59 499,-196.59"/>
<text text-anchor="start" x="502" y="-202.79" font-family="Helvetica,sans-Serif" font-size="11.00">&lt; 2</text>
<polygon fill="#ffffff" stroke="transparent" points="609,-196.59 609,-214.59 666,-214.59 666,-196.59 609,-196.59"/>
<polygon fill="none" stroke="black" points="609,-196.59 609,-214.59 666,-214.59 666,-196.59 609,-196.59"/>
<text text-anchor="start" x="656" y="-202.79" font-family="Helvetica,sans-Serif" font-size="11.00"> &#160;</text>
<polygon fill="#ffffff" stroke="transparent" points="666,-196.59 666,-214.59 724,-214.59 724,-196.59 666,-196.59"/>
<polygon fill="none" stroke="black" points="666,-196.59 666,-214.59 724,-214.59 724,-196.59 666,-196.59"/>
<text text-anchor="start" x="714" y="-202.79" font-family="Helvetica,sans-Serif" font-size="11.00"> &#160;</text>
</a>
</g>
</g>
<!-- mstr_entity_selling_entities&#45;&gt;mstr_entities -->
<g id="edge17" class="edge">
<title>mstr_entity_selling_entities:w&#45;&gt;mstr_entities:e</title>
<path fill="none" stroke="black" d="M483.41,-224.03C430.7,-231.04 397.06,-295.53 381.37,-336.34"/>
<polygon fill="black" stroke="black" points="490,-223.83 498.11,-227.18 494,-223.71 498,-223.59 498,-223.59 498,-223.59 494,-223.71 497.89,-219.99 490,-223.83 490,-223.83"/>
<ellipse fill="none" stroke="black" cx="486.81" cy="-223.93" rx="3.2" ry="3.2"/>
</g>
<!-- mstr_entity_selling_entities&#45;&gt;mstr_entities -->
<g id="edge18" class="edge">
<title>mstr_entity_selling_entities:w&#45;&gt;mstr_entities:e</title>
<path fill="none" stroke="black" d="M483.67,-226.1C434.45,-239.47 401.81,-298.15 384.87,-336.28"/>
<polygon fill="black" stroke="black" points="490.12,-224.97 498.62,-227.13 494.06,-224.28 498,-223.59 498,-223.59 498,-223.59 494.06,-224.28 497.38,-220.04 490.12,-224.97 490.12,-224.97"/>
<ellipse fill="none" stroke="black" cx="486.97" cy="-225.52" rx="3.2" ry="3.2"/>
</g>
<!-- mstr_entity_staff_entities -->
<g id="node12" class="node">
<title>mstr_entity_staff_entities</title>
<g id="a_node12"><a xlink:href="../../tables/mstr_entity_staff_entities.html" xlink:title="mstr_entity_staff_entities" target="_top">
<polygon fill="#ffffff" stroke="transparent" points="505,-460.59 505,-518.59 717,-518.59 717,-460.59 505,-460.59"/>
<polygon fill="#f5f5f5" stroke="transparent" points="505,-496.59 505,-518.59 717,-518.59 717,-496.59 505,-496.59"/>
<polygon fill="none" stroke="black" points="505,-496.59 505,-518.59 717,-518.59 717,-496.59 505,-496.59"/>
<text text-anchor="start" x="510" y="-505.79" font-family="Helvetica,sans-Serif" font-weight="bold" font-size="11.00">mstr_entity_staff_entities</text>
<text text-anchor="start" x="682" y="-504.79" font-family="Helvetica,sans-Serif" font-size="11.00">[table]</text>
<polygon fill="none" stroke="black" points="505,-478.59 505,-496.59 717,-496.59 717,-478.59 505,-478.59"/>
<text text-anchor="start" x="508" y="-484.79" font-family="Helvetica,sans-Serif" font-size="11.00">...</text>
<polygon fill="#ffffff" stroke="transparent" points="505,-460.59 505,-478.59 609,-478.59 609,-460.59 505,-460.59"/>
<polygon fill="none" stroke="black" points="505,-460.59 505,-478.59 609,-478.59 609,-460.59 505,-460.59"/>
<text text-anchor="start" x="508" y="-466.79" font-family="Helvetica,sans-Serif" font-size="11.00">&lt; 2</text>
<polygon fill="#ffffff" stroke="transparent" points="609,-460.59 609,-478.59 663,-478.59 663,-460.59 609,-460.59"/>
<polygon fill="none" stroke="black" points="609,-460.59 609,-478.59 663,-478.59 663,-460.59 609,-460.59"/>
<text text-anchor="start" x="653" y="-466.79" font-family="Helvetica,sans-Serif" font-size="11.00"> &#160;</text>
<polygon fill="#ffffff" stroke="transparent" points="663,-460.59 663,-478.59 717,-478.59 717,-460.59 663,-460.59"/>
<polygon fill="none" stroke="black" points="663,-460.59 663,-478.59 717,-478.59 717,-460.59 663,-460.59"/>
<text text-anchor="start" x="707" y="-466.79" font-family="Helvetica,sans-Serif" font-size="11.00"> &#160;</text>
</a>
</g>
</g>
<!-- mstr_entity_staff_entities&#45;&gt;mstr_entities -->
<g id="edge19" class="edge">
<title>mstr_entity_staff_entities:w&#45;&gt;mstr_entities:e</title>
<path fill="none" stroke="black" d="M489.54,-485.22C446.89,-474.51 412.74,-432.99 392.25,-402.7"/>
<polygon fill="black" stroke="black" points="496.1,-486.29 503.42,-491.14 500.05,-486.94 504,-487.59 504,-487.59 504,-487.59 500.05,-486.94 504.58,-484.03 496.1,-486.29 496.1,-486.29"/>
<ellipse fill="none" stroke="black" cx="492.95" cy="-485.78" rx="3.2" ry="3.2"/>
</g>
<!-- mstr_entity_staff_entities&#45;&gt;mstr_entities -->
<g id="edge20" class="edge">
<title>mstr_entity_staff_entities:w&#45;&gt;mstr_entities:e</title>
<path fill="none" stroke="black" d="M489.51,-487.49C442.73,-482.75 406.18,-435.99 386.66,-402.72"/>
<polygon fill="black" stroke="black" points="496,-487.54 503.98,-491.19 500,-487.56 504,-487.59 504,-487.59 504,-487.59 500,-487.56 504.02,-483.99 496,-487.54 496,-487.54"/>
<ellipse fill="none" stroke="black" cx="492.8" cy="-487.51" rx="3.2" ry="3.2"/>
</g>
<!-- mstr_person_contact_roles -->
<g id="node13" class="node">
<title>mstr_person_contact_roles</title>
<g id="a_node13"><a xlink:href="../../tables/mstr_person_contact_roles.html" xlink:title="mstr_person_contact_roles" target="_top">
<polygon fill="#ffffff" stroke="transparent" points="826,-579.59 826,-637.59 1046,-637.59 1046,-579.59 826,-579.59"/>
<polygon fill="#f5f5f5" stroke="transparent" points="826,-615.59 826,-637.59 1046,-637.59 1046,-615.59 826,-615.59"/>
<polygon fill="none" stroke="black" points="826,-615.59 826,-637.59 1046,-637.59 1046,-615.59 826,-615.59"/>
<text text-anchor="start" x="831" y="-624.79" font-family="Helvetica,sans-Serif" font-weight="bold" font-size="11.00">mstr_person_contact_roles</text>
<text text-anchor="start" x="1011" y="-623.79" font-family="Helvetica,sans-Serif" font-size="11.00">[table]</text>
<polygon fill="none" stroke="black" points="826,-597.59 826,-615.59 1046,-615.59 1046,-597.59 826,-597.59"/>
<text text-anchor="start" x="829" y="-603.79" font-family="Helvetica,sans-Serif" font-size="11.00">...</text>
<polygon fill="#ffffff" stroke="transparent" points="826,-579.59 826,-597.59 934,-597.59 934,-579.59 826,-579.59"/>
<polygon fill="none" stroke="black" points="826,-579.59 826,-597.59 934,-597.59 934,-579.59 826,-579.59"/>
<text text-anchor="start" x="829" y="-585.79" font-family="Helvetica,sans-Serif" font-size="11.00">&lt; 4</text>
<polygon fill="#ffffff" stroke="transparent" points="934,-579.59 934,-597.59 990,-597.59 990,-579.59 934,-579.59"/>
<polygon fill="none" stroke="black" points="934,-579.59 934,-597.59 990,-597.59 990,-579.59 934,-579.59"/>
<text text-anchor="start" x="980" y="-585.79" font-family="Helvetica,sans-Serif" font-size="11.00"> &#160;</text>
<polygon fill="#ffffff" stroke="transparent" points="990,-579.59 990,-597.59 1046,-597.59 1046,-579.59 990,-579.59"/>
<polygon fill="none" stroke="black" points="990,-579.59 990,-597.59 1046,-597.59 1046,-579.59 990,-579.59"/>
<text text-anchor="start" x="1036" y="-585.79" font-family="Helvetica,sans-Serif" font-size="11.00"> &#160;</text>
</a>
</g>
</g>
<!-- mstr_person_contact_roles&#45;&gt;mstr_contacts -->
<g id="edge21" class="edge">
<title>mstr_person_contact_roles:w&#45;&gt;mstr_contacts:e</title>
<path fill="none" stroke="black" d="M810.32,-607.26C756.13,-612.44 741.52,-645.59 680,-645.59"/>
<polygon fill="black" stroke="black" points="817.01,-606.95 825.17,-610.18 821,-606.77 825,-606.59 825,-606.59 825,-606.59 821,-606.77 824.83,-602.99 817.01,-606.95 817.01,-606.95"/>
<ellipse fill="none" stroke="black" cx="813.81" cy="-607.1" rx="3.2" ry="3.2"/>
</g>
<!-- mstr_person_contact_roles&#45;&gt;ms_syst_data.syst_enum_items -->
<g id="edge22" class="edge">
<title>mstr_person_contact_roles:w&#45;&gt;ms_syst_data.syst_enum_items:e</title>
<path fill="none" stroke="black" d="M810.44,-608.8C778.27,-619.97 787.78,-670.24 747,-687.59 635.75,-734.9 589.94,-725.03 475,-687.59 382.44,-657.44 354.84,-637.61 298,-558.59 263.98,-511.29 316.76,-433.59 258.5,-433.59"/>
<polygon fill="black" stroke="black" points="817.09,-607.79 825.54,-610.15 821.05,-607.19 825,-606.59 825,-606.59 825,-606.59 821.05,-607.19 824.46,-603.03 817.09,-607.79 817.09,-607.79"/>
<ellipse fill="none" stroke="black" cx="813.93" cy="-608.27" rx="3.2" ry="3.2"/>
</g>
<!-- mstr_person_contact_roles&#45;&gt;mstr_places -->
<g id="edge24" class="edge">
<title>mstr_person_contact_roles:w&#45;&gt;mstr_places:e</title>
<path fill="none" stroke="black" d="M810.39,-606.31C765.02,-604.63 716.68,-595.61 679.08,-586.81"/>
<polygon fill="black" stroke="black" points="817,-606.43 824.93,-610.19 821,-606.51 825,-606.59 825,-606.59 825,-606.59 821,-606.51 825.07,-602.99 817,-606.43 817,-606.43"/>
<ellipse fill="none" stroke="black" cx="813.8" cy="-606.37" rx="3.2" ry="3.2"/>
</g>
<!-- mstr_person_contact_roles&#45;&gt;mstr_persons -->
<g id="edge23" class="edge">
<title>mstr_person_contact_roles:w&#45;&gt;mstr_persons:e</title>
<path fill="none" stroke="black" d="M810.3,-604.23C794.28,-598.21 789.52,-581.29 780,-560.59 710.09,-408.58 805.62,-342.29 747,-185.59 728.72,-136.71 730.18,-90.59 678,-90.59"/>
<polygon fill="black" stroke="black" points="817.1,-605.32 824.43,-610.14 821.05,-605.95 825,-606.59 825,-606.59 825,-606.59 821.05,-605.95 825.57,-603.03 817.1,-605.32 817.1,-605.32"/>
<ellipse fill="none" stroke="black" cx="813.94" cy="-604.81" rx="3.2" ry="3.2"/>
</g>
</g>
</svg>
