<?xml version="1.0" encoding="UTF-8" standalone="no"?>
<!DOCTYPE svg PUBLIC "-//W3C//DTD SVG 1.1//EN"
 "http://www.w3.org/Graphics/SVG/1.1/DTD/svg11.dtd">
<!-- Generated by graphviz version 2.43.0 (0)
 -->
<!-- Title: twoDegreesRelationshipsDiagram Pages: 1 -->
<svg width="1143pt" height="900pt"
 viewBox="0.00 0.00 1143.00 899.77" xmlns="http://www.w3.org/2000/svg" xmlns:xlink="http://www.w3.org/1999/xlink">
<g id="graph0" class="graph" transform="scale(1 1) rotate(0) translate(4 895.77)">
<title>twoDegreesRelationshipsDiagram</title>
<polygon fill="#ffffff" stroke="transparent" points="-4,4 -4,-895.77 1139,-895.77 1139,4 -4,4"/>
<text text-anchor="middle" x="71.5" y="-7.2" font-family="Helvetica,sans-Serif" font-size="11.00">Generated by SchemaSpy</text>
<!-- mstr_contacts -->
<g id="node1" class="node">
<title>mstr_contacts</title>
<g id="a_node1"><a xlink:href="../../tables/mstr_contacts.html" xlink:title="mstr_contacts" target="_top">
<polygon fill="#ffffff" stroke="transparent" points="627.5,-829.77 627.5,-887.77 762.5,-887.77 762.5,-829.77 627.5,-829.77"/>
<polygon fill="#f5f5f5" stroke="transparent" points="628,-865.77 628,-887.77 763,-887.77 763,-865.77 628,-865.77"/>
<polygon fill="none" stroke="black" points="628,-865.77 628,-887.77 763,-887.77 763,-865.77 628,-865.77"/>
<text text-anchor="start" x="633" y="-874.97" font-family="Helvetica,sans-Serif" font-weight="bold" font-size="11.00">mstr_contacts</text>
<text text-anchor="start" x="728" y="-873.97" font-family="Helvetica,sans-Serif" font-size="11.00">[table]</text>
<polygon fill="none" stroke="black" points="628,-847.77 628,-865.77 763,-865.77 763,-847.77 628,-847.77"/>
<text text-anchor="start" x="631" y="-853.97" font-family="Helvetica,sans-Serif" font-size="11.00">...</text>
<polygon fill="#ffffff" stroke="transparent" points="628,-829.77 628,-847.77 689,-847.77 689,-829.77 628,-829.77"/>
<polygon fill="none" stroke="black" points="628,-829.77 628,-847.77 689,-847.77 689,-829.77 628,-829.77"/>
<text text-anchor="start" x="631" y="-835.97" font-family="Helvetica,sans-Serif" font-size="11.00">&lt; 3</text>
<polygon fill="#ffffff" stroke="transparent" points="689,-829.77 689,-847.77 721,-847.77 721,-829.77 689,-829.77"/>
<polygon fill="none" stroke="black" points="689,-829.77 689,-847.77 721,-847.77 721,-829.77 689,-829.77"/>
<text text-anchor="start" x="711" y="-835.97" font-family="Helvetica,sans-Serif" font-size="11.00"> &#160;</text>
<polygon fill="#ffffff" stroke="transparent" points="721,-829.77 721,-847.77 763,-847.77 763,-829.77 721,-829.77"/>
<polygon fill="none" stroke="black" points="721,-829.77 721,-847.77 763,-847.77 763,-829.77 721,-829.77"/>
<text text-anchor="start" x="744" y="-835.97" font-family="Helvetica,sans-Serif" font-size="11.00">1 &gt;</text>
</a>
</g>
</g>
<!-- ms_syst_data.syst_enum_items -->
<g id="node2" class="node">
<title>ms_syst_data.syst_enum_items</title>
<g id="a_node2"><a xlink:href="../../../ms_syst_data/tables/syst_enum_items.html" xlink:title="ms_syst_data.syst_enum_items" target="_top">
<polygon fill="#ffffff" stroke="transparent" points="8,-477.77 8,-535.77 257,-535.77 257,-477.77 8,-477.77"/>
<polygon fill="#f5f5f5" stroke="transparent" points="8.5,-513.77 8.5,-535.77 257.5,-535.77 257.5,-513.77 8.5,-513.77"/>
<polygon fill="none" stroke="black" points="8.5,-513.77 8.5,-535.77 257.5,-535.77 257.5,-513.77 8.5,-513.77"/>
<text text-anchor="start" x="13.5" y="-522.97" font-family="Helvetica,sans-Serif" font-weight="bold" font-size="11.00">ms_syst_data.syst_enum_items</text>
<text text-anchor="start" x="222.5" y="-521.97" font-family="Helvetica,sans-Serif" font-size="11.00">[table]</text>
<polygon fill="none" stroke="black" points="8.5,-495.77 8.5,-513.77 257.5,-513.77 257.5,-495.77 8.5,-495.77"/>
<text text-anchor="start" x="11.5" y="-501.97" font-family="Helvetica,sans-Serif" font-size="11.00">...</text>
<polygon fill="#ffffff" stroke="transparent" points="8.5,-477.77 8.5,-495.77 118.5,-495.77 118.5,-477.77 8.5,-477.77"/>
<polygon fill="none" stroke="black" points="8.5,-477.77 8.5,-495.77 118.5,-495.77 118.5,-477.77 8.5,-477.77"/>
<text text-anchor="start" x="11.5" y="-483.97" font-family="Helvetica,sans-Serif" font-size="11.00"> &#160;</text>
<polygon fill="#ffffff" stroke="transparent" points="118.5,-477.77 118.5,-495.77 180.5,-495.77 180.5,-477.77 118.5,-477.77"/>
<polygon fill="none" stroke="black" points="118.5,-477.77 118.5,-495.77 180.5,-495.77 180.5,-477.77 118.5,-477.77"/>
<text text-anchor="start" x="170.5" y="-483.97" font-family="Helvetica,sans-Serif" font-size="11.00"> &#160;</text>
<polygon fill="#ffffff" stroke="transparent" points="180.5,-477.77 180.5,-495.77 257.5,-495.77 257.5,-477.77 180.5,-477.77"/>
<polygon fill="none" stroke="black" points="180.5,-477.77 180.5,-495.77 257.5,-495.77 257.5,-477.77 180.5,-477.77"/>
<text text-anchor="start" x="232.5" y="-483.97" font-family="Helvetica,sans-Serif" font-size="11.00">10 &gt;</text>
</a>
</g>
</g>
<!-- mstr_contacts&#45;&gt;ms_syst_data.syst_enum_items -->
<g id="edge1" class="edge">
<title>mstr_contacts:w&#45;&gt;ms_syst_data.syst_enum_items:e</title>
<path fill="none" stroke="black" d="M612.34,-856.71C463.48,-855.61 394.36,-836.04 298,-715.77 238.34,-641.31 353.91,-504.77 258.5,-504.77"/>
<polygon fill="black" stroke="black" points="619,-856.74 626.99,-860.37 623,-856.75 627,-856.77 627,-856.77 627,-856.77 623,-856.75 627.01,-853.17 619,-856.74 619,-856.74"/>
<ellipse fill="none" stroke="black" cx="615.8" cy="-856.73" rx="3.2" ry="3.2"/>
</g>
<!-- mstr_contacts&#45;&gt;ms_syst_data.syst_enum_items -->
<g id="edge2" class="edge">
<title>mstr_contacts:w&#45;&gt;ms_syst_data.syst_enum_items:e</title>
<path fill="none" stroke="black" d="M612.27,-856.29C538.85,-851.87 380.68,-816.01 298,-711.77 239.8,-638.39 352.16,-504.77 258.5,-504.77"/>
<polygon fill="black" stroke="black" points="619,-856.51 626.88,-860.36 623,-856.64 627,-856.77 627,-856.77 627,-856.77 623,-856.64 627.12,-853.17 619,-856.51 619,-856.51"/>
<ellipse fill="none" stroke="black" cx="615.81" cy="-856.4" rx="3.2" ry="3.2"/>
</g>
<!-- mstr_entities -->
<g id="node3" class="node">
<title>mstr_entities</title>
<g id="a_node3"><a xlink:href="../../tables/mstr_entities.html" xlink:title="mstr_entities" target="_top">
<polygon fill="#ffffff" stroke="transparent" points="306,-435.77 306,-625.77 500,-625.77 500,-435.77 306,-435.77"/>
<polygon fill="#f5f5f5" stroke="transparent" points="306,-603.77 306,-625.77 500,-625.77 500,-603.77 306,-603.77"/>
<polygon fill="none" stroke="black" points="306,-603.77 306,-625.77 500,-625.77 500,-603.77 306,-603.77"/>
<text text-anchor="start" x="311" y="-612.97" font-family="Helvetica,sans-Serif" font-weight="bold" font-size="11.00">mstr_entities</text>
<text text-anchor="start" x="465" y="-611.97" font-family="Helvetica,sans-Serif" font-size="11.00">[table]</text>
<polygon fill="none" stroke="black" points="306,-581.77 306,-603.77 500,-603.77 500,-581.77 306,-581.77"/>
<image xlink:href="../../images/primaryKeys.png" width="11px" height="12px" preserveAspectRatio="xMinYMin meet" x="311" y="-598.766"/>
<text text-anchor="start" x="326" y="-589.97" font-family="Helvetica,sans-Serif" font-size="11.00">id</text>
<polygon fill="none" stroke="black" points="306,-559.77 306,-581.77 500,-581.77 500,-559.77 306,-559.77"/>
<image xlink:href="../../images/foreignKeys.png" width="11px" height="12px" preserveAspectRatio="xMinYMin meet" x="311" y="-576.766"/>
<text text-anchor="start" x="326" y="-567.97" font-family="Helvetica,sans-Serif" font-size="11.00">owning_entity_id</text>
<polygon fill="#ffffff" stroke="transparent" points="306,-537.77 306,-559.77 500,-559.77 500,-537.77 306,-537.77"/>
<polygon fill="none" stroke="black" points="306,-537.77 306,-559.77 500,-559.77 500,-537.77 306,-537.77"/>
<text text-anchor="start" x="326" y="-545.97" font-family="Helvetica,sans-Serif" font-size="11.00">internal_name</text>
<polygon fill="#ffffff" stroke="transparent" points="306,-515.77 306,-537.77 500,-537.77 500,-515.77 306,-515.77"/>
<polygon fill="none" stroke="black" points="306,-515.77 306,-537.77 500,-537.77 500,-515.77 306,-515.77"/>
<text text-anchor="start" x="326" y="-523.97" font-family="Helvetica,sans-Serif" font-size="11.00">display_name</text>
<polygon fill="none" stroke="black" points="306,-493.77 306,-515.77 500,-515.77 500,-493.77 306,-493.77"/>
<image xlink:href="../../images/foreignKeys.png" width="11px" height="12px" preserveAspectRatio="xMinYMin meet" x="311" y="-510.766"/>
<text text-anchor="start" x="326" y="-501.97" font-family="Helvetica,sans-Serif" font-size="11.00">entity_type_id</text>
<polygon fill="none" stroke="black" points="306,-471.77 306,-493.77 500,-493.77 500,-471.77 306,-471.77"/>
<image xlink:href="../../images/foreignKeys.png" width="11px" height="12px" preserveAspectRatio="xMinYMin meet" x="311" y="-488.766"/>
<text text-anchor="start" x="326" y="-479.97" font-family="Helvetica,sans-Serif" font-size="11.00">entity_state_id</text>
<polygon fill="none" stroke="black" points="306,-453.77 306,-471.77 500,-471.77 500,-453.77 306,-453.77"/>
<text text-anchor="start" x="309" y="-459.97" font-family="Helvetica,sans-Serif" font-size="11.00">...</text>
<polygon fill="#ffffff" stroke="transparent" points="306,-435.77 306,-453.77 393,-453.77 393,-435.77 306,-435.77"/>
<polygon fill="none" stroke="black" points="306,-435.77 306,-453.77 393,-453.77 393,-435.77 306,-435.77"/>
<text text-anchor="start" x="309" y="-441.97" font-family="Helvetica,sans-Serif" font-size="11.00">&lt; 3</text>
<polygon fill="#ffffff" stroke="transparent" points="393,-435.77 393,-453.77 439,-453.77 439,-435.77 393,-435.77"/>
<polygon fill="none" stroke="black" points="393,-435.77 393,-453.77 439,-453.77 439,-435.77 393,-435.77"/>
<text text-anchor="start" x="429" y="-441.97" font-family="Helvetica,sans-Serif" font-size="11.00"> &#160;</text>
<polygon fill="#ffffff" stroke="transparent" points="439,-435.77 439,-453.77 500,-453.77 500,-435.77 439,-435.77"/>
<polygon fill="none" stroke="black" points="439,-435.77 439,-453.77 500,-453.77 500,-435.77 439,-435.77"/>
<text text-anchor="start" x="475" y="-441.97" font-family="Helvetica,sans-Serif" font-size="11.00">15 &gt;</text>
</a>
</g>
</g>
<!-- mstr_contacts&#45;&gt;mstr_entities -->
<g id="edge3" class="edge">
<title>mstr_contacts:w&#45;&gt;mstr_entities:e</title>
<path fill="none" stroke="black" d="M612.42,-856.51C580.63,-855.23 563.59,-848.32 541,-819.77 509.21,-779.6 552.22,-592.77 501,-592.77"/>
<polygon fill="black" stroke="black" points="619,-856.63 626.94,-860.37 623,-856.7 627,-856.77 627,-856.77 627,-856.77 623,-856.7 627.06,-853.17 619,-856.63 619,-856.63"/>
<ellipse fill="none" stroke="black" cx="615.8" cy="-856.57" rx="3.2" ry="3.2"/>
</g>
<!-- mstr_entities&#45;&gt;ms_syst_data.syst_enum_items -->
<g id="edge4" class="edge">
<title>mstr_entities:w&#45;&gt;ms_syst_data.syst_enum_items:e</title>
<path fill="none" stroke="black" d="M290.96,-486.4C280.27,-492.65 275.47,-504.77 258.5,-504.77"/>
<polygon fill="black" stroke="black" points="297.26,-484.77 305.9,-486.25 301.13,-483.77 305,-482.77 305,-482.77 305,-482.77 301.13,-483.77 304.1,-479.28 297.26,-484.77 297.26,-484.77"/>
<ellipse fill="none" stroke="black" cx="294.16" cy="-485.57" rx="3.2" ry="3.2"/>
</g>
<!-- mstr_entities&#45;&gt;ms_syst_data.syst_enum_items -->
<g id="edge5" class="edge">
<title>mstr_entities:w&#45;&gt;ms_syst_data.syst_enum_items:e</title>
<path fill="none" stroke="black" d="M290.55,-504.77C280.2,-504.77 273.35,-504.77 258.5,-504.77"/>
<polygon fill="black" stroke="black" points="297,-504.77 305,-508.37 301,-504.77 305,-504.77 305,-504.77 305,-504.77 301,-504.77 305,-501.17 297,-504.77 297,-504.77"/>
<ellipse fill="none" stroke="black" cx="293.8" cy="-504.77" rx="3.2" ry="3.2"/>
</g>
<!-- mstr_entity_bank_entities -->
<g id="node4" class="node">
<title>mstr_entity_bank_entities</title>
<g id="a_node4"><a xlink:href="../../tables/mstr_entity_bank_entities.html" xlink:title="mstr_entity_bank_entities" target="_top">
<polygon fill="#ffffff" stroke="transparent" points="549,-147.77 549,-411.77 841,-411.77 841,-147.77 549,-147.77"/>
<polygon fill="#f5f5f5" stroke="transparent" points="551,-387.77 551,-409.77 839,-409.77 839,-387.77 551,-387.77"/>
<polygon fill="none" stroke="black" points="551,-387.77 551,-409.77 839,-409.77 839,-387.77 551,-387.77"/>
<text text-anchor="start" x="556" y="-396.97" font-family="Helvetica,sans-Serif" font-weight="bold" font-size="11.00">mstr_entity_bank_entities</text>
<text text-anchor="start" x="804" y="-395.97" font-family="Helvetica,sans-Serif" font-size="11.00">[table]</text>
<polygon fill="none" stroke="black" points="551,-365.77 551,-387.77 746,-387.77 746,-365.77 551,-365.77"/>
<image xlink:href="../../images/primaryKeys.png" width="11px" height="12px" preserveAspectRatio="xMinYMin meet" x="556" y="-382.766"/>
<text text-anchor="start" x="571" y="-373.97" font-family="Helvetica,sans-Serif" font-size="11.00">id</text>
<polygon fill="none" stroke="black" points="746,-365.77 746,-387.77 839,-387.77 839,-365.77 746,-365.77"/>
<text text-anchor="start" x="749" y="-373.97" font-family="Helvetica,sans-Serif" font-size="11.00">uuid[2147483647]</text>
<polygon fill="#ffffff" stroke="transparent" points="551,-343.77 551,-365.77 746,-365.77 746,-343.77 551,-343.77"/>
<polygon fill="none" stroke="black" points="551,-343.77 551,-365.77 746,-365.77 746,-343.77 551,-343.77"/>
<image xlink:href="../../images/foreignKeys.png" width="11px" height="12px" preserveAspectRatio="xMinYMin meet" x="556" y="-360.766"/>
<text text-anchor="start" x="571" y="-351.97" font-family="Helvetica,sans-Serif" font-size="11.00">entity_id</text>
<polygon fill="none" stroke="black" points="746,-343.77 746,-365.77 839,-365.77 839,-343.77 746,-343.77"/>
<text text-anchor="start" x="749" y="-351.97" font-family="Helvetica,sans-Serif" font-size="11.00">uuid[2147483647]</text>
<polygon fill="#ffffff" stroke="transparent" points="551,-321.77 551,-343.77 746,-343.77 746,-321.77 551,-321.77"/>
<polygon fill="none" stroke="black" points="551,-321.77 551,-343.77 746,-343.77 746,-321.77 551,-321.77"/>
<image xlink:href="../../images/foreignKeys.png" width="11px" height="12px" preserveAspectRatio="xMinYMin meet" x="556" y="-338.766"/>
<text text-anchor="start" x="571" y="-329.97" font-family="Helvetica,sans-Serif" font-size="11.00">owning_entity_id</text>
<polygon fill="none" stroke="black" points="746,-321.77 746,-343.77 839,-343.77 839,-321.77 746,-321.77"/>
<text text-anchor="start" x="749" y="-329.97" font-family="Helvetica,sans-Serif" font-size="11.00">uuid[2147483647]</text>
<polygon fill="none" stroke="black" points="551,-299.77 551,-321.77 746,-321.77 746,-299.77 551,-299.77"/>
<text text-anchor="start" x="571" y="-307.97" font-family="Helvetica,sans-Serif" font-size="11.00">diag_timestamp_created</text>
<polygon fill="none" stroke="black" points="746,-299.77 746,-321.77 839,-321.77 839,-299.77 746,-299.77"/>
<text text-anchor="start" x="749" y="-307.97" font-family="Helvetica,sans-Serif" font-size="11.00">timestamptz[35,6]</text>
<polygon fill="none" stroke="black" points="551,-277.77 551,-299.77 746,-299.77 746,-277.77 551,-277.77"/>
<text text-anchor="start" x="571" y="-285.97" font-family="Helvetica,sans-Serif" font-size="11.00">diag_role_created</text>
<polygon fill="none" stroke="black" points="746,-277.77 746,-299.77 839,-299.77 839,-277.77 746,-277.77"/>
<text text-anchor="start" x="749" y="-285.97" font-family="Helvetica,sans-Serif" font-size="11.00">text[2147483647]</text>
<polygon fill="none" stroke="black" points="551,-255.77 551,-277.77 746,-277.77 746,-255.77 551,-255.77"/>
<text text-anchor="start" x="571" y="-263.97" font-family="Helvetica,sans-Serif" font-size="11.00">diag_timestamp_modified</text>
<polygon fill="none" stroke="black" points="746,-255.77 746,-277.77 839,-277.77 839,-255.77 746,-255.77"/>
<text text-anchor="start" x="749" y="-263.97" font-family="Helvetica,sans-Serif" font-size="11.00">timestamptz[35,6]</text>
<polygon fill="none" stroke="black" points="551,-233.77 551,-255.77 746,-255.77 746,-233.77 551,-233.77"/>
<text text-anchor="start" x="571" y="-241.97" font-family="Helvetica,sans-Serif" font-size="11.00">diag_wallclock_modified</text>
<polygon fill="none" stroke="black" points="746,-233.77 746,-255.77 839,-255.77 839,-233.77 746,-233.77"/>
<text text-anchor="start" x="749" y="-241.97" font-family="Helvetica,sans-Serif" font-size="11.00">timestamptz[35,6]</text>
<polygon fill="none" stroke="black" points="551,-211.77 551,-233.77 746,-233.77 746,-211.77 551,-211.77"/>
<text text-anchor="start" x="571" y="-219.97" font-family="Helvetica,sans-Serif" font-size="11.00">diag_role_modified</text>
<polygon fill="none" stroke="black" points="746,-211.77 746,-233.77 839,-233.77 839,-211.77 746,-211.77"/>
<text text-anchor="start" x="749" y="-219.97" font-family="Helvetica,sans-Serif" font-size="11.00">text[2147483647]</text>
<polygon fill="none" stroke="black" points="551,-189.77 551,-211.77 746,-211.77 746,-189.77 551,-189.77"/>
<text text-anchor="start" x="571" y="-197.97" font-family="Helvetica,sans-Serif" font-size="11.00">diag_row_version</text>
<polygon fill="none" stroke="black" points="746,-189.77 746,-211.77 839,-211.77 839,-189.77 746,-189.77"/>
<text text-anchor="start" x="749" y="-197.97" font-family="Helvetica,sans-Serif" font-size="11.00">int8[19]</text>
<polygon fill="none" stroke="black" points="551,-167.77 551,-189.77 746,-189.77 746,-167.77 551,-167.77"/>
<text text-anchor="start" x="571" y="-175.97" font-family="Helvetica,sans-Serif" font-size="11.00">diag_update_count</text>
<polygon fill="none" stroke="black" points="746,-167.77 746,-189.77 839,-189.77 839,-167.77 746,-167.77"/>
<text text-anchor="start" x="749" y="-175.97" font-family="Helvetica,sans-Serif" font-size="11.00">int8[19]</text>
<polygon fill="#ffffff" stroke="transparent" points="551,-149.77 551,-167.77 653,-167.77 653,-149.77 551,-149.77"/>
<polygon fill="none" stroke="black" points="551,-149.77 551,-167.77 653,-167.77 653,-149.77 551,-149.77"/>
<text text-anchor="start" x="554" y="-155.97" font-family="Helvetica,sans-Serif" font-size="11.00">&lt; 2</text>
<polygon fill="#ffffff" stroke="transparent" points="653,-149.77 653,-167.77 746,-167.77 746,-149.77 653,-149.77"/>
<polygon fill="none" stroke="black" points="653,-149.77 653,-167.77 746,-167.77 746,-149.77 653,-149.77"/>
<text text-anchor="start" x="736" y="-155.97" font-family="Helvetica,sans-Serif" font-size="11.00"> &#160;</text>
<polygon fill="#ffffff" stroke="transparent" points="746,-149.77 746,-167.77 839,-167.77 839,-149.77 746,-149.77"/>
<polygon fill="none" stroke="black" points="746,-149.77 746,-167.77 839,-167.77 839,-149.77 746,-149.77"/>
<text text-anchor="start" x="820" y="-155.97" font-family="Helvetica,sans-Serif" font-size="11.00">0 &gt;</text>
<polygon fill="none" stroke="black" stroke-width="2" points="550,-148.77 550,-410.77 840,-410.77 840,-148.77 550,-148.77"/>
</a>
</g>
</g>
<!-- mstr_entity_bank_entities&#45;&gt;mstr_entities -->
<g id="edge6" class="edge">
<title>mstr_entity_bank_entities:w&#45;&gt;mstr_entities:e</title>
<path fill="none" stroke="black" d="M535.6,-356.54C458.25,-378.32 603.51,-592.77 501,-592.77"/>
<polygon fill="black" stroke="black" points="542.06,-355.75 550.44,-358.34 546.03,-355.26 550,-354.77 550,-354.77 550,-354.77 546.03,-355.26 549.56,-351.19 542.06,-355.75 542.06,-355.75"/>
<ellipse fill="none" stroke="black" cx="538.88" cy="-356.14" rx="3.2" ry="3.2"/>
</g>
<!-- mstr_entity_bank_entities&#45;&gt;mstr_entities -->
<g id="edge7" class="edge">
<title>mstr_entity_bank_entities:w&#45;&gt;mstr_entities:e</title>
<path fill="none" stroke="black" d="M536.61,-339.19C502.95,-379.23 554.28,-592.77 501,-592.77"/>
<polygon fill="black" stroke="black" points="542.79,-336.23 551.56,-336.01 546.39,-334.5 550,-332.77 550,-332.77 550,-332.77 546.39,-334.5 548.44,-329.52 542.79,-336.23 542.79,-336.23"/>
<ellipse fill="none" stroke="black" cx="539.9" cy="-337.61" rx="3.2" ry="3.2"/>
</g>
<!-- mstr_entity_facility_places -->
<g id="node5" class="node">
<title>mstr_entity_facility_places</title>
<g id="a_node5"><a xlink:href="../../tables/mstr_entity_facility_places.html" xlink:title="mstr_entity_facility_places" target="_top">
<polygon fill="#ffffff" stroke="transparent" points="899.5,-724.77 899.5,-782.77 1117.5,-782.77 1117.5,-724.77 899.5,-724.77"/>
<polygon fill="#f5f5f5" stroke="transparent" points="899.5,-760.77 899.5,-782.77 1117.5,-782.77 1117.5,-760.77 899.5,-760.77"/>
<polygon fill="none" stroke="black" points="899.5,-760.77 899.5,-782.77 1117.5,-782.77 1117.5,-760.77 899.5,-760.77"/>
<text text-anchor="start" x="904.5" y="-769.97" font-family="Helvetica,sans-Serif" font-weight="bold" font-size="11.00">mstr_entity_facility_places</text>
<text text-anchor="start" x="1082.5" y="-768.97" font-family="Helvetica,sans-Serif" font-size="11.00">[table]</text>
<polygon fill="none" stroke="black" points="899.5,-742.77 899.5,-760.77 1117.5,-760.77 1117.5,-742.77 899.5,-742.77"/>
<text text-anchor="start" x="902.5" y="-748.97" font-family="Helvetica,sans-Serif" font-size="11.00">...</text>
<polygon fill="#ffffff" stroke="transparent" points="899.5,-724.77 899.5,-742.77 1006.5,-742.77 1006.5,-724.77 899.5,-724.77"/>
<polygon fill="none" stroke="black" points="899.5,-724.77 899.5,-742.77 1006.5,-742.77 1006.5,-724.77 899.5,-724.77"/>
<text text-anchor="start" x="902.5" y="-730.97" font-family="Helvetica,sans-Serif" font-size="11.00">&lt; 2</text>
<polygon fill="#ffffff" stroke="transparent" points="1006.5,-724.77 1006.5,-742.77 1061.5,-742.77 1061.5,-724.77 1006.5,-724.77"/>
<polygon fill="none" stroke="black" points="1006.5,-724.77 1006.5,-742.77 1061.5,-742.77 1061.5,-724.77 1006.5,-724.77"/>
<text text-anchor="start" x="1051.5" y="-730.97" font-family="Helvetica,sans-Serif" font-size="11.00"> &#160;</text>
<polygon fill="#ffffff" stroke="transparent" points="1061.5,-724.77 1061.5,-742.77 1117.5,-742.77 1117.5,-724.77 1061.5,-724.77"/>
<polygon fill="none" stroke="black" points="1061.5,-724.77 1061.5,-742.77 1117.5,-742.77 1117.5,-724.77 1061.5,-724.77"/>
<text text-anchor="start" x="1107.5" y="-730.97" font-family="Helvetica,sans-Serif" font-size="11.00"> &#160;</text>
</a>
</g>
</g>
<!-- mstr_entity_facility_places&#45;&gt;mstr_entities -->
<g id="edge8" class="edge">
<title>mstr_entity_facility_places:w&#45;&gt;mstr_entities:e</title>
<path fill="none" stroke="black" d="M884.02,-750.46C872.38,-748.14 865.53,-743.32 849,-740.77 781.1,-730.29 594.88,-756.4 541,-713.77 496.59,-678.62 557.64,-592.77 501,-592.77"/>
<polygon fill="black" stroke="black" points="890.53,-751.05 898.18,-755.35 894.52,-751.41 898.5,-751.77 898.5,-751.77 898.5,-751.77 894.52,-751.41 898.82,-748.18 890.53,-751.05 890.53,-751.05"/>
<ellipse fill="none" stroke="black" cx="887.35" cy="-750.76" rx="3.2" ry="3.2"/>
</g>
<!-- mstr_places -->
<g id="node6" class="node">
<title>mstr_places</title>
<g id="a_node6"><a xlink:href="../../tables/mstr_places.html" xlink:title="mstr_places" target="_top">
<polygon fill="#ffffff" stroke="transparent" points="635,-750.77 635,-808.77 755,-808.77 755,-750.77 635,-750.77"/>
<polygon fill="#f5f5f5" stroke="transparent" points="635,-786.77 635,-808.77 755,-808.77 755,-786.77 635,-786.77"/>
<polygon fill="none" stroke="black" points="635,-786.77 635,-808.77 755,-808.77 755,-786.77 635,-786.77"/>
<text text-anchor="start" x="640" y="-795.97" font-family="Helvetica,sans-Serif" font-weight="bold" font-size="11.00">mstr_places</text>
<text text-anchor="start" x="720" y="-794.97" font-family="Helvetica,sans-Serif" font-size="11.00">[table]</text>
<polygon fill="none" stroke="black" points="635,-768.77 635,-786.77 755,-786.77 755,-768.77 635,-768.77"/>
<text text-anchor="start" x="638" y="-774.97" font-family="Helvetica,sans-Serif" font-size="11.00">...</text>
<polygon fill="#ffffff" stroke="transparent" points="635,-750.77 635,-768.77 688,-768.77 688,-750.77 635,-750.77"/>
<polygon fill="none" stroke="black" points="635,-750.77 635,-768.77 688,-768.77 688,-750.77 635,-750.77"/>
<text text-anchor="start" x="638" y="-756.97" font-family="Helvetica,sans-Serif" font-size="11.00">&lt; 3</text>
<polygon fill="#ffffff" stroke="transparent" points="688,-750.77 688,-768.77 717,-768.77 717,-750.77 688,-750.77"/>
<polygon fill="none" stroke="black" points="688,-750.77 688,-768.77 717,-768.77 717,-750.77 688,-750.77"/>
<text text-anchor="start" x="707" y="-756.97" font-family="Helvetica,sans-Serif" font-size="11.00"> &#160;</text>
<polygon fill="#ffffff" stroke="transparent" points="717,-750.77 717,-768.77 755,-768.77 755,-750.77 717,-750.77"/>
<polygon fill="none" stroke="black" points="717,-750.77 717,-768.77 755,-768.77 755,-750.77 717,-750.77"/>
<text text-anchor="start" x="736" y="-756.97" font-family="Helvetica,sans-Serif" font-size="11.00">3 &gt;</text>
</a>
</g>
</g>
<!-- mstr_entity_facility_places&#45;&gt;mstr_places -->
<g id="edge9" class="edge">
<title>mstr_entity_facility_places:w&#45;&gt;mstr_places:e</title>
<path fill="none" stroke="black" d="M883.96,-752.24C831.6,-755.76 815.22,-777.77 756,-777.77"/>
<polygon fill="black" stroke="black" points="890.5,-752.03 898.62,-755.36 894.5,-751.9 898.5,-751.77 898.5,-751.77 898.5,-751.77 894.5,-751.9 898.38,-748.17 890.5,-752.03 890.5,-752.03"/>
<ellipse fill="none" stroke="black" cx="887.31" cy="-752.13" rx="3.2" ry="3.2"/>
</g>
<!-- mstr_places&#45;&gt;ms_syst_data.syst_enum_items -->
<g id="edge25" class="edge">
<title>mstr_places:w&#45;&gt;ms_syst_data.syst_enum_items:e</title>
<path fill="none" stroke="black" d="M619.55,-777.71C468.03,-776.43 402.98,-753.57 298,-636.77 257.07,-591.22 319.74,-504.77 258.5,-504.77"/>
<polygon fill="black" stroke="black" points="626,-777.73 633.99,-781.37 630,-777.75 634,-777.77 634,-777.77 634,-777.77 630,-777.75 634.01,-774.17 626,-777.73 626,-777.73"/>
<ellipse fill="none" stroke="black" cx="622.8" cy="-777.72" rx="3.2" ry="3.2"/>
</g>
<!-- mstr_places&#45;&gt;ms_syst_data.syst_enum_items -->
<g id="edge26" class="edge">
<title>mstr_places:w&#45;&gt;ms_syst_data.syst_enum_items:e</title>
<path fill="none" stroke="black" d="M619.49,-777.7C467.4,-776.23 403.34,-750.15 298,-632.77 258.24,-588.46 318.04,-504.77 258.5,-504.77"/>
<polygon fill="black" stroke="black" points="626,-777.73 633.98,-781.37 630,-777.75 634,-777.77 634,-777.77 634,-777.77 630,-777.75 634.02,-774.17 626,-777.73 626,-777.73"/>
<ellipse fill="none" stroke="black" cx="622.8" cy="-777.71" rx="3.2" ry="3.2"/>
</g>
<!-- mstr_places&#45;&gt;mstr_entities -->
<g id="edge24" class="edge">
<title>mstr_places:w&#45;&gt;mstr_entities:e</title>
<path fill="none" stroke="black" d="M619.17,-777.45C584.39,-775.79 567.09,-766.92 541,-736.77 497.54,-686.53 567.42,-592.77 501,-592.77"/>
<polygon fill="black" stroke="black" points="626,-777.6 633.92,-781.37 630,-777.68 634,-777.77 634,-777.77 634,-777.77 630,-777.68 634.08,-774.17 626,-777.6 626,-777.6"/>
<ellipse fill="none" stroke="black" cx="622.8" cy="-777.53" rx="3.2" ry="3.2"/>
</g>
<!-- mstr_entity_inventory_places -->
<g id="node7" class="node">
<title>mstr_entity_inventory_places</title>
<g id="a_node7"><a xlink:href="../../tables/mstr_entity_inventory_places.html" xlink:title="mstr_entity_inventory_places" target="_top">
<polygon fill="#ffffff" stroke="transparent" points="890,-592.77 890,-650.77 1127,-650.77 1127,-592.77 890,-592.77"/>
<polygon fill="#f5f5f5" stroke="transparent" points="890.5,-628.77 890.5,-650.77 1127.5,-650.77 1127.5,-628.77 890.5,-628.77"/>
<polygon fill="none" stroke="black" points="890.5,-628.77 890.5,-650.77 1127.5,-650.77 1127.5,-628.77 890.5,-628.77"/>
<text text-anchor="start" x="895.5" y="-637.97" font-family="Helvetica,sans-Serif" font-weight="bold" font-size="11.00">mstr_entity_inventory_places</text>
<text text-anchor="start" x="1092.5" y="-636.97" font-family="Helvetica,sans-Serif" font-size="11.00">[table]</text>
<polygon fill="none" stroke="black" points="890.5,-610.77 890.5,-628.77 1127.5,-628.77 1127.5,-610.77 890.5,-610.77"/>
<text text-anchor="start" x="893.5" y="-616.97" font-family="Helvetica,sans-Serif" font-size="11.00">...</text>
<polygon fill="#ffffff" stroke="transparent" points="890.5,-592.77 890.5,-610.77 1006.5,-610.77 1006.5,-592.77 890.5,-592.77"/>
<polygon fill="none" stroke="black" points="890.5,-592.77 890.5,-610.77 1006.5,-610.77 1006.5,-592.77 890.5,-592.77"/>
<text text-anchor="start" x="893.5" y="-598.97" font-family="Helvetica,sans-Serif" font-size="11.00">&lt; 2</text>
<polygon fill="#ffffff" stroke="transparent" points="1006.5,-592.77 1006.5,-610.77 1066.5,-610.77 1066.5,-592.77 1006.5,-592.77"/>
<polygon fill="none" stroke="black" points="1006.5,-592.77 1006.5,-610.77 1066.5,-610.77 1066.5,-592.77 1006.5,-592.77"/>
<text text-anchor="start" x="1056.5" y="-598.97" font-family="Helvetica,sans-Serif" font-size="11.00"> &#160;</text>
<polygon fill="#ffffff" stroke="transparent" points="1066.5,-592.77 1066.5,-610.77 1127.5,-610.77 1127.5,-592.77 1066.5,-592.77"/>
<polygon fill="none" stroke="black" points="1066.5,-592.77 1066.5,-610.77 1127.5,-610.77 1127.5,-592.77 1066.5,-592.77"/>
<text text-anchor="start" x="1117.5" y="-598.97" font-family="Helvetica,sans-Serif" font-size="11.00"> &#160;</text>
</a>
</g>
</g>
<!-- mstr_entity_inventory_places&#45;&gt;mstr_entities -->
<g id="edge10" class="edge">
<title>mstr_entity_inventory_places:w&#45;&gt;mstr_entities:e</title>
<path fill="none" stroke="black" d="M875.79,-615.25C862.5,-602.96 872.96,-568.96 849,-555.77 789.04,-522.75 604.73,-530.81 541,-555.77 518.45,-564.6 525.22,-592.77 501,-592.77"/>
<polygon fill="black" stroke="black" points="881.9,-617.26 888.37,-623.19 885.7,-618.51 889.5,-619.77 889.5,-619.77 889.5,-619.77 885.7,-618.51 890.63,-616.35 881.9,-617.26 881.9,-617.26"/>
<ellipse fill="none" stroke="black" cx="878.86" cy="-616.26" rx="3.2" ry="3.2"/>
</g>
<!-- mstr_entity_inventory_places&#45;&gt;mstr_places -->
<g id="edge11" class="edge">
<title>mstr_entity_inventory_places:w&#45;&gt;mstr_places:e</title>
<path fill="none" stroke="black" d="M875.24,-622.69C851.9,-634.98 874.03,-683.28 849,-713.77 817.16,-752.55 806.18,-777.77 756,-777.77"/>
<polygon fill="black" stroke="black" points="881.66,-621.37 890.22,-623.29 885.58,-620.57 889.5,-619.77 889.5,-619.77 889.5,-619.77 885.58,-620.57 888.78,-616.24 881.66,-621.37 881.66,-621.37"/>
<ellipse fill="none" stroke="black" cx="878.53" cy="-622.01" rx="3.2" ry="3.2"/>
</g>
<!-- mstr_entity_person_roles -->
<g id="node8" class="node">
<title>mstr_entity_person_roles</title>
<g id="a_node8"><a xlink:href="../../tables/mstr_entity_person_roles.html" xlink:title="mstr_entity_person_roles" target="_top">
<polygon fill="#ffffff" stroke="transparent" points="904,-68.77 904,-126.77 1113,-126.77 1113,-68.77 904,-68.77"/>
<polygon fill="#f5f5f5" stroke="transparent" points="904.5,-104.77 904.5,-126.77 1113.5,-126.77 1113.5,-104.77 904.5,-104.77"/>
<polygon fill="none" stroke="black" points="904.5,-104.77 904.5,-126.77 1113.5,-126.77 1113.5,-104.77 904.5,-104.77"/>
<text text-anchor="start" x="909.5" y="-113.97" font-family="Helvetica,sans-Serif" font-weight="bold" font-size="11.00">mstr_entity_person_roles</text>
<text text-anchor="start" x="1078.5" y="-112.97" font-family="Helvetica,sans-Serif" font-size="11.00">[table]</text>
<polygon fill="none" stroke="black" points="904.5,-86.77 904.5,-104.77 1113.5,-104.77 1113.5,-86.77 904.5,-86.77"/>
<text text-anchor="start" x="907.5" y="-92.97" font-family="Helvetica,sans-Serif" font-size="11.00">...</text>
<polygon fill="#ffffff" stroke="transparent" points="904.5,-68.77 904.5,-86.77 1006.5,-86.77 1006.5,-68.77 904.5,-68.77"/>
<polygon fill="none" stroke="black" points="904.5,-68.77 904.5,-86.77 1006.5,-86.77 1006.5,-68.77 904.5,-68.77"/>
<text text-anchor="start" x="907.5" y="-74.97" font-family="Helvetica,sans-Serif" font-size="11.00">&lt; 3</text>
<polygon fill="#ffffff" stroke="transparent" points="1006.5,-68.77 1006.5,-86.77 1059.5,-86.77 1059.5,-68.77 1006.5,-68.77"/>
<polygon fill="none" stroke="black" points="1006.5,-68.77 1006.5,-86.77 1059.5,-86.77 1059.5,-68.77 1006.5,-68.77"/>
<text text-anchor="start" x="1049.5" y="-74.97" font-family="Helvetica,sans-Serif" font-size="11.00"> &#160;</text>
<polygon fill="#ffffff" stroke="transparent" points="1059.5,-68.77 1059.5,-86.77 1113.5,-86.77 1113.5,-68.77 1059.5,-68.77"/>
<polygon fill="none" stroke="black" points="1059.5,-68.77 1059.5,-86.77 1113.5,-86.77 1113.5,-68.77 1059.5,-68.77"/>
<text text-anchor="start" x="1103.5" y="-74.97" font-family="Helvetica,sans-Serif" font-size="11.00"> &#160;</text>
</a>
</g>
</g>
<!-- mstr_entity_person_roles&#45;&gt;ms_syst_data.syst_enum_items -->
<g id="edge13" class="edge">
<title>mstr_entity_person_roles:w&#45;&gt;ms_syst_data.syst_enum_items:e</title>
<path fill="none" stroke="black" d="M889.02,-92.57C873.98,-84.76 871.45,-64.82 849,-57.77 718.41,-16.73 675.87,-34.35 541,-57.77 427.98,-77.39 369.07,-54.72 298,-144.77 248.14,-207.94 338.98,-504.77 258.5,-504.77"/>
<polygon fill="black" stroke="black" points="895.69,-94.04 902.72,-99.28 899.59,-94.9 903.5,-95.77 903.5,-95.77 903.5,-95.77 899.59,-94.9 904.28,-92.25 895.69,-94.04 895.69,-94.04"/>
<ellipse fill="none" stroke="black" cx="892.56" cy="-93.35" rx="3.2" ry="3.2"/>
</g>
<!-- mstr_entity_person_roles&#45;&gt;mstr_entities -->
<g id="edge12" class="edge">
<title>mstr_entity_person_roles:w&#45;&gt;mstr_entities:e</title>
<path fill="none" stroke="black" d="M889.42,-99.17C823.86,-134.99 910.78,-442.38 849,-501.77 799.44,-549.41 599.76,-495.08 541,-530.77 512.97,-547.79 533.79,-592.77 501,-592.77"/>
<polygon fill="black" stroke="black" points="895.72,-97.65 904.35,-99.27 899.61,-96.71 903.5,-95.77 903.5,-95.77 903.5,-95.77 899.61,-96.71 902.65,-92.27 895.72,-97.65 895.72,-97.65"/>
<ellipse fill="none" stroke="black" cx="892.61" cy="-98.4" rx="3.2" ry="3.2"/>
</g>
<!-- mstr_persons -->
<g id="node9" class="node">
<title>mstr_persons</title>
<g id="a_node9"><a xlink:href="../../tables/mstr_persons.html" xlink:title="mstr_persons" target="_top">
<polygon fill="#ffffff" stroke="transparent" points="629.5,-68.77 629.5,-126.77 760.5,-126.77 760.5,-68.77 629.5,-68.77"/>
<polygon fill="#f5f5f5" stroke="transparent" points="630,-104.77 630,-126.77 761,-126.77 761,-104.77 630,-104.77"/>
<polygon fill="none" stroke="black" points="630,-104.77 630,-126.77 761,-126.77 761,-104.77 630,-104.77"/>
<text text-anchor="start" x="635" y="-113.97" font-family="Helvetica,sans-Serif" font-weight="bold" font-size="11.00">mstr_persons</text>
<text text-anchor="start" x="726" y="-112.97" font-family="Helvetica,sans-Serif" font-size="11.00">[table]</text>
<polygon fill="none" stroke="black" points="630,-86.77 630,-104.77 761,-104.77 761,-86.77 630,-86.77"/>
<text text-anchor="start" x="633" y="-92.97" font-family="Helvetica,sans-Serif" font-size="11.00">...</text>
<polygon fill="#ffffff" stroke="transparent" points="630,-68.77 630,-86.77 689,-86.77 689,-68.77 630,-68.77"/>
<polygon fill="none" stroke="black" points="630,-68.77 630,-86.77 689,-86.77 689,-68.77 630,-68.77"/>
<text text-anchor="start" x="633" y="-74.97" font-family="Helvetica,sans-Serif" font-size="11.00">&lt; 3</text>
<polygon fill="#ffffff" stroke="transparent" points="689,-68.77 689,-86.77 720,-86.77 720,-68.77 689,-68.77"/>
<polygon fill="none" stroke="black" points="689,-68.77 689,-86.77 720,-86.77 720,-68.77 689,-68.77"/>
<text text-anchor="start" x="710" y="-74.97" font-family="Helvetica,sans-Serif" font-size="11.00"> &#160;</text>
<polygon fill="#ffffff" stroke="transparent" points="720,-68.77 720,-86.77 761,-86.77 761,-68.77 720,-68.77"/>
<polygon fill="none" stroke="black" points="720,-68.77 720,-86.77 761,-86.77 761,-68.77 720,-68.77"/>
<text text-anchor="start" x="742" y="-74.97" font-family="Helvetica,sans-Serif" font-size="11.00">2 &gt;</text>
</a>
</g>
</g>
<!-- mstr_entity_person_roles&#45;&gt;mstr_persons -->
<g id="edge14" class="edge">
<title>mstr_entity_person_roles:w&#45;&gt;mstr_persons:e</title>
<path fill="none" stroke="black" d="M888.92,-95.77C837.71,-95.77 819.73,-95.77 762,-95.77"/>
<polygon fill="black" stroke="black" points="895.5,-95.77 903.5,-99.37 899.5,-95.77 903.5,-95.77 903.5,-95.77 903.5,-95.77 899.5,-95.77 903.5,-92.17 895.5,-95.77 895.5,-95.77"/>
<ellipse fill="none" stroke="black" cx="892.3" cy="-95.77" rx="3.2" ry="3.2"/>
</g>
<!-- mstr_persons&#45;&gt;ms_syst_data.syst_enum_items -->
<g id="edge22" class="edge">
<title>mstr_persons:w&#45;&gt;ms_syst_data.syst_enum_items:e</title>
<path fill="none" stroke="black" d="M614.43,-96.42C454.96,-110.84 342.59,-357.91 298,-425.77 276.44,-458.57 297.76,-504.77 258.5,-504.77"/>
<polygon fill="black" stroke="black" points="621.01,-96.13 629.16,-99.36 625,-95.95 629,-95.77 629,-95.77 629,-95.77 625,-95.95 628.84,-92.17 621.01,-96.13 621.01,-96.13"/>
<ellipse fill="none" stroke="black" cx="617.81" cy="-96.27" rx="3.2" ry="3.2"/>
</g>
<!-- mstr_persons&#45;&gt;ms_syst_data.syst_enum_items -->
<g id="edge23" class="edge">
<title>mstr_persons:w&#45;&gt;ms_syst_data.syst_enum_items:e</title>
<path fill="none" stroke="black" d="M614.29,-96.43C453.32,-111.03 343.75,-361.22 298,-429.77 277.08,-461.1 296.17,-504.77 258.5,-504.77"/>
<polygon fill="black" stroke="black" points="621.01,-96.13 629.16,-99.36 625,-95.95 629,-95.77 629,-95.77 629,-95.77 625,-95.95 628.84,-92.17 621.01,-96.13 621.01,-96.13"/>
<ellipse fill="none" stroke="black" cx="617.81" cy="-96.27" rx="3.2" ry="3.2"/>
</g>
<!-- mstr_persons&#45;&gt;mstr_entities -->
<g id="edge21" class="edge">
<title>mstr_persons:w&#45;&gt;mstr_entities:e</title>
<path fill="none" stroke="black" d="M614.29,-96.06C580.92,-97.57 562.76,-105.71 541,-136.77 511.82,-178.42 551.86,-592.77 501,-592.77"/>
<polygon fill="black" stroke="black" points="621,-95.92 629.07,-99.37 625,-95.85 629,-95.77 629,-95.77 629,-95.77 625,-95.85 628.93,-92.17 621,-95.92 621,-95.92"/>
<ellipse fill="none" stroke="black" cx="617.8" cy="-95.99" rx="3.2" ry="3.2"/>
</g>
<!-- mstr_entity_purchasing_entities -->
<g id="node10" class="node">
<title>mstr_entity_purchasing_entities</title>
<g id="a_node10"><a xlink:href="../../tables/mstr_entity_purchasing_entities.html" xlink:title="mstr_entity_purchasing_entities" target="_top">
<polygon fill="#ffffff" stroke="transparent" points="567,-644.77 567,-702.77 823,-702.77 823,-644.77 567,-644.77"/>
<polygon fill="#f5f5f5" stroke="transparent" points="567,-680.77 567,-702.77 823,-702.77 823,-680.77 567,-680.77"/>
<polygon fill="none" stroke="black" points="567,-680.77 567,-702.77 823,-702.77 823,-680.77 567,-680.77"/>
<text text-anchor="start" x="572" y="-689.97" font-family="Helvetica,sans-Serif" font-weight="bold" font-size="11.00">mstr_entity_purchasing_entities</text>
<text text-anchor="start" x="788" y="-688.97" font-family="Helvetica,sans-Serif" font-size="11.00">[table]</text>
<polygon fill="none" stroke="black" points="567,-662.77 567,-680.77 823,-680.77 823,-662.77 567,-662.77"/>
<text text-anchor="start" x="570" y="-668.97" font-family="Helvetica,sans-Serif" font-size="11.00">...</text>
<polygon fill="#ffffff" stroke="transparent" points="567,-644.77 567,-662.77 693,-662.77 693,-644.77 567,-644.77"/>
<polygon fill="none" stroke="black" points="567,-644.77 567,-662.77 693,-662.77 693,-644.77 567,-644.77"/>
<text text-anchor="start" x="570" y="-650.97" font-family="Helvetica,sans-Serif" font-size="11.00">&lt; 2</text>
<polygon fill="#ffffff" stroke="transparent" points="693,-644.77 693,-662.77 758,-662.77 758,-644.77 693,-644.77"/>
<polygon fill="none" stroke="black" points="693,-644.77 693,-662.77 758,-662.77 758,-644.77 693,-644.77"/>
<text text-anchor="start" x="748" y="-650.97" font-family="Helvetica,sans-Serif" font-size="11.00"> &#160;</text>
<polygon fill="#ffffff" stroke="transparent" points="758,-644.77 758,-662.77 823,-662.77 823,-644.77 758,-644.77"/>
<polygon fill="none" stroke="black" points="758,-644.77 758,-662.77 823,-662.77 823,-644.77 758,-644.77"/>
<text text-anchor="start" x="813" y="-650.97" font-family="Helvetica,sans-Serif" font-size="11.00"> &#160;</text>
</a>
</g>
</g>
<!-- mstr_entity_purchasing_entities&#45;&gt;mstr_entities -->
<g id="edge15" class="edge">
<title>mstr_entity_purchasing_entities:w&#45;&gt;mstr_entities:e</title>
<path fill="none" stroke="black" d="M552.37,-666.66C525.77,-647.88 540.96,-587.49 501,-592.77"/>
<polygon fill="black" stroke="black" points="558.51,-668.96 564.74,-675.14 562.25,-670.36 566,-671.77 566,-671.77 566,-671.77 562.25,-670.36 567.26,-668.4 558.51,-668.96 558.51,-668.96"/>
<ellipse fill="none" stroke="black" cx="555.51" cy="-667.83" rx="3.2" ry="3.2"/>
</g>
<!-- mstr_entity_purchasing_entities&#45;&gt;mstr_entities -->
<g id="edge16" class="edge">
<title>mstr_entity_purchasing_entities:w&#45;&gt;mstr_entities:e</title>
<path fill="none" stroke="black" d="M551.33,-670.37C526.16,-659.05 540.43,-598.84 501,-592.77"/>
<polygon fill="black" stroke="black" points="558.04,-671.01 565.66,-675.35 562.02,-671.39 566,-671.77 566,-671.77 566,-671.77 562.02,-671.39 566.34,-668.18 558.04,-671.01 558.04,-671.01"/>
<ellipse fill="none" stroke="black" cx="554.85" cy="-670.71" rx="3.2" ry="3.2"/>
</g>
<!-- mstr_entity_selling_entities -->
<g id="node11" class="node">
<title>mstr_entity_selling_entities</title>
<g id="a_node11"><a xlink:href="../../tables/mstr_entity_selling_entities.html" xlink:title="mstr_entity_selling_entities" target="_top">
<polygon fill="#ffffff" stroke="transparent" points="582.5,-565.77 582.5,-623.77 807.5,-623.77 807.5,-565.77 582.5,-565.77"/>
<polygon fill="#f5f5f5" stroke="transparent" points="583,-601.77 583,-623.77 808,-623.77 808,-601.77 583,-601.77"/>
<polygon fill="none" stroke="black" points="583,-601.77 583,-623.77 808,-623.77 808,-601.77 583,-601.77"/>
<text text-anchor="start" x="588" y="-610.97" font-family="Helvetica,sans-Serif" font-weight="bold" font-size="11.00">mstr_entity_selling_entities</text>
<text text-anchor="start" x="773" y="-609.97" font-family="Helvetica,sans-Serif" font-size="11.00">[table]</text>
<polygon fill="none" stroke="black" points="583,-583.77 583,-601.77 808,-601.77 808,-583.77 583,-583.77"/>
<text text-anchor="start" x="586" y="-589.97" font-family="Helvetica,sans-Serif" font-size="11.00">...</text>
<polygon fill="#ffffff" stroke="transparent" points="583,-565.77 583,-583.77 693,-583.77 693,-565.77 583,-565.77"/>
<polygon fill="none" stroke="black" points="583,-565.77 583,-583.77 693,-583.77 693,-565.77 583,-565.77"/>
<text text-anchor="start" x="586" y="-571.97" font-family="Helvetica,sans-Serif" font-size="11.00">&lt; 2</text>
<polygon fill="#ffffff" stroke="transparent" points="693,-565.77 693,-583.77 750,-583.77 750,-565.77 693,-565.77"/>
<polygon fill="none" stroke="black" points="693,-565.77 693,-583.77 750,-583.77 750,-565.77 693,-565.77"/>
<text text-anchor="start" x="740" y="-571.97" font-family="Helvetica,sans-Serif" font-size="11.00"> &#160;</text>
<polygon fill="#ffffff" stroke="transparent" points="750,-565.77 750,-583.77 808,-583.77 808,-565.77 750,-565.77"/>
<polygon fill="none" stroke="black" points="750,-565.77 750,-583.77 808,-583.77 808,-565.77 750,-565.77"/>
<text text-anchor="start" x="798" y="-571.97" font-family="Helvetica,sans-Serif" font-size="11.00"> &#160;</text>
</a>
</g>
</g>
<!-- mstr_entity_selling_entities&#45;&gt;mstr_entities -->
<g id="edge17" class="edge">
<title>mstr_entity_selling_entities:w&#45;&gt;mstr_entities:e</title>
<path fill="none" stroke="black" d="M567.58,-590.49C542.73,-586.9 531.66,-587.66 501,-592.77"/>
<polygon fill="black" stroke="black" points="574.1,-591.52 581.44,-596.32 578.05,-592.14 582,-592.77 582,-592.77 582,-592.77 578.05,-592.14 582.56,-589.21 574.1,-591.52 574.1,-591.52"/>
<ellipse fill="none" stroke="black" cx="570.94" cy="-591.02" rx="3.2" ry="3.2"/>
</g>
<!-- mstr_entity_selling_entities&#45;&gt;mstr_entities -->
<g id="edge18" class="edge">
<title>mstr_entity_selling_entities:w&#45;&gt;mstr_entities:e</title>
<path fill="none" stroke="black" d="M567.58,-595.42C542.73,-599.61 531.66,-598.73 501,-592.77"/>
<polygon fill="black" stroke="black" points="574.13,-594.21 582.65,-596.31 578.07,-593.49 582,-592.77 582,-592.77 582,-592.77 578.07,-593.49 581.35,-589.23 574.13,-594.21 574.13,-594.21"/>
<ellipse fill="none" stroke="black" cx="570.98" cy="-594.79" rx="3.2" ry="3.2"/>
</g>
<!-- mstr_entity_staff_entities -->
<g id="node12" class="node">
<title>mstr_entity_staff_entities</title>
<g id="a_node12"><a xlink:href="../../tables/mstr_entity_staff_entities.html" xlink:title="mstr_entity_staff_entities" target="_top">
<polygon fill="#ffffff" stroke="transparent" points="589,-432.77 589,-490.77 801,-490.77 801,-432.77 589,-432.77"/>
<polygon fill="#f5f5f5" stroke="transparent" points="589,-468.77 589,-490.77 801,-490.77 801,-468.77 589,-468.77"/>
<polygon fill="none" stroke="black" points="589,-468.77 589,-490.77 801,-490.77 801,-468.77 589,-468.77"/>
<text text-anchor="start" x="594" y="-477.97" font-family="Helvetica,sans-Serif" font-weight="bold" font-size="11.00">mstr_entity_staff_entities</text>
<text text-anchor="start" x="766" y="-476.97" font-family="Helvetica,sans-Serif" font-size="11.00">[table]</text>
<polygon fill="none" stroke="black" points="589,-450.77 589,-468.77 801,-468.77 801,-450.77 589,-450.77"/>
<text text-anchor="start" x="592" y="-456.97" font-family="Helvetica,sans-Serif" font-size="11.00">...</text>
<polygon fill="#ffffff" stroke="transparent" points="589,-432.77 589,-450.77 693,-450.77 693,-432.77 589,-432.77"/>
<polygon fill="none" stroke="black" points="589,-432.77 589,-450.77 693,-450.77 693,-432.77 589,-432.77"/>
<text text-anchor="start" x="592" y="-438.97" font-family="Helvetica,sans-Serif" font-size="11.00">&lt; 2</text>
<polygon fill="#ffffff" stroke="transparent" points="693,-432.77 693,-450.77 747,-450.77 747,-432.77 693,-432.77"/>
<polygon fill="none" stroke="black" points="693,-432.77 693,-450.77 747,-450.77 747,-432.77 693,-432.77"/>
<text text-anchor="start" x="737" y="-438.97" font-family="Helvetica,sans-Serif" font-size="11.00"> &#160;</text>
<polygon fill="#ffffff" stroke="transparent" points="747,-432.77 747,-450.77 801,-450.77 801,-432.77 747,-432.77"/>
<polygon fill="none" stroke="black" points="747,-432.77 747,-450.77 801,-450.77 801,-432.77 747,-432.77"/>
<text text-anchor="start" x="791" y="-438.97" font-family="Helvetica,sans-Serif" font-size="11.00"> &#160;</text>
</a>
</g>
</g>
<!-- mstr_entity_staff_entities&#45;&gt;mstr_entities -->
<g id="edge19" class="edge">
<title>mstr_entity_staff_entities:w&#45;&gt;mstr_entities:e</title>
<path fill="none" stroke="black" d="M573.43,-459.29C557.9,-462.55 554.33,-479.97 541,-498.77 516.15,-533.81 543.96,-586.77 501,-592.77"/>
<polygon fill="black" stroke="black" points="580,-459.51 587.88,-463.36 584,-459.64 588,-459.77 588,-459.77 588,-459.77 584,-459.64 588.12,-456.17 580,-459.51 580,-459.51"/>
<ellipse fill="none" stroke="black" cx="576.81" cy="-459.4" rx="3.2" ry="3.2"/>
</g>
<!-- mstr_entity_staff_entities&#45;&gt;mstr_entities -->
<g id="edge20" class="edge">
<title>mstr_entity_staff_entities:w&#45;&gt;mstr_entities:e</title>
<path fill="none" stroke="black" d="M574.36,-465.14C558.03,-474.87 554.59,-492.6 541,-511.77 516.15,-546.81 543.96,-599.77 501,-592.77"/>
<polygon fill="black" stroke="black" points="580.56,-462.7 589.32,-463.12 584.28,-461.23 588,-459.77 588,-459.77 588,-459.77 584.28,-461.23 586.68,-456.42 580.56,-462.7 580.56,-462.7"/>
<ellipse fill="none" stroke="black" cx="577.58" cy="-463.87" rx="3.2" ry="3.2"/>
</g>
</g>
</svg>
