<?xml version="1.0" encoding="UTF-8" standalone="no"?>
<!DOCTYPE svg PUBLIC "-//W3C//DTD SVG 1.1//EN"
 "http://www.w3.org/Graphics/SVG/1.1/DTD/svg11.dtd">
<!-- Generated by graphviz version 2.43.0 (0)
 -->
<!-- Title: twoDegreesRelationshipsDiagram Pages: 1 -->
<svg width="1185pt" height="898pt"
 viewBox="0.00 0.00 1185.00 897.88" xmlns="http://www.w3.org/2000/svg" xmlns:xlink="http://www.w3.org/1999/xlink">
<g id="graph0" class="graph" transform="scale(1 1) rotate(0) translate(4 893.88)">
<title>twoDegreesRelationshipsDiagram</title>
<polygon fill="#ffffff" stroke="transparent" points="-4,4 -4,-893.88 1181,-893.88 1181,4 -4,4"/>
<text text-anchor="middle" x="71.5" y="-7.2" font-family="Helvetica,sans-Serif" font-size="11.00">Generated by SchemaSpy</text>
<!-- mstr_contacts -->
<g id="node1" class="node">
<title>mstr_contacts</title>
<g id="a_node1"><a xlink:href="../../tables/mstr_contacts.html" xlink:title="mstr_contacts" target="_top">
<polygon fill="#ffffff" stroke="transparent" points="648.5,-827.88 648.5,-885.88 783.5,-885.88 783.5,-827.88 648.5,-827.88"/>
<polygon fill="#f5f5f5" stroke="transparent" points="649,-863.88 649,-885.88 784,-885.88 784,-863.88 649,-863.88"/>
<polygon fill="none" stroke="black" points="649,-863.88 649,-885.88 784,-885.88 784,-863.88 649,-863.88"/>
<text text-anchor="start" x="654" y="-873.08" font-family="Helvetica,sans-Serif" font-weight="bold" font-size="11.00">mstr_contacts</text>
<text text-anchor="start" x="749" y="-872.08" font-family="Helvetica,sans-Serif" font-size="11.00">[table]</text>
<polygon fill="none" stroke="black" points="649,-845.88 649,-863.88 784,-863.88 784,-845.88 649,-845.88"/>
<text text-anchor="start" x="652" y="-852.08" font-family="Helvetica,sans-Serif" font-size="11.00">...</text>
<polygon fill="#ffffff" stroke="transparent" points="649,-827.88 649,-845.88 710,-845.88 710,-827.88 649,-827.88"/>
<polygon fill="none" stroke="black" points="649,-827.88 649,-845.88 710,-845.88 710,-827.88 649,-827.88"/>
<text text-anchor="start" x="652" y="-834.08" font-family="Helvetica,sans-Serif" font-size="11.00">&lt; 3</text>
<polygon fill="#ffffff" stroke="transparent" points="710,-827.88 710,-845.88 742,-845.88 742,-827.88 710,-827.88"/>
<polygon fill="none" stroke="black" points="710,-827.88 710,-845.88 742,-845.88 742,-827.88 710,-827.88"/>
<text text-anchor="start" x="732" y="-834.08" font-family="Helvetica,sans-Serif" font-size="11.00"> &#160;</text>
<polygon fill="#ffffff" stroke="transparent" points="742,-827.88 742,-845.88 784,-845.88 784,-827.88 742,-827.88"/>
<polygon fill="none" stroke="black" points="742,-827.88 742,-845.88 784,-845.88 784,-827.88 742,-827.88"/>
<text text-anchor="start" x="765" y="-834.08" font-family="Helvetica,sans-Serif" font-size="11.00">1 &gt;</text>
</a>
</g>
</g>
<!-- ms_syst_data.syst_enum_items -->
<g id="node2" class="node">
<title>ms_syst_data.syst_enum_items</title>
<g id="a_node2"><a xlink:href="../../../ms_syst_data/tables/syst_enum_items.html" xlink:title="ms_syst_data.syst_enum_items" target="_top">
<polygon fill="#ffffff" stroke="transparent" points="8,-269.88 8,-327.88 257,-327.88 257,-269.88 8,-269.88"/>
<polygon fill="#f5f5f5" stroke="transparent" points="8.5,-305.88 8.5,-327.88 257.5,-327.88 257.5,-305.88 8.5,-305.88"/>
<polygon fill="none" stroke="black" points="8.5,-305.88 8.5,-327.88 257.5,-327.88 257.5,-305.88 8.5,-305.88"/>
<text text-anchor="start" x="13.5" y="-315.08" font-family="Helvetica,sans-Serif" font-weight="bold" font-size="11.00">ms_syst_data.syst_enum_items</text>
<text text-anchor="start" x="222.5" y="-314.08" font-family="Helvetica,sans-Serif" font-size="11.00">[table]</text>
<polygon fill="none" stroke="black" points="8.5,-287.88 8.5,-305.88 257.5,-305.88 257.5,-287.88 8.5,-287.88"/>
<text text-anchor="start" x="11.5" y="-294.08" font-family="Helvetica,sans-Serif" font-size="11.00">...</text>
<polygon fill="#ffffff" stroke="transparent" points="8.5,-269.88 8.5,-287.88 118.5,-287.88 118.5,-269.88 8.5,-269.88"/>
<polygon fill="none" stroke="black" points="8.5,-269.88 8.5,-287.88 118.5,-287.88 118.5,-269.88 8.5,-269.88"/>
<text text-anchor="start" x="11.5" y="-276.08" font-family="Helvetica,sans-Serif" font-size="11.00"> &#160;</text>
<polygon fill="#ffffff" stroke="transparent" points="118.5,-269.88 118.5,-287.88 180.5,-287.88 180.5,-269.88 118.5,-269.88"/>
<polygon fill="none" stroke="black" points="118.5,-269.88 118.5,-287.88 180.5,-287.88 180.5,-269.88 118.5,-269.88"/>
<text text-anchor="start" x="170.5" y="-276.08" font-family="Helvetica,sans-Serif" font-size="11.00"> &#160;</text>
<polygon fill="#ffffff" stroke="transparent" points="180.5,-269.88 180.5,-287.88 257.5,-287.88 257.5,-269.88 180.5,-269.88"/>
<polygon fill="none" stroke="black" points="180.5,-269.88 180.5,-287.88 257.5,-287.88 257.5,-269.88 180.5,-269.88"/>
<text text-anchor="start" x="232.5" y="-276.08" font-family="Helvetica,sans-Serif" font-size="11.00">10 &gt;</text>
</a>
</g>
</g>
<!-- mstr_contacts&#45;&gt;ms_syst_data.syst_enum_items -->
<g id="edge1" class="edge">
<title>mstr_contacts:w&#45;&gt;ms_syst_data.syst_enum_items:e</title>
<path fill="none" stroke="black" d="M633.49,-854.7C447.28,-849.96 384.91,-752.79 298,-580.88 269.25,-524.01 322.22,-296.88 258.5,-296.88"/>
<polygon fill="black" stroke="black" points="640,-854.78 647.95,-858.48 644,-854.83 648,-854.88 648,-854.88 648,-854.88 644,-854.83 648.05,-851.28 640,-854.78 640,-854.78"/>
<ellipse fill="none" stroke="black" cx="636.8" cy="-854.74" rx="3.2" ry="3.2"/>
</g>
<!-- mstr_contacts&#45;&gt;ms_syst_data.syst_enum_items -->
<g id="edge2" class="edge">
<title>mstr_contacts:w&#45;&gt;ms_syst_data.syst_enum_items:e</title>
<path fill="none" stroke="black" d="M633.41,-854.69C446.23,-849.83 384.83,-750.03 298,-576.88 269.83,-520.71 321.34,-296.88 258.5,-296.88"/>
<polygon fill="black" stroke="black" points="640,-854.78 647.95,-858.48 644,-854.83 648,-854.88 648,-854.88 648,-854.88 644,-854.83 648.05,-851.28 640,-854.78 640,-854.78"/>
<ellipse fill="none" stroke="black" cx="636.8" cy="-854.73" rx="3.2" ry="3.2"/>
</g>
<!-- mstr_entities -->
<g id="node3" class="node">
<title>mstr_entities</title>
<g id="a_node3"><a xlink:href="../../tables/mstr_entities.html" xlink:title="mstr_entities" target="_top">
<polygon fill="#ffffff" stroke="transparent" points="306,-227.88 306,-417.88 500,-417.88 500,-227.88 306,-227.88"/>
<polygon fill="#f5f5f5" stroke="transparent" points="306,-395.88 306,-417.88 500,-417.88 500,-395.88 306,-395.88"/>
<polygon fill="none" stroke="black" points="306,-395.88 306,-417.88 500,-417.88 500,-395.88 306,-395.88"/>
<text text-anchor="start" x="311" y="-405.08" font-family="Helvetica,sans-Serif" font-weight="bold" font-size="11.00">mstr_entities</text>
<text text-anchor="start" x="465" y="-404.08" font-family="Helvetica,sans-Serif" font-size="11.00">[table]</text>
<polygon fill="none" stroke="black" points="306,-373.88 306,-395.88 500,-395.88 500,-373.88 306,-373.88"/>
<image xlink:href="../../images/primaryKeys.png" width="11px" height="12px" preserveAspectRatio="xMinYMin meet" x="311" y="-390.878"/>
<text text-anchor="start" x="326" y="-382.08" font-family="Helvetica,sans-Serif" font-size="11.00">id</text>
<polygon fill="none" stroke="black" points="306,-351.88 306,-373.88 500,-373.88 500,-351.88 306,-351.88"/>
<image xlink:href="../../images/foreignKeys.png" width="11px" height="12px" preserveAspectRatio="xMinYMin meet" x="311" y="-368.878"/>
<text text-anchor="start" x="326" y="-360.08" font-family="Helvetica,sans-Serif" font-size="11.00">owning_entity_id</text>
<polygon fill="#ffffff" stroke="transparent" points="306,-329.88 306,-351.88 500,-351.88 500,-329.88 306,-329.88"/>
<polygon fill="none" stroke="black" points="306,-329.88 306,-351.88 500,-351.88 500,-329.88 306,-329.88"/>
<text text-anchor="start" x="326" y="-338.08" font-family="Helvetica,sans-Serif" font-size="11.00">internal_name</text>
<polygon fill="#ffffff" stroke="transparent" points="306,-307.88 306,-329.88 500,-329.88 500,-307.88 306,-307.88"/>
<polygon fill="none" stroke="black" points="306,-307.88 306,-329.88 500,-329.88 500,-307.88 306,-307.88"/>
<text text-anchor="start" x="326" y="-316.08" font-family="Helvetica,sans-Serif" font-size="11.00">display_name</text>
<polygon fill="none" stroke="black" points="306,-285.88 306,-307.88 500,-307.88 500,-285.88 306,-285.88"/>
<image xlink:href="../../images/foreignKeys.png" width="11px" height="12px" preserveAspectRatio="xMinYMin meet" x="311" y="-302.878"/>
<text text-anchor="start" x="326" y="-294.08" font-family="Helvetica,sans-Serif" font-size="11.00">entity_type_id</text>
<polygon fill="none" stroke="black" points="306,-263.88 306,-285.88 500,-285.88 500,-263.88 306,-263.88"/>
<image xlink:href="../../images/foreignKeys.png" width="11px" height="12px" preserveAspectRatio="xMinYMin meet" x="311" y="-280.878"/>
<text text-anchor="start" x="326" y="-272.08" font-family="Helvetica,sans-Serif" font-size="11.00">entity_state_id</text>
<polygon fill="none" stroke="black" points="306,-245.88 306,-263.88 500,-263.88 500,-245.88 306,-245.88"/>
<text text-anchor="start" x="309" y="-252.08" font-family="Helvetica,sans-Serif" font-size="11.00">...</text>
<polygon fill="#ffffff" stroke="transparent" points="306,-227.88 306,-245.88 393,-245.88 393,-227.88 306,-227.88"/>
<polygon fill="none" stroke="black" points="306,-227.88 306,-245.88 393,-245.88 393,-227.88 306,-227.88"/>
<text text-anchor="start" x="309" y="-234.08" font-family="Helvetica,sans-Serif" font-size="11.00">&lt; 3</text>
<polygon fill="#ffffff" stroke="transparent" points="393,-227.88 393,-245.88 439,-245.88 439,-227.88 393,-227.88"/>
<polygon fill="none" stroke="black" points="393,-227.88 393,-245.88 439,-245.88 439,-227.88 393,-227.88"/>
<text text-anchor="start" x="429" y="-234.08" font-family="Helvetica,sans-Serif" font-size="11.00"> &#160;</text>
<polygon fill="#ffffff" stroke="transparent" points="439,-227.88 439,-245.88 500,-245.88 500,-227.88 439,-227.88"/>
<polygon fill="none" stroke="black" points="439,-227.88 439,-245.88 500,-245.88 500,-227.88 439,-227.88"/>
<text text-anchor="start" x="475" y="-234.08" font-family="Helvetica,sans-Serif" font-size="11.00">15 &gt;</text>
</a>
</g>
</g>
<!-- mstr_contacts&#45;&gt;mstr_entities -->
<g id="edge3" class="edge">
<title>mstr_contacts:w&#45;&gt;mstr_entities:e</title>
<path fill="none" stroke="black" d="M633.4,-854.91C592.42,-854.97 568.9,-853.45 541,-817.88 511.19,-779.86 549.32,-384.88 501,-384.88"/>
<polygon fill="black" stroke="black" points="640,-854.9 648.01,-858.48 644,-854.89 648,-854.88 648,-854.88 648,-854.88 644,-854.89 647.99,-851.28 640,-854.9 640,-854.9"/>
<ellipse fill="none" stroke="black" cx="636.8" cy="-854.9" rx="3.2" ry="3.2"/>
</g>
<!-- mstr_entities&#45;&gt;ms_syst_data.syst_enum_items -->
<g id="edge4" class="edge">
<title>mstr_entities:w&#45;&gt;ms_syst_data.syst_enum_items:e</title>
<path fill="none" stroke="black" d="M290.96,-278.51C280.27,-284.76 275.47,-296.88 258.5,-296.88"/>
<polygon fill="black" stroke="black" points="297.26,-276.88 305.9,-278.36 301.13,-275.88 305,-274.88 305,-274.88 305,-274.88 301.13,-275.88 304.1,-271.39 297.26,-276.88 297.26,-276.88"/>
<ellipse fill="none" stroke="black" cx="294.16" cy="-277.68" rx="3.2" ry="3.2"/>
</g>
<!-- mstr_entities&#45;&gt;ms_syst_data.syst_enum_items -->
<g id="edge5" class="edge">
<title>mstr_entities:w&#45;&gt;ms_syst_data.syst_enum_items:e</title>
<path fill="none" stroke="black" d="M290.55,-296.88C280.2,-296.88 273.35,-296.88 258.5,-296.88"/>
<polygon fill="black" stroke="black" points="297,-296.88 305,-300.48 301,-296.88 305,-296.88 305,-296.88 305,-296.88 301,-296.88 305,-293.28 297,-296.88 297,-296.88"/>
<ellipse fill="none" stroke="black" cx="293.8" cy="-296.88" rx="3.2" ry="3.2"/>
</g>
<!-- mstr_entity_bank_entities -->
<g id="node4" class="node">
<title>mstr_entity_bank_entities</title>
<g id="a_node4"><a xlink:href="../../tables/mstr_entity_bank_entities.html" xlink:title="mstr_entity_bank_entities" target="_top">
<polygon fill="#ffffff" stroke="transparent" points="609,-145.88 609,-203.88 823,-203.88 823,-145.88 609,-145.88"/>
<polygon fill="#f5f5f5" stroke="transparent" points="609,-181.88 609,-203.88 823,-203.88 823,-181.88 609,-181.88"/>
<polygon fill="none" stroke="black" points="609,-181.88 609,-203.88 823,-203.88 823,-181.88 609,-181.88"/>
<text text-anchor="start" x="614" y="-191.08" font-family="Helvetica,sans-Serif" font-weight="bold" font-size="11.00">mstr_entity_bank_entities</text>
<text text-anchor="start" x="788" y="-190.08" font-family="Helvetica,sans-Serif" font-size="11.00">[table]</text>
<polygon fill="none" stroke="black" points="609,-163.88 609,-181.88 823,-181.88 823,-163.88 609,-163.88"/>
<text text-anchor="start" x="612" y="-170.08" font-family="Helvetica,sans-Serif" font-size="11.00">...</text>
<polygon fill="#ffffff" stroke="transparent" points="609,-145.88 609,-163.88 714,-163.88 714,-145.88 609,-145.88"/>
<polygon fill="none" stroke="black" points="609,-145.88 609,-163.88 714,-163.88 714,-145.88 609,-145.88"/>
<text text-anchor="start" x="612" y="-152.08" font-family="Helvetica,sans-Serif" font-size="11.00">&lt; 2</text>
<polygon fill="#ffffff" stroke="transparent" points="714,-145.88 714,-163.88 768,-163.88 768,-145.88 714,-145.88"/>
<polygon fill="none" stroke="black" points="714,-145.88 714,-163.88 768,-163.88 768,-145.88 714,-145.88"/>
<text text-anchor="start" x="758" y="-152.08" font-family="Helvetica,sans-Serif" font-size="11.00"> &#160;</text>
<polygon fill="#ffffff" stroke="transparent" points="768,-145.88 768,-163.88 823,-163.88 823,-145.88 768,-145.88"/>
<polygon fill="none" stroke="black" points="768,-145.88 768,-163.88 823,-163.88 823,-145.88 768,-145.88"/>
<text text-anchor="start" x="813" y="-152.08" font-family="Helvetica,sans-Serif" font-size="11.00"> &#160;</text>
</a>
</g>
</g>
<!-- mstr_entity_bank_entities&#45;&gt;mstr_entities -->
<g id="edge6" class="edge">
<title>mstr_entity_bank_entities:w&#45;&gt;mstr_entities:e</title>
<path fill="none" stroke="black" d="M593.47,-171.47C569.17,-171.32 558.33,-184.65 541,-208.88 495.84,-272.01 578.62,-378.88 501,-384.88"/>
<polygon fill="black" stroke="black" points="600.04,-172.11 607.65,-176.46 604.02,-172.49 608,-172.88 608,-172.88 608,-172.88 604.02,-172.49 608.35,-169.29 600.04,-172.11 600.04,-172.11"/>
<ellipse fill="none" stroke="black" cx="596.85" cy="-171.8" rx="3.2" ry="3.2"/>
</g>
<!-- mstr_entity_bank_entities&#45;&gt;mstr_entities -->
<g id="edge7" class="edge">
<title>mstr_entity_bank_entities:w&#45;&gt;mstr_entities:e</title>
<path fill="none" stroke="black" d="M593.81,-176.45C569.27,-184.19 558.41,-197.54 541,-221.88 495.84,-285.01 578.62,-391.88 501,-384.88"/>
<polygon fill="black" stroke="black" points="600.24,-174.83 608.88,-176.37 604.12,-173.85 608,-172.88 608,-172.88 608,-172.88 604.12,-173.85 607.12,-169.39 600.24,-174.83 600.24,-174.83"/>
<ellipse fill="none" stroke="black" cx="597.14" cy="-175.61" rx="3.2" ry="3.2"/>
</g>
<!-- mstr_entity_facility_places -->
<g id="node5" class="node">
<title>mstr_entity_facility_places</title>
<g id="a_node5"><a xlink:href="../../tables/mstr_entity_facility_places.html" xlink:title="mstr_entity_facility_places" target="_top">
<polygon fill="#ffffff" stroke="transparent" points="941.5,-722.88 941.5,-780.88 1159.5,-780.88 1159.5,-722.88 941.5,-722.88"/>
<polygon fill="#f5f5f5" stroke="transparent" points="941.5,-758.88 941.5,-780.88 1159.5,-780.88 1159.5,-758.88 941.5,-758.88"/>
<polygon fill="none" stroke="black" points="941.5,-758.88 941.5,-780.88 1159.5,-780.88 1159.5,-758.88 941.5,-758.88"/>
<text text-anchor="start" x="946.5" y="-768.08" font-family="Helvetica,sans-Serif" font-weight="bold" font-size="11.00">mstr_entity_facility_places</text>
<text text-anchor="start" x="1124.5" y="-767.08" font-family="Helvetica,sans-Serif" font-size="11.00">[table]</text>
<polygon fill="none" stroke="black" points="941.5,-740.88 941.5,-758.88 1159.5,-758.88 1159.5,-740.88 941.5,-740.88"/>
<text text-anchor="start" x="944.5" y="-747.08" font-family="Helvetica,sans-Serif" font-size="11.00">...</text>
<polygon fill="#ffffff" stroke="transparent" points="941.5,-722.88 941.5,-740.88 1048.5,-740.88 1048.5,-722.88 941.5,-722.88"/>
<polygon fill="none" stroke="black" points="941.5,-722.88 941.5,-740.88 1048.5,-740.88 1048.5,-722.88 941.5,-722.88"/>
<text text-anchor="start" x="944.5" y="-729.08" font-family="Helvetica,sans-Serif" font-size="11.00">&lt; 2</text>
<polygon fill="#ffffff" stroke="transparent" points="1048.5,-722.88 1048.5,-740.88 1103.5,-740.88 1103.5,-722.88 1048.5,-722.88"/>
<polygon fill="none" stroke="black" points="1048.5,-722.88 1048.5,-740.88 1103.5,-740.88 1103.5,-722.88 1048.5,-722.88"/>
<text text-anchor="start" x="1093.5" y="-729.08" font-family="Helvetica,sans-Serif" font-size="11.00"> &#160;</text>
<polygon fill="#ffffff" stroke="transparent" points="1103.5,-722.88 1103.5,-740.88 1159.5,-740.88 1159.5,-722.88 1103.5,-722.88"/>
<polygon fill="none" stroke="black" points="1103.5,-722.88 1103.5,-740.88 1159.5,-740.88 1159.5,-722.88 1103.5,-722.88"/>
<text text-anchor="start" x="1149.5" y="-729.08" font-family="Helvetica,sans-Serif" font-size="11.00"> &#160;</text>
</a>
</g>
</g>
<!-- mstr_entity_facility_places&#45;&gt;mstr_entities -->
<g id="edge8" class="edge">
<title>mstr_entity_facility_places:w&#45;&gt;mstr_entities:e</title>
<path fill="none" stroke="black" d="M926.02,-748.55C914.38,-746.21 907.54,-741.34 891,-738.88 852.42,-733.13 569.19,-738.83 541,-711.88 488.09,-661.28 574.21,-384.88 501,-384.88"/>
<polygon fill="black" stroke="black" points="932.53,-749.15 940.17,-753.46 936.52,-749.51 940.5,-749.88 940.5,-749.88 940.5,-749.88 936.52,-749.51 940.83,-746.29 932.53,-749.15 932.53,-749.15"/>
<ellipse fill="none" stroke="black" cx="929.35" cy="-748.86" rx="3.2" ry="3.2"/>
</g>
<!-- mstr_places -->
<g id="node6" class="node">
<title>mstr_places</title>
<g id="a_node6"><a xlink:href="../../tables/mstr_places.html" xlink:title="mstr_places" target="_top">
<polygon fill="#ffffff" stroke="transparent" points="656,-748.88 656,-806.88 776,-806.88 776,-748.88 656,-748.88"/>
<polygon fill="#f5f5f5" stroke="transparent" points="656,-784.88 656,-806.88 776,-806.88 776,-784.88 656,-784.88"/>
<polygon fill="none" stroke="black" points="656,-784.88 656,-806.88 776,-806.88 776,-784.88 656,-784.88"/>
<text text-anchor="start" x="661" y="-794.08" font-family="Helvetica,sans-Serif" font-weight="bold" font-size="11.00">mstr_places</text>
<text text-anchor="start" x="741" y="-793.08" font-family="Helvetica,sans-Serif" font-size="11.00">[table]</text>
<polygon fill="none" stroke="black" points="656,-766.88 656,-784.88 776,-784.88 776,-766.88 656,-766.88"/>
<text text-anchor="start" x="659" y="-773.08" font-family="Helvetica,sans-Serif" font-size="11.00">...</text>
<polygon fill="#ffffff" stroke="transparent" points="656,-748.88 656,-766.88 709,-766.88 709,-748.88 656,-748.88"/>
<polygon fill="none" stroke="black" points="656,-748.88 656,-766.88 709,-766.88 709,-748.88 656,-748.88"/>
<text text-anchor="start" x="659" y="-755.08" font-family="Helvetica,sans-Serif" font-size="11.00">&lt; 3</text>
<polygon fill="#ffffff" stroke="transparent" points="709,-748.88 709,-766.88 738,-766.88 738,-748.88 709,-748.88"/>
<polygon fill="none" stroke="black" points="709,-748.88 709,-766.88 738,-766.88 738,-748.88 709,-748.88"/>
<text text-anchor="start" x="728" y="-755.08" font-family="Helvetica,sans-Serif" font-size="11.00"> &#160;</text>
<polygon fill="#ffffff" stroke="transparent" points="738,-748.88 738,-766.88 776,-766.88 776,-748.88 738,-748.88"/>
<polygon fill="none" stroke="black" points="738,-748.88 738,-766.88 776,-766.88 776,-748.88 738,-748.88"/>
<text text-anchor="start" x="757" y="-755.08" font-family="Helvetica,sans-Serif" font-size="11.00">3 &gt;</text>
</a>
</g>
</g>
<!-- mstr_entity_facility_places&#45;&gt;mstr_places -->
<g id="edge9" class="edge">
<title>mstr_entity_facility_places:w&#45;&gt;mstr_places:e</title>
<path fill="none" stroke="black" d="M925.79,-750.25C864.34,-753.41 845.41,-775.88 777,-775.88"/>
<polygon fill="black" stroke="black" points="932.5,-750.08 940.59,-753.48 936.5,-749.98 940.5,-749.88 940.5,-749.88 940.5,-749.88 936.5,-749.98 940.41,-746.28 932.5,-750.08 932.5,-750.08"/>
<ellipse fill="none" stroke="black" cx="929.3" cy="-750.16" rx="3.2" ry="3.2"/>
</g>
<!-- mstr_places&#45;&gt;ms_syst_data.syst_enum_items -->
<g id="edge25" class="edge">
<title>mstr_places:w&#45;&gt;ms_syst_data.syst_enum_items:e</title>
<path fill="none" stroke="black" d="M640.51,-775.6C597.76,-773.84 580.56,-763.27 541,-734.88 399.9,-633.63 378.34,-582.84 298,-428.88 269.67,-374.59 319.74,-296.88 258.5,-296.88"/>
<polygon fill="black" stroke="black" points="647,-775.73 654.93,-779.48 651,-775.8 655,-775.88 655,-775.88 655,-775.88 651,-775.8 655.07,-772.28 647,-775.73 647,-775.73"/>
<ellipse fill="none" stroke="black" cx="643.8" cy="-775.67" rx="3.2" ry="3.2"/>
</g>
<!-- mstr_places&#45;&gt;ms_syst_data.syst_enum_items -->
<g id="edge26" class="edge">
<title>mstr_places:w&#45;&gt;ms_syst_data.syst_enum_items:e</title>
<path fill="none" stroke="black" d="M640.51,-775.61C597.75,-773.86 580.47,-763.39 541,-734.88 399.09,-632.36 379.16,-579.99 298,-424.88 270.4,-372.13 318.04,-296.88 258.5,-296.88"/>
<polygon fill="black" stroke="black" points="647,-775.73 654.93,-779.48 651,-775.8 655,-775.88 655,-775.88 655,-775.88 651,-775.8 655.07,-772.28 647,-775.73 647,-775.73"/>
<ellipse fill="none" stroke="black" cx="643.8" cy="-775.67" rx="3.2" ry="3.2"/>
</g>
<!-- mstr_places&#45;&gt;mstr_entities -->
<g id="edge24" class="edge">
<title>mstr_places:w&#45;&gt;mstr_entities:e</title>
<path fill="none" stroke="black" d="M640.54,-775.87C596.08,-775.72 571.29,-773.14 541,-734.88 492.41,-673.5 579.28,-384.88 501,-384.88"/>
<polygon fill="black" stroke="black" points="647,-775.88 655,-779.48 651,-775.88 655,-775.88 655,-775.88 655,-775.88 651,-775.88 655,-772.28 647,-775.88 647,-775.88"/>
<ellipse fill="none" stroke="black" cx="643.8" cy="-775.87" rx="3.2" ry="3.2"/>
</g>
<!-- mstr_entity_inventory_places -->
<g id="node7" class="node">
<title>mstr_entity_inventory_places</title>
<g id="a_node7"><a xlink:href="../../tables/mstr_entity_inventory_places.html" xlink:title="mstr_entity_inventory_places" target="_top">
<polygon fill="#ffffff" stroke="transparent" points="932,-487.88 932,-545.88 1169,-545.88 1169,-487.88 932,-487.88"/>
<polygon fill="#f5f5f5" stroke="transparent" points="932.5,-523.88 932.5,-545.88 1169.5,-545.88 1169.5,-523.88 932.5,-523.88"/>
<polygon fill="none" stroke="black" points="932.5,-523.88 932.5,-545.88 1169.5,-545.88 1169.5,-523.88 932.5,-523.88"/>
<text text-anchor="start" x="937.5" y="-533.08" font-family="Helvetica,sans-Serif" font-weight="bold" font-size="11.00">mstr_entity_inventory_places</text>
<text text-anchor="start" x="1134.5" y="-532.08" font-family="Helvetica,sans-Serif" font-size="11.00">[table]</text>
<polygon fill="none" stroke="black" points="932.5,-505.88 932.5,-523.88 1169.5,-523.88 1169.5,-505.88 932.5,-505.88"/>
<text text-anchor="start" x="935.5" y="-512.08" font-family="Helvetica,sans-Serif" font-size="11.00">...</text>
<polygon fill="#ffffff" stroke="transparent" points="932.5,-487.88 932.5,-505.88 1048.5,-505.88 1048.5,-487.88 932.5,-487.88"/>
<polygon fill="none" stroke="black" points="932.5,-487.88 932.5,-505.88 1048.5,-505.88 1048.5,-487.88 932.5,-487.88"/>
<text text-anchor="start" x="935.5" y="-494.08" font-family="Helvetica,sans-Serif" font-size="11.00">&lt; 2</text>
<polygon fill="#ffffff" stroke="transparent" points="1048.5,-487.88 1048.5,-505.88 1108.5,-505.88 1108.5,-487.88 1048.5,-487.88"/>
<polygon fill="none" stroke="black" points="1048.5,-487.88 1048.5,-505.88 1108.5,-505.88 1108.5,-487.88 1048.5,-487.88"/>
<text text-anchor="start" x="1098.5" y="-494.08" font-family="Helvetica,sans-Serif" font-size="11.00"> &#160;</text>
<polygon fill="#ffffff" stroke="transparent" points="1108.5,-487.88 1108.5,-505.88 1169.5,-505.88 1169.5,-487.88 1108.5,-487.88"/>
<polygon fill="none" stroke="black" points="1108.5,-487.88 1108.5,-505.88 1169.5,-505.88 1169.5,-487.88 1108.5,-487.88"/>
<text text-anchor="start" x="1159.5" y="-494.08" font-family="Helvetica,sans-Serif" font-size="11.00"> &#160;</text>
</a>
</g>
</g>
<!-- mstr_entity_inventory_places&#45;&gt;mstr_entities -->
<g id="edge10" class="edge">
<title>mstr_entity_inventory_places:w&#45;&gt;mstr_entities:e</title>
<path fill="none" stroke="black" d="M917.21,-512.98C868.5,-497.5 946.58,-391.59 891,-347.88 829.86,-299.8 613.42,-319.52 541,-347.88 518.45,-356.71 525.22,-384.88 501,-384.88"/>
<polygon fill="black" stroke="black" points="923.57,-513.82 931.03,-518.45 927.53,-514.35 931.5,-514.88 931.5,-514.88 931.5,-514.88 927.53,-514.35 931.97,-511.31 923.57,-513.82 923.57,-513.82"/>
<ellipse fill="none" stroke="black" cx="920.4" cy="-513.4" rx="3.2" ry="3.2"/>
</g>
<!-- mstr_entity_inventory_places&#45;&gt;mstr_places -->
<g id="edge11" class="edge">
<title>mstr_entity_inventory_places:w&#45;&gt;mstr_places:e</title>
<path fill="none" stroke="black" d="M916.89,-516.3C854.21,-530.28 940.44,-644.21 891,-711.88 856.72,-758.79 835.11,-775.88 777,-775.88"/>
<polygon fill="black" stroke="black" points="923.54,-515.65 931.85,-518.46 927.52,-515.26 931.5,-514.88 931.5,-514.88 931.5,-514.88 927.52,-515.26 931.15,-511.29 923.54,-515.65 923.54,-515.65"/>
<ellipse fill="none" stroke="black" cx="920.35" cy="-515.96" rx="3.2" ry="3.2"/>
</g>
<!-- mstr_entity_person_roles -->
<g id="node8" class="node">
<title>mstr_entity_person_roles</title>
<g id="a_node8"><a xlink:href="../../tables/mstr_entity_person_roles.html" xlink:title="mstr_entity_person_roles" target="_top">
<polygon fill="#ffffff" stroke="transparent" points="946,-66.88 946,-124.88 1155,-124.88 1155,-66.88 946,-66.88"/>
<polygon fill="#f5f5f5" stroke="transparent" points="946.5,-102.88 946.5,-124.88 1155.5,-124.88 1155.5,-102.88 946.5,-102.88"/>
<polygon fill="none" stroke="black" points="946.5,-102.88 946.5,-124.88 1155.5,-124.88 1155.5,-102.88 946.5,-102.88"/>
<text text-anchor="start" x="951.5" y="-112.08" font-family="Helvetica,sans-Serif" font-weight="bold" font-size="11.00">mstr_entity_person_roles</text>
<text text-anchor="start" x="1120.5" y="-111.08" font-family="Helvetica,sans-Serif" font-size="11.00">[table]</text>
<polygon fill="none" stroke="black" points="946.5,-84.88 946.5,-102.88 1155.5,-102.88 1155.5,-84.88 946.5,-84.88"/>
<text text-anchor="start" x="949.5" y="-91.08" font-family="Helvetica,sans-Serif" font-size="11.00">...</text>
<polygon fill="#ffffff" stroke="transparent" points="946.5,-66.88 946.5,-84.88 1048.5,-84.88 1048.5,-66.88 946.5,-66.88"/>
<polygon fill="none" stroke="black" points="946.5,-66.88 946.5,-84.88 1048.5,-84.88 1048.5,-66.88 946.5,-66.88"/>
<text text-anchor="start" x="949.5" y="-73.08" font-family="Helvetica,sans-Serif" font-size="11.00">&lt; 3</text>
<polygon fill="#ffffff" stroke="transparent" points="1048.5,-66.88 1048.5,-84.88 1101.5,-84.88 1101.5,-66.88 1048.5,-66.88"/>
<polygon fill="none" stroke="black" points="1048.5,-66.88 1048.5,-84.88 1101.5,-84.88 1101.5,-66.88 1048.5,-66.88"/>
<text text-anchor="start" x="1091.5" y="-73.08" font-family="Helvetica,sans-Serif" font-size="11.00"> &#160;</text>
<polygon fill="#ffffff" stroke="transparent" points="1101.5,-66.88 1101.5,-84.88 1155.5,-84.88 1155.5,-66.88 1101.5,-66.88"/>
<polygon fill="none" stroke="black" points="1101.5,-66.88 1101.5,-84.88 1155.5,-84.88 1155.5,-66.88 1101.5,-66.88"/>
<text text-anchor="start" x="1145.5" y="-73.08" font-family="Helvetica,sans-Serif" font-size="11.00"> &#160;</text>
</a>
</g>
</g>
<!-- mstr_entity_person_roles&#45;&gt;ms_syst_data.syst_enum_items -->
<g id="edge13" class="edge">
<title>mstr_entity_person_roles:w&#45;&gt;ms_syst_data.syst_enum_items:e</title>
<path fill="none" stroke="black" d="M931.1,-90.77C916.08,-83.16 913.3,-63.73 891,-56.88 742.31,-11.17 695.93,-42.96 541,-56.88 431.68,-66.69 376.37,-24.04 298,-100.88 234.55,-163.09 347.36,-296.88 258.5,-296.88"/>
<polygon fill="black" stroke="black" points="937.68,-92.19 944.74,-97.4 941.59,-93.03 945.5,-93.88 945.5,-93.88 945.5,-93.88 941.59,-93.03 946.26,-90.36 937.68,-92.19 937.68,-92.19"/>
<ellipse fill="none" stroke="black" cx="934.55" cy="-91.51" rx="3.2" ry="3.2"/>
</g>
<!-- mstr_entity_person_roles&#45;&gt;mstr_entities -->
<g id="edge12" class="edge">
<title>mstr_entity_person_roles:w&#45;&gt;mstr_entities:e</title>
<path fill="none" stroke="black" d="M930.89,-95.39C865.89,-110.72 957.94,-239.01 891,-293.88 830.71,-343.3 607.44,-277.09 541,-317.88 511.44,-336.02 535.68,-384.88 501,-384.88"/>
<polygon fill="black" stroke="black" points="937.54,-94.7 945.87,-97.46 941.52,-94.29 945.5,-93.88 945.5,-93.88 945.5,-93.88 941.52,-94.29 945.13,-90.3 937.54,-94.7 937.54,-94.7"/>
<ellipse fill="none" stroke="black" cx="934.36" cy="-95.03" rx="3.2" ry="3.2"/>
</g>
<!-- mstr_persons -->
<g id="node9" class="node">
<title>mstr_persons</title>
<g id="a_node9"><a xlink:href="../../tables/mstr_persons.html" xlink:title="mstr_persons" target="_top">
<polygon fill="#ffffff" stroke="transparent" points="650.5,-66.88 650.5,-124.88 781.5,-124.88 781.5,-66.88 650.5,-66.88"/>
<polygon fill="#f5f5f5" stroke="transparent" points="651,-102.88 651,-124.88 782,-124.88 782,-102.88 651,-102.88"/>
<polygon fill="none" stroke="black" points="651,-102.88 651,-124.88 782,-124.88 782,-102.88 651,-102.88"/>
<text text-anchor="start" x="656" y="-112.08" font-family="Helvetica,sans-Serif" font-weight="bold" font-size="11.00">mstr_persons</text>
<text text-anchor="start" x="747" y="-111.08" font-family="Helvetica,sans-Serif" font-size="11.00">[table]</text>
<polygon fill="none" stroke="black" points="651,-84.88 651,-102.88 782,-102.88 782,-84.88 651,-84.88"/>
<text text-anchor="start" x="654" y="-91.08" font-family="Helvetica,sans-Serif" font-size="11.00">...</text>
<polygon fill="#ffffff" stroke="transparent" points="651,-66.88 651,-84.88 710,-84.88 710,-66.88 651,-66.88"/>
<polygon fill="none" stroke="black" points="651,-66.88 651,-84.88 710,-84.88 710,-66.88 651,-66.88"/>
<text text-anchor="start" x="654" y="-73.08" font-family="Helvetica,sans-Serif" font-size="11.00">&lt; 3</text>
<polygon fill="#ffffff" stroke="transparent" points="710,-66.88 710,-84.88 741,-84.88 741,-66.88 710,-66.88"/>
<polygon fill="none" stroke="black" points="710,-66.88 710,-84.88 741,-84.88 741,-66.88 710,-66.88"/>
<text text-anchor="start" x="731" y="-73.08" font-family="Helvetica,sans-Serif" font-size="11.00"> &#160;</text>
<polygon fill="#ffffff" stroke="transparent" points="741,-66.88 741,-84.88 782,-84.88 782,-66.88 741,-66.88"/>
<polygon fill="none" stroke="black" points="741,-66.88 741,-84.88 782,-84.88 782,-66.88 741,-66.88"/>
<text text-anchor="start" x="763" y="-73.08" font-family="Helvetica,sans-Serif" font-size="11.00">2 &gt;</text>
</a>
</g>
</g>
<!-- mstr_entity_person_roles&#45;&gt;mstr_persons -->
<g id="edge14" class="edge">
<title>mstr_entity_person_roles:w&#45;&gt;mstr_persons:e</title>
<path fill="none" stroke="black" d="M931.03,-93.88C870.47,-93.88 850.14,-93.88 783,-93.88"/>
<polygon fill="black" stroke="black" points="937.5,-93.88 945.5,-97.48 941.5,-93.88 945.5,-93.88 945.5,-93.88 945.5,-93.88 941.5,-93.88 945.5,-90.28 937.5,-93.88 937.5,-93.88"/>
<ellipse fill="none" stroke="black" cx="934.3" cy="-93.88" rx="3.2" ry="3.2"/>
</g>
<!-- mstr_persons&#45;&gt;ms_syst_data.syst_enum_items -->
<g id="edge22" class="edge">
<title>mstr_persons:w&#45;&gt;ms_syst_data.syst_enum_items:e</title>
<path fill="none" stroke="black" d="M635.22,-93.92C480.34,-94.83 418.61,-111.47 298,-217.88 268.56,-243.85 297.76,-296.88 258.5,-296.88"/>
<polygon fill="black" stroke="black" points="642,-93.9 650.01,-97.48 646,-93.89 650,-93.88 650,-93.88 650,-93.88 646,-93.89 649.99,-90.28 642,-93.9 642,-93.9"/>
<ellipse fill="none" stroke="black" cx="638.8" cy="-93.91" rx="3.2" ry="3.2"/>
</g>
<!-- mstr_persons&#45;&gt;ms_syst_data.syst_enum_items -->
<g id="edge23" class="edge">
<title>mstr_persons:w&#45;&gt;ms_syst_data.syst_enum_items:e</title>
<path fill="none" stroke="black" d="M635.17,-93.93C479.83,-95.08 419.64,-115.75 298,-221.88 269.61,-246.65 296.17,-296.88 258.5,-296.88"/>
<polygon fill="black" stroke="black" points="642,-93.91 650.01,-97.48 646,-93.89 650,-93.88 650,-93.88 650,-93.88 646,-93.89 649.99,-90.28 642,-93.91 642,-93.91"/>
<ellipse fill="none" stroke="black" cx="638.8" cy="-93.92" rx="3.2" ry="3.2"/>
</g>
<!-- mstr_persons&#45;&gt;mstr_entities -->
<g id="edge21" class="edge">
<title>mstr_persons:w&#45;&gt;mstr_entities:e</title>
<path fill="none" stroke="black" d="M635.54,-93.96C593.24,-94.57 570.5,-99.49 541,-135.88 505.71,-179.41 557.04,-384.88 501,-384.88"/>
<polygon fill="black" stroke="black" points="642,-93.92 650.02,-97.48 646,-93.9 650,-93.88 650,-93.88 650,-93.88 646,-93.9 649.98,-90.28 642,-93.92 642,-93.92"/>
<ellipse fill="none" stroke="black" cx="638.8" cy="-93.94" rx="3.2" ry="3.2"/>
</g>
<!-- mstr_entity_purchasing_entities -->
<g id="node10" class="node">
<title>mstr_entity_purchasing_entities</title>
<g id="a_node10"><a xlink:href="../../tables/mstr_entity_purchasing_entities.html" xlink:title="mstr_entity_purchasing_entities" target="_top">
<polygon fill="#ffffff" stroke="transparent" points="549,-436.88 549,-700.88 883,-700.88 883,-436.88 549,-436.88"/>
<polygon fill="#f5f5f5" stroke="transparent" points="551,-676.88 551,-698.88 881,-698.88 881,-676.88 551,-676.88"/>
<polygon fill="none" stroke="black" points="551,-676.88 551,-698.88 881,-698.88 881,-676.88 551,-676.88"/>
<text text-anchor="start" x="556" y="-686.08" font-family="Helvetica,sans-Serif" font-weight="bold" font-size="11.00">mstr_entity_purchasing_entities</text>
<text text-anchor="start" x="846" y="-685.08" font-family="Helvetica,sans-Serif" font-size="11.00">[table]</text>
<polygon fill="none" stroke="black" points="551,-654.88 551,-676.88 788,-676.88 788,-654.88 551,-654.88"/>
<image xlink:href="../../images/primaryKeys.png" width="11px" height="12px" preserveAspectRatio="xMinYMin meet" x="556" y="-671.878"/>
<text text-anchor="start" x="571" y="-663.08" font-family="Helvetica,sans-Serif" font-size="11.00">id</text>
<polygon fill="none" stroke="black" points="788,-654.88 788,-676.88 881,-676.88 881,-654.88 788,-654.88"/>
<text text-anchor="start" x="791" y="-663.08" font-family="Helvetica,sans-Serif" font-size="11.00">uuid[2147483647]</text>
<polygon fill="#ffffff" stroke="transparent" points="551,-632.88 551,-654.88 788,-654.88 788,-632.88 551,-632.88"/>
<polygon fill="none" stroke="black" points="551,-632.88 551,-654.88 788,-654.88 788,-632.88 551,-632.88"/>
<image xlink:href="../../images/foreignKeys.png" width="11px" height="12px" preserveAspectRatio="xMinYMin meet" x="556" y="-649.878"/>
<text text-anchor="start" x="571" y="-641.08" font-family="Helvetica,sans-Serif" font-size="11.00">entity_id</text>
<polygon fill="none" stroke="black" points="788,-632.88 788,-654.88 881,-654.88 881,-632.88 788,-632.88"/>
<text text-anchor="start" x="791" y="-641.08" font-family="Helvetica,sans-Serif" font-size="11.00">uuid[2147483647]</text>
<polygon fill="#ffffff" stroke="transparent" points="551,-610.88 551,-632.88 788,-632.88 788,-610.88 551,-610.88"/>
<polygon fill="none" stroke="black" points="551,-610.88 551,-632.88 788,-632.88 788,-610.88 551,-610.88"/>
<image xlink:href="../../images/foreignKeys.png" width="11px" height="12px" preserveAspectRatio="xMinYMin meet" x="556" y="-627.878"/>
<text text-anchor="start" x="571" y="-619.08" font-family="Helvetica,sans-Serif" font-size="11.00">owning_entity_id</text>
<polygon fill="none" stroke="black" points="788,-610.88 788,-632.88 881,-632.88 881,-610.88 788,-610.88"/>
<text text-anchor="start" x="791" y="-619.08" font-family="Helvetica,sans-Serif" font-size="11.00">uuid[2147483647]</text>
<polygon fill="none" stroke="black" points="551,-588.88 551,-610.88 788,-610.88 788,-588.88 551,-588.88"/>
<text text-anchor="start" x="571" y="-597.08" font-family="Helvetica,sans-Serif" font-size="11.00">diag_timestamp_created</text>
<polygon fill="none" stroke="black" points="788,-588.88 788,-610.88 881,-610.88 881,-588.88 788,-588.88"/>
<text text-anchor="start" x="791" y="-597.08" font-family="Helvetica,sans-Serif" font-size="11.00">timestamptz[35,6]</text>
<polygon fill="none" stroke="black" points="551,-566.88 551,-588.88 788,-588.88 788,-566.88 551,-566.88"/>
<text text-anchor="start" x="571" y="-575.08" font-family="Helvetica,sans-Serif" font-size="11.00">diag_role_created</text>
<polygon fill="none" stroke="black" points="788,-566.88 788,-588.88 881,-588.88 881,-566.88 788,-566.88"/>
<text text-anchor="start" x="791" y="-575.08" font-family="Helvetica,sans-Serif" font-size="11.00">text[2147483647]</text>
<polygon fill="none" stroke="black" points="551,-544.88 551,-566.88 788,-566.88 788,-544.88 551,-544.88"/>
<text text-anchor="start" x="571" y="-553.08" font-family="Helvetica,sans-Serif" font-size="11.00">diag_timestamp_modified</text>
<polygon fill="none" stroke="black" points="788,-544.88 788,-566.88 881,-566.88 881,-544.88 788,-544.88"/>
<text text-anchor="start" x="791" y="-553.08" font-family="Helvetica,sans-Serif" font-size="11.00">timestamptz[35,6]</text>
<polygon fill="none" stroke="black" points="551,-522.88 551,-544.88 788,-544.88 788,-522.88 551,-522.88"/>
<text text-anchor="start" x="571" y="-531.08" font-family="Helvetica,sans-Serif" font-size="11.00">diag_wallclock_modified</text>
<polygon fill="none" stroke="black" points="788,-522.88 788,-544.88 881,-544.88 881,-522.88 788,-522.88"/>
<text text-anchor="start" x="791" y="-531.08" font-family="Helvetica,sans-Serif" font-size="11.00">timestamptz[35,6]</text>
<polygon fill="none" stroke="black" points="551,-500.88 551,-522.88 788,-522.88 788,-500.88 551,-500.88"/>
<text text-anchor="start" x="571" y="-509.08" font-family="Helvetica,sans-Serif" font-size="11.00">diag_role_modified</text>
<polygon fill="none" stroke="black" points="788,-500.88 788,-522.88 881,-522.88 881,-500.88 788,-500.88"/>
<text text-anchor="start" x="791" y="-509.08" font-family="Helvetica,sans-Serif" font-size="11.00">text[2147483647]</text>
<polygon fill="none" stroke="black" points="551,-478.88 551,-500.88 788,-500.88 788,-478.88 551,-478.88"/>
<text text-anchor="start" x="571" y="-487.08" font-family="Helvetica,sans-Serif" font-size="11.00">diag_row_version</text>
<polygon fill="none" stroke="black" points="788,-478.88 788,-500.88 881,-500.88 881,-478.88 788,-478.88"/>
<text text-anchor="start" x="791" y="-487.08" font-family="Helvetica,sans-Serif" font-size="11.00">int8[19]</text>
<polygon fill="none" stroke="black" points="551,-456.88 551,-478.88 788,-478.88 788,-456.88 551,-456.88"/>
<text text-anchor="start" x="571" y="-465.08" font-family="Helvetica,sans-Serif" font-size="11.00">diag_update_count</text>
<polygon fill="none" stroke="black" points="788,-456.88 788,-478.88 881,-478.88 881,-456.88 788,-456.88"/>
<text text-anchor="start" x="791" y="-465.08" font-family="Helvetica,sans-Serif" font-size="11.00">int8[19]</text>
<polygon fill="#ffffff" stroke="transparent" points="551,-438.88 551,-456.88 674,-456.88 674,-438.88 551,-438.88"/>
<polygon fill="none" stroke="black" points="551,-438.88 551,-456.88 674,-456.88 674,-438.88 551,-438.88"/>
<text text-anchor="start" x="554" y="-445.08" font-family="Helvetica,sans-Serif" font-size="11.00">&lt; 2</text>
<polygon fill="#ffffff" stroke="transparent" points="674,-438.88 674,-456.88 788,-456.88 788,-438.88 674,-438.88"/>
<polygon fill="none" stroke="black" points="674,-438.88 674,-456.88 788,-456.88 788,-438.88 674,-438.88"/>
<text text-anchor="start" x="778" y="-445.08" font-family="Helvetica,sans-Serif" font-size="11.00"> &#160;</text>
<polygon fill="#ffffff" stroke="transparent" points="788,-438.88 788,-456.88 881,-456.88 881,-438.88 788,-438.88"/>
<polygon fill="none" stroke="black" points="788,-438.88 788,-456.88 881,-456.88 881,-438.88 788,-438.88"/>
<text text-anchor="start" x="862" y="-445.08" font-family="Helvetica,sans-Serif" font-size="11.00">0 &gt;</text>
<polygon fill="none" stroke="black" stroke-width="2" points="550,-437.88 550,-699.88 882,-699.88 882,-437.88 550,-437.88"/>
</a>
</g>
</g>
<!-- mstr_entity_purchasing_entities&#45;&gt;mstr_entities -->
<g id="edge15" class="edge">
<title>mstr_entity_purchasing_entities:w&#45;&gt;mstr_entities:e</title>
<path fill="none" stroke="black" d="M536.66,-637.48C503.09,-597.59 554.08,-384.88 501,-384.88"/>
<polygon fill="black" stroke="black" points="542.79,-640.42 548.44,-647.12 546.39,-642.15 550,-643.88 550,-643.88 550,-643.88 546.39,-642.15 551.56,-640.63 542.79,-640.42 542.79,-640.42"/>
<ellipse fill="none" stroke="black" cx="539.9" cy="-639.03" rx="3.2" ry="3.2"/>
</g>
<!-- mstr_entity_purchasing_entities&#45;&gt;mstr_entities -->
<g id="edge16" class="edge">
<title>mstr_entity_purchasing_entities:w&#45;&gt;mstr_entities:e</title>
<path fill="none" stroke="black" d="M535.66,-620.11C458.6,-598.42 603.1,-384.88 501,-384.88"/>
<polygon fill="black" stroke="black" points="542.06,-620.9 549.56,-625.45 546.03,-621.39 550,-621.88 550,-621.88 550,-621.88 546.03,-621.39 550.44,-618.3 542.06,-620.9 542.06,-620.9"/>
<ellipse fill="none" stroke="black" cx="538.88" cy="-620.5" rx="3.2" ry="3.2"/>
</g>
<!-- mstr_entity_selling_entities -->
<g id="node11" class="node">
<title>mstr_entity_selling_entities</title>
<g id="a_node11"><a xlink:href="../../tables/mstr_entity_selling_entities.html" xlink:title="mstr_entity_selling_entities" target="_top">
<polygon fill="#ffffff" stroke="transparent" points="603.5,-357.88 603.5,-415.88 828.5,-415.88 828.5,-357.88 603.5,-357.88"/>
<polygon fill="#f5f5f5" stroke="transparent" points="604,-393.88 604,-415.88 829,-415.88 829,-393.88 604,-393.88"/>
<polygon fill="none" stroke="black" points="604,-393.88 604,-415.88 829,-415.88 829,-393.88 604,-393.88"/>
<text text-anchor="start" x="609" y="-403.08" font-family="Helvetica,sans-Serif" font-weight="bold" font-size="11.00">mstr_entity_selling_entities</text>
<text text-anchor="start" x="794" y="-402.08" font-family="Helvetica,sans-Serif" font-size="11.00">[table]</text>
<polygon fill="none" stroke="black" points="604,-375.88 604,-393.88 829,-393.88 829,-375.88 604,-375.88"/>
<text text-anchor="start" x="607" y="-382.08" font-family="Helvetica,sans-Serif" font-size="11.00">...</text>
<polygon fill="#ffffff" stroke="transparent" points="604,-357.88 604,-375.88 714,-375.88 714,-357.88 604,-357.88"/>
<polygon fill="none" stroke="black" points="604,-357.88 604,-375.88 714,-375.88 714,-357.88 604,-357.88"/>
<text text-anchor="start" x="607" y="-364.08" font-family="Helvetica,sans-Serif" font-size="11.00">&lt; 2</text>
<polygon fill="#ffffff" stroke="transparent" points="714,-357.88 714,-375.88 771,-375.88 771,-357.88 714,-357.88"/>
<polygon fill="none" stroke="black" points="714,-357.88 714,-375.88 771,-375.88 771,-357.88 714,-357.88"/>
<text text-anchor="start" x="761" y="-364.08" font-family="Helvetica,sans-Serif" font-size="11.00"> &#160;</text>
<polygon fill="#ffffff" stroke="transparent" points="771,-357.88 771,-375.88 829,-375.88 829,-357.88 771,-357.88"/>
<polygon fill="none" stroke="black" points="771,-357.88 771,-375.88 829,-375.88 829,-357.88 771,-357.88"/>
<text text-anchor="start" x="819" y="-364.08" font-family="Helvetica,sans-Serif" font-size="11.00"> &#160;</text>
</a>
</g>
</g>
<!-- mstr_entity_selling_entities&#45;&gt;mstr_entities -->
<g id="edge17" class="edge">
<title>mstr_entity_selling_entities:w&#45;&gt;mstr_entities:e</title>
<path fill="none" stroke="black" d="M588.35,-383.02C554.54,-378.96 541.02,-379.58 501,-384.88"/>
<polygon fill="black" stroke="black" points="595.06,-383.87 602.55,-388.45 599.03,-384.37 603,-384.88 603,-384.88 603,-384.88 599.03,-384.37 603.45,-381.31 595.06,-383.87 595.06,-383.87"/>
<ellipse fill="none" stroke="black" cx="591.89" cy="-383.47" rx="3.2" ry="3.2"/>
</g>
<!-- mstr_entity_selling_entities&#45;&gt;mstr_entities -->
<g id="edge18" class="edge">
<title>mstr_entity_selling_entities:w&#45;&gt;mstr_entities:e</title>
<path fill="none" stroke="black" d="M588.35,-387.05C554.54,-391.78 541.02,-391.06 501,-384.88"/>
<polygon fill="black" stroke="black" points="595.09,-386.05 603.53,-388.44 599.04,-385.46 603,-384.88 603,-384.88 603,-384.88 599.04,-385.46 602.47,-381.32 595.09,-386.05 595.09,-386.05"/>
<ellipse fill="none" stroke="black" cx="591.92" cy="-386.52" rx="3.2" ry="3.2"/>
</g>
<!-- mstr_entity_staff_entities -->
<g id="node12" class="node">
<title>mstr_entity_staff_entities</title>
<g id="a_node12"><a xlink:href="../../tables/mstr_entity_staff_entities.html" xlink:title="mstr_entity_staff_entities" target="_top">
<polygon fill="#ffffff" stroke="transparent" points="610,-224.88 610,-282.88 822,-282.88 822,-224.88 610,-224.88"/>
<polygon fill="#f5f5f5" stroke="transparent" points="610,-260.88 610,-282.88 822,-282.88 822,-260.88 610,-260.88"/>
<polygon fill="none" stroke="black" points="610,-260.88 610,-282.88 822,-282.88 822,-260.88 610,-260.88"/>
<text text-anchor="start" x="615" y="-270.08" font-family="Helvetica,sans-Serif" font-weight="bold" font-size="11.00">mstr_entity_staff_entities</text>
<text text-anchor="start" x="787" y="-269.08" font-family="Helvetica,sans-Serif" font-size="11.00">[table]</text>
<polygon fill="none" stroke="black" points="610,-242.88 610,-260.88 822,-260.88 822,-242.88 610,-242.88"/>
<text text-anchor="start" x="613" y="-249.08" font-family="Helvetica,sans-Serif" font-size="11.00">...</text>
<polygon fill="#ffffff" stroke="transparent" points="610,-224.88 610,-242.88 714,-242.88 714,-224.88 610,-224.88"/>
<polygon fill="none" stroke="black" points="610,-224.88 610,-242.88 714,-242.88 714,-224.88 610,-224.88"/>
<text text-anchor="start" x="613" y="-231.08" font-family="Helvetica,sans-Serif" font-size="11.00">&lt; 2</text>
<polygon fill="#ffffff" stroke="transparent" points="714,-224.88 714,-242.88 768,-242.88 768,-224.88 714,-224.88"/>
<polygon fill="none" stroke="black" points="714,-224.88 714,-242.88 768,-242.88 768,-224.88 714,-224.88"/>
<text text-anchor="start" x="758" y="-231.08" font-family="Helvetica,sans-Serif" font-size="11.00"> &#160;</text>
<polygon fill="#ffffff" stroke="transparent" points="768,-224.88 768,-242.88 822,-242.88 822,-224.88 768,-224.88"/>
<polygon fill="none" stroke="black" points="768,-224.88 768,-242.88 822,-242.88 822,-224.88 768,-224.88"/>
<text text-anchor="start" x="812" y="-231.08" font-family="Helvetica,sans-Serif" font-size="11.00"> &#160;</text>
</a>
</g>
</g>
<!-- mstr_entity_staff_entities&#45;&gt;mstr_entities -->
<g id="edge19" class="edge">
<title>mstr_entity_staff_entities:w&#45;&gt;mstr_entities:e</title>
<path fill="none" stroke="black" d="M594.57,-250.71C569.98,-251.28 561.03,-267.4 541,-290.88 513.11,-323.56 543.96,-378.88 501,-384.88"/>
<polygon fill="black" stroke="black" points="601.03,-251.23 608.71,-255.47 605.01,-251.56 609,-251.88 609,-251.88 609,-251.88 605.01,-251.56 609.29,-248.29 601.03,-251.23 601.03,-251.23"/>
<ellipse fill="none" stroke="black" cx="597.84" cy="-250.98" rx="3.2" ry="3.2"/>
</g>
<!-- mstr_entity_staff_entities&#45;&gt;mstr_entities -->
<g id="edge20" class="edge">
<title>mstr_entity_staff_entities:w&#45;&gt;mstr_entities:e</title>
<path fill="none" stroke="black" d="M594.91,-255.57C570.06,-264.13 561.12,-280.29 541,-303.88 513.11,-336.56 543.96,-391.88 501,-384.88"/>
<polygon fill="black" stroke="black" points="601.26,-253.9 609.91,-255.36 605.13,-252.89 609,-251.88 609,-251.88 609,-251.88 605.13,-252.89 608.09,-248.4 601.26,-253.9 601.26,-253.9"/>
<ellipse fill="none" stroke="black" cx="598.17" cy="-254.71" rx="3.2" ry="3.2"/>
</g>
</g>
</svg>
