<?xml version="1.0" encoding="UTF-8" standalone="no"?>
<!DOCTYPE svg PUBLIC "-//W3C//DTD SVG 1.1//EN"
 "http://www.w3.org/Graphics/SVG/1.1/DTD/svg11.dtd">
<!-- Generated by graphviz version 2.43.0 (0)
 -->
<!-- Title: twoDegreesRelationshipsDiagram Pages: 1 -->
<svg width="1142pt" height="900pt"
 viewBox="0.00 0.00 1142.00 899.69" xmlns="http://www.w3.org/2000/svg" xmlns:xlink="http://www.w3.org/1999/xlink">
<g id="graph0" class="graph" transform="scale(1 1) rotate(0) translate(4 895.69)">
<title>twoDegreesRelationshipsDiagram</title>
<polygon fill="#ffffff" stroke="transparent" points="-4,4 -4,-895.69 1138,-895.69 1138,4 -4,4"/>
<text text-anchor="middle" x="71.5" y="-7.2" font-family="Helvetica,sans-Serif" font-size="11.00">Generated by SchemaSpy</text>
<!-- mstr_contacts -->
<g id="node1" class="node">
<title>mstr_contacts</title>
<g id="a_node1"><a xlink:href="../../tables/mstr_contacts.html" xlink:title="mstr_contacts" target="_top">
<polygon fill="#ffffff" stroke="transparent" points="627,-829.69 627,-887.69 762,-887.69 762,-829.69 627,-829.69"/>
<polygon fill="#f5f5f5" stroke="transparent" points="627.5,-865.69 627.5,-887.69 762.5,-887.69 762.5,-865.69 627.5,-865.69"/>
<polygon fill="none" stroke="black" points="627.5,-865.69 627.5,-887.69 762.5,-887.69 762.5,-865.69 627.5,-865.69"/>
<text text-anchor="start" x="632.5" y="-874.89" font-family="Helvetica,sans-Serif" font-weight="bold" font-size="11.00">mstr_contacts</text>
<text text-anchor="start" x="727.5" y="-873.89" font-family="Helvetica,sans-Serif" font-size="11.00">[table]</text>
<polygon fill="none" stroke="black" points="627.5,-847.69 627.5,-865.69 762.5,-865.69 762.5,-847.69 627.5,-847.69"/>
<text text-anchor="start" x="630.5" y="-853.89" font-family="Helvetica,sans-Serif" font-size="11.00">...</text>
<polygon fill="#ffffff" stroke="transparent" points="627.5,-829.69 627.5,-847.69 688.5,-847.69 688.5,-829.69 627.5,-829.69"/>
<polygon fill="none" stroke="black" points="627.5,-829.69 627.5,-847.69 688.5,-847.69 688.5,-829.69 627.5,-829.69"/>
<text text-anchor="start" x="630.5" y="-835.89" font-family="Helvetica,sans-Serif" font-size="11.00">&lt; 3</text>
<polygon fill="#ffffff" stroke="transparent" points="688.5,-829.69 688.5,-847.69 720.5,-847.69 720.5,-829.69 688.5,-829.69"/>
<polygon fill="none" stroke="black" points="688.5,-829.69 688.5,-847.69 720.5,-847.69 720.5,-829.69 688.5,-829.69"/>
<text text-anchor="start" x="710.5" y="-835.89" font-family="Helvetica,sans-Serif" font-size="11.00"> &#160;</text>
<polygon fill="#ffffff" stroke="transparent" points="720.5,-829.69 720.5,-847.69 762.5,-847.69 762.5,-829.69 720.5,-829.69"/>
<polygon fill="none" stroke="black" points="720.5,-829.69 720.5,-847.69 762.5,-847.69 762.5,-829.69 720.5,-829.69"/>
<text text-anchor="start" x="743.5" y="-835.89" font-family="Helvetica,sans-Serif" font-size="11.00">1 &gt;</text>
</a>
</g>
</g>
<!-- ms_syst_data.syst_enum_items -->
<g id="node2" class="node">
<title>ms_syst_data.syst_enum_items</title>
<g id="a_node2"><a xlink:href="../../../ms_syst_data/tables/syst_enum_items.html" xlink:title="ms_syst_data.syst_enum_items" target="_top">
<polygon fill="#ffffff" stroke="transparent" points="8,-477.69 8,-535.69 257,-535.69 257,-477.69 8,-477.69"/>
<polygon fill="#f5f5f5" stroke="transparent" points="8.5,-513.69 8.5,-535.69 257.5,-535.69 257.5,-513.69 8.5,-513.69"/>
<polygon fill="none" stroke="black" points="8.5,-513.69 8.5,-535.69 257.5,-535.69 257.5,-513.69 8.5,-513.69"/>
<text text-anchor="start" x="13.5" y="-522.89" font-family="Helvetica,sans-Serif" font-weight="bold" font-size="11.00">ms_syst_data.syst_enum_items</text>
<text text-anchor="start" x="222.5" y="-521.89" font-family="Helvetica,sans-Serif" font-size="11.00">[table]</text>
<polygon fill="none" stroke="black" points="8.5,-495.69 8.5,-513.69 257.5,-513.69 257.5,-495.69 8.5,-495.69"/>
<text text-anchor="start" x="11.5" y="-501.89" font-family="Helvetica,sans-Serif" font-size="11.00">...</text>
<polygon fill="#ffffff" stroke="transparent" points="8.5,-477.69 8.5,-495.69 118.5,-495.69 118.5,-477.69 8.5,-477.69"/>
<polygon fill="none" stroke="black" points="8.5,-477.69 8.5,-495.69 118.5,-495.69 118.5,-477.69 8.5,-477.69"/>
<text text-anchor="start" x="11.5" y="-483.89" font-family="Helvetica,sans-Serif" font-size="11.00"> &#160;</text>
<polygon fill="#ffffff" stroke="transparent" points="118.5,-477.69 118.5,-495.69 180.5,-495.69 180.5,-477.69 118.5,-477.69"/>
<polygon fill="none" stroke="black" points="118.5,-477.69 118.5,-495.69 180.5,-495.69 180.5,-477.69 118.5,-477.69"/>
<text text-anchor="start" x="170.5" y="-483.89" font-family="Helvetica,sans-Serif" font-size="11.00"> &#160;</text>
<polygon fill="#ffffff" stroke="transparent" points="180.5,-477.69 180.5,-495.69 257.5,-495.69 257.5,-477.69 180.5,-477.69"/>
<polygon fill="none" stroke="black" points="180.5,-477.69 180.5,-495.69 257.5,-495.69 257.5,-477.69 180.5,-477.69"/>
<text text-anchor="start" x="232.5" y="-483.89" font-family="Helvetica,sans-Serif" font-size="11.00">10 &gt;</text>
</a>
</g>
</g>
<!-- mstr_contacts&#45;&gt;ms_syst_data.syst_enum_items -->
<g id="edge1" class="edge">
<title>mstr_contacts:w&#45;&gt;ms_syst_data.syst_enum_items:e</title>
<path fill="none" stroke="black" d="M611.86,-856.63C463.2,-855.52 394.21,-835.83 298,-715.69 238.37,-641.21 353.91,-504.69 258.5,-504.69"/>
<polygon fill="black" stroke="black" points="618.5,-856.66 626.49,-860.29 622.5,-856.67 626.5,-856.69 626.5,-856.69 626.5,-856.69 622.5,-856.67 626.51,-853.09 618.5,-856.66 618.5,-856.66"/>
<ellipse fill="none" stroke="black" cx="615.3" cy="-856.65" rx="3.2" ry="3.2"/>
</g>
<!-- mstr_contacts&#45;&gt;ms_syst_data.syst_enum_items -->
<g id="edge2" class="edge">
<title>mstr_contacts:w&#45;&gt;ms_syst_data.syst_enum_items:e</title>
<path fill="none" stroke="black" d="M611.89,-856.23C539.07,-852.06 382.22,-817.87 298,-711.69 239.8,-638.31 352.16,-504.69 258.5,-504.69"/>
<polygon fill="black" stroke="black" points="618.5,-856.44 626.39,-860.28 622.5,-856.56 626.5,-856.69 626.5,-856.69 626.5,-856.69 622.5,-856.56 626.61,-853.09 618.5,-856.44 618.5,-856.44"/>
<ellipse fill="none" stroke="black" cx="615.31" cy="-856.34" rx="3.2" ry="3.2"/>
</g>
<!-- mstr_entities -->
<g id="node3" class="node">
<title>mstr_entities</title>
<g id="a_node3"><a xlink:href="../../tables/mstr_entities.html" xlink:title="mstr_entities" target="_top">
<polygon fill="#ffffff" stroke="transparent" points="306,-435.69 306,-625.69 500,-625.69 500,-435.69 306,-435.69"/>
<polygon fill="#f5f5f5" stroke="transparent" points="306,-603.69 306,-625.69 500,-625.69 500,-603.69 306,-603.69"/>
<polygon fill="none" stroke="black" points="306,-603.69 306,-625.69 500,-625.69 500,-603.69 306,-603.69"/>
<text text-anchor="start" x="311" y="-612.89" font-family="Helvetica,sans-Serif" font-weight="bold" font-size="11.00">mstr_entities</text>
<text text-anchor="start" x="465" y="-611.89" font-family="Helvetica,sans-Serif" font-size="11.00">[table]</text>
<polygon fill="none" stroke="black" points="306,-581.69 306,-603.69 500,-603.69 500,-581.69 306,-581.69"/>
<image xlink:href="../../images/primaryKeys.png" width="11px" height="12px" preserveAspectRatio="xMinYMin meet" x="311" y="-598.686"/>
<text text-anchor="start" x="326" y="-589.89" font-family="Helvetica,sans-Serif" font-size="11.00">id</text>
<polygon fill="none" stroke="black" points="306,-559.69 306,-581.69 500,-581.69 500,-559.69 306,-559.69"/>
<image xlink:href="../../images/foreignKeys.png" width="11px" height="12px" preserveAspectRatio="xMinYMin meet" x="311" y="-576.686"/>
<text text-anchor="start" x="326" y="-567.89" font-family="Helvetica,sans-Serif" font-size="11.00">owning_entity_id</text>
<polygon fill="#ffffff" stroke="transparent" points="306,-537.69 306,-559.69 500,-559.69 500,-537.69 306,-537.69"/>
<polygon fill="none" stroke="black" points="306,-537.69 306,-559.69 500,-559.69 500,-537.69 306,-537.69"/>
<text text-anchor="start" x="326" y="-545.89" font-family="Helvetica,sans-Serif" font-size="11.00">internal_name</text>
<polygon fill="#ffffff" stroke="transparent" points="306,-515.69 306,-537.69 500,-537.69 500,-515.69 306,-515.69"/>
<polygon fill="none" stroke="black" points="306,-515.69 306,-537.69 500,-537.69 500,-515.69 306,-515.69"/>
<text text-anchor="start" x="326" y="-523.89" font-family="Helvetica,sans-Serif" font-size="11.00">display_name</text>
<polygon fill="none" stroke="black" points="306,-493.69 306,-515.69 500,-515.69 500,-493.69 306,-493.69"/>
<image xlink:href="../../images/foreignKeys.png" width="11px" height="12px" preserveAspectRatio="xMinYMin meet" x="311" y="-510.686"/>
<text text-anchor="start" x="326" y="-501.89" font-family="Helvetica,sans-Serif" font-size="11.00">entity_type_id</text>
<polygon fill="none" stroke="black" points="306,-471.69 306,-493.69 500,-493.69 500,-471.69 306,-471.69"/>
<image xlink:href="../../images/foreignKeys.png" width="11px" height="12px" preserveAspectRatio="xMinYMin meet" x="311" y="-488.686"/>
<text text-anchor="start" x="326" y="-479.89" font-family="Helvetica,sans-Serif" font-size="11.00">entity_state_id</text>
<polygon fill="none" stroke="black" points="306,-453.69 306,-471.69 500,-471.69 500,-453.69 306,-453.69"/>
<text text-anchor="start" x="309" y="-459.89" font-family="Helvetica,sans-Serif" font-size="11.00">...</text>
<polygon fill="#ffffff" stroke="transparent" points="306,-435.69 306,-453.69 393,-453.69 393,-435.69 306,-435.69"/>
<polygon fill="none" stroke="black" points="306,-435.69 306,-453.69 393,-453.69 393,-435.69 306,-435.69"/>
<text text-anchor="start" x="309" y="-441.89" font-family="Helvetica,sans-Serif" font-size="11.00">&lt; 3</text>
<polygon fill="#ffffff" stroke="transparent" points="393,-435.69 393,-453.69 439,-453.69 439,-435.69 393,-435.69"/>
<polygon fill="none" stroke="black" points="393,-435.69 393,-453.69 439,-453.69 439,-435.69 393,-435.69"/>
<text text-anchor="start" x="429" y="-441.89" font-family="Helvetica,sans-Serif" font-size="11.00"> &#160;</text>
<polygon fill="#ffffff" stroke="transparent" points="439,-435.69 439,-453.69 500,-453.69 500,-435.69 439,-435.69"/>
<polygon fill="none" stroke="black" points="439,-435.69 439,-453.69 500,-453.69 500,-435.69 439,-435.69"/>
<text text-anchor="start" x="475" y="-441.89" font-family="Helvetica,sans-Serif" font-size="11.00">15 &gt;</text>
</a>
</g>
</g>
<!-- mstr_contacts&#45;&gt;mstr_entities -->
<g id="edge3" class="edge">
<title>mstr_contacts:w&#45;&gt;mstr_entities:e</title>
<path fill="none" stroke="black" d="M611.99,-856.43C580.37,-855.12 563.45,-848.12 541,-819.69 509.26,-779.49 552.22,-592.69 501,-592.69"/>
<polygon fill="black" stroke="black" points="618.5,-856.54 626.44,-860.29 622.5,-856.61 626.5,-856.69 626.5,-856.69 626.5,-856.69 622.5,-856.61 626.56,-853.09 618.5,-856.54 618.5,-856.54"/>
<ellipse fill="none" stroke="black" cx="615.3" cy="-856.49" rx="3.2" ry="3.2"/>
</g>
<!-- mstr_entities&#45;&gt;ms_syst_data.syst_enum_items -->
<g id="edge4" class="edge">
<title>mstr_entities:w&#45;&gt;ms_syst_data.syst_enum_items:e</title>
<path fill="none" stroke="black" d="M290.96,-486.32C280.27,-492.57 275.47,-504.69 258.5,-504.69"/>
<polygon fill="black" stroke="black" points="297.26,-484.69 305.9,-486.17 301.13,-483.69 305,-482.69 305,-482.69 305,-482.69 301.13,-483.69 304.1,-479.2 297.26,-484.69 297.26,-484.69"/>
<ellipse fill="none" stroke="black" cx="294.16" cy="-485.49" rx="3.2" ry="3.2"/>
</g>
<!-- mstr_entities&#45;&gt;ms_syst_data.syst_enum_items -->
<g id="edge5" class="edge">
<title>mstr_entities:w&#45;&gt;ms_syst_data.syst_enum_items:e</title>
<path fill="none" stroke="black" d="M290.55,-504.69C280.2,-504.69 273.35,-504.69 258.5,-504.69"/>
<polygon fill="black" stroke="black" points="297,-504.69 305,-508.29 301,-504.69 305,-504.69 305,-504.69 305,-504.69 301,-504.69 305,-501.09 297,-504.69 297,-504.69"/>
<ellipse fill="none" stroke="black" cx="293.8" cy="-504.69" rx="3.2" ry="3.2"/>
</g>
<!-- mstr_entity_bank_entities -->
<g id="node4" class="node">
<title>mstr_entity_bank_entities</title>
<g id="a_node4"><a xlink:href="../../tables/mstr_entity_bank_entities.html" xlink:title="mstr_entity_bank_entities" target="_top">
<polygon fill="#ffffff" stroke="transparent" points="587.5,-147.69 587.5,-205.69 801.5,-205.69 801.5,-147.69 587.5,-147.69"/>
<polygon fill="#f5f5f5" stroke="transparent" points="587.5,-183.69 587.5,-205.69 801.5,-205.69 801.5,-183.69 587.5,-183.69"/>
<polygon fill="none" stroke="black" points="587.5,-183.69 587.5,-205.69 801.5,-205.69 801.5,-183.69 587.5,-183.69"/>
<text text-anchor="start" x="592.5" y="-192.89" font-family="Helvetica,sans-Serif" font-weight="bold" font-size="11.00">mstr_entity_bank_entities</text>
<text text-anchor="start" x="766.5" y="-191.89" font-family="Helvetica,sans-Serif" font-size="11.00">[table]</text>
<polygon fill="none" stroke="black" points="587.5,-165.69 587.5,-183.69 801.5,-183.69 801.5,-165.69 587.5,-165.69"/>
<text text-anchor="start" x="590.5" y="-171.89" font-family="Helvetica,sans-Serif" font-size="11.00">...</text>
<polygon fill="#ffffff" stroke="transparent" points="587.5,-147.69 587.5,-165.69 692.5,-165.69 692.5,-147.69 587.5,-147.69"/>
<polygon fill="none" stroke="black" points="587.5,-147.69 587.5,-165.69 692.5,-165.69 692.5,-147.69 587.5,-147.69"/>
<text text-anchor="start" x="590.5" y="-153.89" font-family="Helvetica,sans-Serif" font-size="11.00">&lt; 2</text>
<polygon fill="#ffffff" stroke="transparent" points="692.5,-147.69 692.5,-165.69 746.5,-165.69 746.5,-147.69 692.5,-147.69"/>
<polygon fill="none" stroke="black" points="692.5,-147.69 692.5,-165.69 746.5,-165.69 746.5,-147.69 692.5,-147.69"/>
<text text-anchor="start" x="736.5" y="-153.89" font-family="Helvetica,sans-Serif" font-size="11.00"> &#160;</text>
<polygon fill="#ffffff" stroke="transparent" points="746.5,-147.69 746.5,-165.69 801.5,-165.69 801.5,-147.69 746.5,-147.69"/>
<polygon fill="none" stroke="black" points="746.5,-147.69 746.5,-165.69 801.5,-165.69 801.5,-147.69 746.5,-147.69"/>
<text text-anchor="start" x="791.5" y="-153.89" font-family="Helvetica,sans-Serif" font-size="11.00"> &#160;</text>
</a>
</g>
</g>
<!-- mstr_entity_bank_entities&#45;&gt;mstr_entities -->
<g id="edge6" class="edge">
<title>mstr_entity_bank_entities:w&#45;&gt;mstr_entities:e</title>
<path fill="none" stroke="black" d="M571.74,-173.86C556.31,-176.35 550.75,-191.28 541,-210.69 503.27,-285.77 585.03,-586.69 501,-592.69"/>
<polygon fill="black" stroke="black" points="578.51,-174.24 586.3,-178.28 582.51,-174.46 586.5,-174.69 586.5,-174.69 586.5,-174.69 582.51,-174.46 586.7,-171.09 578.51,-174.24 578.51,-174.24"/>
<ellipse fill="none" stroke="black" cx="575.32" cy="-174.06" rx="3.2" ry="3.2"/>
</g>
<!-- mstr_entity_bank_entities&#45;&gt;mstr_entities -->
<g id="edge7" class="edge">
<title>mstr_entity_bank_entities:w&#45;&gt;mstr_entities:e</title>
<path fill="none" stroke="black" d="M572.67,-179.95C556.53,-188.76 550.94,-203.9 541,-223.69 503.27,-298.77 585.03,-599.69 501,-592.69"/>
<polygon fill="black" stroke="black" points="579.02,-177.53 587.78,-178.05 582.76,-176.11 586.5,-174.69 586.5,-174.69 586.5,-174.69 582.76,-176.11 585.22,-171.32 579.02,-177.53 579.02,-177.53"/>
<ellipse fill="none" stroke="black" cx="576.03" cy="-178.67" rx="3.2" ry="3.2"/>
</g>
<!-- mstr_entity_facility_places -->
<g id="node5" class="node">
<title>mstr_entity_facility_places</title>
<g id="a_node5"><a xlink:href="../../tables/mstr_entity_facility_places.html" xlink:title="mstr_entity_facility_places" target="_top">
<polygon fill="#ffffff" stroke="transparent" points="898.5,-724.69 898.5,-782.69 1116.5,-782.69 1116.5,-724.69 898.5,-724.69"/>
<polygon fill="#f5f5f5" stroke="transparent" points="898.5,-760.69 898.5,-782.69 1116.5,-782.69 1116.5,-760.69 898.5,-760.69"/>
<polygon fill="none" stroke="black" points="898.5,-760.69 898.5,-782.69 1116.5,-782.69 1116.5,-760.69 898.5,-760.69"/>
<text text-anchor="start" x="903.5" y="-769.89" font-family="Helvetica,sans-Serif" font-weight="bold" font-size="11.00">mstr_entity_facility_places</text>
<text text-anchor="start" x="1081.5" y="-768.89" font-family="Helvetica,sans-Serif" font-size="11.00">[table]</text>
<polygon fill="none" stroke="black" points="898.5,-742.69 898.5,-760.69 1116.5,-760.69 1116.5,-742.69 898.5,-742.69"/>
<text text-anchor="start" x="901.5" y="-748.89" font-family="Helvetica,sans-Serif" font-size="11.00">...</text>
<polygon fill="#ffffff" stroke="transparent" points="898.5,-724.69 898.5,-742.69 1005.5,-742.69 1005.5,-724.69 898.5,-724.69"/>
<polygon fill="none" stroke="black" points="898.5,-724.69 898.5,-742.69 1005.5,-742.69 1005.5,-724.69 898.5,-724.69"/>
<text text-anchor="start" x="901.5" y="-730.89" font-family="Helvetica,sans-Serif" font-size="11.00">&lt; 2</text>
<polygon fill="#ffffff" stroke="transparent" points="1005.5,-724.69 1005.5,-742.69 1060.5,-742.69 1060.5,-724.69 1005.5,-724.69"/>
<polygon fill="none" stroke="black" points="1005.5,-724.69 1005.5,-742.69 1060.5,-742.69 1060.5,-724.69 1005.5,-724.69"/>
<text text-anchor="start" x="1050.5" y="-730.89" font-family="Helvetica,sans-Serif" font-size="11.00"> &#160;</text>
<polygon fill="#ffffff" stroke="transparent" points="1060.5,-724.69 1060.5,-742.69 1116.5,-742.69 1116.5,-724.69 1060.5,-724.69"/>
<polygon fill="none" stroke="black" points="1060.5,-724.69 1060.5,-742.69 1116.5,-742.69 1116.5,-724.69 1060.5,-724.69"/>
<text text-anchor="start" x="1106.5" y="-730.89" font-family="Helvetica,sans-Serif" font-size="11.00"> &#160;</text>
</a>
</g>
</g>
<!-- mstr_entity_facility_places&#45;&gt;mstr_entities -->
<g id="edge8" class="edge">
<title>mstr_entity_facility_places:w&#45;&gt;mstr_entities:e</title>
<path fill="none" stroke="black" d="M883.02,-750.38C871.38,-748.06 864.53,-743.24 848,-740.69 780.32,-730.23 594.7,-756.19 541,-713.69 496.59,-678.53 557.64,-592.69 501,-592.69"/>
<polygon fill="black" stroke="black" points="889.53,-750.97 897.18,-755.27 893.52,-751.33 897.5,-751.69 897.5,-751.69 897.5,-751.69 893.52,-751.33 897.82,-748.1 889.53,-750.97 889.53,-750.97"/>
<ellipse fill="none" stroke="black" cx="886.35" cy="-750.68" rx="3.2" ry="3.2"/>
</g>
<!-- mstr_places -->
<g id="node6" class="node">
<title>mstr_places</title>
<g id="a_node6"><a xlink:href="../../tables/mstr_places.html" xlink:title="mstr_places" target="_top">
<polygon fill="#ffffff" stroke="transparent" points="634.5,-750.69 634.5,-808.69 754.5,-808.69 754.5,-750.69 634.5,-750.69"/>
<polygon fill="#f5f5f5" stroke="transparent" points="634.5,-786.69 634.5,-808.69 754.5,-808.69 754.5,-786.69 634.5,-786.69"/>
<polygon fill="none" stroke="black" points="634.5,-786.69 634.5,-808.69 754.5,-808.69 754.5,-786.69 634.5,-786.69"/>
<text text-anchor="start" x="639.5" y="-795.89" font-family="Helvetica,sans-Serif" font-weight="bold" font-size="11.00">mstr_places</text>
<text text-anchor="start" x="719.5" y="-794.89" font-family="Helvetica,sans-Serif" font-size="11.00">[table]</text>
<polygon fill="none" stroke="black" points="634.5,-768.69 634.5,-786.69 754.5,-786.69 754.5,-768.69 634.5,-768.69"/>
<text text-anchor="start" x="637.5" y="-774.89" font-family="Helvetica,sans-Serif" font-size="11.00">...</text>
<polygon fill="#ffffff" stroke="transparent" points="634.5,-750.69 634.5,-768.69 687.5,-768.69 687.5,-750.69 634.5,-750.69"/>
<polygon fill="none" stroke="black" points="634.5,-750.69 634.5,-768.69 687.5,-768.69 687.5,-750.69 634.5,-750.69"/>
<text text-anchor="start" x="637.5" y="-756.89" font-family="Helvetica,sans-Serif" font-size="11.00">&lt; 3</text>
<polygon fill="#ffffff" stroke="transparent" points="687.5,-750.69 687.5,-768.69 716.5,-768.69 716.5,-750.69 687.5,-750.69"/>
<polygon fill="none" stroke="black" points="687.5,-750.69 687.5,-768.69 716.5,-768.69 716.5,-750.69 687.5,-750.69"/>
<text text-anchor="start" x="706.5" y="-756.89" font-family="Helvetica,sans-Serif" font-size="11.00"> &#160;</text>
<polygon fill="#ffffff" stroke="transparent" points="716.5,-750.69 716.5,-768.69 754.5,-768.69 754.5,-750.69 716.5,-750.69"/>
<polygon fill="none" stroke="black" points="716.5,-750.69 716.5,-768.69 754.5,-768.69 754.5,-750.69 716.5,-750.69"/>
<text text-anchor="start" x="735.5" y="-756.89" font-family="Helvetica,sans-Serif" font-size="11.00">3 &gt;</text>
</a>
</g>
</g>
<!-- mstr_entity_facility_places&#45;&gt;mstr_places -->
<g id="edge9" class="edge">
<title>mstr_entity_facility_places:w&#45;&gt;mstr_places:e</title>
<path fill="none" stroke="black" d="M883.01,-752.16C830.83,-755.68 814.52,-777.69 755.5,-777.69"/>
<polygon fill="black" stroke="black" points="889.5,-751.95 897.62,-755.28 893.5,-751.82 897.5,-751.69 897.5,-751.69 897.5,-751.69 893.5,-751.82 897.38,-748.09 889.5,-751.95 889.5,-751.95"/>
<ellipse fill="none" stroke="black" cx="886.31" cy="-752.05" rx="3.2" ry="3.2"/>
</g>
<!-- mstr_places&#45;&gt;ms_syst_data.syst_enum_items -->
<g id="edge25" class="edge">
<title>mstr_places:w&#45;&gt;ms_syst_data.syst_enum_items:e</title>
<path fill="none" stroke="black" d="M619.07,-777.63C467.74,-776.34 402.81,-753.37 298,-636.69 257.08,-591.13 319.74,-504.69 258.5,-504.69"/>
<polygon fill="black" stroke="black" points="625.5,-777.65 633.49,-781.29 629.5,-777.67 633.5,-777.69 633.5,-777.69 633.5,-777.69 629.5,-777.67 633.51,-774.09 625.5,-777.65 625.5,-777.65"/>
<ellipse fill="none" stroke="black" cx="622.3" cy="-777.64" rx="3.2" ry="3.2"/>
</g>
<!-- mstr_places&#45;&gt;ms_syst_data.syst_enum_items -->
<g id="edge26" class="edge">
<title>mstr_places:w&#45;&gt;ms_syst_data.syst_enum_items:e</title>
<path fill="none" stroke="black" d="M619.01,-777.62C467.11,-776.14 403.18,-749.95 298,-632.69 258.25,-588.36 318.04,-504.69 258.5,-504.69"/>
<polygon fill="black" stroke="black" points="625.5,-777.65 633.48,-781.29 629.5,-777.67 633.5,-777.69 633.5,-777.69 633.5,-777.69 629.5,-777.67 633.52,-774.09 625.5,-777.65 625.5,-777.65"/>
<ellipse fill="none" stroke="black" cx="622.3" cy="-777.63" rx="3.2" ry="3.2"/>
</g>
<!-- mstr_places&#45;&gt;mstr_entities -->
<g id="edge24" class="edge">
<title>mstr_places:w&#45;&gt;mstr_entities:e</title>
<path fill="none" stroke="black" d="M618.73,-777.37C584.12,-775.68 566.95,-766.73 541,-736.69 497.59,-686.41 567.42,-592.69 501,-592.69"/>
<polygon fill="black" stroke="black" points="625.5,-777.51 633.42,-781.28 629.5,-777.6 633.5,-777.69 633.5,-777.69 633.5,-777.69 629.5,-777.6 633.58,-774.09 625.5,-777.51 625.5,-777.51"/>
<ellipse fill="none" stroke="black" cx="622.3" cy="-777.44" rx="3.2" ry="3.2"/>
</g>
<!-- mstr_entity_inventory_places -->
<g id="node7" class="node">
<title>mstr_entity_inventory_places</title>
<g id="a_node7"><a xlink:href="../../tables/mstr_entity_inventory_places.html" xlink:title="mstr_entity_inventory_places" target="_top">
<polygon fill="#ffffff" stroke="transparent" points="889,-592.69 889,-650.69 1126,-650.69 1126,-592.69 889,-592.69"/>
<polygon fill="#f5f5f5" stroke="transparent" points="889.5,-628.69 889.5,-650.69 1126.5,-650.69 1126.5,-628.69 889.5,-628.69"/>
<polygon fill="none" stroke="black" points="889.5,-628.69 889.5,-650.69 1126.5,-650.69 1126.5,-628.69 889.5,-628.69"/>
<text text-anchor="start" x="894.5" y="-637.89" font-family="Helvetica,sans-Serif" font-weight="bold" font-size="11.00">mstr_entity_inventory_places</text>
<text text-anchor="start" x="1091.5" y="-636.89" font-family="Helvetica,sans-Serif" font-size="11.00">[table]</text>
<polygon fill="none" stroke="black" points="889.5,-610.69 889.5,-628.69 1126.5,-628.69 1126.5,-610.69 889.5,-610.69"/>
<text text-anchor="start" x="892.5" y="-616.89" font-family="Helvetica,sans-Serif" font-size="11.00">...</text>
<polygon fill="#ffffff" stroke="transparent" points="889.5,-592.69 889.5,-610.69 1005.5,-610.69 1005.5,-592.69 889.5,-592.69"/>
<polygon fill="none" stroke="black" points="889.5,-592.69 889.5,-610.69 1005.5,-610.69 1005.5,-592.69 889.5,-592.69"/>
<text text-anchor="start" x="892.5" y="-598.89" font-family="Helvetica,sans-Serif" font-size="11.00">&lt; 2</text>
<polygon fill="#ffffff" stroke="transparent" points="1005.5,-592.69 1005.5,-610.69 1065.5,-610.69 1065.5,-592.69 1005.5,-592.69"/>
<polygon fill="none" stroke="black" points="1005.5,-592.69 1005.5,-610.69 1065.5,-610.69 1065.5,-592.69 1005.5,-592.69"/>
<text text-anchor="start" x="1055.5" y="-598.89" font-family="Helvetica,sans-Serif" font-size="11.00"> &#160;</text>
<polygon fill="#ffffff" stroke="transparent" points="1065.5,-592.69 1065.5,-610.69 1126.5,-610.69 1126.5,-592.69 1065.5,-592.69"/>
<polygon fill="none" stroke="black" points="1065.5,-592.69 1065.5,-610.69 1126.5,-610.69 1126.5,-592.69 1065.5,-592.69"/>
<text text-anchor="start" x="1116.5" y="-598.89" font-family="Helvetica,sans-Serif" font-size="11.00"> &#160;</text>
</a>
</g>
</g>
<!-- mstr_entity_inventory_places&#45;&gt;mstr_entities -->
<g id="edge10" class="edge">
<title>mstr_entity_inventory_places:w&#45;&gt;mstr_entities:e</title>
<path fill="none" stroke="black" d="M874.79,-615.17C861.5,-602.88 871.96,-568.88 848,-555.69 788.24,-522.78 604.53,-530.81 541,-555.69 518.45,-564.52 525.22,-592.69 501,-592.69"/>
<polygon fill="black" stroke="black" points="880.9,-617.18 887.37,-623.11 884.7,-618.43 888.5,-619.69 888.5,-619.69 888.5,-619.69 884.7,-618.43 889.63,-616.27 880.9,-617.18 880.9,-617.18"/>
<ellipse fill="none" stroke="black" cx="877.86" cy="-616.18" rx="3.2" ry="3.2"/>
</g>
<!-- mstr_entity_inventory_places&#45;&gt;mstr_places -->
<g id="edge11" class="edge">
<title>mstr_entity_inventory_places:w&#45;&gt;mstr_places:e</title>
<path fill="none" stroke="black" d="M874.24,-622.6C850.89,-634.89 872.99,-683.17 848,-713.69 816.33,-752.36 805.49,-777.69 755.5,-777.69"/>
<polygon fill="black" stroke="black" points="880.66,-621.29 889.22,-623.21 884.58,-620.49 888.5,-619.69 888.5,-619.69 888.5,-619.69 884.58,-620.49 887.78,-616.16 880.66,-621.29 880.66,-621.29"/>
<ellipse fill="none" stroke="black" cx="877.53" cy="-621.93" rx="3.2" ry="3.2"/>
</g>
<!-- mstr_entity_person_roles -->
<g id="node8" class="node">
<title>mstr_entity_person_roles</title>
<g id="a_node8"><a xlink:href="../../tables/mstr_entity_person_roles.html" xlink:title="mstr_entity_person_roles" target="_top">
<polygon fill="#ffffff" stroke="transparent" points="903,-68.69 903,-126.69 1112,-126.69 1112,-68.69 903,-68.69"/>
<polygon fill="#f5f5f5" stroke="transparent" points="903.5,-104.69 903.5,-126.69 1112.5,-126.69 1112.5,-104.69 903.5,-104.69"/>
<polygon fill="none" stroke="black" points="903.5,-104.69 903.5,-126.69 1112.5,-126.69 1112.5,-104.69 903.5,-104.69"/>
<text text-anchor="start" x="908.5" y="-113.89" font-family="Helvetica,sans-Serif" font-weight="bold" font-size="11.00">mstr_entity_person_roles</text>
<text text-anchor="start" x="1077.5" y="-112.89" font-family="Helvetica,sans-Serif" font-size="11.00">[table]</text>
<polygon fill="none" stroke="black" points="903.5,-86.69 903.5,-104.69 1112.5,-104.69 1112.5,-86.69 903.5,-86.69"/>
<text text-anchor="start" x="906.5" y="-92.89" font-family="Helvetica,sans-Serif" font-size="11.00">...</text>
<polygon fill="#ffffff" stroke="transparent" points="903.5,-68.69 903.5,-86.69 1005.5,-86.69 1005.5,-68.69 903.5,-68.69"/>
<polygon fill="none" stroke="black" points="903.5,-68.69 903.5,-86.69 1005.5,-86.69 1005.5,-68.69 903.5,-68.69"/>
<text text-anchor="start" x="906.5" y="-74.89" font-family="Helvetica,sans-Serif" font-size="11.00">&lt; 3</text>
<polygon fill="#ffffff" stroke="transparent" points="1005.5,-68.69 1005.5,-86.69 1058.5,-86.69 1058.5,-68.69 1005.5,-68.69"/>
<polygon fill="none" stroke="black" points="1005.5,-68.69 1005.5,-86.69 1058.5,-86.69 1058.5,-68.69 1005.5,-68.69"/>
<text text-anchor="start" x="1048.5" y="-74.89" font-family="Helvetica,sans-Serif" font-size="11.00"> &#160;</text>
<polygon fill="#ffffff" stroke="transparent" points="1058.5,-68.69 1058.5,-86.69 1112.5,-86.69 1112.5,-68.69 1058.5,-68.69"/>
<polygon fill="none" stroke="black" points="1058.5,-68.69 1058.5,-86.69 1112.5,-86.69 1112.5,-68.69 1058.5,-68.69"/>
<text text-anchor="start" x="1102.5" y="-74.89" font-family="Helvetica,sans-Serif" font-size="11.00"> &#160;</text>
</a>
</g>
</g>
<!-- mstr_entity_person_roles&#45;&gt;ms_syst_data.syst_enum_items -->
<g id="edge13" class="edge">
<title>mstr_entity_person_roles:w&#45;&gt;ms_syst_data.syst_enum_items:e</title>
<path fill="none" stroke="black" d="M888.02,-92.49C872.98,-84.68 870.45,-64.74 848,-57.69 717.83,-16.79 675.43,-34.35 541,-57.69 427.98,-77.31 369.07,-54.64 298,-144.69 248.14,-207.86 338.98,-504.69 258.5,-504.69"/>
<polygon fill="black" stroke="black" points="894.69,-93.96 901.72,-99.2 898.59,-94.82 902.5,-95.69 902.5,-95.69 902.5,-95.69 898.59,-94.82 903.28,-92.17 894.69,-93.96 894.69,-93.96"/>
<ellipse fill="none" stroke="black" cx="891.56" cy="-93.27" rx="3.2" ry="3.2"/>
</g>
<!-- mstr_entity_person_roles&#45;&gt;mstr_entities -->
<g id="edge12" class="edge">
<title>mstr_entity_person_roles:w&#45;&gt;mstr_entities:e</title>
<path fill="none" stroke="black" d="M888.42,-99.09C822.86,-134.91 909.77,-442.29 848,-501.69 798.6,-549.18 599.56,-495.1 541,-530.69 512.98,-547.71 533.79,-592.69 501,-592.69"/>
<polygon fill="black" stroke="black" points="894.72,-97.57 903.35,-99.18 898.61,-96.63 902.5,-95.69 902.5,-95.69 902.5,-95.69 898.61,-96.63 901.65,-92.19 894.72,-97.57 894.72,-97.57"/>
<ellipse fill="none" stroke="black" cx="891.61" cy="-98.32" rx="3.2" ry="3.2"/>
</g>
<!-- mstr_persons -->
<g id="node9" class="node">
<title>mstr_persons</title>
<g id="a_node9"><a xlink:href="../../tables/mstr_persons.html" xlink:title="mstr_persons" target="_top">
<polygon fill="#ffffff" stroke="transparent" points="629,-68.69 629,-126.69 760,-126.69 760,-68.69 629,-68.69"/>
<polygon fill="#f5f5f5" stroke="transparent" points="629.5,-104.69 629.5,-126.69 760.5,-126.69 760.5,-104.69 629.5,-104.69"/>
<polygon fill="none" stroke="black" points="629.5,-104.69 629.5,-126.69 760.5,-126.69 760.5,-104.69 629.5,-104.69"/>
<text text-anchor="start" x="634.5" y="-113.89" font-family="Helvetica,sans-Serif" font-weight="bold" font-size="11.00">mstr_persons</text>
<text text-anchor="start" x="725.5" y="-112.89" font-family="Helvetica,sans-Serif" font-size="11.00">[table]</text>
<polygon fill="none" stroke="black" points="629.5,-86.69 629.5,-104.69 760.5,-104.69 760.5,-86.69 629.5,-86.69"/>
<text text-anchor="start" x="632.5" y="-92.89" font-family="Helvetica,sans-Serif" font-size="11.00">...</text>
<polygon fill="#ffffff" stroke="transparent" points="629.5,-68.69 629.5,-86.69 688.5,-86.69 688.5,-68.69 629.5,-68.69"/>
<polygon fill="none" stroke="black" points="629.5,-68.69 629.5,-86.69 688.5,-86.69 688.5,-68.69 629.5,-68.69"/>
<text text-anchor="start" x="632.5" y="-74.89" font-family="Helvetica,sans-Serif" font-size="11.00">&lt; 3</text>
<polygon fill="#ffffff" stroke="transparent" points="688.5,-68.69 688.5,-86.69 719.5,-86.69 719.5,-68.69 688.5,-68.69"/>
<polygon fill="none" stroke="black" points="688.5,-68.69 688.5,-86.69 719.5,-86.69 719.5,-68.69 688.5,-68.69"/>
<text text-anchor="start" x="709.5" y="-74.89" font-family="Helvetica,sans-Serif" font-size="11.00"> &#160;</text>
<polygon fill="#ffffff" stroke="transparent" points="719.5,-68.69 719.5,-86.69 760.5,-86.69 760.5,-68.69 719.5,-68.69"/>
<polygon fill="none" stroke="black" points="719.5,-68.69 719.5,-86.69 760.5,-86.69 760.5,-68.69 719.5,-68.69"/>
<text text-anchor="start" x="741.5" y="-74.89" font-family="Helvetica,sans-Serif" font-size="11.00">2 &gt;</text>
</a>
</g>
</g>
<!-- mstr_entity_person_roles&#45;&gt;mstr_persons -->
<g id="edge14" class="edge">
<title>mstr_entity_person_roles:w&#45;&gt;mstr_persons:e</title>
<path fill="none" stroke="black" d="M887.98,-95.69C836.95,-95.69 819.03,-95.69 761.5,-95.69"/>
<polygon fill="black" stroke="black" points="894.5,-95.69 902.5,-99.29 898.5,-95.69 902.5,-95.69 902.5,-95.69 902.5,-95.69 898.5,-95.69 902.5,-92.09 894.5,-95.69 894.5,-95.69"/>
<ellipse fill="none" stroke="black" cx="891.3" cy="-95.69" rx="3.2" ry="3.2"/>
</g>
<!-- mstr_persons&#45;&gt;ms_syst_data.syst_enum_items -->
<g id="edge22" class="edge">
<title>mstr_persons:w&#45;&gt;ms_syst_data.syst_enum_items:e</title>
<path fill="none" stroke="black" d="M614.02,-96.33C455.52,-110.55 344.98,-354.2 298,-425.69 276.44,-458.49 297.76,-504.69 258.5,-504.69"/>
<polygon fill="black" stroke="black" points="620.51,-96.04 628.66,-99.28 624.5,-95.86 628.5,-95.69 628.5,-95.69 628.5,-95.69 624.5,-95.86 628.34,-92.09 620.51,-96.04 620.51,-96.04"/>
<ellipse fill="none" stroke="black" cx="617.31" cy="-96.19" rx="3.2" ry="3.2"/>
</g>
<!-- mstr_persons&#45;&gt;ms_syst_data.syst_enum_items -->
<g id="edge23" class="edge">
<title>mstr_persons:w&#45;&gt;ms_syst_data.syst_enum_items:e</title>
<path fill="none" stroke="black" d="M613.87,-96.34C453.9,-110.74 346.21,-357.46 298,-429.69 277.08,-461.02 296.17,-504.69 258.5,-504.69"/>
<polygon fill="black" stroke="black" points="620.51,-96.04 628.66,-99.28 624.5,-95.87 628.5,-95.69 628.5,-95.69 628.5,-95.69 624.5,-95.87 628.34,-92.09 620.51,-96.04 620.51,-96.04"/>
<ellipse fill="none" stroke="black" cx="617.31" cy="-96.19" rx="3.2" ry="3.2"/>
</g>
<!-- mstr_persons&#45;&gt;mstr_entities -->
<g id="edge21" class="edge">
<title>mstr_persons:w&#45;&gt;mstr_entities:e</title>
<path fill="none" stroke="black" d="M613.86,-95.98C580.65,-97.52 562.62,-105.75 541,-136.69 511.86,-178.37 551.86,-592.69 501,-592.69"/>
<polygon fill="black" stroke="black" points="620.5,-95.85 628.57,-99.28 624.5,-95.77 628.5,-95.69 628.5,-95.69 628.5,-95.69 624.5,-95.77 628.43,-92.09 620.5,-95.85 620.5,-95.85"/>
<ellipse fill="none" stroke="black" cx="617.3" cy="-95.91" rx="3.2" ry="3.2"/>
</g>
<!-- mstr_entity_purchasing_entities -->
<g id="node10" class="node">
<title>mstr_entity_purchasing_entities</title>
<g id="a_node10"><a xlink:href="../../tables/mstr_entity_purchasing_entities.html" xlink:title="mstr_entity_purchasing_entities" target="_top">
<polygon fill="#ffffff" stroke="transparent" points="566.5,-644.69 566.5,-702.69 822.5,-702.69 822.5,-644.69 566.5,-644.69"/>
<polygon fill="#f5f5f5" stroke="transparent" points="566.5,-680.69 566.5,-702.69 822.5,-702.69 822.5,-680.69 566.5,-680.69"/>
<polygon fill="none" stroke="black" points="566.5,-680.69 566.5,-702.69 822.5,-702.69 822.5,-680.69 566.5,-680.69"/>
<text text-anchor="start" x="571.5" y="-689.89" font-family="Helvetica,sans-Serif" font-weight="bold" font-size="11.00">mstr_entity_purchasing_entities</text>
<text text-anchor="start" x="787.5" y="-688.89" font-family="Helvetica,sans-Serif" font-size="11.00">[table]</text>
<polygon fill="none" stroke="black" points="566.5,-662.69 566.5,-680.69 822.5,-680.69 822.5,-662.69 566.5,-662.69"/>
<text text-anchor="start" x="569.5" y="-668.89" font-family="Helvetica,sans-Serif" font-size="11.00">...</text>
<polygon fill="#ffffff" stroke="transparent" points="566.5,-644.69 566.5,-662.69 692.5,-662.69 692.5,-644.69 566.5,-644.69"/>
<polygon fill="none" stroke="black" points="566.5,-644.69 566.5,-662.69 692.5,-662.69 692.5,-644.69 566.5,-644.69"/>
<text text-anchor="start" x="569.5" y="-650.89" font-family="Helvetica,sans-Serif" font-size="11.00">&lt; 2</text>
<polygon fill="#ffffff" stroke="transparent" points="692.5,-644.69 692.5,-662.69 757.5,-662.69 757.5,-644.69 692.5,-644.69"/>
<polygon fill="none" stroke="black" points="692.5,-644.69 692.5,-662.69 757.5,-662.69 757.5,-644.69 692.5,-644.69"/>
<text text-anchor="start" x="747.5" y="-650.89" font-family="Helvetica,sans-Serif" font-size="11.00"> &#160;</text>
<polygon fill="#ffffff" stroke="transparent" points="757.5,-644.69 757.5,-662.69 822.5,-662.69 822.5,-644.69 757.5,-644.69"/>
<polygon fill="none" stroke="black" points="757.5,-644.69 757.5,-662.69 822.5,-662.69 822.5,-644.69 757.5,-644.69"/>
<text text-anchor="start" x="812.5" y="-650.89" font-family="Helvetica,sans-Serif" font-size="11.00"> &#160;</text>
</a>
</g>
</g>
<!-- mstr_entity_purchasing_entities&#45;&gt;mstr_entities -->
<g id="edge15" class="edge">
<title>mstr_entity_purchasing_entities:w&#45;&gt;mstr_entities:e</title>
<path fill="none" stroke="black" d="M551.92,-666.58C525.46,-647.8 540.84,-587.41 501,-592.69"/>
<polygon fill="black" stroke="black" points="558.01,-668.87 564.23,-675.05 561.76,-670.28 565.5,-671.69 565.5,-671.69 565.5,-671.69 561.76,-670.28 566.77,-668.32 558.01,-668.87 558.01,-668.87"/>
<ellipse fill="none" stroke="black" cx="555.02" cy="-667.74" rx="3.2" ry="3.2"/>
</g>
<!-- mstr_entity_purchasing_entities&#45;&gt;mstr_entities -->
<g id="edge16" class="edge">
<title>mstr_entity_purchasing_entities:w&#45;&gt;mstr_entities:e</title>
<path fill="none" stroke="black" d="M550.89,-670.29C525.86,-658.97 540.31,-598.76 501,-592.69"/>
<polygon fill="black" stroke="black" points="557.54,-670.93 565.16,-675.27 561.52,-671.31 565.5,-671.69 565.5,-671.69 565.5,-671.69 561.52,-671.31 565.84,-668.1 557.54,-670.93 557.54,-670.93"/>
<ellipse fill="none" stroke="black" cx="554.35" cy="-670.62" rx="3.2" ry="3.2"/>
</g>
<!-- mstr_entity_selling_entities -->
<g id="node11" class="node">
<title>mstr_entity_selling_entities</title>
<g id="a_node11"><a xlink:href="../../tables/mstr_entity_selling_entities.html" xlink:title="mstr_entity_selling_entities" target="_top">
<polygon fill="#ffffff" stroke="transparent" points="582,-565.69 582,-623.69 807,-623.69 807,-565.69 582,-565.69"/>
<polygon fill="#f5f5f5" stroke="transparent" points="582.5,-601.69 582.5,-623.69 807.5,-623.69 807.5,-601.69 582.5,-601.69"/>
<polygon fill="none" stroke="black" points="582.5,-601.69 582.5,-623.69 807.5,-623.69 807.5,-601.69 582.5,-601.69"/>
<text text-anchor="start" x="587.5" y="-610.89" font-family="Helvetica,sans-Serif" font-weight="bold" font-size="11.00">mstr_entity_selling_entities</text>
<text text-anchor="start" x="772.5" y="-609.89" font-family="Helvetica,sans-Serif" font-size="11.00">[table]</text>
<polygon fill="none" stroke="black" points="582.5,-583.69 582.5,-601.69 807.5,-601.69 807.5,-583.69 582.5,-583.69"/>
<text text-anchor="start" x="585.5" y="-589.89" font-family="Helvetica,sans-Serif" font-size="11.00">...</text>
<polygon fill="#ffffff" stroke="transparent" points="582.5,-565.69 582.5,-583.69 692.5,-583.69 692.5,-565.69 582.5,-565.69"/>
<polygon fill="none" stroke="black" points="582.5,-565.69 582.5,-583.69 692.5,-583.69 692.5,-565.69 582.5,-565.69"/>
<text text-anchor="start" x="585.5" y="-571.89" font-family="Helvetica,sans-Serif" font-size="11.00">&lt; 2</text>
<polygon fill="#ffffff" stroke="transparent" points="692.5,-565.69 692.5,-583.69 749.5,-583.69 749.5,-565.69 692.5,-565.69"/>
<polygon fill="none" stroke="black" points="692.5,-565.69 692.5,-583.69 749.5,-583.69 749.5,-565.69 692.5,-565.69"/>
<text text-anchor="start" x="739.5" y="-571.89" font-family="Helvetica,sans-Serif" font-size="11.00"> &#160;</text>
<polygon fill="#ffffff" stroke="transparent" points="749.5,-565.69 749.5,-583.69 807.5,-583.69 807.5,-565.69 749.5,-565.69"/>
<polygon fill="none" stroke="black" points="749.5,-565.69 749.5,-583.69 807.5,-583.69 807.5,-565.69 749.5,-565.69"/>
<text text-anchor="start" x="797.5" y="-571.89" font-family="Helvetica,sans-Serif" font-size="11.00"> &#160;</text>
</a>
</g>
</g>
<!-- mstr_entity_selling_entities&#45;&gt;mstr_entities -->
<g id="edge17" class="edge">
<title>mstr_entity_selling_entities:w&#45;&gt;mstr_entities:e</title>
<path fill="none" stroke="black" d="M567.17,-590.41C542.48,-586.82 531.47,-587.58 501,-592.69"/>
<polygon fill="black" stroke="black" points="573.6,-591.43 580.94,-596.24 577.55,-592.06 581.5,-592.69 581.5,-592.69 581.5,-592.69 577.55,-592.06 582.06,-589.13 573.6,-591.43 573.6,-591.43"/>
<ellipse fill="none" stroke="black" cx="570.44" cy="-590.93" rx="3.2" ry="3.2"/>
</g>
<!-- mstr_entity_selling_entities&#45;&gt;mstr_entities -->
<g id="edge18" class="edge">
<title>mstr_entity_selling_entities:w&#45;&gt;mstr_entities:e</title>
<path fill="none" stroke="black" d="M567.17,-595.34C542.48,-599.53 531.47,-598.65 501,-592.69"/>
<polygon fill="black" stroke="black" points="573.63,-594.14 582.16,-596.23 577.57,-593.41 581.5,-592.69 581.5,-592.69 581.5,-592.69 577.57,-593.41 580.84,-589.15 573.63,-594.14 573.63,-594.14"/>
<ellipse fill="none" stroke="black" cx="570.49" cy="-594.73" rx="3.2" ry="3.2"/>
</g>
<!-- mstr_entity_staff_entities -->
<g id="node12" class="node">
<title>mstr_entity_staff_entities</title>
<g id="a_node12"><a xlink:href="../../tables/mstr_entity_staff_entities.html" xlink:title="mstr_entity_staff_entities" target="_top">
<polygon fill="#ffffff" stroke="transparent" points="549,-226.69 549,-490.69 840,-490.69 840,-226.69 549,-226.69"/>
<polygon fill="#f5f5f5" stroke="transparent" points="551.5,-466.69 551.5,-488.69 838.5,-488.69 838.5,-466.69 551.5,-466.69"/>
<polygon fill="none" stroke="black" points="551.5,-466.69 551.5,-488.69 838.5,-488.69 838.5,-466.69 551.5,-466.69"/>
<text text-anchor="start" x="556.5" y="-475.89" font-family="Helvetica,sans-Serif" font-weight="bold" font-size="11.00">mstr_entity_staff_entities</text>
<text text-anchor="start" x="803.5" y="-474.89" font-family="Helvetica,sans-Serif" font-size="11.00">[table]</text>
<polygon fill="none" stroke="black" points="551.5,-444.69 551.5,-466.69 745.5,-466.69 745.5,-444.69 551.5,-444.69"/>
<image xlink:href="../../images/primaryKeys.png" width="11px" height="12px" preserveAspectRatio="xMinYMin meet" x="556.5" y="-461.686"/>
<text text-anchor="start" x="571.5" y="-452.89" font-family="Helvetica,sans-Serif" font-size="11.00">id</text>
<polygon fill="none" stroke="black" points="745.5,-444.69 745.5,-466.69 838.5,-466.69 838.5,-444.69 745.5,-444.69"/>
<text text-anchor="start" x="748.5" y="-452.89" font-family="Helvetica,sans-Serif" font-size="11.00">uuid[2147483647]</text>
<polygon fill="#ffffff" stroke="transparent" points="551.5,-422.69 551.5,-444.69 745.5,-444.69 745.5,-422.69 551.5,-422.69"/>
<polygon fill="none" stroke="black" points="551.5,-422.69 551.5,-444.69 745.5,-444.69 745.5,-422.69 551.5,-422.69"/>
<image xlink:href="../../images/foreignKeys.png" width="11px" height="12px" preserveAspectRatio="xMinYMin meet" x="556.5" y="-439.686"/>
<text text-anchor="start" x="571.5" y="-430.89" font-family="Helvetica,sans-Serif" font-size="11.00">entity_id</text>
<polygon fill="none" stroke="black" points="745.5,-422.69 745.5,-444.69 838.5,-444.69 838.5,-422.69 745.5,-422.69"/>
<text text-anchor="start" x="748.5" y="-430.89" font-family="Helvetica,sans-Serif" font-size="11.00">uuid[2147483647]</text>
<polygon fill="#ffffff" stroke="transparent" points="551.5,-400.69 551.5,-422.69 745.5,-422.69 745.5,-400.69 551.5,-400.69"/>
<polygon fill="none" stroke="black" points="551.5,-400.69 551.5,-422.69 745.5,-422.69 745.5,-400.69 551.5,-400.69"/>
<image xlink:href="../../images/foreignKeys.png" width="11px" height="12px" preserveAspectRatio="xMinYMin meet" x="556.5" y="-417.686"/>
<text text-anchor="start" x="571.5" y="-408.89" font-family="Helvetica,sans-Serif" font-size="11.00">owning_entity_id</text>
<polygon fill="none" stroke="black" points="745.5,-400.69 745.5,-422.69 838.5,-422.69 838.5,-400.69 745.5,-400.69"/>
<text text-anchor="start" x="748.5" y="-408.89" font-family="Helvetica,sans-Serif" font-size="11.00">uuid[2147483647]</text>
<polygon fill="none" stroke="black" points="551.5,-378.69 551.5,-400.69 745.5,-400.69 745.5,-378.69 551.5,-378.69"/>
<text text-anchor="start" x="571.5" y="-386.89" font-family="Helvetica,sans-Serif" font-size="11.00">diag_timestamp_created</text>
<polygon fill="none" stroke="black" points="745.5,-378.69 745.5,-400.69 838.5,-400.69 838.5,-378.69 745.5,-378.69"/>
<text text-anchor="start" x="748.5" y="-386.89" font-family="Helvetica,sans-Serif" font-size="11.00">timestamptz[35,6]</text>
<polygon fill="none" stroke="black" points="551.5,-356.69 551.5,-378.69 745.5,-378.69 745.5,-356.69 551.5,-356.69"/>
<text text-anchor="start" x="571.5" y="-364.89" font-family="Helvetica,sans-Serif" font-size="11.00">diag_role_created</text>
<polygon fill="none" stroke="black" points="745.5,-356.69 745.5,-378.69 838.5,-378.69 838.5,-356.69 745.5,-356.69"/>
<text text-anchor="start" x="748.5" y="-364.89" font-family="Helvetica,sans-Serif" font-size="11.00">text[2147483647]</text>
<polygon fill="none" stroke="black" points="551.5,-334.69 551.5,-356.69 745.5,-356.69 745.5,-334.69 551.5,-334.69"/>
<text text-anchor="start" x="571.5" y="-342.89" font-family="Helvetica,sans-Serif" font-size="11.00">diag_timestamp_modified</text>
<polygon fill="none" stroke="black" points="745.5,-334.69 745.5,-356.69 838.5,-356.69 838.5,-334.69 745.5,-334.69"/>
<text text-anchor="start" x="748.5" y="-342.89" font-family="Helvetica,sans-Serif" font-size="11.00">timestamptz[35,6]</text>
<polygon fill="none" stroke="black" points="551.5,-312.69 551.5,-334.69 745.5,-334.69 745.5,-312.69 551.5,-312.69"/>
<text text-anchor="start" x="571.5" y="-320.89" font-family="Helvetica,sans-Serif" font-size="11.00">diag_wallclock_modified</text>
<polygon fill="none" stroke="black" points="745.5,-312.69 745.5,-334.69 838.5,-334.69 838.5,-312.69 745.5,-312.69"/>
<text text-anchor="start" x="748.5" y="-320.89" font-family="Helvetica,sans-Serif" font-size="11.00">timestamptz[35,6]</text>
<polygon fill="none" stroke="black" points="551.5,-290.69 551.5,-312.69 745.5,-312.69 745.5,-290.69 551.5,-290.69"/>
<text text-anchor="start" x="571.5" y="-298.89" font-family="Helvetica,sans-Serif" font-size="11.00">diag_role_modified</text>
<polygon fill="none" stroke="black" points="745.5,-290.69 745.5,-312.69 838.5,-312.69 838.5,-290.69 745.5,-290.69"/>
<text text-anchor="start" x="748.5" y="-298.89" font-family="Helvetica,sans-Serif" font-size="11.00">text[2147483647]</text>
<polygon fill="none" stroke="black" points="551.5,-268.69 551.5,-290.69 745.5,-290.69 745.5,-268.69 551.5,-268.69"/>
<text text-anchor="start" x="571.5" y="-276.89" font-family="Helvetica,sans-Serif" font-size="11.00">diag_row_version</text>
<polygon fill="none" stroke="black" points="745.5,-268.69 745.5,-290.69 838.5,-290.69 838.5,-268.69 745.5,-268.69"/>
<text text-anchor="start" x="748.5" y="-276.89" font-family="Helvetica,sans-Serif" font-size="11.00">int8[19]</text>
<polygon fill="none" stroke="black" points="551.5,-246.69 551.5,-268.69 745.5,-268.69 745.5,-246.69 551.5,-246.69"/>
<text text-anchor="start" x="571.5" y="-254.89" font-family="Helvetica,sans-Serif" font-size="11.00">diag_update_count</text>
<polygon fill="none" stroke="black" points="745.5,-246.69 745.5,-268.69 838.5,-268.69 838.5,-246.69 745.5,-246.69"/>
<text text-anchor="start" x="748.5" y="-254.89" font-family="Helvetica,sans-Serif" font-size="11.00">int8[19]</text>
<polygon fill="#ffffff" stroke="transparent" points="551.5,-228.69 551.5,-246.69 652.5,-246.69 652.5,-228.69 551.5,-228.69"/>
<polygon fill="none" stroke="black" points="551.5,-228.69 551.5,-246.69 652.5,-246.69 652.5,-228.69 551.5,-228.69"/>
<text text-anchor="start" x="554.5" y="-234.89" font-family="Helvetica,sans-Serif" font-size="11.00">&lt; 2</text>
<polygon fill="#ffffff" stroke="transparent" points="652.5,-228.69 652.5,-246.69 745.5,-246.69 745.5,-228.69 652.5,-228.69"/>
<polygon fill="none" stroke="black" points="652.5,-228.69 652.5,-246.69 745.5,-246.69 745.5,-228.69 652.5,-228.69"/>
<text text-anchor="start" x="735.5" y="-234.89" font-family="Helvetica,sans-Serif" font-size="11.00"> &#160;</text>
<polygon fill="#ffffff" stroke="transparent" points="745.5,-228.69 745.5,-246.69 838.5,-246.69 838.5,-228.69 745.5,-228.69"/>
<polygon fill="none" stroke="black" points="745.5,-228.69 745.5,-246.69 838.5,-246.69 838.5,-228.69 745.5,-228.69"/>
<text text-anchor="start" x="819.5" y="-234.89" font-family="Helvetica,sans-Serif" font-size="11.00">0 &gt;</text>
<polygon fill="none" stroke="black" stroke-width="2" points="550,-227.69 550,-489.69 839,-489.69 839,-227.69 550,-227.69"/>
</a>
</g>
</g>
<!-- mstr_entity_staff_entities&#45;&gt;mstr_entities -->
<g id="edge19" class="edge">
<title>mstr_entity_staff_entities:w&#45;&gt;mstr_entities:e</title>
<path fill="none" stroke="black" d="M536.15,-436.45C490.83,-457.56 569.23,-592.69 501,-592.69"/>
<polygon fill="black" stroke="black" points="542.64,-435.2 551.18,-437.22 546.57,-434.44 550.5,-433.69 550.5,-433.69 550.5,-433.69 546.57,-434.44 549.82,-430.15 542.64,-435.2 542.64,-435.2"/>
<ellipse fill="none" stroke="black" cx="539.5" cy="-435.8" rx="3.2" ry="3.2"/>
</g>
<!-- mstr_entity_staff_entities&#45;&gt;mstr_entities -->
<g id="edge20" class="edge">
<title>mstr_entity_staff_entities:w&#45;&gt;mstr_entities:e</title>
<path fill="none" stroke="black" d="M536.08,-414.11C482.2,-435.59 578.7,-592.69 501,-592.69"/>
<polygon fill="black" stroke="black" points="542.61,-413.01 551.1,-415.24 546.56,-412.35 550.5,-411.69 550.5,-411.69 550.5,-411.69 546.56,-412.35 549.9,-408.14 542.61,-413.01 542.61,-413.01"/>
<ellipse fill="none" stroke="black" cx="539.45" cy="-413.54" rx="3.2" ry="3.2"/>
</g>
</g>
</svg>
