<?xml version="1.0" encoding="UTF-8" standalone="no"?>
<!DOCTYPE svg PUBLIC "-//W3C//DTD SVG 1.1//EN"
 "http://www.w3.org/Graphics/SVG/1.1/DTD/svg11.dtd">
<!-- Generated by graphviz version 2.43.0 (0)
 -->
<!-- Title: oneDegreeRelationshipsDiagram Pages: 1 -->
<svg width="825pt" height="456pt"
 viewBox="0.00 0.00 825.00 456.00" xmlns="http://www.w3.org/2000/svg" xmlns:xlink="http://www.w3.org/1999/xlink">
<g id="graph0" class="graph" transform="scale(1 1) rotate(0) translate(4 452)">
<title>oneDegreeRelationshipsDiagram</title>
<polygon fill="#ffffff" stroke="transparent" points="-4,4 -4,-452 821,-452 821,4 -4,4"/>
<text text-anchor="middle" x="71.5" y="-7.2" font-family="Helvetica,sans-Serif" font-size="11.00">Generated by SchemaSpy</text>
<!-- mstr_entity_inventory_places -->
<g id="node1" class="node">
<title>mstr_entity_inventory_places</title>
<g id="a_node1"><a xlink:href="../../tables/mstr_entity_inventory_places.html" xlink:title="mstr_entity_inventory_places" target="_top">
<polygon fill="#ffffff" stroke="transparent" points="494,-37 494,-389 809,-389 809,-37 494,-37"/>
<polygon fill="#f5f5f5" stroke="transparent" points="496.5,-365 496.5,-387 807.5,-387 807.5,-365 496.5,-365"/>
<polygon fill="none" stroke="black" points="496.5,-365 496.5,-387 807.5,-387 807.5,-365 496.5,-365"/>
<text text-anchor="start" x="501.5" y="-374.2" font-family="Helvetica,sans-Serif" font-weight="bold" font-size="11.00">mstr_entity_inventory_places</text>
<text text-anchor="start" x="772.5" y="-373.2" font-family="Helvetica,sans-Serif" font-size="11.00">[table]</text>
<polygon fill="none" stroke="black" points="496.5,-343 496.5,-365 714.5,-365 714.5,-343 496.5,-343"/>
<image xlink:href="../../images/primaryKeys.png" width="11px" height="12px" preserveAspectRatio="xMinYMin meet" x="501.5" y="-360"/>
<text text-anchor="start" x="516.5" y="-351.2" font-family="Helvetica,sans-Serif" font-size="11.00">id</text>
<polygon fill="none" stroke="black" points="714.5,-343 714.5,-365 807.5,-365 807.5,-343 714.5,-343"/>
<text text-anchor="start" x="717.5" y="-351.2" font-family="Helvetica,sans-Serif" font-size="11.00">uuid[2147483647]</text>
<polygon fill="none" stroke="black" points="496.5,-321 496.5,-343 714.5,-343 714.5,-321 496.5,-321"/>
<image xlink:href="../../images/foreignKeys.png" width="11px" height="12px" preserveAspectRatio="xMinYMin meet" x="501.5" y="-338"/>
<text text-anchor="start" x="516.5" y="-329.2" font-family="Helvetica,sans-Serif" font-size="11.00">place_id</text>
<polygon fill="none" stroke="black" points="714.5,-321 714.5,-343 807.5,-343 807.5,-321 714.5,-321"/>
<text text-anchor="start" x="717.5" y="-329.2" font-family="Helvetica,sans-Serif" font-size="11.00">uuid[2147483647]</text>
<polygon fill="none" stroke="black" points="496.5,-299 496.5,-321 714.5,-321 714.5,-299 496.5,-299"/>
<image xlink:href="../../images/foreignKeys.png" width="11px" height="12px" preserveAspectRatio="xMinYMin meet" x="501.5" y="-316"/>
<text text-anchor="start" x="516.5" y="-307.2" font-family="Helvetica,sans-Serif" font-size="11.00">owning_entity_id</text>
<polygon fill="none" stroke="black" points="714.5,-299 714.5,-321 807.5,-321 807.5,-299 714.5,-299"/>
<text text-anchor="start" x="717.5" y="-307.2" font-family="Helvetica,sans-Serif" font-size="11.00">uuid[2147483647]</text>
<polygon fill="none" stroke="black" points="496.5,-277 496.5,-299 714.5,-299 714.5,-277 496.5,-277"/>
<text text-anchor="start" x="516.5" y="-285.2" font-family="Helvetica,sans-Serif" font-size="11.00">receives_external_inventory</text>
<polygon fill="none" stroke="black" points="714.5,-277 714.5,-299 807.5,-299 807.5,-277 714.5,-277"/>
<text text-anchor="start" x="717.5" y="-285.2" font-family="Helvetica,sans-Serif" font-size="11.00">bool[1]</text>
<polygon fill="none" stroke="black" points="496.5,-255 496.5,-277 714.5,-277 714.5,-255 496.5,-255"/>
<text text-anchor="start" x="516.5" y="-263.2" font-family="Helvetica,sans-Serif" font-size="11.00">fulfills_external_inventory</text>
<polygon fill="none" stroke="black" points="714.5,-255 714.5,-277 807.5,-277 807.5,-255 714.5,-255"/>
<text text-anchor="start" x="717.5" y="-263.2" font-family="Helvetica,sans-Serif" font-size="11.00">bool[1]</text>
<polygon fill="none" stroke="black" points="496.5,-233 496.5,-255 714.5,-255 714.5,-233 496.5,-233"/>
<text text-anchor="start" x="516.5" y="-241.2" font-family="Helvetica,sans-Serif" font-size="11.00">receives_internal_inventory</text>
<polygon fill="none" stroke="black" points="714.5,-233 714.5,-255 807.5,-255 807.5,-233 714.5,-233"/>
<text text-anchor="start" x="717.5" y="-241.2" font-family="Helvetica,sans-Serif" font-size="11.00">bool[1]</text>
<polygon fill="none" stroke="black" points="496.5,-211 496.5,-233 714.5,-233 714.5,-211 496.5,-211"/>
<text text-anchor="start" x="516.5" y="-219.2" font-family="Helvetica,sans-Serif" font-size="11.00">fulfills_internal_inventory</text>
<polygon fill="none" stroke="black" points="714.5,-211 714.5,-233 807.5,-233 807.5,-211 714.5,-211"/>
<text text-anchor="start" x="717.5" y="-219.2" font-family="Helvetica,sans-Serif" font-size="11.00">bool[1]</text>
<polygon fill="none" stroke="black" points="496.5,-189 496.5,-211 714.5,-211 714.5,-189 496.5,-189"/>
<text text-anchor="start" x="516.5" y="-197.2" font-family="Helvetica,sans-Serif" font-size="11.00">diag_timestamp_created</text>
<polygon fill="none" stroke="black" points="714.5,-189 714.5,-211 807.5,-211 807.5,-189 714.5,-189"/>
<text text-anchor="start" x="717.5" y="-197.2" font-family="Helvetica,sans-Serif" font-size="11.00">timestamptz[35,6]</text>
<polygon fill="none" stroke="black" points="496.5,-167 496.5,-189 714.5,-189 714.5,-167 496.5,-167"/>
<text text-anchor="start" x="516.5" y="-175.2" font-family="Helvetica,sans-Serif" font-size="11.00">diag_role_created</text>
<polygon fill="none" stroke="black" points="714.5,-167 714.5,-189 807.5,-189 807.5,-167 714.5,-167"/>
<text text-anchor="start" x="717.5" y="-175.2" font-family="Helvetica,sans-Serif" font-size="11.00">text[2147483647]</text>
<polygon fill="none" stroke="black" points="496.5,-145 496.5,-167 714.5,-167 714.5,-145 496.5,-145"/>
<text text-anchor="start" x="516.5" y="-153.2" font-family="Helvetica,sans-Serif" font-size="11.00">diag_timestamp_modified</text>
<polygon fill="none" stroke="black" points="714.5,-145 714.5,-167 807.5,-167 807.5,-145 714.5,-145"/>
<text text-anchor="start" x="717.5" y="-153.2" font-family="Helvetica,sans-Serif" font-size="11.00">timestamptz[35,6]</text>
<polygon fill="none" stroke="black" points="496.5,-123 496.5,-145 714.5,-145 714.5,-123 496.5,-123"/>
<text text-anchor="start" x="516.5" y="-131.2" font-family="Helvetica,sans-Serif" font-size="11.00">diag_wallclock_modified</text>
<polygon fill="none" stroke="black" points="714.5,-123 714.5,-145 807.5,-145 807.5,-123 714.5,-123"/>
<text text-anchor="start" x="717.5" y="-131.2" font-family="Helvetica,sans-Serif" font-size="11.00">timestamptz[35,6]</text>
<polygon fill="none" stroke="black" points="496.5,-101 496.5,-123 714.5,-123 714.5,-101 496.5,-101"/>
<text text-anchor="start" x="516.5" y="-109.2" font-family="Helvetica,sans-Serif" font-size="11.00">diag_role_modified</text>
<polygon fill="none" stroke="black" points="714.5,-101 714.5,-123 807.5,-123 807.5,-101 714.5,-101"/>
<text text-anchor="start" x="717.5" y="-109.2" font-family="Helvetica,sans-Serif" font-size="11.00">text[2147483647]</text>
<polygon fill="none" stroke="black" points="496.5,-79 496.5,-101 714.5,-101 714.5,-79 496.5,-79"/>
<text text-anchor="start" x="516.5" y="-87.2" font-family="Helvetica,sans-Serif" font-size="11.00">diag_row_version</text>
<polygon fill="none" stroke="black" points="714.5,-79 714.5,-101 807.5,-101 807.5,-79 714.5,-79"/>
<text text-anchor="start" x="717.5" y="-87.2" font-family="Helvetica,sans-Serif" font-size="11.00">int8[19]</text>
<polygon fill="none" stroke="black" points="496.5,-57 496.5,-79 714.5,-79 714.5,-57 496.5,-57"/>
<text text-anchor="start" x="516.5" y="-65.2" font-family="Helvetica,sans-Serif" font-size="11.00">diag_update_count</text>
<polygon fill="none" stroke="black" points="714.5,-57 714.5,-79 807.5,-79 807.5,-57 714.5,-57"/>
<text text-anchor="start" x="717.5" y="-65.2" font-family="Helvetica,sans-Serif" font-size="11.00">int8[19]</text>
<polygon fill="#ffffff" stroke="transparent" points="496.5,-39 496.5,-57 609.5,-57 609.5,-39 496.5,-39"/>
<polygon fill="none" stroke="black" points="496.5,-39 496.5,-57 609.5,-57 609.5,-39 496.5,-39"/>
<text text-anchor="start" x="499.5" y="-45.2" font-family="Helvetica,sans-Serif" font-size="11.00">&lt; 2</text>
<polygon fill="#ffffff" stroke="transparent" points="609.5,-39 609.5,-57 714.5,-57 714.5,-39 609.5,-39"/>
<polygon fill="none" stroke="black" points="609.5,-39 609.5,-57 714.5,-57 714.5,-39 609.5,-39"/>
<text text-anchor="start" x="704.5" y="-45.2" font-family="Helvetica,sans-Serif" font-size="11.00"> &#160;</text>
<polygon fill="#ffffff" stroke="transparent" points="714.5,-39 714.5,-57 807.5,-57 807.5,-39 714.5,-39"/>
<polygon fill="none" stroke="black" points="714.5,-39 714.5,-57 807.5,-57 807.5,-39 714.5,-39"/>
<text text-anchor="start" x="788.5" y="-45.2" font-family="Helvetica,sans-Serif" font-size="11.00">0 &gt;</text>
<polygon fill="none" stroke="black" stroke-width="2" points="495,-38 495,-388 808,-388 808,-38 495,-38"/>
</a>
</g>
</g>
<!-- mstr_entities -->
<g id="node2" class="node">
<title>mstr_entities</title>
<g id="a_node2"><a xlink:href="../../tables/mstr_entities.html" xlink:title="mstr_entities" target="_top">
<polygon fill="#ffffff" stroke="transparent" points="8,-152 8,-342 202,-342 202,-152 8,-152"/>
<polygon fill="#f5f5f5" stroke="transparent" points="8,-320 8,-342 202,-342 202,-320 8,-320"/>
<polygon fill="none" stroke="black" points="8,-320 8,-342 202,-342 202,-320 8,-320"/>
<text text-anchor="start" x="13" y="-329.2" font-family="Helvetica,sans-Serif" font-weight="bold" font-size="11.00">mstr_entities</text>
<text text-anchor="start" x="167" y="-328.2" font-family="Helvetica,sans-Serif" font-size="11.00">[table]</text>
<polygon fill="none" stroke="black" points="8,-298 8,-320 202,-320 202,-298 8,-298"/>
<image xlink:href="../../images/primaryKeys.png" width="11px" height="12px" preserveAspectRatio="xMinYMin meet" x="13" y="-315"/>
<text text-anchor="start" x="28" y="-306.2" font-family="Helvetica,sans-Serif" font-size="11.00">id</text>
<polygon fill="none" stroke="black" points="8,-276 8,-298 202,-298 202,-276 8,-276"/>
<image xlink:href="../../images/foreignKeys.png" width="11px" height="12px" preserveAspectRatio="xMinYMin meet" x="13" y="-293"/>
<text text-anchor="start" x="28" y="-284.2" font-family="Helvetica,sans-Serif" font-size="11.00">owning_entity_id</text>
<polygon fill="#ffffff" stroke="transparent" points="8,-254 8,-276 202,-276 202,-254 8,-254"/>
<polygon fill="none" stroke="black" points="8,-254 8,-276 202,-276 202,-254 8,-254"/>
<text text-anchor="start" x="28" y="-262.2" font-family="Helvetica,sans-Serif" font-size="11.00">internal_name</text>
<polygon fill="#ffffff" stroke="transparent" points="8,-232 8,-254 202,-254 202,-232 8,-232"/>
<polygon fill="none" stroke="black" points="8,-232 8,-254 202,-254 202,-232 8,-232"/>
<text text-anchor="start" x="28" y="-240.2" font-family="Helvetica,sans-Serif" font-size="11.00">display_name</text>
<polygon fill="none" stroke="black" points="8,-210 8,-232 202,-232 202,-210 8,-210"/>
<image xlink:href="../../images/foreignKeys.png" width="11px" height="12px" preserveAspectRatio="xMinYMin meet" x="13" y="-227"/>
<text text-anchor="start" x="28" y="-218.2" font-family="Helvetica,sans-Serif" font-size="11.00">entity_type_id</text>
<polygon fill="none" stroke="black" points="8,-188 8,-210 202,-210 202,-188 8,-188"/>
<image xlink:href="../../images/foreignKeys.png" width="11px" height="12px" preserveAspectRatio="xMinYMin meet" x="13" y="-205"/>
<text text-anchor="start" x="28" y="-196.2" font-family="Helvetica,sans-Serif" font-size="11.00">entity_state_id</text>
<polygon fill="none" stroke="black" points="8,-170 8,-188 202,-188 202,-170 8,-170"/>
<text text-anchor="start" x="11" y="-176.2" font-family="Helvetica,sans-Serif" font-size="11.00">...</text>
<polygon fill="#ffffff" stroke="transparent" points="8,-152 8,-170 95,-170 95,-152 8,-152"/>
<polygon fill="none" stroke="black" points="8,-152 8,-170 95,-170 95,-152 8,-152"/>
<text text-anchor="start" x="11" y="-158.2" font-family="Helvetica,sans-Serif" font-size="11.00">&lt; 3</text>
<polygon fill="#ffffff" stroke="transparent" points="95,-152 95,-170 141,-170 141,-152 95,-152"/>
<polygon fill="none" stroke="black" points="95,-152 95,-170 141,-170 141,-152 95,-152"/>
<text text-anchor="start" x="131" y="-158.2" font-family="Helvetica,sans-Serif" font-size="11.00"> &#160;</text>
<polygon fill="#ffffff" stroke="transparent" points="141,-152 141,-170 202,-170 202,-152 141,-152"/>
<polygon fill="none" stroke="black" points="141,-152 141,-170 202,-170 202,-152 141,-152"/>
<text text-anchor="start" x="177" y="-158.2" font-family="Helvetica,sans-Serif" font-size="11.00">15 &gt;</text>
</a>
</g>
</g>
<!-- mstr_entity_inventory_places&#45;&gt;mstr_entities -->
<g id="edge1" class="edge">
<title>mstr_entity_inventory_places:w&#45;&gt;mstr_entities:e</title>
<path fill="none" stroke="black" d="M481.54,-305.64C466.98,-293.09 478.35,-256.94 453,-243 371.22,-198.03 324.32,-197.2 243,-243 213.11,-259.83 237.3,-309 203,-309"/>
<polygon fill="black" stroke="black" points="487.86,-307.61 494.43,-313.44 491.68,-308.81 495.5,-310 495.5,-310 495.5,-310 491.68,-308.81 496.57,-306.56 487.86,-307.61 487.86,-307.61"/>
<ellipse fill="none" stroke="black" cx="484.81" cy="-306.66" rx="3.2" ry="3.2"/>
</g>
<!-- mstr_places -->
<g id="node3" class="node">
<title>mstr_places</title>
<g id="a_node3"><a xlink:href="../../tables/mstr_places.html" xlink:title="mstr_places" target="_top">
<polygon fill="#ffffff" stroke="transparent" points="251,-254 251,-444 445,-444 445,-254 251,-254"/>
<polygon fill="#f5f5f5" stroke="transparent" points="251,-422 251,-444 445,-444 445,-422 251,-422"/>
<polygon fill="none" stroke="black" points="251,-422 251,-444 445,-444 445,-422 251,-422"/>
<text text-anchor="start" x="256" y="-431.2" font-family="Helvetica,sans-Serif" font-weight="bold" font-size="11.00">mstr_places</text>
<text text-anchor="start" x="410" y="-430.2" font-family="Helvetica,sans-Serif" font-size="11.00">[table]</text>
<polygon fill="none" stroke="black" points="251,-400 251,-422 445,-422 445,-400 251,-400"/>
<image xlink:href="../../images/primaryKeys.png" width="11px" height="12px" preserveAspectRatio="xMinYMin meet" x="256" y="-417"/>
<text text-anchor="start" x="271" y="-408.2" font-family="Helvetica,sans-Serif" font-size="11.00">id</text>
<polygon fill="none" stroke="black" points="251,-378 251,-400 445,-400 445,-378 251,-378"/>
<image xlink:href="../../images/foreignKeys.png" width="11px" height="12px" preserveAspectRatio="xMinYMin meet" x="256" y="-395"/>
<text text-anchor="start" x="271" y="-386.2" font-family="Helvetica,sans-Serif" font-size="11.00">owning_entity_id</text>
<polygon fill="#ffffff" stroke="transparent" points="251,-356 251,-378 445,-378 445,-356 251,-356"/>
<polygon fill="none" stroke="black" points="251,-356 251,-378 445,-378 445,-356 251,-356"/>
<text text-anchor="start" x="271" y="-364.2" font-family="Helvetica,sans-Serif" font-size="11.00">internal_name</text>
<polygon fill="#ffffff" stroke="transparent" points="251,-334 251,-356 445,-356 445,-334 251,-334"/>
<polygon fill="none" stroke="black" points="251,-334 251,-356 445,-356 445,-334 251,-334"/>
<text text-anchor="start" x="271" y="-342.2" font-family="Helvetica,sans-Serif" font-size="11.00">display_name</text>
<polygon fill="none" stroke="black" points="251,-312 251,-334 445,-334 445,-312 251,-312"/>
<image xlink:href="../../images/foreignKeys.png" width="11px" height="12px" preserveAspectRatio="xMinYMin meet" x="256" y="-329"/>
<text text-anchor="start" x="271" y="-320.2" font-family="Helvetica,sans-Serif" font-size="11.00">place_type_id</text>
<polygon fill="none" stroke="black" points="251,-290 251,-312 445,-312 445,-290 251,-290"/>
<image xlink:href="../../images/foreignKeys.png" width="11px" height="12px" preserveAspectRatio="xMinYMin meet" x="256" y="-307"/>
<text text-anchor="start" x="271" y="-298.2" font-family="Helvetica,sans-Serif" font-size="11.00">place_state_id</text>
<polygon fill="none" stroke="black" points="251,-272 251,-290 445,-290 445,-272 251,-272"/>
<text text-anchor="start" x="254" y="-278.2" font-family="Helvetica,sans-Serif" font-size="11.00">...</text>
<polygon fill="#ffffff" stroke="transparent" points="251,-254 251,-272 341,-272 341,-254 251,-254"/>
<polygon fill="none" stroke="black" points="251,-254 251,-272 341,-272 341,-254 251,-254"/>
<text text-anchor="start" x="254" y="-260.2" font-family="Helvetica,sans-Serif" font-size="11.00">&lt; 3</text>
<polygon fill="#ffffff" stroke="transparent" points="341,-254 341,-272 388,-272 388,-254 341,-254"/>
<polygon fill="none" stroke="black" points="341,-254 341,-272 388,-272 388,-254 341,-254"/>
<text text-anchor="start" x="378" y="-260.2" font-family="Helvetica,sans-Serif" font-size="11.00"> &#160;</text>
<polygon fill="#ffffff" stroke="transparent" points="388,-254 388,-272 445,-272 445,-254 388,-254"/>
<polygon fill="none" stroke="black" points="388,-254 388,-272 445,-272 445,-254 388,-254"/>
<text text-anchor="start" x="426" y="-260.2" font-family="Helvetica,sans-Serif" font-size="11.00">3 &gt;</text>
</a>
</g>
</g>
<!-- mstr_entity_inventory_places&#45;&gt;mstr_places -->
<g id="edge2" class="edge">
<title>mstr_entity_inventory_places:w&#45;&gt;mstr_places:e</title>
<path fill="none" stroke="black" d="M481.77,-336.47C462.15,-353.19 481.45,-411 446,-411"/>
<polygon fill="black" stroke="black" points="487.89,-334.48 496.62,-335.42 491.7,-333.24 495.5,-332 495.5,-332 495.5,-332 491.7,-333.24 494.38,-328.58 487.89,-334.48 487.89,-334.48"/>
<ellipse fill="none" stroke="black" cx="484.85" cy="-335.47" rx="3.2" ry="3.2"/>
</g>
<!-- mstr_places&#45;&gt;mstr_entities -->
<g id="edge3" class="edge">
<title>mstr_places:w&#45;&gt;mstr_entities:e</title>
<path fill="none" stroke="black" d="M236.21,-384.24C217.6,-367.01 238.12,-309 203,-309"/>
<polygon fill="black" stroke="black" points="242.44,-386.39 248.82,-392.4 246.22,-387.69 250,-389 250,-389 250,-389 246.22,-387.69 251.18,-385.6 242.44,-386.39 242.44,-386.39"/>
<ellipse fill="none" stroke="black" cx="239.41" cy="-385.34" rx="3.2" ry="3.2"/>
</g>
</g>
</svg>
