<?xml version="1.0" encoding="UTF-8" standalone="no"?>
<!DOCTYPE svg PUBLIC "-//W3C//DTD SVG 1.1//EN"
 "http://www.w3.org/Graphics/SVG/1.1/DTD/svg11.dtd">
<!-- Generated by graphviz version 2.43.0 (0)
 -->
<!-- Title: twoDegreesRelationshipsDiagram Pages: 1 -->
<svg width="981pt" height="594pt"
 viewBox="0.00 0.00 981.00 594.00" xmlns="http://www.w3.org/2000/svg" xmlns:xlink="http://www.w3.org/1999/xlink">
<g id="graph0" class="graph" transform="scale(1 1) rotate(0) translate(4 590)">
<title>twoDegreesRelationshipsDiagram</title>
<polygon fill="#ffffff" stroke="transparent" points="-4,4 -4,-590 977,-590 977,4 -4,4"/>
<text text-anchor="middle" x="71.5" y="-7.2" font-family="Helvetica,sans-Serif" font-size="11.00">Generated by SchemaSpy</text>
<!-- mstr_contacts -->
<g id="node1" class="node">
<title>mstr_contacts</title>
<g id="a_node1"><a xlink:href="../../tables/mstr_contacts.html" xlink:title="mstr_contacts" target="_top">
<polygon fill="#ffffff" stroke="transparent" points="483,-272 483,-330 618,-330 618,-272 483,-272"/>
<polygon fill="#f5f5f5" stroke="transparent" points="483.5,-308 483.5,-330 618.5,-330 618.5,-308 483.5,-308"/>
<polygon fill="none" stroke="black" points="483.5,-308 483.5,-330 618.5,-330 618.5,-308 483.5,-308"/>
<text text-anchor="start" x="488.5" y="-317.2" font-family="Helvetica,sans-Serif" font-weight="bold" font-size="11.00">mstr_contacts</text>
<text text-anchor="start" x="583.5" y="-316.2" font-family="Helvetica,sans-Serif" font-size="11.00">[table]</text>
<polygon fill="none" stroke="black" points="483.5,-290 483.5,-308 618.5,-308 618.5,-290 483.5,-290"/>
<text text-anchor="start" x="486.5" y="-296.2" font-family="Helvetica,sans-Serif" font-size="11.00">...</text>
<polygon fill="#ffffff" stroke="transparent" points="483.5,-272 483.5,-290 544.5,-290 544.5,-272 483.5,-272"/>
<polygon fill="none" stroke="black" points="483.5,-272 483.5,-290 544.5,-290 544.5,-272 483.5,-272"/>
<text text-anchor="start" x="486.5" y="-278.2" font-family="Helvetica,sans-Serif" font-size="11.00">&lt; 3</text>
<polygon fill="#ffffff" stroke="transparent" points="544.5,-272 544.5,-290 576.5,-290 576.5,-272 544.5,-272"/>
<polygon fill="none" stroke="black" points="544.5,-272 544.5,-290 576.5,-290 576.5,-272 544.5,-272"/>
<text text-anchor="start" x="566.5" y="-278.2" font-family="Helvetica,sans-Serif" font-size="11.00"> &#160;</text>
<polygon fill="#ffffff" stroke="transparent" points="576.5,-272 576.5,-290 618.5,-290 618.5,-272 576.5,-272"/>
<polygon fill="none" stroke="black" points="576.5,-272 576.5,-290 618.5,-290 618.5,-272 576.5,-272"/>
<text text-anchor="start" x="599.5" y="-278.2" font-family="Helvetica,sans-Serif" font-size="11.00">1 &gt;</text>
</a>
</g>
</g>
<!-- ms_syst_data.syst_enum_items -->
<g id="node2" class="node">
<title>ms_syst_data.syst_enum_items</title>
<g id="a_node2"><a xlink:href="../../../ms_syst_data/tables/syst_enum_items.html" xlink:title="ms_syst_data.syst_enum_items" target="_top">
<polygon fill="#ffffff" stroke="transparent" points="8,-295 8,-353 257,-353 257,-295 8,-295"/>
<polygon fill="#f5f5f5" stroke="transparent" points="8.5,-331 8.5,-353 257.5,-353 257.5,-331 8.5,-331"/>
<polygon fill="none" stroke="black" points="8.5,-331 8.5,-353 257.5,-353 257.5,-331 8.5,-331"/>
<text text-anchor="start" x="13.5" y="-340.2" font-family="Helvetica,sans-Serif" font-weight="bold" font-size="11.00">ms_syst_data.syst_enum_items</text>
<text text-anchor="start" x="222.5" y="-339.2" font-family="Helvetica,sans-Serif" font-size="11.00">[table]</text>
<polygon fill="none" stroke="black" points="8.5,-313 8.5,-331 257.5,-331 257.5,-313 8.5,-313"/>
<text text-anchor="start" x="11.5" y="-319.2" font-family="Helvetica,sans-Serif" font-size="11.00">...</text>
<polygon fill="#ffffff" stroke="transparent" points="8.5,-295 8.5,-313 118.5,-313 118.5,-295 8.5,-295"/>
<polygon fill="none" stroke="black" points="8.5,-295 8.5,-313 118.5,-313 118.5,-295 8.5,-295"/>
<text text-anchor="start" x="11.5" y="-301.2" font-family="Helvetica,sans-Serif" font-size="11.00"> &#160;</text>
<polygon fill="#ffffff" stroke="transparent" points="118.5,-295 118.5,-313 180.5,-313 180.5,-295 118.5,-295"/>
<polygon fill="none" stroke="black" points="118.5,-295 118.5,-313 180.5,-313 180.5,-295 118.5,-295"/>
<text text-anchor="start" x="170.5" y="-301.2" font-family="Helvetica,sans-Serif" font-size="11.00"> &#160;</text>
<polygon fill="#ffffff" stroke="transparent" points="180.5,-295 180.5,-313 257.5,-313 257.5,-295 180.5,-295"/>
<polygon fill="none" stroke="black" points="180.5,-295 180.5,-313 257.5,-313 257.5,-295 180.5,-295"/>
<text text-anchor="start" x="232.5" y="-301.2" font-family="Helvetica,sans-Serif" font-size="11.00">10 &gt;</text>
</a>
</g>
</g>
<!-- mstr_contacts&#45;&gt;ms_syst_data.syst_enum_items -->
<g id="edge1" class="edge">
<title>mstr_contacts:w&#45;&gt;ms_syst_data.syst_enum_items:e</title>
<path fill="none" stroke="black" d="M460.24,-302.16C403.46,-304.52 328.92,-308.49 265.38,-312.49"/>
<polygon fill="black" stroke="black" points="466.65,-301.91 474.79,-305.18 470.65,-301.75 474.65,-301.59 474.65,-301.59 474.65,-301.59 470.65,-301.75 474.5,-297.99 466.65,-301.91 466.65,-301.91"/>
<ellipse fill="none" stroke="black" cx="463.46" cy="-302.03" rx="3.2" ry="3.2"/>
</g>
<!-- mstr_contacts&#45;&gt;ms_syst_data.syst_enum_items -->
<g id="edge2" class="edge">
<title>mstr_contacts:w&#45;&gt;ms_syst_data.syst_enum_items:e</title>
<path fill="none" stroke="black" d="M460.24,-310.34C403.46,-314.39 328.92,-318.69 265.38,-321.63"/>
<polygon fill="black" stroke="black" points="466.67,-309.87 474.91,-312.87 470.66,-309.57 474.65,-309.28 474.65,-309.28 474.65,-309.28 470.66,-309.57 474.38,-305.69 466.67,-309.87 466.67,-309.87"/>
<ellipse fill="none" stroke="black" cx="463.48" cy="-310.1" rx="3.2" ry="3.2"/>
</g>
<!-- mstr_entities -->
<g id="node3" class="node">
<title>mstr_entities</title>
<g id="a_node3"><a xlink:href="../../tables/mstr_entities.html" xlink:title="mstr_entities" target="_top">
<polygon fill="#ffffff" stroke="transparent" points="306,-326 306,-384 434,-384 434,-326 306,-326"/>
<polygon fill="#f5f5f5" stroke="transparent" points="306,-362 306,-384 434,-384 434,-362 306,-362"/>
<polygon fill="none" stroke="black" points="306,-362 306,-384 434,-384 434,-362 306,-362"/>
<text text-anchor="start" x="311" y="-371.2" font-family="Helvetica,sans-Serif" font-weight="bold" font-size="11.00">mstr_entities</text>
<text text-anchor="start" x="399" y="-370.2" font-family="Helvetica,sans-Serif" font-size="11.00">[table]</text>
<polygon fill="none" stroke="black" points="306,-344 306,-362 434,-362 434,-344 306,-344"/>
<text text-anchor="start" x="309" y="-350.2" font-family="Helvetica,sans-Serif" font-size="11.00">...</text>
<polygon fill="#ffffff" stroke="transparent" points="306,-326 306,-344 360,-344 360,-326 306,-326"/>
<polygon fill="none" stroke="black" points="306,-326 306,-344 360,-344 360,-326 306,-326"/>
<text text-anchor="start" x="309" y="-332.2" font-family="Helvetica,sans-Serif" font-size="11.00">&lt; 3</text>
<polygon fill="#ffffff" stroke="transparent" points="360,-326 360,-344 389,-344 389,-326 360,-326"/>
<polygon fill="none" stroke="black" points="360,-326 360,-344 389,-344 389,-326 360,-326"/>
<text text-anchor="start" x="379" y="-332.2" font-family="Helvetica,sans-Serif" font-size="11.00"> &#160;</text>
<polygon fill="#ffffff" stroke="transparent" points="389,-326 389,-344 434,-344 434,-326 389,-326"/>
<polygon fill="none" stroke="black" points="389,-326 389,-344 434,-344 434,-326 389,-326"/>
<text text-anchor="start" x="409" y="-332.2" font-family="Helvetica,sans-Serif" font-size="11.00">15 &gt;</text>
</a>
</g>
</g>
<!-- mstr_contacts&#45;&gt;mstr_entities -->
<g id="edge3" class="edge">
<title>mstr_contacts:w&#45;&gt;mstr_entities:e</title>
<path fill="none" stroke="black" d="M475.39,-340.29C459.08,-347.61 444,-353 435,-353"/>
<polygon fill="black" stroke="black" points="481.4,-337.47 490.17,-337.34 485.02,-335.78 488.65,-334.08 488.65,-334.08 488.65,-334.08 485.02,-335.78 487.12,-330.82 481.4,-337.47 481.4,-337.47"/>
<ellipse fill="none" stroke="black" cx="478.51" cy="-338.83" rx="3.2" ry="3.2"/>
</g>
<!-- mstr_entities&#45;&gt;ms_syst_data.syst_enum_items -->
<g id="edge4" class="edge">
<title>mstr_entities:w&#45;&gt;ms_syst_data.syst_enum_items:e</title>
<path fill="none" stroke="black" d="M290.53,-351.64C282.14,-350.73 273.63,-349.59 265.14,-348.3"/>
<polygon fill="black" stroke="black" points="297.04,-352.25 304.66,-356.58 301.02,-352.63 305,-353 305,-353 305,-353 301.02,-352.63 305.34,-349.42 297.04,-352.25 297.04,-352.25"/>
<ellipse fill="none" stroke="black" cx="293.85" cy="-351.95" rx="3.2" ry="3.2"/>
</g>
<!-- mstr_entities&#45;&gt;ms_syst_data.syst_enum_items -->
<g id="edge5" class="edge">
<title>mstr_entities:w&#45;&gt;ms_syst_data.syst_enum_items:e</title>
<path fill="none" stroke="black" d="M290.53,-353.9C282.14,-354.19 273.63,-354.12 265.14,-353.76"/>
<polygon fill="black" stroke="black" points="297.02,-353.5 305.22,-356.59 301.01,-353.25 305,-353 305,-353 305,-353 301.01,-353.25 304.78,-349.41 297.02,-353.5 297.02,-353.5"/>
<ellipse fill="none" stroke="black" cx="293.82" cy="-353.69" rx="3.2" ry="3.2"/>
</g>
<!-- mstr_entity_facility_places -->
<g id="node4" class="node">
<title>mstr_entity_facility_places</title>
<g id="a_node4"><a xlink:href="../../tables/mstr_entity_facility_places.html" xlink:title="mstr_entity_facility_places" target="_top">
<polygon fill="#ffffff" stroke="transparent" points="707,-445 707,-503 925,-503 925,-445 707,-445"/>
<polygon fill="#f5f5f5" stroke="transparent" points="707,-481 707,-503 925,-503 925,-481 707,-481"/>
<polygon fill="none" stroke="black" points="707,-481 707,-503 925,-503 925,-481 707,-481"/>
<text text-anchor="start" x="712" y="-490.2" font-family="Helvetica,sans-Serif" font-weight="bold" font-size="11.00">mstr_entity_facility_places</text>
<text text-anchor="start" x="890" y="-489.2" font-family="Helvetica,sans-Serif" font-size="11.00">[table]</text>
<polygon fill="none" stroke="black" points="707,-463 707,-481 925,-481 925,-463 707,-463"/>
<text text-anchor="start" x="710" y="-469.2" font-family="Helvetica,sans-Serif" font-size="11.00">...</text>
<polygon fill="#ffffff" stroke="transparent" points="707,-445 707,-463 814,-463 814,-445 707,-445"/>
<polygon fill="none" stroke="black" points="707,-445 707,-463 814,-463 814,-445 707,-445"/>
<text text-anchor="start" x="710" y="-451.2" font-family="Helvetica,sans-Serif" font-size="11.00">&lt; 2</text>
<polygon fill="#ffffff" stroke="transparent" points="814,-445 814,-463 869,-463 869,-445 814,-445"/>
<polygon fill="none" stroke="black" points="814,-445 814,-463 869,-463 869,-445 814,-445"/>
<text text-anchor="start" x="859" y="-451.2" font-family="Helvetica,sans-Serif" font-size="11.00"> &#160;</text>
<polygon fill="#ffffff" stroke="transparent" points="869,-445 869,-463 925,-463 925,-445 869,-445"/>
<polygon fill="none" stroke="black" points="869,-445 869,-463 925,-463 925,-445 869,-445"/>
<text text-anchor="start" x="915" y="-451.2" font-family="Helvetica,sans-Serif" font-size="11.00"> &#160;</text>
</a>
</g>
</g>
<!-- mstr_entity_facility_places&#45;&gt;mstr_entities -->
<g id="edge6" class="edge">
<title>mstr_entity_facility_places:w&#45;&gt;mstr_entities:e</title>
<path fill="none" stroke="black" d="M691.31,-470.43C663.32,-463.82 658.7,-437.9 626,-422 615.85,-417.07 446.28,-353 435,-353"/>
<polygon fill="black" stroke="black" points="698.05,-471.15 705.62,-475.58 702.02,-471.57 706,-472 706,-472 706,-472 702.02,-471.57 706.38,-468.42 698.05,-471.15 698.05,-471.15"/>
<ellipse fill="none" stroke="black" cx="694.86" cy="-470.81" rx="3.2" ry="3.2"/>
</g>
<!-- mstr_places -->
<g id="node5" class="node">
<title>mstr_places</title>
<g id="a_node5"><a xlink:href="../../tables/mstr_places.html" xlink:title="mstr_places" target="_top">
<polygon fill="#ffffff" stroke="transparent" points="490.5,-432 490.5,-490 610.5,-490 610.5,-432 490.5,-432"/>
<polygon fill="#f5f5f5" stroke="transparent" points="490.5,-468 490.5,-490 610.5,-490 610.5,-468 490.5,-468"/>
<polygon fill="none" stroke="black" points="490.5,-468 490.5,-490 610.5,-490 610.5,-468 490.5,-468"/>
<text text-anchor="start" x="495.5" y="-477.2" font-family="Helvetica,sans-Serif" font-weight="bold" font-size="11.00">mstr_places</text>
<text text-anchor="start" x="575.5" y="-476.2" font-family="Helvetica,sans-Serif" font-size="11.00">[table]</text>
<polygon fill="none" stroke="black" points="490.5,-450 490.5,-468 610.5,-468 610.5,-450 490.5,-450"/>
<text text-anchor="start" x="493.5" y="-456.2" font-family="Helvetica,sans-Serif" font-size="11.00">...</text>
<polygon fill="#ffffff" stroke="transparent" points="490.5,-432 490.5,-450 543.5,-450 543.5,-432 490.5,-432"/>
<polygon fill="none" stroke="black" points="490.5,-432 490.5,-450 543.5,-450 543.5,-432 490.5,-432"/>
<text text-anchor="start" x="493.5" y="-438.2" font-family="Helvetica,sans-Serif" font-size="11.00">&lt; 3</text>
<polygon fill="#ffffff" stroke="transparent" points="543.5,-432 543.5,-450 572.5,-450 572.5,-432 543.5,-432"/>
<polygon fill="none" stroke="black" points="543.5,-432 543.5,-450 572.5,-450 572.5,-432 543.5,-432"/>
<text text-anchor="start" x="562.5" y="-438.2" font-family="Helvetica,sans-Serif" font-size="11.00"> &#160;</text>
<polygon fill="#ffffff" stroke="transparent" points="572.5,-432 572.5,-450 610.5,-450 610.5,-432 572.5,-432"/>
<polygon fill="none" stroke="black" points="572.5,-432 572.5,-450 610.5,-450 610.5,-432 572.5,-432"/>
<text text-anchor="start" x="591.5" y="-438.2" font-family="Helvetica,sans-Serif" font-size="11.00">3 &gt;</text>
</a>
</g>
</g>
<!-- mstr_entity_facility_places&#45;&gt;mstr_places -->
<g id="edge7" class="edge">
<title>mstr_entity_facility_places:w&#45;&gt;mstr_places:e</title>
<path fill="none" stroke="black" d="M691.36,-471.85C666.89,-471.35 641.26,-469.72 618.73,-467.87"/>
<polygon fill="black" stroke="black" points="698,-471.92 705.96,-475.6 702,-471.96 706,-472 706,-472 706,-472 702,-471.96 706.04,-468.4 698,-471.92 698,-471.92"/>
<ellipse fill="none" stroke="black" cx="694.8" cy="-471.88" rx="3.2" ry="3.2"/>
</g>
<!-- mstr_places&#45;&gt;ms_syst_data.syst_enum_items -->
<g id="edge21" class="edge">
<title>mstr_places:w&#45;&gt;ms_syst_data.syst_enum_items:e</title>
<path fill="none" stroke="black" d="M468.09,-449.18C417.94,-442.51 352.94,-431.7 298,-412 259.76,-398.29 220.13,-375.93 189.35,-357.13"/>
<polygon fill="black" stroke="black" points="474.55,-450.02 482.03,-454.61 478.52,-450.53 482.49,-451.04 482.49,-451.04 482.49,-451.04 478.52,-450.53 482.95,-447.47 474.55,-450.02 474.55,-450.02"/>
<ellipse fill="none" stroke="black" cx="471.38" cy="-449.61" rx="3.2" ry="3.2"/>
</g>
<!-- mstr_places&#45;&gt;ms_syst_data.syst_enum_items -->
<g id="edge22" class="edge">
<title>mstr_places:w&#45;&gt;ms_syst_data.syst_enum_items:e</title>
<path fill="none" stroke="black" d="M468.09,-460.41C417.94,-455.51 352.94,-444.7 298,-425 252.33,-408.63 204.68,-379.92 172.49,-357.18"/>
<polygon fill="black" stroke="black" points="474.52,-460.98 482.17,-465.28 478.5,-461.34 482.49,-461.69 482.49,-461.69 482.49,-461.69 478.5,-461.34 482.81,-458.1 474.52,-460.98 474.52,-460.98"/>
<ellipse fill="none" stroke="black" cx="471.33" cy="-460.7" rx="3.2" ry="3.2"/>
</g>
<!-- mstr_places&#45;&gt;mstr_entities -->
<g id="edge20" class="edge">
<title>mstr_places:w&#45;&gt;mstr_entities:e</title>
<path fill="none" stroke="black" d="M503.42,-417.78C494.01,-408.93 484.18,-399.67 475,-391 457.18,-374.16 459.52,-353 435,-353"/>
<polygon fill="black" stroke="black" points="508.39,-422.45 511.75,-430.55 511.3,-425.18 514.22,-427.92 514.22,-427.92 514.22,-427.92 511.3,-425.18 516.68,-425.3 508.39,-422.45 508.39,-422.45"/>
<ellipse fill="none" stroke="black" cx="506.06" cy="-420.25" rx="3.2" ry="3.2"/>
</g>
<!-- mstr_entity_inventory_places -->
<g id="node6" class="node">
<title>mstr_entity_inventory_places</title>
<g id="a_node6"><a xlink:href="../../tables/mstr_entity_inventory_places.html" xlink:title="mstr_entity_inventory_places" target="_top">
<polygon fill="#ffffff" stroke="transparent" points="697.5,-524 697.5,-582 934.5,-582 934.5,-524 697.5,-524"/>
<polygon fill="#f5f5f5" stroke="transparent" points="698,-560 698,-582 935,-582 935,-560 698,-560"/>
<polygon fill="none" stroke="black" points="698,-560 698,-582 935,-582 935,-560 698,-560"/>
<text text-anchor="start" x="703" y="-569.2" font-family="Helvetica,sans-Serif" font-weight="bold" font-size="11.00">mstr_entity_inventory_places</text>
<text text-anchor="start" x="900" y="-568.2" font-family="Helvetica,sans-Serif" font-size="11.00">[table]</text>
<polygon fill="none" stroke="black" points="698,-542 698,-560 935,-560 935,-542 698,-542"/>
<text text-anchor="start" x="701" y="-548.2" font-family="Helvetica,sans-Serif" font-size="11.00">...</text>
<polygon fill="#ffffff" stroke="transparent" points="698,-524 698,-542 814,-542 814,-524 698,-524"/>
<polygon fill="none" stroke="black" points="698,-524 698,-542 814,-542 814,-524 698,-524"/>
<text text-anchor="start" x="701" y="-530.2" font-family="Helvetica,sans-Serif" font-size="11.00">&lt; 2</text>
<polygon fill="#ffffff" stroke="transparent" points="814,-524 814,-542 874,-542 874,-524 814,-524"/>
<polygon fill="none" stroke="black" points="814,-524 814,-542 874,-542 874,-524 814,-524"/>
<text text-anchor="start" x="864" y="-530.2" font-family="Helvetica,sans-Serif" font-size="11.00"> &#160;</text>
<polygon fill="#ffffff" stroke="transparent" points="874,-524 874,-542 935,-542 935,-524 874,-524"/>
<polygon fill="none" stroke="black" points="874,-524 874,-542 935,-542 935,-524 874,-524"/>
<text text-anchor="start" x="925" y="-530.2" font-family="Helvetica,sans-Serif" font-size="11.00"> &#160;</text>
</a>
</g>
</g>
<!-- mstr_entity_inventory_places&#45;&gt;mstr_entities -->
<g id="edge8" class="edge">
<title>mstr_entity_inventory_places:w&#45;&gt;mstr_entities:e</title>
<path fill="none" stroke="black" d="M682.56,-551.13C591.13,-552.74 544.45,-567.57 475,-501 425.81,-453.85 503.14,-353 435,-353"/>
<polygon fill="black" stroke="black" points="689,-551.07 697.03,-554.6 693,-551.04 697,-551 697,-551 697,-551 693,-551.04 696.97,-547.4 689,-551.07 689,-551.07"/>
<ellipse fill="none" stroke="black" cx="685.8" cy="-551.1" rx="3.2" ry="3.2"/>
</g>
<!-- mstr_entity_inventory_places&#45;&gt;mstr_places -->
<g id="edge9" class="edge">
<title>mstr_entity_inventory_places:w&#45;&gt;mstr_places:e</title>
<path fill="none" stroke="black" d="M682.78,-548.18C658.22,-539.93 621.79,-515.07 593.53,-494"/>
<polygon fill="black" stroke="black" points="689.15,-549.44 696.3,-554.53 693.08,-550.22 697,-551 697,-551 697,-551 693.08,-550.22 697.7,-547.47 689.15,-549.44 689.15,-549.44"/>
<ellipse fill="none" stroke="black" cx="686.01" cy="-548.82" rx="3.2" ry="3.2"/>
</g>
<!-- mstr_entity_person_roles -->
<g id="node7" class="node">
<title>mstr_entity_person_roles</title>
<g id="a_node7"><a xlink:href="../../tables/mstr_entity_person_roles.html" xlink:title="mstr_entity_person_roles" target="_top">
<polygon fill="#ffffff" stroke="transparent" points="711.5,-37 711.5,-95 920.5,-95 920.5,-37 711.5,-37"/>
<polygon fill="#f5f5f5" stroke="transparent" points="712,-73 712,-95 921,-95 921,-73 712,-73"/>
<polygon fill="none" stroke="black" points="712,-73 712,-95 921,-95 921,-73 712,-73"/>
<text text-anchor="start" x="717" y="-82.2" font-family="Helvetica,sans-Serif" font-weight="bold" font-size="11.00">mstr_entity_person_roles</text>
<text text-anchor="start" x="886" y="-81.2" font-family="Helvetica,sans-Serif" font-size="11.00">[table]</text>
<polygon fill="none" stroke="black" points="712,-55 712,-73 921,-73 921,-55 712,-55"/>
<text text-anchor="start" x="715" y="-61.2" font-family="Helvetica,sans-Serif" font-size="11.00">...</text>
<polygon fill="#ffffff" stroke="transparent" points="712,-37 712,-55 814,-55 814,-37 712,-37"/>
<polygon fill="none" stroke="black" points="712,-37 712,-55 814,-55 814,-37 712,-37"/>
<text text-anchor="start" x="715" y="-43.2" font-family="Helvetica,sans-Serif" font-size="11.00">&lt; 3</text>
<polygon fill="#ffffff" stroke="transparent" points="814,-37 814,-55 867,-55 867,-37 814,-37"/>
<polygon fill="none" stroke="black" points="814,-37 814,-55 867,-55 867,-37 814,-37"/>
<text text-anchor="start" x="857" y="-43.2" font-family="Helvetica,sans-Serif" font-size="11.00"> &#160;</text>
<polygon fill="#ffffff" stroke="transparent" points="867,-37 867,-55 921,-55 921,-37 867,-37"/>
<polygon fill="none" stroke="black" points="867,-37 867,-55 921,-55 921,-37 867,-37"/>
<text text-anchor="start" x="911" y="-43.2" font-family="Helvetica,sans-Serif" font-size="11.00"> &#160;</text>
</a>
</g>
</g>
<!-- mstr_entity_person_roles&#45;&gt;ms_syst_data.syst_enum_items -->
<g id="edge11" class="edge">
<title>mstr_entity_person_roles:w&#45;&gt;ms_syst_data.syst_enum_items:e</title>
<path fill="none" stroke="black" d="M696.58,-64.22C482.55,-70.85 263.18,-222.25 174.44,-290.81"/>
<polygon fill="black" stroke="black" points="703,-64.12 711.06,-67.6 707,-64.06 711,-64 711,-64 711,-64 707,-64.06 710.94,-60.4 703,-64.12 703,-64.12"/>
<ellipse fill="none" stroke="black" cx="699.8" cy="-64.17" rx="3.2" ry="3.2"/>
</g>
<!-- mstr_entity_person_roles&#45;&gt;mstr_entities -->
<g id="edge10" class="edge">
<title>mstr_entity_person_roles:w&#45;&gt;mstr_entities:e</title>
<path fill="none" stroke="black" d="M696.69,-65.59C678.25,-70.26 670.96,-84.9 659,-106 607.01,-197.77 703.38,-269.34 626,-341 594.8,-369.9 477.53,-353 435,-353"/>
<polygon fill="black" stroke="black" points="703.05,-64.89 711.4,-67.58 707.02,-64.44 711,-64 711,-64 711,-64 707.02,-64.44 710.6,-60.42 703.05,-64.89 703.05,-64.89"/>
<ellipse fill="none" stroke="black" cx="699.87" cy="-65.24" rx="3.2" ry="3.2"/>
</g>
<!-- mstr_persons -->
<g id="node8" class="node">
<title>mstr_persons</title>
<g id="a_node8"><a xlink:href="../../tables/mstr_persons.html" xlink:title="mstr_persons" target="_top">
<polygon fill="#ffffff" stroke="transparent" points="485,-193 485,-251 616,-251 616,-193 485,-193"/>
<polygon fill="#f5f5f5" stroke="transparent" points="485.5,-229 485.5,-251 616.5,-251 616.5,-229 485.5,-229"/>
<polygon fill="none" stroke="black" points="485.5,-229 485.5,-251 616.5,-251 616.5,-229 485.5,-229"/>
<text text-anchor="start" x="490.5" y="-238.2" font-family="Helvetica,sans-Serif" font-weight="bold" font-size="11.00">mstr_persons</text>
<text text-anchor="start" x="581.5" y="-237.2" font-family="Helvetica,sans-Serif" font-size="11.00">[table]</text>
<polygon fill="none" stroke="black" points="485.5,-211 485.5,-229 616.5,-229 616.5,-211 485.5,-211"/>
<text text-anchor="start" x="488.5" y="-217.2" font-family="Helvetica,sans-Serif" font-size="11.00">...</text>
<polygon fill="#ffffff" stroke="transparent" points="485.5,-193 485.5,-211 544.5,-211 544.5,-193 485.5,-193"/>
<polygon fill="none" stroke="black" points="485.5,-193 485.5,-211 544.5,-211 544.5,-193 485.5,-193"/>
<text text-anchor="start" x="488.5" y="-199.2" font-family="Helvetica,sans-Serif" font-size="11.00">&lt; 3</text>
<polygon fill="#ffffff" stroke="transparent" points="544.5,-193 544.5,-211 575.5,-211 575.5,-193 544.5,-193"/>
<polygon fill="none" stroke="black" points="544.5,-193 544.5,-211 575.5,-211 575.5,-193 544.5,-193"/>
<text text-anchor="start" x="565.5" y="-199.2" font-family="Helvetica,sans-Serif" font-size="11.00"> &#160;</text>
<polygon fill="#ffffff" stroke="transparent" points="575.5,-193 575.5,-211 616.5,-211 616.5,-193 575.5,-193"/>
<polygon fill="none" stroke="black" points="575.5,-193 575.5,-211 616.5,-211 616.5,-193 575.5,-193"/>
<text text-anchor="start" x="597.5" y="-199.2" font-family="Helvetica,sans-Serif" font-size="11.00">2 &gt;</text>
</a>
</g>
</g>
<!-- mstr_entity_person_roles&#45;&gt;mstr_persons -->
<g id="edge12" class="edge">
<title>mstr_entity_person_roles:w&#45;&gt;mstr_persons:e</title>
<path fill="none" stroke="black" d="M696.53,-67.47C660.07,-83.13 606.56,-148.34 575.76,-188.88"/>
<polygon fill="black" stroke="black" points="703.22,-65.86 711.84,-67.5 707.11,-64.93 711,-64 711,-64 711,-64 707.11,-64.93 710.16,-60.5 703.22,-65.86 703.22,-65.86"/>
<ellipse fill="none" stroke="black" cx="700.11" cy="-66.61" rx="3.2" ry="3.2"/>
</g>
<!-- mstr_persons&#45;&gt;ms_syst_data.syst_enum_items -->
<g id="edge18" class="edge">
<title>mstr_persons:w&#45;&gt;ms_syst_data.syst_enum_items:e</title>
<path fill="none" stroke="black" d="M462.29,-239.64C401.14,-253.76 318.69,-273.86 251.65,-290.93"/>
<polygon fill="black" stroke="black" points="468.77,-238.15 477.37,-239.87 472.66,-237.26 476.56,-236.36 476.56,-236.36 476.56,-236.36 472.66,-237.26 475.76,-232.86 468.77,-238.15 468.77,-238.15"/>
<ellipse fill="none" stroke="black" cx="465.65" cy="-238.87" rx="3.2" ry="3.2"/>
</g>
<!-- mstr_persons&#45;&gt;ms_syst_data.syst_enum_items -->
<g id="edge19" class="edge">
<title>mstr_persons:w&#45;&gt;ms_syst_data.syst_enum_items:e</title>
<path fill="none" stroke="black" d="M462.47,-247.7C405.39,-262.65 329.69,-281.4 265.3,-296.61"/>
<polygon fill="black" stroke="black" points="468.83,-246.03 477.48,-247.47 472.69,-245.01 476.56,-243.99 476.56,-243.99 476.56,-243.99 472.69,-245.01 475.65,-240.51 468.83,-246.03 468.83,-246.03"/>
<ellipse fill="none" stroke="black" cx="465.73" cy="-246.84" rx="3.2" ry="3.2"/>
</g>
<!-- mstr_persons&#45;&gt;mstr_entities -->
<g id="edge17" class="edge">
<title>mstr_persons:w&#45;&gt;mstr_entities:e</title>
<path fill="none" stroke="black" d="M473.1,-267.19C450.94,-305.32 474.86,-353 435,-353"/>
<polygon fill="black" stroke="black" points="477.26,-261.63 484.93,-257.38 479.66,-258.42 482.05,-255.22 482.05,-255.22 482.05,-255.22 479.66,-258.42 479.17,-253.06 477.26,-261.63 477.26,-261.63"/>
<ellipse fill="none" stroke="black" cx="475.34" cy="-264.19" rx="3.2" ry="3.2"/>
</g>
<!-- mstr_person_contact_roles -->
<g id="node9" class="node">
<title>mstr_person_contact_roles</title>
<g id="a_node9"><a xlink:href="../../tables/mstr_person_contact_roles.html" xlink:title="mstr_person_contact_roles" target="_top">
<polygon fill="#ffffff" stroke="transparent" points="667,-116 667,-424 965,-424 965,-116 667,-116"/>
<polygon fill="#f5f5f5" stroke="transparent" points="669,-400 669,-422 963,-422 963,-400 669,-400"/>
<polygon fill="none" stroke="black" points="669,-400 669,-422 963,-422 963,-400 669,-400"/>
<text text-anchor="start" x="674" y="-409.2" font-family="Helvetica,sans-Serif" font-weight="bold" font-size="11.00">mstr_person_contact_roles</text>
<text text-anchor="start" x="928" y="-408.2" font-family="Helvetica,sans-Serif" font-size="11.00">[table]</text>
<polygon fill="none" stroke="black" points="669,-378 669,-400 870,-400 870,-378 669,-378"/>
<image xlink:href="../../images/primaryKeys.png" width="11px" height="12px" preserveAspectRatio="xMinYMin meet" x="674" y="-395"/>
<text text-anchor="start" x="689" y="-386.2" font-family="Helvetica,sans-Serif" font-size="11.00">id</text>
<polygon fill="none" stroke="black" points="870,-378 870,-400 963,-400 963,-378 870,-378"/>
<text text-anchor="start" x="873" y="-386.2" font-family="Helvetica,sans-Serif" font-size="11.00">uuid[2147483647]</text>
<polygon fill="none" stroke="black" points="669,-356 669,-378 870,-378 870,-356 669,-356"/>
<image xlink:href="../../images/foreignKeys.png" width="11px" height="12px" preserveAspectRatio="xMinYMin meet" x="674" y="-373"/>
<text text-anchor="start" x="689" y="-364.2" font-family="Helvetica,sans-Serif" font-size="11.00">person_id</text>
<polygon fill="none" stroke="black" points="870,-356 870,-378 963,-378 963,-356 870,-356"/>
<text text-anchor="start" x="873" y="-364.2" font-family="Helvetica,sans-Serif" font-size="11.00">uuid[2147483647]</text>
<polygon fill="none" stroke="black" points="669,-334 669,-356 870,-356 870,-334 669,-334"/>
<image xlink:href="../../images/foreignKeys.png" width="11px" height="12px" preserveAspectRatio="xMinYMin meet" x="674" y="-351"/>
<text text-anchor="start" x="689" y="-342.2" font-family="Helvetica,sans-Serif" font-size="11.00">person_contact_role_id</text>
<polygon fill="none" stroke="black" points="870,-334 870,-356 963,-356 963,-334 870,-334"/>
<text text-anchor="start" x="873" y="-342.2" font-family="Helvetica,sans-Serif" font-size="11.00">uuid[2147483647]</text>
<polygon fill="none" stroke="black" points="669,-312 669,-334 870,-334 870,-312 669,-312"/>
<image xlink:href="../../images/foreignKeys.png" width="11px" height="12px" preserveAspectRatio="xMinYMin meet" x="674" y="-329"/>
<text text-anchor="start" x="689" y="-320.2" font-family="Helvetica,sans-Serif" font-size="11.00">place_id</text>
<polygon fill="none" stroke="black" points="870,-312 870,-334 963,-334 963,-312 870,-312"/>
<text text-anchor="start" x="873" y="-320.2" font-family="Helvetica,sans-Serif" font-size="11.00">uuid[2147483647]</text>
<polygon fill="none" stroke="black" points="669,-290 669,-312 870,-312 870,-290 669,-290"/>
<image xlink:href="../../images/foreignKeys.png" width="11px" height="12px" preserveAspectRatio="xMinYMin meet" x="674" y="-307"/>
<text text-anchor="start" x="689" y="-298.2" font-family="Helvetica,sans-Serif" font-size="11.00">contact_id</text>
<polygon fill="none" stroke="black" points="870,-290 870,-312 963,-312 963,-290 870,-290"/>
<text text-anchor="start" x="873" y="-298.2" font-family="Helvetica,sans-Serif" font-size="11.00">uuid[2147483647]</text>
<polygon fill="none" stroke="black" points="669,-268 669,-290 870,-290 870,-268 669,-268"/>
<text text-anchor="start" x="689" y="-276.2" font-family="Helvetica,sans-Serif" font-size="11.00">diag_timestamp_created</text>
<polygon fill="none" stroke="black" points="870,-268 870,-290 963,-290 963,-268 870,-268"/>
<text text-anchor="start" x="873" y="-276.2" font-family="Helvetica,sans-Serif" font-size="11.00">timestamptz[35,6]</text>
<polygon fill="none" stroke="black" points="669,-246 669,-268 870,-268 870,-246 669,-246"/>
<text text-anchor="start" x="689" y="-254.2" font-family="Helvetica,sans-Serif" font-size="11.00">diag_role_created</text>
<polygon fill="none" stroke="black" points="870,-246 870,-268 963,-268 963,-246 870,-246"/>
<text text-anchor="start" x="873" y="-254.2" font-family="Helvetica,sans-Serif" font-size="11.00">text[2147483647]</text>
<polygon fill="none" stroke="black" points="669,-224 669,-246 870,-246 870,-224 669,-224"/>
<text text-anchor="start" x="689" y="-232.2" font-family="Helvetica,sans-Serif" font-size="11.00">diag_timestamp_modified</text>
<polygon fill="none" stroke="black" points="870,-224 870,-246 963,-246 963,-224 870,-224"/>
<text text-anchor="start" x="873" y="-232.2" font-family="Helvetica,sans-Serif" font-size="11.00">timestamptz[35,6]</text>
<polygon fill="none" stroke="black" points="669,-202 669,-224 870,-224 870,-202 669,-202"/>
<text text-anchor="start" x="689" y="-210.2" font-family="Helvetica,sans-Serif" font-size="11.00">diag_wallclock_modified</text>
<polygon fill="none" stroke="black" points="870,-202 870,-224 963,-224 963,-202 870,-202"/>
<text text-anchor="start" x="873" y="-210.2" font-family="Helvetica,sans-Serif" font-size="11.00">timestamptz[35,6]</text>
<polygon fill="none" stroke="black" points="669,-180 669,-202 870,-202 870,-180 669,-180"/>
<text text-anchor="start" x="689" y="-188.2" font-family="Helvetica,sans-Serif" font-size="11.00">diag_role_modified</text>
<polygon fill="none" stroke="black" points="870,-180 870,-202 963,-202 963,-180 870,-180"/>
<text text-anchor="start" x="873" y="-188.2" font-family="Helvetica,sans-Serif" font-size="11.00">text[2147483647]</text>
<polygon fill="none" stroke="black" points="669,-158 669,-180 870,-180 870,-158 669,-158"/>
<text text-anchor="start" x="689" y="-166.2" font-family="Helvetica,sans-Serif" font-size="11.00">diag_row_version</text>
<polygon fill="none" stroke="black" points="870,-158 870,-180 963,-180 963,-158 870,-158"/>
<text text-anchor="start" x="873" y="-166.2" font-family="Helvetica,sans-Serif" font-size="11.00">int8[19]</text>
<polygon fill="none" stroke="black" points="669,-136 669,-158 870,-158 870,-136 669,-136"/>
<text text-anchor="start" x="689" y="-144.2" font-family="Helvetica,sans-Serif" font-size="11.00">diag_update_count</text>
<polygon fill="none" stroke="black" points="870,-136 870,-158 963,-158 963,-136 870,-136"/>
<text text-anchor="start" x="873" y="-144.2" font-family="Helvetica,sans-Serif" font-size="11.00">int8[19]</text>
<polygon fill="#ffffff" stroke="transparent" points="669,-118 669,-136 774,-136 774,-118 669,-118"/>
<polygon fill="none" stroke="black" points="669,-118 669,-136 774,-136 774,-118 669,-118"/>
<text text-anchor="start" x="672" y="-124.2" font-family="Helvetica,sans-Serif" font-size="11.00">&lt; 4</text>
<polygon fill="#ffffff" stroke="transparent" points="774,-118 774,-136 870,-136 870,-118 774,-118"/>
<polygon fill="none" stroke="black" points="774,-118 774,-136 870,-136 870,-118 774,-118"/>
<text text-anchor="start" x="860" y="-124.2" font-family="Helvetica,sans-Serif" font-size="11.00"> &#160;</text>
<polygon fill="#ffffff" stroke="transparent" points="870,-118 870,-136 963,-136 963,-118 870,-118"/>
<polygon fill="none" stroke="black" points="870,-118 870,-136 963,-136 963,-118 870,-118"/>
<text text-anchor="start" x="944" y="-124.2" font-family="Helvetica,sans-Serif" font-size="11.00">0 &gt;</text>
<polygon fill="none" stroke="black" stroke-width="2" points="668,-117 668,-423 964,-423 964,-117 668,-117"/>
</a>
</g>
</g>
<!-- mstr_person_contact_roles&#45;&gt;mstr_contacts -->
<g id="edge13" class="edge">
<title>mstr_person_contact_roles:w&#45;&gt;mstr_contacts:e</title>
<path fill="none" stroke="black" d="M653.44,-301C644.36,-301 635.11,-301 626.08,-301"/>
<polygon fill="black" stroke="black" points="660,-301 668,-304.6 664,-301 668,-301 668,-301 668,-301 664,-301 668,-297.4 660,-301 660,-301"/>
<ellipse fill="none" stroke="black" cx="656.8" cy="-301" rx="3.2" ry="3.2"/>
</g>
<!-- mstr_person_contact_roles&#45;&gt;ms_syst_data.syst_enum_items -->
<g id="edge14" class="edge">
<title>mstr_person_contact_roles:w&#45;&gt;ms_syst_data.syst_enum_items:e</title>
<path fill="none" stroke="black" d="M653.67,-347.14C644.85,-350.11 639.23,-355.52 626,-359 484.18,-396.34 441.62,-424.67 298,-395 262.05,-387.57 224.3,-371.91 194.03,-357.18"/>
<polygon fill="black" stroke="black" points="660.09,-346.18 668.53,-348.56 664.04,-345.59 668,-345 668,-345 668,-345 664.04,-345.59 667.47,-341.44 660.09,-346.18 660.09,-346.18"/>
<ellipse fill="none" stroke="black" cx="656.92" cy="-346.65" rx="3.2" ry="3.2"/>
</g>
<!-- mstr_person_contact_roles&#45;&gt;mstr_places -->
<g id="edge16" class="edge">
<title>mstr_person_contact_roles:w&#45;&gt;mstr_places:e</title>
<path fill="none" stroke="black" d="M653.88,-325.84C629.77,-338.2 652.87,-388.08 626,-418 622.91,-421.44 619.47,-424.68 615.82,-427.72"/>
<polygon fill="black" stroke="black" points="660.16,-324.58 668.71,-326.53 664.08,-323.79 668,-323 668,-323 668,-323 664.08,-323.79 667.29,-319.47 660.16,-324.58 660.16,-324.58"/>
<ellipse fill="none" stroke="black" cx="657.02" cy="-325.21" rx="3.2" ry="3.2"/>
</g>
<!-- mstr_person_contact_roles&#45;&gt;mstr_persons -->
<g id="edge15" class="edge">
<title>mstr_person_contact_roles:w&#45;&gt;mstr_persons:e</title>
<path fill="none" stroke="black" d="M653.49,-364.2C626.75,-351.09 655.44,-294.94 626,-262 623.85,-259.59 621.52,-257.3 619.05,-255.13"/>
<polygon fill="black" stroke="black" points="660.14,-365.49 667.32,-370.53 664.07,-366.24 668,-367 668,-367 668,-367 664.07,-366.24 668.68,-363.47 660.14,-365.49 660.14,-365.49"/>
<ellipse fill="none" stroke="black" cx="657" cy="-364.88" rx="3.2" ry="3.2"/>
</g>
</g>
</svg>
