<?xml version="1.0" encoding="UTF-8" standalone="no"?>
<!DOCTYPE svg PUBLIC "-//W3C//DTD SVG 1.1//EN"
 "http://www.w3.org/Graphics/SVG/1.1/DTD/svg11.dtd">
<!-- Generated by graphviz version 2.43.0 (0)
 -->
<!-- Title: twoDegreesRelationshipsDiagram Pages: 1 -->
<svg width="1154pt" height="899pt"
 viewBox="0.00 0.00 1154.00 899.29" xmlns="http://www.w3.org/2000/svg" xmlns:xlink="http://www.w3.org/1999/xlink">
<g id="graph0" class="graph" transform="scale(1 1) rotate(0) translate(4 895.29)">
<title>twoDegreesRelationshipsDiagram</title>
<polygon fill="#ffffff" stroke="transparent" points="-4,4 -4,-895.29 1150,-895.29 1150,4 -4,4"/>
<text text-anchor="middle" x="71.5" y="-7.2" font-family="Helvetica,sans-Serif" font-size="11.00">Generated by SchemaSpy</text>
<!-- mstr_contacts -->
<g id="node1" class="node">
<title>mstr_contacts</title>
<g id="a_node1"><a xlink:href="../../tables/mstr_contacts.html" xlink:title="mstr_contacts" target="_top">
<polygon fill="#ffffff" stroke="transparent" points="633,-829.29 633,-887.29 768,-887.29 768,-829.29 633,-829.29"/>
<polygon fill="#f5f5f5" stroke="transparent" points="633.5,-865.29 633.5,-887.29 768.5,-887.29 768.5,-865.29 633.5,-865.29"/>
<polygon fill="none" stroke="black" points="633.5,-865.29 633.5,-887.29 768.5,-887.29 768.5,-865.29 633.5,-865.29"/>
<text text-anchor="start" x="638.5" y="-874.49" font-family="Helvetica,sans-Serif" font-weight="bold" font-size="11.00">mstr_contacts</text>
<text text-anchor="start" x="733.5" y="-873.49" font-family="Helvetica,sans-Serif" font-size="11.00">[table]</text>
<polygon fill="none" stroke="black" points="633.5,-847.29 633.5,-865.29 768.5,-865.29 768.5,-847.29 633.5,-847.29"/>
<text text-anchor="start" x="636.5" y="-853.49" font-family="Helvetica,sans-Serif" font-size="11.00">...</text>
<polygon fill="#ffffff" stroke="transparent" points="633.5,-829.29 633.5,-847.29 694.5,-847.29 694.5,-829.29 633.5,-829.29"/>
<polygon fill="none" stroke="black" points="633.5,-829.29 633.5,-847.29 694.5,-847.29 694.5,-829.29 633.5,-829.29"/>
<text text-anchor="start" x="636.5" y="-835.49" font-family="Helvetica,sans-Serif" font-size="11.00">&lt; 3</text>
<polygon fill="#ffffff" stroke="transparent" points="694.5,-829.29 694.5,-847.29 726.5,-847.29 726.5,-829.29 694.5,-829.29"/>
<polygon fill="none" stroke="black" points="694.5,-829.29 694.5,-847.29 726.5,-847.29 726.5,-829.29 694.5,-829.29"/>
<text text-anchor="start" x="716.5" y="-835.49" font-family="Helvetica,sans-Serif" font-size="11.00"> &#160;</text>
<polygon fill="#ffffff" stroke="transparent" points="726.5,-829.29 726.5,-847.29 768.5,-847.29 768.5,-829.29 726.5,-829.29"/>
<polygon fill="none" stroke="black" points="726.5,-829.29 726.5,-847.29 768.5,-847.29 768.5,-829.29 726.5,-829.29"/>
<text text-anchor="start" x="749.5" y="-835.49" font-family="Helvetica,sans-Serif" font-size="11.00">1 &gt;</text>
</a>
</g>
</g>
<!-- ms_syst_data.syst_enum_items -->
<g id="node2" class="node">
<title>ms_syst_data.syst_enum_items</title>
<g id="a_node2"><a xlink:href="../../../ms_syst_data/tables/syst_enum_items.html" xlink:title="ms_syst_data.syst_enum_items" target="_top">
<polygon fill="#ffffff" stroke="transparent" points="8,-429.29 8,-487.29 257,-487.29 257,-429.29 8,-429.29"/>
<polygon fill="#f5f5f5" stroke="transparent" points="8.5,-465.29 8.5,-487.29 257.5,-487.29 257.5,-465.29 8.5,-465.29"/>
<polygon fill="none" stroke="black" points="8.5,-465.29 8.5,-487.29 257.5,-487.29 257.5,-465.29 8.5,-465.29"/>
<text text-anchor="start" x="13.5" y="-474.49" font-family="Helvetica,sans-Serif" font-weight="bold" font-size="11.00">ms_syst_data.syst_enum_items</text>
<text text-anchor="start" x="222.5" y="-473.49" font-family="Helvetica,sans-Serif" font-size="11.00">[table]</text>
<polygon fill="none" stroke="black" points="8.5,-447.29 8.5,-465.29 257.5,-465.29 257.5,-447.29 8.5,-447.29"/>
<text text-anchor="start" x="11.5" y="-453.49" font-family="Helvetica,sans-Serif" font-size="11.00">...</text>
<polygon fill="#ffffff" stroke="transparent" points="8.5,-429.29 8.5,-447.29 118.5,-447.29 118.5,-429.29 8.5,-429.29"/>
<polygon fill="none" stroke="black" points="8.5,-429.29 8.5,-447.29 118.5,-447.29 118.5,-429.29 8.5,-429.29"/>
<text text-anchor="start" x="11.5" y="-435.49" font-family="Helvetica,sans-Serif" font-size="11.00"> &#160;</text>
<polygon fill="#ffffff" stroke="transparent" points="118.5,-429.29 118.5,-447.29 180.5,-447.29 180.5,-429.29 118.5,-429.29"/>
<polygon fill="none" stroke="black" points="118.5,-429.29 118.5,-447.29 180.5,-447.29 180.5,-429.29 118.5,-429.29"/>
<text text-anchor="start" x="170.5" y="-435.49" font-family="Helvetica,sans-Serif" font-size="11.00"> &#160;</text>
<polygon fill="#ffffff" stroke="transparent" points="180.5,-429.29 180.5,-447.29 257.5,-447.29 257.5,-429.29 180.5,-429.29"/>
<polygon fill="none" stroke="black" points="180.5,-429.29 180.5,-447.29 257.5,-447.29 257.5,-429.29 180.5,-429.29"/>
<text text-anchor="start" x="232.5" y="-435.49" font-family="Helvetica,sans-Serif" font-size="11.00">10 &gt;</text>
</a>
</g>
</g>
<!-- mstr_contacts&#45;&gt;ms_syst_data.syst_enum_items -->
<g id="edge1" class="edge">
<title>mstr_contacts:w&#45;&gt;ms_syst_data.syst_enum_items:e</title>
<path fill="none" stroke="black" d="M617.83,-855.48C516.47,-844.83 338.12,-732.18 298,-674.29 269.96,-633.82 307.73,-456.29 258.5,-456.29"/>
<polygon fill="black" stroke="black" points="624.51,-855.85 632.3,-859.88 628.51,-856.07 632.5,-856.29 632.5,-856.29 632.5,-856.29 628.51,-856.07 632.7,-852.69 624.51,-855.85 624.51,-855.85"/>
<ellipse fill="none" stroke="black" cx="621.32" cy="-855.67" rx="3.2" ry="3.2"/>
</g>
<!-- mstr_contacts&#45;&gt;ms_syst_data.syst_enum_items -->
<g id="edge2" class="edge">
<title>mstr_contacts:w&#45;&gt;ms_syst_data.syst_enum_items:e</title>
<path fill="none" stroke="black" d="M618.09,-855.5C514.49,-844.69 336.02,-725.67 298,-670.29 270.63,-630.42 306.86,-456.29 258.5,-456.29"/>
<polygon fill="black" stroke="black" points="624.51,-855.85 632.3,-859.88 628.51,-856.07 632.5,-856.29 632.5,-856.29 632.5,-856.29 628.51,-856.07 632.7,-852.69 624.51,-855.85 624.51,-855.85"/>
<ellipse fill="none" stroke="black" cx="621.32" cy="-855.68" rx="3.2" ry="3.2"/>
</g>
<!-- mstr_entities -->
<g id="node3" class="node">
<title>mstr_entities</title>
<g id="a_node3"><a xlink:href="../../tables/mstr_entities.html" xlink:title="mstr_entities" target="_top">
<polygon fill="#ffffff" stroke="transparent" points="306,-387.29 306,-577.29 500,-577.29 500,-387.29 306,-387.29"/>
<polygon fill="#f5f5f5" stroke="transparent" points="306,-555.29 306,-577.29 500,-577.29 500,-555.29 306,-555.29"/>
<polygon fill="none" stroke="black" points="306,-555.29 306,-577.29 500,-577.29 500,-555.29 306,-555.29"/>
<text text-anchor="start" x="311" y="-564.49" font-family="Helvetica,sans-Serif" font-weight="bold" font-size="11.00">mstr_entities</text>
<text text-anchor="start" x="465" y="-563.49" font-family="Helvetica,sans-Serif" font-size="11.00">[table]</text>
<polygon fill="none" stroke="black" points="306,-533.29 306,-555.29 500,-555.29 500,-533.29 306,-533.29"/>
<image xlink:href="../../images/primaryKeys.png" width="11px" height="12px" preserveAspectRatio="xMinYMin meet" x="311" y="-550.288"/>
<text text-anchor="start" x="326" y="-541.49" font-family="Helvetica,sans-Serif" font-size="11.00">id</text>
<polygon fill="none" stroke="black" points="306,-511.29 306,-533.29 500,-533.29 500,-511.29 306,-511.29"/>
<image xlink:href="../../images/foreignKeys.png" width="11px" height="12px" preserveAspectRatio="xMinYMin meet" x="311" y="-528.288"/>
<text text-anchor="start" x="326" y="-519.49" font-family="Helvetica,sans-Serif" font-size="11.00">owning_entity_id</text>
<polygon fill="#ffffff" stroke="transparent" points="306,-489.29 306,-511.29 500,-511.29 500,-489.29 306,-489.29"/>
<polygon fill="none" stroke="black" points="306,-489.29 306,-511.29 500,-511.29 500,-489.29 306,-489.29"/>
<text text-anchor="start" x="326" y="-497.49" font-family="Helvetica,sans-Serif" font-size="11.00">internal_name</text>
<polygon fill="#ffffff" stroke="transparent" points="306,-467.29 306,-489.29 500,-489.29 500,-467.29 306,-467.29"/>
<polygon fill="none" stroke="black" points="306,-467.29 306,-489.29 500,-489.29 500,-467.29 306,-467.29"/>
<text text-anchor="start" x="326" y="-475.49" font-family="Helvetica,sans-Serif" font-size="11.00">display_name</text>
<polygon fill="none" stroke="black" points="306,-445.29 306,-467.29 500,-467.29 500,-445.29 306,-445.29"/>
<image xlink:href="../../images/foreignKeys.png" width="11px" height="12px" preserveAspectRatio="xMinYMin meet" x="311" y="-462.288"/>
<text text-anchor="start" x="326" y="-453.49" font-family="Helvetica,sans-Serif" font-size="11.00">entity_type_id</text>
<polygon fill="none" stroke="black" points="306,-423.29 306,-445.29 500,-445.29 500,-423.29 306,-423.29"/>
<image xlink:href="../../images/foreignKeys.png" width="11px" height="12px" preserveAspectRatio="xMinYMin meet" x="311" y="-440.288"/>
<text text-anchor="start" x="326" y="-431.49" font-family="Helvetica,sans-Serif" font-size="11.00">entity_state_id</text>
<polygon fill="none" stroke="black" points="306,-405.29 306,-423.29 500,-423.29 500,-405.29 306,-405.29"/>
<text text-anchor="start" x="309" y="-411.49" font-family="Helvetica,sans-Serif" font-size="11.00">...</text>
<polygon fill="#ffffff" stroke="transparent" points="306,-387.29 306,-405.29 393,-405.29 393,-387.29 306,-387.29"/>
<polygon fill="none" stroke="black" points="306,-387.29 306,-405.29 393,-405.29 393,-387.29 306,-387.29"/>
<text text-anchor="start" x="309" y="-393.49" font-family="Helvetica,sans-Serif" font-size="11.00">&lt; 3</text>
<polygon fill="#ffffff" stroke="transparent" points="393,-387.29 393,-405.29 439,-405.29 439,-387.29 393,-387.29"/>
<polygon fill="none" stroke="black" points="393,-387.29 393,-405.29 439,-405.29 439,-387.29 393,-387.29"/>
<text text-anchor="start" x="429" y="-393.49" font-family="Helvetica,sans-Serif" font-size="11.00"> &#160;</text>
<polygon fill="#ffffff" stroke="transparent" points="439,-387.29 439,-405.29 500,-405.29 500,-387.29 439,-387.29"/>
<polygon fill="none" stroke="black" points="439,-387.29 439,-405.29 500,-405.29 500,-387.29 439,-387.29"/>
<text text-anchor="start" x="475" y="-393.49" font-family="Helvetica,sans-Serif" font-size="11.00">15 &gt;</text>
</a>
</g>
</g>
<!-- mstr_contacts&#45;&gt;mstr_entities -->
<g id="edge3" class="edge">
<title>mstr_contacts:w&#45;&gt;mstr_entities:e</title>
<path fill="none" stroke="black" d="M617.99,-856.14C583.73,-855.26 564.91,-849.75 541,-819.29 502.87,-770.71 562.75,-544.29 501,-544.29"/>
<polygon fill="black" stroke="black" points="624.5,-856.21 632.46,-859.89 628.5,-856.25 632.5,-856.29 632.5,-856.29 632.5,-856.29 628.5,-856.25 632.54,-852.69 624.5,-856.21 624.5,-856.21"/>
<ellipse fill="none" stroke="black" cx="621.3" cy="-856.17" rx="3.2" ry="3.2"/>
</g>
<!-- mstr_entities&#45;&gt;ms_syst_data.syst_enum_items -->
<g id="edge4" class="edge">
<title>mstr_entities:w&#45;&gt;ms_syst_data.syst_enum_items:e</title>
<path fill="none" stroke="black" d="M290.96,-437.92C280.27,-444.17 275.47,-456.29 258.5,-456.29"/>
<polygon fill="black" stroke="black" points="297.26,-436.29 305.9,-437.77 301.13,-435.29 305,-434.29 305,-434.29 305,-434.29 301.13,-435.29 304.1,-430.8 297.26,-436.29 297.26,-436.29"/>
<ellipse fill="none" stroke="black" cx="294.16" cy="-437.09" rx="3.2" ry="3.2"/>
</g>
<!-- mstr_entities&#45;&gt;ms_syst_data.syst_enum_items -->
<g id="edge5" class="edge">
<title>mstr_entities:w&#45;&gt;ms_syst_data.syst_enum_items:e</title>
<path fill="none" stroke="black" d="M290.55,-456.29C280.2,-456.29 273.35,-456.29 258.5,-456.29"/>
<polygon fill="black" stroke="black" points="297,-456.29 305,-459.89 301,-456.29 305,-456.29 305,-456.29 305,-456.29 301,-456.29 305,-452.69 297,-456.29 297,-456.29"/>
<ellipse fill="none" stroke="black" cx="293.8" cy="-456.29" rx="3.2" ry="3.2"/>
</g>
<!-- mstr_entity_bank_entities -->
<g id="node4" class="node">
<title>mstr_entity_bank_entities</title>
<g id="a_node4"><a xlink:href="../../tables/mstr_entity_bank_entities.html" xlink:title="mstr_entity_bank_entities" target="_top">
<polygon fill="#ffffff" stroke="transparent" points="593.5,-147.29 593.5,-205.29 807.5,-205.29 807.5,-147.29 593.5,-147.29"/>
<polygon fill="#f5f5f5" stroke="transparent" points="593.5,-183.29 593.5,-205.29 807.5,-205.29 807.5,-183.29 593.5,-183.29"/>
<polygon fill="none" stroke="black" points="593.5,-183.29 593.5,-205.29 807.5,-205.29 807.5,-183.29 593.5,-183.29"/>
<text text-anchor="start" x="598.5" y="-192.49" font-family="Helvetica,sans-Serif" font-weight="bold" font-size="11.00">mstr_entity_bank_entities</text>
<text text-anchor="start" x="772.5" y="-191.49" font-family="Helvetica,sans-Serif" font-size="11.00">[table]</text>
<polygon fill="none" stroke="black" points="593.5,-165.29 593.5,-183.29 807.5,-183.29 807.5,-165.29 593.5,-165.29"/>
<text text-anchor="start" x="596.5" y="-171.49" font-family="Helvetica,sans-Serif" font-size="11.00">...</text>
<polygon fill="#ffffff" stroke="transparent" points="593.5,-147.29 593.5,-165.29 698.5,-165.29 698.5,-147.29 593.5,-147.29"/>
<polygon fill="none" stroke="black" points="593.5,-147.29 593.5,-165.29 698.5,-165.29 698.5,-147.29 593.5,-147.29"/>
<text text-anchor="start" x="596.5" y="-153.49" font-family="Helvetica,sans-Serif" font-size="11.00">&lt; 2</text>
<polygon fill="#ffffff" stroke="transparent" points="698.5,-147.29 698.5,-165.29 752.5,-165.29 752.5,-147.29 698.5,-147.29"/>
<polygon fill="none" stroke="black" points="698.5,-147.29 698.5,-165.29 752.5,-165.29 752.5,-147.29 698.5,-147.29"/>
<text text-anchor="start" x="742.5" y="-153.49" font-family="Helvetica,sans-Serif" font-size="11.00"> &#160;</text>
<polygon fill="#ffffff" stroke="transparent" points="752.5,-147.29 752.5,-165.29 807.5,-165.29 807.5,-147.29 752.5,-147.29"/>
<polygon fill="none" stroke="black" points="752.5,-147.29 752.5,-165.29 807.5,-165.29 807.5,-147.29 752.5,-147.29"/>
<text text-anchor="start" x="797.5" y="-153.49" font-family="Helvetica,sans-Serif" font-size="11.00"> &#160;</text>
</a>
</g>
</g>
<!-- mstr_entity_bank_entities&#45;&gt;mstr_entities -->
<g id="edge6" class="edge">
<title>mstr_entity_bank_entities:w&#45;&gt;mstr_entities:e</title>
<path fill="none" stroke="black" d="M578,-173.17C559.85,-174.68 552.59,-189.27 541,-210.29 505.54,-274.59 574.43,-538.29 501,-544.29"/>
<polygon fill="black" stroke="black" points="584.52,-173.67 592.22,-177.88 588.51,-173.98 592.5,-174.29 592.5,-174.29 592.5,-174.29 588.51,-173.98 592.78,-170.7 584.52,-173.67 584.52,-173.67"/>
<ellipse fill="none" stroke="black" cx="581.33" cy="-173.42" rx="3.2" ry="3.2"/>
</g>
<!-- mstr_entity_bank_entities&#45;&gt;mstr_entities -->
<g id="edge7" class="edge">
<title>mstr_entity_bank_entities:w&#45;&gt;mstr_entities:e</title>
<path fill="none" stroke="black" d="M578.79,-178.83C560.05,-187.26 552.76,-201.97 541,-223.29 505.54,-287.59 574.43,-551.29 501,-544.29"/>
<polygon fill="black" stroke="black" points="584.91,-176.8 593.63,-177.71 588.7,-175.55 592.5,-174.29 592.5,-174.29 592.5,-174.29 588.7,-175.55 591.37,-170.87 584.91,-176.8 584.91,-176.8"/>
<ellipse fill="none" stroke="black" cx="581.87" cy="-177.81" rx="3.2" ry="3.2"/>
</g>
<!-- mstr_entity_facility_places -->
<g id="node5" class="node">
<title>mstr_entity_facility_places</title>
<g id="a_node5"><a xlink:href="../../tables/mstr_entity_facility_places.html" xlink:title="mstr_entity_facility_places" target="_top">
<polygon fill="#ffffff" stroke="transparent" points="910.5,-724.29 910.5,-782.29 1128.5,-782.29 1128.5,-724.29 910.5,-724.29"/>
<polygon fill="#f5f5f5" stroke="transparent" points="910.5,-760.29 910.5,-782.29 1128.5,-782.29 1128.5,-760.29 910.5,-760.29"/>
<polygon fill="none" stroke="black" points="910.5,-760.29 910.5,-782.29 1128.5,-782.29 1128.5,-760.29 910.5,-760.29"/>
<text text-anchor="start" x="915.5" y="-769.49" font-family="Helvetica,sans-Serif" font-weight="bold" font-size="11.00">mstr_entity_facility_places</text>
<text text-anchor="start" x="1093.5" y="-768.49" font-family="Helvetica,sans-Serif" font-size="11.00">[table]</text>
<polygon fill="none" stroke="black" points="910.5,-742.29 910.5,-760.29 1128.5,-760.29 1128.5,-742.29 910.5,-742.29"/>
<text text-anchor="start" x="913.5" y="-748.49" font-family="Helvetica,sans-Serif" font-size="11.00">...</text>
<polygon fill="#ffffff" stroke="transparent" points="910.5,-724.29 910.5,-742.29 1017.5,-742.29 1017.5,-724.29 910.5,-724.29"/>
<polygon fill="none" stroke="black" points="910.5,-724.29 910.5,-742.29 1017.5,-742.29 1017.5,-724.29 910.5,-724.29"/>
<text text-anchor="start" x="913.5" y="-730.49" font-family="Helvetica,sans-Serif" font-size="11.00">&lt; 2</text>
<polygon fill="#ffffff" stroke="transparent" points="1017.5,-724.29 1017.5,-742.29 1072.5,-742.29 1072.5,-724.29 1017.5,-724.29"/>
<polygon fill="none" stroke="black" points="1017.5,-724.29 1017.5,-742.29 1072.5,-742.29 1072.5,-724.29 1017.5,-724.29"/>
<text text-anchor="start" x="1062.5" y="-730.49" font-family="Helvetica,sans-Serif" font-size="11.00"> &#160;</text>
<polygon fill="#ffffff" stroke="transparent" points="1072.5,-724.29 1072.5,-742.29 1128.5,-742.29 1128.5,-724.29 1072.5,-724.29"/>
<polygon fill="none" stroke="black" points="1072.5,-724.29 1072.5,-742.29 1128.5,-742.29 1128.5,-724.29 1072.5,-724.29"/>
<text text-anchor="start" x="1118.5" y="-730.49" font-family="Helvetica,sans-Serif" font-size="11.00"> &#160;</text>
</a>
</g>
</g>
<!-- mstr_entity_facility_places&#45;&gt;mstr_entities -->
<g id="edge8" class="edge">
<title>mstr_entity_facility_places:w&#45;&gt;mstr_entities:e</title>
<path fill="none" stroke="black" d="M895.02,-749.98C883.38,-747.65 876.53,-742.81 860,-740.29 789.67,-729.55 594.89,-759.74 541,-713.29 482.54,-662.89 578.19,-544.29 501,-544.29"/>
<polygon fill="black" stroke="black" points="901.53,-750.57 909.17,-754.87 905.52,-750.93 909.5,-751.29 909.5,-751.29 909.5,-751.29 905.52,-750.93 909.83,-747.7 901.53,-750.57 901.53,-750.57"/>
<ellipse fill="none" stroke="black" cx="898.35" cy="-750.28" rx="3.2" ry="3.2"/>
</g>
<!-- mstr_places -->
<g id="node6" class="node">
<title>mstr_places</title>
<g id="a_node6"><a xlink:href="../../tables/mstr_places.html" xlink:title="mstr_places" target="_top">
<polygon fill="#ffffff" stroke="transparent" points="640.5,-750.29 640.5,-808.29 760.5,-808.29 760.5,-750.29 640.5,-750.29"/>
<polygon fill="#f5f5f5" stroke="transparent" points="640.5,-786.29 640.5,-808.29 760.5,-808.29 760.5,-786.29 640.5,-786.29"/>
<polygon fill="none" stroke="black" points="640.5,-786.29 640.5,-808.29 760.5,-808.29 760.5,-786.29 640.5,-786.29"/>
<text text-anchor="start" x="645.5" y="-795.49" font-family="Helvetica,sans-Serif" font-weight="bold" font-size="11.00">mstr_places</text>
<text text-anchor="start" x="725.5" y="-794.49" font-family="Helvetica,sans-Serif" font-size="11.00">[table]</text>
<polygon fill="none" stroke="black" points="640.5,-768.29 640.5,-786.29 760.5,-786.29 760.5,-768.29 640.5,-768.29"/>
<text text-anchor="start" x="643.5" y="-774.49" font-family="Helvetica,sans-Serif" font-size="11.00">...</text>
<polygon fill="#ffffff" stroke="transparent" points="640.5,-750.29 640.5,-768.29 693.5,-768.29 693.5,-750.29 640.5,-750.29"/>
<polygon fill="none" stroke="black" points="640.5,-750.29 640.5,-768.29 693.5,-768.29 693.5,-750.29 640.5,-750.29"/>
<text text-anchor="start" x="643.5" y="-756.49" font-family="Helvetica,sans-Serif" font-size="11.00">&lt; 3</text>
<polygon fill="#ffffff" stroke="transparent" points="693.5,-750.29 693.5,-768.29 722.5,-768.29 722.5,-750.29 693.5,-750.29"/>
<polygon fill="none" stroke="black" points="693.5,-750.29 693.5,-768.29 722.5,-768.29 722.5,-750.29 693.5,-750.29"/>
<text text-anchor="start" x="712.5" y="-756.49" font-family="Helvetica,sans-Serif" font-size="11.00"> &#160;</text>
<polygon fill="#ffffff" stroke="transparent" points="722.5,-750.29 722.5,-768.29 760.5,-768.29 760.5,-750.29 722.5,-750.29"/>
<polygon fill="none" stroke="black" points="722.5,-750.29 722.5,-768.29 760.5,-768.29 760.5,-750.29 722.5,-750.29"/>
<text text-anchor="start" x="741.5" y="-756.49" font-family="Helvetica,sans-Serif" font-size="11.00">3 &gt;</text>
</a>
</g>
</g>
<!-- mstr_entity_facility_places&#45;&gt;mstr_places -->
<g id="edge9" class="edge">
<title>mstr_entity_facility_places:w&#45;&gt;mstr_places:e</title>
<path fill="none" stroke="black" d="M895.1,-751.72C840.21,-755.1 823.2,-777.29 761.5,-777.29"/>
<polygon fill="black" stroke="black" points="901.5,-751.53 909.61,-754.89 905.5,-751.41 909.5,-751.29 909.5,-751.29 909.5,-751.29 905.5,-751.41 909.39,-747.69 901.5,-751.53 901.5,-751.53"/>
<ellipse fill="none" stroke="black" cx="898.3" cy="-751.62" rx="3.2" ry="3.2"/>
</g>
<!-- mstr_places&#45;&gt;ms_syst_data.syst_enum_items -->
<g id="edge25" class="edge">
<title>mstr_places:w&#45;&gt;ms_syst_data.syst_enum_items:e</title>
<path fill="none" stroke="black" d="M625.01,-776.38C524.37,-764.5 337.22,-639.11 298,-588.29 260.59,-539.81 319.74,-456.29 258.5,-456.29"/>
<polygon fill="black" stroke="black" points="631.52,-776.79 639.27,-780.88 635.51,-777.04 639.5,-777.29 639.5,-777.29 639.5,-777.29 635.51,-777.04 639.73,-773.7 631.52,-776.79 631.52,-776.79"/>
<ellipse fill="none" stroke="black" cx="628.32" cy="-776.59" rx="3.2" ry="3.2"/>
</g>
<!-- mstr_places&#45;&gt;ms_syst_data.syst_enum_items -->
<g id="edge26" class="edge">
<title>mstr_places:w&#45;&gt;ms_syst_data.syst_enum_items:e</title>
<path fill="none" stroke="black" d="M624.93,-776.37C521.87,-764.14 335.06,-632.47 298,-584.29 261.71,-537.09 318.04,-456.29 258.5,-456.29"/>
<polygon fill="black" stroke="black" points="631.52,-776.79 639.27,-780.88 635.51,-777.04 639.5,-777.29 639.5,-777.29 639.5,-777.29 635.51,-777.04 639.73,-773.7 631.52,-776.79 631.52,-776.79"/>
<ellipse fill="none" stroke="black" cx="628.32" cy="-776.59" rx="3.2" ry="3.2"/>
</g>
<!-- mstr_places&#45;&gt;mstr_entities -->
<g id="edge24" class="edge">
<title>mstr_places:w&#45;&gt;mstr_entities:e</title>
<path fill="none" stroke="black" d="M624.85,-777.09C587.41,-775.93 567.91,-768.84 541,-736.29 485.46,-669.11 588.17,-544.29 501,-544.29"/>
<polygon fill="black" stroke="black" points="631.5,-777.18 639.45,-780.89 635.5,-777.23 639.5,-777.29 639.5,-777.29 639.5,-777.29 635.5,-777.23 639.55,-773.69 631.5,-777.18 631.5,-777.18"/>
<ellipse fill="none" stroke="black" cx="628.3" cy="-777.14" rx="3.2" ry="3.2"/>
</g>
<!-- mstr_entity_inventory_places -->
<g id="node7" class="node">
<title>mstr_entity_inventory_places</title>
<g id="a_node7"><a xlink:href="../../tables/mstr_entity_inventory_places.html" xlink:title="mstr_entity_inventory_places" target="_top">
<polygon fill="#ffffff" stroke="transparent" points="901,-489.29 901,-547.29 1138,-547.29 1138,-489.29 901,-489.29"/>
<polygon fill="#f5f5f5" stroke="transparent" points="901.5,-525.29 901.5,-547.29 1138.5,-547.29 1138.5,-525.29 901.5,-525.29"/>
<polygon fill="none" stroke="black" points="901.5,-525.29 901.5,-547.29 1138.5,-547.29 1138.5,-525.29 901.5,-525.29"/>
<text text-anchor="start" x="906.5" y="-534.49" font-family="Helvetica,sans-Serif" font-weight="bold" font-size="11.00">mstr_entity_inventory_places</text>
<text text-anchor="start" x="1103.5" y="-533.49" font-family="Helvetica,sans-Serif" font-size="11.00">[table]</text>
<polygon fill="none" stroke="black" points="901.5,-507.29 901.5,-525.29 1138.5,-525.29 1138.5,-507.29 901.5,-507.29"/>
<text text-anchor="start" x="904.5" y="-513.49" font-family="Helvetica,sans-Serif" font-size="11.00">...</text>
<polygon fill="#ffffff" stroke="transparent" points="901.5,-489.29 901.5,-507.29 1017.5,-507.29 1017.5,-489.29 901.5,-489.29"/>
<polygon fill="none" stroke="black" points="901.5,-489.29 901.5,-507.29 1017.5,-507.29 1017.5,-489.29 901.5,-489.29"/>
<text text-anchor="start" x="904.5" y="-495.49" font-family="Helvetica,sans-Serif" font-size="11.00">&lt; 2</text>
<polygon fill="#ffffff" stroke="transparent" points="1017.5,-489.29 1017.5,-507.29 1077.5,-507.29 1077.5,-489.29 1017.5,-489.29"/>
<polygon fill="none" stroke="black" points="1017.5,-489.29 1017.5,-507.29 1077.5,-507.29 1077.5,-489.29 1017.5,-489.29"/>
<text text-anchor="start" x="1067.5" y="-495.49" font-family="Helvetica,sans-Serif" font-size="11.00"> &#160;</text>
<polygon fill="#ffffff" stroke="transparent" points="1077.5,-489.29 1077.5,-507.29 1138.5,-507.29 1138.5,-489.29 1077.5,-489.29"/>
<polygon fill="none" stroke="black" points="1077.5,-489.29 1077.5,-507.29 1138.5,-507.29 1138.5,-489.29 1077.5,-489.29"/>
<text text-anchor="start" x="1128.5" y="-495.49" font-family="Helvetica,sans-Serif" font-size="11.00"> &#160;</text>
</a>
</g>
</g>
<!-- mstr_entity_inventory_places&#45;&gt;mstr_entities -->
<g id="edge10" class="edge">
<title>mstr_entity_inventory_places:w&#45;&gt;mstr_entities:e</title>
<path fill="none" stroke="black" d="M886.21,-514.39C837.5,-498.91 915.58,-393 860,-349.29 832.14,-327.38 568.47,-326.88 541,-349.29 472.44,-405.21 589.47,-544.29 501,-544.29"/>
<polygon fill="black" stroke="black" points="892.57,-515.23 900.03,-519.86 896.53,-515.76 900.5,-516.29 900.5,-516.29 900.5,-516.29 896.53,-515.76 900.97,-512.72 892.57,-515.23 892.57,-515.23"/>
<ellipse fill="none" stroke="black" cx="889.4" cy="-514.81" rx="3.2" ry="3.2"/>
</g>
<!-- mstr_entity_inventory_places&#45;&gt;mstr_places -->
<g id="edge11" class="edge">
<title>mstr_entity_inventory_places:w&#45;&gt;mstr_places:e</title>
<path fill="none" stroke="black" d="M885.87,-517.69C822.94,-531.49 907.23,-644.06 860,-713.29 830.58,-756.42 813.71,-777.29 761.5,-777.29"/>
<polygon fill="black" stroke="black" points="892.54,-517.05 900.84,-519.87 896.52,-516.67 900.5,-516.29 900.5,-516.29 900.5,-516.29 896.52,-516.67 900.16,-512.7 892.54,-517.05 892.54,-517.05"/>
<ellipse fill="none" stroke="black" cx="889.35" cy="-517.36" rx="3.2" ry="3.2"/>
</g>
<!-- mstr_entity_person_roles -->
<g id="node8" class="node">
<title>mstr_entity_person_roles</title>
<g id="a_node8"><a xlink:href="../../tables/mstr_entity_person_roles.html" xlink:title="mstr_entity_person_roles" target="_top">
<polygon fill="#ffffff" stroke="transparent" points="915,-68.29 915,-126.29 1124,-126.29 1124,-68.29 915,-68.29"/>
<polygon fill="#f5f5f5" stroke="transparent" points="915.5,-104.29 915.5,-126.29 1124.5,-126.29 1124.5,-104.29 915.5,-104.29"/>
<polygon fill="none" stroke="black" points="915.5,-104.29 915.5,-126.29 1124.5,-126.29 1124.5,-104.29 915.5,-104.29"/>
<text text-anchor="start" x="920.5" y="-113.49" font-family="Helvetica,sans-Serif" font-weight="bold" font-size="11.00">mstr_entity_person_roles</text>
<text text-anchor="start" x="1089.5" y="-112.49" font-family="Helvetica,sans-Serif" font-size="11.00">[table]</text>
<polygon fill="none" stroke="black" points="915.5,-86.29 915.5,-104.29 1124.5,-104.29 1124.5,-86.29 915.5,-86.29"/>
<text text-anchor="start" x="918.5" y="-92.49" font-family="Helvetica,sans-Serif" font-size="11.00">...</text>
<polygon fill="#ffffff" stroke="transparent" points="915.5,-68.29 915.5,-86.29 1017.5,-86.29 1017.5,-68.29 915.5,-68.29"/>
<polygon fill="none" stroke="black" points="915.5,-68.29 915.5,-86.29 1017.5,-86.29 1017.5,-68.29 915.5,-68.29"/>
<text text-anchor="start" x="918.5" y="-74.49" font-family="Helvetica,sans-Serif" font-size="11.00">&lt; 3</text>
<polygon fill="#ffffff" stroke="transparent" points="1017.5,-68.29 1017.5,-86.29 1070.5,-86.29 1070.5,-68.29 1017.5,-68.29"/>
<polygon fill="none" stroke="black" points="1017.5,-68.29 1017.5,-86.29 1070.5,-86.29 1070.5,-68.29 1017.5,-68.29"/>
<text text-anchor="start" x="1060.5" y="-74.49" font-family="Helvetica,sans-Serif" font-size="11.00"> &#160;</text>
<polygon fill="#ffffff" stroke="transparent" points="1070.5,-68.29 1070.5,-86.29 1124.5,-86.29 1124.5,-68.29 1070.5,-68.29"/>
<polygon fill="none" stroke="black" points="1070.5,-68.29 1070.5,-86.29 1124.5,-86.29 1124.5,-68.29 1070.5,-68.29"/>
<text text-anchor="start" x="1114.5" y="-74.49" font-family="Helvetica,sans-Serif" font-size="11.00"> &#160;</text>
</a>
</g>
</g>
<!-- mstr_entity_person_roles&#45;&gt;ms_syst_data.syst_enum_items -->
<g id="edge13" class="edge">
<title>mstr_entity_person_roles:w&#45;&gt;ms_syst_data.syst_enum_items:e</title>
<path fill="none" stroke="black" d="M900.1,-92.18C885.08,-84.57 882.3,-65.14 860,-58.29 724.48,-16.63 680.69,-34.04 541,-58.29 427.98,-77.91 369.83,-55.85 298,-145.29 254.38,-199.6 328.17,-456.29 258.5,-456.29"/>
<polygon fill="black" stroke="black" points="906.68,-93.6 913.74,-98.81 910.59,-94.44 914.5,-95.29 914.5,-95.29 914.5,-95.29 910.59,-94.44 915.26,-91.77 906.68,-93.6 906.68,-93.6"/>
<ellipse fill="none" stroke="black" cx="903.55" cy="-92.92" rx="3.2" ry="3.2"/>
</g>
<!-- mstr_entity_person_roles&#45;&gt;mstr_entities -->
<g id="edge12" class="edge">
<title>mstr_entity_person_roles:w&#45;&gt;mstr_entities:e</title>
<path fill="none" stroke="black" d="M899.88,-96.78C834.77,-111.98 925.89,-239.17 860,-295.29 751.45,-387.74 645.66,-232.46 541,-329.29 469.65,-395.29 598.2,-544.29 501,-544.29"/>
<polygon fill="black" stroke="black" points="906.54,-96.1 914.87,-98.87 910.52,-95.69 914.5,-95.29 914.5,-95.29 914.5,-95.29 910.52,-95.69 914.13,-91.71 906.54,-96.1 906.54,-96.1"/>
<ellipse fill="none" stroke="black" cx="903.36" cy="-96.43" rx="3.2" ry="3.2"/>
</g>
<!-- mstr_persons -->
<g id="node9" class="node">
<title>mstr_persons</title>
<g id="a_node9"><a xlink:href="../../tables/mstr_persons.html" xlink:title="mstr_persons" target="_top">
<polygon fill="#ffffff" stroke="transparent" points="635,-68.29 635,-126.29 766,-126.29 766,-68.29 635,-68.29"/>
<polygon fill="#f5f5f5" stroke="transparent" points="635.5,-104.29 635.5,-126.29 766.5,-126.29 766.5,-104.29 635.5,-104.29"/>
<polygon fill="none" stroke="black" points="635.5,-104.29 635.5,-126.29 766.5,-126.29 766.5,-104.29 635.5,-104.29"/>
<text text-anchor="start" x="640.5" y="-113.49" font-family="Helvetica,sans-Serif" font-weight="bold" font-size="11.00">mstr_persons</text>
<text text-anchor="start" x="731.5" y="-112.49" font-family="Helvetica,sans-Serif" font-size="11.00">[table]</text>
<polygon fill="none" stroke="black" points="635.5,-86.29 635.5,-104.29 766.5,-104.29 766.5,-86.29 635.5,-86.29"/>
<text text-anchor="start" x="638.5" y="-92.49" font-family="Helvetica,sans-Serif" font-size="11.00">...</text>
<polygon fill="#ffffff" stroke="transparent" points="635.5,-68.29 635.5,-86.29 694.5,-86.29 694.5,-68.29 635.5,-68.29"/>
<polygon fill="none" stroke="black" points="635.5,-68.29 635.5,-86.29 694.5,-86.29 694.5,-68.29 635.5,-68.29"/>
<text text-anchor="start" x="638.5" y="-74.49" font-family="Helvetica,sans-Serif" font-size="11.00">&lt; 3</text>
<polygon fill="#ffffff" stroke="transparent" points="694.5,-68.29 694.5,-86.29 725.5,-86.29 725.5,-68.29 694.5,-68.29"/>
<polygon fill="none" stroke="black" points="694.5,-68.29 694.5,-86.29 725.5,-86.29 725.5,-68.29 694.5,-68.29"/>
<text text-anchor="start" x="715.5" y="-74.49" font-family="Helvetica,sans-Serif" font-size="11.00"> &#160;</text>
<polygon fill="#ffffff" stroke="transparent" points="725.5,-68.29 725.5,-86.29 766.5,-86.29 766.5,-68.29 725.5,-68.29"/>
<polygon fill="none" stroke="black" points="725.5,-68.29 725.5,-86.29 766.5,-86.29 766.5,-68.29 725.5,-68.29"/>
<text text-anchor="start" x="747.5" y="-74.49" font-family="Helvetica,sans-Serif" font-size="11.00">2 &gt;</text>
</a>
</g>
</g>
<!-- mstr_entity_person_roles&#45;&gt;mstr_persons -->
<g id="edge14" class="edge">
<title>mstr_entity_person_roles:w&#45;&gt;mstr_persons:e</title>
<path fill="none" stroke="black" d="M900.04,-95.29C846.32,-95.29 827.73,-95.29 767.5,-95.29"/>
<polygon fill="black" stroke="black" points="906.5,-95.29 914.5,-98.89 910.5,-95.29 914.5,-95.29 914.5,-95.29 914.5,-95.29 910.5,-95.29 914.5,-91.69 906.5,-95.29 906.5,-95.29"/>
<ellipse fill="none" stroke="black" cx="903.3" cy="-95.29" rx="3.2" ry="3.2"/>
</g>
<!-- mstr_persons&#45;&gt;ms_syst_data.syst_enum_items -->
<g id="edge22" class="edge">
<title>mstr_persons:w&#45;&gt;ms_syst_data.syst_enum_items:e</title>
<path fill="none" stroke="black" d="M619.82,-96.07C477.02,-111.02 327.34,-336.84 298,-377.29 274.95,-409.06 297.76,-456.29 258.5,-456.29"/>
<polygon fill="black" stroke="black" points="626.51,-95.71 634.69,-98.88 630.51,-95.5 634.5,-95.29 634.5,-95.29 634.5,-95.29 630.51,-95.5 634.31,-91.69 626.51,-95.71 626.51,-95.71"/>
<ellipse fill="none" stroke="black" cx="623.32" cy="-95.88" rx="3.2" ry="3.2"/>
</g>
<!-- mstr_persons&#45;&gt;ms_syst_data.syst_enum_items -->
<g id="edge23" class="edge">
<title>mstr_persons:w&#45;&gt;ms_syst_data.syst_enum_items:e</title>
<path fill="none" stroke="black" d="M620.05,-96.04C475.27,-110.85 327.33,-341.4 298,-381.29 275.68,-411.64 296.17,-456.29 258.5,-456.29"/>
<polygon fill="black" stroke="black" points="626.51,-95.7 634.69,-98.88 630.51,-95.5 634.5,-95.29 634.5,-95.29 634.5,-95.29 630.51,-95.5 634.31,-91.69 626.51,-95.7 626.51,-95.7"/>
<ellipse fill="none" stroke="black" cx="623.31" cy="-95.87" rx="3.2" ry="3.2"/>
</g>
<!-- mstr_persons&#45;&gt;mstr_entities -->
<g id="edge21" class="edge">
<title>mstr_persons:w&#45;&gt;mstr_entities:e</title>
<path fill="none" stroke="black" d="M619.91,-95.52C584.04,-96.83 564.58,-104.49 541,-137.29 487.95,-211.08 591.88,-544.29 501,-544.29"/>
<polygon fill="black" stroke="black" points="626.5,-95.42 634.56,-98.89 630.5,-95.35 634.5,-95.29 634.5,-95.29 634.5,-95.29 630.5,-95.35 634.44,-91.69 626.5,-95.42 626.5,-95.42"/>
<ellipse fill="none" stroke="black" cx="623.3" cy="-95.47" rx="3.2" ry="3.2"/>
</g>
<!-- mstr_entity_purchasing_entities -->
<g id="node10" class="node">
<title>mstr_entity_purchasing_entities</title>
<g id="a_node10"><a xlink:href="../../tables/mstr_entity_purchasing_entities.html" xlink:title="mstr_entity_purchasing_entities" target="_top">
<polygon fill="#ffffff" stroke="transparent" points="572.5,-644.29 572.5,-702.29 828.5,-702.29 828.5,-644.29 572.5,-644.29"/>
<polygon fill="#f5f5f5" stroke="transparent" points="572.5,-680.29 572.5,-702.29 828.5,-702.29 828.5,-680.29 572.5,-680.29"/>
<polygon fill="none" stroke="black" points="572.5,-680.29 572.5,-702.29 828.5,-702.29 828.5,-680.29 572.5,-680.29"/>
<text text-anchor="start" x="577.5" y="-689.49" font-family="Helvetica,sans-Serif" font-weight="bold" font-size="11.00">mstr_entity_purchasing_entities</text>
<text text-anchor="start" x="793.5" y="-688.49" font-family="Helvetica,sans-Serif" font-size="11.00">[table]</text>
<polygon fill="none" stroke="black" points="572.5,-662.29 572.5,-680.29 828.5,-680.29 828.5,-662.29 572.5,-662.29"/>
<text text-anchor="start" x="575.5" y="-668.49" font-family="Helvetica,sans-Serif" font-size="11.00">...</text>
<polygon fill="#ffffff" stroke="transparent" points="572.5,-644.29 572.5,-662.29 698.5,-662.29 698.5,-644.29 572.5,-644.29"/>
<polygon fill="none" stroke="black" points="572.5,-644.29 572.5,-662.29 698.5,-662.29 698.5,-644.29 572.5,-644.29"/>
<text text-anchor="start" x="575.5" y="-650.49" font-family="Helvetica,sans-Serif" font-size="11.00">&lt; 2</text>
<polygon fill="#ffffff" stroke="transparent" points="698.5,-644.29 698.5,-662.29 763.5,-662.29 763.5,-644.29 698.5,-644.29"/>
<polygon fill="none" stroke="black" points="698.5,-644.29 698.5,-662.29 763.5,-662.29 763.5,-644.29 698.5,-644.29"/>
<text text-anchor="start" x="753.5" y="-650.49" font-family="Helvetica,sans-Serif" font-size="11.00"> &#160;</text>
<polygon fill="#ffffff" stroke="transparent" points="763.5,-644.29 763.5,-662.29 828.5,-662.29 828.5,-644.29 763.5,-644.29"/>
<polygon fill="none" stroke="black" points="763.5,-644.29 763.5,-662.29 828.5,-662.29 828.5,-644.29 763.5,-644.29"/>
<text text-anchor="start" x="818.5" y="-650.49" font-family="Helvetica,sans-Serif" font-size="11.00"> &#160;</text>
</a>
</g>
</g>
<!-- mstr_entity_purchasing_entities&#45;&gt;mstr_entities -->
<g id="edge15" class="edge">
<title>mstr_entity_purchasing_entities:w&#45;&gt;mstr_entities:e</title>
<path fill="none" stroke="black" d="M557.43,-667.22C516.11,-644.44 560.01,-538.8 501,-544.29"/>
<polygon fill="black" stroke="black" points="563.81,-669.07 570.5,-674.75 567.66,-670.18 571.5,-671.29 571.5,-671.29 571.5,-671.29 567.66,-670.18 572.5,-667.83 563.81,-669.07 563.81,-669.07"/>
<ellipse fill="none" stroke="black" cx="560.74" cy="-668.18" rx="3.2" ry="3.2"/>
</g>
<!-- mstr_entity_purchasing_entities&#45;&gt;mstr_entities -->
<g id="edge16" class="edge">
<title>mstr_entity_purchasing_entities:w&#45;&gt;mstr_entities:e</title>
<path fill="none" stroke="black" d="M556.9,-670.11C516.48,-656.44 559.76,-550.66 501,-544.29"/>
<polygon fill="black" stroke="black" points="563.53,-670.65 571.21,-674.88 567.51,-670.97 571.5,-671.29 571.5,-671.29 571.5,-671.29 567.51,-670.97 571.79,-667.7 563.53,-670.65 563.53,-670.65"/>
<ellipse fill="none" stroke="black" cx="560.34" cy="-670.39" rx="3.2" ry="3.2"/>
</g>
<!-- mstr_entity_selling_entities -->
<g id="node11" class="node">
<title>mstr_entity_selling_entities</title>
<g id="a_node11"><a xlink:href="../../tables/mstr_entity_selling_entities.html" xlink:title="mstr_entity_selling_entities" target="_top">
<polygon fill="#ffffff" stroke="transparent" points="549,-359.29 549,-623.29 852,-623.29 852,-359.29 549,-359.29"/>
<polygon fill="#f5f5f5" stroke="transparent" points="551.5,-599.29 551.5,-621.29 850.5,-621.29 850.5,-599.29 551.5,-599.29"/>
<polygon fill="none" stroke="black" points="551.5,-599.29 551.5,-621.29 850.5,-621.29 850.5,-599.29 551.5,-599.29"/>
<text text-anchor="start" x="556.5" y="-608.49" font-family="Helvetica,sans-Serif" font-weight="bold" font-size="11.00">mstr_entity_selling_entities</text>
<text text-anchor="start" x="815.5" y="-607.49" font-family="Helvetica,sans-Serif" font-size="11.00">[table]</text>
<polygon fill="none" stroke="black" points="551.5,-577.29 551.5,-599.29 757.5,-599.29 757.5,-577.29 551.5,-577.29"/>
<image xlink:href="../../images/primaryKeys.png" width="11px" height="12px" preserveAspectRatio="xMinYMin meet" x="556.5" y="-594.288"/>
<text text-anchor="start" x="571.5" y="-585.49" font-family="Helvetica,sans-Serif" font-size="11.00">id</text>
<polygon fill="none" stroke="black" points="757.5,-577.29 757.5,-599.29 850.5,-599.29 850.5,-577.29 757.5,-577.29"/>
<text text-anchor="start" x="760.5" y="-585.49" font-family="Helvetica,sans-Serif" font-size="11.00">uuid[2147483647]</text>
<polygon fill="#ffffff" stroke="transparent" points="551.5,-555.29 551.5,-577.29 757.5,-577.29 757.5,-555.29 551.5,-555.29"/>
<polygon fill="none" stroke="black" points="551.5,-555.29 551.5,-577.29 757.5,-577.29 757.5,-555.29 551.5,-555.29"/>
<image xlink:href="../../images/foreignKeys.png" width="11px" height="12px" preserveAspectRatio="xMinYMin meet" x="556.5" y="-572.288"/>
<text text-anchor="start" x="571.5" y="-563.49" font-family="Helvetica,sans-Serif" font-size="11.00">entity_id</text>
<polygon fill="none" stroke="black" points="757.5,-555.29 757.5,-577.29 850.5,-577.29 850.5,-555.29 757.5,-555.29"/>
<text text-anchor="start" x="760.5" y="-563.49" font-family="Helvetica,sans-Serif" font-size="11.00">uuid[2147483647]</text>
<polygon fill="#ffffff" stroke="transparent" points="551.5,-533.29 551.5,-555.29 757.5,-555.29 757.5,-533.29 551.5,-533.29"/>
<polygon fill="none" stroke="black" points="551.5,-533.29 551.5,-555.29 757.5,-555.29 757.5,-533.29 551.5,-533.29"/>
<image xlink:href="../../images/foreignKeys.png" width="11px" height="12px" preserveAspectRatio="xMinYMin meet" x="556.5" y="-550.288"/>
<text text-anchor="start" x="571.5" y="-541.49" font-family="Helvetica,sans-Serif" font-size="11.00">owning_entity_id</text>
<polygon fill="none" stroke="black" points="757.5,-533.29 757.5,-555.29 850.5,-555.29 850.5,-533.29 757.5,-533.29"/>
<text text-anchor="start" x="760.5" y="-541.49" font-family="Helvetica,sans-Serif" font-size="11.00">uuid[2147483647]</text>
<polygon fill="none" stroke="black" points="551.5,-511.29 551.5,-533.29 757.5,-533.29 757.5,-511.29 551.5,-511.29"/>
<text text-anchor="start" x="571.5" y="-519.49" font-family="Helvetica,sans-Serif" font-size="11.00">diag_timestamp_created</text>
<polygon fill="none" stroke="black" points="757.5,-511.29 757.5,-533.29 850.5,-533.29 850.5,-511.29 757.5,-511.29"/>
<text text-anchor="start" x="760.5" y="-519.49" font-family="Helvetica,sans-Serif" font-size="11.00">timestamptz[35,6]</text>
<polygon fill="none" stroke="black" points="551.5,-489.29 551.5,-511.29 757.5,-511.29 757.5,-489.29 551.5,-489.29"/>
<text text-anchor="start" x="571.5" y="-497.49" font-family="Helvetica,sans-Serif" font-size="11.00">diag_role_created</text>
<polygon fill="none" stroke="black" points="757.5,-489.29 757.5,-511.29 850.5,-511.29 850.5,-489.29 757.5,-489.29"/>
<text text-anchor="start" x="760.5" y="-497.49" font-family="Helvetica,sans-Serif" font-size="11.00">text[2147483647]</text>
<polygon fill="none" stroke="black" points="551.5,-467.29 551.5,-489.29 757.5,-489.29 757.5,-467.29 551.5,-467.29"/>
<text text-anchor="start" x="571.5" y="-475.49" font-family="Helvetica,sans-Serif" font-size="11.00">diag_timestamp_modified</text>
<polygon fill="none" stroke="black" points="757.5,-467.29 757.5,-489.29 850.5,-489.29 850.5,-467.29 757.5,-467.29"/>
<text text-anchor="start" x="760.5" y="-475.49" font-family="Helvetica,sans-Serif" font-size="11.00">timestamptz[35,6]</text>
<polygon fill="none" stroke="black" points="551.5,-445.29 551.5,-467.29 757.5,-467.29 757.5,-445.29 551.5,-445.29"/>
<text text-anchor="start" x="571.5" y="-453.49" font-family="Helvetica,sans-Serif" font-size="11.00">diag_wallclock_modified</text>
<polygon fill="none" stroke="black" points="757.5,-445.29 757.5,-467.29 850.5,-467.29 850.5,-445.29 757.5,-445.29"/>
<text text-anchor="start" x="760.5" y="-453.49" font-family="Helvetica,sans-Serif" font-size="11.00">timestamptz[35,6]</text>
<polygon fill="none" stroke="black" points="551.5,-423.29 551.5,-445.29 757.5,-445.29 757.5,-423.29 551.5,-423.29"/>
<text text-anchor="start" x="571.5" y="-431.49" font-family="Helvetica,sans-Serif" font-size="11.00">diag_role_modified</text>
<polygon fill="none" stroke="black" points="757.5,-423.29 757.5,-445.29 850.5,-445.29 850.5,-423.29 757.5,-423.29"/>
<text text-anchor="start" x="760.5" y="-431.49" font-family="Helvetica,sans-Serif" font-size="11.00">text[2147483647]</text>
<polygon fill="none" stroke="black" points="551.5,-401.29 551.5,-423.29 757.5,-423.29 757.5,-401.29 551.5,-401.29"/>
<text text-anchor="start" x="571.5" y="-409.49" font-family="Helvetica,sans-Serif" font-size="11.00">diag_row_version</text>
<polygon fill="none" stroke="black" points="757.5,-401.29 757.5,-423.29 850.5,-423.29 850.5,-401.29 757.5,-401.29"/>
<text text-anchor="start" x="760.5" y="-409.49" font-family="Helvetica,sans-Serif" font-size="11.00">int8[19]</text>
<polygon fill="none" stroke="black" points="551.5,-379.29 551.5,-401.29 757.5,-401.29 757.5,-379.29 551.5,-379.29"/>
<text text-anchor="start" x="571.5" y="-387.49" font-family="Helvetica,sans-Serif" font-size="11.00">diag_update_count</text>
<polygon fill="none" stroke="black" points="757.5,-379.29 757.5,-401.29 850.5,-401.29 850.5,-379.29 757.5,-379.29"/>
<text text-anchor="start" x="760.5" y="-387.49" font-family="Helvetica,sans-Serif" font-size="11.00">int8[19]</text>
<polygon fill="#ffffff" stroke="transparent" points="551.5,-361.29 551.5,-379.29 658.5,-379.29 658.5,-361.29 551.5,-361.29"/>
<polygon fill="none" stroke="black" points="551.5,-361.29 551.5,-379.29 658.5,-379.29 658.5,-361.29 551.5,-361.29"/>
<text text-anchor="start" x="554.5" y="-367.49" font-family="Helvetica,sans-Serif" font-size="11.00">&lt; 2</text>
<polygon fill="#ffffff" stroke="transparent" points="658.5,-361.29 658.5,-379.29 757.5,-379.29 757.5,-361.29 658.5,-361.29"/>
<polygon fill="none" stroke="black" points="658.5,-361.29 658.5,-379.29 757.5,-379.29 757.5,-361.29 658.5,-361.29"/>
<text text-anchor="start" x="747.5" y="-367.49" font-family="Helvetica,sans-Serif" font-size="11.00"> &#160;</text>
<polygon fill="#ffffff" stroke="transparent" points="757.5,-361.29 757.5,-379.29 850.5,-379.29 850.5,-361.29 757.5,-361.29"/>
<polygon fill="none" stroke="black" points="757.5,-361.29 757.5,-379.29 850.5,-379.29 850.5,-361.29 757.5,-361.29"/>
<text text-anchor="start" x="831.5" y="-367.49" font-family="Helvetica,sans-Serif" font-size="11.00">0 &gt;</text>
<polygon fill="none" stroke="black" stroke-width="2" points="550,-360.29 550,-622.29 851,-622.29 851,-360.29 550,-360.29"/>
</a>
</g>
</g>
<!-- mstr_entity_selling_entities&#45;&gt;mstr_entities -->
<g id="edge17" class="edge">
<title>mstr_entity_selling_entities:w&#45;&gt;mstr_entities:e</title>
<path fill="none" stroke="black" d="M536.36,-563.04C524.44,-556.92 519.24,-544.29 501,-544.29"/>
<polygon fill="black" stroke="black" points="542.7,-564.5 549.69,-569.8 546.6,-565.39 550.5,-566.29 550.5,-566.29 550.5,-566.29 546.6,-565.39 551.31,-562.78 542.7,-564.5 542.7,-564.5"/>
<ellipse fill="none" stroke="black" cx="539.58" cy="-563.78" rx="3.2" ry="3.2"/>
</g>
<!-- mstr_entity_selling_entities&#45;&gt;mstr_entities -->
<g id="edge18" class="edge">
<title>mstr_entity_selling_entities:w&#45;&gt;mstr_entities:e</title>
<path fill="none" stroke="black" d="M535.84,-544.29C524.41,-544.29 517.16,-544.29 501,-544.29"/>
<polygon fill="black" stroke="black" points="542.5,-544.29 550.5,-547.89 546.5,-544.29 550.5,-544.29 550.5,-544.29 550.5,-544.29 546.5,-544.29 550.5,-540.69 542.5,-544.29 542.5,-544.29"/>
<ellipse fill="none" stroke="black" cx="539.3" cy="-544.29" rx="3.2" ry="3.2"/>
</g>
<!-- mstr_entity_staff_entities -->
<g id="node12" class="node">
<title>mstr_entity_staff_entities</title>
<g id="a_node12"><a xlink:href="../../tables/mstr_entity_staff_entities.html" xlink:title="mstr_entity_staff_entities" target="_top">
<polygon fill="#ffffff" stroke="transparent" points="594.5,-226.29 594.5,-284.29 806.5,-284.29 806.5,-226.29 594.5,-226.29"/>
<polygon fill="#f5f5f5" stroke="transparent" points="594.5,-262.29 594.5,-284.29 806.5,-284.29 806.5,-262.29 594.5,-262.29"/>
<polygon fill="none" stroke="black" points="594.5,-262.29 594.5,-284.29 806.5,-284.29 806.5,-262.29 594.5,-262.29"/>
<text text-anchor="start" x="599.5" y="-271.49" font-family="Helvetica,sans-Serif" font-weight="bold" font-size="11.00">mstr_entity_staff_entities</text>
<text text-anchor="start" x="771.5" y="-270.49" font-family="Helvetica,sans-Serif" font-size="11.00">[table]</text>
<polygon fill="none" stroke="black" points="594.5,-244.29 594.5,-262.29 806.5,-262.29 806.5,-244.29 594.5,-244.29"/>
<text text-anchor="start" x="597.5" y="-250.49" font-family="Helvetica,sans-Serif" font-size="11.00">...</text>
<polygon fill="#ffffff" stroke="transparent" points="594.5,-226.29 594.5,-244.29 698.5,-244.29 698.5,-226.29 594.5,-226.29"/>
<polygon fill="none" stroke="black" points="594.5,-226.29 594.5,-244.29 698.5,-244.29 698.5,-226.29 594.5,-226.29"/>
<text text-anchor="start" x="597.5" y="-232.49" font-family="Helvetica,sans-Serif" font-size="11.00">&lt; 2</text>
<polygon fill="#ffffff" stroke="transparent" points="698.5,-226.29 698.5,-244.29 752.5,-244.29 752.5,-226.29 698.5,-226.29"/>
<polygon fill="none" stroke="black" points="698.5,-226.29 698.5,-244.29 752.5,-244.29 752.5,-226.29 698.5,-226.29"/>
<text text-anchor="start" x="742.5" y="-232.49" font-family="Helvetica,sans-Serif" font-size="11.00"> &#160;</text>
<polygon fill="#ffffff" stroke="transparent" points="752.5,-226.29 752.5,-244.29 806.5,-244.29 806.5,-226.29 752.5,-226.29"/>
<polygon fill="none" stroke="black" points="752.5,-226.29 752.5,-244.29 806.5,-244.29 806.5,-226.29 752.5,-226.29"/>
<text text-anchor="start" x="796.5" y="-232.49" font-family="Helvetica,sans-Serif" font-size="11.00"> &#160;</text>
</a>
</g>
</g>
<!-- mstr_entity_staff_entities&#45;&gt;mstr_entities -->
<g id="edge19" class="edge">
<title>mstr_entity_staff_entities:w&#45;&gt;mstr_entities:e</title>
<path fill="none" stroke="black" d="M579.07,-252.31C560.08,-254.11 553.34,-270.31 541,-292.29 513.88,-340.58 556.38,-538.29 501,-544.29"/>
<polygon fill="black" stroke="black" points="585.52,-252.75 593.26,-256.88 589.51,-253.02 593.5,-253.29 593.5,-253.29 593.5,-253.29 589.51,-253.02 593.74,-249.7 585.52,-252.75 585.52,-252.75"/>
<ellipse fill="none" stroke="black" cx="582.33" cy="-252.53" rx="3.2" ry="3.2"/>
</g>
<!-- mstr_entity_staff_entities&#45;&gt;mstr_entities -->
<g id="edge20" class="edge">
<title>mstr_entity_staff_entities:w&#45;&gt;mstr_entities:e</title>
<path fill="none" stroke="black" d="M579.62,-257.88C560.21,-266.8 553.46,-283.1 541,-305.29 513.88,-353.58 556.38,-551.29 501,-544.29"/>
<polygon fill="black" stroke="black" points="585.9,-255.8 594.63,-256.71 589.7,-254.54 593.5,-253.29 593.5,-253.29 593.5,-253.29 589.7,-254.54 592.37,-249.87 585.9,-255.8 585.9,-255.8"/>
<ellipse fill="none" stroke="black" cx="582.87" cy="-256.8" rx="3.2" ry="3.2"/>
</g>
</g>
</svg>
