<?xml version="1.0" encoding="UTF-8" standalone="no"?>
<!DOCTYPE svg PUBLIC "-//W3C//DTD SVG 1.1//EN"
 "http://www.w3.org/Graphics/SVG/1.1/DTD/svg11.dtd">
<!-- Generated by graphviz version 2.43.0 (0)
 -->
<!-- Title: oneDegreeRelationshipsDiagram Pages: 1 -->
<svg width="1099pt" height="385pt"
 viewBox="0.00 0.00 1099.00 384.86" xmlns="http://www.w3.org/2000/svg" xmlns:xlink="http://www.w3.org/1999/xlink">
<g id="graph0" class="graph" transform="scale(1 1) rotate(0) translate(4 380.86)">
<title>oneDegreeRelationshipsDiagram</title>
<polygon fill="#ffffff" stroke="transparent" points="-4,4 -4,-380.86 1095,-380.86 1095,4 -4,4"/>
<text text-anchor="middle" x="71.5" y="-7.2" font-family="Helvetica,sans-Serif" font-size="11.00">Generated by SchemaSpy</text>
<!-- mstr_entities -->
<g id="node1" class="node">
<title>mstr_entities</title>
<g id="a_node1"><a xlink:href="../../tables/mstr_entities.html" xlink:title="mstr_entities" target="_top">
<polygon fill="#ffffff" stroke="transparent" points="306,-182.86 306,-372.86 500,-372.86 500,-182.86 306,-182.86"/>
<polygon fill="#f5f5f5" stroke="transparent" points="306,-350.86 306,-372.86 500,-372.86 500,-350.86 306,-350.86"/>
<polygon fill="none" stroke="black" points="306,-350.86 306,-372.86 500,-372.86 500,-350.86 306,-350.86"/>
<text text-anchor="start" x="311" y="-360.06" font-family="Helvetica,sans-Serif" font-weight="bold" font-size="11.00">mstr_entities</text>
<text text-anchor="start" x="465" y="-359.06" font-family="Helvetica,sans-Serif" font-size="11.00">[table]</text>
<polygon fill="none" stroke="black" points="306,-328.86 306,-350.86 500,-350.86 500,-328.86 306,-328.86"/>
<image xlink:href="../../images/primaryKeys.png" width="11px" height="12px" preserveAspectRatio="xMinYMin meet" x="311" y="-345.861"/>
<text text-anchor="start" x="326" y="-337.06" font-family="Helvetica,sans-Serif" font-size="11.00">id</text>
<polygon fill="none" stroke="black" points="306,-306.86 306,-328.86 500,-328.86 500,-306.86 306,-306.86"/>
<image xlink:href="../../images/foreignKeys.png" width="11px" height="12px" preserveAspectRatio="xMinYMin meet" x="311" y="-323.861"/>
<text text-anchor="start" x="326" y="-315.06" font-family="Helvetica,sans-Serif" font-size="11.00">owning_entity_id</text>
<polygon fill="#ffffff" stroke="transparent" points="306,-284.86 306,-306.86 500,-306.86 500,-284.86 306,-284.86"/>
<polygon fill="none" stroke="black" points="306,-284.86 306,-306.86 500,-306.86 500,-284.86 306,-284.86"/>
<text text-anchor="start" x="326" y="-293.06" font-family="Helvetica,sans-Serif" font-size="11.00">internal_name</text>
<polygon fill="#ffffff" stroke="transparent" points="306,-262.86 306,-284.86 500,-284.86 500,-262.86 306,-262.86"/>
<polygon fill="none" stroke="black" points="306,-262.86 306,-284.86 500,-284.86 500,-262.86 306,-262.86"/>
<text text-anchor="start" x="326" y="-271.06" font-family="Helvetica,sans-Serif" font-size="11.00">display_name</text>
<polygon fill="none" stroke="black" points="306,-240.86 306,-262.86 500,-262.86 500,-240.86 306,-240.86"/>
<image xlink:href="../../images/foreignKeys.png" width="11px" height="12px" preserveAspectRatio="xMinYMin meet" x="311" y="-257.861"/>
<text text-anchor="start" x="326" y="-249.06" font-family="Helvetica,sans-Serif" font-size="11.00">entity_type_id</text>
<polygon fill="none" stroke="black" points="306,-218.86 306,-240.86 500,-240.86 500,-218.86 306,-218.86"/>
<image xlink:href="../../images/foreignKeys.png" width="11px" height="12px" preserveAspectRatio="xMinYMin meet" x="311" y="-235.861"/>
<text text-anchor="start" x="326" y="-227.06" font-family="Helvetica,sans-Serif" font-size="11.00">entity_state_id</text>
<polygon fill="none" stroke="black" points="306,-200.86 306,-218.86 500,-218.86 500,-200.86 306,-200.86"/>
<text text-anchor="start" x="309" y="-207.06" font-family="Helvetica,sans-Serif" font-size="11.00">...</text>
<polygon fill="#ffffff" stroke="transparent" points="306,-182.86 306,-200.86 393,-200.86 393,-182.86 306,-182.86"/>
<polygon fill="none" stroke="black" points="306,-182.86 306,-200.86 393,-200.86 393,-182.86 306,-182.86"/>
<text text-anchor="start" x="309" y="-189.06" font-family="Helvetica,sans-Serif" font-size="11.00">&lt; 3</text>
<polygon fill="#ffffff" stroke="transparent" points="393,-182.86 393,-200.86 439,-200.86 439,-182.86 393,-182.86"/>
<polygon fill="none" stroke="black" points="393,-182.86 393,-200.86 439,-200.86 439,-182.86 393,-182.86"/>
<text text-anchor="start" x="429" y="-189.06" font-family="Helvetica,sans-Serif" font-size="11.00"> &#160;</text>
<polygon fill="#ffffff" stroke="transparent" points="439,-182.86 439,-200.86 500,-200.86 500,-182.86 439,-182.86"/>
<polygon fill="none" stroke="black" points="439,-182.86 439,-200.86 500,-200.86 500,-182.86 439,-182.86"/>
<text text-anchor="start" x="475" y="-189.06" font-family="Helvetica,sans-Serif" font-size="11.00">15 &gt;</text>
</a>
</g>
</g>
<!-- ms_syst_data.syst_enum_items -->
<g id="node2" class="node">
<title>ms_syst_data.syst_enum_items</title>
<g id="a_node2"><a xlink:href="../../../ms_syst_data/tables/syst_enum_items.html" xlink:title="ms_syst_data.syst_enum_items" target="_top">
<polygon fill="#ffffff" stroke="transparent" points="8,-129.86 8,-187.86 257,-187.86 257,-129.86 8,-129.86"/>
<polygon fill="#f5f5f5" stroke="transparent" points="8.5,-165.86 8.5,-187.86 257.5,-187.86 257.5,-165.86 8.5,-165.86"/>
<polygon fill="none" stroke="black" points="8.5,-165.86 8.5,-187.86 257.5,-187.86 257.5,-165.86 8.5,-165.86"/>
<text text-anchor="start" x="13.5" y="-175.06" font-family="Helvetica,sans-Serif" font-weight="bold" font-size="11.00">ms_syst_data.syst_enum_items</text>
<text text-anchor="start" x="222.5" y="-174.06" font-family="Helvetica,sans-Serif" font-size="11.00">[table]</text>
<polygon fill="none" stroke="black" points="8.5,-147.86 8.5,-165.86 257.5,-165.86 257.5,-147.86 8.5,-147.86"/>
<text text-anchor="start" x="11.5" y="-154.06" font-family="Helvetica,sans-Serif" font-size="11.00">...</text>
<polygon fill="#ffffff" stroke="transparent" points="8.5,-129.86 8.5,-147.86 118.5,-147.86 118.5,-129.86 8.5,-129.86"/>
<polygon fill="none" stroke="black" points="8.5,-129.86 8.5,-147.86 118.5,-147.86 118.5,-129.86 8.5,-129.86"/>
<text text-anchor="start" x="11.5" y="-136.06" font-family="Helvetica,sans-Serif" font-size="11.00"> &#160;</text>
<polygon fill="#ffffff" stroke="transparent" points="118.5,-129.86 118.5,-147.86 180.5,-147.86 180.5,-129.86 118.5,-129.86"/>
<polygon fill="none" stroke="black" points="118.5,-129.86 118.5,-147.86 180.5,-147.86 180.5,-129.86 118.5,-129.86"/>
<text text-anchor="start" x="170.5" y="-136.06" font-family="Helvetica,sans-Serif" font-size="11.00"> &#160;</text>
<polygon fill="#ffffff" stroke="transparent" points="180.5,-129.86 180.5,-147.86 257.5,-147.86 257.5,-129.86 180.5,-129.86"/>
<polygon fill="none" stroke="black" points="180.5,-129.86 180.5,-147.86 257.5,-147.86 257.5,-129.86 180.5,-129.86"/>
<text text-anchor="start" x="232.5" y="-136.06" font-family="Helvetica,sans-Serif" font-size="11.00">10 &gt;</text>
</a>
</g>
</g>
<!-- mstr_entities&#45;&gt;ms_syst_data.syst_enum_items -->
<g id="edge1" class="edge">
<title>mstr_entities:w&#45;&gt;ms_syst_data.syst_enum_items:e</title>
<path fill="none" stroke="black" d="M290.53,-229.17C251.95,-225.54 213.17,-208.34 183.8,-191.87"/>
<polygon fill="black" stroke="black" points="297.01,-229.48 304.83,-233.46 301,-229.67 305,-229.86 305,-229.86 305,-229.86 301,-229.67 305.17,-226.26 297.01,-229.48 297.01,-229.48"/>
<ellipse fill="none" stroke="black" cx="293.81" cy="-229.32" rx="3.2" ry="3.2"/>
</g>
<!-- mstr_entities&#45;&gt;ms_syst_data.syst_enum_items -->
<g id="edge2" class="edge">
<title>mstr_entities:w&#45;&gt;ms_syst_data.syst_enum_items:e</title>
<path fill="none" stroke="black" d="M290.46,-251.02C243.75,-245.69 198.97,-216.14 169.28,-191.91"/>
<polygon fill="black" stroke="black" points="297.01,-251.4 304.79,-255.45 301.01,-251.63 305,-251.86 305,-251.86 305,-251.86 301.01,-251.63 305.21,-248.27 297.01,-251.4 297.01,-251.4"/>
<ellipse fill="none" stroke="black" cx="293.82" cy="-251.21" rx="3.2" ry="3.2"/>
</g>
<!-- mstr_entity_person_roles -->
<g id="node3" class="node">
<title>mstr_entity_person_roles</title>
<g id="a_node3"><a xlink:href="../../tables/mstr_entity_person_roles.html" xlink:title="mstr_entity_person_roles" target="_top">
<polygon fill="#ffffff" stroke="transparent" points="792,-53.86 792,-339.86 1083,-339.86 1083,-53.86 792,-53.86"/>
<polygon fill="#f5f5f5" stroke="transparent" points="794.5,-315.86 794.5,-337.86 1081.5,-337.86 1081.5,-315.86 794.5,-315.86"/>
<polygon fill="none" stroke="black" points="794.5,-315.86 794.5,-337.86 1081.5,-337.86 1081.5,-315.86 794.5,-315.86"/>
<text text-anchor="start" x="799.5" y="-325.06" font-family="Helvetica,sans-Serif" font-weight="bold" font-size="11.00">mstr_entity_person_roles</text>
<text text-anchor="start" x="1046.5" y="-324.06" font-family="Helvetica,sans-Serif" font-size="11.00">[table]</text>
<polygon fill="none" stroke="black" points="794.5,-293.86 794.5,-315.86 988.5,-315.86 988.5,-293.86 794.5,-293.86"/>
<image xlink:href="../../images/primaryKeys.png" width="11px" height="12px" preserveAspectRatio="xMinYMin meet" x="799.5" y="-310.861"/>
<text text-anchor="start" x="814.5" y="-302.06" font-family="Helvetica,sans-Serif" font-size="11.00">id</text>
<polygon fill="none" stroke="black" points="988.5,-293.86 988.5,-315.86 1081.5,-315.86 1081.5,-293.86 988.5,-293.86"/>
<text text-anchor="start" x="991.5" y="-302.06" font-family="Helvetica,sans-Serif" font-size="11.00">uuid[2147483647]</text>
<polygon fill="#ffffff" stroke="transparent" points="794.5,-271.86 794.5,-293.86 988.5,-293.86 988.5,-271.86 794.5,-271.86"/>
<polygon fill="none" stroke="black" points="794.5,-271.86 794.5,-293.86 988.5,-293.86 988.5,-271.86 794.5,-271.86"/>
<image xlink:href="../../images/foreignKeys.png" width="11px" height="12px" preserveAspectRatio="xMinYMin meet" x="799.5" y="-288.861"/>
<text text-anchor="start" x="814.5" y="-280.06" font-family="Helvetica,sans-Serif" font-size="11.00">person_id</text>
<polygon fill="none" stroke="black" points="988.5,-271.86 988.5,-293.86 1081.5,-293.86 1081.5,-271.86 988.5,-271.86"/>
<text text-anchor="start" x="991.5" y="-280.06" font-family="Helvetica,sans-Serif" font-size="11.00">uuid[2147483647]</text>
<polygon fill="#ffffff" stroke="transparent" points="794.5,-249.86 794.5,-271.86 988.5,-271.86 988.5,-249.86 794.5,-249.86"/>
<polygon fill="none" stroke="black" points="794.5,-249.86 794.5,-271.86 988.5,-271.86 988.5,-249.86 794.5,-249.86"/>
<image xlink:href="../../images/foreignKeys.png" width="11px" height="12px" preserveAspectRatio="xMinYMin meet" x="799.5" y="-266.861"/>
<text text-anchor="start" x="814.5" y="-258.06" font-family="Helvetica,sans-Serif" font-size="11.00">entity_id</text>
<polygon fill="none" stroke="black" points="988.5,-249.86 988.5,-271.86 1081.5,-271.86 1081.5,-249.86 988.5,-249.86"/>
<text text-anchor="start" x="991.5" y="-258.06" font-family="Helvetica,sans-Serif" font-size="11.00">uuid[2147483647]</text>
<polygon fill="#ffffff" stroke="transparent" points="794.5,-227.86 794.5,-249.86 988.5,-249.86 988.5,-227.86 794.5,-227.86"/>
<polygon fill="none" stroke="black" points="794.5,-227.86 794.5,-249.86 988.5,-249.86 988.5,-227.86 794.5,-227.86"/>
<image xlink:href="../../images/foreignKeys.png" width="11px" height="12px" preserveAspectRatio="xMinYMin meet" x="799.5" y="-244.861"/>
<text text-anchor="start" x="814.5" y="-236.06" font-family="Helvetica,sans-Serif" font-size="11.00">entity_person_role_id</text>
<polygon fill="none" stroke="black" points="988.5,-227.86 988.5,-249.86 1081.5,-249.86 1081.5,-227.86 988.5,-227.86"/>
<text text-anchor="start" x="991.5" y="-236.06" font-family="Helvetica,sans-Serif" font-size="11.00">uuid[2147483647]</text>
<polygon fill="none" stroke="black" points="794.5,-205.86 794.5,-227.86 988.5,-227.86 988.5,-205.86 794.5,-205.86"/>
<text text-anchor="start" x="814.5" y="-214.06" font-family="Helvetica,sans-Serif" font-size="11.00">diag_timestamp_created</text>
<polygon fill="none" stroke="black" points="988.5,-205.86 988.5,-227.86 1081.5,-227.86 1081.5,-205.86 988.5,-205.86"/>
<text text-anchor="start" x="991.5" y="-214.06" font-family="Helvetica,sans-Serif" font-size="11.00">timestamptz[35,6]</text>
<polygon fill="none" stroke="black" points="794.5,-183.86 794.5,-205.86 988.5,-205.86 988.5,-183.86 794.5,-183.86"/>
<text text-anchor="start" x="814.5" y="-192.06" font-family="Helvetica,sans-Serif" font-size="11.00">diag_role_created</text>
<polygon fill="none" stroke="black" points="988.5,-183.86 988.5,-205.86 1081.5,-205.86 1081.5,-183.86 988.5,-183.86"/>
<text text-anchor="start" x="991.5" y="-192.06" font-family="Helvetica,sans-Serif" font-size="11.00">text[2147483647]</text>
<polygon fill="none" stroke="black" points="794.5,-161.86 794.5,-183.86 988.5,-183.86 988.5,-161.86 794.5,-161.86"/>
<text text-anchor="start" x="814.5" y="-170.06" font-family="Helvetica,sans-Serif" font-size="11.00">diag_timestamp_modified</text>
<polygon fill="none" stroke="black" points="988.5,-161.86 988.5,-183.86 1081.5,-183.86 1081.5,-161.86 988.5,-161.86"/>
<text text-anchor="start" x="991.5" y="-170.06" font-family="Helvetica,sans-Serif" font-size="11.00">timestamptz[35,6]</text>
<polygon fill="none" stroke="black" points="794.5,-139.86 794.5,-161.86 988.5,-161.86 988.5,-139.86 794.5,-139.86"/>
<text text-anchor="start" x="814.5" y="-148.06" font-family="Helvetica,sans-Serif" font-size="11.00">diag_wallclock_modified</text>
<polygon fill="none" stroke="black" points="988.5,-139.86 988.5,-161.86 1081.5,-161.86 1081.5,-139.86 988.5,-139.86"/>
<text text-anchor="start" x="991.5" y="-148.06" font-family="Helvetica,sans-Serif" font-size="11.00">timestamptz[35,6]</text>
<polygon fill="none" stroke="black" points="794.5,-117.86 794.5,-139.86 988.5,-139.86 988.5,-117.86 794.5,-117.86"/>
<text text-anchor="start" x="814.5" y="-126.06" font-family="Helvetica,sans-Serif" font-size="11.00">diag_role_modified</text>
<polygon fill="none" stroke="black" points="988.5,-117.86 988.5,-139.86 1081.5,-139.86 1081.5,-117.86 988.5,-117.86"/>
<text text-anchor="start" x="991.5" y="-126.06" font-family="Helvetica,sans-Serif" font-size="11.00">text[2147483647]</text>
<polygon fill="none" stroke="black" points="794.5,-95.86 794.5,-117.86 988.5,-117.86 988.5,-95.86 794.5,-95.86"/>
<text text-anchor="start" x="814.5" y="-104.06" font-family="Helvetica,sans-Serif" font-size="11.00">diag_row_version</text>
<polygon fill="none" stroke="black" points="988.5,-95.86 988.5,-117.86 1081.5,-117.86 1081.5,-95.86 988.5,-95.86"/>
<text text-anchor="start" x="991.5" y="-104.06" font-family="Helvetica,sans-Serif" font-size="11.00">int8[19]</text>
<polygon fill="none" stroke="black" points="794.5,-73.86 794.5,-95.86 988.5,-95.86 988.5,-73.86 794.5,-73.86"/>
<text text-anchor="start" x="814.5" y="-82.06" font-family="Helvetica,sans-Serif" font-size="11.00">diag_update_count</text>
<polygon fill="none" stroke="black" points="988.5,-73.86 988.5,-95.86 1081.5,-95.86 1081.5,-73.86 988.5,-73.86"/>
<text text-anchor="start" x="991.5" y="-82.06" font-family="Helvetica,sans-Serif" font-size="11.00">int8[19]</text>
<polygon fill="#ffffff" stroke="transparent" points="794.5,-55.86 794.5,-73.86 895.5,-73.86 895.5,-55.86 794.5,-55.86"/>
<polygon fill="none" stroke="black" points="794.5,-55.86 794.5,-73.86 895.5,-73.86 895.5,-55.86 794.5,-55.86"/>
<text text-anchor="start" x="797.5" y="-62.06" font-family="Helvetica,sans-Serif" font-size="11.00">&lt; 3</text>
<polygon fill="#ffffff" stroke="transparent" points="895.5,-55.86 895.5,-73.86 988.5,-73.86 988.5,-55.86 895.5,-55.86"/>
<polygon fill="none" stroke="black" points="895.5,-55.86 895.5,-73.86 988.5,-73.86 988.5,-55.86 895.5,-55.86"/>
<text text-anchor="start" x="978.5" y="-62.06" font-family="Helvetica,sans-Serif" font-size="11.00"> &#160;</text>
<polygon fill="#ffffff" stroke="transparent" points="988.5,-55.86 988.5,-73.86 1081.5,-73.86 1081.5,-55.86 988.5,-55.86"/>
<polygon fill="none" stroke="black" points="988.5,-55.86 988.5,-73.86 1081.5,-73.86 1081.5,-55.86 988.5,-55.86"/>
<text text-anchor="start" x="1062.5" y="-62.06" font-family="Helvetica,sans-Serif" font-size="11.00">0 &gt;</text>
<polygon fill="none" stroke="black" stroke-width="2" points="793,-54.86 793,-338.86 1082,-338.86 1082,-54.86 793,-54.86"/>
</a>
</g>
</g>
<!-- mstr_entity_person_roles&#45;&gt;mstr_entities -->
<g id="edge3" class="edge">
<title>mstr_entity_person_roles:w&#45;&gt;mstr_entities:e</title>
<path fill="none" stroke="black" d="M779.62,-265.1C765.02,-277.29 775.76,-312.51 751,-326.86 654.74,-382.66 612.26,-339.86 501,-339.86"/>
<polygon fill="black" stroke="black" points="785.85,-263.2 794.55,-264.3 789.67,-262.03 793.5,-260.86 793.5,-260.86 793.5,-260.86 789.67,-262.03 792.45,-257.42 785.85,-263.2 785.85,-263.2"/>
<ellipse fill="none" stroke="black" cx="782.79" cy="-264.13" rx="3.2" ry="3.2"/>
</g>
<!-- mstr_entity_person_roles&#45;&gt;ms_syst_data.syst_enum_items -->
<g id="edge4" class="edge">
<title>mstr_entity_person_roles:w&#45;&gt;ms_syst_data.syst_enum_items:e</title>
<path fill="none" stroke="black" d="M779.15,-236.63C738.54,-221.22 800.41,-129.94 751,-92.86 585,31.71 319.49,-68.38 197.99,-125.7"/>
<polygon fill="black" stroke="black" points="785.59,-237.63 792.95,-242.42 789.55,-238.25 793.5,-238.86 793.5,-238.86 793.5,-238.86 789.55,-238.25 794.05,-235.3 785.59,-237.63 785.59,-237.63"/>
<ellipse fill="none" stroke="black" cx="782.43" cy="-237.14" rx="3.2" ry="3.2"/>
</g>
<!-- mstr_persons -->
<g id="node4" class="node">
<title>mstr_persons</title>
<g id="a_node4"><a xlink:href="../../tables/mstr_persons.html" xlink:title="mstr_persons" target="_top">
<polygon fill="#ffffff" stroke="transparent" points="549,-103.86 549,-315.86 743,-315.86 743,-103.86 549,-103.86"/>
<polygon fill="#f5f5f5" stroke="transparent" points="549,-293.86 549,-315.86 743,-315.86 743,-293.86 549,-293.86"/>
<polygon fill="none" stroke="black" points="549,-293.86 549,-315.86 743,-315.86 743,-293.86 549,-293.86"/>
<text text-anchor="start" x="554" y="-303.06" font-family="Helvetica,sans-Serif" font-weight="bold" font-size="11.00">mstr_persons</text>
<text text-anchor="start" x="708" y="-302.06" font-family="Helvetica,sans-Serif" font-size="11.00">[table]</text>
<polygon fill="none" stroke="black" points="549,-271.86 549,-293.86 743,-293.86 743,-271.86 549,-271.86"/>
<image xlink:href="../../images/primaryKeys.png" width="11px" height="12px" preserveAspectRatio="xMinYMin meet" x="554" y="-288.861"/>
<text text-anchor="start" x="569" y="-280.06" font-family="Helvetica,sans-Serif" font-size="11.00">id</text>
<polygon fill="#ffffff" stroke="transparent" points="549,-249.86 549,-271.86 743,-271.86 743,-249.86 549,-249.86"/>
<polygon fill="none" stroke="black" points="549,-249.86 549,-271.86 743,-271.86 743,-249.86 549,-249.86"/>
<text text-anchor="start" x="569" y="-258.06" font-family="Helvetica,sans-Serif" font-size="11.00">internal_name</text>
<polygon fill="#ffffff" stroke="transparent" points="549,-227.86 549,-249.86 743,-249.86 743,-227.86 549,-227.86"/>
<polygon fill="none" stroke="black" points="549,-227.86 549,-249.86 743,-249.86 743,-227.86 549,-227.86"/>
<text text-anchor="start" x="569" y="-236.06" font-family="Helvetica,sans-Serif" font-size="11.00">display_name</text>
<polygon fill="none" stroke="black" points="549,-205.86 549,-227.86 743,-227.86 743,-205.86 549,-205.86"/>
<image xlink:href="../../images/foreignKeys.png" width="11px" height="12px" preserveAspectRatio="xMinYMin meet" x="554" y="-222.861"/>
<text text-anchor="start" x="569" y="-214.06" font-family="Helvetica,sans-Serif" font-size="11.00">owning_entity_id</text>
<polygon fill="none" stroke="black" points="549,-183.86 549,-205.86 743,-205.86 743,-183.86 549,-183.86"/>
<image xlink:href="../../images/foreignKeys.png" width="11px" height="12px" preserveAspectRatio="xMinYMin meet" x="554" y="-200.861"/>
<text text-anchor="start" x="569" y="-192.06" font-family="Helvetica,sans-Serif" font-size="11.00">person_type_id</text>
<polygon fill="none" stroke="black" points="549,-161.86 549,-183.86 743,-183.86 743,-161.86 549,-161.86"/>
<image xlink:href="../../images/foreignKeys.png" width="11px" height="12px" preserveAspectRatio="xMinYMin meet" x="554" y="-178.861"/>
<text text-anchor="start" x="569" y="-170.06" font-family="Helvetica,sans-Serif" font-size="11.00">person_state_id</text>
<polygon fill="#ffffff" stroke="transparent" points="549,-139.86 549,-161.86 743,-161.86 743,-139.86 549,-139.86"/>
<polygon fill="none" stroke="black" points="549,-139.86 549,-161.86 743,-161.86 743,-139.86 549,-139.86"/>
<text text-anchor="start" x="569" y="-148.06" font-family="Helvetica,sans-Serif" font-size="11.00">access_account_id</text>
<polygon fill="none" stroke="black" points="549,-121.86 549,-139.86 743,-139.86 743,-121.86 549,-121.86"/>
<text text-anchor="start" x="552" y="-128.06" font-family="Helvetica,sans-Serif" font-size="11.00">...</text>
<polygon fill="#ffffff" stroke="transparent" points="549,-103.86 549,-121.86 639,-121.86 639,-103.86 549,-103.86"/>
<polygon fill="none" stroke="black" points="549,-103.86 549,-121.86 639,-121.86 639,-103.86 549,-103.86"/>
<text text-anchor="start" x="552" y="-110.06" font-family="Helvetica,sans-Serif" font-size="11.00">&lt; 3</text>
<polygon fill="#ffffff" stroke="transparent" points="639,-103.86 639,-121.86 686,-121.86 686,-103.86 639,-103.86"/>
<polygon fill="none" stroke="black" points="639,-103.86 639,-121.86 686,-121.86 686,-103.86 639,-103.86"/>
<text text-anchor="start" x="676" y="-110.06" font-family="Helvetica,sans-Serif" font-size="11.00"> &#160;</text>
<polygon fill="#ffffff" stroke="transparent" points="686,-103.86 686,-121.86 743,-121.86 743,-103.86 686,-103.86"/>
<polygon fill="none" stroke="black" points="686,-103.86 686,-121.86 743,-121.86 743,-103.86 686,-103.86"/>
<text text-anchor="start" x="724" y="-110.06" font-family="Helvetica,sans-Serif" font-size="11.00">2 &gt;</text>
</a>
</g>
</g>
<!-- mstr_entity_person_roles&#45;&gt;mstr_persons -->
<g id="edge5" class="edge">
<title>mstr_entity_person_roles:w&#45;&gt;mstr_persons:e</title>
<path fill="none" stroke="black" d="M778.84,-282.86C767.41,-282.86 760.16,-282.86 744,-282.86"/>
<polygon fill="black" stroke="black" points="785.5,-282.86 793.5,-286.46 789.5,-282.86 793.5,-282.86 793.5,-282.86 793.5,-282.86 789.5,-282.86 793.5,-279.26 785.5,-282.86 785.5,-282.86"/>
<ellipse fill="none" stroke="black" cx="782.3" cy="-282.86" rx="3.2" ry="3.2"/>
</g>
<!-- mstr_persons&#45;&gt;mstr_entities -->
<g id="edge6" class="edge">
<title>mstr_persons:w&#45;&gt;mstr_entities:e</title>
<path fill="none" stroke="black" d="M533.88,-220.41C502.38,-240.58 553.58,-339.86 501,-339.86"/>
<polygon fill="black" stroke="black" points="540.24,-218.81 548.88,-220.35 544.12,-217.84 548,-216.86 548,-216.86 548,-216.86 544.12,-217.84 547.12,-213.37 540.24,-218.81 540.24,-218.81"/>
<ellipse fill="none" stroke="black" cx="537.14" cy="-219.59" rx="3.2" ry="3.2"/>
</g>
<!-- mstr_persons&#45;&gt;ms_syst_data.syst_enum_items -->
<g id="edge7" class="edge">
<title>mstr_persons:w&#45;&gt;ms_syst_data.syst_enum_items:e</title>
<path fill="none" stroke="black" d="M534.1,-168.8C525.87,-163.04 522.05,-152.75 508,-148.86 418.05,-123.95 391.29,-146.03 298,-148.86 287.28,-149.19 276.16,-149.63 265.01,-150.15"/>
<polygon fill="black" stroke="black" points="540.32,-170.62 546.99,-176.32 544.16,-171.74 548,-172.86 548,-172.86 548,-172.86 544.16,-171.74 549.01,-169.41 540.32,-170.62 540.32,-170.62"/>
<ellipse fill="none" stroke="black" cx="537.25" cy="-169.72" rx="3.2" ry="3.2"/>
</g>
<!-- mstr_persons&#45;&gt;ms_syst_data.syst_enum_items -->
<g id="edge8" class="edge">
<title>mstr_persons:w&#45;&gt;ms_syst_data.syst_enum_items:e</title>
<path fill="none" stroke="black" d="M533.94,-191.03C525.81,-185.79 521.6,-176.63 508,-172.86 429.46,-151.12 338.13,-147.3 265.32,-149.07"/>
<polygon fill="black" stroke="black" points="540.28,-192.76 547.05,-198.33 544.14,-193.81 548,-194.86 548,-194.86 548,-194.86 544.14,-193.81 548.95,-191.39 540.28,-192.76 540.28,-192.76"/>
<ellipse fill="none" stroke="black" cx="537.19" cy="-191.91" rx="3.2" ry="3.2"/>
</g>
</g>
</svg>
