<?xml version="1.0" encoding="UTF-8" standalone="no"?>
<!DOCTYPE svg PUBLIC "-//W3C//DTD SVG 1.1//EN"
 "http://www.w3.org/Graphics/SVG/1.1/DTD/svg11.dtd">
<!-- Generated by graphviz version 2.43.0 (0)
 -->
<!-- Title: oneDegreeRelationshipsDiagram Pages: 1 -->
<svg width="806pt" height="369pt"
 viewBox="0.00 0.00 806.00 369.00" xmlns="http://www.w3.org/2000/svg" xmlns:xlink="http://www.w3.org/1999/xlink">
<g id="graph0" class="graph" transform="scale(1 1) rotate(0) translate(4 365)">
<title>oneDegreeRelationshipsDiagram</title>
<polygon fill="#ffffff" stroke="transparent" points="-4,4 -4,-365 802,-365 802,4 -4,4"/>
<text text-anchor="middle" x="71.5" y="-7.2" font-family="Helvetica,sans-Serif" font-size="11.00">Generated by SchemaSpy</text>
<!-- mstr_entity_facility_places -->
<g id="node1" class="node">
<title>mstr_entity_facility_places</title>
<g id="a_node1"><a xlink:href="../../tables/mstr_entity_facility_places.html" xlink:title="mstr_entity_facility_places" target="_top">
<polygon fill="#ffffff" stroke="transparent" points="494,-37 494,-301 790,-301 790,-37 494,-37"/>
<polygon fill="#f5f5f5" stroke="transparent" points="496,-277 496,-299 788,-299 788,-277 496,-277"/>
<polygon fill="none" stroke="black" points="496,-277 496,-299 788,-299 788,-277 496,-277"/>
<text text-anchor="start" x="501" y="-286.2" font-family="Helvetica,sans-Serif" font-weight="bold" font-size="11.00">mstr_entity_facility_places</text>
<text text-anchor="start" x="753" y="-285.2" font-family="Helvetica,sans-Serif" font-size="11.00">[table]</text>
<polygon fill="none" stroke="black" points="496,-255 496,-277 695,-277 695,-255 496,-255"/>
<image xlink:href="../../images/primaryKeys.png" width="11px" height="12px" preserveAspectRatio="xMinYMin meet" x="501" y="-272"/>
<text text-anchor="start" x="516" y="-263.2" font-family="Helvetica,sans-Serif" font-size="11.00">id</text>
<polygon fill="none" stroke="black" points="695,-255 695,-277 788,-277 788,-255 695,-255"/>
<text text-anchor="start" x="698" y="-263.2" font-family="Helvetica,sans-Serif" font-size="11.00">uuid[2147483647]</text>
<polygon fill="none" stroke="black" points="496,-233 496,-255 695,-255 695,-233 496,-233"/>
<image xlink:href="../../images/foreignKeys.png" width="11px" height="12px" preserveAspectRatio="xMinYMin meet" x="501" y="-250"/>
<text text-anchor="start" x="516" y="-241.2" font-family="Helvetica,sans-Serif" font-size="11.00">place_id</text>
<polygon fill="none" stroke="black" points="695,-233 695,-255 788,-255 788,-233 695,-233"/>
<text text-anchor="start" x="698" y="-241.2" font-family="Helvetica,sans-Serif" font-size="11.00">uuid[2147483647]</text>
<polygon fill="none" stroke="black" points="496,-211 496,-233 695,-233 695,-211 496,-211"/>
<image xlink:href="../../images/foreignKeys.png" width="11px" height="12px" preserveAspectRatio="xMinYMin meet" x="501" y="-228"/>
<text text-anchor="start" x="516" y="-219.2" font-family="Helvetica,sans-Serif" font-size="11.00">owning_entity_id</text>
<polygon fill="none" stroke="black" points="695,-211 695,-233 788,-233 788,-211 695,-211"/>
<text text-anchor="start" x="698" y="-219.2" font-family="Helvetica,sans-Serif" font-size="11.00">uuid[2147483647]</text>
<polygon fill="none" stroke="black" points="496,-189 496,-211 695,-211 695,-189 496,-189"/>
<text text-anchor="start" x="516" y="-197.2" font-family="Helvetica,sans-Serif" font-size="11.00">diag_timestamp_created</text>
<polygon fill="none" stroke="black" points="695,-189 695,-211 788,-211 788,-189 695,-189"/>
<text text-anchor="start" x="698" y="-197.2" font-family="Helvetica,sans-Serif" font-size="11.00">timestamptz[35,6]</text>
<polygon fill="none" stroke="black" points="496,-167 496,-189 695,-189 695,-167 496,-167"/>
<text text-anchor="start" x="516" y="-175.2" font-family="Helvetica,sans-Serif" font-size="11.00">diag_role_created</text>
<polygon fill="none" stroke="black" points="695,-167 695,-189 788,-189 788,-167 695,-167"/>
<text text-anchor="start" x="698" y="-175.2" font-family="Helvetica,sans-Serif" font-size="11.00">text[2147483647]</text>
<polygon fill="none" stroke="black" points="496,-145 496,-167 695,-167 695,-145 496,-145"/>
<text text-anchor="start" x="516" y="-153.2" font-family="Helvetica,sans-Serif" font-size="11.00">diag_timestamp_modified</text>
<polygon fill="none" stroke="black" points="695,-145 695,-167 788,-167 788,-145 695,-145"/>
<text text-anchor="start" x="698" y="-153.2" font-family="Helvetica,sans-Serif" font-size="11.00">timestamptz[35,6]</text>
<polygon fill="none" stroke="black" points="496,-123 496,-145 695,-145 695,-123 496,-123"/>
<text text-anchor="start" x="516" y="-131.2" font-family="Helvetica,sans-Serif" font-size="11.00">diag_wallclock_modified</text>
<polygon fill="none" stroke="black" points="695,-123 695,-145 788,-145 788,-123 695,-123"/>
<text text-anchor="start" x="698" y="-131.2" font-family="Helvetica,sans-Serif" font-size="11.00">timestamptz[35,6]</text>
<polygon fill="none" stroke="black" points="496,-101 496,-123 695,-123 695,-101 496,-101"/>
<text text-anchor="start" x="516" y="-109.2" font-family="Helvetica,sans-Serif" font-size="11.00">diag_role_modified</text>
<polygon fill="none" stroke="black" points="695,-101 695,-123 788,-123 788,-101 695,-101"/>
<text text-anchor="start" x="698" y="-109.2" font-family="Helvetica,sans-Serif" font-size="11.00">text[2147483647]</text>
<polygon fill="none" stroke="black" points="496,-79 496,-101 695,-101 695,-79 496,-79"/>
<text text-anchor="start" x="516" y="-87.2" font-family="Helvetica,sans-Serif" font-size="11.00">diag_row_version</text>
<polygon fill="none" stroke="black" points="695,-79 695,-101 788,-101 788,-79 695,-79"/>
<text text-anchor="start" x="698" y="-87.2" font-family="Helvetica,sans-Serif" font-size="11.00">int8[19]</text>
<polygon fill="none" stroke="black" points="496,-57 496,-79 695,-79 695,-57 496,-57"/>
<text text-anchor="start" x="516" y="-65.2" font-family="Helvetica,sans-Serif" font-size="11.00">diag_update_count</text>
<polygon fill="none" stroke="black" points="695,-57 695,-79 788,-79 788,-57 695,-57"/>
<text text-anchor="start" x="698" y="-65.2" font-family="Helvetica,sans-Serif" font-size="11.00">int8[19]</text>
<polygon fill="#ffffff" stroke="transparent" points="496,-39 496,-57 600,-57 600,-39 496,-39"/>
<polygon fill="none" stroke="black" points="496,-39 496,-57 600,-57 600,-39 496,-39"/>
<text text-anchor="start" x="499" y="-45.2" font-family="Helvetica,sans-Serif" font-size="11.00">&lt; 2</text>
<polygon fill="#ffffff" stroke="transparent" points="600,-39 600,-57 695,-57 695,-39 600,-39"/>
<polygon fill="none" stroke="black" points="600,-39 600,-57 695,-57 695,-39 600,-39"/>
<text text-anchor="start" x="685" y="-45.2" font-family="Helvetica,sans-Serif" font-size="11.00"> &#160;</text>
<polygon fill="#ffffff" stroke="transparent" points="695,-39 695,-57 788,-57 788,-39 695,-39"/>
<polygon fill="none" stroke="black" points="695,-39 695,-57 788,-57 788,-39 695,-39"/>
<text text-anchor="start" x="769" y="-45.2" font-family="Helvetica,sans-Serif" font-size="11.00">0 &gt;</text>
<polygon fill="none" stroke="black" stroke-width="2" points="495,-38 495,-300 789,-300 789,-38 495,-38"/>
</a>
</g>
</g>
<!-- mstr_entities -->
<g id="node2" class="node">
<title>mstr_entities</title>
<g id="a_node2"><a xlink:href="../../tables/mstr_entities.html" xlink:title="mstr_entities" target="_top">
<polygon fill="#ffffff" stroke="transparent" points="8,-65 8,-255 202,-255 202,-65 8,-65"/>
<polygon fill="#f5f5f5" stroke="transparent" points="8,-233 8,-255 202,-255 202,-233 8,-233"/>
<polygon fill="none" stroke="black" points="8,-233 8,-255 202,-255 202,-233 8,-233"/>
<text text-anchor="start" x="13" y="-242.2" font-family="Helvetica,sans-Serif" font-weight="bold" font-size="11.00">mstr_entities</text>
<text text-anchor="start" x="167" y="-241.2" font-family="Helvetica,sans-Serif" font-size="11.00">[table]</text>
<polygon fill="none" stroke="black" points="8,-211 8,-233 202,-233 202,-211 8,-211"/>
<image xlink:href="../../images/primaryKeys.png" width="11px" height="12px" preserveAspectRatio="xMinYMin meet" x="13" y="-228"/>
<text text-anchor="start" x="28" y="-219.2" font-family="Helvetica,sans-Serif" font-size="11.00">id</text>
<polygon fill="none" stroke="black" points="8,-189 8,-211 202,-211 202,-189 8,-189"/>
<image xlink:href="../../images/foreignKeys.png" width="11px" height="12px" preserveAspectRatio="xMinYMin meet" x="13" y="-206"/>
<text text-anchor="start" x="28" y="-197.2" font-family="Helvetica,sans-Serif" font-size="11.00">owning_entity_id</text>
<polygon fill="#ffffff" stroke="transparent" points="8,-167 8,-189 202,-189 202,-167 8,-167"/>
<polygon fill="none" stroke="black" points="8,-167 8,-189 202,-189 202,-167 8,-167"/>
<text text-anchor="start" x="28" y="-175.2" font-family="Helvetica,sans-Serif" font-size="11.00">internal_name</text>
<polygon fill="#ffffff" stroke="transparent" points="8,-145 8,-167 202,-167 202,-145 8,-145"/>
<polygon fill="none" stroke="black" points="8,-145 8,-167 202,-167 202,-145 8,-145"/>
<text text-anchor="start" x="28" y="-153.2" font-family="Helvetica,sans-Serif" font-size="11.00">display_name</text>
<polygon fill="none" stroke="black" points="8,-123 8,-145 202,-145 202,-123 8,-123"/>
<image xlink:href="../../images/foreignKeys.png" width="11px" height="12px" preserveAspectRatio="xMinYMin meet" x="13" y="-140"/>
<text text-anchor="start" x="28" y="-131.2" font-family="Helvetica,sans-Serif" font-size="11.00">entity_type_id</text>
<polygon fill="none" stroke="black" points="8,-101 8,-123 202,-123 202,-101 8,-101"/>
<image xlink:href="../../images/foreignKeys.png" width="11px" height="12px" preserveAspectRatio="xMinYMin meet" x="13" y="-118"/>
<text text-anchor="start" x="28" y="-109.2" font-family="Helvetica,sans-Serif" font-size="11.00">entity_state_id</text>
<polygon fill="none" stroke="black" points="8,-83 8,-101 202,-101 202,-83 8,-83"/>
<text text-anchor="start" x="11" y="-89.2" font-family="Helvetica,sans-Serif" font-size="11.00">...</text>
<polygon fill="#ffffff" stroke="transparent" points="8,-65 8,-83 95,-83 95,-65 8,-65"/>
<polygon fill="none" stroke="black" points="8,-65 8,-83 95,-83 95,-65 8,-65"/>
<text text-anchor="start" x="11" y="-71.2" font-family="Helvetica,sans-Serif" font-size="11.00">&lt; 3</text>
<polygon fill="#ffffff" stroke="transparent" points="95,-65 95,-83 141,-83 141,-65 95,-65"/>
<polygon fill="none" stroke="black" points="95,-65 95,-83 141,-83 141,-65 95,-65"/>
<text text-anchor="start" x="131" y="-71.2" font-family="Helvetica,sans-Serif" font-size="11.00"> &#160;</text>
<polygon fill="#ffffff" stroke="transparent" points="141,-65 141,-83 202,-83 202,-65 141,-65"/>
<polygon fill="none" stroke="black" points="141,-65 141,-83 202,-83 202,-65 141,-65"/>
<text text-anchor="start" x="177" y="-71.2" font-family="Helvetica,sans-Serif" font-size="11.00">15 &gt;</text>
</a>
</g>
</g>
<!-- mstr_entity_facility_places&#45;&gt;mstr_entities -->
<g id="edge1" class="edge">
<title>mstr_entity_facility_places:w&#45;&gt;mstr_entities:e</title>
<path fill="none" stroke="black" d="M481.23,-217.7C466.85,-205.34 478,-169.72 453,-156 371.18,-111.09 324.32,-110.2 243,-156 213.11,-172.83 237.3,-222 203,-222"/>
<polygon fill="black" stroke="black" points="487.36,-219.62 493.93,-225.44 491.18,-220.81 495,-222 495,-222 495,-222 491.18,-220.81 496.07,-218.56 487.36,-219.62 487.36,-219.62"/>
<ellipse fill="none" stroke="black" cx="484.31" cy="-218.66" rx="3.2" ry="3.2"/>
</g>
<!-- mstr_places -->
<g id="node3" class="node">
<title>mstr_places</title>
<g id="a_node3"><a xlink:href="../../tables/mstr_places.html" xlink:title="mstr_places" target="_top">
<polygon fill="#ffffff" stroke="transparent" points="251,-167 251,-357 445,-357 445,-167 251,-167"/>
<polygon fill="#f5f5f5" stroke="transparent" points="251,-335 251,-357 445,-357 445,-335 251,-335"/>
<polygon fill="none" stroke="black" points="251,-335 251,-357 445,-357 445,-335 251,-335"/>
<text text-anchor="start" x="256" y="-344.2" font-family="Helvetica,sans-Serif" font-weight="bold" font-size="11.00">mstr_places</text>
<text text-anchor="start" x="410" y="-343.2" font-family="Helvetica,sans-Serif" font-size="11.00">[table]</text>
<polygon fill="none" stroke="black" points="251,-313 251,-335 445,-335 445,-313 251,-313"/>
<image xlink:href="../../images/primaryKeys.png" width="11px" height="12px" preserveAspectRatio="xMinYMin meet" x="256" y="-330"/>
<text text-anchor="start" x="271" y="-321.2" font-family="Helvetica,sans-Serif" font-size="11.00">id</text>
<polygon fill="none" stroke="black" points="251,-291 251,-313 445,-313 445,-291 251,-291"/>
<image xlink:href="../../images/foreignKeys.png" width="11px" height="12px" preserveAspectRatio="xMinYMin meet" x="256" y="-308"/>
<text text-anchor="start" x="271" y="-299.2" font-family="Helvetica,sans-Serif" font-size="11.00">owning_entity_id</text>
<polygon fill="#ffffff" stroke="transparent" points="251,-269 251,-291 445,-291 445,-269 251,-269"/>
<polygon fill="none" stroke="black" points="251,-269 251,-291 445,-291 445,-269 251,-269"/>
<text text-anchor="start" x="271" y="-277.2" font-family="Helvetica,sans-Serif" font-size="11.00">internal_name</text>
<polygon fill="#ffffff" stroke="transparent" points="251,-247 251,-269 445,-269 445,-247 251,-247"/>
<polygon fill="none" stroke="black" points="251,-247 251,-269 445,-269 445,-247 251,-247"/>
<text text-anchor="start" x="271" y="-255.2" font-family="Helvetica,sans-Serif" font-size="11.00">display_name</text>
<polygon fill="none" stroke="black" points="251,-225 251,-247 445,-247 445,-225 251,-225"/>
<image xlink:href="../../images/foreignKeys.png" width="11px" height="12px" preserveAspectRatio="xMinYMin meet" x="256" y="-242"/>
<text text-anchor="start" x="271" y="-233.2" font-family="Helvetica,sans-Serif" font-size="11.00">place_type_id</text>
<polygon fill="none" stroke="black" points="251,-203 251,-225 445,-225 445,-203 251,-203"/>
<image xlink:href="../../images/foreignKeys.png" width="11px" height="12px" preserveAspectRatio="xMinYMin meet" x="256" y="-220"/>
<text text-anchor="start" x="271" y="-211.2" font-family="Helvetica,sans-Serif" font-size="11.00">place_state_id</text>
<polygon fill="none" stroke="black" points="251,-185 251,-203 445,-203 445,-185 251,-185"/>
<text text-anchor="start" x="254" y="-191.2" font-family="Helvetica,sans-Serif" font-size="11.00">...</text>
<polygon fill="#ffffff" stroke="transparent" points="251,-167 251,-185 341,-185 341,-167 251,-167"/>
<polygon fill="none" stroke="black" points="251,-167 251,-185 341,-185 341,-167 251,-167"/>
<text text-anchor="start" x="254" y="-173.2" font-family="Helvetica,sans-Serif" font-size="11.00">&lt; 3</text>
<polygon fill="#ffffff" stroke="transparent" points="341,-167 341,-185 388,-185 388,-167 341,-167"/>
<polygon fill="none" stroke="black" points="341,-167 341,-185 388,-185 388,-167 341,-167"/>
<text text-anchor="start" x="378" y="-173.2" font-family="Helvetica,sans-Serif" font-size="11.00"> &#160;</text>
<polygon fill="#ffffff" stroke="transparent" points="388,-167 388,-185 445,-185 445,-167 388,-167"/>
<polygon fill="none" stroke="black" points="388,-167 388,-185 445,-185 445,-167 388,-167"/>
<text text-anchor="start" x="426" y="-173.2" font-family="Helvetica,sans-Serif" font-size="11.00">3 &gt;</text>
</a>
</g>
</g>
<!-- mstr_entity_facility_places&#45;&gt;mstr_places -->
<g id="edge2" class="edge">
<title>mstr_entity_facility_places:w&#45;&gt;mstr_places:e</title>
<path fill="none" stroke="black" d="M481.23,-248.53C461.66,-265.45 481.67,-324 446,-324"/>
<polygon fill="black" stroke="black" points="487.4,-246.5 496.13,-247.42 491.2,-245.25 495,-244 495,-244 495,-244 491.2,-245.25 493.87,-240.58 487.4,-246.5 487.4,-246.5"/>
<ellipse fill="none" stroke="black" cx="484.36" cy="-247.5" rx="3.2" ry="3.2"/>
</g>
<!-- mstr_places&#45;&gt;mstr_entities -->
<g id="edge3" class="edge">
<title>mstr_places:w&#45;&gt;mstr_entities:e</title>
<path fill="none" stroke="black" d="M236.21,-297.24C217.6,-280.01 238.12,-222 203,-222"/>
<polygon fill="black" stroke="black" points="242.44,-299.39 248.82,-305.4 246.22,-300.69 250,-302 250,-302 250,-302 246.22,-300.69 251.18,-298.6 242.44,-299.39 242.44,-299.39"/>
<ellipse fill="none" stroke="black" cx="239.41" cy="-298.34" rx="3.2" ry="3.2"/>
</g>
</g>
</svg>
