<?xml version="1.0" encoding="UTF-8" standalone="no"?>
<!DOCTYPE svg PUBLIC "-//W3C//DTD SVG 1.1//EN"
 "http://www.w3.org/Graphics/SVG/1.1/DTD/svg11.dtd">
<!-- Generated by graphviz version 2.43.0 (0)
 -->
<!-- Title: oneDegreeRelationshipsDiagram Pages: 1 -->
<svg width="601pt" height="313pt"
 viewBox="0.00 0.00 601.00 313.00" xmlns="http://www.w3.org/2000/svg" xmlns:xlink="http://www.w3.org/1999/xlink">
<g id="graph0" class="graph" transform="scale(1 1) rotate(0) translate(4 309)">
<title>oneDegreeRelationshipsDiagram</title>
<polygon fill="#ffffff" stroke="transparent" points="-4,4 -4,-309 597,-309 597,4 -4,4"/>
<text text-anchor="middle" x="71.5" y="-7.2" font-family="Helvetica,sans-Serif" font-size="11.00">Generated by SchemaSpy</text>
<!-- mstr_entity_purchasing_entities -->
<g id="node1" class="node">
<title>mstr_entity_purchasing_entities</title>
<g id="a_node1"><a xlink:href="../../tables/mstr_entity_purchasing_entities.html" xlink:title="mstr_entity_purchasing_entities" target="_top">
<polygon fill="#ffffff" stroke="transparent" points="251,-37 251,-301 585,-301 585,-37 251,-37"/>
<polygon fill="#f5f5f5" stroke="transparent" points="253,-277 253,-299 583,-299 583,-277 253,-277"/>
<polygon fill="none" stroke="black" points="253,-277 253,-299 583,-299 583,-277 253,-277"/>
<text text-anchor="start" x="258" y="-286.2" font-family="Helvetica,sans-Serif" font-weight="bold" font-size="11.00">mstr_entity_purchasing_entities</text>
<text text-anchor="start" x="548" y="-285.2" font-family="Helvetica,sans-Serif" font-size="11.00">[table]</text>
<polygon fill="none" stroke="black" points="253,-255 253,-277 490,-277 490,-255 253,-255"/>
<image xlink:href="../../images/primaryKeys.png" width="11px" height="12px" preserveAspectRatio="xMinYMin meet" x="258" y="-272"/>
<text text-anchor="start" x="273" y="-263.2" font-family="Helvetica,sans-Serif" font-size="11.00">id</text>
<polygon fill="none" stroke="black" points="490,-255 490,-277 583,-277 583,-255 490,-255"/>
<text text-anchor="start" x="493" y="-263.2" font-family="Helvetica,sans-Serif" font-size="11.00">uuid[2147483647]</text>
<polygon fill="#ffffff" stroke="transparent" points="253,-233 253,-255 490,-255 490,-233 253,-233"/>
<polygon fill="none" stroke="black" points="253,-233 253,-255 490,-255 490,-233 253,-233"/>
<image xlink:href="../../images/foreignKeys.png" width="11px" height="12px" preserveAspectRatio="xMinYMin meet" x="258" y="-250"/>
<text text-anchor="start" x="273" y="-241.2" font-family="Helvetica,sans-Serif" font-size="11.00">entity_id</text>
<polygon fill="none" stroke="black" points="490,-233 490,-255 583,-255 583,-233 490,-233"/>
<text text-anchor="start" x="493" y="-241.2" font-family="Helvetica,sans-Serif" font-size="11.00">uuid[2147483647]</text>
<polygon fill="#ffffff" stroke="transparent" points="253,-211 253,-233 490,-233 490,-211 253,-211"/>
<polygon fill="none" stroke="black" points="253,-211 253,-233 490,-233 490,-211 253,-211"/>
<image xlink:href="../../images/foreignKeys.png" width="11px" height="12px" preserveAspectRatio="xMinYMin meet" x="258" y="-228"/>
<text text-anchor="start" x="273" y="-219.2" font-family="Helvetica,sans-Serif" font-size="11.00">owning_entity_id</text>
<polygon fill="none" stroke="black" points="490,-211 490,-233 583,-233 583,-211 490,-211"/>
<text text-anchor="start" x="493" y="-219.2" font-family="Helvetica,sans-Serif" font-size="11.00">uuid[2147483647]</text>
<polygon fill="none" stroke="black" points="253,-189 253,-211 490,-211 490,-189 253,-189"/>
<text text-anchor="start" x="273" y="-197.2" font-family="Helvetica,sans-Serif" font-size="11.00">diag_timestamp_created</text>
<polygon fill="none" stroke="black" points="490,-189 490,-211 583,-211 583,-189 490,-189"/>
<text text-anchor="start" x="493" y="-197.2" font-family="Helvetica,sans-Serif" font-size="11.00">timestamptz[35,6]</text>
<polygon fill="none" stroke="black" points="253,-167 253,-189 490,-189 490,-167 253,-167"/>
<text text-anchor="start" x="273" y="-175.2" font-family="Helvetica,sans-Serif" font-size="11.00">diag_role_created</text>
<polygon fill="none" stroke="black" points="490,-167 490,-189 583,-189 583,-167 490,-167"/>
<text text-anchor="start" x="493" y="-175.2" font-family="Helvetica,sans-Serif" font-size="11.00">text[2147483647]</text>
<polygon fill="none" stroke="black" points="253,-145 253,-167 490,-167 490,-145 253,-145"/>
<text text-anchor="start" x="273" y="-153.2" font-family="Helvetica,sans-Serif" font-size="11.00">diag_timestamp_modified</text>
<polygon fill="none" stroke="black" points="490,-145 490,-167 583,-167 583,-145 490,-145"/>
<text text-anchor="start" x="493" y="-153.2" font-family="Helvetica,sans-Serif" font-size="11.00">timestamptz[35,6]</text>
<polygon fill="none" stroke="black" points="253,-123 253,-145 490,-145 490,-123 253,-123"/>
<text text-anchor="start" x="273" y="-131.2" font-family="Helvetica,sans-Serif" font-size="11.00">diag_wallclock_modified</text>
<polygon fill="none" stroke="black" points="490,-123 490,-145 583,-145 583,-123 490,-123"/>
<text text-anchor="start" x="493" y="-131.2" font-family="Helvetica,sans-Serif" font-size="11.00">timestamptz[35,6]</text>
<polygon fill="none" stroke="black" points="253,-101 253,-123 490,-123 490,-101 253,-101"/>
<text text-anchor="start" x="273" y="-109.2" font-family="Helvetica,sans-Serif" font-size="11.00">diag_role_modified</text>
<polygon fill="none" stroke="black" points="490,-101 490,-123 583,-123 583,-101 490,-101"/>
<text text-anchor="start" x="493" y="-109.2" font-family="Helvetica,sans-Serif" font-size="11.00">text[2147483647]</text>
<polygon fill="none" stroke="black" points="253,-79 253,-101 490,-101 490,-79 253,-79"/>
<text text-anchor="start" x="273" y="-87.2" font-family="Helvetica,sans-Serif" font-size="11.00">diag_row_version</text>
<polygon fill="none" stroke="black" points="490,-79 490,-101 583,-101 583,-79 490,-79"/>
<text text-anchor="start" x="493" y="-87.2" font-family="Helvetica,sans-Serif" font-size="11.00">int8[19]</text>
<polygon fill="none" stroke="black" points="253,-57 253,-79 490,-79 490,-57 253,-57"/>
<text text-anchor="start" x="273" y="-65.2" font-family="Helvetica,sans-Serif" font-size="11.00">diag_update_count</text>
<polygon fill="none" stroke="black" points="490,-57 490,-79 583,-79 583,-57 490,-57"/>
<text text-anchor="start" x="493" y="-65.2" font-family="Helvetica,sans-Serif" font-size="11.00">int8[19]</text>
<polygon fill="#ffffff" stroke="transparent" points="253,-39 253,-57 376,-57 376,-39 253,-39"/>
<polygon fill="none" stroke="black" points="253,-39 253,-57 376,-57 376,-39 253,-39"/>
<text text-anchor="start" x="256" y="-45.2" font-family="Helvetica,sans-Serif" font-size="11.00">&lt; 2</text>
<polygon fill="#ffffff" stroke="transparent" points="376,-39 376,-57 490,-57 490,-39 376,-39"/>
<polygon fill="none" stroke="black" points="376,-39 376,-57 490,-57 490,-39 376,-39"/>
<text text-anchor="start" x="480" y="-45.2" font-family="Helvetica,sans-Serif" font-size="11.00"> &#160;</text>
<polygon fill="#ffffff" stroke="transparent" points="490,-39 490,-57 583,-57 583,-39 490,-39"/>
<polygon fill="none" stroke="black" points="490,-39 490,-57 583,-57 583,-39 490,-39"/>
<text text-anchor="start" x="564" y="-45.2" font-family="Helvetica,sans-Serif" font-size="11.00">0 &gt;</text>
<polygon fill="none" stroke="black" stroke-width="2" points="252,-38 252,-300 584,-300 584,-38 252,-38"/>
</a>
</g>
</g>
<!-- mstr_entities -->
<g id="node2" class="node">
<title>mstr_entities</title>
<g id="a_node2"><a xlink:href="../../tables/mstr_entities.html" xlink:title="mstr_entities" target="_top">
<polygon fill="#ffffff" stroke="transparent" points="8,-76 8,-266 202,-266 202,-76 8,-76"/>
<polygon fill="#f5f5f5" stroke="transparent" points="8,-244 8,-266 202,-266 202,-244 8,-244"/>
<polygon fill="none" stroke="black" points="8,-244 8,-266 202,-266 202,-244 8,-244"/>
<text text-anchor="start" x="13" y="-253.2" font-family="Helvetica,sans-Serif" font-weight="bold" font-size="11.00">mstr_entities</text>
<text text-anchor="start" x="167" y="-252.2" font-family="Helvetica,sans-Serif" font-size="11.00">[table]</text>
<polygon fill="none" stroke="black" points="8,-222 8,-244 202,-244 202,-222 8,-222"/>
<image xlink:href="../../images/primaryKeys.png" width="11px" height="12px" preserveAspectRatio="xMinYMin meet" x="13" y="-239"/>
<text text-anchor="start" x="28" y="-230.2" font-family="Helvetica,sans-Serif" font-size="11.00">id</text>
<polygon fill="none" stroke="black" points="8,-200 8,-222 202,-222 202,-200 8,-200"/>
<image xlink:href="../../images/foreignKeys.png" width="11px" height="12px" preserveAspectRatio="xMinYMin meet" x="13" y="-217"/>
<text text-anchor="start" x="28" y="-208.2" font-family="Helvetica,sans-Serif" font-size="11.00">owning_entity_id</text>
<polygon fill="#ffffff" stroke="transparent" points="8,-178 8,-200 202,-200 202,-178 8,-178"/>
<polygon fill="none" stroke="black" points="8,-178 8,-200 202,-200 202,-178 8,-178"/>
<text text-anchor="start" x="28" y="-186.2" font-family="Helvetica,sans-Serif" font-size="11.00">internal_name</text>
<polygon fill="#ffffff" stroke="transparent" points="8,-156 8,-178 202,-178 202,-156 8,-156"/>
<polygon fill="none" stroke="black" points="8,-156 8,-178 202,-178 202,-156 8,-156"/>
<text text-anchor="start" x="28" y="-164.2" font-family="Helvetica,sans-Serif" font-size="11.00">display_name</text>
<polygon fill="none" stroke="black" points="8,-134 8,-156 202,-156 202,-134 8,-134"/>
<image xlink:href="../../images/foreignKeys.png" width="11px" height="12px" preserveAspectRatio="xMinYMin meet" x="13" y="-151"/>
<text text-anchor="start" x="28" y="-142.2" font-family="Helvetica,sans-Serif" font-size="11.00">entity_type_id</text>
<polygon fill="none" stroke="black" points="8,-112 8,-134 202,-134 202,-112 8,-112"/>
<image xlink:href="../../images/foreignKeys.png" width="11px" height="12px" preserveAspectRatio="xMinYMin meet" x="13" y="-129"/>
<text text-anchor="start" x="28" y="-120.2" font-family="Helvetica,sans-Serif" font-size="11.00">entity_state_id</text>
<polygon fill="none" stroke="black" points="8,-94 8,-112 202,-112 202,-94 8,-94"/>
<text text-anchor="start" x="11" y="-100.2" font-family="Helvetica,sans-Serif" font-size="11.00">...</text>
<polygon fill="#ffffff" stroke="transparent" points="8,-76 8,-94 95,-94 95,-76 8,-76"/>
<polygon fill="none" stroke="black" points="8,-76 8,-94 95,-94 95,-76 8,-76"/>
<text text-anchor="start" x="11" y="-82.2" font-family="Helvetica,sans-Serif" font-size="11.00">&lt; 3</text>
<polygon fill="#ffffff" stroke="transparent" points="95,-76 95,-94 141,-94 141,-76 95,-76"/>
<polygon fill="none" stroke="black" points="95,-76 95,-94 141,-94 141,-76 95,-76"/>
<text text-anchor="start" x="131" y="-82.2" font-family="Helvetica,sans-Serif" font-size="11.00"> &#160;</text>
<polygon fill="#ffffff" stroke="transparent" points="141,-76 141,-94 202,-94 202,-76 141,-76"/>
<polygon fill="none" stroke="black" points="141,-76 141,-94 202,-94 202,-76 141,-76"/>
<text text-anchor="start" x="177" y="-82.2" font-family="Helvetica,sans-Serif" font-size="11.00">15 &gt;</text>
</a>
</g>
</g>
<!-- mstr_entity_purchasing_entities&#45;&gt;mstr_entities -->
<g id="edge1" class="edge">
<title>mstr_entity_purchasing_entities:w&#45;&gt;mstr_entities:e</title>
<path fill="none" stroke="black" d="M237.7,-242.18C226.24,-239.06 219.57,-233 203,-233"/>
<polygon fill="black" stroke="black" points="244.06,-242.99 251.55,-247.57 248.03,-243.5 252,-244 252,-244 252,-244 248.03,-243.5 252.45,-240.43 244.06,-242.99 244.06,-242.99"/>
<ellipse fill="none" stroke="black" cx="240.89" cy="-242.59" rx="3.2" ry="3.2"/>
</g>
<!-- mstr_entity_purchasing_entities&#45;&gt;mstr_entities -->
<g id="edge2" class="edge">
<title>mstr_entity_purchasing_entities:w&#45;&gt;mstr_entities:e</title>
<path fill="none" stroke="black" d="M237.7,-223.82C226.24,-226.94 219.57,-233 203,-233"/>
<polygon fill="black" stroke="black" points="244.06,-223.01 252.45,-225.57 248.03,-222.5 252,-222 252,-222 252,-222 248.03,-222.5 251.55,-218.43 244.06,-223.01 244.06,-223.01"/>
<ellipse fill="none" stroke="black" cx="240.89" cy="-223.41" rx="3.2" ry="3.2"/>
</g>
</g>
</svg>
