<?xml version="1.0" encoding="UTF-8" standalone="no"?>
<!DOCTYPE svg PUBLIC "-//W3C//DTD SVG 1.1//EN"
 "http://www.w3.org/Graphics/SVG/1.1/DTD/svg11.dtd">
<!-- Generated by graphviz version 2.43.0 (0)
 -->
<!-- Title: orphans Pages: 1 -->
<svg width="353pt" height="1157pt"
 viewBox="0.00 0.00 353.00 1157.00" xmlns="http://www.w3.org/2000/svg" xmlns:xlink="http://www.w3.org/1999/xlink">
<g id="graph0" class="graph" transform="scale(1 1) rotate(0) translate(4 1153)">
<title>orphans</title>
<polygon fill="#ffffff" stroke="transparent" points="-4,4 -4,-1153 349,-1153 349,4 -4,4"/>
<!-- syst_disallowed_hosts -->
<g id="node1" class="node">
<title>syst_disallowed_hosts</title>
<g id="a_node1"><a xlink:href="../../tables/syst_disallowed_hosts.html" xlink:title="syst_disallowed_hosts" target="_top">
<polygon fill="#ffffff" stroke="transparent" points="27,-4 27,-246 318,-246 318,-4 27,-4"/>
<polygon fill="#f5f5f5" stroke="transparent" points="29.5,-222 29.5,-244 316.5,-244 316.5,-222 29.5,-222"/>
<polygon fill="none" stroke="black" points="29.5,-222 29.5,-244 316.5,-244 316.5,-222 29.5,-222"/>
<text text-anchor="start" x="34.5" y="-231.2" font-family="Helvetica,sans-Serif" font-weight="bold" font-size="11.00">syst_disallowed_hosts</text>
<text text-anchor="start" x="281.5" y="-230.2" font-family="Helvetica,sans-Serif" font-size="11.00">[table]</text>
<polygon fill="none" stroke="black" points="29.5,-200 29.5,-222 223.5,-222 223.5,-200 29.5,-200"/>
<image xlink:href="../../images/primaryKeys.png" width="11px" height="12px" preserveAspectRatio="xMinYMin meet" x="34.5" y="-217"/>
<text text-anchor="start" x="49.5" y="-208.2" font-family="Helvetica,sans-Serif" font-size="11.00">id</text>
<polygon fill="none" stroke="black" points="223.5,-200 223.5,-222 316.5,-222 316.5,-200 223.5,-200"/>
<text text-anchor="start" x="226.5" y="-208.2" font-family="Helvetica,sans-Serif" font-size="11.00">uuid[2147483647]</text>
<polygon fill="#ffffff" stroke="transparent" points="29.5,-178 29.5,-200 223.5,-200 223.5,-178 29.5,-178"/>
<polygon fill="none" stroke="black" points="29.5,-178 29.5,-200 223.5,-200 223.5,-178 29.5,-178"/>
<text text-anchor="start" x="49.5" y="-186.2" font-family="Helvetica,sans-Serif" font-size="11.00">host_address</text>
<polygon fill="none" stroke="black" points="223.5,-178 223.5,-200 316.5,-200 316.5,-178 223.5,-178"/>
<text text-anchor="start" x="226.5" y="-186.2" font-family="Helvetica,sans-Serif" font-size="11.00">inet[2147483647]</text>
<polygon fill="none" stroke="black" points="29.5,-156 29.5,-178 223.5,-178 223.5,-156 29.5,-156"/>
<text text-anchor="start" x="49.5" y="-164.2" font-family="Helvetica,sans-Serif" font-size="11.00">diag_timestamp_created</text>
<polygon fill="none" stroke="black" points="223.5,-156 223.5,-178 316.5,-178 316.5,-156 223.5,-156"/>
<text text-anchor="start" x="226.5" y="-164.2" font-family="Helvetica,sans-Serif" font-size="11.00">timestamptz[35,6]</text>
<polygon fill="none" stroke="black" points="29.5,-134 29.5,-156 223.5,-156 223.5,-134 29.5,-134"/>
<text text-anchor="start" x="49.5" y="-142.2" font-family="Helvetica,sans-Serif" font-size="11.00">diag_role_created</text>
<polygon fill="none" stroke="black" points="223.5,-134 223.5,-156 316.5,-156 316.5,-134 223.5,-134"/>
<text text-anchor="start" x="226.5" y="-142.2" font-family="Helvetica,sans-Serif" font-size="11.00">text[2147483647]</text>
<polygon fill="none" stroke="black" points="29.5,-112 29.5,-134 223.5,-134 223.5,-112 29.5,-112"/>
<text text-anchor="start" x="49.5" y="-120.2" font-family="Helvetica,sans-Serif" font-size="11.00">diag_timestamp_modified</text>
<polygon fill="none" stroke="black" points="223.5,-112 223.5,-134 316.5,-134 316.5,-112 223.5,-112"/>
<text text-anchor="start" x="226.5" y="-120.2" font-family="Helvetica,sans-Serif" font-size="11.00">timestamptz[35,6]</text>
<polygon fill="none" stroke="black" points="29.5,-90 29.5,-112 223.5,-112 223.5,-90 29.5,-90"/>
<text text-anchor="start" x="49.5" y="-98.2" font-family="Helvetica,sans-Serif" font-size="11.00">diag_wallclock_modified</text>
<polygon fill="none" stroke="black" points="223.5,-90 223.5,-112 316.5,-112 316.5,-90 223.5,-90"/>
<text text-anchor="start" x="226.5" y="-98.2" font-family="Helvetica,sans-Serif" font-size="11.00">timestamptz[35,6]</text>
<polygon fill="none" stroke="black" points="29.5,-68 29.5,-90 223.5,-90 223.5,-68 29.5,-68"/>
<text text-anchor="start" x="49.5" y="-76.2" font-family="Helvetica,sans-Serif" font-size="11.00">diag_role_modified</text>
<polygon fill="none" stroke="black" points="223.5,-68 223.5,-90 316.5,-90 316.5,-68 223.5,-68"/>
<text text-anchor="start" x="226.5" y="-76.2" font-family="Helvetica,sans-Serif" font-size="11.00">text[2147483647]</text>
<polygon fill="none" stroke="black" points="29.5,-46 29.5,-68 223.5,-68 223.5,-46 29.5,-46"/>
<text text-anchor="start" x="49.5" y="-54.2" font-family="Helvetica,sans-Serif" font-size="11.00">diag_row_version</text>
<polygon fill="none" stroke="black" points="223.5,-46 223.5,-68 316.5,-68 316.5,-46 223.5,-46"/>
<text text-anchor="start" x="226.5" y="-54.2" font-family="Helvetica,sans-Serif" font-size="11.00">int8[19]</text>
<polygon fill="none" stroke="black" points="29.5,-24 29.5,-46 223.5,-46 223.5,-24 29.5,-24"/>
<text text-anchor="start" x="49.5" y="-32.2" font-family="Helvetica,sans-Serif" font-size="11.00">diag_update_count</text>
<polygon fill="none" stroke="black" points="223.5,-24 223.5,-46 316.5,-46 316.5,-24 223.5,-24"/>
<text text-anchor="start" x="226.5" y="-32.2" font-family="Helvetica,sans-Serif" font-size="11.00">int8[19]</text>
<polygon fill="#ffffff" stroke="transparent" points="29.5,-6 29.5,-24 130.5,-24 130.5,-6 29.5,-6"/>
<polygon fill="none" stroke="black" points="29.5,-6 29.5,-24 130.5,-24 130.5,-6 29.5,-6"/>
<text text-anchor="start" x="32.5" y="-12.2" font-family="Helvetica,sans-Serif" font-size="11.00">&lt; 0</text>
<polygon fill="#ffffff" stroke="transparent" points="130.5,-6 130.5,-24 223.5,-24 223.5,-6 130.5,-6"/>
<polygon fill="none" stroke="black" points="130.5,-6 130.5,-24 223.5,-24 223.5,-6 130.5,-6"/>
<text text-anchor="start" x="213.5" y="-12.2" font-family="Helvetica,sans-Serif" font-size="11.00"> &#160;</text>
<polygon fill="#ffffff" stroke="transparent" points="223.5,-6 223.5,-24 316.5,-24 316.5,-6 223.5,-6"/>
<polygon fill="none" stroke="black" points="223.5,-6 223.5,-24 316.5,-24 316.5,-6 223.5,-6"/>
<text text-anchor="start" x="297.5" y="-12.2" font-family="Helvetica,sans-Serif" font-size="11.00">0 &gt;</text>
<polygon fill="none" stroke="black" stroke-width="2" points="28,-5 28,-245 317,-245 317,-5 28,-5"/>
</a>
</g>
</g>
<!-- syst_disallowed_passwords -->
<g id="node2" class="node">
<title>syst_disallowed_passwords</title>
<g id="a_node2"><a xlink:href="../../tables/syst_disallowed_passwords.html" xlink:title="syst_disallowed_passwords" target="_top">
<polygon fill="#ffffff" stroke="transparent" points="18.5,-267 18.5,-333 326.5,-333 326.5,-267 18.5,-267"/>
<polygon fill="#f5f5f5" stroke="transparent" points="20.5,-309 20.5,-331 324.5,-331 324.5,-309 20.5,-309"/>
<polygon fill="none" stroke="black" points="20.5,-309 20.5,-331 324.5,-331 324.5,-309 20.5,-309"/>
<text text-anchor="start" x="25.5" y="-318.2" font-family="Helvetica,sans-Serif" font-weight="bold" font-size="11.00">syst_disallowed_passwords</text>
<text text-anchor="start" x="289.5" y="-317.2" font-family="Helvetica,sans-Serif" font-size="11.00">[table]</text>
<polygon fill="none" stroke="black" points="20.5,-287 20.5,-309 225.5,-309 225.5,-287 20.5,-287"/>
<image xlink:href="../../images/primaryKeys.png" width="11px" height="12px" preserveAspectRatio="xMinYMin meet" x="25.5" y="-304"/>
<text text-anchor="start" x="40.5" y="-295.2" font-family="Helvetica,sans-Serif" font-size="11.00">password_hash</text>
<polygon fill="none" stroke="black" points="225.5,-287 225.5,-309 324.5,-309 324.5,-287 225.5,-287"/>
<text text-anchor="start" x="228.5" y="-295.2" font-family="Helvetica,sans-Serif" font-size="11.00">bytea[2147483647]</text>
<polygon fill="#ffffff" stroke="transparent" points="20.5,-269 20.5,-287 127.5,-287 127.5,-269 20.5,-269"/>
<polygon fill="none" stroke="black" points="20.5,-269 20.5,-287 127.5,-287 127.5,-269 20.5,-269"/>
<text text-anchor="start" x="23.5" y="-275.2" font-family="Helvetica,sans-Serif" font-size="11.00">&lt; 0</text>
<polygon fill="#ffffff" stroke="transparent" points="127.5,-269 127.5,-287 225.5,-287 225.5,-269 127.5,-269"/>
<polygon fill="none" stroke="black" points="127.5,-269 127.5,-287 225.5,-287 225.5,-269 127.5,-269"/>
<text text-anchor="start" x="215.5" y="-275.2" font-family="Helvetica,sans-Serif" font-size="11.00"> &#160;</text>
<polygon fill="#ffffff" stroke="transparent" points="225.5,-269 225.5,-287 324.5,-287 324.5,-269 225.5,-269"/>
<polygon fill="none" stroke="black" points="225.5,-269 225.5,-287 324.5,-287 324.5,-269 225.5,-269"/>
<text text-anchor="start" x="305.5" y="-275.2" font-family="Helvetica,sans-Serif" font-size="11.00">0 &gt;</text>
<polygon fill="none" stroke="black" stroke-width="2" points="19.5,-268 19.5,-332 325.5,-332 325.5,-268 19.5,-268"/>
</a>
</g>
</g>
<!-- syst_global_network_rules -->
<g id="node3" class="node">
<title>syst_global_network_rules</title>
<g id="a_node3"><a xlink:href="../../tables/syst_global_network_rules.html" xlink:title="syst_global_network_rules" target="_top">
<polygon fill="#ffffff" stroke="transparent" points="25,-354 25,-684 320,-684 320,-354 25,-354"/>
<polygon fill="#f5f5f5" stroke="transparent" points="27.5,-660 27.5,-682 318.5,-682 318.5,-660 27.5,-660"/>
<polygon fill="none" stroke="black" points="27.5,-660 27.5,-682 318.5,-682 318.5,-660 27.5,-660"/>
<text text-anchor="start" x="32.5" y="-669.2" font-family="Helvetica,sans-Serif" font-weight="bold" font-size="11.00">syst_global_network_rules</text>
<text text-anchor="start" x="283.5" y="-668.2" font-family="Helvetica,sans-Serif" font-size="11.00">[table]</text>
<polygon fill="none" stroke="black" points="27.5,-638 27.5,-660 225.5,-660 225.5,-638 27.5,-638"/>
<image xlink:href="../../images/primaryKeys.png" width="11px" height="12px" preserveAspectRatio="xMinYMin meet" x="32.5" y="-655"/>
<text text-anchor="start" x="47.5" y="-646.2" font-family="Helvetica,sans-Serif" font-size="11.00">id</text>
<polygon fill="none" stroke="black" points="225.5,-638 225.5,-660 318.5,-660 318.5,-638 225.5,-638"/>
<text text-anchor="start" x="228.5" y="-646.2" font-family="Helvetica,sans-Serif" font-size="11.00">uuid[2147483647]</text>
<polygon fill="#ffffff" stroke="transparent" points="27.5,-616 27.5,-638 225.5,-638 225.5,-616 27.5,-616"/>
<polygon fill="none" stroke="black" points="27.5,-616 27.5,-638 225.5,-638 225.5,-616 27.5,-616"/>
<text text-anchor="start" x="47.5" y="-624.2" font-family="Helvetica,sans-Serif" font-size="11.00">ordering</text>
<polygon fill="none" stroke="black" points="225.5,-616 225.5,-638 318.5,-638 318.5,-616 225.5,-616"/>
<text text-anchor="start" x="228.5" y="-624.2" font-family="Helvetica,sans-Serif" font-size="11.00">int4[10]</text>
<polygon fill="none" stroke="black" points="27.5,-594 27.5,-616 225.5,-616 225.5,-594 27.5,-594"/>
<text text-anchor="start" x="47.5" y="-602.2" font-family="Helvetica,sans-Serif" font-size="11.00">functional_type</text>
<polygon fill="none" stroke="black" points="225.5,-594 225.5,-616 318.5,-616 318.5,-594 225.5,-594"/>
<text text-anchor="start" x="228.5" y="-602.2" font-family="Helvetica,sans-Serif" font-size="11.00">text[2147483647]</text>
<polygon fill="none" stroke="black" points="27.5,-572 27.5,-594 225.5,-594 225.5,-572 27.5,-572"/>
<text text-anchor="start" x="47.5" y="-580.2" font-family="Helvetica,sans-Serif" font-size="11.00">ip_host_or_network</text>
<polygon fill="none" stroke="black" points="225.5,-572 225.5,-594 318.5,-594 318.5,-572 225.5,-572"/>
<text text-anchor="start" x="228.5" y="-580.2" font-family="Helvetica,sans-Serif" font-size="11.00">inet[2147483647]</text>
<polygon fill="none" stroke="black" points="27.5,-550 27.5,-572 225.5,-572 225.5,-550 27.5,-550"/>
<text text-anchor="start" x="47.5" y="-558.2" font-family="Helvetica,sans-Serif" font-size="11.00">ip_host_range_lower</text>
<polygon fill="none" stroke="black" points="225.5,-550 225.5,-572 318.5,-572 318.5,-550 225.5,-550"/>
<text text-anchor="start" x="228.5" y="-558.2" font-family="Helvetica,sans-Serif" font-size="11.00">inet[2147483647]</text>
<polygon fill="none" stroke="black" points="27.5,-528 27.5,-550 225.5,-550 225.5,-528 27.5,-528"/>
<text text-anchor="start" x="47.5" y="-536.2" font-family="Helvetica,sans-Serif" font-size="11.00">ip_host_range_upper</text>
<polygon fill="none" stroke="black" points="225.5,-528 225.5,-550 318.5,-550 318.5,-528 225.5,-528"/>
<text text-anchor="start" x="228.5" y="-536.2" font-family="Helvetica,sans-Serif" font-size="11.00">inet[2147483647]</text>
<polygon fill="none" stroke="black" points="27.5,-506 27.5,-528 225.5,-528 225.5,-506 27.5,-506"/>
<text text-anchor="start" x="47.5" y="-514.2" font-family="Helvetica,sans-Serif" font-size="11.00">diag_timestamp_created</text>
<polygon fill="none" stroke="black" points="225.5,-506 225.5,-528 318.5,-528 318.5,-506 225.5,-506"/>
<text text-anchor="start" x="228.5" y="-514.2" font-family="Helvetica,sans-Serif" font-size="11.00">timestamptz[35,6]</text>
<polygon fill="none" stroke="black" points="27.5,-484 27.5,-506 225.5,-506 225.5,-484 27.5,-484"/>
<text text-anchor="start" x="47.5" y="-492.2" font-family="Helvetica,sans-Serif" font-size="11.00">diag_role_created</text>
<polygon fill="none" stroke="black" points="225.5,-484 225.5,-506 318.5,-506 318.5,-484 225.5,-484"/>
<text text-anchor="start" x="228.5" y="-492.2" font-family="Helvetica,sans-Serif" font-size="11.00">text[2147483647]</text>
<polygon fill="none" stroke="black" points="27.5,-462 27.5,-484 225.5,-484 225.5,-462 27.5,-462"/>
<text text-anchor="start" x="47.5" y="-470.2" font-family="Helvetica,sans-Serif" font-size="11.00">diag_timestamp_modified</text>
<polygon fill="none" stroke="black" points="225.5,-462 225.5,-484 318.5,-484 318.5,-462 225.5,-462"/>
<text text-anchor="start" x="228.5" y="-470.2" font-family="Helvetica,sans-Serif" font-size="11.00">timestamptz[35,6]</text>
<polygon fill="none" stroke="black" points="27.5,-440 27.5,-462 225.5,-462 225.5,-440 27.5,-440"/>
<text text-anchor="start" x="47.5" y="-448.2" font-family="Helvetica,sans-Serif" font-size="11.00">diag_wallclock_modified</text>
<polygon fill="none" stroke="black" points="225.5,-440 225.5,-462 318.5,-462 318.5,-440 225.5,-440"/>
<text text-anchor="start" x="228.5" y="-448.2" font-family="Helvetica,sans-Serif" font-size="11.00">timestamptz[35,6]</text>
<polygon fill="none" stroke="black" points="27.5,-418 27.5,-440 225.5,-440 225.5,-418 27.5,-418"/>
<text text-anchor="start" x="47.5" y="-426.2" font-family="Helvetica,sans-Serif" font-size="11.00">diag_role_modified</text>
<polygon fill="none" stroke="black" points="225.5,-418 225.5,-440 318.5,-440 318.5,-418 225.5,-418"/>
<text text-anchor="start" x="228.5" y="-426.2" font-family="Helvetica,sans-Serif" font-size="11.00">text[2147483647]</text>
<polygon fill="none" stroke="black" points="27.5,-396 27.5,-418 225.5,-418 225.5,-396 27.5,-396"/>
<text text-anchor="start" x="47.5" y="-404.2" font-family="Helvetica,sans-Serif" font-size="11.00">diag_row_version</text>
<polygon fill="none" stroke="black" points="225.5,-396 225.5,-418 318.5,-418 318.5,-396 225.5,-396"/>
<text text-anchor="start" x="228.5" y="-404.2" font-family="Helvetica,sans-Serif" font-size="11.00">int8[19]</text>
<polygon fill="none" stroke="black" points="27.5,-374 27.5,-396 225.5,-396 225.5,-374 27.5,-374"/>
<text text-anchor="start" x="47.5" y="-382.2" font-family="Helvetica,sans-Serif" font-size="11.00">diag_update_count</text>
<polygon fill="none" stroke="black" points="225.5,-374 225.5,-396 318.5,-396 318.5,-374 225.5,-374"/>
<text text-anchor="start" x="228.5" y="-382.2" font-family="Helvetica,sans-Serif" font-size="11.00">int8[19]</text>
<polygon fill="#ffffff" stroke="transparent" points="27.5,-356 27.5,-374 130.5,-374 130.5,-356 27.5,-356"/>
<polygon fill="none" stroke="black" points="27.5,-356 27.5,-374 130.5,-374 130.5,-356 27.5,-356"/>
<text text-anchor="start" x="30.5" y="-362.2" font-family="Helvetica,sans-Serif" font-size="11.00">&lt; 0</text>
<polygon fill="#ffffff" stroke="transparent" points="130.5,-356 130.5,-374 225.5,-374 225.5,-356 130.5,-356"/>
<polygon fill="none" stroke="black" points="130.5,-356 130.5,-374 225.5,-374 225.5,-356 130.5,-356"/>
<text text-anchor="start" x="215.5" y="-362.2" font-family="Helvetica,sans-Serif" font-size="11.00"> &#160;</text>
<polygon fill="#ffffff" stroke="transparent" points="225.5,-356 225.5,-374 318.5,-374 318.5,-356 225.5,-356"/>
<polygon fill="none" stroke="black" points="225.5,-356 225.5,-374 318.5,-374 318.5,-356 225.5,-356"/>
<text text-anchor="start" x="299.5" y="-362.2" font-family="Helvetica,sans-Serif" font-size="11.00">0 &gt;</text>
<polygon fill="none" stroke="black" stroke-width="2" points="26,-355 26,-683 319,-683 319,-355 26,-355"/>
</a>
</g>
</g>
<!-- syst_global_password_rules -->
<g id="node4" class="node">
<title>syst_global_password_rules</title>
<g id="a_node4"><a xlink:href="../../tables/syst_global_password_rules.html" xlink:title="syst_global_password_rules" target="_top">
<polygon fill="#ffffff" stroke="transparent" points="8,-705 8,-1145 337,-1145 337,-705 8,-705"/>
<polygon fill="#f5f5f5" stroke="transparent" points="10.5,-1121 10.5,-1143 335.5,-1143 335.5,-1121 10.5,-1121"/>
<polygon fill="none" stroke="black" points="10.5,-1121 10.5,-1143 335.5,-1143 335.5,-1121 10.5,-1121"/>
<text text-anchor="start" x="15.5" y="-1130.2" font-family="Helvetica,sans-Serif" font-weight="bold" font-size="11.00">syst_global_password_rules</text>
<text text-anchor="start" x="300.5" y="-1129.2" font-family="Helvetica,sans-Serif" font-size="11.00">[table]</text>
<polygon fill="none" stroke="black" points="10.5,-1099 10.5,-1121 217.5,-1121 217.5,-1099 10.5,-1099"/>
<image xlink:href="../../images/primaryKeys.png" width="11px" height="12px" preserveAspectRatio="xMinYMin meet" x="15.5" y="-1116"/>
<text text-anchor="start" x="30.5" y="-1107.2" font-family="Helvetica,sans-Serif" font-size="11.00">id</text>
<polygon fill="none" stroke="black" points="217.5,-1099 217.5,-1121 335.5,-1121 335.5,-1099 217.5,-1099"/>
<text text-anchor="start" x="220.5" y="-1107.2" font-family="Helvetica,sans-Serif" font-size="11.00">uuid[2147483647]</text>
<polygon fill="none" stroke="black" points="10.5,-1077 10.5,-1099 217.5,-1099 217.5,-1077 10.5,-1077"/>
<text text-anchor="start" x="30.5" y="-1085.2" font-family="Helvetica,sans-Serif" font-size="11.00">password_length</text>
<polygon fill="none" stroke="black" points="217.5,-1077 217.5,-1099 335.5,-1099 335.5,-1077 217.5,-1077"/>
<text text-anchor="start" x="220.5" y="-1085.2" font-family="Helvetica,sans-Serif" font-size="11.00">int4range[2147483647]</text>
<polygon fill="none" stroke="black" points="10.5,-1055 10.5,-1077 217.5,-1077 217.5,-1055 10.5,-1055"/>
<text text-anchor="start" x="30.5" y="-1063.2" font-family="Helvetica,sans-Serif" font-size="11.00">max_age</text>
<polygon fill="none" stroke="black" points="217.5,-1055 217.5,-1077 335.5,-1077 335.5,-1055 217.5,-1055"/>
<text text-anchor="start" x="220.5" y="-1063.2" font-family="Helvetica,sans-Serif" font-size="11.00">interval[49,6]</text>
<polygon fill="none" stroke="black" points="10.5,-1033 10.5,-1055 217.5,-1055 217.5,-1033 10.5,-1033"/>
<text text-anchor="start" x="30.5" y="-1041.2" font-family="Helvetica,sans-Serif" font-size="11.00">require_upper_case</text>
<polygon fill="none" stroke="black" points="217.5,-1033 217.5,-1055 335.5,-1055 335.5,-1033 217.5,-1033"/>
<text text-anchor="start" x="220.5" y="-1041.2" font-family="Helvetica,sans-Serif" font-size="11.00">int4[10]</text>
<polygon fill="none" stroke="black" points="10.5,-1011 10.5,-1033 217.5,-1033 217.5,-1011 10.5,-1011"/>
<text text-anchor="start" x="30.5" y="-1019.2" font-family="Helvetica,sans-Serif" font-size="11.00">require_lower_case</text>
<polygon fill="none" stroke="black" points="217.5,-1011 217.5,-1033 335.5,-1033 335.5,-1011 217.5,-1011"/>
<text text-anchor="start" x="220.5" y="-1019.2" font-family="Helvetica,sans-Serif" font-size="11.00">int4[10]</text>
<polygon fill="none" stroke="black" points="10.5,-989 10.5,-1011 217.5,-1011 217.5,-989 10.5,-989"/>
<text text-anchor="start" x="30.5" y="-997.2" font-family="Helvetica,sans-Serif" font-size="11.00">require_numbers</text>
<polygon fill="none" stroke="black" points="217.5,-989 217.5,-1011 335.5,-1011 335.5,-989 217.5,-989"/>
<text text-anchor="start" x="220.5" y="-997.2" font-family="Helvetica,sans-Serif" font-size="11.00">int4[10]</text>
<polygon fill="none" stroke="black" points="10.5,-967 10.5,-989 217.5,-989 217.5,-967 10.5,-967"/>
<text text-anchor="start" x="30.5" y="-975.2" font-family="Helvetica,sans-Serif" font-size="11.00">require_symbols</text>
<polygon fill="none" stroke="black" points="217.5,-967 217.5,-989 335.5,-989 335.5,-967 217.5,-967"/>
<text text-anchor="start" x="220.5" y="-975.2" font-family="Helvetica,sans-Serif" font-size="11.00">int4[10]</text>
<polygon fill="none" stroke="black" points="10.5,-945 10.5,-967 217.5,-967 217.5,-945 10.5,-945"/>
<text text-anchor="start" x="30.5" y="-953.2" font-family="Helvetica,sans-Serif" font-size="11.00">disallow_recently_used</text>
<polygon fill="none" stroke="black" points="217.5,-945 217.5,-967 335.5,-967 335.5,-945 217.5,-945"/>
<text text-anchor="start" x="220.5" y="-953.2" font-family="Helvetica,sans-Serif" font-size="11.00">int4[10]</text>
<polygon fill="none" stroke="black" points="10.5,-923 10.5,-945 217.5,-945 217.5,-923 10.5,-923"/>
<text text-anchor="start" x="30.5" y="-931.2" font-family="Helvetica,sans-Serif" font-size="11.00">disallow_compromised</text>
<polygon fill="none" stroke="black" points="217.5,-923 217.5,-945 335.5,-945 335.5,-923 217.5,-923"/>
<text text-anchor="start" x="220.5" y="-931.2" font-family="Helvetica,sans-Serif" font-size="11.00">bool[1]</text>
<polygon fill="none" stroke="black" points="10.5,-901 10.5,-923 217.5,-923 217.5,-901 10.5,-901"/>
<text text-anchor="start" x="30.5" y="-909.2" font-family="Helvetica,sans-Serif" font-size="11.00">require_mfa</text>
<polygon fill="none" stroke="black" points="217.5,-901 217.5,-923 335.5,-923 335.5,-901 217.5,-901"/>
<text text-anchor="start" x="220.5" y="-909.2" font-family="Helvetica,sans-Serif" font-size="11.00">bool[1]</text>
<polygon fill="none" stroke="black" points="10.5,-879 10.5,-901 217.5,-901 217.5,-879 10.5,-879"/>
<text text-anchor="start" x="30.5" y="-887.2" font-family="Helvetica,sans-Serif" font-size="11.00">allowed_mfa_types</text>
<polygon fill="none" stroke="black" points="217.5,-879 217.5,-901 335.5,-901 335.5,-879 217.5,-879"/>
<text text-anchor="start" x="220.5" y="-887.2" font-family="Helvetica,sans-Serif" font-size="11.00">_text[2147483647]</text>
<polygon fill="none" stroke="black" points="10.5,-857 10.5,-879 217.5,-879 217.5,-857 10.5,-857"/>
<text text-anchor="start" x="30.5" y="-865.2" font-family="Helvetica,sans-Serif" font-size="11.00">diag_timestamp_created</text>
<polygon fill="none" stroke="black" points="217.5,-857 217.5,-879 335.5,-879 335.5,-857 217.5,-857"/>
<text text-anchor="start" x="220.5" y="-865.2" font-family="Helvetica,sans-Serif" font-size="11.00">timestamptz[35,6]</text>
<polygon fill="none" stroke="black" points="10.5,-835 10.5,-857 217.5,-857 217.5,-835 10.5,-835"/>
<text text-anchor="start" x="30.5" y="-843.2" font-family="Helvetica,sans-Serif" font-size="11.00">diag_role_created</text>
<polygon fill="none" stroke="black" points="217.5,-835 217.5,-857 335.5,-857 335.5,-835 217.5,-835"/>
<text text-anchor="start" x="220.5" y="-843.2" font-family="Helvetica,sans-Serif" font-size="11.00">text[2147483647]</text>
<polygon fill="none" stroke="black" points="10.5,-813 10.5,-835 217.5,-835 217.5,-813 10.5,-813"/>
<text text-anchor="start" x="30.5" y="-821.2" font-family="Helvetica,sans-Serif" font-size="11.00">diag_timestamp_modified</text>
<polygon fill="none" stroke="black" points="217.5,-813 217.5,-835 335.5,-835 335.5,-813 217.5,-813"/>
<text text-anchor="start" x="220.5" y="-821.2" font-family="Helvetica,sans-Serif" font-size="11.00">timestamptz[35,6]</text>
<polygon fill="none" stroke="black" points="10.5,-791 10.5,-813 217.5,-813 217.5,-791 10.5,-791"/>
<text text-anchor="start" x="30.5" y="-799.2" font-family="Helvetica,sans-Serif" font-size="11.00">diag_wallclock_modified</text>
<polygon fill="none" stroke="black" points="217.5,-791 217.5,-813 335.5,-813 335.5,-791 217.5,-791"/>
<text text-anchor="start" x="220.5" y="-799.2" font-family="Helvetica,sans-Serif" font-size="11.00">timestamptz[35,6]</text>
<polygon fill="none" stroke="black" points="10.5,-769 10.5,-791 217.5,-791 217.5,-769 10.5,-769"/>
<text text-anchor="start" x="30.5" y="-777.2" font-family="Helvetica,sans-Serif" font-size="11.00">diag_role_modified</text>
<polygon fill="none" stroke="black" points="217.5,-769 217.5,-791 335.5,-791 335.5,-769 217.5,-769"/>
<text text-anchor="start" x="220.5" y="-777.2" font-family="Helvetica,sans-Serif" font-size="11.00">text[2147483647]</text>
<polygon fill="none" stroke="black" points="10.5,-747 10.5,-769 217.5,-769 217.5,-747 10.5,-747"/>
<text text-anchor="start" x="30.5" y="-755.2" font-family="Helvetica,sans-Serif" font-size="11.00">diag_row_version</text>
<polygon fill="none" stroke="black" points="217.5,-747 217.5,-769 335.5,-769 335.5,-747 217.5,-747"/>
<text text-anchor="start" x="220.5" y="-755.2" font-family="Helvetica,sans-Serif" font-size="11.00">int8[19]</text>
<polygon fill="none" stroke="black" points="10.5,-725 10.5,-747 217.5,-747 217.5,-725 10.5,-725"/>
<text text-anchor="start" x="30.5" y="-733.2" font-family="Helvetica,sans-Serif" font-size="11.00">diag_update_count</text>
<polygon fill="none" stroke="black" points="217.5,-725 217.5,-747 335.5,-747 335.5,-725 217.5,-725"/>
<text text-anchor="start" x="220.5" y="-733.2" font-family="Helvetica,sans-Serif" font-size="11.00">int8[19]</text>
<polygon fill="#ffffff" stroke="transparent" points="10.5,-707 10.5,-725 118.5,-725 118.5,-707 10.5,-707"/>
<polygon fill="none" stroke="black" points="10.5,-707 10.5,-725 118.5,-725 118.5,-707 10.5,-707"/>
<text text-anchor="start" x="13.5" y="-713.2" font-family="Helvetica,sans-Serif" font-size="11.00">&lt; 0</text>
<polygon fill="#ffffff" stroke="transparent" points="118.5,-707 118.5,-725 217.5,-725 217.5,-707 118.5,-707"/>
<polygon fill="none" stroke="black" points="118.5,-707 118.5,-725 217.5,-725 217.5,-707 118.5,-707"/>
<text text-anchor="start" x="207.5" y="-713.2" font-family="Helvetica,sans-Serif" font-size="11.00"> &#160;</text>
<polygon fill="#ffffff" stroke="transparent" points="217.5,-707 217.5,-725 335.5,-725 335.5,-707 217.5,-707"/>
<polygon fill="none" stroke="black" points="217.5,-707 217.5,-725 335.5,-725 335.5,-707 217.5,-707"/>
<text text-anchor="start" x="316.5" y="-713.2" font-family="Helvetica,sans-Serif" font-size="11.00">0 &gt;</text>
<polygon fill="none" stroke="black" stroke-width="2" points="9,-706 9,-1144 336,-1144 336,-706 9,-706"/>
</a>
</g>
</g>
</g>
</svg>
