<?xml version="1.0" encoding="UTF-8" standalone="no"?>
<!DOCTYPE svg PUBLIC "-//W3C//DTD SVG 1.1//EN"
 "http://www.w3.org/Graphics/SVG/1.1/DTD/svg11.dtd">
<!-- Generated by graphviz version 2.43.0 (0)
 -->
<!-- Title: orphans Pages: 1 -->
<svg width="371pt" height="1157pt"
 viewBox="0.00 0.00 371.00 1157.00" xmlns="http://www.w3.org/2000/svg" xmlns:xlink="http://www.w3.org/1999/xlink">
<g id="graph0" class="graph" transform="scale(1 1) rotate(0) translate(4 1153)">
<title>orphans</title>
<polygon fill="#ffffff" stroke="transparent" points="-4,4 -4,-1153 367,-1153 367,4 -4,4"/>
<!-- syst_disallowed_hosts -->
<g id="node1" class="node">
<title>syst_disallowed_hosts</title>
<g id="a_node1"><a xlink:href="../../tables/syst_disallowed_hosts.html" xlink:title="syst_disallowed_hosts" target="_top">
<polygon fill="#ffffff" stroke="transparent" points="28,-4 28,-246 335,-246 335,-4 28,-4"/>
<polygon fill="#f5f5f5" stroke="transparent" points="30.5,-222 30.5,-244 333.5,-244 333.5,-222 30.5,-222"/>
<polygon fill="none" stroke="black" points="30.5,-222 30.5,-244 333.5,-244 333.5,-222 30.5,-222"/>
<text text-anchor="start" x="35.5" y="-231.2" font-family="Helvetica,sans-Serif" font-weight="bold" font-size="11.00">syst_disallowed_hosts</text>
<text text-anchor="start" x="291.5" y="-230.2" font-family="Helvetica,sans-Serif" font-size="11.00">[table]</text>
<polygon fill="none" stroke="black" points="30.5,-200 30.5,-222 224.5,-222 224.5,-200 30.5,-200"/>
<image xlink:href="../../images/primaryKeys.png" width="11px" height="12px" preserveAspectRatio="xMinYMin meet" x="35.5" y="-217"/>
<text text-anchor="start" x="50.5" y="-208.2" font-family="Helvetica,sans-Serif" font-size="11.00">id</text>
<polygon fill="none" stroke="black" points="224.5,-200 224.5,-222 333.5,-222 333.5,-200 224.5,-200"/>
<text text-anchor="start" x="227.5" y="-208.2" font-family="Helvetica,sans-Serif" font-size="11.00">uuid[2147483647]</text>
<polygon fill="#ffffff" stroke="transparent" points="30.5,-178 30.5,-200 224.5,-200 224.5,-178 30.5,-178"/>
<polygon fill="none" stroke="black" points="30.5,-178 30.5,-200 224.5,-200 224.5,-178 30.5,-178"/>
<text text-anchor="start" x="50.5" y="-186.2" font-family="Helvetica,sans-Serif" font-size="11.00">host_address</text>
<polygon fill="none" stroke="black" points="224.5,-178 224.5,-200 333.5,-200 333.5,-178 224.5,-178"/>
<text text-anchor="start" x="227.5" y="-186.2" font-family="Helvetica,sans-Serif" font-size="11.00">inet[2147483647]</text>
<polygon fill="none" stroke="black" points="30.5,-156 30.5,-178 224.5,-178 224.5,-156 30.5,-156"/>
<text text-anchor="start" x="50.5" y="-164.2" font-family="Helvetica,sans-Serif" font-size="11.00">diag_timestamp_created</text>
<polygon fill="none" stroke="black" points="224.5,-156 224.5,-178 333.5,-178 333.5,-156 224.5,-156"/>
<text text-anchor="start" x="227.5" y="-164.2" font-family="Helvetica,sans-Serif" font-size="11.00">timestamptz[35,6]</text>
<polygon fill="none" stroke="black" points="30.5,-134 30.5,-156 224.5,-156 224.5,-134 30.5,-134"/>
<text text-anchor="start" x="50.5" y="-142.2" font-family="Helvetica,sans-Serif" font-size="11.00">diag_role_created</text>
<polygon fill="none" stroke="black" points="224.5,-134 224.5,-156 333.5,-156 333.5,-134 224.5,-134"/>
<text text-anchor="start" x="227.5" y="-142.2" font-family="Helvetica,sans-Serif" font-size="11.00">text[2147483647]</text>
<polygon fill="none" stroke="black" points="30.5,-112 30.5,-134 224.5,-134 224.5,-112 30.5,-112"/>
<text text-anchor="start" x="50.5" y="-120.2" font-family="Helvetica,sans-Serif" font-size="11.00">diag_timestamp_modified</text>
<polygon fill="none" stroke="black" points="224.5,-112 224.5,-134 333.5,-134 333.5,-112 224.5,-112"/>
<text text-anchor="start" x="227.5" y="-120.2" font-family="Helvetica,sans-Serif" font-size="11.00">timestamptz[35,6]</text>
<polygon fill="none" stroke="black" points="30.5,-90 30.5,-112 224.5,-112 224.5,-90 30.5,-90"/>
<text text-anchor="start" x="50.5" y="-98.2" font-family="Helvetica,sans-Serif" font-size="11.00">diag_wallclock_modified</text>
<polygon fill="none" stroke="black" points="224.5,-90 224.5,-112 333.5,-112 333.5,-90 224.5,-90"/>
<text text-anchor="start" x="227.5" y="-98.2" font-family="Helvetica,sans-Serif" font-size="11.00">timestamptz[35,6]</text>
<polygon fill="none" stroke="black" points="30.5,-68 30.5,-90 224.5,-90 224.5,-68 30.5,-68"/>
<text text-anchor="start" x="50.5" y="-76.2" font-family="Helvetica,sans-Serif" font-size="11.00">diag_role_modified</text>
<polygon fill="none" stroke="black" points="224.5,-68 224.5,-90 333.5,-90 333.5,-68 224.5,-68"/>
<text text-anchor="start" x="227.5" y="-76.2" font-family="Helvetica,sans-Serif" font-size="11.00">text[2147483647]</text>
<polygon fill="none" stroke="black" points="30.5,-46 30.5,-68 224.5,-68 224.5,-46 30.5,-46"/>
<text text-anchor="start" x="50.5" y="-54.2" font-family="Helvetica,sans-Serif" font-size="11.00">diag_row_version</text>
<polygon fill="none" stroke="black" points="224.5,-46 224.5,-68 333.5,-68 333.5,-46 224.5,-46"/>
<text text-anchor="start" x="227.5" y="-54.2" font-family="Helvetica,sans-Serif" font-size="11.00">int8[19]</text>
<polygon fill="none" stroke="black" points="30.5,-24 30.5,-46 224.5,-46 224.5,-24 30.5,-24"/>
<text text-anchor="start" x="50.5" y="-32.2" font-family="Helvetica,sans-Serif" font-size="11.00">diag_update_count</text>
<polygon fill="none" stroke="black" points="224.5,-24 224.5,-46 333.5,-46 333.5,-24 224.5,-24"/>
<text text-anchor="start" x="227.5" y="-32.2" font-family="Helvetica,sans-Serif" font-size="11.00">int8[19]</text>
<polygon fill="#ffffff" stroke="transparent" points="30.5,-6 30.5,-24 133.5,-24 133.5,-6 30.5,-6"/>
<polygon fill="none" stroke="black" points="30.5,-6 30.5,-24 133.5,-24 133.5,-6 30.5,-6"/>
<text text-anchor="start" x="33.5" y="-12.2" font-family="Helvetica,sans-Serif" font-size="11.00">&lt; 0</text>
<polygon fill="#ffffff" stroke="transparent" points="133.5,-6 133.5,-24 224.5,-24 224.5,-6 133.5,-6"/>
<polygon fill="none" stroke="black" points="133.5,-6 133.5,-24 224.5,-24 224.5,-6 133.5,-6"/>
<text text-anchor="start" x="213.5" y="-12.2" font-family="Helvetica,sans-Serif" font-size="11.00"> &#160;</text>
<polygon fill="#ffffff" stroke="transparent" points="224.5,-6 224.5,-24 333.5,-24 333.5,-6 224.5,-6"/>
<polygon fill="none" stroke="black" points="224.5,-6 224.5,-24 333.5,-24 333.5,-6 224.5,-6"/>
<text text-anchor="start" x="310.5" y="-12.2" font-family="Helvetica,sans-Serif" font-size="11.00">0 &gt;</text>
<polygon fill="none" stroke="black" stroke-width="2" points="29,-5 29,-245 334,-245 334,-5 29,-5"/>
</a>
</g>
</g>
<!-- syst_disallowed_passwords -->
<g id="node2" class="node">
<title>syst_disallowed_passwords</title>
<g id="a_node2"><a xlink:href="../../tables/syst_disallowed_passwords.html" xlink:title="syst_disallowed_passwords" target="_top">
<polygon fill="#ffffff" stroke="transparent" points="19.5,-267 19.5,-333 343.5,-333 343.5,-267 19.5,-267"/>
<polygon fill="#f5f5f5" stroke="transparent" points="21.5,-309 21.5,-331 341.5,-331 341.5,-309 21.5,-309"/>
<polygon fill="none" stroke="black" points="21.5,-309 21.5,-331 341.5,-331 341.5,-309 21.5,-309"/>
<text text-anchor="start" x="26.5" y="-318.2" font-family="Helvetica,sans-Serif" font-weight="bold" font-size="11.00">syst_disallowed_passwords</text>
<text text-anchor="start" x="299.5" y="-317.2" font-family="Helvetica,sans-Serif" font-size="11.00">[table]</text>
<polygon fill="none" stroke="black" points="21.5,-287 21.5,-309 226.5,-309 226.5,-287 21.5,-287"/>
<image xlink:href="../../images/primaryKeys.png" width="11px" height="12px" preserveAspectRatio="xMinYMin meet" x="26.5" y="-304"/>
<text text-anchor="start" x="41.5" y="-295.2" font-family="Helvetica,sans-Serif" font-size="11.00">password_hash</text>
<polygon fill="none" stroke="black" points="226.5,-287 226.5,-309 341.5,-309 341.5,-287 226.5,-287"/>
<text text-anchor="start" x="229.5" y="-295.2" font-family="Helvetica,sans-Serif" font-size="11.00">bytea[2147483647]</text>
<polygon fill="#ffffff" stroke="transparent" points="21.5,-269 21.5,-287 129.5,-287 129.5,-269 21.5,-269"/>
<polygon fill="none" stroke="black" points="21.5,-269 21.5,-287 129.5,-287 129.5,-269 21.5,-269"/>
<text text-anchor="start" x="24.5" y="-275.2" font-family="Helvetica,sans-Serif" font-size="11.00">&lt; 0</text>
<polygon fill="#ffffff" stroke="transparent" points="129.5,-269 129.5,-287 226.5,-287 226.5,-269 129.5,-269"/>
<polygon fill="none" stroke="black" points="129.5,-269 129.5,-287 226.5,-287 226.5,-269 129.5,-269"/>
<text text-anchor="start" x="215.5" y="-275.2" font-family="Helvetica,sans-Serif" font-size="11.00"> &#160;</text>
<polygon fill="#ffffff" stroke="transparent" points="226.5,-269 226.5,-287 341.5,-287 341.5,-269 226.5,-269"/>
<polygon fill="none" stroke="black" points="226.5,-269 226.5,-287 341.5,-287 341.5,-269 226.5,-269"/>
<text text-anchor="start" x="318.5" y="-275.2" font-family="Helvetica,sans-Serif" font-size="11.00">0 &gt;</text>
<polygon fill="none" stroke="black" stroke-width="2" points="20.5,-268 20.5,-332 342.5,-332 342.5,-268 20.5,-268"/>
</a>
</g>
</g>
<!-- syst_global_network_rules -->
<g id="node3" class="node">
<title>syst_global_network_rules</title>
<g id="a_node3"><a xlink:href="../../tables/syst_global_network_rules.html" xlink:title="syst_global_network_rules" target="_top">
<polygon fill="#ffffff" stroke="transparent" points="26,-354 26,-684 337,-684 337,-354 26,-354"/>
<polygon fill="#f5f5f5" stroke="transparent" points="28.5,-660 28.5,-682 335.5,-682 335.5,-660 28.5,-660"/>
<polygon fill="none" stroke="black" points="28.5,-660 28.5,-682 335.5,-682 335.5,-660 28.5,-660"/>
<text text-anchor="start" x="33.5" y="-669.2" font-family="Helvetica,sans-Serif" font-weight="bold" font-size="11.00">syst_global_network_rules</text>
<text text-anchor="start" x="293.5" y="-668.2" font-family="Helvetica,sans-Serif" font-size="11.00">[table]</text>
<polygon fill="none" stroke="black" points="28.5,-638 28.5,-660 226.5,-660 226.5,-638 28.5,-638"/>
<image xlink:href="../../images/primaryKeys.png" width="11px" height="12px" preserveAspectRatio="xMinYMin meet" x="33.5" y="-655"/>
<text text-anchor="start" x="48.5" y="-646.2" font-family="Helvetica,sans-Serif" font-size="11.00">id</text>
<polygon fill="none" stroke="black" points="226.5,-638 226.5,-660 335.5,-660 335.5,-638 226.5,-638"/>
<text text-anchor="start" x="229.5" y="-646.2" font-family="Helvetica,sans-Serif" font-size="11.00">uuid[2147483647]</text>
<polygon fill="#ffffff" stroke="transparent" points="28.5,-616 28.5,-638 226.5,-638 226.5,-616 28.5,-616"/>
<polygon fill="none" stroke="black" points="28.5,-616 28.5,-638 226.5,-638 226.5,-616 28.5,-616"/>
<text text-anchor="start" x="48.5" y="-624.2" font-family="Helvetica,sans-Serif" font-size="11.00">ordering</text>
<polygon fill="none" stroke="black" points="226.5,-616 226.5,-638 335.5,-638 335.5,-616 226.5,-616"/>
<text text-anchor="start" x="229.5" y="-624.2" font-family="Helvetica,sans-Serif" font-size="11.00">int4[10]</text>
<polygon fill="none" stroke="black" points="28.5,-594 28.5,-616 226.5,-616 226.5,-594 28.5,-594"/>
<text text-anchor="start" x="48.5" y="-602.2" font-family="Helvetica,sans-Serif" font-size="11.00">functional_type</text>
<polygon fill="none" stroke="black" points="226.5,-594 226.5,-616 335.5,-616 335.5,-594 226.5,-594"/>
<text text-anchor="start" x="229.5" y="-602.2" font-family="Helvetica,sans-Serif" font-size="11.00">text[2147483647]</text>
<polygon fill="none" stroke="black" points="28.5,-572 28.5,-594 226.5,-594 226.5,-572 28.5,-572"/>
<text text-anchor="start" x="48.5" y="-580.2" font-family="Helvetica,sans-Serif" font-size="11.00">ip_host_or_network</text>
<polygon fill="none" stroke="black" points="226.5,-572 226.5,-594 335.5,-594 335.5,-572 226.5,-572"/>
<text text-anchor="start" x="229.5" y="-580.2" font-family="Helvetica,sans-Serif" font-size="11.00">inet[2147483647]</text>
<polygon fill="none" stroke="black" points="28.5,-550 28.5,-572 226.5,-572 226.5,-550 28.5,-550"/>
<text text-anchor="start" x="48.5" y="-558.2" font-family="Helvetica,sans-Serif" font-size="11.00">ip_host_range_lower</text>
<polygon fill="none" stroke="black" points="226.5,-550 226.5,-572 335.5,-572 335.5,-550 226.5,-550"/>
<text text-anchor="start" x="229.5" y="-558.2" font-family="Helvetica,sans-Serif" font-size="11.00">inet[2147483647]</text>
<polygon fill="none" stroke="black" points="28.5,-528 28.5,-550 226.5,-550 226.5,-528 28.5,-528"/>
<text text-anchor="start" x="48.5" y="-536.2" font-family="Helvetica,sans-Serif" font-size="11.00">ip_host_range_upper</text>
<polygon fill="none" stroke="black" points="226.5,-528 226.5,-550 335.5,-550 335.5,-528 226.5,-528"/>
<text text-anchor="start" x="229.5" y="-536.2" font-family="Helvetica,sans-Serif" font-size="11.00">inet[2147483647]</text>
<polygon fill="none" stroke="black" points="28.5,-506 28.5,-528 226.5,-528 226.5,-506 28.5,-506"/>
<text text-anchor="start" x="48.5" y="-514.2" font-family="Helvetica,sans-Serif" font-size="11.00">diag_timestamp_created</text>
<polygon fill="none" stroke="black" points="226.5,-506 226.5,-528 335.5,-528 335.5,-506 226.5,-506"/>
<text text-anchor="start" x="229.5" y="-514.2" font-family="Helvetica,sans-Serif" font-size="11.00">timestamptz[35,6]</text>
<polygon fill="none" stroke="black" points="28.5,-484 28.5,-506 226.5,-506 226.5,-484 28.5,-484"/>
<text text-anchor="start" x="48.5" y="-492.2" font-family="Helvetica,sans-Serif" font-size="11.00">diag_role_created</text>
<polygon fill="none" stroke="black" points="226.5,-484 226.5,-506 335.5,-506 335.5,-484 226.5,-484"/>
<text text-anchor="start" x="229.5" y="-492.2" font-family="Helvetica,sans-Serif" font-size="11.00">text[2147483647]</text>
<polygon fill="none" stroke="black" points="28.5,-462 28.5,-484 226.5,-484 226.5,-462 28.5,-462"/>
<text text-anchor="start" x="48.5" y="-470.2" font-family="Helvetica,sans-Serif" font-size="11.00">diag_timestamp_modified</text>
<polygon fill="none" stroke="black" points="226.5,-462 226.5,-484 335.5,-484 335.5,-462 226.5,-462"/>
<text text-anchor="start" x="229.5" y="-470.2" font-family="Helvetica,sans-Serif" font-size="11.00">timestamptz[35,6]</text>
<polygon fill="none" stroke="black" points="28.5,-440 28.5,-462 226.5,-462 226.5,-440 28.5,-440"/>
<text text-anchor="start" x="48.5" y="-448.2" font-family="Helvetica,sans-Serif" font-size="11.00">diag_wallclock_modified</text>
<polygon fill="none" stroke="black" points="226.5,-440 226.5,-462 335.5,-462 335.5,-440 226.5,-440"/>
<text text-anchor="start" x="229.5" y="-448.2" font-family="Helvetica,sans-Serif" font-size="11.00">timestamptz[35,6]</text>
<polygon fill="none" stroke="black" points="28.5,-418 28.5,-440 226.5,-440 226.5,-418 28.5,-418"/>
<text text-anchor="start" x="48.5" y="-426.2" font-family="Helvetica,sans-Serif" font-size="11.00">diag_role_modified</text>
<polygon fill="none" stroke="black" points="226.5,-418 226.5,-440 335.5,-440 335.5,-418 226.5,-418"/>
<text text-anchor="start" x="229.5" y="-426.2" font-family="Helvetica,sans-Serif" font-size="11.00">text[2147483647]</text>
<polygon fill="none" stroke="black" points="28.5,-396 28.5,-418 226.5,-418 226.5,-396 28.5,-396"/>
<text text-anchor="start" x="48.5" y="-404.2" font-family="Helvetica,sans-Serif" font-size="11.00">diag_row_version</text>
<polygon fill="none" stroke="black" points="226.5,-396 226.5,-418 335.5,-418 335.5,-396 226.5,-396"/>
<text text-anchor="start" x="229.5" y="-404.2" font-family="Helvetica,sans-Serif" font-size="11.00">int8[19]</text>
<polygon fill="none" stroke="black" points="28.5,-374 28.5,-396 226.5,-396 226.5,-374 28.5,-374"/>
<text text-anchor="start" x="48.5" y="-382.2" font-family="Helvetica,sans-Serif" font-size="11.00">diag_update_count</text>
<polygon fill="none" stroke="black" points="226.5,-374 226.5,-396 335.5,-396 335.5,-374 226.5,-374"/>
<text text-anchor="start" x="229.5" y="-382.2" font-family="Helvetica,sans-Serif" font-size="11.00">int8[19]</text>
<polygon fill="#ffffff" stroke="transparent" points="28.5,-356 28.5,-374 133.5,-374 133.5,-356 28.5,-356"/>
<polygon fill="none" stroke="black" points="28.5,-356 28.5,-374 133.5,-374 133.5,-356 28.5,-356"/>
<text text-anchor="start" x="31.5" y="-362.2" font-family="Helvetica,sans-Serif" font-size="11.00">&lt; 0</text>
<polygon fill="#ffffff" stroke="transparent" points="133.5,-356 133.5,-374 226.5,-374 226.5,-356 133.5,-356"/>
<polygon fill="none" stroke="black" points="133.5,-356 133.5,-374 226.5,-374 226.5,-356 133.5,-356"/>
<text text-anchor="start" x="215.5" y="-362.2" font-family="Helvetica,sans-Serif" font-size="11.00"> &#160;</text>
<polygon fill="#ffffff" stroke="transparent" points="226.5,-356 226.5,-374 335.5,-374 335.5,-356 226.5,-356"/>
<polygon fill="none" stroke="black" points="226.5,-356 226.5,-374 335.5,-374 335.5,-356 226.5,-356"/>
<text text-anchor="start" x="312.5" y="-362.2" font-family="Helvetica,sans-Serif" font-size="11.00">0 &gt;</text>
<polygon fill="none" stroke="black" stroke-width="2" points="27,-355 27,-683 336,-683 336,-355 27,-355"/>
</a>
</g>
</g>
<!-- syst_global_password_rules -->
<g id="node4" class="node">
<title>syst_global_password_rules</title>
<g id="a_node4"><a xlink:href="../../tables/syst_global_password_rules.html" xlink:title="syst_global_password_rules" target="_top">
<polygon fill="#ffffff" stroke="transparent" points="8,-705 8,-1145 355,-1145 355,-705 8,-705"/>
<polygon fill="#f5f5f5" stroke="transparent" points="10.5,-1121 10.5,-1143 353.5,-1143 353.5,-1121 10.5,-1121"/>
<polygon fill="none" stroke="black" points="10.5,-1121 10.5,-1143 353.5,-1143 353.5,-1121 10.5,-1121"/>
<text text-anchor="start" x="15.5" y="-1130.2" font-family="Helvetica,sans-Serif" font-weight="bold" font-size="11.00">syst_global_password_rules</text>
<text text-anchor="start" x="311.5" y="-1129.2" font-family="Helvetica,sans-Serif" font-size="11.00">[table]</text>
<polygon fill="none" stroke="black" points="10.5,-1099 10.5,-1121 217.5,-1121 217.5,-1099 10.5,-1099"/>
<image xlink:href="../../images/primaryKeys.png" width="11px" height="12px" preserveAspectRatio="xMinYMin meet" x="15.5" y="-1116"/>
<text text-anchor="start" x="30.5" y="-1107.2" font-family="Helvetica,sans-Serif" font-size="11.00">id</text>
<polygon fill="none" stroke="black" points="217.5,-1099 217.5,-1121 353.5,-1121 353.5,-1099 217.5,-1099"/>
<text text-anchor="start" x="220.5" y="-1107.2" font-family="Helvetica,sans-Serif" font-size="11.00">uuid[2147483647]</text>
<polygon fill="none" stroke="black" points="10.5,-1077 10.5,-1099 217.5,-1099 217.5,-1077 10.5,-1077"/>
<text text-anchor="start" x="30.5" y="-1085.2" font-family="Helvetica,sans-Serif" font-size="11.00">password_length</text>
<polygon fill="none" stroke="black" points="217.5,-1077 217.5,-1099 353.5,-1099 353.5,-1077 217.5,-1077"/>
<text text-anchor="start" x="220.5" y="-1085.2" font-family="Helvetica,sans-Serif" font-size="11.00">int4range[2147483647]</text>
<polygon fill="none" stroke="black" points="10.5,-1055 10.5,-1077 217.5,-1077 217.5,-1055 10.5,-1055"/>
<text text-anchor="start" x="30.5" y="-1063.2" font-family="Helvetica,sans-Serif" font-size="11.00">max_age</text>
<polygon fill="none" stroke="black" points="217.5,-1055 217.5,-1077 353.5,-1077 353.5,-1055 217.5,-1055"/>
<text text-anchor="start" x="220.5" y="-1063.2" font-family="Helvetica,sans-Serif" font-size="11.00">interval[49,6]</text>
<polygon fill="none" stroke="black" points="10.5,-1033 10.5,-1055 217.5,-1055 217.5,-1033 10.5,-1033"/>
<text text-anchor="start" x="30.5" y="-1041.2" font-family="Helvetica,sans-Serif" font-size="11.00">require_upper_case</text>
<polygon fill="none" stroke="black" points="217.5,-1033 217.5,-1055 353.5,-1055 353.5,-1033 217.5,-1033"/>
<text text-anchor="start" x="220.5" y="-1041.2" font-family="Helvetica,sans-Serif" font-size="11.00">int4[10]</text>
<polygon fill="none" stroke="black" points="10.5,-1011 10.5,-1033 217.5,-1033 217.5,-1011 10.5,-1011"/>
<text text-anchor="start" x="30.5" y="-1019.2" font-family="Helvetica,sans-Serif" font-size="11.00">require_lower_case</text>
<polygon fill="none" stroke="black" points="217.5,-1011 217.5,-1033 353.5,-1033 353.5,-1011 217.5,-1011"/>
<text text-anchor="start" x="220.5" y="-1019.2" font-family="Helvetica,sans-Serif" font-size="11.00">int4[10]</text>
<polygon fill="none" stroke="black" points="10.5,-989 10.5,-1011 217.5,-1011 217.5,-989 10.5,-989"/>
<text text-anchor="start" x="30.5" y="-997.2" font-family="Helvetica,sans-Serif" font-size="11.00">require_numbers</text>
<polygon fill="none" stroke="black" points="217.5,-989 217.5,-1011 353.5,-1011 353.5,-989 217.5,-989"/>
<text text-anchor="start" x="220.5" y="-997.2" font-family="Helvetica,sans-Serif" font-size="11.00">int4[10]</text>
<polygon fill="none" stroke="black" points="10.5,-967 10.5,-989 217.5,-989 217.5,-967 10.5,-967"/>
<text text-anchor="start" x="30.5" y="-975.2" font-family="Helvetica,sans-Serif" font-size="11.00">require_symbols</text>
<polygon fill="none" stroke="black" points="217.5,-967 217.5,-989 353.5,-989 353.5,-967 217.5,-967"/>
<text text-anchor="start" x="220.5" y="-975.2" font-family="Helvetica,sans-Serif" font-size="11.00">int4[10]</text>
<polygon fill="none" stroke="black" points="10.5,-945 10.5,-967 217.5,-967 217.5,-945 10.5,-945"/>
<text text-anchor="start" x="30.5" y="-953.2" font-family="Helvetica,sans-Serif" font-size="11.00">disallow_recently_used</text>
<polygon fill="none" stroke="black" points="217.5,-945 217.5,-967 353.5,-967 353.5,-945 217.5,-945"/>
<text text-anchor="start" x="220.5" y="-953.2" font-family="Helvetica,sans-Serif" font-size="11.00">int4[10]</text>
<polygon fill="none" stroke="black" points="10.5,-923 10.5,-945 217.5,-945 217.5,-923 10.5,-923"/>
<text text-anchor="start" x="30.5" y="-931.2" font-family="Helvetica,sans-Serif" font-size="11.00">disallow_compromised</text>
<polygon fill="none" stroke="black" points="217.5,-923 217.5,-945 353.5,-945 353.5,-923 217.5,-923"/>
<text text-anchor="start" x="220.5" y="-931.2" font-family="Helvetica,sans-Serif" font-size="11.00">bool[1]</text>
<polygon fill="none" stroke="black" points="10.5,-901 10.5,-923 217.5,-923 217.5,-901 10.5,-901"/>
<text text-anchor="start" x="30.5" y="-909.2" font-family="Helvetica,sans-Serif" font-size="11.00">require_mfa</text>
<polygon fill="none" stroke="black" points="217.5,-901 217.5,-923 353.5,-923 353.5,-901 217.5,-901"/>
<text text-anchor="start" x="220.5" y="-909.2" font-family="Helvetica,sans-Serif" font-size="11.00">bool[1]</text>
<polygon fill="none" stroke="black" points="10.5,-879 10.5,-901 217.5,-901 217.5,-879 10.5,-879"/>
<text text-anchor="start" x="30.5" y="-887.2" font-family="Helvetica,sans-Serif" font-size="11.00">allowed_mfa_types</text>
<polygon fill="none" stroke="black" points="217.5,-879 217.5,-901 353.5,-901 353.5,-879 217.5,-879"/>
<text text-anchor="start" x="220.5" y="-887.2" font-family="Helvetica,sans-Serif" font-size="11.00">_text[2147483647]</text>
<polygon fill="none" stroke="black" points="10.5,-857 10.5,-879 217.5,-879 217.5,-857 10.5,-857"/>
<text text-anchor="start" x="30.5" y="-865.2" font-family="Helvetica,sans-Serif" font-size="11.00">diag_timestamp_created</text>
<polygon fill="none" stroke="black" points="217.5,-857 217.5,-879 353.5,-879 353.5,-857 217.5,-857"/>
<text text-anchor="start" x="220.5" y="-865.2" font-family="Helvetica,sans-Serif" font-size="11.00">timestamptz[35,6]</text>
<polygon fill="none" stroke="black" points="10.5,-835 10.5,-857 217.5,-857 217.5,-835 10.5,-835"/>
<text text-anchor="start" x="30.5" y="-843.2" font-family="Helvetica,sans-Serif" font-size="11.00">diag_role_created</text>
<polygon fill="none" stroke="black" points="217.5,-835 217.5,-857 353.5,-857 353.5,-835 217.5,-835"/>
<text text-anchor="start" x="220.5" y="-843.2" font-family="Helvetica,sans-Serif" font-size="11.00">text[2147483647]</text>
<polygon fill="none" stroke="black" points="10.5,-813 10.5,-835 217.5,-835 217.5,-813 10.5,-813"/>
<text text-anchor="start" x="30.5" y="-821.2" font-family="Helvetica,sans-Serif" font-size="11.00">diag_timestamp_modified</text>
<polygon fill="none" stroke="black" points="217.5,-813 217.5,-835 353.5,-835 353.5,-813 217.5,-813"/>
<text text-anchor="start" x="220.5" y="-821.2" font-family="Helvetica,sans-Serif" font-size="11.00">timestamptz[35,6]</text>
<polygon fill="none" stroke="black" points="10.5,-791 10.5,-813 217.5,-813 217.5,-791 10.5,-791"/>
<text text-anchor="start" x="30.5" y="-799.2" font-family="Helvetica,sans-Serif" font-size="11.00">diag_wallclock_modified</text>
<polygon fill="none" stroke="black" points="217.5,-791 217.5,-813 353.5,-813 353.5,-791 217.5,-791"/>
<text text-anchor="start" x="220.5" y="-799.2" font-family="Helvetica,sans-Serif" font-size="11.00">timestamptz[35,6]</text>
<polygon fill="none" stroke="black" points="10.5,-769 10.5,-791 217.5,-791 217.5,-769 10.5,-769"/>
<text text-anchor="start" x="30.5" y="-777.2" font-family="Helvetica,sans-Serif" font-size="11.00">diag_role_modified</text>
<polygon fill="none" stroke="black" points="217.5,-769 217.5,-791 353.5,-791 353.5,-769 217.5,-769"/>
<text text-anchor="start" x="220.5" y="-777.2" font-family="Helvetica,sans-Serif" font-size="11.00">text[2147483647]</text>
<polygon fill="none" stroke="black" points="10.5,-747 10.5,-769 217.5,-769 217.5,-747 10.5,-747"/>
<text text-anchor="start" x="30.5" y="-755.2" font-family="Helvetica,sans-Serif" font-size="11.00">diag_row_version</text>
<polygon fill="none" stroke="black" points="217.5,-747 217.5,-769 353.5,-769 353.5,-747 217.5,-747"/>
<text text-anchor="start" x="220.5" y="-755.2" font-family="Helvetica,sans-Serif" font-size="11.00">int8[19]</text>
<polygon fill="none" stroke="black" points="10.5,-725 10.5,-747 217.5,-747 217.5,-725 10.5,-725"/>
<text text-anchor="start" x="30.5" y="-733.2" font-family="Helvetica,sans-Serif" font-size="11.00">diag_update_count</text>
<polygon fill="none" stroke="black" points="217.5,-725 217.5,-747 353.5,-747 353.5,-725 217.5,-725"/>
<text text-anchor="start" x="220.5" y="-733.2" font-family="Helvetica,sans-Serif" font-size="11.00">int8[19]</text>
<polygon fill="#ffffff" stroke="transparent" points="10.5,-707 10.5,-725 119.5,-725 119.5,-707 10.5,-707"/>
<polygon fill="none" stroke="black" points="10.5,-707 10.5,-725 119.5,-725 119.5,-707 10.5,-707"/>
<text text-anchor="start" x="13.5" y="-713.2" font-family="Helvetica,sans-Serif" font-size="11.00">&lt; 0</text>
<polygon fill="#ffffff" stroke="transparent" points="119.5,-707 119.5,-725 217.5,-725 217.5,-707 119.5,-707"/>
<polygon fill="none" stroke="black" points="119.5,-707 119.5,-725 217.5,-725 217.5,-707 119.5,-707"/>
<text text-anchor="start" x="206.5" y="-713.2" font-family="Helvetica,sans-Serif" font-size="11.00"> &#160;</text>
<polygon fill="#ffffff" stroke="transparent" points="217.5,-707 217.5,-725 353.5,-725 353.5,-707 217.5,-707"/>
<polygon fill="none" stroke="black" points="217.5,-707 217.5,-725 353.5,-725 353.5,-707 217.5,-707"/>
<text text-anchor="start" x="330.5" y="-713.2" font-family="Helvetica,sans-Serif" font-size="11.00">0 &gt;</text>
<polygon fill="none" stroke="black" stroke-width="2" points="9,-706 9,-1144 354,-1144 354,-706 9,-706"/>
</a>
</g>
</g>
</g>
</svg>
