<?xml version="1.0" standalone="no"?>
<!DOCTYPE svg PUBLIC "-//W3C//DTD SVG 20010904//EN"
 "http://www.w3.org/TR/2001/REC-SVG-20010904/DTD/svg10.dtd">
<svg version="1.0" xmlns="http://www.w3.org/2000/svg"
 width="700.000000pt" height="700.000000pt" viewBox="0 0 700.000000 700.000000"
 preserveAspectRatio="xMidYMid meet">
<metadata>
Created by potrace 1.14, written by Peter Selinger 2001-2017
</metadata>
<g transform="translate(0.000000,700.000000) scale(0.100000,-0.100000)"
fill="#000000" stroke="none">
<path d="M0 3500 l0 -3500 3500 0 3500 0 0 3500 0 3500 -3500 0 -3500 0 0
-3500z m3644 3282 c3 -5 -1 -9 -9 -9 -8 0 -12 4 -9 9 3 4 7 8 9 8 2 0 6 -4 9
-8z m-345 -6 c-2 -2 -42 -7 -89 -10 -85 -7 -110 -10 -185 -21 -22 -4 -55 -8
-74 -11 -19 -2 -84 -15 -145 -29 -339 -73 -649 -194 -950 -368 -111 -64 -250
-156 -325 -214 -361 -278 -667 -623 -865 -973 -20 -36 -41 -72 -46 -80 -32
-51 -152 -311 -170 -365 -7 -22 -16 -44 -20 -50 -8 -10 -57 -159 -85 -255 -19
-67 -64 -262 -71 -310 -3 -19 -9 -57 -14 -85 -10 -52 -17 -114 -30 -250 -4
-44 -8 619 -9 1473 l-1 1552 1542 0 c848 0 1539 -2 1537 -4z m3483 -1509 c2
-832 0 -1526 -3 -1543 -5 -22 -7 -17 -9 26 -1 30 -3 62 -5 71 -2 13 -9 62 -20
159 -16 135 -106 506 -145 595 -4 11 -27 70 -50 130 -78 204 -226 481 -359
670 -55 79 -206 270 -246 311 -11 12 -54 57 -96 100 -362 377 -824 665 -1328
830 -141 46 -152 49 -251 73 -85 20 -115 26 -179 37 -18 3 -43 8 -55 10 -11 2
-41 7 -66 10 -25 3 -56 7 -70 10 -14 2 -70 7 -125 11 -55 3 -102 7 -104 9 -2
2 696 4 1552 4 l1557 0 2 -1513z m-3309 1261 c-28 -46 -91 -155 -121 -208 -14
-25 -32 -57 -41 -72 -21 -36 -178 -309 -212 -367 -15 -25 -86 -149 -159 -276
-496 -859 -765 -1325 -781 -1353 -79 -137 -124 -216 -189 -327 -26 -44 -59
-100 -72 -125 -26 -46 -598 -1038 -793 -1375 -32 -55 -66 -115 -77 -133 -68
-122 -171 -298 -178 -305 -18 -20 -188 344 -252 538 -25 78 -66 216 -72 246
-51 246 -58 292 -76 474 -9 84 -5 532 4 575 3 14 8 47 10 74 3 26 7 56 10 65
3 9 7 38 11 65 3 27 13 79 21 115 9 36 18 77 20 91 16 84 88 301 152 455 173
414 434 781 781 1095 96 86 321 258 399 304 30 17 66 39 80 48 27 16 69 40
173 96 307 164 744 289 1119 321 41 3 117 8 169 9 l93 3 -19 -33z m349 17 c7
-2 38 -7 68 -10 57 -7 64 -8 140 -19 155 -24 410 -97 590 -168 627 -248 1158
-697 1504 -1271 150 -250 300 -614 351 -857 2 -8 9 -37 15 -65 6 -27 13 -59
15 -70 41 -232 48 -312 49 -555 1 -338 -18 -508 -88 -784 -60 -231 -122 -398
-230 -617 -93 -186 -74 -188 -192 19 -56 97 -260 452 -454 787 -194 336 -361
624 -370 640 -140 242 -578 1000 -596 1030 -12 22 -36 63 -52 90 -15 28 -97
169 -181 315 -85 146 -161 279 -171 295 -267 464 -694 1203 -700 1210 -4 6
-10 18 -14 29 -6 17 1 18 149 12 85 -4 161 -8 167 -11z m-2 -985 c167 -289
344 -597 395 -685 51 -88 102 -176 113 -195 11 -19 76 -132 144 -250 69 -118
311 -537 538 -930 227 -393 443 -767 480 -830 228 -394 279 -484 275 -488 -8
-8 -4545 -8 -4545 0 0 3 30 57 66 120 117 200 140 239 275 473 73 127 142 248
154 270 12 22 37 65 55 95 29 50 462 801 510 885 11 19 28 50 39 68 105 181
487 843 780 1352 442 766 390 681 405 658 7 -10 149 -254 316 -543z m-3586
-2345 c3 -49 8 -101 11 -115 2 -14 6 -45 9 -70 6 -42 18 -117 31 -185 61 -312
222 -734 384 -999 23 -38 41 -70 41 -71 0 -9 91 -140 166 -240 305 -407 697
-736 1149 -963 90 -45 122 -60 230 -107 69 -30 234 -87 348 -119 112 -32 140
-38 205 -51 13 -2 31 -6 40 -9 9 -3 35 -8 57 -11 22 -3 54 -9 70 -12 17 -3 39
-7 50 -9 102 -13 142 -17 220 -24 50 -4 -611 -8 -1467 -8 l-1558 -2 0 1547 c0
850 2 1544 4 1542 2 -2 7 -44 10 -94z m6546 -1450 l0 -1545 -1557 0 c-856 0
-1554 2 -1552 4 2 2 49 6 105 10 55 4 109 8 120 10 10 2 46 7 79 10 33 4 76
11 95 16 19 5 51 11 70 14 222 35 566 153 830 285 924 463 1584 1349 1760
2362 17 100 23 146 35 259 2 14 3 46 4 73 1 26 3 47 6 47 3 0 5 -695 5 -1545z
m-648 189 c19 -12 -245 -386 -341 -485 -9 -9 -48 -50 -87 -91 -287 -301 -661
-555 -1039 -708 -44 -17 -89 -36 -100 -41 -53 -24 -308 -99 -390 -115 -11 -2
-31 -6 -45 -9 -44 -9 -74 -15 -109 -21 -18 -3 -42 -7 -53 -9 -11 -3 -46 -7
-77 -10 -31 -4 -67 -9 -81 -12 -46 -9 -504 -11 -580 -3 -41 5 -97 12 -125 15
-150 17 -399 74 -565 128 -293 97 -602 257 -850 440 -52 39 -97 73 -100 76 -3
3 -27 24 -55 46 -141 113 -345 327 -480 504 -70 93 -195 283 -191 290 5 7
5257 12 5268 5z"/>
</g>
</svg>
