<?xml version="1.0" encoding="UTF-8" standalone="no"?>
<!DOCTYPE svg PUBLIC "-//W3C//DTD SVG 1.1//EN"
 "http://www.w3.org/Graphics/SVG/1.1/DTD/svg11.dtd">
<!-- Generated by graphviz version 2.43.0 (0)
 -->
<!-- Title: oneDegreeRelationshipsDiagram Pages: 1 -->
<svg width="315pt" height="317pt"
 viewBox="0.00 0.00 315.00 317.00" xmlns="http://www.w3.org/2000/svg" xmlns:xlink="http://www.w3.org/1999/xlink">
<g id="graph0" class="graph" transform="scale(1 1) rotate(0) translate(4 313)">
<title>oneDegreeRelationshipsDiagram</title>
<polygon fill="#ffffff" stroke="transparent" points="-4,4 -4,-313 311,-313 311,4 -4,4"/>
<text text-anchor="middle" x="71.5" y="-7.2" font-family="Helvetica,sans-Serif" font-size="11.00">Generated by SchemaSpy</text>
<!-- syst_owners -->
<g id="node1" class="node">
<title>syst_owners</title>
<g id="a_node1"><a xlink:href="../../tables/syst_owners.html" xlink:title="syst_owners" target="_top">
<polygon fill="#ffffff" stroke="transparent" points="8,-37 8,-305 299,-305 299,-37 8,-37"/>
<polygon fill="#f5f5f5" stroke="transparent" points="10.5,-281 10.5,-303 297.5,-303 297.5,-281 10.5,-281"/>
<polygon fill="none" stroke="black" points="10.5,-281 10.5,-303 297.5,-303 297.5,-281 10.5,-281"/>
<text text-anchor="start" x="15.5" y="-290.2" font-family="Helvetica,sans-Serif" font-weight="bold" font-size="11.00">syst_owners</text>
<text text-anchor="start" x="264.5" y="-289.2" font-family="Helvetica,sans-Serif" font-size="11.00">[view]</text>
<polygon fill="none" stroke="black" points="10.5,-259 10.5,-281 204.5,-281 204.5,-259 10.5,-259"/>
<text text-anchor="start" x="30.5" y="-267.2" font-family="Helvetica,sans-Serif" font-size="11.00">id</text>
<polygon fill="none" stroke="black" points="204.5,-259 204.5,-281 297.5,-281 297.5,-259 204.5,-259"/>
<text text-anchor="start" x="207.5" y="-267.2" font-family="Helvetica,sans-Serif" font-size="11.00">uuid[2147483647]</text>
<polygon fill="none" stroke="black" points="10.5,-237 10.5,-259 204.5,-259 204.5,-237 10.5,-237"/>
<text text-anchor="start" x="30.5" y="-245.2" font-family="Helvetica,sans-Serif" font-size="11.00">internal_name</text>
<polygon fill="none" stroke="black" points="204.5,-237 204.5,-259 297.5,-259 297.5,-237 204.5,-237"/>
<text text-anchor="start" x="207.5" y="-245.2" font-family="Helvetica,sans-Serif" font-size="11.00">text[2147483647]</text>
<polygon fill="none" stroke="black" points="10.5,-215 10.5,-237 204.5,-237 204.5,-215 10.5,-215"/>
<text text-anchor="start" x="30.5" y="-223.2" font-family="Helvetica,sans-Serif" font-size="11.00">display_name</text>
<polygon fill="none" stroke="black" points="204.5,-215 204.5,-237 297.5,-237 297.5,-215 204.5,-215"/>
<text text-anchor="start" x="207.5" y="-223.2" font-family="Helvetica,sans-Serif" font-size="11.00">text[2147483647]</text>
<polygon fill="none" stroke="black" points="10.5,-193 10.5,-215 204.5,-215 204.5,-193 10.5,-193"/>
<text text-anchor="start" x="30.5" y="-201.2" font-family="Helvetica,sans-Serif" font-size="11.00">owner_state_id</text>
<polygon fill="none" stroke="black" points="204.5,-193 204.5,-215 297.5,-215 297.5,-193 204.5,-193"/>
<text text-anchor="start" x="207.5" y="-201.2" font-family="Helvetica,sans-Serif" font-size="11.00">uuid[2147483647]</text>
<polygon fill="none" stroke="black" points="10.5,-171 10.5,-193 204.5,-193 204.5,-171 10.5,-171"/>
<text text-anchor="start" x="30.5" y="-179.2" font-family="Helvetica,sans-Serif" font-size="11.00">diag_timestamp_created</text>
<polygon fill="none" stroke="black" points="204.5,-171 204.5,-193 297.5,-193 297.5,-171 204.5,-171"/>
<text text-anchor="start" x="207.5" y="-179.2" font-family="Helvetica,sans-Serif" font-size="11.00">timestamptz[35,6]</text>
<polygon fill="none" stroke="black" points="10.5,-149 10.5,-171 204.5,-171 204.5,-149 10.5,-149"/>
<text text-anchor="start" x="30.5" y="-157.2" font-family="Helvetica,sans-Serif" font-size="11.00">diag_role_created</text>
<polygon fill="none" stroke="black" points="204.5,-149 204.5,-171 297.5,-171 297.5,-149 204.5,-149"/>
<text text-anchor="start" x="207.5" y="-157.2" font-family="Helvetica,sans-Serif" font-size="11.00">text[2147483647]</text>
<polygon fill="none" stroke="black" points="10.5,-127 10.5,-149 204.5,-149 204.5,-127 10.5,-127"/>
<text text-anchor="start" x="30.5" y="-135.2" font-family="Helvetica,sans-Serif" font-size="11.00">diag_timestamp_modified</text>
<polygon fill="none" stroke="black" points="204.5,-127 204.5,-149 297.5,-149 297.5,-127 204.5,-127"/>
<text text-anchor="start" x="207.5" y="-135.2" font-family="Helvetica,sans-Serif" font-size="11.00">timestamptz[35,6]</text>
<polygon fill="none" stroke="black" points="10.5,-105 10.5,-127 204.5,-127 204.5,-105 10.5,-105"/>
<text text-anchor="start" x="30.5" y="-113.2" font-family="Helvetica,sans-Serif" font-size="11.00">diag_wallclock_modified</text>
<polygon fill="none" stroke="black" points="204.5,-105 204.5,-127 297.5,-127 297.5,-105 204.5,-105"/>
<text text-anchor="start" x="207.5" y="-113.2" font-family="Helvetica,sans-Serif" font-size="11.00">timestamptz[35,6]</text>
<polygon fill="none" stroke="black" points="10.5,-83 10.5,-105 204.5,-105 204.5,-83 10.5,-83"/>
<text text-anchor="start" x="30.5" y="-91.2" font-family="Helvetica,sans-Serif" font-size="11.00">diag_role_modified</text>
<polygon fill="none" stroke="black" points="204.5,-83 204.5,-105 297.5,-105 297.5,-83 204.5,-83"/>
<text text-anchor="start" x="207.5" y="-91.2" font-family="Helvetica,sans-Serif" font-size="11.00">text[2147483647]</text>
<polygon fill="none" stroke="black" points="10.5,-61 10.5,-83 204.5,-83 204.5,-61 10.5,-61"/>
<text text-anchor="start" x="30.5" y="-69.2" font-family="Helvetica,sans-Serif" font-size="11.00">diag_row_version</text>
<polygon fill="none" stroke="black" points="204.5,-61 204.5,-83 297.5,-83 297.5,-61 204.5,-61"/>
<text text-anchor="start" x="207.5" y="-69.2" font-family="Helvetica,sans-Serif" font-size="11.00">int8[19]</text>
<polygon fill="none" stroke="black" points="10.5,-39 10.5,-61 204.5,-61 204.5,-39 10.5,-39"/>
<text text-anchor="start" x="30.5" y="-47.2" font-family="Helvetica,sans-Serif" font-size="11.00">diag_update_count</text>
<polygon fill="none" stroke="black" points="204.5,-39 204.5,-61 297.5,-61 297.5,-39 204.5,-39"/>
<text text-anchor="start" x="207.5" y="-47.2" font-family="Helvetica,sans-Serif" font-size="11.00">int8[19]</text>
<polygon fill="none" stroke="black" stroke-width="2" points="9,-38 9,-304 298,-304 298,-38 9,-38"/>
</a>
</g>
</g>
</g>
</svg>
