<?xml version="1.0" encoding="UTF-8" standalone="no"?>
<!DOCTYPE svg PUBLIC "-//W3C//DTD SVG 1.1//EN"
 "http://www.w3.org/Graphics/SVG/1.1/DTD/svg11.dtd">
<!-- Generated by graphviz version 2.43.0 (0)
 -->
<!-- Title: twoDegreesRelationshipsDiagram Pages: 1 -->
<svg width="833pt" height="450pt"
 viewBox="0.00 0.00 833.00 450.00" xmlns="http://www.w3.org/2000/svg" xmlns:xlink="http://www.w3.org/1999/xlink">
<g id="graph0" class="graph" transform="scale(1 1) rotate(0) translate(4 446)">
<title>twoDegreesRelationshipsDiagram</title>
<polygon fill="#ffffff" stroke="transparent" points="-4,4 -4,-446 829,-446 829,4 -4,4"/>
<text text-anchor="middle" x="71.5" y="-7.2" font-family="Helvetica,sans-Serif" font-size="11.00">Generated by SchemaSpy</text>
<!-- syst_perm_role_grants -->
<g id="node1" class="node">
<title>syst_perm_role_grants</title>
<g id="a_node1"><a xlink:href="../../tables/syst_perm_role_grants.html" xlink:title="syst_perm_role_grants" target="_top">
<polygon fill="#ffffff" stroke="transparent" points="526,-37 526,-389 817,-389 817,-37 526,-37"/>
<polygon fill="#f5f5f5" stroke="transparent" points="528.5,-365 528.5,-387 815.5,-387 815.5,-365 528.5,-365"/>
<polygon fill="none" stroke="black" points="528.5,-365 528.5,-387 815.5,-387 815.5,-365 528.5,-365"/>
<text text-anchor="start" x="533.5" y="-374.2" font-family="Helvetica,sans-Serif" font-weight="bold" font-size="11.00">syst_perm_role_grants</text>
<text text-anchor="start" x="780.5" y="-373.2" font-family="Helvetica,sans-Serif" font-size="11.00">[table]</text>
<polygon fill="none" stroke="black" points="528.5,-343 528.5,-365 722.5,-365 722.5,-343 528.5,-343"/>
<image xlink:href="../../images/primaryKeys.png" width="11px" height="12px" preserveAspectRatio="xMinYMin meet" x="533.5" y="-360"/>
<text text-anchor="start" x="548.5" y="-351.2" font-family="Helvetica,sans-Serif" font-size="11.00">id</text>
<polygon fill="none" stroke="black" points="722.5,-343 722.5,-365 815.5,-365 815.5,-343 722.5,-343"/>
<text text-anchor="start" x="725.5" y="-351.2" font-family="Helvetica,sans-Serif" font-size="11.00">uuid[2147483647]</text>
<polygon fill="#ffffff" stroke="transparent" points="528.5,-321 528.5,-343 722.5,-343 722.5,-321 528.5,-321"/>
<polygon fill="none" stroke="black" points="528.5,-321 528.5,-343 722.5,-343 722.5,-321 528.5,-321"/>
<image xlink:href="../../images/foreignKeys.png" width="11px" height="12px" preserveAspectRatio="xMinYMin meet" x="533.5" y="-338"/>
<text text-anchor="start" x="548.5" y="-329.2" font-family="Helvetica,sans-Serif" font-size="11.00">perm_role_id</text>
<polygon fill="none" stroke="black" points="722.5,-321 722.5,-343 815.5,-343 815.5,-321 722.5,-321"/>
<text text-anchor="start" x="725.5" y="-329.2" font-family="Helvetica,sans-Serif" font-size="11.00">uuid[2147483647]</text>
<polygon fill="#ffffff" stroke="transparent" points="528.5,-299 528.5,-321 722.5,-321 722.5,-299 528.5,-299"/>
<polygon fill="none" stroke="black" points="528.5,-299 528.5,-321 722.5,-321 722.5,-299 528.5,-299"/>
<image xlink:href="../../images/foreignKeys.png" width="11px" height="12px" preserveAspectRatio="xMinYMin meet" x="533.5" y="-316"/>
<text text-anchor="start" x="548.5" y="-307.2" font-family="Helvetica,sans-Serif" font-size="11.00">perm_id</text>
<polygon fill="none" stroke="black" points="722.5,-299 722.5,-321 815.5,-321 815.5,-299 722.5,-299"/>
<text text-anchor="start" x="725.5" y="-307.2" font-family="Helvetica,sans-Serif" font-size="11.00">uuid[2147483647]</text>
<polygon fill="none" stroke="black" points="528.5,-277 528.5,-299 722.5,-299 722.5,-277 528.5,-277"/>
<text text-anchor="start" x="548.5" y="-285.2" font-family="Helvetica,sans-Serif" font-size="11.00">view_scope</text>
<polygon fill="none" stroke="black" points="722.5,-277 722.5,-299 815.5,-299 815.5,-277 722.5,-277"/>
<text text-anchor="start" x="725.5" y="-285.2" font-family="Helvetica,sans-Serif" font-size="11.00">text[2147483647]</text>
<polygon fill="none" stroke="black" points="528.5,-255 528.5,-277 722.5,-277 722.5,-255 528.5,-255"/>
<text text-anchor="start" x="548.5" y="-263.2" font-family="Helvetica,sans-Serif" font-size="11.00">maint_scope</text>
<polygon fill="none" stroke="black" points="722.5,-255 722.5,-277 815.5,-277 815.5,-255 722.5,-255"/>
<text text-anchor="start" x="725.5" y="-263.2" font-family="Helvetica,sans-Serif" font-size="11.00">text[2147483647]</text>
<polygon fill="none" stroke="black" points="528.5,-233 528.5,-255 722.5,-255 722.5,-233 528.5,-233"/>
<text text-anchor="start" x="548.5" y="-241.2" font-family="Helvetica,sans-Serif" font-size="11.00">admin_scope</text>
<polygon fill="none" stroke="black" points="722.5,-233 722.5,-255 815.5,-255 815.5,-233 722.5,-233"/>
<text text-anchor="start" x="725.5" y="-241.2" font-family="Helvetica,sans-Serif" font-size="11.00">text[2147483647]</text>
<polygon fill="none" stroke="black" points="528.5,-211 528.5,-233 722.5,-233 722.5,-211 528.5,-211"/>
<text text-anchor="start" x="548.5" y="-219.2" font-family="Helvetica,sans-Serif" font-size="11.00">ops_scope</text>
<polygon fill="none" stroke="black" points="722.5,-211 722.5,-233 815.5,-233 815.5,-211 722.5,-211"/>
<text text-anchor="start" x="725.5" y="-219.2" font-family="Helvetica,sans-Serif" font-size="11.00">text[2147483647]</text>
<polygon fill="none" stroke="black" points="528.5,-189 528.5,-211 722.5,-211 722.5,-189 528.5,-189"/>
<text text-anchor="start" x="548.5" y="-197.2" font-family="Helvetica,sans-Serif" font-size="11.00">diag_timestamp_created</text>
<polygon fill="none" stroke="black" points="722.5,-189 722.5,-211 815.5,-211 815.5,-189 722.5,-189"/>
<text text-anchor="start" x="725.5" y="-197.2" font-family="Helvetica,sans-Serif" font-size="11.00">timestamptz[35,6]</text>
<polygon fill="none" stroke="black" points="528.5,-167 528.5,-189 722.5,-189 722.5,-167 528.5,-167"/>
<text text-anchor="start" x="548.5" y="-175.2" font-family="Helvetica,sans-Serif" font-size="11.00">diag_role_created</text>
<polygon fill="none" stroke="black" points="722.5,-167 722.5,-189 815.5,-189 815.5,-167 722.5,-167"/>
<text text-anchor="start" x="725.5" y="-175.2" font-family="Helvetica,sans-Serif" font-size="11.00">text[2147483647]</text>
<polygon fill="none" stroke="black" points="528.5,-145 528.5,-167 722.5,-167 722.5,-145 528.5,-145"/>
<text text-anchor="start" x="548.5" y="-153.2" font-family="Helvetica,sans-Serif" font-size="11.00">diag_timestamp_modified</text>
<polygon fill="none" stroke="black" points="722.5,-145 722.5,-167 815.5,-167 815.5,-145 722.5,-145"/>
<text text-anchor="start" x="725.5" y="-153.2" font-family="Helvetica,sans-Serif" font-size="11.00">timestamptz[35,6]</text>
<polygon fill="none" stroke="black" points="528.5,-123 528.5,-145 722.5,-145 722.5,-123 528.5,-123"/>
<text text-anchor="start" x="548.5" y="-131.2" font-family="Helvetica,sans-Serif" font-size="11.00">diag_wallclock_modified</text>
<polygon fill="none" stroke="black" points="722.5,-123 722.5,-145 815.5,-145 815.5,-123 722.5,-123"/>
<text text-anchor="start" x="725.5" y="-131.2" font-family="Helvetica,sans-Serif" font-size="11.00">timestamptz[35,6]</text>
<polygon fill="none" stroke="black" points="528.5,-101 528.5,-123 722.5,-123 722.5,-101 528.5,-101"/>
<text text-anchor="start" x="548.5" y="-109.2" font-family="Helvetica,sans-Serif" font-size="11.00">diag_role_modified</text>
<polygon fill="none" stroke="black" points="722.5,-101 722.5,-123 815.5,-123 815.5,-101 722.5,-101"/>
<text text-anchor="start" x="725.5" y="-109.2" font-family="Helvetica,sans-Serif" font-size="11.00">text[2147483647]</text>
<polygon fill="none" stroke="black" points="528.5,-79 528.5,-101 722.5,-101 722.5,-79 528.5,-79"/>
<text text-anchor="start" x="548.5" y="-87.2" font-family="Helvetica,sans-Serif" font-size="11.00">diag_row_version</text>
<polygon fill="none" stroke="black" points="722.5,-79 722.5,-101 815.5,-101 815.5,-79 722.5,-79"/>
<text text-anchor="start" x="725.5" y="-87.2" font-family="Helvetica,sans-Serif" font-size="11.00">int8[19]</text>
<polygon fill="none" stroke="black" points="528.5,-57 528.5,-79 722.5,-79 722.5,-57 528.5,-57"/>
<text text-anchor="start" x="548.5" y="-65.2" font-family="Helvetica,sans-Serif" font-size="11.00">diag_update_count</text>
<polygon fill="none" stroke="black" points="722.5,-57 722.5,-79 815.5,-79 815.5,-57 722.5,-57"/>
<text text-anchor="start" x="725.5" y="-65.2" font-family="Helvetica,sans-Serif" font-size="11.00">int8[19]</text>
<polygon fill="#ffffff" stroke="transparent" points="528.5,-39 528.5,-57 629.5,-57 629.5,-39 528.5,-39"/>
<polygon fill="none" stroke="black" points="528.5,-39 528.5,-57 629.5,-57 629.5,-39 528.5,-39"/>
<text text-anchor="start" x="531.5" y="-45.2" font-family="Helvetica,sans-Serif" font-size="11.00">&lt; 2</text>
<polygon fill="#ffffff" stroke="transparent" points="629.5,-39 629.5,-57 722.5,-57 722.5,-39 629.5,-39"/>
<polygon fill="none" stroke="black" points="629.5,-39 629.5,-57 722.5,-57 722.5,-39 629.5,-39"/>
<text text-anchor="start" x="712.5" y="-45.2" font-family="Helvetica,sans-Serif" font-size="11.00"> &#160;</text>
<polygon fill="#ffffff" stroke="transparent" points="722.5,-39 722.5,-57 815.5,-57 815.5,-39 722.5,-39"/>
<polygon fill="none" stroke="black" points="722.5,-39 722.5,-57 815.5,-57 815.5,-39 722.5,-39"/>
<text text-anchor="start" x="796.5" y="-45.2" font-family="Helvetica,sans-Serif" font-size="11.00">0 &gt;</text>
<polygon fill="none" stroke="black" stroke-width="2" points="527,-38 527,-388 816,-388 816,-38 527,-38"/>
</a>
</g>
</g>
<!-- syst_perms -->
<g id="node2" class="node">
<title>syst_perms</title>
<g id="a_node2"><a xlink:href="../../tables/syst_perms.html" xlink:title="syst_perms" target="_top">
<polygon fill="#ffffff" stroke="transparent" points="283,-125 283,-271 477,-271 477,-125 283,-125"/>
<polygon fill="#f5f5f5" stroke="transparent" points="283,-249 283,-271 477,-271 477,-249 283,-249"/>
<polygon fill="none" stroke="black" points="283,-249 283,-271 477,-271 477,-249 283,-249"/>
<text text-anchor="start" x="288" y="-258.2" font-family="Helvetica,sans-Serif" font-weight="bold" font-size="11.00">syst_perms</text>
<text text-anchor="start" x="442" y="-257.2" font-family="Helvetica,sans-Serif" font-size="11.00">[table]</text>
<polygon fill="none" stroke="black" points="283,-227 283,-249 477,-249 477,-227 283,-227"/>
<image xlink:href="../../images/primaryKeys.png" width="11px" height="12px" preserveAspectRatio="xMinYMin meet" x="288" y="-244"/>
<text text-anchor="start" x="303" y="-235.2" font-family="Helvetica,sans-Serif" font-size="11.00">id</text>
<polygon fill="#ffffff" stroke="transparent" points="283,-205 283,-227 477,-227 477,-205 283,-205"/>
<polygon fill="none" stroke="black" points="283,-205 283,-227 477,-227 477,-205 283,-205"/>
<text text-anchor="start" x="303" y="-213.2" font-family="Helvetica,sans-Serif" font-size="11.00">internal_name</text>
<polygon fill="#ffffff" stroke="transparent" points="283,-183 283,-205 477,-205 477,-183 283,-183"/>
<polygon fill="none" stroke="black" points="283,-183 283,-205 477,-205 477,-183 283,-183"/>
<text text-anchor="start" x="303" y="-191.2" font-family="Helvetica,sans-Serif" font-size="11.00">display_name</text>
<polygon fill="none" stroke="black" points="283,-161 283,-183 477,-183 477,-161 283,-161"/>
<image xlink:href="../../images/foreignKeys.png" width="11px" height="12px" preserveAspectRatio="xMinYMin meet" x="288" y="-178"/>
<text text-anchor="start" x="303" y="-169.2" font-family="Helvetica,sans-Serif" font-size="11.00">perm_functional_type_id</text>
<polygon fill="none" stroke="black" points="283,-143 283,-161 477,-161 477,-143 283,-143"/>
<text text-anchor="start" x="286" y="-149.2" font-family="Helvetica,sans-Serif" font-size="11.00">...</text>
<polygon fill="#ffffff" stroke="transparent" points="283,-125 283,-143 373,-143 373,-125 283,-125"/>
<polygon fill="none" stroke="black" points="283,-125 283,-143 373,-143 373,-125 283,-125"/>
<text text-anchor="start" x="286" y="-131.2" font-family="Helvetica,sans-Serif" font-size="11.00">&lt; 1</text>
<polygon fill="#ffffff" stroke="transparent" points="373,-125 373,-143 420,-143 420,-125 373,-125"/>
<polygon fill="none" stroke="black" points="373,-125 373,-143 420,-143 420,-125 373,-125"/>
<text text-anchor="start" x="410" y="-131.2" font-family="Helvetica,sans-Serif" font-size="11.00"> &#160;</text>
<polygon fill="#ffffff" stroke="transparent" points="420,-125 420,-143 477,-143 477,-125 420,-125"/>
<polygon fill="none" stroke="black" points="420,-125 420,-143 477,-143 477,-125 420,-125"/>
<text text-anchor="start" x="458" y="-131.2" font-family="Helvetica,sans-Serif" font-size="11.00">1 &gt;</text>
</a>
</g>
</g>
<!-- syst_perm_role_grants&#45;&gt;syst_perms -->
<g id="edge1" class="edge">
<title>syst_perm_role_grants:w&#45;&gt;syst_perms:e</title>
<path fill="none" stroke="black" d="M513.69,-305.28C495.83,-289.26 510.77,-238 478,-238"/>
<polygon fill="black" stroke="black" points="519.93,-307.41 526.33,-313.41 523.72,-308.71 527.5,-310 527.5,-310 527.5,-310 523.72,-308.71 528.67,-306.59 519.93,-307.41 519.93,-307.41"/>
<ellipse fill="none" stroke="black" cx="516.9" cy="-306.37" rx="3.2" ry="3.2"/>
</g>
<!-- syst_perm_roles -->
<g id="node3" class="node">
<title>syst_perm_roles</title>
<g id="a_node3"><a xlink:href="../../tables/syst_perm_roles.html" xlink:title="syst_perm_roles" target="_top">
<polygon fill="#ffffff" stroke="transparent" points="283,-292 283,-438 477,-438 477,-292 283,-292"/>
<polygon fill="#f5f5f5" stroke="transparent" points="283,-416 283,-438 477,-438 477,-416 283,-416"/>
<polygon fill="none" stroke="black" points="283,-416 283,-438 477,-438 477,-416 283,-416"/>
<text text-anchor="start" x="288" y="-425.2" font-family="Helvetica,sans-Serif" font-weight="bold" font-size="11.00">syst_perm_roles</text>
<text text-anchor="start" x="442" y="-424.2" font-family="Helvetica,sans-Serif" font-size="11.00">[table]</text>
<polygon fill="none" stroke="black" points="283,-394 283,-416 477,-416 477,-394 283,-394"/>
<image xlink:href="../../images/primaryKeys.png" width="11px" height="12px" preserveAspectRatio="xMinYMin meet" x="288" y="-411"/>
<text text-anchor="start" x="303" y="-402.2" font-family="Helvetica,sans-Serif" font-size="11.00">id</text>
<polygon fill="#ffffff" stroke="transparent" points="283,-372 283,-394 477,-394 477,-372 283,-372"/>
<polygon fill="none" stroke="black" points="283,-372 283,-394 477,-394 477,-372 283,-372"/>
<text text-anchor="start" x="303" y="-380.2" font-family="Helvetica,sans-Serif" font-size="11.00">internal_name</text>
<polygon fill="#ffffff" stroke="transparent" points="283,-350 283,-372 477,-372 477,-350 283,-350"/>
<polygon fill="none" stroke="black" points="283,-350 283,-372 477,-372 477,-350 283,-350"/>
<text text-anchor="start" x="303" y="-358.2" font-family="Helvetica,sans-Serif" font-size="11.00">display_name</text>
<polygon fill="none" stroke="black" points="283,-328 283,-350 477,-350 477,-328 283,-328"/>
<image xlink:href="../../images/foreignKeys.png" width="11px" height="12px" preserveAspectRatio="xMinYMin meet" x="288" y="-345"/>
<text text-anchor="start" x="303" y="-336.2" font-family="Helvetica,sans-Serif" font-size="11.00">perm_functional_type_id</text>
<polygon fill="none" stroke="black" points="283,-310 283,-328 477,-328 477,-310 283,-310"/>
<text text-anchor="start" x="286" y="-316.2" font-family="Helvetica,sans-Serif" font-size="11.00">...</text>
<polygon fill="#ffffff" stroke="transparent" points="283,-292 283,-310 373,-310 373,-292 283,-292"/>
<polygon fill="none" stroke="black" points="283,-292 283,-310 373,-310 373,-292 283,-292"/>
<text text-anchor="start" x="286" y="-298.2" font-family="Helvetica,sans-Serif" font-size="11.00">&lt; 1</text>
<polygon fill="#ffffff" stroke="transparent" points="373,-292 373,-310 420,-310 420,-292 373,-292"/>
<polygon fill="none" stroke="black" points="373,-292 373,-310 420,-310 420,-292 373,-292"/>
<text text-anchor="start" x="410" y="-298.2" font-family="Helvetica,sans-Serif" font-size="11.00"> &#160;</text>
<polygon fill="#ffffff" stroke="transparent" points="420,-292 420,-310 477,-310 477,-292 420,-292"/>
<polygon fill="none" stroke="black" points="420,-292 420,-310 477,-310 477,-292 420,-292"/>
<text text-anchor="start" x="458" y="-298.2" font-family="Helvetica,sans-Serif" font-size="11.00">1 &gt;</text>
</a>
</g>
</g>
<!-- syst_perm_role_grants&#45;&gt;syst_perm_roles -->
<g id="edge2" class="edge">
<title>syst_perm_role_grants:w&#45;&gt;syst_perm_roles:e</title>
<path fill="none" stroke="black" d="M513.59,-336.79C495.67,-353.03 511.08,-405 478,-405"/>
<polygon fill="black" stroke="black" points="519.94,-334.61 528.67,-335.4 523.72,-333.3 527.5,-332 527.5,-332 527.5,-332 523.72,-333.3 526.33,-328.6 519.94,-334.61 519.94,-334.61"/>
<ellipse fill="none" stroke="black" cx="516.91" cy="-335.65" rx="3.2" ry="3.2"/>
</g>
<!-- syst_perm_functional_types -->
<g id="node4" class="node">
<title>syst_perm_functional_types</title>
<g id="a_node4"><a xlink:href="../../tables/syst_perm_functional_types.html" xlink:title="syst_perm_functional_types" target="_top">
<polygon fill="#ffffff" stroke="transparent" points="8,-228 8,-286 234,-286 234,-228 8,-228"/>
<polygon fill="#f5f5f5" stroke="transparent" points="8,-264 8,-286 234,-286 234,-264 8,-264"/>
<polygon fill="none" stroke="black" points="8,-264 8,-286 234,-286 234,-264 8,-264"/>
<text text-anchor="start" x="13" y="-273.2" font-family="Helvetica,sans-Serif" font-weight="bold" font-size="11.00">syst_perm_functional_types</text>
<text text-anchor="start" x="199" y="-272.2" font-family="Helvetica,sans-Serif" font-size="11.00">[table]</text>
<polygon fill="none" stroke="black" points="8,-246 8,-264 234,-264 234,-246 8,-246"/>
<text text-anchor="start" x="11" y="-252.2" font-family="Helvetica,sans-Serif" font-size="11.00">...</text>
<polygon fill="#ffffff" stroke="transparent" points="8,-228 8,-246 110,-246 110,-228 8,-228"/>
<polygon fill="none" stroke="black" points="8,-228 8,-246 110,-246 110,-228 8,-228"/>
<text text-anchor="start" x="11" y="-234.2" font-family="Helvetica,sans-Serif" font-size="11.00"> &#160;</text>
<polygon fill="#ffffff" stroke="transparent" points="110,-228 110,-246 167,-246 167,-228 110,-228"/>
<polygon fill="none" stroke="black" points="110,-228 110,-246 167,-246 167,-228 110,-228"/>
<text text-anchor="start" x="157" y="-234.2" font-family="Helvetica,sans-Serif" font-size="11.00"> &#160;</text>
<polygon fill="#ffffff" stroke="transparent" points="167,-228 167,-246 234,-246 234,-228 167,-228"/>
<polygon fill="none" stroke="black" points="167,-228 167,-246 234,-246 234,-228 167,-228"/>
<text text-anchor="start" x="215" y="-234.2" font-family="Helvetica,sans-Serif" font-size="11.00">2 &gt;</text>
</a>
</g>
</g>
<!-- syst_perms&#45;&gt;syst_perm_functional_types -->
<g id="edge4" class="edge">
<title>syst_perms:w&#45;&gt;syst_perm_functional_types:e</title>
<path fill="none" stroke="black" d="M268.16,-176.7C248.85,-194.26 271.27,-255 235,-255"/>
<polygon fill="black" stroke="black" points="274.42,-174.57 283.16,-175.41 278.21,-173.29 282,-172 282,-172 282,-172 278.21,-173.29 280.84,-168.59 274.42,-174.57 274.42,-174.57"/>
<ellipse fill="none" stroke="black" cx="271.39" cy="-175.6" rx="3.2" ry="3.2"/>
</g>
<!-- syst_perm_roles&#45;&gt;syst_perm_functional_types -->
<g id="edge3" class="edge">
<title>syst_perm_roles:w&#45;&gt;syst_perm_functional_types:e</title>
<path fill="none" stroke="black" d="M268.33,-334.48C248.46,-317.04 271.76,-255 235,-255"/>
<polygon fill="black" stroke="black" points="274.4,-336.49 280.87,-342.42 278.2,-337.75 282,-339 282,-339 282,-339 278.2,-337.75 283.13,-335.58 274.4,-336.49 274.4,-336.49"/>
<ellipse fill="none" stroke="black" cx="271.36" cy="-335.49" rx="3.2" ry="3.2"/>
</g>
</g>
</svg>
