<?xml version="1.0" encoding="UTF-8" standalone="no"?>
<!DOCTYPE svg PUBLIC "-//W3C//DTD SVG 1.1//EN"
 "http://www.w3.org/Graphics/SVG/1.1/DTD/svg11.dtd">
<!-- Generated by graphviz version 2.43.0 (0)
 -->
<!-- Title: oneDegreeRelationshipsDiagram Pages: 1 -->
<svg width="833pt" height="421pt"
 viewBox="0.00 0.00 833.00 421.00" xmlns="http://www.w3.org/2000/svg" xmlns:xlink="http://www.w3.org/1999/xlink">
<g id="graph0" class="graph" transform="scale(1 1) rotate(0) translate(4 417)">
<title>oneDegreeRelationshipsDiagram</title>
<polygon fill="#ffffff" stroke="transparent" points="-4,4 -4,-417 829,-417 829,4 -4,4"/>
<text text-anchor="middle" x="71.5" y="-7.2" font-family="Helvetica,sans-Serif" font-size="11.00">Generated by SchemaSpy</text>
<!-- syst_perm_role_grants -->
<g id="node1" class="node">
<title>syst_perm_role_grants</title>
<g id="a_node1"><a xlink:href="../../tables/syst_perm_role_grants.html" xlink:title="syst_perm_role_grants" target="_top">
<polygon fill="#ffffff" stroke="transparent" points="623,-285 623,-409 817,-409 817,-285 623,-285"/>
<polygon fill="#f5f5f5" stroke="transparent" points="623,-387 623,-409 817,-409 817,-387 623,-387"/>
<polygon fill="none" stroke="black" points="623,-387 623,-409 817,-409 817,-387 623,-387"/>
<text text-anchor="start" x="628" y="-396.2" font-family="Helvetica,sans-Serif" font-weight="bold" font-size="11.00">syst_perm_role_grants</text>
<text text-anchor="start" x="782" y="-395.2" font-family="Helvetica,sans-Serif" font-size="11.00">[table]</text>
<polygon fill="none" stroke="black" points="623,-365 623,-387 817,-387 817,-365 623,-365"/>
<image xlink:href="../../images/primaryKeys.png" width="11px" height="12px" preserveAspectRatio="xMinYMin meet" x="628" y="-382"/>
<text text-anchor="start" x="643" y="-373.2" font-family="Helvetica,sans-Serif" font-size="11.00">id</text>
<polygon fill="#ffffff" stroke="transparent" points="623,-343 623,-365 817,-365 817,-343 623,-343"/>
<polygon fill="none" stroke="black" points="623,-343 623,-365 817,-365 817,-343 623,-343"/>
<image xlink:href="../../images/foreignKeys.png" width="11px" height="12px" preserveAspectRatio="xMinYMin meet" x="628" y="-360"/>
<text text-anchor="start" x="643" y="-351.2" font-family="Helvetica,sans-Serif" font-size="11.00">perm_role_id</text>
<polygon fill="#ffffff" stroke="transparent" points="623,-321 623,-343 817,-343 817,-321 623,-321"/>
<polygon fill="none" stroke="black" points="623,-321 623,-343 817,-343 817,-321 623,-321"/>
<image xlink:href="../../images/foreignKeys.png" width="11px" height="12px" preserveAspectRatio="xMinYMin meet" x="628" y="-338"/>
<text text-anchor="start" x="643" y="-329.2" font-family="Helvetica,sans-Serif" font-size="11.00">perm_id</text>
<polygon fill="none" stroke="black" points="623,-303 623,-321 817,-321 817,-303 623,-303"/>
<text text-anchor="start" x="626" y="-309.2" font-family="Helvetica,sans-Serif" font-size="11.00">...</text>
<polygon fill="#ffffff" stroke="transparent" points="623,-285 623,-303 718,-303 718,-285 623,-285"/>
<polygon fill="none" stroke="black" points="623,-285 623,-303 718,-303 718,-285 623,-285"/>
<text text-anchor="start" x="626" y="-291.2" font-family="Helvetica,sans-Serif" font-size="11.00">&lt; 2</text>
<polygon fill="#ffffff" stroke="transparent" points="718,-285 718,-303 767,-303 767,-285 718,-285"/>
<polygon fill="none" stroke="black" points="718,-285 718,-303 767,-303 767,-285 718,-285"/>
<text text-anchor="start" x="757" y="-291.2" font-family="Helvetica,sans-Serif" font-size="11.00"> &#160;</text>
<polygon fill="#ffffff" stroke="transparent" points="767,-285 767,-303 817,-303 817,-285 767,-285"/>
<polygon fill="none" stroke="black" points="767,-285 767,-303 817,-303 817,-285 767,-285"/>
<text text-anchor="start" x="807" y="-291.2" font-family="Helvetica,sans-Serif" font-size="11.00"> &#160;</text>
</a>
</g>
</g>
<!-- syst_perm_roles -->
<g id="node2" class="node">
<title>syst_perm_roles</title>
<g id="a_node2"><a xlink:href="../../tables/syst_perm_roles.html" xlink:title="syst_perm_roles" target="_top">
<polygon fill="#ffffff" stroke="transparent" points="283,-37 283,-389 574,-389 574,-37 283,-37"/>
<polygon fill="#f5f5f5" stroke="transparent" points="285.5,-365 285.5,-387 572.5,-387 572.5,-365 285.5,-365"/>
<polygon fill="none" stroke="black" points="285.5,-365 285.5,-387 572.5,-387 572.5,-365 285.5,-365"/>
<text text-anchor="start" x="290.5" y="-374.2" font-family="Helvetica,sans-Serif" font-weight="bold" font-size="11.00">syst_perm_roles</text>
<text text-anchor="start" x="537.5" y="-373.2" font-family="Helvetica,sans-Serif" font-size="11.00">[table]</text>
<polygon fill="none" stroke="black" points="285.5,-343 285.5,-365 479.5,-365 479.5,-343 285.5,-343"/>
<image xlink:href="../../images/primaryKeys.png" width="11px" height="12px" preserveAspectRatio="xMinYMin meet" x="290.5" y="-360"/>
<text text-anchor="start" x="305.5" y="-351.2" font-family="Helvetica,sans-Serif" font-size="11.00">id</text>
<polygon fill="none" stroke="black" points="479.5,-343 479.5,-365 572.5,-365 572.5,-343 479.5,-343"/>
<text text-anchor="start" x="482.5" y="-351.2" font-family="Helvetica,sans-Serif" font-size="11.00">uuid[2147483647]</text>
<polygon fill="#ffffff" stroke="transparent" points="285.5,-321 285.5,-343 479.5,-343 479.5,-321 285.5,-321"/>
<polygon fill="none" stroke="black" points="285.5,-321 285.5,-343 479.5,-343 479.5,-321 285.5,-321"/>
<text text-anchor="start" x="305.5" y="-329.2" font-family="Helvetica,sans-Serif" font-size="11.00">internal_name</text>
<polygon fill="none" stroke="black" points="479.5,-321 479.5,-343 572.5,-343 572.5,-321 479.5,-321"/>
<text text-anchor="start" x="482.5" y="-329.2" font-family="Helvetica,sans-Serif" font-size="11.00">text[2147483647]</text>
<polygon fill="#ffffff" stroke="transparent" points="285.5,-299 285.5,-321 479.5,-321 479.5,-299 285.5,-299"/>
<polygon fill="none" stroke="black" points="285.5,-299 285.5,-321 479.5,-321 479.5,-299 285.5,-299"/>
<text text-anchor="start" x="305.5" y="-307.2" font-family="Helvetica,sans-Serif" font-size="11.00">display_name</text>
<polygon fill="none" stroke="black" points="479.5,-299 479.5,-321 572.5,-321 572.5,-299 479.5,-299"/>
<text text-anchor="start" x="482.5" y="-307.2" font-family="Helvetica,sans-Serif" font-size="11.00">text[2147483647]</text>
<polygon fill="none" stroke="black" points="285.5,-277 285.5,-299 479.5,-299 479.5,-277 285.5,-277"/>
<image xlink:href="../../images/foreignKeys.png" width="11px" height="12px" preserveAspectRatio="xMinYMin meet" x="290.5" y="-294"/>
<text text-anchor="start" x="305.5" y="-285.2" font-family="Helvetica,sans-Serif" font-size="11.00">perm_functional_type_id</text>
<polygon fill="none" stroke="black" points="479.5,-277 479.5,-299 572.5,-299 572.5,-277 479.5,-277"/>
<text text-anchor="start" x="482.5" y="-285.2" font-family="Helvetica,sans-Serif" font-size="11.00">uuid[2147483647]</text>
<polygon fill="none" stroke="black" points="285.5,-255 285.5,-277 479.5,-277 479.5,-255 285.5,-255"/>
<text text-anchor="start" x="305.5" y="-263.2" font-family="Helvetica,sans-Serif" font-size="11.00">syst_defined</text>
<polygon fill="none" stroke="black" points="479.5,-255 479.5,-277 572.5,-277 572.5,-255 479.5,-255"/>
<text text-anchor="start" x="482.5" y="-263.2" font-family="Helvetica,sans-Serif" font-size="11.00">bool[1]</text>
<polygon fill="none" stroke="black" points="285.5,-233 285.5,-255 479.5,-255 479.5,-233 285.5,-233"/>
<text text-anchor="start" x="305.5" y="-241.2" font-family="Helvetica,sans-Serif" font-size="11.00">syst_description</text>
<polygon fill="none" stroke="black" points="479.5,-233 479.5,-255 572.5,-255 572.5,-233 479.5,-233"/>
<text text-anchor="start" x="482.5" y="-241.2" font-family="Helvetica,sans-Serif" font-size="11.00">text[2147483647]</text>
<polygon fill="none" stroke="black" points="285.5,-211 285.5,-233 479.5,-233 479.5,-211 285.5,-211"/>
<text text-anchor="start" x="305.5" y="-219.2" font-family="Helvetica,sans-Serif" font-size="11.00">user_description</text>
<polygon fill="none" stroke="black" points="479.5,-211 479.5,-233 572.5,-233 572.5,-211 479.5,-211"/>
<text text-anchor="start" x="482.5" y="-219.2" font-family="Helvetica,sans-Serif" font-size="11.00">text[2147483647]</text>
<polygon fill="none" stroke="black" points="285.5,-189 285.5,-211 479.5,-211 479.5,-189 285.5,-189"/>
<text text-anchor="start" x="305.5" y="-197.2" font-family="Helvetica,sans-Serif" font-size="11.00">diag_timestamp_created</text>
<polygon fill="none" stroke="black" points="479.5,-189 479.5,-211 572.5,-211 572.5,-189 479.5,-189"/>
<text text-anchor="start" x="482.5" y="-197.2" font-family="Helvetica,sans-Serif" font-size="11.00">timestamptz[35,6]</text>
<polygon fill="none" stroke="black" points="285.5,-167 285.5,-189 479.5,-189 479.5,-167 285.5,-167"/>
<text text-anchor="start" x="305.5" y="-175.2" font-family="Helvetica,sans-Serif" font-size="11.00">diag_role_created</text>
<polygon fill="none" stroke="black" points="479.5,-167 479.5,-189 572.5,-189 572.5,-167 479.5,-167"/>
<text text-anchor="start" x="482.5" y="-175.2" font-family="Helvetica,sans-Serif" font-size="11.00">text[2147483647]</text>
<polygon fill="none" stroke="black" points="285.5,-145 285.5,-167 479.5,-167 479.5,-145 285.5,-145"/>
<text text-anchor="start" x="305.5" y="-153.2" font-family="Helvetica,sans-Serif" font-size="11.00">diag_timestamp_modified</text>
<polygon fill="none" stroke="black" points="479.5,-145 479.5,-167 572.5,-167 572.5,-145 479.5,-145"/>
<text text-anchor="start" x="482.5" y="-153.2" font-family="Helvetica,sans-Serif" font-size="11.00">timestamptz[35,6]</text>
<polygon fill="none" stroke="black" points="285.5,-123 285.5,-145 479.5,-145 479.5,-123 285.5,-123"/>
<text text-anchor="start" x="305.5" y="-131.2" font-family="Helvetica,sans-Serif" font-size="11.00">diag_wallclock_modified</text>
<polygon fill="none" stroke="black" points="479.5,-123 479.5,-145 572.5,-145 572.5,-123 479.5,-123"/>
<text text-anchor="start" x="482.5" y="-131.2" font-family="Helvetica,sans-Serif" font-size="11.00">timestamptz[35,6]</text>
<polygon fill="none" stroke="black" points="285.5,-101 285.5,-123 479.5,-123 479.5,-101 285.5,-101"/>
<text text-anchor="start" x="305.5" y="-109.2" font-family="Helvetica,sans-Serif" font-size="11.00">diag_role_modified</text>
<polygon fill="none" stroke="black" points="479.5,-101 479.5,-123 572.5,-123 572.5,-101 479.5,-101"/>
<text text-anchor="start" x="482.5" y="-109.2" font-family="Helvetica,sans-Serif" font-size="11.00">text[2147483647]</text>
<polygon fill="none" stroke="black" points="285.5,-79 285.5,-101 479.5,-101 479.5,-79 285.5,-79"/>
<text text-anchor="start" x="305.5" y="-87.2" font-family="Helvetica,sans-Serif" font-size="11.00">diag_row_version</text>
<polygon fill="none" stroke="black" points="479.5,-79 479.5,-101 572.5,-101 572.5,-79 479.5,-79"/>
<text text-anchor="start" x="482.5" y="-87.2" font-family="Helvetica,sans-Serif" font-size="11.00">int8[19]</text>
<polygon fill="none" stroke="black" points="285.5,-57 285.5,-79 479.5,-79 479.5,-57 285.5,-57"/>
<text text-anchor="start" x="305.5" y="-65.2" font-family="Helvetica,sans-Serif" font-size="11.00">diag_update_count</text>
<polygon fill="none" stroke="black" points="479.5,-57 479.5,-79 572.5,-79 572.5,-57 479.5,-57"/>
<text text-anchor="start" x="482.5" y="-65.2" font-family="Helvetica,sans-Serif" font-size="11.00">int8[19]</text>
<polygon fill="#ffffff" stroke="transparent" points="285.5,-39 285.5,-57 386.5,-57 386.5,-39 285.5,-39"/>
<polygon fill="none" stroke="black" points="285.5,-39 285.5,-57 386.5,-57 386.5,-39 285.5,-39"/>
<text text-anchor="start" x="288.5" y="-45.2" font-family="Helvetica,sans-Serif" font-size="11.00">&lt; 1</text>
<polygon fill="#ffffff" stroke="transparent" points="386.5,-39 386.5,-57 479.5,-57 479.5,-39 386.5,-39"/>
<polygon fill="none" stroke="black" points="386.5,-39 386.5,-57 479.5,-57 479.5,-39 386.5,-39"/>
<text text-anchor="start" x="469.5" y="-45.2" font-family="Helvetica,sans-Serif" font-size="11.00"> &#160;</text>
<polygon fill="#ffffff" stroke="transparent" points="479.5,-39 479.5,-57 572.5,-57 572.5,-39 479.5,-39"/>
<polygon fill="none" stroke="black" points="479.5,-39 479.5,-57 572.5,-57 572.5,-39 479.5,-39"/>
<text text-anchor="start" x="553.5" y="-45.2" font-family="Helvetica,sans-Serif" font-size="11.00">1 &gt;</text>
<polygon fill="none" stroke="black" stroke-width="2" points="284,-38 284,-388 573,-388 573,-38 284,-38"/>
</a>
</g>
</g>
<!-- syst_perm_role_grants&#45;&gt;syst_perm_roles -->
<g id="edge1" class="edge">
<title>syst_perm_role_grants:w&#45;&gt;syst_perm_roles:e</title>
<path fill="none" stroke="black" d="M607.28,-354C596.29,-354 589.16,-354 573.5,-354"/>
<polygon fill="black" stroke="black" points="614,-354 622,-357.6 618,-354 622,-354 622,-354 622,-354 618,-354 622,-350.4 614,-354 614,-354"/>
<ellipse fill="none" stroke="black" cx="610.8" cy="-354" rx="3.2" ry="3.2"/>
</g>
<!-- syst_perm_functional_types -->
<g id="node3" class="node">
<title>syst_perm_functional_types</title>
<g id="a_node3"><a xlink:href="../../tables/syst_perm_functional_types.html" xlink:title="syst_perm_functional_types" target="_top">
<polygon fill="#ffffff" stroke="transparent" points="8,-197 8,-321 234,-321 234,-197 8,-197"/>
<polygon fill="#f5f5f5" stroke="transparent" points="8,-299 8,-321 234,-321 234,-299 8,-299"/>
<polygon fill="none" stroke="black" points="8,-299 8,-321 234,-321 234,-299 8,-299"/>
<text text-anchor="start" x="13" y="-308.2" font-family="Helvetica,sans-Serif" font-weight="bold" font-size="11.00">syst_perm_functional_types</text>
<text text-anchor="start" x="199" y="-307.2" font-family="Helvetica,sans-Serif" font-size="11.00">[table]</text>
<polygon fill="none" stroke="black" points="8,-277 8,-299 234,-299 234,-277 8,-277"/>
<image xlink:href="../../images/primaryKeys.png" width="11px" height="12px" preserveAspectRatio="xMinYMin meet" x="13" y="-294"/>
<text text-anchor="start" x="38" y="-285.2" font-family="Helvetica,sans-Serif" font-size="11.00">id</text>
<polygon fill="#ffffff" stroke="transparent" points="8,-255 8,-277 234,-277 234,-255 8,-255"/>
<polygon fill="none" stroke="black" points="8,-255 8,-277 234,-277 234,-255 8,-255"/>
<text text-anchor="start" x="38" y="-263.2" font-family="Helvetica,sans-Serif" font-size="11.00">internal_name</text>
<polygon fill="#ffffff" stroke="transparent" points="8,-233 8,-255 234,-255 234,-233 8,-233"/>
<polygon fill="none" stroke="black" points="8,-233 8,-255 234,-255 234,-233 8,-233"/>
<text text-anchor="start" x="38" y="-241.2" font-family="Helvetica,sans-Serif" font-size="11.00">display_name</text>
<polygon fill="none" stroke="black" points="8,-215 8,-233 234,-233 234,-215 8,-215"/>
<text text-anchor="start" x="11" y="-221.2" font-family="Helvetica,sans-Serif" font-size="11.00">...</text>
<polygon fill="#ffffff" stroke="transparent" points="8,-197 8,-215 110,-215 110,-197 8,-197"/>
<polygon fill="none" stroke="black" points="8,-197 8,-215 110,-215 110,-197 8,-197"/>
<text text-anchor="start" x="11" y="-203.2" font-family="Helvetica,sans-Serif" font-size="11.00"> &#160;</text>
<polygon fill="#ffffff" stroke="transparent" points="110,-197 110,-215 167,-215 167,-197 110,-197"/>
<polygon fill="none" stroke="black" points="110,-197 110,-215 167,-215 167,-197 110,-197"/>
<text text-anchor="start" x="157" y="-203.2" font-family="Helvetica,sans-Serif" font-size="11.00"> &#160;</text>
<polygon fill="#ffffff" stroke="transparent" points="167,-197 167,-215 234,-215 234,-197 167,-197"/>
<polygon fill="none" stroke="black" points="167,-197 167,-215 234,-215 234,-197 167,-197"/>
<text text-anchor="start" x="215" y="-203.2" font-family="Helvetica,sans-Serif" font-size="11.00">2 &gt;</text>
</a>
</g>
</g>
<!-- syst_perm_roles&#45;&gt;syst_perm_functional_types -->
<g id="edge2" class="edge">
<title>syst_perm_roles:w&#45;&gt;syst_perm_functional_types:e</title>
<path fill="none" stroke="black" d="M269.84,-288C258.41,-288 251.16,-288 235,-288"/>
<polygon fill="black" stroke="black" points="276.5,-288 284.5,-291.6 280.5,-288 284.5,-288 284.5,-288 284.5,-288 280.5,-288 284.5,-284.4 276.5,-288 276.5,-288"/>
<ellipse fill="none" stroke="black" cx="273.3" cy="-288" rx="3.2" ry="3.2"/>
</g>
</g>
</svg>
