<?xml version="1.0" encoding="UTF-8" standalone="no"?>
<!DOCTYPE svg PUBLIC "-//W3C//DTD SVG 1.1//EN"
 "http://www.w3.org/Graphics/SVG/1.1/DTD/svg11.dtd">
<!-- Generated by graphviz version 2.43.0 (0)
 -->
<!-- Title: twoDegreesRelationshipsDiagram Pages: 1 -->
<svg width="833pt" height="480pt"
 viewBox="0.00 0.00 833.00 480.00" xmlns="http://www.w3.org/2000/svg" xmlns:xlink="http://www.w3.org/1999/xlink">
<g id="graph0" class="graph" transform="scale(1 1) rotate(0) translate(4 476)">
<title>twoDegreesRelationshipsDiagram</title>
<polygon fill="#ffffff" stroke="transparent" points="-4,4 -4,-476 829,-476 829,4 -4,4"/>
<text text-anchor="middle" x="71.5" y="-7.2" font-family="Helvetica,sans-Serif" font-size="11.00">Generated by SchemaSpy</text>
<!-- syst_perm_role_grants -->
<g id="node1" class="node">
<title>syst_perm_role_grants</title>
<g id="a_node1"><a xlink:href="../../tables/syst_perm_role_grants.html" xlink:title="syst_perm_role_grants" target="_top">
<polygon fill="#ffffff" stroke="transparent" points="623,-190 623,-314 817,-314 817,-190 623,-190"/>
<polygon fill="#f5f5f5" stroke="transparent" points="623,-292 623,-314 817,-314 817,-292 623,-292"/>
<polygon fill="none" stroke="black" points="623,-292 623,-314 817,-314 817,-292 623,-292"/>
<text text-anchor="start" x="628" y="-301.2" font-family="Helvetica,sans-Serif" font-weight="bold" font-size="11.00">syst_perm_role_grants</text>
<text text-anchor="start" x="782" y="-300.2" font-family="Helvetica,sans-Serif" font-size="11.00">[table]</text>
<polygon fill="none" stroke="black" points="623,-270 623,-292 817,-292 817,-270 623,-270"/>
<image xlink:href="../../images/primaryKeys.png" width="11px" height="12px" preserveAspectRatio="xMinYMin meet" x="628" y="-287"/>
<text text-anchor="start" x="643" y="-278.2" font-family="Helvetica,sans-Serif" font-size="11.00">id</text>
<polygon fill="#ffffff" stroke="transparent" points="623,-248 623,-270 817,-270 817,-248 623,-248"/>
<polygon fill="none" stroke="black" points="623,-248 623,-270 817,-270 817,-248 623,-248"/>
<image xlink:href="../../images/foreignKeys.png" width="11px" height="12px" preserveAspectRatio="xMinYMin meet" x="628" y="-265"/>
<text text-anchor="start" x="643" y="-256.2" font-family="Helvetica,sans-Serif" font-size="11.00">perm_role_id</text>
<polygon fill="#ffffff" stroke="transparent" points="623,-226 623,-248 817,-248 817,-226 623,-226"/>
<polygon fill="none" stroke="black" points="623,-226 623,-248 817,-248 817,-226 623,-226"/>
<image xlink:href="../../images/foreignKeys.png" width="11px" height="12px" preserveAspectRatio="xMinYMin meet" x="628" y="-243"/>
<text text-anchor="start" x="643" y="-234.2" font-family="Helvetica,sans-Serif" font-size="11.00">perm_id</text>
<polygon fill="none" stroke="black" points="623,-208 623,-226 817,-226 817,-208 623,-208"/>
<text text-anchor="start" x="626" y="-214.2" font-family="Helvetica,sans-Serif" font-size="11.00">...</text>
<polygon fill="#ffffff" stroke="transparent" points="623,-190 623,-208 718,-208 718,-190 623,-190"/>
<polygon fill="none" stroke="black" points="623,-190 623,-208 718,-208 718,-190 623,-190"/>
<text text-anchor="start" x="626" y="-196.2" font-family="Helvetica,sans-Serif" font-size="11.00">&lt; 2</text>
<polygon fill="#ffffff" stroke="transparent" points="718,-190 718,-208 767,-208 767,-190 718,-190"/>
<polygon fill="none" stroke="black" points="718,-190 718,-208 767,-208 767,-190 718,-190"/>
<text text-anchor="start" x="757" y="-196.2" font-family="Helvetica,sans-Serif" font-size="11.00"> &#160;</text>
<polygon fill="#ffffff" stroke="transparent" points="767,-190 767,-208 817,-208 817,-190 767,-190"/>
<polygon fill="none" stroke="black" points="767,-190 767,-208 817,-208 817,-190 767,-190"/>
<text text-anchor="start" x="807" y="-196.2" font-family="Helvetica,sans-Serif" font-size="11.00"> &#160;</text>
</a>
</g>
</g>
<!-- syst_perms -->
<g id="node2" class="node">
<title>syst_perms</title>
<g id="a_node2"><a xlink:href="../../tables/syst_perms.html" xlink:title="syst_perms" target="_top">
<polygon fill="#ffffff" stroke="transparent" points="370.5,-37 370.5,-95 486.5,-95 486.5,-37 370.5,-37"/>
<polygon fill="#f5f5f5" stroke="transparent" points="370.5,-73 370.5,-95 486.5,-95 486.5,-73 370.5,-73"/>
<polygon fill="none" stroke="black" points="370.5,-73 370.5,-95 486.5,-95 486.5,-73 370.5,-73"/>
<text text-anchor="start" x="375.5" y="-82.2" font-family="Helvetica,sans-Serif" font-weight="bold" font-size="11.00">syst_perms</text>
<text text-anchor="start" x="451.5" y="-81.2" font-family="Helvetica,sans-Serif" font-size="11.00">[table]</text>
<polygon fill="none" stroke="black" points="370.5,-55 370.5,-73 486.5,-73 486.5,-55 370.5,-55"/>
<text text-anchor="start" x="373.5" y="-61.2" font-family="Helvetica,sans-Serif" font-size="11.00">...</text>
<polygon fill="#ffffff" stroke="transparent" points="370.5,-37 370.5,-55 421.5,-55 421.5,-37 370.5,-37"/>
<polygon fill="none" stroke="black" points="370.5,-37 370.5,-55 421.5,-55 421.5,-37 370.5,-37"/>
<text text-anchor="start" x="373.5" y="-43.2" font-family="Helvetica,sans-Serif" font-size="11.00">&lt; 1</text>
<polygon fill="#ffffff" stroke="transparent" points="421.5,-37 421.5,-55 449.5,-55 449.5,-37 421.5,-37"/>
<polygon fill="none" stroke="black" points="421.5,-37 421.5,-55 449.5,-55 449.5,-37 421.5,-37"/>
<text text-anchor="start" x="439.5" y="-43.2" font-family="Helvetica,sans-Serif" font-size="11.00"> &#160;</text>
<polygon fill="#ffffff" stroke="transparent" points="449.5,-37 449.5,-55 486.5,-55 486.5,-37 449.5,-37"/>
<polygon fill="none" stroke="black" points="449.5,-37 449.5,-55 486.5,-55 486.5,-37 449.5,-37"/>
<text text-anchor="start" x="467.5" y="-43.2" font-family="Helvetica,sans-Serif" font-size="11.00">1 &gt;</text>
</a>
</g>
</g>
<!-- syst_perm_role_grants&#45;&gt;syst_perms -->
<g id="edge1" class="edge">
<title>syst_perm_role_grants:w&#45;&gt;syst_perms:e</title>
<path fill="none" stroke="black" d="M607.36,-234.65C571.84,-220.54 618.8,-146.3 582,-105 551.54,-70.82 533.28,-64 487.5,-64"/>
<polygon fill="black" stroke="black" points="614.1,-235.73 621.43,-240.55 618.05,-236.37 622,-237 622,-237 622,-237 618.05,-236.37 622.57,-233.45 614.1,-235.73 614.1,-235.73"/>
<ellipse fill="none" stroke="black" cx="610.94" cy="-235.23" rx="3.2" ry="3.2"/>
</g>
<!-- syst_perm_roles -->
<g id="node3" class="node">
<title>syst_perm_roles</title>
<g id="a_node3"><a xlink:href="../../tables/syst_perm_roles.html" xlink:title="syst_perm_roles" target="_top">
<polygon fill="#ffffff" stroke="transparent" points="283,-116 283,-468 574,-468 574,-116 283,-116"/>
<polygon fill="#f5f5f5" stroke="transparent" points="285.5,-444 285.5,-466 572.5,-466 572.5,-444 285.5,-444"/>
<polygon fill="none" stroke="black" points="285.5,-444 285.5,-466 572.5,-466 572.5,-444 285.5,-444"/>
<text text-anchor="start" x="290.5" y="-453.2" font-family="Helvetica,sans-Serif" font-weight="bold" font-size="11.00">syst_perm_roles</text>
<text text-anchor="start" x="537.5" y="-452.2" font-family="Helvetica,sans-Serif" font-size="11.00">[table]</text>
<polygon fill="none" stroke="black" points="285.5,-422 285.5,-444 479.5,-444 479.5,-422 285.5,-422"/>
<image xlink:href="../../images/primaryKeys.png" width="11px" height="12px" preserveAspectRatio="xMinYMin meet" x="290.5" y="-439"/>
<text text-anchor="start" x="305.5" y="-430.2" font-family="Helvetica,sans-Serif" font-size="11.00">id</text>
<polygon fill="none" stroke="black" points="479.5,-422 479.5,-444 572.5,-444 572.5,-422 479.5,-422"/>
<text text-anchor="start" x="482.5" y="-430.2" font-family="Helvetica,sans-Serif" font-size="11.00">uuid[2147483647]</text>
<polygon fill="#ffffff" stroke="transparent" points="285.5,-400 285.5,-422 479.5,-422 479.5,-400 285.5,-400"/>
<polygon fill="none" stroke="black" points="285.5,-400 285.5,-422 479.5,-422 479.5,-400 285.5,-400"/>
<text text-anchor="start" x="305.5" y="-408.2" font-family="Helvetica,sans-Serif" font-size="11.00">internal_name</text>
<polygon fill="none" stroke="black" points="479.5,-400 479.5,-422 572.5,-422 572.5,-400 479.5,-400"/>
<text text-anchor="start" x="482.5" y="-408.2" font-family="Helvetica,sans-Serif" font-size="11.00">text[2147483647]</text>
<polygon fill="#ffffff" stroke="transparent" points="285.5,-378 285.5,-400 479.5,-400 479.5,-378 285.5,-378"/>
<polygon fill="none" stroke="black" points="285.5,-378 285.5,-400 479.5,-400 479.5,-378 285.5,-378"/>
<text text-anchor="start" x="305.5" y="-386.2" font-family="Helvetica,sans-Serif" font-size="11.00">display_name</text>
<polygon fill="none" stroke="black" points="479.5,-378 479.5,-400 572.5,-400 572.5,-378 479.5,-378"/>
<text text-anchor="start" x="482.5" y="-386.2" font-family="Helvetica,sans-Serif" font-size="11.00">text[2147483647]</text>
<polygon fill="none" stroke="black" points="285.5,-356 285.5,-378 479.5,-378 479.5,-356 285.5,-356"/>
<image xlink:href="../../images/foreignKeys.png" width="11px" height="12px" preserveAspectRatio="xMinYMin meet" x="290.5" y="-373"/>
<text text-anchor="start" x="305.5" y="-364.2" font-family="Helvetica,sans-Serif" font-size="11.00">perm_functional_type_id</text>
<polygon fill="none" stroke="black" points="479.5,-356 479.5,-378 572.5,-378 572.5,-356 479.5,-356"/>
<text text-anchor="start" x="482.5" y="-364.2" font-family="Helvetica,sans-Serif" font-size="11.00">uuid[2147483647]</text>
<polygon fill="none" stroke="black" points="285.5,-334 285.5,-356 479.5,-356 479.5,-334 285.5,-334"/>
<text text-anchor="start" x="305.5" y="-342.2" font-family="Helvetica,sans-Serif" font-size="11.00">syst_defined</text>
<polygon fill="none" stroke="black" points="479.5,-334 479.5,-356 572.5,-356 572.5,-334 479.5,-334"/>
<text text-anchor="start" x="482.5" y="-342.2" font-family="Helvetica,sans-Serif" font-size="11.00">bool[1]</text>
<polygon fill="none" stroke="black" points="285.5,-312 285.5,-334 479.5,-334 479.5,-312 285.5,-312"/>
<text text-anchor="start" x="305.5" y="-320.2" font-family="Helvetica,sans-Serif" font-size="11.00">syst_description</text>
<polygon fill="none" stroke="black" points="479.5,-312 479.5,-334 572.5,-334 572.5,-312 479.5,-312"/>
<text text-anchor="start" x="482.5" y="-320.2" font-family="Helvetica,sans-Serif" font-size="11.00">text[2147483647]</text>
<polygon fill="none" stroke="black" points="285.5,-290 285.5,-312 479.5,-312 479.5,-290 285.5,-290"/>
<text text-anchor="start" x="305.5" y="-298.2" font-family="Helvetica,sans-Serif" font-size="11.00">user_description</text>
<polygon fill="none" stroke="black" points="479.5,-290 479.5,-312 572.5,-312 572.5,-290 479.5,-290"/>
<text text-anchor="start" x="482.5" y="-298.2" font-family="Helvetica,sans-Serif" font-size="11.00">text[2147483647]</text>
<polygon fill="none" stroke="black" points="285.5,-268 285.5,-290 479.5,-290 479.5,-268 285.5,-268"/>
<text text-anchor="start" x="305.5" y="-276.2" font-family="Helvetica,sans-Serif" font-size="11.00">diag_timestamp_created</text>
<polygon fill="none" stroke="black" points="479.5,-268 479.5,-290 572.5,-290 572.5,-268 479.5,-268"/>
<text text-anchor="start" x="482.5" y="-276.2" font-family="Helvetica,sans-Serif" font-size="11.00">timestamptz[35,6]</text>
<polygon fill="none" stroke="black" points="285.5,-246 285.5,-268 479.5,-268 479.5,-246 285.5,-246"/>
<text text-anchor="start" x="305.5" y="-254.2" font-family="Helvetica,sans-Serif" font-size="11.00">diag_role_created</text>
<polygon fill="none" stroke="black" points="479.5,-246 479.5,-268 572.5,-268 572.5,-246 479.5,-246"/>
<text text-anchor="start" x="482.5" y="-254.2" font-family="Helvetica,sans-Serif" font-size="11.00">text[2147483647]</text>
<polygon fill="none" stroke="black" points="285.5,-224 285.5,-246 479.5,-246 479.5,-224 285.5,-224"/>
<text text-anchor="start" x="305.5" y="-232.2" font-family="Helvetica,sans-Serif" font-size="11.00">diag_timestamp_modified</text>
<polygon fill="none" stroke="black" points="479.5,-224 479.5,-246 572.5,-246 572.5,-224 479.5,-224"/>
<text text-anchor="start" x="482.5" y="-232.2" font-family="Helvetica,sans-Serif" font-size="11.00">timestamptz[35,6]</text>
<polygon fill="none" stroke="black" points="285.5,-202 285.5,-224 479.5,-224 479.5,-202 285.5,-202"/>
<text text-anchor="start" x="305.5" y="-210.2" font-family="Helvetica,sans-Serif" font-size="11.00">diag_wallclock_modified</text>
<polygon fill="none" stroke="black" points="479.5,-202 479.5,-224 572.5,-224 572.5,-202 479.5,-202"/>
<text text-anchor="start" x="482.5" y="-210.2" font-family="Helvetica,sans-Serif" font-size="11.00">timestamptz[35,6]</text>
<polygon fill="none" stroke="black" points="285.5,-180 285.5,-202 479.5,-202 479.5,-180 285.5,-180"/>
<text text-anchor="start" x="305.5" y="-188.2" font-family="Helvetica,sans-Serif" font-size="11.00">diag_role_modified</text>
<polygon fill="none" stroke="black" points="479.5,-180 479.5,-202 572.5,-202 572.5,-180 479.5,-180"/>
<text text-anchor="start" x="482.5" y="-188.2" font-family="Helvetica,sans-Serif" font-size="11.00">text[2147483647]</text>
<polygon fill="none" stroke="black" points="285.5,-158 285.5,-180 479.5,-180 479.5,-158 285.5,-158"/>
<text text-anchor="start" x="305.5" y="-166.2" font-family="Helvetica,sans-Serif" font-size="11.00">diag_row_version</text>
<polygon fill="none" stroke="black" points="479.5,-158 479.5,-180 572.5,-180 572.5,-158 479.5,-158"/>
<text text-anchor="start" x="482.5" y="-166.2" font-family="Helvetica,sans-Serif" font-size="11.00">int8[19]</text>
<polygon fill="none" stroke="black" points="285.5,-136 285.5,-158 479.5,-158 479.5,-136 285.5,-136"/>
<text text-anchor="start" x="305.5" y="-144.2" font-family="Helvetica,sans-Serif" font-size="11.00">diag_update_count</text>
<polygon fill="none" stroke="black" points="479.5,-136 479.5,-158 572.5,-158 572.5,-136 479.5,-136"/>
<text text-anchor="start" x="482.5" y="-144.2" font-family="Helvetica,sans-Serif" font-size="11.00">int8[19]</text>
<polygon fill="#ffffff" stroke="transparent" points="285.5,-118 285.5,-136 386.5,-136 386.5,-118 285.5,-118"/>
<polygon fill="none" stroke="black" points="285.5,-118 285.5,-136 386.5,-136 386.5,-118 285.5,-118"/>
<text text-anchor="start" x="288.5" y="-124.2" font-family="Helvetica,sans-Serif" font-size="11.00">&lt; 1</text>
<polygon fill="#ffffff" stroke="transparent" points="386.5,-118 386.5,-136 479.5,-136 479.5,-118 386.5,-118"/>
<polygon fill="none" stroke="black" points="386.5,-118 386.5,-136 479.5,-136 479.5,-118 386.5,-118"/>
<text text-anchor="start" x="469.5" y="-124.2" font-family="Helvetica,sans-Serif" font-size="11.00"> &#160;</text>
<polygon fill="#ffffff" stroke="transparent" points="479.5,-118 479.5,-136 572.5,-136 572.5,-118 479.5,-118"/>
<polygon fill="none" stroke="black" points="479.5,-118 479.5,-136 572.5,-136 572.5,-118 479.5,-118"/>
<text text-anchor="start" x="553.5" y="-124.2" font-family="Helvetica,sans-Serif" font-size="11.00">1 &gt;</text>
<polygon fill="none" stroke="black" stroke-width="2" points="284,-117 284,-467 573,-467 573,-117 284,-117"/>
</a>
</g>
</g>
<!-- syst_perm_role_grants&#45;&gt;syst_perm_roles -->
<g id="edge2" class="edge">
<title>syst_perm_role_grants:w&#45;&gt;syst_perm_roles:e</title>
<path fill="none" stroke="black" d="M607.78,-261.46C556.53,-282.61 648.14,-433 573.5,-433"/>
<polygon fill="black" stroke="black" points="614.12,-260.36 622.61,-262.55 618.06,-259.68 622,-259 622,-259 622,-259 618.06,-259.68 621.39,-255.45 614.12,-260.36 614.12,-260.36"/>
<ellipse fill="none" stroke="black" cx="610.96" cy="-260.91" rx="3.2" ry="3.2"/>
</g>
<!-- syst_perm_functional_types -->
<g id="node4" class="node">
<title>syst_perm_functional_types</title>
<g id="a_node4"><a xlink:href="../../tables/syst_perm_functional_types.html" xlink:title="syst_perm_functional_types" target="_top">
<polygon fill="#ffffff" stroke="transparent" points="8,-124 8,-248 234,-248 234,-124 8,-124"/>
<polygon fill="#f5f5f5" stroke="transparent" points="8,-226 8,-248 234,-248 234,-226 8,-226"/>
<polygon fill="none" stroke="black" points="8,-226 8,-248 234,-248 234,-226 8,-226"/>
<text text-anchor="start" x="13" y="-235.2" font-family="Helvetica,sans-Serif" font-weight="bold" font-size="11.00">syst_perm_functional_types</text>
<text text-anchor="start" x="199" y="-234.2" font-family="Helvetica,sans-Serif" font-size="11.00">[table]</text>
<polygon fill="none" stroke="black" points="8,-204 8,-226 234,-226 234,-204 8,-204"/>
<image xlink:href="../../images/primaryKeys.png" width="11px" height="12px" preserveAspectRatio="xMinYMin meet" x="13" y="-221"/>
<text text-anchor="start" x="38" y="-212.2" font-family="Helvetica,sans-Serif" font-size="11.00">id</text>
<polygon fill="#ffffff" stroke="transparent" points="8,-182 8,-204 234,-204 234,-182 8,-182"/>
<polygon fill="none" stroke="black" points="8,-182 8,-204 234,-204 234,-182 8,-182"/>
<text text-anchor="start" x="38" y="-190.2" font-family="Helvetica,sans-Serif" font-size="11.00">internal_name</text>
<polygon fill="#ffffff" stroke="transparent" points="8,-160 8,-182 234,-182 234,-160 8,-160"/>
<polygon fill="none" stroke="black" points="8,-160 8,-182 234,-182 234,-160 8,-160"/>
<text text-anchor="start" x="38" y="-168.2" font-family="Helvetica,sans-Serif" font-size="11.00">display_name</text>
<polygon fill="none" stroke="black" points="8,-142 8,-160 234,-160 234,-142 8,-142"/>
<text text-anchor="start" x="11" y="-148.2" font-family="Helvetica,sans-Serif" font-size="11.00">...</text>
<polygon fill="#ffffff" stroke="transparent" points="8,-124 8,-142 110,-142 110,-124 8,-124"/>
<polygon fill="none" stroke="black" points="8,-124 8,-142 110,-142 110,-124 8,-124"/>
<text text-anchor="start" x="11" y="-130.2" font-family="Helvetica,sans-Serif" font-size="11.00"> &#160;</text>
<polygon fill="#ffffff" stroke="transparent" points="110,-124 110,-142 167,-142 167,-124 110,-124"/>
<polygon fill="none" stroke="black" points="110,-124 110,-142 167,-142 167,-124 110,-124"/>
<text text-anchor="start" x="157" y="-130.2" font-family="Helvetica,sans-Serif" font-size="11.00"> &#160;</text>
<polygon fill="#ffffff" stroke="transparent" points="167,-124 167,-142 234,-142 234,-124 167,-124"/>
<polygon fill="none" stroke="black" points="167,-124 167,-142 234,-142 234,-124 167,-124"/>
<text text-anchor="start" x="215" y="-130.2" font-family="Helvetica,sans-Serif" font-size="11.00">2 &gt;</text>
</a>
</g>
</g>
<!-- syst_perms&#45;&gt;syst_perm_functional_types -->
<g id="edge4" class="edge">
<title>syst_perms:w&#45;&gt;syst_perm_functional_types:e</title>
<path fill="none" stroke="black" d="M354.97,-64.32C319.61,-66.07 302.82,-75.44 275,-105 239.35,-142.88 287.02,-215 235,-215"/>
<polygon fill="black" stroke="black" points="361.5,-64.18 369.58,-67.6 365.5,-64.09 369.5,-64 369.5,-64 369.5,-64 365.5,-64.09 369.42,-60.4 361.5,-64.18 361.5,-64.18"/>
<ellipse fill="none" stroke="black" cx="358.3" cy="-64.25" rx="3.2" ry="3.2"/>
</g>
<!-- syst_perm_roles&#45;&gt;syst_perm_functional_types -->
<g id="edge3" class="edge">
<title>syst_perm_roles:w&#45;&gt;syst_perm_functional_types:e</title>
<path fill="none" stroke="black" d="M270.14,-364.1C227.54,-343.09 300.22,-215 235,-215"/>
<polygon fill="black" stroke="black" points="276.66,-365.42 283.79,-370.53 280.58,-366.21 284.5,-367 284.5,-367 284.5,-367 280.58,-366.21 285.21,-363.47 276.66,-365.42 276.66,-365.42"/>
<ellipse fill="none" stroke="black" cx="273.52" cy="-364.78" rx="3.2" ry="3.2"/>
</g>
</g>
</svg>
