<?xml version="1.0" encoding="UTF-8" standalone="no"?>
<!DOCTYPE svg PUBLIC "-//W3C//DTD SVG 1.1//EN"
 "http://www.w3.org/Graphics/SVG/1.1/DTD/svg11.dtd">
<!-- Generated by graphviz version 2.43.0 (0)
 -->
<!-- Title: oneDegreeRelationshipsDiagram Pages: 1 -->
<svg width="558pt" height="450pt"
 viewBox="0.00 0.00 558.00 450.00" xmlns="http://www.w3.org/2000/svg" xmlns:xlink="http://www.w3.org/1999/xlink">
<g id="graph0" class="graph" transform="scale(1 1) rotate(0) translate(4 446)">
<title>oneDegreeRelationshipsDiagram</title>
<polygon fill="#ffffff" stroke="transparent" points="-4,4 -4,-446 554,-446 554,4 -4,4"/>
<text text-anchor="middle" x="71.5" y="-7.2" font-family="Helvetica,sans-Serif" font-size="11.00">Generated by SchemaSpy</text>
<!-- syst_perm_role_grants -->
<g id="node1" class="node">
<title>syst_perm_role_grants</title>
<g id="a_node1"><a xlink:href="../../tables/syst_perm_role_grants.html" xlink:title="syst_perm_role_grants" target="_top">
<polygon fill="#ffffff" stroke="transparent" points="251,-37 251,-389 542,-389 542,-37 251,-37"/>
<polygon fill="#f5f5f5" stroke="transparent" points="253.5,-365 253.5,-387 540.5,-387 540.5,-365 253.5,-365"/>
<polygon fill="none" stroke="black" points="253.5,-365 253.5,-387 540.5,-387 540.5,-365 253.5,-365"/>
<text text-anchor="start" x="258.5" y="-374.2" font-family="Helvetica,sans-Serif" font-weight="bold" font-size="11.00">syst_perm_role_grants</text>
<text text-anchor="start" x="505.5" y="-373.2" font-family="Helvetica,sans-Serif" font-size="11.00">[table]</text>
<polygon fill="none" stroke="black" points="253.5,-343 253.5,-365 447.5,-365 447.5,-343 253.5,-343"/>
<image xlink:href="../../images/primaryKeys.png" width="11px" height="12px" preserveAspectRatio="xMinYMin meet" x="258.5" y="-360"/>
<text text-anchor="start" x="273.5" y="-351.2" font-family="Helvetica,sans-Serif" font-size="11.00">id</text>
<polygon fill="none" stroke="black" points="447.5,-343 447.5,-365 540.5,-365 540.5,-343 447.5,-343"/>
<text text-anchor="start" x="450.5" y="-351.2" font-family="Helvetica,sans-Serif" font-size="11.00">uuid[2147483647]</text>
<polygon fill="#ffffff" stroke="transparent" points="253.5,-321 253.5,-343 447.5,-343 447.5,-321 253.5,-321"/>
<polygon fill="none" stroke="black" points="253.5,-321 253.5,-343 447.5,-343 447.5,-321 253.5,-321"/>
<image xlink:href="../../images/foreignKeys.png" width="11px" height="12px" preserveAspectRatio="xMinYMin meet" x="258.5" y="-338"/>
<text text-anchor="start" x="273.5" y="-329.2" font-family="Helvetica,sans-Serif" font-size="11.00">perm_role_id</text>
<polygon fill="none" stroke="black" points="447.5,-321 447.5,-343 540.5,-343 540.5,-321 447.5,-321"/>
<text text-anchor="start" x="450.5" y="-329.2" font-family="Helvetica,sans-Serif" font-size="11.00">uuid[2147483647]</text>
<polygon fill="#ffffff" stroke="transparent" points="253.5,-299 253.5,-321 447.5,-321 447.5,-299 253.5,-299"/>
<polygon fill="none" stroke="black" points="253.5,-299 253.5,-321 447.5,-321 447.5,-299 253.5,-299"/>
<image xlink:href="../../images/foreignKeys.png" width="11px" height="12px" preserveAspectRatio="xMinYMin meet" x="258.5" y="-316"/>
<text text-anchor="start" x="273.5" y="-307.2" font-family="Helvetica,sans-Serif" font-size="11.00">perm_id</text>
<polygon fill="none" stroke="black" points="447.5,-299 447.5,-321 540.5,-321 540.5,-299 447.5,-299"/>
<text text-anchor="start" x="450.5" y="-307.2" font-family="Helvetica,sans-Serif" font-size="11.00">uuid[2147483647]</text>
<polygon fill="none" stroke="black" points="253.5,-277 253.5,-299 447.5,-299 447.5,-277 253.5,-277"/>
<text text-anchor="start" x="273.5" y="-285.2" font-family="Helvetica,sans-Serif" font-size="11.00">view_scope</text>
<polygon fill="none" stroke="black" points="447.5,-277 447.5,-299 540.5,-299 540.5,-277 447.5,-277"/>
<text text-anchor="start" x="450.5" y="-285.2" font-family="Helvetica,sans-Serif" font-size="11.00">text[2147483647]</text>
<polygon fill="none" stroke="black" points="253.5,-255 253.5,-277 447.5,-277 447.5,-255 253.5,-255"/>
<text text-anchor="start" x="273.5" y="-263.2" font-family="Helvetica,sans-Serif" font-size="11.00">maint_scope</text>
<polygon fill="none" stroke="black" points="447.5,-255 447.5,-277 540.5,-277 540.5,-255 447.5,-255"/>
<text text-anchor="start" x="450.5" y="-263.2" font-family="Helvetica,sans-Serif" font-size="11.00">text[2147483647]</text>
<polygon fill="none" stroke="black" points="253.5,-233 253.5,-255 447.5,-255 447.5,-233 253.5,-233"/>
<text text-anchor="start" x="273.5" y="-241.2" font-family="Helvetica,sans-Serif" font-size="11.00">admin_scope</text>
<polygon fill="none" stroke="black" points="447.5,-233 447.5,-255 540.5,-255 540.5,-233 447.5,-233"/>
<text text-anchor="start" x="450.5" y="-241.2" font-family="Helvetica,sans-Serif" font-size="11.00">text[2147483647]</text>
<polygon fill="none" stroke="black" points="253.5,-211 253.5,-233 447.5,-233 447.5,-211 253.5,-211"/>
<text text-anchor="start" x="273.5" y="-219.2" font-family="Helvetica,sans-Serif" font-size="11.00">ops_scope</text>
<polygon fill="none" stroke="black" points="447.5,-211 447.5,-233 540.5,-233 540.5,-211 447.5,-211"/>
<text text-anchor="start" x="450.5" y="-219.2" font-family="Helvetica,sans-Serif" font-size="11.00">text[2147483647]</text>
<polygon fill="none" stroke="black" points="253.5,-189 253.5,-211 447.5,-211 447.5,-189 253.5,-189"/>
<text text-anchor="start" x="273.5" y="-197.2" font-family="Helvetica,sans-Serif" font-size="11.00">diag_timestamp_created</text>
<polygon fill="none" stroke="black" points="447.5,-189 447.5,-211 540.5,-211 540.5,-189 447.5,-189"/>
<text text-anchor="start" x="450.5" y="-197.2" font-family="Helvetica,sans-Serif" font-size="11.00">timestamptz[35,6]</text>
<polygon fill="none" stroke="black" points="253.5,-167 253.5,-189 447.5,-189 447.5,-167 253.5,-167"/>
<text text-anchor="start" x="273.5" y="-175.2" font-family="Helvetica,sans-Serif" font-size="11.00">diag_role_created</text>
<polygon fill="none" stroke="black" points="447.5,-167 447.5,-189 540.5,-189 540.5,-167 447.5,-167"/>
<text text-anchor="start" x="450.5" y="-175.2" font-family="Helvetica,sans-Serif" font-size="11.00">text[2147483647]</text>
<polygon fill="none" stroke="black" points="253.5,-145 253.5,-167 447.5,-167 447.5,-145 253.5,-145"/>
<text text-anchor="start" x="273.5" y="-153.2" font-family="Helvetica,sans-Serif" font-size="11.00">diag_timestamp_modified</text>
<polygon fill="none" stroke="black" points="447.5,-145 447.5,-167 540.5,-167 540.5,-145 447.5,-145"/>
<text text-anchor="start" x="450.5" y="-153.2" font-family="Helvetica,sans-Serif" font-size="11.00">timestamptz[35,6]</text>
<polygon fill="none" stroke="black" points="253.5,-123 253.5,-145 447.5,-145 447.5,-123 253.5,-123"/>
<text text-anchor="start" x="273.5" y="-131.2" font-family="Helvetica,sans-Serif" font-size="11.00">diag_wallclock_modified</text>
<polygon fill="none" stroke="black" points="447.5,-123 447.5,-145 540.5,-145 540.5,-123 447.5,-123"/>
<text text-anchor="start" x="450.5" y="-131.2" font-family="Helvetica,sans-Serif" font-size="11.00">timestamptz[35,6]</text>
<polygon fill="none" stroke="black" points="253.5,-101 253.5,-123 447.5,-123 447.5,-101 253.5,-101"/>
<text text-anchor="start" x="273.5" y="-109.2" font-family="Helvetica,sans-Serif" font-size="11.00">diag_role_modified</text>
<polygon fill="none" stroke="black" points="447.5,-101 447.5,-123 540.5,-123 540.5,-101 447.5,-101"/>
<text text-anchor="start" x="450.5" y="-109.2" font-family="Helvetica,sans-Serif" font-size="11.00">text[2147483647]</text>
<polygon fill="none" stroke="black" points="253.5,-79 253.5,-101 447.5,-101 447.5,-79 253.5,-79"/>
<text text-anchor="start" x="273.5" y="-87.2" font-family="Helvetica,sans-Serif" font-size="11.00">diag_row_version</text>
<polygon fill="none" stroke="black" points="447.5,-79 447.5,-101 540.5,-101 540.5,-79 447.5,-79"/>
<text text-anchor="start" x="450.5" y="-87.2" font-family="Helvetica,sans-Serif" font-size="11.00">int8[19]</text>
<polygon fill="none" stroke="black" points="253.5,-57 253.5,-79 447.5,-79 447.5,-57 253.5,-57"/>
<text text-anchor="start" x="273.5" y="-65.2" font-family="Helvetica,sans-Serif" font-size="11.00">diag_update_count</text>
<polygon fill="none" stroke="black" points="447.5,-57 447.5,-79 540.5,-79 540.5,-57 447.5,-57"/>
<text text-anchor="start" x="450.5" y="-65.2" font-family="Helvetica,sans-Serif" font-size="11.00">int8[19]</text>
<polygon fill="#ffffff" stroke="transparent" points="253.5,-39 253.5,-57 354.5,-57 354.5,-39 253.5,-39"/>
<polygon fill="none" stroke="black" points="253.5,-39 253.5,-57 354.5,-57 354.5,-39 253.5,-39"/>
<text text-anchor="start" x="256.5" y="-45.2" font-family="Helvetica,sans-Serif" font-size="11.00">&lt; 2</text>
<polygon fill="#ffffff" stroke="transparent" points="354.5,-39 354.5,-57 447.5,-57 447.5,-39 354.5,-39"/>
<polygon fill="none" stroke="black" points="354.5,-39 354.5,-57 447.5,-57 447.5,-39 354.5,-39"/>
<text text-anchor="start" x="437.5" y="-45.2" font-family="Helvetica,sans-Serif" font-size="11.00"> &#160;</text>
<polygon fill="#ffffff" stroke="transparent" points="447.5,-39 447.5,-57 540.5,-57 540.5,-39 447.5,-39"/>
<polygon fill="none" stroke="black" points="447.5,-39 447.5,-57 540.5,-57 540.5,-39 447.5,-39"/>
<text text-anchor="start" x="521.5" y="-45.2" font-family="Helvetica,sans-Serif" font-size="11.00">0 &gt;</text>
<polygon fill="none" stroke="black" stroke-width="2" points="252,-38 252,-388 541,-388 541,-38 252,-38"/>
</a>
</g>
</g>
<!-- syst_perms -->
<g id="node2" class="node">
<title>syst_perms</title>
<g id="a_node2"><a xlink:href="../../tables/syst_perms.html" xlink:title="syst_perms" target="_top">
<polygon fill="#ffffff" stroke="transparent" points="8,-125 8,-271 202,-271 202,-125 8,-125"/>
<polygon fill="#f5f5f5" stroke="transparent" points="8,-249 8,-271 202,-271 202,-249 8,-249"/>
<polygon fill="none" stroke="black" points="8,-249 8,-271 202,-271 202,-249 8,-249"/>
<text text-anchor="start" x="13" y="-258.2" font-family="Helvetica,sans-Serif" font-weight="bold" font-size="11.00">syst_perms</text>
<text text-anchor="start" x="167" y="-257.2" font-family="Helvetica,sans-Serif" font-size="11.00">[table]</text>
<polygon fill="none" stroke="black" points="8,-227 8,-249 202,-249 202,-227 8,-227"/>
<image xlink:href="../../images/primaryKeys.png" width="11px" height="12px" preserveAspectRatio="xMinYMin meet" x="13" y="-244"/>
<text text-anchor="start" x="28" y="-235.2" font-family="Helvetica,sans-Serif" font-size="11.00">id</text>
<polygon fill="#ffffff" stroke="transparent" points="8,-205 8,-227 202,-227 202,-205 8,-205"/>
<polygon fill="none" stroke="black" points="8,-205 8,-227 202,-227 202,-205 8,-205"/>
<text text-anchor="start" x="28" y="-213.2" font-family="Helvetica,sans-Serif" font-size="11.00">internal_name</text>
<polygon fill="#ffffff" stroke="transparent" points="8,-183 8,-205 202,-205 202,-183 8,-183"/>
<polygon fill="none" stroke="black" points="8,-183 8,-205 202,-205 202,-183 8,-183"/>
<text text-anchor="start" x="28" y="-191.2" font-family="Helvetica,sans-Serif" font-size="11.00">display_name</text>
<polygon fill="none" stroke="black" points="8,-161 8,-183 202,-183 202,-161 8,-161"/>
<image xlink:href="../../images/foreignKeys.png" width="11px" height="12px" preserveAspectRatio="xMinYMin meet" x="13" y="-178"/>
<text text-anchor="start" x="28" y="-169.2" font-family="Helvetica,sans-Serif" font-size="11.00">perm_functional_type_id</text>
<polygon fill="none" stroke="black" points="8,-143 8,-161 202,-161 202,-143 8,-143"/>
<text text-anchor="start" x="11" y="-149.2" font-family="Helvetica,sans-Serif" font-size="11.00">...</text>
<polygon fill="#ffffff" stroke="transparent" points="8,-125 8,-143 98,-143 98,-125 8,-125"/>
<polygon fill="none" stroke="black" points="8,-125 8,-143 98,-143 98,-125 8,-125"/>
<text text-anchor="start" x="11" y="-131.2" font-family="Helvetica,sans-Serif" font-size="11.00">&lt; 1</text>
<polygon fill="#ffffff" stroke="transparent" points="98,-125 98,-143 145,-143 145,-125 98,-125"/>
<polygon fill="none" stroke="black" points="98,-125 98,-143 145,-143 145,-125 98,-125"/>
<text text-anchor="start" x="135" y="-131.2" font-family="Helvetica,sans-Serif" font-size="11.00"> &#160;</text>
<polygon fill="#ffffff" stroke="transparent" points="145,-125 145,-143 202,-143 202,-125 145,-125"/>
<polygon fill="none" stroke="black" points="145,-125 145,-143 202,-143 202,-125 145,-125"/>
<text text-anchor="start" x="183" y="-131.2" font-family="Helvetica,sans-Serif" font-size="11.00">1 &gt;</text>
</a>
</g>
</g>
<!-- syst_perm_role_grants&#45;&gt;syst_perms -->
<g id="edge1" class="edge">
<title>syst_perm_role_grants:w&#45;&gt;syst_perms:e</title>
<path fill="none" stroke="black" d="M238.69,-305.28C220.83,-289.26 235.77,-238 203,-238"/>
<polygon fill="black" stroke="black" points="244.93,-307.41 251.33,-313.41 248.72,-308.71 252.5,-310 252.5,-310 252.5,-310 248.72,-308.71 253.67,-306.59 244.93,-307.41 244.93,-307.41"/>
<ellipse fill="none" stroke="black" cx="241.9" cy="-306.37" rx="3.2" ry="3.2"/>
</g>
<!-- syst_perm_roles -->
<g id="node3" class="node">
<title>syst_perm_roles</title>
<g id="a_node3"><a xlink:href="../../tables/syst_perm_roles.html" xlink:title="syst_perm_roles" target="_top">
<polygon fill="#ffffff" stroke="transparent" points="8,-292 8,-438 202,-438 202,-292 8,-292"/>
<polygon fill="#f5f5f5" stroke="transparent" points="8,-416 8,-438 202,-438 202,-416 8,-416"/>
<polygon fill="none" stroke="black" points="8,-416 8,-438 202,-438 202,-416 8,-416"/>
<text text-anchor="start" x="13" y="-425.2" font-family="Helvetica,sans-Serif" font-weight="bold" font-size="11.00">syst_perm_roles</text>
<text text-anchor="start" x="167" y="-424.2" font-family="Helvetica,sans-Serif" font-size="11.00">[table]</text>
<polygon fill="none" stroke="black" points="8,-394 8,-416 202,-416 202,-394 8,-394"/>
<image xlink:href="../../images/primaryKeys.png" width="11px" height="12px" preserveAspectRatio="xMinYMin meet" x="13" y="-411"/>
<text text-anchor="start" x="28" y="-402.2" font-family="Helvetica,sans-Serif" font-size="11.00">id</text>
<polygon fill="#ffffff" stroke="transparent" points="8,-372 8,-394 202,-394 202,-372 8,-372"/>
<polygon fill="none" stroke="black" points="8,-372 8,-394 202,-394 202,-372 8,-372"/>
<text text-anchor="start" x="28" y="-380.2" font-family="Helvetica,sans-Serif" font-size="11.00">internal_name</text>
<polygon fill="#ffffff" stroke="transparent" points="8,-350 8,-372 202,-372 202,-350 8,-350"/>
<polygon fill="none" stroke="black" points="8,-350 8,-372 202,-372 202,-350 8,-350"/>
<text text-anchor="start" x="28" y="-358.2" font-family="Helvetica,sans-Serif" font-size="11.00">display_name</text>
<polygon fill="none" stroke="black" points="8,-328 8,-350 202,-350 202,-328 8,-328"/>
<image xlink:href="../../images/foreignKeys.png" width="11px" height="12px" preserveAspectRatio="xMinYMin meet" x="13" y="-345"/>
<text text-anchor="start" x="28" y="-336.2" font-family="Helvetica,sans-Serif" font-size="11.00">perm_functional_type_id</text>
<polygon fill="none" stroke="black" points="8,-310 8,-328 202,-328 202,-310 8,-310"/>
<text text-anchor="start" x="11" y="-316.2" font-family="Helvetica,sans-Serif" font-size="11.00">...</text>
<polygon fill="#ffffff" stroke="transparent" points="8,-292 8,-310 98,-310 98,-292 8,-292"/>
<polygon fill="none" stroke="black" points="8,-292 8,-310 98,-310 98,-292 8,-292"/>
<text text-anchor="start" x="11" y="-298.2" font-family="Helvetica,sans-Serif" font-size="11.00">&lt; 1</text>
<polygon fill="#ffffff" stroke="transparent" points="98,-292 98,-310 145,-310 145,-292 98,-292"/>
<polygon fill="none" stroke="black" points="98,-292 98,-310 145,-310 145,-292 98,-292"/>
<text text-anchor="start" x="135" y="-298.2" font-family="Helvetica,sans-Serif" font-size="11.00"> &#160;</text>
<polygon fill="#ffffff" stroke="transparent" points="145,-292 145,-310 202,-310 202,-292 145,-292"/>
<polygon fill="none" stroke="black" points="145,-292 145,-310 202,-310 202,-292 145,-292"/>
<text text-anchor="start" x="183" y="-298.2" font-family="Helvetica,sans-Serif" font-size="11.00">1 &gt;</text>
</a>
</g>
</g>
<!-- syst_perm_role_grants&#45;&gt;syst_perm_roles -->
<g id="edge2" class="edge">
<title>syst_perm_role_grants:w&#45;&gt;syst_perm_roles:e</title>
<path fill="none" stroke="black" d="M238.59,-336.79C220.67,-353.03 236.08,-405 203,-405"/>
<polygon fill="black" stroke="black" points="244.94,-334.61 253.67,-335.4 248.72,-333.3 252.5,-332 252.5,-332 252.5,-332 248.72,-333.3 251.33,-328.6 244.94,-334.61 244.94,-334.61"/>
<ellipse fill="none" stroke="black" cx="241.91" cy="-335.65" rx="3.2" ry="3.2"/>
</g>
</g>
</svg>
