<?xml version="1.0" encoding="UTF-8" standalone="no"?>
<!DOCTYPE svg PUBLIC "-//W3C//DTD SVG 1.1//EN"
 "http://www.w3.org/Graphics/SVG/1.1/DTD/svg11.dtd">
<!-- Generated by graphviz version 2.43.0 (0)
 -->
<!-- Title: compactRelationshipsDiagram Pages: 1 -->
<svg width="746pt" height="300pt"
 viewBox="0.00 0.00 746.00 300.00" xmlns="http://www.w3.org/2000/svg" xmlns:xlink="http://www.w3.org/1999/xlink">
<g id="graph0" class="graph" transform="scale(1 1) rotate(0) translate(4 296)">
<title>compactRelationshipsDiagram</title>
<polygon fill="#ffffff" stroke="transparent" points="-4,4 -4,-296 742,-296 742,4 -4,4"/>
<text text-anchor="middle" x="79.5" y="-7.2" font-family="Helvetica,sans-Serif" font-size="11.00">Generated by SchemaSpy</text>
<!-- syst_enum_functional_types -->
<g id="node1" class="node">
<title>syst_enum_functional_types</title>
<g id="a_node1"><a xlink:href="../../tables/syst_enum_functional_types.html" xlink:title="syst_enum_functional_types" target="_top">
<polygon fill="#ffffff" stroke="transparent" points="251,-37 251,-183 487,-183 487,-37 251,-37"/>
<polygon fill="#f5f5f5" stroke="transparent" points="251,-161 251,-183 487,-183 487,-161 251,-161"/>
<polygon fill="none" stroke="black" points="251,-161 251,-183 487,-183 487,-161 251,-161"/>
<text text-anchor="start" x="256" y="-170.2" font-family="Helvetica,sans-Serif" font-weight="bold" font-size="11.00">syst_enum_functional_types</text>
<text text-anchor="start" x="445" y="-169.2" font-family="Helvetica,sans-Serif" font-size="11.00">[table]</text>
<polygon fill="none" stroke="black" points="251,-139 251,-161 487,-161 487,-139 251,-139"/>
<image xlink:href="../../images/primaryKeys.png" width="11px" height="12px" preserveAspectRatio="xMinYMin meet" x="256" y="-156"/>
<text text-anchor="start" x="284" y="-147.2" font-family="Helvetica,sans-Serif" font-size="11.00">id</text>
<polygon fill="#ffffff" stroke="transparent" points="251,-117 251,-139 487,-139 487,-117 251,-117"/>
<polygon fill="none" stroke="black" points="251,-117 251,-139 487,-139 487,-117 251,-117"/>
<text text-anchor="start" x="284" y="-125.2" font-family="Helvetica,sans-Serif" font-size="11.00">internal_name</text>
<polygon fill="#ffffff" stroke="transparent" points="251,-95 251,-117 487,-117 487,-95 251,-95"/>
<polygon fill="none" stroke="black" points="251,-95 251,-117 487,-117 487,-95 251,-95"/>
<text text-anchor="start" x="284" y="-103.2" font-family="Helvetica,sans-Serif" font-size="11.00">display_name</text>
<polygon fill="none" stroke="black" points="251,-73 251,-95 487,-95 487,-73 251,-73"/>
<image xlink:href="../../images/foreignKeys.png" width="11px" height="12px" preserveAspectRatio="xMinYMin meet" x="256" y="-90"/>
<text text-anchor="start" x="284" y="-81.2" font-family="Helvetica,sans-Serif" font-size="11.00">enum_id</text>
<polygon fill="none" stroke="black" points="251,-55 251,-73 487,-73 487,-55 251,-55"/>
<text text-anchor="start" x="254" y="-61.2" font-family="Helvetica,sans-Serif" font-size="11.00">...</text>
<polygon fill="#ffffff" stroke="transparent" points="251,-37 251,-55 362,-55 362,-37 251,-37"/>
<polygon fill="none" stroke="black" points="251,-37 251,-55 362,-55 362,-37 251,-37"/>
<text text-anchor="start" x="254" y="-43.2" font-family="Helvetica,sans-Serif" font-size="11.00">&lt; 1</text>
<polygon fill="#ffffff" stroke="transparent" points="362,-37 362,-55 418,-55 418,-37 362,-37"/>
<polygon fill="none" stroke="black" points="362,-37 362,-55 418,-55 418,-37 362,-37"/>
<text text-anchor="start" x="407" y="-43.2" font-family="Helvetica,sans-Serif" font-size="11.00"> &#160;</text>
<polygon fill="#ffffff" stroke="transparent" points="418,-37 418,-55 487,-55 487,-37 418,-37"/>
<polygon fill="none" stroke="black" points="418,-37 418,-55 487,-55 487,-37 418,-37"/>
<text text-anchor="start" x="464" y="-43.2" font-family="Helvetica,sans-Serif" font-size="11.00">1 &gt;</text>
</a>
</g>
</g>
<!-- syst_enums -->
<g id="node3" class="node">
<title>syst_enums</title>
<g id="a_node3"><a xlink:href="../../tables/syst_enums.html" xlink:title="syst_enums" target="_top">
<polygon fill="#ffffff" stroke="transparent" points="8,-54 8,-178 202,-178 202,-54 8,-54"/>
<polygon fill="#f5f5f5" stroke="transparent" points="8,-156 8,-178 202,-178 202,-156 8,-156"/>
<polygon fill="none" stroke="black" points="8,-156 8,-178 202,-178 202,-156 8,-156"/>
<text text-anchor="start" x="13" y="-165.2" font-family="Helvetica,sans-Serif" font-weight="bold" font-size="11.00">syst_enums</text>
<text text-anchor="start" x="160" y="-164.2" font-family="Helvetica,sans-Serif" font-size="11.00">[table]</text>
<polygon fill="none" stroke="black" points="8,-134 8,-156 202,-156 202,-134 8,-134"/>
<image xlink:href="../../images/primaryKeys.png" width="11px" height="12px" preserveAspectRatio="xMinYMin meet" x="13" y="-151"/>
<text text-anchor="start" x="28" y="-142.2" font-family="Helvetica,sans-Serif" font-size="11.00">id</text>
<polygon fill="#ffffff" stroke="transparent" points="8,-112 8,-134 202,-134 202,-112 8,-112"/>
<polygon fill="none" stroke="black" points="8,-112 8,-134 202,-134 202,-112 8,-112"/>
<text text-anchor="start" x="28" y="-120.2" font-family="Helvetica,sans-Serif" font-size="11.00">internal_name</text>
<polygon fill="#ffffff" stroke="transparent" points="8,-90 8,-112 202,-112 202,-90 8,-90"/>
<polygon fill="none" stroke="black" points="8,-90 8,-112 202,-112 202,-90 8,-90"/>
<text text-anchor="start" x="28" y="-98.2" font-family="Helvetica,sans-Serif" font-size="11.00">display_name</text>
<polygon fill="none" stroke="black" points="8,-72 8,-90 202,-90 202,-72 8,-72"/>
<text text-anchor="start" x="11" y="-78.2" font-family="Helvetica,sans-Serif" font-size="11.00">...</text>
<polygon fill="#ffffff" stroke="transparent" points="8,-54 8,-72 92,-72 92,-54 8,-54"/>
<polygon fill="none" stroke="black" points="8,-54 8,-72 92,-72 92,-54 8,-54"/>
<text text-anchor="start" x="11" y="-60.2" font-family="Helvetica,sans-Serif" font-size="11.00"> &#160;</text>
<polygon fill="#ffffff" stroke="transparent" points="92,-54 92,-72 141,-72 141,-54 92,-54"/>
<polygon fill="none" stroke="black" points="92,-54 92,-72 141,-72 141,-54 92,-54"/>
<text text-anchor="start" x="130" y="-60.2" font-family="Helvetica,sans-Serif" font-size="11.00"> &#160;</text>
<polygon fill="#ffffff" stroke="transparent" points="141,-54 141,-72 202,-72 202,-54 141,-54"/>
<polygon fill="none" stroke="black" points="141,-54 141,-72 202,-72 202,-54 141,-54"/>
<text text-anchor="start" x="179" y="-60.2" font-family="Helvetica,sans-Serif" font-size="11.00">2 &gt;</text>
</a>
</g>
</g>
<!-- syst_enum_functional_types&#45;&gt;syst_enums -->
<g id="edge1" class="edge">
<title>syst_enum_functional_types:w&#45;&gt;syst_enums:e</title>
<path fill="none" stroke="black" d="M236.3,-89.2C221.69,-103.95 231.08,-145 203,-145"/>
<polygon fill="black" stroke="black" points="242.52,-86.84 251.28,-87.37 246.26,-85.42 250,-84 250,-84 250,-84 246.26,-85.42 248.72,-80.63 242.52,-86.84 242.52,-86.84"/>
<ellipse fill="none" stroke="black" cx="239.53" cy="-87.97" rx="3.2" ry="3.2"/>
</g>
<!-- syst_enum_items -->
<g id="node2" class="node">
<title>syst_enum_items</title>
<g id="a_node2"><a xlink:href="../../tables/syst_enum_items.html" xlink:title="syst_enum_items" target="_top">
<polygon fill="#ffffff" stroke="transparent" points="536,-120 536,-288 730,-288 730,-120 536,-120"/>
<polygon fill="#f5f5f5" stroke="transparent" points="536,-266 536,-288 730,-288 730,-266 536,-266"/>
<polygon fill="none" stroke="black" points="536,-266 536,-288 730,-288 730,-266 536,-266"/>
<text text-anchor="start" x="541" y="-275.2" font-family="Helvetica,sans-Serif" font-weight="bold" font-size="11.00">syst_enum_items</text>
<text text-anchor="start" x="688" y="-274.2" font-family="Helvetica,sans-Serif" font-size="11.00">[table]</text>
<polygon fill="none" stroke="black" points="536,-244 536,-266 730,-266 730,-244 536,-244"/>
<image xlink:href="../../images/primaryKeys.png" width="11px" height="12px" preserveAspectRatio="xMinYMin meet" x="541" y="-261"/>
<text text-anchor="start" x="556" y="-252.2" font-family="Helvetica,sans-Serif" font-size="11.00">id</text>
<polygon fill="#ffffff" stroke="transparent" points="536,-222 536,-244 730,-244 730,-222 536,-222"/>
<polygon fill="none" stroke="black" points="536,-222 536,-244 730,-244 730,-222 536,-222"/>
<text text-anchor="start" x="556" y="-230.2" font-family="Helvetica,sans-Serif" font-size="11.00">internal_name</text>
<polygon fill="#ffffff" stroke="transparent" points="536,-200 536,-222 730,-222 730,-200 536,-200"/>
<polygon fill="none" stroke="black" points="536,-200 536,-222 730,-222 730,-200 536,-200"/>
<text text-anchor="start" x="556" y="-208.2" font-family="Helvetica,sans-Serif" font-size="11.00">display_name</text>
<polygon fill="none" stroke="black" points="536,-178 536,-200 730,-200 730,-178 536,-178"/>
<image xlink:href="../../images/foreignKeys.png" width="11px" height="12px" preserveAspectRatio="xMinYMin meet" x="541" y="-195"/>
<text text-anchor="start" x="556" y="-186.2" font-family="Helvetica,sans-Serif" font-size="11.00">enum_id</text>
<polygon fill="none" stroke="black" points="536,-156 536,-178 730,-178 730,-156 536,-156"/>
<image xlink:href="../../images/foreignKeys.png" width="11px" height="12px" preserveAspectRatio="xMinYMin meet" x="541" y="-173"/>
<text text-anchor="start" x="556" y="-164.2" font-family="Helvetica,sans-Serif" font-size="11.00">functional_type_id</text>
<polygon fill="none" stroke="black" points="536,-138 536,-156 730,-156 730,-138 536,-138"/>
<text text-anchor="start" x="539" y="-144.2" font-family="Helvetica,sans-Serif" font-size="11.00">...</text>
<polygon fill="#ffffff" stroke="transparent" points="536,-120 536,-138 632,-138 632,-120 536,-120"/>
<polygon fill="none" stroke="black" points="536,-120 536,-138 632,-138 632,-120 536,-120"/>
<text text-anchor="start" x="539" y="-126.2" font-family="Helvetica,sans-Serif" font-size="11.00">&lt; 2</text>
<polygon fill="#ffffff" stroke="transparent" points="632,-120 632,-138 681,-138 681,-120 632,-120"/>
<polygon fill="none" stroke="black" points="632,-120 632,-138 681,-138 681,-120 632,-120"/>
<text text-anchor="start" x="670" y="-126.2" font-family="Helvetica,sans-Serif" font-size="11.00"> &#160;</text>
<polygon fill="#ffffff" stroke="transparent" points="681,-120 681,-138 730,-138 730,-120 681,-120"/>
<polygon fill="none" stroke="black" points="681,-120 681,-138 730,-138 730,-120 681,-120"/>
<text text-anchor="start" x="719" y="-126.2" font-family="Helvetica,sans-Serif" font-size="11.00"> &#160;</text>
</a>
</g>
</g>
<!-- syst_enum_items&#45;&gt;syst_enum_functional_types -->
<g id="edge3" class="edge">
<title>syst_enum_items:w&#45;&gt;syst_enum_functional_types:e</title>
<path fill="none" stroke="black" d="M520.72,-164.04C510.03,-159.17 504.31,-150 488,-150"/>
<polygon fill="black" stroke="black" points="527.17,-165.38 534.27,-170.53 531.08,-166.19 535,-167 535,-167 535,-167 531.08,-166.19 535.73,-163.47 527.17,-165.38 527.17,-165.38"/>
<ellipse fill="none" stroke="black" cx="524.03" cy="-164.73" rx="3.2" ry="3.2"/>
</g>
<!-- syst_enum_items&#45;&gt;syst_enums -->
<g id="edge2" class="edge">
<title>syst_enum_items:w&#45;&gt;syst_enums:e</title>
<path fill="none" stroke="black" d="M520.55,-190.06C512.72,-191.3 506.87,-193.26 495,-194 383.22,-200.96 344.18,-242.02 243,-194 217.6,-181.95 231.11,-145 203,-145"/>
<polygon fill="black" stroke="black" points="527.02,-189.59 535.26,-192.59 531.01,-189.29 535,-189 535,-189 535,-189 531.01,-189.29 534.74,-185.41 527.02,-189.59 527.02,-189.59"/>
<ellipse fill="none" stroke="black" cx="523.83" cy="-189.82" rx="3.2" ry="3.2"/>
</g>
</g>
</svg>
