<?xml version="1.0" encoding="UTF-8" standalone="no"?>
<!DOCTYPE svg PUBLIC "-//W3C//DTD SVG 1.1//EN"
 "http://www.w3.org/Graphics/SVG/1.1/DTD/svg11.dtd">
<!-- Generated by graphviz version 2.43.0 (0)
 -->
<!-- Title: largeRelationshipsDiagram Pages: 1 -->
<svg width="739pt" height="584pt"
 viewBox="0.00 0.00 739.00 584.00" xmlns="http://www.w3.org/2000/svg" xmlns:xlink="http://www.w3.org/1999/xlink">
<g id="graph0" class="graph" transform="scale(1 1) rotate(0) translate(4 580)">
<title>largeRelationshipsDiagram</title>
<polygon fill="#ffffff" stroke="transparent" points="-4,4 -4,-580 735,-580 735,4 -4,4"/>
<text text-anchor="middle" x="71.5" y="-7.2" font-family="Helvetica,sans-Serif" font-size="11.00">Generated by SchemaSpy</text>
<!-- syst_enum_functional_types -->
<g id="node1" class="node">
<title>syst_enum_functional_types</title>
<g id="a_node1"><a xlink:href="../../tables/syst_enum_functional_types.html" xlink:title="syst_enum_functional_types" target="_top">
<polygon fill="#ffffff" stroke="transparent" points="251,-97 251,-445 480,-445 480,-97 251,-97"/>
<polygon fill="#f5f5f5" stroke="transparent" points="251.5,-423 251.5,-445 480.5,-445 480.5,-423 251.5,-423"/>
<polygon fill="none" stroke="black" points="251.5,-423 251.5,-445 480.5,-445 480.5,-423 251.5,-423"/>
<text text-anchor="start" x="256.5" y="-432.2" font-family="Helvetica,sans-Serif" font-weight="bold" font-size="11.00">syst_enum_functional_types</text>
<text text-anchor="start" x="445.5" y="-431.2" font-family="Helvetica,sans-Serif" font-size="11.00">[table]</text>
<polygon fill="none" stroke="black" points="251.5,-401 251.5,-423 480.5,-423 480.5,-401 251.5,-401"/>
<image xlink:href="../../images/primaryKeys.png" width="11px" height="12px" preserveAspectRatio="xMinYMin meet" x="256.5" y="-418"/>
<text text-anchor="start" x="281.5" y="-409.2" font-family="Helvetica,sans-Serif" font-size="11.00">id</text>
<polygon fill="#ffffff" stroke="transparent" points="251.5,-379 251.5,-401 480.5,-401 480.5,-379 251.5,-379"/>
<polygon fill="none" stroke="black" points="251.5,-379 251.5,-401 480.5,-401 480.5,-379 251.5,-379"/>
<text text-anchor="start" x="281.5" y="-387.2" font-family="Helvetica,sans-Serif" font-size="11.00">internal_name</text>
<polygon fill="#ffffff" stroke="transparent" points="251.5,-357 251.5,-379 480.5,-379 480.5,-357 251.5,-357"/>
<polygon fill="none" stroke="black" points="251.5,-357 251.5,-379 480.5,-379 480.5,-357 251.5,-357"/>
<text text-anchor="start" x="281.5" y="-365.2" font-family="Helvetica,sans-Serif" font-size="11.00">display_name</text>
<polygon fill="none" stroke="black" points="251.5,-335 251.5,-357 480.5,-357 480.5,-335 251.5,-335"/>
<text text-anchor="start" x="281.5" y="-343.2" font-family="Helvetica,sans-Serif" font-size="11.00">external_name</text>
<polygon fill="none" stroke="black" points="251.5,-313 251.5,-335 480.5,-335 480.5,-313 251.5,-313"/>
<image xlink:href="../../images/foreignKeys.png" width="11px" height="12px" preserveAspectRatio="xMinYMin meet" x="256.5" y="-330"/>
<text text-anchor="start" x="281.5" y="-321.2" font-family="Helvetica,sans-Serif" font-size="11.00">enum_id</text>
<polygon fill="none" stroke="black" points="251.5,-291 251.5,-313 480.5,-313 480.5,-291 251.5,-291"/>
<text text-anchor="start" x="281.5" y="-299.2" font-family="Helvetica,sans-Serif" font-size="11.00">syst_description</text>
<polygon fill="none" stroke="black" points="251.5,-269 251.5,-291 480.5,-291 480.5,-269 251.5,-269"/>
<text text-anchor="start" x="281.5" y="-277.2" font-family="Helvetica,sans-Serif" font-size="11.00">user_description</text>
<polygon fill="none" stroke="black" points="251.5,-247 251.5,-269 480.5,-269 480.5,-247 251.5,-247"/>
<text text-anchor="start" x="281.5" y="-255.2" font-family="Helvetica,sans-Serif" font-size="11.00">diag_timestamp_created</text>
<polygon fill="none" stroke="black" points="251.5,-225 251.5,-247 480.5,-247 480.5,-225 251.5,-225"/>
<text text-anchor="start" x="281.5" y="-233.2" font-family="Helvetica,sans-Serif" font-size="11.00">diag_role_created</text>
<polygon fill="none" stroke="black" points="251.5,-203 251.5,-225 480.5,-225 480.5,-203 251.5,-203"/>
<text text-anchor="start" x="281.5" y="-211.2" font-family="Helvetica,sans-Serif" font-size="11.00">diag_timestamp_modified</text>
<polygon fill="none" stroke="black" points="251.5,-181 251.5,-203 480.5,-203 480.5,-181 251.5,-181"/>
<text text-anchor="start" x="281.5" y="-189.2" font-family="Helvetica,sans-Serif" font-size="11.00">diag_wallclock_modified</text>
<polygon fill="none" stroke="black" points="251.5,-159 251.5,-181 480.5,-181 480.5,-159 251.5,-159"/>
<text text-anchor="start" x="281.5" y="-167.2" font-family="Helvetica,sans-Serif" font-size="11.00">diag_role_modified</text>
<polygon fill="none" stroke="black" points="251.5,-137 251.5,-159 480.5,-159 480.5,-137 251.5,-137"/>
<text text-anchor="start" x="281.5" y="-145.2" font-family="Helvetica,sans-Serif" font-size="11.00">diag_row_version</text>
<polygon fill="none" stroke="black" points="251.5,-115 251.5,-137 480.5,-137 480.5,-115 251.5,-115"/>
<text text-anchor="start" x="281.5" y="-123.2" font-family="Helvetica,sans-Serif" font-size="11.00">diag_update_count</text>
<polygon fill="#ffffff" stroke="transparent" points="251.5,-97 251.5,-115 359.5,-115 359.5,-97 251.5,-97"/>
<polygon fill="none" stroke="black" points="251.5,-97 251.5,-115 359.5,-115 359.5,-97 251.5,-97"/>
<text text-anchor="start" x="254.5" y="-103.2" font-family="Helvetica,sans-Serif" font-size="11.00">&lt; 1</text>
<polygon fill="#ffffff" stroke="transparent" points="359.5,-97 359.5,-115 415.5,-115 415.5,-97 359.5,-97"/>
<polygon fill="none" stroke="black" points="359.5,-97 359.5,-115 415.5,-115 415.5,-97 359.5,-97"/>
<text text-anchor="start" x="405.5" y="-103.2" font-family="Helvetica,sans-Serif" font-size="11.00"> &#160;</text>
<polygon fill="#ffffff" stroke="transparent" points="415.5,-97 415.5,-115 480.5,-115 480.5,-97 415.5,-97"/>
<polygon fill="none" stroke="black" points="415.5,-97 415.5,-115 480.5,-115 480.5,-97 415.5,-97"/>
<text text-anchor="start" x="461.5" y="-103.2" font-family="Helvetica,sans-Serif" font-size="11.00">1 &gt;</text>
</a>
</g>
</g>
<!-- syst_enums -->
<g id="node3" class="node">
<title>syst_enums</title>
<g id="a_node3"><a xlink:href="../../tables/syst_enums.html" xlink:title="syst_enums" target="_top">
<polygon fill="#ffffff" stroke="transparent" points="8,-37 8,-429 202,-429 202,-37 8,-37"/>
<polygon fill="#f5f5f5" stroke="transparent" points="8,-407 8,-429 202,-429 202,-407 8,-407"/>
<polygon fill="none" stroke="black" points="8,-407 8,-429 202,-429 202,-407 8,-407"/>
<text text-anchor="start" x="13" y="-416.2" font-family="Helvetica,sans-Serif" font-weight="bold" font-size="11.00">syst_enums</text>
<text text-anchor="start" x="167" y="-415.2" font-family="Helvetica,sans-Serif" font-size="11.00">[table]</text>
<polygon fill="none" stroke="black" points="8,-385 8,-407 202,-407 202,-385 8,-385"/>
<image xlink:href="../../images/primaryKeys.png" width="11px" height="12px" preserveAspectRatio="xMinYMin meet" x="13" y="-402"/>
<text text-anchor="start" x="28" y="-393.2" font-family="Helvetica,sans-Serif" font-size="11.00">id</text>
<polygon fill="#ffffff" stroke="transparent" points="8,-363 8,-385 202,-385 202,-363 8,-363"/>
<polygon fill="none" stroke="black" points="8,-363 8,-385 202,-385 202,-363 8,-363"/>
<text text-anchor="start" x="28" y="-371.2" font-family="Helvetica,sans-Serif" font-size="11.00">internal_name</text>
<polygon fill="#ffffff" stroke="transparent" points="8,-341 8,-363 202,-363 202,-341 8,-341"/>
<polygon fill="none" stroke="black" points="8,-341 8,-363 202,-363 202,-341 8,-341"/>
<text text-anchor="start" x="28" y="-349.2" font-family="Helvetica,sans-Serif" font-size="11.00">display_name</text>
<polygon fill="none" stroke="black" points="8,-319 8,-341 202,-341 202,-319 8,-319"/>
<text text-anchor="start" x="28" y="-327.2" font-family="Helvetica,sans-Serif" font-size="11.00">syst_description</text>
<polygon fill="none" stroke="black" points="8,-297 8,-319 202,-319 202,-297 8,-297"/>
<text text-anchor="start" x="28" y="-305.2" font-family="Helvetica,sans-Serif" font-size="11.00">user_description</text>
<polygon fill="none" stroke="black" points="8,-275 8,-297 202,-297 202,-275 8,-275"/>
<text text-anchor="start" x="28" y="-283.2" font-family="Helvetica,sans-Serif" font-size="11.00">syst_defined</text>
<polygon fill="none" stroke="black" points="8,-253 8,-275 202,-275 202,-253 8,-253"/>
<text text-anchor="start" x="28" y="-261.2" font-family="Helvetica,sans-Serif" font-size="11.00">user_maintainable</text>
<polygon fill="none" stroke="black" points="8,-231 8,-253 202,-253 202,-231 8,-231"/>
<text text-anchor="start" x="28" y="-239.2" font-family="Helvetica,sans-Serif" font-size="11.00">default_syst_options</text>
<polygon fill="none" stroke="black" points="8,-209 8,-231 202,-231 202,-209 8,-209"/>
<text text-anchor="start" x="28" y="-217.2" font-family="Helvetica,sans-Serif" font-size="11.00">default_user_options</text>
<polygon fill="none" stroke="black" points="8,-187 8,-209 202,-209 202,-187 8,-187"/>
<text text-anchor="start" x="28" y="-195.2" font-family="Helvetica,sans-Serif" font-size="11.00">diag_timestamp_created</text>
<polygon fill="none" stroke="black" points="8,-165 8,-187 202,-187 202,-165 8,-165"/>
<text text-anchor="start" x="28" y="-173.2" font-family="Helvetica,sans-Serif" font-size="11.00">diag_role_created</text>
<polygon fill="none" stroke="black" points="8,-143 8,-165 202,-165 202,-143 8,-143"/>
<text text-anchor="start" x="28" y="-151.2" font-family="Helvetica,sans-Serif" font-size="11.00">diag_timestamp_modified</text>
<polygon fill="none" stroke="black" points="8,-121 8,-143 202,-143 202,-121 8,-121"/>
<text text-anchor="start" x="28" y="-129.2" font-family="Helvetica,sans-Serif" font-size="11.00">diag_wallclock_modified</text>
<polygon fill="none" stroke="black" points="8,-99 8,-121 202,-121 202,-99 8,-99"/>
<text text-anchor="start" x="28" y="-107.2" font-family="Helvetica,sans-Serif" font-size="11.00">diag_role_modified</text>
<polygon fill="none" stroke="black" points="8,-77 8,-99 202,-99 202,-77 8,-77"/>
<text text-anchor="start" x="28" y="-85.2" font-family="Helvetica,sans-Serif" font-size="11.00">diag_row_version</text>
<polygon fill="none" stroke="black" points="8,-55 8,-77 202,-77 202,-55 8,-55"/>
<text text-anchor="start" x="28" y="-63.2" font-family="Helvetica,sans-Serif" font-size="11.00">diag_update_count</text>
<polygon fill="#ffffff" stroke="transparent" points="8,-37 8,-55 94,-55 94,-37 8,-37"/>
<polygon fill="none" stroke="black" points="8,-37 8,-55 94,-55 94,-37 8,-37"/>
<text text-anchor="start" x="11" y="-43.2" font-family="Helvetica,sans-Serif" font-size="11.00"> &#160;</text>
<polygon fill="#ffffff" stroke="transparent" points="94,-37 94,-55 143,-55 143,-37 94,-37"/>
<polygon fill="none" stroke="black" points="94,-37 94,-55 143,-55 143,-37 94,-37"/>
<text text-anchor="start" x="133" y="-43.2" font-family="Helvetica,sans-Serif" font-size="11.00"> &#160;</text>
<polygon fill="#ffffff" stroke="transparent" points="143,-37 143,-55 202,-55 202,-37 143,-37"/>
<polygon fill="none" stroke="black" points="143,-37 143,-55 202,-55 202,-37 143,-37"/>
<text text-anchor="start" x="183" y="-43.2" font-family="Helvetica,sans-Serif" font-size="11.00">2 &gt;</text>
</a>
</g>
</g>
<!-- syst_enum_functional_types&#45;&gt;syst_enums -->
<g id="edge1" class="edge">
<title>syst_enum_functional_types:w&#45;&gt;syst_enums:e</title>
<path fill="none" stroke="black" d="M236.49,-329.18C219.92,-345.69 235.05,-396 203,-396"/>
<polygon fill="black" stroke="black" points="243,-326.77 251.75,-327.38 246.75,-325.39 250.5,-324 250.5,-324 250.5,-324 246.75,-325.39 249.25,-320.62 243,-326.77 243,-326.77"/>
<ellipse fill="none" stroke="black" cx="239.99" cy="-327.88" rx="3.2" ry="3.2"/>
</g>
<!-- syst_enum_items -->
<g id="node2" class="node">
<title>syst_enum_items</title>
<g id="a_node2"><a xlink:href="../../tables/syst_enum_items.html" xlink:title="syst_enum_items" target="_top">
<polygon fill="#ffffff" stroke="transparent" points="529,-48 529,-572 723,-572 723,-48 529,-48"/>
<polygon fill="#f5f5f5" stroke="transparent" points="529,-550 529,-572 723,-572 723,-550 529,-550"/>
<polygon fill="none" stroke="black" points="529,-550 529,-572 723,-572 723,-550 529,-550"/>
<text text-anchor="start" x="534" y="-559.2" font-family="Helvetica,sans-Serif" font-weight="bold" font-size="11.00">syst_enum_items</text>
<text text-anchor="start" x="688" y="-558.2" font-family="Helvetica,sans-Serif" font-size="11.00">[table]</text>
<polygon fill="none" stroke="black" points="529,-528 529,-550 723,-550 723,-528 529,-528"/>
<image xlink:href="../../images/primaryKeys.png" width="11px" height="12px" preserveAspectRatio="xMinYMin meet" x="534" y="-545"/>
<text text-anchor="start" x="549" y="-536.2" font-family="Helvetica,sans-Serif" font-size="11.00">id</text>
<polygon fill="#ffffff" stroke="transparent" points="529,-506 529,-528 723,-528 723,-506 529,-506"/>
<polygon fill="none" stroke="black" points="529,-506 529,-528 723,-528 723,-506 529,-506"/>
<text text-anchor="start" x="549" y="-514.2" font-family="Helvetica,sans-Serif" font-size="11.00">internal_name</text>
<polygon fill="#ffffff" stroke="transparent" points="529,-484 529,-506 723,-506 723,-484 529,-484"/>
<polygon fill="none" stroke="black" points="529,-484 529,-506 723,-506 723,-484 529,-484"/>
<text text-anchor="start" x="549" y="-492.2" font-family="Helvetica,sans-Serif" font-size="11.00">display_name</text>
<polygon fill="none" stroke="black" points="529,-462 529,-484 723,-484 723,-462 529,-462"/>
<text text-anchor="start" x="549" y="-470.2" font-family="Helvetica,sans-Serif" font-size="11.00">external_name</text>
<polygon fill="none" stroke="black" points="529,-440 529,-462 723,-462 723,-440 529,-440"/>
<image xlink:href="../../images/foreignKeys.png" width="11px" height="12px" preserveAspectRatio="xMinYMin meet" x="534" y="-457"/>
<text text-anchor="start" x="549" y="-448.2" font-family="Helvetica,sans-Serif" font-size="11.00">enum_id</text>
<polygon fill="none" stroke="black" points="529,-418 529,-440 723,-440 723,-418 529,-418"/>
<image xlink:href="../../images/foreignKeys.png" width="11px" height="12px" preserveAspectRatio="xMinYMin meet" x="534" y="-435"/>
<text text-anchor="start" x="549" y="-426.2" font-family="Helvetica,sans-Serif" font-size="11.00">functional_type_id</text>
<polygon fill="none" stroke="black" points="529,-396 529,-418 723,-418 723,-396 529,-396"/>
<text text-anchor="start" x="549" y="-404.2" font-family="Helvetica,sans-Serif" font-size="11.00">enum_default</text>
<polygon fill="none" stroke="black" points="529,-374 529,-396 723,-396 723,-374 529,-374"/>
<text text-anchor="start" x="549" y="-382.2" font-family="Helvetica,sans-Serif" font-size="11.00">functional_type_default</text>
<polygon fill="none" stroke="black" points="529,-352 529,-374 723,-374 723,-352 529,-352"/>
<text text-anchor="start" x="549" y="-360.2" font-family="Helvetica,sans-Serif" font-size="11.00">syst_defined</text>
<polygon fill="none" stroke="black" points="529,-330 529,-352 723,-352 723,-330 529,-330"/>
<text text-anchor="start" x="549" y="-338.2" font-family="Helvetica,sans-Serif" font-size="11.00">user_maintainable</text>
<polygon fill="none" stroke="black" points="529,-308 529,-330 723,-330 723,-308 529,-308"/>
<text text-anchor="start" x="549" y="-316.2" font-family="Helvetica,sans-Serif" font-size="11.00">syst_description</text>
<polygon fill="none" stroke="black" points="529,-286 529,-308 723,-308 723,-286 529,-286"/>
<text text-anchor="start" x="549" y="-294.2" font-family="Helvetica,sans-Serif" font-size="11.00">user_description</text>
<polygon fill="none" stroke="black" points="529,-264 529,-286 723,-286 723,-264 529,-264"/>
<text text-anchor="start" x="549" y="-272.2" font-family="Helvetica,sans-Serif" font-size="11.00">sort_order</text>
<polygon fill="none" stroke="black" points="529,-242 529,-264 723,-264 723,-242 529,-242"/>
<text text-anchor="start" x="549" y="-250.2" font-family="Helvetica,sans-Serif" font-size="11.00">syst_options</text>
<polygon fill="none" stroke="black" points="529,-220 529,-242 723,-242 723,-220 529,-220"/>
<text text-anchor="start" x="549" y="-228.2" font-family="Helvetica,sans-Serif" font-size="11.00">user_options</text>
<polygon fill="none" stroke="black" points="529,-198 529,-220 723,-220 723,-198 529,-198"/>
<text text-anchor="start" x="549" y="-206.2" font-family="Helvetica,sans-Serif" font-size="11.00">diag_timestamp_created</text>
<polygon fill="none" stroke="black" points="529,-176 529,-198 723,-198 723,-176 529,-176"/>
<text text-anchor="start" x="549" y="-184.2" font-family="Helvetica,sans-Serif" font-size="11.00">diag_role_created</text>
<polygon fill="none" stroke="black" points="529,-154 529,-176 723,-176 723,-154 529,-154"/>
<text text-anchor="start" x="549" y="-162.2" font-family="Helvetica,sans-Serif" font-size="11.00">diag_timestamp_modified</text>
<polygon fill="none" stroke="black" points="529,-132 529,-154 723,-154 723,-132 529,-132"/>
<text text-anchor="start" x="549" y="-140.2" font-family="Helvetica,sans-Serif" font-size="11.00">diag_wallclock_modified</text>
<polygon fill="none" stroke="black" points="529,-110 529,-132 723,-132 723,-110 529,-110"/>
<text text-anchor="start" x="549" y="-118.2" font-family="Helvetica,sans-Serif" font-size="11.00">diag_role_modified</text>
<polygon fill="none" stroke="black" points="529,-88 529,-110 723,-110 723,-88 529,-88"/>
<text text-anchor="start" x="549" y="-96.2" font-family="Helvetica,sans-Serif" font-size="11.00">diag_row_version</text>
<polygon fill="none" stroke="black" points="529,-66 529,-88 723,-88 723,-66 529,-66"/>
<text text-anchor="start" x="549" y="-74.2" font-family="Helvetica,sans-Serif" font-size="11.00">diag_update_count</text>
<polygon fill="#ffffff" stroke="transparent" points="529,-48 529,-66 624,-66 624,-48 529,-48"/>
<polygon fill="none" stroke="black" points="529,-48 529,-66 624,-66 624,-48 529,-48"/>
<text text-anchor="start" x="532" y="-54.2" font-family="Helvetica,sans-Serif" font-size="11.00">&lt; 2</text>
<polygon fill="#ffffff" stroke="transparent" points="624,-48 624,-66 673,-66 673,-48 624,-48"/>
<polygon fill="none" stroke="black" points="624,-48 624,-66 673,-66 673,-48 624,-48"/>
<text text-anchor="start" x="663" y="-54.2" font-family="Helvetica,sans-Serif" font-size="11.00"> &#160;</text>
<polygon fill="#ffffff" stroke="transparent" points="673,-48 673,-66 723,-66 723,-48 673,-48"/>
<polygon fill="none" stroke="black" points="673,-48 673,-66 723,-66 723,-48 673,-48"/>
<text text-anchor="start" x="713" y="-54.2" font-family="Helvetica,sans-Serif" font-size="11.00"> &#160;</text>
</a>
</g>
</g>
<!-- syst_enum_items&#45;&gt;syst_enum_functional_types -->
<g id="edge3" class="edge">
<title>syst_enum_items:w&#45;&gt;syst_enum_functional_types:e</title>
<path fill="none" stroke="black" d="M513.86,-426.04C503.3,-421.17 497.66,-412 481.5,-412"/>
<polygon fill="black" stroke="black" points="520.17,-427.36 527.26,-432.52 524.08,-428.18 528,-429 528,-429 528,-429 524.08,-428.18 528.74,-425.48 520.17,-427.36 520.17,-427.36"/>
<ellipse fill="none" stroke="black" cx="517.04" cy="-426.7" rx="3.2" ry="3.2"/>
</g>
<!-- syst_enum_items&#45;&gt;syst_enums -->
<g id="edge2" class="edge">
<title>syst_enum_items:w&#45;&gt;syst_enums:e</title>
<path fill="none" stroke="black" d="M513.56,-451.85C505.72,-452.84 499.85,-454.41 488,-455 379.25,-460.42 339.2,-506.01 243,-455 215.01,-440.16 234.68,-396 203,-396"/>
<polygon fill="black" stroke="black" points="520.01,-451.47 528.21,-454.59 524.01,-451.24 528,-451 528,-451 528,-451 524.01,-451.24 527.79,-447.41 520.01,-451.47 520.01,-451.47"/>
<ellipse fill="none" stroke="black" cx="516.82" cy="-451.66" rx="3.2" ry="3.2"/>
</g>
</g>
</svg>
