<?xml version="1.0" encoding="UTF-8" standalone="no"?>
<!DOCTYPE svg PUBLIC "-//W3C//DTD SVG 1.1//EN"
 "http://www.w3.org/Graphics/SVG/1.1/DTD/svg11.dtd">
<!-- Generated by graphviz version 2.43.0 (0)
 -->
<!-- Title: compactRelationshipsDiagram Pages: 1 -->
<svg width="1225pt" height="443pt"
 viewBox="0.00 0.00 1225.00 443.00" xmlns="http://www.w3.org/2000/svg" xmlns:xlink="http://www.w3.org/1999/xlink">
<g id="graph0" class="graph" transform="scale(1 1) rotate(0) translate(4 439)">
<title>compactRelationshipsDiagram</title>
<polygon fill="#ffffff" stroke="transparent" points="-4,4 -4,-439 1221,-439 1221,4 -4,4"/>
<text text-anchor="middle" x="71.5" y="-7.2" font-family="Helvetica,sans-Serif" font-size="11.00">Generated by SchemaSpy</text>
<!-- syst_hierarchies -->
<g id="node1" class="node">
<title>syst_hierarchies</title>
<g id="a_node1"><a xlink:href="../../tables/syst_hierarchies.html" xlink:title="syst_hierarchies" target="_top">
<polygon fill="#ffffff" stroke="transparent" points="772,-197 772,-365 966,-365 966,-197 772,-197"/>
<polygon fill="#f5f5f5" stroke="transparent" points="772,-343 772,-365 966,-365 966,-343 772,-343"/>
<polygon fill="none" stroke="black" points="772,-343 772,-365 966,-365 966,-343 772,-343"/>
<text text-anchor="start" x="777" y="-352.2" font-family="Helvetica,sans-Serif" font-weight="bold" font-size="11.00">syst_hierarchies</text>
<text text-anchor="start" x="931" y="-351.2" font-family="Helvetica,sans-Serif" font-size="11.00">[table]</text>
<polygon fill="none" stroke="black" points="772,-321 772,-343 966,-343 966,-321 772,-321"/>
<image xlink:href="../../images/primaryKeys.png" width="11px" height="12px" preserveAspectRatio="xMinYMin meet" x="777" y="-338"/>
<text text-anchor="start" x="792" y="-329.2" font-family="Helvetica,sans-Serif" font-size="11.00">id</text>
<polygon fill="#ffffff" stroke="transparent" points="772,-299 772,-321 966,-321 966,-299 772,-299"/>
<polygon fill="none" stroke="black" points="772,-299 772,-321 966,-321 966,-299 772,-299"/>
<text text-anchor="start" x="792" y="-307.2" font-family="Helvetica,sans-Serif" font-size="11.00">internal_name</text>
<polygon fill="#ffffff" stroke="transparent" points="772,-277 772,-299 966,-299 966,-277 772,-277"/>
<polygon fill="none" stroke="black" points="772,-277 772,-299 966,-299 966,-277 772,-277"/>
<text text-anchor="start" x="792" y="-285.2" font-family="Helvetica,sans-Serif" font-size="11.00">display_name</text>
<polygon fill="none" stroke="black" points="772,-255 772,-277 966,-277 966,-255 772,-255"/>
<image xlink:href="../../images/foreignKeys.png" width="11px" height="12px" preserveAspectRatio="xMinYMin meet" x="777" y="-272"/>
<text text-anchor="start" x="792" y="-263.2" font-family="Helvetica,sans-Serif" font-size="11.00">hierarchy_type_id</text>
<polygon fill="none" stroke="black" points="772,-233 772,-255 966,-255 966,-233 772,-233"/>
<image xlink:href="../../images/foreignKeys.png" width="11px" height="12px" preserveAspectRatio="xMinYMin meet" x="777" y="-250"/>
<text text-anchor="start" x="792" y="-241.2" font-family="Helvetica,sans-Serif" font-size="11.00">hierarchy_state_id</text>
<polygon fill="none" stroke="black" points="772,-215 772,-233 966,-233 966,-215 772,-215"/>
<text text-anchor="start" x="775" y="-221.2" font-family="Helvetica,sans-Serif" font-size="11.00">...</text>
<polygon fill="#ffffff" stroke="transparent" points="772,-197 772,-215 862,-215 862,-197 772,-197"/>
<polygon fill="none" stroke="black" points="772,-197 772,-215 862,-215 862,-197 772,-197"/>
<text text-anchor="start" x="775" y="-203.2" font-family="Helvetica,sans-Serif" font-size="11.00">&lt; 2</text>
<polygon fill="#ffffff" stroke="transparent" points="862,-197 862,-215 909,-215 909,-197 862,-197"/>
<polygon fill="none" stroke="black" points="862,-197 862,-215 909,-215 909,-197 862,-197"/>
<text text-anchor="start" x="899" y="-203.2" font-family="Helvetica,sans-Serif" font-size="11.00"> &#160;</text>
<polygon fill="#ffffff" stroke="transparent" points="909,-197 909,-215 966,-215 966,-197 909,-197"/>
<polygon fill="none" stroke="black" points="909,-197 909,-215 966,-215 966,-197 909,-197"/>
<text text-anchor="start" x="947" y="-203.2" font-family="Helvetica,sans-Serif" font-size="11.00">1 &gt;</text>
</a>
</g>
</g>
<!-- syst_enum_items -->
<g id="node3" class="node">
<title>syst_enum_items</title>
<g id="a_node3"><a xlink:href="../../tables/syst_enum_items.html" xlink:title="syst_enum_items" target="_top">
<polygon fill="#ffffff" stroke="transparent" points="529,-120 529,-288 723,-288 723,-120 529,-120"/>
<polygon fill="#f5f5f5" stroke="transparent" points="529,-266 529,-288 723,-288 723,-266 529,-266"/>
<polygon fill="none" stroke="black" points="529,-266 529,-288 723,-288 723,-266 529,-266"/>
<text text-anchor="start" x="534" y="-275.2" font-family="Helvetica,sans-Serif" font-weight="bold" font-size="11.00">syst_enum_items</text>
<text text-anchor="start" x="688" y="-274.2" font-family="Helvetica,sans-Serif" font-size="11.00">[table]</text>
<polygon fill="none" stroke="black" points="529,-244 529,-266 723,-266 723,-244 529,-244"/>
<image xlink:href="../../images/primaryKeys.png" width="11px" height="12px" preserveAspectRatio="xMinYMin meet" x="534" y="-261"/>
<text text-anchor="start" x="549" y="-252.2" font-family="Helvetica,sans-Serif" font-size="11.00">id</text>
<polygon fill="#ffffff" stroke="transparent" points="529,-222 529,-244 723,-244 723,-222 529,-222"/>
<polygon fill="none" stroke="black" points="529,-222 529,-244 723,-244 723,-222 529,-222"/>
<text text-anchor="start" x="549" y="-230.2" font-family="Helvetica,sans-Serif" font-size="11.00">internal_name</text>
<polygon fill="#ffffff" stroke="transparent" points="529,-200 529,-222 723,-222 723,-200 529,-200"/>
<polygon fill="none" stroke="black" points="529,-200 529,-222 723,-222 723,-200 529,-200"/>
<text text-anchor="start" x="549" y="-208.2" font-family="Helvetica,sans-Serif" font-size="11.00">display_name</text>
<polygon fill="none" stroke="black" points="529,-178 529,-200 723,-200 723,-178 529,-178"/>
<image xlink:href="../../images/foreignKeys.png" width="11px" height="12px" preserveAspectRatio="xMinYMin meet" x="534" y="-195"/>
<text text-anchor="start" x="549" y="-186.2" font-family="Helvetica,sans-Serif" font-size="11.00">enum_id</text>
<polygon fill="none" stroke="black" points="529,-156 529,-178 723,-178 723,-156 529,-156"/>
<image xlink:href="../../images/foreignKeys.png" width="11px" height="12px" preserveAspectRatio="xMinYMin meet" x="534" y="-173"/>
<text text-anchor="start" x="549" y="-164.2" font-family="Helvetica,sans-Serif" font-size="11.00">functional_type_id</text>
<polygon fill="none" stroke="black" points="529,-138 529,-156 723,-156 723,-138 529,-138"/>
<text text-anchor="start" x="532" y="-144.2" font-family="Helvetica,sans-Serif" font-size="11.00">...</text>
<polygon fill="#ffffff" stroke="transparent" points="529,-120 529,-138 619,-138 619,-120 529,-120"/>
<polygon fill="none" stroke="black" points="529,-120 529,-138 619,-138 619,-120 529,-120"/>
<text text-anchor="start" x="532" y="-126.2" font-family="Helvetica,sans-Serif" font-size="11.00">&lt; 2</text>
<polygon fill="#ffffff" stroke="transparent" points="619,-120 619,-138 666,-138 666,-120 619,-120"/>
<polygon fill="none" stroke="black" points="619,-120 619,-138 666,-138 666,-120 619,-120"/>
<text text-anchor="start" x="656" y="-126.2" font-family="Helvetica,sans-Serif" font-size="11.00"> &#160;</text>
<polygon fill="#ffffff" stroke="transparent" points="666,-120 666,-138 723,-138 723,-120 666,-120"/>
<polygon fill="none" stroke="black" points="666,-120 666,-138 723,-138 723,-120 666,-120"/>
<text text-anchor="start" x="704" y="-126.2" font-family="Helvetica,sans-Serif" font-size="11.00">2 &gt;</text>
</a>
</g>
</g>
<!-- syst_hierarchies&#45;&gt;syst_enum_items -->
<g id="edge4" class="edge">
<title>syst_hierarchies:w&#45;&gt;syst_enum_items:e</title>
<path fill="none" stroke="black" d="M756.59,-246.02C746.01,-249.19 739.59,-255 724,-255"/>
<polygon fill="black" stroke="black" points="763.08,-245.11 771.5,-247.57 767.04,-244.55 771,-244 771,-244 771,-244 767.04,-244.55 770.5,-240.43 763.08,-245.11 763.08,-245.11"/>
<ellipse fill="none" stroke="black" cx="759.91" cy="-245.55" rx="3.2" ry="3.2"/>
</g>
<!-- syst_hierarchies&#45;&gt;syst_enum_items -->
<g id="edge5" class="edge">
<title>syst_hierarchies:w&#45;&gt;syst_enum_items:e</title>
<path fill="none" stroke="black" d="M756.59,-263.98C746.01,-260.81 739.59,-255 724,-255"/>
<polygon fill="black" stroke="black" points="763.08,-264.89 770.5,-269.57 767.04,-265.45 771,-266 771,-266 771,-266 767.04,-265.45 771.5,-262.43 763.08,-264.89 763.08,-264.89"/>
<ellipse fill="none" stroke="black" cx="759.91" cy="-264.45" rx="3.2" ry="3.2"/>
</g>
<!-- syst_enum_functional_types -->
<g id="node2" class="node">
<title>syst_enum_functional_types</title>
<g id="a_node2"><a xlink:href="../../tables/syst_enum_functional_types.html" xlink:title="syst_enum_functional_types" target="_top">
<polygon fill="#ffffff" stroke="transparent" points="251,-37 251,-183 480,-183 480,-37 251,-37"/>
<polygon fill="#f5f5f5" stroke="transparent" points="251.5,-161 251.5,-183 480.5,-183 480.5,-161 251.5,-161"/>
<polygon fill="none" stroke="black" points="251.5,-161 251.5,-183 480.5,-183 480.5,-161 251.5,-161"/>
<text text-anchor="start" x="256.5" y="-170.2" font-family="Helvetica,sans-Serif" font-weight="bold" font-size="11.00">syst_enum_functional_types</text>
<text text-anchor="start" x="445.5" y="-169.2" font-family="Helvetica,sans-Serif" font-size="11.00">[table]</text>
<polygon fill="none" stroke="black" points="251.5,-139 251.5,-161 480.5,-161 480.5,-139 251.5,-139"/>
<image xlink:href="../../images/primaryKeys.png" width="11px" height="12px" preserveAspectRatio="xMinYMin meet" x="256.5" y="-156"/>
<text text-anchor="start" x="281.5" y="-147.2" font-family="Helvetica,sans-Serif" font-size="11.00">id</text>
<polygon fill="#ffffff" stroke="transparent" points="251.5,-117 251.5,-139 480.5,-139 480.5,-117 251.5,-117"/>
<polygon fill="none" stroke="black" points="251.5,-117 251.5,-139 480.5,-139 480.5,-117 251.5,-117"/>
<text text-anchor="start" x="281.5" y="-125.2" font-family="Helvetica,sans-Serif" font-size="11.00">internal_name</text>
<polygon fill="#ffffff" stroke="transparent" points="251.5,-95 251.5,-117 480.5,-117 480.5,-95 251.5,-95"/>
<polygon fill="none" stroke="black" points="251.5,-95 251.5,-117 480.5,-117 480.5,-95 251.5,-95"/>
<text text-anchor="start" x="281.5" y="-103.2" font-family="Helvetica,sans-Serif" font-size="11.00">display_name</text>
<polygon fill="none" stroke="black" points="251.5,-73 251.5,-95 480.5,-95 480.5,-73 251.5,-73"/>
<image xlink:href="../../images/foreignKeys.png" width="11px" height="12px" preserveAspectRatio="xMinYMin meet" x="256.5" y="-90"/>
<text text-anchor="start" x="281.5" y="-81.2" font-family="Helvetica,sans-Serif" font-size="11.00">enum_id</text>
<polygon fill="none" stroke="black" points="251.5,-55 251.5,-73 480.5,-73 480.5,-55 251.5,-55"/>
<text text-anchor="start" x="254.5" y="-61.2" font-family="Helvetica,sans-Serif" font-size="11.00">...</text>
<polygon fill="#ffffff" stroke="transparent" points="251.5,-37 251.5,-55 359.5,-55 359.5,-37 251.5,-37"/>
<polygon fill="none" stroke="black" points="251.5,-37 251.5,-55 359.5,-55 359.5,-37 251.5,-37"/>
<text text-anchor="start" x="254.5" y="-43.2" font-family="Helvetica,sans-Serif" font-size="11.00">&lt; 1</text>
<polygon fill="#ffffff" stroke="transparent" points="359.5,-37 359.5,-55 415.5,-55 415.5,-37 359.5,-37"/>
<polygon fill="none" stroke="black" points="359.5,-37 359.5,-55 415.5,-55 415.5,-37 359.5,-37"/>
<text text-anchor="start" x="405.5" y="-43.2" font-family="Helvetica,sans-Serif" font-size="11.00"> &#160;</text>
<polygon fill="#ffffff" stroke="transparent" points="415.5,-37 415.5,-55 480.5,-55 480.5,-37 415.5,-37"/>
<polygon fill="none" stroke="black" points="415.5,-37 415.5,-55 480.5,-55 480.5,-37 415.5,-37"/>
<text text-anchor="start" x="461.5" y="-43.2" font-family="Helvetica,sans-Serif" font-size="11.00">1 &gt;</text>
</a>
</g>
</g>
<!-- syst_enums -->
<g id="node5" class="node">
<title>syst_enums</title>
<g id="a_node5"><a xlink:href="../../tables/syst_enums.html" xlink:title="syst_enums" target="_top">
<polygon fill="#ffffff" stroke="transparent" points="8,-54 8,-178 202,-178 202,-54 8,-54"/>
<polygon fill="#f5f5f5" stroke="transparent" points="8,-156 8,-178 202,-178 202,-156 8,-156"/>
<polygon fill="none" stroke="black" points="8,-156 8,-178 202,-178 202,-156 8,-156"/>
<text text-anchor="start" x="13" y="-165.2" font-family="Helvetica,sans-Serif" font-weight="bold" font-size="11.00">syst_enums</text>
<text text-anchor="start" x="167" y="-164.2" font-family="Helvetica,sans-Serif" font-size="11.00">[table]</text>
<polygon fill="none" stroke="black" points="8,-134 8,-156 202,-156 202,-134 8,-134"/>
<image xlink:href="../../images/primaryKeys.png" width="11px" height="12px" preserveAspectRatio="xMinYMin meet" x="13" y="-151"/>
<text text-anchor="start" x="28" y="-142.2" font-family="Helvetica,sans-Serif" font-size="11.00">id</text>
<polygon fill="#ffffff" stroke="transparent" points="8,-112 8,-134 202,-134 202,-112 8,-112"/>
<polygon fill="none" stroke="black" points="8,-112 8,-134 202,-134 202,-112 8,-112"/>
<text text-anchor="start" x="28" y="-120.2" font-family="Helvetica,sans-Serif" font-size="11.00">internal_name</text>
<polygon fill="#ffffff" stroke="transparent" points="8,-90 8,-112 202,-112 202,-90 8,-90"/>
<polygon fill="none" stroke="black" points="8,-90 8,-112 202,-112 202,-90 8,-90"/>
<text text-anchor="start" x="28" y="-98.2" font-family="Helvetica,sans-Serif" font-size="11.00">display_name</text>
<polygon fill="none" stroke="black" points="8,-72 8,-90 202,-90 202,-72 8,-72"/>
<text text-anchor="start" x="11" y="-78.2" font-family="Helvetica,sans-Serif" font-size="11.00">...</text>
<polygon fill="#ffffff" stroke="transparent" points="8,-54 8,-72 94,-72 94,-54 8,-54"/>
<polygon fill="none" stroke="black" points="8,-54 8,-72 94,-72 94,-54 8,-54"/>
<text text-anchor="start" x="11" y="-60.2" font-family="Helvetica,sans-Serif" font-size="11.00"> &#160;</text>
<polygon fill="#ffffff" stroke="transparent" points="94,-54 94,-72 143,-72 143,-54 94,-54"/>
<polygon fill="none" stroke="black" points="94,-54 94,-72 143,-72 143,-54 94,-54"/>
<text text-anchor="start" x="133" y="-60.2" font-family="Helvetica,sans-Serif" font-size="11.00"> &#160;</text>
<polygon fill="#ffffff" stroke="transparent" points="143,-54 143,-72 202,-72 202,-54 143,-54"/>
<polygon fill="none" stroke="black" points="143,-54 143,-72 202,-72 202,-54 143,-54"/>
<text text-anchor="start" x="183" y="-60.2" font-family="Helvetica,sans-Serif" font-size="11.00">2 &gt;</text>
</a>
</g>
</g>
<!-- syst_enum_functional_types&#45;&gt;syst_enums -->
<g id="edge1" class="edge">
<title>syst_enum_functional_types:w&#45;&gt;syst_enums:e</title>
<path fill="none" stroke="black" d="M236.72,-89.2C221.97,-103.95 231.19,-145 203,-145"/>
<polygon fill="black" stroke="black" points="243.02,-86.82 251.77,-87.37 246.76,-85.41 250.5,-84 250.5,-84 250.5,-84 246.76,-85.41 249.23,-80.63 243.02,-86.82 243.02,-86.82"/>
<ellipse fill="none" stroke="black" cx="240.02" cy="-87.95" rx="3.2" ry="3.2"/>
</g>
<!-- syst_enum_items&#45;&gt;syst_enum_functional_types -->
<g id="edge3" class="edge">
<title>syst_enum_items:w&#45;&gt;syst_enum_functional_types:e</title>
<path fill="none" stroke="black" d="M513.86,-164.04C503.3,-159.17 497.66,-150 481.5,-150"/>
<polygon fill="black" stroke="black" points="520.17,-165.36 527.26,-170.52 524.08,-166.18 528,-167 528,-167 528,-167 524.08,-166.18 528.74,-163.48 520.17,-165.36 520.17,-165.36"/>
<ellipse fill="none" stroke="black" cx="517.04" cy="-164.7" rx="3.2" ry="3.2"/>
</g>
<!-- syst_enum_items&#45;&gt;syst_enums -->
<g id="edge2" class="edge">
<title>syst_enum_items:w&#45;&gt;syst_enums:e</title>
<path fill="none" stroke="black" d="M513.55,-190.06C505.72,-191.3 499.87,-193.26 488,-194 379.32,-200.77 341.37,-240.68 243,-194 217.6,-181.95 231.11,-145 203,-145"/>
<polygon fill="black" stroke="black" points="520.02,-189.59 528.26,-192.59 524.01,-189.29 528,-189 528,-189 528,-189 524.01,-189.29 527.74,-185.41 520.02,-189.59 520.02,-189.59"/>
<ellipse fill="none" stroke="black" cx="516.83" cy="-189.82" rx="3.2" ry="3.2"/>
</g>
<!-- syst_hierarchy_items -->
<g id="node4" class="node">
<title>syst_hierarchy_items</title>
<g id="a_node4"><a xlink:href="../../tables/syst_hierarchy_items.html" xlink:title="syst_hierarchy_items" target="_top">
<polygon fill="#ffffff" stroke="transparent" points="1015,-263 1015,-431 1209,-431 1209,-263 1015,-263"/>
<polygon fill="#f5f5f5" stroke="transparent" points="1015,-409 1015,-431 1209,-431 1209,-409 1015,-409"/>
<polygon fill="none" stroke="black" points="1015,-409 1015,-431 1209,-431 1209,-409 1015,-409"/>
<text text-anchor="start" x="1020" y="-418.2" font-family="Helvetica,sans-Serif" font-weight="bold" font-size="11.00">syst_hierarchy_items</text>
<text text-anchor="start" x="1174" y="-417.2" font-family="Helvetica,sans-Serif" font-size="11.00">[table]</text>
<polygon fill="none" stroke="black" points="1015,-387 1015,-409 1209,-409 1209,-387 1015,-387"/>
<image xlink:href="../../images/primaryKeys.png" width="11px" height="12px" preserveAspectRatio="xMinYMin meet" x="1020" y="-404"/>
<text text-anchor="start" x="1035" y="-395.2" font-family="Helvetica,sans-Serif" font-size="11.00">id</text>
<polygon fill="#ffffff" stroke="transparent" points="1015,-365 1015,-387 1209,-387 1209,-365 1015,-365"/>
<polygon fill="none" stroke="black" points="1015,-365 1015,-387 1209,-387 1209,-365 1015,-365"/>
<text text-anchor="start" x="1035" y="-373.2" font-family="Helvetica,sans-Serif" font-size="11.00">internal_name</text>
<polygon fill="#ffffff" stroke="transparent" points="1015,-343 1015,-365 1209,-365 1209,-343 1015,-343"/>
<polygon fill="none" stroke="black" points="1015,-343 1015,-365 1209,-365 1209,-343 1015,-343"/>
<text text-anchor="start" x="1035" y="-351.2" font-family="Helvetica,sans-Serif" font-size="11.00">display_name</text>
<polygon fill="#ffffff" stroke="transparent" points="1015,-321 1015,-343 1209,-343 1209,-321 1015,-321"/>
<polygon fill="none" stroke="black" points="1015,-321 1015,-343 1209,-343 1209,-321 1015,-321"/>
<image xlink:href="../../images/foreignKeys.png" width="11px" height="12px" preserveAspectRatio="xMinYMin meet" x="1020" y="-338"/>
<text text-anchor="start" x="1035" y="-329.2" font-family="Helvetica,sans-Serif" font-size="11.00">hierarchy_id</text>
<polygon fill="#ffffff" stroke="transparent" points="1015,-299 1015,-321 1209,-321 1209,-299 1015,-299"/>
<polygon fill="none" stroke="black" points="1015,-299 1015,-321 1209,-321 1209,-299 1015,-299"/>
<text text-anchor="start" x="1035" y="-307.2" font-family="Helvetica,sans-Serif" font-size="11.00">hierarchy_depth</text>
<polygon fill="none" stroke="black" points="1015,-281 1015,-299 1209,-299 1209,-281 1015,-281"/>
<text text-anchor="start" x="1018" y="-287.2" font-family="Helvetica,sans-Serif" font-size="11.00">...</text>
<polygon fill="#ffffff" stroke="transparent" points="1015,-263 1015,-281 1110,-281 1110,-263 1015,-263"/>
<polygon fill="none" stroke="black" points="1015,-263 1015,-281 1110,-281 1110,-263 1015,-263"/>
<text text-anchor="start" x="1018" y="-269.2" font-family="Helvetica,sans-Serif" font-size="11.00">&lt; 1</text>
<polygon fill="#ffffff" stroke="transparent" points="1110,-263 1110,-281 1159,-281 1159,-263 1110,-263"/>
<polygon fill="none" stroke="black" points="1110,-263 1110,-281 1159,-281 1159,-263 1110,-263"/>
<text text-anchor="start" x="1149" y="-269.2" font-family="Helvetica,sans-Serif" font-size="11.00"> &#160;</text>
<polygon fill="#ffffff" stroke="transparent" points="1159,-263 1159,-281 1209,-281 1209,-263 1159,-263"/>
<polygon fill="none" stroke="black" points="1159,-263 1159,-281 1209,-281 1209,-263 1159,-263"/>
<text text-anchor="start" x="1199" y="-269.2" font-family="Helvetica,sans-Serif" font-size="11.00"> &#160;</text>
</a>
</g>
</g>
<!-- syst_hierarchy_items&#45;&gt;syst_hierarchies -->
<g id="edge6" class="edge">
<title>syst_hierarchy_items:w&#45;&gt;syst_hierarchies:e</title>
<path fill="none" stroke="black" d="M999.4,-332C988.93,-332 982.01,-332 967,-332"/>
<polygon fill="black" stroke="black" points="1006,-332 1014,-335.6 1010,-332 1014,-332 1014,-332 1014,-332 1010,-332 1014,-328.4 1006,-332 1006,-332"/>
<ellipse fill="none" stroke="black" cx="1002.8" cy="-332" rx="3.2" ry="3.2"/>
</g>
</g>
</svg>
