<?xml version="1.0" encoding="UTF-8" standalone="no"?>
<!DOCTYPE svg PUBLIC "-//W3C//DTD SVG 1.1//EN"
 "http://www.w3.org/Graphics/SVG/1.1/DTD/svg11.dtd">
<!-- Generated by graphviz version 2.43.0 (0)
 -->
<!-- Title: oneDegreeRelationshipsDiagram Pages: 1 -->
<svg width="315pt" height="401pt"
 viewBox="0.00 0.00 315.00 401.00" xmlns="http://www.w3.org/2000/svg" xmlns:xlink="http://www.w3.org/1999/xlink">
<g id="graph0" class="graph" transform="scale(1 1) rotate(0) translate(4 397)">
<title>oneDegreeRelationshipsDiagram</title>
<polygon fill="#ffffff" stroke="transparent" points="-4,4 -4,-397 311,-397 311,4 -4,4"/>
<text text-anchor="middle" x="71.5" y="-7.2" font-family="Helvetica,sans-Serif" font-size="11.00">Generated by SchemaSpy</text>
<!-- migrations -->
<g id="node1" class="node">
<title>migrations</title>
<g id="a_node1"><a xlink:href="../../tables/migrations.html" xlink:title="migrations" target="_top">
<polygon fill="#ffffff" stroke="transparent" points="8,-37 8,-389 299,-389 299,-37 8,-37"/>
<polygon fill="#f5f5f5" stroke="transparent" points="10.5,-365 10.5,-387 297.5,-387 297.5,-365 10.5,-365"/>
<polygon fill="none" stroke="black" points="10.5,-365 10.5,-387 297.5,-387 297.5,-365 10.5,-365"/>
<text text-anchor="start" x="15.5" y="-374.2" font-family="Helvetica,sans-Serif" font-weight="bold" font-size="11.00">migrations</text>
<text text-anchor="start" x="262.5" y="-373.2" font-family="Helvetica,sans-Serif" font-size="11.00">[table]</text>
<polygon fill="none" stroke="black" points="10.5,-343 10.5,-365 204.5,-365 204.5,-343 10.5,-343"/>
<image xlink:href="../../images/primaryKeys.png" width="11px" height="12px" preserveAspectRatio="xMinYMin meet" x="15.5" y="-360"/>
<text text-anchor="start" x="30.5" y="-351.2" font-family="Helvetica,sans-Serif" font-size="11.00">id</text>
<polygon fill="none" stroke="black" points="204.5,-343 204.5,-365 297.5,-365 297.5,-343 204.5,-343"/>
<text text-anchor="start" x="207.5" y="-351.2" font-family="Helvetica,sans-Serif" font-size="11.00">uuid[2147483647]</text>
<polygon fill="none" stroke="black" points="10.5,-321 10.5,-343 204.5,-343 204.5,-321 10.5,-321"/>
<text text-anchor="start" x="30.5" y="-329.2" font-family="Helvetica,sans-Serif" font-size="11.00">release</text>
<polygon fill="none" stroke="black" points="204.5,-321 204.5,-343 297.5,-343 297.5,-321 204.5,-321"/>
<text text-anchor="start" x="207.5" y="-329.2" font-family="Helvetica,sans-Serif" font-size="11.00">int2[5]</text>
<polygon fill="none" stroke="black" points="10.5,-299 10.5,-321 204.5,-321 204.5,-299 10.5,-299"/>
<text text-anchor="start" x="30.5" y="-307.2" font-family="Helvetica,sans-Serif" font-size="11.00">version</text>
<polygon fill="none" stroke="black" points="204.5,-299 204.5,-321 297.5,-321 297.5,-299 204.5,-299"/>
<text text-anchor="start" x="207.5" y="-307.2" font-family="Helvetica,sans-Serif" font-size="11.00">int2[5]</text>
<polygon fill="none" stroke="black" points="10.5,-277 10.5,-299 204.5,-299 204.5,-277 10.5,-277"/>
<text text-anchor="start" x="30.5" y="-285.2" font-family="Helvetica,sans-Serif" font-size="11.00">update</text>
<polygon fill="none" stroke="black" points="204.5,-277 204.5,-299 297.5,-299 297.5,-277 204.5,-277"/>
<text text-anchor="start" x="207.5" y="-285.2" font-family="Helvetica,sans-Serif" font-size="11.00">int4[10]</text>
<polygon fill="none" stroke="black" points="10.5,-255 10.5,-277 204.5,-277 204.5,-255 10.5,-255"/>
<text text-anchor="start" x="30.5" y="-263.2" font-family="Helvetica,sans-Serif" font-size="11.00">sponsor</text>
<polygon fill="none" stroke="black" points="204.5,-255 204.5,-277 297.5,-277 297.5,-255 204.5,-255"/>
<text text-anchor="start" x="207.5" y="-263.2" font-family="Helvetica,sans-Serif" font-size="11.00">int8[19]</text>
<polygon fill="none" stroke="black" points="10.5,-233 10.5,-255 204.5,-255 204.5,-233 10.5,-233"/>
<text text-anchor="start" x="30.5" y="-241.2" font-family="Helvetica,sans-Serif" font-size="11.00">sponsor_modification</text>
<polygon fill="none" stroke="black" points="204.5,-233 204.5,-255 297.5,-255 297.5,-233 204.5,-233"/>
<text text-anchor="start" x="207.5" y="-241.2" font-family="Helvetica,sans-Serif" font-size="11.00">int4[10]</text>
<polygon fill="#ffffff" stroke="transparent" points="10.5,-211 10.5,-233 204.5,-233 204.5,-211 10.5,-211"/>
<polygon fill="none" stroke="black" points="10.5,-211 10.5,-233 204.5,-233 204.5,-211 10.5,-211"/>
<text text-anchor="start" x="30.5" y="-219.2" font-family="Helvetica,sans-Serif" font-size="11.00">migration_version</text>
<polygon fill="none" stroke="black" points="204.5,-211 204.5,-233 297.5,-233 297.5,-211 204.5,-211"/>
<text text-anchor="start" x="207.5" y="-219.2" font-family="Helvetica,sans-Serif" font-size="11.00">text[2147483647]</text>
<polygon fill="none" stroke="black" points="10.5,-189 10.5,-211 204.5,-211 204.5,-189 10.5,-189"/>
<text text-anchor="start" x="30.5" y="-197.2" font-family="Helvetica,sans-Serif" font-size="11.00">diag_timestamp_created</text>
<polygon fill="none" stroke="black" points="204.5,-189 204.5,-211 297.5,-211 297.5,-189 204.5,-189"/>
<text text-anchor="start" x="207.5" y="-197.2" font-family="Helvetica,sans-Serif" font-size="11.00">timestamptz[35,6]</text>
<polygon fill="none" stroke="black" points="10.5,-167 10.5,-189 204.5,-189 204.5,-167 10.5,-167"/>
<text text-anchor="start" x="30.5" y="-175.2" font-family="Helvetica,sans-Serif" font-size="11.00">diag_role_created</text>
<polygon fill="none" stroke="black" points="204.5,-167 204.5,-189 297.5,-189 297.5,-167 204.5,-167"/>
<text text-anchor="start" x="207.5" y="-175.2" font-family="Helvetica,sans-Serif" font-size="11.00">text[2147483647]</text>
<polygon fill="none" stroke="black" points="10.5,-145 10.5,-167 204.5,-167 204.5,-145 10.5,-145"/>
<text text-anchor="start" x="30.5" y="-153.2" font-family="Helvetica,sans-Serif" font-size="11.00">diag_timestamp_modified</text>
<polygon fill="none" stroke="black" points="204.5,-145 204.5,-167 297.5,-167 297.5,-145 204.5,-145"/>
<text text-anchor="start" x="207.5" y="-153.2" font-family="Helvetica,sans-Serif" font-size="11.00">timestamptz[35,6]</text>
<polygon fill="none" stroke="black" points="10.5,-123 10.5,-145 204.5,-145 204.5,-123 10.5,-123"/>
<text text-anchor="start" x="30.5" y="-131.2" font-family="Helvetica,sans-Serif" font-size="11.00">diag_wallclock_modified</text>
<polygon fill="none" stroke="black" points="204.5,-123 204.5,-145 297.5,-145 297.5,-123 204.5,-123"/>
<text text-anchor="start" x="207.5" y="-131.2" font-family="Helvetica,sans-Serif" font-size="11.00">timestamptz[35,6]</text>
<polygon fill="none" stroke="black" points="10.5,-101 10.5,-123 204.5,-123 204.5,-101 10.5,-101"/>
<text text-anchor="start" x="30.5" y="-109.2" font-family="Helvetica,sans-Serif" font-size="11.00">diag_role_modified</text>
<polygon fill="none" stroke="black" points="204.5,-101 204.5,-123 297.5,-123 297.5,-101 204.5,-101"/>
<text text-anchor="start" x="207.5" y="-109.2" font-family="Helvetica,sans-Serif" font-size="11.00">text[2147483647]</text>
<polygon fill="none" stroke="black" points="10.5,-79 10.5,-101 204.5,-101 204.5,-79 10.5,-79"/>
<text text-anchor="start" x="30.5" y="-87.2" font-family="Helvetica,sans-Serif" font-size="11.00">diag_row_version</text>
<polygon fill="none" stroke="black" points="204.5,-79 204.5,-101 297.5,-101 297.5,-79 204.5,-79"/>
<text text-anchor="start" x="207.5" y="-87.2" font-family="Helvetica,sans-Serif" font-size="11.00">int8[19]</text>
<polygon fill="none" stroke="black" points="10.5,-57 10.5,-79 204.5,-79 204.5,-57 10.5,-57"/>
<text text-anchor="start" x="30.5" y="-65.2" font-family="Helvetica,sans-Serif" font-size="11.00">diag_update_count</text>
<polygon fill="none" stroke="black" points="204.5,-57 204.5,-79 297.5,-79 297.5,-57 204.5,-57"/>
<text text-anchor="start" x="207.5" y="-65.2" font-family="Helvetica,sans-Serif" font-size="11.00">int8[19]</text>
<polygon fill="#ffffff" stroke="transparent" points="10.5,-39 10.5,-57 111.5,-57 111.5,-39 10.5,-39"/>
<polygon fill="none" stroke="black" points="10.5,-39 10.5,-57 111.5,-57 111.5,-39 10.5,-39"/>
<text text-anchor="start" x="13.5" y="-45.2" font-family="Helvetica,sans-Serif" font-size="11.00">&lt; 0</text>
<polygon fill="#ffffff" stroke="transparent" points="111.5,-39 111.5,-57 204.5,-57 204.5,-39 111.5,-39"/>
<polygon fill="none" stroke="black" points="111.5,-39 111.5,-57 204.5,-57 204.5,-39 111.5,-39"/>
<text text-anchor="start" x="194.5" y="-45.2" font-family="Helvetica,sans-Serif" font-size="11.00"> &#160;</text>
<polygon fill="#ffffff" stroke="transparent" points="204.5,-39 204.5,-57 297.5,-57 297.5,-39 204.5,-39"/>
<polygon fill="none" stroke="black" points="204.5,-39 204.5,-57 297.5,-57 297.5,-39 204.5,-39"/>
<text text-anchor="start" x="278.5" y="-45.2" font-family="Helvetica,sans-Serif" font-size="11.00">0 &gt;</text>
<polygon fill="none" stroke="black" stroke-width="2" points="9,-38 9,-388 298,-388 298,-38 9,-38"/>
</a>
</g>
</g>
</g>
</svg>
