<?xml version="1.0" encoding="UTF-8" standalone="no"?>
<!DOCTYPE svg PUBLIC "-//W3C//DTD SVG 1.1//EN"
 "http://www.w3.org/Graphics/SVG/1.1/DTD/svg11.dtd">
<!-- Generated by graphviz version 2.43.0 (0)
 -->
<!-- Title: compactRelationshipsDiagram Pages: 1 -->
<svg width="1567pt" height="709pt"
 viewBox="0.00 0.00 1567.00 709.00" xmlns="http://www.w3.org/2000/svg" xmlns:xlink="http://www.w3.org/1999/xlink">
<g id="graph0" class="graph" transform="scale(1 1) rotate(0) translate(4 705)">
<title>compactRelationshipsDiagram</title>
<polygon fill="#ffffff" stroke="transparent" points="-4,4 -4,-705 1563,-705 1563,4 -4,4"/>
<text text-anchor="middle" x="71.5" y="-7.2" font-family="Helvetica,sans-Serif" font-size="11.00">Generated by SchemaSpy</text>
<!-- syst_applications -->
<g id="node1" class="node">
<title>syst_applications</title>
<g id="a_node1"><a xlink:href="../../tables/syst_applications.html" xlink:title="syst_applications" target="_top">
<polygon fill="#ffffff" stroke="transparent" points="772,-362 772,-486 966,-486 966,-362 772,-362"/>
<polygon fill="#f5f5f5" stroke="transparent" points="772,-464 772,-486 966,-486 966,-464 772,-464"/>
<polygon fill="none" stroke="black" points="772,-464 772,-486 966,-486 966,-464 772,-464"/>
<text text-anchor="start" x="777" y="-473.2" font-family="Helvetica,sans-Serif" font-weight="bold" font-size="11.00">syst_applications</text>
<text text-anchor="start" x="931" y="-472.2" font-family="Helvetica,sans-Serif" font-size="11.00">[table]</text>
<polygon fill="none" stroke="black" points="772,-442 772,-464 966,-464 966,-442 772,-442"/>
<image xlink:href="../../images/primaryKeys.png" width="11px" height="12px" preserveAspectRatio="xMinYMin meet" x="777" y="-459"/>
<text text-anchor="start" x="792" y="-450.2" font-family="Helvetica,sans-Serif" font-size="11.00">id</text>
<polygon fill="#ffffff" stroke="transparent" points="772,-420 772,-442 966,-442 966,-420 772,-420"/>
<polygon fill="none" stroke="black" points="772,-420 772,-442 966,-442 966,-420 772,-420"/>
<text text-anchor="start" x="792" y="-428.2" font-family="Helvetica,sans-Serif" font-size="11.00">internal_name</text>
<polygon fill="#ffffff" stroke="transparent" points="772,-398 772,-420 966,-420 966,-398 772,-398"/>
<polygon fill="none" stroke="black" points="772,-398 772,-420 966,-420 966,-398 772,-398"/>
<text text-anchor="start" x="792" y="-406.2" font-family="Helvetica,sans-Serif" font-size="11.00">display_name</text>
<polygon fill="none" stroke="black" points="772,-380 772,-398 966,-398 966,-380 772,-380"/>
<text text-anchor="start" x="775" y="-386.2" font-family="Helvetica,sans-Serif" font-size="11.00">...</text>
<polygon fill="#ffffff" stroke="transparent" points="772,-362 772,-380 858,-380 858,-362 772,-362"/>
<polygon fill="none" stroke="black" points="772,-362 772,-380 858,-380 858,-362 772,-362"/>
<text text-anchor="start" x="775" y="-368.2" font-family="Helvetica,sans-Serif" font-size="11.00"> &#160;</text>
<polygon fill="#ffffff" stroke="transparent" points="858,-362 858,-380 907,-380 907,-362 858,-362"/>
<polygon fill="none" stroke="black" points="858,-362 858,-380 907,-380 907,-362 858,-362"/>
<text text-anchor="start" x="897" y="-368.2" font-family="Helvetica,sans-Serif" font-size="11.00"> &#160;</text>
<polygon fill="#ffffff" stroke="transparent" points="907,-362 907,-380 966,-380 966,-362 907,-362"/>
<polygon fill="none" stroke="black" points="907,-362 907,-380 966,-380 966,-362 907,-362"/>
<text text-anchor="start" x="947" y="-368.2" font-family="Helvetica,sans-Serif" font-size="11.00">3 &gt;</text>
</a>
</g>
</g>
<!-- syst_owners -->
<g id="node2" class="node">
<title>syst_owners</title>
<g id="a_node2"><a xlink:href="../../tables/syst_owners.html" xlink:title="syst_owners" target="_top">
<polygon fill="#ffffff" stroke="transparent" points="772,-72 772,-218 966,-218 966,-72 772,-72"/>
<polygon fill="#f5f5f5" stroke="transparent" points="772,-196 772,-218 966,-218 966,-196 772,-196"/>
<polygon fill="none" stroke="black" points="772,-196 772,-218 966,-218 966,-196 772,-196"/>
<text text-anchor="start" x="777" y="-205.2" font-family="Helvetica,sans-Serif" font-weight="bold" font-size="11.00">syst_owners</text>
<text text-anchor="start" x="931" y="-204.2" font-family="Helvetica,sans-Serif" font-size="11.00">[table]</text>
<polygon fill="none" stroke="black" points="772,-174 772,-196 966,-196 966,-174 772,-174"/>
<image xlink:href="../../images/primaryKeys.png" width="11px" height="12px" preserveAspectRatio="xMinYMin meet" x="777" y="-191"/>
<text text-anchor="start" x="792" y="-182.2" font-family="Helvetica,sans-Serif" font-size="11.00">id</text>
<polygon fill="#ffffff" stroke="transparent" points="772,-152 772,-174 966,-174 966,-152 772,-152"/>
<polygon fill="none" stroke="black" points="772,-152 772,-174 966,-174 966,-152 772,-152"/>
<text text-anchor="start" x="792" y="-160.2" font-family="Helvetica,sans-Serif" font-size="11.00">internal_name</text>
<polygon fill="#ffffff" stroke="transparent" points="772,-130 772,-152 966,-152 966,-130 772,-130"/>
<polygon fill="none" stroke="black" points="772,-130 772,-152 966,-152 966,-130 772,-130"/>
<text text-anchor="start" x="792" y="-138.2" font-family="Helvetica,sans-Serif" font-size="11.00">display_name</text>
<polygon fill="none" stroke="black" points="772,-108 772,-130 966,-130 966,-108 772,-108"/>
<image xlink:href="../../images/foreignKeys.png" width="11px" height="12px" preserveAspectRatio="xMinYMin meet" x="777" y="-125"/>
<text text-anchor="start" x="792" y="-116.2" font-family="Helvetica,sans-Serif" font-size="11.00">owner_state_id</text>
<polygon fill="none" stroke="black" points="772,-90 772,-108 966,-108 966,-90 772,-90"/>
<text text-anchor="start" x="775" y="-96.2" font-family="Helvetica,sans-Serif" font-size="11.00">...</text>
<polygon fill="#ffffff" stroke="transparent" points="772,-72 772,-90 862,-90 862,-72 772,-72"/>
<polygon fill="none" stroke="black" points="772,-72 772,-90 862,-90 862,-72 772,-72"/>
<text text-anchor="start" x="775" y="-78.2" font-family="Helvetica,sans-Serif" font-size="11.00">&lt; 1</text>
<polygon fill="#ffffff" stroke="transparent" points="862,-72 862,-90 909,-90 909,-72 862,-72"/>
<polygon fill="none" stroke="black" points="862,-72 862,-90 909,-90 909,-72 862,-72"/>
<text text-anchor="start" x="899" y="-78.2" font-family="Helvetica,sans-Serif" font-size="11.00"> &#160;</text>
<polygon fill="#ffffff" stroke="transparent" points="909,-72 909,-90 966,-90 966,-72 909,-72"/>
<polygon fill="none" stroke="black" points="909,-72 909,-90 966,-90 966,-72 909,-72"/>
<text text-anchor="start" x="947" y="-78.2" font-family="Helvetica,sans-Serif" font-size="11.00">1 &gt;</text>
</a>
</g>
</g>
<!-- syst_enum_items -->
<g id="node4" class="node">
<title>syst_enum_items</title>
<g id="a_node4"><a xlink:href="../../tables/syst_enum_items.html" xlink:title="syst_enum_items" target="_top">
<polygon fill="#ffffff" stroke="transparent" points="529,-120 529,-288 723,-288 723,-120 529,-120"/>
<polygon fill="#f5f5f5" stroke="transparent" points="529,-266 529,-288 723,-288 723,-266 529,-266"/>
<polygon fill="none" stroke="black" points="529,-266 529,-288 723,-288 723,-266 529,-266"/>
<text text-anchor="start" x="534" y="-275.2" font-family="Helvetica,sans-Serif" font-weight="bold" font-size="11.00">syst_enum_items</text>
<text text-anchor="start" x="688" y="-274.2" font-family="Helvetica,sans-Serif" font-size="11.00">[table]</text>
<polygon fill="none" stroke="black" points="529,-244 529,-266 723,-266 723,-244 529,-244"/>
<image xlink:href="../../images/primaryKeys.png" width="11px" height="12px" preserveAspectRatio="xMinYMin meet" x="534" y="-261"/>
<text text-anchor="start" x="549" y="-252.2" font-family="Helvetica,sans-Serif" font-size="11.00">id</text>
<polygon fill="#ffffff" stroke="transparent" points="529,-222 529,-244 723,-244 723,-222 529,-222"/>
<polygon fill="none" stroke="black" points="529,-222 529,-244 723,-244 723,-222 529,-222"/>
<text text-anchor="start" x="549" y="-230.2" font-family="Helvetica,sans-Serif" font-size="11.00">internal_name</text>
<polygon fill="#ffffff" stroke="transparent" points="529,-200 529,-222 723,-222 723,-200 529,-200"/>
<polygon fill="none" stroke="black" points="529,-200 529,-222 723,-222 723,-200 529,-200"/>
<text text-anchor="start" x="549" y="-208.2" font-family="Helvetica,sans-Serif" font-size="11.00">display_name</text>
<polygon fill="none" stroke="black" points="529,-178 529,-200 723,-200 723,-178 529,-178"/>
<image xlink:href="../../images/foreignKeys.png" width="11px" height="12px" preserveAspectRatio="xMinYMin meet" x="534" y="-195"/>
<text text-anchor="start" x="549" y="-186.2" font-family="Helvetica,sans-Serif" font-size="11.00">enum_id</text>
<polygon fill="none" stroke="black" points="529,-156 529,-178 723,-178 723,-156 529,-156"/>
<image xlink:href="../../images/foreignKeys.png" width="11px" height="12px" preserveAspectRatio="xMinYMin meet" x="534" y="-173"/>
<text text-anchor="start" x="549" y="-164.2" font-family="Helvetica,sans-Serif" font-size="11.00">functional_type_id</text>
<polygon fill="none" stroke="black" points="529,-138 529,-156 723,-156 723,-138 529,-138"/>
<text text-anchor="start" x="532" y="-144.2" font-family="Helvetica,sans-Serif" font-size="11.00">...</text>
<polygon fill="#ffffff" stroke="transparent" points="529,-120 529,-138 619,-138 619,-120 529,-120"/>
<polygon fill="none" stroke="black" points="529,-120 529,-138 619,-138 619,-120 529,-120"/>
<text text-anchor="start" x="532" y="-126.2" font-family="Helvetica,sans-Serif" font-size="11.00">&lt; 2</text>
<polygon fill="#ffffff" stroke="transparent" points="619,-120 619,-138 666,-138 666,-120 619,-120"/>
<polygon fill="none" stroke="black" points="619,-120 619,-138 666,-138 666,-120 619,-120"/>
<text text-anchor="start" x="656" y="-126.2" font-family="Helvetica,sans-Serif" font-size="11.00"> &#160;</text>
<polygon fill="#ffffff" stroke="transparent" points="666,-120 666,-138 723,-138 723,-120 666,-120"/>
<polygon fill="none" stroke="black" points="666,-120 666,-138 723,-138 723,-120 666,-120"/>
<text text-anchor="start" x="704" y="-126.2" font-family="Helvetica,sans-Serif" font-size="11.00">4 &gt;</text>
</a>
</g>
</g>
<!-- syst_owners&#45;&gt;syst_enum_items -->
<g id="edge16" class="edge">
<title>syst_owners:w&#45;&gt;syst_enum_items:e</title>
<path fill="none" stroke="black" d="M756.59,-122.36C720.94,-143.3 781.96,-255 724,-255"/>
<polygon fill="black" stroke="black" points="763.21,-120.82 771.82,-122.51 767.1,-119.91 771,-119 771,-119 771,-119 767.1,-119.91 770.18,-115.49 763.21,-120.82 763.21,-120.82"/>
<ellipse fill="none" stroke="black" cx="760.09" cy="-121.55" rx="3.2" ry="3.2"/>
</g>
<!-- syst_instance_type_contexts -->
<g id="node3" class="node">
<title>syst_instance_type_contexts</title>
<g id="a_node3"><a xlink:href="../../tables/syst_instance_type_contexts.html" xlink:title="syst_instance_type_contexts" target="_top">
<polygon fill="#ffffff" stroke="transparent" points="1320,-533 1320,-657 1551,-657 1551,-533 1320,-533"/>
<polygon fill="#f5f5f5" stroke="transparent" points="1320.5,-635 1320.5,-657 1551.5,-657 1551.5,-635 1320.5,-635"/>
<polygon fill="none" stroke="black" points="1320.5,-635 1320.5,-657 1551.5,-657 1551.5,-635 1320.5,-635"/>
<text text-anchor="start" x="1325.5" y="-644.2" font-family="Helvetica,sans-Serif" font-weight="bold" font-size="11.00">syst_instance_type_contexts</text>
<text text-anchor="start" x="1516.5" y="-643.2" font-family="Helvetica,sans-Serif" font-size="11.00">[table]</text>
<polygon fill="none" stroke="black" points="1320.5,-613 1320.5,-635 1551.5,-635 1551.5,-613 1320.5,-613"/>
<image xlink:href="../../images/primaryKeys.png" width="11px" height="12px" preserveAspectRatio="xMinYMin meet" x="1325.5" y="-630"/>
<text text-anchor="start" x="1349.5" y="-621.2" font-family="Helvetica,sans-Serif" font-size="11.00">id</text>
<polygon fill="#ffffff" stroke="transparent" points="1320.5,-591 1320.5,-613 1551.5,-613 1551.5,-591 1320.5,-591"/>
<polygon fill="none" stroke="black" points="1320.5,-591 1320.5,-613 1551.5,-613 1551.5,-591 1320.5,-591"/>
<image xlink:href="../../images/foreignKeys.png" width="11px" height="12px" preserveAspectRatio="xMinYMin meet" x="1325.5" y="-608"/>
<text text-anchor="start" x="1349.5" y="-599.2" font-family="Helvetica,sans-Serif" font-size="11.00">instance_type_application_id</text>
<polygon fill="#ffffff" stroke="transparent" points="1320.5,-569 1320.5,-591 1551.5,-591 1551.5,-569 1320.5,-569"/>
<polygon fill="none" stroke="black" points="1320.5,-569 1320.5,-591 1551.5,-591 1551.5,-569 1320.5,-569"/>
<image xlink:href="../../images/foreignKeys.png" width="11px" height="12px" preserveAspectRatio="xMinYMin meet" x="1325.5" y="-586"/>
<text text-anchor="start" x="1349.5" y="-577.2" font-family="Helvetica,sans-Serif" font-size="11.00">application_context_id</text>
<polygon fill="none" stroke="black" points="1320.5,-551 1320.5,-569 1551.5,-569 1551.5,-551 1320.5,-551"/>
<text text-anchor="start" x="1323.5" y="-557.2" font-family="Helvetica,sans-Serif" font-size="11.00">...</text>
<polygon fill="#ffffff" stroke="transparent" points="1320.5,-533 1320.5,-551 1433.5,-551 1433.5,-533 1320.5,-533"/>
<polygon fill="none" stroke="black" points="1320.5,-533 1320.5,-551 1433.5,-551 1433.5,-533 1320.5,-533"/>
<text text-anchor="start" x="1323.5" y="-539.2" font-family="Helvetica,sans-Serif" font-size="11.00">&lt; 2</text>
<polygon fill="#ffffff" stroke="transparent" points="1433.5,-533 1433.5,-551 1492.5,-551 1492.5,-533 1433.5,-533"/>
<polygon fill="none" stroke="black" points="1433.5,-533 1433.5,-551 1492.5,-551 1492.5,-533 1433.5,-533"/>
<text text-anchor="start" x="1482.5" y="-539.2" font-family="Helvetica,sans-Serif" font-size="11.00"> &#160;</text>
<polygon fill="#ffffff" stroke="transparent" points="1492.5,-533 1492.5,-551 1551.5,-551 1551.5,-533 1492.5,-533"/>
<polygon fill="none" stroke="black" points="1492.5,-533 1492.5,-551 1551.5,-551 1551.5,-533 1492.5,-533"/>
<text text-anchor="start" x="1541.5" y="-539.2" font-family="Helvetica,sans-Serif" font-size="11.00"> &#160;</text>
</a>
</g>
</g>
<!-- syst_application_contexts -->
<g id="node6" class="node">
<title>syst_application_contexts</title>
<g id="a_node6"><a xlink:href="../../tables/syst_application_contexts.html" xlink:title="syst_application_contexts" target="_top">
<polygon fill="#ffffff" stroke="transparent" points="1036.5,-406 1036.5,-552 1249.5,-552 1249.5,-406 1036.5,-406"/>
<polygon fill="#f5f5f5" stroke="transparent" points="1037,-530 1037,-552 1250,-552 1250,-530 1037,-530"/>
<polygon fill="none" stroke="black" points="1037,-530 1037,-552 1250,-552 1250,-530 1037,-530"/>
<text text-anchor="start" x="1042" y="-539.2" font-family="Helvetica,sans-Serif" font-weight="bold" font-size="11.00">syst_application_contexts</text>
<text text-anchor="start" x="1215" y="-538.2" font-family="Helvetica,sans-Serif" font-size="11.00">[table]</text>
<polygon fill="none" stroke="black" points="1037,-508 1037,-530 1250,-530 1250,-508 1037,-508"/>
<image xlink:href="../../images/primaryKeys.png" width="11px" height="12px" preserveAspectRatio="xMinYMin meet" x="1042" y="-525"/>
<text text-anchor="start" x="1067" y="-516.2" font-family="Helvetica,sans-Serif" font-size="11.00">id</text>
<polygon fill="#ffffff" stroke="transparent" points="1037,-486 1037,-508 1250,-508 1250,-486 1037,-486"/>
<polygon fill="none" stroke="black" points="1037,-486 1037,-508 1250,-508 1250,-486 1037,-486"/>
<text text-anchor="start" x="1067" y="-494.2" font-family="Helvetica,sans-Serif" font-size="11.00">internal_name</text>
<polygon fill="#ffffff" stroke="transparent" points="1037,-464 1037,-486 1250,-486 1250,-464 1037,-464"/>
<polygon fill="none" stroke="black" points="1037,-464 1037,-486 1250,-486 1250,-464 1037,-464"/>
<text text-anchor="start" x="1067" y="-472.2" font-family="Helvetica,sans-Serif" font-size="11.00">display_name</text>
<polygon fill="none" stroke="black" points="1037,-442 1037,-464 1250,-464 1250,-442 1037,-442"/>
<image xlink:href="../../images/foreignKeys.png" width="11px" height="12px" preserveAspectRatio="xMinYMin meet" x="1042" y="-459"/>
<text text-anchor="start" x="1067" y="-450.2" font-family="Helvetica,sans-Serif" font-size="11.00">application_id</text>
<polygon fill="none" stroke="black" points="1037,-424 1037,-442 1250,-442 1250,-424 1037,-424"/>
<text text-anchor="start" x="1040" y="-430.2" font-family="Helvetica,sans-Serif" font-size="11.00">...</text>
<polygon fill="#ffffff" stroke="transparent" points="1037,-406 1037,-424 1137,-424 1137,-406 1037,-406"/>
<polygon fill="none" stroke="black" points="1037,-406 1037,-424 1137,-424 1137,-406 1037,-406"/>
<text text-anchor="start" x="1040" y="-412.2" font-family="Helvetica,sans-Serif" font-size="11.00">&lt; 1</text>
<polygon fill="#ffffff" stroke="transparent" points="1137,-406 1137,-424 1189,-424 1189,-406 1137,-406"/>
<polygon fill="none" stroke="black" points="1137,-406 1137,-424 1189,-424 1189,-406 1137,-406"/>
<text text-anchor="start" x="1179" y="-412.2" font-family="Helvetica,sans-Serif" font-size="11.00"> &#160;</text>
<polygon fill="#ffffff" stroke="transparent" points="1189,-406 1189,-424 1250,-424 1250,-406 1189,-406"/>
<polygon fill="none" stroke="black" points="1189,-406 1189,-424 1250,-424 1250,-406 1189,-406"/>
<text text-anchor="start" x="1231" y="-412.2" font-family="Helvetica,sans-Serif" font-size="11.00">2 &gt;</text>
</a>
</g>
</g>
<!-- syst_instance_type_contexts&#45;&gt;syst_application_contexts -->
<g id="edge9" class="edge">
<title>syst_instance_type_contexts:w&#45;&gt;syst_application_contexts:e</title>
<path fill="none" stroke="black" d="M1305.19,-576.72C1281.34,-564.05 1286.03,-519 1251,-519"/>
<polygon fill="black" stroke="black" points="1311.7,-578.21 1318.7,-583.51 1315.6,-579.11 1319.5,-580 1319.5,-580 1319.5,-580 1315.6,-579.11 1320.3,-576.49 1311.7,-578.21 1311.7,-578.21"/>
<ellipse fill="none" stroke="black" cx="1308.58" cy="-577.5" rx="3.2" ry="3.2"/>
</g>
<!-- syst_instance_type_applications -->
<g id="node9" class="node">
<title>syst_instance_type_applications</title>
<g id="a_node9"><a xlink:href="../../tables/syst_instance_type_applications.html" xlink:title="syst_instance_type_applications" target="_top">
<polygon fill="#ffffff" stroke="transparent" points="1015,-573 1015,-697 1271,-697 1271,-573 1015,-573"/>
<polygon fill="#f5f5f5" stroke="transparent" points="1015,-675 1015,-697 1271,-697 1271,-675 1015,-675"/>
<polygon fill="none" stroke="black" points="1015,-675 1015,-697 1271,-697 1271,-675 1015,-675"/>
<text text-anchor="start" x="1020" y="-684.2" font-family="Helvetica,sans-Serif" font-weight="bold" font-size="11.00">syst_instance_type_applications</text>
<text text-anchor="start" x="1236" y="-683.2" font-family="Helvetica,sans-Serif" font-size="11.00">[table]</text>
<polygon fill="none" stroke="black" points="1015,-653 1015,-675 1271,-675 1271,-653 1015,-653"/>
<image xlink:href="../../images/primaryKeys.png" width="11px" height="12px" preserveAspectRatio="xMinYMin meet" x="1020" y="-670"/>
<text text-anchor="start" x="1045" y="-661.2" font-family="Helvetica,sans-Serif" font-size="11.00">id</text>
<polygon fill="#ffffff" stroke="transparent" points="1015,-631 1015,-653 1271,-653 1271,-631 1015,-631"/>
<polygon fill="none" stroke="black" points="1015,-631 1015,-653 1271,-653 1271,-631 1015,-631"/>
<image xlink:href="../../images/foreignKeys.png" width="11px" height="12px" preserveAspectRatio="xMinYMin meet" x="1020" y="-648"/>
<text text-anchor="start" x="1045" y="-639.2" font-family="Helvetica,sans-Serif" font-size="11.00">instance_type_id</text>
<polygon fill="#ffffff" stroke="transparent" points="1015,-609 1015,-631 1271,-631 1271,-609 1015,-609"/>
<polygon fill="none" stroke="black" points="1015,-609 1015,-631 1271,-631 1271,-609 1015,-609"/>
<image xlink:href="../../images/foreignKeys.png" width="11px" height="12px" preserveAspectRatio="xMinYMin meet" x="1020" y="-626"/>
<text text-anchor="start" x="1045" y="-617.2" font-family="Helvetica,sans-Serif" font-size="11.00">application_id</text>
<polygon fill="none" stroke="black" points="1015,-591 1015,-609 1271,-609 1271,-591 1015,-591"/>
<text text-anchor="start" x="1018" y="-597.2" font-family="Helvetica,sans-Serif" font-size="11.00">...</text>
<polygon fill="#ffffff" stroke="transparent" points="1015,-573 1015,-591 1136,-591 1136,-573 1015,-573"/>
<polygon fill="none" stroke="black" points="1015,-573 1015,-591 1136,-591 1136,-573 1015,-573"/>
<text text-anchor="start" x="1018" y="-579.2" font-family="Helvetica,sans-Serif" font-size="11.00">&lt; 2</text>
<polygon fill="#ffffff" stroke="transparent" points="1136,-573 1136,-591 1199,-591 1199,-573 1136,-573"/>
<polygon fill="none" stroke="black" points="1136,-573 1136,-591 1199,-591 1199,-573 1136,-573"/>
<text text-anchor="start" x="1189" y="-579.2" font-family="Helvetica,sans-Serif" font-size="11.00"> &#160;</text>
<polygon fill="#ffffff" stroke="transparent" points="1199,-573 1199,-591 1271,-591 1271,-573 1199,-573"/>
<polygon fill="none" stroke="black" points="1199,-573 1199,-591 1271,-591 1271,-573 1199,-573"/>
<text text-anchor="start" x="1252" y="-579.2" font-family="Helvetica,sans-Serif" font-size="11.00">1 &gt;</text>
</a>
</g>
</g>
<!-- syst_instance_type_contexts&#45;&gt;syst_instance_type_applications -->
<g id="edge10" class="edge">
<title>syst_instance_type_contexts:w&#45;&gt;syst_instance_type_applications:e</title>
<path fill="none" stroke="black" d="M1305.62,-607.29C1290.84,-622.28 1300.48,-664 1272,-664"/>
<polygon fill="black" stroke="black" points="1312.02,-604.85 1320.78,-605.36 1315.76,-603.42 1319.5,-602 1319.5,-602 1319.5,-602 1315.76,-603.42 1318.22,-598.64 1312.02,-604.85 1312.02,-604.85"/>
<ellipse fill="none" stroke="black" cx="1309.03" cy="-605.99" rx="3.2" ry="3.2"/>
</g>
<!-- syst_enum_functional_types -->
<g id="node5" class="node">
<title>syst_enum_functional_types</title>
<g id="a_node5"><a xlink:href="../../tables/syst_enum_functional_types.html" xlink:title="syst_enum_functional_types" target="_top">
<polygon fill="#ffffff" stroke="transparent" points="251,-37 251,-183 480,-183 480,-37 251,-37"/>
<polygon fill="#f5f5f5" stroke="transparent" points="251.5,-161 251.5,-183 480.5,-183 480.5,-161 251.5,-161"/>
<polygon fill="none" stroke="black" points="251.5,-161 251.5,-183 480.5,-183 480.5,-161 251.5,-161"/>
<text text-anchor="start" x="256.5" y="-170.2" font-family="Helvetica,sans-Serif" font-weight="bold" font-size="11.00">syst_enum_functional_types</text>
<text text-anchor="start" x="445.5" y="-169.2" font-family="Helvetica,sans-Serif" font-size="11.00">[table]</text>
<polygon fill="none" stroke="black" points="251.5,-139 251.5,-161 480.5,-161 480.5,-139 251.5,-139"/>
<image xlink:href="../../images/primaryKeys.png" width="11px" height="12px" preserveAspectRatio="xMinYMin meet" x="256.5" y="-156"/>
<text text-anchor="start" x="281.5" y="-147.2" font-family="Helvetica,sans-Serif" font-size="11.00">id</text>
<polygon fill="#ffffff" stroke="transparent" points="251.5,-117 251.5,-139 480.5,-139 480.5,-117 251.5,-117"/>
<polygon fill="none" stroke="black" points="251.5,-117 251.5,-139 480.5,-139 480.5,-117 251.5,-117"/>
<text text-anchor="start" x="281.5" y="-125.2" font-family="Helvetica,sans-Serif" font-size="11.00">internal_name</text>
<polygon fill="#ffffff" stroke="transparent" points="251.5,-95 251.5,-117 480.5,-117 480.5,-95 251.5,-95"/>
<polygon fill="none" stroke="black" points="251.5,-95 251.5,-117 480.5,-117 480.5,-95 251.5,-95"/>
<text text-anchor="start" x="281.5" y="-103.2" font-family="Helvetica,sans-Serif" font-size="11.00">display_name</text>
<polygon fill="none" stroke="black" points="251.5,-73 251.5,-95 480.5,-95 480.5,-73 251.5,-73"/>
<image xlink:href="../../images/foreignKeys.png" width="11px" height="12px" preserveAspectRatio="xMinYMin meet" x="256.5" y="-90"/>
<text text-anchor="start" x="281.5" y="-81.2" font-family="Helvetica,sans-Serif" font-size="11.00">enum_id</text>
<polygon fill="none" stroke="black" points="251.5,-55 251.5,-73 480.5,-73 480.5,-55 251.5,-55"/>
<text text-anchor="start" x="254.5" y="-61.2" font-family="Helvetica,sans-Serif" font-size="11.00">...</text>
<polygon fill="#ffffff" stroke="transparent" points="251.5,-37 251.5,-55 359.5,-55 359.5,-37 251.5,-37"/>
<polygon fill="none" stroke="black" points="251.5,-37 251.5,-55 359.5,-55 359.5,-37 251.5,-37"/>
<text text-anchor="start" x="254.5" y="-43.2" font-family="Helvetica,sans-Serif" font-size="11.00">&lt; 1</text>
<polygon fill="#ffffff" stroke="transparent" points="359.5,-37 359.5,-55 415.5,-55 415.5,-37 359.5,-37"/>
<polygon fill="none" stroke="black" points="359.5,-37 359.5,-55 415.5,-55 415.5,-37 359.5,-37"/>
<text text-anchor="start" x="405.5" y="-43.2" font-family="Helvetica,sans-Serif" font-size="11.00"> &#160;</text>
<polygon fill="#ffffff" stroke="transparent" points="415.5,-37 415.5,-55 480.5,-55 480.5,-37 415.5,-37"/>
<polygon fill="none" stroke="black" points="415.5,-37 415.5,-55 480.5,-55 480.5,-37 415.5,-37"/>
<text text-anchor="start" x="461.5" y="-43.2" font-family="Helvetica,sans-Serif" font-size="11.00">1 &gt;</text>
</a>
</g>
</g>
<!-- syst_enum_items&#45;&gt;syst_enum_functional_types -->
<g id="edge4" class="edge">
<title>syst_enum_items:w&#45;&gt;syst_enum_functional_types:e</title>
<path fill="none" stroke="black" d="M513.86,-164.04C503.3,-159.17 497.66,-150 481.5,-150"/>
<polygon fill="black" stroke="black" points="520.17,-165.36 527.26,-170.52 524.08,-166.18 528,-167 528,-167 528,-167 524.08,-166.18 528.74,-163.48 520.17,-165.36 520.17,-165.36"/>
<ellipse fill="none" stroke="black" cx="517.04" cy="-164.7" rx="3.2" ry="3.2"/>
</g>
<!-- syst_enums -->
<g id="node10" class="node">
<title>syst_enums</title>
<g id="a_node10"><a xlink:href="../../tables/syst_enums.html" xlink:title="syst_enums" target="_top">
<polygon fill="#ffffff" stroke="transparent" points="8,-54 8,-178 202,-178 202,-54 8,-54"/>
<polygon fill="#f5f5f5" stroke="transparent" points="8,-156 8,-178 202,-178 202,-156 8,-156"/>
<polygon fill="none" stroke="black" points="8,-156 8,-178 202,-178 202,-156 8,-156"/>
<text text-anchor="start" x="13" y="-165.2" font-family="Helvetica,sans-Serif" font-weight="bold" font-size="11.00">syst_enums</text>
<text text-anchor="start" x="167" y="-164.2" font-family="Helvetica,sans-Serif" font-size="11.00">[table]</text>
<polygon fill="none" stroke="black" points="8,-134 8,-156 202,-156 202,-134 8,-134"/>
<image xlink:href="../../images/primaryKeys.png" width="11px" height="12px" preserveAspectRatio="xMinYMin meet" x="13" y="-151"/>
<text text-anchor="start" x="28" y="-142.2" font-family="Helvetica,sans-Serif" font-size="11.00">id</text>
<polygon fill="#ffffff" stroke="transparent" points="8,-112 8,-134 202,-134 202,-112 8,-112"/>
<polygon fill="none" stroke="black" points="8,-112 8,-134 202,-134 202,-112 8,-112"/>
<text text-anchor="start" x="28" y="-120.2" font-family="Helvetica,sans-Serif" font-size="11.00">internal_name</text>
<polygon fill="#ffffff" stroke="transparent" points="8,-90 8,-112 202,-112 202,-90 8,-90"/>
<polygon fill="none" stroke="black" points="8,-90 8,-112 202,-112 202,-90 8,-90"/>
<text text-anchor="start" x="28" y="-98.2" font-family="Helvetica,sans-Serif" font-size="11.00">display_name</text>
<polygon fill="none" stroke="black" points="8,-72 8,-90 202,-90 202,-72 8,-72"/>
<text text-anchor="start" x="11" y="-78.2" font-family="Helvetica,sans-Serif" font-size="11.00">...</text>
<polygon fill="#ffffff" stroke="transparent" points="8,-54 8,-72 94,-72 94,-54 8,-54"/>
<polygon fill="none" stroke="black" points="8,-54 8,-72 94,-72 94,-54 8,-54"/>
<text text-anchor="start" x="11" y="-60.2" font-family="Helvetica,sans-Serif" font-size="11.00"> &#160;</text>
<polygon fill="#ffffff" stroke="transparent" points="94,-54 94,-72 143,-72 143,-54 94,-54"/>
<polygon fill="none" stroke="black" points="94,-54 94,-72 143,-72 143,-54 94,-54"/>
<text text-anchor="start" x="133" y="-60.2" font-family="Helvetica,sans-Serif" font-size="11.00"> &#160;</text>
<polygon fill="#ffffff" stroke="transparent" points="143,-54 143,-72 202,-72 202,-54 143,-54"/>
<polygon fill="none" stroke="black" points="143,-54 143,-72 202,-72 202,-54 143,-54"/>
<text text-anchor="start" x="183" y="-60.2" font-family="Helvetica,sans-Serif" font-size="11.00">2 &gt;</text>
</a>
</g>
</g>
<!-- syst_enum_items&#45;&gt;syst_enums -->
<g id="edge3" class="edge">
<title>syst_enum_items:w&#45;&gt;syst_enums:e</title>
<path fill="none" stroke="black" d="M513.55,-190.06C505.72,-191.3 499.87,-193.26 488,-194 379.32,-200.77 341.37,-240.68 243,-194 217.6,-181.95 231.11,-145 203,-145"/>
<polygon fill="black" stroke="black" points="520.02,-189.59 528.26,-192.59 524.01,-189.29 528,-189 528,-189 528,-189 524.01,-189.29 527.74,-185.41 520.02,-189.59 520.02,-189.59"/>
<ellipse fill="none" stroke="black" cx="516.83" cy="-189.82" rx="3.2" ry="3.2"/>
</g>
<!-- syst_enum_functional_types&#45;&gt;syst_enums -->
<g id="edge2" class="edge">
<title>syst_enum_functional_types:w&#45;&gt;syst_enums:e</title>
<path fill="none" stroke="black" d="M236.72,-89.2C221.97,-103.95 231.19,-145 203,-145"/>
<polygon fill="black" stroke="black" points="243.02,-86.82 251.77,-87.37 246.76,-85.41 250.5,-84 250.5,-84 250.5,-84 246.76,-85.41 249.23,-80.63 243.02,-86.82 243.02,-86.82"/>
<ellipse fill="none" stroke="black" cx="240.02" cy="-87.95" rx="3.2" ry="3.2"/>
</g>
<!-- syst_application_contexts&#45;&gt;syst_applications -->
<g id="edge1" class="edge">
<title>syst_application_contexts:w&#45;&gt;syst_applications:e</title>
<path fill="none" stroke="black" d="M1021.43,-453C1001.84,-453 992.16,-453 967,-453"/>
<polygon fill="black" stroke="black" points="1028,-453 1036,-456.6 1032,-453 1036,-453 1036,-453 1036,-453 1032,-453 1036,-449.4 1028,-453 1028,-453"/>
<ellipse fill="none" stroke="black" cx="1024.8" cy="-453" rx="3.2" ry="3.2"/>
</g>
<!-- syst_instances -->
<g id="node7" class="node">
<title>syst_instances</title>
<g id="a_node7"><a xlink:href="../../tables/syst_instances.html" xlink:title="syst_instances" target="_top">
<polygon fill="#ffffff" stroke="transparent" points="1046,-133 1046,-367 1240,-367 1240,-133 1046,-133"/>
<polygon fill="#f5f5f5" stroke="transparent" points="1046,-345 1046,-367 1240,-367 1240,-345 1046,-345"/>
<polygon fill="none" stroke="black" points="1046,-345 1046,-367 1240,-367 1240,-345 1046,-345"/>
<text text-anchor="start" x="1051" y="-354.2" font-family="Helvetica,sans-Serif" font-weight="bold" font-size="11.00">syst_instances</text>
<text text-anchor="start" x="1205" y="-353.2" font-family="Helvetica,sans-Serif" font-size="11.00">[table]</text>
<polygon fill="none" stroke="black" points="1046,-323 1046,-345 1240,-345 1240,-323 1046,-323"/>
<image xlink:href="../../images/primaryKeys.png" width="11px" height="12px" preserveAspectRatio="xMinYMin meet" x="1051" y="-340"/>
<text text-anchor="start" x="1066" y="-331.2" font-family="Helvetica,sans-Serif" font-size="11.00">id</text>
<polygon fill="#ffffff" stroke="transparent" points="1046,-301 1046,-323 1240,-323 1240,-301 1046,-301"/>
<polygon fill="none" stroke="black" points="1046,-301 1046,-323 1240,-323 1240,-301 1046,-301"/>
<text text-anchor="start" x="1066" y="-309.2" font-family="Helvetica,sans-Serif" font-size="11.00">internal_name</text>
<polygon fill="#ffffff" stroke="transparent" points="1046,-279 1046,-301 1240,-301 1240,-279 1046,-279"/>
<polygon fill="none" stroke="black" points="1046,-279 1046,-301 1240,-301 1240,-279 1046,-279"/>
<text text-anchor="start" x="1066" y="-287.2" font-family="Helvetica,sans-Serif" font-size="11.00">display_name</text>
<polygon fill="none" stroke="black" points="1046,-257 1046,-279 1240,-279 1240,-257 1046,-257"/>
<image xlink:href="../../images/foreignKeys.png" width="11px" height="12px" preserveAspectRatio="xMinYMin meet" x="1051" y="-274"/>
<text text-anchor="start" x="1066" y="-265.2" font-family="Helvetica,sans-Serif" font-size="11.00">application_id</text>
<polygon fill="none" stroke="black" points="1046,-235 1046,-257 1240,-257 1240,-235 1046,-235"/>
<image xlink:href="../../images/foreignKeys.png" width="11px" height="12px" preserveAspectRatio="xMinYMin meet" x="1051" y="-252"/>
<text text-anchor="start" x="1066" y="-243.2" font-family="Helvetica,sans-Serif" font-size="11.00">instance_type_id</text>
<polygon fill="none" stroke="black" points="1046,-213 1046,-235 1240,-235 1240,-213 1046,-213"/>
<image xlink:href="../../images/foreignKeys.png" width="11px" height="12px" preserveAspectRatio="xMinYMin meet" x="1051" y="-230"/>
<text text-anchor="start" x="1066" y="-221.2" font-family="Helvetica,sans-Serif" font-size="11.00">instance_state_id</text>
<polygon fill="none" stroke="black" points="1046,-191 1046,-213 1240,-213 1240,-191 1046,-191"/>
<image xlink:href="../../images/foreignKeys.png" width="11px" height="12px" preserveAspectRatio="xMinYMin meet" x="1051" y="-208"/>
<text text-anchor="start" x="1066" y="-199.2" font-family="Helvetica,sans-Serif" font-size="11.00">owner_id</text>
<polygon fill="none" stroke="black" points="1046,-169 1046,-191 1240,-191 1240,-169 1046,-169"/>
<image xlink:href="../../images/foreignKeys.png" width="11px" height="12px" preserveAspectRatio="xMinYMin meet" x="1051" y="-186"/>
<text text-anchor="start" x="1066" y="-177.2" font-family="Helvetica,sans-Serif" font-size="11.00">owning_instance_id</text>
<polygon fill="none" stroke="black" points="1046,-151 1046,-169 1240,-169 1240,-151 1046,-151"/>
<text text-anchor="start" x="1049" y="-157.2" font-family="Helvetica,sans-Serif" font-size="11.00">...</text>
<polygon fill="#ffffff" stroke="transparent" points="1046,-133 1046,-151 1136,-151 1136,-133 1046,-133"/>
<polygon fill="none" stroke="black" points="1046,-133 1046,-151 1136,-151 1136,-133 1046,-133"/>
<text text-anchor="start" x="1049" y="-139.2" font-family="Helvetica,sans-Serif" font-size="11.00">&lt; 5</text>
<polygon fill="#ffffff" stroke="transparent" points="1136,-133 1136,-151 1183,-151 1183,-133 1136,-133"/>
<polygon fill="none" stroke="black" points="1136,-133 1136,-151 1183,-151 1183,-133 1136,-133"/>
<text text-anchor="start" x="1173" y="-139.2" font-family="Helvetica,sans-Serif" font-size="11.00"> &#160;</text>
<polygon fill="#ffffff" stroke="transparent" points="1183,-133 1183,-151 1240,-151 1240,-133 1183,-133"/>
<polygon fill="none" stroke="black" points="1183,-133 1183,-151 1240,-151 1240,-133 1183,-133"/>
<text text-anchor="start" x="1221" y="-139.2" font-family="Helvetica,sans-Serif" font-size="11.00">2 &gt;</text>
</a>
</g>
</g>
<!-- syst_instances&#45;&gt;syst_applications -->
<g id="edge11" class="edge">
<title>syst_instances:w&#45;&gt;syst_applications:e</title>
<path fill="none" stroke="black" d="M1031.83,-274.58C1002.21,-307.54 1006.56,-453 967,-453"/>
<polygon fill="black" stroke="black" points="1037.84,-271.58 1046.61,-271.22 1041.42,-269.79 1045,-268 1045,-268 1045,-268 1041.42,-269.79 1043.39,-264.78 1037.84,-271.58 1037.84,-271.58"/>
<ellipse fill="none" stroke="black" cx="1034.98" cy="-273.01" rx="3.2" ry="3.2"/>
</g>
<!-- syst_instances&#45;&gt;syst_owners -->
<g id="edge14" class="edge">
<title>syst_instances:w&#45;&gt;syst_owners:e</title>
<path fill="none" stroke="black" d="M1030.56,-200.94C1006.71,-197.21 997.08,-185 967,-185"/>
<polygon fill="black" stroke="black" points="1037.02,-201.41 1044.74,-205.59 1041.01,-201.71 1045,-202 1045,-202 1045,-202 1041.01,-201.71 1045.26,-198.41 1037.02,-201.41 1037.02,-201.41"/>
<ellipse fill="none" stroke="black" cx="1033.83" cy="-201.18" rx="3.2" ry="3.2"/>
</g>
<!-- syst_instances&#45;&gt;syst_enum_items -->
<g id="edge12" class="edge">
<title>syst_instances:w&#45;&gt;syst_enum_items:e</title>
<path fill="none" stroke="black" d="M1030.48,-224.71C966.09,-229.32 756.61,-255 724,-255"/>
<polygon fill="black" stroke="black" points="1037.01,-224.39 1045.17,-227.6 1041,-224.19 1045,-224 1045,-224 1045,-224 1041,-224.19 1044.83,-220.4 1037.01,-224.39 1037.01,-224.39"/>
<ellipse fill="none" stroke="black" cx="1033.81" cy="-224.54" rx="3.2" ry="3.2"/>
</g>
<!-- syst_instances&#45;&gt;syst_enum_items -->
<g id="edge13" class="edge">
<title>syst_instances:w&#45;&gt;syst_enum_items:e</title>
<path fill="none" stroke="black" d="M1030.56,-246.29C1009.99,-247.18 1000.17,-249.87 974,-251 862.98,-255.79 835.13,-255 724,-255"/>
<polygon fill="black" stroke="black" points="1037,-246.16 1045.07,-249.6 1041,-246.08 1045,-246 1045,-246 1045,-246 1041,-246.08 1044.93,-242.4 1037,-246.16 1037,-246.16"/>
<ellipse fill="none" stroke="black" cx="1033.8" cy="-246.23" rx="3.2" ry="3.2"/>
</g>
<!-- syst_instances&#45;&gt;syst_instances -->
<g id="edge15" class="edge">
<title>syst_instances:w&#45;&gt;syst_instances:e</title>
<path fill="none" stroke="black" d="M1034.68,-188.98C978.07,-242.79 987.2,-384 1143,-384 1308.5,-384 1308.5,-375.33 1240,-334"/>
<polygon fill="black" stroke="black" points="1039.73,-184.97 1048.24,-182.82 1042.87,-182.49 1046,-180 1046,-180 1046,-180 1042.87,-182.49 1043.76,-177.18 1039.73,-184.97 1039.73,-184.97"/>
<ellipse fill="none" stroke="black" cx="1037.23" cy="-186.96" rx="3.2" ry="3.2"/>
</g>
<!-- syst_instance_contexts -->
<g id="node8" class="node">
<title>syst_instance_contexts</title>
<g id="a_node8"><a xlink:href="../../tables/syst_instance_contexts.html" xlink:title="syst_instance_contexts" target="_top">
<polygon fill="#ffffff" stroke="transparent" points="1338,-346 1338,-492 1533,-492 1533,-346 1338,-346"/>
<polygon fill="#f5f5f5" stroke="transparent" points="1338.5,-470 1338.5,-492 1533.5,-492 1533.5,-470 1338.5,-470"/>
<polygon fill="none" stroke="black" points="1338.5,-470 1338.5,-492 1533.5,-492 1533.5,-470 1338.5,-470"/>
<text text-anchor="start" x="1343.5" y="-479.2" font-family="Helvetica,sans-Serif" font-weight="bold" font-size="11.00">syst_instance_contexts</text>
<text text-anchor="start" x="1498.5" y="-478.2" font-family="Helvetica,sans-Serif" font-size="11.00">[table]</text>
<polygon fill="none" stroke="black" points="1338.5,-448 1338.5,-470 1533.5,-470 1533.5,-448 1338.5,-448"/>
<image xlink:href="../../images/primaryKeys.png" width="11px" height="12px" preserveAspectRatio="xMinYMin meet" x="1343.5" y="-465"/>
<text text-anchor="start" x="1359.5" y="-456.2" font-family="Helvetica,sans-Serif" font-size="11.00">id</text>
<polygon fill="#ffffff" stroke="transparent" points="1338.5,-426 1338.5,-448 1533.5,-448 1533.5,-426 1338.5,-426"/>
<polygon fill="none" stroke="black" points="1338.5,-426 1338.5,-448 1533.5,-448 1533.5,-426 1338.5,-426"/>
<text text-anchor="start" x="1359.5" y="-434.2" font-family="Helvetica,sans-Serif" font-size="11.00">internal_name</text>
<polygon fill="none" stroke="black" points="1338.5,-404 1338.5,-426 1533.5,-426 1533.5,-404 1338.5,-404"/>
<image xlink:href="../../images/foreignKeys.png" width="11px" height="12px" preserveAspectRatio="xMinYMin meet" x="1343.5" y="-421"/>
<text text-anchor="start" x="1359.5" y="-412.2" font-family="Helvetica,sans-Serif" font-size="11.00">instance_id</text>
<polygon fill="none" stroke="black" points="1338.5,-382 1338.5,-404 1533.5,-404 1533.5,-382 1338.5,-382"/>
<image xlink:href="../../images/foreignKeys.png" width="11px" height="12px" preserveAspectRatio="xMinYMin meet" x="1343.5" y="-399"/>
<text text-anchor="start" x="1359.5" y="-390.2" font-family="Helvetica,sans-Serif" font-size="11.00">application_context_id</text>
<polygon fill="none" stroke="black" points="1338.5,-364 1338.5,-382 1533.5,-382 1533.5,-364 1338.5,-364"/>
<text text-anchor="start" x="1341.5" y="-370.2" font-family="Helvetica,sans-Serif" font-size="11.00">...</text>
<polygon fill="#ffffff" stroke="transparent" points="1338.5,-346 1338.5,-364 1433.5,-364 1433.5,-346 1338.5,-346"/>
<polygon fill="none" stroke="black" points="1338.5,-346 1338.5,-364 1433.5,-364 1433.5,-346 1338.5,-346"/>
<text text-anchor="start" x="1341.5" y="-352.2" font-family="Helvetica,sans-Serif" font-size="11.00">&lt; 2</text>
<polygon fill="#ffffff" stroke="transparent" points="1433.5,-346 1433.5,-364 1483.5,-364 1483.5,-346 1433.5,-346"/>
<polygon fill="none" stroke="black" points="1433.5,-346 1433.5,-364 1483.5,-364 1483.5,-346 1433.5,-346"/>
<text text-anchor="start" x="1473.5" y="-352.2" font-family="Helvetica,sans-Serif" font-size="11.00"> &#160;</text>
<polygon fill="#ffffff" stroke="transparent" points="1483.5,-346 1483.5,-364 1533.5,-364 1533.5,-346 1483.5,-346"/>
<polygon fill="none" stroke="black" points="1483.5,-346 1483.5,-364 1533.5,-364 1533.5,-346 1483.5,-346"/>
<text text-anchor="start" x="1523.5" y="-352.2" font-family="Helvetica,sans-Serif" font-size="11.00"> &#160;</text>
</a>
</g>
</g>
<!-- syst_instance_contexts&#45;&gt;syst_application_contexts -->
<g id="edge5" class="edge">
<title>syst_instance_contexts:w&#45;&gt;syst_application_contexts:e</title>
<path fill="none" stroke="black" d="M1323.02,-395.4C1276.88,-412.82 1313.35,-519 1251,-519"/>
<polygon fill="black" stroke="black" points="1329.61,-394.31 1338.09,-396.55 1333.55,-393.66 1337.5,-393 1337.5,-393 1337.5,-393 1333.55,-393.66 1336.91,-389.45 1329.61,-394.31 1329.61,-394.31"/>
<ellipse fill="none" stroke="black" cx="1326.45" cy="-394.84" rx="3.2" ry="3.2"/>
</g>
<!-- syst_instance_contexts&#45;&gt;syst_instances -->
<g id="edge6" class="edge">
<title>syst_instance_contexts:w&#45;&gt;syst_instances:e</title>
<path fill="none" stroke="black" d="M1323.01,-412.83C1283.85,-399.95 1291.53,-334 1241,-334"/>
<polygon fill="black" stroke="black" points="1329.59,-413.82 1336.97,-418.56 1333.54,-414.41 1337.5,-415 1337.5,-415 1337.5,-415 1333.54,-414.41 1338.03,-411.44 1329.59,-413.82 1329.59,-413.82"/>
<ellipse fill="none" stroke="black" cx="1326.42" cy="-413.34" rx="3.2" ry="3.2"/>
</g>
<!-- syst_instance_type_applications&#45;&gt;syst_applications -->
<g id="edge7" class="edge">
<title>syst_instance_type_applications:w&#45;&gt;syst_applications:e</title>
<path fill="none" stroke="black" d="M999.73,-617.38C951.79,-596.13 1038.38,-453 967,-453"/>
<polygon fill="black" stroke="black" points="1006.13,-618.55 1013.35,-623.54 1010.07,-619.28 1014,-620 1014,-620 1014,-620 1010.07,-619.28 1014.65,-616.46 1006.13,-618.55 1006.13,-618.55"/>
<ellipse fill="none" stroke="black" cx="1002.98" cy="-617.98" rx="3.2" ry="3.2"/>
</g>
<!-- syst_instance_type_applications&#45;&gt;syst_enum_items -->
<g id="edge8" class="edge">
<title>syst_instance_type_applications:w&#45;&gt;syst_enum_items:e</title>
<path fill="none" stroke="black" d="M999.31,-641.82C881.72,-638.83 834.15,-598.56 764,-497 733.02,-452.15 778.51,-255 724,-255"/>
<polygon fill="black" stroke="black" points="1006,-641.9 1013.96,-645.6 1010,-641.95 1014,-642 1014,-642 1014,-642 1010,-641.95 1014.04,-638.4 1006,-641.9 1006,-641.9"/>
<ellipse fill="none" stroke="black" cx="1002.8" cy="-641.86" rx="3.2" ry="3.2"/>
</g>
</g>
</svg>
