<?xml version="1.0" encoding="UTF-8" standalone="no"?>
<!DOCTYPE svg PUBLIC "-//W3C//DTD SVG 1.1//EN"
 "http://www.w3.org/Graphics/SVG/1.1/DTD/svg11.dtd">
<!-- Generated by graphviz version 2.43.0 (0)
 -->
<!-- Title: compactRelationshipsDiagram Pages: 1 -->
<svg width="1588pt" height="709pt"
 viewBox="0.00 0.00 1588.00 709.00" xmlns="http://www.w3.org/2000/svg" xmlns:xlink="http://www.w3.org/1999/xlink">
<g id="graph0" class="graph" transform="scale(1 1) rotate(0) translate(4 705)">
<title>compactRelationshipsDiagram</title>
<polygon fill="#ffffff" stroke="transparent" points="-4,4 -4,-705 1584,-705 1584,4 -4,4"/>
<text text-anchor="middle" x="79.5" y="-7.2" font-family="Helvetica,sans-Serif" font-size="11.00">Generated by SchemaSpy</text>
<!-- syst_applications -->
<g id="node1" class="node">
<title>syst_applications</title>
<g id="a_node1"><a xlink:href="../../tables/syst_applications.html" xlink:title="syst_applications" target="_top">
<polygon fill="#ffffff" stroke="transparent" points="779,-362 779,-486 973,-486 973,-362 779,-362"/>
<polygon fill="#f5f5f5" stroke="transparent" points="779,-464 779,-486 973,-486 973,-464 779,-464"/>
<polygon fill="none" stroke="black" points="779,-464 779,-486 973,-486 973,-464 779,-464"/>
<text text-anchor="start" x="784" y="-473.2" font-family="Helvetica,sans-Serif" font-weight="bold" font-size="11.00">syst_applications</text>
<text text-anchor="start" x="931" y="-472.2" font-family="Helvetica,sans-Serif" font-size="11.00">[table]</text>
<polygon fill="none" stroke="black" points="779,-442 779,-464 973,-464 973,-442 779,-442"/>
<image xlink:href="../../images/primaryKeys.png" width="11px" height="12px" preserveAspectRatio="xMinYMin meet" x="784" y="-459"/>
<text text-anchor="start" x="799" y="-450.2" font-family="Helvetica,sans-Serif" font-size="11.00">id</text>
<polygon fill="#ffffff" stroke="transparent" points="779,-420 779,-442 973,-442 973,-420 779,-420"/>
<polygon fill="none" stroke="black" points="779,-420 779,-442 973,-442 973,-420 779,-420"/>
<text text-anchor="start" x="799" y="-428.2" font-family="Helvetica,sans-Serif" font-size="11.00">internal_name</text>
<polygon fill="#ffffff" stroke="transparent" points="779,-398 779,-420 973,-420 973,-398 779,-398"/>
<polygon fill="none" stroke="black" points="779,-398 779,-420 973,-420 973,-398 779,-398"/>
<text text-anchor="start" x="799" y="-406.2" font-family="Helvetica,sans-Serif" font-size="11.00">display_name</text>
<polygon fill="none" stroke="black" points="779,-380 779,-398 973,-398 973,-380 779,-380"/>
<text text-anchor="start" x="782" y="-386.2" font-family="Helvetica,sans-Serif" font-size="11.00">...</text>
<polygon fill="#ffffff" stroke="transparent" points="779,-362 779,-380 863,-380 863,-362 779,-362"/>
<polygon fill="none" stroke="black" points="779,-362 779,-380 863,-380 863,-362 779,-362"/>
<text text-anchor="start" x="782" y="-368.2" font-family="Helvetica,sans-Serif" font-size="11.00"> &#160;</text>
<polygon fill="#ffffff" stroke="transparent" points="863,-362 863,-380 912,-380 912,-362 863,-362"/>
<polygon fill="none" stroke="black" points="863,-362 863,-380 912,-380 912,-362 863,-362"/>
<text text-anchor="start" x="901" y="-368.2" font-family="Helvetica,sans-Serif" font-size="11.00"> &#160;</text>
<polygon fill="#ffffff" stroke="transparent" points="912,-362 912,-380 973,-380 973,-362 912,-362"/>
<polygon fill="none" stroke="black" points="912,-362 912,-380 973,-380 973,-362 912,-362"/>
<text text-anchor="start" x="950" y="-368.2" font-family="Helvetica,sans-Serif" font-size="11.00">3 &gt;</text>
</a>
</g>
</g>
<!-- syst_owners -->
<g id="node2" class="node">
<title>syst_owners</title>
<g id="a_node2"><a xlink:href="../../tables/syst_owners.html" xlink:title="syst_owners" target="_top">
<polygon fill="#ffffff" stroke="transparent" points="779,-72 779,-218 973,-218 973,-72 779,-72"/>
<polygon fill="#f5f5f5" stroke="transparent" points="779,-196 779,-218 973,-218 973,-196 779,-196"/>
<polygon fill="none" stroke="black" points="779,-196 779,-218 973,-218 973,-196 779,-196"/>
<text text-anchor="start" x="784" y="-205.2" font-family="Helvetica,sans-Serif" font-weight="bold" font-size="11.00">syst_owners</text>
<text text-anchor="start" x="931" y="-204.2" font-family="Helvetica,sans-Serif" font-size="11.00">[table]</text>
<polygon fill="none" stroke="black" points="779,-174 779,-196 973,-196 973,-174 779,-174"/>
<image xlink:href="../../images/primaryKeys.png" width="11px" height="12px" preserveAspectRatio="xMinYMin meet" x="784" y="-191"/>
<text text-anchor="start" x="799" y="-182.2" font-family="Helvetica,sans-Serif" font-size="11.00">id</text>
<polygon fill="#ffffff" stroke="transparent" points="779,-152 779,-174 973,-174 973,-152 779,-152"/>
<polygon fill="none" stroke="black" points="779,-152 779,-174 973,-174 973,-152 779,-152"/>
<text text-anchor="start" x="799" y="-160.2" font-family="Helvetica,sans-Serif" font-size="11.00">internal_name</text>
<polygon fill="#ffffff" stroke="transparent" points="779,-130 779,-152 973,-152 973,-130 779,-130"/>
<polygon fill="none" stroke="black" points="779,-130 779,-152 973,-152 973,-130 779,-130"/>
<text text-anchor="start" x="799" y="-138.2" font-family="Helvetica,sans-Serif" font-size="11.00">display_name</text>
<polygon fill="none" stroke="black" points="779,-108 779,-130 973,-130 973,-108 779,-108"/>
<image xlink:href="../../images/foreignKeys.png" width="11px" height="12px" preserveAspectRatio="xMinYMin meet" x="784" y="-125"/>
<text text-anchor="start" x="799" y="-116.2" font-family="Helvetica,sans-Serif" font-size="11.00">owner_state_id</text>
<polygon fill="none" stroke="black" points="779,-90 779,-108 973,-108 973,-90 779,-90"/>
<text text-anchor="start" x="782" y="-96.2" font-family="Helvetica,sans-Serif" font-size="11.00">...</text>
<polygon fill="#ffffff" stroke="transparent" points="779,-72 779,-90 869,-90 869,-72 779,-72"/>
<polygon fill="none" stroke="black" points="779,-72 779,-90 869,-90 869,-72 779,-72"/>
<text text-anchor="start" x="782" y="-78.2" font-family="Helvetica,sans-Serif" font-size="11.00">&lt; 1</text>
<polygon fill="#ffffff" stroke="transparent" points="869,-72 869,-90 915,-90 915,-72 869,-72"/>
<polygon fill="none" stroke="black" points="869,-72 869,-90 915,-90 915,-72 869,-72"/>
<text text-anchor="start" x="904" y="-78.2" font-family="Helvetica,sans-Serif" font-size="11.00"> &#160;</text>
<polygon fill="#ffffff" stroke="transparent" points="915,-72 915,-90 973,-90 973,-72 915,-72"/>
<polygon fill="none" stroke="black" points="915,-72 915,-90 973,-90 973,-72 915,-72"/>
<text text-anchor="start" x="950" y="-78.2" font-family="Helvetica,sans-Serif" font-size="11.00">1 &gt;</text>
</a>
</g>
</g>
<!-- syst_enum_items -->
<g id="node4" class="node">
<title>syst_enum_items</title>
<g id="a_node4"><a xlink:href="../../tables/syst_enum_items.html" xlink:title="syst_enum_items" target="_top">
<polygon fill="#ffffff" stroke="transparent" points="536,-120 536,-288 730,-288 730,-120 536,-120"/>
<polygon fill="#f5f5f5" stroke="transparent" points="536,-266 536,-288 730,-288 730,-266 536,-266"/>
<polygon fill="none" stroke="black" points="536,-266 536,-288 730,-288 730,-266 536,-266"/>
<text text-anchor="start" x="541" y="-275.2" font-family="Helvetica,sans-Serif" font-weight="bold" font-size="11.00">syst_enum_items</text>
<text text-anchor="start" x="688" y="-274.2" font-family="Helvetica,sans-Serif" font-size="11.00">[table]</text>
<polygon fill="none" stroke="black" points="536,-244 536,-266 730,-266 730,-244 536,-244"/>
<image xlink:href="../../images/primaryKeys.png" width="11px" height="12px" preserveAspectRatio="xMinYMin meet" x="541" y="-261"/>
<text text-anchor="start" x="556" y="-252.2" font-family="Helvetica,sans-Serif" font-size="11.00">id</text>
<polygon fill="#ffffff" stroke="transparent" points="536,-222 536,-244 730,-244 730,-222 536,-222"/>
<polygon fill="none" stroke="black" points="536,-222 536,-244 730,-244 730,-222 536,-222"/>
<text text-anchor="start" x="556" y="-230.2" font-family="Helvetica,sans-Serif" font-size="11.00">internal_name</text>
<polygon fill="#ffffff" stroke="transparent" points="536,-200 536,-222 730,-222 730,-200 536,-200"/>
<polygon fill="none" stroke="black" points="536,-200 536,-222 730,-222 730,-200 536,-200"/>
<text text-anchor="start" x="556" y="-208.2" font-family="Helvetica,sans-Serif" font-size="11.00">display_name</text>
<polygon fill="none" stroke="black" points="536,-178 536,-200 730,-200 730,-178 536,-178"/>
<image xlink:href="../../images/foreignKeys.png" width="11px" height="12px" preserveAspectRatio="xMinYMin meet" x="541" y="-195"/>
<text text-anchor="start" x="556" y="-186.2" font-family="Helvetica,sans-Serif" font-size="11.00">enum_id</text>
<polygon fill="none" stroke="black" points="536,-156 536,-178 730,-178 730,-156 536,-156"/>
<image xlink:href="../../images/foreignKeys.png" width="11px" height="12px" preserveAspectRatio="xMinYMin meet" x="541" y="-173"/>
<text text-anchor="start" x="556" y="-164.2" font-family="Helvetica,sans-Serif" font-size="11.00">functional_type_id</text>
<polygon fill="none" stroke="black" points="536,-138 536,-156 730,-156 730,-138 536,-138"/>
<text text-anchor="start" x="539" y="-144.2" font-family="Helvetica,sans-Serif" font-size="11.00">...</text>
<polygon fill="#ffffff" stroke="transparent" points="536,-120 536,-138 626,-138 626,-120 536,-120"/>
<polygon fill="none" stroke="black" points="536,-120 536,-138 626,-138 626,-120 536,-120"/>
<text text-anchor="start" x="539" y="-126.2" font-family="Helvetica,sans-Serif" font-size="11.00">&lt; 2</text>
<polygon fill="#ffffff" stroke="transparent" points="626,-120 626,-138 672,-138 672,-120 626,-120"/>
<polygon fill="none" stroke="black" points="626,-120 626,-138 672,-138 672,-120 626,-120"/>
<text text-anchor="start" x="661" y="-126.2" font-family="Helvetica,sans-Serif" font-size="11.00"> &#160;</text>
<polygon fill="#ffffff" stroke="transparent" points="672,-120 672,-138 730,-138 730,-120 672,-120"/>
<polygon fill="none" stroke="black" points="672,-120 672,-138 730,-138 730,-120 672,-120"/>
<text text-anchor="start" x="707" y="-126.2" font-family="Helvetica,sans-Serif" font-size="11.00">4 &gt;</text>
</a>
</g>
</g>
<!-- syst_owners&#45;&gt;syst_enum_items -->
<g id="edge16" class="edge">
<title>syst_owners:w&#45;&gt;syst_enum_items:e</title>
<path fill="none" stroke="black" d="M763.59,-122.36C727.94,-143.3 788.96,-255 731,-255"/>
<polygon fill="black" stroke="black" points="770.21,-120.82 778.82,-122.51 774.1,-119.91 778,-119 778,-119 778,-119 774.1,-119.91 777.18,-115.49 770.21,-120.82 770.21,-120.82"/>
<ellipse fill="none" stroke="black" cx="767.09" cy="-121.55" rx="3.2" ry="3.2"/>
</g>
<!-- syst_instance_type_contexts -->
<g id="node3" class="node">
<title>syst_instance_type_contexts</title>
<g id="a_node3"><a xlink:href="../../tables/syst_instance_type_contexts.html" xlink:title="syst_instance_type_contexts" target="_top">
<polygon fill="#ffffff" stroke="transparent" points="1334,-533 1334,-657 1572,-657 1572,-533 1334,-533"/>
<polygon fill="#f5f5f5" stroke="transparent" points="1334,-635 1334,-657 1572,-657 1572,-635 1334,-635"/>
<polygon fill="none" stroke="black" points="1334,-635 1334,-657 1572,-657 1572,-635 1334,-635"/>
<text text-anchor="start" x="1339" y="-644.2" font-family="Helvetica,sans-Serif" font-weight="bold" font-size="11.00">syst_instance_type_contexts</text>
<text text-anchor="start" x="1530" y="-643.2" font-family="Helvetica,sans-Serif" font-size="11.00">[table]</text>
<polygon fill="none" stroke="black" points="1334,-613 1334,-635 1572,-635 1572,-613 1334,-613"/>
<image xlink:href="../../images/primaryKeys.png" width="11px" height="12px" preserveAspectRatio="xMinYMin meet" x="1339" y="-630"/>
<text text-anchor="start" x="1366" y="-621.2" font-family="Helvetica,sans-Serif" font-size="11.00">id</text>
<polygon fill="#ffffff" stroke="transparent" points="1334,-591 1334,-613 1572,-613 1572,-591 1334,-591"/>
<polygon fill="none" stroke="black" points="1334,-591 1334,-613 1572,-613 1572,-591 1334,-591"/>
<image xlink:href="../../images/foreignKeys.png" width="11px" height="12px" preserveAspectRatio="xMinYMin meet" x="1339" y="-608"/>
<text text-anchor="start" x="1366" y="-599.2" font-family="Helvetica,sans-Serif" font-size="11.00">instance_type_application_id</text>
<polygon fill="#ffffff" stroke="transparent" points="1334,-569 1334,-591 1572,-591 1572,-569 1334,-569"/>
<polygon fill="none" stroke="black" points="1334,-569 1334,-591 1572,-591 1572,-569 1334,-569"/>
<image xlink:href="../../images/foreignKeys.png" width="11px" height="12px" preserveAspectRatio="xMinYMin meet" x="1339" y="-586"/>
<text text-anchor="start" x="1366" y="-577.2" font-family="Helvetica,sans-Serif" font-size="11.00">application_context_id</text>
<polygon fill="none" stroke="black" points="1334,-551 1334,-569 1572,-569 1572,-551 1334,-551"/>
<text text-anchor="start" x="1337" y="-557.2" font-family="Helvetica,sans-Serif" font-size="11.00">...</text>
<polygon fill="#ffffff" stroke="transparent" points="1334,-533 1334,-551 1452,-551 1452,-533 1334,-533"/>
<polygon fill="none" stroke="black" points="1334,-533 1334,-551 1452,-551 1452,-533 1334,-533"/>
<text text-anchor="start" x="1337" y="-539.2" font-family="Helvetica,sans-Serif" font-size="11.00">&lt; 2</text>
<polygon fill="#ffffff" stroke="transparent" points="1452,-533 1452,-551 1512,-551 1512,-533 1452,-533"/>
<polygon fill="none" stroke="black" points="1452,-533 1452,-551 1512,-551 1512,-533 1452,-533"/>
<text text-anchor="start" x="1501" y="-539.2" font-family="Helvetica,sans-Serif" font-size="11.00"> &#160;</text>
<polygon fill="#ffffff" stroke="transparent" points="1512,-533 1512,-551 1572,-551 1572,-533 1512,-533"/>
<polygon fill="none" stroke="black" points="1512,-533 1512,-551 1572,-551 1572,-533 1512,-533"/>
<text text-anchor="start" x="1561" y="-539.2" font-family="Helvetica,sans-Serif" font-size="11.00"> &#160;</text>
</a>
</g>
</g>
<!-- syst_application_contexts -->
<g id="node6" class="node">
<title>syst_application_contexts</title>
<g id="a_node6"><a xlink:href="../../tables/syst_application_contexts.html" xlink:title="syst_application_contexts" target="_top">
<polygon fill="#ffffff" stroke="transparent" points="1043.5,-406 1043.5,-552 1263.5,-552 1263.5,-406 1043.5,-406"/>
<polygon fill="#f5f5f5" stroke="transparent" points="1043.5,-530 1043.5,-552 1263.5,-552 1263.5,-530 1043.5,-530"/>
<polygon fill="none" stroke="black" points="1043.5,-530 1043.5,-552 1263.5,-552 1263.5,-530 1043.5,-530"/>
<text text-anchor="start" x="1048.5" y="-539.2" font-family="Helvetica,sans-Serif" font-weight="bold" font-size="11.00">syst_application_contexts</text>
<text text-anchor="start" x="1221.5" y="-538.2" font-family="Helvetica,sans-Serif" font-size="11.00">[table]</text>
<polygon fill="none" stroke="black" points="1043.5,-508 1043.5,-530 1263.5,-530 1263.5,-508 1043.5,-508"/>
<image xlink:href="../../images/primaryKeys.png" width="11px" height="12px" preserveAspectRatio="xMinYMin meet" x="1048.5" y="-525"/>
<text text-anchor="start" x="1076.5" y="-516.2" font-family="Helvetica,sans-Serif" font-size="11.00">id</text>
<polygon fill="#ffffff" stroke="transparent" points="1043.5,-486 1043.5,-508 1263.5,-508 1263.5,-486 1043.5,-486"/>
<polygon fill="none" stroke="black" points="1043.5,-486 1043.5,-508 1263.5,-508 1263.5,-486 1043.5,-486"/>
<text text-anchor="start" x="1076.5" y="-494.2" font-family="Helvetica,sans-Serif" font-size="11.00">internal_name</text>
<polygon fill="#ffffff" stroke="transparent" points="1043.5,-464 1043.5,-486 1263.5,-486 1263.5,-464 1043.5,-464"/>
<polygon fill="none" stroke="black" points="1043.5,-464 1043.5,-486 1263.5,-486 1263.5,-464 1043.5,-464"/>
<text text-anchor="start" x="1076.5" y="-472.2" font-family="Helvetica,sans-Serif" font-size="11.00">display_name</text>
<polygon fill="none" stroke="black" points="1043.5,-442 1043.5,-464 1263.5,-464 1263.5,-442 1043.5,-442"/>
<image xlink:href="../../images/foreignKeys.png" width="11px" height="12px" preserveAspectRatio="xMinYMin meet" x="1048.5" y="-459"/>
<text text-anchor="start" x="1076.5" y="-450.2" font-family="Helvetica,sans-Serif" font-size="11.00">application_id</text>
<polygon fill="none" stroke="black" points="1043.5,-424 1043.5,-442 1263.5,-442 1263.5,-424 1043.5,-424"/>
<text text-anchor="start" x="1046.5" y="-430.2" font-family="Helvetica,sans-Serif" font-size="11.00">...</text>
<polygon fill="#ffffff" stroke="transparent" points="1043.5,-406 1043.5,-424 1146.5,-424 1146.5,-406 1043.5,-406"/>
<polygon fill="none" stroke="black" points="1043.5,-406 1043.5,-424 1146.5,-424 1146.5,-406 1043.5,-406"/>
<text text-anchor="start" x="1046.5" y="-412.2" font-family="Helvetica,sans-Serif" font-size="11.00">&lt; 1</text>
<polygon fill="#ffffff" stroke="transparent" points="1146.5,-406 1146.5,-424 1198.5,-424 1198.5,-406 1146.5,-406"/>
<polygon fill="none" stroke="black" points="1146.5,-406 1146.5,-424 1198.5,-424 1198.5,-406 1146.5,-406"/>
<text text-anchor="start" x="1187.5" y="-412.2" font-family="Helvetica,sans-Serif" font-size="11.00"> &#160;</text>
<polygon fill="#ffffff" stroke="transparent" points="1198.5,-406 1198.5,-424 1263.5,-424 1263.5,-406 1198.5,-406"/>
<polygon fill="none" stroke="black" points="1198.5,-406 1198.5,-424 1263.5,-424 1263.5,-406 1198.5,-406"/>
<text text-anchor="start" x="1240.5" y="-412.2" font-family="Helvetica,sans-Serif" font-size="11.00">2 &gt;</text>
</a>
</g>
</g>
<!-- syst_instance_type_contexts&#45;&gt;syst_application_contexts -->
<g id="edge9" class="edge">
<title>syst_instance_type_contexts:w&#45;&gt;syst_application_contexts:e</title>
<path fill="none" stroke="black" d="M1318.69,-576.72C1294.84,-564.05 1299.53,-519 1264.5,-519"/>
<polygon fill="black" stroke="black" points="1325.2,-578.21 1332.2,-583.51 1329.1,-579.11 1333,-580 1333,-580 1333,-580 1329.1,-579.11 1333.8,-576.49 1325.2,-578.21 1325.2,-578.21"/>
<ellipse fill="none" stroke="black" cx="1322.08" cy="-577.5" rx="3.2" ry="3.2"/>
</g>
<!-- syst_instance_type_applications -->
<g id="node9" class="node">
<title>syst_instance_type_applications</title>
<g id="a_node9"><a xlink:href="../../tables/syst_instance_type_applications.html" xlink:title="syst_instance_type_applications" target="_top">
<polygon fill="#ffffff" stroke="transparent" points="1022,-573 1022,-697 1285,-697 1285,-573 1022,-573"/>
<polygon fill="#f5f5f5" stroke="transparent" points="1022.5,-675 1022.5,-697 1285.5,-697 1285.5,-675 1022.5,-675"/>
<polygon fill="none" stroke="black" points="1022.5,-675 1022.5,-697 1285.5,-697 1285.5,-675 1022.5,-675"/>
<text text-anchor="start" x="1027.5" y="-684.2" font-family="Helvetica,sans-Serif" font-weight="bold" font-size="11.00">syst_instance_type_applications</text>
<text text-anchor="start" x="1243.5" y="-683.2" font-family="Helvetica,sans-Serif" font-size="11.00">[table]</text>
<polygon fill="none" stroke="black" points="1022.5,-653 1022.5,-675 1285.5,-675 1285.5,-653 1022.5,-653"/>
<image xlink:href="../../images/primaryKeys.png" width="11px" height="12px" preserveAspectRatio="xMinYMin meet" x="1027.5" y="-670"/>
<text text-anchor="start" x="1055.5" y="-661.2" font-family="Helvetica,sans-Serif" font-size="11.00">id</text>
<polygon fill="#ffffff" stroke="transparent" points="1022.5,-631 1022.5,-653 1285.5,-653 1285.5,-631 1022.5,-631"/>
<polygon fill="none" stroke="black" points="1022.5,-631 1022.5,-653 1285.5,-653 1285.5,-631 1022.5,-631"/>
<image xlink:href="../../images/foreignKeys.png" width="11px" height="12px" preserveAspectRatio="xMinYMin meet" x="1027.5" y="-648"/>
<text text-anchor="start" x="1055.5" y="-639.2" font-family="Helvetica,sans-Serif" font-size="11.00">instance_type_id</text>
<polygon fill="#ffffff" stroke="transparent" points="1022.5,-609 1022.5,-631 1285.5,-631 1285.5,-609 1022.5,-609"/>
<polygon fill="none" stroke="black" points="1022.5,-609 1022.5,-631 1285.5,-631 1285.5,-609 1022.5,-609"/>
<image xlink:href="../../images/foreignKeys.png" width="11px" height="12px" preserveAspectRatio="xMinYMin meet" x="1027.5" y="-626"/>
<text text-anchor="start" x="1055.5" y="-617.2" font-family="Helvetica,sans-Serif" font-size="11.00">application_id</text>
<polygon fill="none" stroke="black" points="1022.5,-591 1022.5,-609 1285.5,-609 1285.5,-591 1022.5,-591"/>
<text text-anchor="start" x="1025.5" y="-597.2" font-family="Helvetica,sans-Serif" font-size="11.00">...</text>
<polygon fill="#ffffff" stroke="transparent" points="1022.5,-573 1022.5,-591 1146.5,-591 1146.5,-573 1022.5,-573"/>
<polygon fill="none" stroke="black" points="1022.5,-573 1022.5,-591 1146.5,-591 1146.5,-573 1022.5,-573"/>
<text text-anchor="start" x="1025.5" y="-579.2" font-family="Helvetica,sans-Serif" font-size="11.00">&lt; 2</text>
<polygon fill="#ffffff" stroke="transparent" points="1146.5,-573 1146.5,-591 1209.5,-591 1209.5,-573 1146.5,-573"/>
<polygon fill="none" stroke="black" points="1146.5,-573 1146.5,-591 1209.5,-591 1209.5,-573 1146.5,-573"/>
<text text-anchor="start" x="1198.5" y="-579.2" font-family="Helvetica,sans-Serif" font-size="11.00"> &#160;</text>
<polygon fill="#ffffff" stroke="transparent" points="1209.5,-573 1209.5,-591 1285.5,-591 1285.5,-573 1209.5,-573"/>
<polygon fill="none" stroke="black" points="1209.5,-573 1209.5,-591 1285.5,-591 1285.5,-573 1209.5,-573"/>
<text text-anchor="start" x="1262.5" y="-579.2" font-family="Helvetica,sans-Serif" font-size="11.00">1 &gt;</text>
</a>
</g>
</g>
<!-- syst_instance_type_contexts&#45;&gt;syst_instance_type_applications -->
<g id="edge10" class="edge">
<title>syst_instance_type_contexts:w&#45;&gt;syst_instance_type_applications:e</title>
<path fill="none" stroke="black" d="M1319.28,-607.29C1304.77,-622.28 1314.76,-664 1286.5,-664"/>
<polygon fill="black" stroke="black" points="1325.53,-604.88 1334.29,-605.36 1329.27,-603.44 1333,-602 1333,-602 1333,-602 1329.27,-603.44 1331.71,-598.64 1325.53,-604.88 1325.53,-604.88"/>
<ellipse fill="none" stroke="black" cx="1322.55" cy="-606.03" rx="3.2" ry="3.2"/>
</g>
<!-- syst_enum_functional_types -->
<g id="node5" class="node">
<title>syst_enum_functional_types</title>
<g id="a_node5"><a xlink:href="../../tables/syst_enum_functional_types.html" xlink:title="syst_enum_functional_types" target="_top">
<polygon fill="#ffffff" stroke="transparent" points="251,-37 251,-183 487,-183 487,-37 251,-37"/>
<polygon fill="#f5f5f5" stroke="transparent" points="251,-161 251,-183 487,-183 487,-161 251,-161"/>
<polygon fill="none" stroke="black" points="251,-161 251,-183 487,-183 487,-161 251,-161"/>
<text text-anchor="start" x="256" y="-170.2" font-family="Helvetica,sans-Serif" font-weight="bold" font-size="11.00">syst_enum_functional_types</text>
<text text-anchor="start" x="445" y="-169.2" font-family="Helvetica,sans-Serif" font-size="11.00">[table]</text>
<polygon fill="none" stroke="black" points="251,-139 251,-161 487,-161 487,-139 251,-139"/>
<image xlink:href="../../images/primaryKeys.png" width="11px" height="12px" preserveAspectRatio="xMinYMin meet" x="256" y="-156"/>
<text text-anchor="start" x="284" y="-147.2" font-family="Helvetica,sans-Serif" font-size="11.00">id</text>
<polygon fill="#ffffff" stroke="transparent" points="251,-117 251,-139 487,-139 487,-117 251,-117"/>
<polygon fill="none" stroke="black" points="251,-117 251,-139 487,-139 487,-117 251,-117"/>
<text text-anchor="start" x="284" y="-125.2" font-family="Helvetica,sans-Serif" font-size="11.00">internal_name</text>
<polygon fill="#ffffff" stroke="transparent" points="251,-95 251,-117 487,-117 487,-95 251,-95"/>
<polygon fill="none" stroke="black" points="251,-95 251,-117 487,-117 487,-95 251,-95"/>
<text text-anchor="start" x="284" y="-103.2" font-family="Helvetica,sans-Serif" font-size="11.00">display_name</text>
<polygon fill="none" stroke="black" points="251,-73 251,-95 487,-95 487,-73 251,-73"/>
<image xlink:href="../../images/foreignKeys.png" width="11px" height="12px" preserveAspectRatio="xMinYMin meet" x="256" y="-90"/>
<text text-anchor="start" x="284" y="-81.2" font-family="Helvetica,sans-Serif" font-size="11.00">enum_id</text>
<polygon fill="none" stroke="black" points="251,-55 251,-73 487,-73 487,-55 251,-55"/>
<text text-anchor="start" x="254" y="-61.2" font-family="Helvetica,sans-Serif" font-size="11.00">...</text>
<polygon fill="#ffffff" stroke="transparent" points="251,-37 251,-55 362,-55 362,-37 251,-37"/>
<polygon fill="none" stroke="black" points="251,-37 251,-55 362,-55 362,-37 251,-37"/>
<text text-anchor="start" x="254" y="-43.2" font-family="Helvetica,sans-Serif" font-size="11.00">&lt; 1</text>
<polygon fill="#ffffff" stroke="transparent" points="362,-37 362,-55 418,-55 418,-37 362,-37"/>
<polygon fill="none" stroke="black" points="362,-37 362,-55 418,-55 418,-37 362,-37"/>
<text text-anchor="start" x="407" y="-43.2" font-family="Helvetica,sans-Serif" font-size="11.00"> &#160;</text>
<polygon fill="#ffffff" stroke="transparent" points="418,-37 418,-55 487,-55 487,-37 418,-37"/>
<polygon fill="none" stroke="black" points="418,-37 418,-55 487,-55 487,-37 418,-37"/>
<text text-anchor="start" x="464" y="-43.2" font-family="Helvetica,sans-Serif" font-size="11.00">1 &gt;</text>
</a>
</g>
</g>
<!-- syst_enum_items&#45;&gt;syst_enum_functional_types -->
<g id="edge4" class="edge">
<title>syst_enum_items:w&#45;&gt;syst_enum_functional_types:e</title>
<path fill="none" stroke="black" d="M520.72,-164.04C510.03,-159.17 504.31,-150 488,-150"/>
<polygon fill="black" stroke="black" points="527.17,-165.38 534.27,-170.53 531.08,-166.19 535,-167 535,-167 535,-167 531.08,-166.19 535.73,-163.47 527.17,-165.38 527.17,-165.38"/>
<ellipse fill="none" stroke="black" cx="524.03" cy="-164.73" rx="3.2" ry="3.2"/>
</g>
<!-- syst_enums -->
<g id="node10" class="node">
<title>syst_enums</title>
<g id="a_node10"><a xlink:href="../../tables/syst_enums.html" xlink:title="syst_enums" target="_top">
<polygon fill="#ffffff" stroke="transparent" points="8,-54 8,-178 202,-178 202,-54 8,-54"/>
<polygon fill="#f5f5f5" stroke="transparent" points="8,-156 8,-178 202,-178 202,-156 8,-156"/>
<polygon fill="none" stroke="black" points="8,-156 8,-178 202,-178 202,-156 8,-156"/>
<text text-anchor="start" x="13" y="-165.2" font-family="Helvetica,sans-Serif" font-weight="bold" font-size="11.00">syst_enums</text>
<text text-anchor="start" x="160" y="-164.2" font-family="Helvetica,sans-Serif" font-size="11.00">[table]</text>
<polygon fill="none" stroke="black" points="8,-134 8,-156 202,-156 202,-134 8,-134"/>
<image xlink:href="../../images/primaryKeys.png" width="11px" height="12px" preserveAspectRatio="xMinYMin meet" x="13" y="-151"/>
<text text-anchor="start" x="28" y="-142.2" font-family="Helvetica,sans-Serif" font-size="11.00">id</text>
<polygon fill="#ffffff" stroke="transparent" points="8,-112 8,-134 202,-134 202,-112 8,-112"/>
<polygon fill="none" stroke="black" points="8,-112 8,-134 202,-134 202,-112 8,-112"/>
<text text-anchor="start" x="28" y="-120.2" font-family="Helvetica,sans-Serif" font-size="11.00">internal_name</text>
<polygon fill="#ffffff" stroke="transparent" points="8,-90 8,-112 202,-112 202,-90 8,-90"/>
<polygon fill="none" stroke="black" points="8,-90 8,-112 202,-112 202,-90 8,-90"/>
<text text-anchor="start" x="28" y="-98.2" font-family="Helvetica,sans-Serif" font-size="11.00">display_name</text>
<polygon fill="none" stroke="black" points="8,-72 8,-90 202,-90 202,-72 8,-72"/>
<text text-anchor="start" x="11" y="-78.2" font-family="Helvetica,sans-Serif" font-size="11.00">...</text>
<polygon fill="#ffffff" stroke="transparent" points="8,-54 8,-72 92,-72 92,-54 8,-54"/>
<polygon fill="none" stroke="black" points="8,-54 8,-72 92,-72 92,-54 8,-54"/>
<text text-anchor="start" x="11" y="-60.2" font-family="Helvetica,sans-Serif" font-size="11.00"> &#160;</text>
<polygon fill="#ffffff" stroke="transparent" points="92,-54 92,-72 141,-72 141,-54 92,-54"/>
<polygon fill="none" stroke="black" points="92,-54 92,-72 141,-72 141,-54 92,-54"/>
<text text-anchor="start" x="130" y="-60.2" font-family="Helvetica,sans-Serif" font-size="11.00"> &#160;</text>
<polygon fill="#ffffff" stroke="transparent" points="141,-54 141,-72 202,-72 202,-54 141,-54"/>
<polygon fill="none" stroke="black" points="141,-54 141,-72 202,-72 202,-54 141,-54"/>
<text text-anchor="start" x="179" y="-60.2" font-family="Helvetica,sans-Serif" font-size="11.00">2 &gt;</text>
</a>
</g>
</g>
<!-- syst_enum_items&#45;&gt;syst_enums -->
<g id="edge3" class="edge">
<title>syst_enum_items:w&#45;&gt;syst_enums:e</title>
<path fill="none" stroke="black" d="M520.55,-190.06C512.72,-191.3 506.87,-193.26 495,-194 383.22,-200.96 344.18,-242.02 243,-194 217.6,-181.95 231.11,-145 203,-145"/>
<polygon fill="black" stroke="black" points="527.02,-189.59 535.26,-192.59 531.01,-189.29 535,-189 535,-189 535,-189 531.01,-189.29 534.74,-185.41 527.02,-189.59 527.02,-189.59"/>
<ellipse fill="none" stroke="black" cx="523.83" cy="-189.82" rx="3.2" ry="3.2"/>
</g>
<!-- syst_enum_functional_types&#45;&gt;syst_enums -->
<g id="edge2" class="edge">
<title>syst_enum_functional_types:w&#45;&gt;syst_enums:e</title>
<path fill="none" stroke="black" d="M236.3,-89.2C221.69,-103.95 231.08,-145 203,-145"/>
<polygon fill="black" stroke="black" points="242.52,-86.84 251.28,-87.37 246.26,-85.42 250,-84 250,-84 250,-84 246.26,-85.42 248.72,-80.63 242.52,-86.84 242.52,-86.84"/>
<ellipse fill="none" stroke="black" cx="239.53" cy="-87.97" rx="3.2" ry="3.2"/>
</g>
<!-- syst_application_contexts&#45;&gt;syst_applications -->
<g id="edge1" class="edge">
<title>syst_application_contexts:w&#45;&gt;syst_applications:e</title>
<path fill="none" stroke="black" d="M1028.04,-453C1008.58,-453 998.97,-453 974,-453"/>
<polygon fill="black" stroke="black" points="1034.5,-453 1042.5,-456.6 1038.5,-453 1042.5,-453 1042.5,-453 1042.5,-453 1038.5,-453 1042.5,-449.4 1034.5,-453 1034.5,-453"/>
<ellipse fill="none" stroke="black" cx="1031.3" cy="-453" rx="3.2" ry="3.2"/>
</g>
<!-- syst_instances -->
<g id="node7" class="node">
<title>syst_instances</title>
<g id="a_node7"><a xlink:href="../../tables/syst_instances.html" xlink:title="syst_instances" target="_top">
<polygon fill="#ffffff" stroke="transparent" points="1054,-133 1054,-367 1253,-367 1253,-133 1054,-133"/>
<polygon fill="#f5f5f5" stroke="transparent" points="1054.5,-345 1054.5,-367 1253.5,-367 1253.5,-345 1054.5,-345"/>
<polygon fill="none" stroke="black" points="1054.5,-345 1054.5,-367 1253.5,-367 1253.5,-345 1054.5,-345"/>
<text text-anchor="start" x="1059.5" y="-354.2" font-family="Helvetica,sans-Serif" font-weight="bold" font-size="11.00">syst_instances</text>
<text text-anchor="start" x="1211.5" y="-353.2" font-family="Helvetica,sans-Serif" font-size="11.00">[table]</text>
<polygon fill="none" stroke="black" points="1054.5,-323 1054.5,-345 1253.5,-345 1253.5,-323 1054.5,-323"/>
<image xlink:href="../../images/primaryKeys.png" width="11px" height="12px" preserveAspectRatio="xMinYMin meet" x="1059.5" y="-340"/>
<text text-anchor="start" x="1074.5" y="-331.2" font-family="Helvetica,sans-Serif" font-size="11.00">id</text>
<polygon fill="#ffffff" stroke="transparent" points="1054.5,-301 1054.5,-323 1253.5,-323 1253.5,-301 1054.5,-301"/>
<polygon fill="none" stroke="black" points="1054.5,-301 1054.5,-323 1253.5,-323 1253.5,-301 1054.5,-301"/>
<text text-anchor="start" x="1074.5" y="-309.2" font-family="Helvetica,sans-Serif" font-size="11.00">internal_name</text>
<polygon fill="#ffffff" stroke="transparent" points="1054.5,-279 1054.5,-301 1253.5,-301 1253.5,-279 1054.5,-279"/>
<polygon fill="none" stroke="black" points="1054.5,-279 1054.5,-301 1253.5,-301 1253.5,-279 1054.5,-279"/>
<text text-anchor="start" x="1074.5" y="-287.2" font-family="Helvetica,sans-Serif" font-size="11.00">display_name</text>
<polygon fill="none" stroke="black" points="1054.5,-257 1054.5,-279 1253.5,-279 1253.5,-257 1054.5,-257"/>
<image xlink:href="../../images/foreignKeys.png" width="11px" height="12px" preserveAspectRatio="xMinYMin meet" x="1059.5" y="-274"/>
<text text-anchor="start" x="1074.5" y="-265.2" font-family="Helvetica,sans-Serif" font-size="11.00">application_id</text>
<polygon fill="none" stroke="black" points="1054.5,-235 1054.5,-257 1253.5,-257 1253.5,-235 1054.5,-235"/>
<image xlink:href="../../images/foreignKeys.png" width="11px" height="12px" preserveAspectRatio="xMinYMin meet" x="1059.5" y="-252"/>
<text text-anchor="start" x="1074.5" y="-243.2" font-family="Helvetica,sans-Serif" font-size="11.00">instance_type_id</text>
<polygon fill="none" stroke="black" points="1054.5,-213 1054.5,-235 1253.5,-235 1253.5,-213 1054.5,-213"/>
<image xlink:href="../../images/foreignKeys.png" width="11px" height="12px" preserveAspectRatio="xMinYMin meet" x="1059.5" y="-230"/>
<text text-anchor="start" x="1074.5" y="-221.2" font-family="Helvetica,sans-Serif" font-size="11.00">instance_lifecycle_state_id</text>
<polygon fill="none" stroke="black" points="1054.5,-191 1054.5,-213 1253.5,-213 1253.5,-191 1054.5,-191"/>
<image xlink:href="../../images/foreignKeys.png" width="11px" height="12px" preserveAspectRatio="xMinYMin meet" x="1059.5" y="-208"/>
<text text-anchor="start" x="1074.5" y="-199.2" font-family="Helvetica,sans-Serif" font-size="11.00">owner_id</text>
<polygon fill="none" stroke="black" points="1054.5,-169 1054.5,-191 1253.5,-191 1253.5,-169 1054.5,-169"/>
<image xlink:href="../../images/foreignKeys.png" width="11px" height="12px" preserveAspectRatio="xMinYMin meet" x="1059.5" y="-186"/>
<text text-anchor="start" x="1074.5" y="-177.2" font-family="Helvetica,sans-Serif" font-size="11.00">owning_instance_id</text>
<polygon fill="none" stroke="black" points="1054.5,-151 1054.5,-169 1253.5,-169 1253.5,-151 1054.5,-151"/>
<text text-anchor="start" x="1057.5" y="-157.2" font-family="Helvetica,sans-Serif" font-size="11.00">...</text>
<polygon fill="#ffffff" stroke="transparent" points="1054.5,-133 1054.5,-151 1146.5,-151 1146.5,-133 1054.5,-133"/>
<polygon fill="none" stroke="black" points="1054.5,-133 1054.5,-151 1146.5,-151 1146.5,-133 1054.5,-133"/>
<text text-anchor="start" x="1057.5" y="-139.2" font-family="Helvetica,sans-Serif" font-size="11.00">&lt; 5</text>
<polygon fill="#ffffff" stroke="transparent" points="1146.5,-133 1146.5,-151 1193.5,-151 1193.5,-133 1146.5,-133"/>
<polygon fill="none" stroke="black" points="1146.5,-133 1146.5,-151 1193.5,-151 1193.5,-133 1146.5,-133"/>
<text text-anchor="start" x="1182.5" y="-139.2" font-family="Helvetica,sans-Serif" font-size="11.00"> &#160;</text>
<polygon fill="#ffffff" stroke="transparent" points="1193.5,-133 1193.5,-151 1253.5,-151 1253.5,-133 1193.5,-133"/>
<polygon fill="none" stroke="black" points="1193.5,-133 1193.5,-151 1253.5,-151 1253.5,-133 1193.5,-133"/>
<text text-anchor="start" x="1230.5" y="-139.2" font-family="Helvetica,sans-Serif" font-size="11.00">2 &gt;</text>
</a>
</g>
</g>
<!-- syst_instances&#45;&gt;syst_applications -->
<g id="edge11" class="edge">
<title>syst_instances:w&#45;&gt;syst_applications:e</title>
<path fill="none" stroke="black" d="M1040.24,-274.58C1010.32,-307.54 1013.68,-453 974,-453"/>
<polygon fill="black" stroke="black" points="1046.33,-271.56 1055.1,-271.22 1049.92,-269.78 1053.5,-268 1053.5,-268 1053.5,-268 1049.92,-269.78 1051.9,-264.78 1046.33,-271.56 1046.33,-271.56"/>
<ellipse fill="none" stroke="black" cx="1043.47" cy="-272.98" rx="3.2" ry="3.2"/>
</g>
<!-- syst_instances&#45;&gt;syst_owners -->
<g id="edge14" class="edge">
<title>syst_instances:w&#45;&gt;syst_owners:e</title>
<path fill="none" stroke="black" d="M1039.13,-200.99C1014.58,-197.33 1004.77,-185 974,-185"/>
<polygon fill="black" stroke="black" points="1045.52,-201.44 1053.25,-205.59 1049.51,-201.72 1053.5,-202 1053.5,-202 1053.5,-202 1049.51,-201.72 1053.75,-198.41 1045.52,-201.44 1045.52,-201.44"/>
<ellipse fill="none" stroke="black" cx="1042.33" cy="-201.21" rx="3.2" ry="3.2"/>
</g>
<!-- syst_instances&#45;&gt;syst_enum_items -->
<g id="edge12" class="edge">
<title>syst_instances:w&#45;&gt;syst_enum_items:e</title>
<path fill="none" stroke="black" d="M1038.8,-224.35C959.61,-227.75 798.5,-255 731,-255"/>
<polygon fill="black" stroke="black" points="1045.5,-224.19 1053.59,-227.6 1049.5,-224.09 1053.5,-224 1053.5,-224 1053.5,-224 1049.5,-224.09 1053.41,-220.4 1045.5,-224.19 1045.5,-224.19"/>
<ellipse fill="none" stroke="black" cx="1042.3" cy="-224.27" rx="3.2" ry="3.2"/>
</g>
<!-- syst_instances&#45;&gt;syst_enum_items -->
<g id="edge13" class="edge">
<title>syst_instances:w&#45;&gt;syst_enum_items:e</title>
<path fill="none" stroke="black" d="M1039.06,-246.28C1017.85,-247.16 1007.85,-249.86 981,-251 869.97,-255.71 842.13,-255 731,-255"/>
<polygon fill="black" stroke="black" points="1045.5,-246.15 1053.57,-249.6 1049.5,-246.08 1053.5,-246 1053.5,-246 1053.5,-246 1049.5,-246.08 1053.43,-242.4 1045.5,-246.15 1045.5,-246.15"/>
<ellipse fill="none" stroke="black" cx="1042.3" cy="-246.22" rx="3.2" ry="3.2"/>
</g>
<!-- syst_instances&#45;&gt;syst_instances -->
<g id="edge15" class="edge">
<title>syst_instances:w&#45;&gt;syst_instances:e</title>
<path fill="none" stroke="black" d="M1043.1,-188.98C986.08,-242.79 995.37,-384 1154,-384 1322.5,-384 1322.5,-375.33 1253.5,-334"/>
<polygon fill="black" stroke="black" points="1048.22,-184.95 1056.73,-182.83 1051.36,-182.47 1054.5,-180 1054.5,-180 1054.5,-180 1051.36,-182.47 1052.27,-177.17 1048.22,-184.95 1048.22,-184.95"/>
<ellipse fill="none" stroke="black" cx="1045.7" cy="-186.93" rx="3.2" ry="3.2"/>
</g>
<!-- syst_instance_contexts -->
<g id="node8" class="node">
<title>syst_instance_contexts</title>
<g id="a_node8"><a xlink:href="../../tables/syst_instance_contexts.html" xlink:title="syst_instance_contexts" target="_top">
<polygon fill="#ffffff" stroke="transparent" points="1352,-346 1352,-492 1554,-492 1554,-346 1352,-346"/>
<polygon fill="#f5f5f5" stroke="transparent" points="1352,-470 1352,-492 1554,-492 1554,-470 1352,-470"/>
<polygon fill="none" stroke="black" points="1352,-470 1352,-492 1554,-492 1554,-470 1352,-470"/>
<text text-anchor="start" x="1357" y="-479.2" font-family="Helvetica,sans-Serif" font-weight="bold" font-size="11.00">syst_instance_contexts</text>
<text text-anchor="start" x="1512" y="-478.2" font-family="Helvetica,sans-Serif" font-size="11.00">[table]</text>
<polygon fill="none" stroke="black" points="1352,-448 1352,-470 1554,-470 1554,-448 1352,-448"/>
<image xlink:href="../../images/primaryKeys.png" width="11px" height="12px" preserveAspectRatio="xMinYMin meet" x="1357" y="-465"/>
<text text-anchor="start" x="1376" y="-456.2" font-family="Helvetica,sans-Serif" font-size="11.00">id</text>
<polygon fill="#ffffff" stroke="transparent" points="1352,-426 1352,-448 1554,-448 1554,-426 1352,-426"/>
<polygon fill="none" stroke="black" points="1352,-426 1352,-448 1554,-448 1554,-426 1352,-426"/>
<text text-anchor="start" x="1376" y="-434.2" font-family="Helvetica,sans-Serif" font-size="11.00">internal_name</text>
<polygon fill="none" stroke="black" points="1352,-404 1352,-426 1554,-426 1554,-404 1352,-404"/>
<image xlink:href="../../images/foreignKeys.png" width="11px" height="12px" preserveAspectRatio="xMinYMin meet" x="1357" y="-421"/>
<text text-anchor="start" x="1376" y="-412.2" font-family="Helvetica,sans-Serif" font-size="11.00">instance_id</text>
<polygon fill="none" stroke="black" points="1352,-382 1352,-404 1554,-404 1554,-382 1352,-382"/>
<image xlink:href="../../images/foreignKeys.png" width="11px" height="12px" preserveAspectRatio="xMinYMin meet" x="1357" y="-399"/>
<text text-anchor="start" x="1376" y="-390.2" font-family="Helvetica,sans-Serif" font-size="11.00">application_context_id</text>
<polygon fill="none" stroke="black" points="1352,-364 1352,-382 1554,-382 1554,-364 1352,-364"/>
<text text-anchor="start" x="1355" y="-370.2" font-family="Helvetica,sans-Serif" font-size="11.00">...</text>
<polygon fill="#ffffff" stroke="transparent" points="1352,-346 1352,-364 1452,-364 1452,-346 1352,-346"/>
<polygon fill="none" stroke="black" points="1352,-346 1352,-364 1452,-364 1452,-346 1352,-346"/>
<text text-anchor="start" x="1355" y="-352.2" font-family="Helvetica,sans-Serif" font-size="11.00">&lt; 2</text>
<polygon fill="#ffffff" stroke="transparent" points="1452,-346 1452,-364 1503,-364 1503,-346 1452,-346"/>
<polygon fill="none" stroke="black" points="1452,-346 1452,-364 1503,-364 1503,-346 1452,-346"/>
<text text-anchor="start" x="1492" y="-352.2" font-family="Helvetica,sans-Serif" font-size="11.00"> &#160;</text>
<polygon fill="#ffffff" stroke="transparent" points="1503,-346 1503,-364 1554,-364 1554,-346 1503,-346"/>
<polygon fill="none" stroke="black" points="1503,-346 1503,-364 1554,-364 1554,-346 1503,-346"/>
<text text-anchor="start" x="1543" y="-352.2" font-family="Helvetica,sans-Serif" font-size="11.00"> &#160;</text>
</a>
</g>
</g>
<!-- syst_instance_contexts&#45;&gt;syst_application_contexts -->
<g id="edge5" class="edge">
<title>syst_instance_contexts:w&#45;&gt;syst_application_contexts:e</title>
<path fill="none" stroke="black" d="M1336.52,-395.4C1290.38,-412.82 1326.85,-519 1264.5,-519"/>
<polygon fill="black" stroke="black" points="1343.11,-394.31 1351.59,-396.55 1347.05,-393.66 1351,-393 1351,-393 1351,-393 1347.05,-393.66 1350.41,-389.45 1343.11,-394.31 1343.11,-394.31"/>
<ellipse fill="none" stroke="black" cx="1339.95" cy="-394.84" rx="3.2" ry="3.2"/>
</g>
<!-- syst_instance_contexts&#45;&gt;syst_instances -->
<g id="edge6" class="edge">
<title>syst_instance_contexts:w&#45;&gt;syst_instances:e</title>
<path fill="none" stroke="black" d="M1336.51,-412.83C1297.35,-399.95 1305.03,-334 1254.5,-334"/>
<polygon fill="black" stroke="black" points="1343.09,-413.82 1350.47,-418.56 1347.04,-414.41 1351,-415 1351,-415 1351,-415 1347.04,-414.41 1351.53,-411.44 1343.09,-413.82 1343.09,-413.82"/>
<ellipse fill="none" stroke="black" cx="1339.92" cy="-413.34" rx="3.2" ry="3.2"/>
</g>
<!-- syst_instance_type_applications&#45;&gt;syst_applications -->
<g id="edge7" class="edge">
<title>syst_instance_type_applications:w&#45;&gt;syst_applications:e</title>
<path fill="none" stroke="black" d="M1007.21,-617.38C959.18,-596.13 1045.44,-453 974,-453"/>
<polygon fill="black" stroke="black" points="1013.63,-618.56 1020.85,-623.54 1017.57,-619.28 1021.5,-620 1021.5,-620 1021.5,-620 1017.57,-619.28 1022.15,-616.46 1013.63,-618.56 1013.63,-618.56"/>
<ellipse fill="none" stroke="black" cx="1010.48" cy="-617.98" rx="3.2" ry="3.2"/>
</g>
<!-- syst_instance_type_applications&#45;&gt;syst_enum_items -->
<g id="edge8" class="edge">
<title>syst_instance_type_applications:w&#45;&gt;syst_enum_items:e</title>
<path fill="none" stroke="black" d="M1006.78,-641.82C889.02,-638.84 841.3,-598.68 771,-497 740,-452.17 785.51,-255 731,-255"/>
<polygon fill="black" stroke="black" points="1013.5,-641.9 1021.46,-645.6 1017.5,-641.95 1021.5,-642 1021.5,-642 1021.5,-642 1017.5,-641.95 1021.54,-638.4 1013.5,-641.9 1013.5,-641.9"/>
<ellipse fill="none" stroke="black" cx="1010.3" cy="-641.86" rx="3.2" ry="3.2"/>
</g>
</g>
</svg>
